<?xml version="1.0" encoding="UTF-8"?>
<svg id="Layer_2" data-name="Layer 2" xmlns="http://www.w3.org/2000/svg" viewBox="0 0 512.83 649.11">
  <defs>
    <style>
      .cls-1 {
        fill: #feb828;
      }

      .cls-2 {
        fill: #f4e23c;
      }

      .cls-3 {
        fill: #ec5300;
      }

      .cls-4 {
        fill: #502902;
      }

      .cls-5 {
        fill: #e39d4d;
      }

      .cls-6 {
        fill: #9c5014;
      }
    </style>
  </defs>
  <g id="Layer_1-2" data-name="Layer 1">
    <g id="dog-slightleft-barking">
      <path class="cls-4" d="M89.4,92.13c-.06.06-1.47.22-1.61-.32-13.92-29.25-28.73-58.09-44.21-86.53-.64-1.83-.19-3.78,1.33-5l1.8-.27c1.98.29,3.56,4.37,4.41,6.11,10.1,20.78,20.09,43.05,29.48,64.21,2.5,5.63,6.93,14.17,8.56,19.7.15.49.45,1.9.24,2.11Z"/>
      <path class="cls-4" d="M89.92,115.16c-.42.42-2.35-1.22-2.86-1.59-23.82-17.21-45.59-40.15-68.85-58.33-3.5-3.03-1.27-8.25,3.41-4.98,5.01,3.5,13.02,12.86,18.05,17.54,15.63,14.52,33.74,29.08,48.44,44.19.45.46,2.35,2.61,1.81,3.16Z"/>
      <path class="cls-4" d="M88.88,166.45l-.52,1.83-74.55,29.07c-4.14,2.25-7.91-2.66-3.44-5.01,24.35-7.37,48.09-16.88,72.35-24.48,1.02-.32,5.65-1.91,6.17-1.42Z"/>
      <path class="cls-4" d="M78.41,141.32l-2.35.54-73.79-7.35c-3.23-.6-2.98-5.09.48-4.72,17.66,2.35,35.31,4.88,52.96,7.28,6.33.86,13.62,1.05,19.77,2.22,1.15.22,3.1.46,2.93,2.03Z"/>
      <path class="cls-6" d="M146.98,71.19c-3.37.88-8.14.88-11.51,0,3.36-.22,8.17-.24,11.51,0Z"/>
      <g>
        <g>
          <path class="cls-5" d="M450.53,308.28c10.04-12.95,20.71-25.64,25.89-41.37,6.58-19.99,5.13-42.26-2.6-61.73-1.77-4.46-10.1-19.08-9.09-22.71.22-.79,3.38-.68,4.14-.61,22.59,2.2,39.34,38.38,42.75,58.26,5.02,29.28-5.47,71.46-32.01,88.06-.96.6-3.58,2.21-4.33,2.61-1.71.92-4.2,1.36-5.91,2.6-.36-4.14-15.41-24.48-18.84-25.12Z"/>
          <path class="cls-6" d="M448.44,307.24c.5.67.47,1.52.53,1.58.09.09,1.18-.6,1.56-.53,3.43.65,18.48,20.99,18.84,25.12.09,1.04.13,2.26-1.05,2.62-.17-.13-1.22.12-2.12-.75-1.37-1.34-4.25-7.15-5.83-9.36-2.86-4-6.54-7.8-9.24-11.7-1.51-2.2-3.21-4.11-2.71-6.98Z"/>
          <path class="cls-1" d="M174.71,316.66c.09.81.94,2.04,1.84,2.13,1.71.17,2.2-1.57,2.34-1.61.44-.12,3.96,1.39,4.68,1.87,18.62,12.51,1.71,43.84-17.73,32.9-16.02-9.02-9.24-34.48,8.86-35.29Z"/>
          <g>
            <path class="cls-1" d="M284.62,244.96c1.83,1.92,2.81,5.21,3.52,7.76.25.9-.33,1.97,1.2,1.66.2.79.35,1.78.52,2.62l-.02,8.16c-.17.48.54,1.14.55,1.26,0,.17,0,.35,0,.52.03,2.22-4.23,7.7-5.78,9.66-23.66,29.92-68.54,43.79-105.7,40.06.37-6.75,2.79-15.92,2.09-22.51,34.29,3.32,70.15-11.76,93.43-36.63,3.68-3.93,6.6-8.61,10.2-12.57Z"/>
            <polygon class="cls-1" points="290.9 266.41 290.38 266.41 290.9 265.89 290.9 266.41"/>
            <path class="cls-2" d="M290.9,266.94h-.52c0-.17,0-.35,0-.52h.52v.52Z"/>
            <path class="cls-2" d="M290.9,262.23c-.86.53-.84,2.64,0,3.14v.52l-.52.52c0-.12-.72-.78-.55-1.26l.02-8.16c.38,1.83.83,3.35,1.05,5.23Z"/>
            <path class="cls-2" d="M289.33,254.38c-1.52.31-.95-.76-1.2-1.66-.7-2.56-1.68-5.84-3.52-7.76.17-.18.34-.36.52-.52,1.71,3.76,3.01,5.43,4.19,9.94Z"/>
            <path class="cls-1" d="M290.9,265.37c-.84-.5-.86-2.61,0-3.14.11.95,0,2.14,0,3.14Z"/>
            <path class="cls-1" d="M137.55,276.88c10.47,9.89,25.59,15.27,39.78,16.75-.83,7.21-1.98,13.95-2.07,21.24,0,.69-.54,1.2-.55,1.26-11.24-1.83-23.35-4.8-32.72-11.5-1.18-.85-4.8-3.73-5.48-4.72-2.95-4.28-2.5-13.33-1.19-18.2.56-2.09,1.6-3.26,2.24-4.83Z"/>
            <path class="cls-6" d="M180.99,294.15c.7,6.58-1.72,15.75-2.09,22.51v.52c-.14.04-.63,1.77-2.34,1.61-.91-.09-1.75-1.32-1.84-2.13-.02-.17,0-.35,0-.52,0-.07.54-.58.55-1.26.09-7.29,1.24-14.03,2.07-21.24l2.86-1.57c.92.51.72,1.26.81,2.09Z"/>
          </g>
        </g>
        <g>
          <path class="cls-5" d="M290.9,266.94c5.21,6.52,12.69,10.63,20.53,13.23,4.27,1.41,9,2.69,12.7,2.99,2.2.18,5,1.53,5.73,1.62,2.26.29,9.44-.06,12.57-.02,19.87.26,38.61-1.01,58.5,2.21,13.07,2.12,39.39,9.28,47.51,20.27-.5,2.87,1.19,4.78,2.71,6.98,2.69,3.9,6.37,7.7,9.24,11.7,1.58,2.21,4.46,8.02,5.83,9.36.89.88,1.95.62,2.12.75.59.44,4.93,11.94,5.49,13.61,7.78,23.27,7.86,49.62,9.19,74.08,1.13,20.94-.02,42.57,6.77,62.79,3.23,9.62,9.19,19.42,9.97,29.8,1.09,14.42-1.05,36.59-2.64,51.31-2.48,22.92-4.18,47.02-32.97,48.42l-.26-.51-.26.51c-.69.02-1.4,0-2.09,0-.58-.91-2.15-.47-3.14-.52-5.11-.27-8-.86-12.56-3.14l3.14.52c-.11-4.37-.15-8.19.9-12.45.62-2.5,2.99-6.47,3.2-8.36.24-2.14-1.78-2.17-3.08-.94-4.05,3.83-5.72,15.93-4.16,21.22-6.95-3.48-9.4-7.84-8.33-15.92,1.15-8.64,10.5-14.12,14.51-21.08,7.28-12.63,6.87-36.57,1.92-49.87-5.01-13.46-19.07-25.78-27.69-37.73-12.75-17.68-21.65-37.78-28.03-58.58.22-.12.96-1.29.94-1.73-2.93-8.53-3.88-18.28-6.73-26.76-.67-2.01-2.91-5.77-4.05-2.02-1.26,4.16,6.12,26.39,5.13,27.37-28.05,6.31-52.91,20.72-77.72,34.55l.78-36.12c-3.22-.73-3.12,1.4-3.6,3.99-2.17,11.59-1.83,24.77-2.16,36.57.09,1.31,1.15,1.49,2.32,1.31,24.57-11.84,47.95-26.18,74.09-34.54-.34,2.86-1.72,5.53-2.46,8.26-3.44,12.71-6.08,33.35-2.27,45.93,3.41,11.25,7.96,12.92,7.38,26.69-.79,18.44-9.17,45.26-15.86,62.65-6.6,17.17-11.65,30.51-32.84,30.75-2.25-4.57-.43-10.96,1.63-15.38.91-1.95,5.21-7.14,4.41-8.69-1.72-3.36-5.76,2.21-6.78,3.7-3.59,5.24-6.16,12.93-4.44,19.26l4.13.06-2.09.52c-6.22-.58-10.15-1.41-15.7-4.19.28.17,2.05.28,2.61.52-.34-4.44.53-8.75,2-12.92.7-1.99,4.05-7.42,4.21-8.39.51-3.1-2.7-1.48-4.1.13-2.68,3.08-8.5,18.3-4.73,20.66-3.4-1.7-4.41-1.65-6.21-5.56-4.45-9.61,1.04-18.03,8.66-23.66,2.09-1.54,6.14-3.24,7.78-4.78,5.04-4.77,9.24-27.59,9.69-34.8,1.27-20.44-6.6-22.91-16.97-37.5-5.5-7.74-10.23-15.98-13.14-25.06-.97,1.51-1.1,4.19-1.31,6.02-2.29,19.96-2.69,41.07-4.72,61.23-2.35,23.41-4.95,49.1-9.56,72.09-4.6,22.92-11.6,38.62-37.54,39.66-1.29-5.48.2-11.95,2.68-16.94.92-1.86,5.11-6.49,3.89-8.21-2.93-1.88-5.95,3.03-7.32,5.3-3.3,5.49-5.35,13.16-2.92,19.32-.87,0-1.75,0-2.62,0-5.32-.03-8.67-1.59-13.08-3.66,2.57-.2,1.37-4.07,1.64-5.95.41-2.94,1.06-6.07,2.15-8.84.67-1.69,4.22-7.03,4.01-7.87-1.09-4.35-5.73,2.8-6.51,4.32-2.66,5.17-3.69,12.16-2.33,17.82-.23-.13-.99.04-1.52-.29-5.86-3.61-8.82-11.97-6.55-18.5,3.86-11.13,15.8-14.64,19.43-27.67,7.08-25.38,7.22-69.46,5.9-96.15-.34-6.93-3.19-21.32-2.61-26.96.11-1.08.88-1.89,1.02-2.91.84-6.33-5.56-30.83-8.76-36.71-1.58-2.91-4.69-3.56-4.26.57.38,3.66,3.79,11.3,4.94,15.5,1.64,5.98,2.87,12.07,4.44,18.07-14.53-.21-29.38-3.83-43.04-8.78-17.41-6.31-34.56-15.12-48.55-27.34-1.92-1.68-5.3-6.07-7.03-7.1-2.9-1.72-3.5.7-2.21,3.25,2.63,5.16,19.99,17.11,25.51,20.54,4.99,3.1,10.33,6.21,15.66,8.68-1.6,10.09-1.92,20.4-3.2,30.56-1.98,15.66-5.25,31.18-7.74,46.69-3.08,19.18-4.97,38.9-9.73,57.79-5.51,21.85-14.61,35.81-39.26,36.15-1.4.02-3.29-.22-4.45-1.09.79-.13,1.78.1,2.62,0-.47-6.75.7-12.91,3.91-18.85.85-1.56,8.26-10.79,1.54-7.88s-10.7,20.04-8.59,26.73c-6.66.64-11.09-.87-16.75-4.19,2.91-.37,2.2-4.98,2.77-7.43.94-3.99,1.96-7.2,3.76-10.89.82-1.69,5.17-6.44,2-7.26-2.55-.66-7,8.28-7.72,10.43-.78,2.31-1.55,5.74-1.79,8.16-.21,2.19.16,4.34-.07,6.47-12.16-8.18-7.84-21.98,2.14-30.05,3.14-2.54,8.27-4.65,10.97-7.35,9.15-9.19,8.75-39.01,9.38-51.85,1.2-24.46,1.7-49.27.57-73.8-1.66-35.89-9.24-71.82-5.25-107.79,1.89-17.04,6.06-33.67,8.89-50.51,1.05-.45,1.43-1.56,1.57-2.62.68.99,4.3,3.88,5.48,4.72,9.37,6.7,21.49,9.67,32.72,11.5,0,.17-.02.36,0,.52-18.11.82-24.89,26.27-8.86,35.29,19.43,10.94,36.35-20.39,17.73-32.9-.71-.48-4.24-1.99-4.68-1.87v-.52c37.16,3.73,82.04-10.14,105.7-40.06,1.55-1.96,5.81-7.44,5.78-9.66h.52ZM465.19,614.98c-1.29-5.42-.39-10.57,2-15.53.8-1.65,6.1-7.76,2.37-8.47-7.78,4.24-11.13,15.63-9.03,23.94l4.65.05Z"/>
          <path class="cls-6" d="M398.2,429.18c-.86.47-3,.08-4.07.33-2.39.57-4.61,1.55-6.92,2.29-26.14,8.36-49.53,22.7-74.09,34.54-1.18.18-2.24,0-2.32-1.31.32-11.81-.01-24.98,2.16-36.57.48-2.59.38-4.73,3.6-3.99l-.78,36.12c24.8-13.83,49.67-28.24,77.72-34.55.99-.98-6.38-23.21-5.13-27.37,1.13-3.76,3.37.01,4.05,2.02,2.85,8.48,3.8,18.23,6.73,26.76.03.44-.71,1.61-.94,1.73Z"/>
          <path class="cls-6" d="M190.94,458.49c-5.33-2.47-10.67-5.58-15.66-8.68-5.53-3.43-22.89-15.38-25.51-20.54-1.3-2.55-.7-4.97,2.21-3.25,1.73,1.03,5.1,5.42,7.03,7.1,14,12.22,31.14,21.02,48.55,27.34,13.66,4.95,28.5,8.57,43.04,8.78-1.57-6-2.8-12.09-4.44-18.07-1.15-4.2-4.56-11.84-4.94-15.5-.43-4.13,2.68-3.48,4.26-.57,3.21,5.89,9.6,30.39,8.76,36.71-.13,1.02-.91,1.83-1.02,2.91-21.4-1.28-42.87-7.23-62.28-16.22Z"/>
          <path class="cls-6" d="M341.15,606.08c-1.54.02-2.3-.44-3.14-.52l2.09-.52-4.13-.06c-1.72-6.33.85-14.02,4.44-19.26,1.02-1.49,5.06-7.06,6.78-3.7.8,1.55-3.5,6.74-4.41,8.69-2.07,4.41-3.89,10.8-1.63,15.38Z"/>
          <path class="cls-6" d="M258.98,649c-1.91.08-4.77.38-6.28-.52.87,0,1.75,0,2.62,0-2.43-6.15-.38-13.83,2.92-19.32,1.37-2.27,4.39-7.18,7.32-5.3,1.21,1.71-2.97,6.34-3.89,8.21-2.48,5-3.97,11.47-2.68,16.94Z"/>
          <path class="cls-6" d="M126.04,628.59c-2.11-6.7,1.89-23.83,8.59-26.73s-.69,6.32-1.54,7.88c-3.21,5.94-4.39,12.1-3.91,18.85-.84.09-1.83-.13-2.62,0-.17.03-.35-.02-.52,0Z"/>
          <path class="cls-6" d="M109.29,624.4c-.3-.17-.64-.25-1.05-.52.23-2.13-.15-4.29.07-6.47.24-2.42,1.01-5.84,1.79-8.16.73-2.16,5.18-11.1,7.72-10.43,3.17.83-1.18,5.57-2,7.26-1.8,3.7-2.82,6.9-3.76,10.89-.58,2.45.13,7.06-2.77,7.43Z"/>
          <path class="cls-6" d="M239.61,644.81c-.38-.18-.68-.33-1.05-.52-1.36-5.66-.32-12.65,2.33-17.82.78-1.52,5.42-8.67,6.51-4.32.21.84-3.34,6.18-4.01,7.87-1.09,2.76-1.74,5.9-2.15,8.84-.26,1.88.93,5.76-1.64,5.95Z"/>
          <path class="cls-6" d="M464.14,616.03c-.17,0-.35,0-.52,0l.26-.51.26.51Z"/>
          <path class="cls-6" d="M465.19,614.98l-4.65-.05c-2.1-8.31,1.24-19.7,9.03-23.94,3.73.7-1.58,6.82-2.37,8.47-2.4,4.96-3.29,10.1-2,15.53Z"/>
          <path class="cls-6" d="M322.31,601.37c-3.77-2.36,2.05-17.58,4.73-20.66,1.4-1.61,4.6-3.22,4.1-.13-.16.97-3.51,6.4-4.21,8.39-1.47,4.17-2.34,8.48-2,12.92-.57-.24-2.34-.35-2.61-.52Z"/>
          <path class="cls-6" d="M445.82,612.36c-1.56-5.29.11-17.39,4.16-21.22,1.3-1.23,3.32-1.2,3.08.94-.21,1.89-2.58,5.86-3.2,8.36-1.06,4.26-1.02,8.08-.9,12.45l-3.14-.52Z"/>
        </g>
        <g>
          <path class="cls-5" d="M161.63,95.79c4.81-1.18,6.85-8.11,6.3-12.54,1.61.11,2.96-.73,4.47-1.03,5.69-1.14,18-2.85,23.41-1.6,3.68.85,4.65.68,8.39,1.08,21.5,2.28,44.6,17.02,58.43,32.93,1.49,8.46,2.58,16.2,2.12,24.88-1,18.61-14.9,52.85-3.07,68.97,5.93,8.08,12.9,10,22.42,6.63-.42,4.45-.61,8.88-.55,13.37.05,3.54.37,13.26,1.59,15.94-.18.17-.36.34-.52.52-3.6,3.96-6.52,8.64-10.2,12.57-23.28,24.87-59.14,39.95-93.43,36.63-.09-.83.12-1.58-.81-2.09l-2.86,1.57c-14.19-1.47-29.31-6.86-39.78-16.75.55-1.36.44-1.8.52-3.14.12-1.9.75-14.95.52-15.7l18.73-4.04c.83-.51,5.6-1.99,5.8-2.31.61-1.01-.05-2.4-1.25-2.58-1.91-.28-11.52,2.84-14.36,3.44-3.2.68-7.02,1.82-9.96,2.34-8.3,1.47-26.28-6.41-31.62-13.13-16.71-21.03-1.57-39.82,4.95-60.39,1.05-3.31,3.69-12.15,3.69-15.2,0-2.81-2.83-4.89-4.35-7.21-14.66-22.36-11.23-49,8.75-66.32,1.82-1.58,3.21-3.62,5.5-4.71.09.22-.1.57,0,.78.11.24.27.3.52.27,5.88,15.51,21.97,17.78,34.54,8.37.28-.16.82-.12,1.33-.5.42-.3.53-.85.76-1.07ZM225.48,111.49c-.33.34-1.09.34-1.07,1.3.03,2.31,8.68,5.09,10.49,6.55,1.88,1.64,2.39,13.11,5.48,8.36,2.66-4.1-.53-11.7-3.97-14.33-.54-.41-1.48-.47-2.03-.83s-.59-.56-1.57-1.05c-2.76-1.38-4.5-2.94-7.33,0ZM123.47,183.94c-.04.15-1.56.64-1.62.83-2.28,7.35-4.74,13.77-7.33,20.94-.37,1.02-.69,2.11-1.05,3.14-2.37,6.95-4.62,15.4.52,21.98,1.81,2.32,5.15,4.59,7.85,5.76,2.39,2.25,6.25,3.18,9.42,3.66.93.14,2.14-.05,3.14,0,10.15.5,16.56-2.12,25.12-7.33,11.33-6.9,21.66-16.69,29.83-27.22,4.09-5.27,7.91-11.05,10.47-17.27.82-1.6,1.46-3.02,2.09-4.71,1.69-1.17,4.32-10.63,3.11-11.5-2.76.72-5.66,2.86-8.15,3.48-17.91,4.46-36.24-.58-49.09-14.03-1.49-1.57-6.75-9.17-7.34-9.27-3.28-5.73-5.42-11.38-7.21-17.77-.57-2.05-1.35-6.69-2.19-7.85s-1.61,2.58-1.8,3.22c-4.51,14.8-2.84,28.42-3.86,43.51-.24,3.58-1.79,6.83-1.93,10.43ZM212.92,130.86c-.19.14-.35.36-.52.52-2.08,1.97-3.24,4.37-3.14,7.33.13,3.83,1.85,5.67,4.71,7.85.31.24.42.84,1.16,1.17,9.02,4.02,17.54-7.52,11.62-15.79-3.14-4.39-10.47-4.94-13.83-1.08Z"/>
          <path class="cls-6" d="M262.64,114.63c4.67-1.36,8.76-2.68,13.61-1.32,6.84,1.92,11.97,12.47,16.73,17.82,14.74,16.59,44.52,27.47,26.61,53.8-6.44,9.46-24.76,26.39-35.49,30.19-9.52,3.37-16.49,1.45-22.42-6.63-11.83-16.13,2.07-50.36,3.07-68.97.47-8.68-.63-16.42-2.12-24.88Z"/>
          <path class="cls-4" d="M123.95,88.6c-4.5-11.24-.13-16.64,11.32-17.4,3.47.91,8.38.91,11.85,0,6.3.46,19.83,4.26,20.98,11.73,1.05,6.78-1.49,9.5-5.89,13.83-.24.23-.35.8-.78,1.11-.53.39-1.09.35-1.37.52-3.24,1.93-9.52,4.46-13.22,4.85-10.76,1.13-17.94-3.93-21.82-14.1"/>
          <path class="cls-6" d="M137.55,254.9c2.95-.52,6.76-1.65,9.96-2.34,2.84-.61,12.45-3.73,14.36-3.44,1.19.18,1.86,1.57,1.25,2.58-.19.32-4.96,1.8-5.8,2.31l-18.73,4.04c-.06-.19-1.86-1.51-1.05-3.14Z"/>
          <path class="cls-4" d="M121.85,184.77c.06-.19.48-.38.52-.52,5.27-17.34-.73-33.07,4.44-50.25.2-.65,3.52-10.64,4.97-8.89,1.17,9.63,4.85,17.41,9.3,25.94.22-.06.6.74.64.75.59.1,5.83,7.85,7.33,9.42l1.85,2.6c12.08,10.43,27.24,15.41,43.19,12.34,3.55-.68,7.34-3.42,10.94-3.94.83.65.14,6.04-2.49,11.02-.85,1.6-2.04,3.52-2.72,5.19-2.6,6.42-5.3,10.78-9.1,15.55-.25.32-.9.97-1.37,1.72-8.17,10.52-18.5,20.32-29.83,27.22-2.58,1.69-4.23,2.37-6.69,3.67-3.77,1.99-8,3.26-11.48,3.54-1.96.16-5.03.68-6.94.57-1-.05-.63.07-1.56-.07-1.56.11-2.6-.14-3.52-.38-2.47-.64-5-1.83-7.33-2.84-2.7-1.17-6.78-4.26-8.75-7.65l-1.97-3.5c-.95-3.2-.28-8.81.64-12.02l1.55-5.39c.35-1.03.68-2.12,1.05-3.14M131.8,187.38c-.08.04-1.45.96-1.57,1.05-.56.43-.76.8-1.05,1.05-.27.22-1.89,1.84-2.09,2.09-.23.27-.63.52-1.05,1.05-.8,1.02-2.91,4.09-3.66,5.23-4.49,6.8-7.74,15.11-8.37,23.32-.08.99-.49,2.1,1.04,1.81.15,1.75.9,4.71,1.57,6.28.51,1.19,1.12,2.58,2.62,2.62.17.18.34.36.52.52,6.72,6.25,14.68,5.07,23.04,3.13-.07-.24-.52-.43-.53-.51-.06-.57,1.5-.8,2.09-1.05.46.99,1.69.26,2.37.02,4.22-1.48,7.53-4.03,11.76-5.78.09-.59-.53-.48-.52-.52.09-.57,8-5.53,9.37-6.6,5.23-4.09,11.39-9.74,15.14-15.22,3.29-4.81,4.05-6.5-.95-10.63-1.99-1.45-3.72-1.42-5.74-2.46-.61-.31-.4-.47-2.11-1.73-.59-.22-1.98-1.01-2.09-1.05l-1.15-.03c-1.82.13-3.47-.54-4.95-.54l-13.59-.2c-2.44,0-2.56.07-4.82-1.41-1.18-.76-2.6-1.75-2.74-1.81-3.66-2.28-9.21-1.37-12.52,1.37Z"/>
          <path class="cls-4" d="M232.81,111.49c.98.49,1.44.26,2.01.63,3.79,2.11,6.5,6.73,6.82,11.52.1,1.43-2.14,7.25-3.12,5.53-3.29-5.82-1.73-7.04-3.62-9.31s-8.55-3.92-10.2-6.27c-.55-.78-.41-1.65.78-2.1,3.63-3.6,5.04-.96,7.33,0Z"/>
          <path class="cls-3" d="M144.88,185.81c.15.05,1.49,1.08,2.62,1.57,3.31,3.12,4.26,1.05,6.54,1.05h9.42c1,0,6.86,1.21,8.11,1.57.11.03,1.5.83,2.09,1.05,2.86,1.07,5.49,2.23,7.85,4.19,5,4.14,4.24,5.83.95,10.63-3.75,5.48-9.91,11.13-15.14,15.22-1.36,1.07-8.33,6.54-8.42,7.1-4.23,2.92-8.94,4.76-13.59,6.69-.59.24-2.52.64-3.48,1-7.56,1.99-17,2.54-22.08-3.5-.18-.17-.28-.52-.52-.52-.96,0-2.1-.47-2.62-2.62-.67-1.57-2.75-4.74-2.9-6.48-.78-9.05,3.61-17.34,8.65-24.92.76-1.15,2.86-4.21,3.66-5.23l1.05-1.05c.21-.25,1.83-1.87,2.09-2.09l1.05-1.05c.12-.09,1.5-.99,1.57-1.05,6.29-4.91,9.41-2.89,13.08-1.57Z"/>
          <circle class="cls-4" cx="218.82" cy="138.36" r="10.25"/>
        </g>
      </g>
    </g>
  </g>
</svg>