<?xml version="1.0" encoding="UTF-8"?>
<svg id="Ebene_2" data-name="Ebene 2" xmlns="http://www.w3.org/2000/svg" viewBox="0 0 95.96 159.93">
  <defs>
    <style>
      .cls-1 {
        fill: #d9b6b6;
      }

      .cls-2 {
        fill: none;
        stroke: #630;
        stroke-linecap: round;
        stroke-miterlimit: 10;
      }

      .cls-3 {
        fill: #d9a2a0;
      }

      .cls-4, .cls-5 {
        fill: #d9baba;
      }

      .cls-4, .cls-6 {
        isolation: isolate;
        opacity: .5;
      }

      .cls-7 {
        fill: #d38a17;
      }

      .cls-8, .cls-6 {
        fill: #603813;
      }

      .cls-9 {
        fill: #273758;
      }

      .cls-10 {
        fill: #466e9f;
      }

      .cls-11 {
        fill: #c69696;
      }

      .cls-12 {
        fill: #e6e6e6;
      }
    </style>
  </defs>
  <g id="Layer_1" data-name="Layer 1">
    <g id="german-boy-kneeling">
      <g>
        <path class="cls-1" d="M41.61,131.19c7.02-12.13,15.33-24.48,15.79-24.17l4.42,2.52-11.06,27-8.24,20.29-.38.84c-.08.23-.31.53-.53.69-1.53,1.75-4.5,2.14-7.02.76-2.52-1.37-3.74-4.35-2.82-6.56.31-.53.38-1.22.61-1.83,1.3-4.65,5.03-11.97,9.38-19.37h0v-.15h-.15,0Z"/>
        <path class="cls-12" d="M48.86,119.21c4.5-7.09,8.24-12.35,8.54-12.2l4.42,2.52-5.49,13.27-7.47-3.58h0Z"/>
        <path class="cls-9" d="M55.27,104.95c0-.84.53-1.68,1.22-2.14.46-.38,19.52-2.97,20.06-2.9,4.42,1.45-14.72,9.38-14.72,9.38l-5.26.31s-1.37-3.74-1.22-4.73h-.08v.08Z"/>
        <path class="cls-1" d="M37.42,158.26c-3.51,0-6.33-1.75-6.41-5.19l.23-13.42-.76-17.54v-.23c0-4.35,3.51-7.85,7.85-8.08,4.42,0,8.16,3.36,8.24,7.78l-1.6,18.23-1.07,12.43c-.31,3.28-3.05,5.87-6.33,5.95h-.15v.08Z"/>
        <path class="cls-10" d="M44.66,139.58l-14.49-.23-.53-17.46h0c0-4.35,4.04-8.16,8.39-8.39,4.42,0,11.97,3.89,12.13,8.39l-5.41,17.69h-.08,0Z"/>
      </g>
      <g>
        <path class="cls-1" d="M60.3,131.19c7.02-12.13,15.33-24.48,15.79-24.17l4.42,2.52-11.06,27-8.24,20.29-.38.84c-.08.23-.31.53-.53.69-1.53,1.75-4.5,2.14-7.02.76-2.52-1.37-3.74-4.35-2.82-6.56.31-.53.38-1.22.61-1.83,1.3-4.65,5.03-11.97,9.38-19.37h0v-.15h-.15,0Z"/>
        <path class="cls-12" d="M67.54,119.21c4.5-7.09,8.24-12.35,8.54-12.2l4.42,2.52-5.49,13.27-7.47-3.58h0Z"/>
        <path class="cls-9" d="M74.02,104.95c0-.84.53-1.68,1.22-2.14.46-.38,19.52-2.97,20.06-2.9,4.42,1.45-14.72,9.38-14.72,9.38l-5.26.31s-1.37-3.74-1.22-4.73h-.08v.08Z"/>
        <path class="cls-1" d="M55.88,157.88c-3.51,0-6.1-1.07-6.1-4.42v-14.11l-.84-17.54v-.23c0-4.35,3.51-7.85,7.85-8.08,4.42,0,8.16,3.36,8.24,7.78l-1.6,18.23-1.14,13.65c-.31,3.28-2.97,4.65-6.25,4.73h-.15,0Z"/>
        <path class="cls-10" d="M64.11,139.58l-14.49-.23-3.28-15.02.38-3.05c0-4.35,5.64-7.55,9.99-7.7,4.42,0,8.16,3.36,8.24,7.78l-.84,18.23h0Z"/>
      </g>
      <g>
        <path class="cls-1" d="M27.81,86.96h0c.38,1.37.31,2.9-.31,4.19l-13.04,25.85-4.8-3.97,10.37-25.7c1.53-3.97,6.48-4.12,7.7-.38h.08Z"/>
        <path class="cls-1" d="M26.06,91.46h0c-3.05.23-7.4-1.14-4.65-7.02l5.34-23.41c.76-3.74,3.66-5.87,6.56-4.96h0c3.36.99,5.34,5.72,3.89,9.76l-7.7,21.73c-.69,1.83-1.68,3.81-3.28,3.97h-.15v-.08Z"/>
        <path class="cls-12" d="M29.79,56.07c-2.75,2.9-6.18,8.69-7.93,20.67l11.97,4.73,1.22-4.65c3.13-7.24,5.57-13.96,4.65-18.45-.99-4.27-6.86-5.57-9.91-2.36h0v.08Z"/>
        <path class="cls-5" d="M11.34,112.88c-2.14-.23-6.86,0-10.98,3.51-.61.53-.15,1.53.61,1.45h0s-1.83.69-.46,2.67c0,0-1.07,2.52,1.83,1.53l6.71-1.83s-1.6,1.22-2.44,2.29c-.46.53,0,1.3.69,1.14.76-.15,1.91-.69,3.74-1.83,0,0,7.93-5.34,2.52-8.24-.76-.46-1.45-.53-2.29-.53h.08v-.15Z"/>
      </g>
      <path class="cls-12" d="M31.24,99.08c0-7.32-.31-14.64-.69-21.96l-.46-8.24c-.31-5.64-3.58-14.87,7.4-15.94,2.14-1.3,4.5-2.67,4.5-2.67l8.08-1.07,2.44,1.83,6.41,2.52c2.44,1.83,2.52,6.33,2.29,9.3l.69,25.93c-.08,1.6.46,5.87.61,7.63-.31,0-2.14.61-4.42,1.22-9.53,2.29-17.31,3.36-26.54,1.53h-.31v-.08Z"/>
      <path class="cls-10" d="M29.49,117.69l.15-8.85c.31-2.06.69-4.12,1.14-6.1.15-1.37.38-2.67.46-3.97,0-.53.23-1.07.23-1.6,9.99,2.97,20.82,2.44,30.96-.84v1.37c-.31,3.97.23,7.93,1.45,11.67.76,2.14,1.22,4.58,1.45,6.86.46,6.1-1.14,10.68-1.14,10.68h0l-14.95,5.95h-4.27l-15.02-5.95"/>
      <g>
        <path class="cls-1" d="M61.67,81.85h0c-.76,1.07-1.07,2.75-.76,4.04l5.49,28.37,5.72-2.44-3.05-27.53c-.46-4.19-4.96-5.72-7.24-2.44h-.15Z"/>
        <path class="cls-1" d="M64.03,89.32h0c2.97.31,5.41-3.28,4.58-7.02l-5.11-23.34c-.69-3.74-3.58-5.95-6.56-5.11h0c-3.43.99-5.26,5.64-3.89,9.76l7.7,21.73c.69,1.91,1.75,3.89,3.36,3.97h-.15.08Z"/>
        <path class="cls-12" d="M61.52,54.7c2.82,2.82,6.33,8.54,8.54,20.51l-11.9,5.19-1.37-4.65c-3.43-7.09-6.02-13.73-5.11-18.23.76-4.19,6.63-5.8,9.76-2.67h.08v-.15h0Z"/>
        <path class="cls-1" d="M67.92,123.18l-1.68-9.38,5.72-2.44v.38c6.94,3.74,7.85,9.46,7.85,9.46.92,5.57-.46,6.18-1.68,5.87-.84-.31-1.53-.92-2.06-1.83-2.06-3.97-6.56-7.7-6.56-7.7.31,8.08-1.6,5.72-1.6,5.72h0v-.08Z"/>
      </g>
      <path class="cls-10" d="M39.02,55.16c.38,3.58,4.42,5.57,7.55,3.66,3.13-1.83,4.96-5.19,5.87-7.78l-2.44-1.83-8.08,1.07s-1.3,1.14-3.05,2.75c-.08.76,0,1.45,0,2.06h.15v.08Z"/>
      <g>
        <path class="cls-7" d="M33.45,8.49c.53-2.06,1.53-4.04,2.75-5.49-.23-.15-.31-.38-.53-.61.76-.46,1.83-.92,2.67-.99,4.73-.69,9.61,1.22,13.04,4.35,2.97,2.59,5.19,5.95,6.63,9.69,3.43,8.16,3.89,19.52-4.35,24.86-2.21,1.37-5.03,2.9-7.55,2.59-2.67-.31-4.8-2.14-6.33-4.42-2.75-4.19-4.73-9.61-6.1-14.41-1.22-5.03-1.75-10.45-.38-15.56h.15,0Z"/>
        <path class="cls-11" d="M45.35,53.1h0c2.82-.38,4.73-2.97,4.35-5.8l-1.37-9.84-8.08,1.07,1.68,11.97c.15,1.6,1.68,2.67,3.36,2.52h.08v.08Z"/>
        <path class="cls-5" d="M23.77,27.24c.08.99.23,1.98.46,2.82,0,.61.23,1.22.46,1.75.53,1.6.92,2.97,1.68,4.35.23.53.46.92.76,1.45,3.51,6.25,9,9.99,14.79,9.3,2.75-.31,5.26-1.68,7.24-3.81.53-.38.92-.92,1.3-1.45,3.36-4.5,5.11-11.06,4.12-18.23-1.6-11.9-9.61-20.67-18.15-19.6-1.22.15-2.44.53-3.58,1.07-6.41,3.2-10.37,12.35-9.07,22.5h-.08l.08-.15h0Z"/>
        <g>
          <path class="cls-8" d="M45.93,24.57c-.14,0-.36,0-.43-.29-1.51-2.96-4.18-1.73-4.33-1.66-.29,0-.58,0-.72-.29,0-.29,0-.58.29-.72,1.3-.58,4.11-.94,5.7,2.09,0,.29,0,.58-.14.72h-.29l-.07.14h0Z"/>
          <path class="cls-8" d="M29.99,22.19s-.29.14-.43,0c-2.6-1.01-3.68,1.23-3.68,1.3,0,.14-.36.29-.58.14-.14,0-.29-.36-.14-.58.43-1.08,2.09-2.81,4.76-1.73.14,0,.36.36.29.58v.14h-.14l-.07.14h0Z"/>
          <path class="cls-8" d="M42.75,26.66c0,1.01-.65,1.95-1.37,1.95s-1.44-.94-1.44-1.95.65-1.95,1.37-1.95,1.44.94,1.44,1.95Z"/>
          <path class="cls-8" d="M29.99,26.66c0,1.01-.65,1.95-1.37,1.95s-1.44-.94-1.44-1.95.65-1.95,1.37-1.95,1.44.94,1.44,1.95Z"/>
          <path class="cls-2" d="M40.81,37.83c0,.14-.72,2.96-3.46,3.39-2.67.36-4.11-.94-4.33-1.23"/>
          <path class="cls-6" d="M32.95,31.78c-.94.94-.94,2.31,0,3.17s2.31.94,3.17,0-1.66.14-2.6-.65c-.94-.94.14-3.39-.72-2.52h.14Z"/>
          <path class="cls-3" d="M25.52,29.54c.36,1.66.65,3.1,1.3,4.54.14.58.36,1.01.65,1.59.94-.65,1.37-1.8,1.3-2.96,0-1.66-1.44-2.96-3.1-3.1h-.14v-.07Z"/>
          <path class="cls-3" d="M45.28,29.4c-1.8,0-3.32,1.37-3.17,2.96s1.73,2.67,3.53,2.52,3.32-1.37,3.17-2.96-1.73-2.67-3.53-2.52Z"/>
        </g>
        <path class="cls-4" d="M48.94,43.11h.15c.53-.46.92-.92,1.3-1.53,3.36-4.5,5.11-11.06,4.12-18.15-1.6-11.9-9.61-20.67-18.15-19.6-1.22.15-2.44.53-3.58,1.07,7.32,4.27,20.67,16.55,16.17,38.28h0s0-.03,0-.08h0Z"/>
        <g>
          <path class="cls-5" d="M51.76,21.45c-.61,2.75.31,5.26,1.98,5.64s3.66-1.53,4.27-4.42-.31-5.26-1.98-5.64-3.66,1.53-4.27,4.42Z"/>
          <path class="cls-4" d="M51.76,21.45c-.61,2.75.31,5.26,1.98,5.64s3.66-1.53,4.27-4.42-.31-5.26-1.98-5.64-3.66,1.53-4.27,4.42Z"/>
        </g>
        <path class="cls-7" d="M24.84,33.35c-.92-4.58-1.53-9.91-.69-13.42.53-.92.23-.38.84-1.14.53-.46,1.83-.92,1.68-1.22,2.14,3.36,7.09,4.04,10.68,3.97-.84-.84-1.83-1.3-2.59-2.21s-1.3-2.06-1.83-3.05c4.42.92,9.15,3.2,13.8,2.14-1.22-.92-4.27-2.59-4.58-4.35,1.3,1.37,3.2,1.53,4.88,1.83,1.07.23,2.21.31,3.28.38,2.36,5.03,3.51,13.19,2.29,18.15,1.45-2.75,1.98-9.15.76-15.79-.23-1.37.31-2.52,1.22-3.43h0c.69-.61.84-1.6.84-2.52-.15-.84-.38-1.83-.84-2.59h.23c-1.37-2.59-3.58-4.58-6.02-6.1-1.6-.92-3.36-1.68-5.03-2.29-.92-.53-1.83-.84-2.9-1.22-4.58-1.83-17.31,1.45-20.36,12.43-.92,3.05-1.75,5.95-.69,6.86,2.75,2.44,3.28-3.2,2.75,2.44-.08.92-.15,1.3,0,3.43"/>
      </g>
    </g>
  </g>
</svg>