<?xml version="1.0" encoding="UTF-8"?>
<svg id="Ebene_2" data-name="Ebene 2" xmlns="http://www.w3.org/2000/svg" viewBox="0 0 93.45 247.74">
  <defs>
    <style>
      .cls-1 {
        fill: #d9b6b6;
      }

      .cls-2 {
        fill: #caa1a2;
      }

      .cls-3 {
        fill: #d9a2a0;
      }

      .cls-4 {
        fill: #d9baba;
      }

      .cls-5, .cls-6 {
        fill: #603813;
      }

      .cls-7 {
        fill: #8b2b0e;
      }

      .cls-8 {
        fill: #273758;
      }

      .cls-6 {
        isolation: isolate;
        opacity: .5;
      }

      .cls-9 {
        fill: #e6e6e6;
      }

      .cls-10 {
        fill: #3f6138;
      }
    </style>
  </defs>
  <g id="Layer_1" data-name="Layer 1">
    <g id="german-girl-speaking">
      <g>
        <path class="cls-1" d="M45.68,168.43v1.2l-3.4,28.8-4.5,38.3h-5.8c-.6,0-1.9-19.6-1.9-38.3s.6-24.3,2.2-30c0-3.7,3-6.7,6.7-6.7s6,2.4,6.6,5.5v1.2h.1Z"/>
        <path class="cls-8" d="M39.08,242.83c0,1.2-.7,2.1-1.6,2.7-.6.4-22.7,2.4-23.3,2.2-5-2.4,17.6-11.2,17.6-11.2l6.1.2s1.3,4.9,1.1,6.2h0v-.1h.1Z"/>
        <path class="cls-1" d="M39.98,175.23h0c-3.8.4-7.2-2.2-8-5.9l-6.7-34.7c-.4-5.1,3.4-9.5,8.5-10h0c5.1-.4,9.5,3.4,10,8.5l2,34.2c.3,4-1.8,7.5-5.7,7.9h-.1Z"/>
      </g>
      <g>
        <path class="cls-1" d="M61.08,198.43c0,18.7-1.3,38.3-1.9,38.3h-5.8l-4.5-38.3-3.3-28.8v-2.4c.6-3.1,3.3-5.5,6.6-5.5s6.7,3,6.7,6.7c1.7,5.7,2.2,17.7,2.2,30h0Z"/>
        <path class="cls-8" d="M52.08,242.83c0,1.2.7,2.1,1.6,2.7.6.4,22.7,2.4,23.3,2.2,5-2.4-17.6-11.2-17.6-11.2l-6.1.2s-1.3,4.9-1.1,6.2h0l-.1-.1Z"/>
        <path class="cls-1" d="M51.28,175.23h0c3.8.4,7.2-2.2,8-5.9l6.7-34.7c.4-5.1-3.4-9.5-8.5-10h0c-5.1-.4-9.5,3.4-10,8.5l-2,34.2c-.3,4,1.8,7.5,5.7,7.9h.1Z"/>
      </g>
      <path class="cls-1" d="M62.18,97.43c-1.5,5.7-1.2,11.7.7,17.3.7,2.1,1.4,4.7,1.8,7.8.5,3,1.2,7.7,1.2,11.5l-18.9,7.5h-2.8l-18.9-7.2c0-5.2.7-12.8,2.1-17.6.4-1.4.9-2.8,1.4-4,2.5-5.4,3.5-11.4,2.5-17.3l-3.9-22.6-1.2-6.7,1.2-.7,15.7-9.9h9.1l14.2,9.8,1.1.7-1.1,6.5-4.1,25h0l-.1-.1Z"/>
      <path class="cls-9" d="M62.18,97.43c-1.5,5.7-1.2,11.7.7,17.3.7,2.1,1.4,4.7,1.8,7.8H27.38v-5.8c.4-1.4.9-2.8,1.4-4,2.5-5.4,3.5-11.4,2.5-17.3l-3.9-22.6-1.1-6.7,12.7-8,4.1-2.6h9.1l3.5,2.4,11.8,8.1-1.1,6.5-4.1,25h0s0-.1-.1-.1Z"/>
      <path class="cls-10" d="M30.08,109.03s-11.8,30-11.3,58.1c0,1.5.9,2.7,2.1,3.1,8,2.1,37.4,8.9,51.5-1.7.9-.7,1.3-1.9,1.2-3.1-1.1-8.2-5.7-40.7-12.1-56.3-10.4,4.3-20.8,4.1-31.6,0h0c0-.1.2-.1.2-.1Z"/>
      <g>
        <path class="cls-1" d="M22.88,97.23h0c.8,1.3,1.1,3,.7,4.6l-7.7,31.3-6.2-3.1,5-30.5c.8-4.7,5.9-6.1,8.3-2.3h-.1Z"/>
        <path class="cls-1" d="M19.78,105.43h0c-3.4.1-5.8-4-4.8-8.1l7.1-25.7c1-4.1,4.4-6.4,7.7-5.3h0c3.7,1.3,5.6,6.7,3.8,11.1l-9.8,23.8c-.8,2.1-2.1,4.1-3.9,4.2h-.1Z"/>
        <path class="cls-9" d="M24.68,67.03c-3.3,3-7.5,9.2-10.7,22.3l12.9,6.4,1.8-5.1c4.2-7.8,7.4-15,6.7-20-.6-4.8-7.1-6.8-10.8-3.5h0l.1-.1Z"/>
        <path class="cls-1" d="M13.58,142.83l2.4-10.3-6.2-3.1v.4c-7.8,3.8-9.2,10.1-9.2,10.1-1.4,6.1,0,6.9,1.5,6.6,1-.2,1.8-1,2.4-2,2.4-4.4,7.7-8.2,7.7-8.2-.8,9,1.5,6.4,1.5,6.4h0l-.1.1Z"/>
      </g>
      <g>
        <path class="cls-1" d="M70.58,97.23h0c-.8,1.3-1.1,3-.7,4.6l7.7,31.3,6.2-3.1-5-30.5c-.8-4.7-5.9-6.1-8.3-2.3h.1Z"/>
        <path class="cls-1" d="M73.68,105.43h0c3.4.1,5.8-4,4.8-8.1l-7.1-25.7c-1-4.1-4.4-6.4-7.7-5.3h0c-3.7,1.3-5.6,6.7-3.8,11.1l9.8,23.8c.8,2.1,2.1,4.1,3.9,4.2h.1Z"/>
        <path class="cls-9" d="M68.78,67.03c3.3,3,7.5,9.2,10.7,22.3l-12.9,6.4-1.8-5.1c-4.2-7.8-7.4-15-6.7-20,.6-4.8,7.1-6.8,10.8-3.5h0l-.1-.1Z"/>
        <path class="cls-1" d="M79.88,142.83l-2.4-10.3,6.2-3.1v.4c7.8,3.8,9.2,10.1,9.2,10.1,1.4,6.1,0,6.9-1.5,6.6-1-.2-1.8-1-2.4-2-2.4-4.4-7.7-8.2-7.7-8.2.8,9-1.5,6.4-1.5,6.4h0s0,.1.1.1Z"/>
      </g>
      <g id="german-girl-surprised">
        <path class="cls-7" d="M71.08,39.03c0-4.7-2.2-8.3-4-12.1-.8-1.7-1.6-4.7-2.8-6-1.6-1.7-5.4-.9-7.4-1-7.4-.3-14.8.2-22.2,1.1-2.3.3-3.7-.6-4.6,2.7-.6,2.1-1,2.9-1,2.9-2.3,4-6.1,6.4-7.5,11.5-1.1,4.1-.6,9.2,1.8,12.1,0-1.6.2-3.7.5-5.1,1.6,1.2,2.7,3.6,4.3,5s3.4,2.6,5.2,3.3c.2-1.4-.3-3.3,0-4.5,1.3,3.2,4.5,4.6,6.9,6,0-1.9-.5-4.3,1.1-3.2.4.3,1,1.6,1.5,2s1.1.8,1.7,1.1c1.8,1.1,2.6,1.4,4.3,0,1.2-1.1,2.7-2.6,3.7-4,.6,1.2.3,3.2.3,4.6,2,0,4.4-2.4,5.7-4.3.3,1.1,0,2.3.3,3.4,2.6-.3,7.2-5.1,8.4-8,1.2,1.1,2.2,3.6,1.9,5.5,2.1-3.5,2.1-8.8,2.1-13.1h-.2v.1Z"/>
        <path class="cls-2" d="M42.78,55.83h0c1.9,2.73,6.7,2.65,8.4,0h0c.4-.56.5-1.13.5-1.77v-10.53h-9.6v10.45c0,.64.2,1.29.6,1.93h0v-.08h.1Z"/>
        <path class="cls-4" d="M68.38,28.33c-.9,1.4-2.2,2.4-3.5,2.6h-1.1c-.4,3.7-1.7,7.1-3.6,9.9-3.6,5.4-9,8.7-13,8.5h-.9c-4.3,0-9.2-3-12.6-7.9-1.9-2.7-3.3-6.1-3.9-9.8h-.3c-1.3,0-2.8-1.1-3.7-2.5-.2-.2-.3-.5-.4-.7-.2-.4-.3-.7-.4-1h0c-.3-1.4,0-2.6,1.1-3.1h0c1-.4,2.2,0,3.3.7.8-11.3,7.9-21.3,16.6-21.5,2.7,0,5.2.7,7.5,2.1,5.3,3.3,9.2,11.2,10.1,19.2.5-.5,1.1-.9,1.7-1.2.8-.4,1.6-.4,2.3,0,1.6.6,1.8,2.8.6,4.8h.2v-.1Z"/>
        <g>
          <path class="cls-5" d="M35.08,24.43c.2,0,.4,0,.5-.3,1.7-3.2,4.6-1.9,4.7-1.8.3,0,.6,0,.8-.3,0-.3,0-.6-.3-.8-1.4-.6-4.5-1-6.2,2.3,0,.3,0,.6.2.8h.3v.1Z"/>
          <path class="cls-5" d="M52.48,21.83s.3.2.5,0c2.8-1.1,4,1.3,4,1.4,0,.2.4.3.6.2.2,0,.3-.4.2-.6-.5-1.2-2.3-3.1-5.2-1.9-.2,0-.4.4-.3.6v.2h.2v.1Z"/>
          <path class="cls-5" d="M38.58,26.73c0,1.1.7,2.1,1.5,2.1s1.6-1,1.6-2.1-.7-2.1-1.5-2.1-1.6,1-1.6,2.1Z"/>
          <path class="cls-5" d="M52.48,26.73c0,1.1.7,2.1,1.5,2.1s1.6-1,1.6-2.1-.7-2.1-1.5-2.1-1.6,1-1.6,2.1Z"/>
          <path class="cls-6" d="M49.78,34.73c0,1.4-1.1,2.5-2.5,2.5s-2.5-1.1-2.5-2.5,1.1,1.4,2.5,1.4,2.5-2.8,2.5-1.4Z"/>
          <path class="cls-3" d="M58.58,29.63c2,0,3.6,1.5,3.5,3.2s-1.9,2.9-3.9,2.8-3.6-1.5-3.5-3.2,1.9-2.9,3.9-2.8Z"/>
          <path class="cls-3" d="M35.78,29.63c2,0,3.6,1.5,3.5,3.2s-1.9,2.9-3.9,2.8-3.6-1.5-3.5-3.2,1.9-2.9,3.9-2.8Z"/>
          <path class="cls-5" d="M50.58,43.13c0,1.9-1.5,3.4-3.4,3.4s-3.4-1.5-3.4-3.4,1.5-3.4,3.4-3.4,3.4,1.5,3.4,3.4Z"/>
        </g>
        <path class="cls-7" d="M66.98,32.53c-.3-3.2-.8-8.7-1.1-11.2,0-.9,0-1.7-.2-2.6-.3-6.5-2.4-13.6-7.2-17.2-3.4-2.6-6.5-.4-10.2-1.2-7.1-1.4-15.4,1.7-19.2,8.4-2.3,4-2.7,8.7-1.9,13.2,0,0,.5,8.5.3,10.5-.3,3.4-1.2,9.6.9,12.6,1,1.4,4.1,3.7,5.6,4.5.3-2.2-1.7-4.2-2.1-6.3-.5-2.3-.3-4.8-.3-7.2,0-4.3-.4-8.5-.2-12.8v-1.3c0-.2.2-.3.3-.5,1.1-1.8,2.4-3.4,3.9-4.8,1.6-1.5,3.5-2.3,5.2-3.7,1.6,1.4,3.1,2.9,4.9,4,2.2,1.3,5.2,2.4,7.7,2.6-.3-.6-1-1.2-1.5-1.8-.2-.3-.4-.8-.6-1.1,1.3,1.5,3.5,2.7,5.1,3.8,1.5,1.1,3.4,1.6,5.1,2.2,0-.6-1.5-3.3-1.9-4.1.6.8,1.5,1.3,2,2.1.6.8,1,1.7,1.4,2.5h0c.2,4.4-.2,8.6-.2,12.9s.2,4.9-.3,7.2c-.5,2.1-2.5,4.1-2.1,6.3,1.5-.8,4.6-3.1,5.6-4.5,2.1-2.9,1.2-9.2.9-12.6h0l.1.1Z"/>
      </g>
    </g>
  </g>
</svg>