<?xml version="1.0" encoding="UTF-8"?>
<svg id="Layer_2" data-name="Layer 2" xmlns="http://www.w3.org/2000/svg" viewBox="0 0 50.26 61.44">
  <defs>
    <style>
      .cls-1, .cls-2 {
        fill: #603813;
      }

      .cls-3 {
        fill: #d9a2a0;
      }

      .cls-4 {
        fill: #8b2b0e;
      }

      .cls-5 {
        fill: #caa1a2;
      }

      .cls-2 {
        isolation: isolate;
        opacity: .5;
      }

      .cls-6 {
        fill: #d9baba;
      }

      .cls-7 {
        fill: none;
        stroke: #630;
        stroke-linecap: round;
        stroke-miterlimit: 10;
      }
    </style>
  </defs>
  <g id="Layer_1-2" data-name="Layer 1">
    <g id="girl-smiling">
      <path class="cls-4" d="M50.06,38.73c0-4.7-2.2-8.3-4-12.1-.8-1.7-1.6-4.7-2.8-6-1.6-1.7-5.4-.9-7.4-1-7.4-.3-14.8.2-22.2,1.1-2.3.3-3.7-.6-4.6,2.7-.6,2.1-1,2.9-1,2.9-2.3,4-6.1,6.4-7.5,11.5-1.1,4.1-.6,9.2,1.8,12.1,0-1.6.2-3.7.5-5.1,1.6,1.2,2.7,3.6,4.3,5s3.4,2.6,5.2,3.3c.2-1.4-.3-3.3,0-4.5,1.3,3.2,4.5,4.6,6.9,6,0-1.9-.5-4.3,1.1-3.2.4.3,1,1.6,1.5,2s1.1.8,1.7,1.1c1.8,1.1,2.6,1.4,4.3,0,1.2-1.1,2.7-2.6,3.7-4,.6,1.2.3,3.2.3,4.6,2,0,4.4-2.4,5.7-4.3.3,1.1,0,2.3.3,3.4,2.6-.3,7.2-5.1,8.4-8,1.2,1.1,2.2,3.6,1.9,5.5,2.1-3.5,2.1-8.8,2.1-13.1h-.2v.1Z"/>
      <path class="cls-5" d="M21.56,58.93h0c1.9,3.4,6.7,3.3,8.4,0h0c.4-.7.5-1.4.5-2.2v-13.1h-9.6v13c0,.8.2,1.6.6,2.4h.1v-.1h0Z"/>
      <path class="cls-6" d="M47.16,28.43c-.9,1.4-2.2,2.4-3.5,2.6h-1.1c-.4,3.7-1.7,7.1-3.6,9.9-3.6,5.4-9,8.7-13,8.5h-.9c-4.3,0-9.2-3-12.6-7.9-1.9-2.7-3.3-6.1-3.9-9.8h-.3c-1.3-.1-2.8-1.1-3.7-2.5-.2-.2-.3-.5-.4-.7-.2-.4-.3-.7-.4-1h0c-.3-1.4,0-2.6,1.1-3.1h0c1-.4,2.2-.1,3.3.7.8-11.3,7.9-21.3,16.6-21.5,2.7,0,5.2.7,7.5,2.1,5.3,3.3,9.2,11.2,10.1,19.2.5-.5,1.1-.9,1.7-1.2s1.6-.4,2.3-.1c1.6.6,1.8,2.8.6,4.8h.2Z"/>
      <path class="cls-4" d="M45.46,32.53c-.3-3.2-.8-8.7-1.1-11.2,0-.9-.1-1.7-.2-2.6-.3-6.5-2.4-13.6-7.2-17.2-3.4-2.6-6.5-.4-10.2-1.2-7.1-1.4-15.4,1.7-19.2,8.4-2.3,4-2.7,8.7-1.9,13.2,0,0,.5,8.5.3,10.5-.3,3.4-1.2,9.6.9,12.6,1,1.4,4.1,3.7,5.6,4.5.3-2.2-1.7-4.2-2.1-6.3-.5-2.3-.3-4.8-.3-7.2,0-4.3-.4-8.5-.2-12.8v-1.3c.1-.2.2-.4.3-.5,1.1-1.8,2.4-3.4,3.9-4.8,1.6-1.5,3.5-2.3,5.2-3.7,1.6,1.4,3.1,2.9,4.9,4,2.2,1.3,5.2,2.4,7.7,2.6-.3-.6-1-1.2-1.5-1.8-.2-.3-.4-.8-.6-1.1,1.3,1.5,3.5,2.7,5.1,3.8,1.5,1.1,3.4,1.6,5.1,2.2.1-.6-1.5-3.3-1.9-4.1.6.8,1.5,1.3,2,2.1.6.8,1,1.7,1.4,2.5h0c.2,4.4-.2,8.6-.2,12.9s.2,4.9-.3,7.2c-.5,2.1-2.5,4.1-2.1,6.3,1.5-.8,4.6-3.1,5.6-4.5,2.1-2.9,1.2-9.2.9-12.6h.1v.1h0Z"/>
      <g>
        <path class="cls-1" d="M13.46,23.43c.2,0,.4,0,.5-.3,1.7-3.2,4.6-1.9,4.7-1.8.3,0,.6,0,.8-.3,0-.3,0-.6-.3-.8-1.4-.6-4.5-1-6.2,2.3,0,.3,0,.6.2.8h.3v.1Z"/>
        <path class="cls-1" d="M30.86,20.83s.3.2.5,0c2.8-1.1,4,1.3,4,1.4,0,.2.4.3.6.2.2,0,.3-.4.2-.6-.5-1.2-2.3-3.1-5.2-1.9-.2,0-.4.4-.3.6v.2h.2v.1h0Z"/>
        <path class="cls-1" d="M16.96,25.73c0,1.1.7,2.1,1.5,2.1s1.6-1,1.6-2.1-.7-2.1-1.5-2.1-1.6,1-1.6,2.1Z"/>
        <path class="cls-1" d="M30.86,25.73c0,1.1.7,2.1,1.5,2.1s1.6-1,1.6-2.1-.7-2.1-1.5-2.1-1.6,1-1.6,2.1Z"/>
        <path class="cls-7" d="M20.66,39.63c.2.2,1.5,3.1,5,3,3.4,0,4.8-2.7,5-3"/>
        <path class="cls-2" d="M28.16,33.73c0,1.66-1.55,2.9-3.32,2.38-1.01-.3-1.68-1.31-1.68-2.37,0-1.42,1.1,1.39,2.5,1.39s2.5-2.8,2.5-1.4Z"/>
        <path class="cls-3" d="M36.96,28.63c2,0,3.6,1.5,3.5,3.2s-1.9,2.9-3.9,2.8-3.6-1.5-3.5-3.2,1.9-2.9,3.9-2.8Z"/>
        <path class="cls-3" d="M14.16,28.63c2,0,3.6,1.5,3.5,3.2s-1.9,2.9-3.9,2.8-3.6-1.5-3.5-3.2,1.9-2.9,3.9-2.8Z"/>
      </g>
    </g>
  </g>
</svg>