<?xml version="1.0" encoding="UTF-8"?>
<svg id="Ebene_2" data-name="Ebene 2" xmlns="http://www.w3.org/2000/svg" viewBox="0 0 72.2 259.71">
  <defs>
    <style>
      .cls-1 {
        fill: #bc8a35;
      }

      .cls-1, .cls-2, .cls-3, .cls-4, .cls-5, .cls-6, .cls-7, .cls-8, .cls-9, .cls-10, .cls-11, .cls-12, .cls-13, .cls-14, .cls-15, .cls-16, .cls-17, .cls-18, .cls-19, .cls-20, .cls-21, .cls-22, .cls-23, .cls-24, .cls-25, .cls-26, .cls-27, .cls-28, .cls-29, .cls-30, .cls-31, .cls-32, .cls-33, .cls-34, .cls-35, .cls-36, .cls-37, .cls-38, .cls-39, .cls-40, .cls-41, .cls-42, .cls-43, .cls-44, .cls-45, .cls-46, .cls-47, .cls-48, .cls-49, .cls-50, .cls-51, .cls-52, .cls-53, .cls-54, .cls-55, .cls-56, .cls-57, .cls-58, .cls-59, .cls-60, .cls-61, .cls-62, .cls-63, .cls-64, .cls-65, .cls-66, .cls-67, .cls-68, .cls-69, .cls-70, .cls-71, .cls-72, .cls-73, .cls-74, .cls-75, .cls-76, .cls-77, .cls-78, .cls-79 {
        fill-rule: evenodd;
      }

      .cls-2 {
        fill: #3ba664;
      }

      .cls-3 {
        fill: #c66145;
      }

      .cls-4 {
        fill: #2a5c76;
      }

      .cls-5 {
        fill: #ad583d;
      }

      .cls-6 {
        fill: #2f7b4d;
      }

      .cls-7 {
        fill: #af563c;
      }

      .cls-8 {
        fill: #2a6886;
      }

      .cls-80 {
        fill: #7e3709;
      }

      .cls-9 {
        fill: #338c65;
      }

      .cls-10 {
        fill: #2d6a8f;
      }

      .cls-11 {
        fill: #2f6685;
      }

      .cls-12 {
        fill: #2d6a8e;
      }

      .cls-13 {
        fill: #487e76;
      }

      .cls-14 {
        fill: #b98832;
      }

      .cls-81 {
        fill: #d9b6b6;
      }

      .cls-15 {
        fill: #2b698c;
      }

      .cls-16 {
        fill: #b45a41;
      }

      .cls-17 {
        fill: #bb8b38;
      }

      .cls-18 {
        fill: #b88937;
      }

      .cls-82 {
        fill: #7c3609;
      }

      .cls-19 {
        fill: #2f6c91;
      }

      .cls-20 {
        fill: #b68633;
      }

      .cls-21 {
        fill: #365a6b;
      }

      .cls-83 {
        fill: #e97828;
      }

      .cls-84 {
        fill: none;
        stroke: #630;
        stroke-linecap: round;
        stroke-miterlimit: 10;
      }

      .cls-85 {
        fill: #e97928;
      }

      .cls-22 {
        fill: #2c688a;
      }

      .cls-23 {
        fill: #2e5c76;
      }

      .cls-24 {
        fill: #2e6480;
      }

      .cls-25 {
        fill: #2d6e91;
      }

      .cls-86 {
        fill: #d9a2a0;
      }

      .cls-26 {
        fill: #2a5a74;
      }

      .cls-27 {
        fill: #2c5a72;
      }

      .cls-28 {
        fill: #378db9;
      }

      .cls-87 {
        fill: #7a3509;
      }

      .cls-29 {
        fill: #828d87;
      }

      .cls-30 {
        fill: #a85439;
      }

      .cls-31 {
        fill: #2b7e50;
      }

      .cls-32 {
        fill: #3c647b;
      }

      .cls-33 {
        fill: #2c6686;
      }

      .cls-34 {
        fill: #3aa563;
      }

      .cls-35 {
        fill: #30657e;
      }

      .cls-88 {
        fill: #7d3709;
      }

      .cls-36 {
        fill: #e36548;
      }

      .cls-89 {
        fill: #8b4514;
      }

      .cls-37 {
        fill: #2d804c;
      }

      .cls-38 {
        fill: #2d6c91;
      }

      .cls-90 {
        fill: #7b3609;
      }

      .cls-39 {
        fill: #2b5c75;
      }

      .cls-40 {
        fill: #33905a;
      }

      .cls-91 {
        fill: #d38a17;
      }

      .cls-41 {
        fill: #326986;
      }

      .cls-92 {
        fill: #d9baba;
      }

      .cls-42 {
        fill: #a87f39;
      }

      .cls-43 {
        fill: #2f6e95;
      }

      .cls-44 {
        fill: #e8af3b;
      }

      .cls-93 {
        fill: #7d370a;
      }

      .cls-45 {
        fill: #2c8051;
      }

      .cls-46 {
        fill: #2f6b8f;
      }

      .cls-94, .cls-95 {
        fill: #603813;
      }

      .cls-47 {
        fill: #ba8b36;
      }

      .cls-48 {
        fill: #2b5971;
      }

      .cls-49 {
        fill: #b5573a;
      }

      .cls-50 {
        fill: #327e4b;
      }

      .cls-51 {
        fill: #907d54;
      }

      .cls-96 {
        fill: #904614;
      }

      .cls-52 {
        fill: #eab03b;
      }

      .cls-53 {
        fill: #b6593d;
      }

      .cls-97 {
        fill: #273758;
      }

      .cls-98 {
        fill: #8e3c09;
      }

      .cls-99 {
        fill: #7c3709;
      }

      .cls-54 {
        fill: #b58436;
      }

      .cls-55 {
        fill: #8e7147;
      }

      .cls-56 {
        fill: #2e6888;
      }

      .cls-57 {
        fill: #39657d;
      }

      .cls-58 {
        fill: #2e6e95;
      }

      .cls-59 {
        fill: #e06346;
      }

      .cls-60 {
        fill: #388cb8;
      }

      .cls-61 {
        fill: #b58539;
      }

      .cls-62 {
        fill: #28704b;
      }

      .cls-63 {
        fill: #2b6480;
      }

      .cls-64 {
        fill: #3aa163;
      }

      .cls-65 {
        fill: #348c58;
      }

      .cls-66 {
        fill: #2c6684;
      }

      .cls-67 {
        fill: #bb8a36;
      }

      .cls-68 {
        fill: #bb8b39;
      }

      .cls-100 {
        fill: #466e9f;
      }

      .cls-69 {
        fill: #33804c;
      }

      .cls-101 {
        fill: #7b370a;
      }

      .cls-70 {
        fill: #2c6585;
      }

      .cls-71 {
        fill: #557868;
      }

      .cls-72 {
        fill: #2b5d77;
      }

      .cls-102 {
        fill: #e26717;
      }

      .cls-73 {
        fill: #eab13b;
      }

      .cls-74 {
        fill: #2f5a71;
      }

      .cls-103 {
        fill: #7c370a;
      }

      .cls-104 {
        fill: #c69696;
      }

      .cls-95 {
        isolation: isolate;
        opacity: .5;
      }

      .cls-75 {
        fill: #2e6581;
      }

      .cls-76 {
        fill: #2b5f7b;
      }

      .cls-77 {
        fill: #2f5b73;
      }

      .cls-105 {
        fill: #e6e6e6;
      }

      .cls-78 {
        fill: #388db8;
      }

      .cls-79 {
        fill: #2b5b74;
      }
    </style>
  </defs>
  <g id="Layer_1" data-name="Layer 1">
    <g id="german-boy-puzzle-cookies">
      <g>
        <path class="cls-81" d="M56.08,208.72c-1.36,19.53-4.07,39.79-4.7,39.79l-6.06-.42-1.88-40.21-1.46-30.18v-1.25c0-.42,0-.84.21-1.25.84-3.24,3.76-5.54,7.21-5.22,3.86.31,6.68,3.55,6.48,7.42,1.36,6.06,1.04,18.59.21,31.44h0v-.1h0Z"/>
        <path class="cls-105" d="M53.99,231.39c-1.15,9.92-2.19,17.13-2.61,17.13l-6.06-.42-.84-16.71h9.5Z"/>
        <path class="cls-97" d="M43.55,254.57c0,1.25.73,2.19,1.67,2.82.63.42,23.71,2.51,24.34,2.3,5.22-2.51-18.38-11.7-18.38-11.7l-6.37.21s-1.36,5.12-1.15,6.48h0v-.1h-.11Z"/>
        <g>
          <path class="cls-81" d="M56.92,138.01l-.84,28.41-.21,8.57c0,3.97-3.24,7.21-7.21,7.42-4.18.21-6.89-3.03-7.21-7.21l-.94-8.77-2.82-26.84v-.84c0-5.01,3.86-9.19,8.88-9.61,5.33-.42,10.03,3.55,10.45,8.88h-.1,0Z"/>
          <path class="cls-100" d="M56.92,138.01l.42,27.36c0,.52-.42,1.04-1.04,1.04h-17.44c-.52,0-1.04-.42-1.04-1.04l-.21-25.8v-.84c0-5.01,3.86-9.19,8.88-9.61,5.33-.42,10.03,3.55,10.45,8.88h0Z"/>
        </g>
      </g>
      <g>
        <path class="cls-81" d="M15.77,208.72c1.36,19.53,4.07,39.79,4.7,39.79l6.06-.42,1.88-40.21,1.46-30.18v-1.25c0-.42,0-.84-.21-1.25-.84-3.24-3.76-5.54-7.21-5.22-3.86.31-6.79,3.55-6.48,7.42-1.36,6.06-1.04,18.59-.21,31.44h0v-.1h0Z"/>
        <path class="cls-105" d="M27.25,231.39l-.84,16.71-6.06.42c-.42,0-1.46-7.21-2.61-17.13h9.5,0Z"/>
        <path class="cls-97" d="M27.99,254.57c0,1.25-.73,2.19-1.67,2.82-.63.42-23.71,2.51-24.34,2.3-5.22-2.51,18.38-11.7,18.38-11.7l6.37.21s1.36,5.12,1.15,6.48h0v-.1h.11Z"/>
        <g>
          <path class="cls-81" d="M34.04,138.84v.73l-2.51,26.95-.84,8.67c-.31,4.18-3.03,7.42-7.21,7.31-3.97-.21-7.1-3.34-7.31-7.31l-.31-8.57-1.15-28.31c.42-5.33,5.01-9.3,10.34-8.98,5.12.31,8.98,4.59,8.98,9.61h0s0-.05,0,0v-.1h0Z"/>
          <path class="cls-100" d="M34.04,138.84v.73l-.84,26.01c0,.52-.42.94-.94.94H15.24c-.52,0-.94-.42-.94-.94l.42-27.36c.42-5.33,5.01-9.3,10.34-8.98,5.12.31,8.98,4.59,8.98,9.61h0Z"/>
        </g>
      </g>
      <path class="cls-105" d="M58.38,69.8l-1.15,6.79-4.28,26.11c-1.04,4.07-1.25,8.25-.63,12.32H19.52c1.57-4.7,1.98-9.61,1.15-14.52l-4.07-23.61-1.25-7,1.25-.73,16.4-10.34h9.5l14.83,10.24,1.15.73h-.1,0Z"/>
      <path class="cls-100" d="M56.81,140.83l-18.28,7.83h-5.43l-18.28-7.62c-.52-5.22.31-13.16,1.77-18.28.42-1.46.94-2.93,1.46-4.18.52-1.15,1.04-2.3,1.36-3.55h32.8c.31,1.88.73,3.86,1.36,5.64.73,2.19,1.46,4.91,1.88,8.15.52,3.13,1.67,7.94,1.15,12.01h.21Z"/>
      <path class="cls-100" d="M46.16,61.34h0c-2.51,8.36-14.2,8.67-17.23.52v-.31l4.28-2.72h9.5l3.66,2.51h-.21Z"/>
      <g>
        <path class="cls-57" d="M35.29,106.5c-.08.2-.22.3-.39.31-.23-.05-.43-.14-.6-.28-.41.18-.57.42-.47.71.25.05.55.04.89-.05.11-.1.22-.2.34-.3.14-.15.22-.28.24-.4Z"/>
        <path class="cls-60" d="M33.99,103.15c-.82-.19-1.41.27-1.78,1.38-.1.06-.19.1-.28.12-.16-.05-.27-.16-.32-.32.05-.29,0-.51-.16-.64-.21.04-.41.05-.6.04-.19.04-.39.13-.59.27-.08.08-.13.15-.16.24-.02.29,0,.54.07.78-.19.21-.37.29-.53.25-.2-.05-.43-.07-.68-.05-1.02,1.12-1.09,1.78-.22,1.98.75-.43,1.1-.32,1.04.33-.45,1.17-.18,1.76.81,1.75.15-.07.27-.19.35-.35.01-.11.05-.23.12-.36-.04-.2.04-.44.23-.71.33.06.64.15.92.29.1.27.18.57.25.88l.04.04c.24.08.53.08.87,0,.23.12.33.34.28.68.14.12.28.05.44-.2.23-.5.39-.99.5-1.47-.23-.31-.48-.59-.76-.84-.09-.29.06-.53.47-.71.16.14.36.23.6.28.18-.01.31-.12.39-.31.23-.39.35-.75.35-1.07.06-.42-.09-.68-.44-.76-.21-.13-.47-.02-.79.31-.13-.11-.24-.24-.32-.4.18-.61.15-1.09-.09-1.43Z"/>
        <path class="cls-46" d="M37.05,108.73c.01.06-.01.14-.08.24-.43-.36-.91-.65-1.44-.89-.2.01-.4.13-.59.35-.27.33-.51.68-.71,1.03-.06.06-.12.08-.16.08-.16.25-.3.31-.44.2-.12.32-.1.55.07.7.22.22.53.29.94.23.8.01.84.5.13,1.47-.18.19-.37.37-.57.53-.37.07-.7.06-.97-.03-.04.07-.08.13-.12.2,0,.5.29.66.88.48.13.03.21.11.24.24.06.31.05.67-.03,1.07-.01.12-.08.24-.2.36l.04.04c-.1.18-.22.38-.37.57.26.15.61.13,1.05-.05l-.08.24.12-.04c.2-.32.31-.61.31-.87-.01-.09-.05-.16-.12-.2.3-.55.51-.63.63-.23-.04.33.07.54.32.64.25-.01.49,0,.72,0l.04.04c.18-.09.33-.1.44-.04l.08-.08c.1-.04.17-.03.2.04.3-.41.57-.82.8-1.25.04-.1.06-.18.06-.26-.15-.17-.32-.32-.52-.44-.44.08-.71-.05-.8-.4.33.29.83.15,1.49-.41.99-.8,1.19-1.36.6-1.68-.41-.04-.79-.13-1.13-.27-.03-.07-.02-.17.04-.28.25-.28.5-.55.75-.83.04-.18.06-.34.06-.5-.19-.33-.54-.46-1.04-.41-.21.03-.42.16-.63.39Z"/>
        <path class="cls-56" d="M30.26,103.99c-.17.02-.32.13-.45.33-.17.38-.23.69-.17.93.17.04.35-.05.53-.25-.06-.23-.08-.49-.07-.78.02-.08.08-.16.16-.24Z"/>
        <path class="cls-36" d="M39.04,114.19c-.34.2-.54.45-.59.75,0,.2.04.38.08.56-.09.31-.26.46-.51.43-.33-.25-.64-.53-.92-.84-.11-.07-.25-.06-.44.04l-.24.24c-.19.68-.53,1.4-1.02,2.14,0,.08.01.14.04.2.13.03.27.05.4.08.06.07.15.05.28-.04.28-.01.55-.02.83-.03.3.12.35.42.17.88-.32.4-.68.79-1.06,1.14l.16.16c.21.31.59.27,1.15-.11.41-.74.83-1,1.27-.78.19-.2.31-.4.35-.59-.08-.4.11-.61.55-.63.21.31.6.32,1.15.05.02-.08.08-.16.16-.24.41-.81.41-1.36-.01-1.67-.34.1-.63.1-.85.01.04-.45.08-.91.13-1.37-.09-.2-.24-.35-.44-.44-.24.08-.46.1-.64.07Z"/>
        <path class="cls-63" d="M31.05,108.57c.48-.12.79,0,.92.36-.1.25-.1.43,0,.56l.47-.47c-.06-.31-.15-.6-.25-.88-.28-.13-.58-.23-.92-.29-.19.27-.27.51-.23.71Z"/>
        <path class="cls-53" d="M39.04,114.19c-.81.47-1.15.99-1.02,1.58-.23-.12-.4-.29-.52-.52l.06-.18c-.19.07-.31.05-.38-.06l-.08.08c.28.31.59.59.92.84.26.02.43-.12.51-.43-.05-.17-.07-.36-.08-.56.05-.3.25-.55.59-.75Z"/>
        <path class="cls-33" d="M23.77,107.28c-.06.17,0,.17.18.02-.02.05-.03.1-.02.14.16-.04.3-.05.44-.04.19-.3.16-.38-.1-.26.06-.09.1-.17.14-.26.19.19.36.1.51-.27.14-.13.17-.12.1.02.15-.11.29-.23.41-.37-.08-.06-.13-.14-.16-.24l.12-.04c.14.11.3.19.48.24-.38-.67-.29-.73.28-.2-.09.08-.16.16-.22.26.23-.09.44-.14.63-.15l-.12.36c.12-.1.25-.19.38-.26-.06.08-.13.17-.2.28.5-.17.57.01.22.54.18-.01.24-.08.18-.22.3-.22.34-.18.12.12.02.14.11.2.26.18-.07.2-.19.4-.35.59l.12-.04c-.05.11-.09.22-.14.34.12.07.31.05.58-.06.03.12.08.22.14.3-.13.08-.23.1-.32.08l-.06.18c.11-.06.21-.07.28-.04.02.15.08.26.18.34l-.24.24c.24.19.43.43.56.72-.11-.16-.29-.28-.52-.36-.05,0-.11,0-.16,0,.02.07.04.15.06.22.24.06.38.21.44.44.05,0,.09-.01.14-.02.05-.11.1-.21.16-.32.15.04.23.17.22.38.18,0,.27.08.26.26.1-.17.14-.31.12-.44-.3-.36-.65-.69-1.04-.96l.24-.24c.25.22.63.19,1.15-.11-.11.4-.1.73.03.97.29.06.55.16.78.3.08.03.16.05.24.08.06-.04.13-.08.2-.12.18-.33.34-.64.47-.95-.09.16-.21.28-.35.35-.99,0-1.26-.58-.81-1.75.06-.65-.28-.76-1.04-.33-.87-.2-.79-.86.22-1.98-.13-.44-.39-.77-.76-1-.34.1-.68.26-1.03.47-.26.35-.44.69-.55,1.03-.14.07-.27.12-.4.16-.22-.34-.47-.64-.76-.92-.37.01-.77.11-1.21.29-.32.24-.53.51-.61.81,0,.35.09.63.28.84,0,.12-.05.25-.16.4Z"/>
        <path class="cls-68" d="M34.77,112.13c-.44.02-.88.05-1.33.09-.24.21-.35.42-.33.61.04-.06.08-.13.12-.2.28.09.6.1.97.03.2-.16.39-.34.57-.53Z"/>
        <path class="cls-30" d="M40.86,117.58c-.08.08-.13.15-.16.24-.56.27-.94.26-1.15-.05-.45.02-.63.23-.55.63.31,0,.63,0,.95,0,.23-.05.46-.2.67-.43.17-.14.25-.27.24-.4Z"/>
        <path class="cls-29" d="M41.75,120.21c.29.08.48.27.56.56.03-.18-.01-.32-.12-.44-.11-.11-.26-.15-.44-.12Z"/>
        <path class="cls-74" d="M36.62,115.09c-.23-.02-.47-.02-.72,0-.25-.09-.36-.31-.32-.64-.12-.39-.33-.32-.63.23.07.04.11.11.12.2,0,.26-.11.55-.31.87l-.12.04.08-.24c-.44.18-.79.2-1.05.05.15-.2.28-.39.37-.57-.58.62-1.07.81-1.47.58-.1.03-.19.1-.28.2.05.1.06.22.04.36.34-.01.7-.05,1.07-.11.24.19.59.2,1.05.03.22-.16.39-.35.53-.57.32.01.61.07.88.17.27-.12.52-.32.75-.59Z"/>
        <path class="cls-49" d="M36.43,115.36c-.32.23-.54.48-.65.77-.13.41-.29.83-.49,1.25-.05.19-.05.35,0,.48-.09.08-.16.16-.22.26.1-.04.18-.06.26-.06.17-.13.35-.22.51-.27-.13-.03-.26-.06-.4-.08-.03-.06-.04-.12-.04-.2.48-.74.82-1.45,1.02-2.14Z"/>
        <path class="cls-73" d="M32.07,109.59c-.04.18-.08.36-.1.54-.02.11-.1.2-.22.26-.49-.14-.99-.27-1.49-.39-.08-.03-.16-.05-.24-.08-.1.04-.17.03-.2-.04l-.39.39c-.02.1-.02.2-.02.3-.25.48-.45.96-.62,1.43-.07.27-.14.55-.21.81,0,.11.05.16.16.16.58-.03,1.01.13,1.28.49.08.18.08.41-.01.7-.16.22-.33.32-.49.29-.29-.02-.61.02-.97.13-.21.14-.36.31-.45.49.09-.03.19-.09.3-.18-.21.49-.18.82.11.97.66,0,1.32,0,1.97,0,.01.28-.06.61-.21.97.21.51.7.66,1.47.45.21-.2.37-.41.47-.63.01-.15.06-.3.16-.48.02-.14,0-.26-.04-.36.03-.23.18-.45.45-.65.27,0,.52.03.78.07.15,0,.31-.07.47-.23.12-.12.18-.24.2-.36.09-.4.1-.76.03-1.07-.03-.13-.11-.21-.24-.24-.59.18-.88.02-.88-.48-.02-.2.1-.4.33-.61.45-.04.89-.07,1.33-.09.71-.97.67-1.46-.13-1.47-.41.06-.72-.01-.94-.23-.17-.14-.19-.38-.07-.7.04-.34-.05-.56-.28-.68-.34.07-.63.07-.87,0"/>
        <path class="cls-12" d="M23.77,107.28c-.24.14-.49.27-.73.37-.34.34-.67.69-1,1.04.46.1.98.11,1.55.05.2.08.32.22.36.44.15.06.22,0,.2-.2.26,0,.54-.11.85-.33.51-.2.82-.12.94.23-.28.4-.48.75-.61,1.05.12-.02.21.02.26.1.19-.19.37-.3.55-.31.24.06.49.1.76.13.59.13.52.56-.21,1.29-.09.16-.15.32-.18.46.22-.05.39,0,.52.12.66-.23,1.24-.67,1.74-1.34,0-.18-.08-.27-.26-.26,0-.21-.07-.33-.22-.38-.05.11-.1.21-.16.32-.05,0-.09.01-.14.02-.06-.23-.2-.38-.44-.44-.02-.07-.04-.15-.06-.22.05,0,.11,0,.16,0,.23.08.4.2.52.36-.13-.29-.32-.53-.56-.72l.24-.24c-.1-.08-.16-.19-.18-.34-.07-.03-.16-.02-.28.04l.06-.18c.09.03.19,0,.32-.08-.07-.08-.11-.18-.14-.3-.27.11-.46.13-.58.06.05-.11.09-.22.14-.34l-.12.04c.16-.2.28-.4.35-.59-.15.02-.24-.04-.26-.18.22-.3.18-.34-.12-.12.06.13,0,.21-.18.22.35-.53.28-.71-.22-.54.07-.11.13-.2.2-.28-.13.07-.25.15-.38.26l.12-.36c-.2.01-.41.06-.63.15.06-.09.13-.18.22-.26-.56-.54-.66-.47-.28.2-.18-.05-.34-.13-.48-.24l-.12.04c.03.1.08.18.16.24-.13.14-.27.27-.41.37.07-.15.04-.15-.1-.02-.16.37-.33.46-.51.27-.03.08-.08.17-.14.26.26-.12.29-.04.1.26-.13-.01-.28,0-.44.04,0-.04,0-.09.02-.14-.18.15-.24.15-.18-.02Z"/>
        <path class="cls-16" d="M36.13,117.75c.26.04.48.15.64.32.16.13.24.31.24.56-.32.4-.68.79-1.06,1.14.05.1.15.14.28.12l-.16-.16c.38-.36.74-.74,1.06-1.14.19-.46.13-.75-.17-.88-.28,0-.56.02-.83.03Z"/>
        <path class="cls-67" d="M34.04,115.03l-.04-.04c-.17.16-.33.24-.47.23-.25-.03-.51-.06-.78-.07-.27.2-.42.42-.45.65.08-.1.18-.17.28-.2.39.23.88.03,1.47-.58Z"/>
        <path class="cls-79" d="M23.94,109.19c-.05.17-.07.31-.04.44.35-.12.7-.27,1.07-.43.38.09.43.39.13.91.26.16.21.45-.15.87.38-.28.59-.59.63-.95-.05-.08-.14-.12-.26-.1.13-.3.33-.65.61-1.05-.11-.35-.42-.43-.94-.23-.31.23-.6.34-.85.33.02.19-.05.25-.2.2Z"/>
        <path class="cls-24" d="M42.19,125.22c-.47.01-.88-.06-1.23-.21-.29.1-.49.3-.59.59.08-.08.15-.13.24-.16.21.05.4.13.56.24.29.16.63,0,1.03-.47Z"/>
        <path class="cls-17" d="M29.44,110.26c-.1.02-.19.09-.26.22-.36.6-.59,1.16-.68,1.68-.07.29-.16.59-.27.91-.01.11,0,.2.04.28.29.08.61.11.95.09.24.11.4.3.48.56,0,.13-.06.28-.2.44.17.03.33-.07.49-.29.09-.28.1-.51.01-.7-.27-.36-.69-.52-1.28-.49-.11,0-.16-.05-.16-.16.07-.27.14-.54.21-.81.17-.47.38-.94.62-1.43,0-.1,0-.2.02-.3Z"/>
        <path class="cls-3" d="M34.82,118.65s-.12-.05-.2-.04c-.17.13-.34.24-.51.35-.13.23-.21.44-.23.63.18.08.42.06.71-.07.13-.31.21-.6.23-.87Z"/>
        <path class="cls-19" d="M44.35,127.07c-.13-.01-.27.05-.44.2-.2.26-.42.51-.67.75-.22-.46-.46-.9-.71-1.34-.09-.17-.28-.2-.56-.08-1.49,1.26-1.86,2.2-1.11,2.83-.18.3-.42.59-.71.87-.27-.29-.56-.56-.88-.8-.31.09-.6.3-.87.63-.11.24-.24.47-.39.71l.04.04c-.02.24-.05.48-.07.71.53.21.94.54,1.24,1-.1.27-.3.49-.59.67-.17.18-.32.37-.45.57-.09.7.2,1.04.86,1.02,0,.04,0,.09-.02.14.34-.28.62-.61.85-.97.11-.09.22-.14.32-.16.35.44.75.85,1.2,1.2.21.05.43-.07.67-.35l.16-.16c.25-.37.38-.72.39-1.03-.2-.33-.43-.64-.68-.92.02-.11.05-.22.08-.32.32-.5.7-.77,1.15-.83.15.35.35.65.6.92.23.11.5-.02.79-.39.32-.44.57-.88.74-1.31l-1.2-1.2c.29-.33.59-.67.89-1.01.25-.54.26-.95.03-1.23-.24-.04-.46-.1-.66-.18Z"/>
        <path class="cls-72" d="M38.32,123.4c-.33.27-.62.37-.87.31-.28-.16-.58-.28-.92-.36-.05.03-.11.05-.16.08-.06.16-.1.3-.12.44.3.02.53.12.72.32.17.03.36.03.56,0-.11.19-.26.36-.43.51.3-.22.6-.44.91-.67l-.12-.12c.19-.16.33-.34.43-.51Z"/>
        <path class="cls-47" d="M28.08,115.06c-.21.47-.24.86-.11,1.15.43.11.92.13,1.47.05.34-.09.55,0,.64.24-.06.12-.12.24-.2.36,0,.14-.03.3-.08.48.12.23.29.4.52.52.26-.08.49-.09.68-.03.25-.13.49-.32.71-.55-.77.21-1.26.06-1.47-.45.15-.36.22-.69.21-.97-.65,0-1.3,0-1.97,0-.29-.16-.32-.48-.11-.97-.11.09-.21.15-.3.18Z"/>
        <path class="cls-71" d="M29.44,116.26c.15.09.11.21-.12.36.17-.01.36-.08.57-.21-.06.09-.13.18-.22.26l.2.2c.08-.12.14-.24.2-.36-.09-.25-.3-.33-.64-.24Z"/>
        <path class="cls-78" d="M41.75,120.21l-.16-.16c-.51.19-.96.56-1.34,1.1-.03,0-.07-.01-.1-.02.22-.85.23-1.58.02-2.18-.29-.04-.6-.03-.93.01-.3.19-.49.2-.6.04.07.2.18.39.32.56-.05.42-.14.85-.27,1.31-.23.31-.49.6-.79.87.27.24.54.48.8.72,0,.29-.13.61-.39.95-.1.18-.24.35-.43.51l.12.12c-.31.23-.61.45-.91.67-.24-.01-.44-.08-.6-.2-.09.02-.18.06-.28.12-.09.08-.16.16-.22.26-.05.24-.16.49-.35.75-.1.19-.11.34-.04.44.63.09,1.2.25,1.73.47l-.47.47-.16.16c-.45.88-.36,1.41.25,1.59.16.05.34.06.56,0,.18-.21.34-.42.47-.63.07-.29.16-.59.27-.91.11,0,.21,0,.32,0,.39.33.77.67,1.16,1,.13.11.3.04.51-.19.24-.31.45-.63.63-.95-.02-.13-.02-.26,0-.4-.17-.23-.35-.45-.52-.68-.05-.11-.05-.24,0-.4.1-.29.3-.49.59-.59.36.15.77.22,1.23.21.34-.52.61-1.03.82-1.54.1-.16.14-.31.12-.44-.18-.34-.49-.54-.92-.6-.22,0-.41.13-.55.39-.1.05-.19.09-.28.12-.22-.04-.37-.16-.44-.36-.04-.18.05-.38.27-.59.04.07.11.09.22.06.26-.21.5-.45.71-.71.29-.36.34-.62.17-.77-.08-.29-.27-.48-.56-.56Z"/>
        <path class="cls-6" d="M33.2,119.23c-.14.29-.36.54-.65.77-.42.13-.8.17-1.13.13-.11.08-.21.16-.32.24-.13.14-.19.26-.2.36.2-.08.36-.07.48,0,.27-.03.56-.11.87-.23.3-.22.56-.49.79-.79.09-.17.14-.33.16-.48Z"/>
        <path class="cls-48" d="M44.54,132c-.3.37-.56.5-.79.39-.25-.27-.45-.57-.6-.92-.44.06-.82.33-1.15.83.28-.31.51-.42.71-.31.19.34.43.63.72.88.44-.14.8-.43,1.11-.87Z"/>
        <path class="cls-11" d="M40.26,128.03c-.22.24-.39.3-.51.19-.39-.33-.77-.67-1.16-1-.11,0-.21,0-.32,0-.11.32-.2.62-.27.91.05-.04.11-.07.16-.08.46.17.86.41,1.2.72.37-.12.67-.37.91-.75Z"/>
        <path class="cls-23" d="M33.08,123.84c.04-.06.08-.13.12-.2.56-.18.93-.1,1.11.25-.05.17-.11.34-.19.51.52-.44.72-.86.63-1.27-.3-.18-.7-.21-1.19-.09-.07.04-.13.08-.2.12-.1.23-.19.46-.27.67Z"/>
        <path class="cls-44" d="M22.03,108.7c-.04-.42,0-.88.11-1.39-.2-.29-.53-.41-1-.37-.94.37-1.42.94-1.42,1.74-.16.14-.31.2-.44.2-.38-.32-.78-.61-1.2-.88-.18-.14-.42-.06-.71.23-.15.2-.3.4-.43.59.06.06.05.16-.02.3-.08.23-.23.45-.45.65.06.48.37.71.92.68.28.08.36.3.26.66-.12.18-.26.3-.41.37-.32.12-.59.15-.83.11-.26.16-.47.37-.63.63.04.28.14.54.28.76.33.23.73.36,1.2.41.22-.05.4-.19.51-.43.27-.28.5-.57.71-.87.52-.44.92-.55,1.19-.31.23.15.43.32.6.52.35-.44.7-.66,1.07-.67.1-.05.19-.11.28-.2.16-.28.29-.57.41-.85.12-.18.26-.3.41-.37.35-.12.68-.19.99-.19l.36-.12s.02-.07,0-.08c0-.06.03-.13.12-.2-.03-.13-.02-.27.04-.44-.04-.22-.17-.36-.36-.44-.57.06-1.09.04-1.55-.05Z"/>
        <path class="cls-51" d="M31.38,120.73c-.12-.08-.28-.08-.48,0-.08.11-.1.19-.06.26.31-.07.53,0,.66.18.05-.21.01-.35-.12-.44Z"/>
        <path class="cls-43" d="M38.64,119c-.43-.21-.86.05-1.27.78-.56.38-.94.42-1.15.11-.13.02-.22-.02-.28-.12.38-.36.74-.74,1.06-1.14,0-.24-.09-.43-.24-.56-.16-.18-.37-.28-.64-.32-.13.09-.22.1-.28.04-.17.06-.34.15-.51.27-.19.19-.36.38-.51.59-.02.27-.1.56-.23.87-.29.13-.53.15-.71.07-.27.03-.55.07-.83.11-.23.3-.49.56-.79.79-.31.12-.6.2-.87.23.14.08.18.23.12.44.05.03.08.08.08.16-.15.34-.2.63-.15.87.23,0,.5-.08.79-.23.16.05.27.16.32.32-.18.31-.34.39-.47.23l-.79.79c-.04.1-.05.2-.04.28.02.04.06.05.12.04.01-.16.1-.31.25-.45l-.16.48c.13-.02.19.04.18.18.4.11.78.23,1.16.37-.09.08-.16.16-.22.26.15-.11.29-.23.41-.37l.08-.24c.08-.21.17-.44.27-.67.07-.04.13-.08.2-.12.49-.12.89-.09,1.19.09.1.4-.11.83-.63,1.27.09-.03.19-.09.3-.18-.01.17.02.31.1.42.28.13.57.23.88.32.24.06.45-.07.63-.39.18-.27.26-.51.23-.71.01-.13.05-.28.12-.44.05-.03.11-.05.16-.08.33.09.64.21.92.36.25.06.54-.04.87-.31.26-.34.39-.66.39-.95-.26-.24-.53-.48-.8-.72.3-.27.56-.56.79-.87.13-.46.22-.89.27-1.31-.14-.17-.25-.35-.32-.56Z"/>
        <path class="cls-45" d="M28.3,116.85c-.67.38-1.01.85-1.02,1.42.15.18.26.39.32.64-.03.15-.12.29-.27.43.16-.09.31-.15.46-.18.29-.41.39-.76.29-1.05-.16-.18-.24-.42-.24-.72.05-.24.21-.42.47-.55Z"/>
        <path class="cls-35" d="M36.22,124.62c-.06,0-.13.04-.22.1.03-.06.03-.11.02-.14-.18.32-.4.45-.63.39-.31-.09-.6-.2-.88-.32-.08-.11-.11-.25-.1-.42-.11.09-.21.15-.3.18-.1.15-.17.29-.2.44.13.29.35.51.64.64.11-.02.22-.02.32,0,.16.03.36,0,.6-.11.09.01.16.05.2.12-.36.29-.54.58-.55.87.02.12.07.22.14.3.42.04.78.14,1.09.31.16.03.33.04.52.04l.47-.47c-.53-.22-1.11-.38-1.73-.47-.07-.1-.06-.24.04-.44.19-.26.31-.51.35-.75.06-.09.13-.18.22-.26Z"/>
        <path class="cls-22" d="M28.5,112.16c-.21-.13-.45-.21-.72-.24-.05.38-.15.8-.33,1.25-.16.21-.34.39-.55.55-.27.07-.53.1-.77.09-.15-.12-.34-.21-.56-.24-.28.08-.48.27-.61.57-.26.76-.01,1.04.74.82.28.23.29.63.03,1.21-.14.36-.31.72-.49,1.09-.13.08-.23.1-.32.08-.52-.16-1-.38-1.44-.65-.21-.05-.43.07-.65.37-.04.24-.11.5-.19.75.29-.16.49-.15.58.02-.18.36-.29.69-.35.99.37.17.81-.02,1.33-.57,1.05-.25,1.41.16,1.08,1.24-.15.25-.34.48-.57.69-.38,0-.76-.01-1.13-.03-.52.52-.7.97-.55,1.35.44.21.86.45,1.26.71-.16.42-.39.84-.71,1.27.35.08.5.33.44.76-.03.1-.1.19-.2.28.27-.18.55-.38.83-.59-.03.18-.03.34,0,.48-.08.13-.16.25-.26.38.19-.04.38-.07.56-.08.17.23.34.45.52.68.13-.07.21-.17.26-.3.14-.04.2,0,.18.1.26-.31.33-.29.22.06.18-.11.25-.09.22.06.15-.11.24-.23.26-.38.16-.12.22-.11.18.02.23-.1.42-.25.57-.45.14.02.16.12.06.3.18-.12.32-.27.41-.45.19.08.28.24.26.5.15.03.17.15.06.38l.04.04c.16-.1.3-.23.41-.37,0-.53.15-1.12.44-1.76-.34-.2-.68-.39-1.04-.56l-.24.24c-.07.09-.09.17-.08.24-.64,1.06-1.28,1.44-1.94,1.14-.29-.15-.45-.42-.48-.8.15-.44.45-.85.9-1.22-.21-.21-.51-.28-.92-.21-.42-.05-.7-.25-.84-.6.05-.16.15-.32.31-.47.33-.43.62-.88.88-1.32.26-.37.55-.56.85-.57.24.11.45.24.64.4.08-.03.14-.05.2-.04.16-.14.25-.29.27-.43-.06-.25-.17-.46-.32-.64.01-.57.35-1.05,1.02-1.42.37-.12.71-.2,1.03-.23.23-.14.27-.26.12-.36-.55.08-1.04.06-1.47-.05-.13-.29-.1-.68.11-1.15.1-.19.25-.35.45-.49.36-.11.68-.15.97-.13.14-.16.21-.3.2-.44-.08-.26-.24-.45-.48-.56-.35.02-.66-.01-.95-.09-.04-.07-.05-.17-.04-.28.11-.32.2-.62.27-.91Z"/>
        <path class="cls-34" d="M31,117.82c-.19-.05-.41-.04-.68.03-.23-.12-.4-.29-.52-.52.05-.17.07-.33.08-.48l-.2-.2c.09-.08.16-.16.22-.26-.22.13-.41.2-.57.21-.32.03-.66.11-1.03.23-.26.13-.42.31-.47.55,0,.3.09.53.24.72.1.3,0,.65-.29,1.05-.15.02-.3.08-.46.18-.05,0-.12,0-.2.04-.19-.16-.4-.3-.64-.4-.3,0-.59.2-.85.57-.26.45-.55.89-.88,1.32.06.2.18.35.36.44.56.12,1.13.19,1.73.23.1.06.08.17-.06.34-1,.58-1.28,1.12-.84,1.6.25.24.62.3,1.11.17.23-.19.45-.39.65-.61-.01-.07.01-.15.08-.24.13-.19.25-.39.35-.59.05-.04.11-.06.16-.08.61.14,1.1.42,1.48.85.34.14.75.16,1.23.05.05-.1.11-.19.2-.28l.16-.16c-.05-.1-.03-.23.08-.4-.05-.24,0-.53.15-.87,0-.08-.03-.13-.08-.16-.12-.19-.34-.25-.66-.18-.04-.06-.02-.15.06-.26,0-.1.07-.22.2-.36.11-.08.21-.16.32-.24.33.04.71,0,1.13-.13.29-.23.51-.48.65-.77.31-.81.17-1.29-.41-1.43-.41,0-.75.24-1.03.71-.24.08-.49.2-.75.35-.21-.08-.35-.24-.4-.48.07-.2.2-.38.39-.55Z"/>
        <path class="cls-28" d="M25.58,110.03c-.04.36-.25.67-.63.95-.13,0-.25,0-.36-.04-.07-.52-.28-.92-.65-1.2-.05,0-.11.03-.16.08.02.01.02.04,0,.08l-.36.12c-.31,0-.64.07-.99.19-.15.18-.28.36-.39.55-.02.21-.09.43-.19.67.31.25.61.51.92.76-.04.31-.15.65-.33,1.01-.1.23-.27.41-.49.53-.32-.17-.66-.31-1.04-.41-.16.05-.32.1-.48.16-.35.58-.58,1.13-.7,1.66.12.23.29.4.52.52.48.11.96.24,1.41.39.18.12.11.31-.21.57l-.24.24c-.65.84-.69,1.36-.11,1.55.34.12.75.04,1.25-.25-.31.53-.69.85-1.16.96-.55-.03-.98-.22-1.28-.57-.9,0-1.45.51-1.66,1.5.05.29.12.57.21.84.28.05.58.06.91.05.27.08.31.31.14.7-.22.26-.38.52-.49.77.19.76.4,1.5.65,2.23.54-.56.61-.92.19-1.07-.02-.4.23-.73.75-.99.44-.05.75.07.92.36.03.29.04.59.03.89.58.05,1.22-.05,1.92-.28l.08-.08c.31-.43.55-.85.71-1.27-.4-.26-.81-.49-1.26-.71-.16-.38.03-.83.55-1.35.38.02.75.03,1.13.03.23-.21.42-.44.57-.69.33-1.08-.03-1.49-1.08-1.24-.52.55-.96.74-1.33.57.05-.3.17-.63.35-.99-.09-.18-.28-.19-.58-.02.08-.26.15-.51.19-.75.22-.3.44-.43.65-.37.43.27.91.49,1.44.65.09.03.19,0,.32-.08.18-.37.34-.73.49-1.09.26-.58.25-.98-.03-1.21-.75.22-1-.06-.74-.82.13-.3.33-.49.61-.57.22.04.41.12.56.24.24,0,.5-.02.77-.09.21-.16.39-.34.55-.55.17-.45.28-.86.33-1.25-.26-.01-.54,0-.83.03-.25-.01-.4-.13-.44-.36.03-.14.09-.29.18-.46.73-.73.8-1.16.21-1.29-.26-.02-.52-.06-.76-.13-.18.02-.37.12-.55.31Z"/>
        <path class="cls-38" d="M22.44,110.21c-.16.07-.3.19-.41.37-.12.28-.26.57-.41.85-.1.17-.19.34-.27.51-.34.04-.7.16-1.07.35-.17-.2-.37-.37-.6-.52-.27-.24-.67-.14-1.19.31-.21.3-.44.59-.71.87-.05.18-.13.36-.23.55.07.22.19.39.36.52-.1.11-.21.21-.34.3-.32.04-.66.13-1.01.25.1.42.23.82.41,1.2.09.12.21.21.36.28,0-.05,0-.11,0-.16.43-.27.74-.3.93-.09.06.09.12.17.18.26-.05.19-.05.35,0,.48-.17.36-.26.69-.27.99.01.12.08.19.2.2.56,0,1.15-.1,1.79-.26.25-.07.43-.23.53-.49-.09.01-.19.03-.28.04.08-.12.17-.16.26-.14.03-.08.05-.14.04-.2-.15-.1-.35-.12-.6-.04-.32-.17-.63-.36-.94-.54,0-.14-.02-.28-.02-.42.15.22.33.41.56.56.47.1.96.17,1.47.21.12.04.21.11.28.2.33-.26.4-.46.21-.57-.46-.15-.93-.28-1.41-.39-.23-.12-.4-.29-.52-.52.12-.53.35-1.09.7-1.66.16-.05.32-.1.48-.16.38.1.72.23,1.04.41.22-.12.39-.3.49-.53.18-.36.29-.7.33-1.01-.31-.25-.61-.51-.92-.76.11-.24.17-.47.19-.67.11-.19.24-.37.39-.55Z"/>
        <path class="cls-58" d="M23.83,124.52c-.37.03-.7-.02-.99-.13-.32.04-.65.1-.99.19-.27.24-.49.49-.67.75.09.01.21-.02.36-.12-.1.26-.13.49-.09.69.23.14.51.19.86.15.29.06.33.29.12.68-.08.07-.16.12-.24.16-.2.45-.49.86-.88,1.24.13.06.25.15.34.26.5.07,1,.12,1.51.17,0,.04,0,.09-.02.14.16-.06.31-.17.45-.33.18-.28.28-.55.31-.79.12-.25.19-.49.23-.71.06-.27.24-.51.55-.71.5.03.93.16,1.27.41.17,0,.35-.05.56-.15-.09.34-.18.67-.27.99.26.09.49-.05.69-.41-.12-.47.05-1.03.52-1.68.36-.29.6-.31.71-.07.1-.22.08-.35-.06-.38.02-.26-.07-.42-.26-.5-.09.18-.23.33-.41.45.1-.18.08-.28-.06-.3-.15.2-.34.35-.57.45.04-.13-.02-.14-.18-.02-.02.14-.1.27-.26.38.04-.15-.04-.17-.22-.06.11-.35.04-.37-.22-.06.02-.1-.04-.14-.18-.1-.04.12-.13.22-.26.3-.18-.23-.35-.45-.52-.68-.18,0-.36.03-.56.08.09-.12.18-.25.26-.38-.03-.14-.04-.3,0-.48-.28.21-.56.41-.83.59Z"/>
        <path class="cls-65" d="M35.75,134.71c-.42.05-.87.18-1.35.39-.08-.03-.16-.05-.24-.08-.05-.16-.11-.32-.16-.48-.31-.06-.54-.2-.68-.44.23-.52.07-.6-.48-.24,0,.13.03.23.08.32-.09-.09-.23-.09-.4,0,.08.37.15.76.21,1.15.09-.13.13-.25.12-.36.31-.07.49,0,.54.22.07,0,.15-.02.24-.08.04.52.4.51,1.07-.03.15-.02.31-.08.48-.16.09.19.28.12.57-.21Z"/>
        <path class="cls-14" d="M30.82,130.1c-.18.1-.35.24-.51.43l-.08.08c-.1.47-.03.83.21,1.07.02.08-.02.18-.12.28.21-.04.38-.18.51-.43.02-.39-.07-.7-.25-.96-.05-.14.03-.3.23-.47Z"/>
        <path class="cls-9" d="M32.12,127.92c-.4.5-.82.78-1.26.86-.27-.03-.53-.06-.8-.09-.29.3-.37.54-.23.71.29-.02.58-.05.87-.07.12-.21.3-.4.53-.57l-.04.12c.4-.26.71-.58.93-.97Z"/>
        <path class="cls-62" d="M30.7,129.34c-.29.02-.58.05-.87.07-.11.33,0,.43.36.28.19.11.35.24.48.4-.16.14-.28.28-.35.43.16-.19.34-.33.51-.43.22-.14.43-.25.63-.31-.02-.2-.13-.34-.32-.4-.16.01-.31,0-.44-.04Z"/>
        <path class="cls-61" d="M37.81,133.93c-.14.16-.29.25-.43.27-.56,0-1.14.05-1.75.15-.38.17-.73.29-1.07.35-.06-.21-.13-.42-.22-.62-.21-.04-.41-.09-.62-.14.03-.23.04-.46.03-.68-.19-.49-.62-.37-1.27.39.15.09.16.26.04.52.17-.08.3-.08.4,0-.05-.09-.08-.19-.08-.32.55-.36.71-.28.48.24.14.24.37.39.68.44.05.16.11.32.16.48.08.03.16.05.24.08.48-.21.93-.34,1.35-.39.17-.06.29-.05.36.04.36-.03.73-.08,1.11-.15.28-.18.48-.4.59-.67Z"/>
        <path class="cls-26" d="M21.46,116.64c-.07-.09-.16-.16-.28-.2-.51-.04-1-.11-1.47-.21-.23-.15-.41-.34-.56-.56,0,.14.02.28.02.42.3.19.62.37.94.54.25-.07.45-.06.6.04,0,.06,0,.12-.04.2-.09-.02-.18.02-.26.14.09-.01.19-.03.28-.04-.1.26-.28.42-.53.49-.64.17-1.23.25-1.79.26-.12-.01-.19-.08-.2-.2.01-.3.1-.63.27-.99-.05-.13-.06-.29,0-.48-.06-.09-.12-.17-.18-.26-.19-.21-.5-.17-.93.09,0,.05,0,.11,0,.16-.15-.07-.27-.16-.36-.28,0,.17.04.32.12.44.56-.08.86.12.92.6-.09.33-.18.66-.27.99.03.21.13.34.32.4.52-.09,1.01-.12,1.47-.11.27-.06.55-.18.83-.35.26-.31.55-.59.87-.87l.24-.24Z"/>
        <path class="cls-52" d="M37.05,129.24c-.24.08-.47.12-.67.11-.19-.36-.3-.79-.33-1.27-.03-.15-.1-.27-.2-.36-.55.1-1.13.33-1.74.7-.09.1-.17.21-.24.32.14.37.2.79.17,1.27-.13.24-.29.34-.47.31-.24-.02-.5,0-.79.07-.2-.28-.41-.55-.64-.8-.24.09-.46.15-.67.19-.21.07-.42.17-.63.31-.2.18-.28.33-.23.47.18.25.26.57.25.96-.13.25-.3.39-.51.43-.46.02-.9.31-1.34.86.06.03.13.05.22.06-.07.52.08.86.46,1.02.41-.14.81-.25,1.19-.31.02.66-.04,1.36-.18,2.1.04.17.16.27.36.28.39-.12.76-.2,1.11-.23.18-.05.35-.17.51-.35l.08-.08c-.06-.4-.13-.78-.21-1.15.12-.25.1-.43-.04-.52.65-.75,1.07-.88,1.27-.39,0,.22,0,.44-.03.68.2.06.41.11.62.14.09.2.17.41.22.62.34-.06.69-.18,1.07-.35.61-.09,1.19-.14,1.75-.15.15-.03.29-.12.43-.27.02-.62-.06-1.18-.25-1.67-.26-.04-.57,0-.91.11-.2-.09-.28-.28-.24-.56.06-.3.26-.55.59-.75.26.13.61.05,1.03-.23.15-.24.28-.47.39-.71-.01-.16,0-.33.04-.52-.08-.66-.55-.78-1.39-.37Z"/>
        <path class="cls-25" d="M21.22,116.87c-.32.27-.61.56-.87.87-.29.29-.43.57-.43.83.3.35.72.54,1.28.57.47-.11.86-.43,1.16-.96-.5.28-.91.37-1.25.25-.58-.19-.55-.71.11-1.55Z"/>
        <path class="cls-7" d="M30.22,124.29c-.21.12-.4.3-.57.53-.2.35-.25.64-.17.85-.08.02-.16.08-.24.16-.03.17-.08.36-.15.56.17.49.59.62,1.27.41.17-.24.37-.46.59-.67-.43.16-.81.23-1.15.19-.23-.09-.27-.32-.12-.68.18-.46.36-.9.55-1.35Z"/>
        <path class="cls-8" d="M32.16,127.81c-.16.19-.33.31-.51.35-.39.06-.78.11-1.17.17-.15.11-.29.23-.41.37.26.03.53.06.8.09.45-.08.87-.37,1.26-.86.05-.05.07-.09.04-.12Z"/>
        <path class="cls-54" d="M16.07,112.98c-.02.31.06.55.24.72.3.17.71.11,1.23-.19.1-.19.18-.38.23-.55"/>
        <path class="cls-64" d="M36.36,126.96c-.31-.17-.68-.27-1.09-.31-.07-.08-.12-.18-.14-.3-.08-.11-.15-.23-.2-.36-.11-.15-.32-.14-.62.02-.24.29-.51.54-.81.77-.19,0-.39,0-.6.04-.19.03-.39.15-.59.35,0,.19-.05.41-.15.63.03.03.01.07-.04.12-.22.39-.53.71-.93.97l.04-.12c-.23.17-.41.36-.53.57.13.04.27.06.44.04.19.06.3.2.32.4.21-.04.44-.11.67-.19.23.25.45.52.64.8.29-.07.56-.1.79-.07.02-.31,0-.6-.09-.87-.01-.23.12-.47.39-.71.06-.11.14-.21.24-.32.61-.37,1.19-.6,1.74-.7.2-.25.37-.5.51-.75Z"/>
        <path class="cls-27" d="M42.06,134.72c-.24.28-.46.4-.67.35-.45-.36-.85-.76-1.2-1.2-.1.02-.21.07-.32.16-.22.36-.5.68-.85.97.02-.05.03-.1.02-.14-.67.02-.95-.32-.86-1.02.13-.2.28-.39.45-.57.29-.18.49-.41.59-.67-.3-.46-.71-.79-1.24-1,.02-.24.05-.48.07-.71-.28.32-.46.63-.55.95.43.37.84.76,1.24,1.16-1.13,1.25-1.26,2.05-.38,2.38.13,0,.29-.02.46-.1.32-.3.64-.58.97-.85.41.36.83.72,1.24,1.08.41-.09.75-.35,1.03-.79Z"/>
        <path class="cls-20" d="M33.87,128.73c-.27.24-.41.48-.39.71.08.27.11.56.09.87.18.03.34-.07.47-.31.03-.48-.03-.91-.17-1.27Z"/>
        <path class="cls-31" d="M24.75,120.87c-.16.15-.27.31-.31.47.14.35.42.55.84.6.4-.07.71,0,.92.21-.45.38-.75.79-.9,1.22.03.38.19.65.48.8.65.31,1.3-.07,1.94-1.14-.21.22-.42.42-.65.61-.49.13-.87.07-1.11-.17-.44-.48-.16-1.02.84-1.6.13-.16.15-.28.06-.34-.6-.04-1.18-.12-1.73-.23-.18-.09-.3-.24-.36-.44Z"/>
        <path class="cls-59" d="M33.08,123.84l-.08.24c-.43.57-.8.72-1.11.47-.09.06-.19.1-.28.12-.24-.19-.48-.37-.72-.56-.22.04-.44.1-.67.19-.19.44-.37.89-.55,1.35-.14.36-.1.58.12.68.34.04.72-.02,1.15-.19l.08-.08c.13-.14.27-.27.41-.37.46-.05.86-.02,1.21.11.15.46.52.65,1.12.56.08-.03.16-.09.24-.16.14-.22.3-.43.47-.63.19.13.21.11.08-.08-.3-.13-.51-.35-.64-.64.03-.14.09-.29.2-.44.08-.17.15-.34.19-.51-.18-.35-.56-.43-1.11-.25-.04.07-.08.13-.12.2Z"/>
        <path class="cls-32" d="M32.3,126.22c-.31-.23-.73-.28-1.27-.17l-.08.08c-.22.21-.42.44-.59.67.42-.23.84-.41,1.27-.55l.04-.12c.12.15.24.29.36.44.07-.12.16-.24.28-.36Z"/>
        <path class="cls-13" d="M32.9,126.82c-.06-.08-.14-.13-.24-.16-.02.12-.09.18-.2.2-.05-.22-.1-.43-.16-.64-.12.11-.21.23-.28.36.03.25.12.45.28.6.2-.21.4-.32.59-.35Z"/>
        <path class="cls-37" d="M31.2,122.75c-.08.09-.15.18-.2.28-.48.11-.89.09-1.23-.05-.37-.42-.87-.71-1.48-.85-.05.01-.1.04-.16.08-.1.21-.22.4-.35.59l.24-.24c.36.18.7.37,1.04.56.15.15.33.3.52.44.42.34.96.11,1.6-.68.03-.06.03-.11.02-.14Z"/>
        <path class="cls-1" d="M16.95,108.81c-.2.37-.41.73-.65,1.09-.25.6-.12.92.38.94.24.02.47.06.68.12.2.08.16.25-.12.52.16-.07.3-.19.41-.37.1-.36.01-.58-.26-.66-.55.03-.86-.2-.92-.68.22-.21.37-.42.45-.65.07-.14.08-.24.02-.3Z"/>
        <path class="cls-5" d="M34.88,125.48c-.1-.02-.2-.02-.32,0,.13.19.11.21-.08.08-.17.2-.33.41-.47.63-.08.07-.16.12-.24.16-.6.08-.97-.1-1.12-.56-.35-.13-.75-.16-1.21-.11-.15.11-.29.23-.41.37.54-.12.96-.06,1.27.17.06.2.11.42.16.64.11-.01.18-.08.2-.2.1.03.18.08.24.16.2-.03.4-.04.6-.04.3-.23.57-.48.81-.77.3-.16.5-.16.62-.02.01-.18,0-.36-.04-.52Z"/>
        <path class="cls-77" d="M33,124.08c-.13.14-.27.27-.41.37.06-.09.13-.18.22-.26-.37-.14-.76-.26-1.16-.37,0-.14-.05-.2-.18-.18l.16-.48c-.16.14-.24.29-.25.45-.06.01-.1,0-.12-.04-.07.13-.12.27-.16.4.16.32.42.5.8.56.31.26.67.1,1.11-.47Z"/>
        <path class="cls-41" d="M36.72,127.17c-.34.28-.56.59-.67.91.02.49.13.91.33,1.27.21,0,.43-.04.67-.11l.47-.47c-.21.05-.4.05-.56,0-.61-.18-.7-.71-.25-1.59Z"/>
        <path class="cls-42" d="M21.62,111.43c-.09.08-.18.15-.28.2-.36,0-.72.23-1.07.67.37-.19.73-.31,1.07-.35.08-.18.17-.35.27-.51Z"/>
        <path class="cls-66" d="M18.47,120.9c.08.19.16.37.24.56.28-.03.45.06.52.28-.07.18-.17.37-.31.55l.12.12c.11-.25.27-.51.49-.77.17-.39.12-.62-.14-.7-.33.01-.64,0-.91-.05Z"/>
        <path class="cls-39" d="M24.12,126.87c.27-.2.49-.26.67-.19.09.06.17.12.26.18.09.1.11.22.06.38.08-.02.18-.06.28-.12.27.1.55.2.84.28.09-.32.18-.65.27-.99-.2.1-.39.16-.56.15-.35-.24-.77-.38-1.27-.41-.31.2-.49.44-.55.71Z"/>
        <path class="cls-75" d="M23.5,123.57c-.7.24-1.34.33-1.92.28.01-.31,0-.61-.03-.89-.17-.3-.47-.42-.92-.36-.52.26-.77.59-.75.99.08-.12.15-.23.2-.36.07-.06.13-.09.2-.12.28.02.55.06.82.11,0,.39.04.75.13,1.07.18.09.38.14.62.14.38-.11.75-.21,1.13-.29.28-.12.46-.31.53-.57Z"/>
        <path class="cls-55" d="M18.92,122.3c.14-.19.25-.37.31-.55"/>
        <path class="cls-50" d="M35.61,137.09c-.21,0-.45.05-.71.15-.2-.03-.4-.06-.62-.06-.26.19-.38.38-.37.57.41-.12.81-.19,1.19-.23.19-.11.36-.26.51-.43Z"/>
        <path class="cls-18" d="M32.65,135.4c-.16.19-.33.31-.51.35-.35.03-.72.11-1.11.23-.2-.01-.32-.11-.36-.28.14-.75.2-1.45.18-2.1-.38.06-.78.17-1.19.31-.38-.16-.54-.5-.46-1.02-.08,0-.16-.03-.22-.06-.08.13-.12.25-.12.36-.06.24-.1.46-.11.67.18.54.69.59,1.51.17.06.03.12.07.18.1.02.63-.02,1.3-.12,2.01.04.15.13.24.28.28.45-.04.93-.16,1.45-.37.2-.16.39-.34.57-.53.05-.05.07-.09.04-.12Z"/>
        <path class="cls-4" d="M21.17,125.34c-.18.41-.21.75-.09,1.01.34.09.6.27.78.54-.29.61-.61,1.21-.94,1.82l.12.12c.54.14,1.11.24,1.71.29.34-.18.62-.43.83-.75-.14.16-.29.27-.45.33.02-.05.03-.1.02-.14-.51-.05-1.01-.1-1.51-.17-.09-.11-.21-.2-.34-.26.39-.38.69-.8.88-1.24.08-.03.16-.09.24-.16.2-.39.16-.61-.12-.68-.34.04-.63,0-.86-.15-.04-.2,0-.43.09-.69-.14.09-.26.13-.36.12Z"/>
        <path class="cls-28" d="M30.36,126.8c-.68.22-1.11.08-1.27-.41.07-.2.12-.38.15-.56-.07-.22-.21-.38-.4-.48-.33.15-.54.12-.64-.08l-.04-.04c-.12-.24-.35-.22-.71.07-.47.66-.65,1.22-.52,1.68-.2.36-.44.5-.69.41-.29-.08-.56-.18-.84-.28-.1.06-.19.09-.28.12-.33.31-.63.64-.91.99-.07.17-.16.34-.27.51.06.14.03.35-.07.64.3.33.8.31,1.51-.07.51.05.63.4.35,1.06-.11.17-.24.3-.41.37-.4.06-.75.04-1.03-.09-.2.09-.4.15-.59.19-.82,1.59-.44,2.04,1.12,1.36.26-.08.42-.03.48.16-.52,1.32-.1,1.66,1.26,1.02.21-.16.39-.34.55-.55.03-.22.07-.43.13-.65-.02-.14-.01-.29.02-.46.12-.18.26-.27.41-.29.28.26.54.52.8.8.32.06.69,0,1.11-.15.13-.29.26-.58.39-.87l.12-.04c0-.17.05-.36.15-.56l.08-.08c.07-.15.19-.29.35-.43-.13-.16-.29-.29-.48-.4-.35.15-.47.05-.36-.28-.13-.17-.06-.41.23-.71.13-.14.27-.27.41-.37.39-.05.78-.11,1.17-.17.18-.05.35-.17.51-.35.11-.23.16-.44.15-.63-.16-.15-.26-.35-.28-.6-.13-.15-.25-.29-.36-.44l-.04.12c-.43.13-.85.32-1.27.55Z"/>
        <path class="cls-40" d="M32.61,135.52c-.18.19-.37.37-.57.53-.52.2-1,.33-1.45.37-.15-.04-.24-.13-.28-.28.11-.71.15-1.37.12-2.01-.06-.03-.12-.07-.18-.1-.82.42-1.33.36-1.51-.17-.06-.09-.14-.07-.26.06-.08.31-.11.59-.09.85-.09.16-.21.3-.35.43l-.16-.16c-.07.04-.13.08-.2.12.13.05.25.12.36.2.08-.09.16-.16.26-.22.03.06.05.13.06.22.11-.08.22-.16.32-.24.13,0,.26.01.4,0,.03.05.04.11.02.18.2-.18.29-.19.28-.04.35-.1.43.03.24.4.12.01.24.03.36.04-.08.3-.1.57-.05.81.12.19.22.37.3.54.24-.14.28-.1.12.12.23-.1.44-.13.62-.09l.04-.12c.11,0,.24-.07.38-.18-.03.12.04.14.2.04.28-.25.57-.49.85-.73-.06-.03-.08-.1-.04-.2.1-.14.18-.27.24-.4Z"/>
        <path class="cls-70" d="M23.94,128.73c-.26.35-.44.69-.55,1.03.25.36.54.66.88.88.28.12.63.15,1.03.09.17-.08.31-.2.41-.37.28-.66.17-1.01-.35-1.06-.7.37-1.21.4-1.51.07.11-.29.13-.5.07-.64Z"/>
        <path class="cls-69" d="M33.71,138.98c-.73.41-1.42.64-2.06.7-.21-.18-.22-.5,0-.95-.15-.33-.44-.49-.88-.48-.2.11-.36.26-.49.45-.08.12-.1.2-.06.26.58-.34.9-.28.95.17-.35.75-.22,1.12.41,1.12.41-.15.8-.26,1.17-.33.25-.14.49-.32.73-.53.15-.14.23-.27.24-.4Z"/>
        <path class="cls-2" d="M36.1,134.75c-.07-.09-.19-.1-.36-.04-.29.33-.49.41-.57.21-.17.08-.32.13-.48.16-.68.54-1.03.55-1.07.03-.09.06-.17.08-.24.08-.05-.22-.23-.3-.54-.22,0,.11-.03.23-.12.36l-.08.08s.01.07-.04.12c-.06.12-.13.26-.24.4-.04.1-.02.17.04.2-.28.24-.57.48-.85.73-.16.09-.23.08-.2-.04-.14.11-.26.17-.38.18l-.04.12c-.18-.04-.38,0-.62.09.16-.22.12-.26-.12-.12-.08-.17-.18-.35-.3-.54-.04-.24-.02-.52.05-.81-.12-.01-.24-.03-.36-.04.19-.37.11-.5-.24-.4.01-.15-.08-.14-.28.04.02-.07,0-.13-.02-.18-.14,0-.27,0-.4,0-.1.08-.2.16-.32.24,0-.09-.03-.16-.06-.22-.09.06-.18.13-.26.22-.11-.08-.23-.15-.36-.2-.23,0-.49.12-.75.35-.14.51-.07.89.19,1.13-.25.31-.5.47-.77.49-.25.29-.48.58-.69.89.1-.08.2-.14.3-.18-.31.96-.03,1.36.86,1.18.31-.15.62-.38.91-.67.36-.14.54-.06.56.24-.1.4-.19.81-.29,1.21-.05.29-.04.55.05.76.52,0,1.1-.11,1.73-.32-.09.11-.15.21-.18.3.71-.66.92-1.19.62-1.58-.04-.06-.02-.14.06-.26.13-.2.3-.35.49-.45.43,0,.73.16.88.48-.21.45-.21.77,0,.95.64-.06,1.33-.29,2.06-.7.24-.49.3-.9.19-1.23,0-.2.11-.39.37-.57.21,0,.42.03.62.06.26-.1.5-.15.71-.15.12-.15.23-.31.31-.47.08-.35.19-.7.35-1.07.16-.41.1-.67-.17-.8Z"/>
        <path class="cls-15" d="M27.22,132.18c-.06.22-.1.44-.13.65-.16.21-.34.39-.55.55-1.36.64-1.78.3-1.26-1.02-.05-.19-.21-.24-.48-.16-1.57.68-1.94.23-1.12-1.36-.03-.03-.07-.01-.12.04-.25.23-.48.48-.67.75-.04.19-.11.39-.19.59.04.07.11.09.22.06-.11.34-.04.55.22.62.58-.15,1.14-.26,1.67-.3.02.38-.05.8-.23,1.27.08.19.21.32.4.4.53-.07,1.1-.29,1.7-.66.29.25.62.46,1,.6.14-.06.24-.18.3-.34l-.12.04c.08-.12.18-.23.3-.34-.03-.06-.1-.08-.2-.04-.04.13-.12.21-.24.24.1-.16.16-.32.18-.46-.07.04-.13.08-.2.12-.23-.36-.13-.44.3-.26-.06-.33-.31-.34-.74-.03.1-.18.2-.34.31-.47l-.36.12c.09-.11.16-.22.22-.34-.04-.12-.11-.21-.2-.28Z"/>
        <path class="cls-76" d="M30.23,130.61c-.11.2-.16.38-.15.56l-.12.04c-.13.29-.26.58-.39.87-.42.16-.79.21-1.11.15-.26-.28-.52-.54-.8-.8-.16.02-.3.12-.41.29-.03.17-.03.32-.02.46.09.07.16.16.2.28-.06.11-.13.22-.22.34l.36-.12c-.11.14-.21.3-.31.47.43-.31.68-.31.74.03-.43-.19-.53-.1-.3.26.07-.04.13-.08.2-.12-.02.14-.08.29-.18.46.11-.03.19-.11.24-.24.1-.04.17-.02.2.04-.11.1-.21.21-.3.34l.12-.04c-.05.16-.15.27-.3.34-.38-.15-.71-.35-1-.6-.6.37-1.17.6-1.7.66-.19-.08-.32-.21-.4-.4.18-.47.25-.89.23-1.27-.53.05-1.09.15-1.67.3-.26-.07-.34-.27-.22-.62-.11.03-.18,0-.22-.06-.02.29-.13.6-.31.95.08.49.22.94.41,1.35.89-.64,1.23-.56,1.03.25.23-.17.44-.38.63-.63.26.29.67.38,1.21.27.14.04.24.14.3.3.08-.15.11-.28.08-.4.05-.04.11-.06.16-.08.34.2.73.35,1.16.45.24-.11.48-.26.71-.47.22-.35.48-.69.79-1.03,0-.11.04-.22.12-.36.44-.56.89-.85,1.34-.86.1-.1.13-.19.12-.28-.24-.24-.31-.6-.21-1.07Z"/>
        <path class="cls-10" d="M23.83,134.77c-.41.37-.6.71-.55,1.03.1.1.17.23.22.38.19.02.38.03.58.02-.03-.06-.03-.14,0-.24.35.04.76-.07,1.23-.35.1-.04.17-.02.2.04l.32-.32c.13-.25.19-.46.15-.63-.06-.16-.16-.26-.3-.3-.55.11-.95.02-1.21-.27-.19.25-.4.46-.63.63Z"/>
        <path class="cls-21" d="M25.82,135.34l-.32.32c-.03-.06-.1-.08-.2-.04-.47.28-.88.39-1.23.35-.02.09-.02.17,0,.24-.2,0-.39,0-.58-.02-.05-.15-.12-.28-.22-.38l-.08.08c0,.12.04.22.12.28.08.11.19.19.32.24.34-.05.69-.1,1.03-.15.4-.1.78-.35,1.13-.77.03-.06.03-.11.02-.14Z"/>
      </g>
      <g id="s-falsebelief-uc-a-cookies">
        <path class="cls-102" d="M51.86,135.89s-.04.16-.1.24c-.81,1.82-2.35,3.34-4.14,4.28-.95.41-2,.78-3.05.85l-.15.04c-1.52.14-3.18-.2-4.45-.93h0c-1.94-1.05-3.04-2.63-3.43-4.63-.24-1.17-.09-2.37.32-3.57h0c-1.48-.6-2.37-2.31-2.75-3.66s-.14-4.02.99-5.86c.29-.44.59-.82.97-1.22,0,0,.08-.02.11-.18,1.45-1.57,3.53-2.36,5.58-2.65,2.09-.15,4.13.37,5.63,1.62,1.61,1.36,2.44,3.16,2.46,5.26,0,.29-.02.51-.02.8l.04.13c-.02.22-.04.45-.15.62-.1.24-.13.4-.14.69.25.29.53.43.84.64,1.35,1,2.01,2.78,2.14,4.41.05,1.07-.14,2.14-.52,3.12l-.15.04-.02-.07Z"/>
        <path class="cls-85" d="M45.76,123.49l-.23.06-.38.11-.38.11c-.59-.05-1.1-.13-1.56-.58-.13-.18-.25-.29-.17-.61.04-.16.17-.27.21-.42l-.08-.27c-.02-.07-.13-.18-.3-.21.17-.56.5-.86.99-1.15.42-.26.84-.23,1.33-.23.44.1.74.3,1.01.66.4.83.38,1.64-.5,2.32l.02.07.04.13Z"/>
        <path class="cls-83" d="M49.67,132.48c-.27.22-.5.28-.91.26l-.46.13c-.42-.03-.78-.14-1.1-.42l-.45-.74c.19-.2.31-.38.52-.51.61-.46,1.11-1.04,1.51-1.66.51.07.89.26,1.24.6.53.72.32,1.72-.41,2.36h0l.08-.02Z"/>
        <path class="cls-80" d="M49.23,125.93l-.38.11c-.23.06-.34-.05-.55-.21-.06-.2-.09-.34.08-.6l.38-.11c.23-.06.34.05.55.21.06.2.09.34-.08.6Z"/>
        <path class="cls-88" d="M39.19,128.52l-.38.11c-.15.04-.3.09-.44-.1-.11-.11-.15-.25-.11-.4.1-.24.15-.33.36-.46.23-.06.3-.09.49,0,.23.23.19.38.04.72l.02.07.02.07Z"/>
        <path class="cls-93" d="M43.15,122.7l-.38.11c-.27-.07-.36-.12-.57-.28-.06-.2,0-.29.1-.53l.38-.11c.23-.06.34.05.55.21.06.2.09.34-.08.6h0Z"/>
        <path class="cls-88" d="M47.15,126.44c-.06.09-.19.2-.32.31s-.3.09-.38.11c-.1-.05-.21-.16-.34-.34.02-.22.06-.38.27-.51.23-.06.38-.11.57-.01.13.18.15.25.15.54h0l.06-.09Z"/>
        <path class="cls-88" d="M49.08,135.98c-.11.18-.25.29-.4.33-.23.06-.34-.05-.55-.21-.06-.2-.09-.34.08-.6.19-.2.27-.22.61-.17.1.05.21.16.32.27.04.13.08.27-.04.45h0l-.02-.07Z"/>
        <path class="cls-88" d="M40.18,122.07l-.38.11c-.23.06-.34-.05-.53-.14-.06-.2.04-.45.14-.69l.38-.11c.15-.04.32-.02.46.16.08.27.09.34-.08.6l.02.07Z"/>
        <path class="cls-93" d="M43.07,130.05l-.46.13c-.15.04-.27-.07-.38-.18-.06-.2.06-.38.15-.62.3-.09.46-.13.74.01.23.23.13.47-.12.76h0l.06-.09Z"/>
        <path class="cls-99" d="M42.49,126.51c-.04.16-.17.27-.23.35s-.23.06-.42-.03-.3-.21-.27-.36.08-.31.25-.58c.23-.06.42.03.61.12l.13.47-.08.02Z"/>
        <path class="cls-90" d="M45.98,124.01c-.04.16-.17.27-.23.35-.08.02-.23.06-.42-.03s-.3-.21-.27-.36c-.04-.13.08-.31.25-.58.23-.06.42.03.61.12l.13.47-.08.02Z"/>
        <path class="cls-99" d="M46.21,129.24c-.06.09-.19.2-.32.31s-.32.02-.65-.25c-.06-.2.06-.38.15-.62.3-.09.38-.11.65-.04.15.15.2.33.15.54h0l.02.07Z"/>
        <path class="cls-99" d="M47.06,138.43l-.3.09c-.23.06-.42-.03-.65-.25-.04-.13-.08-.27.04-.45s.17-.27.4-.33.42.03.55.21c.06.2.02.36-.08.6h0l.04.13Z"/>
        <path class="cls-82" d="M51.27,136.17l-.38.11c-.27-.07-.44-.1-.57-.28-.06-.2.06-.38.17-.56l.53-.15c.36.12.36.41.21.74h0l.04.13Z"/>
        <path class="cls-82" d="M38.73,125.09c-.04.16-.1.24-.23.35-.23.06-.3.09-.59-.05-.02-.07-.13-.18-.17-.32.02-.22.06-.38.27-.51.15-.04.3-.09.42.03.29.14.3.21.23.52h0l.08-.02Z"/>
        <path class="cls-103" d="M47.49,122.06l-.38.11c-.23.06-.34-.05-.55-.21-.06-.2-.09-.34.08-.6l.3-.09c.15-.04.34.05.53.14.13.18.11.4.02.65h0Z"/>
        <path class="cls-103" d="M44.22,137.7c-.04.16-.17.27-.23.35s-.23.06-.42-.03-.3-.21-.32-.27.08-.31.33-.6c.23-.06.42.03.61.12l.11.4-.08.02Z"/>
        <path class="cls-82" d="M51.3,131.88l-.38.11c-.23.06-.34-.05-.55-.21-.04-.13-.08-.27.04-.45.04-.16.17-.27.32-.31s.34.05.63.19c.06.2,0,.29-.1.53l.02.07.02.07Z"/>
        <path class="cls-82" d="M44.82,134.56l-.3.09c-.23.06-.34-.05-.55-.21-.06-.2-.09-.34.08-.6l.38-.11c.15-.04.32-.02.46.16.08.27.11.4-.06.67Z"/>
        <path class="cls-87" d="M35.98,127.31l-.3.09c-.34-.05-.42-.03-.65-.25.08-.31.17-.56.31-.67.23-.06.38-.11.59.05.23.23.11.4.02.65h0l.04.13Z"/>
        <path class="cls-87" d="M41.26,135.05l-.3.09c-.23.06-.42-.03-.55-.21-.06-.2-.02-.36.08-.6l.3-.09c.23-.06.42.03.55.21.06.2.02.36-.08.6Z"/>
        <path class="cls-101" d="M48.94,133.41l-.27.22c-.23.06-.34-.05-.55-.21l-.09-.34c-.04-.13.02-.22.23-.35.23-.06.38-.11.59.05s.11.4.02.65h0l.08-.02Z"/>
        <path class="cls-89" d="M43.15,122.7l-.38.11c-.04-.13-.06-.2-.02-.36l-.06-.2c-.02-.07-.06-.2.08-.31l-.19-.09c.23-.06.34.05.55.21.06.2.09.34-.08.6h0l.09.05Z"/>
        <path class="cls-98" d="M38.59,132.82l-.15.04c-.08.02-.23.06-.44-.1l-.06-.2c.08-.02.19.09.27.07l.15-.04.19.09.02.07.02.07Z"/>
        <path class="cls-96" d="M45.77,123.56l-.76.21s.11-.18.17-.27c.2-.06.39-.06.57-.01l.02.07h0Z"/>
        <g id="s-falsebelief-uc-a-cookies-2" data-name="s-falsebelief-uc-a-cookies">
          <path class="cls-102" d="M55.74,123.45s-.04.16-.1.24c-.81,1.82-2.35,3.34-4.14,4.28-.95.41-2,.78-3.05.85l-.15.04c-1.52.14-3.18-.2-4.45-.93h0c-1.94-1.05-3.04-2.63-3.43-4.63-.24-1.17-.09-2.37.32-3.57h0c-1.48-.6-2.37-2.31-2.75-3.66s-.14-4.02.99-5.86c.29-.44.59-.82.97-1.22,0,0,.08-.02.11-.18,1.45-1.57,3.53-2.36,5.58-2.65,2.09-.15,4.13.37,5.63,1.62,1.61,1.36,2.44,3.16,2.46,5.26,0,.29-.02.51-.02.8l.04.13c-.02.22-.04.45-.15.62-.1.24-.13.4-.14.69.25.29.53.43.84.64,1.35,1,2.01,2.78,2.14,4.41.05,1.07-.14,2.14-.52,3.12l-.15.04-.02-.07Z"/>
          <path class="cls-85" d="M48.87,112.11l-.23.06-.38.11-.38.11c-.59-.05-1.1-.13-1.56-.58-.13-.18-.25-.29-.17-.61.04-.16.17-.27.21-.42l-.08-.27c-.02-.07-.13-.18-.3-.21.17-.56.5-.86.99-1.15.42-.26.84-.23,1.33-.23.44.1.74.3,1.01.66.4.83.38,1.64-.5,2.32l.02.07.04.13Z"/>
          <path class="cls-83" d="M52.78,121.1c-.27.22-.5.28-.91.26l-.46.13c-.42-.03-.78-.14-1.1-.42l-.45-.74c.19-.2.31-.38.52-.51.61-.46,1.11-1.04,1.51-1.66.51.07.89.26,1.24.6.53.72.32,1.72-.41,2.36h0l.08-.02Z"/>
          <path class="cls-80" d="M52.35,114.54l-.38.11c-.23.06-.34-.05-.55-.21-.06-.2-.09-.34.08-.6l.38-.11c.23-.06.34.05.55.21.06.2.09.34-.08.6Z"/>
          <path class="cls-88" d="M42.31,117.13l-.38.11c-.15.04-.3.09-.44-.1-.11-.11-.15-.25-.11-.4.1-.24.15-.33.36-.46.23-.06.3-.09.49,0,.23.23.19.38.04.72l.02.07.02.07Z"/>
          <path class="cls-93" d="M46.27,111.31l-.38.11c-.27-.07-.36-.12-.57-.28-.06-.2,0-.29.1-.53l.38-.11c.23-.06.34.05.55.21.06.2.09.34-.08.6h0Z"/>
          <path class="cls-88" d="M50.27,115.05c-.06.09-.19.2-.32.31s-.3.09-.38.11c-.1-.05-.21-.16-.34-.34.02-.22.06-.38.27-.51.23-.06.38-.11.57-.01.13.18.15.25.15.54h0l.06-.09Z"/>
          <path class="cls-88" d="M52.2,124.6c-.11.18-.25.29-.4.33-.23.06-.34-.05-.55-.21-.06-.2-.09-.34.08-.6.19-.2.27-.22.61-.17.1.05.21.16.32.27.04.13.08.27-.04.45h0l-.02-.07Z"/>
          <path class="cls-88" d="M43.3,110.69l-.38.11c-.23.06-.34-.05-.53-.14-.06-.2.04-.45.14-.69l.38-.11c.15-.04.32-.02.46.16.08.27.09.34-.08.6l.02.07Z"/>
          <path class="cls-93" d="M46.19,118.66l-.46.13c-.15.04-.27-.07-.38-.18-.06-.2.06-.38.15-.62.3-.09.46-.13.74.01.23.23.13.47-.12.76h0l.06-.09Z"/>
          <path class="cls-99" d="M45.61,115.12c-.04.16-.17.27-.23.35s-.23.06-.42-.03-.3-.21-.27-.36.08-.31.25-.58c.23-.06.42.03.61.12l.13.47-.08.02Z"/>
          <path class="cls-90" d="M49.1,112.62c-.04.16-.17.27-.23.35-.08.02-.23.06-.42-.03s-.3-.21-.27-.36c-.04-.13.08-.31.25-.58.23-.06.42.03.61.12l.13.47-.08.02Z"/>
          <path class="cls-99" d="M49.33,117.85c-.06.09-.19.2-.32.31s-.32.02-.65-.25c-.06-.2.06-.38.15-.62.3-.09.38-.11.65-.04.15.15.2.33.15.54h0l.02.07Z"/>
          <path class="cls-99" d="M50.18,127.05l-.3.09c-.23.06-.42-.03-.65-.25-.04-.13-.08-.27.04-.45s.17-.27.4-.33.42.03.55.21c.06.2.02.36-.08.6h0l.04.13Z"/>
          <path class="cls-82" d="M54.39,124.78l-.38.11c-.27-.07-.44-.1-.57-.28-.06-.2.06-.38.17-.56l.53-.15c.36.12.36.41.21.74h0l.04.13Z"/>
          <path class="cls-82" d="M41.85,113.71c-.04.16-.1.24-.23.35-.23.06-.3.09-.59-.05-.02-.07-.13-.18-.17-.32.02-.22.06-.38.27-.51.15-.04.3-.09.42.03.29.14.3.21.23.52h0l.08-.02Z"/>
          <path class="cls-103" d="M50.61,110.68l-.38.11c-.23.06-.34-.05-.55-.21-.06-.2-.09-.34.08-.6l.3-.09c.15-.04.34.05.53.14.13.18.11.4.02.65h0Z"/>
          <path class="cls-103" d="M47.34,126.32c-.04.16-.17.27-.23.35s-.23.06-.42-.03-.3-.21-.32-.27.08-.31.33-.6c.23-.06.42.03.61.12l.11.4-.08.02Z"/>
          <path class="cls-82" d="M54.42,120.49l-.38.11c-.23.06-.34-.05-.55-.21-.04-.13-.08-.27.04-.45.04-.16.17-.27.32-.31s.34.05.63.19c.06.2,0,.29-.1.53l.02.07.02.07Z"/>
          <path class="cls-82" d="M47.94,123.18l-.3.09c-.23.06-.34-.05-.55-.21-.06-.2-.09-.34.08-.6l.38-.11c.15-.04.32-.02.46.16.08.27.11.4-.06.67Z"/>
          <path class="cls-87" d="M39.1,115.93l-.3.09c-.34-.05-.42-.03-.65-.25.08-.31.17-.56.31-.67.23-.06.38-.11.59.05.23.23.11.4.02.65h0l.04.13Z"/>
          <path class="cls-87" d="M44.38,123.66l-.3.09c-.23.06-.42-.03-.55-.21-.06-.2-.02-.36.08-.6l.3-.09c.23-.06.42.03.55.21.06.2.02.36-.08.6Z"/>
          <path class="cls-101" d="M52.06,122.02l-.27.22c-.23.06-.34-.05-.55-.21l-.09-.34c-.04-.13.02-.22.23-.35.23-.06.38-.11.59.05s.11.4.02.65h0l.08-.02Z"/>
          <path class="cls-89" d="M46.27,111.31l-.38.11c-.04-.13-.06-.2-.02-.36l-.06-.2c-.02-.07-.06-.2.08-.31l-.19-.09c.23-.06.34.05.55.21.06.2.09.34-.08.6h0l.09.05Z"/>
          <path class="cls-98" d="M41.71,121.44l-.15.04c-.08.02-.23.06-.44-.1l-.06-.2c.08-.02.19.09.27.07l.15-.04.19.09.02.07.02.07Z"/>
          <path class="cls-96" d="M48.89,112.17l-.76.21s.11-.18.17-.27c.2-.06.39-.06.57-.01l.02.07h0Z"/>
        </g>
      </g>
      <g id="arm5">
        <path class="cls-81" d="M6.37,110.23h0c-4.39,0-7.44-4.57-6.01-8.97l9.69-27.53c1.43-4.39,5.83-6.73,9.95-5.38h0c4.84,1.61,7.08,7.44,4.75,12.19l-12.73,26.1c-1.08,2.24-3.23,3.59-5.65,3.59h0Z"/>
        <path class="cls-105" d="M13.36,68.35c-3.59,3.23-7.98,9.78-10.58,23.49l15.52,6.1s9.6-19.19,7.89-26.28c-1.17-4.93-8.79-6.73-12.82-3.23h0v-.09h0Z"/>
        <path class="cls-81" d="M6.3,98.18h0c1.69.21,3.1,1.2,3.99,2.76l16.96,29.78-7.49,3.49L1.16,107.48c-2.84-4.06.34-9.9,5.14-9.3h0Z"/>
        <path class="cls-81" d="M32.62,128.3l-11.07-1.98-2.26,7.94c.13,0,.25.01.38.02,5.09,9.29,11.89,10.41,11.89,10.41,6.54,1.24,7.21-.7,6.61-2.44-.38-1.23-1.35-2.17-2.46-2.73-4.88-2.61-9.7-8.77-9.7-8.77,9.45.19,6.47-2.32,6.47-2.32l.13-.12h0Z"/>
      </g>
      <g id="arm5-2">
        <path class="cls-81" d="M65.56,110.17h0c4.39,0,7.44-4.57,6.01-8.97l-9.69-27.53c-1.43-4.39-5.83-6.73-9.95-5.38h0c-4.84,1.61-7.08,7.44-4.75,12.19l12.73,26.1c1.08,2.24,3.23,3.59,5.65,3.59h0Z"/>
        <path class="cls-105" d="M58.57,68.3c3.59,3.23,7.98,9.78,10.58,23.49l-15.52,6.1s-9.6-19.19-7.89-26.28c1.17-4.93,8.79-6.73,12.82-3.23h0v-.09h0Z"/>
        <path class="cls-81" d="M65.78,98.46h0c-1.68.27-3.06,1.31-3.89,2.9l-15.91,30.36,7.6,3.22,17.66-27.37c2.69-4.16-.68-9.88-5.46-9.11h0Z"/>
        <path class="cls-81" d="M41.16,129.65l10.26-1.85,2.1,7.36c-.12,0-.23.01-.35.02-4.72,8.61-11.02,9.66-11.02,9.66-6.06,1.15-6.69-.64-6.13-2.26.35-1.14,1.25-2.01,2.28-2.54,4.52-2.42,8.98-8.14,8.98-8.14-8.76.18-6-2.15-6-2.15l-.12-.11h0Z"/>
      </g>
      <g>
        <path class="cls-104" d="M37.8,62.7h0c-2.61,0-4.7-2.09-4.7-4.7v-7h9.5v7c0,2.61-2.09,4.7-4.7,4.7h-.1Z"/>
        <path class="cls-92" d="M60.68,31.89c-.94,1.57-2.4,2.61-3.86,2.93h-1.25c-.42,4.07-1.88,7.83-3.97,10.86-3.97,5.95-9.92,9.5-14.31,9.3h-1.04c-4.7,0-10.13-3.24-13.89-8.67-2.09-3.03-3.66-6.68-4.28-10.76h-.31c-1.46,0-3.03-1.15-4.07-2.72-.21-.31-.31-.52-.42-.84-.21-.42-.31-.73-.42-1.15h0c-.31-1.57,0-2.82,1.25-3.34h0c1.04-.42,2.4,0,3.66.73.94-12.43,8.67-23.4,18.28-23.61,2.93,0,5.75.84,8.25,2.4,2.4,1.46,4.49,3.76,6.27,6.58h0c2.51,4.07,4.28,9.3,4.8,14.52h0c.52-.52,1.15-.94,1.77-1.15.84-.42,1.77-.42,2.51,0,1.67.73,1.98,3.03.63,5.33l.42-.31v-.1h0Z"/>
        <g>
          <path class="cls-94" d="M24.85,27.08c.21,0,.42,0,.52-.31,1.77-3.34,4.8-1.98,4.91-1.88.31,0,.63,0,.84-.31,0-.31,0-.63-.31-.84-1.46-.63-4.7-1.04-6.48,2.4,0,.31,0,.63.21.84h.31s0,.1,0,.1Z"/>
          <path class="cls-94" d="M43.03,24.37s.31.21.52,0c2.93-1.15,4.18,1.36,4.18,1.46,0,.21.42.31.63.21.21,0,.31-.42.21-.63-.52-1.25-2.4-3.24-5.43-1.98-.21,0-.42.42-.31.63v.21h.21v.1h0Z"/>
          <path class="cls-94" d="M28.51,29.49c0,1.15.73,2.19,1.57,2.19s1.67-1.04,1.67-2.19-.73-2.19-1.57-2.19-1.67,1.04-1.67,2.19Z"/>
          <path class="cls-94" d="M43.03,29.49c0,1.15.73,2.19,1.57,2.19s1.67-1.04,1.67-2.19-.73-2.19-1.57-2.19-1.67,1.04-1.67,2.19Z"/>
          <path class="cls-84" d="M32.37,44.11c.21.21,1.57,3.24,5.22,3.13,3.55,0,5.01-2.82,5.22-3.13"/>
          <path class="cls-95" d="M40.2,37.84c0,1.46-1.15,2.61-2.61,2.61s-2.61-1.15-2.61-2.61,1.15,1.46,2.61,1.46,2.61-2.93,2.61-1.46Z"/>
          <path class="cls-86" d="M49.4,32.62c2.09,0,3.76,1.57,3.66,3.34s-1.98,3.03-4.07,2.93-3.76-1.57-3.66-3.34,1.98-3.03,4.07-2.93Z"/>
          <path class="cls-86" d="M25.58,32.62c2.09,0,3.76,1.57,3.66,3.34-.1,1.77-1.98,3.03-4.07,2.93s-3.76-1.57-3.66-3.34,1.98-3.03,4.07-2.93Z"/>
        </g>
        <path class="cls-91" d="M58.07,15.39c-1.67-5.64-5.01-10.55-10.55-13.27C43.03-.07,28.09-3.62,19.84,9.85c-3.34,5.43-4.07,12.32-4.07,18.59s.94,10.76,4.28,15.04c.52.63,1.15,1.25,1.77,1.77,0,0-.73-3.76-1.25-5.33-1.67-5.54-1.46-12.01.31-17.55.31-.84.63-1.57.94-2.4,0-.42,1.15-2.3,1.04-2.61,1.77,4.28,7.62,5.95,11.8,6.68-.73-1.15-1.88-1.77-2.61-3.03-.73-1.25-1.15-2.61-1.57-3.86,5.01,1.88,10.24,5.43,15.98,5.12-1.25-1.25-4.59-3.76-4.49-5.85,1.25,1.77,3.45,2.3,5.43,3.03,1.25.42,2.61.73,3.86,1.15,1.04.31,1.04.21,1.36,1.15,1.88,6.27,2.72,13.79,1.25,20.26.31-1.57,2.93-4.59,3.45-6.06.63-1.77,1.15-3.55,1.57-5.43.73-3.66.73-7.52.21-11.18-.21-1.36-.52-2.72-.84-3.97h-.21Z"/>
      </g>
    </g>
  </g>
</svg>