<?xml version="1.0" encoding="UTF-8"?>
<svg id="Ebene_2" data-name="Ebene 2" xmlns="http://www.w3.org/2000/svg" viewBox="0 0 92.07 298.72">
  <defs>
    <style>
      .cls-1 {
        fill: #d9a8a7;
      }

      .cls-2 {
        fill: #1d2d4e;
      }

      .cls-3 {
        fill: none;
        stroke: #630;
        stroke-linecap: round;
        stroke-miterlimit: 10;
      }

      .cls-4 {
        fill: #ffe878;
      }

      .cls-5 {
        fill: #344260;
      }

      .cls-6 {
        fill: #d9a2a0;
      }

      .cls-7 {
        fill: #ff3e3e;
      }

      .cls-8, .cls-9 {
        isolation: isolate;
      }

      .cls-10 {
        fill: #ca8a8c;
      }

      .cls-11, .cls-9 {
        fill: #603813;
      }

      .cls-12 {
        fill: #d12020;
      }

      .cls-13 {
        fill: #faf0f5;
      }

      .cls-14 {
        fill: #543a35;
      }

      .cls-9 {
        opacity: .5;
      }
    </style>
  </defs>
  <g id="Ebene_1-2" data-name="Ebene 1">
    <g class="cls-8">
      <g id="Layer_1" data-name="Layer 1">
        <g id="german-woman-apron">
          <g>
            <path class="cls-2" d="M55.59,216.81h0c-4.3,0-7.7-3.4-7.9-7.6l-1.8-64.4c0-6.9,5.7-12.6,12.6-12.6h0c6.9,0,12.6,5.7,12.6,12.6,2.2,21.6-1.1,46.3-8,66.7-1.1,3.2-4.1,5.3-7.5,5.3h0Z"/>
            <path class="cls-2" d="M53.49,286.61h-5.6v-74.9c0-4.5,3.2-8.1,7.2-8.1h0c3.6,0,6.6,2.9,7.1,6.8,3,21.9-.3,47.9-8.8,76.2h.1Z"/>
            <path class="cls-14" d="M53.49,286.51s22.4,10.1,17,12c-.6.2-20.1-2.7-20.6-3-1.1-.6-1.8-1.7-1.9-3v-5.9h5.5v-.1Z"/>
          </g>
          <g>
            <path class="cls-2" d="M34.59,217.01h0c4.3,0,7.7-3.4,7.9-7.6l1.8-64.4c0-6.9-5.7-12.6-12.6-12.6h0c-6.9,0-12.6,5.7-12.6,12.6-2.2,21.6,1.1,46.3,8,66.7,1.1,3.2,4.1,5.3,7.5,5.3Z"/>
            <path class="cls-2" d="M36.59,286.81h5.6v-74.9c0-4.5-3.2-8.1-7.2-8.1h0c-3.6,0-6.6,2.9-7.1,6.8-3,21.9.3,47.9,8.8,76.2h-.1Z"/>
            <path class="cls-14" d="M36.59,286.71s-22.4,10.1-17,12c.6.2,20.1-2.7,20.6-3,1.1-.6,1.8-1.7,1.9-3v-5.9h-5.5v-.1Z"/>
          </g>
          <path class="cls-14" d="M73.79,35.91c-2.7-5-6.9-8.9-9.7-13.8-1.2-2.1-1-19.5-14-21.8-2.7-.5-5.6-.3-8.3.2-2.6.5-5.2.8-7.4,2.3-2.1,1.4-3.8,3.4-4.9,5.6-1.4,2.9-1.6,6.2-2.8,9.2-3.4,8-9.9,14.3-12.6,22.5-.2.6-.4,1.3-.6,1.9-.9,3.6.2,7.6,2,10.8,1-2.3.6-4.9,1.9-7.3.7,6.1,1.6,11.9,5.5,16.9,3.7,4.8,8.4,7.2,13.5,10.2-.4-.9-.7-1.7-.6-2.7,2,1.9,6,3.9,8.7,3.2,4.1-1.2,7.6-3.7,11.1-5.7,0,1-1.4,2.6-2,3.4,4.8-2.4,10.6-6.4,13.2-11.2,2.5-4.6,3-10.2,3.5-15.2,1.7,2.2,2,5.4,2.9,7.9,2.6-4.7,3-11.8.5-16.6v.2h.1Z"/>
          <g>
            <path class="cls-1" d="M84.29,143.11l-6.3,11.1s.4,3.5,5.3-3.4c0,0,2.2,6.9,1.6,11.8,0,1.1,0,2.3.8,3.3,1.1,1.3,2.9,1.9,5.5-3.5,0,0,3.1-6-2.3-15.5l-4.6-3.8h0Z"/>
            <path class="cls-5" d="M72.99,104.61h0c-3.5.3-6.6-2.2-6.9-5.5-2.1-12.1-3.3-23.4-3-33.5-.3-3.3,2.4-6.2,5.9-6.5h0c8.3,0,10,26,9.9,39,.3,3.3-2.4,6.2-5.9,6.5Z"/>
            <path class="cls-5" d="M88.29,145.91l-5.9,1-15.8-45.6c-1.2-3.4,1-7.1,4.8-7.8h0c3.5-.7,7,1.5,7.6,4.9l9.3,47.6h0v-.1Z"/>
          </g>
          <g>
            <path class="cls-1" d="M7.89,142.21l6.3,11.1s-.4,3.5-5.3-3.4c0,0-2.3,6.9-1.6,11.8,0,1.1,0,2.3-.9,3.3-1.1,1.3-2.9,1.9-5.5-3.5,0,0-3.1-6.1,2.3-15.5l4.7-3.8h0Z"/>
            <path class="cls-5" d="M19.59,103.61h0c3.5.3,6.6-2.2,6.9-5.5,2.1-12.1,3.3-23.4,3-33.5.3-3.3-2.4-6.2-5.9-6.5h0c-8.3,0-10,26-9.9,39-.3,3.3,2.4,6.2,5.9,6.5Z"/>
            <path class="cls-5" d="M4.39,144.91l5.9,1,15.8-45.6c1.2-3.4-1-7.1-4.8-7.8h0c-3.5-.7-7,1.5-7.6,4.9l-9.3,47.6h0s0-.1,0-.1Z"/>
          </g>
          <g>
            <path class="cls-2" d="M70.09,140.31l-24.1,14.8-26.8-11.9c1.8-11,7-22.6,10.6-29.8,2.3-4.5,4-7.3,4-7.3h22.8c1.3,2.1,2.7,4.6,3.9,7.3,5.5,11.9,9.6,26.9,9.6,26.9Z"/>
            <path class="cls-13" d="M69.79,59.41l-2.5,12.6c-.3,1.3-.6,2.7-.9,4.1-.3,1.5-.7,2.9-1.2,4.4l-6.2,21.5-.3.9-.9,3.2-.6,2.1h-22.7l-.6-2.1-.9-3.2-.6-2.2-5.6-19.5c-.5-1.7-.9-3.4-1.2-5.2-.3-1.7-.6-3.4-.8-5.1l-1.4-12.6,3.3-1.4,6.4-2.7,8.5-3.6h9.4l4.7,2.2,6.9,3.2,7.1,3.3h0l.1.1Z"/>
            <path class="cls-14" d="M33.89,106.11h0l-.9-3.2h26.3l-.9,3.2c1.4,2.1,2.8,4.6,4.2,7.3H29.69c2.4-4.5,4.3-7.3,4.3-7.3,0,0-.1,0-.1,0Z"/>
            <path class="cls-5" d="M25.79,114.81c3.2-5.9,2.8-13.4,3.1-19.1l-7-37.1,14.3-5.7h-.2v-.1l4.5,32.7c2,14.7,2.1,29.6.3,44.3l-1.9,15.5c-1.4,11.2-6.2,24.05-18.3,24.05l-.81-4.35"/>
            <path class="cls-5" d="M54.99,52.11l-4.5,32.7c-2,14.7-2.1,29.6-.3,44.3l1.9,15.5c1.4,11.2,6.79,24.94,18.89,24.94l.79-2.23c-1.3-19.5.12-40.81-6.58-53.21-3.2-5.9-2.9-12.7-3.1-19.1l8.3-35.5-15.5-7.3h0s.1-.1.1-.1Z"/>
          </g>
          <path class="cls-10" d="M41.79,55.71h0c1.7,3.2,6.2,3.1,7.8,0h0c.3-.6.5-1.3.5-2.1v-12.2h-9v12.1c0,.8.2,1.5.6,2.2h.1Z"/>
          <path class="cls-1" d="M63.39,27.31c-.7,1.3-1.9,2.2-3,2.5h-1c-.3,3.5-1.4,6.6-3,9.2-3,5-7.6,8.1-11,7.9h-.8c-2.8,0-5.9-1.6-8.5-4.5h0c-.8-.8-1.5-1.8-2.1-2.8-1.6-2.5-2.8-5.6-3.3-9.1h-.3c-1.1,0-2.4-1-3.2-2.3,0-.2-.2-.5-.3-.7,0-.3-.2-.7-.3-1h0c-.3-1.3,0-2.4,1-2.9h0c.8-.4,1.9,0,2.8.6.6-8.4,4.4-16,9.7-18.8,1.4-.8,2.8-1.2,4.4-1.2,2.3,0,4.4.7,6.4,2,4.5,3,7.8,10.4,8.5,17.9.4-.5.9-.9,1.4-1.1.7-.3,1.4-.4,2,0,1.3.6,1.5,2.6.5,4.5h0v-.2h.1Z"/>
          <g>
            <path class="cls-11" d="M54.89,24.01c-.2,0-.3,0-.4-.2-1.5-2.7-3.9-1.6-4-1.6-.2,0-.5,0-.7-.2,0-.2,0-.5.2-.7,1.2-.5,3.8-.9,5.3,2,0,.2,0,.5-.2.7h-.2Z"/>
            <path class="cls-11" d="M35.09,24.01c.2,0,.3,0,.4-.2,1.5-2.7,3.9-1.6,4-1.6.2,0,.5,0,.7-.2,0-.2,0-.5-.2-.7-1.2-.5-3.8-.9-5.3,2,0,.2,0,.5.2.7h.2,0Z"/>
            <path class="cls-11" d="M38.09,25.91c0,.9.6,1.8,1.3,1.8s1.4-.9,1.4-1.8-.6-1.8-1.3-1.8-1.4.9-1.4,1.8Z"/>
            <path class="cls-11" d="M49.99,25.91c0,.9.6,1.8,1.3,1.8s1.4-.9,1.4-1.8-.6-1.8-1.3-1.8-1.4.9-1.4,1.8Z"/>
            <path class="cls-3" d="M41.29,37.91c.2.2,1.3,2.7,4.3,2.6,2.9,0,4.1-2.3,4.3-2.6"/>
            <path class="cls-9" d="M47.59,32.81c0,1.2-.9,2.1-2.1,2.1s-2.1-.9-2.1-2.1.9,1.2,2.1,1.2,2.1-2.4,2.1-1.2Z"/>
            <path class="cls-6" d="M55.09,28.51c1.7,0,3.1,1.3,3,2.7s-1.6,2.5-3.4,2.4-3.1-1.3-3-2.7,1.6-2.5,3.4-2.4Z"/>
            <path class="cls-6" d="M35.59,28.51c1.7,0,3.1,1.3,3,2.7s-1.6,2.5-3.4,2.4-3.1-1.3-3-2.7,1.6-2.5,3.4-2.4Z"/>
          </g>
          <path class="cls-14" d="M61.69,22.91c0,2.6-1.4,13.5-4.7,16,1.5-6.9,2.3-17.1-.4-20.6-.9-1.2-3.7-3.4-3.5-5.1-4.1,5.3-12.4,6.6-14,6.8-2,.5-4.8.9-6.3,1.4-.5,5.1.4,15,.9,18-1.7-2.5-2.9-5.6-3.4-9.1,0,0-.4-2.7-.3-3.8-1.2.3-2.4.7-3.6.8h-.7c0-.3.2-.7.4-1h0c.2-.4.4-.7.6-1,.2-.6.4-1.2.5-1.9v-.4c.3-1.5.3-2.9.4-4.4.2-3,.5-6,1.9-8.7C32.59,4.11,39.49-.29,46.49.01c2.5.1,5,.9,7.1,2.2,4.3,2.7,7.4,7.5,8,12.4v8.2h0s.1.1.1.1Z"/>
          <g>
            <path class="cls-7" d="M64.83,55.24l-1.61-.14c-.84-.07-1.64.46-1.83,1.23-.76,3.05-2.42,10.86-2,19.8.05.97,1.09,1.56,2.1,1.2l1.67-.61c.64-.23,1.08-.79,1.11-1.4.15-2.94.67-11.73,1.87-18.5.14-.8-.45-1.51-1.31-1.58Z"/>
            <path class="cls-7" d="M33.9,53.74l-.74.18c-.59.14-1.06.6-1.2,1.2-.64,2.69-2.31,10.63-1.97,19.13.03.88.75,1.58,1.63,1.58h1.35c.91,0,1.64-.74,1.62-1.65-.06-3.14-.01-10.38,1.29-18.59.18-1.15-.86-2.11-1.98-1.84Z"/>
            <path class="cls-7" d="M16.7,214.45c.11-60.62,1.85-105.36,7.72-139.32.13-.77.8-1.34,1.58-1.35,16.57-.18,36.24,1.24,41.97,1.68.9.07,1.57.86,1.49,1.76-.62,6.94-2.66,35.18,1.97,67.74,4.15,29.16,8.37,57.9,9.29,64.14.11.74-.3,1.46-1,1.74-3.94,1.58-17.4,6.55-34.79,8.17-16.8,1.57-24.89-1.77-27.37-3.11-.53-.29-.87-.84-.86-1.45Z"/>
            <path class="cls-12" d="M70.51,124.63l.26,4.11s-24.64,5.09-52.16,2.18v-5.5s23.09,4.81,51.9-.79Z"/>
            <path class="cls-12" d="M56.93,135.67s-15.45,2.14-29.28,0c0,0-.8,9.62,0,19.27,0,0,7.21,8.97,14.11,9.85,6.9.87,16.72-9.85,16.72-9.85,0,0-1.35-8.44-1.54-19.27Z"/>
            <ellipse class="cls-4" cx="34.77" cy="82.54" rx="5.98" ry="3"/>
            <path class="cls-12" d="M65.11,128.23c2.59,21.47,6.63,42.82,10.44,64.1.92,5.12,1.84,10.23,2.88,15.33.05.26.45.15.4-.11-3.96-22.18-7.32-44.46-11.18-66.66-.74-4.24-1.48-8.47-2.35-12.68-.02-.11-.21-.09-.19.03h0Z"/>
            <path class="cls-12" d="M21.26,130.35c-.84,9.81-.99,19.72-1.34,29.56-.5,13.82-.97,27.65-1,41.48,0,3.97-.31,8.22.4,12.15.07.38.71.29.67-.09-.37-3.47-.23-7.06-.18-10.54.08-6.33.21-12.66.39-18.99.38-13.72.84-27.44,1.45-41.15.18-4.14.31-8.3.66-12.43.06-.68-1-.68-1.06,0h0Z"/>
            <path class="cls-12" d="M78.55,207.29c-13.08,4.58-26.74,7.57-40.65,7.52-6.21-.02-12.13-1.05-18.25-1.72-.39-.04-.49.64-.09.69,6.23.85,12.24,1.99,18.58,2.01,13.87.04,27.67-2.89,40.58-7.89.38-.15.22-.75-.17-.62h0Z"/>
            <path class="cls-12" d="M21.62,210.31c.51-3.54,1.1-7.21,1.38-10.77.03-.35-.46-.36-.57-.08-1.25,3.24-1.48,7.45-.91,10.85,0,.05.09.05.1,0h0Z"/>
            <path class="cls-12" d="M22.84,210.99c.56-.68.93-1.54,1.42-2.28.56-.82,1.14-1.59,1.65-2.45.06-.1-.06-.22-.16-.16-1.54.93-3.08,2.89-3.31,4.72-.02.19.27.31.39.16h0Z"/>
            <path class="cls-12" d="M23.42,212.77c1.48-.11,2.9-.52,4.39-.62,1.48-.1,2.98-.07,4.47-.01.33.01.41-.52.08-.59-2.85-.63-6.42-.7-9.1.62-.28.14-.15.63.16.6h0Z"/>
            <path class="cls-12" d="M62.13,94.93c.52,1.47,1.03,2.93,1.4,4.45.19.76.48,1.38.05,2.11-.57.97-.12.26-.93.66-1.42.71-2.35,1.48-2.49,3.21-.19,2.35.98,4.99,1.71,7.16.91,2.68,1.98,5.26,3.23,7.8.13.26.58.08.48-.2-1-2.59-1.97-5.2-2.86-7.83-.91-2.71-3.69-8.43.58-9.42,1.01-.24,1.54-.06,1.52-1.33-.03-2.22-1.24-4.86-2.22-6.82-.13-.26-.58-.08-.48.2h0Z"/>
            <path class="cls-12" d="M27.36,76.06c-.77,1.83-1.04,4.07-1.38,6.01-.65,3.7-1.23,7.41-1.75,11.13-1.53,11.02-2.44,22.19-2.65,33.31,0,.26.39.26.41,0,.62-11.21,1.55-22.36,3.01-33.49.49-3.72,1.04-7.43,1.66-11.13.31-1.86.83-3.93.78-5.82,0-.05-.06-.05-.08-.01h0Z"/>
          </g>
        </g>
      </g>
    </g>
  </g>
</svg>