<?xml version="1.0" encoding="UTF-8"?>
<svg id="Ebene_2" data-name="Ebene 2" xmlns="http://www.w3.org/2000/svg" viewBox="0 0 75.83 247.25">
  <defs>
    <style>
      .cls-1 {
        opacity: .6;
      }

      .cls-1, .cls-2, .cls-3 {
        isolation: isolate;
      }

      .cls-1, .cls-4 {
        fill: #9162a6;
      }

      .cls-5 {
        fill: #d9b6b6;
      }

      .cls-6 {
        fill: none;
        stroke: #630;
        stroke-linecap: round;
        stroke-miterlimit: 10;
      }

      .cls-7 {
        fill: #d9a2a0;
      }

      .cls-8 {
        fill: #d9baba;
      }

      .cls-2 {
        fill: #ec8ab9;
      }

      .cls-2, .cls-3 {
        opacity: .5;
      }

      .cls-9, .cls-3 {
        fill: #603813;
      }

      .cls-10 {
        fill: #8b2b0e;
      }

      .cls-11 {
        fill: #273758;
      }

      .cls-12 {
        fill: #51306d;
      }

      .cls-13 {
        fill: #c69696;
      }

      .cls-14 {
        fill: #524194;
      }

      .cls-15 {
        fill: #e6e6e6;
      }

      .cls-16 {
        fill: #3f6138;
      }
    </style>
  </defs>
  <g id="Layer_1" data-name="Layer 1">
    <g id="german-girl-front-cup">
      <g>
        <path class="cls-5" d="M35.84,167.93v1.2l-3.4,28.8-4.5,38.3h-5.8c-.6,0-1.9-19.6-1.9-38.3s.6-24.3,2.2-30c0-3.7,3-6.7,6.7-6.7s6,2.4,6.6,5.5v1.2h.1Z"/>
        <path class="cls-11" d="M29.24,242.33c0,1.2-.7,2.1-1.6,2.7s-22.7,2.4-23.3,2.2c-5-2.4,17.6-11.2,17.6-11.2l6.1.2s1.3,4.9,1.1,6.2h0l.1-.1Z"/>
        <path class="cls-5" d="M30.14,174.73h0c-3.8.4-7.2-2.2-8-5.9l-6.7-34.7c-.4-5.1,3.4-9.5,8.5-10h0c5.1-.4,9.5,3.4,10,8.5l2,34.2c.3,4-1.8,7.5-5.7,7.9h-.1Z"/>
      </g>
      <g>
        <path class="cls-5" d="M51.24,197.93c0,18.7-1.3,38.3-1.9,38.3h-5.8l-4.5-38.3-3.3-28.8v-2.4c.6-3.1,3.3-5.5,6.6-5.5s6.7,3,6.7,6.7c1.7,5.7,2.2,17.7,2.2,30h0Z"/>
        <path class="cls-11" d="M42.24,242.33c0,1.2.7,2.1,1.6,2.7s22.7,2.4,23.3,2.2c5-2.4-17.6-11.2-17.6-11.2l-6.1.2s-1.3,4.9-1.1,6.2h0c0-.1-.1-.1-.1-.1h0Z"/>
        <path class="cls-5" d="M41.44,174.73h0c3.8.4,7.2-2.2,8-5.9l6.7-34.7c.4-5.1-3.4-9.5-8.5-10h0c-5.1-.4-9.5,3.4-10,8.5l-2,34.2c-.3,4,1.8,7.5,5.7,7.9h.1Z"/>
      </g>
      <path class="cls-5" d="M52.34,96.93c-1.5,5.7-1.2,11.7.7,17.3.7,2.1,1.4,4.7,1.8,7.8.5,3,1.2,7.7,1.2,11.5l-18.9,7.5h-2.8l-18.9-7.2c0-5.2.7-12.8,2.1-17.6.4-1.4.9-2.8,1.4-4,2.5-5.4,3.5-11.4,2.5-17.3l-3.9-22.6-1.2-6.7,1.2-.7,15.7-9.9h9.1l14.2,9.8,1.1.7-1.1,6.5-4.1,25h0l-.1-.1Z"/>
      <path class="cls-15" d="M52.34,96.93c-1.5,5.7-1.2,11.7.7,17.3.7,2.1,1.4,4.7,1.8,7.8H17.54v-5.8c.4-1.4.9-2.8,1.4-4,2.5-5.4,3.5-11.4,2.5-17.3l-3.9-22.6-1.1-6.7,12.7-8,4.1-2.6h9.1l3.5,2.4,11.8,8.1-1.1,6.5-4.1,25h0l-.1-.1Z"/>
      <path class="cls-16" d="M20.84,108.53s-11.6,30-11.1,58.1c0,1.5.9,2.7,2.1,3.1,7.9,2.1,36.8,8.9,50.7-1.7.9-.7,1.3-1.9,1.2-3.1-1.1-8.2-5.6-40.7-11.9-56.3-10.2,4.3-20.5,4.1-31.1,0h.1v-.1Z"/>
      <g>
        <path class="cls-10" d="M61.34,38.13c0-4.7-2.2-8.3-4-12.1-.8-1.7-1.6-4.7-2.8-6-1.6-1.7-5.4-.9-7.4-1-7.4-.3-14.8.2-22.2,1.1-2.3.3-3.7-.6-4.6,2.7-.6,2.1-1,2.9-1,2.9-2.3,4-6.1,6.4-7.5,11.5-1.1,4.1-.6,9.2,1.8,12.1,0-1.6.2-3.7.5-5.1,1.6,1.2,2.7,3.6,4.3,5s3.4,2.6,5.2,3.3c.2-1.4-.3-3.3,0-4.5,1.3,3.2,4.5,4.6,6.9,6,0-1.9-.5-4.3,1.1-3.2.4.3,1,1.6,1.5,2s1.1.8,1.7,1.1c1.8,1.1,2.6,1.4,4.3,0,1.2-1.1,2.7-2.6,3.7-4,.6,1.2.3,3.2.3,4.6,2,0,4.4-2.4,5.7-4.3.3,1.1,0,2.3.3,3.4,2.6-.3,7.2-5.1,8.4-8,1.2,1.1,2.2,3.6,1.9,5.5,2.1-3.5,2.1-8.8,2.1-13.1h-.2v.1Z"/>
        <path class="cls-13" d="M37.74,58.63h0c-2.5,0-4.5-2-4.5-4.5v-6.7h9.1v6.7c0,2.5-2,4.5-4.5,4.5h-.1Z"/>
        <path class="cls-8" d="M59.64,29.13c-.9,1.5-2.3,2.5-3.7,2.8h-1.2c-.4,3.9-1.8,7.5-3.8,10.4-3.8,5.7-9.5,9.1-13.7,8.9h-1c-4.5,0-9.7-3.1-13.3-8.3-2-2.9-3.5-6.4-4.1-10.3h-.3c-1.4,0-2.9-1.1-3.9-2.6-.2-.3-.3-.5-.4-.8-.2-.4-.3-.7-.4-1.1h0c-.3-1.5,0-2.7,1.2-3.2h0c1-.4,2.3,0,3.5.7.9-11.9,8.3-22.4,17.5-22.6,2.8,0,5.5.8,7.9,2.3,2.3,1.4,4.3,3.6,6,6.3h0c2.4,3.9,4.1,8.9,4.6,13.9h0c.5-.5,1.1-.9,1.7-1.1.8-.4,1.7-.4,2.4,0,1.6.7,1.9,2.9.6,5.1l.4-.3h0v-.1Z"/>
        <path class="cls-10" d="M57.14,32.53c-.3-3.2-.8-8.7-1.1-11.2,0-.9,0-1.7-.2-2.6-.3-6.5-2.4-13.6-7.2-17.2-3.4-2.6-6.5-.4-10.2-1.2-7.1-1.4-15.4,1.7-19.2,8.4-2.3,4-2.7,8.7-1.9,13.2,0,0,.5,8.5.3,10.5-.3,3.4-1.2,9.6.9,12.6,1,1.4,4.1,3.7,5.6,4.5.3-2.2-1.7-4.2-2.1-6.3-.5-2.3-.3-4.8-.3-7.2,0-4.3-.4-8.5-.2-12.8v-1.3c0-.2.2-.3.3-.5,1.1-1.8,2.4-3.4,3.9-4.8,1.6-1.5,3.5-2.3,5.2-3.7,1.6,1.4,3.1,2.9,4.9,4,2.2,1.3,5.2,2.4,7.7,2.6-.3-.6-1-1.2-1.5-1.8-.2-.3-.4-.8-.6-1.1,1.3,1.5,3.5,2.7,5.1,3.8,1.5,1.1,3.4,1.6,5.1,2.2,0-.6-1.5-3.3-1.9-4.1.6.8,1.5,1.3,2,2.1.6.8,1,1.7,1.4,2.5h0c.2,4.4-.2,8.6-.2,12.9s.2,4.9-.3,7.2c-.5,2.1-2.5,4.1-2.1,6.3,1.5-.8,4.6-3.1,5.6-4.5,2.1-2.9,1.2-9.2.9-12.6h0l.1.1Z"/>
        <g>
          <path class="cls-9" d="M25.04,23.93c.2,0,.4,0,.5-.3,1.7-3.2,4.6-1.9,4.7-1.8.3,0,.6,0,.8-.3,0-.3,0-.6-.3-.8-1.4-.6-4.5-1-6.2,2.3,0,.3,0,.6.2.8h.3v.1Z"/>
          <path class="cls-9" d="M42.44,21.33s.3.2.5,0c2.8-1.1,4,1.3,4,1.4,0,.2.4.3.6.2.2,0,.3-.4.2-.6-.5-1.2-2.3-3.1-5.2-1.9-.2,0-.4.4-.3.6v.2h.2v.1Z"/>
          <path class="cls-9" d="M28.54,26.23c0,1.1.7,2.1,1.5,2.1s1.6-1,1.6-2.1-.7-2.1-1.5-2.1-1.6,1-1.6,2.1Z"/>
          <path class="cls-9" d="M42.44,26.23c0,1.1.7,2.1,1.5,2.1s1.6-1,1.6-2.1-.7-2.1-1.5-2.1-1.6,1-1.6,2.1Z"/>
          <path class="cls-6" d="M32.34,40.23c.2.2,1.5,3.1,5,3,3.4,0,4.8-2.7,5-3"/>
          <path class="cls-3" d="M39.74,34.23c0,1.4-1.1,2.5-2.5,2.5s-2.5-1.1-2.5-2.5,1.1,1.4,2.5,1.4,2.5-2.8,2.5-1.4Z"/>
          <path class="cls-7" d="M48.54,29.23c2,0,3.6,1.5,3.5,3.2s-1.9,2.9-3.9,2.8-3.6-1.5-3.5-3.2,1.9-2.9,3.9-2.8Z"/>
          <path class="cls-7" d="M25.74,29.23c2,0,3.6,1.5,3.5,3.2s-1.9,2.9-3.9,2.8-3.6-1.5-3.5-3.2,1.9-2.9,3.9-2.8Z"/>
        </g>
      </g>
      <g>
        <g>
          <path class="cls-4" d="M44.69,101.69h-21.7l3.06,22.58c0,.15.84.29,2.2.4.18.01.38.03.58.04,1.35.08,3.1.13,5.01.13,1.24,0,2.42-.02,3.46-.06,2.56-.09,4.33-.29,4.33-.51,0,0,0,0,0,0l3.06-22.58Z"/>
          <path class="cls-12" d="M33.84,124.92c-1.83,0-3.62-.05-5.02-.13-.2-.01-.39-.03-.58-.04-2.23-.17-2.27-.36-2.27-.47l-3.06-22.58s0-.04.02-.06c.01-.02.04-.03.06-.03h21.7s.04.01.06.03c.01.02.02.04.02.06l-3.06,22.57h0c0,.12-.1.25-1.27.39-.77.09-1.85.16-3.13.21-1.08.04-2.25.06-3.47.06ZM26.13,124.26s.27.19,2.13.33c.18.01.37.03.58.04,1.4.09,3.18.13,5.01.13,1.21,0,2.38-.02,3.46-.06,3.15-.11,4.15-.34,4.25-.44,0,0,0,0,0,0l3.05-22.49h-21.52l3.05,22.49Z"/>
        </g>
        <path class="cls-2" d="M25.64,101.69h-.57l.26,1.71,2.93,21.27c.18.01.38.03.58.04l-2.93-21.31-.26-1.71Z"/>
        <path class="cls-1" d="M44.76,101.48h-5.35l-.1.99-1.93,22.11c2.56-.09,4.33-.29,4.33-.51,0,0,0,0,0,0l3.06-22.58Z"/>
        <g>
          <path class="cls-4" d="M22.45,99.03h-.41s.46,3,.46,3c0,.44,5.28.8,11.34.8s11.32-.36,11.32-.8l.48-2.99h-23.19Z"/>
          <path class="cls-12" d="M33.84,102.91c-2.91,0-5.81-.09-7.95-.24-3.41-.24-3.47-.52-3.47-.64l-.46-3s0-.05.02-.06c.01-.02.03-.03.06-.03h.41s23.19.01,23.19.01c.02,0,.04.01.06.03.01.02.02.04.02.06l-.48,2.98c0,.12-.06.4-3.46.64-2.13.15-5.03.24-7.94.24ZM22.13,99.11l.44,2.91s0,0,0,.01c.17.34,4.84.73,11.27.73s11.07-.39,11.24-.73l.47-2.9h-23.1s-.32-.01-.32-.01Z"/>
        </g>
        <path class="cls-2" d="M24.2,99.03l.53,3.51c.18.02.38.03.58.04l-.53-3.56h-.57Z"/>
        <path class="cls-1" d="M40.24,99.04c-.2,1.22-.35,2.44-.44,3.67,3.17-.14,5.36-.39,5.36-.68l.48-2.99h-5.4Z"/>
        <g>
          <path class="cls-4" d="M45.64,99.03c0,.48-5.28.87-11.8.87s-11.8-.39-11.8-.87,5.28-.87,11.8-.87,11.8.39,11.8.87Z"/>
          <path class="cls-12" d="M33.84,99.97c-3.15,0-6.12-.09-8.35-.25-3.53-.26-3.53-.57-3.53-.69s0-.43,3.53-.69c2.23-.16,5.2-.25,8.35-.25s6.12.09,8.35.25c3.53.26,3.53.57,3.53.69s0,.43-3.53.69c-2.23.16-5.2.25-8.35.25ZM33.84,98.24c-3.09,0-6.02.09-8.23.25-3.29.23-3.48.51-3.49.55.01.02.21.3,3.49.54,2.21.16,5.14.25,8.23.25s6.02-.09,8.23-.25c3.29-.23,3.48-.51,3.49-.54-.01-.02-.21-.3-3.49-.54-2.21-.16-5.14-.25-8.23-.25Z"/>
        </g>
        <g>
          <path class="cls-14" d="M44.59,98.97c0,.32-4.85.57-10.82.57s-10.82-.26-10.82-.57,4.85-.57,10.82-.57c5.98,0,10.82.26,10.82.57Z"/>
          <path class="cls-12" d="M33.76,99.62c-2.89,0-5.61-.06-7.66-.17-3.24-.17-3.24-.37-3.24-.48s0-.31,3.24-.48c2.05-.11,4.77-.17,7.66-.17s5.61.06,7.66.17c3.24.17,3.24.37,3.24.48s0,.31-3.24.48c-2.05.11-4.77.17-7.66.17ZM23.05,98.97c.49.24,4.78.49,10.72.49s10.23-.25,10.72-.49c-.49-.24-4.78-.49-10.72-.49-5.94,0-10.23.25-10.72.49Z"/>
        </g>
      </g>
      <g>
        <path class="cls-5" d="M6.77,107.19h0c-3.96.61-7.27-3.1-6.71-7.3l5.03-26.15c.68-4.12,4.29-6.91,8.22-6.19h0c4.55.8,7.43,5.82,5.9,10.32l-7.95,25.33c-.67,2.18-2.51,3.68-4.59,4.01l.1-.02h0Z"/>
        <path class="cls-15" d="M10.51,65.42c-3.12,3.11-6.95,9.21-8.86,21.85l14.34,4.95s8.03-17.85,6.22-24.2c-1.23-4.4-8.29-5.83-11.79-2.49h0l.09-.11Z"/>
        <path class="cls-5" d="M8.6,98.5h0c1.21,1.04,1.95,2.33,1.88,4.11l-.14,31.36-7.49-.63L.28,103.75c-.35-4.51,4.87-7.68,8.41-5.04l-.15-.13h0l.06-.08Z"/>
        <path class="cls-5" d="M14.02,140.02l-3.89-9.56-7.2,2.19s-.05.19.15.24c-4.61,8.57-2.16,14.29-2.16,14.29,2.27,5.58,4.11,5.19,5.14,3.89.74-.95,1.02-2.12.79-3.31-.35-5.02,1.97-11.76,1.97-11.76,4.5,7.44,4.94,3.85,4.94,3.85l.29.07-.02.1Z"/>
      </g>
      <g>
        <path class="cls-5" d="M70.34,103.13h0c4-.2,6.5-4.5,5.1-8.5l-10.2-24.6c-1.5-3.9-5.6-5.9-9.3-4.4h0c-4.3,1.7-6.1,7.2-3.7,11.3l12.9,23.2c1.1,2,3.2,3.1,5.3,3h-.1Z"/>
        <path class="cls-15" d="M61.94,65.23c3.4,2.8,7.8,8.5,10.9,20.9l-13.8,6.3s-9.7-17-8.5-23.5c.8-4.5,7.7-6.6,11.5-3.6h0l-.1-.1Z"/>
        <path class="cls-5" d="M72.71,94.29h0c-1.4-.78-2.92-.71-4.43-.05l-28.32,13.34,3.79,6.56,27.92-10.13c4.27-1.52,4.98-7.53,1.13-9.67h0l-.09-.05Z"/>
        <path class="cls-5" d="M30.65,110.87l9.58-3.69,3.38,6.78s-.22.02-.35.08c-2.94,9.26-8.8,11.39-8.8,11.39-5.58,2.24-6.58.67-6.34-1.06.12-1.13.87-2.24,1.66-2.9,3.92-3.2,7.23-9.54,7.23-9.54-8.41,1.79-6.16-.99-6.16-.99l-.19-.07Z"/>
      </g>
    </g>
  </g>
</svg>