<?xml version="1.0" encoding="UTF-8"?>
<svg id="Ebene_2" data-name="Ebene 2" xmlns="http://www.w3.org/2000/svg" viewBox="0 0 105.62 298.72">
  <defs>
    <style>
      .cls-1 {
        fill: #d9a8a7;
      }

      .cls-2 {
        fill: #1d2d4e;
      }

      .cls-3 {
        fill: #344260;
      }

      .cls-4 {
        fill: #d9a2a0;
      }

      .cls-5, .cls-6 {
        isolation: isolate;
      }

      .cls-7 {
        fill: #ca8a8c;
      }

      .cls-8, .cls-6 {
        fill: #603813;
      }

      .cls-9 {
        fill: #faf0f5;
      }

      .cls-10 {
        fill: #543a35;
      }

      .cls-6 {
        opacity: .5;
      }
    </style>
  </defs>
  <g id="Ebene_1-2" data-name="Ebene 1">
    <g class="cls-5">
      <g id="Layer_1" data-name="Layer 1">
        <g id="german-woman-pointing">
          <g>
            <path class="cls-2" d="M55.59,216.81h0c-4.3,0-7.7-3.4-7.9-7.6l-1.8-64.4c0-6.9,5.7-12.6,12.6-12.6h0c6.9,0,12.6,5.7,12.6,12.6,2.2,21.6-1.1,46.3-8,66.7-1.1,3.2-4.1,5.3-7.5,5.3h0Z"/>
            <path class="cls-2" d="M53.49,286.61h-5.6v-74.9c0-4.5,3.2-8.1,7.2-8.1h0c3.6,0,6.6,2.9,7.1,6.8,3,21.9-.3,47.9-8.8,76.2h.1Z"/>
            <path class="cls-10" d="M53.49,286.51s22.4,10.1,17,12c-.6.2-20.1-2.7-20.6-3-1.1-.6-1.8-1.7-1.9-3v-5.9h5.5v-.1Z"/>
          </g>
          <g>
            <path class="cls-2" d="M34.59,217.01h0c4.3,0,7.7-3.4,7.9-7.6l1.8-64.4c0-6.9-5.7-12.6-12.6-12.6h0c-6.9,0-12.6,5.7-12.6,12.6-2.2,21.6,1.1,46.3,8,66.7,1.1,3.2,4.1,5.3,7.5,5.3h0Z"/>
            <path class="cls-2" d="M36.59,286.81h5.6v-74.9c0-4.5-3.2-8.1-7.2-8.1h0c-3.6,0-6.6,2.9-7.1,6.8-3,21.9.3,47.9,8.8,76.2h-.1Z"/>
            <path class="cls-10" d="M36.59,286.71s-22.4,10.1-17,12c.6.2,20.1-2.7,20.6-3,1.1-.6,1.8-1.7,1.9-3v-5.9h-5.5v-.1Z"/>
          </g>
          <path class="cls-10" d="M73.79,35.91c-2.7-5-6.9-8.9-9.7-13.8-1.2-2.1-1-19.5-14-21.8-2.7-.5-5.6-.3-8.3.2-2.6.5-5.2.8-7.4,2.3-2.1,1.4-3.8,3.4-4.9,5.6-1.4,2.9-1.6,6.2-2.8,9.2-3.4,8-9.9,14.3-12.6,22.5-.2.6-.4,1.3-.6,1.9-.9,3.6.2,7.6,2,10.8,1-2.3.6-4.9,1.9-7.3.7,6.1,1.6,11.9,5.5,16.9,3.7,4.8,8.4,7.2,13.5,10.2-.4-.9-.7-1.7-.6-2.7,2,1.9,6,3.9,8.7,3.2,4.1-1.2,7.6-3.7,11.1-5.7,0,1-1.4,2.6-2,3.4,4.8-2.4,10.6-6.4,13.2-11.2,2.5-4.6,3-10.2,3.5-15.2,1.7,2.2,2,5.4,2.9,7.9,2.6-4.7,3-11.8.5-16.6v.2h.1,0Z"/>
          <g>
            <path class="cls-1" d="M7.89,142.21l6.3,11.1s-.4,3.5-5.3-3.4c0,0-2.3,6.9-1.6,11.8,0,1.1,0,2.3-.9,3.3-1.1,1.3-2.9,1.9-5.5-3.5,0,0-3.1-6.1,2.3-15.5l4.7-3.8h0Z"/>
            <path class="cls-3" d="M19.59,103.61h0c3.5.3,6.6-2.2,6.9-5.5,2.1-12.1,3.3-23.4,3-33.5.3-3.3-2.4-6.2-5.9-6.5h0c-8.3,0-10,26-9.9,39-.3,3.3,2.4,6.2,5.9,6.5Z"/>
            <path class="cls-3" d="M4.39,144.91l5.9,1,15.8-45.6c1.2-3.4-1-7.1-4.8-7.8h0c-3.5-.7-7,1.5-7.6,4.9l-9.3,47.6h0v-.1h0Z"/>
          </g>
          <g>
            <path class="cls-2" d="M70.09,140.31l-24.1,14.8-26.8-11.9c1.8-11,7-22.6,10.6-29.8,2.3-4.5,4-7.3,4-7.3h22.8c1.3,2.1,2.7,4.6,3.9,7.3,5.5,11.9,9.6,26.9,9.6,26.9Z"/>
            <path class="cls-9" d="M69.79,59.41l-2.5,12.6c-.3,1.3-.6,2.7-.9,4.1-.3,1.5-.7,2.9-1.2,4.4l-6.2,21.5-.3.9-.9,3.2-.6,2.1h-22.7l-.6-2.1-.9-3.2-.6-2.2-5.6-19.5c-.5-1.7-.9-3.4-1.2-5.2-.3-1.7-.6-3.4-.8-5.1l-1.4-12.6,3.3-1.4,6.4-2.7,8.5-3.6h9.4l4.7,2.2,6.9,3.2,7.1,3.3h0l.1.1Z"/>
            <path class="cls-10" d="M33.89,106.11h0l-.9-3.2h26.3l-.9,3.2c1.4,2.1,2.8,4.6,4.2,7.3H29.69c2.4-4.5,4.3-7.3,4.3-7.3h-.1Z"/>
            <path class="cls-3" d="M35.99,52.81l4.5,32.7c2,14.7,2.1,29.6.3,44.3l-1.9,15.5c-1.4,11.2-11.6,19.7-23.7,19.7h-1.8c1.3-19.5,5.7-37.8,12.4-50.2,3.2-5.9,2.8-13.4,3.1-19.1l-7-37.1,14.3-5.7h-.2v-.1Z"/>
            <path class="cls-3" d="M54.99,52.11l-4.5,32.7c-2,14.7-2.1,29.6-.3,44.3l1.9,15.5c1.4,11.2,11.6,19.7,23.7,19.7h1.8c-1.3-19.5-5.7-37.8-12.4-50.2-3.2-5.9-2.9-12.7-3.1-19.1l8.3-35.5-15.5-7.3h0v-.1h.1Z"/>
          </g>
          <g>
            <path class="cls-1" d="M96.42,40.39l3.65-11.9c.22-.81,1-1.25,1.63-.98h0c.63.27.94,1.15.72,1.97l-2.58,8.44s2.12-1.91,3.06,1.05c0,0,3.37-1.67,2.62,2.67l-4.91,11.46-5.43-2.23s-2.45-13.39-.7-13.88c0,0,.46-1.33,2.03,3.4h-.09Z"/>
            <path class="cls-3" d="M76.69,104.11h0c3.5-1.1,5.8-4.8,4.8-8.2-2.8-12.8-6.1-24.7-10.3-34.5-1-3.3-3.4-4.3-6.9-3.2l-3.5,1.9c-8.2,3.2,2.6,26.9,7.8,39.8,1,3.3,4.7,5.2,8.3,4.1h0v.2h-.2v-.1Z"/>
            <path class="cls-3" d="M100.49,52.77l-5.31-2.23-25.54,44.32c-1.93,3.33-.74,7.56,2.73,9.11h0c3.18,1.42,7.04-.11,8.38-3.5l19.65-47.81h.1s0,.11,0,.11Z"/>
          </g>
          <path class="cls-7" d="M41.79,55.71h0c1.7,3.2,6.2,3.1,7.8,0h0c.3-.6.5-1.3.5-2.1v-12.2h-9v12.1c0,.8.2,1.5.6,2.2h.1Z"/>
          <path class="cls-1" d="M63.39,27.31c-.7,1.3-1.9,2.2-3,2.5h-1c-.3,3.5-1.4,6.6-3,9.2-3,5-7.6,8.1-11,7.9h-.8c-2.8,0-5.9-1.6-8.5-4.5h0c-.8-.8-1.5-1.8-2.1-2.8-1.6-2.5-2.8-5.6-3.3-9.1h-.3c-1.1,0-2.4-1-3.2-2.3,0-.2-.2-.5-.3-.7,0-.3-.2-.7-.3-1h0c-.3-1.3,0-2.4,1-2.9h0c.8-.4,1.9,0,2.8.6.6-8.4,4.4-16,9.7-18.8,1.4-.8,2.8-1.2,4.4-1.2,2.3,0,4.4.7,6.4,2,4.5,3,7.8,10.4,8.5,17.9.4-.5.9-.9,1.4-1.1.7-.3,1.4-.4,2,0,1.3.6,1.5,2.6.5,4.5h0v-.2h.1Z"/>
          <g>
            <path class="cls-8" d="M55.49,24.51c-.2,0-.4,0-.4-.3-1.5-2.8-4-1.7-4.1-1.6-.3,0-.5,0-.7-.3,0-.3,0-.5.3-.7,1.2-.5,4-.9,5.5,2,0,.3,0,.5-.2.7h-.3v.2h-.1Z"/>
            <path class="cls-8" d="M34.89,24.51c.2,0,.4,0,.4-.3,1.5-2.8,4-1.7,4.1-1.6.3,0,.5,0,.7-.3,0-.3,0-.5-.3-.7-1.2-.5-4-.9-5.5,2,0,.3,0,.5.2.7h.3v.2h.1Z"/>
            <path class="cls-8" d="M37.99,26.51c0,1,.6,1.8,1.3,1.8s1.4-.9,1.4-1.8-.6-1.8-1.3-1.8-1.4.9-1.4,1.8Z"/>
            <path class="cls-8" d="M50.19,26.51c0,1,.6,1.8,1.3,1.8s1.4-.9,1.4-1.8-.6-1.8-1.3-1.8-1.4.9-1.4,1.8Z"/>
            <path class="cls-6" d="M47.79,33.51c0,1.2-1,2.2-2.2,2.2s-2.2-1-2.2-2.2,1,1.2,2.2,1.2,2.2-2.5,2.2-1.2Z"/>
            <path class="cls-4" d="M55.59,29.01c1.8,0,3.2,1.3,3.1,2.8s-1.7,2.5-3.4,2.5-3.2-1.3-3.1-2.8,1.7-2.5,3.4-2.5Z"/>
            <path class="cls-4" d="M35.49,29.01c1.8,0,3.2,1.3,3.1,2.8s-1.7,2.5-3.4,2.5-3.2-1.3-3.1-2.8,1.7-2.5,3.4-2.5Z"/>
            <path class="cls-8" d="M48.59,40.91c0,1.7-1.3,3-3,3s-3-1.3-3-3,1.3-3,3-3,3,1.3,3,3Z"/>
          </g>
          <path class="cls-10" d="M61.69,22.91c0,2.6-1.4,13.5-4.7,16,1.5-6.9,2.3-17.1-.4-20.6-.9-1.2-3.7-3.4-3.5-5.1-4.1,5.3-12.4,6.6-14,6.8-2,.5-4.8.9-6.3,1.4-.5,5.1.4,15,.9,18-1.7-2.5-2.9-5.6-3.4-9.1,0,0-.4-2.7-.3-3.8-1.2.3-2.4.7-3.6.8h-.7c0-.3.2-.7.4-1h0c.2-.4.4-.7.6-1,.2-.6.4-1.2.5-1.9v-.4c.3-1.5.3-2.9.4-4.4.2-3,.5-6,1.9-8.7C32.59,4.11,39.49-.29,46.49.01c2.5.1,5,.9,7.1,2.2,4.3,2.7,7.4,7.5,8,12.4v8.2h0l.1.1Z"/>
        </g>
      </g>
    </g>
  </g>
</svg>