<?xml version="1.0" encoding="UTF-8"?>
<svg id="Ebene_2" data-name="Ebene 2" xmlns="http://www.w3.org/2000/svg" viewBox="0 0 64.24 247.24">
  <defs>
    <style>
      .cls-1 {
        fill: #d9b6b6;
      }

      .cls-2 {
        fill: none;
        stroke: #630;
        stroke-linecap: round;
        stroke-miterlimit: 10;
      }

      .cls-3 {
        fill: #d9a2a0;
      }

      .cls-4 {
        fill: #d9baba;
      }

      .cls-5, .cls-6 {
        fill: #603813;
      }

      .cls-7 {
        fill: #8b2b0e;
      }

      .cls-8 {
        fill: #273758;
      }

      .cls-9 {
        fill: #c69696;
      }

      .cls-6 {
        isolation: isolate;
        opacity: .5;
      }

      .cls-10 {
        fill: #e6e6e6;
      }

      .cls-11 {
        fill: #3f6138;
      }
    </style>
  </defs>
  <g id="Layer_1" data-name="Layer 1">
    <g id="german-girl-back-cup">
      <g>
        <path class="cls-1" d="M32.22,167.93v1.2l-3.4,28.8-4.5,38.3h-5.8c-.6,0-1.9-19.6-1.9-38.3s.6-24.3,2.2-30c0-3.7,3-6.7,6.7-6.7s6,2.4,6.6,5.5v1.2h.1Z"/>
        <path class="cls-8" d="M25.62,242.33c0,1.2-.7,2.1-1.6,2.7-.6.4-22.7,2.4-23.3,2.2-5-2.4,17.6-11.2,17.6-11.2l6.1.2s1.3,4.9,1.1,6.2h0c0-.1.1-.1.1-.1h0Z"/>
        <path class="cls-1" d="M26.52,174.73h0c-3.8.4-7.2-2.2-8-5.9l-6.7-34.7c-.4-5.1,3.4-9.5,8.5-10h0c5.1-.4,9.5,3.4,10,8.5l2,34.2c.3,4-1.8,7.5-5.7,7.9h-.1Z"/>
      </g>
      <g>
        <path class="cls-1" d="M47.62,197.93c0,18.7-1.3,38.3-1.9,38.3h-5.8l-4.5-38.3-3.3-28.8v-2.4c.6-3.1,3.3-5.5,6.6-5.5s6.7,3,6.7,6.7c1.7,5.7,2.2,17.7,2.2,30h0Z"/>
        <path class="cls-8" d="M38.62,242.33c0,1.2.7,2.1,1.6,2.7.6.4,22.7,2.4,23.3,2.2,5-2.4-17.6-11.2-17.6-11.2l-6.1.2s-1.3,4.9-1.1,6.2h-.1v-.1Z"/>
        <path class="cls-1" d="M37.82,174.73h0c3.8.4,7.2-2.2,8-5.9l6.7-34.7c.4-5.1-3.4-9.5-8.5-10h0c-5.1-.4-9.5,3.4-10,8.5l-2,34.2c-.3,4,1.8,7.5,5.7,7.9h.1Z"/>
      </g>
      <path class="cls-1" d="M48.72,96.93c-1.5,5.7-1.2,11.7.7,17.3.7,2.1,1.4,4.7,1.8,7.8.5,3,1.2,7.7,1.2,11.5l-18.9,7.5h-2.8l-18.9-7.2c0-5.2.7-12.8,2.1-17.6.4-1.4.9-2.8,1.4-4,2.5-5.4,3.5-11.4,2.5-17.3l-3.9-22.6-1.2-6.7,1.2-.7,15.7-9.9h9.1l14.2,9.8,1.1.7-1.1,6.5-4.1,25h0l-.1-.1Z"/>
      <g>
        <path class="cls-1" d="M52.19,97.3h0c-1.53.01-3.13.66-4.27,1.85l-22.45,23.13,5.92,3.61,23.2-20.42c3.56-3.17,2.04-8.24-2.45-8.26h0l.05.08Z"/>
        <path class="cls-1" d="M49.54,104.32h0c3.1,1.41,6.9-1.44,7.56-5.61l3.41-26.44c.67-4.17-1.58-7.6-5.05-7.87h0c-3.91-.23-7.76,4.01-7.8,8.76l-.19,25.74c-.08,2.25.35,4.59,1.97,5.38h0l.09.04Z"/>
        <path class="cls-10" d="M59.9,67.02c1.88,4.04,3.35,11.39,1.23,24.7l-14.37.9.32-5.4c-.85-8.82-1.01-16.7,1.57-21.03,2.41-4.19,9.18-3.52,11.31.96h0l-.05-.13Z"/>
        <path class="cls-1" d="M18.03,125.27l9.53-4.58,4.37,5.38-.39.09c-2.02,8.44-7.86,11.17-7.86,11.17-5.65,2.69-6.74,1.5-6.77-.03-.02-1.02.59-1.97,1.43-2.78,3.77-3.3,6.33-9.3,6.33-9.3-8.61,2.73-6.57-.08-6.57-.08h0c-.1.02-.08.12-.08.12h0Z"/>
      </g>
      <g>
        <path class="cls-1" d="M14.07,98.13h0c1.53.01,3.13.66,4.27,1.85l22.45,23.13-5.92,3.61-23.2-20.42c-3.56-3.17-2.04-8.24,2.45-8.26h0l-.05.08Z"/>
        <path class="cls-1" d="M16.73,105.15h0c-3.1,1.41-6.9-1.44-7.56-5.61l-3.41-26.44c-.67-4.17,1.58-7.6,5.05-7.87h0c3.91-.23,7.76,4.01,7.8,8.76l.19,25.74c.08,2.25-.35,4.59-1.97,5.38h0l-.09.04Z"/>
        <path class="cls-10" d="M6.37,67.85c-1.88,4.04-3.35,11.39-1.23,24.7l14.37.9-.32-5.4c.85-8.82,1.01-16.7-1.57-21.03-2.41-4.19-9.18-3.52-11.31.96h0l.05-.13Z"/>
        <path class="cls-1" d="M48.23,126.1l-9.53-4.58-4.37,5.38.39.09c2.02,8.44,7.86,11.17,7.86,11.17,5.65,2.69,6.74,1.5,6.77-.03.02-1.02-.59-1.97-1.43-2.78-3.77-3.3-6.33-9.3-6.33-9.3,8.61,2.73,6.57-.08,6.57-.08h0c.1.02.08.12.08.12h0Z"/>
      </g>
      <path class="cls-10" d="M48.72,96.93c-1.5,5.7-1.2,11.7.7,17.3.7,2.1,1.4,4.7,1.8,7.8H13.92v-5.8c.4-1.4.9-2.8,1.4-4,2.5-5.4,3.5-11.4,2.5-17.3l-3.9-22.6-1.1-6.7,12.7-8,4.1-2.6h9.1l3.5,2.4,11.8,8.1-1.1,6.5-4.1,25h0c0-.1-.1,0-.1,0v-.1Z"/>
      <path class="cls-11" d="M16.62,108.53s-11.8,30-11.3,58.1c0,1.5.9,2.7,2.1,3.1,8,2.1,37.4,8.9,51.5-1.7.9-.7,1.3-1.9,1.2-3.1-1.1-8.2-5.7-40.7-12.1-56.3-10.4,4.3-20.8,4.1-31.6,0h0c0-.1.2-.1.2-.1h0Z"/>
      <g>
        <path class="cls-9" d="M34.12,58.63h0c-2.5,0-4.5-2-4.5-4.5v-6.7h9.1v6.7c0,2.5-2,4.5-4.5,4.5h-.1Z"/>
        <path class="cls-4" d="M56.02,29.13c-.9,1.5-2.3,2.5-3.7,2.8h-1.2c-.4,3.9-1.8,7.5-3.8,10.4-3.8,5.7-9.5,9.1-13.7,8.9h-1c-4.5,0-9.7-3.1-13.3-8.3-2-2.9-3.5-6.4-4.1-10.3h-.3c-1.4,0-2.9-1.1-3.9-2.6-.2-.3-.3-.5-.4-.8-.2-.4-.3-.7-.4-1.1h0c-.3-1.5,0-2.7,1.2-3.2h0c1-.4,2.3,0,3.5.7.9-11.9,8.3-22.4,17.5-22.6,2.8,0,5.5.8,7.9,2.3,2.3,1.4,4.3,3.6,6,6.3h0c2.4,3.9,4.1,8.9,4.6,13.9h0c.5-.5,1.1-.9,1.7-1.1.8-.4,1.7-.4,2.4,0,1.6.7,1.9,2.9.6,5.1l.4-.3h0v-.1Z"/>
        <g>
          <path class="cls-5" d="M21.42,23.93c.2,0,.4,0,.5-.3,1.7-3.2,4.6-1.9,4.7-1.8.3,0,.6,0,.8-.3,0-.3,0-.6-.3-.8-1.4-.6-4.5-1-6.2,2.3,0,.3,0,.6.2.8h.3v.1Z"/>
          <path class="cls-5" d="M38.82,21.33s.3.2.5,0c2.8-1.1,4,1.3,4,1.4,0,.2.4.3.6.2.2,0,.3-.4.2-.6-.5-1.2-2.3-3.1-5.2-1.9-.2,0-.4.4-.3.6v.2h.2v.1Z"/>
          <path class="cls-5" d="M24.92,26.23c0,1.1.7,2.1,1.5,2.1s1.6-1,1.6-2.1-.7-2.1-1.5-2.1-1.6,1-1.6,2.1Z"/>
          <path class="cls-5" d="M38.82,26.23c0,1.1.7,2.1,1.5,2.1s1.6-1,1.6-2.1-.7-2.1-1.5-2.1-1.6,1-1.6,2.1Z"/>
          <path class="cls-2" d="M28.72,40.23c.2.2,1.5,3.1,5,3,3.4,0,4.8-2.7,5-3"/>
          <path class="cls-6" d="M36.12,34.23c0,1.4-1.1,2.5-2.5,2.5s-2.5-1.1-2.5-2.5,1.1,1.4,2.5,1.4,2.5-2.8,2.5-1.4Z"/>
          <path class="cls-3" d="M44.92,29.23c2,0,3.6,1.5,3.5,3.2s-1.9,2.9-3.9,2.8-3.6-1.5-3.5-3.2,1.9-2.9,3.9-2.8Z"/>
          <path class="cls-3" d="M22.12,29.23c2,0,3.6,1.5,3.5,3.2s-1.9,2.9-3.9,2.8-3.6-1.5-3.5-3.2,1.9-2.9,3.9-2.8Z"/>
        </g>
        <path class="cls-7" d="M57.72,38.13c0-4.7-2.2-8.3-4-12.1-.8-1.7-1.6-4.7-2.8-6-1.6-1.7-5.4-.9-7.4-1-7.4-.3-14.1-7.6-21.5-6.7-2.3.3-4.4,7.2-5.3,10.5-.6,2.1,2.7-7.5,2.7-7.5-2.3,4-9.8,16.8-11.2,21.9-1.1,4.1-.6,9.2,1.8,12.1,0-1.6.2-3.7.5-5.1,1.6,1.2,2.7,3.6,4.3,5s3.4,2.6,5.2,3.3c.2-1.4-.3-3.3,0-4.5,1.3,3.2,4.5,4.6,6.9,6,0-1.9-.5-4.3,1.1-3.2.4.3,1,1.6,1.5,2s1.1.8,1.7,1.1c1.8,1.1,2.6,1.4,4.3,0,1.2-1.1,2.7-2.6,3.7-4,.6,1.2.3,3.2.3,4.6,2,0,4.4-2.4,5.7-4.3.3,1.1,0,2.3.3,3.4,2.6-.3,7.2-5.1,8.4-8,1.2,1.1,2.2,3.6,1.9,5.5,2.1-3.5,2.1-8.8,2.1-13.1h-.2v.1Z"/>
        <path class="cls-7" d="M53.52,32.53c-.3-3.2-.8-8.7-1.1-11.2,0-.9,0-1.7-.2-2.6-.3-6.5-2.4-13.6-7.2-17.2-3.4-2.6-6.5-.4-10.2-1.2-7.1-1.4-15.4,1.7-19.2,8.4-2.3,4-2.7,8.7-1.9,13.2,0,0,.5,8.5.3,10.5-.3,3.4-1.2,9.6.9,12.6,1,1.4,4.1,3.7,5.6,4.5.3-2.2-1.7-4.2-2.1-6.3-.5-2.3-.3-4.8-.3-7.2,0-4.3-.4-8.5-.2-12.8v-1.3c0-.2.2-.3.3-.5,1.1-1.8,2.4-3.4,3.9-4.8,1.6-1.5,3.5-2.3,5.2-3.7,1.6,1.4,3.1,2.9,4.9,4,2.2,1.3,5.2,2.4,7.7,2.6-.3-.6-1-1.2-1.5-1.8-.2-.3-.4-.8-.6-1.1,1.3,1.5,3.5,2.7,5.1,3.8,1.5,1.1,3.4,1.6,5.1,2.2,0-.6-1.5-3.3-1.9-4.1.6.8,1.5,1.3,2,2.1.6.8,1,1.7,1.4,2.5h0c.2,4.4-.2,8.6-.2,12.9s.2,4.9-.3,7.2c-.5,2.1-2.5,4.1-2.1,6.3,1.5-.8,4.6-3.1,5.6-4.5,2.1-2.9,1.2-9.2.9-12.6h0l.1.1Z"/>
      </g>
    </g>
  </g>
</svg>