<?xml version="1.0" encoding="UTF-8"?>
<svg id="Ebene_2" data-name="Ebene 2" xmlns="http://www.w3.org/2000/svg" viewBox="0 0 277.48 539.39">
  <defs>
    <style>
      .cls-1 {
        fill: #ffebe0;
      }

      .cls-1, .cls-2, .cls-3, .cls-4, .cls-5, .cls-6, .cls-7 {
        stroke-linecap: round;
      }

      .cls-1, .cls-3, .cls-4, .cls-5, .cls-6, .cls-7 {
        stroke: #03403f;
        stroke-linejoin: round;
      }

      .cls-8 {
        fill: #d9b6b6;
      }

      .cls-2 {
        stroke: #630;
        stroke-miterlimit: 10;
      }

      .cls-2, .cls-4 {
        fill: none;
      }

      .cls-9 {
        fill: #caa1a2;
      }

      .cls-10 {
        fill: #d9a2a0;
      }

      .cls-3 {
        fill: #eaea57;
      }

      .cls-5 {
        fill: #cae85b;
      }

      .cls-6 {
        fill: #f25ca3;
      }

      .cls-11 {
        fill: #d38a17;
      }

      .cls-12 {
        fill: #d9baba;
      }

      .cls-13 {
        fill: #25591f;
        opacity: .4;
      }

      .cls-13, .cls-14 {
        isolation: isolate;
      }

      .cls-15, .cls-14 {
        fill: #603813;
      }

      .cls-16 {
        fill: #273758;
      }

      .cls-7 {
        fill: #048c3d;
      }

      .cls-17 {
        fill: #466e9f;
      }

      .cls-14 {
        opacity: .5;
      }

      .cls-18 {
        fill: #e6e6e6;
      }
    </style>
  </defs>
  <g id="Layer_1" data-name="Layer 1">
    <g id="german-boy-lemonade-down">
      <g>
        <path class="cls-8" d="M43.86,230.68h0c-7.44,0-12.55-8.72-10.42-17.66l15.53-55.73c2.13-8.93,9.57-13.83,16.59-11.49h0c8.08,2.77,12.12,14.46,8.3,24.25l-21.27,51.69c-1.7,4.47-4.47,8.93-8.51,8.93h-.21Z"/>
        <path class="cls-18" d="M54.28,147.3c-7.02,6.38-16.38,19.99-23.19,48.5l28.08,13.83,4.04-11.06c8.93-16.8,16.17-32.54,14.46-43.39-1.28-10.42-15.53-14.68-23.4-7.66h0v-.21Z"/>
        <g>
          <path id="hand12" class="cls-12" d="M237.21,241.74l12.34-.85c2.55,0,9.36.64,11.27,2.34,2.55,2.13-2.98,2.98-14.46,4.25l12.34,13.4s6.17,10-3.62,7.23c0,0,4.04,11.7-5.74,6.81,0,0,2.55,10.64-8.93,2.55l-10.21-8.72c-3.4-2.98-5.96-7.23-6.59-11.7s0-9.57,5.96-12.98c2.13-1.28,4.89-1.91,7.44-2.13h.21v-.21Z"/>
          <path class="cls-8" d="M160.42,214.51h0c3.19-1.06,6.81-1.06,10,0l63.81,28.93-9.15,11.91-63.18-22.76c-9.78-3.62-10.85-15.1-1.7-18.51h0v.43h.21Z"/>
        </g>
        <g>
          <path class="cls-5" d="M264.44,321.51c-.85-1.28-2.77-1.7-2.98-3.19v-2.55c-.43-1.06-3.62-5.11-4.68-6.59-12.76-19.36-8.3-14.25-25.31-29.35-7.44-6.59-16.38-33.18-25.53-52.97-1.7-3.83-4.04-9.57-.64-13.19,2.98-3.19,18.51-9.78,23.4-11.49,8.3-2.98,11.27,0,14.46,6.59,20.85,44.03,22.33,45.95,23.4,54.03,1.06,7.23-1.06,14.68.85,21.91,3.62,14.04,5.96,25.31,7.23,26.16,1.28-.43,1.7,1.06,1.91,2.34.64,5.11.85,3.62-1.7,4.68-3.4,1.49-7.02,2.34-10.21,3.83h-.21v-.21Z"/>
          <path class="cls-13" d="M215.94,208.98c18.51-8.72,21.48-9.15,26.16.43,20.85,43.82,22.12,45.95,23.19,53.6,1.06,7.02-1.06,14.46.85,21.91,4.47,17.02,5.96,25.53,7.66,26.8,1.28.85.85-1.49,1.7,3.62,0,1.06.43.43-1.06,1.28-2.98,1.28-5.96,3.4-9.15,4.68-.85-.85-2.34-2.55-2.55-3.19v-2.77c-.43-1.28-3.83-5.32-4.89-6.81-11.27-17.02-9.15-15.32-20.42-25.1-7.87-7.02-8.72-5.74-21.7-37.22-12.98-31.06-16.17-29.57.43-37.44h-.21v.21Z"/>
          <path class="cls-4" d="M276.57,317.47c-1.06,0-1.91,0-2.98.64-2.98,1.06-5.74,2.55-8.3,4.04"/>
          <path class="cls-7" d="M251.04,300.87c1.49,2.13,3.19,4.89,5.53,8.51.64,1.06,2.34,2.98,3.4,4.47,3.83-2.98,8.51-4.89,13.19-5.74-.85-3.19-2.13-8.51-3.83-15.1-6.59.64-13.19,3.62-18.29,7.87Z"/>
          <path class="cls-4" d="M259.55,273.22c-6.59-.64-12.98,2.55-17.87,6.81"/>
          <path class="cls-1" d="M251.68,254.08c-4.04,2.34-8.08,4.47-12.34,6.38-2.34,1.06-7.44,4.04-10,2.34-1.91-1.28-2.55-4.25-3.4-6.17-9.57-20.21-11.27-22.55-9.57-25.1,1.7-2.77,17.66-9.15,20.63-10.21s4.68-.85,6.17,3.19c11.06,27.01,14.25,26.38,8.51,29.57h0Z"/>
          <path class="cls-6" d="M224.88,227.49c5.32-2.55,11.06-4.68,12.34-5.11,2.34-.85,3.4-.85,4.68,2.55,3.62,8.93,6.38,14.89,8.3,18.93,1.7,3.83,2.77,5.96,2.98,7.23,0,.64,0,.85-2.13,2.13-3.19,1.91-6.59,3.83-10.42,5.53s-1.06.43-1.7.85h0s-.43,0-.64.43c0,0-.64,0-.85.43-1.28.64-5.32,2.55-7.02,1.49-1.06-.64-1.7-2.34-2.13-3.83,0-.64-.43-1.28-.85-1.91-1.28-2.77-2.55-5.11-3.4-7.23-6.17-12.76-7.23-15.1-6.17-16.59,0,0,1.06-1.28,7.66-4.47l-.43-.43h-.21Z"/>
          <path class="cls-4" d="M236.15,203.45c-2.55,0-4.47,2.13-6.17,3.83-3.83,4.04-8.93,7.02-14.68,7.66-1.7,0-3.4,0-5.11.64-1.7.43-3.4,1.49-4.04,2.98"/>
          <path class="cls-4" d="M271.67,312.79c-2.34,0-4.68,1.06-6.59,2.77"/>
          <path class="cls-4" d="M251.47,297.47c-2.34-4.89-5.96-9.36-10.64-12.55"/>
          <path class="cls-4" d="M236.36,279.6c-3.83-2.55-6.38-6.59-8.51-10.64-2.55-4.89-4.89-10-6.81-15.1"/>
          <path class="cls-4" d="M218.5,248.33c-3.83-7.23-7.02-14.89-9.57-22.55"/>
          <path class="cls-4" d="M221.05,219.19c-2.98,2.34-5.11,5.96-5.53,9.78"/>
          <path class="cls-4" d="M216.37,218.98c-1.28,1.7-2.55,3.4-3.4,5.53"/>
          <path class="cls-4" d="M259.55,301.72c-.64,2.13-.85,4.47-.64,6.81"/>
          <path class="cls-4" d="M257.42,300.24c-.43,1.06-.85,2.34-.85,3.62"/>
          <path class="cls-3" d="M235.43,250.04c.99,0,1.28-.64,1.13.64-.99.64-2.55.43-2.98,3.62v1.7c1.28-1.7,3.12-1.7,3.54-4.47.43,1.91.57,2.98.99,2.98s.71-1.06.43-2.34c-.28-1.06-.71-1.28-.99-2.55,7.65-4.25,5.67-18.72-1.7-17.66-10.77,1.49-8.08,19.14-.43,18.08h0Z"/>
          <path class="cls-4" d="M228.71,236c-1.28.43-2.13,1.49-2.55,2.55-.43,1.28-.64,2.55-.64,3.83"/>
          <path class="cls-4" d="M227.22,245.99c-.64-.64-1.06-1.28-1.28-2.13"/>
          <path class="cls-4" d="M222.54,232.17c-1.49,1.06-2.34,2.98-2.55,4.68"/>
          <path class="cls-4" d="M220.2,232.17c-1.06.85-1.7,2.13-1.7,3.62"/>
        </g>
      </g>
      <g>
        <path class="cls-8" d="M50.03,213.02h0c1.7,2.77,2.34,6.38,1.49,10l-16.59,67.86-13.61-6.59,10.85-66.15c1.7-10.21,12.76-13.19,18.08-4.89h0l-.21-.21Z"/>
        <path class="cls-8" d="M160.85,230.68h0c7.44,0,12.55-8.72,10.42-17.66l-15.53-55.73c-2.13-8.93-9.57-13.83-16.59-11.49h0c-8.08,2.77-12.12,14.46-8.3,24.25l21.27,51.69c1.7,4.47,4.47,8.93,8.51,8.93h.21Z"/>
        <path class="cls-18" d="M150,147.3c7.02,6.38,16.38,19.99,23.19,48.5l-28.08,13.83-4.04-11.06c-8.93-16.8-16.17-32.54-14.46-43.39,1.28-10.42,15.53-14.68,23.4-7.66h0v-.21Z"/>
        <path class="cls-8" d="M29.61,311.51l5.32-22.33-13.61-6.59v.85c-16.8,8.3-19.99,21.91-19.99,21.91-3.19,13.19,0,14.89,3.4,14.25,2.13-.43,4.04-2.13,5.32-4.25,5.32-9.57,16.59-17.87,16.59-17.87-1.7,19.36,3.4,14.04,3.4,14.04h-.43,0Z"/>
      </g>
      <g>
        <path class="cls-8" d="M141.92,433.39c-2.77,40.63-8.51,82.53-9.78,82.53l-12.55-.85-4.04-83.6-3.19-62.75v-2.55c0-.85,0-1.7.43-2.55,1.7-6.59,7.87-11.7,14.89-10.85,8.08.64,13.83,7.44,13.61,15.53,2.77,12.55,2.13,38.71.43,65.3h0l.21-.21Z"/>
        <path class="cls-18" d="M137.66,480.4c-2.34,20.63-4.47,35.52-5.53,35.52l-12.55-.85-1.7-34.67h19.78Z"/>
        <path class="cls-16" d="M115.97,528.69c0,2.55,1.49,4.47,3.62,5.96,1.28.85,49.35,5.32,50.63,4.68,10.85-5.32-38.29-24.25-38.29-24.25l-13.19.43s-2.77,10.64-2.34,13.61h0v-.43h-.43Z"/>
        <g>
          <path class="cls-8" d="M143.62,286.62l-1.7,59.13-.43,17.87c0,8.3-6.59,14.89-14.89,15.53-8.72.43-14.25-6.17-14.89-14.89l-1.91-18.29-5.96-55.73v-1.7c0-10.42,8.08-19.14,18.51-19.99,11.06-.85,20.85,7.44,21.7,18.51h0v-.43h-.43Z"/>
          <path class="cls-17" d="M143.62,286.62l.85,57.01c0,1.28-.85,2.13-2.13,2.13h-36.37c-1.28,0-2.13-.85-2.13-2.13l-.43-53.6v-1.7c0-10.42,8.08-19.14,18.51-19.99,11.06-.85,20.85,7.44,21.7,18.51h0v-.21Z"/>
        </g>
      </g>
      <g>
        <path class="cls-8" d="M58.32,433.39c2.77,40.63,8.51,82.53,9.78,82.53l12.55-.85,4.04-83.6,3.19-62.75v-2.55c0-.85,0-1.7-.43-2.55-1.7-6.59-7.87-11.7-14.89-10.85-8.08.64-14.04,7.44-13.61,15.53-2.77,12.55-2.13,38.71-.43,65.3h0l-.21-.21Z"/>
        <path class="cls-18" d="M81.93,480.4l-1.7,34.67-12.55.85c-.85,0-3.19-14.89-5.53-35.52h19.78Z"/>
        <path class="cls-16" d="M83.64,528.69c0,2.55-1.49,4.47-3.62,5.96-1.28.85-49.35,5.32-50.63,4.68-10.85-5.32,38.29-24.25,38.29-24.25l13.19.43s2.77,10.64,2.34,13.61h0v-.43h.43Z"/>
        <g>
          <path class="cls-8" d="M96.19,288.32v1.49l-5.32,55.94-1.7,18.08c-.64,8.72-6.38,15.53-14.89,15.1-8.3-.43-14.68-6.81-15.1-15.1l-.64-17.87-2.34-58.92c.85-11.06,10.42-19.14,21.27-18.72,10.64.64,18.72,9.57,18.72,19.99h0Z"/>
          <path class="cls-17" d="M96.19,288.32v1.49l-1.7,54.03c0,1.28-.85,1.91-1.91,1.91h-35.31c-1.28,0-1.91-.85-1.91-1.91l.85-57.01c.85-11.06,10.42-19.14,21.27-18.72,10.64.64,18.72,9.57,18.72,19.99h0v.21Z"/>
        </g>
      </g>
      <path class="cls-18" d="M146.81,144.96l-2.34,14.04-8.93,54.24c-2.13,8.51-2.55,17.02-1.28,25.53h-68.07c3.4-9.78,4.04-19.99,2.34-30.21l-8.51-49.14-2.55-14.46,2.55-1.49,34.25-21.7h19.78l30.84,21.27,2.34,1.49h0v.43h-.43Z"/>
      <path class="cls-17" d="M143.41,292.58l-37.86,16.38h-11.49l-37.86-15.95c-1.28-10.85.64-27.23,3.62-37.86.85-3.19,1.91-6.17,3.19-8.72,1.28-2.34,2.13-4.68,2.77-7.44h68.07c.64,4.04,1.49,8.08,2.77,11.7,1.49,4.47,3.19,10.21,4.04,16.8,1.28,6.38,3.62,16.38,2.34,24.89h.43v.21Z"/>
      <path class="cls-17" d="M121.29,127.3h0c-5.32,17.23-29.35,18.08-35.74,1.28v-.64l8.93-5.74h19.78l7.66,5.32h-.64v-.21Z"/>
      <g id="german-boy-smiling2">
        <path class="cls-9" d="M93.85,127.73h0c4.04,5.53,14.68,5.32,18.29,0h0c.85-1.06,1.06-2.34,1.06-3.62v-21.06h-20.85v20.85c0,1.28.43,2.55,1.28,3.83h.21Z"/>
        <path class="cls-12" d="M149.58,70.29c-1.91,2.98-4.89,5.32-7.66,5.74h-2.34c-.85,8.08-3.62,15.53-7.87,21.48-7.87,11.7-19.57,18.93-28.29,18.51h-1.91c-9.36,0-19.99-6.59-27.44-17.23-4.04-5.96-7.23-13.19-8.51-21.27h-.64c-2.77,0-6.17-2.34-8.08-5.53-.43-.43-.64-1.06-.85-1.49-.43-.85-.64-1.49-.85-2.13h0c-.64-2.98,0-5.74,2.34-6.81h0c2.13-.85,4.89,0,7.23,1.49,1.7-24.67,17.23-46.37,36.16-46.8,5.96,0,11.27,1.49,16.38,4.47,11.49,7.23,19.99,24.46,21.91,41.69,1.06-1.06,2.34-1.91,3.62-2.55s3.4-.85,5.11,0c3.4,1.28,3.83,6.17,1.28,10.42h.43Z"/>
        <g>
          <path class="cls-15" d="M76.62,57.11c.43,0,.85,0,1.06-.64,3.62-7.02,10-4.04,10.21-3.83.64,0,1.28,0,1.7-.64,0-.64,0-1.28-.64-1.7-2.98-1.28-9.78-2.13-13.4,5.11,0,.64,0,1.28.43,1.7h.64Z"/>
          <path class="cls-15" d="M114.48,51.58s.64.43,1.06,0c6.17-2.34,8.72,2.77,8.72,2.98,0,.43.85.64,1.28.43.43,0,.64-.85.43-1.28-1.06-2.55-5.11-6.81-11.27-4.04-.43,0-.85.85-.64,1.28v.43h.43v.21Z"/>
          <path class="cls-15" d="M84.27,62.21c0,2.34,1.49,4.47,3.19,4.47s3.4-2.13,3.4-4.47-1.49-4.47-3.19-4.47-3.4,2.13-3.4,4.47Z"/>
          <path class="cls-15" d="M114.48,62.21c0,2.34,1.49,4.47,3.19,4.47s3.4-2.13,3.4-4.47-1.49-4.47-3.19-4.47-3.4,2.13-3.4,4.47Z"/>
          <path class="cls-2" d="M92.36,92.63c.43.43,3.19,6.81,10.85,6.59,7.44,0,10.42-5.96,10.85-6.59"/>
          <path class="cls-14" d="M108.74,79.65c0,2.98-2.34,5.53-5.53,5.53s-5.53-2.34-5.53-5.53,2.34,2.98,5.53,2.98,5.53-6.17,5.53-2.98Z"/>
          <path class="cls-10" d="M127.88,68.81c4.25,0,7.87,3.19,7.66,7.02s-4.04,6.38-8.51,6.17c-4.47-.21-7.87-3.19-7.66-7.02s4.04-6.38,8.51-6.17Z"/>
          <path class="cls-10" d="M78.11,68.81c4.25,0,7.87,3.19,7.66,7.02-.21,3.83-4.04,6.38-8.51,6.17-4.47-.21-7.87-3.19-7.66-7.02s4.04-6.38,8.51-6.17Z"/>
        </g>
        <path class="cls-11" d="M145.53,32.01c-3.4-11.7-10.42-21.91-21.91-27.65C114.27-.11,83.21-7.56,65.98,20.52c-7.02,11.27-8.51,25.74-8.51,38.71s1.91,22.33,8.93,31.27c1.06,1.28,2.34,2.55,3.62,3.62,0,0-1.49-7.87-2.55-11.06-3.4-11.49-2.98-25.1.64-36.59.64-1.7,1.28-3.19,1.91-5.11,0-.85,2.34-4.89,2.13-5.53,3.62,8.93,15.95,12.34,24.67,13.83-1.49-2.34-4.04-3.62-5.53-6.38-1.49-2.55-2.34-5.53-3.19-8.08,10.42,3.83,21.27,11.27,33.4,10.64-2.55-2.55-9.57-7.87-9.36-12.12,2.55,3.62,7.23,4.89,11.27,6.38,2.55.85,5.53,1.49,8.08,2.34,2.13.64,2.13.43,2.77,2.34,3.83,12.98,5.74,28.72,2.55,42.12.64-3.19,6.17-9.57,7.23-12.55,1.28-3.62,2.34-7.44,3.19-11.27,1.49-7.66,1.49-15.74.43-23.19-.43-2.77-1.06-5.74-1.7-8.3h-.43v.43h0Z"/>
      </g>
    </g>
  </g>
</svg>