<?xml version="1.0" encoding="UTF-8"?>
<svg id="Layer_2" data-name="Layer 2" xmlns="http://www.w3.org/2000/svg" viewBox="0 0 56.75 247.43">
  <defs>
    <style>
      .cls-1 {
        fill: #603813;
      }

      .cls-2 {
        fill: #273758;
      }

      .cls-3 {
        fill: #e6e6e6;
      }

      .cls-4 {
        fill: #c69696;
      }

      .cls-5 {
        fill: #d9a2a0;
      }

      .cls-6 {
        isolation: isolate;
        opacity: .5;
      }

      .cls-6, .cls-7 {
        fill: #d9baba;
      }

      .cls-8 {
        fill: #d9b6b6;
      }

      .cls-9 {
        fill: #466e9f;
      }

      .cls-10 {
        fill: none;
        stroke: #630;
        stroke-linecap: round;
        stroke-miterlimit: 10;
      }

      .cls-11 {
        fill: #d38a17;
      }
    </style>
  </defs>
  <g id="Layer_1-2" data-name="Layer 1">
    <g id="german-boy-left-waving">
      <path class="cls-3" d="M16.91,106.93c.4-20,5-33.2,8.7-40.6.5-.9.9-1.8,1.4-2.6,1.7-3,4.3-5.3,7.5-6.6l4.2-1.7.9-.4c10.2,13.4,4.3,45,2.9,51.9-.2.9-.3,1.3-.3,1.3.3.6.7,1.1,1,1.6h-26.3v-3h0v.1Z"/>
      <path class="cls-9" d="M43.21,109.93c11.4,20.1-1,32.8-1,32.8h0l-19.8,8.9h0c-3.9-16.2-5.4-30-5.4-41.7h26.3-.1Z"/>
      <g>
        <g>
          <path class="cls-8" d="M18.41,190.83c1.2,18.7,3.7,38.1,4.3,38.1l5.8-.4,2-38.5,1.5-28.9v-1.2c0-.4,0-.8-.2-1.2-.7-3.1-3.6-5.3-6.9-5.1-3.3.2-6,2.9-6.2,6.1,0,.9-.2,1.7-.3,2.6-1,6.2-.7,17.2,0,28.5h0Z"/>
          <path class="cls-3" d="M20.11,211.43c1.1,10.1,2.2,17.6,2.5,17.6h5.7l.9-17.6h-9.2.1Z"/>
        </g>
        <path class="cls-2" d="M29.51,235.93c0,.6-.4,1.6-.9,2.4-.5,1-1.5,1.6-2.6,1.6H4.41c-4.9-2.6,18.2-10.9,18.2-10.9h5.7s1.3,5.8,1.1,7h0l.1-.1Z"/>
        <g>
          <path class="cls-8" d="M25.11,166.53h0c-3.8-.4-6.6-3.6-6.5-7.5l.8-35.3c.7-5.1,5.3-8.6,10.4-7.9h0c5.1.7,8.6,5.3,7.9,10.4l-5.3,33.8c-.5,3.9-3.4,6.9-7.3,6.5h0Z"/>
          <path class="cls-9" d="M17.31,156.53h23.7v-29.9c0-6.6-5.3-11.9-11.9-11.9h0c-6.6,0-11.9,5.3-11.9,11.9v29.9h.1Z"/>
        </g>
      </g>
      <g>
        <g>
          <path class="cls-8" d="M24.51,198.33c1.2,18.7,3.7,38.1,4.3,38.1l5.8-.4,2-38.5,1.5-28.9v-1.2c0-.4,0-.8-.2-1.2-.7-3.1-3.6-5.3-6.9-5.1-3.3.2-6,2.9-6.2,6.1,0,.9-.2,1.7-.3,2.6-1,6.2-.7,17.2,0,28.5h0Z"/>
          <path class="cls-3" d="M26.21,218.93c1.1,10.1,2.2,17.6,2.5,17.6h5.7l.9-17.6h-9.2.1Z"/>
        </g>
        <path class="cls-2" d="M35.61,243.43c0,.6-.4,1.6-.9,2.4-.5,1-1.5,1.6-2.6,1.6H10.51c-4.9-2.6,18.2-10.9,18.2-10.9h5.7s1.3,5.8,1.1,7h0l.1-.1Z"/>
        <g>
          <path class="cls-8" d="M31.21,174.03h0c-3.8-.4-6.6-3.6-6.5-7.5l.8-35.3c.7-5.1,5.3-8.6,10.4-7.9h0c5.1.7,8.6,5.3,7.9,10.4l-5.3,33.8c-.5,3.9-3.4,6.9-7.3,6.5h0Z"/>
          <path class="cls-9" d="M23.41,164.03h23.7v-29.9c0-6.6-5.3-11.9-11.9-11.9h0c-6.6,0-11.9,5.3-11.9,11.9v29.9h.1Z"/>
        </g>
      </g>
      <rect class="cls-4" x="31.05" y="47.58" width="8.6" height="14.9" transform="translate(-6.97 5.16) rotate(-7.6)"/>
      <path class="cls-7" d="M11.61,32.23c.2,0,.4,0,.6-.2.2,0,.3-.2.4-.3v-2.9c0-10.5,4.9-19.5,11.9-22.8,1.9-.9,3.8-1.4,5.9-1.4,9.8,0,17.8,10.8,17.8,24.2s-8,24.2-17.8,24.2-.5,0-.8,0c-6.3-.4-11.8-5.2-14.7-12.3-.2-.4-.3-.8-.5-1.2-.4-1-.7-2.1-1-3.2h-.8c-1.2,0-1.9-.9-2.1-1.8-.2-1,.3-2,1.3-2.4h-.2v.1h0Z"/>
      <path class="cls-6" d="M29.41,52.93h.8c9.8,0,17.8-10.8,17.8-24.2S40.01,4.53,30.21,4.53s-4.1.5-5.9,1.4c5.2,10,16.9,35,5.1,47h0Z"/>
      <g>
        <path class="cls-10" d="M22.31,41.43c-.2.2-1.5,3.1-5,3"/>
        <path class="cls-1" d="M23.41,26.93c-.2,0-.4,0-.5-.3-1.7-3.2-4.6-1.9-4.7-1.8-.3,0-.6,0-.8-.3,0-.3,0-.6.3-.8,1.4-.6,4.5-1,6.2,2.3,0,.3,0,.6-.2.8h-.3v.1Z"/>
        <path class="cls-1" d="M19.91,29.23c0,1.1-.7,2.1-1.5,2.1s-1.6-1-1.6-2.1.7-2.1,1.5-2.1,1.6,1,1.6,2.1Z"/>
        <path class="cls-5" d="M25.51,31.73c-2,0-3.6,1.5-3.5,3.2s1.9,2.9,3.9,2.8,3.6-1.5,3.5-3.2-1.9-2.9-3.9-2.8Z"/>
      </g>
      <path class="cls-11" d="M9.71,10.13c2-4.2,5.5-6.2,9.7-7.4C25.01,1.13,30.01-.47,35.91.13c9.5,1,16.9,8.6,19.1,16.2,5.7,19.8-4.3,26-5.7,27.6-.7.9-10.3,6-10.3,6,.3.6-.3-3.9-.2-4.6.3-2.5-.8-10.9-1.1-15.6,0-1.4-1.2-2.6-2.6-2.7-3.5,0-8.3-2.2-9.8-3.8.7,1.5,2.1,2.9,3.2,4.2-3.8-1.6-7-5.4-9.7-8.2.4,1.8-.2,3.7.6,5.4-2.4-2.3-3.1-5.5-4.4-8.3-.6,1.5-.8,3.3-1.2,4.9-.6,2.4-1.6,5.1-3.1,7.1-1.4-2.8-3.4-12.8-.8-18.1h-.2v-.1Z"/>
      <path class="cls-7" d="M35.51,31.63c-1.1,2.7-.3,5.7,1.9,6.6s4.9-.6,6-3.3.3-5.7-1.9-6.6-4.9.6-6,3.3Z"/>
      <path class="cls-6" d="M35.51,31.63c-1.1,2.7-.3,5.7,1.9,6.6s4.9-.6,6-3.3.3-5.7-1.9-6.6-4.9.6-6,3.3Z"/>
      <g>
        <g>
          <path class="cls-8" d="M22.78,108.26h0c-1.34-.36-2.64-1.31-3.39-2.48l-14.78-25.54,6.08-1.88,16.07,23.26c2.43,3.63,0,7.8-3.95,6.77h0l-.02-.14Z"/>
          <path class="cls-8" d="M0,72.3l4.95,8.32,6.08-1.88-.32-.24c2.77-7.52-.24-12.56-.24-12.56-2.98-4.9-4.36-4.55-5.18-3.41s-.58,1.81-.34,2.84c1.2,4.47.17,10.28.17,10.28C-.06,69.16.08,72.36.08,72.36H.08l-.08-.06Z"/>
        </g>
        <path class="cls-8" d="M22.92,107.44h0c2.67,2.74,7.86.33,10.17-4.62l13.95-31.6c2.32-4.95,1.36-9.93-2.24-11.22h0c-4.06-1.61-9.71,2.57-11.7,8.48l-10.28,31.81c-1.05,2.65-1.49,5.83.05,7.28h0l.05-.12Z"/>
        <path class="cls-3" d="M48.52,64.13c.72,4.88.04,13.31-6.71,26.95l-15.8-3.73,2.03-5.72c1.94-9.75,4.37-18.33,8.43-22.16,4.02-3.72,10.97-.84,11.8,4.68l.21.08.04-.1Z"/>
      </g>
      <path class="cls-9" d="M25.61,66.33c6.7-1.4,15.7-8.6,15.7-8.6-.6-1-1.1-1.9-1.7-2.7l-5.2,2.2c-3.2,1.3-5.8,3.6-7.5,6.6-.4.8-.9,1.6-1.4,2.6h.1v-.1Z"/>
    </g>
  </g>
</svg>