<?xml version="1.0" encoding="UTF-8"?>
<svg id="Ebene_2" data-name="Ebene 2" xmlns="http://www.w3.org/2000/svg" viewBox="0 0 257.22 523.09">
  <defs>
    <style>
      .cls-1 {
        fill: #ffebe0;
      }

      .cls-1, .cls-2, .cls-3, .cls-4, .cls-5 {
        stroke-linecap: round;
      }

      .cls-1, .cls-2, .cls-4, .cls-5 {
        stroke: #03403f;
        stroke-linejoin: round;
      }

      .cls-6 {
        fill: #d9b6b6;
      }

      .cls-2 {
        fill: #fcf351;
      }

      .cls-3 {
        stroke: #630;
        stroke-miterlimit: 10;
      }

      .cls-3, .cls-4 {
        fill: none;
      }

      .cls-7 {
        opacity: .2;
      }

      .cls-7, .cls-8 {
        fill: #fff;
      }

      .cls-7, .cls-8, .cls-9 {
        isolation: isolate;
      }

      .cls-10 {
        fill: #caa1a2;
      }

      .cls-8 {
        opacity: .4;
      }

      .cls-11 {
        fill: #d9a2a0;
      }

      .cls-12 {
        fill: #d38a17;
      }

      .cls-13 {
        fill: #d9baba;
      }

      .cls-5 {
        fill: #e3e3ff;
      }

      .cls-14, .cls-9 {
        fill: #603813;
      }

      .cls-15 {
        fill: #273758;
      }

      .cls-16 {
        fill: #466e9f;
      }

      .cls-9 {
        opacity: .5;
      }

      .cls-17 {
        fill: #e6e6e6;
      }
    </style>
  </defs>
  <g id="Layer_1" data-name="Layer 1">
    <g id="german-boy-lemonade-glass">
      <g>
        <path class="cls-6" d="M42.25,223.75h0c-7.09,0-12.26-8.43-10.15-17.04l14.94-54c2.11-8.81,9.19-13.4,16.09-11.11h0c7.85,2.68,11.68,13.98,8.04,23.55l-20.68,50.17c-1.53,4.4-4.4,8.81-8.23,8.81h0v-.38h0Z"/>
        <path class="cls-17" d="M52.39,142.94c-6.89,6.13-15.89,19.34-22.6,46.92l27.19,13.4,3.83-10.72c8.81-16.28,15.7-31.6,13.98-42.13-1.15-10.15-14.94-14.17-22.79-7.28h.38v-.19Z"/>
        <g>
          <path id="hand13" class="cls-13" d="M231.83,236.96l12.06-.77c2.49,0,9,.57,10.92,2.3,2.49,2.11-2.87,2.87-13.98,4.02l12.06,13.02s5.94,9.77-3.64,7.09c0,0,4.02,11.3-5.55,6.51,0,0,2.49,10.34-8.62,2.3l-9.96-8.43c-3.26-2.87-5.74-6.89-6.51-11.3-.77-4.4,0-9.38,5.74-12.45,2.11-1.34,4.79-1.72,7.28-2.11h0l.19-.19Z"/>
          <path class="cls-6" d="M157.34,210.54h0c3.06-1.15,6.7-1.15,9.57,0l61.85,27.96-8.81,11.68-61.28-22.02c-9.38-3.64-10.53-14.55-1.72-18h0v.38h.38Z"/>
          <g>
            <path class="cls-1" d="M229.53,278.9c-3.26-.38-11.87-.77-12.26-5.36,0-2.68,3.45-3.26,7.66-4.4,1.53-3.26,1.53,0,1.15-7.28-.38-7.09-11.68-13.21-11.11-31.6,0-3.45.57-5.55,2.49-19.15.77-5.94-.57-9.19,5.36-9.19,29.87.57,31.98,1.15,31.98,1.34.77.57,1.15,12.64,1.15,13.79,0,5.55,1.72,15.89,0,23.75-1.91,9.96-8.04,15.89-9.57,18-1.72,2.68-2.3,8.62.96,10.15,2.3,1.15,4.4,1.15,5.55,3.83,3.06,6.7-13.79,7.85-23.36,6.51v-.38h0Z"/>
            <path class="cls-5" d="M227.04,260.13v1.53c.38,8.04,0,4.4-1.53,8.43-4.6,1.34-7.47,1.91-7.28,3.45.57,6.13,36.77,6.7,33.32-.57-1.53-3.45-6.32-1.53-7.85-6.89-.38-1.72-.38-3.83,0-5.74-2.87.77-5.94,1.53-9,1.53s-5.74-.38-8.23-1.72h.57Z"/>
            <path class="cls-4" d="M219,272.39c3.64,4.98,29.87,5.55,32.94.57"/>
            <path class="cls-4" d="M225.7,270.09c5.17,2.11,12.26,3.45,19.72,0"/>
            <path class="cls-4" d="M234.7,269.52c2.87.96,6.13.77,8.81-.57"/>
            <path class="cls-4" d="M237.19,267.99c1.53.77,3.45.38,4.79-.77"/>
            <path class="cls-2" d="M246.58,256.3c12.06-14.75,8.23-23.94,7.85-39.45v-3.06c-11.49,1.34-22.98,2.3-34.09-.38-.77,0-1.34-.38-2.11-.57-1.72,12.26-2.11,14.17-2.11,17.43-.57,16.85,9.19,22.98,10.92,30.07,2.49,1.34,5.55,1.72,8.23,1.72s5.94-.77,9-1.53c0-.96.57-1.72,1.15-2.49.38-.38.77-.96,1.34-1.53h0l-.19-.19Z"/>
            <path class="cls-4" d="M228.19,258.6c5.36,2.49,10.34,2.11,15.13.77"/>
            <path class="cls-4" d="M252.32,222.22c0,6.13,0,12.26-.96,18.19s-3.64,11.87-8.04,16.28"/>
            <path class="cls-4" d="M251.94,215.9v3.06"/>
            <path class="cls-8" d="M239.68,263.39h-4.98c-1.34,0-5.36-.77-4.79,0,1.91,2.87,7.85,2.87,10.15.77.38-.38,0-.96-.38-.96h0v.19Z"/>
            <path class="cls-8" d="M229.15,267.79c-.38.38.77,1.53,1.53,1.34.96-.38-1.15-1.72-1.53-1.34Z"/>
            <path class="cls-8" d="M235.85,273.35c-2.49-.77-5.55,0-11.87-1.34,0,0-.38.38,0,.38.96.57,1.72,1.34,2.87,1.72,2.3.96,6.89,1.91,9.38.77.77-.38.57-1.34,0-1.53h-.38Z"/>
            <path class="cls-7" d="M230.3,253.05c-3.26-8.62-6.51-15.7-5.94-25.85,0-3.26.96-5.74.96-6.7s-.38-1.53-.38-2.3c0-1.15-1.72-1.53-2.49-.77-1.34,1.53-1.72,1.34-2.3,4.4-4.02,22.21,11.49,34.47,10.15,31.02h0v.19Z"/>
            <path class="cls-7" d="M247.34,218.2c-3.26-2.11-7.28-1.15-13.6-.38,0,0-4.6.38-4.02,1.15,3.45,5.17,21.64,1.72,17.43-.77h.19Z"/>
            <path class="cls-4" d="M218.81,202.88c2.3.77,5.55.96,7.85,1.15,8.23,0,16.28.38,24.51.77,1.34,0,2.68-.38,3.64-1.34"/>
          </g>
        </g>
      </g>
      <g>
        <path class="cls-6" d="M48.37,206.71h0c1.53,2.68,2.3,6.13,1.34,9.57l-16.09,65.88-13.02-6.51,10.53-64.15c1.53-9.96,12.45-12.83,17.43-4.79h-.19Z"/>
        <path class="cls-6" d="M155.8,223.75h0c7.09,0,12.26-8.43,10.15-17.04l-14.94-54c-2.11-8.81-9.19-13.4-16.09-11.11h0c-7.85,2.68-11.68,13.98-8.04,23.55l20.68,50.17c1.53,4.4,4.4,8.81,8.23,8.81h0v-.38h0Z"/>
        <path class="cls-17" d="M145.46,142.94c6.89,6.13,15.89,19.34,22.6,46.92l-27.19,13.4-3.83-10.72c-8.81-16.28-15.7-31.6-13.98-42.13,1.15-10.15,14.94-14.17,22.79-7.28h-.38v-.19Z"/>
        <path class="cls-6" d="M28.65,302.26l4.98-21.64-13.02-6.51v.96c-16.28,8.04-19.34,21.26-19.34,21.26-3.06,12.83,0,14.55,3.26,13.79,2.11-.38,3.83-2.11,4.98-4.21,4.98-9.19,16.09-17.23,16.09-17.23-1.53,18.96,3.26,13.6,3.26,13.6h-.19Z"/>
      </g>
      <g>
        <path class="cls-6" d="M137.61,420.42c-2.68,39.26-8.23,80.05-9.38,80.05l-12.26-.96-3.83-81-3.06-60.71v-2.49c0-.96,0-1.53.38-2.49,1.53-6.51,7.66-11.3,14.55-10.53,7.85.77,13.4,7.09,13.02,14.94,2.68,12.26,2.11,37.53.38,63.19h.19Z"/>
        <path class="cls-17" d="M133.4,466c-2.3,20.11-4.4,34.47-5.36,34.47l-12.26-.96-1.53-33.51h19.15Z"/>
        <path class="cls-15" d="M112.33,512.72c0,2.49,1.34,4.4,3.45,5.74,1.15.96,47.87,4.98,49.02,4.6,10.53-4.98-36.96-23.55-36.96-23.55l-12.83.38s-2.68,10.34-2.3,13.02h0v-.38h-.38v.19Z"/>
        <g>
          <path class="cls-6" d="M139.14,278.14l-1.53,57.26-.38,17.23c0,8.04-6.51,14.55-14.55,14.94-8.43.38-13.79-5.94-14.55-14.55l-1.91-17.81-5.74-54v-1.53c0-10.15,7.85-18.58,18-19.34,10.72-.96,20.3,7.09,20.87,18h-.19v-.19Z"/>
          <path class="cls-16" d="M139.14,278.14l.96,55.15c0,1.15-.96,2.11-2.11,2.11h-35.24c-1.15,0-2.11-.96-2.11-2.11l-.38-52.09v-1.53c0-10.15,7.85-18.58,18-19.34,10.72-.96,20.3,7.09,20.87,18h0v-.19h0Z"/>
        </g>
      </g>
      <g>
        <path class="cls-6" d="M56.42,420.42c2.68,39.26,8.23,80.05,9.38,80.05l12.26-.96,3.83-81,3.06-60.71v-2.49c0-.96,0-1.53-.38-2.49-1.53-6.51-7.66-11.3-14.55-10.53-7.85.77-13.6,7.09-13.02,14.94-2.68,12.26-2.11,37.53-.38,63.19h-.19Z"/>
        <path class="cls-17" d="M79.4,466l-1.53,33.51-12.26.96c-.96,0-3.06-14.55-5.36-34.47h19.15Z"/>
        <path class="cls-15" d="M80.93,512.72c0,2.49-1.34,4.4-3.45,5.74-1.15.96-47.87,4.98-49.02,4.6-10.53-4.98,36.96-23.55,36.96-23.55l12.83.38s2.68,10.34,2.3,13.02h0v-.38h.38v.19Z"/>
        <g>
          <path class="cls-6" d="M93.18,279.67v1.34l-4.98,54.39-1.53,17.43c-.77,8.43-6.13,14.94-14.55,14.75-8.04-.38-14.17-6.7-14.75-14.75l-.77-17.23-2.3-57.07c.96-10.72,10.15-18.58,20.68-18.19,10.34.77,18.19,9.19,18.19,19.34h0Z"/>
          <path class="cls-16" d="M93.18,279.67v1.34l-1.53,52.47c0,1.15-.96,1.91-1.91,1.91h-34.28c-1.15,0-1.91-.96-1.91-1.91l.96-55.15c.96-10.72,10.15-18.58,20.68-18.19,10.34.77,18.19,9.19,18.19,19.34h0l-.19.19Z"/>
        </g>
      </g>
      <path class="cls-17" d="M142.21,140.64l-2.3,13.6-8.81,52.66c-2.11,8.23-2.49,16.66-1.15,24.89H63.88c3.26-9.38,3.83-19.34,2.3-29.3l-8.23-47.68-2.49-13.98,2.49-1.34,33.13-20.87h19.15l29.87,20.68,2.3,1.34h-.19Z"/>
      <path class="cls-16" d="M138.95,283.88l-36.77,15.89h-11.11l-36.77-15.32c-1.15-10.53.77-26.43,3.45-36.77.96-3.06,1.91-5.94,3.06-8.43,1.15-2.3,2.11-4.6,2.68-7.09h66.07c.77,3.83,1.34,7.85,2.68,11.3,1.34,4.4,3.06,9.96,3.83,16.28,1.15,6.13,3.45,15.89,2.3,24.13h.57Z"/>
      <path class="cls-16" d="M117.5,123.6h0c-4.98,16.85-28.53,17.43-34.66,1.15v-.77l8.81-5.55h19.15l7.28,4.98h-.57v.19Z"/>
      <g id="german-boy-smiling3">
        <path class="cls-10" d="M91.27,124.36h0c4.02,5.36,14.17,5.17,17.81,0h0c.77-1.15,1.15-2.11,1.15-3.45v-20.49h-20.3v20.3c0,1.34.38,2.49,1.34,3.83h0v-.19Z"/>
        <path class="cls-13" d="M145.46,68.44c-1.91,2.87-4.6,5.17-7.47,5.55h-2.3c-.77,7.85-3.64,14.94-7.66,20.87-7.66,11.49-18.96,18.38-27.58,18h-1.91c-9,0-19.53-6.32-26.62-16.66-4.02-5.74-6.89-12.83-8.23-20.68h-.57c-2.68,0-5.94-2.3-7.85-5.36-.38-.38-.57-1.15-.77-1.53-.38-.77-.57-1.53-.77-2.11h0c-.57-2.87,0-5.55,2.3-6.51h0c2.11-.77,4.6,0,6.89,1.53,1.72-23.94,16.66-45,35.04-45.39,5.74,0,10.92,1.53,15.89,4.4,11.3,6.89,19.53,23.75,21.45,40.6,1.15-1.15,2.3-1.91,3.64-2.49s3.45-.77,4.79,0c3.45,1.34,3.83,5.94,1.34,10.15h.38v-.38Z"/>
        <g>
          <path class="cls-14" d="M74.61,55.8c.38,0,.77,0,1.15-.57,3.64-6.7,9.77-4.02,9.96-3.83.57,0,1.34,0,1.72-.57,0-.57,0-1.34-.57-1.72-2.87-1.34-9.57-2.11-13.02,4.79,0,.57,0,1.34.38,1.72h.57-.19v.19Z"/>
          <path class="cls-14" d="M111.38,50.25s.57.38,1.15,0c5.94-2.3,8.43,2.68,8.43,2.87,0,.38.77.57,1.34.38.38,0,.57-.77.38-1.34-1.15-2.49-4.79-6.51-10.92-4.02-.38,0-.77.77-.57,1.34v.38h.38l-.19.38h0Z"/>
          <path class="cls-14" d="M82.08,60.59c0,2.3,1.53,4.4,3.26,4.4s3.45-2.11,3.45-4.4-1.53-4.4-3.26-4.4-3.45,2.11-3.45,4.4Z"/>
          <path class="cls-14" d="M111.38,60.59c0,2.3,1.53,4.4,3.26,4.4s3.45-2.11,3.45-4.4-1.53-4.4-3.26-4.4-3.45,2.11-3.45,4.4Z"/>
          <path class="cls-3" d="M89.74,90.27c.38.38,3.26,6.51,10.53,6.32,7.28,0,10.15-5.74,10.53-6.32"/>
          <path class="cls-9" d="M105.63,77.44c0,2.87-2.3,5.36-5.36,5.36s-5.36-2.3-5.36-5.36,2.3,2.87,5.36,2.87,5.36-5.94,5.36-2.87Z"/>
          <path class="cls-11" d="M124.21,66.91c4.21,0,7.66,3.26,7.47,6.7,0,3.64-4.02,6.13-8.23,5.94s-7.66-3.26-7.47-6.7,4.02-6.13,8.23-5.94Z"/>
          <path class="cls-11" d="M76.14,66.91c4.21,0,7.66,3.26,7.47,6.7s-4.02,6.13-8.23,5.94-7.66-3.26-7.47-6.7,4.02-6.13,8.23-5.94Z"/>
        </g>
        <path class="cls-12" d="M141.44,31.1c-3.45-11.49-10.15-21.45-21.45-26.81C110.99-.11,80.74-7.39,63.88,19.99c-6.7,10.92-8.23,24.89-8.23,37.73s1.91,21.83,8.62,30.45c1.15,1.34,2.3,2.49,3.64,3.64,0,0-1.53-7.66-2.49-10.72-3.45-11.3-2.87-24.32.57-35.62.57-1.72,1.34-3.26,1.91-4.79,0-.77,2.3-4.6,2.11-5.36,3.64,8.62,15.51,12.06,23.94,13.6-1.53-2.3-4.02-3.64-5.36-6.13-1.53-2.49-2.3-5.36-3.26-7.85,10.15,3.83,20.68,10.92,32.36,10.34-2.49-2.49-9.38-7.66-9-11.87,2.49,3.64,6.89,4.6,10.92,6.13,2.49.77,5.36,1.53,7.85,2.3,2.11.57,2.11.38,2.68,2.3,3.83,12.64,5.55,27.96,2.49,40.98.57-3.26,5.94-9.38,6.89-12.26,1.34-3.64,2.3-7.28,3.26-10.92,1.53-7.47,1.53-15.32.38-22.6-.38-2.68-1.15-5.55-1.72-8.04h-.38.38v-.19Z"/>
      </g>
    </g>
  </g>
</svg>