<?xml version="1.0" encoding="UTF-8"?>
<svg id="Ebene_2" data-name="Ebene 2" xmlns="http://www.w3.org/2000/svg" viewBox="0 0 69.14 246.98">
  <defs>
    <style>
      .cls-1 {
        fill: #d9b6b6;
      }

      .cls-2 {
        fill: none;
        stroke: #630;
        stroke-linecap: round;
        stroke-miterlimit: 10;
      }

      .cls-3 {
        fill: #d9a2a0;
      }

      .cls-4, .cls-5 {
        fill: #d9baba;
      }

      .cls-4, .cls-6 {
        isolation: isolate;
        opacity: .5;
      }

      .cls-7 {
        fill: #d38a17;
      }

      .cls-8, .cls-6 {
        fill: #603813;
      }

      .cls-9 {
        fill: #273758;
      }

      .cls-10 {
        fill: #466e9f;
      }

      .cls-11 {
        fill: #c69696;
      }

      .cls-12 {
        fill: #e6e6e6;
      }
    </style>
  </defs>
  <g id="Layer_1" data-name="Layer 1">
    <g id="german-boy-slightleft-standing">
      <g>
        <path class="cls-1" d="M21.58,90.68h0c.9,1.3,1.4,2.9,1.2,4.5l-4.3,32-6.5-2.4,1.6-30.9c.2-4.7,5.3-6.7,8-3.2h0Z"/>
        <path class="cls-1" d="M19.38,99.08h0c-3.4.5-6.2-3.4-5.7-7.5l4.3-26.4c.6-4.2,3.7-6.8,7-6h0c3.8.9,6.3,6,5,10.6l-7.1,24.7c-.6,2.1-1.6,4.4-3.4,4.6h-.1,0Z"/>
        <path class="cls-12" d="M20.08,60.48c-3,3.3-6.6,9.9-8.2,23.3l13.5,4.9,1.2-5.2c3.3-8.2,5.8-15.7,4.6-20.7-1.2-4.7-7.8-6-11.1-2.3h0Z"/>
        <path class="cls-1" d="M17.18,137.08l1.2-10.5-6.5-2.4v.4c-7.3,4.6-8.1,11.1-8.1,11.1-.8,6.2.8,6.9,2.2,6.4,1-.3,1.8-1.2,2.1-2.2,1.9-4.6,6.8-8.9,6.8-8.9.2,9,2.1,6.2,2.1,6.2h.2v-.1h0Z"/>
      </g>
      <path class="cls-12" d="M17.68,107.48c.8-8.1,1.3-16.3,1.7-24.4l.4-9.2c.3-6.3,1.7-16.6,10-16,2.5-1.2,5.3-3.3,5.3-3.3l9.1-.3,2.5,2.3,6.8,3.5c2.5,2.3,2.1,7.3,1.5,10.6l-5.3,29.7c-.3,1.8-.5,3.6-.6,5.5-.3,0-.6.2-.8.4-10.2,3.8-20.3,4.3-30.3,1.3h-.3v-.1h0Z"/>
      <g>
        <g>
          <path class="cls-1" d="M32.48,197.88c1.2,18.7,3.7,38.1,4.3,38.1l5.8-.4,2-38.5,1.5-28.9v-1.2c0-.4,0-.8-.2-1.2-.7-3.1-3.6-5.3-6.9-5.1-3.3.2-6,2.9-6.2,6.1,0,.9-.2,1.7-.3,2.6-1,6.2-.7,17.2,0,28.5h0Z"/>
          <path class="cls-12" d="M34.28,218.48c1.1,10.1,2.2,17.6,2.6,17.6h5.7l.9-17.6h-9.2Z"/>
        </g>
        <path class="cls-9" d="M43.68,242.98c0,.6-.4,1.6-.9,2.4-.5,1-1.5,1.6-2.6,1.6h-21.6c-4.9-2.6,18.2-10.9,18.2-10.9h5.7s1.3,5.8,1.1,7h.1v-.1h0Z"/>
        <g>
          <path class="cls-1" d="M39.28,173.58h0c-3.8-.4-6.6-3.6-6.5-7.5l.8-35.3c.7-5.1,5.3-8.6,10.4-7.9h0c5.1.7,8.6,5.3,7.9,10.4l-5.3,33.8c-.5,3.9-3.4,6.9-7.3,6.5h0Z"/>
          <path class="cls-10" d="M31.98,163.08l19.2.5.8-32c.1-5.1-3.9-9.4-9.1-9.5h-.5c-5.1-.1-9.4,3.9-9.5,9l-.8,32h-.1,0Z"/>
        </g>
      </g>
      <g>
        <g>
          <path class="cls-1" d="M14.68,197.88c1.2,18.7,3.7,38.1,4.3,38.1l5.8-.4,2-38.5,1.5-28.9v-1.2c0-.4,0-.8-.2-1.2-.7-3.1-3.6-5.3-6.9-5.1s-6,2.9-6.2,6.1c0,.9-.2,1.7-.3,2.6-1,6.2-.7,17.2,0,28.5h0Z"/>
          <path class="cls-12" d="M16.38,218.48c1.1,10.1,2.2,17.6,2.5,17.6h5.7l.9-17.6h-9.2.1Z"/>
        </g>
        <path class="cls-9" d="M25.78,242.98c0,.6-.4,1.6-.9,2.4-.5,1-1.5,1.6-2.6,1.6H.68c-4.9-2.6,18.2-10.9,18.2-10.9h5.7s1.3,5.8,1.1,7h.1v-.1h0Z"/>
        <g>
          <path class="cls-1" d="M21.38,173.58h0c-3.8-.4-6.6-3.6-6.5-7.5l.8-35.3c.7-5.1,5.3-8.6,10.4-7.9h0c5.1.7,8.6,5.3,7.9,10.4l-5.3,33.8c-.5,3.9-3.4,6.9-7.3,6.5h0Z"/>
          <path class="cls-10" d="M10.68,160.18l18.9,2.6,4.4-31.5c.7-5.2-2.9-10-8.1-10.8h0c-5.2-.7-10,2.9-10.8,8.1l-4.4,31.5h0s0,.05,0,0v.1h0Z"/>
        </g>
      </g>
      <path class="cls-10" d="M15.98,134.98v-4.1c-.1-.8,0,0-.1-.2v-9.9c.3-2.3.6-4.6,1-6.8.1-1.5.3-3,.4-4.4,0-.6.2-1.2.2-1.8,10.1,3.1,21,2.3,31.2-1.6v1.5c-.2,4.4.4,8.8,1.7,13,.8,2.4,1.3,5.1,1.6,7.6.6,6.8-.9,11.9-.9,11.9h0l-17.9,6.8-.9.3h-.4c0,.1-16-6.6-16-6.6,0-1.5-.2-2.9-.3-4.3v-1.3h.7-.3s0-.05,0,0v-.1h0Z"/>
      <g>
        <path class="cls-1" d="M53.38,91.78h0c-1,1.1-1.5,2.9-1.3,4.4l2.9,32.1,6.6-2.1-.3-30.9c0-4.7-4.9-6.9-7.8-3.5h-.1,0Z"/>
        <path class="cls-1" d="M55.18,100.28h0c3.3.7,6.4-3,5.9-7.3l-3-26.5c-.3-4.2-3.3-7-6.7-6.4h0c-3.9.7-6.5,5.7-5.4,10.4l6.1,25c.5,2.2,1.5,4.5,3.3,4.8h-.2Z"/>
        <path class="cls-12" d="M56.28,61.58c2.8,3.4,6.1,10.2,7.2,23.7l-13.8,4.4-1-5.3c-3-8.3-5.1-15.9-3.6-20.8,1.3-4.6,8-5.7,11.1-1.9h.1s0-.05,0,0v-.1h0Z"/>
        <path class="cls-1" d="M55.68,138.28l-.8-10.6,6.6-2.1v.4c7.2,4.9,7.6,11.4,7.6,11.4.4,6.3-1.2,6.8-2.5,6.3-.9-.4-1.6-1.2-2.1-2.3-1.8-4.6-6.4-9.3-6.4-9.3-.6,9-2.4,6.2-2.4,6.2h0Z"/>
      </g>
      <path class="cls-10" d="M31.28,59.58c0,4,4.3,6.7,8,4.9,3.7-1.7,6.1-5.2,7.4-8l-2.5-2.3-9.1.3s-1.6,1.1-3.7,2.7c-.2.8-.1,1.6-.2,2.3h.1v.1Z"/>
      <g>
        <path class="cls-7" d="M29.58,7.68c.8-2.2,2.1-4.3,3.7-5.8-.2-.2-.3-.5-.5-.7.9-.4,2.1-.8,3.1-.8,5.3-.2,10.5,2.4,14,6.3,3,3.2,5.1,7.2,6.3,11.5,2.9,9.4,2.1,22.1-7.6,27.1-2.6,1.3-5.9,2.6-8.7,2-2.9-.6-5.1-2.9-6.5-5.6-2.6-5-4.2-11.2-5.1-16.7-.8-5.7-.8-11.8,1.3-17.3h0Z"/>
        <path class="cls-11" d="M38.48,57.98h0c3.2-.1,5.6-2.8,5.5-5.9l-.4-11.1-9.1.3.5,13.5c0,1.8,1.6,3.2,3.4,3.2h.1Z"/>
        <path class="cls-5" d="M17.48,26.88c0,1.1,0,2.2.2,3.2,0,.7.1,1.4.3,2,.4,1.8.7,3.4,1.4,5,.2.6.4,1.1.7,1.7,3.2,7.3,8.9,12.1,15.4,12,3.1,0,6-1.3,8.5-3.4.6-.4,1.1-.9,1.6-1.5,4.2-4.6,6.9-11.7,6.6-19.8-.4-13.4-8.3-24-17.9-23.8-1.4,0-2.8.3-4.1.8-7.5,2.8-12.9,12.5-12.6,23.9h-.1s0-.1,0-.1Z"/>
        <g>
          <path class="cls-8" d="M40.28,26.68c-.2,0-.4,0-.5-.3-1.7-3.2-4.6-1.9-4.7-1.8-.3,0-.6,0-.8-.3,0-.3,0-.6.3-.8,1.4-.6,4.5-1,6.2,2.3,0,.3,0,.6-.2.8h-.3v.1Z"/>
          <path class="cls-8" d="M22.88,24.08s-.3.2-.5,0c-2.8-1.1-4,1.3-4,1.4,0,.2-.4.3-.6.2-.2,0-.3-.4-.2-.6.5-1.2,2.3-3.1,5.2-1.9.2,0,.4.4.3.6v.2h-.2v.1h0Z"/>
          <path class="cls-8" d="M36.78,28.98c0,1.1-.7,2.1-1.5,2.1s-1.6-1-1.6-2.1.7-2.1,1.5-2.1,1.6,1,1.6,2.1Z"/>
          <path class="cls-8" d="M22.88,28.98c0,1.1-.7,2.1-1.5,2.1s-1.6-1-1.6-2.1.7-2.1,1.5-2.1,1.6,1,1.6,2.1Z"/>
          <path class="cls-2" d="M34.68,41.18c0,.2-.8,3.2-3.8,3.7-2.9.4-4.5-1-4.7-1.3"/>
          <path class="cls-6" d="M26.08,34.58c-1,1-1,2.5,0,3.5s2.5,1,3.5,0-1.8.2-2.8-.7c-1-1,.2-3.7-.8-2.8h.1,0Z"/>
          <path class="cls-3" d="M17.98,32.18c.4,1.8.7,3.4,1.4,5,.2.6.4,1.1.7,1.7,1-.7,1.5-2,1.4-3.2,0-1.8-1.6-3.2-3.4-3.4h-.1v-.1Z"/>
          <path class="cls-3" d="M39.58,31.98c-2,0-3.6,1.5-3.5,3.2s1.9,2.9,3.9,2.8,3.6-1.5,3.5-3.2-1.9-2.9-3.9-2.8Z"/>
        </g>
        <path class="cls-4" d="M43.58,47.28h.2c.6-.4,1.1-.9,1.6-1.5,4.2-4.6,6.9-11.7,6.6-19.7-.4-13.4-8.3-24-17.9-23.8-1.4,0-2.8.3-4.1.8,7.6,5.6,21.1,20.7,13.6,44.3h0v-.1h0Z"/>
        <g>
          <path class="cls-7" d="M50.68,27.98l2.5-5.5,2.5,4-1,12-8.2,6c4.5-9.1,3.8-14,4-16v-.6h.2v.1Z"/>
          <path class="cls-7" d="M12.78,14.58c.9-2.9,2.8-5.4,5-7.5,1.5-1.3,3.1-2.4,4.8-3.4.9-.7,1.8-1.3,2.7-1.8C29.28-.02,41.38-3.22,49.08,8.58c3.2,4.7,3.7,7.6,4,13.2,0,0-3.4-.2-4.1,2.2-1.3,4,3.3,5-2.1,15.2-.4.6-1,1.1-1.5,1.7,0,0,.6-3.3.9-4.7,1.3-4.9.9-10.6-.8-15.5-.2-.7-.5-1.4-.9-2.1-.1-.4-1.1-2-1-2.3-1.5,3.9-6.6,5.5-10.3,6.3.7-1,1.6-1.7,2.2-2.8s.9-2.3,1.3-3.4c-4.4,1.9-8.9,5.1-13.9,5,1.1-1.1,4-3.5,3.8-5.3-1,1.5-3,2.1-4.7,2.9-1.1.4-2.3.8-3.4,1.1-1.5,5.6-.9,14,1.4,18.8-2.1-2.4-3.9-8.9-4.2-15.8s-.9-2.5-2-3.2h0c-.8-.5-1.3-1.5-1.4-2.4,0-.9,0-1.9.4-2.8h0v-.1h0Z"/>
        </g>
        <g>
          <path class="cls-5" d="M49.18,23.58c-1,3-.3,5.9,1.6,6.5s4.2-1.3,5.2-4.4.3-5.9-1.6-6.5c-1.8-.6-4.2,1.3-5.2,4.4Z"/>
          <path class="cls-4" d="M49.18,23.58c-1,3-.3,5.9,1.6,6.5s4.2-1.3,5.2-4.4.3-5.9-1.6-6.5c-1.8-.6-4.2,1.3-5.2,4.4Z"/>
        </g>
      </g>
    </g>
  </g>
</svg>