<?xml version="1.0" encoding="UTF-8"?>
<svg id="Layer_2" data-name="Layer 2" xmlns="http://www.w3.org/2000/svg" viewBox="0 0 104.71 212.11">
  <defs>
    <style>
      .cls-1 {
        fill: #616261;
      }

      .cls-2, .cls-3 {
        fill: #603813;
      }

      .cls-4 {
        fill: #273758;
      }

      .cls-5 {
        fill: #d4afaf;
      }

      .cls-6 {
        fill: #e6e6e6;
      }

      .cls-7 {
        fill: #4d4d4f;
      }

      .cls-8 {
        fill: #d9a2a0;
      }

      .cls-9, .cls-3 {
        isolation: isolate;
        opacity: .5;
      }

      .cls-9, .cls-10 {
        fill: #d9baba;
      }

      .cls-11 {
        fill: #8b2b0e;
      }

      .cls-12 {
        fill: #7e725b;
      }

      .cls-13 {
        fill: #d4abab;
      }

      .cls-14 {
        fill: #3f6138;
      }

      .cls-15 {
        fill: #d9b6b6;
      }

      .cls-16 {
        fill: #9f9e9d;
      }

      .cls-17 {
        fill: none;
        stroke: #630;
        stroke-linecap: round;
        stroke-miterlimit: 10;
      }
    </style>
  </defs>
  <g id="Layer_1-2" data-name="Layer 1">
    <g id="girl-sitting-right">
      <g>
        <g>
          <path class="cls-1" d="M56.77,211.41c-.67.76-1.96.92-2.87.36l-18.24-11.24c-.91-.56-1.11-1.64-.43-2.4h0c.67-.76,1.96-.92,2.87-.36l18.24,11.24c.91.56,1.11,1.64.43,2.4h0Z"/>
          <path class="cls-1" d="M56.77,211.41c-.67.76-1.96.92-2.87.36l-18.24-11.24c-.91-.56-1.11-1.64-.43-2.4h0c.67-.76,1.96-.92,2.87-.36l18.24,11.24c.91.56,1.11,1.64.43,2.4h0Z"/>
          <path class="cls-1" d="M56.77,211.41c-.67.76-1.96.92-2.87.36l-18.24-11.24c-.91-.56-1.11-1.64-.43-2.4h0c.67-.76,1.96-.92,2.87-.36l18.24,11.24c.91.56,1.11,1.64.43,2.4h0Z"/>
          <path class="cls-16" d="M55.41,211.79c-.09.11-.77-.18-1.52-.64l-14.89-9.18c-.75-.46-1.27-.92-1.18-1.02h0c.09-.11.77.18,1.52.64l14.89,9.18c.75.46,1.27.92,1.18,1.02h0Z"/>
          <path class="cls-1" d="M6.36,211.41c.67.76,1.96.92,2.87.36l18.24-11.24c.91-.56,1.11-1.64.43-2.4h0c-.67-.76-1.96-.92-2.87-.36l-18.24,11.24c-.91.56-1.11,1.64-.43,2.4h0Z"/>
          <path class="cls-16" d="M6.86,209.98c-.16.2.28,0,.98-.44l13.97-8.74c.7-.44,1.39-.95,1.55-1.15h0c.16-.2-.28,0-.98.44l-13.97,8.74c-.7.44-1.39.95-1.55,1.15h0Z"/>
          <path class="cls-1" d="M33.62,210c0,1.16-.91,2.11-2.04,2.11h-.42c-1.13,0-2.04-.94-2.04-2.11v-10.12c0-1.16.91-2.11,2.04-2.11h.42c1.13,0,2.04.94,2.04,2.11v10.12Z"/>
          <path class="cls-1" d="M33.92,197.48c0,.98-1.11,1.78-2.47,1.78h-.13c-1.37,0-2.47-.8-2.47-1.78v-47.07c0-.98,1.11-1.78,2.47-1.78h.13c1.36,0,2.47.8,2.47,1.78v47.07Z"/>
          <path class="cls-16" d="M30.33,194.09c0,.81-.19,1.47-.43,1.47h-.02c-.24,0-.43-.66-.43-1.47v-38.77c0-.81.19-1.47.43-1.47h.02c.24,0,.43.66.43,1.47v38.77Z"/>
          <path class="cls-1" d="M39.16,199.09c0,1.14-1.11,2.06-2.47,2.06h-10.64c-1.37,0-2.47-.92-2.47-2.06v-.57c0-1.14,1.11-2.06,2.47-2.06h10.64c1.37,0,2.47.92,2.47,2.06v.57Z"/>
          <path class="cls-16" d="M30.39,210.53c0,.18-.12.33-.27.33h0c-.15,0-.27-.15-.27-.33v-8.6c0-.18.12-.33.27-.33h0c.15,0,.27.15.27.33v8.6Z"/>
        </g>
        <path class="cls-12" d="M54.33,148.63c0,2.31-.88,4.18-1.96,4.18H10.39c-1.08,0-1.96-1.87-1.96-4.18h0c0-2.31.88-4.18,1.96-4.18h41.98c1.08,0,1.96,1.87,1.96,4.18h0Z"/>
        <path class="cls-7" d="M8.43,148.46c0,.06,0,.11,0,.17,0,2.31.88,4.18,1.96,4.18h41.98c1.08,0,1.96-1.87,1.96-4.18,0-.06,0-.11,0-.17H8.43Z"/>
      </g>
      <g id="girl-sitting">
        <g>
          <path class="cls-5" d="M90.49,99.34c-.4.4-.9.6-1.4.7-.6.1-1.3.1-1.9.1-2.6,0-5.2.7-7.6,1.7.4.3.8.6,1.2.8,4.1,3,1.9,3.3,1.9,3.3l-5-2.8c-.2,0-20.3,7.8-25.8,10.1-1.1.4-2.2.9-3.3.9s-3-.7-3.9-2c-.7-1-1-2.1-1.3-3.3-1.1-6-5-29-5.6-34.6-.4-3.6-.8-7.5-.3-11.1,0-.5.2-1.1.5-1.6l1.5.3c4.1.9,7.5,3.8,8.8,7.8,0,.3.2.6.2.8s0,.5.1.7l3.1,32.7c10.1-3,24-5.3,24-5.3.3,0,3.1-2.8,4.4-3.4,1.2-.5,2.5-.8,3.8-.8s3.5.5,5,1.4c.7.4,1.5,1,1.9,1.8.3.7,0,1.2-.4,1.7h0l.1.1h0Z"/>
          <path class="cls-6" d="M33.79,65.34c-.3,3.6,0,10.1,3.7,19.2.4.9,1.4,1.3,2.3,1,2.4-1,7.2-2.7,10.8-1.7,1.1.3,2.1-.6,1.9-1.7-1.3-6.6-5.3-22-12.8-22.3-3.1-.1-5.6,2.4-5.9,5.5Z"/>
        </g>
        <path class="cls-6" d="M52.79,126.44c-5.6,2.4-11.8,3.6-18,3.6s-8.8-.6-13-1.9l-5.6-1.6s-.6-9.5,1.6-16.3c1.8-5.6,1.8-11.4.4-17.1l-6.3-25.3c-.7-2.9.3-5.8,2.7-7.9l3.3-2.9h0l4-3.7h9.1s2.5,1.3,5.5,3.4c.7.5,1.4,1,2.1,1.5,3.9,3,8,7.1,8.4,11.1l.7,7.9c1,10.8,2.3,21.5,4.6,32.1.8,3.7,1,8.1.5,17h0v.1h0Z"/>
        <path class="cls-10" d="M48.69,115.44c-.5.2-1,.3-1.5.2-.6-.1-1.2-.4-1.8-.6-2.5-.9-5.1-1.2-7.7-1.1.3.4.6.8.8,1.2,2.8,4.2.6,3.8.6,3.8l-3.6-4.4c-.2-.2-21.8,0-27.7.1-1.1,0-2.3,0-3.4-.3-1.4-.5-2.6-1.8-3-3.3-.3-1.1-.2-2.4,0-3.5,1.1-6,5.7-28.9,7.2-34.3,1-3.5,1.9-7.3,3.7-10.4.3-.5.6-1,1-1.3l1.3.9c3.5,2.3,5.7,6.2,5.4,10.4v.9c0,.2,0,.5-.1.7l-8.8,31.6c10.5.8,24.3,3.6,24.3,3.6.3,0,3.9-1.5,5.3-1.6,1.3,0,2.6.1,3.8.6,1.6.6,3.1,1.7,4.2,3.1.5.7,1.1,1.5,1.1,2.3s-.4,1.2-.9,1.4h-.2,0Z"/>
        <path class="cls-6" d="M8.99,63.94c-2,3.3-4.7,9.7-5.4,20.4,0,.7.5,1.4,1.2,1.5,2.5.2,8.2,1,11.1,4,.7.7,1.9.4,2.2-.6,1.8-6.7,5.4-23.5-1.2-27.5-2.7-1.6-6.1-.5-7.8,2.3h-.1v-.1h0Z"/>
        <g>
          <path class="cls-11" d="M50.19,38.64c.2-4.7-1.9-8.4-3.6-12.2-.7-1.7-1.4-4.8-2.6-6.1-1.5-1.8-5.4-1.1-7.4-1.3-7.4-.6-14.8-.3-22.2.3-2.3.2-3.7-.7-4.7,2.5-.7,2.1-1.1,2.9-1.1,2.9-2.4,3.9-6.3,6.2-7.9,11.2-1.2,4.1-.9,9.2,1.4,12.2,0-1.6.3-3.7.7-5.1,1.6,1.3,2.6,3.7,4.1,5.1s3.3,2.7,5.1,3.5c.2-1.4-.2-3.3.2-4.5,1.2,3.2,4.3,4.8,6.7,6.2,0-1.9-.3-4.3,1.2-3.2.4.3.9,1.6,1.4,2.1s1.1.8,1.7,1.2c1.8,1.2,2.5,1.5,4.3.2,1.2-1.1,2.8-2.5,3.8-3.9.6,1.2.2,3.2.1,4.6,2,.2,4.5-2.2,5.8-4.1.3,1.1,0,2.3.2,3.4,2.6-.2,7.4-4.8,8.7-7.7,1.2,1.1,2.1,3.7,1.7,5.6,2.2-3.4,2.4-8.7,2.6-13h-.2v.1h0Z"/>
          <path class="cls-8" d="M27.99,59.24h0c-3.3,0-5.9-2.6-5.9-5.9v-10.9h9.1v13.6c0,1.8-1.4,3.2-3.2,3.2h0Z"/>
          <path class="cls-10" d="M45.29,32.34c-.4,1.8-.7,3.4-1.4,5-.2.6-.4,1.1-.7,1.7-3.2,7.3-8.9,12.1-15.4,12-3.1,0-6-1.3-8.5-3.4-.6-.4-1.1-.9-1.6-1.5-4.2-4.6-6.9-11.7-6.6-19.8.4-13.4,8.3-24,17.9-23.8,1.4,0,2.8.3,4.1.8,7.5,2.8,13.1,12.4,12.8,23.8"/>
          <g>
            <path class="cls-2" d="M22.89,26.84c.2,0,.4,0,.5-.3,1.7-3.2,4.6-1.9,4.7-1.8.3,0,.6,0,.8-.3,0-.3,0-.6-.3-.8-1.4-.6-4.5-1-6.2,2.3,0,.3,0,.6.2.8h.3v.1Z"/>
            <path class="cls-2" d="M40.29,24.24s.3.2.5,0c2.8-1.1,4,1.3,4,1.4,0,.2.4.3.6.2.2,0,.3-.4.2-.6-.5-1.2-2.3-3.1-5.2-1.9-.2,0-.4.4-.3.6v.2h.2v.1h0Z"/>
            <path class="cls-2" d="M26.39,29.14c0,1.1.7,2.1,1.5,2.1s1.6-1,1.6-2.1-.7-2.1-1.5-2.1-1.6,1-1.6,2.1Z"/>
            <path class="cls-2" d="M40.29,29.14c0,1.1.7,2.1,1.5,2.1s1.6-1,1.6-2.1-.7-2.1-1.5-2.1-1.6,1-1.6,2.1Z"/>
            <path class="cls-17" d="M28.39,41.34c0,.2.8,3.2,3.8,3.7,2.9.4,4.5-1,4.7-1.3"/>
            <path class="cls-3" d="M37.09,34.74c1,1,1,2.5,0,3.5s-2.5,1-3.5,0,1.8.2,2.8-.7c1-1-.2-3.7.8-2.8h-.1,0Z"/>
            <path class="cls-8" d="M45.19,32.34c-.4,1.8-.7,3.4-1.4,5-.2.6-.4,1.1-.7,1.7-1-.7-1.5-2-1.4-3.2,0-1.8,1.6-3.2,3.4-3.4h.1v-.1Z"/>
            <path class="cls-8" d="M23.59,32.14c2,0,3.6,1.5,3.5,3.2s-1.9,2.9-3.9,2.8-3.6-1.5-3.5-3.2,1.9-2.9,3.9-2.8Z"/>
          </g>
          <path class="cls-9" d="M19.59,47.54h-.2c-.6-.4-1.1-.9-1.6-1.5-4.2-4.6-6.9-11.7-6.6-19.7.4-13.4,8.3-24,17.9-23.8,1.4,0,2.8.3,4.1.8-7.6,5.6-21.1,20.7-13.6,44.3h0v-.1h0Z"/>
          <g>
            <path class="cls-10" d="M15.29,26.44c1,3,.3,5.9-1.6,6.5s-4.2-1.3-5.2-4.4-.3-5.9,1.6-6.5c1.8-.6,4.2,1.3,5.2,4.4Z"/>
            <path class="cls-9" d="M15.29,26.44c1,3,.3,5.9-1.6,6.5s-4.2-1.3-5.2-4.4-.3-5.9,1.6-6.5c1.8-.6,4.2,1.3,5.2,4.4Z"/>
          </g>
          <path class="cls-11" d="M45.09,24.44c.8,4.4,2.3,3.7-.2,12.7s-1,4.9-1.6,7.2c-.5,2.1-2.3,4-2.1,6.2,1.4-.8,4.2-3,5.2-4.3,2-2.8,1.4-9.2,1.2-12.6h.1c-.2-3.3-.4-8.8-.6-11.3v-2.6c0-6.5-1.6-13.7-5.8-17.4-3-2.7-5.8-.8-9.1-1.5C22.09-1.26,13.59.24,9.59,8.94-.11,30.24,11.09,41.94,12.79,44.94c.9,1.4,9.5,7.4,10.9,8.3-7.1-8.2-6.2-21.9-4.9-30,.6-4,2.9-7.6,6.2-10h0s2.7,3,4.3,4.2c2,1.4,4.6,2.6,6.8,2.8-.3-.6-.9-1.2-1.2-1.8-.2-.3-.4-.8-.6-1.1,1.1,1.5,3,2.8,4.4,4,1.4,1.1,2.9,1.7,4.5,2.4.1-.6-1.2-3.3-1.6-4.2.5.8,1.8,1.3,2.2,2.2"/>
        </g>
        <g>
          <path class="cls-13" d="M90.09,166.64c-1.2,16.6-3.6,33.8-4.2,33.8l-5.8-.4-2.1-34.2-1.6-25.7v-1.2c0-.4,0-.7.2-1,.7-2.7,3.6-4.6,6.9-4.4,3.3.2,6,2.6,6.2,5.5,0,.8.2,1.5.3,2.3,1,5.5.8,15.3,0,25.3h.1Z"/>
          <path class="cls-4" d="M79.09,205.54c.1,1,.7,1.9,1.6,2.4.6.4,22.7,2.2,23.3,1.9,5-2.1-17.6-10-17.6-10h-6.1c0,.1-1.3,4.5-1.1,5.6h0l-.1.1h0Z"/>
          <path class="cls-13" d="M89.59,140.04h0c0-3.8-3.1-7-6.9-7.2l-35.3-2.6c-5.1.2-9,4.5-8.8,9.6h0c.3,5.1,4.6,9.1,9.7,8.9l34.2-2c4-.1,7.2-2.7,7.1-6.6h0v-.1h0Z"/>
        </g>
        <g>
          <path class="cls-15" d="M71.49,166.64c-1.2,16.6-3.6,33.8-4.2,33.8l-5.8-.4-2.1-34.2-1.6-25.7v-1.2c0-.4,0-.7.2-1,.7-2.7,3.6-4.6,6.9-4.4,3.3.2,6,2.6,6.2,5.5,0,.8.2,1.5.3,2.3,1,5.5.8,15.3,0,25.3h.1Z"/>
          <path class="cls-4" d="M60.49,205.54c.1,1,.7,1.9,1.6,2.4.6.4,22.7,2.2,23.3,1.9,5-2.1-17.6-10-17.6-10h-6.1c0,.1-1.3,4.5-1.1,5.6h0l-.1.1h0Z"/>
          <path class="cls-15" d="M70.99,140.04h0c0-3.8-3.1-7-6.9-7.2l-35.3-2.6c-5.1.2-9,4.5-8.8,9.6h0c.3,5.1,4.6,9.1,9.7,8.9l34.2-2c4-.1,7.2-2.7,7.1-6.6h0v-.1h0Z"/>
        </g>
        <path class="cls-14" d="M16.29,118.24s-5.3,27.8,9.8,30.5h26.1c-4.4-13.9,7.5-17.8,31.9-15.8l-31-16.1c-1.4,6-14.2,6.4-36.8,1.4h0Z"/>
      </g>
    </g>
  </g>
</svg>