<?xml version="1.0" encoding="UTF-8"?>
<svg id="Ebene_2" data-name="Ebene 2" xmlns="http://www.w3.org/2000/svg" viewBox="0 0 79.25 247.25">
  <defs>
    <style>
      .cls-1 {
        fill: #cad7db;
      }

      .cls-2 {
        fill: #d9b6b6;
      }

      .cls-3 {
        fill: none;
        stroke: #630;
        stroke-linecap: round;
        stroke-miterlimit: 10;
      }

      .cls-4 {
        fill: #d9a2a0;
      }

      .cls-5 {
        fill: #aab8bc;
      }

      .cls-6 {
        fill: #c25857;
      }

      .cls-7 {
        fill: #d9baba;
      }

      .cls-8, .cls-9 {
        fill: #603813;
      }

      .cls-10 {
        fill: #e26c6d;
      }

      .cls-11 {
        fill: #8b2b0e;
      }

      .cls-12 {
        fill: #273758;
      }

      .cls-13 {
        fill: #923a3b;
      }

      .cls-14 {
        fill: #e99f34;
      }

      .cls-15 {
        fill: #c69696;
      }

      .cls-9 {
        isolation: isolate;
        opacity: .5;
      }

      .cls-16 {
        fill: #e6e6e6;
      }

      .cls-17 {
        fill: #3f6138;
      }
    </style>
  </defs>
  <g id="Layer_1" data-name="Layer 1">
    <g id="german-girl-book">
      <g>
        <path class="cls-2" d="M38.9,167.93v1.2l-3.4,28.8-4.5,38.3h-5.8c-.6,0-1.9-19.6-1.9-38.3s.6-24.3,2.2-30c0-3.7,3-6.7,6.7-6.7s6,2.4,6.6,5.5v1.2h.1Z"/>
        <path class="cls-12" d="M32.3,242.33c0,1.2-.7,2.1-1.6,2.7s-22.7,2.4-23.3,2.2c-5-2.4,17.6-11.2,17.6-11.2l6.1.2s1.3,4.9,1.1,6.2h.1v-.1Z"/>
        <path class="cls-2" d="M33.2,174.73h0c-3.8.4-7.2-2.2-8-5.9l-6.7-34.7c-.4-5.1,3.4-9.5,8.5-10h0c5.1-.4,9.5,3.4,10,8.5l2,34.2c.3,4-1.8,7.5-5.7,7.9h-.1Z"/>
      </g>
      <g>
        <path class="cls-2" d="M54.3,197.93c0,18.7-1.3,38.3-1.9,38.3h-5.8l-4.5-38.3-3.3-28.8v-2.4c.6-3.1,3.3-5.5,6.6-5.5s6.7,3,6.7,6.7c1.7,5.7,2.2,17.7,2.2,30h0Z"/>
        <path class="cls-12" d="M45.3,242.33c0,1.2.7,2.1,1.6,2.7s22.7,2.4,23.3,2.2c5-2.4-17.6-11.2-17.6-11.2l-6.1.2s-1.3,4.9-1.1,6.2h0c0-.1-.1-.1-.1-.1h0Z"/>
        <path class="cls-2" d="M44.5,174.73h0c3.8.4,7.2-2.2,8-5.9l6.7-34.7c.4-5.1-3.4-9.5-8.5-10h0c-5.1-.4-9.5,3.4-10,8.5l-2,34.2c-.3,4,1.8,7.5,5.7,7.9h.1Z"/>
      </g>
      <path class="cls-2" d="M55.4,96.93c-1.5,5.7-1.2,11.7.7,17.3.7,2.1,1.4,4.7,1.8,7.8.5,3,1.2,7.7,1.2,11.5l-18.9,7.5h-2.8l-18.9-7.2c0-5.2.7-12.8,2.1-17.6.4-1.4.9-2.8,1.4-4,2.5-5.4,3.5-11.4,2.5-17.3l-3.9-22.6-1.2-6.7,1.2-.7,15.7-9.9h9.1l14.2,9.8,1.1.7-1.1,6.5-4.1,25h0l-.1-.1Z"/>
      <path class="cls-16" d="M55.4,96.93c-1.5,5.7-1.2,11.7.7,17.3.7,2.1,1.4,4.7,1.8,7.8H20.6v-5.8c.4-1.4.9-2.8,1.4-4,2.5-5.4,3.5-11.4,2.5-17.3l-3.9-22.6-1.1-6.7,12.7-8,4.1-2.6h9.1l3.5,2.4,11.8,8.1-1.1,6.5-4.1,25h0l-.1-.1Z"/>
      <path class="cls-17" d="M23.9,108.53s-11.6,30-11.1,58.1c0,1.5.9,2.7,2.1,3.1,7.9,2.1,36.8,8.9,50.7-1.7.9-.7,1.3-1.9,1.2-3.1-1.1-8.2-5.6-40.7-11.9-56.3-10.2,4.3-20.5,4.1-31.1,0h.1v-.1Z"/>
      <g>
        <path class="cls-1" d="M55.14,141.13h-.26v-4.72c.16-.16.26-.37.26-.61v-36.14c0-.47-.39-.86-.86-.86h-26.28s-2.98-.14-3.64,2.43v37.19c0,3.43,2.08,3.25,2.08,3.25h28.7c.14-.02.25-.07.25-.23,0-.29-.25-.31-.25-.31Z"/>
        <path class="cls-6" d="M55.14,141.13h-.26v-.53h-29.48c-.56-.76-.5-2.09-.5-2.09.06-2.18,3.1-1.86,3.1-1.86h26.28c.23,0,.44-.09.6-.25.16-.16.26-.37.26-.61v-36.14c0-.47-.39-.86-.86-.86h-26.28s-2.98-.14-3.64,2.43v37.19c0,3.43,2.08,3.25,2.08,3.25h28.7c.14-.02.25-.07.25-.23,0-.29-.25-.31-.25-.31Z"/>
        <g>
          <path class="cls-13" d="M27.99,136.25v-37.46s-2.98-.14-3.64,2.43v37.19s0-2.3,3.64-2.17Z"/>
          <rect class="cls-13" x="31.64" y="106.24" width="18.47" height="8.24"/>
        </g>
        <path class="cls-14" d="M25.73,103.01c.51-.24,1.05-.37,1.48-.43.43-.06.73-.07.78-.07h0s0,0,0,0v-.74h0c-.13,0-1.11,0-2.17.4-.5.19-1.02.46-1.46.87v1.15c.12-.21.27-.39.43-.55.28-.27.6-.48.94-.64Z"/>
        <path class="cls-14" d="M25.91,105.02c.51-.3,1.04-.46,1.44-.54.2-.04.37-.06.48-.07.06,0,.1,0,.13-.01.01,0,.02,0,.03,0v-.74h0s-.98.02-2.05.51c-.53.25-1.09.62-1.56,1.18,0,.01-.02.02-.03.03v1.43c.16-.39.36-.72.59-.99.29-.34.63-.6.97-.8Z"/>
        <path class="cls-14" d="M25.73,131.88c.51-.24,1.05-.37,1.48-.43.43-.06.73-.07.78-.07h0s0,0,0,0v-.74h0c-.13,0-1.11,0-2.17.4-.5.19-1.02.46-1.46.87v1.15c.12-.21.27-.39.43-.55.28-.27.6-.48.94-.64Z"/>
        <path class="cls-14" d="M25.91,133.89c.51-.3,1.04-.46,1.44-.54.2-.04.37-.06.48-.07.06,0,.1,0,.13-.01.01,0,.02,0,.03,0v-.74h0s-.98.02-2.05.51c-.53.25-1.09.62-1.56,1.18,0,.01-.02.02-.03.03v1.43c.16-.39.36-.72.59-.99.29-.34.63-.6.97-.8Z"/>
        <path class="cls-10" d="M55.14,141.13h-28.79c-.43-.03-.74-.24-.95-.53-.56-.76-.5-2.09-.5-2.09.06-2.18,3.1-1.86,3.1-1.86h26.28c.23,0,.44-.09.6-.25.16-.16.26-.37.26-.61v-.4c0,.47-.39.86-.86.86h-26.28c-3.64-.13-3.64,2.17-3.64,2.17,0,3.43,2.08,3.25,2.08,3.25h28.7c.14-.02.25-.07.25-.23,0-.29-.25-.31-.25-.31Z"/>
        <path class="cls-5" d="M27.37,138.53c2.14-.66,4.46-.86,6.68-.96,2.41-.11,4.82-.03,7.23.04,2.39.07,4.77.05,7.16-.01,1.19-.03,2.41-.07,3.6.07.94.11,1.89.31,2.84.33v-1.59c-.16.15-.37.25-.6.25h-26.28s-3.04-.32-3.1,1.86c0,0-.03.51.09,1.09.74-.44,1.54-.81,2.39-1.07Z"/>
      </g>
      <g>
        <path class="cls-11" d="M64.4,38.13c0-4.7-2.2-8.3-4-12.1-.8-1.7-1.6-4.7-2.8-6-1.6-1.7-5.4-.9-7.4-1-7.4-.3-14.8.2-22.2,1.1-2.3.3-3.7-.6-4.6,2.7-.6,2.1-1,2.9-1,2.9-2.3,4-6.1,6.4-7.5,11.5-1.1,4.1-.6,9.2,1.8,12.1,0-1.6.2-3.7.5-5.1,1.6,1.2,2.7,3.6,4.3,5s3.4,2.6,5.2,3.3c.2-1.4-.3-3.3,0-4.5,1.3,3.2,4.5,4.6,6.9,6,0-1.9-.5-4.3,1.1-3.2.4.3,1,1.6,1.5,2s1.1.8,1.7,1.1c1.8,1.1,2.6,1.4,4.3,0,1.2-1.1,2.7-2.6,3.7-4,.6,1.2.3,3.2.3,4.6,2,0,4.4-2.4,5.7-4.3.3,1.1,0,2.3.3,3.4,2.6-.3,7.2-5.1,8.4-8,1.2,1.1,2.2,3.6,1.9,5.5,2.1-3.5,2.1-8.8,2.1-13.1h-.2v.1Z"/>
        <path class="cls-15" d="M40.8,58.63h0c-2.5,0-4.5-2-4.5-4.5v-6.7h9.1v6.7c0,2.5-2,4.5-4.5,4.5h-.1Z"/>
        <path class="cls-7" d="M62.7,29.13c-.9,1.5-2.3,2.5-3.7,2.8h-1.2c-.4,3.9-1.8,7.5-3.8,10.4-3.8,5.7-9.5,9.1-13.7,8.9h-1c-4.5,0-9.7-3.1-13.3-8.3-2-2.9-3.5-6.4-4.1-10.3h-.3c-1.4,0-2.9-1.1-3.9-2.6-.2-.3-.3-.5-.4-.8-.2-.4-.3-.7-.4-1.1h0c-.3-1.5,0-2.7,1.2-3.2h0c1-.4,2.3,0,3.5.7.9-11.9,8.3-22.4,17.5-22.6,2.8,0,5.5.8,7.9,2.3,2.3,1.4,4.3,3.6,6,6.3h0c2.4,3.9,4.1,8.9,4.6,13.9h0c.5-.5,1.1-.9,1.7-1.1.8-.4,1.7-.4,2.4,0,1.6.7,1.9,2.9.6,5.1l.4-.3h0v-.1Z"/>
        <path class="cls-11" d="M60.2,32.53c-.3-3.2-.8-8.7-1.1-11.2,0-.9,0-1.7-.2-2.6-.3-6.5-2.4-13.6-7.2-17.2-3.4-2.6-6.5-.4-10.2-1.2-7.1-1.4-15.4,1.7-19.2,8.4-2.3,4-2.7,8.7-1.9,13.2,0,0,.5,8.5.3,10.5-.3,3.4-1.2,9.6.9,12.6,1,1.4,4.1,3.7,5.6,4.5.3-2.2-1.7-4.2-2.1-6.3-.5-2.3-.3-4.8-.3-7.2,0-4.3-.4-8.5-.2-12.8v-1.3c0-.2.2-.3.3-.5,1.1-1.8,2.4-3.4,3.9-4.8,1.6-1.5,3.5-2.3,5.2-3.7,1.6,1.4,3.1,2.9,4.9,4,2.2,1.3,5.2,2.4,7.7,2.6-.3-.6-1-1.2-1.5-1.8-.2-.3-.4-.8-.6-1.1,1.3,1.5,3.5,2.7,5.1,3.8,1.5,1.1,3.4,1.6,5.1,2.2,0-.6-1.5-3.3-1.9-4.1.6.8,1.5,1.3,2,2.1.6.8,1,1.7,1.4,2.5h0c.2,4.4-.2,8.6-.2,12.9s.2,4.9-.3,7.2c-.5,2.1-2.5,4.1-2.1,6.3,1.5-.8,4.6-3.1,5.6-4.5,2.1-2.9,1.2-9.2.9-12.6h0l.1.1Z"/>
        <g>
          <path class="cls-8" d="M28.1,23.93c.2,0,.4,0,.5-.3,1.7-3.2,4.6-1.9,4.7-1.8.3,0,.6,0,.8-.3,0-.3,0-.6-.3-.8-1.4-.6-4.5-1-6.2,2.3,0,.3,0,.6.2.8h.3v.1Z"/>
          <path class="cls-8" d="M45.5,21.33s.3.2.5,0c2.8-1.1,4,1.3,4,1.4,0,.2.4.3.6.2.2,0,.3-.4.2-.6-.5-1.2-2.3-3.1-5.2-1.9-.2,0-.4.4-.3.6v.2h.2v.1Z"/>
          <path class="cls-8" d="M31.6,26.23c0,1.1.7,2.1,1.5,2.1s1.6-1,1.6-2.1-.7-2.1-1.5-2.1-1.6,1-1.6,2.1Z"/>
          <path class="cls-8" d="M45.5,26.23c0,1.1.7,2.1,1.5,2.1s1.6-1,1.6-2.1-.7-2.1-1.5-2.1-1.6,1-1.6,2.1Z"/>
          <path class="cls-3" d="M35.4,40.23c.2.2,1.5,3.1,5,3,3.4,0,4.8-2.7,5-3"/>
          <path class="cls-9" d="M42.8,34.23c0,1.4-1.1,2.5-2.5,2.5s-2.5-1.1-2.5-2.5,1.1,1.4,2.5,1.4,2.5-2.8,2.5-1.4Z"/>
          <path class="cls-4" d="M51.6,29.23c2,0,3.6,1.5,3.5,3.2s-1.9,2.9-3.9,2.8-3.6-1.5-3.5-3.2,1.9-2.9,3.9-2.8Z"/>
          <path class="cls-4" d="M28.8,29.23c2,0,3.6,1.5,3.5,3.2s-1.9,2.9-3.9,2.8-3.6-1.5-3.5-3.2,1.9-2.9,3.9-2.8Z"/>
        </g>
      </g>
      <g>
        <path class="cls-2" d="M6.4,103.23h0c-4-.2-6.5-4.5-5.1-8.5l10.2-24.6c1.5-3.9,5.6-5.9,9.3-4.4h0c4.3,1.7,6.1,7.2,3.7,11.3l-12.9,23.2c-1.1,2-3.2,3.1-5.3,3h.1Z"/>
        <path class="cls-16" d="M14.8,65.33c-3.4,2.8-7.8,8.5-10.9,20.9l13.8,6.3s9.7-17,8.5-23.5c-.8-4.5-7.7-6.6-11.5-3.6h0l.1-.1Z"/>
        <path class="cls-2" d="M4.5,93.53h0c1.6,0,3,.5,4.1,1.9l20.3,23.9-6.1,4.4L1.6,102.93c-3.2-3.2-1.3-9,3.1-9.3h-.2v-.1Z"/>
        <path class="cls-2" d="M34.9,127.23l-6-8.4-6.5,3.8s0,.2.2.2c-2.5,9.4,1.2,14.4,1.2,14.4,3.5,4.9,5.2,4.1,5.9,2.6.5-1.1.5-2.3,0-3.4-1.5-4.8-.8-11.9-.8-11.9,6.1,6.2,5.7,2.6,5.7,2.6h.2l.1.1Z"/>
      </g>
      <g>
        <path class="cls-2" d="M73.4,103.13h0c4-.2,6.5-4.5,5.1-8.5l-10.2-24.6c-1.5-3.9-5.6-5.9-9.3-4.4h0c-4.3,1.7-6.1,7.2-3.7,11.3l12.9,23.2c1.1,2,3.2,3.1,5.3,3h-.1Z"/>
        <path class="cls-16" d="M65,65.23c3.4,2.8,7.8,8.5,10.9,20.9l-13.8,6.3s-9.7-17-8.5-23.5c.8-4.5,7.7-6.6,11.5-3.6h0l-.1-.1Z"/>
        <path class="cls-2" d="M74.1,92.53h0c-1.6,0-2.9.8-3.9,2.1l-18.3,25.4,6.5,3.9,19.5-22.4c3-3.4.7-9-3.7-9h-.1Z"/>
        <path class="cls-2" d="M46.1,125.13l7.6-6.9,5.6,5.1s-.2.1-.3.2c.6,9.7-4.1,13.8-4.1,13.8-4.4,4.1-5.9,3-6.3,1.3-.3-1.1,0-2.4.5-3.3,2.5-4.4,3.3-11.5,3.3-11.5-7.2,4.7-6.1,1.3-6.1,1.3h-.2Z"/>
      </g>
    </g>
  </g>
</svg>