<?xml version="1.0" encoding="UTF-8"?>
<svg id="Layer_2" data-name="Layer 2" xmlns="http://www.w3.org/2000/svg" viewBox="0 0 80.55 251.19">
  <defs>
    <style>
      .cls-1 {
        fill: #603813;
      }

      .cls-2 {
        fill: #273758;
      }

      .cls-3 {
        fill: #e6e6e6;
      }

      .cls-4 {
        fill: #c69696;
      }

      .cls-5 {
        fill: #d9a2a0;
      }

      .cls-6 {
        isolation: isolate;
        opacity: .5;
      }

      .cls-6, .cls-7 {
        fill: #d9baba;
      }

      .cls-8 {
        fill: #8b2b0e;
      }

      .cls-9 {
        fill: #3f6138;
      }

      .cls-10 {
        fill: #d9b6b6;
      }

      .cls-11 {
        fill: none;
        stroke: #630;
        stroke-linecap: round;
        stroke-miterlimit: 10;
      }
    </style>
  </defs>
  <g id="Layer_1-2" data-name="Layer 1">
    <g id="german-girl-climbing">
      <g>
        <path class="cls-8" d="M34.56,43.33c1.5-2.16,3.8-2.25,5.61-1.28.13-.29.25-.58.47-.76,3.19-5.3,1.02-11.1,2.05-16.9.23-1.38.91-2.31,1.87-2.93-1.83-.77-4.46-.41-6.03-.75-7.31-.97-14.68-1.15-22.1-.93-2.31.09-3.61-.93-4.8,2.26-.79,2.03-1.26,2.78-1.26,2.78-2.64,3.75-6.63,5.79-8.48,10.71-1.46,3.96-1.43,9.06.68,12.15.15-1.59.54-3.65.96-5.01,1.48,1.33,2.35,3.81,3.81,5.35,1.46,1.53,3.13,2.89,4.85,3.74.33-1.37,0-3.3.41-4.46,1,3.29,4.04,4.97,6.29,6.57.17-1.88-.1-4.31,1.38-3.07.37.33.85,1.68,1.3,2.12s1.02.89,1.58,1.24c1.68,1.25,2.45,1.62,4.26.39,1.07-.8,2.26-1.79,3.26-2.9,1.07-2.9,2.13-5.8,3.96-8.33h-.1s0,0,0,0Z"/>
        <rect class="cls-4" x="17.69" y="50.21" width="14.83" height="8.56" transform="translate(-33.61 66.84) rotate(-77.15)"/>
        <path class="cls-7" d="M50.7,34.02c-.2-.02-.4-.04-.58-.25-.2-.02-.28-.23-.37-.33.08-.89.27-1.87.36-2.86.96-10.4-3.08-19.77-9.71-23.68-1.8-1.06-3.64-1.73-5.72-1.92-9.71-.89-18.62,9.08-19.84,22.36-1.22,13.28,5.72,24.71,15.43,25.6,9.71.89.5.05.79.07,6.28.18,12.17-4.08,15.69-10.85.23-.38.37-.77.6-1.14.49-.95.88-2.02,1.28-3.08l.79.07c1.19.11,1.96-.72,2.24-1.59.29-.97-.12-2.01-1.07-2.5h.1s0,.11,0,.11Z"/>
        <path class="cls-6" d="M31.18,52.91l-.79-.07c-9.71-.89-16.65-12.32-15.43-25.6,1.22-13.28,10.13-23.25,19.84-22.36,9.71.89,4.02.87,5.72,1.92-6.06,9.44-19.94,33.14-9.34,46.11h0Z"/>
        <g>
          <path class="cls-11" d="M39.35,42.27c.18.22,1.2,3.21,4.68,3.43"/>
          <path class="cls-1" d="M39.68,27.81c.2.02.4.04.52-.25,1.98-3.02,4.73-1.46,4.82-1.36.3.03.59.05.82-.22.03-.3.05-.59-.22-.82-1.33-.72-4.37-1.4-6.35,1.71-.03.3-.05.59.13.81l.3.03v.1Z"/>
          <path class="cls-1" d="M42.94,30.41c-.1,1.09.5,2.14,1.29,2.22s1.68-.85,1.78-1.94-.5-2.14-1.29-2.22-1.68.85-1.78,1.94Z"/>
          <path class="cls-5" d="M37.06,32.47c1.98.18,3.43,1.81,3.18,3.49s-2.15,2.7-4.12,2.42-3.43-1.81-3.18-3.49,2.15-2.7,4.12-2.42Z"/>
        </g>
        <path class="cls-8" d="M54.6,12.3c-1.6-4.34-4.88-6.64-8.94-8.22C40.26,1.99,35.45-.06,29.55,0,20.05.13,12.02,6.98,9.15,14.31c-7.45,19.1,1.89,26.16,3.13,27.87.61.96,9.66,6.88,9.66,6.88-.35.57.65-3.84.62-4.54-.07-2.5,1.79-10.73,2.51-15.36.13-1.39,1.43-2.47,2.82-2.44,3.47.32,8.42-1.42,10.06-2.87-.83,1.42-2.35,2.68-3.55,3.87,3.91-1.24,7.43-4.71,10.36-7.24-.56,1.75-.14,3.68-1.09,5.3,2.59-2.06,3.57-5.17,5.12-7.82.46,1.54.49,3.34.74,4.96.38,2.43,1.12,5.2,2.42,7.32,1.64-2.65,4.54-12.37,2.44-17.86l.2.02v-.1Z"/>
        <path class="cls-7" d="M27.08,31.25c.84,2.78-.22,5.68-2.48,6.37s-4.8-1.04-5.64-3.82.22-5.68,2.48-6.37c2.26-.69,4.8,1.04,5.64,3.82Z"/>
        <path class="cls-6" d="M27.08,31.25c.84,2.78-.22,5.68-2.48,6.37s-4.8-1.04-5.64-3.82.22-5.68,2.48-6.37c2.26-.69,4.8,1.04,5.64,3.82Z"/>
      </g>
      <g>
        <path class="cls-10" d="M51.39,191.16c-1.9,13.76-5.03,27.97-5.58,27.94l-5.31-.6-.19-28.57-.14-21.44.05-.89c.02-.3.03-.59.24-.88.78-2.25,3.53-3.73,6.55-3.4,3.02.32,5.39,2.46,5.43,4.84-.04.67.11,1.27.16,1.94.65,4.64-.09,12.75-1.22,21.07h0Z"/>
        <path class="cls-2" d="M39.16,224.08c-.03.6.31,1.61.76,2.44.44,1.02,1.4,1.68,2.49,1.74l21.46,1.24c5.02-2.3-17.45-11.88-17.45-11.88l-5.66-.33s-1.63,5.69-1.5,6.89h-.1s0-.11,0-.11Z"/>
        <path class="cls-10" d="M48.8,173.45h0c3.32-1.85,4.63-5.88,3.01-9.41l-14.56-31.98c-2.64-4.39-8.22-5.79-12.61-3.15h0c-4.39,2.64-5.79,8.22-3.15,12.61l18.08,28.84c1.98,3.37,5.81,4.98,9.22,3.09h0Z"/>
      </g>
      <g>
        <path class="cls-10" d="M21.93,201.6c-2.27,18.51-5.87,37.64-6.47,37.6l-5.74-.73.23-38.36.18-28.8.07-1.19c.02-.4.05-.79.27-1.18.87-3.04,3.88-5.06,7.15-4.67,3.27.39,5.79,3.23,5.81,6.42-.05.89.1,1.7.15,2.6.64,6.22-.3,17.13-1.64,28.31h0Z"/>
        <path class="cls-2" d="M8.3,245.77c-.03.6.31,1.61.76,2.44.44,1.02,1.4,1.68,2.49,1.74l21.46,1.24c5.02-2.3-17.45-11.88-17.45-11.88l-5.66-.33s-1.63,5.69-1.5,6.89h-.1s0-.11,0-.11Z"/>
        <path class="cls-10" d="M16.67,177.08h0c3.8-.18,6.76-3.2,6.89-7.08l1.24-35.11c-.4-5.11-4.77-8.85-9.88-8.45h0c-5.11.4-8.85,4.77-8.45,9.88l3.32,33.88c.27,3.9,2.98,7.05,6.88,6.88h0Z"/>
      </g>
      <path class="cls-9" d="M13.03,105.9S1.41,134.33,0,161.96c-.12,2.09,1.06,4.05,2.82,4.65,7.62,2.73,29.24,6.18,41.9-.76,4.12-2.76,8.54-3.74,8.31-6.65-5.54-10.25-9.46-36.97-13.69-51.67-9.19,3.75-17.22,2.99-26.21-1.72h-.1s0,.09,0,.09Z"/>
      <path class="cls-3" d="M38.55,108.55c1.66-20.33-1.98-34.26-5.25-42.05-.44-.94-.77-1.87-1.22-2.71-1.49-3.14-3.99-5.66-7.19-7.26l-4.21-2.09-.9-.48c-12.74,13.22-7.97,49.03-7.53,52.27,8.38,3.47,17.72,4.43,26.4,2.43h-.1s0-.11,0-.11Z"/>
      <g>
        <path class="cls-10" d="M27.41,95.98h0c.64-1.42,1.9-2.48,3.47-3.13l30.18-10.7.87,6.88-28.14,12.51c-4.32,1.91-8.3-1.63-6.41-5.66l.03.1h0Z"/>
        <path class="cls-10" d="M70.47,78.84l-9.93,3.67.87,6.88.38-.11c7.42,4.46,13.5,2.16,13.5,2.16,5.82-2.12,5.75-3.86,4.73-4.92-.72-.73-1.81-.95-2.94-.94-4.96.34-11.05-1.91-11.05-1.91,7.91-4.25,4.57-4.77,4.57-4.77l-.03-.1s0,0,0,0h0l-.1.03Z"/>
        <path class="cls-10" d="M34.82,100.43h0c-2.47,2.34-7.01.81-8.91-2.92l-11.42-23.91c-1.91-3.73-.9-7.73,2.35-8.99h0c3.7-1.46,8.57,1.34,10.15,5.86l8.14,24.32c.76,2.05,1.14,4.49-.27,5.73h0l-.04-.09Z"/>
        <path class="cls-3" d="M13.47,68.4c-.54,4.34.24,11.79,6.49,23.73l13.92-3.63-1.91-5.03c-1.91-8.59-4.24-16.14-7.92-19.45-3.63-3.22-9.73-.52-10.35,4.39l-.18.08-.04-.09Z"/>
      </g>
    </g>
  </g>
</svg>