<?xml version="1.0" encoding="UTF-8"?>
<svg id="Ebene_2" data-name="Ebene 2" xmlns="http://www.w3.org/2000/svg" viewBox="0 0 81.87 159.93">
  <defs>
    <style>
      .cls-1 {
        fill: #d9b6b6;
      }

      .cls-2 {
        fill: none;
        stroke: #630;
        stroke-linecap: round;
        stroke-miterlimit: 10;
      }

      .cls-3 {
        fill: #d9a2a0;
      }

      .cls-4, .cls-5 {
        fill: #d9baba;
      }

      .cls-4, .cls-6 {
        isolation: isolate;
        opacity: .5;
      }

      .cls-7 {
        fill: #d38a17;
      }

      .cls-8, .cls-6 {
        fill: #603813;
      }

      .cls-9 {
        fill: #273758;
      }

      .cls-10 {
        fill: #466e9f;
      }

      .cls-11 {
        fill: #c69696;
      }

      .cls-12 {
        fill: #e6e6e6;
      }
    </style>
  </defs>
  <g id="Layer_1" data-name="Layer 1">
    <g id="german-boy-nobricks">
      <g>
        <path class="cls-1" d="M27.52,131.19c7.02-12.13,15.33-24.48,15.79-24.17l4.42,2.52-11.06,27-8.24,20.29-.38.84c-.08.23-.31.53-.53.69-1.53,1.75-4.5,2.14-7.02.76-2.52-1.37-3.74-4.35-2.82-6.56.31-.53.38-1.22.61-1.83,1.3-4.65,5.03-11.97,9.38-19.37h0v-.15h-.15,0Z"/>
        <path class="cls-12" d="M34.76,119.21c4.5-7.09,8.24-12.35,8.54-12.2l4.42,2.52-5.49,13.27-7.47-3.58h0Z"/>
        <path class="cls-9" d="M41.17,104.95c0-.84.53-1.68,1.22-2.14.46-.38,19.52-2.97,20.06-2.9,4.42,1.45-14.72,9.38-14.72,9.38l-5.26.31s-1.37-3.74-1.22-4.73h-.08v.08Z"/>
        <path class="cls-1" d="M23.32,158.26c-3.51,0-6.33-1.75-6.41-5.19l.23-13.42-.76-17.54v-.23c0-4.35,3.51-7.85,7.85-8.08,4.42,0,8.16,3.36,8.24,7.78l-1.6,18.23-1.07,12.43c-.31,3.28-3.05,5.87-6.33,5.95h-.15v.08Z"/>
        <path class="cls-10" d="M30.57,139.58l-14.49-.23-.53-17.46h0c0-4.35,4.04-8.16,8.39-8.39,4.42,0,11.97,3.89,12.13,8.39l-5.41,17.69h-.08,0Z"/>
      </g>
      <g>
        <path class="cls-1" d="M46.2,131.19c7.02-12.13,15.33-24.48,15.79-24.17l4.42,2.52-11.06,27-8.24,20.29-.38.84c-.08.23-.31.53-.53.69-1.53,1.75-4.5,2.14-7.02.76-2.52-1.37-3.74-4.35-2.82-6.56.31-.53.38-1.22.61-1.83,1.3-4.65,5.03-11.97,9.38-19.37h0v-.15h-.15,0Z"/>
        <path class="cls-12" d="M53.45,119.21c4.5-7.09,8.24-12.35,8.54-12.2l4.42,2.52-5.49,13.27-7.47-3.58h0Z"/>
        <path class="cls-9" d="M59.93,104.95c0-.84.53-1.68,1.22-2.14.46-.38,19.52-2.97,20.06-2.9,4.42,1.45-14.72,9.38-14.72,9.38l-5.26.31s-1.37-3.74-1.22-4.73h-.08v.08Z"/>
        <path class="cls-1" d="M41.78,157.88c-3.51,0-6.1-1.07-6.1-4.42v-14.11l-.84-17.54v-.23c0-4.35,3.51-7.85,7.85-8.08,4.42,0,8.16,3.36,8.24,7.78l-1.6,18.23-1.14,13.65c-.31,3.28-2.97,4.65-6.25,4.73h-.15,0Z"/>
        <path class="cls-10" d="M50.02,139.58l-14.49-.23-3.28-15.02.38-3.05c0-4.35,5.64-7.55,9.99-7.7,4.42,0,8.16,3.36,8.24,7.78l-.84,18.23h0Z"/>
      </g>
      <path class="cls-12" d="M17.15,99.08c0-7.32-.31-14.64-.69-21.96l-.46-8.24c-.31-5.64-3.58-14.87,7.4-15.94,2.14-1.3,4.5-2.67,4.5-2.67l8.08-1.07,2.44,1.83,6.41,2.52c2.44,1.83,2.52,6.33,2.29,9.3l.69,25.93c-.08,1.6.46,5.87.61,7.63-.31,0-2.14.61-4.42,1.22-9.53,2.29-17.31,3.36-26.54,1.53h-.31v-.08Z"/>
      <path class="cls-10" d="M15.39,117.69l.15-8.85c.31-2.06.69-4.12,1.14-6.1.15-1.37.38-2.67.46-3.97,0-.53.23-1.07.23-1.6,9.99,2.97,20.82,2.44,30.96-.84v1.37c-.31,3.97.23,7.93,1.45,11.67.76,2.14,1.22,4.58,1.45,6.86.46,6.1-1.14,10.68-1.14,10.68h0l-14.95,5.95h-4.27l-15.02-5.95"/>
      <g id="arm5">
        <path class="cls-1" d="M59.8,86.47h0c3.55-.32,5.68-4.24,4.2-7.68l-9.83-21.54c-1.48-3.45-5.2-5.01-8.43-3.62h0c-3.79,1.66-5.18,6.53-2.95,10.2l12.18,20.16c1.03,1.73,2.87,2.66,4.82,2.49h0Z"/>
        <path class="cls-12" d="M51.11,53.15c3.13,2.35,7.16,7.32,10.26,18.21l-12.09,6.05s-9.15-14.81-8.28-20.65c.58-4.07,6.61-6.07,10.13-3.54h0v-.07Z"/>
        <path class="cls-1" d="M59.67,76.91h0c-1.38.12-2.55.89-3.31,2.12l-14.6,23.66,5.97,3.04,15.85-21.14c2.41-3.21,0-8.03-3.9-7.68h0Z"/>
        <path class="cls-1" d="M37.16,110.05l4.93-7.67,5.97,3.04c-.07.08-.13.16-.2.24,2.71,8.16-.38,12.82-.38,12.82-2.88,4.57-4.4,3.9-5.1,2.58-.52-.9-.54-2-.27-2.97,1.14-4.34.14-10.6.14-10.6-5.11,5.72-4.95,2.56-4.95,2.56h-.14s0,.01,0,.01Z"/>
      </g>
      <g id="arm5-2" data-name="arm5">
        <path class="cls-1" d="M4.7,87.04h0c-3.56-.37-5.65-4.33-4.12-7.77l10.16-21.51c1.53-3.44,5.29-4.96,8.52-3.53h0c3.79,1.71,5.12,6.63,2.83,10.29l-12.51,20.09c-1.06,1.73-2.92,2.64-4.88,2.43h0Z"/>
        <path class="cls-12" d="M13.88,53.67c-3.18,2.32-7.29,7.26-10.55,18.16l12.07,6.24s9.39-14.75,8.6-20.64c-.53-4.1-6.56-6.19-10.13-3.69h0v-.07Z"/>
        <path class="cls-1" d="M4.96,77.44h0c1.38.14,2.55.92,3.3,2.18l14.35,23.97-6.04,2.98L.93,85.1c-2.38-3.26.1-8.07,4.03-7.67h0Z"/>
        <path class="cls-1" d="M27.13,111.03l-4.85-7.78-6.04,2.98c.07.08.13.16.2.24-2.83,8.16.21,12.88.21,12.88,2.83,4.63,4.37,3.98,5.09,2.66.53-.9.57-2,.31-2.98-1.09-4.37,0-10.65,0-10.65,5.06,5.81,4.94,2.64,4.94,2.64l.15.02h0Z"/>
      </g>
      <path class="cls-10" d="M24.93,55.16c.38,3.58,4.42,5.57,7.55,3.66,3.13-1.83,4.96-5.19,5.87-7.78l-2.44-1.83-8.08,1.07s-1.3,1.14-3.05,2.75c-.08.76,0,1.45,0,2.06h.15v.08Z"/>
      <g>
        <path class="cls-7" d="M19.36,8.49c.53-2.06,1.53-4.04,2.75-5.49-.23-.15-.31-.38-.53-.61.76-.46,1.83-.92,2.67-.99,4.73-.69,9.61,1.22,13.04,4.35,2.97,2.59,5.19,5.95,6.63,9.69,3.43,8.16,3.89,19.52-4.35,24.86-2.21,1.37-5.03,2.9-7.55,2.59-2.67-.31-4.8-2.14-6.33-4.42-2.75-4.19-4.73-9.61-6.1-14.41-1.22-5.03-1.75-10.45-.38-15.56h.15,0Z"/>
        <path class="cls-11" d="M31.26,53.1h0c2.82-.38,4.73-2.97,4.35-5.8l-1.37-9.84-8.08,1.07,1.68,11.97c.15,1.6,1.68,2.67,3.36,2.52h.08v.08Z"/>
        <path class="cls-5" d="M9.67,27.24c.08.99.23,1.98.46,2.82,0,.61.23,1.22.46,1.75.53,1.6.92,2.97,1.68,4.35.23.53.46.92.76,1.45,3.51,6.25,9,9.99,14.79,9.3,2.75-.31,5.26-1.68,7.24-3.81.53-.38.92-.92,1.3-1.45,3.36-4.5,5.11-11.06,4.12-18.23-1.6-11.9-9.61-20.67-18.15-19.6-1.22.15-2.44.53-3.58,1.07-6.41,3.2-10.37,12.35-9.07,22.5h-.08l.08-.15h0Z"/>
        <path class="cls-4" d="M34.84,43.11h.15c.53-.46.92-.92,1.3-1.53,3.36-4.5,5.11-11.06,4.12-18.15-1.6-11.9-9.61-20.67-18.15-19.6-1.22.15-2.44.53-3.58,1.07,7.32,4.27,20.67,16.55,16.17,38.28h0s0-.03,0-.08h0Z"/>
        <g>
          <path class="cls-8" d="M31.83,24.57c-.14,0-.36,0-.43-.29-1.51-2.96-4.18-1.73-4.33-1.66-.29,0-.58,0-.72-.29,0-.29,0-.58.29-.72,1.3-.58,4.11-.94,5.7,2.09,0,.29,0,.58-.14.72h-.29l-.07.14h0Z"/>
          <path class="cls-8" d="M15.9,22.19s-.29.14-.43,0c-2.6-1.01-3.68,1.23-3.68,1.3,0,.14-.36.29-.58.14-.14,0-.29-.36-.14-.58.43-1.08,2.09-2.81,4.76-1.73.14,0,.36.36.29.58v.14h-.14l-.07.14h0Z"/>
          <path class="cls-8" d="M28.66,26.66c0,1.01-.65,1.95-1.37,1.95s-1.44-.94-1.44-1.95.65-1.95,1.37-1.95,1.44.94,1.44,1.95Z"/>
          <path class="cls-8" d="M15.9,26.66c0,1.01-.65,1.95-1.37,1.95s-1.44-.94-1.44-1.95.65-1.95,1.37-1.95,1.44.94,1.44,1.95Z"/>
          <path class="cls-2" d="M26.71,37.83c0,.14-.72,2.96-3.46,3.39-2.67.36-4.11-.94-4.33-1.23"/>
          <path class="cls-6" d="M18.85,31.78c-.94.94-.94,2.31,0,3.17s2.31.94,3.17,0-1.66.14-2.6-.65c-.94-.94.14-3.39-.72-2.52h.14Z"/>
          <path class="cls-3" d="M11.43,29.54c.36,1.66.65,3.1,1.3,4.54.14.58.36,1.01.65,1.59.94-.65,1.37-1.8,1.3-2.96,0-1.66-1.44-2.96-3.1-3.1h-.14v-.07Z"/>
          <path class="cls-3" d="M31.18,29.4c-1.8,0-3.32,1.37-3.17,2.96s1.73,2.67,3.53,2.52,3.32-1.37,3.17-2.96-1.73-2.67-3.53-2.52Z"/>
        </g>
        <g>
          <path class="cls-5" d="M37.66,21.45c-.61,2.75.31,5.26,1.98,5.64s3.66-1.53,4.27-4.42c.61-2.9-.31-5.26-1.98-5.64s-3.66,1.53-4.27,4.42Z"/>
          <path class="cls-4" d="M37.66,21.45c-.61,2.75.31,5.26,1.98,5.64s3.66-1.53,4.27-4.42c.61-2.9-.31-5.26-1.98-5.64s-3.66,1.53-4.27,4.42Z"/>
        </g>
        <path class="cls-7" d="M10.74,33.35c-.92-4.58-1.53-9.91-.69-13.42.53-.92.23-.38.84-1.14.53-.46,1.83-.92,1.68-1.22,2.14,3.36,7.09,4.04,10.68,3.97-.84-.84-1.83-1.3-2.59-2.21s-1.3-2.06-1.83-3.05c4.42.92,9.15,3.2,13.8,2.14-1.22-.92-4.27-2.59-4.58-4.35,1.3,1.37,3.2,1.53,4.88,1.83,1.07.23,2.21.31,3.28.38,2.36,5.03,3.51,13.19,2.29,18.15,1.45-2.75,1.98-9.15.76-15.79-.23-1.37.31-2.52,1.22-3.43h0c.69-.61.84-1.6.84-2.52-.15-.84-.38-1.83-.84-2.59h.23c-1.37-2.59-3.58-4.58-6.02-6.1-1.6-.92-3.36-1.68-5.03-2.29-.92-.53-1.83-.84-2.9-1.22C22.18-1.35,9.44,1.93,6.39,12.91c-.92,3.05-1.75,5.95-.69,6.86,2.75,2.44,3.28-3.2,2.75,2.44-.08.92-.15,1.3,0,3.43"/>
      </g>
    </g>
  </g>
</svg>