<?xml version="1.0" encoding="UTF-8"?>
<svg id="Layer_2" data-name="Layer 2" xmlns="http://www.w3.org/2000/svg" viewBox="0 0 95.7 159.77">
  <defs>
    <style>
      .cls-1, .cls-2 {
        fill: #603813;
      }

      .cls-3 {
        fill: #273758;
      }

      .cls-4 {
        fill: #e6e6e6;
      }

      .cls-5 {
        fill: #c69696;
      }

      .cls-6 {
        fill: #d9a2a0;
      }

      .cls-7, .cls-2 {
        isolation: isolate;
        opacity: .5;
      }

      .cls-7, .cls-8 {
        fill: #d9baba;
      }

      .cls-9 {
        fill: #d9b6b6;
      }

      .cls-10 {
        fill: #466e9f;
      }

      .cls-11 {
        fill: none;
        stroke: #630;
        stroke-linecap: round;
        stroke-miterlimit: 10;
      }

      .cls-12 {
        fill: #d38a17;
      }
    </style>
  </defs>
  <g id="Layer_1-2" data-name="Layer 1">
    <g id="german-boy-right-kneeling">
      <g>
        <path class="cls-9" d="M54.36,131.07c-7-12.1-15.3-24.5-15.8-24.2l-4.4,2.5,11.1,27,8.2,20.3.4.8c0,.2.3.5.5.7,1.5,1.8,4.5,2.1,7,.8,2.5-1.4,3.7-4.3,2.8-6.6-.3-.5-.4-1.2-.6-1.8-1.3-4.7-5-12-9.4-19.4h0v-.2h.2v.1Z"/>
        <path class="cls-4" d="M47.16,119.07c-4.5-7.1-8.2-12.4-8.5-12.2l-4.4,2.5,5.5,13.3,7.5-3.6h-.1Z"/>
        <path class="cls-3" d="M40.76,104.87c0-.8-.5-1.7-1.2-2.1-.5-.4-19.5-3-20.1-2.9-4.4,1.4,14.7,9.4,14.7,9.4l5.3.3s1.4-3.7,1.2-4.7h.1Z"/>
        <path class="cls-9" d="M58.56,158.17c3.5,0,6.3-1.8,6.4-5.2l-.2-13.4.8-17.5v-.2c0-4.3-3.5-7.9-7.9-8.1-4.4,0-8.2,3.4-8.2,7.8l1.6,18.2,1.1,12.4c.3,3.3,3.1,5.9,6.3,5.9h.2l-.1.1Z"/>
        <path class="cls-10" d="M51.36,139.47l14.5-.2.5-17.5h0c0-4.3-4-8.2-8.4-8.4-4.4,0-12,3.9-12.1,8.4l5.4,17.7h.1Z"/>
      </g>
      <g>
        <path class="cls-9" d="M35.66,131.07c-7-12.1-15.3-24.5-15.8-24.2l-4.4,2.5,11.1,27,8.2,20.3.4.8c0,.2.3.5.5.7,1.5,1.8,4.5,2.1,7,.8,2.5-1.4,3.7-4.3,2.8-6.6-.3-.5-.4-1.2-.6-1.8-1.3-4.7-5-12-9.4-19.4h0v-.2h.2v.1Z"/>
        <path class="cls-4" d="M28.46,119.07c-4.5-7.1-8.2-12.4-8.5-12.2l-4.4,2.5,5.5,13.3,7.5-3.6h-.1Z"/>
        <path class="cls-3" d="M21.96,104.87c0-.8-.5-1.7-1.2-2.1-.5-.4-19.5-3-20.1-2.9-4.4,1.4,14.7,9.4,14.7,9.4l5.3.3s1.4-3.7,1.2-4.7h.1Z"/>
        <path class="cls-9" d="M40.16,157.77c3.5,0,6.1-1.1,6.1-4.4v-14.1l.8-17.5v-.2c0-4.3-3.5-7.9-7.9-8.1-4.4,0-8.2,3.4-8.2,7.8l1.6,18.2,1.1,13.7c.3,3.3,3,4.7,6.3,4.7h.2v-.1Z"/>
        <path class="cls-10" d="M31.86,139.47l14.5-.2,3.3-15-.4-3.1c0-4.3-5.6-7.5-10-7.7-4.4,0-8.2,3.4-8.2,7.8l.8,18.2h0Z"/>
      </g>
      <path class="cls-4" d="M64.76,98.97c0-7.3.3-14.6.7-22l.5-8.2c.3-5.6,3.6-14.9-7.4-15.9-2.1-1.3-4.5-2.7-4.5-2.7l-8.1-1.1-2.4,1.8-6.4,2.5c-2.4,1.8-2.5,6.3-2.3,9.3l-.7,25.9c0,1.6-.5,5.9-.6,7.6.3,0,2.1.6,4.4,1.2,9.5,2.3,17.3,3.4,26.5,1.5h.3v.1Z"/>
      <path class="cls-10" d="M66.56,117.57l-.2-8.8c-.3-2.1-.7-4.1-1.1-6.1-.2-1.4-.4-2.7-.5-4,0-.5-.2-1.1-.2-1.6-10,3-20.8,2.4-31-.8v1.4c.3,4-.2,7.9-1.4,11.7-.8,2.1-1.2,4.6-1.4,6.9-.5,6.1,1.1,10.7,1.1,10.7h0l14.9,5.9h4.3l15-5.9"/>
      <g id="arm51">
        <path class="cls-9" d="M23.56,80.24h0c1.52.1,2.71.91,3.58,2.12l15.85,23.98-6.52,3.04-17.16-21.35c-2.61-3.24,0-8.09,4.24-7.79h0Z"/>
        <path class="cls-9" d="M48,113.83l-5.32-7.79-6.52,3.04s0,.2.22.2c-2.93,8.3.43,12.95.43,12.95,3.15,4.65,4.78,3.95,5.54,2.63.54-.91.54-2.02.33-3.04-1.19-4.35,0-10.72,0-10.72,5.54,5.77,5.43,2.63,5.43,2.63h0l-.11.1Z"/>
        <path class="cls-9" d="M22.82,88.67h0c-3.51-.14-5.88-3.94-4.54-7.51l8.84-21.91c1.35-3.46,4.97-5.23,8.23-3.97h0c3.87,1.53,5.48,6.26,3.45,10.06l-11.29,20.72c-.92,1.74-2.78,2.83-4.68,2.71h0v-.1Z"/>
        <path class="cls-4" d="M30.04,55.02c-3,2.43-6.87,7.61-9.48,18.64l12.36,5.56s8.44-15.19,7.38-21.05c-.78-4.07-6.86-5.8-10.24-3.05h0v-.1Z"/>
      </g>
      <g id="arm52">
        <path class="cls-9" d="M70.59,79.23h0c-.94,1.17-1.11,2.62-.66,4.19l8.42,28.72,6.71-2.54-5.59-27.85c-.85-4.28-6.37-5.87-8.95-2.44l.07-.08h0Z"/>
        <path class="cls-9" d="M80.91,121.04l-2.58-9.51,6.71-2.54s.16.15.01.3c8.48,3.74,10,9.51,10,9.51,1.59,5.54-.05,6.36-1.58,5.97-1.07-.26-2.01-.98-2.58-1.94-2.66-4.06-8.41-7.76-8.41-7.76.86,8.21-1.51,5.74-1.51,5.74l-.15.16.08.07Z"/>
        <path class="cls-9" d="M74.75,88.21h0c3.62-.19,5.94-3.97,4.54-7.55l-8.95-22.05c-1.3-3.48-5-5.3-8.28-3.98h0c-3.89,1.48-5.47,6.3-3.39,10.12l11.32,20.79c1,1.76,2.75,2.76,4.75,2.68h0Z"/>
        <path class="cls-4" d="M67.58,54.34c3.06,2.48,6.87,7.71,9.44,18.77l-12.44,5.49s-8.53-15.32-7.4-21.06c.73-4.06,6.95-5.81,10.3-3.11h0l.11-.09Z"/>
      </g>
      <path class="cls-10" d="M56.96,55.07c-.4,3.6-4.4,5.6-7.5,3.7-3.1-1.8-5-5.2-5.9-7.8l2.4-1.8,8.1,1.1s1.3,1.1,3.1,2.7v2.1h-.2,0Z"/>
      <g>
        <path class="cls-12" d="M62.56,8.37c-.5-2.1-1.5-4-2.7-5.5.2-.2.3-.4.5-.6-.8-.5-1.8-.9-2.7-1-4.7-.7-9.6,1.2-13,4.3-3,2.6-5.2,5.9-6.6,9.7-3.4,8.2-3.9,19.5,4.3,24.9,2.2,1.4,5,2.9,7.5,2.6,2.7-.3,4.8-2.1,6.3-4.4,2.7-4.2,4.7-9.6,6.1-14.4,1.2-5,1.8-10.4.4-15.6h-.2.1Z"/>
        <path class="cls-5" d="M50.66,52.97h0c-2.8-.4-4.7-3-4.3-5.8l1.4-9.8,8.1,1.1-1.7,12c-.2,1.6-1.7,2.7-3.4,2.5h-.1Z"/>
        <path class="cls-8" d="M72.26,27.17c0,1-.2,2-.5,2.8,0,.6-.2,1.2-.5,1.8-.5,1.6-.9,3-1.7,4.3-.2.5-.5.9-.8,1.4-3.5,6.3-9,10-14.8,9.3-2.7-.3-5.3-1.7-7.2-3.8-.5-.4-.9-.9-1.3-1.4-3.4-4.5-5.1-11.1-4.1-18.2,1.6-11.9,9.6-20.7,18.1-19.6,1.2.2,2.4.5,3.6,1.1,6.4,3.2,10.4,12.4,9.1,22.5h0v-.2h.1Z"/>
        <path class="cls-7" d="M47.06,42.97h-.2c-.5-.5-.9-.9-1.3-1.5-3.4-4.5-5.1-11.1-4.1-18.1,1.6-11.9,9.6-20.7,18.1-19.6,1.2.2,2.4.5,3.6,1.1-7.3,4.3-20.7,16.5-16.2,38.3h0v-.2h.1Z"/>
        <g>
          <path class="cls-1" d="M50.06,24.47s.4,0,.4-.3c1.5-3,4.2-1.7,4.3-1.7.3,0,.6,0,.7-.3,0-.3,0-.6-.3-.7-1.3-.6-4.1-.9-5.7,2.1v.7h.4c0,.1.2.2.2.2h0Z"/>
          <path class="cls-1" d="M65.96,22.07s.3.1.4,0c2.6-1,3.7,1.2,3.7,1.3s.4.3.6.1c0,0,.3-.4,0-.6-.4-1.1-2.1-2.8-4.8-1.7,0,0-.4.4-.3.6h0c0,.2.2.3.2.3h.2,0Z"/>
          <path class="cls-1" d="M53.26,26.57c0,1,.6,1.9,1.4,1.9s1.4-.9,1.4-1.9-.6-1.9-1.4-1.9-1.4.9-1.4,1.9Z"/>
          <path class="cls-1" d="M65.96,26.57c0,1,.6,1.9,1.4,1.9s1.4-.9,1.4-1.9-.6-1.9-1.4-1.9-1.4.9-1.4,1.9Z"/>
          <path class="cls-11" d="M55.16,37.77c0,.1.7,3,3.5,3.4,2.7.4,4.1-.9,4.3-1.2"/>
          <path class="cls-2" d="M63.06,31.67c.9.9.9,2.3,0,3.2s-2.3.9-3.2,0,1.7.1,2.6-.6c.9-.9,0-3.4.7-2.5h0l-.1-.1Z"/>
          <path class="cls-6" d="M70.46,29.47c-.4,1.7-.6,3.1-1.3,4.5,0,.6-.4,1-.6,1.6-.9-.6-1.4-1.8-1.3-3,0-1.7,1.4-3,3.1-3.1h.1Z"/>
          <path class="cls-6" d="M50.76,29.27c1.8,0,3.3,1.4,3.2,3s-1.7,2.7-3.5,2.5-3.3-1.4-3.2-3,1.7-2.7,3.5-2.5Z"/>
        </g>
        <g>
          <path class="cls-8" d="M44.26,21.37c.6,2.7-.3,5.3-2,5.6s-3.7-1.5-4.3-4.4.3-5.3,2-5.6,3.7,1.5,4.3,4.4Z"/>
          <path class="cls-7" d="M44.26,21.37c.6,2.7-.3,5.3-2,5.6s-3.7-1.5-4.3-4.4.3-5.3,2-5.6,3.7,1.5,4.3,4.4Z"/>
        </g>
        <path class="cls-12" d="M71.16,33.27c.9-4.6,1.5-9.9.7-13.4-.5-.9-.2-.4-.8-1.1-.5-.5-1.8-.9-1.7-1.2-2.1,3.4-7.1,4-10.7,4,.8-.8,1.8-1.3,2.6-2.2s1.3-2.1,1.8-3.1c-4.4.9-9.2,3.2-13.8,2.1,1.2-.9,4.3-2.6,4.6-4.3-1.3,1.4-3.2,1.5-4.9,1.8-1.1.2-2.2.3-3.3.4-2.4,5-3.5,13.2-2.3,18.1-1.4-2.7-2-9.2-.8-15.8.2-1.4-.3-2.5-1.2-3.4h0c-.7-.6-.8-1.6-.8-2.5.2-.8.4-1.8.8-2.6h-.2c1.4-2.6,3.6-4.6,6-6.1,1.6-.9,3.4-1.7,5-2.3.9-.5,1.8-.8,2.9-1.2,4.6-1.8,17.3,1.4,20.4,12.4.9,3.1,1.8,5.9.7,6.9-2.7,2.4-3.3-3.2-2.7,2.4,0,.9.2,1.3,0,3.4"/>
      </g>
    </g>
  </g>
</svg>