<?xml version="1.0" encoding="UTF-8"?>
<svg id="Layer_2" data-name="Layer 2" xmlns="http://www.w3.org/2000/svg" viewBox="0 0 106.05 297.9">
  <defs>
    <style>
      .cls-1 {
        stroke: #282828;
        stroke-width: .78px;
      }

      .cls-1, .cls-2 {
        fill: none;
        stroke-linecap: round;
        stroke-miterlimit: 10;
      }

      .cls-3 {
        fill: #dd4a43;
      }

      .cls-4 {
        fill: #e0a587;
      }

      .cls-5 {
        fill: #bf3d3d;
      }

      .cls-6, .cls-7 {
        fill: #603813;
      }

      .cls-8 {
        fill: #d38d26;
      }

      .cls-9 {
        fill: #d9a2a0;
      }

      .cls-10 {
        fill: #243d66;
      }

      .cls-11 {
        fill: #9e3535;
      }

      .cls-12 {
        fill: #752c46;
      }

      .cls-13 {
        fill: #6c3231;
      }

      .cls-14 {
        fill: #892e2e;
      }

      .cls-15 {
        fill: #db9673;
      }

      .cls-7 {
        isolation: isolate;
        opacity: .5;
      }

      .cls-16 {
        fill: #f6a821;
      }

      .cls-17 {
        fill: #b23b3b;
      }

      .cls-2 {
        stroke: #630;
      }
    </style>
  </defs>
  <g id="Layer_1-2" data-name="Layer 1">
    <g id="german-man-firefighter">
      <g>
        <path class="cls-16" d="M21.58,277.43l-1.38,8.02s-18.58-.68-20.2,9.45c3.96,1.81,27.92,5.61,40.02.21-.61-11.23-.61-18.51-.61-18.51"/>
        <path class="cls-16" d="M83.78,274.91l2.07,10.54s18.58-.68,20.2,9.45c-3.96,1.81-27.92,5.61-40.02.21.61-11.23.61-18.51.61-18.51"/>
        <path class="cls-8" d="M1.62,291.42s-.09-.02-.13-.03c-.74,1-1.27,2.16-1.49,3.52,3.96,1.81,27.92,5.61,40.02.21-.08-1.43-.14-2.79-.2-4.08-12.52,3.17-25.64,3.33-38.2.38Z"/>
        <path class="cls-8" d="M39.41,276.61l-3.49.16c-.33,2.34-.06,5.24.1,7.29.11,1.35.32,2.8,1.16,3.77.66.77,1.58,1.09,2.55,1.18-.32-7.69-.32-12.4-.32-12.4Z"/>
        <path class="cls-8" d="M66.64,276.61l3.49.16c.33,2.34.06,5.24-.1,7.29-.11,1.35-.32,2.8-1.16,3.77-.66.77-1.58,1.09-2.55,1.18.31-7.69.32-12.4.32-12.4Z"/>
        <path class="cls-8" d="M104.44,291.42s.09-.02.13-.03c.74,1,1.27,2.16,1.49,3.52-3.96,1.81-27.92,5.61-40.02.21.08-1.43.14-2.79.2-4.08,12.52,3.17,25.64,3.33,38.2.38Z"/>
        <g>
          <path class="cls-8" d="M19.58,284.97c2.34-.47,4.64-.33,6.94.38.8.25,1.14-1.16.34-1.41-2.52-.78-5.05-.9-7.62-.38-.82.16-.47,1.57.34,1.41h0Z"/>
          <path class="cls-8" d="M86.82,283.57c-2.57-.52-5.1-.4-7.62.38-.8.25-.46,1.66.34,1.41,2.29-.71,4.6-.85,6.94-.38.81.16,1.16-1.24.34-1.41h0Z"/>
          <path class="cls-8" d="M20.19,281.72c2.38-.75,4.74-.2,7.1.41.81.21,1.15-1.2.34-1.41-2.59-.67-5.17-1.23-7.78-.41-.8.25-.46,1.66.34,1.41h0Z"/>
          <path class="cls-8" d="M86.21,280.31c-2.61-.82-5.2-.26-7.78.41-.81.21-.47,1.62.34,1.41,2.36-.61,4.71-1.16,7.1-.41.8.25,1.14-1.16.34-1.41h0Z"/>
        </g>
      </g>
      <g>
        <path class="cls-4" d="M78.78,123.57l9.88-2.02c0,.06-3.84-24.06-3.84-24.06-.23-1.54-3.24-2.35-6.79-1.87h0c-3.55.54-6.43,2.19-6.2,3.67,0,0,6.95,24.29,6.95,24.29Z"/>
        <path class="cls-4" d="M85.26,167.12l5.85-.57c.01.11-2.33-44.16-2.33-44.16-.27-2.75-2.73-4.75-5.56-4.58h0c-2.83.28-5.06,2.63-4.8,5.27,0,0,6.85,44.04,6.85,44.04Z"/>
        <path class="cls-4" d="M85.95,180.07l.04,4.58c.05,2.56,3.64,3.38,5.05,1.32.44-.68.75-1.57,1.06-2.56s.24-.66,0,0c.63-2.84.45-6.77-.54-11.68l-.58-5.92h0l-5.99.37h0l.37,3.8-2.54,12.09s.01,4.27,3.12-2.01Z"/>
      </g>
      <g>
        <path class="cls-4" d="M18.6,123.27l-9.88-2.02c0,.06,3.84-24.06,3.84-24.06.23-1.54,3.24-2.35,6.8-1.87h0c3.55.54,6.43,2.19,6.2,3.67,0,0-6.96,24.28-6.96,24.28Z"/>
        <path class="cls-4" d="M12.11,166.82l-5.85-.57c-.01.11,2.34-44.16,2.34-44.16.27-2.75,2.73-4.75,5.57-4.58h0c2.83.28,5.06,2.63,4.8,5.27,0,0-6.86,44.04-6.86,44.04Z"/>
        <path class="cls-4" d="M11.41,179.77l-.05,4.58c-.05,2.56-3.65,3.38-5.05,1.32-.44-.68-.75-1.57-1.06-2.56s-.24-.66,0,0c-.63-2.84-.44-6.77.54-11.68l.58-5.92h0l5.99.37h0l-.37,3.8,2.54,12.09s-.01,4.27-3.12-2.01Z"/>
      </g>
      <g>
        <path class="cls-5" d="M24.86,148.57l-5.87,128.25s13.94,3.85,22.54.37c1.44-18.4,4.71-118.72,4.71-118.72h3.15s15.63,120.2,15.63,120.2c0,0,13.23-.86,19.54-4.12-1.69-16.54-10.88-127.61-10.88-127.61"/>
        <path class="cls-3" d="M26.21,100.76l-3.39,47.34s29.74,5.87,52.6-1.16c-3.3-20.89-4.7-47.74-4.7-47.74,0,0,10.42,42.3,11.32,62.26,9.55-.98,10.59-1.69,10.59-1.69,0,0,1.3-68.86-18.81-88.41-.85-.83-1.84-1.48-2.89-1.94-9.18-3.99-13.76-5.78-13.76-5.78v-6.36s-11.2,0-11.2,0l-.52,6.96s-13.76-.7-19.74,6.41"/>
        <path class="cls-3" d="M27.65,98.54s-10.42,41.14-11.32,60.54c-9.55-.95-10.59-1.64-10.59-1.64,0,0-1.3-66.96,18.81-85.97.85-.81,1.84-1.44,2.89-1.88"/>
        <g>
          <path class="cls-16" d="M76.12,176.55h-24.4l1.34,10.29h23.92c-.3-3.57-.59-7.01-.86-10.29Z"/>
          <path class="cls-16" d="M23.1,186.83h22.17c.13-3.68.25-7.14.35-10.29h-22.05l-.47,10.29Z"/>
        </g>
        <g>
          <path class="cls-16" d="M77.12,188.54h-23.84l.39,2.99h23.7c-.08-1-.17-2-.25-2.99Z"/>
          <path class="cls-16" d="M22.89,191.53h22.22c.04-1.01.07-2,.1-2.99h-22.19l-.14,2.99Z"/>
        </g>
        <g>
          <path class="cls-16" d="M82.84,255.88h-20.81l.44,3.4h20.66c-.1-1.1-.2-2.23-.3-3.4Z"/>
          <path class="cls-16" d="M19.78,259.28h22.71c.05-1.1.1-2.24.15-3.4h-22.71l-.16,3.4Z"/>
        </g>
        <g>
          <path class="cls-16" d="M81.87,244.61h-21.3l1.23,9.49h20.88c-.26-2.97-.53-6.15-.82-9.49Z"/>
          <path class="cls-16" d="M20.02,254.1h22.7c.13-3.01.26-6.19.4-9.49h-22.67l-.43,9.49Z"/>
        </g>
        <path class="cls-16" d="M91.67,162.51l-8.91.61c-1.46.1-2.71-1.16-2.8-2.81l-.06-1.12c-.09-1.65,1.02-3.07,2.48-3.17l8.91-.61c1.46-.1,2.71,1.16,2.8,2.81l.06,1.12c.09,1.65-1.02,3.07-2.48,3.17Z"/>
        <path class="cls-11" d="M49.35,149.77c-.23,0-.42-.21-.43-.47-.4-18.11,1.61-91.11,1.63-91.84,0-.26.2-.47.43-.47,0,0,0,0,.01,0,.24,0,.42.23.42.5-.02.74-2.02,73.7-1.63,91.79,0,.27-.18.49-.42.5,0,0,0,0-.01,0Z"/>
        <g>
          <path class="cls-14" d="M75.62,170.54c-.02-.23-.04-.47-.06-.7-5.55-5.72-9.48-14.08-8.88-22.66h-.43c-.63,8.91,3.56,17.54,9.37,23.37Z"/>
          <path class="cls-14" d="M23.7,173.7l-.04.9c4.91-7.8,8.66-16.59,7.94-26.26h-.43c.71,9.31-2.81,17.8-7.48,25.36Z"/>
          <path class="cls-14" d="M41.3,158.59c4.97.3,9.94.22,14.9-.23.27-.03.28-.51,0-.49-4.96.46-9.93.54-14.9.23-.28-.02-.28.47,0,.49h0Z"/>
          <path class="cls-14" d="M44.1,149.52c.24,3.03.61,6.04,1.09,9.03.05.31.46.18.41-.13-.47-2.95-.83-5.91-1.07-8.9-.02-.31-.45-.31-.43,0h0Z"/>
          <path class="cls-14" d="M50.26,158.11c.38-3.31.63-6.64.76-9.98.01-.31-.42-.31-.43,0-.12,3.34-.38,6.67-.76,9.98-.04.31.39.31.43,0h0Z"/>
        </g>
        <path class="cls-16" d="M75.41,146.94c-.23-1.48-.46-2.99-.67-4.52-2.84,1.09-5.91,1.44-8.91,1.72-14.2,1.32-28.57,1.53-42.69-.48l-.32,4.44s29.74,5.87,52.6-1.16Z"/>
        <polygon class="cls-16" points="70.71 93.53 27.08 93.53 27.76 85.95 70.08 85.95 70.71 93.53"/>
        <polygon class="cls-16" points="70.62 97.63 26.58 97.63 26.87 95.25 70.54 95.55 70.62 97.63"/>
        <path class="cls-16" d="M71.64,112.87H25.34l-.54,7.59h47.48c-.24-2.69-.45-5.24-.64-7.59Z"/>
        <path class="cls-16" d="M72.46,122.47H24.65l-.15,2.08h48.15c-.07-.7-.13-1.39-.2-2.08Z"/>
        <path class="cls-16" d="M91.33,128.5l-13.7,2.24c.47,2.41.92,4.84,1.35,7.26l12.93-2.11c-.16-2.37-.35-4.85-.58-7.39Z"/>
        <path class="cls-16" d="M90.9,124.13l-14.12,2.31c.17.84.34,1.68.5,2.53l13.88-2.27c-.08-.85-.17-1.71-.26-2.57Z"/>
        <path class="cls-16" d="M6.7,160.11l8.91.61c1.46.1,2.71-1.16,2.8-2.81l.06-1.12c.09-1.65-1.02-3.07-2.48-3.17l-8.91-.61c-1.46-.1-2.71,1.16-2.8,2.81l-.06,1.12c-.09,1.65,1.02,3.07,2.48,3.17Z"/>
        <path class="cls-16" d="M7.05,126.09l13.7,2.24c-.47,2.41-.92,4.84-1.35,7.26l-12.93-2.11c.16-2.37.35-4.85.58-7.39Z"/>
        <path class="cls-16" d="M7.48,121.72l14.12,2.31c-.17.84-.34,1.68-.5,2.53l-13.88-2.27c.08-.85.17-1.71.26-2.57Z"/>
      </g>
      <path class="cls-3" d="M67.17,35.23h-34.39v-14.11c0-10.52,7.52-19.05,16.8-19.05h.78c9.28,0,16.8,8.53,16.8,19.05v14.11h0Z"/>
      <path class="cls-11" d="M73.6,22.76c-3.84-5.24-12.68-8.66-21.77-9.07v-.03c-.51-.02-1.01-.02-1.52-.01-.51,0-1.01,0-1.52.01v.03c-9.09.41-17.93,3.83-21.77,9.07-10.66,15.39-2.36,30.61,7.9,37.74,6.01,4.18,12.66,4.38,12.66,4.38l2.73-7.05,3.92,6.68s5.47.17,11.48-4.01c10.26-7.13,18.55-22.34,7.9-37.74Z"/>
      <g>
        <rect class="cls-15" x="45.38" y="59.07" width="10.2" height="8.31"/>
        <path class="cls-16" d="M54.16,72.28h-6.73c-1.32,0-2.38-1.21-2.38-2.7v-.13c0-1.49,1.07-2.7,2.38-2.7h6.73c1.32,0,2.38,1.21,2.38,2.7v.13c0,1.49-1.07,2.7-2.38,2.7Z"/>
        <path class="cls-4" d="M66.88,38.87c-.8-.4-1.9,0-2.9.6-.9-9.5-7-16.9-14.4-16.9s-13.7,7.6-14.5,17.4c-1.1-1-2.4-1.5-3.4-1-1.3.6-1.5,2.4-.4,4.1,1,1.6,2.7,2.5,4,2.1,1.1,9.2,7.1,16.2,14.4,16.2s13.2-7,14.4-16.2c1.2,0,2.5-.9,3.4-2.2,1.1-1.7.9-3.5-.4-4.1,0,0-.2,0-.2,0Z"/>
        <g>
          <path class="cls-6" d="M60.58,36.77c-.2,0-.3,0-.4-.2-1.6-2.8-4.1-1.7-4.2-1.7-.2,0-.5,0-.7-.2,0-.2,0-.5.2-.7,1.3-.5,4-.9,5.6,2.1,0,.2,0,.5-.2.7h-.3Z"/>
          <path class="cls-6" d="M39.68,36.77c.2,0,.3,0,.4-.2,1.6-2.8,4.1-1.7,4.2-1.7.2,0,.5,0,.7-.2,0-.2,0-.5-.2-.7-1.3-.5-4-.9-5.6,2.1,0,.2,0,.5.2.7,0,0,.3,0,.3,0Z"/>
          <path class="cls-6" d="M42.88,38.77c0,.9.6,1.9,1.4,1.9s1.5-.9,1.5-1.9-.6-1.9-1.4-1.9-1.5.9-1.5,1.9Z"/>
          <path class="cls-6" d="M55.38,38.77c0,.9.6,1.9,1.4,1.9s1.5-.9,1.5-1.9-.6-1.9-1.4-1.9-1.5.9-1.5,1.9Z"/>
          <path class="cls-2" d="M45.48,50.67c.2.2,1.4,2.8,4.5,2.7,3.1,0,4.3-2.4,4.5-2.7"/>
          <path class="cls-13" d="M41.38,49.77c.7-1.1,2.5-1.8,4.4-2.1s3.8-.4,5.7,0c1.5.2,3.2.7,4.4,1.2.3,0,.7.3.8.6.2.5-.6.6-1.2.7-4.6.5-8.9.7-13.5,0"/>
          <path class="cls-7" d="M52.08,44.57c0,1.3-.9,2.2-2.2,2.2s-2.2-.9-2.2-2.2.9,1.3,2.2,1.3,2.2-2.5,2.2-1.3Z"/>
          <path class="cls-9" d="M60.78,41.57c1.8,0,3.3,1.4,3.2,2.8s-1.7,2.6-3.6,2.5-3.3-1.4-3.2-2.8,1.7-2.6,3.6-2.5Z"/>
          <path class="cls-9" d="M40.18,41.57c1.8,0,3.3,1.4,3.2,2.8s-1.7,2.6-3.6,2.5-3.3-1.4-3.2-2.8,1.7-2.6,3.6-2.5Z"/>
        </g>
      </g>
      <g>
        <line class="cls-1" x1="33.95" y1="37.85" x2="39.02" y2="45.66"/>
        <path class="cls-1" d="M35.62,47.6s1.8,5.26,2.86,7.99"/>
        <line class="cls-1" x1="64.94" y1="38.03" x2="59.81" y2="45.66"/>
        <path class="cls-1" d="M63.73,47.68s-2.32,5.19-3.38,7.91"/>
        <path class="cls-10" d="M49.42,61.86s4.9.03,11.12-6.27l-.3-10.36-10.82-2.49-10.82,2.49-.3,10.36c6.22,6.3,11.12,6.27,11.12,6.27Z"/>
      </g>
      <path class="cls-13" d="M66.58,22.27c.6-.3,2.5-.5,1.9-1.3-.9-1.2-4-.4-5.4-.3.6-.4,1.6-.7,1.1-1.4-1.1-1.6-4.6-.7-6.3-.5.7-.7.5-1.4-.6-1.6-2.1-.5-4.4.2-6.3.8-.4-1.4-1.5-1.6-3.3-1.2-.9.2-1.5.7-2.3.9-.7.2-.5.2-.8-.2-1-1.1-1.5-1.6-3.2-1.1-2.1.6-2.8,1.7-3.9,3-.6-.4-1.7-.9-2.3,0-.5.7.3,1.8.8,2.4-1,.3-1.8.3-1.8,1.5s1.4,2.5.5,3c-1.2.6-2.6,0-2.3,1.7.2,1.4,1.6,2.3,1.7,3.7-.6,0-1.8,0-2.3.4-1.1.6-.3,1.9.3,2.5s2,1.4,1.6,2c-.3.4-1.5,0-1.9.6s0,2,.3,2.5c.2.5,1.5,1.3,1.5,1.7s-.9.7-1,1.2c0,.6.2,1.1.6,1.6.5.5.2,2.7,3.2,2,.6,0,2.2-1.8,1.8-2.2s-.7-.4-.8-.5c-.3-.5,1.2-4.5-.7-4,1.7-.8,3.5-3.8,1-4.8.8-.6,1.7-1.1,1.9-2.1,0-.5,0-1.3-.3-1.7-.2-.4-.6-.5-.9-.9,1-.5,3.9-1.6,3.6-2.7,1.2,0,2.7-.5,3.7-.9,0,0,.7-.4,1.1-.7.4.5,1.3.7,1.9.8,1,.2,3.7.2,4.9-.5.3,0,.7.2.8.2.8.2,2.4.2,3.2,0,.4.6,1.5,1.7,1.8,2.1.3.4.6,1.2,1.1,1.6,0,1.4.5,2.9,1,4.2,0,.2.4.7.4.9,0,.3-.8.8-.9,1.2-.4,1.1.3,2.3.5,3.3,0,.7-.2,1.3,0,2,0,.8.7,3.8,2.1,3.4,1.7-.4,0-2,.3-2.7,0-.4.6-.7.8-1,.6-.6,1.1-1.3,1.4-2.1.5-1.1.6-2-.4-2.8.8-1.1,4.1-3.8.9-4.4,1.5-1.3.7-4.5-.9-5.6,1.1-.5,2.8-1,3.2-2.1.5-1.2-1.2-1.8-2.4-1.7v-.2s.1,0,.1,0Z"/>
      <g>
        <path class="cls-12" d="M64.56,10.24c-9.41-6.1-17.56-5.39-23.05-3.43-2.24.8-4.18,1.83-5.81,2.88-.34.58-.66,1.18-.95,1.8,1.82-1.33,4.2-2.76,7.04-3.77,5.56-1.97,13.92-2.63,23.6,4.21-.25-.58-.53-1.15-.84-1.7Z"/>
        <path class="cls-16" d="M50.95,0h-1.94c-1.5,0-2.72,1.38-2.72,3.09v11.71h7.39V3.09c0-1.71-1.22-3.09-2.72-3.09Z"/>
        <ellipse class="cls-17" cx="49.98" cy="7.14" rx="4.44" ry="5.03"/>
        <ellipse class="cls-16" cx="49.98" cy="7.14" rx="3.3" ry="3.74"/>
        <path class="cls-17" d="M27.02,27.81c3.84-5.11,12.68-8.45,21.77-8.85v-.02c.51-.01,1.01-.02,1.52-.01.51,0,1.01,0,1.52.01v.02c9.09.4,17.93,3.74,21.77,8.85,2.97,4.18,4.46,8.34,4.86,12.32.52-5.26-.78-10.98-4.86-16.72-3.84-5.11-12.68-8.45-21.77-8.85v-.02c-.51-.01-1.01-.02-1.52-.01-.51,0-1.01,0-1.52.01v.02c-9.09.4-17.93,3.74-21.77,8.85-4.08,5.74-5.38,11.46-4.86,16.72.4-3.98,1.89-8.15,4.86-12.32Z"/>
      </g>
    </g>
  </g>
</svg>