<?xml version="1.0" encoding="UTF-8"?>
<svg id="Ebene_2" data-name="Ebene 2" xmlns="http://www.w3.org/2000/svg" viewBox="0 0 232.16 248.52">
  <defs>
    <style>
      .cls-1 {
        fill: #d9b6b6;
      }

      .cls-2 {
        fill: #e22b07;
      }

      .cls-3 {
        fill: none;
        stroke: #630;
        stroke-linecap: round;
        stroke-miterlimit: 10;
      }

      .cls-4 {
        fill: #606060;
      }

      .cls-5 {
        fill: #d9a2a0;
      }

      .cls-6, .cls-7 {
        fill: #d9baba;
      }

      .cls-6, .cls-8 {
        isolation: isolate;
        opacity: .5;
      }

      .cls-9 {
        fill: #bfbfbf;
      }

      .cls-10 {
        fill: #d38a17;
      }

      .cls-11 {
        fill: #444;
      }

      .cls-12 {
        fill: #2b2b2b;
      }

      .cls-13, .cls-8 {
        fill: #603813;
      }

      .cls-14 {
        fill: #273758;
      }

      .cls-15 {
        fill: #9e9e9e;
      }

      .cls-16 {
        fill: #ff4c22;
      }

      .cls-17 {
        fill: #466e9f;
      }

      .cls-18 {
        fill: #c69696;
      }

      .cls-19 {
        fill: #e6e6e6;
      }
    </style>
  </defs>
  <g id="Layer_1" data-name="Layer 1">
    <g id="german-boy-bike">
      <g>
        <path class="cls-1" d="M137.45,96.41h0c3.03,1.66,6.84-.4,7.54-4.14l3.76-23.55c.61-3.67-1.44-7.09-4.8-7.73h0c-3.97-.66-7.6,2.66-7.86,7.01l-1.09,23.69c-.17,1.97.9,3.85,2.44,4.79h0v-.07Z"/>
        <path class="cls-19" d="M150.23,62.17c.64,3.55.74,9.78-2.48,18.67-.33.93-1.39,1.28-2.43.93-2.64-.93-7.76-2.44-11.43-1.45-1.12.25-2.29-.6-2.1-1.65,1.06-6.32,4.03-21.24,11.77-21.71,3.2-.18,6.06,2.23,6.59,5.2h0l-.02.07h0l.1-.05h0Z"/>
        <path class="cls-1" d="M136.6,91.42h0c-1.2.66-2.07,1.66-2.16,2.99l-3.72,26.16,6.78.63,5.96-24.39c.91-3.72-3.37-7.16-6.87-5.39h0Z"/>
        <path class="cls-1" d="M138.7,127.94l-.67-8.64-6.63-.17-.23.39c-6.33,5.68-5.85,11.1-5.85,11.1.35,5.17,2.02,5.2,3.34,4.48.92-.51,1.47-1.42,1.68-2.36,1.07-4.14,5.05-9.02,5.05-9.02,1.78,7.08,3.25,4.34,3.25,4.34l.08-.13Z"/>
      </g>
      <path class="cls-19" d="M139.39,123.53c5.47,1.82,11.47,2.43,17.32,1.9,5.85-.53,8.28-1.29,12.15-2.89l5.16-1.97s-.23-9.11-2.89-15.42c-2.2-5.16-2.66-10.71-1.82-16.25l3.87-24.68c.38-2.81-.76-5.47-3.19-7.29l-3.34-2.51h0l-4.1-3.19-8.58.76s-2.28,1.44-4.94,3.72c-.61.53-1.22,1.06-1.82,1.59-3.42,3.19-6.99,7.44-6.99,11.32v7.59c0,10.4-.38,20.66-1.67,30.99-.46,3.57-.3,7.82.91,16.25h0v.08h-.08Z"/>
      <path class="cls-17" d="M148.88,55.86c.15,1.14.68,2.05,1.22,2.89,1.29,1.82,3.57,2.66,5.7,2.51,5.39-.38,8.73-3.34,10.71-6.68h0l-4.1-3.19-8.58.76s-2.28,1.44-4.94,3.72h-.08v.08l.08-.08h0Z"/>
      <g>
        <path class="cls-18" d="M157.23,55.5h0c3.11-.3,5.32-2.96,5.09-6.15l-.91-10.4-8.58.76,1.14,12.99c.15,1.75,1.59,2.96,3.27,2.81h0Z"/>
        <path class="cls-10" d="M148.27,7.43c.68-2.2,1.75-4.18,3.19-5.77-.23-.15-.3-.46-.53-.61.84-.46,1.9-.84,2.89-.91,5.01-.46,10.03,1.82,13.67,5.24,3.04,2.89,5.16,6.68,6.61,10.63,3.27,8.81,3.11,21.04-5.7,26.35-2.35,1.37-5.47,2.81-8.2,2.35-2.81-.46-4.94-2.51-6.46-5.01-2.81-4.63-4.63-10.48-5.62-15.72-1.14-5.39-1.37-11.24.3-16.56h-.15Z"/>
        <path class="cls-7" d="M137.87,26.41c.08,1.06.15,2.13.38,3.04,0,.68.23,1.37.38,1.9.46,1.59.91,3.19,1.52,4.71.23.53.46.99.68,1.44,3.34,6.84,9.11,11.09,15.19,10.56,2.96-.23,5.54-1.52,7.9-3.65.53-.46.99-.91,1.37-1.44,3.8-4.56,5.85-11.54,5.24-19.29-1.14-12.76-9.19-22.56-18.23-21.72-1.29.15-2.66.46-3.8.99-6.99,3.04-11.54,12.68-10.63,23.54h0v-.08h0Z"/>
        <g>
          <path class="cls-13" d="M159.74,25.35c-.15,0-.38,0-.46-.3-1.59-3.11-4.4-1.82-4.56-1.75-.3,0-.61,0-.76-.3,0-.3,0-.61.3-.76,1.37-.61,4.33-.99,6,2.2,0,.3,0,.61-.15.76h-.3v.08l-.08.08h0Z"/>
          <path class="cls-13" d="M142.96,22.84s-.3.15-.46,0c-2.73-1.06-3.87,1.29-3.87,1.37,0,.15-.38.3-.61.15-.15,0-.3-.38-.15-.61.46-1.14,2.2-2.96,5.01-1.82.15,0,.38.38.3.61v.15h-.15v.08l-.08.08h0Z"/>
          <path class="cls-13" d="M156.4,27.55c0,1.06-.68,2.05-1.44,2.05s-1.52-.99-1.52-2.05.68-2.05,1.44-2.05,1.52.99,1.52,2.05Z"/>
          <path class="cls-13" d="M142.96,27.55c0,1.06-.68,2.05-1.44,2.05s-1.52-.99-1.52-2.05.68-2.05,1.44-2.05,1.52.99,1.52,2.05Z"/>
          <path class="cls-3" d="M154.35,39.32c0,.15-.76,3.11-3.65,3.57-2.81.38-4.33-.99-4.56-1.29"/>
          <path class="cls-8" d="M146.07,32.94c-.99.99-.99,2.43,0,3.34s2.43.99,3.34,0-1.75.15-2.73-.68c-.99-.99.15-3.57-.76-2.66h.15Z"/>
          <path class="cls-5" d="M138.25,30.59c.38,1.75.68,3.27,1.37,4.78.15.61.38,1.06.68,1.67.99-.68,1.44-1.9,1.37-3.11,0-1.75-1.52-3.11-3.27-3.27h-.08v-.08h-.08,0Z"/>
          <path class="cls-5" d="M159.06,30.44c-1.9,0-3.49,1.44-3.34,3.11s1.82,2.81,3.72,2.66,3.49-1.44,3.34-3.11-1.82-2.81-3.72-2.66Z"/>
        </g>
        <path class="cls-6" d="M163.69,44.56h.15c.53-.46.99-.99,1.37-1.52,3.8-4.56,5.85-11.54,5.24-19.29-1.14-12.76-9.19-22.56-18.23-21.72-1.29.15-2.66.46-3.8.99,7.44,5.01,21.11,18.61,15.19,41.62h0v-.08h.08Z"/>
        <path class="cls-10" d="M169.39,25.65l2.13-5.39,2.58,3.72-.23,11.54-7.44,6.23c3.72-8.89,2.89-13.59,3.04-15.57v-.53h-.08Z"/>
        <g>
          <path class="cls-7" d="M167.79,21.63c-.76,2.96.08,5.7,1.9,6.15s3.87-1.52,4.63-4.48-.08-5.7-1.9-6.15c-1.75-.53-3.87,1.52-4.63,4.48Z"/>
          <path class="cls-6" d="M167.79,21.63c-.76,2.96.08,5.7,1.9,6.15s3.87-1.52,4.63-4.48-.08-5.7-1.9-6.15c-1.75-.53-3.87,1.52-4.63,4.48Z"/>
        </g>
        <path class="cls-10" d="M137.26,30.74c-.15-4.78,1.37-9.57,3.27-10.1,1.37-.76,1.06,0,1.37-.76,0-.38.84-2.13.76-2.43,1.82,3.8,7.06,5.01,10.86,5.39-.76-.99-1.82-1.52-2.51-2.66-.68-1.06-1.14-2.28-1.59-3.42,4.63,1.44,9.27,4.33,14.35,3.8-1.14-1.06-4.25-3.27-4.33-5.09,1.22,1.59,3.27,1.97,4.94,2.43,1.14.3,2.35.53,3.42.76,1.97,5.54,2.28,14.35.53,19.44,1.82-2.73,3.04-9.42,2.51-16.63-.08-1.44.61-2.66,1.67-3.57h0c.76-.61,1.06-1.67,1.14-2.58,0-.91-.23-1.97-.61-2.89h.23c-1.22-2.81-3.27-5.16-5.7-7.06-1.59-1.14-3.34-2.13-5.09-2.96-.91-.68-1.9-1.14-2.89-1.59-4.63-2.43-17.09.3-21.42,11.62-1.22,3.11-1.9,3.42-2.2,8.2,0,.38.08.68.15.99.23.99,0,1.9.46,3.87"/>
      </g>
      <g>
        <g>
          <path class="cls-1" d="M106.73,164.55c5.82,10.93,12.93,21.99,13.39,21.73l4.93-2.4-8.07-24.35-6.03-18.29-.33-.78c-.09-.22-.21-.5-.45-.67-1.41-1.58-4.49-1.87-7.29-.5-2.8,1.37-4.48,4.05-3.79,6.07.21.5.31,1.12.38,1.69.76,4.16,3.72,10.83,7.31,17.43l-.07.03.02.06h0Z"/>
          <path class="cls-19" d="M114.51,179.18c3.81,6.24,6.76,10.8,7.14,10.64l5.43-2.57-3.78-11.67-8.87,3.63.08-.03h0Z"/>
        </g>
        <path class="cls-14" d="M128.43,187.5c.17.87-.2,1.76-.89,2.39-.49.5-20.14,7.73-20.78,7.71-5-.33,13.67-12.62,13.67-12.62l5.55-1.6c.02.07,2.21,3.27,2.33,4.23l.07-.02-.02-.07.07-.02h0Z"/>
        <g>
          <path class="cls-1" d="M100.47,146.1c2.08,3.15,6.5,3.95,10.36,2.46l13.62-4.98,19.54-7.13.32-.09c4.61-2.01,6.41-6.81,3.9-10.84-2.57-4.16-8.61-6.02-13.48-4.17l-18.82,9.76-12.84,6.59c-3.37,1.73-4.43,5.4-2.47,8.51h0l-.03-.07-.11-.04Z"/>
          <path class="cls-17" d="M119.84,129.58c5.77,2.74,8.75,7.09,9.62,12.49l16.73-7.91.28-.1c3.9-2.2,4.85-7.13,1.99-11.12-2.93-4.13-8.68-5.81-12.84-3.76l-15.7,10.54h0l-.08-.13Z"/>
        </g>
      </g>
      <g>
        <g>
          <g>
            <rect class="cls-9" x="151.85" y="206.51" width="70.62" height=".84" transform="translate(374.32 413.85) rotate(180)"/>
            <rect class="cls-9" x="151.85" y="203.14" width="70.62" height=".84" transform="translate(374.32 407.12) rotate(180)"/>
          </g>
          <g>
            <rect class="cls-9" x="184.97" y="171.29" width=".88" height="67.91" transform="translate(370.82 410.48) rotate(180)"/>
            <rect class="cls-9" x="188.47" y="171.29" width=".88" height="67.91" transform="translate(377.82 410.48) rotate(180)"/>
          </g>
          <g>
            <polygon class="cls-9" points="199.46 173.39 198.65 173.07 171.62 235.81 172.43 236.13 199.46 173.39"/>
            <polygon class="cls-9" points="202.69 174.68 201.88 174.36 174.86 237.1 175.66 237.42 202.69 174.68"/>
          </g>
          <g>
            <polygon class="cls-9" points="211.2 180.34 210.58 179.74 160.64 227.76 161.26 228.36 211.2 180.34"/>
            <polygon class="cls-9" points="213.68 182.72 213.06 182.13 163.12 230.15 163.74 230.74 213.68 182.72"/>
          </g>
          <g>
            <polygon class="cls-9" points="219.28 191.08 218.94 190.3 153.7 216.29 154.03 217.07 219.28 191.08"/>
            <polygon class="cls-9" points="220.62 194.19 220.28 193.42 155.04 219.4 155.37 220.18 220.62 194.19"/>
          </g>
          <g>
            <polygon class="cls-9" points="219.28 219.4 154.03 193.41 153.7 194.19 218.94 220.18 219.28 219.4"/>
            <polygon class="cls-9" points="220.62 216.29 155.37 190.3 155.04 191.08 220.28 217.07 220.62 216.29"/>
          </g>
          <g>
            <polygon class="cls-9" points="211.2 230.15 161.26 182.12 160.65 182.72 210.58 230.74 211.2 230.15"/>
            <polygon class="cls-9" points="213.68 227.77 163.74 179.75 163.12 180.34 213.06 228.36 213.68 227.77"/>
          </g>
          <g>
            <polygon class="cls-9" points="199.46 237.1 172.43 174.36 171.62 174.68 198.65 237.42 199.46 237.1"/>
            <polygon class="cls-9" points="202.69 235.81 175.66 173.07 174.86 173.39 201.88 236.13 202.69 235.81"/>
          </g>
        </g>
        <g>
          <path d="M187.16,162.59c24.5,0,44.36,19.1,44.36,42.65s-19.86,42.65-44.36,42.65-44.36-19.1-44.36-42.65c0-23.56,19.86-42.65,44.36-42.65ZM187.16,238.07c18.85,0,34.13-14.7,34.13-32.83s-15.28-32.82-34.13-32.82-34.13,14.7-34.13,32.82c0,18.13,15.28,32.83,34.13,32.83Z"/>
          <path d="M187.16,168.34c21.19,0,38.37,16.52,38.37,36.9s-17.18,36.9-38.37,36.9-38.37-16.52-38.37-36.9c0-20.38,17.18-36.9,38.37-36.9ZM187.16,238.07c18.85,0,34.13-14.7,34.13-32.83s-15.28-32.82-34.13-32.82-34.13,14.7-34.13,32.82c0,18.13,15.28,32.83,34.13,32.83Z"/>
          <path class="cls-9" d="M187.16,170.05c20.21,0,36.6,15.76,36.6,35.19s-16.39,35.19-36.6,35.19-36.6-15.76-36.6-35.19,16.39-35.19,36.6-35.19ZM187.16,238.07c18.85,0,34.13-14.7,34.13-32.83s-15.28-32.82-34.13-32.82-34.13,14.7-34.13,32.82c0,18.13,15.28,32.83,34.13,32.83Z"/>
          <path class="cls-15" d="M187.16,171.38c19.45,0,35.21,15.16,35.21,33.86s-15.77,33.86-35.21,33.86-35.21-15.16-35.21-33.86,15.77-33.86,35.21-33.86ZM187.16,238.07c18.85,0,34.13-14.7,34.13-32.83s-15.28-32.82-34.13-32.82-34.13,14.7-34.13,32.82c0,18.13,15.28,32.83,34.13,32.83Z"/>
          <g>
            <path class="cls-11" d="M174.29,163.78c.81-.23,1.63-.44,2.45-.63l1.25,4.49c-.83.18-1.65.39-2.45.63l-1.25-4.48Z"/>
            <path class="cls-11" d="M180.03,162.51c.83-.13,1.67-.24,2.51-.32l.63,4.61c-.85.08-1.68.19-2.51.32l-.63-4.61Z"/>
            <path class="cls-11" d="M188.43,162v4.65c-.42-.01-.84-.03-1.27-.03s-.85.02-1.27.03v-4.65c.42-.01.84-.03,1.27-.03.43,0,.85.02,1.27.03Z"/>
            <path class="cls-11" d="M193.66,167.12c-.83-.13-1.67-.24-2.51-.32l.63-4.61c.85.08,1.68.19,2.51.32l-.63,4.61Z"/>
            <path class="cls-11" d="M198.78,168.26c-.81-.24-1.63-.44-2.45-.63l1.25-4.49c.83.19,1.64.4,2.45.63l-1.25,4.48Z"/>
            <path class="cls-11" d="M203.69,170.04c-.77-.33-1.55-.65-2.34-.94l1.85-4.28c.79.29,1.57.61,2.34.94l-1.84,4.28Z"/>
            <path class="cls-11" d="M208.33,172.42c-.72-.43-1.45-.84-2.19-1.23l2.41-4.02c.75.39,1.47.8,2.19,1.23l-2.41,4.01Z"/>
            <path class="cls-11" d="M212.61,175.36c-.65-.52-1.33-1.01-2.02-1.48l2.93-3.67c.68.48,1.36.97,2.01,1.48l-2.93,3.67Z"/>
            <path class="cls-11" d="M216.44,178.81c-.58-.59-1.18-1.17-1.79-1.72l3.4-3.27c.61.56,1.21,1.13,1.79,1.72l-3.4,3.27Z"/>
            <path class="cls-11" d="M223.6,179.89l-3.82,2.82c-.5-.66-1-1.31-1.54-1.94l3.82-2.82c.53.63,1.05,1.28,1.54,1.94Z"/>
            <path class="cls-11" d="M222.57,186.99c-.4-.72-.83-1.42-1.27-2.11l4.18-2.32c.44.69.87,1.39,1.28,2.11l-4.18,2.32Z"/>
            <path class="cls-11" d="M224.74,191.59c-.3-.76-.63-1.51-.97-2.25l4.45-1.77c.35.74.67,1.49.98,2.25l-4.46,1.78Z"/>
            <path class="cls-11" d="M226.27,196.43c-.19-.79-.41-1.58-.65-2.36l4.66-1.2c.24.78.46,1.56.65,2.36l-4.67,1.2Z"/>
            <path class="cls-11" d="M227.13,201.41c-.08-.82-.2-1.62-.33-2.42l4.79-.61c.13.8.25,1.61.33,2.42l-4.8.61Z"/>
            <path class="cls-11" d="M227.33,205.24c0-.41-.02-.81-.03-1.22h4.83c.01.41.03.81.03,1.22s-.02.81-.03,1.22h-4.83c.01-.41.03-.81.03-1.22Z"/>
            <path class="cls-11" d="M231.59,212.1l-4.79-.61c.13-.8.25-1.61.33-2.42l4.8.61c-.09.81-.2,1.62-.34,2.42Z"/>
            <path class="cls-11" d="M230.28,217.62l-4.66-1.2c.24-.78.46-1.57.65-2.36l4.67,1.2c-.2.79-.41,1.58-.65,2.36Z"/>
            <path class="cls-11" d="M228.22,222.92l-4.45-1.77c.35-.74.68-1.49.97-2.25l4.46,1.78c-.3.76-.63,1.51-.98,2.25Z"/>
            <path class="cls-11" d="M225.47,227.92l-4.17-2.32c.44-.69.87-1.39,1.27-2.11l4.18,2.32c-.4.72-.83,1.42-1.28,2.11Z"/>
            <path class="cls-11" d="M222.06,232.53l-3.82-2.82c.53-.63,1.04-1.28,1.54-1.94l3.82,2.82c-.5.66-1.01,1.31-1.54,1.94Z"/>
            <path class="cls-11" d="M216.44,231.67l3.4,3.27c-.58.59-1.18,1.17-1.79,1.72l-3.4-3.27c.62-.55,1.21-1.13,1.79-1.72Z"/>
            <path class="cls-11" d="M215.53,238.8c-.66.51-1.33,1.01-2.01,1.48l-2.93-3.67c.69-.48,1.36-.96,2.02-1.48l2.93,3.67Z"/>
            <path class="cls-11" d="M210.74,242.08c-.72.43-1.45.84-2.19,1.23l-2.41-4.02c.75-.38,1.48-.79,2.19-1.22l2.41,4.01Z"/>
            <path class="cls-11" d="M205.54,244.73c-.77.33-1.55.65-2.34.94l-1.85-4.29c.79-.29,1.57-.6,2.34-.94l1.84,4.28Z"/>
            <path class="cls-11" d="M200.03,246.71c-.81.23-1.63.44-2.45.63l-1.25-4.49c.82-.18,1.64-.39,2.45-.63l1.25,4.48Z"/>
            <path class="cls-11" d="M194.29,247.97c-.83.13-1.67.24-2.52.32l-.63-4.61c.85-.08,1.68-.19,2.52-.32l.63,4.61Z"/>
            <path class="cls-11" d="M185.89,248.49v-4.65c.42.01.84.03,1.27.03s.85-.02,1.27-.03v4.65c-.42.01-.84.03-1.27.03s-.85-.02-1.27-.03Z"/>
            <path class="cls-11" d="M180.66,243.36c.83.13,1.67.24,2.51.32l-.63,4.61c-.85-.08-1.68-.19-2.51-.32l.63-4.61Z"/>
            <path class="cls-11" d="M175.54,242.22c.81.23,1.63.44,2.45.63l-1.25,4.49c-.83-.19-1.64-.4-2.45-.63l1.25-4.48Z"/>
            <path class="cls-11" d="M170.62,240.44c.77.34,1.55.65,2.34.94l-1.84,4.28c-.79-.29-1.57-.61-2.34-.94l1.84-4.28Z"/>
            <path class="cls-11" d="M165.99,238.07c.72.43,1.45.84,2.2,1.22l-2.41,4.02c-.74-.39-1.47-.8-2.19-1.23l2.41-4.01Z"/>
            <path class="cls-11" d="M161.71,235.13c.65.51,1.33,1.01,2.02,1.48l-2.93,3.67c-.68-.48-1.36-.97-2.01-1.48l2.93-3.67Z"/>
            <path class="cls-11" d="M157.88,231.67c.58.59,1.18,1.17,1.79,1.72l-3.4,3.27c-.61-.56-1.21-1.13-1.79-1.72l3.4-3.27Z"/>
            <path class="cls-11" d="M150.72,230.59l3.82-2.82c.5.66,1,1.31,1.54,1.94l-3.82,2.82c-.53-.63-1.04-1.28-1.54-1.94Z"/>
            <path class="cls-11" d="M151.75,223.49c.4.72.83,1.42,1.27,2.11l-4.17,2.32c-.44-.69-.87-1.39-1.28-2.11l4.18-2.32Z"/>
            <path class="cls-11" d="M149.58,218.89c.3.76.63,1.51.97,2.25l-4.45,1.77c-.35-.74-.67-1.49-.98-2.25l4.46-1.78Z"/>
            <path class="cls-11" d="M148.05,214.06c.19.79.41,1.58.65,2.36l-4.66,1.2c-.24-.78-.46-1.56-.65-2.36l4.67-1.2Z"/>
            <path class="cls-11" d="M147.19,209.07c.09.82.2,1.62.33,2.42l-4.79.61c-.13-.8-.25-1.61-.34-2.42l4.8-.61Z"/>
            <path class="cls-11" d="M146.99,205.24c0,.41.02.81.03,1.22h-4.83c-.01-.41-.03-.81-.03-1.22s.02-.81.03-1.22h4.83c-.01.41-.03.81-.03,1.22Z"/>
            <path class="cls-11" d="M142.73,198.39l4.79.61c-.13.8-.25,1.6-.33,2.42l-4.8-.61c.09-.81.2-1.62.34-2.42Z"/>
            <path class="cls-11" d="M144.04,192.87l4.66,1.2c-.24.77-.46,1.56-.65,2.36l-4.67-1.2c.2-.79.41-1.58.65-2.36Z"/>
            <path class="cls-11" d="M146.1,187.57l4.45,1.77c-.35.74-.67,1.49-.97,2.25l-4.46-1.78c.3-.76.63-1.51.98-2.25Z"/>
            <path class="cls-11" d="M147.57,184.67c.4-.72.83-1.42,1.28-2.11l4.17,2.32c-.44.69-.87,1.39-1.27,2.11l-4.18-2.32Z"/>
            <path class="cls-11" d="M152.26,177.95l3.82,2.82c-.54.63-1.04,1.28-1.54,1.94l-3.82-2.82c.5-.66,1.01-1.3,1.54-1.94Z"/>
            <path class="cls-11" d="M157.88,178.81l-3.4-3.27c.58-.59,1.18-1.17,1.79-1.72l3.4,3.27c-.61.56-1.21,1.13-1.79,1.72Z"/>
            <path class="cls-11" d="M158.78,171.68c.66-.51,1.33-1.01,2.02-1.48l2.93,3.67c-.69.48-1.36.97-2.02,1.48l-2.93-3.67Z"/>
            <path class="cls-11" d="M163.58,168.4c.72-.43,1.45-.84,2.19-1.23l2.41,4.02c-.75.38-1.48.8-2.2,1.23l-2.41-4.01Z"/>
            <path class="cls-11" d="M168.78,165.76c.77-.33,1.55-.65,2.34-.94l1.85,4.29c-.79.29-1.57.6-2.34.94l-1.85-4.28Z"/>
          </g>
        </g>
        <g>
          <g>
            <rect class="cls-9" x="9.69" y="206.51" width="70.62" height=".84" transform="translate(90.01 413.85) rotate(180)"/>
            <rect class="cls-9" x="9.69" y="203.14" width="70.62" height=".84" transform="translate(90.01 407.12) rotate(180)"/>
          </g>
          <g>
            <rect class="cls-9" x="42.81" y="171.29" width=".88" height="67.91" transform="translate(86.51 410.48) rotate(180)"/>
            <rect class="cls-9" x="46.32" y="171.29" width=".88" height="67.91" transform="translate(93.51 410.48) rotate(180)"/>
          </g>
          <g>
            <polygon class="cls-9" points="57.3 173.39 56.49 173.06 29.46 235.81 30.27 236.13 57.3 173.39"/>
            <polygon class="cls-9" points="60.53 174.67 59.72 174.35 32.7 237.09 33.51 237.42 60.53 174.67"/>
          </g>
          <g>
            <polygon class="cls-9" points="69.04 180.34 68.42 179.75 18.49 227.77 19.11 228.36 69.04 180.34"/>
            <polygon class="cls-9" points="71.52 182.72 70.9 182.13 20.97 230.15 21.59 230.74 71.52 182.72"/>
          </g>
          <g>
            <polygon class="cls-9" points="77.12 191.08 76.78 190.3 11.54 216.29 11.87 217.07 77.12 191.08"/>
            <polygon class="cls-9" points="78.46 194.19 78.12 193.41 12.88 219.4 13.21 220.18 78.46 194.19"/>
          </g>
          <g>
            <polygon class="cls-9" points="77.12 219.4 11.87 193.41 11.54 194.19 76.78 220.18 77.12 219.4"/>
            <polygon class="cls-9" points="78.46 216.29 13.21 190.3 12.88 191.08 78.12 217.07 78.46 216.29"/>
          </g>
          <g>
            <polygon class="cls-9" points="69.04 230.15 19.11 182.13 18.49 182.72 68.42 230.74 69.04 230.15"/>
            <polygon class="cls-9" points="71.52 227.77 21.58 179.75 20.97 180.34 70.9 228.36 71.52 227.77"/>
          </g>
          <g>
            <polygon class="cls-9" points="57.3 237.1 30.27 174.35 29.46 174.67 56.49 237.42 57.3 237.1"/>
            <polygon class="cls-9" points="60.53 235.81 33.5 173.06 32.69 173.39 59.72 236.13 60.53 235.81"/>
          </g>
        </g>
        <g>
          <path d="M45,162.59c24.5,0,44.36,19.1,44.36,42.65s-19.86,42.65-44.36,42.65S.65,228.8.65,205.24s19.86-42.65,44.36-42.65ZM45,238.07c18.85,0,34.13-14.7,34.13-32.83s-15.28-32.82-34.13-32.82-34.13,14.7-34.13,32.82,15.28,32.83,34.13,32.83Z"/>
          <path d="M45,168.34c21.19,0,38.37,16.52,38.37,36.9s-17.18,36.9-38.37,36.9S6.63,225.62,6.63,205.24s17.18-36.9,38.37-36.9ZM45,238.07c18.85,0,34.13-14.7,34.13-32.83s-15.28-32.82-34.13-32.82-34.13,14.7-34.13,32.82,15.28,32.83,34.13,32.83Z"/>
          <path class="cls-9" d="M45,170.05c20.21,0,36.6,15.76,36.6,35.19s-16.39,35.19-36.6,35.19-36.6-15.76-36.6-35.19,16.39-35.19,36.6-35.19ZM45,238.07c18.85,0,34.13-14.7,34.13-32.83s-15.28-32.82-34.13-32.82-34.13,14.7-34.13,32.82,15.28,32.83,34.13,32.83Z"/>
          <path class="cls-15" d="M45,171.38c19.45,0,35.21,15.16,35.21,33.86s-15.77,33.86-35.21,33.86-35.21-15.16-35.21-33.86,15.77-33.86,35.21-33.86ZM45,238.07c18.85,0,34.13-14.7,34.13-32.83s-15.28-32.82-34.13-32.82-34.13,14.7-34.13,32.82,15.28,32.83,34.13,32.83Z"/>
          <g>
            <path class="cls-11" d="M32.14,163.78c.81-.23,1.63-.44,2.45-.63l1.25,4.49c-.83.18-1.65.39-2.45.63l-1.25-4.48Z"/>
            <path class="cls-11" d="M37.87,162.51c.83-.13,1.67-.24,2.51-.32l.63,4.61c-.85.08-1.68.19-2.51.32l-.63-4.61Z"/>
            <path class="cls-11" d="M46.27,162v4.65c-.42-.01-.84-.03-1.27-.03s-.85.02-1.27.03v-4.65c.42-.01.84-.03,1.27-.03.43,0,.85.02,1.27.03Z"/>
            <path class="cls-11" d="M51.5,167.12c-.83-.13-1.67-.24-2.51-.32l.63-4.61c.85.08,1.68.19,2.51.32l-.63,4.61Z"/>
            <path class="cls-11" d="M56.62,168.26c-.81-.24-1.63-.44-2.45-.63l1.25-4.49c.83.19,1.64.4,2.45.63l-1.25,4.48Z"/>
            <path class="cls-11" d="M61.54,170.04c-.77-.33-1.55-.65-2.34-.94l1.85-4.28c.79.29,1.57.61,2.34.94l-1.85,4.28Z"/>
            <path class="cls-11" d="M66.17,172.42c-.72-.43-1.45-.84-2.19-1.23l2.41-4.02c.74.39,1.47.8,2.19,1.23l-2.41,4.01Z"/>
            <path class="cls-11" d="M70.45,175.36c-.65-.52-1.33-1.01-2.02-1.48l2.93-3.67c.68.48,1.36.97,2.01,1.48l-2.93,3.67Z"/>
            <path class="cls-11" d="M74.28,178.81c-.58-.59-1.18-1.17-1.79-1.72l3.4-3.27c.61.56,1.21,1.13,1.79,1.72l-3.4,3.27Z"/>
            <path class="cls-11" d="M81.44,179.89l-3.82,2.82c-.5-.66-1-1.31-1.54-1.94l3.82-2.82c.53.63,1.05,1.28,1.54,1.94Z"/>
            <path class="cls-11" d="M80.41,186.99c-.4-.72-.83-1.42-1.27-2.11l4.18-2.32c.44.69.87,1.39,1.28,2.11l-4.18,2.32Z"/>
            <path class="cls-11" d="M82.58,191.59c-.3-.76-.63-1.51-.97-2.25l4.45-1.77c.35.74.67,1.49.98,2.25l-4.46,1.78Z"/>
            <path class="cls-11" d="M84.11,196.43c-.19-.79-.41-1.58-.65-2.36l4.66-1.2c.24.78.46,1.56.65,2.36l-4.67,1.2Z"/>
            <path class="cls-11" d="M84.98,201.41c-.08-.82-.2-1.62-.33-2.42l4.79-.61c.13.8.25,1.61.34,2.42l-4.8.61Z"/>
            <path class="cls-11" d="M85.17,205.24c0-.41-.02-.81-.03-1.22h4.83c.01.41.03.81.03,1.22s-.02.81-.03,1.22h-4.83c.01-.41.03-.81.03-1.22Z"/>
            <path class="cls-11" d="M89.44,212.1l-4.79-.61c.13-.8.25-1.61.33-2.42l4.8.61c-.09.81-.2,1.62-.34,2.42Z"/>
            <path class="cls-11" d="M88.12,217.62l-4.66-1.2c.24-.78.46-1.57.65-2.36l4.67,1.2c-.2.79-.41,1.58-.65,2.36Z"/>
            <path class="cls-11" d="M86.07,222.92l-4.45-1.77c.35-.74.67-1.49.97-2.25l4.46,1.78c-.3.76-.63,1.51-.98,2.25Z"/>
            <path class="cls-11" d="M83.31,227.92l-4.17-2.32c.44-.69.87-1.39,1.27-2.11l4.18,2.32c-.4.72-.83,1.42-1.28,2.11Z"/>
            <path class="cls-11" d="M79.9,232.53l-3.82-2.82c.54-.63,1.04-1.28,1.54-1.94l3.82,2.82c-.5.66-1.01,1.31-1.54,1.94Z"/>
            <path class="cls-11" d="M74.28,231.67l3.4,3.27c-.58.59-1.18,1.17-1.79,1.72l-3.4-3.27c.62-.55,1.21-1.13,1.79-1.72Z"/>
            <path class="cls-11" d="M73.38,238.8c-.66.51-1.33,1.01-2.01,1.48l-2.93-3.67c.69-.48,1.36-.96,2.02-1.48l2.93,3.67Z"/>
            <path class="cls-11" d="M68.59,242.08c-.72.43-1.45.84-2.19,1.23l-2.41-4.02c.75-.38,1.48-.79,2.19-1.22l2.41,4.01Z"/>
            <path class="cls-11" d="M63.39,244.73c-.77.33-1.55.65-2.34.94l-1.85-4.29c.79-.29,1.57-.6,2.34-.94l1.85,4.28Z"/>
            <path class="cls-11" d="M57.87,246.71c-.81.23-1.63.44-2.45.63l-1.25-4.49c.83-.18,1.64-.39,2.45-.63l1.25,4.48Z"/>
            <path class="cls-11" d="M52.13,247.97c-.83.13-1.67.24-2.52.32l-.63-4.61c.85-.08,1.68-.19,2.52-.32l.63,4.61Z"/>
            <path class="cls-11" d="M43.74,248.49v-4.65c.42.01.84.03,1.27.03s.85-.02,1.27-.03v4.65c-.42.01-.84.03-1.27.03s-.85-.02-1.27-.03Z"/>
            <path class="cls-11" d="M38.51,243.36c.83.13,1.67.24,2.51.32l-.63,4.61c-.85-.08-1.68-.19-2.51-.32l.63-4.61Z"/>
            <path class="cls-11" d="M33.38,242.22c.81.23,1.63.44,2.45.63l-1.25,4.49c-.83-.19-1.64-.4-2.45-.63l1.25-4.48Z"/>
            <path class="cls-11" d="M28.47,240.44c.77.34,1.55.65,2.34.94l-1.84,4.28c-.79-.29-1.57-.61-2.34-.94l1.84-4.28Z"/>
            <path class="cls-11" d="M23.83,238.07c.72.43,1.45.84,2.2,1.22l-2.41,4.02c-.74-.39-1.47-.8-2.19-1.23l2.41-4.01Z"/>
            <path class="cls-11" d="M19.56,235.13c.65.51,1.33,1.01,2.02,1.48l-2.93,3.67c-.68-.48-1.36-.97-2.01-1.48l2.93-3.67Z"/>
            <path class="cls-11" d="M15.72,231.67c.58.59,1.18,1.17,1.79,1.72l-3.4,3.27c-.62-.56-1.21-1.13-1.79-1.72l3.4-3.27Z"/>
            <path class="cls-11" d="M8.56,230.59l3.82-2.82c.5.66,1,1.31,1.54,1.94l-3.82,2.82c-.53-.63-1.05-1.28-1.54-1.94Z"/>
            <path class="cls-11" d="M9.6,223.49c.4.72.83,1.42,1.27,2.11l-4.17,2.32c-.44-.69-.87-1.39-1.28-2.11l4.18-2.32Z"/>
            <path class="cls-11" d="M7.42,218.89c.3.76.63,1.51.97,2.25l-4.46,1.77c-.35-.74-.67-1.49-.98-2.25l4.46-1.78Z"/>
            <path class="cls-11" d="M5.9,214.06c.19.79.41,1.58.65,2.36l-4.66,1.2c-.24-.78-.46-1.56-.65-2.36l4.67-1.2Z"/>
            <path class="cls-11" d="M5.03,209.07c.09.82.2,1.62.33,2.42l-4.79.61c-.13-.8-.25-1.61-.34-2.42l4.8-.61Z"/>
            <path class="cls-11" d="M4.83,205.24c0,.41.02.81.03,1.22H.03c-.01-.41-.03-.81-.03-1.22s.02-.81.03-1.22h4.83c-.01.41-.03.81-.03,1.22Z"/>
            <path class="cls-11" d="M.57,198.39l4.79.61c-.13.8-.25,1.6-.33,2.42l-4.8-.61c.09-.81.2-1.62.34-2.42Z"/>
            <path class="cls-11" d="M1.88,192.87l4.66,1.2c-.24.77-.46,1.56-.65,2.36l-4.67-1.2c.2-.79.41-1.58.65-2.36Z"/>
            <path class="cls-11" d="M3.94,187.57l4.46,1.77c-.35.74-.68,1.49-.97,2.25l-4.46-1.78c.3-.76.63-1.51.98-2.25Z"/>
            <path class="cls-11" d="M5.42,184.67c.4-.72.83-1.42,1.28-2.11l4.17,2.32c-.44.69-.87,1.39-1.27,2.11l-4.18-2.32Z"/>
            <path class="cls-11" d="M10.11,177.95l3.82,2.82c-.54.63-1.04,1.28-1.54,1.94l-3.82-2.82c.5-.66,1.01-1.3,1.54-1.94Z"/>
            <path class="cls-11" d="M15.72,178.81l-3.4-3.27c.58-.59,1.18-1.17,1.79-1.72l3.4,3.27c-.61.56-1.21,1.13-1.79,1.72Z"/>
            <path class="cls-11" d="M16.63,171.68c.66-.51,1.33-1.01,2.01-1.48l2.93,3.67c-.69.48-1.36.97-2.02,1.48l-2.93-3.67Z"/>
            <path class="cls-11" d="M21.42,168.4c.72-.43,1.45-.84,2.19-1.23l2.41,4.02c-.75.38-1.48.8-2.2,1.23l-2.41-4.01Z"/>
            <path class="cls-11" d="M26.62,165.76c.77-.33,1.55-.65,2.34-.94l1.85,4.29c-.79.29-1.57.6-2.34.94l-1.85-4.28Z"/>
          </g>
        </g>
        <polygon class="cls-15" points="152.35 127.42 147.92 126.49 142.96 148.48 147.38 149.4 152.35 127.42"/>
        <polygon class="cls-15" points="66.73 130.7 62.28 129.86 60 140.99 64.44 141.83 66.73 130.7"/>
        <g>
          <path d="M130.54,208.27c.16,0,.31-.02.47-.06,1.04-.25,1.67-1.27,1.41-2.27l-4.86-18.63c-.26-1-1.31-1.61-2.36-1.36-1.04.25-1.67,1.27-1.41,2.27l4.86,18.63c.22.85,1.01,1.41,1.88,1.41Z"/>
          <path d="M119.81,187.5c0,1.37,1.17,2.49,2.59,2.49h7.24c1.42,0,2.59-1.12,2.59-2.49s-1.17-2.49-2.59-2.49h-7.24c-1.42,0-2.59,1.12-2.59,2.49Z"/>
          <path class="cls-4" d="M122.41,185.01h7.24c1.42,0,2.59,1.12,2.59,2.49h-12.42c0-1.37,1.16-2.49,2.59-2.49Z"/>
          <path class="cls-15" d="M131.87,186.26h-11.69c.45-.74,1.28-1.24,2.23-1.24h7.24c.95,0,1.78.5,2.23,1.24Z"/>
        </g>
        <path d="M40.45,205.24c0,2.42,2.04,4.38,4.56,4.38s4.56-1.96,4.56-4.38-2.04-4.38-4.56-4.38-4.56,1.96-4.56,4.38Z"/>
        <g>
          <polygon class="cls-12" points="132.4 202.24 132.11 201.03 130.53 201.38 130.82 202.59 132.4 202.24"/>
          <path class="cls-12" d="M133.02,202.09l3.1-.69-.29-1.21-3.1.69.29,1.21ZM136.73,201.26l3.1-.69-.29-1.21-3.1.69.29,1.21ZM140.45,200.42l3.1-.69-.29-1.21-3.1.69.29,1.21ZM144.17,199.59l3.1-.69-.29-1.21-3.1.69.29,1.21ZM147.89,198.76l3.1-.69-.29-1.21-3.1.69.29,1.21ZM151.6,197.93l3.1-.69-.29-1.21-3.1.69.29,1.21ZM155.32,197.09l3.1-.69-.29-1.21-3.1.69.29,1.21ZM159.04,196.26l3.1-.69-.29-1.21-3.1.69.29,1.21ZM162.75,195.43l3.1-.69-.29-1.21-3.1.69.29,1.21ZM166.47,194.59l3.1-.69-.29-1.21-3.1.69.29,1.21ZM170.19,193.76l3.1-.69-.29-1.21-3.1.69.29,1.21ZM173.91,192.93l3.1-.69-.29-1.21-3.1.69.29,1.21ZM177.63,192.09l3.1-.69-.29-1.21-3.1.69.29,1.21ZM181.34,191.26l3.1-.69-.29-1.21-3.1.69.29,1.21Z"/>
          <polygon class="cls-12" points="186.63 190.08 186.34 188.87 184.76 189.22 185.06 190.43 186.63 190.08"/>
        </g>
        <path class="cls-12" d="M187.76,228.1l.04-.11-1.2-.47-.04.11,1.2.47ZM188.05,227.41l1.22-2.88-1.2-.47-1.22,2.88,1.2.47ZM189.51,223.95l1.22-2.88-1.2-.47-1.22,2.88,1.2.47ZM190.97,220.49l1.22-2.88-1.2-.47-1.22,2.88,1.2.47ZM192.43,217.03l1.22-2.88-1.2-.47-1.22,2.88,1.2.47ZM193.89,213.57l1.22-2.88-1.2-.47-1.22,2.88,1.2.47Z"/>
        <path class="cls-12" d="M184.84,223.07l.27-1.22-1.08-.22-.27,1.22,1.08.22ZM183.12,222.73l.27-1.22-3.17-.64-.27,1.22,3.17.64ZM179.32,221.95l.27-1.22-3.17-.64-.27,1.22,3.17.64ZM175.52,221.18l.27-1.22-3.17-.64-.27,1.22,3.17.64ZM171.72,220.41l.27-1.22-3.17-.64-.27,1.22,3.17.64ZM167.92,219.64l.27-1.22-3.17-.64-.27,1.22,3.17.64ZM164.12,218.86l.27-1.22-3.17-.64-.27,1.22,3.17.64ZM160.32,218.09l.27-1.22-3.17-.64-.27,1.22,3.17.64ZM156.52,217.32l.27-1.22-3.17-.64-.27,1.22,3.17.64ZM152.71,216.55l.27-1.22-3.17-.64-.27,1.22,3.17.64ZM148.91,215.77l.27-1.22-3.17-.64-.27,1.22,3.17.64ZM145.11,215l.27-1.22-3.17-.64-.27,1.22,3.17.64ZM141.31,214.23l.27-1.22-3.17-.64-.27,1.22,3.17.64ZM137.51,213.46l.27-1.22-3.17-.64-.27,1.22,3.17.64ZM133.71,212.69l.27-1.22-3.17-.64-.27,1.22,3.17.64Z"/>
        <polygon points="187.16 195.88 185.75 194.92 184.64 196.19 183.02 195.63 182.29 197.13 180.57 196.98 180.27 198.62 178.57 198.91 178.72 200.56 177.16 201.26 177.75 202.82 176.43 203.88 177.42 205.24 176.43 206.6 177.75 207.67 177.16 209.23 178.72 209.93 178.57 211.58 180.27 211.87 180.57 213.5 182.29 213.36 183.02 214.86 184.64 214.29 185.75 215.56 187.16 214.61 188.57 215.56 189.68 214.29 191.3 214.86 192.03 213.36 193.75 213.5 194.05 211.87 195.75 211.58 195.6 209.93 197.16 209.23 196.57 207.67 197.89 206.6 196.9 205.24 197.89 203.88 196.57 202.82 197.16 201.26 195.6 200.56 195.75 198.91 194.05 198.62 193.75 196.98 192.03 197.13 191.3 195.63 189.68 196.19 188.57 194.92 187.16 195.88"/>
        <path class="cls-11" d="M181.75,205.24c0,2.87,2.42,5.21,5.41,5.21s5.41-2.33,5.41-5.21-2.42-5.21-5.41-5.21c-2.99,0-5.41,2.33-5.41,5.21Z"/>
        <path class="cls-4" d="M184.97,228.88c.32,0,.64-.09.92-.28.73-.49.91-1.46.4-2.17-.01-.02-1.74-2.5-1.73-6.36,0-1.94,2.53-9.82,4.12-14.33.29-.81-.17-1.7-1.01-1.97-.85-.27-1.77.16-2.05.97-.44,1.24-4.28,12.24-4.29,15.32-.01,4.89,2.22,8.02,2.31,8.15.32.44.82.67,1.33.67Z"/>
        <polygon points="184.97 223.71 184.5 223.4 184.13 223.82 183.59 223.63 183.35 224.13 182.78 224.08 182.68 224.63 182.11 224.72 182.16 225.27 181.64 225.51 181.84 226.03 181.4 226.38 181.73 226.83 181.4 227.28 181.84 227.64 181.64 228.16 182.16 228.39 182.11 228.94 182.68 229.04 182.78 229.58 183.35 229.53 183.59 230.03 184.13 229.84 184.5 230.27 184.97 229.95 185.44 230.27 185.81 229.84 186.35 230.03 186.59 229.53 187.16 229.58 187.26 229.04 187.83 228.94 187.78 228.39 188.3 228.16 188.1 227.64 188.54 227.28 188.21 226.83 188.54 226.38 188.1 226.03 188.3 225.51 187.78 225.27 187.83 224.72 187.26 224.63 187.16 224.08 186.59 224.13 186.35 223.63 185.81 223.82 185.44 223.4 184.97 223.71"/>
        <g>
          <path class="cls-2" d="M130.55,209.73c.72,0,1.44-.25,1.99-.74,1.13-1.01,1.15-2.66.05-3.69l-67.7-63.52c-1.1-1.03-2.9-1.05-4.03-.04-1.12,1.01-1.15,2.66-.05,3.69l67.7,63.52c.56.52,1.3.78,2.04.78Z"/>
          <path class="cls-16" d="M62.85,143.6l-1.99-1.87s0,0,0,0c1.12-1.01,2.93-.99,4.03.04l67.7,63.52c1.09,1.03,1.08,2.67-.03,3.68l-2-1.85-67.7-63.51Z"/>
        </g>
        <g>
          <path class="cls-2" d="M187.16,208.05c.67,0,1.33-.22,1.88-.67,1.23-1,1.38-2.77.34-3.95l-43.55-49.41c-.47-.54-1.13-.88-1.86-.97l-82.38-9.99c-1.6-.19-3.05.89-3.26,2.43-.2,1.53.93,2.94,2.53,3.13l81.25,9.86,42.81,48.58c.58.65,1.4.99,2.22.99Z"/>
          <path class="cls-16" d="M143.61,155.84l-82.38-9.99-2.89-.37c.21-1.53,1.66-2.6,3.25-2.41l82.38,9.99c.72.09,1.39.43,1.86.97l43.55,49.41c1.04,1.18.89,2.95-.34,3.95-.02.02-.04.03-.06.04l-1.83-2.18-43.55-49.41Z"/>
        </g>
        <g>
          <path class="cls-2" d="M130.48,209.73c.15,0,.31-.01.46-.03l56.68-8.26c1.59-.23,2.67-1.59,2.42-3.04-.25-1.45-1.75-2.43-3.34-2.2l-52.46,7.64,13.58-56.93c.34-1.43-.66-2.84-2.23-3.15-1.58-.31-3.13.6-3.47,2.03l-14.49,60.72c-.2.86.07,1.75.73,2.39.56.53,1.32.83,2.12.83Z"/>
          <path class="cls-16" d="M187.16,198.68l-56.68,8.25,14.49-60.63.58-2.59s.02,0,.03,0c1.57.31,2.57,1.72,2.23,3.15l-13.58,56.84,52.46-7.63c1.56-.23,3.03.72,3.32,2.13l-2.86.48Z"/>
        </g>
        <g>
          <path class="cls-16" d="M45,208.05c.87,0,1.73-.37,2.31-1.09l5.41-6.73c.28-.34.47-.74.55-1.17l12.16-59.2c.31-1.52-.72-2.99-2.29-3.29-1.57-.3-3.11.69-3.42,2.21l-12.03,58.55-4.99,6.2c-.99,1.22-.75,2.98.52,3.93.53.39,1.16.59,1.78.59Z"/>
          <path class="cls-2" d="M45,208.05c-.62,0-1.25-.19-1.78-.59l7.2-8.94,11.73-57.12.97-4.84s.01,0,.02,0c1.58.3,2.61,1.77,2.29,3.29l-12.16,59.2c-.09.43-.28.83-.55,1.17l-5.41,6.73c-.57.71-1.44,1.09-2.31,1.09Z"/>
        </g>
        <path d="M185.92,205.24c0,.66.55,1.19,1.24,1.19s1.24-.53,1.24-1.19-.55-1.19-1.24-1.19-1.24.53-1.24,1.19Z"/>
        <path class="cls-4" d="M183.73,226.83c0,.66.55,1.19,1.24,1.19s1.24-.53,1.24-1.19-.55-1.19-1.24-1.19-1.24.53-1.24,1.19Z"/>
        <path class="cls-4" d="M130.67,194.14c6.8,0,12.32,6.18,12.32,12.73s-5.52,11.85-12.32,11.85-12.32-5.3-12.32-11.85,5.52-12.73,12.32-12.73ZM138.24,200.19c-.92-.97-2.48-1.03-3.49-.14-1.01.88-1.07,2.39-.15,3.35.92.97,2.48,1.03,3.49.14,1-.88,1.07-2.39.15-3.35ZM137.38,211.38c1.3.39,2.69-.3,3.09-1.55.41-1.25-.31-2.58-1.61-2.98-1.3-.39-2.68.3-3.09,1.55-.41,1.25.31,2.58,1.61,2.98ZM129.96,214.71c.3,1.28,1.62,2.09,2.94,1.8,1.33-.28,2.17-1.55,1.87-2.83-.3-1.28-1.61-2.09-2.94-1.8-1.33.28-2.17,1.55-1.87,2.83ZM129.52,201.86c1.33-.28,2.17-1.55,1.87-2.83-.3-1.28-1.61-2.09-2.94-1.8-1.33.29-2.17,1.55-1.87,2.83.3,1.28,1.61,2.09,2.95,1.8ZM123.11,213.55c.92.97,2.48,1.03,3.49.15,1-.89,1.07-2.39.15-3.35-.92-.97-2.48-1.03-3.49-.15-1,.89-1.07,2.39-.15,3.35ZM122.49,206.88c1.3.39,2.69-.3,3.1-1.55.41-1.25-.31-2.58-1.61-2.98-1.3-.39-2.68.3-3.09,1.55-.41,1.25.31,2.58,1.61,2.98Z"/>
        <path d="M125.59,206.87c0,2.7,2.28,4.89,5.09,4.89s5.09-2.19,5.09-4.89-2.28-4.89-5.09-4.89c-2.81,0-5.09,2.19-5.09,4.89Z"/>
        <path class="cls-4" d="M127.07,206.87c0,1.91,1.61,3.47,3.61,3.47s3.6-1.55,3.6-3.47-1.61-3.47-3.6-3.47-3.61,1.55-3.61,3.47Z"/>
        <path d="M135.53,221.95c.16,0,.31-.01.47-.04,1.04-.19,1.67-.96,1.41-1.72l-4.86-14.12c-.26-.76-1.31-1.22-2.36-1.03-1.04.19-1.67.96-1.41,1.72l4.86,14.12c.22.64,1.01,1.07,1.88,1.07Z"/>
        <path d="M129.32,221.09c0,1.37,1.17,2.49,2.59,2.49h7.24c1.42,0,2.59-1.12,2.59-2.49s-1.17-2.49-2.59-2.49h-7.24c-1.42,0-2.59,1.12-2.59,2.49Z"/>
        <path class="cls-4" d="M131.91,218.61h7.24c1.42,0,2.59,1.12,2.59,2.49h-12.42c0-1.37,1.16-2.49,2.59-2.49Z"/>
        <path class="cls-15" d="M141.38,218.93h-11.69c.45-.74,1.28-1.24,2.23-1.24h7.24c.95,0,1.78.5,2.23,1.24Z"/>
        <path d="M43.53,205.24c0,.78.66,1.42,1.48,1.42s1.48-.64,1.48-1.42-.66-1.42-1.48-1.42c-.82,0-1.48.64-1.48,1.42Z"/>
        <polygon class="cls-11" points="149.47 147.85 141.74 146.22 141.02 149.35 148.75 150.99 149.47 147.85"/>
        <polygon class="cls-11" points="66.99 137.15 59.22 135.7 58.58 138.85 66.35 140.3 66.99 137.15"/>
        <path d="M158.42,124.1s2.38,2.52,2.92,5.64c.41,2.34.31,8.45-8.28,9.06-7.34.53-10.74-4.13-15.96-5.04-5.45-.95-14.57-2.83-13.28-9.24,10.01,1.16,14.77,1.26,20.52,1.26,5.75,0,14.08-1.68,14.08-1.68Z"/>
        <path class="cls-11" d="M158.42,124.1s1.59,1.69,2.47,4.01c-6.59,1.63-18.67,2.72-37.19-2.42,0-.37.04-.77.12-1.18,10.01,1.16,14.77,1.26,20.52,1.26,5.75,0,14.08-1.68,14.08-1.68Z"/>
        <path class="cls-11" d="M64.82,132.78l.06-4.36-.03,2.18.04-2.18c-.07,0-6.95-.21-11.57-5.55l-3.48,2.79c5.99,6.92,14.62,7.11,14.98,7.12Z"/>
        <path d="M60.75,130.89c-.29,1.34.61,2.67,2.01,2.94l1.9.38c1.39.28,2.77-.59,3.06-1.93l.57-2.64c.29-1.34-.61-2.67-2.01-2.95l-1.9-.38c-1.39-.28-2.77.59-3.06,1.93l-.57,2.64Z"/>
        <ellipse cx="51.73" cy="124.37" rx="4.13" ry="3.97"/>
        <path class="cls-15" d="M50.01,124.37c0,.92.77,1.66,1.73,1.66s1.73-.74,1.73-1.66-.77-1.66-1.73-1.66-1.73.74-1.73,1.66Z"/>
      </g>
      <path class="cls-17" d="M172.67,112.77s9.35,26.05-7.19,28.1l-25.53-16-1.32-9.14c7.19.61,19.66-.23,33.97-3.04h0v.08h.07Z"/>
      <g>
        <path class="cls-1" d="M175.99,101.25h0c3.34.84,6.46-2.13,6.23-5.85l-2.05-23.77c-.3-3.72-3.34-6.53-6.76-6.3h0c-3.95.38-6.76,4.4-5.92,8.66l4.78,23.24c.46,1.97,1.82,3.49,3.57,4.03h.15,0Z"/>
        <path class="cls-19" d="M175.54,59.32c2.13,2.96,5.24,8.89,6.76,18.99,0,.68-.38,1.37-.99,1.52-2.35.38-7.67,1.67-10.18,4.71-.61.76-1.75.53-2.13-.38-2.28-6.23-7.06-21.95-1.14-26.35,2.43-1.75,5.7-.99,7.52,1.52h.08v-.08l.08.08h0Z"/>
        <path class="cls-1" d="M178.3,93.22h0c-1.38-.17-2.55.4-3.44,1.42l-17.23,20.13,5.35,4.19,18.12-17.37c2.77-2.63,1.06-7.76-2.78-8.3h0l-.03-.07h0Z"/>
        <path class="cls-1" d="M161.49,125.36l3.73-7.87-5.92-3.38-.05.27c-8.34,1.89-10.42,6.78-10.42,6.78-2.17,4.68-.74,5.57.73,5.53,1.06-.03,2.01-.5,2.68-1.27,2.95-3.2,8.83-5.47,8.83-5.47-1.93,7.05.67,5.39.67,5.39l-.07.03h-.17Z"/>
      </g>
      <g id="leg5">
        <path class="cls-1" d="M151.82,199.26c0,17.93,1.32,36.72,1.93,36.72h5.89l4.57-36.72,3.35-27.61v-2.3c-.51-2.97-3.35-5.27-6.7-5.27s-6.2,2.4-6.7,5.46c0,.86-.3,1.63-.51,2.4-1.32,5.85-1.83,16.39-1.83,27.32h0Z"/>
        <path class="cls-19" d="M152.43,221.5c.41,8.44,1.02,14.48,1.32,14.48h5.89l1.83-14.48h-9.04,0Z"/>
        <path class="cls-14" d="M160.87,241.82c0,1.15-.71,2.01-1.63,2.59-.61.38-23.06,2.3-23.67,2.11-5.08-2.3,17.88-10.74,17.88-10.74l6.2.19s1.32,4.7,1.12,5.94h0v-.1h.1Z"/>
        <path class="cls-1" d="M153.65,169.92c0,3.64,2.84,6.71,6.6,7.19,3.96.38,6.91-2.49,7.42-6.23l1.22-7,4.27-25.4v-1.15c0-4.03-2.95-7.67-7.11-8.63-.3,0-.61-.1-1.02-.19-.91-.1-1.83-.1-2.64,0-4.06.58-7.31,3.55-7.92,7.57l-.71,27.13-.2,6.81h0s0-.05,0,0l.1-.1h0Z"/>
        <path class="cls-17" d="M153.86,161.34l15.03.67,4.27-25.4v-1.15c0-4.03-2.95-7.67-7.11-8.63l-3.66-.19c-4.06.58-7.31,3.55-7.92,7.57l-.71,27.13h.1Z"/>
      </g>
    </g>
  </g>
</svg>