<?xml version="1.0" encoding="UTF-8"?>
<svg xmlns="http://www.w3.org/2000/svg" xmlns:xlink="http://www.w3.org/1999/xlink" viewBox="0 0 87.02 285">
  <defs>
    <style>
      .cls-1 {
        stroke: #282828;
        stroke-width: .75px;
      }

      .cls-1, .cls-2 {
        fill: none;
        stroke-linecap: round;
        stroke-miterlimit: 10;
      }

      .cls-3 {
        fill: #e0a587;
      }

      .cls-4, .cls-5 {
        fill: #603813;
      }

      .cls-6 {
        fill: #2e89ce;
      }

      .cls-7 {
        fill: #f4edf7;
      }

      .cls-8 {
        fill: #d9a2a0;
      }

      .cls-9 {
        fill: #1e648e;
      }

      .cls-10, .cls-11 {
        fill: #88a5d8;
      }

      .cls-12, .cls-5 {
        isolation: isolate;
      }

      .cls-13 {
        fill: #ddd;
      }

      .cls-14 {
        fill: #103d54;
      }

      .cls-15 {
        fill: #fff;
      }

      .cls-16 {
        fill: #d7d6d8;
      }

      .cls-17 {
        fill: #752c46;
      }

      .cls-18 {
        fill: #6c3231;
      }

      .cls-19 {
        fill: url(#linear-gradient);
      }

      .cls-19, .cls-11 {
        mix-blend-mode: multiply;
      }

      .cls-20 {
        fill: #db9673;
      }

      .cls-5 {
        opacity: .5;
      }

      .cls-21 {
        fill: #226baf;
      }

      .cls-2 {
        stroke: #630;
      }
    </style>
    <linearGradient id="linear-gradient" x1="40.42" y1="19.07" x2="40.42" y2=".35" gradientUnits="userSpaceOnUse">
      <stop offset="0" stop-color="#88a5d8"/>
      <stop offset="1" stop-color="#88a5d8" stop-opacity="0"/>
    </linearGradient>
  </defs>
  <g class="cls-12">
    <g id="Layer_2" data-name="Layer 2">
      <g id="Layer_1-2" data-name="Layer 1">
        <g id="german-man-doctor">
          <g>
            <path class="cls-3" d="M15.08,112.07l-10.03-1.05c0,.06,1.48-24.32,1.48-24.32.08-1.55,2.99-2.65,6.58-2.52h0c3.58.19,6.61,1.55,6.53,3.05,0,0-4.56,24.85-4.56,24.85Z"/>
            <path class="cls-3" d="M12.85,156.05h-5.88c0,.11-1.96-44.18-1.96-44.18,0-2.76,2.25-4.99,5.09-5.1h0c2.84,0,5.29,2.12,5.29,4.78,0,0-2.55,44.49-2.55,44.49Z"/>
            <path class="cls-3" d="M13.42,169l.4,4.57c.2,2.55-3.3,3.72-4.9,1.81-.5-.64-.9-1.49-1.3-2.44s-.3-.64,0,0c-.9-2.76-1.1-6.69-.6-11.68v-5.95h0l6-.21h0v3.82l3.7,11.79s.4,4.25-3.3-1.7Z"/>
          </g>
          <g>
            <path class="cls-3" d="M67.76,112.37l10.03-1.05c0,.06-1.48-24.32-1.48-24.32-.08-1.55-2.99-2.65-6.58-2.52h0c-3.58.19-6.61,1.55-6.53,3.05,0,0,4.56,24.85,4.56,24.85Z"/>
            <path class="cls-3" d="M69.99,156.35h5.88c0,.11,1.96-44.18,1.96-44.18,0-2.76-2.25-4.99-5.09-5.1h0c-2.84,0-5.29,2.12-5.29,4.78,0,0,2.55,44.49,2.55,44.49Z"/>
            <path class="cls-3" d="M69.43,169.3l-.4,4.57c-.2,2.55,3.3,3.72,4.9,1.81.5-.64.9-1.49,1.3-2.44s.3-.64,0,0c.9-2.76,1.1-6.69.6-11.68v-5.95h0l-6-.21h0v3.82l-3.7,11.79s-.4,4.25,3.3-1.7Z"/>
          </g>
          <path class="cls-17" d="M28.61,77.22c-3.01-5.24-4.02-12.39-1.67-18.11,2.52-6.14,9.57-7.59,15.25-7.29,6.25.33,11.17,4.03,12.65,10.51,1.18,5.17.11,10.8-1.01,15.86-.2.9,1.11,1.29,1.31.38,1.27-5.76,2.27-11.9.75-17.72-1.75-6.7-7.48-9.98-13.7-10.48-6.34-.51-13.43,1.61-16.42,8-2.8,5.97-1.5,14.06,1.67,19.56.45.79,1.63.07,1.18-.73h0Z"/>
          <g>
            <path class="cls-7" d="M21.69,268.69s-3.68,4.45-4.86,6.76c-1.34,1.11-15.03,1.56-16.83,8.46,5.51,2,27.81.89,32.42-.68,0,0,.49-11.14-1.5-14.5"/>
            <path class="cls-7" d="M65.33,268.69s3.68,4.45,4.86,6.76c1.34,1.11,15.03,1.56,16.83,8.46-5.51,2-27.81.89-32.42-.68,0,0-.49-11.14,1.5-14.5"/>
            <path class="cls-14" d="M2.2,280.6c-1.06.9-1.85,1.99-2.2,3.32,5.51,2,27.81.89,32.42-.68,0,0,.09-2.03.03-4.61-5.33,2.1-11.21,2.5-16.92,2.58-4.45.06-8.92-.04-13.33-.62Z"/>
            <path class="cls-15" d="M31.42,269.91s-.02.02-.02.03c-.63.73-1.18,1.59-1.44,2.55s-.22,2.06.23,2.94c.41.79,1.12,1.34,1.85,1.76.12.07.25.14.38.2-.1-2.62-.36-5.55-1-7.47Z"/>
            <path class="cls-14" d="M84.82,280.6c1.06.9,1.85,1.99,2.2,3.32-5.51,2-27.81.89-32.42-.68,0,0-.09-2.03-.03-4.61,5.33,2.1,11.21,2.5,16.92,2.58,4.45.06,8.92-.04,13.33-.62Z"/>
            <g>
              <path class="cls-13" d="M16.8,274.8c1.42-.34,2.82-.2,4.18.38.52.22.75-.7.23-.92-1.5-.64-3.07-.75-4.64-.38-.55.13-.32,1.05.23.92h0Z"/>
              <path class="cls-13" d="M18.21,272.19c1.38-.24,2.75-.15,4.09.26.54.17.77-.75.23-.92-1.51-.46-3.02-.54-4.56-.26-.55.1-.32,1.01.23.92h0Z"/>
              <path class="cls-13" d="M70.44,273.88c-1.57-.37-3.14-.26-4.64.38-.52.22-.29,1.14.23.92,1.36-.58,2.75-.72,4.18-.38.55.13.78-.79.23-.92h0Z"/>
              <path class="cls-13" d="M69.03,271.28c-1.54-.27-3.05-.19-4.56.26-.54.16-.31,1.08.23.92,1.35-.41,2.71-.51,4.09-.26.55.1.78-.82.23-.92h0Z"/>
            </g>
            <path class="cls-15" d="M55.59,269.91s.02.02.02.03c.63.73,1.18,1.59,1.44,2.55s.22,2.06-.23,2.94c-.41.79-1.12,1.34-1.85,1.76-.12.07-.25.14-.38.2.1-2.62.36-5.55,1-7.47Z"/>
          </g>
          <path class="cls-9" d="M18.57,134.35s-4.38,107.03,3.11,134.35l9.23.05,8.36-115.21,2.85.06,13.77,115.11h9.44s1.78-106.9-4.29-135.07c-6.07-28.18-42.47.72-42.47.72Z"/>
          <g>
            <g>
              <path class="cls-14" d="M34.24,153.29c4.93.72,9.91.78,14.85.18.28-.03.28-.51,0-.48-4.95.6-9.92.54-14.85-.18-.28-.04-.27.44,0,.48h0Z"/>
              <path class="cls-14" d="M37.46,137.39c.77,5.32,1.39,10.66,1.86,16.03.03.3.46.31.43,0-.48-5.4-1.11-10.79-1.88-16.15-.04-.3-.46-.17-.42.13h0Z"/>
              <path class="cls-14" d="M41.85,153.64c.77-5.74,1.55-11.48,2.32-17.22.04-.3-.38-.43-.42-.13-.77,5.74-1.55,11.48-2.32,17.22-.04.3.38.43.42.13h0Z"/>
              <path class="cls-14" d="M63.28,151.06c-2.19-1.18-3.49-4.19-4.35-6.56-1.12-3.08-1.54-6.43-1.38-9.73.01-.31-.42-.31-.43,0-.19,3.82.45,7.56,1.86,11.06.9,2.25,2.26,4.76,4.35,5.76-.01-.18-.03-.36-.04-.54Z"/>
              <path class="cls-14" d="M22.2,134.71c0-.31-.43-.31-.43,0,0,3.96-.37,7.88-1.12,11.75-.48,2.47-1.22,5.04-2.7,7,0,.24-.01.49-.02.73,1.52-1.8,2.35-4.17,2.91-6.56.99-4.19,1.37-8.6,1.36-12.92Z"/>
              <path class="cls-14" d="M29.49,267.52h-.13c0-.15,0-.31,0-.48h.13c0,.17,0,.33,0,.48ZM29.52,266.57h-.13s.01-.48.01-.48h.13s-.01.48-.01.48ZM29.55,265.61h-.13s.02-.48.02-.48h.13s-.02.48-.02.48ZM29.58,264.66h-.13s.02-.48.02-.48h.13s-.02.48-.02.48ZM29.62,263.71h-.13s.02-.48.02-.48h.13s-.02.48-.02.48ZM29.66,262.76h-.13s.02-.48.02-.48h.13s-.02.48-.02.48ZM29.7,261.81h-.13s.02-.48.02-.48h.13s-.02.48-.02.48ZM29.75,260.86h-.13s.02-.48.02-.48h.13s-.02.48-.02.48ZM29.79,259.91h-.13s.02-.48.02-.48h.13s-.02.48-.02.48ZM29.84,258.96h-.13c0-.15.01-.3.02-.44v-.04s.13,0,.13,0v.04c0,.15-.02.29-.02.43ZM29.89,258.01h-.13s.02-.48.02-.48h.13s-.02.48-.02.48ZM29.94,257.06h-.13s.02-.48.02-.48h.13s-.02.48-.02.48ZM29.99,256.11h-.13s.02-.48.02-.48h.13s-.02.48-.02.48ZM30.04,255.16h-.13c0-.16.01-.31.02-.46v-.03s.13,0,.13,0v.03c0,.15-.02.3-.02.45ZM30.09,254.21h-.13s.02-.48.02-.48h.13s-.02.48-.02.48ZM30.14,253.26h-.13s.03-.48.03-.48h.13s-.03.48-.03.48ZM30.19,252.31h-.13s.03-.49.03-.49h.13s-.03.49-.03.49ZM30.24,251.36h-.13s.03-.48.03-.48h.13s-.03.48-.03.48ZM30.29,250.41h-.13s.03-.48.03-.48h.13s-.03.48-.03.48ZM30.34,249.46h-.13s.03-.48.03-.48h.13s-.03.48-.03.48ZM30.39,248.51h-.13s.03-.48.03-.48h.13s-.03.48-.03.48ZM30.45,247.55h-.13s.03-.48.03-.48h.13s-.03.48-.03.48ZM30.5,246.6h-.13s.03-.48.03-.48h.13s-.03.48-.03.48ZM30.55,245.65h-.13s.03-.48.03-.48h.13s-.03.48-.03.48ZM30.61,244.71h-.13s.03-.48.03-.48h.13s-.03.48-.03.48ZM30.66,243.76h-.13s.03-.48.03-.48h.13s-.03.48-.03.48ZM30.72,242.81h-.13s.03-.48.03-.48h.13s-.03.48-.03.48ZM30.77,241.86h-.13s.03-.48.03-.48h.13s-.03.48-.03.48ZM30.82,240.91h-.13s.03-.48.03-.48h.13s-.03.48-.03.48ZM30.88,239.96h-.13s.03-.48.03-.48h.13s-.03.48-.03.48ZM30.94,239.01h-.13s.03-.48.03-.48h.13s-.03.48-.03.48ZM30.99,238.06h-.13s.03-.48.03-.48h.13s-.03.48-.03.48ZM31.05,237.11h-.13s.03-.48.03-.48h.13s-.03.48-.03.48ZM31.1,236.16h-.13s.03-.48.03-.48h.13s-.03.48-.03.48ZM31.16,235.21h-.13s.03-.48.03-.48h.13s-.03.48-.03.48ZM31.21,234.26h-.13s.03-.48.03-.48h.13s-.03.48-.03.48ZM31.27,233.31h-.13s.03-.48.03-.48h.13s-.03.48-.03.48ZM31.32,232.36h-.13s.03-.48.03-.48h.13s-.03.48-.03.48ZM31.38,231.41h-.13s.03-.49.03-.49h.13s-.03.49-.03.49ZM31.44,230.46h-.13s.03-.49.03-.49h.13s-.03.49-.03.49ZM31.49,229.51h-.13s.03-.48.03-.48h.13s-.03.48-.03.48ZM31.55,228.56h-.13s.03-.48.03-.48h.13s-.03.48-.03.48ZM31.61,227.61h-.13s.03-.48.03-.48h.13s-.03.48-.03.48ZM31.66,226.66h-.13s.03-.48.03-.48h.13s-.03.48-.03.48ZM31.72,225.71h-.13s.03-.48.03-.48h.13s-.03.48-.03.48ZM31.78,224.76h-.13s.03-.48.03-.48h.13s-.03.48-.03.48ZM31.84,223.81h-.13s.03-.48.03-.48h.13s-.03.48-.03.48ZM31.89,222.87h-.13s.03-.48.03-.48h.13s-.03.48-.03.48ZM31.95,221.91h-.13s.03-.48.03-.48h.13s-.03.48-.03.48ZM32.01,220.97h-.13s.03-.48.03-.48h.13s-.03.48-.03.48ZM32.06,220.02h-.13s.03-.48.03-.48h.13s-.03.48-.03.48ZM32.12,219.07h-.13s.03-.49.03-.49h.13s-.03.49-.03.49ZM32.18,218.12h-.13s.03-.48.03-.48h.13s-.03.48-.03.48ZM32.24,217.17h-.13s.03-.48.03-.48h.13s-.03.48-.03.48ZM32.29,216.22h-.13s.03-.48.03-.48h.13s-.03.48-.03.48ZM32.35,215.27h-.13s.03-.48.03-.48h.13s-.03.48-.03.48ZM32.41,214.32h-.13s.03-.48.03-.48h.13s-.03.48-.03.48ZM32.47,213.37h-.13s.03-.48.03-.48h.13s-.03.48-.03.48ZM32.53,212.42h-.13s.03-.48.03-.48h.13s-.03.48-.03.48ZM32.59,211.47h-.13s.03-.48.03-.48h.13s-.03.48-.03.48ZM32.64,210.52h-.13s.03-.48.03-.48h.13s-.03.48-.03.48ZM32.7,209.57h-.13s.03-.49.03-.49h.13s-.03.49-.03.49ZM32.76,208.62h-.13s.03-.49.03-.49h.13s-.03.49-.03.49ZM32.82,207.67h-.13s.03-.49.03-.49h.13s-.03.49-.03.49ZM32.88,206.72h-.13s.03-.48.03-.48h.13s-.03.48-.03.48ZM32.94,205.77h-.13s.03-.48.03-.48h.13s-.03.48-.03.48ZM32.99,204.82h-.13s.03-.48.03-.48h.13s-.03.48-.03.48ZM33.05,203.87h-.13s.03-.48.03-.48h.13s-.03.48-.03.48ZM33.11,202.93h-.13s.03-.48.03-.48h.13s-.03.48-.03.48ZM33.17,201.98h-.13s.03-.48.03-.48h.13s-.03.48-.03.48ZM33.23,201.03h-.13s.03-.48.03-.48h.13s-.03.48-.03.48ZM33.29,200.08h-.13s.03-.48.03-.48h.13s-.03.48-.03.48ZM33.35,199.13h-.13s.03-.49.03-.49h.13s-.03.49-.03.49ZM33.41,198.18h-.13s.03-.49.03-.49h.13s-.03.49-.03.49ZM33.47,197.23h-.13s.03-.49.03-.49h.13s-.03.49-.03.49ZM33.53,196.28h-.13s.03-.49.03-.49h.13s-.03.49-.03.49ZM33.58,195.33h-.13s.03-.49.03-.49h.13s-.03.49-.03.49ZM33.64,194.38h-.13s.03-.49.03-.49h.13s-.03.49-.03.49ZM33.7,193.44h-.13s.03-.49.03-.49h.13s-.03.49-.03.49ZM33.76,192.49h-.13s.03-.49.03-.49h.13s-.03.49-.03.49ZM33.82,191.54h-.13s.03-.49.03-.49h.13s-.03.49-.03.49ZM33.88,190.59h-.13s.03-.49.03-.49h.13s-.03.49-.03.49ZM33.94,189.64h-.13s.03-.49.03-.49h.13s-.03.49-.03.49ZM34,188.69h-.13s.03-.49.03-.49h.13s-.03.49-.03.49ZM34.06,187.74h-.13s.03-.49.03-.49h.13s-.03.49-.03.49ZM34.12,186.79h-.13s.03-.49.03-.49h.13s-.03.49-.03.49ZM34.18,185.84h-.13s.03-.49.03-.49h.13s-.03.49-.03.49ZM34.24,184.89h-.13s.03-.49.03-.49h.13s-.03.49-.03.49ZM34.3,183.94h-.13s.03-.48.03-.48h.13s-.03.48-.03.48ZM34.36,182.99h-.13s.03-.48.03-.48h.13s-.03.48-.03.48ZM34.42,182.04h-.13s.03-.48.03-.48h.13s-.03.48-.03.48ZM34.48,181.09h-.13s.03-.48.03-.48h.13s-.03.48-.03.48ZM34.54,180.14h-.13s.03-.49.03-.49h.13s-.03.49-.03.49ZM34.6,179.2h-.13s.03-.49.03-.49h.13s-.03.49-.03.49ZM34.66,178.25h-.13s.03-.49.03-.49h.13s-.03.49-.03.49ZM34.72,177.3h-.13s.03-.49.03-.49h.13s-.03.49-.03.49ZM34.78,176.35h-.13s.03-.49.03-.49h.13s-.03.49-.03.49ZM34.84,175.4h-.13s.03-.49.03-.49h.13s-.03.49-.03.49ZM34.9,174.45h-.13s.03-.49.03-.49h.13s-.03.49-.03.49ZM34.96,173.5h-.13s.03-.49.03-.49h.13s-.03.49-.03.49ZM35.02,172.55h-.13s.03-.49.03-.49h.13s-.03.49-.03.49ZM35.08,171.6h-.13s.03-.49.03-.49h.13s-.03.49-.03.49ZM35.14,170.65h-.13s.03-.49.03-.49h.13s-.03.49-.03.49ZM35.2,169.7h-.13s.03-.49.03-.49h.13s-.03.49-.03.49ZM35.26,168.75h-.13s.03-.49.03-.49h.13s-.03.49-.03.49ZM35.32,167.8h-.13s.03-.49.03-.49h.13s-.03.49-.03.49ZM35.38,166.85h-.13c0-.17.02-.33.03-.49h.13c-.01.17-.02.33-.03.49ZM35.44,165.9h-.13s.03-.49.03-.49h.13s-.03.49-.03.49ZM35.5,164.95h-.13s.03-.49.03-.49h.13s-.03.49-.03.49ZM35.56,164h-.13s.03-.49.03-.49h.13s-.03.49-.03.49ZM35.63,163.05h-.13s.03-.49.03-.49h.13s-.03.49-.03.49ZM35.69,162.1h-.13s.03-.49.03-.49h.13s-.03.49-.03.49ZM35.75,161.15h-.13s.03-.49.03-.49h.13s-.03.49-.03.49ZM35.81,160.2h-.13s.03-.49.03-.49h.13s-.03.49-.03.49ZM35.87,159.26h-.13s.03-.49.03-.49h.13s-.03.49-.03.49ZM35.93,158.3h-.13s.03-.49.03-.49h.13s-.03.49-.03.49ZM35.99,157.35h-.13s.03-.49.03-.49h.13s-.03.49-.03.49ZM36.05,156.4h-.13s.03-.49.03-.49h.13s-.03.49-.03.49ZM36.11,155.45h-.13s.03-.49.03-.49h.13s-.03.49-.03.49ZM36.18,154.5h-.13s.03-.49.03-.49h.13s-.03.49-.03.49ZM36.24,153.54h-.13s.03-.5.03-.5h.13s-.03.5-.03.5Z"/>
              <path class="cls-14" d="M57.26,268.46c0-.14-.02-.3-.03-.47h.13c.01.17.02.33.03.47h-.13ZM57.2,267.51c-.01-.15-.02-.31-.04-.47h.13c.01.15.03.31.04.46h-.13ZM57.12,266.56c-.01-.15-.03-.31-.04-.47h.13c.01.15.03.31.04.46h-.13ZM57.04,265.61l-.04-.47h.13s.04.46.04.46h-.13ZM56.95,264.66l-.04-.47h.13s.04.46.04.46h-.13ZM56.87,263.72l-.05-.47h.13s.05.46.05.46h-.13ZM56.78,262.77l-.05-.47h.13s.05.46.05.46h-.13ZM56.68,261.82l-.05-.47h.13s.05.46.05.46h-.13ZM56.59,260.87l-.05-.47h.13s.05.46.05.46h-.13ZM56.5,259.93l-.05-.47h.13s.05.46.05.46l-.13.02ZM56.41,258.98l-.05-.47.13-.02.05.47-.13.02ZM56.31,258.04l-.05-.47.13-.02.05.47-.13.02ZM56.21,257.09l-.05-.47.13-.02.05.47-.13.02ZM56.12,256.14l-.05-.47.13-.02.05.47-.13.02ZM56.02,255.2l-.05-.47.13-.02.05.47-.13.02ZM55.92,254.25l-.05-.47.13-.02.05.47-.13.02ZM55.83,253.31l-.05-.47.13-.02.05.47-.13.02ZM55.73,252.36l-.05-.47.13-.02.05.47-.13.02ZM55.63,251.41c-.01-.14-.03-.28-.04-.42v-.05s.12-.02.12-.02v.05c.02.14.03.28.05.42h-.13ZM55.53,250.47l-.05-.47.13-.02.05.47-.13.02ZM55.43,249.52l-.05-.47.13-.02.05.47-.13.02ZM55.34,248.58l-.05-.47.13-.02.05.47-.13.02ZM55.24,247.63l-.05-.47.13-.02.05.47-.13.02ZM55.14,246.69l-.05-.47.13-.02.05.47-.13.02ZM55.04,245.74l-.05-.47.13-.02.05.47-.13.02ZM54.94,244.8l-.05-.47.13-.02.05.47-.13.02ZM54.84,243.85l-.05-.47.13-.02.05.47-.13.02ZM54.74,242.91l-.05-.47.13-.02.05.47-.13.02ZM54.64,241.96l-.05-.47.13-.02.05.47-.13.02ZM54.54,241.01l-.05-.47.13-.02.05.47-.13.02ZM54.44,240.07l-.05-.47.13-.02.05.47-.13.02ZM54.34,239.13l-.05-.47.13-.02.05.47-.13.02ZM54.24,238.18l-.05-.47.13-.02.05.47-.13.02ZM54.13,237.23l-.05-.47.13-.02.05.47-.13.02ZM54.03,236.29l-.05-.47.13-.02.05.47-.13.02ZM53.93,235.34l-.05-.47.13-.02.05.47-.13.02ZM53.83,234.4l-.05-.47.13-.02.05.47-.13.02ZM53.73,233.45l-.05-.47.13-.02.05.47-.13.02ZM53.63,232.51l-.05-.47.13-.02.05.47-.13.02ZM53.53,231.56l-.05-.47.13-.02.05.47-.13.02ZM53.42,230.62l-.05-.47.13-.02.05.47-.13.02ZM53.32,229.67l-.05-.47.13-.02.05.47-.13.02ZM53.22,228.73l-.05-.47.13-.02.05.47-.13.02ZM53.12,227.78l-.05-.47.13-.02.05.47-.13.02ZM53.02,226.84l-.05-.47.13-.02.05.47-.13.02ZM52.91,225.89l-.05-.47.13-.02.05.47-.13.02ZM52.81,224.95l-.05-.47.13-.02.05.47-.13.02ZM52.71,224l-.05-.47.13-.02.05.47-.13.02ZM52.61,223.06l-.05-.47.13-.02.05.47-.13.02ZM52.5,222.11l-.05-.47.13-.02.05.47-.13.02ZM52.4,221.17l-.05-.47.13-.02.05.47-.13.02ZM52.3,220.22l-.05-.47.13-.02.05.47-.13.02ZM52.2,219.28l-.05-.47.13-.02.05.47-.13.02ZM52.09,218.34l-.05-.47.13-.02.05.47-.13.02ZM51.99,217.39l-.05-.47.13-.02.05.47-.13.02ZM51.89,216.45l-.05-.47.13-.02.05.47-.13.02ZM51.78,215.5l-.05-.47.13-.02.05.47-.13.02ZM51.68,214.55l-.05-.47.13-.02.05.47-.13.02ZM51.58,213.61l-.05-.47.13-.02.05.47-.13.02ZM51.47,212.67l-.05-.47.13-.02.05.47-.13.02ZM51.37,211.72l-.05-.47.13-.02.05.47-.13.02ZM51.27,210.78l-.05-.47.13-.02.05.47-.13.02ZM51.16,209.83l-.05-.47.13-.02.05.47-.13.02ZM51.06,208.88l-.05-.47.13-.02.05.47-.13.02ZM50.96,207.94l-.05-.47.13-.02.05.47-.13.02ZM50.85,206.99l-.05-.47.13-.02.05.47-.13.02ZM50.75,206.04l-.05-.47.13-.02.05.47-.13.02ZM50.65,205.1l-.05-.47.13-.02.05.47-.13.02ZM50.54,204.16l-.05-.47.13-.02.05.47-.13.02ZM50.44,203.22l-.05-.47.13-.02.05.47-.13.02ZM50.33,202.28l-.05-.47.13-.02.05.47-.13.02ZM50.23,201.33l-.05-.47.13-.02.05.47-.13.02ZM50.13,200.39l-.05-.47.13-.02.05.47-.13.02ZM50.02,199.44l-.05-.47.13-.02.05.47-.13.02ZM49.92,198.5l-.05-.47.13-.02.05.47-.13.02ZM49.82,197.55l-.05-.47.13-.02.05.47-.13.02ZM49.71,196.61l-.05-.47.13-.02.05.47-.13.02ZM49.61,195.66l-.05-.47.13-.02.05.47-.13.02ZM49.5,194.72l-.05-.47.13-.02.05.47-.13.02ZM49.4,193.77l-.05-.47.13-.02.05.47-.13.02ZM49.29,192.83l-.05-.47.13-.02.05.47-.13.02ZM49.19,191.88l-.05-.47.13-.02.05.47-.13.02ZM49.09,190.94l-.05-.47.13-.02.05.47-.13.02ZM48.98,189.99l-.05-.47.13-.02.05.47-.13.02ZM48.88,189.05l-.05-.47.13-.02.05.47-.13.02ZM48.77,188.1l-.05-.47.13-.02.05.47-.13.02ZM48.67,187.16l-.05-.47.13-.02.05.47-.13.02ZM48.56,186.22l-.05-.47.13-.02.05.47-.13.02ZM48.46,185.27l-.05-.47.13-.02.05.47-.13.02ZM48.36,184.33l-.05-.47.13-.02.05.47-.13.02ZM48.25,183.38l-.05-.47.13-.02.05.47-.13.02ZM48.15,182.44l-.05-.47.13-.02.05.47-.13.02ZM48.04,181.49l-.05-.47.13-.02.05.47-.13.02ZM47.94,180.55l-.05-.47.13-.02.05.47-.13.02ZM47.83,179.6l-.05-.47.13-.02.05.47-.13.02ZM47.73,178.66l-.05-.47.13-.02.05.47-.13.02ZM47.62,177.71l-.05-.47.13-.02.05.47-.13.02ZM47.52,176.77l-.05-.47.13-.02.05.47-.13.02ZM47.41,175.82l-.05-.47.13-.02.05.47-.13.02ZM47.31,174.88l-.05-.47.13-.02.05.47-.13.02ZM47.2,173.93l-.05-.47.13-.02.05.47-.13.02ZM47.1,172.99l-.05-.47.13-.02.05.47-.13.02ZM46.99,172.04l-.05-.47.13-.02.05.47-.13.02ZM46.89,171.1l-.05-.47.13-.02.05.47-.13.02ZM46.78,170.16l-.05-.47.13-.02.05.47-.13.02ZM46.68,169.21l-.05-.47.13-.02.05.47-.13.02ZM46.57,168.27l-.05-.47.13-.02.05.47-.13.02ZM46.47,167.32l-.05-.47.13-.02.05.47-.13.02ZM46.36,166.38l-.05-.47.13-.02.05.47-.13.02ZM46.26,165.43l-.05-.47.13-.02.05.47-.13.02ZM46.15,164.49l-.05-.47.13-.02.05.47-.13.02ZM46.05,163.54l-.05-.47.13-.02.05.47-.13.02ZM45.94,162.6l-.05-.47.13-.02.05.47-.13.02ZM45.83,161.65l-.05-.47.13-.02.05.47-.13.02ZM45.73,160.71l-.05-.47.13-.02.05.47-.13.02ZM45.62,159.76l-.05-.47.13-.02.05.47-.13.02ZM45.52,158.81l-.05-.47.13-.02.05.47-.13.02ZM45.41,157.87l-.05-.47.13-.02.05.47-.13.02ZM45.3,156.92l-.05-.47.13-.02.05.47-.13.02ZM45.2,155.98l-.05-.47.13-.02.05.47-.13.02ZM45.09,155.03l-.05-.47.13-.02.05.48-.13.02ZM44.99,154.08l-.06-.49.13-.02.06.49-.13.02Z"/>
            </g>
            <path class="cls-14" d="M55.66,265.36c3.19.28,6.38.27,9.56-.04.28-.03.28-.5,0-.48-3.18.31-6.37.32-9.56.04-.28-.03-.28.45,0,.48h0Z"/>
            <path class="cls-14" d="M20.94,265c3.42.29,6.85.35,10.27.18.28-.01.28-.49,0-.48-3.43.17-6.85.11-10.27-.18-.28-.02-.28.45,0,.48h0Z"/>
          </g>
          <g>
            <path class="cls-21" d="M63.06,96.55s10.59-1.96,14.52-6.26c-1.36-5.18-11.8-29.08-19.75-31.89-1.47-.52-2.86-.99-4.15-1.4-4.16,5.17-8.85,9.82-13.95,13.84-.37.29-.8.6-1.25.51-.36-.07-.63-.38-.88-.67-3.76-4.39-7.51-8.77-11.27-13.16-3.69,1.58-7.42,3.66-9.06,6.11-3.79,5.63-11.86,20.09-13.4,27.94,2.05,3.98,8.61,6.46,13.72,6.35.61-1.91,1.06-3.72,1.86-6.34-.45,11.14-3.01,46.91-3.01,46.91,0,0,22.49,4.39,48.4,0l-3.21-46.37,1.44,4.44Z"/>
            <path class="cls-14" d="M62.05,93.43l-.03-.14s.15-.05.42-.13l.04.14c-.27.09-.42.13-.42.13ZM62.89,93.15l-.04-.14c.13-.04.27-.09.42-.14l.04.14c-.15.05-.29.1-.42.14ZM63.72,92.87l-.04-.14c.13-.05.27-.09.42-.14l.04.14c-.14.05-.28.1-.42.15ZM64.55,92.58l-.04-.14c.13-.05.27-.1.41-.15l.04.14c-.14.05-.28.1-.41.15ZM65.38,92.28l-.04-.13c.14-.05.27-.1.41-.15l.04.13c-.14.05-.28.1-.41.15ZM66.2,91.97l-.04-.13c.14-.05.27-.1.41-.16l.04.13c-.14.06-.28.11-.41.16ZM67.02,91.64l-.05-.13c.14-.05.27-.11.41-.16l.05.13c-.14.06-.28.11-.41.16ZM67.84,91.31l-.05-.13c.13-.06.27-.11.41-.17l.05.13c-.14.06-.27.12-.41.17ZM68.65,90.97l-.05-.13c.13-.06.27-.12.4-.18l.05.13c-.13.06-.27.12-.4.18ZM69.46,90.61l-.05-.13c.13-.06.27-.12.4-.18l.05.13c-.13.06-.27.12-.4.18ZM70.26,90.24l-.05-.13c.13-.06.27-.13.4-.19l.05.13c-.13.06-.27.13-.4.19ZM71.06,89.85l-.05-.13c.13-.07.26-.13.39-.2l.06.13c-.13.07-.26.13-.4.2ZM71.85,89.45l-.06-.13c.13-.07.26-.14.39-.21l.06.13c-.13.07-.26.14-.39.21ZM72.63,89.02l-.06-.13c.13-.07.26-.15.38-.22l.06.12c-.13.08-.26.15-.39.22ZM73.4,88.57l-.06-.12c.13-.08.25-.16.38-.24l.07.12c-.12.08-.25.16-.38.24ZM74.15,88.09l-.07-.12c.12-.08.25-.17.37-.25l.07.12c-.12.09-.24.17-.37.26ZM74.89,87.56l-.07-.12c.12-.09.24-.18.35-.28l.08.12c-.12.09-.23.18-.36.28ZM75.59,86.99l-.08-.11c.12-.1.22-.2.33-.3l.09.11c-.11.1-.22.21-.34.31Z"/>
            <path class="cls-14" d="M17.56,94.34c-.1,0-.21,0-.31,0v-.14c.11,0,.21,0,.31,0h.12s0,.14,0,.14h-.13ZM18.12,94.32v-.14c.14,0,.28-.02.42-.03v.14c-.13.01-.28.03-.42.03ZM16.81,94.31c-.15-.01-.29-.02-.43-.04v-.14c.16.02.3.03.44.04v.14ZM15.94,94.22c-.14-.02-.29-.04-.43-.07l.02-.14c.14.03.28.05.43.07l-.02.14ZM15.08,94.06c-.14-.03-.28-.06-.43-.1l.03-.14c.14.03.28.07.42.1l-.03.14ZM14.23,93.85c-.14-.04-.28-.08-.42-.13l.04-.14c.14.04.28.09.42.12l-.03.14ZM13.4,93.58c-.14-.05-.28-.1-.41-.15l.04-.13c.14.05.27.1.41.15l-.04.14ZM12.57,93.27c-.14-.06-.27-.11-.41-.17l.05-.13c.13.06.27.12.41.17l-.05.13ZM11.76,92.92c-.14-.06-.27-.13-.4-.19l.05-.13c.13.06.26.13.4.19l-.05.13ZM10.96,92.53c-.13-.07-.26-.14-.39-.21l.06-.13c.13.07.26.14.39.21l-.06.13ZM10.18,92.1c-.13-.07-.26-.15-.39-.22l.06-.12c.13.08.25.15.38.22l-.06.13ZM9.42,91.64c-.13-.08-.25-.16-.38-.24l.07-.12c.12.08.25.16.38.24l-.07.12ZM8.67,91.16c-.13-.08-.25-.17-.37-.25l.07-.12c.12.08.24.17.37.25l-.07.12ZM7.93,90.65c-.12-.09-.25-.18-.36-.26l.07-.12c.12.09.24.17.36.26l-.07.12ZM7.21,90.11c-.12-.09-.24-.19-.36-.28l.08-.12c.11.09.23.18.35.28l-.07.12ZM6.5,89.55c-.12-.1-.24-.2-.35-.29l.08-.11c.11.09.22.19.35.29l-.08.11ZM5.81,88.97c-.12-.11-.24-.21-.34-.3l.08-.11c.1.09.21.19.34.3l-.08.11ZM5.14,88.36c-.21-.2-.33-.32-.33-.32l.09-.1s.11.12.33.32l-.09.11Z"/>
            <path class="cls-17" d="M40.54,136.52h-.43v-.14h.43v.14ZM40.98,136.52v-.14h.43s0,.14,0,.14h-.43ZM39.67,136.52h-.43s0-.15,0-.15h.43s0,.15,0,.15ZM41.85,136.52v-.14s.43,0,.43,0v.14s-.43,0-.43,0ZM38.8,136.51h-.43s0-.15,0-.15h.43s0,.15,0,.15ZM42.72,136.51v-.14s.42,0,.42,0v.07s.01.07.01.07h-.44ZM37.93,136.5h-.43s0-.15,0-.15h.43s0,.15,0,.15ZM43.59,136.5v-.14s.43,0,.43,0v.14s-.43,0-.43,0ZM37.06,136.48h-.43s0-.15,0-.15h.43s0,.15,0,.15ZM44.47,136.48v-.14s0,0,0,0h.42s0,.13,0,.13h-.42ZM36.19,136.46h-.43s0-.16,0-.16h.43s0,.16,0,.16ZM45.33,136.45v-.14s.43-.01.43-.01v.14s-.43.01-.43.01ZM35.33,136.43l-.43-.02v-.14s.44.02.44.02v.14ZM46.19,136.42v-.14s.43-.02.43-.02v.14s-.43.02-.43.02ZM34.46,136.4l-.43-.02v-.14s.44.02.44.02v.14ZM47.06,136.39v-.14s.43-.02.43-.02v.14s-.43.02-.43.02ZM33.59,136.36l-.43-.02v-.14s.44.02.44.02v.14ZM47.93,136.35v-.14s.43-.02.43-.02v.14s-.43.02-.43.02ZM32.72,136.32l-.43-.02v-.14s.44.02.44.02v.14ZM48.8,136.3v-.14s.43-.02.43-.02v.14s-.43.02-.43.02ZM31.85,136.27l-.43-.03v-.14s.44.03.44.03v.14ZM49.68,136.25l-.02-.14h.01c.14,0,.28-.02.42-.03v.14c-.13,0-.28.02-.42.03ZM30.98,136.22l-.43-.03v-.14s.44.03.44.03v.14ZM50.54,136.2v-.14s.43-.03.43-.03v.14s-.43.03-.43.03ZM30.11,136.16l-.43-.03v-.14s.44.03.44.03v.14ZM51.4,136.14v-.14s.42-.03.42-.03v.14s-.42.03-.42.03ZM29.24,136.1l-.43-.03v-.14s.44.03.44.03v.14ZM52.27,136.07v-.14c.14-.01.28-.02.42-.03v.14c-.14.01-.28.02-.42.03ZM28.38,136.03c-.15-.01-.29-.02-.43-.04v-.14c.15.01.3.02.44.04v.14ZM53.14,136v-.14c.13-.01.28-.02.42-.04v.14c-.14.01-.28.03-.42.04ZM27.51,135.96c-.15-.01-.29-.03-.43-.04v-.14c.15.01.3.03.44.04v.14ZM54.01,135.92v-.14c.13-.01.28-.03.42-.04v.14c-.13.01-.28.03-.42.04ZM26.64,135.88c-.15-.01-.29-.03-.43-.04v-.14c.15.01.3.03.45.04v.14ZM54.87,135.84v-.14c.13-.01.28-.03.42-.04v.14c-.13.01-.28.03-.42.04ZM25.78,135.8l-.43-.04v-.14s.44.04.44.04v.14ZM55.74,135.75v-.14s.42-.05.42-.05v.14s-.42.05-.42.05ZM24.91,135.71l-.43-.05v-.14s.44.05.44.05v.14ZM56.6,135.66v-.14s.42-.05.42-.05v.14s-.42.05-.42.05ZM24.04,135.62l-.43-.05v-.14s.45.05.45.05v.14ZM57.47,135.56v-.14s.42-.05.42-.05v.14s-.42.05-.42.05ZM23.18,135.52l-.43-.05v-.14s.45.05.45.05v.14ZM58.33,135.46v-.14s.42-.05.42-.05v.14s-.42.05-.42.05ZM22.32,135.41l-.43-.06v-.14s.45.06.45.06v.14ZM59.2,135.35v-.14s0,0,0,0c.14-.02.27-.03.41-.05l.02.14c-.14.02-.27.04-.41.05h-.02ZM21.45,135.3c-.15-.02-.29-.04-.43-.06l.02-.14c.14.02.28.04.43.06l-.02.14ZM60.06,135.24l-.02-.14h.02c.14-.02.27-.04.41-.06l.02.14c-.14.02-.27.04-.41.06h-.02ZM20.59,135.18c-.15-.02-.29-.04-.43-.06l.02-.14c.14.02.28.04.43.06l-.02.14ZM60.92,135.12l-.02-.14c.14-.02.29-.04.43-.06l.02.14c-.14.02-.29.04-.43.06ZM19.73,135.05c-.15-.02-.29-.04-.43-.07l.02-.14c.14.02.28.04.43.07l-.02.14ZM61.78,134.99l-.02-.14c.14-.02.29-.04.43-.06l.02.14c-.14.02-.29.04-.43.06ZM18.86,134.92c-.15-.02-.29-.05-.43-.07l.02-.14c.14.02.28.05.43.07l-.02.14ZM62.64,134.86l-.02-.14h.03c.13-.02.27-.05.4-.07l.02.14c-.13.02-.27.04-.4.06h-.03ZM18,134.78c-.16-.03-.3-.05-.43-.07l.02-.14c.13.02.27.05.43.07l-.02.14ZM63.49,134.72l-.02-.14.43-.07.02.14-.43.07ZM17.14,134.63c-.28-.05-.43-.08-.43-.08l.02-.14s.15.03.43.08l-.02.14ZM64.35,134.58l-.02-.14.21-.04.02.14-.22.04Z"/>
          </g>
          <path class="cls-6" d="M50.76,56.07l-11.24,12.93-10.55-12.54c-1.32.49-2.72,1.06-4.09,1.7l14.91,16.05,14.92-16.88c-1.43-.47-2.76-.89-3.96-1.25Z"/>
          <g>
            <path class="cls-15" d="M44.39,96.32c-.08-.22-.24-.42-.46-.49-.26-.09-.55.02-.75.22-.19.2-.3.48-.34.77-.09.54.02,1.1.28,1.57-.02.05-.04.11-.04.18-.11,2.38-1.33,3.34-2.86,3.47,1.24-2.69.75-5.75-.04-8.65-1.79-6.59-5.76-12.71-11.65-15.81-.05-.46-.76-.61-.88-.07-1.73,7.46.68,14.95,4.81,21.03,1.52,2.23,3.43,3.96,5.95,4.48-1.17,1.32-2.83,1.84-4.69.36-.1-.08-.2-.1-.29-.09-.12-.32-.26-.63-.44-.91-.18-.28-.39-.55-.68-.71-.29-.15-.66-.17-.92.04-.11.08-.19.2-.25.32-.29.57-.14,1.38.38,1.73.19.13.41.2.63.24.32.06.64.07.97.03.03.06.08.12.14.17,1.91,1.52,4.73,1.18,6.22-.87.04-.06.08-.12.12-.18,2.4.02,4.29-2.14,4.4-4.58,0-.1-.02-.18-.06-.25.19-.2.36-.43.45-.69.07-.19.09-.4.1-.61.01-.23,0-.48-.09-.7ZM34.56,99.71c-1.71-1.75-2.96-4.14-4.03-6.36-2.21-4.55-3.13-9.78-2.17-14.79,4.2,2.31,7.19,6.09,9.29,10.55,1.25,2.65,2.16,5.64,2.44,8.58.14,1.39-.24,3.03-.97,4.32-1.68-.23-3.49-1.21-4.56-2.3Z"/>
            <g>
              <path class="cls-17" d="M34.21,52.75c-.28-.38-.46-.84-.52-1.33-3.35,1.2-6.27,3.42-7.94,6.96-2.8,5.97-1.5,14.06,1.67,19.56.46.79,1.63.07,1.18-.73-3.01-5.24-4.02-12.39-1.67-18.11,1.39-3.37,4.14-5.33,7.28-6.36Z"/>
              <path class="cls-17" d="M55.88,60.85c-.8-3.04-2.42-5.38-4.53-7.07-.85-.02-1.71-.03-2.56-.05,2.97,1.75,5.14,4.65,6.04,8.59,1.18,5.17.11,10.8-1.01,15.86-.2.9,1.11,1.29,1.31.38,1.27-5.76,2.27-11.9.74-17.72Z"/>
            </g>
            <ellipse class="cls-15" cx="53.22" cy="81.43" rx="4.77" ry="5.04"/>
            <ellipse class="cls-16" cx="53.22" cy="81.43" rx="2.04" ry="2.15"/>
          </g>
          <g>
            <path class="cls-20" d="M39.07,68.99c.38.08.74-.19,1.05-.45,4.27-3.57,8.19-7.69,11.67-12.27-4.78-1.64-7.96-2.41-7.96-2.41h-6.92s-3.97,1.06-7.99,2.88c3.14,3.89,6.28,7.78,9.42,11.66.21.26.44.53.73.59Z"/>
            <rect class="cls-20" x="34.62" y="47.23" width="10.2" height="13.5"/>
            <path class="cls-3" d="M57.12,27.03c-.8-.4-1.9,0-2.9.6-.9-9.5-7-16.9-14.4-16.9s-13.7,7.6-14.5,17.4c-1.1-1-2.4-1.5-3.4-1-1.3.6-1.5,2.4-.4,4.1,1,1.6,2.7,2.5,4,2.1,1.1,9.2,7.1,16.2,14.4,16.2s13.2-7,14.4-16.2c1.2,0,2.5-.9,3.4-2.2,1.1-1.7.9-3.5-.4-4.1,0,0-.2,0-.2,0Z"/>
            <g>
              <path class="cls-4" d="M50.82,24.93c-.2,0-.3,0-.4-.2-1.6-2.8-4.1-1.7-4.2-1.7-.2,0-.5,0-.7-.2,0-.2,0-.5.2-.7,1.3-.5,4-.9,5.6,2.1,0,.2,0,.5-.2.7h-.3Z"/>
              <path class="cls-4" d="M29.92,24.93c.2,0,.3,0,.4-.2,1.6-2.8,4.1-1.7,4.2-1.7.2,0,.5,0,.7-.2,0-.2,0-.5-.2-.7-1.3-.5-4-.9-5.6,2.1,0,.2,0,.5.2.7,0,0,.3,0,.3,0Z"/>
              <path class="cls-4" d="M33.12,26.93c0,.9.6,1.9,1.4,1.9s1.5-.9,1.5-1.9-.6-1.9-1.4-1.9-1.5.9-1.5,1.9Z"/>
              <path class="cls-4" d="M45.62,26.93c0,.9.6,1.9,1.4,1.9s1.5-.9,1.5-1.9-.6-1.9-1.4-1.9-1.5.9-1.5,1.9Z"/>
              <path class="cls-2" d="M35.72,38.83c.2.2,1.4,2.8,4.5,2.7,3.1,0,4.3-2.4,4.5-2.7"/>
              <path class="cls-18" d="M31.62,37.93c.7-1.1,2.5-1.8,4.4-2.1s3.8-.4,5.7,0c1.5.2,3.2.7,4.4,1.2.3,0,.7.3.8.6.2.5-.6.6-1.2.7-4.6.5-8.9.7-13.5,0"/>
              <path class="cls-5" d="M42.32,32.73c0,1.3-.9,2.2-2.2,2.2s-2.2-.9-2.2-2.2.9,1.3,2.2,1.3,2.2-2.5,2.2-1.3Z"/>
              <path class="cls-8" d="M51.02,29.73c1.8,0,3.3,1.4,3.2,2.8s-1.7,2.6-3.6,2.5-3.3-1.4-3.2-2.8,1.7-2.6,3.6-2.5Z"/>
              <path class="cls-8" d="M30.42,29.73c1.8,0,3.3,1.4,3.2,2.8s-1.7,2.6-3.6,2.5-3.3-1.4-3.2-2.8,1.7-2.6,3.6-2.5Z"/>
            </g>
          </g>
          <g>
            <line class="cls-1" x1="24.35" y1="25.35" x2="29.44" y2="32.85"/>
            <path class="cls-1" d="M26.03,34.71s1.81,5.06,2.88,7.67"/>
            <line class="cls-1" x1="55.53" y1="25.53" x2="50.38" y2="32.85"/>
            <path class="cls-1" d="M53.67,34.88s-1.68,4.89-2.75,7.5"/>
            <path class="cls-15" d="M39.91,48.4s4.93.03,11.19-6.02l-.27-8.88c-.02-.63-.45-1.16-1.05-1.29l-9.87-2.17-9.87,2.17c-.6.13-1.03.66-1.05,1.29l-.27,8.88c6.26,6.05,11.19,6.02,11.19,6.02Z"/>
          </g>
          <path class="cls-18" d="M56.82,10.43c.6-.3,2.5-.5,1.9-1.3-.9-1.2-4-.4-5.4-.3.6-.4,1.6-.7,1.1-1.4-1.1-1.6-4.6-.7-6.3-.5.7-.7.5-1.4-.6-1.6-2.1-.5-4.4.2-6.3.8-.4-1.4-1.5-1.6-3.3-1.2-.9.2-1.5.7-2.3.9-.7.2-.5.2-.8-.2-1-1.1-1.5-1.6-3.2-1.1-2.1.6-2.8,1.7-3.9,3-.6-.4-1.7-.9-2.3,0-.5.7.3,1.8.8,2.4-1,.3-1.8.3-1.8,1.5s1.4,2.5.5,3c-1.2.6-2.6,0-2.3,1.7.2,1.4,1.6,2.3,1.7,3.7-.6,0-1.8,0-2.3.4-1.1.6-.3,1.9.3,2.5s2,1.4,1.6,2c-.3.4-1.5,0-1.9.6s0,2,.3,2.5c.2.5,1.5,1.3,1.5,1.7s-.9.7-1,1.2c0,.6.2,1.1.6,1.6.5.5.2,2.7,3.2,2,.6,0,2.2-1.8,1.8-2.2s-.7-.4-.8-.5c-.3-.5,1.2-4.5-.7-4,1.7-.8,3.5-3.8,1-4.8.8-.6,1.7-1.1,1.9-2.1,0-.5,0-1.3-.3-1.7-.2-.4-.6-.5-.9-.9,1-.5,3.9-1.6,3.6-2.7,1.2,0,2.7-.5,3.7-.9,0,0,.7-.4,1.1-.7.4.5,1.3.7,1.9.8,1,.2,3.7.2,4.9-.5.3,0,.7.2.8.2.8.2,2.4.2,3.2,0,.4.6,1.5,1.7,1.8,2.1.3.4.6,1.2,1.1,1.6,0,1.4.5,2.9,1,4.2,0,.2.4.7.4.9,0,.3-.8.8-.9,1.2-.4,1.1.3,2.3.5,3.3,0,.7-.2,1.3,0,2,0,.8.7,3.8,2.1,3.4,1.7-.4,0-2,.3-2.7,0-.4.6-.7.8-1,.6-.6,1.1-1.3,1.4-2.1.5-1.1.6-2-.4-2.8.8-1.1,4.1-3.8.9-4.4,1.5-1.3.7-4.5-.9-5.6,1.1-.5,2.8-1,3.2-2.1.5-1.2-1.2-1.8-2.4-1.7v-.2s.1,0,.1,0Z"/>
          <g>
            <path class="cls-10" d="M40.42,0c5.14,0,11.63,1.91,15.48,3.21,2,.68,3.36,2.55,3.39,4.66.03,2.66,0,6.66-.31,11.24-.01.2-.19.34-.39.31-1.74-.31-9.51-1.58-18.17-1.58s-16.42,1.28-18.17,1.58c-.2.03-.38-.11-.39-.31-.3-4.58-.34-8.57-.31-11.24.02-2.12,1.38-3.98,3.39-4.66,3.85-1.31,10.34-3.21,15.48-3.21Z"/>
            <path class="cls-19" d="M40.42,17.48c8.72,0,16.65,1.31,18.21,1.58.31-4.62.34-8.63.31-11.19-.02-1.96-1.29-3.7-3.15-4.33-3.51-1.19-10.18-3.2-15.36-3.2s-11.85,2-15.36,3.2c-1.86.63-3.13,2.37-3.15,4.33-.03,2.56,0,6.57.31,11.19,1.56-.27,9.49-1.58,18.21-1.58Z"/>
            <path class="cls-11" d="M40.42,16.77c-12.4,0-17.18-2.18-18.82-3.3.05,1.73.13,3.63.26,5.64.01.2.19.34.39.31,1.74-.31,9.51-1.58,18.17-1.58s16.42,1.28,18.17,1.58c.2.03.38-.11.39-.31.13-2.02.22-3.92.26-5.64-1.64,1.12-6.42,3.3-18.82,3.3Z"/>
          </g>
        </g>
      </g>
    </g>
  </g>
</svg>