<?xml version="1.0" encoding="UTF-8"?>
<svg id="Layer_2" data-name="Layer 2" xmlns="http://www.w3.org/2000/svg" viewBox="0 0 81.3 214.69">
  <defs>
    <style>
      .cls-1, .cls-2 {
        fill: #603813;
      }

      .cls-3 {
        fill: #b23946;
      }

      .cls-4 {
        fill: #273758;
      }

      .cls-5 {
        fill: #e6e6e6;
      }

      .cls-6 {
        fill: #c69696;
      }

      .cls-7 {
        fill: #d9a2a0;
      }

      .cls-8 {
        fill: #8b2b0e;
      }

      .cls-9 {
        fill: #3f6138;
      }

      .cls-2 {
        isolation: isolate;
        opacity: .5;
      }

      .cls-10 {
        fill: #d9b6b6;
      }

      .cls-11 {
        fill: #d9baba;
      }

      .cls-12 {
        fill: none;
        stroke: #630;
        stroke-linecap: round;
        stroke-miterlimit: 10;
      }
    </style>
  </defs>
  <g id="Layer_1-2" data-name="Layer 1">
    <g id="german-girl-drawing">
      <path class="cls-10" d="M63.6,99.15c-1.53,5.83-1.23,11.97.72,17.7.72,2.15,1.43,4.81,1.84,7.98.51,3.07,1.23,7.88,1.23,11.76l-19.33,7.67h-2.86l-19.33-7.36c.1-5.32.72-13.09,2.15-18,.41-1.43.92-2.86,1.43-4.09,2.56-5.52,3.58-11.66,2.56-17.7l-3.99-23.12-1.23-6.85,1.23-.72,16.06-10.13h9.31l14.53,10.02,1.13.72-1.13,6.65-4.19,25.57-.1-.1Z"/>
      <path class="cls-5" d="M63.6,99.15c-1.53,5.83-1.23,11.97.72,17.7.72,2.15,1.43,4.81,1.84,7.98H28v-5.93c.41-1.43.92-2.86,1.43-4.09,2.56-5.52,3.58-11.66,2.56-17.7l-3.99-23.12-1.13-6.85,12.99-8.18,4.19-2.66h9.31l3.58,2.45,12.07,8.29-1.13,6.65-4.19,25.57-.1-.1Z"/>
      <g>
        <path class="cls-10" d="M23.08,178.55c1.2,13.24,3.6,26.95,4.2,26.95l5.8-.32,2.1-27.27,1.6-20.49v-.96c0-.32,0-.56-.2-.8-.7-2.15-3.6-3.67-6.9-3.51-3.3.16-6,2.07-6.2,4.39,0,.64-.2,1.2-.3,1.83-1,4.39-.8,12.2,0,20.17h-.1Z"/>
        <path class="cls-4" d="M34.31,210.35c-.1,1-.7,1.9-1.6,2.4-.6.4-22.7,2.2-23.3,1.9-5-2.1,17.6-10,17.6-10h6.1s1.3,4.5,1.1,5.6h.1v.1Z"/>
        <path class="cls-10" d="M28.99,164.49h0c-3.71-.84-6.34-3.67-5.95-6.31l2.95-24.7c.99-3.44,5.79-5.15,10.73-3.89h0c4.93,1.34,8.16,5.16,7.17,8.6l-7.27,22.93c-.62,2.73-3.75,4.32-7.54,3.39h0l-.1-.02h0Z"/>
      </g>
      <g>
        <path class="cls-10" d="M46.2,178.13c1.2,13.24,3.6,26.95,4.2,26.95l5.8-.32,2.1-27.27,1.6-20.49v-.96c0-.32,0-.56-.2-.8-.7-2.15-3.6-3.67-6.9-3.51-3.3.16-6,2.07-6.2,4.39,0,.64-.2,1.2-.3,1.83-1,4.39-.8,12.2,0,20.17h-.1Z"/>
        <path class="cls-4" d="M57.44,209.93c-.1,1-.7,1.9-1.6,2.4-.6.4-22.7,2.2-23.3,1.9-5-2.1,17.6-10,17.6-10h6.1s1.3,4.5,1.1,5.6h.1v.1Z"/>
        <path class="cls-10" d="M52.11,164.06h0c-3.71-.84-6.34-3.67-5.95-6.31l2.95-24.7c.99-3.44,5.79-5.15,10.73-3.89h0c4.93,1.34,8.16,5.16,7.17,8.6l-7.27,22.93c-.62,2.73-3.75,4.32-7.54,3.39h0l-.1-.02h0Z"/>
      </g>
      <path class="cls-9" d="M65.84,118.09s5.79,10.65,3.03,26.03l-3.46,10.42c-17.83-.98-35.45,1.63-48.31-7.57l14.74-36.66c7.64,2.95,8.32,5.66,31.3,1.31l2.7,6.47h0Z"/>
      <g>
        <path class="cls-8" d="M72.81,39c0-4.81-2.25-8.49-4.09-12.38-.82-1.74-1.64-4.81-2.86-6.14-1.64-1.74-5.52-.92-7.57-1.02-7.57-.31-15.14.2-22.71,1.13-2.35.31-3.78-.61-4.71,2.76-.61,2.15-1.02,2.97-1.02,2.97-2.35,4.09-6.24,6.55-7.67,11.76-1.13,4.19-.61,9.41,1.84,12.38,0-1.64.2-3.78.51-5.22,1.64,1.23,2.76,3.68,4.4,5.11s3.48,2.66,5.32,3.38c.2-1.43-.31-3.38,0-4.6,1.33,3.27,4.6,4.71,7.06,6.14,0-1.94-.51-4.4,1.13-3.27.41.31,1.02,1.64,1.53,2.05s1.13.82,1.74,1.13c1.84,1.13,2.66,1.43,4.4,0,1.23-1.13,2.76-2.66,3.78-4.09.61,1.23.31,3.27.31,4.71,2.05.1,4.5-2.45,5.83-4.4.31,1.13,0,2.35.31,3.48,2.66-.31,7.36-5.22,8.59-8.18,1.23,1.13,2.25,3.68,1.94,5.63,2.15-3.58,2.15-9,2.15-13.4l-.2.1Z"/>
        <path class="cls-6" d="M48.67,59.97h0c-2.56,0-4.6-2.05-4.6-4.6v-6.85h9.31v6.85c0,2.56-2.05,4.6-4.6,4.6h-.1Z"/>
        <path class="cls-11" d="M71.07,29.8c-.92,1.53-2.35,2.56-3.78,2.86h-1.23c-.41,3.99-1.84,7.67-3.89,10.64-3.89,5.83-9.72,9.31-14.01,9.1h-1.02c-4.6,0-9.92-3.17-13.6-8.49-2.05-2.97-3.58-6.55-4.19-10.54h-.31c-1.43-.1-2.97-1.13-3.99-2.66-.2-.31-.31-.51-.41-.82-.2-.41-.31-.72-.41-1.13h0c-.31-1.53,0-2.76,1.23-3.27h0c1.02-.41,2.35-.1,3.58.72.92-12.17,8.49-22.91,17.9-23.12,2.86,0,5.63.82,8.08,2.35,2.35,1.43,4.4,3.68,6.14,6.44h0c2.45,3.99,4.19,9.1,4.71,14.22h0c.51-.51,1.13-.92,1.74-1.13.82-.41,1.74-.41,2.45-.1,1.64.72,1.94,2.97.61,5.22l.41-.31Z"/>
        <g>
          <path class="cls-1" d="M35.34,23.85c.22,0,.44,0,.55-.33,1.86-3.49,5.02-2.07,5.13-1.97.33,0,.66,0,.87-.33,0-.33,0-.66-.33-.87-1.53-.66-4.91-1.09-6.77,2.51,0,.33,0,.66.22.87h.33v.11Z"/>
          <path class="cls-1" d="M54.34,21.02s.33.22.55,0c3.06-1.2,4.37,1.42,4.37,1.53,0,.22.44.33.66.22.22,0,.33-.44.22-.66-.55-1.31-2.51-3.38-5.68-2.07-.22,0-.44.44-.33.66v.22h.22v.11Z"/>
          <path class="cls-1" d="M39.16,26.37c0,1.2.76,2.29,1.64,2.29s1.75-1.09,1.75-2.29-.76-2.29-1.64-2.29-1.75,1.09-1.75,2.29Z"/>
          <path class="cls-1" d="M54.34,26.37c0,1.2.76,2.29,1.64,2.29s1.75-1.09,1.75-2.29-.76-2.29-1.64-2.29-1.75,1.09-1.75,2.29Z"/>
          <path class="cls-12" d="M43.31,41.65c.22.22,1.64,3.38,5.46,3.28,3.71,0,5.24-2.95,5.46-3.28"/>
          <path class="cls-2" d="M51.39,35.1c0,1.53-1.2,2.73-2.73,2.73s-2.73-1.2-2.73-2.73,1.2,1.53,2.73,1.53,2.73-3.06,2.73-1.53Z"/>
          <path class="cls-7" d="M61,29.64c2.18,0,3.93,1.64,3.82,3.49s-2.07,3.17-4.26,3.06-3.93-1.64-3.82-3.49,2.07-3.17,4.26-3.06Z"/>
          <path class="cls-7" d="M36.1,29.64c2.18,0,3.93,1.64,3.82,3.49s-2.07,3.17-4.26,3.06-3.93-1.64-3.82-3.49,2.07-3.17,4.26-3.06Z"/>
        </g>
        <path class="cls-8" d="M68.51,33.28c-.31-3.27-.82-8.9-1.13-11.46,0-.92-.1-1.74-.2-2.66-.31-6.65-2.45-13.91-7.36-17.59-3.48-2.66-6.65-.41-10.43-1.23-7.26-1.43-15.75,1.74-19.64,8.59-2.35,4.09-2.76,8.9-1.94,13.5,0,0,.51,8.69.31,10.74-.31,3.48-1.23,9.82.92,12.89,1.02,1.43,4.19,3.78,5.73,4.6.31-2.25-1.74-4.3-2.15-6.44-.51-2.35-.31-4.91-.31-7.36,0-4.4-.41-8.69-.2-13.09v-1.33c.1-.2.2-.31.31-.51,1.13-1.84,2.45-3.48,3.99-4.91,1.64-1.53,3.58-2.35,5.32-3.78,1.64,1.43,3.17,2.97,5.01,4.09,2.25,1.33,5.32,2.45,7.88,2.66-.31-.61-1.02-1.23-1.53-1.84-.2-.31-.41-.82-.61-1.13,1.33,1.53,3.58,2.76,5.22,3.89,1.53,1.13,3.48,1.64,5.22,2.25.1-.61-1.53-3.38-1.94-4.19.61.82,1.53,1.33,2.05,2.15.61.82,1.02,1.74,1.43,2.56h0v.1c.2,4.4-.2,8.69-.2,13.09s.2,5.01-.31,7.36c-.51,2.15-2.56,4.19-2.15,6.44,1.53-.82,4.71-3.17,5.73-4.6,2.15-2.97,1.23-9.41.92-12.89l.1.1Z"/>
      </g>
      <g>
        <g>
          <path class="cls-10" d="M23.4,98.95h0c.82,1.33,1.13,3.07.72,4.71l-7.88,32.02-6.34-3.17,5.11-31.2c.82-4.81,6.04-6.24,8.49-2.35h-.1Z"/>
          <path class="cls-10" d="M20.23,107.33h0c-3.48.1-5.93-4.09-4.91-8.29l7.26-26.29c1.02-4.19,4.5-6.55,7.88-5.42h0c3.78,1.33,5.73,6.85,3.89,11.35l-10.02,24.35c-.82,2.15-2.15,4.19-3.99,4.3h-.1Z"/>
          <path class="cls-5" d="M25.24,68.05c-3.38,3.07-7.67,9.41-10.95,22.81l13.2,6.55,1.84-5.22c4.3-7.98,7.57-15.34,6.85-20.46-.61-4.91-7.26-6.96-11.05-3.58l.1-.1Z"/>
          <path class="cls-10" d="M13.89,145.59l2.45-10.54-6.34-3.17v.41c-7.98,3.89-9.41,10.33-9.41,10.33-1.43,6.24,0,7.06,1.53,6.75,1.02-.2,1.84-1.02,2.45-2.05,2.45-4.5,7.88-8.39,7.88-8.39-.82,9.21,1.53,6.55,1.53,6.55l-.1.1Z"/>
        </g>
        <g>
          <g id="hand3">
            <path class="cls-3" d="M47.65,105.33s-1.3-1.63-1.34-2.15l-3.08-21.7c-.07-.45.28-.91.73-.98h0c.45-.07.91.28.98.73l3.08,21.7c.07.45-.44,2.37-.44,2.37l.07.03Z"/>
            <path class="cls-11" d="M53.5,96.48l4.93,2.32,2.7-6.72-14.25-5.73c-.88-.35-1.89-.59-3-.78-3.22-.44-5.94,2.54-5.16,5.65.52,2.08,1.09,4.26,1.41,4.73,1.52,2.14,3.41.6,4.38-1.81l.97-2.41,8.02,4.75h0Z"/>
            <path class="cls-11" d="M54.91,95.09h0c-.13.97-1.25,1.62-2.64,1.49l-6.35-.68c-1.32-.1-2.38-1.04-2.25-2.01h0c.13-.97,1.25-1.62,2.64-1.49l6.35.68c1.32.1,2.38,1.04,2.25,2.01Z"/>
          </g>
          <path class="cls-10" d="M75.37,107.33h0c3.48.1,5.93-4.09,4.91-8.29l-7.26-26.29c-1.02-4.19-4.5-6.55-7.88-5.42h0c-3.78,1.33-5.73,6.85-3.89,11.35l10.02,24.35c.82,2.15,2.15,4.19,3.99,4.3h.1Z"/>
          <path class="cls-5" d="M70.35,68.05c3.38,3.07,7.67,9.41,10.95,22.81l-13.2,6.55-1.84-5.22c-4.3-7.98-7.57-15.34-6.85-20.46.61-4.91,7.26-6.96,11.05-3.58l-.1-.1Z"/>
          <path class="cls-10" d="M80.65,102.83h0c-.35-1.35-1.3-2.54-2.64-3.12l-26.1-11.38-1.96,6.61,23.8,13.06c3.69,1.99,7.96-1.25,6.96-5.26l-.07.08Z"/>
        </g>
      </g>
    </g>
  </g>
</svg>