<?xml version="1.0" encoding="UTF-8"?>
<svg id="Layer_2" data-name="Layer 2" xmlns="http://www.w3.org/2000/svg" viewBox="0 0 79.26 247.25">
  <defs>
    <style>
      .cls-1 {
        fill: #262626;
      }

      .cls-2 {
        fill: #2b2b2b;
      }

      .cls-3, .cls-4 {
        fill: #603813;
      }

      .cls-5 {
        fill: #1b1b1b;
      }

      .cls-6 {
        fill: #273758;
      }

      .cls-7 {
        fill: #323232;
      }

      .cls-8 {
        fill: #545454;
      }

      .cls-9 {
        fill: #292929;
      }

      .cls-10 {
        fill: #010101;
      }

      .cls-11 {
        fill: #454545;
      }

      .cls-12 {
        fill: #e6e6e6;
      }

      .cls-13 {
        fill: #030303;
      }

      .cls-14 {
        fill: #c69696;
      }

      .cls-15 {
        fill: #d9a2a0;
      }

      .cls-16 {
        fill: #363636;
      }

      .cls-17 {
        fill: #171717;
      }

      .cls-18 {
        fill: #2c2c2c;
      }

      .cls-19 {
        fill: #3b3b3b;
      }

      .cls-20 {
        fill: #8b2b0e;
      }

      .cls-21 {
        fill: #606060;
      }

      .cls-22 {
        fill: #4f4f4f;
      }

      .cls-23 {
        fill: #3e3e3e;
      }

      .cls-24 {
        fill: #424242;
      }

      .cls-25 {
        fill: #3a3a3a;
      }

      .cls-26 {
        fill: #696969;
      }

      .cls-27 {
        fill: #373737;
      }

      .cls-28 {
        fill: #4e4e4e;
      }

      .cls-29 {
        fill: #303030;
      }

      .cls-30 {
        fill: #e7e7e7;
      }

      .cls-31 {
        fill: #1d1d1d;
      }

      .cls-32 {
        fill: #505050;
      }

      .cls-33 {
        fill: #252525;
      }

      .cls-34 {
        fill: #212121;
      }

      .cls-35 {
        fill: #020202;
      }

      .cls-36 {
        fill: #242424;
      }

      .cls-37 {
        fill: #666;
      }

      .cls-38 {
        fill: #282828;
      }

      .cls-39 {
        fill: #353535;
      }

      .cls-40 {
        fill: #565656;
      }

      .cls-41 {
        fill: #272727;
      }

      .cls-42 {
        fill: #646464;
      }

      .cls-43 {
        fill: #515151;
      }

      .cls-44 {
        fill: #181818;
      }

      .cls-45 {
        fill: #4a4a4a;
      }

      .cls-46 {
        fill: #414141;
      }

      .cls-47 {
        fill: #3f6138;
      }

      .cls-48 {
        fill: #383838;
      }

      .cls-49 {
        fill: #2a2a2a;
      }

      .cls-50 {
        fill: #222;
      }

      .cls-51 {
        fill: #131313;
      }

      .cls-4 {
        isolation: isolate;
        opacity: .5;
      }

      .cls-52 {
        fill: #191919;
      }

      .cls-53 {
        fill: #232323;
      }

      .cls-54 {
        fill: #6e6e6e;
      }

      .cls-55 {
        fill: #2d2d2d;
      }

      .cls-56 {
        fill: #d9b6b6;
      }

      .cls-57 {
        fill: #2f2f2f;
      }

      .cls-58 {
        fill: #313131;
      }

      .cls-59 {
        fill: #4b4b4b;
      }

      .cls-60 {
        fill: #333;
      }

      .cls-61 {
        fill: #535353;
      }

      .cls-62 {
        fill: #616161;
      }

      .cls-63 {
        fill: #2e2e2e;
      }

      .cls-64 {
        fill: #555;
      }

      .cls-65 {
        fill: #343434;
      }

      .cls-66 {
        fill: #d9baba;
      }

      .cls-67 {
        fill: none;
        stroke: #630;
        stroke-linecap: round;
        stroke-miterlimit: 10;
      }
    </style>
  </defs>
  <g id="Layer_1-2" data-name="Layer 1">
    <g id="german-girl-shoes">
      <g>
        <path class="cls-56" d="M38.9,167.93v1.2l-3.4,28.8-4.5,38.3h-5.8c-.6,0-1.9-19.6-1.9-38.3s.6-24.3,2.2-30c0-3.7,3-6.7,6.7-6.7s6,2.4,6.6,5.5v1.2h.1Z"/>
        <path class="cls-6" d="M32.3,242.33c0,1.2-.7,2.1-1.6,2.7s-22.7,2.4-23.3,2.2c-5-2.4,17.6-11.2,17.6-11.2l6.1.2s1.3,4.9,1.1,6.2h0l.1-.1Z"/>
        <path class="cls-56" d="M33.2,174.73h0c-3.8.4-7.2-2.2-8-5.9l-6.7-34.7c-.4-5.1,3.4-9.5,8.5-10h0c5.1-.4,9.5,3.4,10,8.5l2,34.2c.3,4-1.8,7.5-5.7,7.9h-.1Z"/>
      </g>
      <g>
        <path class="cls-56" d="M54.3,197.93c0,18.7-1.3,38.3-1.9,38.3h-5.8l-4.5-38.3-3.3-28.8v-2.4c.6-3.1,3.3-5.5,6.6-5.5s6.7,3,6.7,6.7c1.7,5.7,2.2,17.7,2.2,30h0Z"/>
        <path class="cls-6" d="M45.3,242.33c0,1.2.7,2.1,1.6,2.7s22.7,2.4,23.3,2.2c5-2.4-17.6-11.2-17.6-11.2l-6.1.2s-1.3,4.9-1.1,6.2h0c0-.1-.1-.1-.1-.1h0Z"/>
        <path class="cls-56" d="M44.5,174.73h0c3.8.4,7.2-2.2,8-5.9l6.7-34.7c.4-5.1-3.4-9.5-8.5-10h0c-5.1-.4-9.5,3.4-10,8.5l-2,34.2c-.3,4,1.8,7.5,5.7,7.9h.1Z"/>
      </g>
      <path class="cls-56" d="M55.4,96.93c-1.5,5.7-1.2,11.7.7,17.3.7,2.1,1.4,4.7,1.8,7.8.5,3,1.2,7.7,1.2,11.5l-18.9,7.5h-2.8l-18.9-7.2c0-5.2.7-12.8,2.1-17.6.4-1.4.9-2.8,1.4-4,2.5-5.4,3.5-11.4,2.5-17.3l-3.9-22.6-1.2-6.7,1.2-.7,15.7-9.9h9.1l14.2,9.8,1.1.7-1.1,6.5-4.1,25h0l-.1-.1Z"/>
      <path class="cls-12" d="M55.4,96.93c-1.5,5.7-1.2,11.7.7,17.3.7,2.1,1.4,4.7,1.8,7.8H20.6v-5.8c.4-1.4.9-2.8,1.4-4,2.5-5.4,3.5-11.4,2.5-17.3l-3.9-22.6-1.1-6.7,12.7-8,4.1-2.6h9.1l3.5,2.4,11.8,8.1-1.1,6.5-4.1,25h0l-.1-.1Z"/>
      <path class="cls-47" d="M23.9,108.53s-11.6,30-11.1,58.1c0,1.5.9,2.7,2.1,3.1,7.9,2.1,36.8,8.9,50.7-1.7.9-.7,1.3-1.9,1.2-3.1-1.1-8.2-5.6-40.7-11.9-56.3-10.2,4.3-20.5,4.1-31.1,0h.1v-.1Z"/>
      <g>
        <path class="cls-10" d="M18.95,137.4c-.61-.13-2.28-.56-2.52-1.17-.07-.18-.3-1.32-.29-1.48.01-.29.47-.72.5-.83.01-.06-.09-.61-.09-.79.02-3.26,4.53-6.31,6.7-8.3,1.44-1.32,2.76-2.78,4.16-4.14.04-.85.18-1.28.72-1.94.12-.15.79-.79.81-.85.06-.17-.31-.37-.09-.71.25-.39.59-.19.86-.29.07-.02.67-.86.69-.94.06-.23-.11-.45.06-.68.21-.29.5-.17.65-.27.05-.03.65-.79.67-.85.05-.16-.34-.42-.09-.79s.5-.11.64-.18c.03-.01.26-.39.28-.44.09-.31-.37-.66-.03-1s.54.03.71-.07c.05-.03.72-.94.74-1,.04-.12-.28-.39-.08-.7.06-.1.28-.2.29-.32s-.22-.31,0-.55c.31-.34.62.05.74,0,.06-.03.25-.39.4-.48.56-.35.82.3.9.77.1,0,.1-.05.15-.11.28-.33.48-.81.8-1.12.85-.83,1.82-.63,2.83-.26,2.48-1.56,6.02-5.3,9.16-4.88,1.24.17,1.84,1.06,2.39,2.1.26.5.44.85.74,1.35.22.36.4.75.61,1.12.04.07.05.13.14.13.11,0,1.07-.62,1.25-.74,2.35-1.54,5.58-4.61,8.65-3.68.87.26,2.08,1.57,2.43,2.4,1.29,3.07,3.34,5.54,3.56,9.05,0,.16-.06.41-.03.52.04.19.39.45.5.9.33,1.43.4,3.03.73,4.48.03.51-.94,1.76-1.38,1.99-.14.08-.26-.08-.41,0,.1.26.08.33-.09.52-.4.44-2.45,2.1-2.96,2.38-.21.12-.34.12-.58.13l-.3.1-1.85-.23c-.98,1.42-1.96,2.91-2.94,4.46-1.76,2.63-4.66,3.96-7.46,5.21-.12-.03-.23-.03-.35.01-1.34.72-2.81,1.21-4.27,1.67l-1.88.58h-.34c-.52.15-1.05.28-1.59.37-.05.05-.11.09-.17.13s-.12.07-.18.09c-2.69.68-5.55,1.09-8.32.82l-.37-.18c-.32.16-.84.06-1.09-.2-.69-.14-2.23-.48-2.78-.86-.35.09-.51-.38-.6-.67l-.15-.79c-.2.1-.36.1-.48.02-.45.09-.9.21-1.33.38-.39.16-.81.27-1.23.32-.33.02-.76.11-1.04.32-2.18.48-4.52.76-6.74.35-.06-.01-.11-.04-.17-.08s-.11-.08-.16-.12Z"/>
        <path class="cls-60" d="M46.73,119.5c.62,1.45,3.56,2.63,4.93,3.5.29.18,1.27.99,1.5,1,.17,0,.3-.14.43-.25,1.09-.85,2.29-2.47,3.54-3.05,1.1-.7,2.93-1.03,3.85.09-1.25,2.14-2.41,4.31-3.5,6.52-1.66,2.91-4.77,4.77-7.62,6.13l-.07.05c-4.98,1.9-11.65,4.11-16.97,2.69-.39-.11-1.28-.32-1.45-.71-.07-.16-.13-.43-.16-.61,0-.16.04-.23.12-.23.12-3.63,3.25-6.16,6.38-7.43h-.31c-.88.14-1.15.02-.8-.38.79-.41,1.28-1.08,1.79-1.8,1.14-1.61,2.29-3.31,3.4-5-.14.12-.27.14-.36.05.1-.16.27-.36.43-.46,1.3-1.45,3.15-.88,4.76-.27l.12.16Z"/>
        <path class="cls-2" d="M33.42,118.58c.47,1.09,2.71,2.24,3.66,3.25.19.2.75,1,.9,1.08.13.07.33,0,.47-.06.26-.11.52-.44.8-.52-1.07,1.42-2.07,2.9-3.24,4.24-1.23,1.4-2.79,2.46-3.89,3.97-.63.87-1.03,1.76-1.3,2.8-3.69,1.34-7.65,2.63-11.59,1.91-.14-.58.22-.71.74-.68.15-.36.38-.42.71-.18.19-.17.36-.23.54-.19l.2-.25c-.1-.28.08-.47.52-.57.07-.21.26-.31.58-.3-.06-.23-.02-.39.25-.37-.07-.2-.04-.34.11-.42l.13-.21c.87-.47,1.72-.98,2.54-1.53h.25c1-.83,2.13-1.54,3.33-2.05l.08-.21,1.55-.99c.87-.57,1.52-1.27,1.86-2.25.05-.07.12-.11.21-.09v-.23c1.07-1.07,2-2.25,2.77-3.52-.92-.71-1.69-1.44-2.37-2.36l.02-.16c-.1-.16.04-.24.18-.12Z"/>
        <path class="cls-29" d="M60.26,111.3c.09.37-.6.65-.79.26-.65,0-1.29.15-1.9.45-.02.16-.14.27-.36.33-.12.19-.27.31-.45.37-.56,0-1.08.19-1.48.59-.7.68-2.16,4.06-2.22,5.05-.08,1.32.86,2.06,1.67,2.94.02.19-1.09,1.05-1.25,1.27.05.11,0,.2-.13.28l.05.12c.47-.51,1-.96,1.54-1.39-.04-.04-.03-.1.02-.17-.63-1-1.68-1.49-1.76-2.86-.05-.88,1.08-3.3,1.54-4.14.59-1.07.93-1.6,2.26-1.44,1.66.2,3.15.92,4.89.38.25-.08.28,0,.17.23l.7-.09c.99-.12.7,1.34.29,1.82-.03.34-.17.64-.44.92.05.6-.13.95-.56,1.04l-1.76.43c-.62.19-.78.39-1.15.91-.18.23-.38.36-.61.39-1.04.2-2.31.98-3.11,1.66-.06.05-.66.52-.51.61.07.04,1.12-.85,1.3-.97,1.58-1.06,3.18-1.7,4.92-.6,0,.19-.16.22-.48.1h-.19c-2.9-1.02-5.37,2.22-7.31,3.86-.91-.54-1.74-1.21-2.65-1.75s-2.02-.92-2.77-1.58c-.15-.24-.03-.3.18-.12.85.73,2.67,1.44,3.71,2.13.51.34,1,.74,1.47,1.14.08.09.16-.03.15-.08-.01-.14-1.47-1.17-1.69-1.32-.92-.6-1.97-1.05-2.88-1.62-.55-.34-1.12-.8-1.4-1.39.68-.03,1.87.88,2.44.74.34-.08.42-.27.29-.6-.21-.53-2.25-.89-2.78-1.14.06-.21.29-1.38.48-1.4.3-.03,1.35,1.41,1.98,1.2.92-.3-.67-1.4-.97-1.61-.13-.09-.74-.39-.77-.46-.04-.09.2-.53.16-.69.14-.17,1.88.82,2.14.87.32.06.76-.07.64-.45-.15-.52-1.81-1.16-2.36-1.15-.06-.05.27-.93.31-.97.24-.24,2.08.68,2.59.56.34-.08.42-.26.29-.59-.25-.63-1.81-.71-2.38-.9-.04-.08.68-1.52.76-1.58.17-.14.83.1,1.04.19.38.16,1.5,1.07,1.79.48.23-.46-.65-1.01-1-1.19-.47-.24-1.5-.39-.3-.61,2.74-.5,5.95,1.82,8.6,1.54Z"/>
        <path class="cls-55" d="M61.91,113.36c.41-.13.89-.44,1.24-.73,1.15-.96,2.03-2.71,2.35-4.16l.24-1.31c1.2,2.33,2.82,4.84,2.93,7.54.07,1.67-.54,2.25-1.68,3.34-1.33,1.29-2.86,2.38-4.1,3.76-.25-1.35-1.45-2.53-2.78-2.78-.48-.09-1.1-.1-1.55-.01.43-.01.15-.26.19-.33.01-.02.16-.02.24-.08.27-.23.46-.7.87-.89.48-.22,2.3-.5,2.52-.72.15-.14.06-.54.12-.75s.29-.38.37-.55c.07-.15.03-.31.09-.44.07-.17.26-.37.3-.53s.05-.85-.02-.98c-.17-.28-1.13.03-1.44-.01-.06-.06.45-.47.11-.37Z"/>
        <path class="cls-29" d="M29.51,119.48c.3-.05.3.3.09.45.53.36.15.68-.23.93-.02.22-.06.4-.28.5.11.58.08,1.12-.1,1.62.21.13.58,1.05.57,1.24-.17.21-.21.43-.14.67-.22.09-.37.22-.46.39.04.09,0,.2-.1.33.04.46-.25,1.19-.74,1.21l-.1.26c-.91.71-1.95,1.23-3,1.7l-.2-.06-.07.17c-1.09.35-2.17.75-3.22,1.22-2.38,1.27-.97,3.23,1.17,2.09l.15.08c-.07.15.11.48-.03.56-.05.03-.22-.03-.24,0-.01.02.09.22.02.31-.1.12-.33.05-.47.11-.11.05-.07.18-.13.21-.23.13-.83.19-.37.51-.23,0-.3.28-.39.35-.06.05-.17-.06-.25-.04s-.12.14-.18.17c-.3.18-.53-.19-.58-.18-.1.67-.68.36-.78.41-.06.03-.15.46-.24.55-.57-.1-1.79-.24-2.07-.82-.07-.15-.09-.31-.14-.47.02-.11.08-.22.19-.35-.08-1.58.78-2.91,1.78-4.08s2.19-2.17,3.38-3.15c2.62-1.97,5.01-4.08,6.9-6.8l.25-.11Z"/>
        <path class="cls-49" d="M60.11,104.24c.83-.29,2.8-.69,3.27.34.62,1.37-.2,3.96-1.11,5.07-1.52,1.85-3.45,1.34-5.44.72l-.08-.16c.21-1.34.5-2.76-.1-4.06,1.05-.73,2.24-1.5,3.46-1.92Z"/>
        <path class="cls-25" d="M40.7,109.48c.85.12,1.51.29,2.34.49l.13.15c-.11.81-.49,1.75-1.07,2.31.03.05.04.1,0,.14-1.1,1.07-2.1,2.62-2.85,3.98-.3.55-.56,1.08-.43,1.73l-.08.08c-.03.42-.2.82-.52,1.19-.3.46-.71,1.09-1.17,1.33-.83-.84-2.04-1.42-2.8-2.28-.05-.06-.41-.47-.17-.46.37,0,1.83.75,1.97.1.2-.91-2.19-.85-2.24-1.03.24-.52.35-1.1.65-1.59.53.17,1.35,1.33,1.92.84.36-.31-.43-.93-.67-1.1-.2-.15-.78-.39-.9-.52-.14-.15.41-.74.4-.97l.08-.05c.27-.03,1.49.66,1.84.7.88.11.78-.55.15-.95-.1-.18.06-.26.46-.26l.38-.37c0-.34.25-.5.52-.65.52-.2.94-.5,1.25-.9.53-.17.95-.48,1.07-1.06,0-.03-.16-.45-.22-.53-.22-.12-.42-.3-.05-.31Z"/>
        <path class="cls-41" d="M53.29,133.12c2.29-1.06,4.17-2.22,5.68-4.26,1.47-1.99,2.6-4.04,4.25-5.95,1.89-2.18,4.32-3.77,6.02-6.09l.6,3.94c.04.31-.95,1.54-1.12,1.57-.09.02-.37-.28-.55-.05-.11.14.09.49-.06.64-.97.77-1.89,1.64-2.95,2.3,0-.5-.21-.98-.32-1.47-.06-.28-.01-1.16-.45-.92-.28.15-1.29,1.35-1.56,1.67-1.91,2.3-3.16,5.42-5.45,7.33-.99.82-2.03,1.38-3.17,1.95-.29.08-.58.11-.88.03-.21.17-1.1.16-.87-.22.38-.11.65-.27.82-.47Z"/>
        <path class="cls-27" d="M33.24,118.7c.22.14.81,1.02,1.12,1.32.43.42.97.72,1.39,1.16.01.13-1.11,1.72-1.28,1.93-.49.61-1.21,1.21-1.65,1.86-.29.17-.58.38-.85.62-.35-.14-.68-.33-.99-.57-.23,0-.46-.07-.68-.2-.42.12-.82.3-1.19.54l-.13-.07c-.12-.39.28-.27.34-.43.05-.12-.13-.22-.1-.32.03-.09.21-.16.22-.31,0-.22-.16-.38-.24-.57-.04-.1-.01-.23-.07-.35s-.24-.17-.26-.28c-.04-.18.17-.43.17-.56,0-.19-.12-1.03-.07-1.16.01-.04.17-.09.22-.17.06-.09.01-.23.08-.34.1-.15.67-.34.39-.65-.14-.16-.39.07-.38-.25.27-.01.48-.17.24-.41-.01-.12-.1-.21-.28-.27.2-.21.4-.43.59-.64.33-.68,3.33-.29,3.42.03,0,.03,0,.07,0,.11Z"/>
        <path class="cls-9" d="M45.62,110.32c-.31-.13-2.13-.46-2.23-.64.11-1.1.03-2.13-.4-3.17,1.54-1.09,3.33-2.43,5.22-2.76,1.47-.25,1.93.46,1.69,1.86-.22,1.25-1.05,2.39-1.75,3.41-.33-.36-.58-.71-1.1-.36-.19.12-.32.56-.44.62s-.33-.02-.48,0c-.56.08-.72.54-.52,1.03Z"/>
        <path class="cls-41" d="M43.04,109.96c.91.22,1.8.55,2.73.66.07.05-.27.79-.37.84-.2.09-.56-.07-.74.34s.09.5.13.7c.01.08-.44.84-.5.89-.17.14-.49-.03-.68.31s.13.6.1.77c0,.05-.48.76-.52.79-.19.15-.45.05-.48.44,0,.11.06.24.04.32-.02.06-.71,1.02-.76,1.06-.28.22-.6.08-.84.44-.29.46.13.7.11.77-.02.08-.58.65-.69.8-.37.52-.61,1.05-.66,1.7l-1.74,1.28c.02.17.16.09.26.04.48-.23,1.06-.84,1.53-1.13.07,0,.1.2.09.24-.04.16-1.61,1.18-1.83,1.39-.04-.27-.14-.47-.27-.7-.15-.26-.66-.84-.88-1.07.62-.79,1.29-1.59,1.69-2.52.14.15.16.1.07-.16l.08-.09c.05-.62.35-1.17.66-1.7.75-1.24,1.56-2.45,2.43-3.61-.02-.14.05-.24.23-.3l-.12-.07c.36-.77.95-1.58.94-2.46Z"/>
        <path class="cls-49" d="M53.29,133.12c.15.03-.1.26-.13.28-.12.07-.66.17-.62.3.04.11.66.1.77-.02l.91.09c-5.75,2.88-16.3,6.37-22.56,3.93-.75-.29-1.03-.4-.98-1.32,2.94,1.19,6.22,1.27,9.33.79,4.24-.65,9.38-2.25,13.28-4.05Z"/>
        <path class="cls-41" d="M49.79,133.49c-.09-.17.05-.15.16-.2,2.5-1.25,5.44-3.03,7.01-5.38.78-1.17,1.29-2.5,1.95-3.73.62-1.15,1.34-2.24,1.96-3.38-.95-.93-2.65-.6-3.74-.09,1.36-1.14,3.68-1.07,4.63.55.21.35.5,1.05.31,1.44-1.67,1.78-2.76,4.07-4.25,5.95-1.98,2.51-5.13,3.75-8.05,4.86Z"/>
        <path class="cls-63" d="M56.76,112.71c.09-.16.23-.35.36-.47.09-.08.23-.07.29-.13.03-.03,0-.15.07-.2.06-.04,1.22-.46,1.29-.46.24,0,.46,0,.7,0,.08,0,.14.22.34.19.13-.02.34-.22.43-.32.31-.03.73-.1,1.02-.2,2.3-.79,3.6-4.27,2.95-6.51l.6.7c1.18,1.64.18,4.4-.82,5.92-1.13,1.71-2.31,2.21-4.35,2.01-.87-.09-2.11-.52-2.9-.51Z"/>
        <path class="cls-38" d="M16.56,135.4c.69.37,1.45.6,2.22.74,3.99.75,8.14-.47,11.87-1.8.21-.06.13.42.22.6-.3.08-.55.67-.73.75s-.71.25-.95.32c-3.39,1.06-7.35,1.84-10.83.93-.22-.06-1.53-.46-1.56-.6l-.25-.94Z"/>
        <path class="cls-64" d="M41.41,120.07s.32-.18.41-.23c.06-.03.22-.11.28-.06-.96,1.39-1.85,2.83-2.83,4.2-.45.63-1.39,2.04-1.92,2.49-.15.13-.76.45-.79.58-.03.15.14.06.18.06.35-.02.72-.1,1.06-.04.07.01.31.04.18.16-3.2,1.25-6.4,3.76-6.54,7.45l-.23.18c-.75-3.47,3-5.85,4.96-8.03,1.65-1.84,2.88-3.91,4.4-5.81.2-.25.62-.79.85-.96Z"/>
        <path class="cls-8" d="M29.23,119.2c.35.02.49-.51.82-.56-.17.26-.36.59-.54.83-.94,1.24-2.22,2.87-3.34,3.93-2.48,2.36-8.34,5.93-8.81,9.47-.06.45.15.91-.35,1.08-.91-3.23,3.52-6.38,5.61-8.19,2.34-2.02,4.47-4.34,6.61-6.57Z"/>
        <path class="cls-16" d="M40.7,109.48c-.29.07.08.1.16.24s.15.42.27.58c-.14.3-.29.74-.57.93-.16.11-.46.15-.63.29-.09.08-.11.23-.26.34-.34.26-1.04.51-1.3.77-.14.15-.06.26-.13.36-.02.02-.4.4-.42.41-.18.11-.42-.04-.53.15-.47-.3-1.11-.45-1.65-.6-.09-.07.28-.68.35-.78.25.15.5.53.82.47.73-.13-.29-.98-.3-1.1,0-.1.5-.99.58-1.04.28-.16,1.3.34,1.6.47.48.4,1.07.62,1.17-.19,0-.01.05.2-.07.17-.11-.93-1.24-1.05-1.95-1.35.9-.48,1.92-.27,2.87-.13Z"/>
        <path class="cls-41" d="M56.51,106.27c.36,1.2.23,2.63,0,3.85-.01.06.04.12-.08.1-.43-.05-1-.37-1.46-.4-.31-.63-1.05-.87-1.51-1.26-.05-.04-.11-.04-.11-.15l3.17-2.15Z"/>
        <path class="cls-57" d="M58.39,129.15c-3.28,4.02-10.09,5.52-14.83,7.09l-1.81.34v-.1c.42-.19.85-.34,1.31-.46,2.84-.71,5.83-1.74,8.53-2.88s5.06-2.33,6.87-4.77c.24-.14.21.15.1.32-.12.15-.16.28-.17.46Z"/>
        <path class="cls-49" d="M58.39,129.15c-.23-.19-.02-.35.07-.54.02-.04.13-.25,0-.24.75-1.01,1.39-2.19,2.12-3.22.94-1.33,2.04-2.51,3.14-3.7.97-1.04,2.12-1.89,3.15-2.87.8-.75,1.86-1.66,2.03-2.78.37.13.19.58.08.84-.59,1.42-4.12,4.08-5.37,5.4-2.1,2.23-3.37,4.83-5.23,7.1Z"/>
        <path class="cls-7" d="M17.3,135.07c.58.34,1.98.57,2.66.65,2.84.3,5.66-.37,8.38-1.13l2.43-.85-.05.32c-3.47,1.28-7.32,2.41-11.05,1.96-.91-.11-1.76-.3-2.58-.69-.29-.15-.06-.4.21-.26Z"/>
        <path class="cls-1" d="M43.14,109.59c-.27.32-1.09-.56-1.26-.7-.28-.22-.72-.42-.95-.62-.05-.04-.11-.04-.11-.14.37-.1,1.74-1.4,1.94-1.41s.37,1.15.39,1.38c.02.18.03,1.44-.02,1.5Z"/>
        <path class="cls-50" d="M41.42,118c-.3-.74.68-.52,1.13-.49,1.8.13,5.04.69,6.67,1.42.36.16.88.54.22.65-2.06-.94-4.45-1.46-6.71-1.64-.44-.03-.89-.11-1.32.05Z"/>
        <path class="cls-65" d="M52.48,109.34s.04.12.03.13c-.02.04-.59-.04-.79,0-.42.07-.94.39-1.19.43s-.9-.09-1.27-.05-.78.14-1.13.26c.23-.63.26-1.07,1.01-1.27,1.03-.27,2.26-.01,3.17.48.06.03.17.02.18.02Z"/>
        <path class="cls-58" d="M48.7,108.89c.18-.34.43-.63.8-.76,1.35-.49,3.6.42,4.68,1.26.09.07.34.2.3.33-.45-.17-1.3-.13-1.69-.29-.12-.05-.29-.24-.47-.32-.48-.21-1.95-.66-2.42-.54l-1.2.32Z"/>
        <path class="cls-39" d="M48.42,111.53s.37.4.37.44c0,.36-.29.36-.45.5-.44.4-.48,1.16-.66,1.7l-1.21-.14c.15-.59.16-1.29.57-1.77.19-.22,1.13-.82,1.38-.74Z"/>
        <path class="cls-41" d="M49.72,107.79c-.25-.05-.04-.48.17-.39.23-.33.37-.72.47-1.12l.11-.07c.18-.67.26-1.35.09-2.03.38.22.88,1.15.95,1.56.05.3-.12,1.69-.27,1.92-.13.18-.54.03-.78.03s-.51.04-.74.09Z"/>
        <path class="cls-37" d="M64.15,106.4c-.08.23-.21.49-.31.15.64-5.03-5.18-2.27-7.21-.62-.09.06-.29-.1-.26-.18,1.68-1.14,4.88-3.14,6.92-2.07.95.5.96,1.79.85,2.72Z"/>
        <path class="cls-50" d="M43.94,113.74c.14-.08.67.18.82.26.56.3,1.13.81,1.68,1.15.63.39,2.96,1.58,3.17,2.18.06.19-.03.29-.22.29-.1,0-1.33-1.01-1.56-1.17-.94-.64-2.42-1.66-3.4-2.14-.14-.07-.46-.12-.54-.2-.07-.08-.03-.3.06-.36Z"/>
        <path class="cls-53" d="M29,117.27c.07-.07.57-.15.71-.17,1.03-.09,4.69.28,5.65.63.28.1.63.47.23.54-.16.03-.91-.24-1.15-.29-1.72-.34-3.58-.5-5.33-.42-.15.03-.16-.24-.11-.29Z"/>
        <path class="cls-48" d="M43.06,136.02c-.19.22-.61.17-.84.29-.11.06-.08.14-.46.26-2.85.86-6.65.83-9.52.09-.25-.1-.21-.35.06-.29,3.3,1.08,7.46.49,10.76-.35Z"/>
        <path class="cls-29" d="M41.99,109.41c-.64-.26-1.44-.22-2.07-.43-.17-.06-.3-.19-.46-.24-.78-.27-1.42-.38-2.25-.17.83-1.43,3.12-.43,4.15.29.08.06.66.5.63.56Z"/>
        <path class="cls-1" d="M46.73,119.5c-.57-.1-1.11-.41-1.68-.54s-1.57-.22-2.14.03c-.16.07-.87.5-1.05.62l1.11-1.18c.1-.11.2-.14.35-.15.36-.04,1.61.19,2.04.27.17.03,1.05.19,1.12.23.18.12.17.52.26.73Z"/>
        <path class="cls-49" d="M64.91,125.29c-.65-.02-1.32-.07-1.96-.16-.09-.01-.16.08-.17-.07l1.61-1.91.53,2.14Z"/>
        <path class="cls-36" d="M36.13,116.28c-.09.03-.17.06-.27.03-.12-.03-.75-.6-.95-.72-.47-.3-1-.46-1.48-.75-.52-.31-.99-.76-1.52-1.05-.2-.24-.02-.45.26-.35.17.06.68.51.89.64.63.39,2.59,1.29,2.91,1.77.09.14.14.26.16.42Z"/>
        <path class="cls-36" d="M48.31,110.3c.9-.28,1.88-.32,2.8-.06.38.11,1.69.63,1.6,1.11-.08.44-.89-.26-1.14-.39-.59-.3-1.42-.54-2.08-.48-.46.04-.87.38-1.17-.19Z"/>
        <path class="cls-50" d="M46.28,114.64c.96-.3,1.81-.27,2.76,0,.35.1,1.64.55,1.55,1,0,.04-.07.15-.1.16-.06.03-.93-.46-1.1-.53-.48-.21-1.13-.45-1.66-.44s-1.16.38-1.45-.19Z"/>
        <path class="cls-41" d="M33.42,118.58l-.18.12c-.39-.26-2.01-.46-2.49-.38-.31.05-.63.19-.94.25.19-.21.55-.78.82-.81.7-.08,1.79.26,2.52.28.22.07.18.37.26.55Z"/>
        <path class="cls-50" d="M35.87,110.06c.81-.39,3.09-.31,3.51.59.37.78-.68.03-.89-.07-.44-.19-1.19-.4-1.66-.35-.4.05-.83.38-.96-.18Z"/>
        <path class="cls-55" d="M44.8,116.14c.31-.1.79-.57,1.12-.56.06,0,1.05.62,1.09.67.09.1,0,.33-.1.41-.38-.07-.85.11-1.19.1-.17,0-.97-.53-.92-.63Z"/>
        <path class="cls-60" d="M35.14,112.53l-.49.34c-.45.37-.41.95-.59,1.46l-.91-.49c.22-1.12.88-1.47,1.99-1.32Z"/>
        <path class="cls-50" d="M48.51,112.68c.34-.15,2.51.3,2.83.56.16.13.25.34.04.46s-1.06-.28-1.36-.36-.67-.15-.98-.2c-.19-.03-.54,0-.68-.05-.17-.06.03-.36.15-.41Z"/>
        <path class="cls-27" d="M43.03,115.7s.25.05.33-.03c.02-.02,0-.11.04-.17.11-.15.66-1.02.72-1.05s.4.13.43.19c.07.14-1.61,2.24-1.79,2.56-.15.09-.36.07-.51-.03-.02-.07.72-.9.8-1.17.04-.14-.02-.3-.02-.31Z"/>
        <path class="cls-60" d="M32.84,114.87c.06-.02.08-.04.15-.02.14.04.62.49.83.55.04.09-.17.61-.35.6-.29-.06-1.02.2-1.22.12-.08-.03-.32-.24-.3-.34.03-.12.76-.87.89-.91Z"/>
        <path class="cls-53" d="M45.91,110.11c-.16-.43.03-.57.46-.55.5.02,1.65.8,2.08,1.13.12.1.57.44.63.52.11.15-.02.43-.13.41-.07-.01-.81-.67-.97-.78-.56-.4-1.37-1.08-2.06-.74Z"/>
        <path class="cls-7" d="M39.6,109c-.55-.03-1.11.02-1.63.23-.2.08-.44.3-.61.35-.21.06-.6-.03-.85.06.13-.19.38-.71.54-.83.47-.36,2.05-.2,2.54.19Z"/>
        <path class="cls-50" d="M34.63,113.49c-.16-.13.08-.38.27-.42.38-.08,2.31.49,2.47.84.08.19.05.35-.19.32-.41-.05-1.31-.51-1.81-.65-.17-.05-.71-.07-.74-.1Z"/>
        <path class="cls-61" d="M50.43,105.74c-.09,0-.17-.03-.23-.08.1-.63.13-1.51-.44-1.93-.52-.38-1.71-.21-2.3-.05-.23.01-.46.06-.68.13l-.06-.08c.73-.38,1.66-.59,2.48-.46,1.41.22,1.45,1.27,1.22,2.46Z"/>
        <path class="cls-55" d="M46.41,110.26c.16-.08.57.24.73.32-.26.33-.47.97-.73,1.27-.19.22-.71-.17-.72-.25,0-.08.66-1.3.73-1.33Z"/>
        <path class="cls-53" d="M61.16,119.71c.29.18.49.29.74.56.44.49,1.2,1.68.55,2.21-.02-1.18-.85-2.28-1.95-2.67.17-.22.43.01.66-.11Z"/>
        <path class="cls-54" d="M64.15,106.4c-.18,1.5-1.03,3.66-2.51,4.31-.07.03-.21.13-.22,0,1.43-.76,2.23-2.62,2.43-4.17.25.09.18-.02.26-.2l.05.06Z"/>
        <path class="cls-49" d="M52.74,107.96c-.37.32-.8-.01-1.2-.13.11-.51.27-1.02.21-1.54.1-.02.12.07.17.13.32.45.52,1.08.83,1.54Z"/>
        <path class="cls-62" d="M46.72,103.74c.23-.06.51-.12.75-.06-1.06.29-2.28,1.06-3.19,1.67-.2.13-1.4,1.12-1.48,1.08,0,0-.1-.14-.11-.15-.02-.08,1.19-.9,1.35-1.01.66-.45,1.94-1.33,2.67-1.53Z"/>
        <path class="cls-34" d="M46.51,117.9c-.93-.11-1.56-.98-2.42-1.33l.21-.37c.54.31,1.1.65,1.58,1.04.12.1.68.53.63.66Z"/>
        <path class="cls-19" d="M36.79,121.15c-1-1.07-2.78-1.62-3.23-3.09.3-.02.28.26.43.44.76.95,1.94,1.56,2.84,2.5.08.12.07.17-.03.15Z"/>
        <path class="cls-42" d="M56.28,105.92s.15.22.14.24c-.96.56-1.79,1.32-2.76,1.87-.14.08-.61.39-.75.3s.04-.16.09-.19c.58-.43,1.31-.81,1.92-1.23.19-.13,1.28-1.01,1.36-.98Z"/>
        <path class="cls-36" d="M34.44,109.19c.22-.12,1.46,1.34,1.66,1.57.1.13-.06.25-.12.38-.27-.26-1.63-1.46-1.63-1.71,0-.05.05-.21.09-.23Z"/>
        <path class="cls-29" d="M45.15,112.53c.2-.11.51.08.69.19-.05.18-.64,1.18-.74,1.19-.03,0-.53-.27-.54-.3-.02-.06.54-1.05.59-1.08Z"/>
        <path class="cls-63" d="M32.24,136.66c-.46-.12-1.29-.32-1.62-.66-.26-.26.26-.79.35-.74.08.67.77.92,1.33,1.1-.11.06-.1.18-.06.29Z"/>
        <path class="cls-34" d="M46.15,112.14c.07.04.51.34.53.37.04.07,0,.41-.13.4-.09,0-.67-.47-.88-.56-.25-.11-.4-.1-.62-.16-.28-.08-.11-.43.19-.42.14,0,.76.29.9.38Z"/>
        <path class="cls-50" d="M33.11,117.14l-.81-.16-1.01-.81c.06-.1.18-.3.31-.26l1.5,1.23Z"/>
        <path class="cls-1" d="M36.82,112.36c-.06.1-.2,0-.28-.04-.21-.12-.39-.34-.65-.48-.12-.06-.93-.31-.85-.47.14-.04.24-.15.39-.16.34-.03,1.52.92,1.39,1.14Z"/>
        <path class="cls-17" d="M54.97,121.41c.04.06.15.11.13.24-.39.22-.75.57-1.08.87-.12.11-.63.67-.69.7-.06.03-.15,0-.18-.05-.1-.13.35-.27,0-.27,0-.06.26-.28.33-.33.29-.18.57-.34.9-.65.21-.2.25-.44.59-.5Z"/>
        <path class="cls-26" d="M50.43,105.74c-.03.14-.08.25-.11.37.1.4-.2.92-.42,1.29-.05.11-.19.21-.17.39-.17.04-.29.17-.44.15.39-.67.8-1.52.92-2.28.09-.14.18-.08.23.08Z"/>
        <path class="cls-21" d="M42.63,106.34c.07.17.04.2-.08.31-.31.32-1.17.9-1.57,1.16-.16.11-.32.24-.52.27-.08-.16,0-.12.09-.19.65-.56,1.42-1.01,2.08-1.55Z"/>
        <path class="cls-24" d="M17.3,135.07c-.13.08-.27.04-.21.26-.08-.04-.2-.03-.3-.09-.51-.3-.48-.62-.05-.99.06.34.26.65.56.82Z"/>
        <path class="cls-16" d="M47.43,108.81c.2.07.2.98.1,1l-.62-.41c.08-.16.3-.67.52-.59Z"/>
        <path class="cls-29" d="M34.2,112.36l.79-.55c1.28.31-.25.65-.79.55Z"/>
        <path class="cls-43" d="M49.89,110.79c.06.03-.12.42-.15.49-.14.3-.39.84-.55,1.1-.13.21-.32.22-.26.01.05-.17.62-1.31.72-1.44.05-.06.15-.21.24-.16Z"/>
        <path class="cls-29" d="M34.74,110.22l-1.35,1.95c-.06-.12-.02-.18.02-.29.11-.28.86-1.26,1.09-1.5.07-.07.1-.16.24-.16Z"/>
        <path class="cls-28" d="M34.2,115.4l.12.18c-.16.17-.6,1.6-.68,1.63-.09.03-.13-.11-.11-.23.03-.16.59-1.55.67-1.58Z"/>
        <path class="cls-23" d="M47.95,120.21c-.17-.07-.12-.03-.18.12-.44-.39-.77-.83-.86-1.43.3.04.27.36.4.57.12.18.47.61.63.74Z"/>
        <polygon class="cls-50" points="42.51 118.19 42.35 118.46 40.59 120.36 40.97 119.67 42.51 118.19"/>
        <path class="cls-22" d="M46.97,118.05c-.15-.1.29-1.59.37-1.62.08-.03.14.12.13.24-.02.2-.25.95-.33,1.18-.03.1-.03.2-.17.2Z"/>
        <path class="cls-53" d="M33.17,112.53c-.05.09-.07.18-.18.22-.03-.19-.52-.74-.27-.9.19-.12.58.38.57.5,0,.06-.09.12-.12.18Z"/>
        <path class="cls-49" d="M44.77,117.32c-.34.09-.67.23-1.01.09.22-.36.85-.61,1.01-.09Z"/>
        <path class="cls-53" d="M33.48,116.22c.04.55-.77.49-1,.13.32-.12.67-.12,1-.13Z"/>
        <path class="cls-5" d="M32.13,114.22l-1.61,2.01c.1-.23.23-.48.38-.68.21-.29.74-.93.99-1.18.08-.07.12-.15.25-.16Z"/>
        <path class="cls-53" d="M29.63,117.85c-.33.53-.74,1.01-1.13,1.5-.16.2-.51.57-.23.09.13-.22.3-.41.45-.62l.91-.97Z"/>
        <path class="cls-50" d="M46.79,116.86c.05.04.03.22-.02.29-.26.34-.92-.1-.85-.2.12-.03.84-.12.87-.09Z"/>
        <path class="cls-36" d="M35.02,110.49c-.41.52-.76,1.07-1.13,1.61-.1.14-.25.37-.4.45.26-.49.58-.97.91-1.41.16-.22.37-.55.62-.65Z"/>
        <path class="cls-38" d="M42.01,118.12l-.27.42-.96.94c.32-.48.71-1.09,1.23-1.36Z"/>
        <path class="cls-31" d="M36.04,109.66c-.14.04-.27.12-.29-.06-.03.09-.28.28-.31.12,0-.04.36-.68.37-.82l.24.77Z"/>
        <path class="cls-25" d="M39.77,110.96c.05-.11.04-.16,0-.28.1-.05.14.21.14.26,0,.13-.41.65-.64.56l-.6-.53c.31.13.88.48,1.1-.01Z"/>
        <path class="cls-30" d="M27.05,136.92c.41-.11.82-.22,1.23-.32.38-.1.75-.22,1.13-.3.08-.02.23-.11.24,0l-3.62.95-.02-.06c.34-.09.69-.18,1.03-.27Z"/>
        <path class="cls-11" d="M48.12,114.29s.23-.73.27-.8c.12-.18.33-.23.28,0-.01.07-.29.71-.32.75-.08.1-.13.02-.23.05Z"/>
        <path class="cls-34" d="M36.82,121c.43.46.89.92,1.15,1.49l-1.18-1.35.03-.15Z"/>
        <path class="cls-24" d="M36.95,110.46c-.14.29-.33.57-.51.82-.06.08-.06.18-.19.19-.16-.11.42-1.07.7-1.01Z"/>
        <path class="cls-51" d="M50.48,106.21c-.08.29-.17.57-.3.84l-.29.35c.21-.44.3-.82.42-1.29l.16.1Z"/>
        <path class="cls-1" d="M31.71,116.82c-.18.07-.38.08-.57.08-.05,0-.21.09-.18-.06.08-.38.61-.37.75-.03Z"/>
        <path class="cls-33" d="M43.96,116.08c-.1.15-.85,1.35-.97,1.29.21-.5.62-.89.97-1.29Z"/>
        <path class="cls-53" d="M47.39,110.75c-.24.43-.45.9-.73,1.3-.06.08-.06.18-.19.19.24-.43.45-.9.73-1.3.06-.08.06-.18.19-.19Z"/>
        <path class="cls-64" d="M35.04,113.73l-.32.77-.18.19c-.13-.08.4-1.02.51-.96Z"/>
        <path class="cls-48" d="M47,114.24l-.81.35c0-.58.43-.3.81-.35Z"/>
        <path class="cls-31" d="M46.09,112.89l-.59,1.05-.19.19c.18-.35.36-.73.59-1.05.06-.08.06-.18.19-.19Z"/>
        <path class="cls-44" d="M28.76,118.5l-.86,1.19c-.14-.09.54-.95.62-1.03.07-.07.1-.16.24-.16Z"/>
        <path class="cls-59" d="M47.98,115.09c.06.04-.19.6-.22.61-.27.08-.05-.79.22-.61Z"/>
        <path class="cls-52" d="M31.32,115.61c-.03.14-.13.28-.21.4-.05.07-.39.56-.44.53-.1-.05.21-.42.26-.48.1-.14.24-.37.4-.45Z"/>
        <path class="cls-33" d="M45.65,115.43c-.12-.01-.49.25-.54.04.09-.2.48-.31.54-.04Z"/>
        <path class="cls-55" d="M47.81,109.95v-1.04c.09.32.24.74,0,1.04Z"/>
        <path class="cls-24" d="M35.61,108.81c-.03.1-.35.73-.45.67-.12-.07.32-.64.45-.67Z"/>
        <path class="cls-29" d="M35.85,112.07l-.48.82c.02-.27.25-.67.48-.82Z"/>
        <path class="cls-38" d="M40.73,119.56l-.35.78c-.09-.13.21-.86.35-.78Z"/>
        <path class="cls-53" d="M43.96,116.08c.05-.08.4-.74.51-.69-.06.3-.33.48-.51.69Z"/>
        <path class="cls-18" d="M47.43,115.1c0,.44-.16.2-.43.18l.43-.18Z"/>
        <path class="cls-40" d="M46.06,129.29c.08.18,0,.12-.11.18-1.56.9-3.89,1.79-5.59,2.49-1.28.52-4.42,2.06-5.46.58-.86-1.22,1.06-1.94,1.96-2.14,1.51-.32,3.35-.36,4.91-.54,1.43-.17,2.86-.4,4.3-.57Z"/>
        <path class="cls-32" d="M24.82,128.73c.23-.04.56.36.71.57.25.34.61.89.25,1.25-.91.55-1.98,1.32-2.93,1.74-.57.25-1.34.55-1.96.31-.88-.34-.92-1.18-.38-1.86.79-1.01,3.1-1.49,4.31-2Z"/>
        <path class="cls-46" d="M28.96,125.29c.17-.13,1.07-.58,1.25-.6.28-.04.43.28.78.18.11.1.91.6.97.6.18-.01.48-.73.86-.5-.25.37-.33.79-.59,1.16-.7.98-2.11,1.74-3.11,2.37-.29.05-.55-.29-.64-.56-.49-.39-.61-.76-.35-1.11.17-.15.48-.49.55-.69.13-.38-.12-.53.29-.84Z"/>
        <path class="cls-45" d="M28.12,126.82c-.11.62.16.67.46,1.04.06.07.07.21.15.3.1.12.3.18.38.33-1.1.7-2.21,1.38-3.33,2.05.14-.84-.47-1.27-.96-1.82.99-.42,2.51-1.19,3.3-1.91Z"/>
        <path class="cls-35" d="M53.43,121.13c.24-.09.44.11.25.37-.1.13-.88.86-.98.91-.18.07-.51-.07-.31-.35.12-.17.88-.86,1.05-.93Z"/>
        <path class="cls-13" d="M42.1,112.42c.59-.29,1.75-.18,2.32.15-.99-.02-1.57-.49-2.43.23-.85,1.17-1.72,2.37-2.44,3.62-.3.53-.6,1.06-.65,1.69.06.42.26.81.39,1.21-.29-.15-.46-.66-.53-.97-.06-.28-.05-.57,0-.85.17-.81,1.75-3.14,2.3-3.91.2-.28.76-1.03,1.04-1.17Z"/>
        <path class="cls-23" d="M41.99,112.8c-.98,1.79-2.42,3.37-3.09,5.31-.09-.58.17-1.09.45-1.57.52-.89,1.94-3.15,2.65-3.74Z"/>
        <path class="cls-13" d="M39.11,120.53c-.02.08-1.13.82-1.28.97-.12-.11-.35-.23-.19-.39.11-.11,1.15-.91,1.23-.93.17-.04.29.23.25.34Z"/>
        <path class="cls-34" d="M53.56,121.3l-.79.82-.26.15c.28-.35.67-.76,1.06-.97Z"/>
      </g>
      <g>
        <path class="cls-20" d="M64.4,38.13c0-4.7-2.2-8.3-4-12.1-.8-1.7-1.6-4.7-2.8-6-1.6-1.7-5.4-.9-7.4-1-7.4-.3-14.8.2-22.2,1.1-2.3.3-3.7-.6-4.6,2.7-.6,2.1-1,2.9-1,2.9-2.3,4-6.1,6.4-7.5,11.5-1.1,4.1-.6,9.2,1.8,12.1,0-1.6.2-3.7.5-5.1,1.6,1.2,2.7,3.6,4.3,5s3.4,2.6,5.2,3.3c.2-1.4-.3-3.3,0-4.5,1.3,3.2,4.5,4.6,6.9,6,0-1.9-.5-4.3,1.1-3.2.4.3,1,1.6,1.5,2s1.1.8,1.7,1.1c1.8,1.1,2.6,1.4,4.3,0,1.2-1.1,2.7-2.6,3.7-4,.6,1.2.3,3.2.3,4.6,2,0,4.4-2.4,5.7-4.3.3,1.1,0,2.3.3,3.4,2.6-.3,7.2-5.1,8.4-8,1.2,1.1,2.2,3.6,1.9,5.5,2.1-3.5,2.1-8.8,2.1-13.1h-.2v.1Z"/>
        <path class="cls-14" d="M40.8,58.63h0c-2.5,0-4.5-2-4.5-4.5v-6.7h9.1v6.7c0,2.5-2,4.5-4.5,4.5h-.1Z"/>
        <path class="cls-66" d="M62.7,29.13c-.9,1.5-2.3,2.5-3.7,2.8h-1.2c-.4,3.9-1.8,7.5-3.8,10.4-3.8,5.7-9.5,9.1-13.7,8.9h-1c-4.5,0-9.7-3.1-13.3-8.3-2-2.9-3.5-6.4-4.1-10.3h-.3c-1.4,0-2.9-1.1-3.9-2.6-.2-.3-.3-.5-.4-.8-.2-.4-.3-.7-.4-1.1h0c-.3-1.5,0-2.7,1.2-3.2h0c1-.4,2.3,0,3.5.7.9-11.9,8.3-22.4,17.5-22.6,2.8,0,5.5.8,7.9,2.3,2.3,1.4,4.3,3.6,6,6.3h0c2.4,3.9,4.1,8.9,4.6,13.9h0c.5-.5,1.1-.9,1.7-1.1.8-.4,1.7-.4,2.4,0,1.6.7,1.9,2.9.6,5.1l.4-.3h0v-.1Z"/>
        <path class="cls-20" d="M60.2,32.53c-.3-3.2-.8-8.7-1.1-11.2,0-.9,0-1.7-.2-2.6-.3-6.5-2.4-13.6-7.2-17.2-3.4-2.6-6.5-.4-10.2-1.2-7.1-1.4-15.4,1.7-19.2,8.4-2.3,4-2.7,8.7-1.9,13.2,0,0,.5,8.5.3,10.5-.3,3.4-1.2,9.6.9,12.6,1,1.4,4.1,3.7,5.6,4.5.3-2.2-1.7-4.2-2.1-6.3-.5-2.3-.3-4.8-.3-7.2,0-4.3-.4-8.5-.2-12.8v-1.3c0-.2.2-.3.3-.5,1.1-1.8,2.4-3.4,3.9-4.8,1.6-1.5,3.5-2.3,5.2-3.7,1.6,1.4,3.1,2.9,4.9,4,2.2,1.3,5.2,2.4,7.7,2.6-.3-.6-1-1.2-1.5-1.8-.2-.3-.4-.8-.6-1.1,1.3,1.5,3.5,2.7,5.1,3.8,1.5,1.1,3.4,1.6,5.1,2.2,0-.6-1.5-3.3-1.9-4.1.6.8,1.5,1.3,2,2.1.6.8,1,1.7,1.4,2.5h0c.2,4.4-.2,8.6-.2,12.9s.2,4.9-.3,7.2c-.5,2.1-2.5,4.1-2.1,6.3,1.5-.8,4.6-3.1,5.6-4.5,2.1-2.9,1.2-9.2.9-12.6h0l.1.1Z"/>
        <g>
          <path class="cls-3" d="M28.1,23.93c.2,0,.4,0,.5-.3,1.7-3.2,4.6-1.9,4.7-1.8.3,0,.6,0,.8-.3,0-.3,0-.6-.3-.8-1.4-.6-4.5-1-6.2,2.3,0,.3,0,.6.2.8h.3v.1Z"/>
          <path class="cls-3" d="M45.5,21.33s.3.2.5,0c2.8-1.1,4,1.3,4,1.4,0,.2.4.3.6.2.2,0,.3-.4.2-.6-.5-1.2-2.3-3.1-5.2-1.9-.2,0-.4.4-.3.6v.2h.2v.1Z"/>
          <path class="cls-3" d="M31.6,26.23c0,1.1.7,2.1,1.5,2.1s1.6-1,1.6-2.1-.7-2.1-1.5-2.1-1.6,1-1.6,2.1Z"/>
          <path class="cls-3" d="M45.5,26.23c0,1.1.7,2.1,1.5,2.1s1.6-1,1.6-2.1-.7-2.1-1.5-2.1-1.6,1-1.6,2.1Z"/>
          <path class="cls-67" d="M35.4,40.23c.2.2,1.5,3.1,5,3,3.4,0,4.8-2.7,5-3"/>
          <path class="cls-4" d="M42.8,34.23c0,1.4-1.1,2.5-2.5,2.5s-2.5-1.1-2.5-2.5,1.1,1.4,2.5,1.4,2.5-2.8,2.5-1.4Z"/>
          <path class="cls-15" d="M51.6,29.23c2,0,3.6,1.5,3.5,3.2-.1,1.7-1.9,2.9-3.9,2.8s-3.6-1.5-3.5-3.2c.1-1.7,1.9-2.9,3.9-2.8Z"/>
          <path class="cls-15" d="M28.8,29.23c2,0,3.6,1.5,3.5,3.2s-1.9,2.9-3.9,2.8-3.6-1.5-3.5-3.2,1.9-2.9,3.9-2.8Z"/>
        </g>
      </g>
      <g>
        <path class="cls-56" d="M6.4,103.23h0c-4-.2-6.5-4.5-5.1-8.5l10.2-24.6c1.5-3.9,5.6-5.9,9.3-4.4h0c4.3,1.7,6.1,7.2,3.7,11.3l-12.9,23.2c-1.1,2-3.2,3.1-5.3,3h.1Z"/>
        <path class="cls-12" d="M14.8,65.33c-3.4,2.8-7.8,8.5-10.9,20.9l13.8,6.3s9.7-17,8.5-23.5c-.8-4.5-7.7-6.6-11.5-3.6h0l.1-.1Z"/>
        <path class="cls-56" d="M4.5,93.53h0c1.6,0,3,.5,4.1,1.9l20.3,23.9-6.1,4.4L1.6,102.93c-3.2-3.2-1.3-9,3.1-9.3h-.2v-.1Z"/>
        <path class="cls-56" d="M34.9,127.23l-6-8.4-6.5,3.8s0,.2.2.2c-2.5,9.4,1.2,14.4,1.2,14.4,3.5,4.9,5.2,4.1,5.9,2.6.5-1.1.5-2.3,0-3.4-1.5-4.8-.8-11.9-.8-11.9,6.1,6.2,5.7,2.6,5.7,2.6h.3v.1Z"/>
      </g>
      <g>
        <path class="cls-56" d="M73.4,103.13h0c4-.2,6.5-4.5,5.1-8.5l-10.2-24.6c-1.5-3.9-5.6-5.9-9.3-4.4h0c-4.3,1.7-6.1,7.2-3.7,11.3l12.9,23.2c1.1,2,3.2,3.1,5.3,3h-.1Z"/>
        <path class="cls-12" d="M65,65.23c3.4,2.8,7.8,8.5,10.9,20.9l-13.8,6.3s-9.7-17-8.5-23.5c.8-4.5,7.7-6.6,11.5-3.6h0l-.1-.1Z"/>
        <path class="cls-56" d="M74.1,92.53h0c-1.6,0-2.9.8-3.9,2.1l-18.3,25.4,6.5,3.9,19.5-22.4c3-3.4.7-9-3.7-9h-.1Z"/>
        <path class="cls-56" d="M46.1,125.13l7.6-6.9,5.6,5.1s-.2.1-.3.2c.6,9.7-4.1,13.8-4.1,13.8-4.4,4.1-5.9,3-6.3,1.3-.3-1.1,0-2.4.5-3.3,2.5-4.4,3.3-11.5,3.3-11.5-7.2,4.7-6.1,1.3-6.1,1.3h-.2Z"/>
      </g>
    </g>
  </g>
</svg>