<?xml version="1.0" encoding="UTF-8"?>
<svg id="Ebene_2" data-name="Ebene 2" xmlns="http://www.w3.org/2000/svg" xmlns:xlink="http://www.w3.org/1999/xlink" viewBox="0 0 90.6 345.3">
  <defs>
    <style>
      .cls-1 {
        fill: #d9a8a7;
      }

      .cls-2 {
        fill: #103d54;
      }

      .cls-3 {
        fill: #2e89ce;
      }

      .cls-4 {
        fill: #fff;
      }

      .cls-5 {
        fill: none;
        stroke: #630;
        stroke-linecap: round;
        stroke-miterlimit: 10;
      }

      .cls-6 {
        fill: #d9a2a0;
      }

      .cls-7 {
        fill: #d7d6d8;
      }

      .cls-8, .cls-9, .cls-10, .cls-11 {
        isolation: isolate;
      }

      .cls-8, .cls-12 {
        fill: #88a5d8;
      }

      .cls-8, .cls-10 {
        mix-blend-mode: multiply;
      }

      .cls-13 {
        fill: #226baf;
      }

      .cls-14 {
        fill: #ca8a8c;
      }

      .cls-15 {
        fill: #f4edf7;
      }

      .cls-16 {
        fill: #1e648e;
      }

      .cls-17, .cls-11 {
        fill: #603813;
      }

      .cls-18 {
        fill: #ddd;
      }

      .cls-19 {
        fill: #543a35;
      }

      .cls-20 {
        fill: #752c46;
      }

      .cls-10 {
        fill: url(#Unbenannter_Verlauf);
      }

      .cls-11 {
        opacity: .5;
      }
    </style>
    <linearGradient id="Unbenannter_Verlauf" data-name="Unbenannter Verlauf" x1="44.7" y1="171.3" x2="44.7" y2="148.4" gradientTransform="translate(0 -148)" gradientUnits="userSpaceOnUse">
      <stop offset="0" stop-color="#88a5d8"/>
      <stop offset="1" stop-color="#88a5d8" stop-opacity="0"/>
    </linearGradient>
  </defs>
  <g id="Ebene_1-2" data-name="Ebene 1">
    <g class="cls-9">
      <g id="Layer_1" data-name="Layer 1">
        <g id="german-woman-doctor-nomask">
          <g>
            <path class="cls-1" d="M13.8,134.9l-12.3-1.3,1.8-29.8c.1-1.9,3.7-3.2,8-3.1h0c4.4.2,8.1,1.9,8,3.7l-5.6,30.4h.1v.1Z"/>
            <path class="cls-1" d="M11.1,188.7H3.9l-2.4-54c0-3.4,2.8-6.1,6.2-6.2h0c3.5,0,6.5,2.6,6.5,5.8l-3.1,54.4h0Z"/>
            <path class="cls-1" d="M11.8,204.5l.5,5.6c.2,3.1-4,4.5-6,2.2-.6-.8-1.1-1.8-1.6-3s-.4-.8,0,0c-1.1-3.4-1.4-8.2-.7-14.3v-7.3h0l7.3-.3h0v4.7l4.5,14.4s.5,5.2-4-2.1h0v.1Z"/>
          </g>
          <g>
            <path class="cls-1" d="M78.3,135.3l12.3-1.3-1.8-29.8c-.1-1.9-3.7-3.2-8-3.1h0c-4.4.2-8.1,1.9-8,3.7l5.6,30.4h-.1v.1Z"/>
            <path class="cls-1" d="M81,189.1h7.2l2.4-54c0-3.4-2.8-6.1-6.2-6.2h0c-3.5,0-6.5,2.6-6.5,5.8l3.1,54.4h0Z"/>
            <path class="cls-1" d="M80.3,204.9l-.5,5.6c-.2,3.1,4,4.5,6,2.2.6-.8,1.1-1.8,1.6-3s.4-.8,0,0c1.1-3.4,1.4-8.2.7-14.3v-7.3h0l-7.3-.3h0v4.7l-4.5,14.4s-.5,5.2,4-2.1h0v.1Z"/>
          </g>
          <g>
            <path class="cls-16" d="M56,252.9h0c-4.9,0-8.7-3.8-8.9-8.6l-2-72.9c0-7.8,6.5-14.3,14.3-14.3h0c7.8,0,14.3,6.5,14.3,14.3,2.5,24.4-1.2,52.4-9,75.5-1.2,3.6-4.6,6-8.5,6h-.2,0Z"/>
            <path class="cls-16" d="M53.6,331.8h-6.3v-84.8c0-5.1,3.6-9.2,8.1-9.2h0c4.1,0,7.5,3.3,8,7.7,3.4,24.8-.3,54.2-10,86.2h.2v.1Z"/>
            <g>
              <path class="cls-15" d="M54.7,331.6s3.1,3.7,4.1,5.7c1.1.9,12.6,1.3,14.1,7.1-4.6,1.7-23.2.7-27.1-.6,0,0-.4-9.3,1.2-12.1"/>
              <path class="cls-2" d="M71,341.6c.9.8,1.5,1.7,1.8,2.8-4.6,1.7-23.2.7-27.1-.6v-3.8c4.5,1.8,9.4,2.1,14.1,2.2,3.7,0,7.5,0,11.1-.5h.1v-.1Z"/>
              <path class="cls-4" d="M46.6,332.6h0c.5.6,1,1.3,1.2,2.1s.2,1.7-.2,2.5c-.3.7-.9,1.1-1.5,1.5-.1,0-.2,0-.3.2,0-2.2.3-4.6.8-6.2h0v-.1Z"/>
              <path class="cls-18" d="M59,336c-1.3-.3-2.6-.2-3.9.3-.4.2-.2,1,.2.8,1.1-.5,2.3-.6,3.5-.3.5,0,.6-.7.2-.8h0Z"/>
              <path class="cls-18" d="M57.8,333.8c-1.3-.2-2.5-.2-3.8.2-.5,0-.3.9.2.8,1.1-.3,2.3-.4,3.4-.2.5,0,.6-.7.2-.8h0Z"/>
            </g>
          </g>
          <g>
            <path class="cls-16" d="M32.2,253.1h0c4.9,0,8.7-3.8,8.9-8.6l2-72.9c0-7.8-6.5-14.3-14.3-14.3h0c-7.8,0-14.3,6.5-14.3,14.3-2.5,24.4,1.2,52.4,9,75.5,1.2,3.6,4.6,6,8.5,6h.2,0Z"/>
            <path class="cls-16" d="M34.5,332.1h6.3v-84.8c0-5.1-3.6-9.2-8.1-9.2h0c-4.1,0-7.5,3.3-8,7.7-3.4,24.8.3,54.2,10,86.2h-.2v.1Z"/>
            <g>
              <path class="cls-15" d="M33.5,331.4s-3.1,3.7-4.1,5.7c-1.1.9-12.6,1.3-14.1,7.1,4.6,1.7,23.2.7,27.1-.6,0,0,.4-9.3-1.2-12.1"/>
              <path class="cls-2" d="M17.2,341.4c-.9.8-1.5,1.7-1.8,2.8,4.6,1.7,23.2.7,27.1-.6v-3.8c-4.5,1.8-9.4,2.1-14.1,2.2-3.7,0-7.5,0-11.1-.5h-.1v-.1Z"/>
              <path class="cls-4" d="M41.6,332.4h0c-.5.6-1,1.3-1.2,2.1s-.2,1.7.2,2.5c.3.7.9,1.1,1.5,1.5.1,0,.2,0,.3.2,0-2.2-.3-4.6-.8-6.2h0v-.1Z"/>
              <path class="cls-18" d="M29.2,335.8c1.3-.3,2.6-.2,3.9.3.4.2.2,1-.2.8-1.1-.5-2.3-.6-3.5-.3-.5,0-.6-.7-.2-.8h0Z"/>
              <path class="cls-18" d="M30.4,333.6c1.3-.2,2.5-.2,3.8.2.5,0,.3.9-.2.8-1.1-.3-2.3-.4-3.4-.2-.5,0-.6-.7-.2-.8h0Z"/>
            </g>
          </g>
          <path class="cls-19" d="M76.6,48.1c-3.1-5.7-7.8-10.1-11-15.6-1.4-2.4-1.1-22.1-15.8-24.7-3.1-.6-6.3-.3-9.4.2-2.9.6-5.9.9-8.4,2.6-2.4,1.6-4.3,3.9-5.5,6.3-1.6,3.3-1.8,7-3.2,10.4-3.9,9.1-11.2,16.2-14.3,25.5-.2.7-.5,1.5-.7,2.2-1,4.1.2,8.6,2.3,12.2,1.1-2.6.7-5.5,2.1-8.3.8,6.9,1.8,13.5,6.2,19.1,4.2,5.4,9.5,8.2,15.3,11.5-.5-1-.8-1.9-.7-3.1,2.3,2.2,6.8,4.4,9.9,3.6,4.6-1.4,8.6-4.2,12.6-6.5,0,1.1-1.6,2.9-2.3,3.8,5.4-2.7,12-7.2,14.9-12.7,2.8-5.2,3.4-11.5,4-17.2,1.9,2.5,2.3,6.1,3.3,8.9,2.9-5.3,3.4-13.3.6-18.8v.2h.1v.4h0Z"/>
          <path class="cls-16" d="M72.4,166.3l-27.3,16.8-30.3-13.5c2-12.5,7.9-25.6,12-33.7,2.6-5.1,4.5-8.3,4.5-8.3h25.8c1.5,2.4,3.1,5.2,4.4,8.3,6.2,13.5,10.9,30.4,10.9,30.4Z"/>
          <g>
            <g>
              <path class="cls-2" d="M73.7,178.4c-3-1.2-4.8-4.1-5.9-6.4-1.5-3-2.1-6.2-1.9-9.5,0-.3-.6-.3-.6,0-.3,3.7.6,7.3,2.5,10.8,1.2,2.2,3.1,4.6,5.9,5.6v-.5h0Z"/>
              <path class="cls-2" d="M22.5,162.5c0-.3-.9-.3-.9,0,0,3.8-.8,7.6-2.3,11.3-1,2.4-2.5,4.8-5.5,6.7v.7c3.1-1.7,4.8-4,5.9-6.3,2-4,2.8-8.2,2.8-12.4h0Z"/>
              <path class="cls-2" d="M37.8,331.5h0v-.6h0v.6ZM37.8,330.3h0v-.6h0v.6ZM37.8,329.1h0v-.6h0v.6ZM37.8,327.9h0v-.6h0v.6ZM37.8,326.7h0v-.6h0v.6ZM37.8,325.5h0v-.6h0v.6ZM37.8,324.2h0v-.6h0v.6ZM37.8,323h0v-.6h0v.6ZM37.8,321.8h0v-.6h0v.6ZM37.9,320.6h0v-.6h0v.6h0ZM37.9,319.4h0v-.6h0v.6ZM37.9,318.1h0v-.6h0v.6ZM37.9,316.9h0v-.6h0v.6ZM37.9,315.7h0v-.6h0v.6h0ZM37.9,314.5h0v-.6h0v.6ZM37.9,313.3h0v-.6h0v.6h0ZM38,312.1h0v-.6h0v.6h0ZM38,310.8h0v-.6h0v.6h0ZM38,309.6h0v-.6h0v.6h0ZM38,308.4h0v-.6h0v.6h0ZM38,307.2h0v-.6h0v.6h0ZM38,306h0v-.6h0v.6h0ZM38,304.8h0v-.6h0v.6h0ZM38.1,303.6h0v-.6h0v.6h0ZM38.1,302.3h0v-.6h0v.6h0ZM38.1,301.1h0v-.6h0v.6h0ZM38.1,299.9h0v-.6h0v.6h0ZM38.1,298.7h0v-.6h0v.6h0ZM38.1,297.5h0v-.6h0v.6h0ZM38.2,296.3h0v-.6h0v.6h0ZM38.2,295h0v-.6h0v.6h0ZM38.2,293.8h0v-.6h0v.6h0ZM38.2,292.6h0v-.6h0v.6h0ZM38.2,291.4h0v-.6h0v.6h0ZM38.2,290.2h0v-.6h0v.6h0ZM38.3,289h0v-.6h0v.6h0ZM38.3,287.8h0v-.6h0v.6h0ZM38.3,286.5h0v-.6h0v.6h0ZM38.3,285.3h0v-.6h0v.6h0ZM38.3,284.1h0v-.6h0v.6h0ZM38.3,282.9h0v-.6h0v.6h0ZM38.4,281.7h0v-.6h0v.6h0ZM38.4,280.5h0v-.6h0v.6h0ZM38.4,279.3h0v-.6h0v.6h0ZM38.4,278h0v-.6h0v.6h0ZM38.4,276.8h0v-.6h0v.6h0ZM38.4,275.6h0v-.6h0v.6h0ZM38.5,274.4h0v-.6h0v.6h0ZM38.5,273.2h0v-.6h0v.6h0ZM38.5,271.9h0v-.6h0v.6h0ZM38.5,270.7h0v-.6h0v.6h0ZM38.5,269.5h0v-.6h0v.6h0ZM38.5,268.3h0v-.6h0v.6h0ZM38.6,267.1h0v-.6h0v.6h0ZM38.6,265.9h0v-.6h0v.6h0ZM38.6,264.7h0v-.6h0v.6h0ZM38.6,263.4h0v-.6h0v.6h0ZM38.6,262.2h0v-.6h0v.6h0ZM38.6,261h0v-.6h0v.6h0ZM38.7,259.8h0v-.6h0v.6h0ZM38.7,258.6h0v-.6h0v.6h0ZM38.7,257.4h0v-.6h0v.6h0ZM38.7,256.1h0v-.6h0v.6h0ZM38.7,254.9h0v-.6h0v.6h0ZM38.7,253.7h0v-.6h0v.6h0ZM38.8,252.5h0v-.6h0v.6h0ZM38.8,251.3h0v-.6h0v.6h0ZM38.8,250.1h0v-.6h0v.6h0ZM38.8,248.9h0v-.6h0v.6h0ZM38.8,247.6h0v-.6h0v.6h0ZM38.8,246.4h0v-.6h0v.6h0ZM38.9,245.2h0v-.6h0v.6h0ZM38.9,244h0v-.6h0v.6h0ZM38.9,242.8h0v-.6h0v.6h0ZM38.9,241.6h0v-.6h0v.6h0ZM38.9,240.4h0v-.6h0v.6h0ZM38.9,239.1h0v-.6h0v.6h0ZM39,237.9h0v-.6h0v.6h0ZM39,236.7h0v-.6h0v.6h0ZM39,235.5h0v-.6h0v.6h0ZM39,234.3h0v-.6h0v.6h0ZM39,233.1h0v-.6h0v.6h0ZM39.1,231.8h0v-.6h0v.6h0ZM39.1,230.6h0v-.6h0v.6h0ZM39.1,229.4h0v-.6h0v.6h0ZM39.1,228.2h0v-.6h0v.6h0ZM39.1,227h0v-.6h0v.6h0ZM39.2,225.8h0v-.6h0v.6h0ZM39.2,224.6h0v-.6h0v.6h0ZM39.2,223.4h0v-.6h0v.6h0ZM39.2,222.1h0v-.6h0v.6h0ZM39.2,220.9h0v-.6h0v.6h0ZM39.2,219.7h0v-.6h0v.6h0ZM39.3,218.5h0v-.6h0v.6h0ZM39.3,217.3h0v-.6h0v.6h0ZM39.3,216.1h0v-.6h0v.6h0ZM39.3,214.8h0v-.6h0v.6h0ZM39.3,213.6h0v-.6h0v.6h0ZM39.3,212.4h0v-.6h0v.6h0ZM39.4,211.2h0v-.6h0v.6h0ZM39.4,210h0v-.6h0v.6h0ZM39.4,208.8h0v-.6h0v.6h0ZM39.4,207.5h0v-.6h0v.6h0ZM39.4,206.3h0v-.6h0v.6h0ZM39.4,205.1h0v-.6h0v.6h0ZM39.5,203.9h0v-.6h0v.6h0ZM39.5,202.7h0v-.6h0v.6ZM39.5,201.5h0v-.6h0v.6h0ZM39.5,200.3h0v-.6h0v.6h0ZM39.5,199.1h0v-.6h0v.6h0ZM39.6,197.8h0v-.6h0v.6h0ZM39.6,196.6h0v-.6h0v.6h0ZM39.6,195.4h0v-.6h0v.6h0ZM39.6,194.2h0v-.6h0v.6h0ZM39.6,193h0v-.6h0v.6h0ZM39.6,191.8h0v-.6h0v.6h0ZM39.7,190.5h0v-.6h0v.6h0ZM39.7,189.3h0v-.6h0v.6h0ZM39.7,188.1h0v-.6h0v.6h0ZM39.7,186.9h0v-.6h0v.6h0ZM39.7,185.7h0v-.6h0v.6h0Z"/>
              <path class="cls-2" d="M49.4,331.9v-.6h0v.6h0ZM49.4,330.6v-.6h0v.6h0ZM49.4,329.4v-.6h0v.6h0ZM49.4,328.2v-.6h0v.6h0ZM49.4,326.9v-.6h0v.6h0ZM49.4,325.7v-.6h0v.6h0ZM49.4,324.5v-.6h0v.6h0ZM49.4,323.3v-.6h0v.6h0ZM49.4,322v-.6h0v.6h0ZM49.4,320.8v-.6h0v.6h0ZM49.4,319.6v-.6h0v.6h0ZM49.4,318.4v-.6h0v.6h0ZM49.4,317.1v-.6h0v.6h0ZM49.4,315.9v-.6h0v.6h0ZM49.4,314.7v-.6h0v.6h0ZM49.3,313.4v-.6h0v.6h0ZM49.3,312.2v-.6h0v.6h0ZM49.3,311v-.6h0v.6h0ZM49.3,309.8v-.5h0v.6h0v-.1ZM49.3,308.5v-.6h0v.6h0ZM49.3,307.3v-.6h0v.6h0ZM49.3,306.1v-.6h0v.6h0ZM49.3,304.9v-.6h0v.6h0ZM49.3,303.6v-.6h0v.6h0ZM49.3,302.4v-.6h0v.6h0ZM49.3,301.2v-.6h0v.6h0ZM49.3,300v-.6h0v.6h0ZM49.3,298.7v-.6h0v.6h0ZM49.2,297.5v-.6h0v.6h0ZM49.2,296.3v-.6h0v.6h0ZM49.2,295v-.6h0v.6h0ZM49.2,293.8v-.6h0v.6h0ZM49.2,292.6v-.6h0v.6h0ZM49.2,291.4v-.6h0v.6h0ZM49.2,290.1v-.6h0v.6h0ZM49.2,288.9v-.6h0v.6h0ZM49.2,287.7v-.6h0v.6h0ZM49.2,286.5v-.6h0v.6h0ZM49.1,285.2v-.6h0v.6h0ZM49.1,284v-.6h0v.6h0ZM49.1,282.8v-.6h0v.6h0ZM49.1,281.6v-.6h0v.6h0ZM49.1,280.3v-.6h0v.6h0ZM49.1,279.1v-.6h0v.6h0ZM49.1,277.9v-.6h0v.6h0ZM49.1,276.7v-.6h0v.6h0ZM49.1,275.4v-.6h0v.6h0ZM49.1,274.2v-.6h0v.6h0ZM49,273v-.6h0v.6h0ZM49,271.8v-.6h0v.6h0ZM49,270.5v-.6h0v.6h0ZM49,269.3v-.6h0v.6h0ZM49,268.1v-.6h0v.6h0ZM49,266.9v-.6h0v.6h0ZM49,265.6v-.6h0v.6h0ZM49,264.4v-.6h0v.6h0ZM49,263.2v-.6h0v.6h0ZM49,261.9v-.6h0v.6h0ZM48.9,260.7v-.6h0v.6h0ZM48.9,259.5v-.6h0v.6h0ZM48.9,258.3v-.6h0v.6h0ZM48.9,257.1v-.6h0v.6h0ZM48.9,255.8v-.6h0v.6h0ZM48.9,254.6v-.6h0v.6h0ZM48.9,253.4v-.6h0v.6h0ZM48.9,252.1v-.6h0v.6h0ZM48.9,250.9v-.6h0v.6h0ZM48.9,249.7v-.6h0v.6h0ZM48.8,248.5v-.6h0v.6h0ZM48.8,247.3v-.6h0v.6h0ZM48.8,246v-.6h0v.6h0ZM48.8,244.8v-.6h0v.6h0ZM48.8,243.6v-.6h0v.6h0ZM48.8,242.3v-.6h0v.6h0ZM48.8,241.1v-.6h0v.6h0ZM48.8,239.9v-.6h0v.6h0ZM48.8,238.7v-.6h0v.6h0ZM48.8,237.4v-.6h0v.6h0ZM48.8,236.2v-.6h0v.6h0ZM48.7,235v-.6h0v.6h0ZM48.7,233.8v-.6h0v.6h0ZM48.7,232.6v-.6h0v.6h0ZM48.7,231.3v-.6h0v.6h0ZM48.7,230.1v-.6h0v.6h0ZM48.7,228.9v-.6h0v.6h0ZM48.7,227.6v-.6h0v.6h0ZM48.7,226.4v-.6h0v.6h0ZM48.7,225.2v-.6h0v.6h0ZM48.7,224v-.6h0v.6h0ZM48.6,222.7v-.6h0v.6h0ZM48.6,221.5v-.6h0v.6h0ZM48.6,220.3v-.6h0v.6h0ZM48.6,219.1v-.6h0v.6h0ZM48.6,217.8v-.6h0v.6h0ZM48.6,216.6v-.6h0v.6h0ZM48.6,215.4v-.6h0v.6h0ZM48.6,214.2v-.6h0v.6h0ZM48.6,212.9v-.6h0v.6h0ZM48.5,211.7v-.6h0v.6h0ZM48.5,210.5v-.6h0v.6h0ZM48.5,209.3v-.6h0v.6h0ZM48.5,208v-.6h0v.6h0ZM48.5,206.8v-.6h0v.6h0ZM48.5,205.6v-.6h0v.6h0ZM48.5,204.4v-.6h0v.6h0ZM48.5,203.1v-.6h0v.6h0ZM48.5,201.9v-.6h0v.6h0ZM48.4,200.7v-.6h0v.6h0ZM48.4,199.5v-.6h0v.6h0ZM48.4,198.2v-.6h0v.6h0ZM48.4,197v-.6h0v.6h0ZM48.4,195.8v-.6h0v.6h0ZM48.4,194.6v-.6h0v.6h0ZM48.4,193.3v-.6h0v.6h0ZM48.4,192.1v-.6h0v.6h0ZM48.4,190.9v-.6h0v.6h0ZM48.4,189.7v-.6h0v.6h0ZM48.3,188.4v-.6h0v.6h0ZM48.3,187.2v-.6h0v.6h0ZM48.3,186v-.6h0v.6h0ZM48.3,184.7v-.6h0v.6h0ZM48.3,183.5v-.6h0v.6h0Z"/>
            </g>
            <path class="cls-2" d="M47.4,328.9c2.3.3,4.6.3,7,0,.2,0,.2-.6,0-.6-2.3.4-4.6.4-7,0-.2,0-.2.5,0,.6h0Z"/>
            <path class="cls-2" d="M33.6,328.9c2.4.3,4.7.4,7.1.2.2,0,.2-.6,0-.6-2.4.2-4.7,0-7.1-.2-.2,0-.2.5,0,.6h0Z"/>
          </g>
          <g>
            <path class="cls-13" d="M72.5,115.9s13-2.4,17.8-7.7c-1.7-6.3-14.4-35.6-24.2-39-1.8-.6-3.5-1.2-5.1-1.7-5.1,6.3-10.8,12-17.1,16.9-.5.3-1,.7-1.5.6-.4,0-.8-.5-1.1-.8-4.6-5.4-9.2-10.7-13.8-16.1-4.5,1.9-9.1,4.5-11.1,7.5-4.6,6.9-14.5,24.6-16.4,34.2,2.5,4.9,10.5,7.9,16.8,7.8.8-2.3,1.3-4.5,2.3-7.8-.5,13.6-3.7,57.4-3.7,57.4,0,0,27.5,5.4,59.2,0l-3.9-56.7,1.8,5.4h0Z"/>
            <path class="cls-2" d="M71.3,112.1v-.2s.1,0,.5-.2v.2c-.3,0-.5.2-.5.2h0ZM72.3,111.8v-.2c.1,0,.3,0,.5-.2v.2c-.1,0-.3,0-.5.2ZM73.3,111.4v-.2c.1,0,.3,0,.5-.2v.2c-.1,0-.3,0-.5.2h0ZM74.3,111v-.2c.1,0,.3,0,.5-.2v.2c-.1,0-.3,0-.5.2ZM75.4,110.7v-.2c.1,0,.3,0,.5-.2v.2c-.1,0-.3,0-.5.2ZM76.4,110.3v-.2c.1,0,.3,0,.5-.2v.2c-.1,0-.3,0-.5.2ZM77.4,109.9v-.2c.1,0,.3,0,.4-.2v.2c-.1,0-.3,0-.4.2ZM78.4,109.5v-.2c.1,0,.3,0,.4-.2v.2c-.1,0-.3.2-.4.2ZM79.4,109.1v-.2c.1,0,.3-.2.4-.2v.2c-.1,0-.3.2-.4.2ZM80.3,108.6v-.2c.1,0,.3-.2.4-.2v.2c-.1,0-.3.2-.4.2ZM81.3,108.2v-.2c.1,0,.3-.2.4-.2v.2c-.1,0-.3.2-.4.2ZM82.3,107.7v-.2c.1,0,.3-.2.4-.2v.2s-.2.2-.4.2h0ZM83.3,107.2v-.2s.2-.2.4-.3v.2s-.2.2-.4.3ZM84.2,106.7v-.2s.2-.2.4-.3v.2s-.2.2-.4.3h0ZM85.2,106.1v-.2s.2-.2.4-.3v.2s-.2.2-.4.3h0ZM86.1,105.6v-.2s.2-.2.4-.3v.2s-.2.2-.4.3h0ZM87,104.9v-.2l.3-.3v.2l-.3.3ZM87.8,104.2h-.1c.1-.2.3-.4.4-.5h.1c-.1.2-.3.4-.4.5h0Z"/>
            <path class="cls-2" d="M16.8,113.2h-.4v-.2h.5v.2h-.2.1ZM17.6,113.2v-.2h.5v.2h-.5ZM15.9,113.2h-.5v-.2h.5v.2h0ZM14.9,113.1h-.5v-.2h.5v.2ZM13.8,112.8h-.5v-.2h.6v.2h-.1ZM12.8,112.6c-.2,0-.3,0-.5-.2v-.2c.2,0,.4,0,.6.2v.2h-.1ZM11.8,112.3c-.2,0-.3,0-.5-.2v-.2c.2,0,.4,0,.5.2v.2h0ZM10.8,111.9c-.2,0-.3,0-.5-.2v-.2c.2,0,.4.2.6.2v.2h-.1ZM9.8,111.5c-.2,0-.3-.2-.5-.2v-.2c.2,0,.4.2.5.2v.2ZM8.8,111c-.2,0-.3-.2-.5-.3v-.2c.2,0,.4.2.6.3v.2h-.1ZM7.8,110.5c-.2,0-.3-.2-.5-.3v-.2c.2,0,.4.2.5.3v.2h0ZM6.9,109.9c-.2,0-.3-.2-.5-.3v-.2c.2,0,.4.2.5.3v.2ZM6,109.3c-.2,0-.3-.2-.5-.3v-.2c.2,0,.4.2.5.3v.2ZM5.1,108.7c-.1,0-.3-.2-.4-.3v-.2c.2,0,.4.2.5.3v.2h-.1ZM4.2,108c-.1,0-.3-.2-.4-.3v-.2c.2,0,.4.2.5.3v.2h-.1ZM3.3,107.4c-.1,0-.3-.2-.4-.3h.1c.1,0,.3,0,.4.2h-.1v.1ZM2.5,106.6c-.1,0-.3-.3-.4-.4h.1c.1,0,.3,0,.4.2h-.1v.2ZM1.7,105.9c-.3-.2-.4-.4-.4-.4h.1s.1,0,.4.3h-.1v.1Z"/>
            <path class="cls-20" d="M45,164.8h-.5v-.2h.5v.2ZM45.5,164.8v-.2h.5v.2h-.5ZM43.9,164.8h-.5v-.2h.5v.2ZM46.6,164.8v-.2h.5v.2h-.5ZM42.8,164.8h-.5v-.2h.5v.2ZM47.6,164.8v-.2h.5v.2h-.5ZM41.8,164.8h-.5v-.2h.5v.2ZM48.7,164.8v-.2h.5v.2h-.5ZM40.7,164.8h-.5v-.2h.5v.2ZM49.8,164.8v-.2h.5v.2h-.5ZM39.7,164.7h-.5v-.2h.5v.2ZM50.8,164.7v-.2h.5v.2h-.5ZM38.6,164.7h-.5v-.2h.5v.2h0ZM51.9,164.7v-.2h.5-.5v.2ZM37.5,164.6h-.5v-.2h.5v.2h0ZM52.9,164.6v-.2h.5-.5v.2ZM36.5,164.6h-.5v-.2h.5v.2h0ZM54,164.6v-.2h.5-.5v.2ZM35.4,164.6h-.5v-.2h.5v.2h0ZM55.1,164.5v-.2h.5-.5v.2ZM34.3,164.5h-.5v-.2h.5v.2h0ZM56.2,164.5v-.2h.5v.2h-.5ZM33.3,164.4h-.5v-.2h.5v.2h0ZM57.2,164.4v-.2h.5-.5v.2ZM32.2,164.4h-.5v-.2h.5v.2h0ZM58.3,164.3v-.2h.5-.5v.2ZM31.2,164.3h-.5v-.2h.5v.2h0ZM59.3,164.2v-.2h.5-.5v.2ZM30.1,164.2h-.5v-.2h.5v.2h0ZM60.4,164.2v-.2h.5v.2h-.5ZM29,164.1h-.5v-.2h.5v.2h0ZM61.4,164.1v-.2h.5v.2h-.5ZM28,164h-.5v-.2h.5v.2h0ZM62.5,164v-.2h.5v.2h-.5ZM26.9,163.9h-.5v-.2h.5v.2h0ZM63.6,163.9v-.2h.5-.5v.2ZM25.8,163.8h-.5v-.2h.5v.2h0ZM64.6,163.8v-.2h.5-.5v.2ZM24.8,163.7h-.5v-.2h.5v.2h0ZM65.7,163.6v-.2h.5-.5v.2ZM23.7,163.6h-.5v-.2h.5v.2h0ZM66.7,163.5v-.2h.5-.5v.2ZM22.7,163.4h-.5v-.2h.5v.2h0ZM67.8,163.4v-.2h.5v.2h-.5ZM21.6,163.3h-.5v-.2h.5v.2ZM68.8,163.2v-.2h.5v.2h-.5ZM20.6,163.2h-.5v-.2h.5v.2ZM69.9,163.1v-.2h.5v.2h-.5ZM19.5,163h-.5v-.2h.5v.2ZM70.9,162.9v-.2h.5v.2h-.5ZM18.4,162.8h-.5v-.2h.5v.2ZM72,162.8v-.2h.5v.2h-.5ZM17.4,162.7h-.5v-.2h.5v.2ZM73,162.6v-.2h.5v.2h-.5ZM16.3,162.5h-.5v-.2h.5v.2ZM74.1,162.4v-.2h.2v.2h-.2Z"/>
          </g>
          <path class="cls-3" d="M57.5,66.4l-13.8,15.8-12.9-15.3c-1.6.6-3.3,1.3-5,2.1l18.2,19.6,18.2-20.7c-1.8-.6-3.4-1.1-4.8-1.5h.1Z"/>
          <g>
            <path class="cls-4" d="M49.7,115.6c-.1-.3-.3-.5-.6-.6-.3,0-.7,0-.9.3-.2.2-.4.6-.4.9-.1.7,0,1.3.3,1.9v.2c-.1,2.9-1.6,4.1-3.5,4.2,1.5-3.3.9-7,0-10.6-2.2-8.1-7-15.5-14.2-19.3,0-.6-.9-.8-1.1,0-2.1,9.1.8,18.3,5.9,25.7,1.9,2.7,4.2,4.8,7.3,5.5-1.4,1.6-3.5,2.2-5.7.4h-.4c-.1-.4-.3-.8-.5-1.1s-.5-.7-.8-.9c-.4-.2-.8-.2-1.1,0-.1,0-.2.2-.3.4-.4.7-.2,1.7.5,2.1.2.2.5.2.8.3h1.2s.1.2.2.2c2.3,1.9,5.8,1.4,7.6-1.1v-.2c3.1,0,5.4-2.6,5.5-5.6v-.3c.2-.2.4-.5.5-.8,0-.2.1-.5.1-.8s0-.6-.1-.9h0l-.3.2v-.1ZM37.7,119.8c-2.1-2.1-3.6-5.1-4.9-7.8-2.7-5.6-3.8-12-2.6-18.1,5.1,2.8,8.8,7.5,11.4,12.9,1.5,3.2,2.6,6.9,3,10.5.2,1.7-.3,3.7-1.2,5.3-2.1-.3-4.3-1.5-5.6-2.8h-.1Z"/>
            <g>
              <path class="cls-20" d="M37.2,62.3c-.3-.5-.6-1-.6-1.6-4.1,1.5-7.7,4.2-9.7,8.5-3.4,7.3-1.8,17.2,2,23.9.6,1,2,0,1.4-.9-3.7-6.4-4.9-15.2-2-22.2,1.7-4.1,5.1-6.5,8.9-7.8h0v.1Z"/>
              <path class="cls-20" d="M63.7,72.2c-1-3.7-3-6.6-5.5-8.7h-3.1c3.6,2.1,6.3,5.7,7.4,10.5,1.4,6.3.1,13.2-1.2,19.4-.2,1.1,1.4,1.6,1.6.5,1.5-7,2.8-14.6.9-21.7h-.1Z"/>
            </g>
            <ellipse class="cls-4" cx="60.5" cy="97.4" rx="5.8" ry="6.2"/>
            <ellipse class="cls-7" cx="60.5" cy="97.4" rx="2.5" ry="2.6"/>
          </g>
          <path class="cls-14" d="M43.6,81.9c.5,0,.9-.2,1.3-.5,5.2-4.4,10-9.4,14.3-15-5.9-2-9.7-3-9.7-3h-8.5s-4.9,1.3-9.8,3.5c3.8,4.8,7.7,9.5,11.5,14.3.3.3.5.7.9.7h0Z"/>
          <path class="cls-14" d="M40.3,64h0c1.9,2.2,7,2.1,8.8,0h0c.3-.4.6-.9.6-1.4v-8.2h-10.2v8.2c0,.5.2,1,.7,1.5h.1v-.1Z"/>
          <path class="cls-1" d="M64.8,38.4c-.8,1.5-2.1,2.5-3.4,2.8h-1.1c-.3,4-1.6,7.5-3.4,10.4-3.4,5.7-8.6,9.2-12.5,8.9h-.9c-3.2,0-6.7-1.8-9.6-5.1h0c-.9-.9-1.7-2-2.4-3.2-1.8-2.8-3.2-6.3-3.7-10.3h-.3c-1.2,0-2.7-1.1-3.6-2.6,0-.2-.2-.6-.3-.8,0-.3-.2-.8-.3-1.1h0c-.3-1.5,0-2.7,1.1-3.3h0c.9-.5,2.1,0,3.2.7.7-9.5,5-18.1,11-21.3,1.6-.9,3.2-1.4,5-1.4,2.6,0,5,.8,7.2,2.3,5.1,3.4,8.8,11.8,9.6,20.3.5-.6,1-1,1.6-1.2.8-.3,1.6-.5,2.3,0,1.5.7,1.7,2.9.6,5.1h0v-.2h.1-.2Z"/>
          <g>
            <path class="cls-17" d="M55.2,34.7c-.2,0-.3,0-.5-.2-1.7-3.1-4.4-1.8-4.5-1.8-.2,0-.6,0-.8-.2,0-.2,0-.6.2-.8,1.4-.6,4.3-1,6,2.3,0,.2,0,.6-.2.8h-.2v-.1Z"/>
            <path class="cls-17" d="M32.8,34.7c.2,0,.3,0,.5-.2,1.7-3.1,4.4-1.8,4.5-1.8.2,0,.6,0,.8-.2,0-.2,0-.6-.2-.8-1.4-.6-4.3-1-6,2.3,0,.2,0,.6.2.8h.2v-.1Z"/>
            <path class="cls-17" d="M36.2,36.8c0,1,.7,2,1.5,2s1.6-1,1.6-2-.7-2-1.5-2-1.6,1-1.6,2Z"/>
            <path class="cls-17" d="M49.6,36.8c0,1,.7,2,1.5,2s1.6-1,1.6-2-.7-2-1.5-2-1.6,1-1.6,2Z"/>
            <path class="cls-5" d="M39.8,50.4c.2.2,1.5,3.1,4.9,2.9,3.3,0,4.6-2.6,4.9-2.9"/>
            <path class="cls-11" d="M46.9,44.6c0,1.4-1,2.4-2.4,2.4s-2.4-1-2.4-2.4,1,1.4,2.4,1.4,2.4-2.7,2.4-1.4Z"/>
            <path class="cls-6" d="M55.4,39.8c1.9,0,3.5,1.5,3.4,3.1s-1.8,2.8-3.9,2.7-3.5-1.5-3.4-3.1,1.8-2.8,3.9-2.7Z"/>
            <path class="cls-6" d="M33.3,39.8c1.9,0,3.5,1.5,3.4,3.1s-1.8,2.8-3.9,2.7-3.5-1.5-3.4-3.1,1.8-2.8,3.9-2.7Z"/>
          </g>
          <path class="cls-19" d="M62.9,33.4c0,2.9-1.6,15.3-5.3,18.1,1.7-7.8,2.6-19.3-.5-23.3-1-1.4-4.2-3.9-4-5.8-4.6,6-14,7.5-15.8,7.7-2.3.6-5.4,1-7.1,1.6-.6,5.8.5,17,1,20.4-1.9-2.8-3.3-6.3-3.9-10.3,0,0-.5-3.1-.3-4.3-1.4.3-2.7.8-4.1.9h-.8c0-.3.2-.8.5-1.1h0c.2-.5.5-.8.7-1.1.2-.7.5-1.4.6-2.2v-.5c.3-1.7.3-3.3.5-5,.2-3.4.6-6.8,2.1-9.9,3.5-6.6,11.3-11.5,19.2-11.2,2.8.1,5.7,1,8,2.5,4.9,3.1,8.4,8.5,9,14v9.3h.1v.2h.1Z"/>
          <g>
            <path class="cls-12" d="M44.7,0c6.3,0,14.2,2.3,18.9,3.9,2.5.8,4.1,3.1,4.1,5.7s0,8.1-.4,13.8c0,.2-.2.4-.5.4-2.1-.4-11.6-1.9-22.2-1.9s-20.1,1.6-22.2,1.9c-.2,0-.5-.1-.5-.4-.4-5.6-.4-10.5-.4-13.8s1.7-4.9,4.1-5.7c4.7-1.6,12.6-3.9,18.9-3.9h.2Z"/>
            <path class="cls-10" d="M44.7,21.4c10.7,0,20.4,1.6,22.3,1.9.4-5.6.4-10.6.4-13.7s-1.6-4.5-3.9-5.3c-4.3-1.5-12.5-3.9-18.8-3.9s-14.5,2.5-18.8,3.9c-2.3.8-3.8,2.9-3.9,5.3,0,3.1,0,8,.4,13.7,1.9-.3,11.6-1.9,22.3-1.9h0Z"/>
            <path class="cls-8" d="M44.7,20.5c-15.2,0-21-2.7-23-4,0,2.1.2,4.4.3,6.9,0,.2.2.4.5.4,2.1-.4,11.6-1.9,22.2-1.9s20.1,1.6,22.2,1.9c.2,0,.5-.1.5-.4.2-2.5.3-4.8.3-6.9-2,1.4-7.9,4-23,4h0Z"/>
          </g>
        </g>
      </g>
    </g>
  </g>
</svg>