<?xml version="1.0" encoding="UTF-8"?>
<svg id="Ebene_2" data-name="Ebene 2" xmlns="http://www.w3.org/2000/svg" viewBox="0 0 66.47 297.26">
  <defs>
    <style>
      .cls-1 {
        fill: #d9a8a7;
      }

      .cls-2 {
        fill: #1d2d4e;
      }

      .cls-3 {
        fill: none;
        stroke: #630;
        stroke-linecap: round;
      }

      .cls-3, .cls-4 {
        stroke-miterlimit: 10;
      }

      .cls-5 {
        fill: #293958;
      }

      .cls-6, .cls-4 {
        fill: #344260;
      }

      .cls-7 {
        fill: #d9a2a0;
      }

      .cls-4 {
        stroke: #344260;
        stroke-width: .2px;
      }

      .cls-8 {
        fill: #ca8a8c;
      }

      .cls-9 {
        fill: #603813;
      }

      .cls-10 {
        fill: #543a35;
      }
    </style>
  </defs>
  <g id="Ebene_1-2" data-name="Ebene 1">
    <g id="german-woman-left-standing">
      <g>
        <path class="cls-10" d="M20.25,286.91s-25.4,8.3-19.3,10.3c.7.2,22.9-.3,23.4-.6,1.2-.7,2-1.9,2.1-3.3v-6.4h-6.2Z"/>
        <path class="cls-2" d="M27.95,210.71h0c4.8,0,8.7-3.7,8.9-8.3l2-70.3c0-7.5-6.4-13.7-14.2-13.7h0c-7.8,0-14.2,6.2-14.2,13.7-2.4,23.6,1.2,50.5,9,72.9,1.2,3.5,4.6,5.8,8.4,5.8h.1v-.1h0Z"/>
        <path class="cls-2" d="M26.55,286.91h-6.3v-81.9c0-4.9,3.6-8.8,8.1-8.8h0c4,0,7.4,3.2,8,7.4,3.4,23.9-.3,52.3-9.9,83.3h.1,0Z"/>
      </g>
      <path class="cls-5" d="M10.75,112.41c-.3,6.1-.5,18.6,2.1,27.6l25.5,6.5h0c4-7.2,4.5-16,.9-23.4-1.5-3.1-3.7-6.3-6.9-9.4-2.2-2.2-3.6-5.1-3.8-8.1H10.35c.5,2.2.7,4.5.5,6.7h-.1q0,.07,0,0v.1Z"/>
      <path class="cls-10" d="M32.35,35.11c-.5-7-1.1-14.6-1.5-21.4C30.25,3.51,44.85.01,49.15,9.41c0,0,.1.3.2.4.8,1.8,1.4,3.7,1.7,5.7h0c.3.8.7,1.6,1.1,2.4,4,7.6,12.3,12.6,13.9,21.2.7,4,.6,8.6-.8,12.4-1.1-2.5-1.5-4.7-3.1-6.9.1,4.8.2,9.2-2.3,13.5-2.2,3.7-4.4,8.7-7.8,11.6-.1-2.6.6-6.1-.4-8.4-2.2,5.7-11.2,12.8-17.9,12.2-13.6-15.9-.4-26.1-1.3-38.3h-.1v-.1h0Z"/>
      <g>
        <path class="cls-1" d="M47.45,138.61l-6.3,11.5s.4,3.5,5.3-3.8c0,0,2.2,6.6,1.6,11.5-.1,1.1.1,2.3.8,3.1,1,1.2,2.9,1.6,5.5-3.9,0,0,3.1-6.2-2.3-15.1l-4.6-3.3Z"/>
        <path class="cls-6" d="M36.75,98.71h0c-3.3.3-6.3-2.3-6.6-5.7-1.9-12.5-3.1-24.3-2.8-34.7-.3-3.4,2.2-6.4,5.6-6.7h0c7.8,0,9.5,26.9,9.4,40.4.3,3.4-2.2,6.4-5.6,6.7Z"/>
        <path class="cls-6" d="M51.15,141.51l-5.5,1-15-47.2c-1.1-3.6,1-7.3,4.5-8.1h0c3.3-.7,6.6,1.5,7.2,5l8.8,49.3Z"/>
      </g>
      <rect class="cls-8" x="26.95" y="37.01" width="9.4" height="19.3" transform="translate(63.29 93.32) rotate(180)"/>
      <g>
        <path class="cls-4" d="M6.25,89.41l3.8,15.6c0,.2.1.4.1.7h18.2c-.1-1.5,0-3.1.4-4.6l8.1-28.1-1.2-21.9h-1.1c-4.7.5-9,2.6-12.1,6.1l-4.8,5.4c-3,3.3-6.5,6.1-10.5,8.1-4.3,2.1-8.9,7.2-.9,18.8h0v-.1Z"/>
        <path class="cls-6" d="M9.15,133.01c.3,2.6,2.2,4.9,4.9,6l22.7,8.8,4.4,1.7c1,.4,2.1-.3,2.2-1.4.5-5.5.7-21-9.5-36.4-3.8-5.6-4.8-12.3-2.8-18.5l7.7-23.6-2.9-19.5h-.8s-1.7-.3-4.6.6c-.9.2-1.8.6-2.8,1.1-6.3,2.9-10.5,8.3-11.7,14.5-.4,2.1-6.6,1.5-7.2,4.4-.8,4.2-.9,50.8.4,62.4h0v-.1h0Z"/>
      </g>
      <g>
        <path class="cls-1" d="M10.65,28.01c-.1-2.8.1-6.4.8-9.2.3-1.2.7-2.5,1.1-3.7,1.5-4,3.4-7.9,7-10.4.9-.6,1.8-1,2.7-1.4,1.3-.5,2.6-.7,4-.7,7.8.2,14,9.9,14.7,20.9,0,0,.2,3.3,0,5.3v.2c-.1.7-.3,1.3-.5,2-.3,1-.6,2.3-1,3.5-.3,1.2-.7,2.2-.9,2.8-.1.3-.3.7-.4,1.1-1.6,5.1-6.4,8.6-11.8,8.4h-.5c-1.2,0-2.4-.2-3.6-.6-4.5-1.4-8.1-5-9.5-9.7-.1-.3-.2-.7-.3-1-.1-.3-.2-.6-.3-.9-.2-.5-.4-1.1-.5-1.6-.2-.8.2.5,0,0-.5.3-4.1.4-3.7-.9.3-.9,1.6-2.1,2.3-3.3l.4-.9h0s0,.03,0,.1h0Z"/>
        <g>
          <path class="cls-3" d="M19.25,36.11c-.2.2-1.1,3.3-4.6,3.6"/>
          <path class="cls-9" d="M18.55,23.01c-.2,0-.3,0-.5-.2-1.8-2.5-4.1-1.1-4.2-1-.3,0-.5,0-.7-.2,0-.3,0-.5.2-.7,1.1-.7,3.7-1.3,5.5,1.3v.7h-.3v.1Z"/>
          <path class="cls-9" d="M15.85,25.31c.1.9-.4,1.9-1.1,1.9s-1.5-.7-1.6-1.6.4-1.9,1.1-1.9,1.5.7,1.6,1.6Z"/>
          <path class="cls-7" d="M21.65,27.21c-2,.2-3.4,1.9-3.1,3.6s2.2,2.6,4.2,2.3,3.4-1.9,3.1-3.6-2.2-2.6-4.2-2.3Z"/>
        </g>
        <path class="cls-10" d="M7.05,15.41h0c-.1,2.9,3,4.5,5.3,3.4.6-.3,1.2-.7,1.6-1.4.7-1.2,1.5-2.7,2.1-4.2,3.5,4.8,4.3,6.4,8,8.5.5,2.8,3.6,12,1.9,17.1,2.5-2.1,1.8-9.1,1.6-11.9,0-1.4,1.2-2,2.6-1.8h0c2.4,1.2,2.7,2.1,2.7,5.3s-.1.8-.3,1.6c-.3,1-.9,2.5-3.2,1.6,3.9,12.7,7.3,10.2,8.1,9.8,6.1-2,4.5-.5,11.6-11,.3-.6,10-15.5-4.4-29.5C40.75-.89,28.55.01,23.05.31c-2.6.1-5.2.9-7.4,2.2-4.5,2.7-7.7,7.5-8.4,12.4v.7l-.2-.2h0Z"/>
      </g>
    </g>
  </g>
</svg>