<?xml version="1.0" encoding="UTF-8"?>
<svg id="Ebene_2" data-name="Ebene 2" xmlns="http://www.w3.org/2000/svg" viewBox="0 0 154.5 243.74">
  <defs>
    <style>
      .cls-1 {
        fill: #93a59e;
      }

      .cls-2 {
        fill: #738a83;
      }

      .cls-3 {
        fill: #738a84;
      }

      .cls-4 {
        fill: #6c837f;
      }

      .cls-5 {
        fill: #778e87;
      }

      .cls-6 {
        fill: #e29725;
      }

      .cls-7 {
        fill: #809690;
      }

      .cls-8 {
        fill: #7e9791;
      }

      .cls-9 {
        fill: #6a827d;
      }

      .cls-10 {
        fill: #f5ad3e;
      }

      .cls-11 {
        fill: #f9b03b;
      }

      .cls-12 {
        fill: #f7f7ec;
      }

      .cls-13 {
        fill: #f4ab39;
      }

      .cls-14 {
        fill: #f6f5e9;
      }

      .cls-15 {
        fill: #f8ba58;
      }

      .cls-16 {
        fill: #fefded;
      }

      .cls-17 {
        fill: #738b85;
      }

      .cls-18 {
        fill: #8c9e98;
      }

      .cls-19 {
        fill: #708681;
      }

      .cls-20 {
        fill: #6c857f;
      }

      .cls-21 {
        fill: #879c95;
      }

      .cls-22 {
        fill: #e39623;
      }

      .cls-23 {
        fill: #f5f5ec;
      }

      .cls-24 {
        fill: #d9b6b6;
      }

      .cls-25 {
        fill: #9aaba3;
      }

      .cls-26 {
        fill: #9baca4;
      }

      .cls-27 {
        fill: #fdfbf4;
      }

      .cls-28 {
        fill: #8c9f95;
      }

      .cls-29 {
        fill: #adbab0;
      }

      .cls-30 {
        fill: #6e857f;
      }

      .cls-31 {
        fill: #aebbb1;
      }

      .cls-32 {
        fill: #fdfdf7;
      }

      .cls-33 {
        fill: #7c928d;
      }

      .cls-34 {
        fill: #798e89;
      }

      .cls-35 {
        fill: none;
        stroke: #630;
        stroke-linecap: round;
        stroke-miterlimit: 10;
      }

      .cls-36 {
        fill: #9dada6;
      }

      .cls-37 {
        fill: #e19521;
      }

      .cls-38 {
        fill: #899d95;
      }

      .cls-39 {
        fill: #758b85;
      }

      .cls-40 {
        fill: #788e89;
      }

      .cls-41 {
        fill: #a9b7ae;
      }

      .cls-42 {
        fill: #7e938e;
      }

      .cls-43 {
        fill: #a8b7ad;
      }

      .cls-44 {
        fill: #f4aa37;
      }

      .cls-45 {
        fill: #f5a52c;
      }

      .cls-46 {
        fill: #798f89;
      }

      .cls-47 {
        fill: #9fafa6;
      }

      .cls-48 {
        fill: #d9a2a0;
      }

      .cls-49 {
        fill: #9cada4;
      }

      .cls-50 {
        fill: #829991;
      }

      .cls-51 {
        fill: #6d8580;
      }

      .cls-52 {
        fill: #eb9a1c;
      }

      .cls-53 {
        fill: #909d90;
      }

      .cls-54 {
        fill: #fcfbee;
      }

      .cls-55 {
        fill: #7f938d;
      }

      .cls-56 {
        fill: #f9f9f5;
      }

      .cls-57 {
        fill: #7f968e;
      }

      .cls-58 {
        fill: #849892;
      }

      .cls-59 {
        fill: #68807c;
      }

      .cls-60 {
        fill: #9caca4;
      }

      .cls-61 {
        fill: #839890;
      }

      .cls-62 {
        fill: #92a49d;
      }

      .cls-63 {
        fill: #788e88;
      }

      .cls-64 {
        fill: #79959c;
      }

      .cls-65 {
        fill: #f8bb58;
      }

      .cls-66 {
        fill: #8b9f97;
      }

      .cls-67 {
        fill: #e79d2d;
      }

      .cls-68 {
        fill: #738c86;
      }

      .cls-69 {
        fill: #7f948e;
      }

      .cls-70 {
        fill: #f3a730;
      }

      .cls-71 {
        fill: #8a9e96;
      }

      .cls-72 {
        fill: #a2bebf;
      }

      .cls-73 {
        fill: #6e8580;
      }

      .cls-74 {
        fill: #778d87;
      }

      .cls-75, .cls-76 {
        fill: #d9baba;
      }

      .cls-75, .cls-77 {
        isolation: isolate;
        opacity: .5;
      }

      .cls-78 {
        fill: #7c918b;
      }

      .cls-79 {
        fill: #778e88;
      }

      .cls-80 {
        fill: #819690;
      }

      .cls-81 {
        fill: #9aaea8;
      }

      .cls-82 {
        fill: #829790;
      }

      .cls-83 {
        fill: #f5b44f;
      }

      .cls-84 {
        fill: #6f8580;
      }

      .cls-85 {
        fill: #7e9694;
      }

      .cls-86 {
        fill: #80948e;
      }

      .cls-87 {
        fill: #9baba2;
      }

      .cls-88 {
        fill: #8aa6a9;
      }

      .cls-89 {
        fill: #7d928c;
      }

      .cls-90 {
        fill: #e69c2c;
      }

      .cls-91 {
        fill: #f5ae40;
      }

      .cls-92 {
        fill: #d4afaf;
      }

      .cls-93 {
        fill: #879b97;
      }

      .cls-94 {
        fill: #8ba098;
      }

      .cls-95 {
        fill: #9caca3;
      }

      .cls-96 {
        fill: #a2b1a8;
      }

      .cls-97 {
        fill: #fbfbf6;
      }

      .cls-98 {
        fill: #93a69e;
      }

      .cls-99, .cls-77 {
        fill: #603813;
      }

      .cls-100 {
        fill: #f7ba57;
      }

      .cls-101 {
        fill: #e49724;
      }

      .cls-102 {
        fill: #aebab0;
      }

      .cls-103 {
        fill: #7496a1;
      }

      .cls-104 {
        fill: #9eaea5;
      }

      .cls-105 {
        fill: #a6b5ab;
      }

      .cls-106 {
        fill: #839990;
      }

      .cls-107 {
        fill: #f1af44;
      }

      .cls-108 {
        fill: #8b2b0e;
      }

      .cls-109 {
        fill: #809790;
      }

      .cls-110 {
        fill: #eda026;
      }

      .cls-111 {
        fill: #273758;
      }

      .cls-112 {
        fill: #7d938b;
      }

      .cls-113 {
        fill: #f5b34c;
      }

      .cls-114 {
        fill: #869a94;
      }

      .cls-115 {
        fill: #889c95;
      }

      .cls-116 {
        fill: #6c837d;
      }

      .cls-117 {
        fill: #f2f2ec;
      }

      .cls-118 {
        fill: #90a198;
      }

      .cls-119 {
        fill: #a1b1a8;
      }

      .cls-120 {
        fill: #f5f5f0;
      }

      .cls-121 {
        fill: #809390;
      }

      .cls-122 {
        fill: #7a8f8a;
      }

      .cls-123 {
        fill: #778d88;
      }

      .cls-124 {
        fill: #afbbb1;
      }

      .cls-125 {
        fill: #819790;
      }

      .cls-126 {
        fill: #eba02f;
      }

      .cls-127 {
        fill: #98a9a1;
      }

      .cls-128 {
        fill: #d4abab;
      }

      .cls-129 {
        fill: #8ba097;
      }

      .cls-130 {
        fill: #f5b44e;
      }

      .cls-131 {
        fill: #94a69e;
      }

      .cls-132 {
        fill: #809590;
      }

      .cls-133 {
        fill: #92a59d;
      }

      .cls-134 {
        fill: #879d95;
      }

      .cls-135 {
        fill: #eaede6;
      }

      .cls-136 {
        fill: #f4ae42;
      }

      .cls-137 {
        fill: #9baba3;
      }

      .cls-138 {
        fill: #88a6ab;
      }

      .cls-139 {
        fill: #859a92;
      }

      .cls-140 {
        fill: #7a938d;
      }

      .cls-141 {
        fill: #899f96;
      }

      .cls-142 {
        fill: #768c87;
      }

      .cls-143 {
        fill: #f4af43;
      }

      .cls-144 {
        fill: #f3ab39;
      }

      .cls-145 {
        fill: #829fa6;
      }

      .cls-146 {
        fill: #90a39c;
      }

      .cls-147 {
        fill: #ed9922;
      }

      .cls-148 {
        fill: #9cada5;
      }

      .cls-149 {
        fill: #f6f6f0;
      }

      .cls-150 {
        fill: #728883;
      }

      .cls-151 {
        fill: #e29829;
      }

      .cls-152 {
        fill: #e6e6e6;
      }

      .cls-153 {
        fill: #879b94;
      }

      .cls-154 {
        fill: #98a99e;
      }

      .cls-155 {
        fill: #3f6138;
      }
    </style>
  </defs>
  <g id="Layer_1" data-name="Layer 1">
    <g id="german-girl-springbike">
      <g id="german-girl-sitting1">
        <g>
          <path class="cls-108" d="M72.12,38.74c.2-4.7-1.9-8.4-3.6-12.2-.7-1.7-1.4-4.8-2.6-6.1-1.5-1.8-5.4-1.1-7.4-1.3-7.4-.6-14.8-.3-22.2.3-2.3.2-3.7-.7-4.7,2.5-.7,2.1-1.1,2.9-1.1,2.9-2.4,3.9-6.3,6.2-7.9,11.2-1.2,4.1-.9,9.2,1.4,12.2,0-1.6.3-3.7.7-5.1,1.6,1.3,2.6,3.7,4.1,5.1s3.3,2.7,5.1,3.5c.2-1.4-.2-3.3.2-4.5,1.2,3.2,4.3,4.8,6.7,6.2,0-1.9-.3-4.3,1.2-3.2.4.3.9,1.6,1.4,2.1s1.1.8,1.7,1.2c1.8,1.2,2.5,1.5,4.3.2,1.2-1.1,2.8-2.5,3.8-3.9.6,1.2.2,3.2.1,4.6,2,.2,4.5-2.2,5.8-4.1.3,1.1,0,2.3.2,3.4,2.6-.2,7.4-4.8,8.7-7.7,1.2,1.1,2.1,3.7,1.7,5.6,2.2-3.4,2.4-8.7,2.6-13h-.2v.1Z"/>
          <path class="cls-48" d="M49.82,59.24h0c-3.3,0-5.9-2.6-5.9-5.9v-10.9h9.1v13.6c0,1.8-1.4,3.2-3.2,3.2h0Z"/>
          <path class="cls-76" d="M67.22,32.44c-.4,1.8-.7,3.4-1.4,5-.2.6-.4,1.1-.7,1.7-3.2,7.3-8.9,12.1-15.4,12-3.1,0-6-1.3-8.5-3.4-.6-.4-1.1-.9-1.6-1.5-4.2-4.6-6.9-11.7-6.6-19.8.4-13.4,8.3-24,17.9-23.8,1.4,0,2.8.3,4.1.8,7.5,2.8,13.1,12.4,12.8,23.8"/>
          <g>
            <path class="cls-99" d="M44.72,26.94c.2,0,.4,0,.5-.3,1.7-3.2,4.6-1.9,4.7-1.8.3,0,.6,0,.8-.3,0-.3,0-.6-.3-.8-1.4-.6-4.5-1-6.2,2.3,0,.3,0,.6.2.8h.3v.1Z"/>
            <path class="cls-99" d="M62.22,24.24s.3.2.5,0c2.8-1.1,4,1.3,4,1.4,0,.2.4.3.6.2.2,0,.3-.4.2-.6-.5-1.2-2.3-3.1-5.2-1.9-.2,0-.4.4-.3.6v.2h.2v.1Z"/>
            <path class="cls-99" d="M48.22,29.24c0,1.1.7,2.1,1.5,2.1s1.6-1,1.6-2.1-.7-2.1-1.5-2.1-1.6,1-1.6,2.1Z"/>
            <path class="cls-99" d="M62.22,29.24c0,1.1.7,2.1,1.5,2.1s1.6-1,1.6-2.1-.7-2.1-1.5-2.1-1.6,1-1.6,2.1Z"/>
            <path class="cls-35" d="M50.22,41.44c0,.2.8,3.2,3.8,3.7,2.9.4,4.5-1,4.7-1.3"/>
            <path class="cls-77" d="M59.02,34.74c1,1,1,2.5,0,3.5s-2.5,1-3.5,0,1.8.2,2.8-.7c1-1-.2-3.7.8-2.8h-.1,0Z"/>
            <path class="cls-48" d="M67.12,32.44c-.4,1.8-.7,3.4-1.4,5-.2.6-.4,1.1-.7,1.7-1-.7-1.5-2-1.4-3.2,0-1.8,1.6-3.2,3.4-3.4h.1v-.1Z"/>
            <path class="cls-48" d="M45.42,32.24c2,0,3.6,1.5,3.5,3.2s-1.9,2.9-3.9,2.8-3.6-1.5-3.5-3.2,1.9-2.9,3.9-2.8Z"/>
          </g>
          <path class="cls-75" d="M41.42,47.54h-.2c-.6-.4-1.1-.9-1.6-1.5-4.2-4.6-6.9-11.7-6.6-19.7.4-13.4,8.3-24,17.9-23.8,1.4,0,2.8.3,4.1.8-7.6,5.6-21.1,20.7-13.6,44.3h0v-.1Z"/>
          <g>
            <path class="cls-76" d="M37.22,26.44c1,3,.3,5.9-1.6,6.5s-4.2-1.3-5.2-4.4-.3-5.9,1.6-6.5c1.8-.6,4.2,1.3,5.2,4.4Z"/>
            <path class="cls-75" d="M37.22,26.44c1,3,.3,5.9-1.6,6.5s-4.2-1.3-5.2-4.4-.3-5.9,1.6-6.5c1.8-.6,4.2,1.3,5.2,4.4Z"/>
          </g>
          <path class="cls-108" d="M67.02,24.44c.8,4.4,2.3,3.7-.2,12.7s-1,4.9-1.6,7.2c-.5,2.1-2.3,4-2.1,6.2,1.4-.8,4.2-3,5.2-4.3,2-2.8,1.4-9.2,1.2-12.6h.1c-.2-3.3-.4-8.8-.6-11.3v-2.6c0-6.5-1.6-13.7-5.8-17.4-3-2.7-5.8-.8-9.1-1.5-10.1-2.1-18.6-.6-22.6,8.1-9.7,21.3,1.5,33,3.2,36,.9,1.4,9.5,7.4,10.9,8.3-7.1-8.2-6.2-21.9-4.9-30,.6-4,2.9-7.6,6.2-10h0s2.7,3,4.3,4.2c2,1.4,4.6,2.6,6.8,2.8-.3-.6-.9-1.2-1.2-1.8-.2-.3-.4-.8-.6-1.1,1.1,1.5,3,2.8,4.4,4,1.4,1.1,2.9,1.7,4.5,2.4.1-.6-1.2-3.3-1.6-4.2.5.8,1.8,1.3,2.2,2.2"/>
        </g>
        <g>
          <path class="cls-128" d="M120.87,160.82c4.57,16,8.22,32.98,7.65,33.19l-5.59,1.61-13.71-31.4-10.32-23.59-.41-1.13c-.14-.38-.24-.66-.16-1.01-.27-2.78,1.8-5.56,4.97-6.5,3.17-.94,6.53.38,7.71,3.04.27.75.7,1.34,1.07,2.06,2.83,4.82,6,14.1,8.68,23.76l.09-.03h0Z"/>
          <path class="cls-111" d="M124.04,201.41c.53.86,1.46,1.41,2.49,1.46.71.1,21.39-7.9,21.8-8.43,3.59-4.07-20.2-1.34-20.2-1.34l-5.49,2.66s.79,4.62,1.45,5.52l-.09.04h0l.04.09Z"/>
          <path class="cls-128" d="M111.42,140.04h0c0-3.8-3.1-7-6.9-7.2l-35.3-2.6c-5.1.2-9,4.5-8.8,9.6h0c.3,5.1,4.6,9.1,9.7,8.9l34.2-2c4,0,7.2-2.7,7.1-6.6h0v-.1h0Z"/>
        </g>
        <g>
          <path class="cls-126" d="M110.34,91.66c.48.27.86.58,1.22,1v.38c.17,0,.33.02.5.02,2.01.11,3.98.37,5.97.67.17.03.33.05.5.08q21.46,3.27,25.54,8.47c.78,1.13,1.01,2.04.88,3.43-.2.88-.47,1.72-.74,2.58-.04.12-.08.24-.12.37-3.22,10.13-8.14,20.19-15.4,28.06-.35.39-.69.78-1.03,1.17-.86.99-1.78,1.91-2.71,2.84-.17.17-.34.34-.51.52-3.16,3.17-7.2,6.34-11.45,7.9-.7.34-1.06.7-1.58,1.26-2.12,2.08-4.72,3.65-7.28,5.13-.11.07-.23.13-.35.2q-.81.46-1.24.46,1.53,2.85,3.24,5.59.22.36.22.75h.38c.05-.17.1-.34.16-.51,1.78-5.02,6.53-8.98,11.17-11.26,5.56-2.61,11.94-2.8,17.73-.81,7.05,2.56,12.81,7.95,16.05,14.69.85,1.86,1.56,3.76,2.09,5.73.04.14.07.27.11.41,1.76,7.03.63,14.54-3.03,20.77-3.31,5.32-8.56,9.18-14.66,10.64-3.52.8-7.3.69-10.81-.13-.13-.03-.27-.06-.4-.09-7.17-1.73-13.13-6.72-16.99-12.89-3.37-5.54-4.79-12.11-3.99-18.55q.21-1.57-.25-3.07c-.32-.41-.65-.79-1-1.18-.74-.82-1.29-1.75-1.87-2.69-.11-.17-.21-.35-.32-.52q-2.44-4.02-2.44-4.57c-.11.04-.21.08-.32.12-2.05.78-4.11,1.51-6.23,2.08q-.27.07-.54.15c-.75.2-1.34.33-2.12.33q.16.19.32.38c3.78,4.58,6.69,9.42,8.32,15.17.04.15.09.3.13.46,1.06,3.87,1.15,8.25-.09,12.08-.35,1.07-.43,1.98-.38,3.11,0,1.04-.07,1.62-.8,2.4-1.01.89-1.6,1.02-2.93,1-.99-.08-1.58-.46-2.22-1.19-.72-.98-.71-1.89-.61-3.07.32-.92.75-1.35,1.54-1.92.87-.74,1.02-1.78,1.15-2.88.55-7.43-2.25-14.28-6.97-19.92-.29-.34-.59-.68-.9-1q-.14.11-.29.22-2.21,1.69-2.97,1.69v.38q.23.06.47.12c1.74.67,2.97,1.77,3.92,3.36.44,1.19.42,2.57.05,3.77-.55,1.2-1.37,2.04-2.33,2.92-.19.19-.39.38-.58.58.14.05.28.09.43.14,1.24.57,2.22,1.93,2.71,3.19.43,1.82.28,3.68-.65,5.31-.67,1.08-1.49,1.9-2.5,2.69.13.09.25.18.38.28,1.51,1.29,2.75,2.63,2.95,4.67.12,2.61-.64,4.25-2.38,6.19-.25.26-.51.51-.77.77.11.08.22.17.34.25,1.46,1.18,2.45,2.65,2.73,4.54.08,1.1-.03,2.03-.38,3.07.76.21,1.52.38,2.29.52.14.02.27.05.41.07.27.05.55.09.82.14.76.13,1.31.24,1.85.81.07.49.09.91.07,1.4,0,.14,0,.27,0,.41,0,.43-.01.86-.02,1.3,0,.29,0,.59-.01.88,0,.72-.02,1.44-.04,2.16q.21.03.43.06c2.27.31,4.52.72,6.78,1.13.21.04.42.08.63.11,1.48.27,2.96.54,4.44.81.19.03.38.07.57.1,1.02.19,2.05.37,3.07.57.3.06.61.11.91.17.42.08.84.16,1.25.23.23.04.46.09.7.13.51.12.91.24,1.35.52.46.93.35,2.08.19,3.07-.43.7-1.05,1.08-1.73,1.54-.25.18-.5.36-.74.54-.58.42-1.16.84-1.75,1.26-1,.72-1.99,1.47-2.97,2.22-2.02,1.55-4.07,3.06-6.12,4.56-1.75,1.28-3.49,2.58-5.21,3.89-1.33,1.01-2.66,2.02-3.99,3.02-.15.11-.29.22-.44.33-1.75,1.3-3.24,2-5.45,1.83-1.1-.19-2.19-.43-3.29-.68-.28-.06-.56-.13-.84-.19-.62-.14-1.24-.28-1.86-.42-4.94-1.11-9.89-2.16-14.84-3.22-1.29-.28-2.59-.56-3.88-.83-.16-.03-.31-.07-.48-.1-2.31-.5-4.61-1-6.91-1.5-1.96-.43-3.91-.85-5.87-1.27-2.93-.62-5.85-1.26-8.78-1.9-.38-.08-.75-.17-1.13-.25-.53-.12-1.05-.23-1.58-.35-.15-.03-.31-.07-.46-.1-.44-.1-.89-.2-1.33-.31-.17-.04-.34-.08-.52-.13-.17-.05-.34-.09-.52-.14-.16-.04-.31-.08-.47-.12-.51-.23-.7-.48-.99-.95q-.11-.54-.13-1.13c-.01-.19-.03-.39-.04-.59.48-1.66,3.12-2.61,4.55-3.44.27-.16.55-.32.82-.49.56-.33,1.12-.66,1.67-.99.73-.43,1.46-.86,2.18-1.29,1.9-1.13,3.79-2.25,5.7-3.35.41-.24.83-.48,1.24-.72,1.05-.61,2.1-1.19,3.17-1.75.21-.11.43-.23.65-.35.41-.22.81-.42,1.23-.62.56-.3.98-.55,1.4-1.03.15-.66.18-1.23.15-1.9.06-.76.28-1.02.81-1.55q.44-.33.92-.63c.18-.11.35-.22.53-.34.19-.11.37-.23.56-.35.19-.12.38-.24.58-.36.38-.23.75-.47,1.13-.7.41-.25.81-.51,1.21-.76,1.26-.79,2.44-1.2,3.9-1.47.18-.04.37-.08.55-.12,3.71-.68,7.59-.41,11.26.36.8.17,1.61.32,2.42.48,1.2.24,2.41.47,3.61.71.13.03.26.05.4.08q.91.18,1.34.4.24-1.39-.08-2.74-1.26-1.44-2.99-2.06-.49.12-1.02.32c-5.9,1.9-13.32,2.04-19.05-.59-1.02-.55-1.58-1.15-2.06-2.22-.21-.95-.28-1.63.16-2.52,1.84-2.16,4.48-2.62,7.2-2.87,1.18-.07,2.36-.07,3.54-.07.16,0,.32,0,.48,0,4.09.01,8.1.59,11.91,2.18.28-.24.56-.48.84-.72.16-.13.31-.27.47-.4.56-.56.77-.95.87-1.73-.11-.92-.51-1.47-1.21-2.07q-1-.86-2.16-1.18c-.82.23-1.63.48-2.44.74-2.39.74-4.88.82-7.36.81-.14,0-.28,0-.42,0-3.47-.01-8.3-.11-10.98-2.66-.86-.99-.93-1.88-.92-3.16.1-.75.31-1.12.85-1.64,2.8-2.09,6.34-2.05,9.67-2.04.15,0,.31,0,.47,0,3.85,0,8.01.13,11.55,1.83.47.16.68.12,1.14-.07q.41-.3.8-.66c.13-.12.27-.24.4-.36.45-.45.51-.67.62-1.31-.16-1.23-.91-1.84-1.84-2.61-.61-.41-1.06-.66-1.81-.58-.35.1-.7.21-1.04.33-.65.22-1.29.37-1.96.51-.21.05-.43.09-.64.14-4.94.93-12.05.92-16.44-1.79-.99-.71-1.61-1.5-1.88-2.69-.09-.81-.06-1.23.32-1.96,1.49-1.81,3.57-2.23,5.82-2.46,1.31-.07,2.62-.07,3.93-.06.18,0,.36,0,.54,0,3.58.01,6.83.31,10.26,1.39q1.73.6,3.48.44.39-.25.78-.81c.04-.82-.08-1.2-.59-1.85-1.71-1.38-3.69-2.53-5.94-2.38-.48.06-.97.12-1.45.19-3.09.4-6.23.33-9.3-.19q-.37-.06-.74-.12c-2.1-.38-4.69-.89-6.17-2.57-.54-.94-.97-1.98-.77-3.07.44-.82.94-1.41,1.73-1.92h.77v-.38c-.21-.02-.41-.04-.62-.05-1.12-.14-2.18-.48-3.25-.81-.22-.07-.44-.14-.66-.21-3.17-1.01-6.14-2.39-9.09-3.92.04.15.08.29.12.44.05.2.1.4.16.6.05.19.1.39.16.59,1.33,6.2-.31,13.13-3.68,18.41-.63.91-1.33,1.73-2.09,2.54-.31.33-.6.67-.88,1.02-2.23,2.59-5.69,4.32-8.94,5.18-.22.06-.45.12-.68.19-3.41.78-7.26.73-10.64-.19-.19-.05-.38-.1-.57-.15-4.13-1.23-7.69-3.58-10.76-6.57-.12-.11-.25-.22-.37-.34C2.53,174.03.27,166.66.01,160.26c-.17-6.59,1.78-12.97,6.33-17.85,3.77-3.91,8.91-6.09,14.32-6.25,2.28-.03,4.42.33,6.64.83-.03-.1-.06-.2-.09-.3-.21-1-.17-2.04-.18-3.06,0-.28-.01-.56-.02-.84-.06-1.76,0-3.08,1.25-4.44.09-.1.18-.21.27-.31q.25-.27.69-.64h.38c-1.07-1.34-2.18-2.62-3.35-3.88-.51-.55-1.01-1.12-1.5-1.69-.54-.62-1.1-1.23-1.66-1.84q-.41-.46-.7-.85c-.69-.93-1.38-1.18-2.48-1.53-.89-.33-1.29-.9-1.8-1.67-.35-.96-.45-1.82-.05-2.78.61-1.05,1.35-1.68,2.51-2.07,1.22-.1,2.06.06,3.07.77.78.75,1.15,1.35,1.17,2.42.11,1.21.68,1.78,1.54,2.59.25.25.51.5.76.76q.19.19.38.38c.49.5.95,1.02,1.4,1.55.46.53.94,1.05,1.42,1.56.2.21.4.43.6.64.1.11.2.21.3.33.67.72,1.33,1.45,2,2.18.26.28.53.56.8.84.37-.04.74-.08,1.11-.13,3.05-.43,6.15.19,9.15.67.49.08.99.16,1.48.23,1.45.23,2.91.46,4.36.7.41.07.82.13,1.23.2,2.34.38,4.69.76,7.03,1.14,3.65.6,7.31,1.17,10.97,1.71,3.9.58,7.78,1.2,11.67,1.84,3.22.52,6.44,1.04,9.66,1.52,1.53.23,3.06.48,4.59.74,2.43.41,4.85.79,7.28,1.16,2.26.35,4.51.7,6.76,1.06.65.1,1.29.2,1.94.3.84.13,1.68.26,2.52.4.29.05.58.09.86.14.39.06.77.12,1.16.19.21.03.42.07.63.1.54.15.74.28,1.08.72.24.48.21.83.2,1.37,0,.17,0,.35,0,.53q0,.2,0,.41c1.49-1.24,2.93-2.5,4.27-3.9.23-.24.47-.47.72-.7h.38c.05-.11.09-.22.14-.34.28-.5.6-.82,1.02-1.21,6.53-6.4,10.63-15.17,13.81-23.6-.15.06-.3.12-.45.18-1.86.66-3.74,1-5.68,1.3-.25.04-.5.08-.76.12-4.34.65-8.69.78-13.08.76-.26,0-.52,0-.78,0-3.85,0-7.67-.09-11.5-.43-.25-.02-.49-.04-.75-.06-5.52-.46-11.16-1.08-16.56-2.36-.52-.11-.81-.08-1.31.12-.4.28-.78.58-1.16.89-.98.69-2.3.56-3.45.46-1.41-.37-2.34-1.46-3.1-2.65-.41-1.07-.32-2.48-.03-3.58.54-1.2,1.49-1.92,2.61-2.57,1.76-.53,3.01-.24,4.63.59q.5.35.82.82c.64.67,1.21.71,2.11.84q.25.04.5.08c.54.09,1.08.16,1.62.24.38.06.75.12,1.13.17,1.12.17,2.24.33,3.36.49.15.02.31.04.47.07,1.88.26,3.77.47,5.65.66.4.04.8.08,1.2.13,4.59.5,9.18.54,13.79.55.48,0,.95,0,1.43,0,6.56.01,12.9-.25,19.11-2.56v-.38c-6.66-3.06-14.51-4.11-21.66-5.45-.33-.06-.65-.12-.98-.18-.46-.09-.92-.17-1.37-.25-.14-.03-.27-.05-.41-.08-.76-.14-1.48-.23-2.25-.18q-.51.35-.96.77c-.99.62-2.14.51-3.26.38-1.09-.4-1.85-1.17-2.5-2.11-.46-1.09-.49-2.13-.19-3.26,1.17-2.32,3.66-3.29,6.07-2.15Z"/>
          <path class="cls-62" d="M88.92,161.56c4.23,3.61,6.97,9.97,8.45,15.16.04.15.09.3.13.46,1.06,3.87,1.15,8.25-.09,12.08-.35,1.07-.43,1.98-.38,3.11,0,1.04-.07,1.62-.8,2.4-1.01.89-1.6,1.02-2.93,1-.99-.08-1.58-.46-2.22-1.19-.72-.98-.71-1.89-.61-3.07.32-.92.75-1.35,1.54-1.92.87-.74,1.02-1.78,1.15-2.88.55-7.43-2.25-14.28-6.97-19.92-.29-.34-.59-.68-.9-1q-.14.11-.29.22-2.21,1.69-2.97,1.69v.38c.15.04.31.08.47.12,1.74.67,2.97,1.77,3.92,3.36.44,1.19.42,2.57.05,3.77-.55,1.2-1.37,2.04-2.33,2.92-.19.19-.39.38-.58.58.14.05.28.09.43.14,1.24.57,2.22,1.93,2.71,3.19.43,1.82.28,3.68-.65,5.31-.67,1.08-1.49,1.9-2.5,2.69.13.09.25.18.38.28,1.51,1.29,2.75,2.63,2.95,4.67.12,2.61-.64,4.25-2.38,6.19-.25.26-.51.51-.77.77.11.08.22.17.34.25,1.46,1.18,2.45,2.65,2.73,4.54.08,1.1-.03,2.03-.38,3.07.76.21,1.52.38,2.29.52.14.02.27.05.41.07.27.05.55.09.82.14.76.13,1.31.24,1.85.81.07.49.09.91.07,1.4,0,.14,0,.27,0,.41,0,.43-.01.86-.02,1.3,0,.29,0,.59-.01.88,0,.72-.02,1.44-.04,2.16.14.02.28.04.43.06,2.27.31,4.52.72,6.78,1.13.21.04.42.08.63.11,1.48.27,2.96.54,4.44.81.19.03.38.07.57.1,1.02.19,2.05.37,3.07.57.3.06.61.11.91.17.42.08.84.16,1.25.23.23.04.46.09.7.13.51.12.91.24,1.35.52.46.93.35,2.08.19,3.07-.43.7-1.05,1.08-1.73,1.54-.25.18-.5.36-.74.54-.58.42-1.16.84-1.75,1.26-1,.72-1.99,1.47-2.97,2.22-2.02,1.55-4.07,3.06-6.12,4.56-1.75,1.28-3.49,2.58-5.21,3.89-1.33,1.01-2.66,2.02-3.99,3.02-.15.11-.29.22-.44.33-1.75,1.3-3.24,2-5.45,1.83-1.1-.19-2.19-.43-3.29-.68-.28-.06-.56-.13-.84-.19-.62-.14-1.24-.28-1.86-.42-4.94-1.11-9.89-2.16-14.84-3.22-1.29-.28-2.59-.56-3.88-.83q-.24-.05-.48-.1c-2.31-.5-4.61-1-6.91-1.5-1.96-.43-3.91-.85-5.87-1.27-2.93-.62-5.85-1.26-8.78-1.9-.38-.08-.75-.17-1.13-.25-.53-.12-1.05-.23-1.58-.35-.15-.03-.31-.07-.46-.1-.44-.1-.89-.2-1.33-.31-.17-.04-.34-.08-.52-.13-.17-.05-.34-.09-.52-.14q-.23-.06-.47-.12c-.51-.23-.7-.48-.99-.95q-.11-.54-.13-1.13c-.01-.19-.03-.39-.04-.59.48-1.66,3.12-2.61,4.55-3.44.27-.16.55-.32.82-.49.56-.33,1.12-.66,1.67-.99.73-.43,1.46-.86,2.18-1.29,1.9-1.13,3.79-2.25,5.7-3.35.41-.24.83-.48,1.24-.72,1.05-.61,2.1-1.19,3.17-1.75.21-.11.43-.23.65-.35.41-.22.81-.42,1.23-.62.56-.3.98-.55,1.4-1.03.15-.66.18-1.23.15-1.9.06-.76.28-1.02.81-1.55q.44-.33.92-.63c.18-.11.35-.22.53-.34.19-.11.37-.23.56-.35.19-.12.38-.24.58-.36.38-.23.75-.47,1.13-.7.41-.25.81-.51,1.21-.76,1.26-.79,2.44-1.2,3.9-1.47q.27-.06.55-.12c3.71-.68,7.59-.41,11.26.36.8.17,1.61.32,2.42.48,1.2.24,2.41.47,3.61.71.13.03.26.05.4.08q.91.18,1.34.4.24-1.39-.08-2.74-1.26-1.44-2.99-2.06-.49.12-1.02.32c-5.9,1.9-13.32,2.04-19.05-.59-1.02-.55-1.58-1.15-2.06-2.22-.21-.95-.28-1.63.16-2.52,1.84-2.16,4.48-2.62,7.2-2.87,1.18-.07,2.36-.07,3.54-.07.16,0,.32,0,.48,0,4.09.01,8.1.59,11.91,2.18.28-.24.56-.48.84-.72.16-.13.31-.27.47-.4.56-.56.77-.95.87-1.73-.11-.92-.51-1.47-1.21-2.07q-1-.86-2.16-1.18c-.82.23-1.63.48-2.44.74-2.39.74-4.88.82-7.36.81-.14,0-.28,0-.42,0-3.47-.01-8.3-.11-10.98-2.66-.86-.99-.93-1.88-.92-3.16.1-.75.31-1.12.85-1.64,2.8-2.09,6.34-2.05,9.67-2.04.15,0,.31,0,.47,0,3.85,0,8.01.13,11.55,1.83.47.16.68.12,1.14-.07q.41-.3.8-.66c.13-.12.27-.24.4-.36.45-.45.51-.67.62-1.31-.16-1.23-.91-1.84-1.84-2.61-.61-.41-1.06-.66-1.81-.58-.35.1-.7.21-1.04.33-.65.22-1.29.37-1.96.51-.21.05-.43.09-.64.14-4.94.93-12.05.92-16.44-1.79-.99-.71-1.61-1.5-1.88-2.69-.09-.81-.06-1.23.32-1.96,1.49-1.81,3.57-2.23,5.82-2.46,1.31-.07,2.62-.07,3.93-.06.18,0,.36,0,.54,0,3.58.01,6.83.31,10.26,1.39q1.73.6,3.48.44.39-.25.78-.81c.04-.82-.08-1.2-.59-1.85-1.71-1.38-3.69-2.53-5.94-2.38-.48.06-.97.12-1.45.19-3.09.4-6.23.33-9.3-.19-.24-.04-.49-.08-.74-.12-2.1-.38-4.69-.89-6.17-2.57-.54-.94-.97-1.98-.77-3.07.45-.82.94-1.41,1.73-1.92.92-.23,1.64-.15,2.57.04.13.03.26.05.4.08.41.08.83.17,1.24.25.28.06.56.11.84.17.69.14,1.37.28,2.06.42-.44.44-.78.56-1.36.78q-.62.2-1.14.56c.39.09.78.18,1.16.28.22.05.43.1.65.16,1.57.34,3.1.37,4.69.37.42,0,.84,0,1.26,0,2.34,0,4.54-.28,6.8-.89q.23-.06.46-.12c.92-.25,1.78-.53,2.64-.95.06-.13.13-.25.19-.38l-.38-.19c.33-.33.81-.3,1.27-.37.22-.03.45-.06.68-.1.24-.03.47-.07.72-.1.46-.07.92-.13,1.38-.2.22-.03.45-.06.68-.1.77-.12,1.54-.27,2.3-.43.52-.06.91,0,1.42.14Z"/>
          <path class="cls-16" d="M139.61,158.99c4.96,4.05,8.18,9.69,8.95,16.09.43,5.42-.85,10.98-4.27,15.29-3.05,3.55-7.02,6.16-11.8,6.55-2.82.15-5.4-.05-8.06-1.01q-.19-.07-.38-.14c-2.39-.89-4.4-2.25-6.34-3.89-.16-.13-.32-.27-.49-.41-4.08-3.54-7.04-8.96-7.58-14.37-.03-.83-.02-1.66,0-2.5.76.5,1.48,1.01,2.2,1.57,4.19,3.15,8.61,4.9,13.93,4.38,1.01-.2,1.94-.55,2.88-.96.55-.18.84-.2,1.4-.17.83,0,1.35-.12,2.05-.6.84-.83,1.18-1.55,1.22-2.72-.01-1.11-.29-1.83-1.03-2.65-.96-.73-1.88-.89-3.07-.77-.86.39-1.64.89-2.11,1.73-.05.17-.1.33-.14.5q-.24.46-.84.67c-3.74.83-7.16-.51-10.28-2.48-1.86-1.31-3.97-2.93-5.24-4.83.06-1.05.38-1.9.8-2.84.06-.13.12-.27.18-.41,1.99-4.34,5.33-7.69,9.82-9.43,6.24-2.27,13.07-.61,18.2,3.39Z"/>
          <path class="cls-16" d="M30.68,144.28c.87.72,1.51,1.61,2.2,2.5.77.92,1.57,1.79,2.46,2.59,2.65,2.45,4.07,5.2,4.84,8.73.03.15.07.3.1.46.29,1.4.35,2.76.34,4.18,0,.23,0,.46,0,.69-.06,4.43-1.42,8.52-4.28,11.94-.1.13-.2.26-.3.39-2.31,2.85-5.89,4.53-9.49,4.99-5.1.45-9.34-1.13-13.35-4.27-4.33-3.64-7.04-8.9-7.57-14.54-.32-5.46.57-10.8,4.21-15.1,5.29-5.93,14.19-7.09,20.85-2.57Z"/>
          <path class="cls-105" d="M52.64,215.49c.06,3.23.13,6.46.19,9.79q2.88.59,5.76,1.07c1,.15,2,.32,2.99.49q.34.06.68.11c.73.12,1.46.25,2.18.37.25.04.5.08.75.13,2.61.44,5.22.89,7.82,1.37.19.04.39.07.59.11.9.17,1.79.34,2.69.51q3.01.68,5.89-.03c.32-.22.64-.44.96-.67.36-.24.73-.48,1.09-.72.4-.27.81-.54,1.21-.82.35-.23.69-.46,1.04-.69.24-.16.48-.32.72-.48.64-.43,1.28-.85,1.92-1.26q.2-.13.4-.26c.25-.16.51-.33.76-.49.64-.42,1.03-.71,1.29-1.42q.07-.56.08-1.17c0-.22.01-.45.02-.67,0-.23.01-.46.02-.7,0-.23.01-.47.02-.71.02-.58.03-1.16.05-1.74,2.42.31,4.81.75,7.21,1.19.21.04.42.08.63.11,1.48.27,2.96.54,4.44.81.19.03.38.07.57.1,1.02.19,2.05.37,3.07.57.3.06.61.11.91.17.42.08.84.16,1.25.23.23.04.46.09.7.13.51.12.91.24,1.35.52.46.93.35,2.08.19,3.07-.43.7-1.05,1.08-1.73,1.54-.25.18-.5.36-.74.54-.58.42-1.16.84-1.75,1.26-1,.72-1.99,1.47-2.97,2.22-2.02,1.55-4.07,3.06-6.12,4.56-1.75,1.28-3.49,2.58-5.21,3.89-1.33,1.01-2.66,2.02-3.99,3.02-.15.11-.29.22-.44.33-1.75,1.3-3.24,2-5.45,1.83-1.1-.19-2.19-.43-3.29-.68-.28-.06-.56-.13-.84-.19-.62-.14-1.24-.28-1.86-.42-4.94-1.11-9.89-2.16-14.84-3.22-1.29-.28-2.59-.56-3.88-.83q-.24-.05-.48-.1c-2.31-.5-4.61-1-6.91-1.5-1.96-.43-3.91-.85-5.87-1.27-2.93-.62-5.85-1.26-8.78-1.9-.38-.08-.75-.17-1.13-.25-.53-.12-1.05-.23-1.58-.35q-.23-.05-.46-.1c-.44-.1-.89-.2-1.33-.31-.17-.04-.34-.08-.52-.13-.17-.05-.34-.09-.52-.14q-.23-.06-.47-.12c-.51-.23-.7-.48-.99-.95q-.11-.54-.13-1.13c-.01-.19-.03-.39-.04-.59.48-1.66,3.12-2.61,4.55-3.44.27-.16.55-.32.82-.49.56-.33,1.12-.66,1.67-.99.73-.43,1.46-.86,2.18-1.29,2.31-1.37,4.62-2.73,6.95-4.07,1.06-.61,2.12-1.22,3.17-1.84.21-.13.43-.25.65-.38.41-.24.82-.48,1.23-.72q.27-.16.55-.32t.49-.29q.37-.2.56-.2Z"/>
          <path class="cls-98" d="M143.52,154.49c4.95,4.21,8.37,9.59,10.05,15.87.04.14.07.27.11.41,1.76,7.03.63,14.54-3.03,20.77-3.31,5.32-8.56,9.18-14.66,10.64-3.52.8-7.3.69-10.81-.13-.13-.03-.27-.06-.4-.09-7.17-1.73-13.13-6.72-16.99-12.89-3.37-5.54-4.79-12.11-3.99-18.55q.21-1.57-.25-3.07c-.32-.41-.65-.79-1-1.18-.74-.82-1.29-1.75-1.87-2.69-.11-.17-.21-.35-.32-.52-.3-.5-.6-1-.9-1.5-.09-.14-.17-.29-.26-.43q-1.28-2.14-1.28-2.83c.55-.25,1.1-.5,1.66-.74.16-.07.31-.14.47-.21.82-.37,1.62-.7,2.48-.96.07.12.14.23.21.35.52.86,1.04,1.72,1.56,2.58.2.33.4.67.61,1,.1.17.21.34.32.52.1.16.2.33.3.49.09.15.18.29.27.44q.19.37.19.75h.38c.05-.17.1-.34.16-.51,1.78-5.02,6.53-8.98,11.17-11.26,8.66-4.07,18.48-2.04,25.81,3.74ZM114.64,160.22c-1.7,1.96-3.49,4.7-4.03,7.29.17,1.92,2.46,3.42,3.84,4.61,2.64,2.15,5.96,3.68,9.39,3.68.13,0,.26,0,.39,0,.89,0,1.66-.1,2.5-.43q.28-.33.41-.74c.31-.74.63-1.11,1.32-1.56.12-.08.24-.16.36-.24,1.02-.36,1.98-.15,2.94.24.76.42,1.17,1.14,1.5,1.92.18,1.36.06,2.36-.77,3.45-.52.48-.86.74-1.54.96-.28-.01-.56-.03-.84-.05-1.12-.02-2,.35-3.02.78-2.76,1.14-6.68.61-9.38-.5-2.7-1.19-5.27-2.79-7.5-4.72q-.32-.33-.56-.31c-.33,5.18,1.92,10.46,5.18,14.4.08.1.17.2.25.3,2.83,3.37,6.48,5.74,10.69,6.99q.26.08.53.16c1.42.39,2.74.52,4.21.5.22,0,.44,0,.66,0,4.8-.1,8.82-2.08,12.19-5.48,3.75-3.96,5.37-9.45,5.29-14.82-.21-6.14-3.07-12.09-7.45-16.35-4.12-3.83-9.3-5.82-14.91-5.7-4.55.19-8.55,2.37-11.65,5.61Z"/>
          <path class="cls-1" d="M110.34,91.66c.48.27.86.58,1.22,1v.38q.25.01.5.02c2.01.11,3.98.37,5.97.67.17.03.33.05.5.08q21.46,3.27,25.54,8.47c.78,1.13,1.01,2.04.88,3.43-.2.88-.47,1.72-.74,2.58q-.06.18-.12.37c-3.22,10.13-8.14,20.19-15.4,28.06-.35.39-.69.78-1.03,1.17-.86.99-1.78,1.91-2.71,2.84-.17.17-.34.34-.51.52-2.83,2.84-8.08,7.76-12.37,7.9-.88-.01-1.37-.24-2.04-.83-.61-.71-.68-1.36-.64-2.26.11-.67.39-1.07.84-1.58.52-.31.97-.44,1.56-.53,1.91-.41,3.32-1.74,4.76-2.99.47-.41.96-.79,1.46-1.17,1.49-1.14,2.86-2.46,4.16-3.8q.54-.53.92-.53c.05-.11.09-.22.14-.34.28-.5.6-.82,1.02-1.21,6.53-6.4,10.63-15.17,13.81-23.6q-.22.09-.45.18c-1.86.66-3.74,1-5.68,1.3q-.37.06-.76.12c-4.34.65-8.69.78-13.08.76-.26,0-.52,0-.78,0-3.85,0-7.67-.09-11.5-.43-.25-.02-.49-.04-.75-.06-5.52-.46-11.16-1.08-16.56-2.36-.52-.11-.81-.08-1.31.12-.4.28-.78.58-1.16.89-.98.69-2.3.56-3.45.46-1.41-.37-2.34-1.46-3.1-2.65-.41-1.07-.32-2.48-.03-3.58.54-1.2,1.49-1.92,2.61-2.57,1.76-.53,3.01-.24,4.63.59q.5.35.82.82c.64.67,1.21.71,2.11.84.16.03.33.05.5.08.54.09,1.08.16,1.62.24.38.06.75.12,1.13.17,1.12.17,2.24.33,3.36.49.15.02.31.04.47.07,1.88.26,3.77.47,5.65.66.4.04.8.08,1.2.13,4.59.5,9.18.54,13.79.55.48,0,.95,0,1.43,0,6.56.01,12.9-.25,19.11-2.56v-.38c-6.66-3.06-14.51-4.11-21.66-5.45-.33-.06-.65-.12-.98-.18-.46-.09-.92-.17-1.37-.25-.14-.03-.27-.05-.41-.08-.76-.14-1.48-.23-2.25-.18q-.51.35-.96.77c-.99.62-2.14.51-3.26.38-1.09-.4-1.85-1.17-2.5-2.11-.46-1.09-.49-2.13-.19-3.26,1.17-2.32,3.66-3.29,6.07-2.15Z"/>
          <path class="cls-130" d="M22.93,111.39c.86.47,1.44,1.11,1.88,1.99,0,.3.02.59.02.89.11,1.21.68,1.78,1.54,2.59.25.25.51.5.76.76.13.12.25.25.38.38.49.5.95,1.02,1.4,1.55.46.53.94,1.05,1.42,1.56.2.21.4.43.6.64.1.11.2.21.3.33.67.72,1.33,1.45,2,2.18.26.28.53.56.8.84.37-.04.74-.08,1.11-.13,3.05-.43,6.15.19,9.15.67.49.08.99.16,1.48.23,1.45.23,2.91.46,4.36.7.41.07.82.13,1.23.2,2.34.38,4.69.76,7.03,1.14,3.65.6,7.31,1.17,10.97,1.71,3.9.58,7.78,1.2,11.67,1.84,3.22.52,6.44,1.04,9.66,1.52,1.53.23,3.06.48,4.59.74,2.71.45,5.42.88,8.13,1.3.52.08,1.04.16,1.56.24.26.04.52.08.78.12.65.1,1.29.2,1.94.3,1.22.19,2.44.38,3.66.56.57.09,1.14.17,1.71.26.27.04.55.08.82.12.38.06.75.11,1.13.17.21.03.43.06.65.1.66.14,1.02.41,1.49.88q-.19.04-.38.08c-2.24.51-4.46,1.04-6.64,1.76-.16.05-.32.11-.49.16-.86.3-1.67.64-2.48,1.06-.41.21-.81.4-1.23.6q-.21.1-.42.2c-.29.13-.57.27-.86.4-.14.06-.28.13-.42.2q-.19.09-.38.17-.39.19-.92.56c-1.09.08-2.1-.11-3.17-.31-.18-.03-.36-.07-.54-.1-.59-.11-1.18-.22-1.77-.33-.42-.08-.84-.16-1.26-.23-1.11-.21-2.22-.41-3.33-.62-1.94-.36-3.88-.73-5.82-1.09-.21-.04-.43-.08-.65-.12-5.58-1.04-11.18-1.99-16.78-2.95-.52-.09-1.05-.18-1.57-.27-.33-.06-.67-.11-1-.17-1.86-.32-3.72-.64-5.58-1.01-1.78-.35-3.56-.63-5.35-.92-1.97-.32-3.94-.67-5.91-1.04-1.57-.3-3.14-.55-4.73-.73-1.81-.22-3.6-.59-5.39-.93-.53-.1-1.07-.2-1.6-.3q-.2-.04-.41-.08c-1.73-.33-3.46-.63-5.21-.87-1.74-.25-3.45-.61-5.17-.97.3-1.21.61-1.7,1.54-2.5h.38c-1.07-1.34-2.18-2.62-3.35-3.88-.51-.55-1.01-1.12-1.5-1.69-.54-.62-1.1-1.23-1.66-1.84q-.41-.46-.7-.85c-.69-.93-1.38-1.18-2.48-1.53-.89-.33-1.29-.9-1.8-1.67-.35-.96-.45-1.82-.05-2.78,1.03-1.79,2.9-2.65,4.85-1.76Z"/>
          <path class="cls-83" d="M27.31,131.81c1.99.3,3.97.62,5.96.96.53.09,1.06.18,1.58.26,1.52.25,3.03.51,4.55.8,1.88.36,3.77.66,5.67.96,2.19.35,4.37.71,6.55,1.13.66.12,1.32.23,1.99.33,1.36.2,2.72.44,4.07.72,2.14.43,4.29.81,6.44,1.18.39.07.79.14,1.18.21,1.9.33,3.79.65,5.69.96,2.08.34,4.15.74,6.21,1.13,2.02.39,4.04.75,6.07,1.08,1.54.25,3.07.55,4.6.85,1.81.35,3.63.66,5.46.97,2.32.39,4.62.82,6.92,1.33.64.13,1.28.26,1.92.38-1.17,3.12-3,5.59-5.18,8.06-.08.1-.17.2-.26.31q-.32.27-.68.29-.2-.03-.41-.06c-.15-.02-.31-.05-.47-.07q-.24-.04-.49-.09c-.15-.03-.31-.05-.47-.08-.51-.09-1.01-.19-1.52-.3-.19-.04-.38-.08-.58-.12-.41-.08-.82-.16-1.22-.25-.59-.12-1.18-.24-1.77-.36-2.46-.49-4.91-1.01-7.36-1.54-4.17-.9-8.35-1.74-12.53-2.56-.7-.14-1.4-.28-2.09-.41-3.81-.75-7.62-1.49-11.43-2.21-1.46-.27-2.92-.55-4.38-.85-1.51-.31-3.02-.57-4.53-.83-1.12-.19-2.24-.4-3.35-.63-2.33-.48-4.67-.87-7.01-1.27-1.69-.29-3.37-.6-5.05-.95-.9-.17-1.81-.25-2.73-.31-1.51-3.07-1.62-5.67-1.34-9.02Z"/>
          <path class="cls-133" d="M25.51,136.53c.17.03.34.05.52.08.47.09.85.18,1.28.39q.38.64.58,1.34c.06.16.11.33.17.5.05.16.1.31.15.47.49,1.37,1.24,2.58,1.98,3.83.26.45.51.9.77,1.34-.69-.26-1.33-.57-1.98-.92-.94-.47-1.88-.84-2.88-1.15-.13-.04-.25-.08-.38-.12-3.85-1.16-8.14-.62-11.68,1.2-.99.54-1.84,1.19-2.66,1.95-.13.11-.26.23-.4.34-1.86,1.71-3.07,4.06-4.02,6.37-.06.14-.12.28-.18.43-1.88,5.03-1.36,11.24.78,16.1.87,1.9,1.85,3.59,3.24,5.16.13.16.26.31.39.48,2.91,3.43,7.28,5.89,11.79,6.28,4.21.2,8.15-.71,11.42-3.5.11-.08.22-.16.33-.25,3.24-2.52,4.92-6.92,5.55-10.85.65-5.28-.56-9.72-2.8-14.44.62.28,1.12.63,1.66,1.04.96.71,1.95,1.34,2.97,1.96.15.09.3.18.45.28.61.37,1.21.73,1.83,1.06.69.38,1.05.63,1.36,1.36.16.6.27,1.17.35,1.78.02.13.03.26.05.39.79,6.37-.72,13.27-4.66,18.41-.43.5-.86.99-1.31,1.47-.31.33-.6.67-.88,1.02-2.23,2.59-5.69,4.32-8.94,5.18-.22.06-.45.12-.68.19-3.41.78-7.26.73-10.64-.19-.19-.05-.38-.1-.57-.15-4.13-1.23-7.69-3.58-10.76-6.57-.12-.11-.25-.22-.37-.34C2.53,174.03.27,166.66.01,160.26c-.17-6.59,1.78-12.97,6.33-17.85,5.01-5.2,12.14-7.06,19.16-5.89Z"/>
          <path class="cls-79" d="M74.05,207.68c.81.17,1.62.33,2.43.49,1.65.33,3.3.66,4.95.99q0,.58-.24.88c-1.98,1.77-4.31,2.61-6.86,3.15-.15.03-.29.07-.44.1-1.51.32-3.01.35-4.55.34-.44,0-.88,0-1.31,0-2.4.01-5.09-.04-6.94-1.8-.3-.49-.4-.67-.32-1.25.04-.16.09-.32.13-.48.03-.13.06-.25.1-.38.03-.13.06-.25.1-.38.07-.32.13-.64.19-.96-1.59.14-2.88.9-3.97,2.07-.51.79-.62,1.63-.45,2.53.5,1.45,1.47,2.44,2.77,3.23,1.07.5,2.22.75,3.37,1,.15.03.3.07.45.1,1.63.35,3.26.35,4.91.34.15,0,.3,0,.45,0,2.33,0,4.58-.13,6.86-.63.13-.03.26-.06.39-.08,2.7-.6,5.23-1.56,7.48-3.18.11-.08.23-.16.34-.24,1.08-.81,1.77-2.02,2.34-3.22,1.14-.06,2.2.05,3.32.25q.2.03.4.07c.76.14,1.29.29,1.84.83q.1.49.1,1.07c0,.22,0,.44,0,.67q0,.36,0,.72c0,.24,0,.49,0,.74,0,.52,0,1.03,0,1.55,0,.66,0,1.32,0,1.98,0,.63,0,1.26,0,1.89,0,.24,0,.47,0,.72,0,.22,0,.44,0,.67,0,.19,0,.39,0,.59-.13.92-.51,1.38-1.24,1.94-.24.15-.47.3-.71.45-.26.17-.52.34-.78.5-.13.09-.27.17-.4.26-.63.41-1.25.82-1.88,1.24-.24.16-.48.32-.72.48-.44.29-.87.58-1.31.88-.38.26-.76.51-1.15.76-.34.23-.68.46-1.02.7-1.63,1.11-3.17.93-5.06.59-.49-.1-.97-.19-1.46-.29-.55-.11-1.09-.21-1.64-.32-.14-.03-.28-.05-.43-.08-1.57-.3-3.14-.56-4.71-.82-.29-.05-.58-.1-.87-.14-.44-.07-.87-.14-1.31-.22-2.55-.42-5.09-.86-7.63-1.3-.4-.07-.8-.14-1.2-.21-.75-.13-1.5-.26-2.25-.39q-.33-.06-.67-.12c-.2-.04-.41-.07-.62-.11-.18-.03-.35-.06-.54-.09-.52-.12-.98-.27-1.46-.5-.26-.52-.22-.93-.23-1.5,0-.24,0-.47,0-.71,0-.26,0-.52,0-.77,0-.13,0-.26,0-.39,0-.69,0-1.37,0-2.06,0-.71,0-1.42-.02-2.13,0-.55,0-1.09,0-1.64,0-.26,0-.52,0-.78,0-.37,0-.73,0-1.1,0-.21,0-.42,0-.63.14-.87.61-1.34,1.3-1.86.16-.1.32-.2.48-.3.18-.11.35-.22.53-.34.19-.11.37-.23.56-.35.19-.12.38-.24.58-.36.38-.23.75-.47,1.13-.7.41-.25.81-.51,1.21-.76,1.26-.79,2.44-1.2,3.9-1.47.18-.04.37-.08.55-.12,3.71-.68,7.59-.41,11.26.36Z"/>
          <path class="cls-83" d="M30.19,142.75c2.25.39,4.5.78,6.75,1.2q.33.06.67.12c2.65.49,5.3,1,7.95,1.5.57.11,1.15.22,1.72.33.85.16,1.69.32,2.54.48.14.03.27.05.41.08,1.69.32,3.37.66,5.05,1.03.96.21,1.93.38,2.9.53,1.8.29,3.59.66,5.38,1.04.59.12,1.18.25,1.77.37.84.18,1.68.35,2.52.53,2,.42,4,.84,6.01,1.26.63.13,1.26.26,1.88.39,2.23.47,4.47.91,6.71,1.34,2.06.39,4.11.81,6.15,1.23.41.08.82.17,1.23.25.6.12,1.21.25,1.81.37.18.04.37.07.55.11.17.04.34.07.51.11.15.03.29.06.45.09q.39.11.96.5c-2.37,2.05-5.07,3.44-7.87,4.8l-.38.19c-1.5-.03-2.96-.29-4.43-.6-.42-.09-.85-.17-1.27-.26-.23-.05-.45-.09-.69-.14-1.29-.27-2.58-.53-3.87-.78-.14-.03-.28-.06-.43-.09-2.44-.49-4.89-.96-7.34-1.42-2.26-.43-4.52-.86-6.77-1.31-.26-.05-.51-.1-.77-.15-1.26-.25-2.52-.5-3.77-.75-2.65-.53-5.3-1.02-7.97-1.47-1.33-.22-2.65-.48-3.96-.81-.9-.23-1.79-.32-2.72-.39-3.5-.31-5.57-1.23-7.89-3.95-.3-.37-.6-.75-.9-1.12-.14-.17-.27-.33-.41-.5q-2.47-3.01-2.47-4.1Z"/>
          <path class="cls-41" d="M144,107.24h.19c-.09,1.6-.57,2.99-1.12,4.49-.05.13-.09.26-.14.39-3.2,8.87-7.8,17.62-14.24,24.59-.35.39-.69.78-1.03,1.17-.86.99-1.78,1.91-2.71,2.84-.17.17-.34.34-.51.52-2.83,2.84-8.08,7.76-12.37,7.9-.88-.01-1.37-.24-2.04-.83-.61-.71-.68-1.36-.64-2.26.11-.67.39-1.07.84-1.58.52-.31.97-.44,1.56-.53,1.91-.41,3.32-1.74,4.76-2.99.47-.41.96-.79,1.46-1.17,1.49-1.14,2.86-2.46,4.16-3.8q.54-.53.92-.53c.05-.11.09-.22.14-.34.28-.5.6-.82,1.02-1.21,5.05-4.95,8.72-11.54,11.54-17.96.08-.19.17-.38.25-.57.35-.8.68-1.58.9-2.43.26-1.02.47-1.75,1.39-2.32.66-.35,1.33-.63,2.02-.91,1.37-.59,2.67-1.35,3.65-2.47Z"/>
          <path class="cls-130" d="M22.93,111.39c.86.47,1.44,1.11,1.88,1.99,0,.3.02.59.02.89.11,1.21.68,1.78,1.54,2.59.25.25.51.5.76.76.13.12.25.25.38.38.49.5.95,1.02,1.4,1.55.46.53.94,1.05,1.42,1.56.2.21.4.43.6.64.1.11.2.21.3.33.67.72,1.33,1.45,2,2.18.26.28.53.56.8.84.37-.04.74-.08,1.11-.13,3.22-.46,6.5.24,9.66.76.49.08.98.15,1.46.23.96.15,1.92.3,2.87.46.93.15,1.87.3,2.8.44.22.03.44.07.67.1.42.06.84.13,1.25.19.19.03.37.06.56.09.16.02.32.05.49.07q.41.1.99.48c-.25.06-.5.13-.74.19-.14.04-.28.07-.42.11q-.37.08-.76.08c-.13.19-.25.38-.38.58-.19-.06-.38-.13-.58-.19v-.38l-.38-.19c.13-.13.25-.25.38-.38h-.58v.38l-.38.19c.06.13.13.25.19.38-.13.19-.25.38-.38.58.06.13.13.25.19.38q-.18.41-.38.77l.38.19c-.26.28-.51.56-.77.84q-.09.15-.19.31c.06.19.13.38.19.58h-.58c-.12-.13-.25-.26-.37-.4-.13-.12-.26-.25-.4-.37q-.43.03-.77.19v.96c.12.03.24.06.36.08q.41.11.79.3v.38c-.18,0-.36,0-.54-.01q-.62-.02-1.19.2-.37-.02-.78-.09c-.15-.02-.31-.05-.47-.07-.17-.03-.33-.05-.5-.08-.17-.03-.35-.05-.53-.08-.52-.08-1.04-.17-1.56-.25q-.2-.03-.4-.07c-1.44-.24-2.87-.51-4.3-.78-.53-.1-1.07-.2-1.6-.3-.13-.03-.27-.05-.41-.08-1.73-.33-3.46-.63-5.21-.87-1.74-.25-3.45-.61-5.17-.97.3-1.21.61-1.7,1.54-2.5h.38c-1.07-1.34-2.18-2.62-3.35-3.88-.51-.55-1.01-1.12-1.5-1.69-.54-.62-1.1-1.23-1.66-1.84q-.41-.46-.7-.85c-.69-.93-1.38-1.18-2.48-1.53-.89-.33-1.29-.9-1.8-1.67-.35-.96-.45-1.82-.05-2.78,1.03-1.79,2.9-2.65,4.85-1.76Z"/>
          <path class="cls-146" d="M111.76,221.64l.38.19q.26,2.26-.26,3.12c-.46.42-.95.76-1.46,1.1-.25.18-.5.36-.74.54-.58.42-1.16.84-1.75,1.26-1,.72-1.99,1.47-2.97,2.22-2.02,1.55-4.07,3.06-6.12,4.56-1.75,1.28-3.49,2.58-5.21,3.89-1.33,1.01-2.66,2.02-3.99,3.02-.15.11-.29.22-.44.33-1.75,1.3-3.24,2-5.45,1.83-1.1-.19-2.19-.43-3.29-.68-.28-.06-.56-.13-.84-.19-.62-.14-1.24-.28-1.86-.42-4.94-1.11-9.89-2.16-14.84-3.22-1.29-.28-2.59-.56-3.88-.83q-.24-.05-.48-.1c-2.31-.5-4.61-1-6.91-1.5-1.96-.43-3.91-.85-5.87-1.27-2.93-.62-5.85-1.26-8.78-1.9-.38-.08-.75-.17-1.13-.25-.53-.12-1.05-.23-1.58-.35q-.23-.05-.46-.1c-.44-.1-.89-.2-1.33-.31-.17-.04-.34-.08-.52-.13-.17-.05-.34-.09-.52-.14-.16-.04-.31-.08-.47-.12-.51-.23-.71-.47-.99-.95q-.06-.58-.04-1.2,0-.31.02-.63c0-.16.01-.31.02-.48q.19-.1.38-.19v.77c.11,0,.21.01.32.02,1.37.11,2.68.39,4.01.71.66.16,1.32.31,1.98.46.13.03.27.06.4.09,1.18.27,2.36.51,3.55.74,2.1.41,4.19.88,6.28,1.36,1.29.3,2.57.56,3.87.76.72.12,1.42.31,2.12.49,2.54.64,5.09,1.18,7.66,1.66,2.4.46,4.8.96,7.19,1.49q.25.06.51.11c1.64.36,3.28.73,4.92,1.1.45.1.9.2,1.35.3.21.05.41.09.63.14,1.34.3,2.69.56,4.04.8.63.13,1.23.28,1.84.45,1.87.51,4.15,1.04,5.94.03.33-.24.65-.48.97-.73.24-.18.49-.37.73-.55.56-.42,1.12-.85,1.68-1.29.79-.62,1.59-1.22,2.4-1.82.13-.09.25-.19.38-.28.25-.19.51-.38.76-.57.66-.49,1.31-.98,1.97-1.47.26-.19.51-.38.77-.58.45-.34.9-.68,1.35-1.02,1.47-1.11,2.95-2.2,4.45-3.26q1.44-1.02,2.83-2.08c1.01-.8,2.05-1.54,3.1-2.28.92-.66,1.82-1.34,2.7-2.06q.29-.21.68-.21v-.38Z"/>
          <path class="cls-41" d="M102.74,156.57q.21.3.42.68c.08.14.15.28.23.43.08.15.16.31.24.46,1.23,2.27,2.6,4.38,4.13,6.47.11.15.22.3.33.46.64.86,1.31,1.69,2.03,2.49.25.28.48.57.71.86,2.76,3.44,7.04,6.56,11.49,7.16.51.02,1.01.03,1.52.02.13,0,.26,0,.39,0,.85,0,1.66-.08,2.5-.22.04-.2.07-.4.11-.6.29-1.03,1.1-1.6,2.01-2.12.83-.36,1.68-.21,2.51.05.94.38,1.4,1,1.92,1.87.37.89.34,2.01.04,2.92-.52.98-1.31,1.74-2.36,2.09-.28-.01-.56-.03-.84-.05-1.12-.02-2,.35-3.02.78-2.76,1.14-6.68.61-9.38-.5-.93-.41-1.81-.88-2.69-1.38-.13-.07-.26-.15-.39-.22-3.66-2.1-6.83-5.04-9.42-8.36q-.34-.45-.74-.8c-.41-.43-.67-.89-.95-1.41-.25-.44-.55-.83-.86-1.22-1.16-1.49-2.14-3.09-3.1-4.71-.07-.11-.14-.23-.21-.35-.2-.33-.39-.66-.59-1-.11-.19-.23-.39-.35-.59-.26-.51-.38-.93-.46-1.5.1-.04.2-.09.3-.13.46-.2.92-.41,1.37-.61.16-.07.32-.14.48-.21.15-.07.31-.14.46-.21.14-.06.28-.12.43-.19q.41-.18.8-.41t.94.04Z"/>
          <path class="cls-67" d="M27.69,129.12l.19.38c-.06.13-.13.25-.19.38.2.02.4.04.61.06.28.03.56.06.83.09.13.01.26.03.39.04,1.24.14,2.46.37,3.68.61,1.35.26,2.7.49,4.05.73.14.03.28.05.43.08,1.8.32,3.61.63,5.42.9.84.13,1.67.28,2.5.46.68.13,1.37.23,2.05.34,1.87.29,3.73.62,5.59.95,2.17.39,4.35.75,6.53,1.11,2.45.4,4.89.83,7.32,1.31,1.51.29,3.03.55,4.55.79,2.36.37,4.72.79,7.07,1.22.42.08.84.15,1.26.23,1.06.19,2.11.38,3.17.58.75.14,1.5.27,2.25.41.69.13,1.39.25,2.08.38.34.06.68.12,1.02.19,1.87.34,3.74.68,5.61,1.03.87.16,1.73.32,2.6.48.42.08.84.16,1.25.24.58.11,1.16.22,1.75.33.17.03.34.07.52.1,1.12.21,2.19.4,3.29.03v.38h-.38c-.02.17-.04.33-.06.5-.14.68-.39,1.19-.71,1.8-.24-.05-.49-.09-.74-.14-.16-.03-.33-.06-.5-.09-.51-.1-1.01-.19-1.52-.29-.19-.04-.38-.07-.58-.11-.53-.1-1.06-.2-1.58-.3-2.67-.51-5.34-.99-8.02-1.46-2.1-.37-4.19-.75-6.28-1.18-1.21-.24-2.42-.45-3.64-.63-1.56-.24-3.11-.51-4.65-.82-5.72-1.13-11.46-2.09-17.21-3.04-1.34-.22-2.68-.46-4.01-.69-2.2-.39-4.39-.77-6.59-1.14-.45-.07-.9-.15-1.35-.22-1.32-.22-2.64-.44-3.96-.65-1.84-.3-3.67-.62-5.5-1-2.02-.41-4.05-.74-6.08-1.08-.14-.02-.29-.05-.44-.07-.27-.05-.54-.09-.82-.14-.54-.09-1.04-.2-1.57-.37v3.65h-.19c-.02-.88-.03-1.75-.04-2.63,0-.25,0-.5-.01-.75,0-.24,0-.48,0-.73,0-.22,0-.44,0-.67.07-.66.26-1.02.64-1.56Z"/>
          <path class="cls-130" d="M41.7,154.08c1.76.23,3.49.54,5.23.92,2.83.62,5.67,1.17,8.52,1.7,1.87.35,3.75.71,5.62,1.08,2.59.51,5.18,1.01,7.77,1.49,3.02.56,6.02,1.16,9.03,1.77.74.15,1.48.29,2.22.44.59.13,1.16.29,1.73.47-.64.21-1.08.16-1.73,0q.25.6.77.96-.19.58-.64.81c-1.23.46-2.45.85-3.72,1.15-.13.03-.26.06-.4.09-1.98.45-3.96.48-5.98.48q-.21,0-.43,0-5.09,0-6.87-1.01c.49-.43.96-.66,1.57-.88.14-.05.28-.1.42-.15.11-.04.21-.08.32-.11q-.18-.04-.36-.08c-5.38-1.15-10.68-2.4-15.7-4.71-.43-.2-.87-.39-1.31-.58-1.5-.67-2.92-1.43-4.33-2.27-.15-.09-.3-.18-.46-.27-.14-.09-.28-.17-.42-.26-.12-.08-.25-.15-.37-.23q-.29-.23-.48-.81Z"/>
          <path class="cls-114" d="M91.22,211.46l.38.19c.11,2.92.21,5.84.24,8.76,0,.21,0,.41.01.63q0,1.81-.64,2.52c-.43.33-.84.62-1.3.9-.26.17-.52.34-.78.5-.13.09-.27.17-.4.26-.63.41-1.25.82-1.88,1.24-.24.16-.48.32-.72.48-.44.29-.87.58-1.31.88-.56.37-1.12.75-1.68,1.11-.18.12-.36.24-.54.36-.17.11-.34.22-.51.33q-.22.14-.45.29c-.5.21-.68.14-1.18-.01.02-1.46.03-2.93.06-4.39,0-.68.02-1.36.03-2.04,0-.78.02-1.56.03-2.34,0-.24,0-.49,0-.74q0-.34.01-.69c0-.2,0-.4,0-.6.05-.53.15-.84.44-1.29q.38-.29.85-.55.26-.15.53-.3c.5-.27,1-.54,1.5-.81,1.44-.78,2.82-1.65,4.21-2.5.51-.31,1.02-.63,1.53-.94.14-.09.28-.17.43-.26q.35-.2.93-.39c.06-.19.13-.38.19-.58Z"/>
          <path class="cls-153" d="M74.05,207.68c.81.17,1.62.33,2.43.49,1.65.33,3.3.66,4.95.99q0,.58-.24.88c-1.98,1.77-4.31,2.61-6.86,3.15-.15.03-.29.07-.44.1-1.51.32-3.01.35-4.55.34-.44,0-.88,0-1.31,0-2.4.01-5.09-.04-6.94-1.8-.3-.49-.4-.67-.32-1.25.04-.16.09-.32.13-.48.03-.13.06-.25.1-.38.03-.13.06-.25.1-.38.07-.32.13-.64.19-.96h-.96c.06-.19.13-.38.19-.58.48-.09.97-.18,1.45-.28.14-.03.27-.05.41-.08.4-.08.81-.15,1.21-.22.2-.04.41-.07.62-.11,3.31-.37,6.61-.14,9.85.55Z"/>
          <path class="cls-43" d="M22.93,111.39c.86.47,1.44,1.11,1.88,1.99,0,.3.02.59.02.89.11,1.21.68,1.78,1.54,2.59.25.25.51.5.76.76.13.12.25.25.38.38.49.5.95,1.02,1.4,1.55.46.53.94,1.05,1.42,1.56.2.21.4.43.6.64.2.22.4.43.6.65.39.42.78.84,1.16,1.26.17.18.34.36.51.55.36.41.7.82,1.01,1.26-.11.04-.21.08-.32.12-.48.18-.96.35-1.44.53-.17.06-.33.12-.5.18-.78.29-1.57.58-2.34.9q-2.39-2.53-3.35-3.73c-.82-1.02-1.7-1.97-2.59-2.91-.11-.11-.22-.23-.33-.35-.11-.11-.21-.23-.32-.34-.32-.35-.61-.71-.91-1.08-.49-.58-.89-.82-1.63-1.02-1.15-.37-1.69-.84-2.35-1.85-.35-.96-.45-1.82-.05-2.78,1.03-1.79,2.9-2.65,4.85-1.76Z"/>
          <path class="cls-90" d="M37.86,151.58c2.67.33,5.3.79,7.94,1.32,1.72.35,3.45.67,5.18.99,3.66.67,7.31,1.37,10.96,2.08.13.02.25.05.38.07,1.02.2,2.04.4,3.05.59,2.68.52,5.36,1.04,8.04,1.55.2.04.39.08.6.11,1.54.3,3.08.59,4.61.89.67.13,1.34.26,2.02.39.21.04.41.08.62.12,1.53.29,3.05.59,4.58.9-.52.52-1.03.59-1.73.77v.58c-.67-.09-1.28-.17-1.92-.38-.06.13-.13.25-.19.38-2.73-.46-5.45-.96-8.17-1.5-.96-.19-1.92-.38-2.87-.57-.19-.04-.38-.07-.57-.11-1.65-.32-3.3-.63-4.95-.94-1.99-.37-3.97-.75-5.95-1.15-1.01-.2-2.02-.4-3.03-.59-1.99-.37-3.98-.76-5.97-1.15-.65-.13-1.3-.26-1.96-.38q-3.85-.75-5.71-1.17-.57-.12-1.25-.2c-.59-.1-.88-.18-1.35-.53-.12-.08-.23-.17-.35-.25-.12-.09-.23-.17-.35-.26-.12-.09-.24-.17-.36-.26-.54-.4-.93-.73-1.31-1.3Z"/>
          <path class="cls-74" d="M66.56,173.02c.18,0,.36,0,.54,0,4.29.02,8.94.26,12.8,2.36-2.42,1.61-5.42,2.11-8.25,1.73-1.14-.14-2.26-.23-3.41-.25-.15,0-.3,0-.46-.01-.48-.01-.95-.02-1.43-.04-.33,0-.65-.02-.98-.03-.79-.02-1.58-.04-2.37-.06v-.19h1.15c.05-.14.1-.29.16-.43.22-.5.46-.87.8-1.3v.38h.38l-.19-.58h.38v-1.15c-.63-.06-1.27-.13-1.92-.19q-.02.23-.04.46c-.05.17-.1.33-.16.5q-.49.25-.96.38v-.77c-.65-.21-1.19-.18-1.87-.11-.19.02-.38.04-.57.06q-.22.02-.43.05c1.35-1.35,5.03-.84,6.81-.83Z"/>
          <path class="cls-40" d="M75.48,208.2c2.02.09,3.98.54,5.95.96q0,.58-.24.88c-1.98,1.77-4.31,2.61-6.86,3.15-.15.03-.29.07-.44.1-1.51.32-3.01.35-4.55.34-.44,0-.88,0-1.31,0-2.11,0-4.35-.02-6.17-1.22.72-.7,1.53-.77,2.48-.91.17-.02.34-.05.51-.07,2.62-.34,5.91-.42,8.33.79q-.1-.29-.19-.58l.19-.38.58.19v.38c.38.06.76.13,1.15.19v-.58c-.13-.06-.25-.13-.38-.19h.58c.06-.13.13-.25.19-.38q.19.19.38.38c.47-.82.62-1.36.58-2.3.06-.06.13-.13.19-.19-.32-.13-.63-.25-.96-.38v-.19Z"/>
          <path class="cls-113" d="M41.7,154.08c1.76.23,3.49.54,5.23.92,1.85.41,3.7.79,5.57,1.15.2.04.41.08.62.12.84.16,1.68.31,2.53.4q.32.05.64.09.1.19.19.38-.29.1-.58.19-.3.41-.38.96c.19.45.38.9.58,1.34q-.19.29-.38.58c.32.13.63.25.96.38v.38h.58c.06-.19.13-.38.19-.58q.38.74.38.96c-1.28-.11-2.42-.43-3.63-.84q-.3-.1-.61-.2c-4.08-1.41-8.45-3.18-11.88-5.87v-.38Z"/>
          <path class="cls-54" d="M80.86,162.9q-.19.58-.64.81c-1.23.46-2.45.85-3.72,1.15-.13.03-.26.06-.4.09-1.98.45-3.96.48-5.98.48q-.21,0-.43,0-5.09,0-6.87-1.01c1.4-1.1,2.6-1.42,4.38-1.26,3.89.35,7.75.12,11.61-.41q1.47-.15,2.05.14Z"/>
          <path class="cls-81" d="M131.36,172.72c.94.38,1.4,1,1.92,1.87.37.89.34,2.01.04,2.92-.52.98-1.31,1.74-2.36,2.09-.4.01-.79.02-1.19.01q-.31,0-.63,0c-.16,0-.32,0-.48,0l.19-.38c.18-.05.36-.1.55-.16q.61-.18.96-.61c.35-.94.45-1.92.06-2.88q-.24-.38-.8-.77c-.59-.09-1.14-.07-1.73,0-.06.25-.13.51-.19.77-.57.06-1.14.13-1.73.19l.77-.38q.08-.31.16-.62c.33-1.05,1.02-1.56,1.96-2.09.83-.36,1.68-.21,2.51.05Z"/>
          <path class="cls-3" d="M82.93,168.3c1.07.6,1.92,1.17,2.73,2.09l-.19.38c-.25-.06-.51-.13-.77-.19l-.19.38h-.38c-.03-.15-.06-.3-.08-.46q-.08-.5-.3-.89h-.38c-.06.19-.13.38-.19.58q-.49.23-.96.38v-.58h-.77q-.04.56.19.96l-.77.38.38.77c-.5-.24-.96-.51-1.43-.82-1.06-.68-2.22-1.17-3.37-1.68v-.19q.33-.07.66-.15c.29-.07.58-.13.88-.2.14-.03.29-.06.43-.1.73-.17,1.41-.36,2.1-.64.87-.34,1.53-.4,2.42-.05Z"/>
          <path class="cls-80" d="M42.34,226c.25,0,.5,0,.75-.01.77.07,1.23.22,1.87.64q.17.61.19,1.15c-1.08.96-1.97,1.02-3.37,1-.84-.08-1.42-.42-2-1-.07-.56-.09-.84.25-1.3.71-.53,1.45-.47,2.3-.48Z"/>
          <path class="cls-7" d="M86.23,234.88q.38.58.35.96c-.18.44-.36.66-.73.96-1.19.4-2.61.37-3.78-.07q-.44-.31-.83-.7c.03-.61.1-.88.55-1.3,1.4-.83,3.04-.53,4.44.14Z"/>
          <path class="cls-132" d="M101.48,222.33c.58.21,1.01.41,1.45.84q0,.56-.19,1.15c-.89.74-1.95.66-3.06.63-.71-.07-1.18-.19-1.74-.63q-.26-.52-.38-.96c1.2-1.23,2.22-1.46,3.92-1.04Z"/>
          <path class="cls-46" d="M83.62,178.7c.75.48,1.39,1.06,2.04,1.67l-.19.38c-.25-.19-.51-.38-.77-.58-.48.23-.9.47-1.34.77h-.77c-.32.12-.64.24-.96.38v-.38h-.38l.19.58-.38.19c.32.32.63.63.96.96l-.19.38c-.11-.1-.22-.21-.34-.32-.81-.74-1.52-1.38-2.54-1.8.6-.49,1.18-.77,1.9-1.04.67-.27,1.26-.52,1.84-.96q.49-.3.95-.24Z"/>
          <path class="cls-123" d="M75.48,208.2c2.02.09,3.98.54,5.95.96q0,.58-.29.9c-.82.7-1.61,1.33-2.59,1.79l-.58-.19v-1.54l-.38-.58h-.58c-.06-.32-.13-.63-.19-.96-.44-.06-.89-.13-1.34-.19v-.19Z"/>
          <path class="cls-12" d="M67.04,200.3c.19,0,.38,0,.57,0,1.28.01,2.54.08,3.81.2.15.02.31.03.47.05q1.06.12,1.49.55c-1.36.22-2.7.23-4.07.23-.43,0-.86,0-1.29,0-1.83,0-3.58-.14-5.39-.43.06-.13.13-.25.19-.38,1.37-.26,2.83-.23,4.22-.23Z"/>
          <path class="cls-117" d="M65.87,188.4c.18,0,.36,0,.55,0,1.43.01,2.86.09,4.29.2.2.02.39.03.6.05.18.02.37.03.56.05.16.01.32.03.49.04.46.08.8.23,1.21.46-1.05.15-2.06.22-3.12.22-.15,0-.29,0-.44,0-.31,0-.61,0-.92,0-.46,0-.93,0-1.39,0q-3.3.01-4.68-.43c-.13-.13-.25-.25-.38-.38,1.09-.18,2.15-.23,3.25-.23Z"/>
          <path class="cls-9" d="M70.11,173.27c.34,0,.67,0,1.01-.01q.28,0,.57,0c.47.02.86.07,1.3.21v.58l.58.19c-.38.13-.76.25-1.15.38q-.1-.38-.19-.77h-.38q-.19.59,0,1.15c-.19.58-.42,1.02-.77,1.54.32.06.63.13.96.19v.19q-4.47-.1-9.02-.19v-.19c2.37-.17,4.73-.21,7.1-.19q-.1-.29-.19-.58.63-1.08,1.15-1.34h-1.34c.19-.13.38-.25.58-.38l-.19-.77Z"/>
          <path class="cls-34" d="M72.99,173.46c.65.15,1.28.36,1.92.58q-.26.29-.58.58h-.38c-.06.51-.13,1.01-.19,1.54-.19-.06-.38-.13-.58-.19q-.6.12-.77.58c.19.06.38.13.58.19q-.35.2-.77.38c-.48-.16-.9-.34-1.34-.58l.38-.58c.38-.85.44-1.4.19-2.3h1.15c-.06.32-.13.63-.19.96h.38q.21-.34.19-.58v-.58Z"/>
          <path class="cls-97" d="M63.01,176.72c.93,0,1.86-.02,2.78-.02.31,0,.63,0,.94,0,2.09-.02,4.19-.01,6.25.41.13.13.25.25.38.38-1.11,0-2.22.02-3.33.02-.38,0-.75,0-1.13,0q-4.46.04-5.71-.41l-.19-.38Z"/>
          <path class="cls-93" d="M88.92,161.56l.19.38c-.38.13-.76.25-1.15.38.06.32.13.63.19.96-.25-.13-.51-.25-.77-.38-.14.12-.29.25-.43.37-.47.35-.73.5-1.3.59l.19-.58.38-.19h-.77c-.38-.06-.77-.12-1.15-.19l-.19.58-.19-.58h-.38v-.38l-.58.19v-.38c.81-.17,1.62-.33,2.44-.49.23-.05.46-.09.7-.14.22-.04.44-.09.67-.13q.31-.06.62-.12c.57-.07.98-.05,1.53.13Z"/>
          <path class="cls-136" d="M79.13,161.37c.93.11,1.79.3,2.69.58-.64.21-1.08.16-1.73,0q.1.29.19.58c-.32.06-.63.13-.96.19v.19c-2.13.35-4.18.43-6.33.38v-.19c.15-.01.29-.02.44-.04.68-.21.75-.52,1.09-1.12q.37-.19.77-.19c.36.23.66.46.96.77q.39-.03.77-.19c.06-.19.13-.38.19-.58.32-.06.63-.13.96-.19l-.58,1.15h1.15c.13-.44.25-.89.38-1.34Z"/>
          <path class="cls-127" d="M60.32,202.25c.04.12.09.25.13.37q.22.45.76.54c.15.02.3.03.46.05.03.14.06.29.08.43.06.32.14.63.22.95q.08.35.08.73c-.38-.09-.75-.18-1.13-.28-.21-.05-.42-.1-.63-.16q-.54-.14-.93-.34v-.38h-.38c.06-.25.13-.51.19-.77h.58c-.06-.25-.13-.51-.19-.77l.77-.38Z"/>
          <path class="cls-51" d="M89.88,210.7c.8.09,1.35.17,1.92.77.07.49.09.91.07,1.4,0,.14,0,.27,0,.41,0,.43-.01.86-.02,1.3,0,.29,0,.59-.01.88,0,.72-.02,1.44-.04,2.16h-.19q-.1-2.95-.19-5.95-.19.29-.38.58c-.9.54-1.66.58-2.69.58.13-.06.25-.13.38-.19-.19-.06-.38-.13-.58-.19.06-.19.13-.38.19-.58.32-.13.64-.26.96-.38.06-.13.13-.25.19-.38h.38v-.38Z"/>
          <path class="cls-85" d="M60.68,162.17q.21.04.42.08c.29.06.59.12.88.18.59.12,1.18.23,1.77.34.58.11,1.16.22,1.75.33-.43.43-.77.58-1.33.8q-.25.11-.51.21-.46.14-1.04-.06l.38-.38c-.43-.43-.7-.52-1.27-.7-.16-.05-.31-.1-.48-.15-.12-.04-.24-.07-.36-.11-.06.13-.13.25-.19.38h-.38v-.38c-.19.06-.38.13-.58.19-.12-.07-.24-.13-.36-.2q-.41-.23-.89-.04l-.48.24q-.22.11-.44.22c-.11.06-.21.11-.32.17.93-1.36,1.9-1.44,3.43-1.12Z"/>
          <path class="cls-143" d="M77.02,131.04c1.29-.05,2.48.14,3.74.38.19.04.39.07.59.11.48.09.95.18,1.43.27v.19c-1.19.05-2.29-.15-3.45-.38v.77c.25.06.51.13.77.19-.06.25-.13.51-.19.77-.18-.04-.36-.07-.55-.11q-.58-.14-.98.11c-.19-.06-.38-.13-.58-.19q-.22-1.3,0-1.73l-.77-.38Z"/>
          <path class="cls-27" d="M70.68,188.62c.49.05.97.11,1.45.18.14.02.27.04.41.06.34.05.68.1,1.01.15v.19c-1.41.22-2.8.21-4.22.2-.24,0-.48,0-.73,0-.59,0-1.18,0-1.77,0-.06-.19-.13-.38-.19-.58q.17,0,.35,0c.52,0,1.04,0,1.56,0,.18,0,.36,0,.55,0,.17,0,.35,0,.52,0,.16,0,.32,0,.48,0q.38.02.57-.21Z"/>
          <path class="cls-110" d="M37.86,151.58c.39.2.78.39,1.15.61.48.2.65.09,1.15-.04.45.05.9.11,1.34.19.06.19.13.38.19.58h-.38v.58h.38v.77c-.79-.28-1.44-.67-2.14-1.13-.2-.13-.4-.26-.6-.39-.48-.36-.78-.67-1.1-1.17Z"/>
          <path class="cls-107" d="M30.19,142.75c.57.29.68.78.96,1.34.13.06.25.13.38.19v.58h.38q.19-.69,0-1.34h1.15v.77c.06.26.12.51.19.77h-.77c-.04.7.03,1.13.38,1.73-1.16-1.05-2.49-2.44-2.69-4.03Z"/>
          <path class="cls-2" d="M83.82,202.19c1.43.74,2.29,2.23,2.8,3.71.45,1.49.23,2.83-.38,4.22l-.19-.38c.06-.19.13-.38.19-.58.16-2.2-.02-3.91-1.42-5.69-.48-.51-.62-.63-1.32-.77q-.57.1-1.1.5v-.58c.51-.43.76-.63,1.42-.45Z"/>
          <path class="cls-32" d="M71.75,200.58q.33.02.67.05.56.09.95.47c-.96.16-1.89.22-2.86.22q-.21,0-.42,0c-.29,0-.59,0-.88,0-.45,0-.9,0-1.34,0-.29,0-.58,0-.86,0q-.2,0-.4,0c-.77,0-1.49-.07-2.24-.22v-.19c1.86-.03,3.71.06,5.57.19v-.38c.67-.22,1.13-.18,1.84-.13Z"/>
          <path class="cls-4" d="M60.7,208.2c-.17.1-.34.2-.51.3-.23.14-.45.27-.68.41-.11.07-.22.13-.34.2-.96.58-1.87,1.23-2.28,2.32-.08.2-.15.4-.23.61-.02-.12-.05-.24-.07-.36q-.1-.44-.5-.79-.4.06-.77.19c.71-.82,1.6-1.31,2.52-1.86.16-.1.32-.19.48-.29q1.6-.96,2.38-.73Z"/>
          <path class="cls-60" d="M67.04,189.77h4.41c-.06.13-.13.25-.19.38q-.48-.1-.96-.19c-.06.25-.13.51-.19.77h-.38c-.06.13-.13.25-.19.38-.06-.38-.13-.76-.19-1.15-.44.31-.79.61-1.15,1.01q-.19.17-.38.34-.43-.05-.77-.19v-1.34Z"/>
          <path class="cls-59" d="M65.85,173.05c.28,0,.57,0,.85,0,.69,0,1.37.01,2.06.02v.19h-4.99c-.06.32-.13.63-.19.96q-.49.25-.96.38v-.77c-.65-.21-1.19-.18-1.87-.11-.19.02-.38.04-.57.06q-.22.02-.43.05c1.26-1.26,4.39-.81,6.11-.79Z"/>
          <path class="cls-10" d="M50.34,126.82c1.9.09,3.71.39,5.57.77v.19c-.25.06-.5.13-.74.19-.14.04-.28.07-.42.11q-.37.08-.76.08l-.38.58-.58-.19v-.38l-.38-.19c.19-.19.38-.38.58-.58h-.96v.38c-.25.06-.51.13-.77.19-.06-.25-.13-.51-.19-.77-.32-.06-.63-.13-.96-.19v-.19Z"/>
          <path class="cls-13" d="M35.94,124.9c2.25-.08,4.32.11,6.53.58v.19c-.19-.02-.37-.03-.56-.05-.24-.02-.48-.04-.73-.06-.24-.02-.48-.04-.73-.06q-.74-.03-1.43.17-.19.29-.38.58h-.77q-.38-.58-.58-.96c.22,0,.44,0,.66.01q.65.07.88-.2h-2.88v-.19ZM37.29,126.44q.4.08.77.19l-.38.38c-.19-.13-.38-.25-.58-.38l.19-.19Z"/>
          <path class="cls-25" d="M115.21,107.63h8.06v.19q-.86.1-1.73.19c-.06.25-.13.51-.19.77q-.49.24-.96.38-.22-.91,0-1.34h-5.18v-.19Z"/>
          <path class="cls-150" d="M74.71,197.45c1.8,0,3.35.68,4.99,1.34-.63.21-.9.15-1.54,0-.06.25-.13.51-.19.77l-.58-.19.19-.38-.38-.19-.19-.19c-.32-.13-.64-.26-.96-.38v-.38c-.38.06-.76.13-1.15.19-.06-.19-.13-.38-.19-.58Z"/>
          <path class="cls-89" d="M82.78,190.54l.38.19q-.19.29-.38.58h-.38v.38q-.17.04-.34.07c-.65.18-1.07.31-1.45.89-.04.13-.09.25-.13.38l.19.38c-.73-.28-1.42-.6-2.11-.96v-.19q.3-.05.6-.11c.98-.23,1.83-.7,2.71-1.18.3-.16.6-.3.91-.44Z"/>
          <path class="cls-71" d="M104.66,93.23c.24.48.18.74.11,1.27q-.03.24-.06.48c-.02.12-.03.24-.05.36h.58c.34.59.38.81.38,1.54-.19.06-.38.13-.58.19.06.25.13.51.19.77-.75-.63-.98-1.15-1.15-2.11.01-.95.04-1.69.58-2.5Z"/>
          <path class="cls-131" d="M80.28,198.41q.4.08.77.19c-.09.08-.18.17-.28.25q-.35.33-.49.9c-.19.13-.38.25-.58.38-.13.13-.25.25-.38.38l-.38-.77-.58.19q-.14.39-.19.77c-.26-.13-.51-.26-.77-.38v-.38c.19-.09.38-.19.58-.29.25-.12.5-.25.75-.37.13-.06.25-.12.38-.19q.62-.28,1.16-.69Z"/>
          <path class="cls-68" d="M63.39,199.37l.77.19c-.06.19-.13.38-.19.58h5.95v.19q-3.61.1-7.29.19c.25-.38.51-.76.77-1.15Z"/>
          <path class="cls-138" d="M28.46,140.64c.48.44.79.89,1.1,1.45.09.15.17.3.26.46.06.13.11.26.17.4l-.19.38c-.64-.11-1.16-.26-1.73-.58.03-.1.06-.2.08-.3.14-.6.22-1.2.3-1.81Z"/>
          <path class="cls-10" d="M83.16,132c.4.03.79.06,1.19.08q.33.02.67.05c.55.05,1.06.13,1.6.25v.19c-.28.04-.57.07-.85.11-.16.02-.32.04-.48.06-.13,0-.26.02-.4.02-.06-.06-.13-.13-.19-.19-.06.13-.13.25-.19.38q-.44.34-.96.58-.43-.13-.77-.38l-.19-.38c.19-.13.38-.25.58-.38v-.38Z"/>
          <path class="cls-58" d="M77.98,198.6l1.15.19v.58c-.46.19-.93.39-1.39.58-.13.05-.26.11-.4.17-.67.27-1.12.41-1.86.41-.06-.32-.13-.63-.19-.96q.24,0,.49,0c.21,0,.42,0,.64,0q.31,0,.63,0,.53.02.93-.21v-.77Z"/>
          <path class="cls-66" d="M136.13,200.91l.77.77v-.58c.25.13.51.25.77.38-.61.61-1.47.74-2.32.79-.31,0-.63-.01-.94-.02.13-.06.25-.13.38-.19.02-.12.03-.25.05-.37.05-.13.1-.26.14-.4q.59-.24,1.15-.38Z"/>
          <path class="cls-125" d="M106.19,111.27q.48.1.96.19c.06.19.13.38.19.58h1.34v.19c-2.14.06-4.21-.11-6.33-.38v-.19h3.65l.19-.38Z"/>
          <path class="cls-28" d="M37.48,151.58q.75.34.92.74c.36.64.92.84,1.57,1.18-.13.11-.26.21-.4.32-.12.15-.25.29-.37.44q.03.52.19.96c-.58-.69-.92-1.45-1.28-2.26-.06-.13-.12-.27-.19-.41-.15-.33-.3-.66-.45-.99Z"/>
          <path class="cls-78" d="M81.82,203.02l.38.19c-.13.25-.25.51-.38.77h-.38c.06.19.13.38.19.58h-.38c-.13-.19-.25-.38-.38-.58h-.38c.06.19.13.38.19.58l-.19.58c-.11-.06-.21-.11-.32-.17-.46-.22-.93-.41-1.4-.6q.38-.38.89-.46c.72-.13,1.22-.39,1.85-.75.11-.05.22-.09.33-.14Z"/>
          <path class="cls-47" d="M82.2,202.06l.77.38q-2.88,1.76-4.03,1.73l-.38.38-.58-.38h.38l.19-.38q.47-.23.96-.38l.38.19q.56-.23,1.18-.56c.21-.11.42-.22.64-.33.16-.09.32-.17.49-.26v-.38Z"/>
          <path class="cls-63" d="M70.11,184.98c.46-.01.93-.02,1.39-.02.13,0,.26,0,.4,0,.72,0,1.25.02,1.86.42-.15.02-.3.04-.46.06q-.57.09-.89.71l-.58.19v-.38h-.38v-.38c-.19-.06-.38-.13-.58-.19-.26-.13-.51-.25-.77-.38Z"/>
          <path class="cls-104" d="M68.76,180.95c-.04.12-.07.24-.11.36q-.13.42.11.79c-.78.19-1.5.21-2.3.19-.06-.19-.13-.38-.19-.58.88-.57,1.41-.87,2.5-.77Z"/>
          <path class="cls-122" d="M78.97,169.03c.17,0,.35,0,.52,0,.13,0,.26,0,.4,0-.06.13-.13.25-.19.38q-.4.12-.77.19v.77c-.71-.23-1.42-.48-2.11-.77.76-.51,1.26-.6,2.15-.59Z"/>
          <path class="cls-88" d="M38.06,152.16c.68.25,1.27.55,1.88.95.15.1.3.19.46.29.11.1.23.19.34.29v.58c-.59.34-.81.38-1.54.38-.06-.25-.13-.51-.19-.77.19-.06.38-.13.58-.19-.25-.26-.5-.52-.77-.77h-.38l-.38-.77Z"/>
          <path class="cls-42" d="M64.93,174.8l.19.38c.32-.06.63-.13.96-.19q-.17.91-.38,1.34c-.51.11-1.02.14-1.54.19.23-.59.48-1.16.77-1.73Z"/>
          <path class="cls-72" d="M101.01,156.95l.38.19q-.91.55-1.34.77v.58c-.44.06-.89.13-1.34.19-.06.25-.13.51-.19.77-.06-.25-.13-.51-.19-.77h-.38v-.38c.5-.23,1.01-.46,1.51-.68q.21-.1.43-.2c.37-.17.75-.31,1.13-.46Z"/>
          <path class="cls-124" d="M45.16,226.82q.3.24.58.58.01.4-.19.77-.58.22-1.15.38l-.19.38c-.5.01-1,.02-1.5.02-.14,0-.28,0-.43,0-.74,0-1.09,0-1.72-.42q.27,0,.54.01,1.79.04,3.49-.4c.45-.45.48-.73.58-1.34Z"/>
          <path class="cls-5" d="M58.78,185.94l.38.19c-.32.32-.64.64-.96.96-.14.14-.28.29-.42.43q-.35.34-.73.53-.09.45-.12.97c-.01.18-.03.35-.04.53,0,.14-.02.27-.03.41h-.19q-.17-1.78.22-2.53c.54-.64,1.12-1.16,1.89-1.5Z"/>
          <path class="cls-19" d="M81.82,171.35h.58q-.26,2.87-1.15,3.65c-.13-.06-.25-.13-.38-.19.13-.1.26-.2.4-.3q.45-.46.34-1.15t-.35-1.24c.19-.13.38-.25.58-.38v-.38Z"/>
          <path class="cls-134" d="M142.08,198.6c.19.13.38.25.58.38.13.06.25.13.38.19-.37.23-.74.46-1.12.68q-.31.19-.63.38-.56.28-1.14.08.23-.12.46-.24c.52-.34.67-.54.89-1.1h.58v-.38ZM142.47,198.6l.38.19-.38-.19Z"/>
          <path class="cls-109" d="M104.66,106.86c1.55-.02,3.07,0,4.61.19v.19h-3.45c-.13.25-.25.51-.38.77-.06-.32-.13-.63-.19-.96-.19-.06-.38-.13-.58-.19Z"/>
          <path class="cls-30" d="M83.16,178.64c1.04.29,1.72,1.01,2.5,1.73l-.19.38c-.1-.09-.21-.18-.31-.28-.54-.35-.97-.42-1.61-.49.06-.25.13-.51.19-.77h-.96c.13-.19.25-.38.38-.58Z"/>
          <path class="cls-8" d="M27.5,142.56c.13.04.25.08.39.12.17.05.34.1.51.16.17.05.33.1.51.16q.51.16,1.04.22t.79.7c.08.19.15.37.23.56-.79-.3-1.52-.67-2.27-1.08-.11-.06-.23-.12-.35-.19-.28-.15-.56-.31-.84-.46v-.19Z"/>
          <path class="cls-29" d="M53.6,225.67c.33.03.66.06,1,.08q.28.02.56.05c.51.06,1.01.14,1.52.25v.19q-1.43.03-2.11-.19c-.06.19-.13.38-.19.58h-.77c-.06-.19-.13-.38-.19-.58l.19-.38Z"/>
          <path class="cls-149" d="M70.68,200.52c.38.02.75.05,1.13.07.21.01.42.03.63.04q.54.08.93.46c-.89.06-1.77.13-2.69.19v-.77Z"/>
          <path class="cls-94" d="M1.78,163.48q.14.43.19.96-.35.4-.77.77c-.14.25-.26.51-.38.77-.11-.58-.2-1.14-.19-1.73q.54-.77,1.15-.77Z"/>
          <path class="cls-73" d="M75.48,208.2c1.26.09,2.43.23,3.65.58v.19h-1.73c-.06.19-.13.38-.19.58q-.38-.58-.38-.96c-.44-.06-.89-.13-1.34-.19v-.19Z"/>
          <path class="cls-14" d="M67.42,176.72c.4-.02.81-.03,1.21-.04.22,0,.45-.01.68-.02q.6.06,1.18.63h-3.07v-.58Z"/>
          <path class="cls-37" d="M55.14,154.84c1.57.1,3.07.42,4.61.77v.19c-.93.22-1.42.14-2.3-.19-.77-.2-1.53-.39-2.3-.58v-.19Z"/>
          <path class="cls-151" d="M38.44,151.77c.97-.03,1.82.07,2.77.29.24.05.47.11.72.16q.27.06.54.13v.19c-.98.02-1.9-.06-2.88-.19h-.58q-.32-.29-.58-.58Z"/>
          <path class="cls-31" d="M63.58,227.39c1.13-.05,2.16.13,3.26.38v.19h-1.15v.77l-.58-.19c-.06-.19-.13-.38-.19-.58q-.67-.24-1.34-.38v-.19Z"/>
          <path class="cls-137" d="M58.4,215.3c.15.06.29.12.44.18.36.14.72.27,1.09.4.06-.19.13-.38.19-.58q.38.19.6.78c.06.19.11.37.17.56-1.05-.08-1.72-.47-2.5-1.15v-.19Z"/>
          <path class="cls-25" d="M61.85,212.61c.73.13,1.41.33,2.11.58-.62.34-1.02.38-1.73.38-.06.19-.13.38-.19.58-.13-.19-.25-.38-.38-.58h.38c-.06-.32-.13-.63-.19-.96Z"/>
          <path class="cls-70" d="M101.2,134.88c.4.03.79.06,1.19.08q.33.02.67.05c.55.05,1.06.13,1.6.25v.19c-.63-.06-1.27-.13-1.92-.19v.38c-.44-.06-.89-.13-1.34-.19-.06-.19-.13-.38-.19-.58Z"/>
          <path class="cls-49" d="M71.68,201.47c.17,0,.35,0,.52,0,.13,0,.26,0,.4,0v.19c-.32.06-.63.13-.96.19-.06.32-.13.63-.19.96q-.58-.19-.78-.58c-.06-.13-.12-.25-.18-.38-.13-.06-.25-.13-.38-.19.58-.19.97-.21,1.57-.2Z"/>
          <path class="cls-55" d="M74.71,197.45c.32.02.63.05.95.07.18.01.35.03.53.04q.22.04.44.08c.06.13.13.25.19.38.38.14.76.27,1.15.38-.19.13-.38.25-.58.38q-.71-.26-1.34-.58v-.38c-.38.06-.76.13-1.15.19-.06-.19-.13-.38-.19-.58Z"/>
          <path class="cls-87" d="M93.33,217.99c.63.06,1.27.13,1.92.19v.19h-.96c.06.19.13.38.19.58q-.19.29-.38.58-.38-.19-.52-.58-.03-.19-.06-.38c.06-.06.13-.13.19-.19l-.38-.38Z"/>
          <path class="cls-39" d="M80.66,193.42c.68.33,1.29.73,1.92,1.15-.06.63-.13,1.27-.19,1.92h-.19c-.04-.22-.08-.44-.12-.67-.24-.97-.78-1.65-1.42-2.4Z"/>
          <path class="cls-38" d="M105.04,177.68l.38.19q-.34.94-.77,1.15-.13.49-.19.96c-.47-.7-.41-1.1-.38-1.92q.46-.2.96-.38Z"/>
          <path class="cls-147" d="M105.23,154.65c-.44.48-.89.79-1.45,1.1-.15.09-.3.17-.46.26-.13.06-.26.11-.4.17l-.38-.19c.15-.05.31-.1.47-.14q.24-.12.49-.24.14-.39.19-.77c.52-.26.96-.2,1.54-.19Z"/>
          <path class="cls-19" d="M83.16,190.16q1.84,1.18,2.5,1.92l-.19.38c-.17-.19-.33-.37-.5-.56-.56-.57-.98-.74-1.8-.78v-.96Z"/>
          <path class="cls-56" d="M83.74,178.26c.19.06.38.13.58.19v.38c.38.35.78.67,1.18.99.38.38.47.6.55,1.12-.13-.13-.25-.27-.38-.41-.64-.65-1.37-1.17-2.11-1.7.06-.19.13-.38.19-.58Z"/>
          <path class="cls-17" d="M86.61,183.25h.19c.06,1.43.03,2.53-.58,3.84-.23-.7-.14-1,0-1.73.07-.38.14-.75.2-1.13.06-.33.12-.66.18-.98Z"/>
          <path class="cls-119" d="M62.05,216.65q.49.08,1.08.25c.93.25,1.8.42,2.76.52v.19c-1.5.09-2.79-.16-4.22-.58l.38-.38Z"/>
          <path class="cls-23" d="M109.65,174.61l1.15.77-.38.38c-.06-.06-.13-.13-.19-.19-.13.51-.25,1.01-.38,1.54h-.19v-2.5Z"/>
          <path class="cls-144" d="M98.9,134.5c.24,0,.48,0,.73-.01.14,0,.27,0,.41,0q.39.02.97.21.13.4.19.77-.58.19-1,.01c-.11-.07-.23-.13-.35-.2v-.38c-.32-.06-.63-.13-.96-.19v-.19Z"/>
          <path class="cls-73" d="M73.95,185.36q2.21.15,3.26.58c-.06.13-.13.25-.19.38h-.38v-.38c-.11,0-.23,0-.34.01-.87.02-1.55.01-2.34-.4v-.19Z"/>
          <path class="cls-26" d="M69.53,177.87h2.5c.06.25.13.51.19.77-.19.13-.38.25-.58.38-.13-.32-.25-.63-.38-.96h-1.73v-.19Z"/>
          <path class="cls-116" d="M78.39,174.71q.23.08.47.16c.15.05.31.1.47.15q.38.17.58.55c-.28-.02-.55-.04-.83-.06-.15-.01-.31-.02-.47-.03-.5-.11-.69-.28-1.01-.67q.38-.19.79-.1ZM77.98,175.38c.06.19.13.38.19.58h-.38c.06-.19.13-.38.19-.58Z"/>
          <path class="cls-145" d="M62.24,162.71c.38.02.76.05,1.14.07.21.01.42.03.64.04q.26.04.52.08c.06.13.13.25.19.38q-.35.2-.77.38c-.19-.06-.38-.13-.58-.19.06-.13.13-.25.19-.38-.44-.06-.89-.13-1.34-.19v-.19Z"/>
          <path class="cls-65" d="M40.74,142.56c.46.02.92.05,1.38.07q.19,0,.39.02c.76.04,1.38.16,2.07.49v.19c-1.31-.09-2.56-.26-3.84-.58v-.19Z"/>
          <path class="cls-118" d="M65.38,207.01c.17,0,.35,0,.53.01q.26,0,.53.01c.13,0,.27,0,.41.01.06.13.13.25.19.38-.82.13-1.65.25-2.5.38,0-.62.25-.76.84-.81Z"/>
          <path class="cls-106" d="M5.43,143.52v.58c.13.13.25.25.38.38q-.7.58-1.34.58v.38c-.13-.06-.25-.13-.38-.19.44-.57.89-1.14,1.34-1.73Z"/>
          <path class="cls-45" d="M65.89,129.32c1.21-.04,2.28.11,3.45.38v.19h-1.15c-.06.13-.13.25-.19.38-.06-.19-.13-.38-.19-.58-.63-.06-1.27-.13-1.92-.19v-.19Z"/>
          <path class="cls-96" d="M129.22,128.16l.38.19c-.14.26-.29.51-.43.77q-.12.21-.24.43c-.09.11-.19.22-.28.34h-.77c.3-.73.77-1.19,1.34-1.73Z"/>
          <path class="cls-25" d="M83.54,212.23q.58.19.77.58c.13-.19.25-.38.38-.58.13.06.25.13.38.19-.31.39-.63.78-.96,1.15h-.38q-.2-.46-.38-.96l.19-.38Z"/>
          <path class="cls-120" d="M63.01,176.72h1.92c.06.19.13.38.19.58-.32-.02-.63-.05-.95-.07-.18-.01-.35-.03-.53-.04q-.22-.04-.44-.08l-.19-.38Z"/>
          <path class="cls-53" d="M83.54,162.52v.38q-1.25.43-1.74.19c-.12-.06-.25-.13-.37-.19.7-.7,1.19-.58,2.11-.38Z"/>
          <path class="cls-21" d="M84.5,162.33h1.15c-.13.25-.25.51-.38.77-.32-.06-.63-.13-.96-.19-.06.19-.13.38-.19.58-.06-.19-.13-.38-.19-.58.19-.06.38-.13.58-.19v-.38Z"/>
          <path class="cls-124" d="M99.09,224.9h2.69q-1.2.6-1.94.4c-.14-.04-.28-.07-.42-.11-.11-.03-.21-.06-.32-.09v-.19ZM100.24,225.47h.38c-.06.13-.13.25-.19.38-.06-.13-.13-.25-.19-.38Z"/>
          <path class="cls-36" d="M79.32,199.56q-.23.07-.47.14-.52.19-.65.65c-.01.12-.02.24-.04.36-.26-.13-.51-.26-.77-.38v-.38q1.27-.6,1.92-.38Z"/>
          <path class="cls-74" d="M57.82,198.41l.38.19q-.14.37-.38.77c-.26.06-.51.13-.77.19q-.25.38-.38.77c.08-.93.47-1.31,1.15-1.92Z"/>
          <path class="cls-129" d="M148.22,182.87c.19.06.38.13.58.19-.06.25-.13.51-.19.77v-.38h-.38v-.58ZM147.84,183.06c.13.19.25.38.38.58q-.29.48-.58.96c-.23-.7-.1-.89.19-1.54Z"/>
          <path class="cls-86" d="M72.99,173.46c.65.15,1.28.36,1.92.58q-.22.3-.58.58-.61-.06-1.15-.19c-.06-.32-.13-.63-.19-.96Z"/>
          <path class="cls-103" d="M81.14,162.5q.29,0,.59,0c.19,0,.39,0,.59,0q.23,0,.46,0v.19c-.51.06-1.01.13-1.54.19-.06.19-.13.38-.19.58-.13-.06-.25-.13-.38-.19.06-.13.13-.25.19-.38l-.38-.19q.19-.19.67-.21Z"/>
          <path class="cls-64" d="M88.92,161.56l.19.38h-2.5c.67-.67,1.42-.65,2.3-.38Z"/>
          <path class="cls-141" d="M123.47,200.14l.38.19c-.06.19-.13.38-.19.58-.13-.06-.25-.13-.38-.19.06-.19.13-.38.19-.58ZM123.47,200.91v.38c.13.06.25.13.38.19-.45-.05-.9-.11-1.34-.19-.06-.13-.13-.25-.19-.38.48-.24.65-.15,1.15,0Z"/>
          <path class="cls-20" d="M77.4,186.13c.28.05.55.1.83.16.15.03.31.06.47.09.48.15.69.34,1.01.72-.32-.06-.63-.13-.96-.19v.38h-.38v-.77c-.32-.06-.63-.13-.96-.19v-.19Z"/>
          <path class="cls-135" d="M62.81,200.52h1.54v.58c-.57-.06-1.14-.13-1.73-.19l.19-.38Z"/>
          <path class="cls-33" d="M83.93,169.43c.61.26.77.38,1.15.96q-.26.29-.58.58h-.38l-.19-1.54Z"/>
          <path class="cls-44" d="M74.01,130.43c.64.03.95.08,1.48.42q-1.49.22-1.92,0c-.06.13-.13.25-.19.38-.06-.19-.13-.38-.19-.58q.19-.19.83-.23Z"/>
          <path class="cls-57" d="M130.95,106.67c-.32.25-.63.51-.96.77-.06-.06-.13-.13-.19-.19-.26-.04-.52-.08-.78-.11-.25-.03-.5-.06-.76-.08v-.19c.91-.18,1.76-.21,2.69-.19Z"/>
          <path class="cls-140" d="M107.54,98.22l.38.38-.19.38h1.34v.19c-.34.01-.69.02-1.03.02-.19,0-.38,0-.58.01q-.5-.04-.88-.42c.12-.06.25-.12.37-.18q.38-.17.59-.4Z"/>
          <path class="cls-154" d="M28.84,141.79q.38.19.6.78c.06.19.11.37.17.56q-.19.1-.38.19c-.25-.19-.51-.38-.77-.58h.38v-.96Z"/>
          <path class="cls-91" d="M114.64,136.99h.96q.22.72,0,1.15-.37-.14-.77-.38-.14-.41-.19-.77Z"/>
          <path class="cls-102" d="M82.97,240.25l.38.19h.64c.6,0,1.09.05,1.67.19v.19c-.44.01-.88.02-1.32.02q-.37,0-.74.01-.63-.04-1.01-.42l.38-.19Z"/>
          <path class="cls-26" d="M66.08,201.48c.63.06,1.27.13,1.92.19-.32.25-.63.51-.96.77l-.96-.96Z"/>
          <path class="cls-26" d="M64.16,190.93l.38.19v1.15l-1.15-.58c.25-.13.51-.25.77-.38v-.38Z"/>
          <path class="cls-87" d="M83.54,188.62h.38c.06.38.13.76.19,1.15q-.19.1-.38.19c-.19-.13-.38-.25-.58-.38.13-.32.25-.63.38-.96Z"/>
          <path class="cls-125" d="M35.52,182.81c.14.02.28.04.42.06-.45.5-.93.84-1.54,1.15-.13-.06-.25-.13-.38-.19q.83-.94,1.5-1.02Z"/>
          <path class="cls-52" d="M28.84,140.64c.44.06.89.13,1.34.19-.19.06-.38.13-.58.19v.77c-.19-.06-.38-.13-.58-.19-.06-.32-.13-.63-.19-.96Z"/>
          <path class="cls-15" d="M88.92,139.68l.38.19v.58h1.15v.19q-1.43.05-2.11-.38l.58-.58Z"/>
          <path class="cls-61" d="M24.24,136.61q1.27-.05,1.92.38h-.77c-.06.13-.13.25-.19.38-.06-.19-.13-.38-.19-.58q-.39-.14-.77-.19ZM24.81,137.38q.19.1.38.19c-.13.13-.25.25-.38.38v-.58Z"/>
          <path class="cls-142" d="M85.65,192.46c.56.46.67.83.77,1.54-.32-.06-.63-.13-.96-.19v-.38h.38c-.06-.32-.13-.63-.19-.96Z"/>
          <path class="cls-139" d="M33.29,178.33q.17.06.35.12c-.61.54-1.11.68-1.92.77q.95-.99,1.57-.89Z"/>
          <path class="cls-50" d="M6.39,166.36l.38.19q.12.4.22.88c.03.16.06.32.1.48.02.12.05.24.07.37-.06-.13-.13-.25-.19-.38-.19-.06-.38-.13-.58-.19v-1.34Z"/>
          <path class="cls-22" d="M51.68,134.11c.8-.02,1.53,0,2.3.19v.19c-.15.03-.3.06-.46.08q-.5.08-.89.3v-.38c-.32-.06-.63-.13-.96-.19v-.19Z"/>
          <path class="cls-11" d="M34.98,125.48h-.58c-.06.25-.13.51-.19.77q-.48-.19-.96-.38c.59-.59.97-.62,1.73-.38Z"/>
          <path class="cls-95" d="M97.94,106.09l.19.38c-.85.2-1.33.2-2.11-.19v-.19q1.27-.22,1.92,0Z"/>
          <path class="cls-36" d="M81.82,214.15h1.15c-.49.54-.81.86-1.54.96.13-.32.25-.63.38-.96Z"/>
          <path class="cls-49" d="M63.58,201.87l.19.38c.19.06.38.13.58.19q-.91.94-1.34,1.15.09-.21.18-.43c.17-.43.3-.84.4-1.3Z"/>
          <path class="cls-82" d="M115.6,189.97c.38.32.76.63,1.15.96l-.38.19q-.5-.18-.96-.38l.19-.77Z"/>
          <path class="cls-69" d="M81.82,171.35h.58q-.14,1.1-.58,1.54c-.19-.59-.19-.95,0-1.54Z"/>
          <path class="cls-18" d="M58.21,162.52c.19.06.38.13.58.19.06.19.13.38.19.58-.32.06-.63.13-.96.19q0-.77.19-.96Z"/>
          <path class="cls-100" d="M75.87,151.77c.27.02.54.05.82.07.15.01.3.03.46.04.47.08.81.23,1.22.46-.96.33-1.62,0-2.5-.38v-.19Z"/>
          <path class="cls-121" d="M37.48,151.58q.36.1.77.38c.19.51.28,1,.38,1.54-.65-.52-.85-1.16-1.15-1.92Z"/>
          <path class="cls-101" d="M57.25,147.74c.3-.02.61-.03.91-.04q.25-.01.51-.02c.58.07.83.25,1.26.63-.3-.02-.61-.05-.91-.07-.17-.01-.34-.03-.51-.04-.49-.08-.83-.22-1.26-.46Z"/>
          <path class="cls-84" d="M87.19,210.31c.44.06.89.13,1.34.19-.06.13-.13.25-.19.38h-1.15v-.58Z"/>
          <path class="cls-148" d="M81.05,209.93l.38.19q-.14.37-.38.77-.38.16-.77.19c-.13-.06-.25-.13-.38-.19.38-.32.76-.63,1.15-.96Z"/>
          <path class="cls-115" d="M69.34,196.88q-.34.74-.77.96c-.06-.25-.13-.51-.19-.77q.38-.19.96-.19ZM68.19,197.84l.38.19-.38-.19Z"/>
          <path class="cls-137" d="M59.55,192.08h.77c.13.19.25.38.38.58l-.77.38c-.19-.25-.38-.51-.58-.77l.19-.19Z"/>
          <path class="cls-61" d="M85.27,187.47h.58c-.24.7-.32.92-.96,1.34.13-.44.25-.89.38-1.34Z"/>
          <path class="cls-112" d="M57.06,165.98l.77.19c.03.15.06.3.08.46q.08.5.3.89-.36-.12-.77-.38-.24-.6-.38-1.15Z"/>
          <path class="cls-6" d="M49.38,144.48q1.27-.05,1.92.38c-.44.13-.89.25-1.34.38v-.58c-.19-.06-.38-.13-.58-.19Z"/>
        </g>
        <g>
          <path class="cls-92" d="M115.28,91.18c-.36.44-.83.69-1.32.84l-1.89.2c-2.59.27-5.1,1.24-7.38,2.48.43.26.86.51,1.28.67,4.39,2.56,2.23,3.09,2.23,3.09l-5.26-2.27c-.2.02-19.38,9.86-24.61,12.72-1.05.51-2.09,1.12-3.19,1.24s-3.06-.39-4.09-1.58c-.8-.92-1.21-1.98-1.64-3.15-1.72-5.85-7.98-28.33-9.16-33.83-.77-3.54-1.57-7.38-1.45-11.01-.05-.5.08-1.11.33-1.64l1.52.14c4.17.47,7.85,3,9.56,6.85.03.3.26.58.28.77s.05.5.17.69l6.47,32.2c9.73-4.03,23.32-7.76,23.32-7.76.3-.03,2.79-3.11,4.02-3.84,1.14-.62,2.4-1.05,3.7-1.19s3.53.13,5.12.87c.74.33,1.6.84,2.08,1.59.37.67.12,1.19-.22,1.73h.1s.02.19.02.19h0Z"/>
          <path class="cls-152" d="M56.82,63.82c-.3,3.6,0,10.1,3.7,19.2.4.9,1.4,1.3,2.3,1,2.4-1,7.2-2.7,10.8-1.7,1.1.3,2.1-.6,1.9-1.7-1.3-6.6-5.3-22-12.8-22.3-3.1,0-5.6,2.4-5.9,5.5Z"/>
        </g>
        <path class="cls-152" d="M75.72,127.44c-5.6,2.4-11.8,3.6-18,3.6s-8.8-.6-13-1.9l-5.6-1.6s-.6-9.5,1.6-16.3c1.8-5.6,1.8-11.4.4-17.1l-6.3-25.3c-.7-2.9.3-5.8,2.7-7.9l3.3-2.9h0l4-3.7h9.1s2.5,1.3,5.5,3.4c.7.5,1.4,1,2.1,1.5,3.9,3,8,7.1,8.4,11.1l.7,7.9c1,10.8,2.3,21.5,4.6,32.1.8,3.7,1,8.1.5,17h0v.1h0Z"/>
        <path class="cls-76" d="M85.8,103.09c-.4.36-.84.62-1.34.7-.56.2-1.26.03-1.9.05-2.66,0-5.2.61-7.61,1.59.42.27.84.55,1.16.86,4.06,2.99,1.86,3.37,1.86,3.37l-4.89-2.91c-.26-.12-20.49,7.44-26.04,9.45-5.55,2.01-2.16.78-3.3.88-1.49,0-3.06-.8-3.95-2.08-.66-.93-1.01-2.19-1.19-3.29-1.01-6.02-4.5-29.11-4.93-34.7-.25-3.63.69-3.15,1.33-6.68.11-.57,1.09-1.32,1.37-1.74l4.04-1.58c4.07.97,2.7,1.68,3.85,5.73l.31.85c.07.19.17.47.14.69l2.51,32.71c10.14-2.83,24.07-4.91,24.07-4.91.28-.1,3.15-2.74,4.44-3.31,1.22-.44,2.44-.89,3.78-.73,1.71.02,3.49.54,5.01,1.48.71.49,1.55,1.03,1.82,1.79s.03,1.26-.37,1.62l-.19.07h0l.03.09Z"/>
        <path class="cls-152" d="M31.93,65.23c-.61,3.81-.71,10.76,2.66,20.93.26.65.99,1.11,1.68.94,2.39-.75,7.97-2.16,11.79-.47.91.39,1.91-.34,1.81-1.38-.85-6.89-3.83-23.81-11.45-25.03-3.1-.47-5.84,1.83-6.36,5.06l-.09.04-.04-.09h0Z"/>
        <g>
          <path class="cls-24" d="M100.41,164.71c4.06,16.14,7.17,33.23,6.6,33.41l-5.63,1.44-12.71-31.82-9.57-23.91-.38-1.14c-.13-.38-.22-.66-.12-1.01-.18-2.78,1.98-5.5,5.17-6.34,3.2-.84,6.51.59,7.61,3.28.25.76.66,1.36,1.01,2.09,2.67,4.91,5.55,14.28,7.93,24.03l.09-.03h0Z"/>
          <path class="cls-111" d="M102.31,205.67c.58.82,1.55,1.3,2.58,1.29.72.05,20.79-9.37,21.17-9.93,3.3-4.31-20.24.06-20.24.06l-5.29,3.03s1.11,4.55,1.83,5.41l-.09.05h0l.05.09Z"/>
          <path class="cls-24" d="M92.82,140.04h0c0-3.8-3.1-7-6.9-7.2l-35.3-2.6c-5.1.2-9,4.5-8.8,9.6h0c.3,5.1,4.6,9.1,9.7,8.9l34.2-2c4,0,7.2-2.7,7.1-6.6h0v-.1h0Z"/>
        </g>
        <path class="cls-155" d="M38.22,118.24s-5.3,27.8,9.8,30.5h26.1c-4.4-13.9,7.5-17.8,31.9-15.8l-31-16.1c-1.4,6-14.2,6.4-36.8,1.4h0Z"/>
      </g>
    </g>
  </g>
</svg>