<?xml version="1.0" encoding="UTF-8"?>
<svg id="Ebene_2" data-name="Ebene 2" xmlns="http://www.w3.org/2000/svg" viewBox="0 0 99.45 189.54">
  <defs>
    <style>
      .cls-1 {
        fill: #d9b6b6;
      }

      .cls-2 {
        fill: none;
        stroke: #630;
        stroke-linecap: round;
        stroke-miterlimit: 10;
      }

      .cls-3 {
        fill: #d9a2a0;
      }

      .cls-4, .cls-5 {
        fill: #d9baba;
      }

      .cls-4, .cls-6 {
        isolation: isolate;
        opacity: .5;
      }

      .cls-7, .cls-6 {
        fill: #603813;
      }

      .cls-8 {
        fill: #8b2b0e;
      }

      .cls-9 {
        fill: #273758;
      }

      .cls-10 {
        fill: #c69696;
      }

      .cls-11 {
        fill: #e6e6e6;
      }

      .cls-12 {
        fill: #3f6138;
      }
    </style>
  </defs>
  <g id="Layer_1" data-name="Layer 1">
    <g id="german-girl-kneeling">
      <path class="cls-11" d="M34.19,99.83l-3.2-30c-.4-3.3.1-8.8,3.7-9.9l5.6-3.6,2.7-2.1,9.1,1s1.5,1.9,4.5,3c11.3,4.4,8.8,2.9,9.4,17.2l-.3,9.2c-.3,8.2-.4,16.3-.1,24.5-10.3,2.4-20.4,1.2-30.4-3.5l-.8-5.9h-.2.1-.1v.1Z"/>
      <g>
        <path class="cls-8" d="M74.99,40.43c.5-4.7-1.3-8.5-2.7-12.4-.6-1.8-1-4.9-2.2-6.3-1.4-1.9-5.3-1.5-7.3-1.8-7.3-1.1-14.7-1.3-22.2-1.3s-3.6-1-4.9,2.2c-.9,2-1.3,2.8-1.3,2.8-2.7,3.7-6.7,5.7-8.7,10.6-1.5,4-1.5,9.1.5,12.3.1-1.6.6-3.7,1.1-5,1.5,1.4,2.3,3.9,3.7,5.4s3.1,2.9,4.8,3.8c.3-1.4,0-3.3.5-4.5,1,3.3,4,5.1,6.2,6.7.1-1.9,0-4.3,1.4-3.1.4.3.8,1.7,1.2,2.2s1,.9,1.6,1.3c1.7,1.3,2.4,1.7,4.3.5,1.3-1,3-2.3,4.1-3.6.5,1.2,0,3.2-.2,4.6,2,.3,4.6-1.9,6.1-3.7.2,1.1-.2,2.3,0,3.4,2.6,0,7.7-4.3,9.2-7.1,1.1,1.2,1.8,3.8,1.3,5.7,2.4-3.2,3-8.5,3.5-12.8h-.2.2v.1Z"/>
        <path class="cls-10" d="M48.29,58.13h0c-3.2-.3-5.4-3.2-5.1-6.3l1.2-11,9.1,1-1.5,13.4c-.1,1.8-1.8,3.1-3.6,3h-.1v-.1Z"/>
        <path class="cls-5" d="M70.59,33.73c-.5,1.8-.9,3.3-1.8,4.9-.2.6-.5,1.1-.8,1.7-3.7,7-9.7,11.4-16.2,10.9-3.1-.2-5.9-1.7-8.2-4-.6-.4-1-1-1.5-1.6-3.9-4.9-6-12.2-5.2-20.2,1.4-13.3,10-23.3,19.5-22.5,1.4,0,2.8.5,4,1.1,7.3,3.3,12.2,13.3,11.1,24.7"/>
        <g>
          <path class="cls-7" d="M47.66,26.18c.2,0,.4,0,.5-.3,1.7-3.2,4.6-1.9,4.7-1.8.3,0,.6,0,.8-.3,0-.3,0-.6-.3-.8-1.4-.6-4.5-1-6.2,2.3,0,.3,0,.6.2.8h.3v.1Z"/>
          <path class="cls-7" d="M65.06,23.58s.3.2.5,0c2.8-1.1,4,1.3,4,1.4,0,.2.4.3.6.2.2,0,.3-.4.2-.6-.5-1.2-2.3-3.1-5.2-1.9-.2,0-.4.4-.3.6v.2h.2v.1Z"/>
          <path class="cls-7" d="M51.16,28.48c0,1.1.7,2.1,1.5,2.1s1.6-1,1.6-2.1-.7-2.1-1.5-2.1-1.6,1-1.6,2.1Z"/>
          <path class="cls-7" d="M65.06,28.48c0,1.1.7,2.1,1.5,2.1s1.6-1,1.6-2.1-.7-2.1-1.5-2.1-1.6,1-1.6,2.1Z"/>
          <path class="cls-2" d="M53.26,40.58c0,.2.8,3.2,3.8,3.7,2.9.4,4.5-1,4.7-1.3"/>
          <path class="cls-6" d="M61.86,33.98c1,1,1,2.5,0,3.5s-2.5,1-3.5,0,1.8.2,2.8-.7c1-1-.2-3.7.8-2.8h-.1Z"/>
          <path class="cls-3" d="M69.96,31.58c-.4,1.8-.7,3.4-1.4,5-.2.6-.4,1.1-.7,1.7-1-.7-1.5-2-1.4-3.2,0-1.8,1.6-3.2,3.4-3.4h0l.1-.1Z"/>
          <path class="cls-3" d="M48.36,31.38c2,0,3.6,1.5,3.5,3.2s-1.9,2.9-3.9,2.8-3.6-1.5-3.5-3.2,1.9-2.9,3.9-2.8Z"/>
        </g>
        <path class="cls-4" d="M43.89,47.03h-.2c-.6-.5-1-1-1.5-1.6-3.9-4.9-6-12.2-5.2-20.1,1.4-13.3,10-23.3,19.5-22.5,1.4,0,2.8.5,4,1.1-8,5-22.5,19.1-16.7,43.2h.1v-.1Z"/>
        <g>
          <path class="cls-5" d="M41.09,25.73c.8,3.1-.1,5.9-2.1,6.4s-4.1-1.6-4.9-4.8.1-5.9,2.1-6.4c1.8-.5,4.1,1.6,4.9,4.8Z"/>
          <path class="cls-4" d="M41.09,25.73c.8,3.1-.1,5.9-2.1,6.4s-4.1-1.6-4.9-4.8.1-5.9,2.1-6.4c1.8-.5,4.1,1.6,4.9,4.8Z"/>
        </g>
        <path class="cls-8" d="M70.79,25.83c.5,4.5,2,3.8-1.1,12.7s-1.3,4.8-2.1,7.1c-.7,2.1-2.6,3.8-2.5,6,1.4-.7,4.4-2.7,5.5-3.9,2.2-2.7,2-9.1,2.1-12.5h0c0-3.3.2-8.8.2-11.3l.2-2.6c.5-6.5-.6-13.8-4.5-17.8-2.8-2.9-5.7-1.2-9-2.1-9.9-2.8-18.5-1.9-23.1,6.5-11.2,20.5-.9,33,.6,36.1.8,1.5,9,8.1,10.3,9.1-6.5-8.7-4.6-22.3-2.8-30.3.9-4,3.4-7.4,6.9-9.5h0s2.5,3.2,4,4.5c1.9,1.5,4.4,2.9,6.6,3.3-.3-.6-.8-1.3-1.1-1.9-.2-.3-.3-.8-.5-1.1,1,1.6,2.8,3,4.1,4.3,1.3,1.2,2.8,1.9,4.3,2.7,0-.6-1-3.4-1.3-4.3.4.8,1.7,1.4,2,2.3"/>
      </g>
      <g>
        <path class="cls-1" d="M56.99,159.43c-7.4-12.8-16.1-25.7-16.5-25.3l-4.6,2.6,11.6,28.3,8.7,21.2.4.9c.1.2.3.6.6.7,1.6,1.9,4.8,2.3,7.4.8,2.6-1.5,3.9-4.5,2.9-6.9-.3-.6-.4-1.3-.6-1.9-1.3-4.8-5.3-12.6-9.8-20.3h-.1v-.1Z"/>
        <path class="cls-9" d="M42.69,132.03c0-.9-.5-1.8-1.3-2.3-.5-.4-20.5-3.2-21-3-4.6,1.5,15.4,9.8,15.4,9.8l5.5.3s1.4-3.9,1.3-5h0v.2h.1Z"/>
        <path class="cls-1" d="M61.39,187.93c3.6,0,6.7-1.8,6.7-5.4l-.2-14,.8-18.4v-.3c0-4.6-3.7-8.2-8.2-8.5-4.7,0-8.5,3.5-8.6,8.2l1.6,19.1,1.1,13c.3,3.5,3.2,6.2,6.7,6.2h.2-.1v.1Z"/>
      </g>
      <g>
        <path class="cls-1" d="M37.39,159.43c-7.4-12.8-16.1-25.7-16.5-25.3l-4.6,2.6,11.6,28.3,8.7,21.2.4.9c.1.2.3.6.6.7,1.6,1.9,4.8,2.3,7.4.8s3.9-4.5,2.9-6.9c-.3-.6-.4-1.3-.6-1.9-1.3-4.8-5.3-12.6-9.8-20.3h-.1v-.1Z"/>
        <path class="cls-9" d="M22.99,132.03c0-.9-.5-1.8-1.3-2.3-.5-.4-20.5-3.2-21-3-4.6,1.5,15.4,9.8,15.4,9.8l5.5.3s1.4-3.9,1.3-5h0v.2h.1Z"/>
        <path class="cls-1" d="M42.09,187.43c3.6,0,6.4-1.1,6.4-4.7v-14.8l.9-18.4v-.3c0-4.6-3.7-8.2-8.2-8.5-4.7,0-8.5,3.5-8.6,8.2l1.6,19.1,1.2,14.3c.3,3.5,3.1,4.9,6.5,4.9h.2v.2Z"/>
      </g>
      <g>
        <path class="cls-12" d="M65.89,138.13l-15.1,6.3-17.9-6.9h0s-1.4-5-.9-11.3c.3-2.5.9-4.9,1.5-7.2,1.3-4,1.8-8,1.8-12.2.3-.8.5-1,.5-1,9.7,3.7,19.4,4.2,28.9,1.2,0,.5,0,.8.2,1.3.2,2.2.5,4.4.9,6.6,0,.6.2,1,.2,1.5.2.9.3,1.9.4,2.8.6,4.1.7,9-.2,18.7h-.2v.2h-.1,0Z"/>
        <path class="cls-12" d="M35.79,106.23s-11.9,28-12.4,54.5c0,1.4.8,2.5,1.9,3,7.4,2.3,34.5,9.6,47.9,0,.8-.7,1.4-1.7,1.2-2.9-.8-7.7-4-38.6-9.4-53.5-9.7,3.7-19.5,3.2-29.4-1h.2v-.1Z"/>
      </g>
      <g>
        <path class="cls-1" d="M28.99,92.73h0c.9,1.2,1.3,3,1,4.5l-5.2,31.8-6.4-2.6,2.5-30.8c.3-4.7,5.4-6.5,8-2.9h.1Z"/>
        <path class="cls-1" d="M26.49,101.23h0c-3.3.5-6.2-3.5-5.4-7.7l4.9-26.2c.6-4.2,3.8-6.8,7.1-5.9h0c3.8,1,6.1,6.2,4.6,10.8l-7.9,24.5c-.7,2.2-1.8,4.4-3.6,4.5h.3Z"/>
        <path class="cls-11" d="M28.19,62.53c-3,3.2-6.8,9.7-8.9,23.1l13.5,5.4,1.4-5.2c3.6-8.1,6.2-15.5,5.1-20.5-1-4.7-7.6-6.3-10.9-2.7h-.2v-.1Z"/>
        <path class="cls-1" d="M23.29,139.03l1.5-10.5-6.4-2.6v.4c-7.6,4.4-8.4,10.8-8.4,10.8-.9,6.3.7,6.9,2,6.5.9-.3,1.7-1.1,2.3-2.1,2.1-4.5,7-8.8,7-8.8,0,9,2,6.4,2,6.4h0v-.1Z"/>
      </g>
      <g>
        <path class="cls-1" d="M69.09,96.43h0c-.4,1.5-.4,3.1.3,4.5l14.1,28.1,5.2-4.3-11.3-27.9c-1.7-4.3-7-4.5-8.4-.4h.1Z"/>
        <path class="cls-1" d="M70.99,101.23h0c3.3.3,8.1-1.2,5.1-7.6l-5.8-25.4c-.8-4-4-6.4-7.2-5.4h0c-3.6,1.1-5.8,6.2-4.2,10.6l8.4,23.6c.7,2,1.8,4.2,3.6,4.3h.1v-.1Z"/>
        <path class="cls-11" d="M66.89,62.83c3,3.1,6.7,9.5,8.6,22.5l-13,5.1-1.3-5c-3.4-7.9-6.1-15.1-5-20,1-4.6,7.4-6,10.7-2.5h0v-.1Z"/>
        <path class="cls-5" d="M86.99,124.53c2.3-.3,7.5,0,12,3.8.7.6.2,1.6-.6,1.6h0s2,.8.5,2.9c0,0,1.2,2.7-2,1.7l-7.3-2s1.7,1.3,2.7,2.5c.5.6,0,1.4-.7,1.2-.8-.2-2.1-.8-4.1-2,0,0-8.6-5.8-2.7-9,.8-.5,1.5-.5,2.5-.6h-.3v-.1Z"/>
      </g>
    </g>
  </g>
</svg>