<?xml version="1.0" encoding="UTF-8"?>
<svg id="Layer_2" data-name="Layer 2" xmlns="http://www.w3.org/2000/svg" viewBox="0 0 74.51 246.68">
  <defs>
    <style>
      .cls-1, .cls-2 {
        fill: #603813;
      }

      .cls-3 {
        fill: #273758;
      }

      .cls-4 {
        fill: #e6e6e6;
      }

      .cls-5 {
        fill: #c69696;
      }

      .cls-6 {
        fill: #d9a2a0;
      }

      .cls-7, .cls-2 {
        isolation: isolate;
        opacity: .5;
      }

      .cls-7, .cls-8 {
        fill: #d9baba;
      }

      .cls-9 {
        fill: #8b2b0e;
      }

      .cls-10 {
        fill: #3f6138;
      }

      .cls-11 {
        fill: #d9b6b6;
      }

      .cls-12 {
        fill: none;
        stroke: #630;
        stroke-linecap: round;
        stroke-miterlimit: 10;
      }
    </style>
  </defs>
  <g id="Layer_1-2" data-name="Layer 1">
    <g id="girl-slightleft-pointing">
      <g>
        <path class="cls-11" d="M32.06,90.78h0c.9,1.3,1.4,2.9,1.2,4.5l-4.3,32-6.5-2.4,1.6-30.9c.2-4.7,5.3-6.7,8-3.2h0Z"/>
        <path class="cls-11" d="M29.86,99.28h0c-3.4.5-6.2-3.4-5.7-7.5l4.3-26.4c.6-4.2,3.7-6.8,7-6h0c3.8.9,6.3,6,5,10.6l-7.1,24.7c-.6,2.1-1.6,4.4-3.4,4.6h-.1,0Z"/>
        <path class="cls-4" d="M30.56,60.68c-3,3.3-6.6,9.9-8.2,23.3l13.5,4.9,1.2-5.2c3.3-8.2,5.8-15.7,4.6-20.7-1.2-4.7-7.8-6-11.1-2.3Z"/>
        <path class="cls-11" d="M34.72,130.37l-5.76-8.86-6.54,2.29.25.31c-2.7,8.2.9,13.65.9,13.65,3.33,5.29,5.01,4.81,5.77,3.53.58-.87.62-2.07.22-3.03-1.46-4.76-.43-11.19-.43-11.19,5.89,6.81,5.57,3.44,5.57,3.44h0v-.14s.01,0,.01,0Z"/>
      </g>
      <path class="cls-4" d="M60.46,100.18l5.3-29.7c.6-3.3.5-8.8-3-10.1l-5.3-4-2.5-2.3-9.1.3s-1.6,1.8-4.7,2.7c-11.6,3.6-9,2.3-10.6,16.5l-.4,9.2c-.3,8.2-.8,16.3-1.6,24.5,10.1,3.1,20.3,2.6,30.6-1.3l1.2-5.8h.2-.1,0Z"/>
      <g>
        <path class="cls-9" d="M23.96,37.98c-.2-4.7,1.9-8.4,3.6-12.2.7-1.7,1.4-4.8,2.6-6.1,1.5-1.8,5.4-1.1,7.4-1.3,7.4-.6,14.8-.3,22.2.3,2.3.2,3.7-.7,4.7,2.5.7,2.1,1.1,2.9,1.1,2.9,2.4,3.9,6.3,6.2,7.9,11.2,1.2,4.1.9,9.2-1.4,12.2,0-1.6-.3-3.7-.7-5.1-1.6,1.3-2.6,3.7-4.1,5.1s-3.3,2.7-5.1,3.5c-.2-1.4.2-3.3-.2-4.5-1.2,3.2-4.3,4.8-6.7,6.2,0-1.9.3-4.3-1.2-3.2-.4.3-.9,1.6-1.4,2.1s-1.1.8-1.7,1.2c-1.8,1.2-2.5,1.5-4.3.2-1.2-1.1-2.8-2.5-3.8-3.9-.6,1.2-.2,3.2-.1,4.6-2,.2-4.5-2.2-5.8-4.1-.3,1.1,0,2.3-.2,3.4-2.6-.2-7.4-4.8-8.7-7.7-1.2,1.1-2.1,3.7-1.7,5.6-2.2-3.4-2.4-8.7-2.6-13h.2v.1h0Z"/>
        <path class="cls-5" d="M49.36,57.58h0c3.2-.1,5.6-2.8,5.5-5.9l-.4-11.1-9.1.3.5,13.5c0,1.8,1.6,3.2,3.4,3.2h.1Z"/>
        <path class="cls-8" d="M28.86,31.68c.4,1.8.7,3.4,1.4,5,.2.6.4,1.1.7,1.7,3.2,7.3,8.9,12.1,15.4,12,3.1,0,6-1.3,8.5-3.4.6-.4,1.1-.9,1.6-1.5,4.2-4.6,6.9-11.7,6.6-19.8-.4-13.4-8.3-24-17.9-23.8-1.4,0-2.8.3-4.1.8-7.5,2.8-13.1,12.4-12.8,23.8"/>
        <g>
          <path class="cls-1" d="M51.36,26.28c-.2,0-.4,0-.5-.3-1.7-3.2-4.6-1.9-4.7-1.8-.3,0-.6,0-.8-.3,0-.3,0-.6.3-.8,1.4-.6,4.5-1,6.2,2.3,0,.3,0,.6-.2.8h-.3v.1Z"/>
          <path class="cls-1" d="M33.96,23.68s-.3.2-.5,0c-2.8-1.1-4,1.3-4,1.4,0,.2-.4.3-.6.2-.2,0-.3-.4-.2-.6.5-1.2,2.3-3.1,5.2-1.9.2,0,.4.4.3.6v.2h-.2v.1h0Z"/>
          <path class="cls-1" d="M47.86,28.58c0,1.1-.7,2.1-1.5,2.1s-1.6-1-1.6-2.1.7-2.1,1.5-2.1,1.6,1,1.6,2.1Z"/>
          <path class="cls-1" d="M33.96,28.58c0,1.1-.7,2.1-1.5,2.1s-1.6-1-1.6-2.1.7-2.1,1.5-2.1,1.6,1,1.6,2.1Z"/>
          <path class="cls-12" d="M45.76,40.68c0,.2-.8,3.2-3.8,3.7-2.9.4-4.5-1-4.7-1.3"/>
          <path class="cls-2" d="M37.16,34.08c-1,1-1,2.5,0,3.5s2.5,1,3.5,0-1.8.2-2.8-.7c-1-1,.2-3.7-.8-2.8h.1,0Z"/>
          <path class="cls-6" d="M29.06,31.68c.4,1.8.7,3.4,1.4,5,.2.6.4,1.1.7,1.7,1-.7,1.5-2,1.4-3.2,0-1.8-1.6-3.2-3.4-3.4h-.1v-.1Z"/>
          <path class="cls-6" d="M50.66,31.48c-2,0-3.6,1.5-3.5,3.2s1.9,2.9,3.9,2.8,3.6-1.5,3.5-3.2-1.9-2.9-3.9-2.8Z"/>
        </g>
        <path class="cls-7" d="M54.56,46.88h.2c.6-.4,1.1-.9,1.6-1.5,4.2-4.6,6.9-11.7,6.6-19.7-.4-13.4-8.3-24-17.9-23.8-1.4,0-2.8.3-4.1.8,7.6,5.6,21.1,20.7,13.6,44.3h0v-.1h0Z"/>
        <g>
          <path class="cls-8" d="M58.86,25.78c-1,3-.3,5.9,1.6,6.5s4.2-1.3,5.2-4.4.3-5.9-1.6-6.5c-1.8-.6-4.2,1.3-5.2,4.4Z"/>
          <path class="cls-7" d="M58.86,25.78c-1,3-.3,5.9,1.6,6.5s4.2-1.3,5.2-4.4.3-5.9-1.6-6.5c-1.8-.6-4.2,1.3-5.2,4.4Z"/>
        </g>
        <path class="cls-9" d="M29.16,23.78c-.8,4.4-2.3,3.7.2,12.7s1,4.9,1.6,7.2c.5,2.1,2.3,4,2.1,6.2-1.4-.8-4.2-3-5.2-4.3-2-2.8-1.4-9.2-1.2-12.6h-.1c.2-3.3.4-8.8.6-11.3v-2.6c0-6.5,2.6-12.76,6.8-16.46,4.3-2.54,6.94-.91,10.24-1.61,10.1-2.1,16.46-1.42,20.46,7.28,9.7,21.3-1.5,33-3.2,36-.9,1.4-9.5,7.4-10.9,8.3,7.1-8.2,6.2-21.9,4.9-30-.6-4-2.9-7.6-6.2-10h0s-1.2.5-2.97,1.33c-1.22.12-1.53.22-1.94.23-.79.25-.68.12-1.57.53-.64-.12-.99-.2-.99-.2q-.25-.1-.83-.02c-1.82.61-1.59.68-3.33,1.07-1,.03-2.52-.99-2.12-1.89-3.15,2.38-4.65,6.55-5.05,7.45"/>
        <path class="cls-9" d="M56.9,19.61l.72-.4c0-6.5-1.54-11.6-5.74-15.3-3-2.7-6.74-.23-10.04-.93-6.61,4.02-5.18,3.03-9.18,11.73-.04,1.09,0,0-.31,1.31-.32.86.31-1.31,0,.39,0,0,.13-.66.13.61l3.09-2.21h0s2.7,3,4.3,4.2c2,1.4,4.6,2.6,6.8,2.8-.3-.6-.9-1.2-1.2-1.8-.2-.3-.4-.8-.6-1.1,1.1,1.5,3,2.8,4.4,4,1.4,1.1,2.9,1.7,4.5,2.4.1-.6-1.2-3.3-1.6-4.2.5.8,2.2,1.46,3.28,1.47"/>
      </g>
      <g>
        <path class="cls-11" d="M46.26,197.58c1.2,18.7,3.7,38.1,4.3,38.1l5.8-.4,2-38.5,1.5-28.9v-1.2c0-.4,0-.8-.2-1.2-.7-3.1-3.6-5.3-6.9-5.1-3.3.2-6,2.9-6.2,6.1,0,.9-.2,1.7-.3,2.6-1,6.2-.7,17.2,0,28.5h0Z"/>
        <path class="cls-3" d="M57.46,242.68c0,.6-.4,1.6-.9,2.4-.5,1-1.5,1.6-2.6,1.6h-21.6c-4.9-2.6,18.2-10.9,18.2-10.9h5.7s1.3,5.8,1.1,7h.1v-.1Z"/>
        <path class="cls-11" d="M53.06,173.28h0c-3.8-.4-6.6-3.6-6.5-7.5l.8-35.3c.7-5.1,5.3-8.6,10.4-7.9h0c5.1.7,8.6,5.3,7.9,10.4l-5.3,33.8c-.5,3.9-3.4,6.9-7.3,6.5h0Z"/>
      </g>
      <g>
        <path class="cls-11" d="M28.46,197.58c1.2,18.7,3.7,38.1,4.3,38.1l5.8-.4,2-38.5,1.5-28.9v-1.2c0-.4,0-.8-.2-1.2-.7-3.1-3.6-5.3-6.9-5.1s-6,2.9-6.2,6.1c0,.9-.2,1.7-.3,2.6-1,6.2-.7,17.2,0,28.5h0Z"/>
        <path class="cls-3" d="M39.56,242.68c0,.6-.4,1.6-.9,2.4-.5,1-1.5,1.6-2.6,1.6H14.46c-4.9-2.6,18.2-10.9,18.2-10.9h5.7s1.3,5.8,1.1,7h0l.1-.1h0Z"/>
        <path class="cls-11" d="M35.16,173.28h0c-3.8-.4-6.6-3.6-6.5-7.5l.8-35.3c.7-5.1,5.3-8.6,10.4-7.9h0c5.1.7,8.6,5.3,7.9,10.4l-5.3,33.8c-.5,3.9-3.4,6.9-7.3,6.5h0Z"/>
      </g>
      <g>
        <path class="cls-10" d="M27.26,140.08l16,6.7,19-7.3h0s1.5-5.3.9-12c-.3-2.6-.9-5.2-1.6-7.6-1.4-4.2-1.9-8.5-1.9-12.9-.3-.8-.5-1.1-.5-1.1-10.3,3.9-20.5,4.4-30.6,1.3,0,.5,0,.9-.2,1.4-.2,2.3-.5,4.7-.9,7,0,.6-.2,1.1-.2,1.6-.2,1-.3,2-.4,3-.6,4.3-.7,9.5.2,19.8h.2v.1Z"/>
        <path class="cls-10" d="M59.16,106.28s12.6,29.6,13.1,57.7c0,1.5-.8,2.7-2,3.2-7.8,2.4-36.5,10.2-50.7,0-.9-.7-1.5-1.8-1.3-3.1.8-8.2,4.2-40.9,9.9-56.7,10.3,3.9,20.6,3.4,31.1-1.1h-.1Z"/>
      </g>
      <g>
        <path class="cls-11" d="M58.45,106.09h0c3.38,1.88,7.67,5.71,8.9-5.63l5.58-28.94c1.08-4.53-1.27-8.52-5.19-9.07h0c-4.5-.62-9.02,3.74-9.39,9.07l-1.69,28.44c-.19,2.49.14,5.26,2.01,6.2l-.22-.07h0Z"/>
        <path class="cls-4" d="M72.11,65.45c2.13,4.36,3.76,12.26.78,25.96l-17.11-.66.52-5.58c-.82-9.26-.83-17.51,2.41-21.8,2.92-4.06,10.9-2.72,13.25,2.15l.11.04.03-.1h0Z"/>
        <path id="hand6" class="cls-8" d="M13.59,112.58l-12.56,6.46c-.89.46-1.26,1.43-.87,2.18H.15c.39.76,1.39,1.02,2.28.56l8.86-4.55s-1.8,2.92,1.7,3.64c0,0-1.33,4.5,3.38,2.86l11.89-7.93-3.32-6.45s-15.16-.97-15.42,1.24c0,0-1.44.74,4.06,1.99Z"/>
        <path class="cls-11" d="M63.79,100.36h0c-1.47-.87-3.28-1.04-5.1-.62l-33.95,9.42,3.57,6.75,33.25-6.5c5.1-1.01,6.44-6.71,2.2-9.15l.04.1h0Z"/>
      </g>
    </g>
  </g>
</svg>