<?xml version="1.0" encoding="UTF-8"?>
<svg id="Ebene_2" data-name="Ebene 2" xmlns="http://www.w3.org/2000/svg" viewBox="0 0 98.34 322.67">
  <defs>
    <style>
      .cls-1 {
        fill: #dbd4c6;
      }

      .cls-2 {
        opacity: .37;
      }

      .cls-3 {
        fill: #332d1e;
      }

      .cls-4 {
        fill: none;
        stroke: #630;
        stroke-linecap: round;
        stroke-miterlimit: 10;
      }

      .cls-5 {
        fill: #db9673;
      }

      .cls-6 {
        fill: #d9a2a0;
      }

      .cls-7 {
        fill: #5a4a30;
      }

      .cls-8 {
        fill: #929292;
      }

      .cls-9, .cls-10 {
        isolation: isolate;
      }

      .cls-11 {
        fill: #453d29;
      }

      .cls-12, .cls-10 {
        fill: #603813;
      }

      .cls-13 {
        fill: #6c3231;
      }

      .cls-14 {
        fill: #e0a587;
      }

      .cls-15 {
        fill: #f0eada;
      }

      .cls-10 {
        opacity: .5;
      }
    </style>
  </defs>
  <g id="Ebene_1-2" data-name="Ebene 1">
    <g class="cls-9">
      <g id="Layer_1" data-name="Layer 1">
        <g id="german-man-cook-no-pot">
          <g>
            <rect class="cls-5" x="41.21" y="84.26" width="10.2" height="13.5"/>
            <path class="cls-14" d="M63.71,64.06c-.8-.4-1.9,0-2.9.6-.9-9.5-7-16.9-14.4-16.9s-13.7,7.6-14.5,17.4c-1.1-1-2.4-1.5-3.4-1-1.3.6-1.5,2.4-.4,4.1,1,1.6,2.7,2.5,4,2.1,1.1,9.2,7.1,16.2,14.4,16.2s13.2-7,14.4-16.2c1.2,0,2.5-.9,3.4-2.2,1.1-1.7.9-3.5-.4-4.1h-.2Z"/>
            <g>
              <path class="cls-12" d="M57.41,61.96c-.2,0-.3,0-.4-.2-1.6-2.8-4.1-1.7-4.2-1.7-.2,0-.5,0-.7-.2,0-.2,0-.5.2-.7,1.3-.5,4-.9,5.6,2.1,0,.2,0,.5-.2.7h-.3Z"/>
              <path class="cls-12" d="M36.51,61.96c.2,0,.3,0,.4-.2,1.6-2.8,4.1-1.7,4.2-1.7.2,0,.5,0,.7-.2,0-.2,0-.5-.2-.7-1.3-.5-4-.9-5.6,2.1,0,.2,0,.5.2.7h.3Z"/>
              <path class="cls-12" d="M39.71,63.96c0,.9.6,1.9,1.4,1.9s1.5-.9,1.5-1.9-.6-1.9-1.4-1.9-1.5.9-1.5,1.9Z"/>
              <path class="cls-12" d="M52.21,63.96c0,.9.6,1.9,1.4,1.9s1.5-.9,1.5-1.9-.6-1.9-1.4-1.9-1.5.9-1.5,1.9Z"/>
              <path class="cls-4" d="M42.31,75.86c.2.2,1.4,2.8,4.5,2.7,3.1,0,4.3-2.4,4.5-2.7"/>
              <path class="cls-13" d="M38.21,74.96c.7-1.1,2.5-1.8,4.4-2.1s3.8-.4,5.7,0c1.5.2,3.2.7,4.4,1.2.3,0,.7.3.8.6.2.5-.6.6-1.2.7-4.6.5-8.9.7-13.5,0"/>
              <path class="cls-10" d="M48.91,69.76c0,1.3-.9,2.2-2.2,2.2s-2.2-.9-2.2-2.2.9,1.3,2.2,1.3,2.2-2.5,2.2-1.3Z"/>
              <path class="cls-6" d="M57.61,66.76c1.8,0,3.3,1.4,3.2,2.8s-1.7,2.6-3.6,2.5-3.3-1.4-3.2-2.8,1.7-2.6,3.6-2.5Z"/>
              <path class="cls-6" d="M37.01,66.76c1.8,0,3.3,1.4,3.2,2.8s-1.7,2.6-3.6,2.5-3.3-1.4-3.2-2.8,1.7-2.6,3.6-2.5Z"/>
            </g>
            <path class="cls-13" d="M63.41,47.46c.6-.3,2.5-.5,1.9-1.3-.9-1.2-4-.4-5.4-.3.6-.4,1.6-.7,1.1-1.4-1.1-1.6-4.6-.7-6.3-.5.7-.7.5-1.4-.6-1.6-2.1-.5-4.4.2-6.3.8-.4-1.4-1.5-1.6-3.3-1.2-.9.2-1.5.7-2.3.9-.7.2-.5.2-.8-.2-1-1.1-1.5-1.6-3.2-1.1-2.1.6-2.8,1.7-3.9,3-.6-.4-1.7-.9-2.3,0-.5.7.3,1.8.8,2.4-1,.3-1.8.3-1.8,1.5s1.4,2.5.5,3c-1.2.6-2.6,0-2.3,1.7.2,1.4,1.6,2.3,1.7,3.7-.6,0-1.8,0-2.3.4-1.1.6-.3,1.9.3,2.5s2,1.4,1.6,2c-.3.4-1.5,0-1.9.6s0,2,.3,2.5c.2.5,1.5,1.3,1.5,1.7s-.9.7-1,1.2c0,.6.2,1.1.6,1.6.5.5.2,2.7,3.2,2,.6,0,2.2-1.8,1.8-2.2s-.7-.4-.8-.5c-.3-.5,1.2-4.5-.7-4,1.7-.8,3.5-3.8,1-4.8.8-.6,1.7-1.1,1.9-2.1,0-.5,0-1.3-.3-1.7-.2-.4-.6-.5-.9-.9,1-.5,3.9-1.6,3.6-2.7,1.2,0,2.7-.5,3.7-.9,0,0,.7-.4,1.1-.7.4.5,1.3.7,1.9.8,1,.2,3.7.2,4.9-.5.3,0,.7.2.8.2.8.2,2.4.2,3.2,0,.4.6,1.5,1.7,1.8,2.1.3.4.6,1.2,1.1,1.6,0,1.4.5,2.9,1,4.2,0,.2.4.7.4.9,0,.3-.8.8-.9,1.2-.4,1.1.3,2.3.5,3.3,0,.7-.2,1.3,0,2,0,.8.7,3.8,2.1,3.4,1.7-.4,0-2,.3-2.7,0-.4.6-.7.8-1,.6-.6,1.1-1.3,1.4-2.1.5-1.1.6-2-.4-2.8.8-1.1,4.1-3.8.9-4.4,1.5-1.3.7-4.5-.9-5.6,1.1-.5,2.8-1,3.2-2.1.5-1.2-1.2-1.8-2.4-1.7v-.2h.1,0Z"/>
          </g>
          <g>
            <g>
              <path class="cls-11" d="M35.81,304.73l-1.38,6.6s-18.68-1.97-22.86,10.06c5.43,2,27,1.77,36.36-1.45-.26-11.96-1.22-15.37-1.22-15.37"/>
              <path class="cls-3" d="M13.29,318.08c-.7.96-1.29,2.05-1.73,3.29,5.43,2,27,1.77,36.36-1.45-.03-1.52-.08-2.91-.13-4.17-4.05,1.81-8.68,2.31-13.12,2.63-7.13.52-14.34.78-21.39-.31h.01Z"/>
              <path class="cls-1" d="M27.18,179.19s1.88,89.68,8.63,125.53l10.9-.18,1.62-130.8-21.15,5.44h0Z"/>
            </g>
            <g>
              <path class="cls-1" d="M73.61,178.39c-.53.56,1.01,84.45-3.2,126.34l-10.9-.18-7.65-129.38,21.75,3.22h0Z"/>
              <path class="cls-11" d="M70.4,304.73l1.38,6.6s18.68-1.97,22.86,10.06c-5.43,2-27,1.77-36.36-1.45.26-11.96,1.22-15.37,1.22-15.37"/>
              <path class="cls-3" d="M92.92,318.08c.7.96,1.29,2.05,1.73,3.29-5.43,2-27,1.77-36.36-1.45.03-1.52.08-2.91.13-4.17,4.05,1.81,8.68,2.31,13.12,2.63,7.13.52,14.34.78,21.38-.31h0Z"/>
            </g>
            <g>
              <path class="cls-14" d="M88.25,186.73l5.76-1.7-9.98-40.59c-.61-2.53-3.58-3.77-6.38-2.99h0c-2.8.78-4.61,3.48-3.91,5.98l14.43,39.42h0l.07-.12h.01Z"/>
              <path class="cls-14" d="M91.73,199.47l1.01,4.18c.37,2.38,3.98,2.44,5.07.12.35-.7.55-1.57.51-2.59q-.01-.14,0,0c.17-2.72-.79-6.29-2.6-10.79l-.54-2.24-1.16-3.11h0l-5.79,1.6h0l1.06,3.14.07.29-.35,11.81s.74,3.94,2.69-2.5h0l.02.1h.01Z"/>
            </g>
            <g>
              <g>
                <path class="cls-14" d="M9.82,186.55l-5.79-1.59,9.18-40.78c.56-2.54,3.51-3.84,6.32-3.11h0c2.81.73,4.68,3.39,4.03,5.9l-13.66,39.69h0l-.07-.12h-.01s0,0,0,0Z"/>
                <path class="cls-14" d="M6.59,199.35l-.93,7.2c-.32,2.39-3.93-.48-5.07-2.78-.36-.69-.58-1.56-.56-2.58q.01-.14,0,0c-.22-2.72.67-6.3,2.39-10.84l.5-2.25,1.1-3.13h0l5.82,1.49h0l-1,3.16-.06.29.58,11.8s-.66,3.95-2.74-2.45h0l-.02.1h-.01s0,0,0,0Z"/>
              </g>
              <path class="cls-15" d="M71.99,144.78l15.61,6.43s-7.35-43.14-17.61-54.68c-.41-.47-.91-.84-1.45-1.12-5.2-2.65-14.37-5.66-17.1-6.53h-9.56c-3.32,1.18-17.34,6.4-19.3,10.9-2.22,5.1-9.74,35.59-9.74,35.59l14.83-2.07-5.32,47.64s37.46,5.69,53.9,0c-2.09-17.01-7.94-44.19-7.94-44.19l3.68,8.03h0Z"/>
              <path class="cls-1" d="M69.38,126.24s.06-.4.05-1.13c0-.72-.05-1.77-.14-3.06-.18-2.58-.59-6.13-1.36-9.99s-1.75-7.29-2.58-9.71c-.41-1.22-.77-2.19-1.04-2.85-.27-.66-.44-1.02-.48-1-.09.04.4,1.54,1.12,4,.72,2.45,1.62,5.87,2.39,9.7.76,3.83,1.24,7.35,1.53,9.9.29,2.55.42,4.14.51,4.14h0Z"/>
              <ellipse class="cls-7" cx="40.75" cy="111.72" rx=".97" ry="1.82" transform="translate(-2.18 .82) rotate(-1.12)"/>
              <ellipse class="cls-7" cx="53.88" cy="111.71" rx=".97" ry="1.82" transform="translate(-2.17 1.07) rotate(-1.12)"/>
              <ellipse class="cls-7" cx="40.75" cy="127.21" rx=".97" ry="1.82" transform="translate(-2.48 .82) rotate(-1.12)"/>
              <ellipse class="cls-7" cx="53.88" cy="127.22" rx=".97" ry="1.82" transform="translate(-2.48 1.08) rotate(-1.12)"/>
              <polyline class="cls-15" points="71.99 144.86 85.52 182.55 93.39 179.64 84.21 134.72"/>
              <path class="cls-8" d="M84.52,179.69c2.7-1.03,5.41-2.02,8.13-2.97.28-.1.16-.58-.12-.48-2.72.95-5.43,1.94-8.13,2.97-.28.11-.16.58.12.48h0Z"/>
              <path class="cls-1" d="M45.15,88.89l-.11,8.83-9.36,3.58c-.19.07-.32.27-.31.49l3.82,81c.31.02.62.06.93.07l-3.8-80.76,9.34-3.57c.18-.07.3-.25.31-.46l.11-9.19h-.93Z"/>
              <polyline class="cls-15" points="27.67 133.3 11.84 185.78 3.97 182.55 13.15 132.59"/>
              <path class="cls-8" d="M12.72,181.43c-2.7-1.03-5.41-2.02-8.13-2.97-.28-.1-.16-.58.12-.48,2.72.95,5.43,1.94,8.13,2.97.28.11.16.58-.12.48h0Z"/>
            </g>
            <g>
              <path class="cls-15" d="M41.7,27.96l-10.3.57-3.47,24.69s21.3,3.82,37.66-.87c-.21-8.21-2.12-21.74-2.35-24.89l-21.54.5Z"/>
              <g class="cls-2">
                <path class="cls-1" d="M63.24,27.46l-21.54.5-10.3.57-1.66,11.8c1.94.42,3.96.41,5.89-.07,3.57-.89,6.77-3.38,8.67-6.74-.74,1.3,3.25,4.14,3.98,4.54,1.91,1.07,3.55,2.31,5.7,2.86,3.58.92,6.86,1.53,10.57.61.09-.02.17-.05.25-.07-.63-6.17-1.41-12.07-1.55-14.02v.02h-.01Z"/>
              </g>
              <path class="cls-1" d="M46.76,49.53c-6.07.11-12.19.03-18.2-.79l-.63,4.48s21.3,3.82,37.66-.87c-.04-1.51-.14-3.19-.27-4.96-5.98,1.67-12.34,2.02-18.56,2.13h0Z"/>
              <path class="cls-15" d="M21.57,28.48c-3.36-5.77-1.32-14.13,4.95-16.16,2.38-.77,4.57-.33,6.97.07-.32-3.29,1.09-6.63,3.39-8.84C39.36,1.16,42.79.04,46.08,0c3.48-.04,5.96,1.33,7.87,4.53,1.48,2.49,1.4,4.78,1.88,7.59.8-.79,1.88-1.18,2.96-1.3,3.43-.38,7.02.43,9.92,2.45,4.65,3.24,7.04,11.19,4.02,16.5-.37.66-.83,1.25-1.29,1.85-1.95,2.52-4.41,3.93-7.44,4.58-3.73.81-7,.11-10.55-.91-2.14-.62-3.74-1.9-5.63-3.03-.72-.43-4.63-3.37-3.86-4.66-1.98,3.31-5.24,5.7-8.83,6.49s-7.46-.04-10.5-2.24c-1.27-.93-2.29-2.08-3.05-3.37h-.01Z"/>
            </g>
            <path class="cls-1" d="M26.02,146.31s.19-.58.43-1.66c.24-1.08.55-2.64.9-4.59.7-3.89,1.5-9.3,2.08-15.32.57-6.02.81-11.49.86-15.45.03-1.98.02-3.58-.02-4.69-.03-1.11-.07-1.72-.11-1.72s-.08.61-.13,1.72c-.06,1.68-.12,3.24-.18,4.68-.16,3.95-.46,9.4-1.03,15.4s-1.31,11.4-1.9,15.3c-.22,1.42-.46,2.96-.71,4.62-.17,1.09-.24,1.7-.2,1.71h.01Z"/>
          </g>
        </g>
      </g>
    </g>
  </g>
</svg>