<?xml version="1.0" encoding="UTF-8"?>
<svg id="Ebene_2" data-name="Ebene 2" xmlns="http://www.w3.org/2000/svg" viewBox="0 0 152.17 323.73">
  <defs>
    <style>
      .cls-1 {
        fill: #ffebe0;
      }

      .cls-1, .cls-2, .cls-3, .cls-4, .cls-5, .cls-6 {
        stroke-linecap: round;
      }

      .cls-1, .cls-3, .cls-4, .cls-5, .cls-6 {
        stroke: #03403f;
        stroke-linejoin: round;
      }

      .cls-7 {
        fill: #d9b6b6;
      }

      .cls-2 {
        stroke: #630;
        stroke-miterlimit: 10;
      }

      .cls-2, .cls-3 {
        fill: none;
      }

      .cls-8 {
        fill: #caa1a2;
      }

      .cls-9 {
        fill: #d9a2a0;
      }

      .cls-10 {
        fill: #f27406;
        opacity: .4;
      }

      .cls-10, .cls-11 {
        isolation: isolate;
      }

      .cls-4 {
        fill: #f2bd57;
      }

      .cls-5 {
        fill: #f25ca3;
      }

      .cls-12 {
        fill: #d38a17;
      }

      .cls-13 {
        fill: #d9baba;
      }

      .cls-14, .cls-11 {
        fill: #603813;
      }

      .cls-15 {
        fill: #273758;
      }

      .cls-6 {
        fill: #048c3d;
      }

      .cls-16 {
        fill: #466e9f;
      }

      .cls-11 {
        opacity: .5;
      }

      .cls-17 {
        fill: #e6e6e6;
      }
    </style>
  </defs>
  <g id="Layer_1" data-name="Layer 1">
    <g id="german-boy-lemonade-up">
      <g>
        <path class="cls-7" d="M56.29,138.46h0c-4.41,0-7.55-5.27-6.27-10.54l9.26-33.46c1.28-5.41,5.7-8.26,9.97-6.83h0c4.84,1.71,7.26,8.69,4.98,14.52l-12.82,31.04c-1,2.71-2.71,5.41-5.13,5.41h0v-.14Z"/>
        <path class="cls-17" d="M62.55,88.48c-4.27,3.84-9.83,11.96-13.95,29.05l16.8,8.26,2.42-6.69c5.41-10.11,9.68-19.51,8.69-26.06-.71-6.27-9.26-8.83-14.1-4.56h.14Z"/>
        <g>
          <path id="hand1" class="cls-13" d="M23.4,101.06l-3.14-6.76c-.64-1.39-3.07-4.72-4.52-5.2-1.81-.7-.66,2.42,1.98,8.78l-10.59-2.63s-7.05-.28-2.74,4.04c0,0-7.32,1.22-1.9,4.97,0,0-6.35,1.81,1.27,5.35l7.56,2.83c2.58.93,5.49,1.06,8.05.15,2.56-.91,4.96-2.92,5.06-6.85.04-1.55-.42-3.09-1.08-4.57l.1-.02s0,0,0,0h0l-.02-.1Z"/>
          <path class="cls-7" d="M59.91,133.47h0c-.29-1.96-1.41-3.95-2.94-5.21l-33.67-25.13-3.66,8.28,30.23,26.58c4.73,4.03,11.03,1.29,10.23-4.47h0l-.19-.05Z"/>
        </g>
        <g>
          <path class="cls-4" d="M17.52,60.48c.16.76.9,1.41.72,2.17-.11.46-.44.79-.49,1.27-.07.58.62,3.19.76,4.15,1.79,11.98.75,8.58,5.5,19.57,2.04,4.73.39,19.42.39,30.82-.07,2.2-.22,5.44-2.64,6.38-2.15.83-10.98.47-13.6.23-4.58-.42-5.44-2.38-5.47-6.32-.15-25.47-.37-26.76.88-30.83,1.13-3.66,3.75-6.72,4.44-10.54,1.36-7.52,2.77-13.32,2.37-14.01-.67-.12-.58-.91-.36-1.56.88-2.55.34-1.87,1.8-1.83,1.9.06,3.8.43,5.69.49Z"/>
          <path class="cls-10" d="M15.63,124.72c-10.66,0-12.26-.42-12.29-5.96-.15-25.45-.37-26.67.86-30.63,1.11-3.59,3.75-6.67,4.46-10.62,1.65-9.12,2.87-13.46,2.29-14.45-.44-.74-.78.51.05-2.12.17-.53-.04-.32.81-.3,1.69.05,3.56-.27,5.31-.17.25.58.58,1.71.5,2.04-.08.34-.43.72-.5,1.34-.08.72.62,3.37.77,4.32,1.57,10.55.97,9.26,4.11,16.43,2.21,5.06,2.85,4.63,2.1,22.46-.74,17.58,1.15,17.66-8.46,17.66Z"/>
          <path class="cls-3" d="M10.95,59.77c.46.27,1.01.33,1.54.36,1.63.1,3.26.06,4.88-.12"/>
          <path class="cls-6" d="M19.27,73.32c-.19-1.35-.42-3.03-.75-5.24-.09-.62-.41-1.9-.6-2.9-2.49.5-5.1.45-7.56-.16-.23,1.68-.82,4.51-1.5,7.99,3.34,1.13,7.02,1.24,10.42.31Z"/>
          <path class="cls-3" d="M9.12,84.51c2.98,1.71,6.72,1.69,10.01.69"/>
          <path class="cls-1" d="M8.68,95.41c2.41-.23,4.84-.31,7.26-.28,1.37.02,4.43-.21,5.3,1.16.65,1.02.25,2.55.26,3.69.09,11.67.32,13.18-.99,14.06-1.35.91-10.43.38-12.05.26-1.68-.13-2.38-.63-2.27-2.9.76-15.32-.9-15.65,2.49-15.98Z"/>
          <path class="cls-5" d="M15.5,113.91c-3.05,0-6.29-.21-7-.27-1.34-.11-1.77-.3-1.67-2.23.25-5.04.24-8.51.23-10.8,0-2.18-.01-3.5.22-4.06.12-.28.27-.39,1.46-.51,1.97-.19,4-.28,6.21-.28.33,0,.65,0,.98,0,.06,0,.12,0,.18,0,.13,0,.27,0,.43,0,.17,0,.35,0,.53,0,.76,0,3.07,0,3.62.86.36.56.28,1.44.21,2.29-.03.35-.06.72-.06,1.06.01,1.6.03,3,.04,4.25.08,7.47.07,8.72-.75,9.27-.1.07-.81.41-4.64.41Z"/>
          <path class="cls-3" d="M4.76,122.86c1.17.62,2.58,0,3.82-.47,2.74-1.04,5.83-1.31,8.6-.36.85.29,1.66.7,2.55.87.88.17,1.88.07,2.54-.54"/>
          <path class="cls-3" d="M12.2,63.03c1.17.45,2.49.5,3.69.14"/>
          <path class="cls-3" d="M18.34,74.79c.03,2.9.79,5.79,2.2,8.32"/>
          <path class="cls-3" d="M21.63,86.62c1.24,2.06,1.51,4.55,1.63,6.95.14,2.9.09,5.81-.15,8.7"/>
          <path class="cls-3" d="M23.16,105.42c.16,4.28-.01,8.58-.52,12.84"/>
          <path class="cls-3" d="M15.46,118.76c1.97-.46,3.73-1.73,4.81-3.44"/>
          <path class="cls-3" d="M17.6,119.87c1.01-.47,1.96-1.1,2.79-1.84"/>
          <path class="cls-3" d="M15.5,71c.8-.9,1.44-1.96,1.86-3.09"/>
          <path class="cls-3" d="M16.16,72.23c.47-.44.88-.95,1.19-1.51"/>
          <path class="cls-4" d="M16,101.18c-.76-.28-1.01-.16-.67-.63.84.06,1.9.59,2.9-.77.07-.1.35-.82.39-.83-1.23.39-2.63-.23-3.51.96.14-.99.25-1.6-.07-1.7-.26-.08-.75.25-.77.93-.02.64.23.89.11,1.53-6.38-.58-8.15,7.03-2.74,8.97,8.03,2.87,9.95-6.41,4.38-8.46Z"/>
          <path class="cls-3" d="M15.56,109.08c.66.07,1.32-.23,1.81-.68.49-.45.84-1.03,1.17-1.61"/>
          <path class="cls-3" d="M18.43,104.63c.17.4.21.86.13,1.28"/>
          <path class="cls-3" d="M17.6,112.19c.95-.18,1.8-.84,2.22-1.71"/>
          <path class="cls-3" d="M18.79,112.74c.68-.19,1.29-.66,1.64-1.28"/>
        </g>
      </g>
      <g>
        <path class="cls-7" d="M122.36,127.78h0c-1,1.71-1.42,3.84-.85,5.98l9.97,40.72,8.12-3.99-6.55-39.73c-1-6.12-7.69-7.97-10.82-2.99h.14Z"/>
        <path class="cls-7" d="M126.48,138.46h0c4.41,0,7.55-5.27,6.27-10.54l-9.26-33.46c-1.28-5.41-5.7-8.26-9.97-6.83h0c-4.84,1.71-7.26,8.69-4.98,14.52l12.82,31.04c1,2.71,2.71,5.41,5.13,5.41h0v-.14Z"/>
        <path class="cls-17" d="M120.08,88.48c4.27,3.84,9.83,11.96,13.95,29.05l-16.8,8.26-2.42-6.69c-5.41-10.11-9.68-19.51-8.69-26.06.71-6.27,9.26-8.83,14.1-4.56h-.14Z"/>
        <path class="cls-7" d="M134.46,187.15l-3.13-13.38,8.12-3.99v.57c10.11,4.98,11.96,13.1,11.96,13.1,1.85,7.97,0,8.97-1.99,8.54-1.28-.28-2.42-1.28-3.13-2.56-3.13-5.7-9.97-10.68-9.97-10.68,1,11.68-1.99,8.4-1.99,8.4h.14Z"/>
      </g>
      <g>
        <path class="cls-7" d="M115.24,260.2c-1.71,24.35-5.13,49.55-5.84,49.55l-7.55-.57-2.42-50.12-1.85-37.59v-1.57c0-.57,0-1,.28-1.57,1-3.99,4.7-6.98,8.97-6.55,4.84.43,8.26,4.41,8.12,9.26,1.71,7.55,1.28,23.21.28,39.16h0Z"/>
        <path class="cls-17" d="M112.67,288.39c-1.42,12.39-2.71,21.36-3.27,21.36l-7.55-.57-1-20.79h11.82Z"/>
        <path class="cls-15" d="M99.57,317.3c0,1.57.85,2.71,2.14,3.56.71.57,29.62,3.13,30.33,2.85,6.55-3.13-22.92-14.52-22.92-14.52l-7.97.28s-1.71,6.41-1.42,8.12h0v-.28h-.14Z"/>
        <g>
          <path class="cls-7" d="M116.23,172.06l-1,35.46-.28,10.68c0,4.98-3.99,8.97-8.97,9.26-5.27.28-8.54-3.7-8.97-8.97l-1.14-10.96-3.56-33.46v-1c0-6.27,4.84-11.53,11.11-11.96,6.69-.57,12.53,4.41,12.96,11.11h0l-.14-.14Z"/>
          <path class="cls-16" d="M116.23,172.06l.57,34.17c0,.71-.57,1.28-1.28,1.28h-21.79c-.71,0-1.28-.57-1.28-1.28l-.28-32.18v-1c0-6.27,4.84-11.53,11.11-11.96,6.69-.57,12.53,4.41,12.96,11.11h0v-.14h0Z"/>
        </g>
      </g>
      <g>
        <path class="cls-7" d="M64.97,260.2c1.71,24.35,5.13,49.55,5.84,49.55l7.55-.57,2.42-50.12,1.85-37.59v-1.57c0-.57,0-1-.28-1.57-1-3.99-4.7-6.98-8.97-6.55-4.84.43-8.4,4.41-8.12,9.26-1.71,7.55-1.28,23.21-.28,39.16h0Z"/>
        <path class="cls-17" d="M79.21,288.39l-1,20.79-7.55.57c-.57,0-1.85-8.97-3.27-21.36h11.82Z"/>
        <path class="cls-15" d="M80.21,317.3c0,1.57-.85,2.71-2.14,3.56-.71.57-29.62,3.13-30.33,2.85-6.55-3.13,22.92-14.52,22.92-14.52l7.97.28s1.71,6.41,1.42,8.12h0v-.28h.14Z"/>
        <g>
          <path class="cls-7" d="M87.75,173.06v.85l-3.13,33.6-1,10.82c-.43,5.27-3.84,9.26-8.97,9.11-4.98-.28-8.83-4.13-9.11-9.11l-.43-10.68-1.42-35.31c.57-6.69,6.27-11.53,12.82-11.25,6.41.43,11.25,5.7,11.25,11.96h0Z"/>
          <path class="cls-16" d="M87.75,173.06v.85l-1,32.47c0,.71-.57,1.14-1.14,1.14h-21.22c-.71,0-1.14-.57-1.14-1.14l.57-34.17c.57-6.69,6.27-11.53,12.82-11.25,6.41.43,11.25,5.7,11.25,11.96h-.14v.14Z"/>
        </g>
      </g>
      <path class="cls-17" d="M118.08,87.05l-1.42,8.4-5.41,32.61c-1.28,5.13-1.57,10.25-.71,15.38h-40.87c1.99-5.84,2.42-11.96,1.42-18.08l-5.13-29.47-1.57-8.69,1.57-.85,20.5-12.96h11.82l18.51,12.82,1.42.85h-.14Z"/>
      <path class="cls-16" d="M116.09,175.62l-22.78,9.82h-6.83l-22.78-9.54c-.71-6.55.43-16.37,2.14-22.78.57-1.85,1.14-3.7,1.85-5.27.71-1.42,1.28-2.85,1.71-4.41h40.87c.43,2.42.85,4.84,1.71,6.98.85,2.71,1.85,6.12,2.42,10.11.71,3.84,2.14,9.82,1.42,14.95h.28v.14Z"/>
      <path class="cls-16" d="M102.85,76.52h0c-3.13,10.39-17.66,10.82-21.5.71v-.43l5.41-3.42h11.82l4.56,3.13s-.28,0-.28,0Z"/>
      <g id="german-boy-smiling">
        <path class="cls-8" d="M86.43,76.57h0c2.47,3.26,8.72,3.16,10.94,0h0c.52-.67.65-1.34.65-2.11v-12.56h-12.5v12.47c0,.77.26,1.53.78,2.3h.13s0,0,0,0h0v-.1Z"/>
        <path class="cls-13" d="M119.77,42.1c-1.17,1.82-2.86,3.13-4.56,3.39h-1.43c-.52,4.82-2.21,9.25-4.69,12.89-4.69,7.03-11.72,11.33-16.93,11.07h-1.17c-5.6,0-11.98-3.91-16.41-10.29-2.47-3.52-4.3-7.94-5.08-12.76h-.39c-1.69-.13-3.65-1.43-4.82-3.26-.26-.26-.39-.65-.52-.91-.26-.52-.39-.91-.52-1.3h0c-.39-1.82,0-3.39,1.43-4.04h0c1.3-.52,2.86-.13,4.3.91,1.04-14.71,10.29-27.74,21.62-28,3.52,0,6.77.91,9.77,2.73,6.9,4.3,11.98,14.58,13.15,25,.65-.65,1.43-1.17,2.21-1.56s2.08-.52,2.99-.13c2.08.78,2.34,3.65.78,6.25h.26Z"/>
        <g>
          <path class="cls-14" d="M76.14,34.29c.26,0,.52,0,.65-.39,2.21-4.17,5.99-2.47,6.12-2.34.39,0,.78,0,1.04-.39,0-.39,0-.78-.39-1.04-1.82-.78-5.86-1.3-8.07,2.99,0,.39,0,.78.26,1.04h.39v.13Z"/>
          <path class="cls-14" d="M98.8,30.9s.39.26.65,0c3.65-1.43,5.21,1.69,5.21,1.82,0,.26.52.39.78.26.26,0,.39-.52.26-.78-.65-1.56-2.99-4.04-6.77-2.47-.26,0-.52.52-.39.78v.26h.26v.13h0Z"/>
          <path class="cls-14" d="M80.7,37.28c0,1.43.91,2.73,1.95,2.73s2.08-1.3,2.08-2.73-.91-2.73-1.95-2.73-2.08,1.3-2.08,2.73Z"/>
          <path class="cls-14" d="M98.8,37.28c0,1.43.91,2.73,1.95,2.73s2.08-1.3,2.08-2.73-.91-2.73-1.95-2.73-2.08,1.3-2.08,2.73Z"/>
          <path class="cls-2" d="M85.52,55.51c.26.26,1.95,4.04,6.51,3.91,4.43,0,6.25-3.52,6.51-3.91"/>
          <path class="cls-11" d="M95.29,47.7c0,1.82-1.43,3.26-3.26,3.26s-3.26-1.43-3.26-3.26,1.43,1.82,3.26,1.82,3.26-3.65,3.26-1.82Z"/>
          <path class="cls-9" d="M106.74,41.19c2.6,0,4.69,1.95,4.56,4.17s-2.47,3.78-5.08,3.65-4.69-1.95-4.56-4.17,2.47-3.78,5.08-3.65Z"/>
          <path class="cls-9" d="M77.06,41.19c2.6,0,4.69,1.95,4.56,4.17s-2.47,3.78-5.08,3.65-4.69-1.95-4.56-4.17,2.47-3.78,5.08-3.65Z"/>
        </g>
        <path class="cls-12" d="M117.29,19.18c-2.08-7.03-6.25-13.15-13.15-16.54-5.6-2.73-24.22-7.16-34.51,9.64-4.17,6.77-5.08,15.37-5.08,23.18s1.17,13.41,5.34,18.75c.65.78,1.43,1.56,2.21,2.21,0,0-.91-4.69-1.56-6.64-2.08-6.9-1.82-14.97.39-21.88.39-1.04.78-1.95,1.17-2.99.13-.52,1.43-2.86,1.3-3.26,2.21,5.34,9.51,7.42,14.71,8.33-.91-1.43-2.47-2.21-3.26-3.78-.91-1.56-1.43-3.26-1.95-4.82,6.25,2.34,12.76,6.77,19.92,6.38-1.56-1.56-5.73-4.69-5.6-7.29,1.56,2.21,4.3,2.86,6.77,3.78,1.56.52,3.26.91,4.82,1.43,1.3.39,1.3.26,1.69,1.43,2.34,7.81,3.39,17.19,1.56,25.26.39-1.95,3.65-5.73,4.3-7.55.78-2.21,1.43-4.43,1.95-6.77.91-4.56.91-9.38.26-13.93-.26-1.69-.65-3.39-1.04-4.95h-.26Z"/>
      </g>
    </g>
  </g>
</svg>