<?xml version="1.0" encoding="UTF-8"?>
<svg id="Layer_2" data-name="Layer 2" xmlns="http://www.w3.org/2000/svg" viewBox="0 0 93.25 285.88">
  <defs>
    <style>
      .cls-1 {
        fill: #e0a587;
      }

      .cls-2, .cls-3 {
        fill: #603813;
      }

      .cls-4, .cls-5, .cls-6, .cls-7 {
        fill-rule: evenodd;
      }

      .cls-4, .cls-8 {
        fill: #fff;
      }

      .cls-9 {
        fill: #273758;
      }

      .cls-10 {
        fill: #d9a2a0;
      }

      .cls-5, .cls-11 {
        fill: #d1957c;
      }

      .cls-12, .cls-3 {
        isolation: isolate;
      }

      .cls-13 {
        fill: #70b5ff;
      }

      .cls-14 {
        fill: #783640;
      }

      .cls-15 {
        fill: #6c3231;
      }

      .cls-6 {
        fill: #36313d;
      }

      .cls-16 {
        fill: #db9673;
      }

      .cls-7 {
        fill: #b56d4e;
      }

      .cls-17 {
        fill: #533d24;
      }

      .cls-3 {
        opacity: .5;
      }

      .cls-18 {
        fill: #98caff;
      }

      .cls-19 {
        fill: #39433e;
      }
    </style>
  </defs>
  <g id="Layer_1-2" data-name="Layer 1">
    <g class="cls-12">
      <g id="german-man-teddy-speaking">
        <path class="cls-15" d="M70.17,141.75l-19.8,5.4s-13-3.2-20.1-4.6l1.7-27.5,34.6.9c.8,9.7,2,19,3.6,25.7h0s0,0,0,0v.1Z"/>
        <g>
          <path class="cls-15" d="M59.37,204.05h0c3.8,0,7-2.5,7.3-5.7l4.7-58.8c.4-5.4-4.6-10-11-10h0c-6.3,0-11.3,4.4-11,9.7l2.8,58.9c.2,3.3,3.4,5.9,7.3,5.9h-.1Z"/>
          <path class="cls-15" d="M52.17,271.15l9.5.2,5-72.9c0-3.4-3.1-6.3-7.2-6.4h0c-4.1,0-7.5,2.6-7.6,6.1l.2,73h.1Z"/>
          <path class="cls-17" d="M51.97,268.95v3.2c0,1,.5,1.9,1.4,2.5,4.4,3,18.1,11.8,27.1,11.2,1.9,0,2.7-2,1.4-3.1l-20.2-13.9h-9.8.1v.1Z"/>
        </g>
        <g>
          <path class="cls-15" d="M39.17,203.05h0c-3.8,0-7-2.5-7.3-5.7l-4.7-58.8c-.4-5.4,4.6-10,11-10h0c6.3,0,11.3,4.4,11,9.7l-2.8,58.9c-.2,3.3-3.4,5.9-7.3,5.9h.1Z"/>
          <path class="cls-15" d="M46.27,270.15l-9.5.2-5-72.9c0-3.4,3.1-6.3,7.2-6.4h0c4.1,0,7.5,2.6,7.6,6.1l-.2,73h-.1Z"/>
          <path class="cls-17" d="M46.57,267.95v3.2c0,1-.5,1.9-1.4,2.5-4.4,3-18.1,11.8-27.1,11.2-1.9,0-2.7-2-1.4-3.1l20.2-13.9h9.8-.1v.1Z"/>
        </g>
        <g>
          <path class="cls-18" d="M88.47,112.15h0c2.9-1.5,4.2-5,2.8-7.6l-14.5-41.4c-1.5-4.2-6.5-6.2-11-4.2h0c-4.4,2-6.5,6.9-4.6,10.9l19.4,40.2c1.4,2.7,4.9,3.6,7.9,2.1h0Z"/>
          <path class="cls-18" d="M4.77,112.75h0c-2.9-1.5-4.2-5-2.8-7.6l14.5-41.4c1.5-4.2,6.5-6.2,11-4.2h0c4.4,2,6.5,6.9,4.6,10.9l-19.4,40.2c-1.4,2.7-4.9,3.6-7.9,2.1h0Z"/>
        </g>
        <g>
          <rect class="cls-16" x="40.03" y="43.44" width="10.29" height="13.62"/>
          <path class="cls-1" d="M62.8,22.94c-.83-.38-1.97,0-2.95.61-.91-9.68-7.11-17.1-14.6-17.1s-13.92,7.72-14.68,17.55c-1.06-1.06-2.5-1.51-3.48-1.06-1.29.61-1.51,2.42-.45,4.16.98,1.59,2.72,2.5,4.01,2.19,1.13,9.31,7.19,16.42,14.53,16.42s13.39-7.11,14.53-16.34c1.21,0,2.57-.91,3.4-2.19,1.06-1.74.91-3.56-.45-4.16h.15v-.08Z"/>
          <g>
            <path class="cls-2" d="M56.37,20.89c-.23,0-.3,0-.45-.23-1.59-2.87-4.16-1.74-4.24-1.74-.23,0-.53,0-.76-.23,0-.23,0-.53.23-.76,1.29-.53,4.09-.98,5.67,2.12,0,.23,0,.53-.23.76h-.23v.08Z"/>
            <path class="cls-2" d="M35.26,20.89c.23,0,.3,0,.45-.23,1.59-2.87,4.16-1.74,4.24-1.74.23,0,.53,0,.76-.23,0-.23,0-.53-.23-.76-1.29-.53-4.09-.98-5.67,2.12,0,.23,0,.53.23.76h.23v.08Z"/>
            <path class="cls-2" d="M38.44,22.94c0,.98.61,1.89,1.36,1.89s1.51-.98,1.51-1.89-.61-1.89-1.36-1.89-1.51.98-1.51,1.89Z"/>
            <path class="cls-2" d="M51.15,22.94c0,.98.61,1.89,1.36,1.89s1.51-.98,1.51-1.89-.61-1.89-1.36-1.89-1.51.98-1.51,1.89Z"/>
            <path class="cls-15" d="M37,34.06c.68-1.13,2.5-1.89,4.39-2.12s3.78-.38,5.75-.15c1.51.15,3.18.68,4.46,1.21.3.15.68.3.76.53.23.45-.68.68-1.21.68-4.69.53-9,.68-13.62-.15"/>
            <path class="cls-3" d="M47.82,28.76c0,1.29-.98,2.27-2.27,2.27s-2.27-.98-2.27-2.27.98,1.29,2.27,1.29,2.27-2.57,2.27-1.29Z"/>
            <path class="cls-10" d="M56.6,25.74c1.82,0,3.33,1.36,3.18,2.87s-1.74,2.65-3.63,2.57-3.33-1.36-3.18-2.87,1.74-2.65,3.63-2.57Z"/>
            <path class="cls-10" d="M35.79,25.74c1.82,0,3.33,1.36,3.18,2.87s-1.74,2.65-3.63,2.57-3.33-1.36-3.18-2.87,1.74-2.65,3.63-2.57Z"/>
            <g>
              <path class="cls-9" d="M51,34.66s0,2.35-1.51,3.78c-.83.83-2.04,1.51-3.78,1.51,0,0-2.57.23-4.16-1.51-.76-.76-1.13-1.97-1.13-3.78h10.74-.15Z"/>
              <path class="cls-14" d="M49.33,38.45c-.83.83-2.04,1.51-3.78,1.51,0,0-2.57.23-4.16-1.51,1.51-.76,4.77-1.51,7.94,0h0Z"/>
              <polygon class="cls-8" points="49.71 34.66 49.18 35.87 41.62 35.87 41.16 34.66 49.71 34.66"/>
            </g>
          </g>
          <path class="cls-15" d="M62.42,6.22c.61-.3,2.57-.53,1.89-1.36-.98-1.21-4.09-.45-5.45-.3.61-.45,1.66-.68,1.13-1.36-1.13-1.59-4.69-.68-6.43-.53.76-.76.45-1.36-.61-1.66-2.12-.53-4.39.15-6.36.83-.38-1.44-1.44-1.66-3.33-1.21-.91.23-1.51.68-2.35.91-.76.23-.45.15-.83-.23-.98-1.06-1.51-1.59-3.25-1.13-2.12.53-2.8,1.74-4.01,3.1-.61-.38-1.74-.91-2.35-.08-.53.68.38,1.82.76,2.42-.98.3-1.82.23-1.82,1.51s1.44,2.57.45,3.03c-1.21.61-2.57,0-2.35,1.74.23,1.44,1.59,2.35,1.74,3.78-.61,0-1.82.15-2.35.45-1.13.61-.3,1.89.3,2.57.3.3,2.04,1.44,1.66,2.04-.3.45-1.51,0-1.89.61s0,1.97.23,2.5,1.59,1.29,1.59,1.74-.91.68-.98,1.21c-.15.61.23,1.13.61,1.59.53.53.15,2.72,3.18,2.04.61-.15,2.27-1.82,1.89-2.27-.15-.23-.68-.38-.76-.53-.23-.53,1.29-4.54-.76-4.01,1.66-.83,3.56-3.86,1.06-4.84.83-.68,1.74-1.13,1.97-2.19.08-.45,0-1.29-.3-1.74-.23-.38-.68-.53-.91-.83.98-.45,4.01-1.59,3.71-2.72,1.21,0,2.72-.53,3.71-.91.15,0,.68-.38,1.13-.68.38.53,1.29.68,1.89.83.98.15,3.78.23,4.92-.53.3,0,.68.15.83.23.83.15,2.42.23,3.25,0,.38.61,1.59,1.74,1.82,2.12.3.45.61,1.29,1.13,1.59,0,1.44.53,2.95,1.06,4.24.08.23.45.68.38.91,0,.3-.76.76-.91,1.21-.38,1.13.3,2.27.45,3.4.15.68-.15,1.36-.08,2.04,0,.83.68,3.86,2.12,3.48,1.66-.38.15-1.97.3-2.72,0-.38.61-.68.83-.98.61-.68,1.06-1.36,1.44-2.12.53-1.13.61-2.04-.45-2.87.83-1.13,4.16-3.78.83-4.39,1.51-1.36.68-4.54-.91-5.67,1.13-.53,2.8-.98,3.25-2.19.53-1.21-1.21-1.82-2.42-1.74l.3-.23s0-.08,0,0v-.08Z"/>
        </g>
        <path class="cls-19" d="M71.77,133.45c.2,1.4-.9,2.7-2.7,3-14,2.2-25.2,3.1-37.9,1.2-.9,0-2.2-.3-3.6-.4-1.8-.2-3.2-1.5-3.1-2.9.4-4.2,1.6-10,3-20.1.8-7.6.5-15.2-.7-22.8l-5.3-32.7s1.6-.7,3.9-1.7c1.5-.7,3.4-1.5,5.4-2.4,5.7-2.5,11.1-4.5,11.5-4.5l9.2-.3c.3,0,4.2,1.4,7.4,2.7,1.9.8,3.6,1.5,4.3,2l7.8,3.4-3.3,30.1v.3c-1.3,11.7,2.7,37.1,4.1,45.1h0Z"/>
        <g>
          <path class="cls-7" d="M59.97,154.25c-3,3-13.3,1.8-13.3,1.8,0,0-10.4-.7-12.8-4.1-4.6-6.4,1.3-17.4,5.9-24,.7-1,1.3-1.8,1.9-2.6l7.4,3.1,7.9-1.8c.4.8.9,1.7,1.4,2.8,3.4,7.2,7.4,19.2,1.7,24.8h-.1Z"/>
          <path class="cls-11" d="M60.37,148.25c-.2,2.5-.9,4.9-1.8,7-4,1.7-11.8.9-11.8.9,0,0-7.8-.5-11.5-2.9-.6-2.2-.8-4.7-.6-7.2.8-9.2,7.2-16.2,14.3-15.6s12.2,8.6,11.4,17.8h0Z"/>
          <path class="cls-7" d="M59.07,144.25c2.8.2,5.3-1.9,5.6-4.7s-1.9-5.3-4.7-5.6-5.3,1.9-5.6,4.7,1.9,5.3,4.7,5.6Z"/>
          <path class="cls-7" d="M36.97,142.25c2.8.2,5.3-1.9,5.6-4.7s-1.9-5.3-4.7-5.6-5.3,1.9-5.6,4.7,1.9,5.3,4.7,5.6Z"/>
          <path class="cls-7" d="M57.37,161.15c-3.8.5-7.3-2.7-7.9-7.2s1.9-8.5,5.7-9,7.3,2.7,7.9,7.2-1.9,8.5-5.7,9h0Z"/>
          <path class="cls-5" d="M56.97,158.55c-2.6.4-5-1.8-5.4-4.9s1.3-5.8,3.9-6.2c2.6-.4,5,1.8,5.4,4.9s-1.3,5.8-3.9,6.2Z"/>
          <path class="cls-7" d="M34.87,159.15c3.6,1.2,7.7-1.4,9.1-5.7,1.4-4.3-.4-8.8-4.1-9.9s-7.7,1.4-9.1,5.7c-1.4,4.3.4,8.8,4.1,9.9Z"/>
          <path class="cls-5" d="M35.67,156.65c2.5.8,5.2-1,6.2-3.9.9-2.9-.3-6-2.8-6.8s-5.2,1-6.2,3.9c-.9,2.9.3,6,2.8,6.8Z"/>
          <g>
            <path class="cls-7" d="M61.97,106.65c2.4.2,4.2,2.7,3.9,5.5s-2.4,4.9-4.8,4.7-4.2-2.7-3.9-5.5,2.4-4.9,4.8-4.7Z"/>
            <path class="cls-5" d="M61.87,107.85c1.9.2,3.2,2,3,4.2s-1.8,3.8-3.7,3.6-3.2-2-3-4.2,1.8-3.8,3.7-3.6Z"/>
            <path class="cls-7" d="M44.57,110.25c-.2,2.8-2.4,4.9-4.8,4.7s-4.2-2.6-3.9-5.5,2.4-4.9,4.8-4.7,4.2,2.7,3.9,5.5h0Z"/>
            <path class="cls-5" d="M43.57,110.15c-.2,2.2-1.8,3.8-3.7,3.6s-3.2-2-3-4.2,1.8-3.8,3.7-3.6,3.2,2,3,4.2Z"/>
            <path class="cls-7" d="M48.97,131.15c7.6.7,14.3-4.2,14.9-11s-5.2-12.7-12.8-13.4-14.3,4.3-14.9,11,5.2,12.7,12.8,13.3h0v.1Z"/>
            <path class="cls-6" d="M45.87,119.15c.7,0,1.4-.5,1.5-1.2s-.5-1.4-1.2-1.5-1.4.5-1.5,1.2.5,1.4,1.2,1.5Z"/>
            <path class="cls-6" d="M53.97,119.95c.7,0,1.4-.5,1.5-1.2s-.5-1.4-1.2-1.5-1.4.5-1.5,1.2.5,1.4,1.2,1.5Z"/>
            <path class="cls-4" d="M53.77,118.25c.2,0,.4-.1.4-.3s-.1-.4-.3-.4-.4.1-.4.3.1.4.3.4Z"/>
            <path class="cls-4" d="M45.57,117.55c.2,0,.4-.1.4-.3s-.1-.4-.3-.4-.4.1-.4.3.1.4.3.4Z"/>
            <path class="cls-5" d="M49.07,129.25c3.5.3,6.6-1.7,6.9-4.4s-2.5-5.2-6-5.5-6.6,1.7-6.9,4.4,2.5,5.2,6,5.5Z"/>
            <path class="cls-6" d="M49.67,123.95c1.2.1,2.3-.7,2.4-1.7s-.8-2-2.1-2.1-2.3.7-2.4,1.7.8,2,2.1,2.1Z"/>
            <path class="cls-6" d="M49.57,123.45s0-.1.1-.1.1,0,.1.2l-.2,2c0,.4,0,.7.3,1,.2.2.5.4.9.5h.9c.3.1.7,0,.9-.2s.4-.5.5-.8v-.6c.1,0,.2-.1.3,0,0,0,.1,0,.1.2v.6c-.2.4-.5.7-.8,1s-.7.3-1.1.3h-.9c-.4-.1-.8-.3-1.1-.6-.1-.2-.2-.3-.3-.5,0,.2-.2.3-.4.5-.3.3-.7.4-1.2.4h-.9c-.4-.1-.8-.3-1-.5s-.4-.6-.4-1v-.8s.1,0,.1.1v.6c0,.3.2.6.4.8s.5.4.9.4h.9c.4.1.7,0,1-.2.2-.2.4-.5.5-.9l.2-2h0l.2-.4Z"/>
          </g>
        </g>
        <g>
          <path class="cls-1" d="M57.97,136.25l5.1,4.5,28.3-30.4c1.7-1.9,1-5.3-1.5-7.4h0c-2.5-2.2-5.9-2.4-7.6-.5l-24.4,33.8h.1,0Z"/>
          <path class="cls-1" d="M49.27,146.05l-3,3c-1.7,1.7.6,5.1,3.2,4.8.8,0,1.7-.4,2.6-.8q.6-.27,0,0c2.4-1.3,4.9-4,7.5-8l1.4-1.8,2.1-2.6h0l-5.1-4.5h0l-2.1,2.6h-.2l-10.3,6s-2.9,2.7,3.9,1.2h0v.1Z"/>
          <rect class="cls-13" x="76.84" y="99.19" width="15.8" height="7.7" transform="translate(-18.99 19.14) rotate(-11.6)"/>
        </g>
        <g>
          <path class="cls-1" d="M35.27,136.75l-5.1,4.5L1.87,110.85c-1.7-1.9-1-5.3,1.5-7.4h0c2.5-2.2,5.9-2.4,7.6-.5l24.4,33.8h-.1,0Z"/>
          <path class="cls-1" d="M43.97,146.65l3,3c1.7,1.7-.6,5.1-3.2,4.8-.8,0-1.7-.4-2.6-.8q-.6-.27,0,0c-2.4-1.3-4.9-4-7.5-8l-1.4-1.8-2.1-2.6h0l5.1-4.5h0l2.1,2.6h.2l10.3,6s2.9,2.7-3.9,1.2h0v.1Z"/>
          <rect class="cls-13" x="4.66" y="95.71" width="7.7" height="15.8" transform="translate(-94.69 91.11) rotate(-78.4)"/>
        </g>
        <g>
          <path class="cls-13" d="M40.77,47.15s.5,2.3,5,3.2c0,0-1.3,6-5.3,8.3,0,0-1.5-5.5-4.9-6.6,0,0-.8-2,5.3-4.9h-.1Z"/>
          <path class="cls-13" d="M49.37,46.95s-.5,2.3-5,3.2c0,0,1.3,6,5.3,8.3,0,0,1.5-5.5,4.9-6.6,0,0,.8-2-5.3-4.9h.1Z"/>
        </g>
      </g>
    </g>
  </g>
</svg>