<?xml version="1.0" encoding="UTF-8"?>
<svg id="Ebene_2" data-name="Ebene 2" xmlns="http://www.w3.org/2000/svg" xmlns:xlink="http://www.w3.org/1999/xlink" viewBox="0 0 254.64 850.5">
  <defs>
    <style>
      .cls-1 {
        fill: #d9b6b6;
      }

      .cls-2 {
        fill: #ede152;
        opacity: .38;
      }

      .cls-2, .cls-3, .cls-4, .cls-5, .cls-6, .cls-7, .cls-8 {
        isolation: isolate;
      }

      .cls-3 {
        fill: #c4ba44;
      }

      .cls-3, .cls-5 {
        opacity: .64;
      }

      .cls-9 {
        opacity: .29;
      }

      .cls-10 {
        fill: none;
        stroke: #630;
        stroke-linecap: round;
        stroke-miterlimit: 10;
      }

      .cls-11 {
        fill: #d9a2a0;
      }

      .cls-12 {
        fill: #cbdee3;
      }

      .cls-4 {
        fill: #bfd0d6;
        opacity: .37;
      }

      .cls-13 {
        fill: #d38a17;
      }

      .cls-14 {
        fill: #d9baba;
      }

      .cls-15 {
        fill: #a1c8ee;
      }

      .cls-16, .cls-8 {
        fill: #603813;
      }

      .cls-17 {
        fill: #1e6cb6;
      }

      .cls-18 {
        fill: #e2e3ac;
      }

      .cls-19 {
        opacity: .56;
      }

      .cls-5 {
        fill: #a89f3b;
      }

      .cls-20 {
        fill: #273758;
      }

      .cls-21 {
        fill: url(#Unbenannter_Verlauf_14);
      }

      .cls-22 {
        fill: #1065b2;
      }

      .cls-23 {
        fill: #b8ae40;
      }

      .cls-6 {
        opacity: .67;
      }

      .cls-6, .cls-7 {
        fill: #fff;
      }

      .cls-7 {
        opacity: .57;
      }

      .cls-24 {
        fill: #466e9f;
      }

      .cls-25 {
        fill: #695101;
      }

      .cls-26 {
        fill: #c69696;
      }

      .cls-27 {
        fill: #544101;
      }

      .cls-8 {
        opacity: .5;
      }

      .cls-28 {
        fill: #3d52aa;
      }

      .cls-29 {
        fill: #d1d349;
      }

      .cls-30 {
        fill: url(#Unbenannter_Verlauf_16);
      }

      .cls-31 {
        fill: #dbe1fd;
      }

      .cls-32 {
        fill: #e6e6e6;
      }
    </style>
    <linearGradient id="Unbenannter_Verlauf_16" data-name="Unbenannter Verlauf 16" x1="122.6" y1="3899.35" x2="195.07" y2="3899.35" gradientTransform="translate(0 4345.05) scale(1 -1)" gradientUnits="userSpaceOnUse">
      <stop offset="0" stop-color="#68bee2"/>
      <stop offset="1" stop-color="#61dfff"/>
    </linearGradient>
    <linearGradient id="Unbenannter_Verlauf_14" data-name="Unbenannter Verlauf 14" x1="123.54" y1="3926.86" x2="194.41" y2="3926.86" gradientTransform="translate(0 4345.05) scale(1 -1)" gradientUnits="userSpaceOnUse">
      <stop offset="0" stop-color="#2e71ff"/>
      <stop offset="1" stop-color="#2626ff"/>
    </linearGradient>
  </defs>
  <g id="svg">
    <g id="german-boy-bottles">
      <g>
        <path class="cls-1" d="M190.2,683.57c-4.35,64.04-13.33,130.39-15.36,130.39l-19.99-1.45-6.08-131.84-4.64-98.81v-4.06c0-1.45,0-2.61.58-4.06,2.61-10.72,12.17-18.25,23.47-17.1,12.75.87,21.73,11.59,21.15,24.34,4.35,19.7,3.48,60.85.58,102.86h.29v-.29Z"/>
        <path class="cls-32" d="M183.53,757.74c-3.77,32.45-7.24,56.21-8.69,56.21l-19.99-1.45-2.61-54.76h31.29Z"/>
        <path class="cls-20" d="M149.34,833.66c.29,4.06,2.32,7.24,5.51,9.27,2.03,1.45,77.65,8.11,79.68,7.53,17.1-8.11-60.27-38.25-60.27-38.25l-20.86.58s-4.35,16.81-3.77,21.15h-.29v-.29Z"/>
        <g>
          <path class="cls-1" d="M193.09,452.05l-2.61,93.01-.58,28.11c-.29,13.04-10.72,23.76-23.47,24.34-13.62.58-22.6-9.85-23.47-23.76l-3.19-28.69-9.27-87.8v-2.61c0-16.52,12.75-30.13,28.98-31.58,17.39-1.45,32.74,11.59,34.19,28.98h-.58,0Z"/>
          <path class="cls-24" d="M193.09,452.05l1.45,89.53c0,1.74-1.45,3.48-3.48,3.48h-57.08c-1.74,0-3.48-1.45-3.48-3.48l-.58-84.61v-2.61c0-16.52,12.75-30.13,28.98-31.58,17.39-1.45,32.74,11.59,34.19,28.98h0v.29h0Z"/>
        </g>
      </g>
      <g>
        <path class="cls-1" d="M58.36,683.57c4.35,64.04,13.33,130.39,15.36,130.39l19.99-1.45,6.08-131.84,4.64-98.81v-4.06c0-1.45,0-2.61-.58-4.06-2.61-10.72-12.17-18.25-23.47-17.1-12.75.87-22.31,11.59-21.15,24.34-4.35,19.7-3.48,60.85-.58,102.86h-.29v-.29Z"/>
        <path class="cls-32" d="M95.74,757.74l-2.61,54.76-19.99,1.45c-1.45,0-4.64-23.76-8.69-56.21h31.29Z"/>
        <path class="cls-20" d="M98.34,833.66c-.29,4.06-2.32,7.24-5.51,9.27-2.03,1.45-77.65,8.11-79.68,7.53-17.1-8.11,60.27-38.25,60.27-38.25l20.86.58s4.35,16.81,3.77,21.15h.29v-.29Z"/>
        <g>
          <path class="cls-1" d="M118.05,454.95v2.32l-8.11,88.38-2.61,28.4c-1.16,13.62-9.85,24.34-23.47,24.05-13.04-.58-23.18-11.01-24.05-24.05l-1.16-28.11-3.77-92.72c1.45-17.39,16.52-30.42,33.9-29.56,16.81.87,29.27,15.07,29.27,31.58h0v-.29Z"/>
          <path class="cls-24" d="M118.05,454.95v2.32l-2.61,85.19c0,1.74-1.45,3.19-3.19,3.19h-55.63c-1.74,0-3.19-1.45-3.19-3.19l1.45-89.53c1.45-17.39,16.52-30.42,33.9-29.56,16.81.87,29.27,15.07,29.27,31.58h0Z"/>
        </g>
      </g>
      <path class="cls-32" d="M197.73,228.65l-3.77,22.31-13.91,85.48c-3.48,13.33-4.06,26.95-2.03,40.28h-107.5c5.22-15.36,6.37-31.58,3.77-47.52l-13.33-77.36-4.06-22.89,4.06-2.32,53.6-33.9h31l48.68,33.61,3.77,2.32h-.29,0Z"/>
      <path class="cls-24" d="M192.8,461.32l-59.98,25.5h-17.68l-59.98-24.92c-1.74-17.1,1.16-43.17,5.8-59.98,1.45-4.93,3.19-9.56,4.64-13.62,1.74-3.77,3.48-7.53,4.35-11.59h107.5c1.16,6.08,2.32,12.75,4.35,18.54,2.32,7.24,4.64,15.94,6.08,26.66,1.74,10.14,5.51,26.08,3.77,39.41h1.16Z"/>
      <path class="cls-24" d="M157.74,201.12h0c-8.11,27.24-46.36,28.4-56.5,1.74,0,0,0-.58-.29-.87l13.91-8.98h31l11.88,8.11h-.29.29Z"/>
      <g>
        <path class="cls-26" d="M130.51,205.47h0c-8.69,0-15.36-6.95-15.36-15.36v-22.89h31v22.89c0,8.69-6.95,15.36-15.36,15.36h-.29Z"/>
        <path class="cls-14" d="M205.26,104.63c-3.19,5.22-7.82,8.69-12.75,9.56h-4.06c-1.45,13.33-6.08,25.5-13.04,35.64-13.04,19.41-32.45,31-46.94,30.42h-3.48c-15.36,0-33.32-10.72-45.49-28.4-6.95-9.85-11.88-21.73-13.91-35.35h-1.16c-4.64,0-9.85-3.77-13.33-8.98-.58-.87-1.16-1.74-1.45-2.61-.58-1.45-1.16-2.32-1.45-3.77h0c-1.16-5.22,0-9.27,4.06-11.01h0c3.48-1.45,7.82,0,11.88,2.32,3.19-40.57,28.4-76.5,59.98-77.36,9.56,0,18.83,2.61,26.95,7.82,7.82,4.93,14.78,12.17,20.57,21.44h0c8.11,13.33,13.91,30.42,15.65,47.52h0c1.74-1.74,3.77-3.19,5.8-3.77,2.61-1.45,5.8-1.45,8.11,0,5.51,2.32,6.37,9.85,2.03,17.39l1.45-.87h.58Z"/>
        <g>
          <path class="cls-16" d="M89.36,89.86c.58,0,1.45,0,1.74-.87,5.51-10.43,15.07-6.08,15.36-5.8.87,0,2.03,0,2.61-.87,0-.87,0-2.03-.87-2.61-4.64-2.03-14.78-3.19-20.28,7.53,0,.87,0,2.03.58,2.61h.87Z"/>
          <path class="cls-16" d="M146.15,81.45s.87.58,1.74,0c9.27-3.48,13.04,4.35,13.04,4.64,0,.58,1.45.87,2.03.58.58,0,.87-1.45.58-2.03-1.74-3.77-7.53-10.14-17.1-6.08-.58,0-1.45,1.45-.87,2.03v.58h.58v.29Z"/>
          <path class="cls-16" d="M100.66,97.39c0,3.48,2.32,6.95,4.93,6.95s5.22-3.19,5.22-6.95-2.32-6.95-4.93-6.95-5.22,3.19-5.22,6.95Z"/>
          <path class="cls-16" d="M146.15,97.39c0,3.48,2.32,6.95,4.93,6.95s5.22-3.19,5.22-6.95-2.32-6.95-4.93-6.95-5.22,3.19-5.22,6.95Z"/>
          <path class="cls-10" d="M112.83,143.17c.58.58,4.93,10.14,16.23,9.85,11.01,0,15.65-8.69,16.23-9.85"/>
          <path class="cls-8" d="M137.17,123.76c0,4.64-3.48,8.11-8.11,8.11s-8.11-3.48-8.11-8.11,3.48,4.64,8.11,4.64,8.11-9.27,8.11-4.64Z"/>
          <path class="cls-11" d="M166.15,107.24c6.37,0,11.88,4.93,11.59,10.43-.29,5.51-6.08,9.56-12.75,9.27s-11.88-4.93-11.59-10.43c.29-5.51,6.08-9.56,12.75-9.27Z"/>
          <path class="cls-11" d="M91.39,107.24c6.37,0,11.88,4.93,11.59,10.43s-6.08,9.56-12.75,9.27-11.88-4.93-11.59-10.43,6.08-9.56,12.75-9.27Z"/>
        </g>
        <path class="cls-13" d="M196.86,50.45c-5.51-18.54-16.52-34.48-34.48-43.46-14.78-7.24-63.75-18.83-90.69,25.21-11.01,17.68-13.33,40.28-13.33,60.85s3.19,35.35,13.91,49.26c1.74,2.03,3.77,4.06,5.8,5.8,0,0-2.32-12.17-4.06-17.39-5.51-18.25-4.64-39.41,1.16-57.37,1.16-2.61,2.03-5.22,3.19-7.82.29-1.45,3.77-7.53,3.48-8.69,5.8,13.91,24.92,19.41,38.54,21.73-2.32-3.77-6.08-5.8-8.69-9.85-2.32-4.06-3.77-8.69-5.22-12.75,16.52,6.08,33.61,17.68,52.45,16.81-4.06-4.06-15.07-12.17-14.78-19.12,4.06,5.8,11.3,7.53,17.68,9.85,4.06,1.45,8.69,2.32,12.75,3.77,3.48.87,3.48.58,4.35,3.77,6.08,20.57,8.98,45.2,4.06,66.35,1.16-5.22,9.56-15.07,11.3-19.7,2.03-5.8,3.77-11.59,5.22-17.68,2.32-11.88,2.32-24.63.58-36.51-.58-4.35-1.74-8.98-2.61-13.04h-.58Z"/>
      </g>
      <g>
        <path class="cls-1" d="M20.11,347.45h0c-12.75-.58-20.86-14.49-16.23-27.24l32.74-78.81c4.93-12.46,17.96-18.83,29.84-14.2h0c13.91,5.51,19.41,22.89,11.88,36.22l-41.44,74.18c-3.48,6.37-10.14,9.85-17.1,9.56h.29v.29Z"/>
        <g id="s-deception-b-vinegar-closed-after">
          <path class="cls-12" d="M136.13,508.56H58.11s15.27-172.44,16.02-178.54c.76-6.1,6.62-6.59,9.84-10.44,2.6-3.1,1.49-32.76.96-44.12-.13-2.73-.22-4.4-.22-4.4l12.41-.22,12.41.22s-.72,13.01-.88,25.6c-.13,10.73.14,21.15,1.62,22.92,3.22,3.84,9.08,4.34,9.84,10.44.75,6.1,16.02,178.54,16.02,178.54Z"/>
          <ellipse class="cls-12" cx="97.12" cy="508.56" rx="39.01" ry="12.03"/>
          <path class="cls-29" d="M129.92,508.45c0,.66-.41,1.3-1.17,1.9-3.82,3.03-16.53,5.25-31.62,5.25-7.63,0-14.65-.57-20.23-1.52h0c-5.04-.86-8.89-2.04-10.93-3.4-1.06-.7-1.63-1.45-1.63-2.23,0-.11.01-.23.04-.34.21-1.91,1.27-11.75,2.71-25.07.27-2.47.55-5.05.84-7.73,2.59-23.9,5.99-55.1,8.05-73.65h0c.35-3.19.67-6.01.94-8.35.48-4.26.8-6.94.89-7.44.64-3.63,6.46-3.92,9.17-6.21,1.39-1.17-.08,9.01,0,0h20.32c0,9.05-1.38-1.16,0,0,2.71,2.29,8.54,2.58,9.17,6.21.45,2.56,7,62.81,10.8,97.86.05.5.11.98.16,1.47,0,0,0,0,0,.01,1.32,12.2,2.28,21.08,2.48,22.9.03.11.04.23.04.34Z"/>
          <path class="cls-23" d="M77.52,498.62c-2.84,1.42-11.59,3.71-11.48,8.2.02.74-.02,1.34-.09,1.83-1.06-.99-1.63-2.05-1.63-3.16,0-.16.01-.32.04-.48.21-2.71,1.27-16.6,2.71-35.44.06-.36.12-.73.18-1.1,0,0-.8,31.26.64,32.13,0,0,8.1-3.61,14.55-4.27,6.45-.66-2.08.87-4.92,2.3Z"/>
          <path class="cls-23" d="M128.75,508.18s.68-5.28-5-7.58c-5.68-2.3-17.27-3.5-17.27-3.83s16.17,1.97,18.58,2.51c1.72.39,2.21-16.8,2.35-26.64,1.32,17.25,2.28,29.8,2.48,32.36.03.16.04.32.04.48,0,.93-.41,1.83-1.17,2.69Z"/>
          <path class="cls-5" d="M129.92,505.49c0,.93-.41,1.83-1.17,2.69-3.82,4.28-16.53,7.43-31.62,7.43-7.63,0-14.65-.8-20.23-2.15h0c-5.04-1.22-8.89-2.88-10.93-4.8-1.06-.99-1.63-2.05-1.63-3.16,0-.16.01-.32.04-.48.21-2.71,1.27-16.6,2.71-35.44.27-3.49.55-7.14.84-10.92,3.82,12.82,10.11,23.41,20.54,23.41,17.65,0,31.65-7.02,38.79-11.51.05.7.11,1.39.16,2.07,0,0,0,0,0,.02,1.32,17.25,2.28,29.8,2.48,32.36.03.16.04.32.04.48Z"/>
          <path class="cls-3" d="M129.92,508.62c0,.64-.41,1.27-1.17,1.85-3.82,2.96-16.53,5.13-31.62,5.13-7.63,0-14.65-.55-20.23-1.48h0s28.12,1.28,35.04-7.12c6.92-8.4-1.85-94.17-10.24-101.1-8.32-6.86-25.39-1.59-25.72-1.49.35-3.11.67-5.86.94-8.15,5,.1,16.54-.49,20.22-7.79,3.14-6.25-1.08-1.62-1.81-8.65l11.97-.16c0,8.83-1.38,2.15,0,3.29,2.71,2.23,8.54,2.52,9.17,6.06.46,2.54,7.19,62.96,10.96,96.93,0,0,0,0,0,.01,1.32,11.91,2.28,20.57,2.48,22.34.03.11.04.22.04.33Z"/>
          <path class="cls-4" d="M109.53,271.06s-.72,13.01-.88,25.6l-7.95,1.49s.7-14.21,0-19.86c-.53-4.34-10.95-3.47-15.77-2.83-.13-2.73-.22-4.4-.22-4.4l12.41-.22,12.41.22Z"/>
          <path class="cls-18" d="M88.85,295.58c0-1.42,3.75-2.57,8.37-2.57"/>
          <path class="cls-6" d="M91.07,281.86c-2.23,2.82,1.97,40.11,0,42.73s-7.3,3.34-8.57,8.39c-1.27,5.05-5.11,33.08-.98,34.07,4.13.98,1.06-32.23,6.04-34.07s9.7-6.16,9.55-11.12c-.15-4.97,1.82-49.95-6.05-40Z"/>
          <path class="cls-6" d="M79.53,386.23c-3.76,1.42-3.56,33.11-1.87,34.05,2.73,1.51,6.2-35.69,1.87-34.05Z"/>
          <path class="cls-2" d="M85.78,390.39c-7.98,8.56-1.75,59.98,8.31,70.11,10.05,10.13,27.09-15.61,18.53-54.09-8.55-38.48-17.54-26-26.84-16.01Z"/>
          <path class="cls-27" d="M112.94,265.75c-.2.99-1.69,2.73-1.69,2.73,0,0,1.67,3.51.74,6.36,0,1.96-6.51,3.55-14.54,3.55-3.12,0-6.02-.24-8.39-.65-3.72-.64-6.15-1.7-6.15-2.9-.94-2.86.73-6.36.73-6.36,0,0-1.49-1.73-1.69-2.73-.2-1,1.69-2.29,1.69-2.29l-.73-6.94,8.87.77,5.67.49,14.54-1.26-.74,6.94s1.89,1.29,1.69,2.29Z"/>
          <ellipse class="cls-25" cx="97.53" cy="256.52" rx="14.54" ry="3.55"/>
        </g>
        <path class="cls-32" d="M47.06,226.33c-11.01,8.98-24.92,27.24-34.77,66.93l44.33,20.28s31-54.47,27.24-75.34c-2.61-14.49-24.63-21.15-36.8-11.59h0v-.29Z"/>
        <path class="cls-1" d="M18.95,319.05h0c4.93.87,8.98,3.77,11.3,8.69l46.07,88.96-22.31,9.27L2.72,345.71c-7.82-12.17,2.32-28.98,16.23-26.66h0Z"/>
        <path class="cls-1" d="M93.6,430.14l-24.41-22.1-17.94,16.18s.47.45.84.63c-1.64,31.01,13.45,44.11,13.45,44.11,14.17,13.12,18.96,9.28,20.24,4.21.85-3.68.14-7.43-1.94-10.69-8.05-14.06-10.57-36.83-10.57-36.83,23.19,15.16,19.69,4.41,19.69,4.41l.55-.19.1.27Z"/>
      </g>
      <g>
        <path class="cls-1" d="M234.82,347.16h0c12.75-.58,20.86-14.49,16.23-27.24l-32.74-78.81c-4.93-12.46-17.96-18.83-29.84-14.2h0c-13.91,5.51-19.41,22.89-11.88,36.22l41.44,74.18c3.48,6.37,10.14,9.85,17.1,9.56h-.29v.29Z"/>
        <g id="s-deception-b-water-closed-after">
          <path class="cls-31" d="M197.2,395.67c-.88-26.43-6.17-26.43-7.05-36.84-.88-10.4,10.58-38.14,5.73-57.64-4.85-19.5-26-26-26-26l-10.9.43-10.9-.43s-21.15,6.5-26,26c-4.85,19.5,6.61,47.24,5.73,57.64-.88,10.4-6.17,10.4-7.05,36.84s-1.32,84.94,1.32,99.24c2.64,14.3,4.85,18.2,12.34,21.23,0,0,.88,4.77,11.46,4.77,9.33,0,12.49-5.05,13.1-6.25.62,1.19,3.77,6.25,13.1,6.25,10.58,0,11.46-4.77,11.46-4.77,7.49-3.03,9.7-6.93,12.34-21.23,2.64-14.3,2.2-72.8,1.32-99.24Z"/>
          <path class="cls-30" d="M192.51,373.95c2.86,7.65,2.6,68.39,1.9,75.85-4.37,13.66-.26-49.59.11-46.67.36,2.86-1.11-1.95,0,0,1.77,3.11-1.33,22.5-.79,33.27.9,18.05,1.26,56.49-1.27,65.61-2.56,9.22-4.37,10.84-10.23,12.42l-1.76.48-.3,1.08c-.4.45-2.48,1.46-8.1,1.46-7.39,0-9.64-2.43-10.02-2.91l-3.08-3.98-3.08,3.98c-.38.49-2.63,2.91-10.02,2.91-5.62,0-7.7-1.01-8.1-1.46l-.3-1.08-1.76-.48c-5.86-1.58-7.67-3.21-10.23-12.42-2.53-9.12-2.17-47.56-1.27-65.61.54-10.77,2.74-14.65,4.52-17.76,1.11-1.95-.63,42.55-.26,39.69-6.82-2.56-2.65-20.77-4.37-26-2.66-8.06-1.52-50.73,1.34-58.38h67.07Z"/>
          <path class="cls-21" d="M194.41,441.49c0-16.94-.29-34.12-.68-45.71-.01-.31-.02-.6-.03-.9h-69.45c-.01.3-.02.6-.03.9-.39,11.58-.67,28.76-.68,45.71h70.87Z"/>
          <g class="cls-9">
            <path class="cls-22" d="M185.19,489.61c.63-14.53.75-67.5-.13-93.94-.88-26.43-6.17-26.43-7.05-36.84-.88-10.4,10.58-38.14,5.73-57.64-4.15-16.68-20.23-23.85-24.79-25.57h.02s10.9-.43,10.9-.43c0,0,21.15,6.5,26,26,4.85,19.5-6.61,47.24-5.73,57.64.88,10.4,6.17,10.4,7.05,36.84.88,26.43,1.32,84.94-1.32,99.24-2.64,14.3-4.85,18.2-12.34,21.23,0,0,1.28-17.89,1.66-26.53Z"/>
          </g>
          <path class="cls-7" d="M134.42,494.91c-5.38-13.51-3.94-64.74-3.05-91.18.88-26.43,7.9-34.5,8.78-44.9.88-10.4-10.87-38.21-5.73-57.64,2.8-10.57,9.95-17.07,15.8-16.42,5.85.65-8.45,8.45-9.75,20.8-1.19,11.29,7.15,42.25,5.85,56.55-1.3,14.3-7.15,18.85-8.45,40.3-1.3,21.45,1.3,87.1,1.3,91.65s-3.64,3.6-4.75.83Z"/>
          <path class="cls-15" d="M158.88,260.99h0c-.16,0-.31,0-.47,0-.16,0-.31,0-.47,0h0c-9.49.06-13.14.97-12.93,2.52.22,1.6,3.68,1.37,3.68,1.37v4.81c-3.03,1.37-3.25,3.43-3.25,3.43l.43,2.98,12.53-.22,12.53.22.43-2.98s-.22-2.06-3.25-3.43v-4.81s3.47.23,3.68-1.37c.21-1.55-3.44-2.46-12.93-2.52Z"/>
          <g class="cls-19">
            <path class="cls-22" d="M168.12,265.25h-19.43c-.21,0-.38-.17-.38-.38s.17-.38.38-.38h19.43c.21,0,.38.17.38.38s-.17.38-.38.38Z"/>
          </g>
          <g class="cls-19">
            <path class="cls-22" d="M168.12,270.06h-19.43c-.21,0-.38-.17-.38-.38s.17-.38.38-.38h19.43c.21,0,.38.17.38.38s-.17.38-.38.38Z"/>
          </g>
          <g>
            <path class="cls-17" d="M170.01,260.47s.22-10.3,0-13.05c-.22-2.75-1.3-5.04-5.42-5.27h-12.06c-4.12.23-5.2,2.52-5.42,5.27-.22,2.75,0,13.05,0,13.05h22.9Z"/>
            <g>
              <path class="cls-28" d="M159.4,247.87c0-.48-.39-.87-.87-.87s-.87.39-.87.87v12.6h1.73v-12.6Z"/>
              <path class="cls-28" d="M156.56,247.87c0-.48-.39-.87-.87-.87s-.87.39-.87.87v12.6h1.73v-12.6h0Z"/>
              <path class="cls-28" d="M150.88,260.47v-12.6c0-.48-.39-.87-.87-.87s-.87.39-.87.87v12.6h1.73Z"/>
              <path class="cls-28" d="M153.72,247.87c0-.48-.39-.87-.87-.87s-.87.39-.87.87v12.6h1.73v-12.6h0Z"/>
              <path class="cls-28" d="M167.92,247.87c0-.48-.39-.87-.87-.87s-.87.39-.87.87v12.6h1.73v-12.6h0Z"/>
              <path class="cls-28" d="M162.24,247.87c0-.48-.39-.87-.87-.87s-.87.39-.87.87v12.6h1.73v-12.6h0Z"/>
              <path class="cls-28" d="M165.08,247.87c0-.48-.39-.87-.87-.87s-.87.39-.87.87v12.6h1.73v-12.6Z"/>
            </g>
          </g>
        </g>
        <path class="cls-32" d="M207.87,226.04c11.01,8.98,24.92,27.24,34.77,66.93l-44.33,20.28s-31-54.47-27.24-75.34c2.61-14.49,24.63-21.15,36.8-11.59h0v-.29Z"/>
        <path class="cls-1" d="M234.53,316.45h0c-4.93,1.16-8.69,4.35-10.72,9.27l-39.99,91.85,22.89,7.82,45.78-83.45c6.95-12.75-4.06-28.69-17.68-25.5h-.29,0Z"/>
        <path class="cls-1" d="M164.9,430.65l24.73-21.56,17.62,16.58s-.5.41-.89.55c1.18,31.08-14.16,43.85-14.16,43.85-14.42,12.87-19.1,9.15-20.21,3.88-.91-3.6.23-7.53,1.93-10.58,8.16-13.8,11.19-36.6,11.19-36.6-23.44,14.51-19.56,3.85-19.56,3.85l-.53-.24h0l-.12.26Z"/>
      </g>
    </g>
  </g>
</svg>