<?xml version="1.0" encoding="UTF-8"?>
<svg id="Ebene_2" data-name="Ebene 2" xmlns="http://www.w3.org/2000/svg" viewBox="0 0 79.25 247.25">
  <defs>
    <style>
      .cls-1 {
        fill: #d9b6b6;
      }

      .cls-2 {
        fill: #2d2d2d;
      }

      .cls-3 {
        fill: none;
        stroke: #630;
        stroke-linecap: round;
        stroke-miterlimit: 10;
      }

      .cls-4 {
        fill: #d9a2a0;
      }

      .cls-5 {
        fill: #f2f2f2;
      }

      .cls-6 {
        fill: #d9baba;
      }

      .cls-7, .cls-8 {
        fill: #603813;
      }

      .cls-9 {
        fill: #f7f8f9;
      }

      .cls-10 {
        opacity: .36;
      }

      .cls-10, .cls-11, .cls-8 {
        isolation: isolate;
      }

      .cls-12 {
        fill: #8b2b0e;
      }

      .cls-13 {
        fill: #273758;
      }

      .cls-11 {
        opacity: .02;
      }

      .cls-14 {
        fill: #e8e7e7;
      }

      .cls-15 {
        fill: #151515;
      }

      .cls-16 {
        fill: #d2d2d2;
      }

      .cls-17 {
        fill: #c69696;
      }

      .cls-8 {
        opacity: .5;
      }

      .cls-18 {
        fill: #e6e6e6;
      }

      .cls-19 {
        fill: #3f6138;
      }
    </style>
  </defs>
  <g id="Layer_1" data-name="Layer 1">
    <g id="german-girl-shoes">
      <g>
        <path class="cls-1" d="M38.9,167.93v1.2l-3.4,28.8-4.5,38.3h-5.8c-.6,0-1.9-19.6-1.9-38.3s.6-24.3,2.2-30c0-3.7,3-6.7,6.7-6.7s6,2.4,6.6,5.5v1.2h.1Z"/>
        <path class="cls-13" d="M32.3,242.33c0,1.2-.7,2.1-1.6,2.7s-22.7,2.4-23.3,2.2c-5-2.4,17.6-11.2,17.6-11.2l6.1.2s1.3,4.9,1.1,6.2h.1v-.1Z"/>
        <path class="cls-1" d="M33.2,174.73h0c-3.8.4-7.2-2.2-8-5.9l-6.7-34.7c-.4-5.1,3.4-9.5,8.5-10h0c5.1-.4,9.5,3.4,10,8.5l2,34.2c.3,4-1.8,7.5-5.7,7.9h-.1Z"/>
      </g>
      <g>
        <path class="cls-1" d="M54.3,197.93c0,18.7-1.3,38.3-1.9,38.3h-5.8l-4.5-38.3-3.3-28.8v-2.4c.6-3.1,3.3-5.5,6.6-5.5s6.7,3,6.7,6.7c1.7,5.7,2.2,17.7,2.2,30h0Z"/>
        <path class="cls-13" d="M45.3,242.33c0,1.2.7,2.1,1.6,2.7s22.7,2.4,23.3,2.2c5-2.4-17.6-11.2-17.6-11.2l-6.1.2s-1.3,4.9-1.1,6.2h0c0-.1-.1-.1-.1-.1h0Z"/>
        <path class="cls-1" d="M44.5,174.73h0c3.8.4,7.2-2.2,8-5.9l6.7-34.7c.4-5.1-3.4-9.5-8.5-10h0c-5.1-.4-9.5,3.4-10,8.5l-2,34.2c-.3,4,1.8,7.5,5.7,7.9h.1Z"/>
      </g>
      <path class="cls-1" d="M55.4,96.93c-1.5,5.7-1.2,11.7.7,17.3.7,2.1,1.4,4.7,1.8,7.8.5,3,1.2,7.7,1.2,11.5l-18.9,7.5h-2.8l-18.9-7.2c0-5.2.7-12.8,2.1-17.6.4-1.4.9-2.8,1.4-4,2.5-5.4,3.5-11.4,2.5-17.3l-3.9-22.6-1.2-6.7,1.2-.7,15.7-9.9h9.1l14.2,9.8,1.1.7-1.1,6.5-4.1,25h0l-.1-.1Z"/>
      <path class="cls-18" d="M55.4,96.93c-1.5,5.7-1.2,11.7.7,17.3.7,2.1,1.4,4.7,1.8,7.8H20.6v-5.8c.4-1.4.9-2.8,1.4-4,2.5-5.4,3.5-11.4,2.5-17.3l-3.9-22.6-1.1-6.7,12.7-8,4.1-2.6h9.1l3.5,2.4,11.8,8.1-1.1,6.5-4.1,25h0l-.1-.1Z"/>
      <path class="cls-19" d="M23.9,108.53s-11.6,30-11.1,58.1c0,1.5.9,2.7,2.1,3.1,7.9,2.1,36.8,8.9,50.7-1.7.9-.7,1.3-1.9,1.2-3.1-1.1-8.2-5.6-40.7-11.9-56.3-10.2,4.3-20.5,4.1-31.1,0h.1v-.1Z"/>
      <g id="s-falsebelief-uc-a-shoes">
        <g id="sneakers">
          <path class="cls-15" d="M56.65,125.74c-.24-.04-.5-.08-.78-.13-.79-.14-1.71-.35-2.73-.65-.98-.29-2.05-.67-3.17-1.16-.87-.38-1.77-.83-2.68-1.36-.11-.06-.22-.13-.33-.2s-.22-.14-.34-.21c-.14-.09-.29-.18-.43-.27-.49-.32-.96-.65-1.41-.98-.1-.08-.21-.16-.31-.23-.12-.09-.24-.19-.36-.28-.47-.37-.91-.75-1.32-1.13-.05-.05-.1-.09-.15-.14-.1-.09-.19-.18-.28-.27-.1-.09-.19-.18-.28-.27-.05-.05-.1-.1-.15-.14-.39-.39-.76-.79-1.11-1.17-.05-.05-.09-.1-.13-.15-.19-.21-.37-.42-.53-.63-.04-.05-.09-.1-.13-.16-.47-.58-.89-1.14-1.25-1.67-.07-.09-.13-.19-.19-.28-.43-.64-.77-1.21-1.04-1.69.09-.49.31-1.27.82-2.1.42-.68.67-1.06.98-1.15.93-.25,2.28,2.31,3.76,4.92.45.79.9,1.58,1.36,2.3.12.19.24.38.37.55.36.52.77,1.08,1.26,1.64.53.62,1.15,1.26,1.87,1.9.74.67,1.6,1.34,2.59,1.99.85.57,1.8,1.13,2.86,1.66.82.42,1.71.82,2.67,1.21.19.08.37.15.56.22,0,0,.01,0,.02,0Z"/>
          <path class="cls-14" d="M70.82,131.47c-.09.52-.68,2.37-8.58,3.87-2.57.48-4.92.75-7,.88-1.5.09-2.85.12-4.03.12-5.51.02-5.65-.56-10.82-.45-2.59.05-5.18-.02-7.77,0,0,0-.7,0-1.78-.06-1.95-.11-2.66-.31-3-.42-.65-.21-1.14-.47-1.46-.65-.16-.39-.36-.98-.43-1.72-.02-.16-.03-.33-.04-.5v-.17c0-.49.06-.92.13-1.28.04-.18.08-.34.12-.48,5.55.6,14.52,1.28,23.48.51,2.8-.24,5.4-.6,5.61-.64,1.7-.24,3.33-.52,4.9-.82h0c.24-.05.48-.09.71-.14.23-.05.47-.09.7-.14,2.65-.55,5.09-1.16,7.31-1.8.04.02.09.05.15.09.03.02.05.03.08.05.02.01.05.03.07.05.04.03.08.06.12.09.13.1.28.22.43.37.13.12.25.27.38.43.02.03.05.06.07.09.03.04.06.08.08.12.03.05.06.09.09.15.04.06.07.12.1.19.46.9.47,1.81.39,2.25Z"/>
          <path class="cls-15" d="M58.62,133.78c-1.13.08-2.26.15-3.39.21-3.5.18-7,.27-10.45.27h-.76c-2.72,0-6.1-.03-10.53-.37-2.52-.2-5.06-.47-7.56-.83-.02-.16-.03-.33-.04-.5v-.17c2.53.37,5.1.65,7.65.84,4.41.34,7.78.36,10.48.37,3.7.02,7.45-.08,11.21-.27,1.12-.06,2.23-.13,3.34-.21l.05.66Z"/>
          <path class="cls-16" d="M70.82,131.47c-.09.52-.68,2.37-8.58,3.87-2.57.48-4.92.75-7,.88v-5.72c1.7-.24,3.33-.52,4.9-.82h0c.24-.05.48-.09.71-.14.23-.05.47-.09.7-.14,2.65-.55,5.09-1.16,7.31-1.8.04.02.09.05.15.09.03.02.05.03.08.05.02.01.05.03.07.05.17.11.36.26.55.46.13.12.25.27.38.43.02.03.05.06.07.09.03.04.06.08.08.12.03.05.06.09.09.15.04.06.07.12.1.19.46.9.47,1.81.39,2.25Z"/>
          <path class="cls-15" d="M69.27,127.88c-.1.1-.21.2-.32.3-1.55,1.37-3.75,2.04-6.82,2.98-.32.1-.59.17-.72.21-1.52.43-3,.66-6.17.83-1.96.11-4.57.19-8.24.3-7.15.21-10.37.25-13.29-.02-1.28-.12-2.51-.32-2.51-.32-2.05-.31-3.79-.71-5.16-1.07.04-.18.08-.34.12-.48,5.55.6,14.52,1.28,23.48.51,2.8-.24,5.4-.6,5.61-.64,1.7-.24,3.33-.52,4.9-.82h0c.24-.05.48-.09.71-.14.23-.05.47-.09.7-.14,2.65-.55,5.09-1.16,7.31-1.8.04.02.09.05.15.09.03.02.05.03.08.05.02.01.05.03.07.05.04.03.08.06.12.09Z"/>
          <path class="cls-2" d="M68.58,128.01s-.1.08-.16.12c-.06.04-.13.08-.2.12-.07.04-.15.08-.23.13-.08.04-.17.09-.26.14-.09.05-.19.09-.29.14-.07.03-.14.06-.21.1-.14.06-.29.13-.45.2-.08.03-.16.07-.24.1-.12.05-.25.1-.38.15s-.26.1-.4.16c-.13.05-.27.1-.41.16-.09.04-.19.07-.28.11-.91.34-1.92.68-2.95,1-.16.05-.32.1-.47.15-.08.03-.17.05-.25.07-1.52.43-3,.66-6.17.83-1.96.11-4.57.2-8.24.3-9.18.26-11.88.26-15.81-.33-2.13-.34-3.88-.73-5.04-1.02-.03-.81-.02-1.56.03-2.25.1-1.58.37-2.85.64-3.8.35-1.24.96-2.89,1.34-5.05.11-.54.28-1.64.34-2.01.22-1.37.34-2.06.34-2.36.01-.62-.05-.99-.07-1.41,0-.11,0-.22,0-.34,0-.18.03-.37.07-.61.1-.56.18-1.02.51-1.17.45-.22,1,.32,1.68.68.82.42,1.79.37,3.7.33,1.83-.03,1.93-.24,2.81-.07h0c.76.15,1.54.48,2.49,1.18.18.13.35.27.51.4.08.07.17.14.25.22.39.35.71.7.99,1.05.57.71,1.01,1.44,1.59,2.24.16.22.32.44.51.67.42.53.86,1,1.3,1.42.73.7,1.48,1.27,2.22,1.77.78.52,1.55.97,2.29,1.39.19.11.38.21.56.31,1.1.59,2.11,1.03,3.03,1.38.69.26,1.34.48,1.94.68.26.09.52.17.79.25.21.07.42.13.63.19,2.09.62,4.03,1.03,4.88,1.21h0s.05,0,.07.01c.04,0,.08.02.12.03.11.03.23.05.34.07.03,0,.06.01.08.02.05,0,.11.02.17.03.38.07.74.12,1.09.16.02,0,.04,0,.07,0,.16.02.32.04.47.05.53.05,1.03.08,1.49.09.14,0,.27,0,.4.01.44,0,.84,0,1.19,0,.66-.01,1.16-.04,1.47,0,0,0,0,0,0,0,.06,0,.12.02.17.03.02,0,.03,0,.05.01.03,0,.05.02.07.04.04.03.07.06.08.1h0c.03.11-.07.25-.27.4Z"/>
          <path class="cls-5" d="M68.58,128.01s-.1.08-.16.12c-.06.04-.13.08-.2.12s-.15.08-.23.13c-.08.04-.17.09-.26.14-.09.05-.19.09-.29.14-.07.03-.14.06-.21.1-.14.07-.29.13-.45.2-.08.03-.16.07-.24.1-.12.05-.25.1-.38.15s-.26.1-.4.16c-.13.05-.27.1-.41.16-.09.04-.19.07-.28.11-.91.34-1.92.68-2.95,1-.16.05-.32.1-.47.14-.08.03-.17.05-.25.07.06-.46.11-.94.14-1.44,0-.19.02-.38.02-.58.02-.67,0-1.3-.05-1.88h0s.05,0,.07.01c.04,0,.08.02.12.03.11.03.23.05.34.07.03,0,.06.01.08.02.06.01.11.02.17.03.38.07.74.12,1.09.16.02,0,.04,0,.07,0,.16.02.32.04.47.05.53.05,1.03.08,1.49.09.14,0,.27,0,.4.01.44,0,.84,0,1.19,0,.66-.01,1.16-.03,1.47,0,0,0,0,0,0,0,.06,0,.12.02.17.03.02,0,.03,0,.05.01.03.01.05.02.07.04.04.03.07.06.08.1h0c.03.11-.07.25-.27.4Z"/>
          <path class="cls-14" d="M29.25,113.55c-.16-.05-.32-.09-.48-.14,0,.12,0,.23,0,.34.12.04.26.08.39.12.01,0,.03,0,.05,0,.07,0,.14-.05.16-.12.02-.08-.03-.18-.12-.2ZM30.56,113.87c-.23-.05-.45-.1-.66-.15-.08-.02-.18.03-.2.12-.02.08.03.18.12.2.22.05.44.1.67.15.01,0,.03,0,.04,0,.07,0,.14-.05.16-.13.02-.08-.04-.18-.12-.2ZM31.9,114.12l-.23-.04c-.15-.02-.29-.05-.44-.07-.09-.02-.18.04-.19.13-.02.09.04.17.13.19.14.03.3.05.45.08l.23.03s.01,0,.03,0c.08,0,.14-.06.16-.14.02-.08-.05-.17-.13-.18ZM39.99,114.14c-.23.02-.46.05-.68.06-.09.01-.16.09-.15.18,0,.09.08.15.16.15h.01c.22-.02.45-.04.68-.07.09,0,.16-.08.14-.18,0-.09-.09-.16-.18-.14ZM33.23,114.28c-.22-.02-.44-.05-.67-.07-.09-.01-.18.05-.18.14-.01.09.05.17.14.18.23.03.46.05.68.07h.02c.08,0,.15-.07.16-.15,0-.08-.06-.16-.15-.18ZM38.64,114.25s-.04,0-.06,0c-.2.02-.38.03-.56.03h-.05c-.09.01-.16.08-.16.18,0,.08.08.16.16.16h.06c.2-.01.41-.03.63-.05.04,0,.08-.02.11-.05.03-.03.05-.08.05-.12,0-.09-.09-.16-.18-.16ZM37.28,114.33c-.22.01-.45.02-.68.03-.09,0-.16.08-.16.16,0,.09.07.16.16.16.23-.01.46-.02.68-.03.09,0,.16-.08.16-.17,0-.09-.07-.16-.17-.16ZM34.58,114.37c-.22-.01-.45-.02-.68-.03-.1,0-.17.06-.18.15,0,.09.07.17.16.17.23.02.46.03.68.04h0c.09,0,.16-.07.16-.16,0-.08-.07-.16-.16-.16ZM35.94,114.38h0c-.16,0-.31,0-.47,0h-.2c-.09,0-.16.07-.16.16,0,.09.07.17.16.17h.2c.16,0,.32,0,.48,0,.09,0,.16-.07.16-.16,0-.09-.08-.16-.16-.16Z"/>
          <path class="cls-14" d="M38.34,115.65c-.09-.2-.18-.4-.26-.6-.03-.08-.13-.12-.21-.09-.08.03-.12.13-.09.21.08.2.17.4.26.6.03.06.09.1.15.1.02,0,.05,0,.07-.01.08-.04.12-.13.08-.22ZM38.91,116.82c-.1-.2-.2-.39-.3-.58-.04-.08-.14-.11-.22-.08s-.11.14-.08.22c.1.2.2.39.3.59.03.06.08.09.14.09.03,0,.05,0,.08-.02.08-.04.11-.14.07-.22ZM39.56,117.94c-.12-.19-.23-.37-.33-.56-.05-.08-.15-.1-.22-.06-.08.05-.11.15-.06.23.11.19.22.38.34.57.03.05.08.08.14.08.03,0,.06,0,.09-.03.08-.05.1-.15.05-.23ZM40.28,119.02c-.13-.18-.25-.36-.37-.53-.05-.08-.15-.09-.23-.04-.08.05-.09.15-.05.23.12.18.25.36.38.54.03.04.08.07.13.07.03,0,.07,0,.09-.03.07-.05.09-.15.04-.23ZM41.08,120.05c-.14-.17-.28-.34-.41-.51-.06-.07-.16-.08-.23-.03-.07.06-.08.16-.03.23.13.17.27.34.41.51.03.04.08.06.13.06.04,0,.07-.01.1-.04.07-.06.08-.16.02-.23ZM41.95,121.01c-.15-.16-.3-.31-.44-.47-.06-.07-.17-.07-.23-.01-.07.06-.07.16-.01.23.15.16.3.32.45.48.03.03.08.05.12.05s.08-.02.11-.05c.07-.06.07-.17,0-.23ZM42.89,121.91c-.16-.14-.32-.29-.48-.44-.07-.06-.17-.06-.23,0s-.06.17,0,.23c.16.15.32.3.49.45.03.03.07.04.11.04.05,0,.09-.02.12-.06.06-.07.05-.17-.01-.23ZM43.89,122.72c-.22-.16-.39-.29-.51-.39-.07-.06-.17-.05-.23.02s-.05.17.02.23c.13.1.3.24.53.4.03.02.06.03.1.03.05,0,.1-.02.13-.07.05-.07.04-.17-.04-.23ZM44.97,123.45c-.2-.13-.38-.24-.55-.35-.07-.05-.18-.03-.23.04-.05.08-.03.18.05.23.17.11.35.23.55.36.03.02.06.03.09.03.06,0,.11-.03.14-.08.05-.08.03-.18-.05-.23ZM46.09,124.11c-.2-.11-.39-.22-.56-.33-.08-.05-.18-.02-.22.06-.05.08-.02.18.06.23.18.1.37.22.57.33.03.01.05.02.08.02.06,0,.11-.03.14-.08.05-.08.02-.18-.06-.22ZM47.23,124.74c-.2-.1-.39-.21-.58-.31-.08-.04-.18-.02-.22.07-.04.08-.01.18.07.22.18.1.38.2.58.31.02.01.05.02.08.02.06,0,.12-.03.15-.09.04-.08,0-.18-.07-.22ZM48.4,125.32c-.14-.07-.27-.13-.4-.2l-.18-.09c-.08-.04-.18,0-.22.07-.04.08,0,.18.07.22l.18.09c.13.07.27.13.41.2.02.01.05.02.07.02.06,0,.12-.03.15-.09.04-.08,0-.18-.08-.22ZM49.58,125.88c-.2-.09-.4-.18-.59-.27-.08-.04-.18,0-.22.08-.04.08,0,.18.08.22.19.09.39.18.6.27.02,0,.05.02.07.02.06,0,.12-.04.15-.1.04-.08,0-.18-.08-.22ZM50.77,126.4c-.2-.08-.4-.17-.6-.26-.08-.04-.18,0-.22.08-.04.08,0,.18.08.22.2.08.4.17.6.26.02,0,.04.01.06.01.07,0,.12-.04.15-.1.03-.08,0-.18-.09-.22ZM51.98,126.89c-.21-.08-.41-.16-.61-.24-.08-.03-.18,0-.21.09-.03.08,0,.18.09.21.2.08.4.16.61.24.02,0,.04.01.06.01.07,0,.13-.04.15-.1.03-.08,0-.18-.09-.21ZM53.21,127.35c-.21-.08-.41-.15-.61-.23-.08-.03-.18.01-.21.1-.03.08,0,.18.09.21.2.08.41.15.62.23.02,0,.04,0,.06,0,.07,0,.13-.04.15-.11.03-.08-.01-.18-.1-.21ZM54.44,127.78c-.21-.07-.41-.14-.62-.21-.09-.03-.18.01-.21.1-.03.08.02.18.1.21.2.07.41.14.62.21.02,0,.04,0,.05,0,.07,0,.13-.04.16-.11.03-.08-.02-.18-.1-.21ZM55.68,128.18c-.21-.07-.42-.13-.62-.2-.09-.03-.18.02-.21.11-.03.08.02.18.1.21.21.07.42.13.63.2.02,0,.03,0,.05,0,.07,0,.14-.05.16-.12.03-.08-.02-.18-.11-.2ZM56.93,128.55c-.21-.06-.42-.12-.63-.18-.09-.03-.18.03-.2.11-.03.09.02.18.11.2.21.06.42.12.63.18.01,0,.03,0,.04,0,.07,0,.14-.05.16-.12.02-.09-.03-.18-.11-.2ZM58.2,128.89c-.21-.06-.42-.11-.63-.17-.09-.02-.18.03-.2.12s.03.18.11.2c.21.06.42.11.64.17.01,0,.03,0,.04,0,.07,0,.14-.05.16-.12.02-.09-.03-.18-.12-.2ZM59.47,129.19c-.22-.05-.43-.1-.64-.15-.09-.02-.18.03-.2.12-.02.09.03.18.12.2.21.05.42.1.64.15.01,0,.03,0,.04,0,.08,0,.14-.05.16-.13.02-.09-.04-.18-.12-.2ZM60.85,129.54s-.06-.06-.1-.07c-.22-.04-.43-.09-.64-.13-.09-.02-.17.04-.19.12-.02.09.04.18.12.2.03,0,.06.01.1.02h0c.18.04.36.08.54.11.01,0,.02,0,.03,0,.08,0,.14-.05.16-.13,0-.05,0-.09-.03-.12Z"/>
          <circle class="cls-9" cx="40.49" cy="116.6" r=".62"/>
          <path class="cls-15" d="M40.49,117.03c-.24,0-.43-.19-.43-.43s.19-.43.43-.43.43.19.43.43-.19.43-.43.43Z"/>
          <path class="cls-14" d="M40.49,116.93c-.09,0-.18-.04-.24-.11-.12-.13-.11-.34.02-.46l2.76-2.5c.13-.12.34-.11.46.02.12.13.11.34-.02.46l-2.76,2.5c-.06.06-.14.08-.22.08Z"/>
          <path class="cls-9" d="M42.86,118.85c0-.34-.28-.62-.62-.62s-.62.28-.62.62.28.62.62.62.62-.28.62-.62Z"/>
          <path class="cls-15" d="M42.23,119.28c-.24,0-.43-.19-.43-.43s.19-.43.43-.43.43.19.43.43-.19.43-.43.43Z"/>
          <path class="cls-14" d="M42.23,119.18c-.08,0-.16-.03-.23-.09-.13-.13-.13-.33,0-.46l2.45-2.54c.13-.13.33-.13.46,0,.13.13.13.33,0,.46l-2.45,2.54c-.06.07-.15.1-.24.1Z"/>
          <path class="cls-9" d="M44.79,120.89c0-.34-.28-.62-.62-.62s-.62.28-.62.62.28.62.62.62.62-.28.62-.62Z"/>
          <circle class="cls-15" cx="44.17" cy="120.89" r=".43"/>
          <circle class="cls-9" cx="46.7" cy="122.66" r=".62"/>
          <path class="cls-15" d="M46.7,123.08c-.24,0-.43-.19-.43-.43s.19-.43.43-.43.43.19.43.43c0,.24-.19.43-.43.43Z"/>
          <path class="cls-9" d="M50.3,124.41c0-.34-.28-.62-.62-.62s-.62.28-.62.62.28.62.62.62.62-.28.62-.62Z"/>
          <path class="cls-15" d="M49.67,124.84c-.24,0-.43-.19-.43-.43s.19-.43.43-.43.43.19.43.43-.19.43-.43.43Z"/>
          <path class="cls-9" d="M53.47,125.74c0-.34-.28-.62-.62-.62s-.62.28-.62.62.28.62.62.62.62-.28.62-.62Z"/>
          <path class="cls-15" d="M52.84,126.17c-.24,0-.43-.19-.43-.43s.19-.43.43-.43.43.19.43.43c0,.24-.19.43-.43.43Z"/>
          <path class="cls-14" d="M44.17,121.21c-.08,0-.16-.03-.22-.08-.13-.12-.15-.33-.03-.46l2.14-2.39c.12-.13.33-.15.46-.03.13.12.15.33.03.46l-2.14,2.39c-.06.07-.15.11-.24.11Z"/>
          <path class="cls-14" d="M46.7,122.98c-.06,0-.12-.02-.17-.05-.15-.1-.2-.3-.11-.45l1.39-2.25c.1-.15.3-.2.45-.11.15.1.2.3.11.45l-1.39,2.25c-.06.1-.17.15-.28.15Z"/>
          <path class="cls-14" d="M49.67,124.74s-.1-.01-.14-.03c-.16-.08-.23-.27-.15-.44l1.04-2.15c.08-.16.27-.23.44-.15.16.08.23.27.15.44l-1.04,2.15c-.06.12-.17.18-.29.18Z"/>
          <path class="cls-14" d="M52.84,126.07s-.08,0-.12-.02c-.17-.06-.25-.25-.19-.42l.68-1.79c.06-.17.25-.25.42-.19.17.06.25.25.19.42l-.68,1.79c-.05.13-.17.21-.31.21Z"/>
          <path class="cls-11" d="M70.82,131.47c-.09.52-.68,2.37-8.58,3.87-2.57.48-4.92.75-7,.88-1.5.09-2.85.12-4.03.12-5.51.02-5.65-.56-10.82-.45-2.59.05-5.18-.02-7.77,0,0,0-.7,0-1.78-.06-1.95-.11-2.66-.31-3-.42-.65-.21-1.14-.47-1.46-.65-.16-.39-.36-.98-.43-1.72-.02-.16-.03-.33-.04-.5v-.17c0-.49.06-.92.13-1.28.04-.18.08-.34.12-.48-.03-.81-.02-1.56.03-2.25,4.6,1.26,10.06,1.96,16.17,1.24,5.16-.61,9.66-2.11,13.52-4.01.05-.02.09-.04.13-.07.02,0,.04-.02.06-.03.19.08.37.15.56.22,2.09.62,4.03,1.03,4.88,1.21h0s.05,0,.07.01c.04,0,.08.02.12.03.11.03.23.05.34.07.03,0,.06.01.08.02.05,0,.11.02.17.03.38.07.74.12,1.09.16.02,0,.04,0,.07,0,.16.02.32.04.47.05.53.05,1.03.08,1.49.09.14,0,.27,0,.4.01.44,0,.84,0,1.19,0,.66-.01,1.16-.04,1.47,0,0,0,0,0,0,0,.06,0,.12.02.17.03.02,0,.03,0,.05.01.03,0,.05.02.07.04.04.03.07.06.08.1.04.02.09.05.15.09.03.02.05.03.08.05.02.01.05.03.07.05.17.11.36.26.55.46.13.12.25.27.38.43.02.03.05.06.07.09.03.04.06.08.08.12.03.05.06.09.09.15.04.06.07.12.1.19.46.9.47,1.81.39,2.25Z"/>
        </g>
        <path class="cls-10" d="M65.66,134.55s.02-.09.03-.12c.08-.44.07-1.35-.39-2.25-.03-.06-.07-.13-.1-.19-.03-.05-.06-.1-.09-.15-.03-.04-.05-.08-.08-.12-.02-.03-.05-.06-.07-.09-.12-.16-.25-.3-.38-.43-.19-.2-.39-.35-.55-.46-.02-.02-.05-.03-.07-.05-.03-.02-.05-.04-.08-.05-.06-.04-.11-.07-.15-.09,0-.04-.04-.07-.08-.1-.02-.01-.04-.03-.07-.04-.01,0-.03,0-.05-.01-.05-.01-.1-.02-.17-.03,0,0,0,0,0,0-.31-.04-.81-.02-1.47,0-.35,0-.75.01-1.19,0-.13,0-.27,0-.4-.01-.46-.01-.96-.04-1.49-.09-.16-.02-.31-.03-.47-.05-.02,0-.04,0-.07,0-.35-.04-.72-.1-1.09-.16-.06,0-.11-.02-.17-.03-.03,0-.06,0-.08-.02-.11-.02-.23-.04-.34-.07-.04,0-.08-.02-.12-.03-.02,0-.05,0-.07-.02h0c-.85-.18-2.79-.58-4.88-1.2-.19-.07-.38-.15-.56-.22-.85-.34-1.64-.69-2.38-1.06l.14-.38c.06-.17-.02-.36-.19-.42-.17-.06-.36.02-.42.19l-.12.32c-.83-.43-1.59-.88-2.29-1.33l.2-.42c.08-.16.01-.36-.15-.44-.16-.08-.36-.01-.44.15l-.16.34c-.77-.52-1.45-1.06-2.06-1.59l.18-.29c.1-.15.05-.36-.11-.45-.15-.1-.36-.05-.45.11l-.12.19c-.52-.48-.99-.96-1.4-1.43l.25-.28c.12-.13.11-.34-.03-.46-.13-.12-.34-.11-.46.03l-.19.22c-.4-.48-.74-.95-1.05-1.39-.06-.09-.12-.18-.18-.27l.28-.29c.13-.13.12-.34,0-.46-.13-.13-.34-.12-.46,0l-.17.18c-.34-.55-.68-1.13-1.02-1.72l.21-.19c.13-.12.14-.33.02-.46-.12-.13-.33-.14-.46-.02l-.1.09c-1.02-1.82-1.98-3.56-2.77-4.29-.09,0-.19,0-.3,0-.36,0-.68.01-.98.02-.15.19-.32.45-.52.78-.51.83-.72,1.6-.82,2.1h0c-.88-.18-.98.03-2.81.07-.29,0-.55.01-.8.01-.05.39-.15,1-.3,1.9-.06.37-.23,1.47-.34,2.01-.38,2.16-.99,3.81-1.34,5.05-.27.95-.53,2.22-.64,3.8-.05.69-.06,1.44-.03,2.25-.05.14-.08.3-.12.48-.07.36-.13.79-.13,1.28v.17c0,.17.02.34.04.5.07.73.27,1.32.43,1.72.32.18.81.44,1.46.65.34.11,1.05.31,3,.42,1.08.07,1.78.06,1.78.06,2.59-.02,5.18.05,7.77,0,5.17-.11,5.31.47,10.82.45,1.19,0,2.53-.03,4.03-.12,2.08-.14,4.43-.4,7-.88,1.34-.25,2.47-.52,3.42-.78Z"/>
        <g id="sneakers-2" data-name="sneakers">
          <path class="cls-15" d="M49.54,128.7c-.24-.04-.5-.08-.78-.13-.79-.14-1.71-.35-2.73-.65-.98-.29-2.05-.67-3.17-1.16-.87-.38-1.77-.83-2.68-1.36-.11-.06-.22-.13-.33-.2s-.22-.14-.34-.21c-.14-.09-.29-.18-.43-.27-.49-.32-.96-.65-1.41-.98-.1-.08-.21-.16-.31-.23-.12-.09-.24-.19-.36-.28-.47-.37-.91-.75-1.32-1.13-.05-.05-.1-.09-.15-.14-.1-.09-.19-.18-.28-.27-.1-.09-.19-.18-.28-.27-.05-.05-.1-.1-.15-.14-.39-.39-.76-.79-1.11-1.17-.05-.05-.09-.1-.13-.15-.19-.21-.37-.42-.53-.63-.04-.05-.09-.1-.13-.16-.47-.58-.89-1.14-1.25-1.67-.07-.09-.13-.19-.19-.28-.43-.64-.77-1.21-1.04-1.69.09-.49.31-1.27.82-2.1.42-.68.67-1.06.98-1.15.93-.25,2.28,2.31,3.76,4.92.45.79.9,1.58,1.36,2.3.12.19.24.38.37.55.36.52.77,1.08,1.26,1.64.53.62,1.15,1.26,1.87,1.9.74.67,1.6,1.34,2.59,1.99.85.57,1.8,1.13,2.86,1.66.82.42,1.71.82,2.67,1.21.19.08.37.15.56.22,0,0,.01,0,.02,0Z"/>
          <path class="cls-14" d="M63.71,134.43c-.09.52-.68,2.37-8.58,3.87-2.57.48-4.92.75-7,.88-1.5.09-2.85.12-4.03.12-5.51.02-5.65-.56-10.82-.45-2.59.05-5.18-.02-7.77,0,0,0-.7,0-1.78-.06-1.95-.11-2.66-.31-3-.42-.65-.21-1.14-.47-1.46-.65-.16-.39-.36-.98-.43-1.72-.02-.16-.03-.33-.04-.5v-.17c0-.49.06-.92.13-1.28.04-.18.08-.34.12-.48,5.55.6,14.52,1.28,23.48.51,2.8-.24,5.4-.6,5.61-.64,1.7-.24,3.33-.52,4.9-.82h0c.24-.05.48-.09.71-.14.23-.05.47-.09.7-.14,2.65-.55,5.09-1.16,7.31-1.8.04.02.09.05.15.09.03.02.05.03.08.05.02.01.05.03.07.05.04.03.08.06.12.09.13.1.28.22.43.37.13.12.25.27.38.43.02.03.05.06.07.09.03.04.06.08.08.12.03.05.06.09.09.15.04.06.07.12.1.19.46.9.47,1.81.39,2.25Z"/>
          <path class="cls-15" d="M51.51,136.74c-1.13.08-2.26.15-3.39.21-3.5.18-7,.27-10.45.27h-.76c-2.72,0-6.1-.03-10.53-.37-2.52-.2-5.06-.47-7.56-.83-.02-.16-.03-.33-.04-.5v-.17c2.53.37,5.1.65,7.65.84,4.41.34,7.78.36,10.48.37,3.7.02,7.45-.08,11.21-.27,1.12-.06,2.23-.13,3.34-.21l.05.66Z"/>
          <path class="cls-16" d="M63.71,134.43c-.09.52-.68,2.37-8.58,3.87-2.57.48-4.92.75-7,.88v-5.72c1.7-.24,3.33-.52,4.9-.82h0c.24-.05.48-.09.71-.14.23-.05.47-.09.7-.14,2.65-.55,5.09-1.16,7.31-1.8.04.02.09.05.15.09.03.02.05.03.08.05.02.01.05.03.07.05.17.11.36.26.55.46.13.12.25.27.38.43.02.03.05.06.07.09.03.04.06.08.08.12.03.05.06.09.09.15.04.06.07.12.1.19.46.9.47,1.81.39,2.25Z"/>
          <path class="cls-15" d="M62.16,130.84c-.1.1-.21.2-.32.3-1.55,1.37-3.75,2.04-6.82,2.98-.32.1-.59.17-.72.21-1.52.43-3,.66-6.17.83-1.96.11-4.57.19-8.24.3-7.15.21-10.37.25-13.29-.02-1.28-.12-2.51-.32-2.51-.32-2.05-.31-3.79-.71-5.16-1.07.04-.18.08-.34.12-.48,5.55.6,14.52,1.28,23.48.51,2.8-.24,5.4-.6,5.61-.64,1.7-.24,3.33-.52,4.9-.82h0c.24-.05.48-.09.71-.14.23-.05.47-.09.7-.14,2.65-.55,5.09-1.16,7.31-1.8.04.02.09.05.15.09.03.02.05.03.08.05.02.01.05.03.07.05.04.03.08.06.12.09Z"/>
          <path class="cls-2" d="M61.47,130.97s-.1.08-.16.12c-.06.04-.13.08-.2.12-.07.04-.15.08-.23.13-.08.04-.17.09-.26.14-.09.05-.19.09-.29.14-.07.03-.14.06-.21.1-.14.06-.29.13-.45.2-.08.03-.16.07-.24.1-.12.05-.25.1-.38.15s-.26.1-.4.16c-.13.05-.27.1-.41.16-.09.04-.19.07-.28.11-.91.34-1.92.68-2.95,1-.16.05-.32.1-.47.15-.08.03-.17.05-.25.07-1.52.43-3,.66-6.17.83-1.96.11-4.57.2-8.24.3-9.18.26-11.88.26-15.81-.33-2.13-.34-3.88-.73-5.04-1.02-.03-.81-.02-1.56.03-2.25.1-1.58.37-2.85.64-3.8.35-1.24.96-2.89,1.34-5.05.11-.54.28-1.64.34-2.01.22-1.37.34-2.06.34-2.36.01-.62-.05-.99-.07-1.41,0-.11,0-.22,0-.34,0-.18.03-.37.07-.61.1-.56.18-1.02.51-1.17.45-.22,1,.32,1.68.68.82.42,1.79.37,3.7.33,1.83-.03,1.93-.24,2.81-.07h0c.76.15,1.54.48,2.49,1.18.18.13.35.27.51.4.08.07.17.14.25.22.39.35.71.7.99,1.05.57.71,1.01,1.44,1.59,2.24.16.22.32.44.51.67.42.53.86,1,1.3,1.42.73.7,1.48,1.27,2.22,1.77.78.52,1.55.97,2.29,1.39.19.11.38.21.56.31,1.1.59,2.11,1.03,3.03,1.38.69.26,1.34.48,1.94.68.26.09.52.17.79.25.21.07.42.13.63.19,2.09.62,4.03,1.03,4.88,1.21h0s.05,0,.07.01c.04,0,.08.02.12.03.11.03.23.05.34.07.03,0,.06.01.08.02.05,0,.11.02.17.03.38.07.74.12,1.09.16.02,0,.04,0,.07,0,.16.02.32.04.47.05.53.05,1.03.08,1.49.09.14,0,.27,0,.4.01.44,0,.84,0,1.19,0,.66-.01,1.16-.04,1.47,0,0,0,0,0,0,0,.06,0,.12.02.17.03.02,0,.03,0,.05.01.03,0,.05.02.07.04.04.03.07.06.08.1h0c.03.11-.07.25-.27.4Z"/>
          <path class="cls-5" d="M61.47,130.97s-.1.08-.16.12c-.06.04-.13.08-.2.12s-.15.08-.23.13c-.08.04-.17.09-.26.14-.09.05-.19.09-.29.14-.07.03-.14.06-.21.1-.14.07-.29.13-.45.2-.08.03-.16.07-.24.1-.12.05-.25.1-.38.15s-.26.1-.4.16c-.13.05-.27.1-.41.16-.09.04-.19.07-.28.11-.91.34-1.92.68-2.95,1-.16.05-.32.1-.47.14-.08.03-.17.05-.25.07.06-.46.11-.94.14-1.44,0-.19.02-.38.02-.58.02-.67,0-1.3-.05-1.88h0s.05,0,.07.01c.04,0,.08.02.12.03.11.03.23.05.34.07.03,0,.06.01.08.02.06.01.11.02.17.03.38.07.74.12,1.09.16.02,0,.04,0,.07,0,.16.02.32.04.47.05.53.05,1.03.08,1.49.09.14,0,.27,0,.4.01.44,0,.84,0,1.19,0,.66-.01,1.16-.03,1.47,0,0,0,0,0,0,0,.06,0,.12.02.17.03.02,0,.03,0,.05.01.03.01.05.02.07.04.04.03.07.06.08.1h0c.03.11-.07.25-.27.4Z"/>
          <path class="cls-14" d="M22.14,116.51c-.16-.05-.32-.09-.48-.14,0,.12,0,.23,0,.34.12.04.26.08.39.12.01,0,.03,0,.05,0,.07,0,.14-.05.16-.12.02-.08-.03-.18-.12-.2ZM23.46,116.83c-.23-.05-.45-.1-.66-.15-.08-.02-.18.03-.2.12-.02.08.03.18.12.2.22.05.44.1.67.15.01,0,.03,0,.04,0,.07,0,.14-.05.16-.13.02-.08-.04-.18-.12-.2ZM24.79,117.08l-.23-.04c-.15-.02-.29-.05-.44-.07-.09-.02-.18.04-.19.13-.02.09.04.17.13.19.14.03.3.05.45.08l.23.03s.01,0,.03,0c.08,0,.14-.06.16-.14.02-.08-.05-.17-.13-.18ZM32.88,117.1c-.23.02-.46.05-.68.06-.09.01-.16.09-.15.18,0,.09.08.15.16.15h.01c.22-.02.45-.04.68-.07.09,0,.16-.08.14-.18,0-.09-.09-.16-.18-.14ZM26.12,117.24c-.22-.02-.44-.05-.67-.07-.09-.01-.18.05-.18.14-.01.09.05.17.14.18.23.03.46.05.68.07h.02c.08,0,.15-.07.16-.15,0-.08-.06-.16-.15-.18ZM31.53,117.21s-.04,0-.06,0c-.2.02-.38.03-.56.03h-.05c-.09.01-.16.08-.16.18,0,.08.08.16.16.16h.06c.2-.01.41-.03.63-.05.04,0,.08-.02.11-.05.03-.03.05-.08.05-.12,0-.09-.09-.16-.18-.16ZM30.18,117.29c-.22.01-.45.02-.68.03-.09,0-.16.08-.16.16,0,.09.07.16.16.16.23-.01.46-.02.68-.03.09,0,.16-.08.16-.17,0-.09-.07-.16-.17-.16ZM27.47,117.33c-.22-.01-.45-.02-.68-.03-.1,0-.17.06-.18.15,0,.09.07.17.16.17.23.02.46.03.68.04h0c.09,0,.16-.07.16-.16,0-.08-.07-.16-.16-.16ZM28.83,117.34h0c-.16,0-.31,0-.47,0h-.2c-.09,0-.16.07-.16.16,0,.09.07.17.16.17h.2c.16,0,.32,0,.48,0,.09,0,.16-.07.16-.16,0-.09-.08-.16-.16-.16Z"/>
          <path class="cls-14" d="M31.23,118.61c-.09-.2-.18-.4-.26-.6-.03-.08-.13-.12-.21-.09-.08.03-.12.13-.09.21.08.2.17.4.26.6.03.06.09.1.15.1.02,0,.05,0,.07-.01.08-.04.12-.13.08-.22ZM31.81,119.78c-.1-.2-.2-.39-.3-.58-.04-.08-.14-.11-.22-.08s-.11.14-.08.22c.1.2.2.39.3.59.03.06.08.09.14.09.03,0,.05,0,.08-.02.08-.04.11-.14.07-.22ZM32.46,120.91c-.12-.19-.23-.37-.33-.56-.05-.08-.15-.1-.22-.06-.08.05-.11.15-.06.23.11.19.22.38.34.57.03.05.08.08.14.08.03,0,.06,0,.09-.03.08-.05.1-.15.05-.23ZM33.18,121.98c-.13-.18-.25-.36-.37-.53-.05-.08-.15-.09-.23-.04-.08.05-.09.15-.05.23.12.18.25.36.38.54.03.04.08.07.13.07.03,0,.07,0,.09-.03.07-.05.09-.15.04-.23ZM33.97,123.01c-.14-.17-.28-.34-.41-.51-.06-.07-.16-.08-.23-.03-.07.06-.08.16-.03.23.13.17.27.34.41.51.03.04.08.06.13.06.04,0,.07-.01.1-.04.07-.06.08-.16.02-.23ZM34.84,123.97c-.15-.16-.3-.31-.44-.47-.06-.07-.17-.07-.23-.01-.07.06-.07.16-.01.23.15.16.3.32.45.48.03.03.08.05.12.05s.08-.02.11-.05c.07-.06.07-.17,0-.23ZM35.78,124.87c-.16-.14-.32-.29-.48-.44-.07-.06-.17-.06-.23,0s-.06.17,0,.23c.16.15.32.3.49.45.03.03.07.04.11.04.05,0,.09-.02.12-.06.06-.07.05-.17-.01-.23ZM36.78,125.68c-.22-.16-.39-.29-.51-.39-.07-.06-.17-.05-.23.02s-.05.17.02.23c.13.1.3.24.53.4.03.02.06.03.1.03.05,0,.1-.02.13-.07.05-.07.04-.17-.04-.23ZM37.86,126.41c-.2-.13-.38-.24-.55-.35-.07-.05-.18-.03-.23.04-.05.08-.03.18.05.23.17.11.35.23.55.36.03.02.06.03.09.03.06,0,.11-.03.14-.08.05-.08.03-.18-.05-.23ZM38.98,127.08c-.2-.11-.39-.22-.56-.33-.08-.05-.18-.02-.22.06-.05.08-.02.18.06.23.18.1.37.22.57.33.03.01.05.02.08.02.06,0,.11-.03.14-.08.05-.08.02-.18-.06-.22ZM40.13,127.7c-.2-.1-.39-.21-.58-.31-.08-.04-.18-.02-.22.07-.04.08-.01.18.07.22.18.1.38.2.58.31.02.01.05.02.08.02.06,0,.12-.03.15-.09.04-.08,0-.18-.07-.22ZM41.29,128.28c-.14-.07-.27-.13-.4-.2l-.18-.09c-.08-.04-.18,0-.22.07-.04.08,0,.18.07.22l.18.09c.13.07.27.13.41.2.02.01.05.02.07.02.06,0,.12-.03.15-.09.04-.08,0-.18-.08-.22ZM42.47,128.84c-.2-.09-.4-.18-.59-.27-.08-.04-.18,0-.22.08-.04.08,0,.18.08.22.19.09.39.18.6.27.02,0,.05.02.07.02.06,0,.12-.04.15-.1.04-.08,0-.18-.08-.22ZM43.67,129.36c-.2-.08-.4-.17-.6-.26-.08-.04-.18,0-.22.08-.04.08,0,.18.08.22.2.08.4.17.6.26.02,0,.04.01.06.01.07,0,.12-.04.15-.1.03-.08,0-.18-.09-.22ZM44.88,129.86c-.21-.08-.41-.16-.61-.24-.08-.03-.18,0-.21.09-.03.08,0,.18.09.21.2.08.4.16.61.24.02,0,.04.01.06.01.07,0,.13-.04.15-.1.03-.08,0-.18-.09-.21ZM46.1,130.32c-.21-.08-.41-.15-.61-.23-.08-.03-.18.01-.21.1-.03.08,0,.18.09.21.2.08.41.15.62.23.02,0,.04,0,.06,0,.07,0,.13-.04.15-.11.03-.08-.01-.18-.1-.21ZM47.33,130.74c-.21-.07-.41-.14-.62-.21-.09-.03-.18.01-.21.1-.03.08.02.18.1.21.2.07.41.14.62.21.02,0,.04,0,.05,0,.07,0,.13-.04.16-.11.03-.08-.02-.18-.1-.21ZM48.58,131.14c-.21-.07-.42-.13-.62-.2-.09-.03-.18.02-.21.11-.03.08.02.18.1.21.21.07.42.13.63.2.02,0,.03,0,.05,0,.07,0,.14-.05.16-.12.03-.08-.02-.18-.11-.2ZM49.83,131.51c-.21-.06-.42-.12-.63-.18-.09-.03-.18.03-.2.11-.03.09.02.18.11.2.21.06.42.12.63.18.01,0,.03,0,.04,0,.07,0,.14-.05.16-.12.02-.09-.03-.18-.11-.2ZM51.09,131.85c-.21-.06-.42-.11-.63-.17-.09-.02-.18.03-.2.12s.03.18.11.2c.21.06.42.11.64.17.01,0,.03,0,.04,0,.07,0,.14-.05.16-.12.02-.09-.03-.18-.12-.2ZM52.36,132.15c-.22-.05-.43-.1-.64-.15-.09-.02-.18.03-.2.12-.02.09.03.18.12.2.21.05.42.1.64.15.01,0,.03,0,.04,0,.08,0,.14-.05.16-.13.02-.09-.04-.18-.12-.2ZM53.74,132.5s-.06-.06-.1-.07c-.22-.04-.43-.09-.64-.13-.09-.02-.17.04-.19.12-.02.09.04.18.12.2.03,0,.06.01.1.02h0c.18.04.36.08.54.11.01,0,.02,0,.03,0,.08,0,.14-.05.16-.13,0-.05,0-.09-.03-.12Z"/>
          <circle class="cls-9" cx="33.39" cy="119.56" r=".62"/>
          <path class="cls-15" d="M33.39,119.99c-.24,0-.43-.19-.43-.43s.19-.43.43-.43.43.19.43.43-.19.43-.43.43Z"/>
          <path class="cls-14" d="M33.39,119.89c-.09,0-.18-.04-.24-.11-.12-.13-.11-.34.02-.46l2.76-2.5c.13-.12.34-.11.46.02.12.13.11.34-.02.46l-2.76,2.5c-.06.06-.14.08-.22.08Z"/>
          <path class="cls-9" d="M35.75,121.81c0-.34-.28-.62-.62-.62s-.62.28-.62.62.28.62.62.62.62-.28.62-.62Z"/>
          <path class="cls-15" d="M35.13,122.24c-.24,0-.43-.19-.43-.43s.19-.43.43-.43.43.19.43.43-.19.43-.43.43Z"/>
          <path class="cls-14" d="M35.13,122.14c-.08,0-.16-.03-.23-.09-.13-.13-.13-.33,0-.46l2.45-2.54c.13-.13.33-.13.46,0,.13.13.13.33,0,.46l-2.45,2.54c-.06.07-.15.1-.24.1Z"/>
          <path class="cls-9" d="M37.69,123.85c0-.34-.28-.62-.62-.62s-.62.28-.62.62.28.62.62.62.62-.28.62-.62Z"/>
          <circle class="cls-15" cx="37.06" cy="123.85" r=".43"/>
          <circle class="cls-9" cx="39.59" cy="125.62" r=".62"/>
          <path class="cls-15" d="M39.59,126.04c-.24,0-.43-.19-.43-.43s.19-.43.43-.43.43.19.43.43c0,.24-.19.43-.43.43Z"/>
          <path class="cls-9" d="M43.19,127.37c0-.34-.28-.62-.62-.62s-.62.28-.62.62.28.62.62.62.62-.28.62-.62Z"/>
          <path class="cls-15" d="M42.57,127.8c-.24,0-.43-.19-.43-.43s.19-.43.43-.43.43.19.43.43-.19.43-.43.43Z"/>
          <path class="cls-9" d="M46.36,128.7c0-.34-.28-.62-.62-.62s-.62.28-.62.62.28.62.62.62.62-.28.62-.62Z"/>
          <path class="cls-15" d="M45.74,129.13c-.24,0-.43-.19-.43-.43s.19-.43.43-.43.43.19.43.43c0,.24-.19.43-.43.43Z"/>
          <path class="cls-14" d="M37.06,124.18c-.08,0-.16-.03-.22-.08-.13-.12-.15-.33-.03-.46l2.14-2.39c.12-.13.33-.15.46-.03.13.12.15.33.03.46l-2.14,2.39c-.06.07-.15.11-.24.11Z"/>
          <path class="cls-14" d="M39.59,125.94c-.06,0-.12-.02-.17-.05-.15-.1-.2-.3-.11-.45l1.39-2.25c.1-.15.3-.2.45-.11.15.1.2.3.11.45l-1.39,2.25c-.06.1-.17.15-.28.15Z"/>
          <path class="cls-14" d="M42.57,127.7s-.1-.01-.14-.03c-.16-.08-.23-.27-.15-.44l1.04-2.15c.08-.16.27-.23.44-.15.16.08.23.27.15.44l-1.04,2.15c-.06.12-.17.18-.29.18Z"/>
          <path class="cls-14" d="M45.74,129.03s-.08,0-.12-.02c-.17-.06-.25-.25-.19-.42l.68-1.79c.06-.17.25-.25.42-.19.17.06.25.25.19.42l-.68,1.79c-.05.13-.17.21-.31.21Z"/>
          <path class="cls-11" d="M63.71,134.43c-.09.52-.68,2.37-8.58,3.87-2.57.48-4.92.75-7,.88-1.5.09-2.85.12-4.03.12-5.51.02-5.65-.56-10.82-.45-2.59.05-5.18-.02-7.77,0,0,0-.7,0-1.78-.06-1.95-.11-2.66-.31-3-.42-.65-.21-1.14-.47-1.46-.65-.16-.39-.36-.98-.43-1.72-.02-.16-.03-.33-.04-.5v-.17c0-.49.06-.92.13-1.28.04-.18.08-.34.12-.48-.03-.81-.02-1.56.03-2.25,4.6,1.26,10.06,1.96,16.17,1.24,5.16-.61,9.66-2.11,13.52-4.01.05-.02.09-.04.13-.07.02,0,.04-.02.06-.03.19.08.37.15.56.22,2.09.62,4.03,1.03,4.88,1.21h0s.05,0,.07.01c.04,0,.08.02.12.03.11.03.23.05.34.07.03,0,.06.01.08.02.05,0,.11.02.17.03.38.07.74.12,1.09.16.02,0,.04,0,.07,0,.16.02.32.04.47.05.53.05,1.03.08,1.49.09.14,0,.27,0,.4.01.44,0,.84,0,1.19,0,.66-.01,1.16-.04,1.47,0,0,0,0,0,0,0,.06,0,.12.02.17.03.02,0,.03,0,.05.01.03,0,.05.02.07.04.04.03.07.06.08.1.04.02.09.05.15.09.03.02.05.03.08.05.02.01.05.03.07.05.17.11.36.26.55.46.13.12.25.27.38.43.02.03.05.06.07.09.03.04.06.08.08.12.03.05.06.09.09.15.04.06.07.12.1.19.46.9.47,1.81.39,2.25Z"/>
        </g>
      </g>
      <g>
        <path class="cls-12" d="M64.4,38.13c0-4.7-2.2-8.3-4-12.1-.8-1.7-1.6-4.7-2.8-6-1.6-1.7-5.4-.9-7.4-1-7.4-.3-14.8.2-22.2,1.1-2.3.3-3.7-.6-4.6,2.7-.6,2.1-1,2.9-1,2.9-2.3,4-6.1,6.4-7.5,11.5-1.1,4.1-.6,9.2,1.8,12.1,0-1.6.2-3.7.5-5.1,1.6,1.2,2.7,3.6,4.3,5s3.4,2.6,5.2,3.3c.2-1.4-.3-3.3,0-4.5,1.3,3.2,4.5,4.6,6.9,6,0-1.9-.5-4.3,1.1-3.2.4.3,1,1.6,1.5,2s1.1.8,1.7,1.1c1.8,1.1,2.6,1.4,4.3,0,1.2-1.1,2.7-2.6,3.7-4,.6,1.2.3,3.2.3,4.6,2,0,4.4-2.4,5.7-4.3.3,1.1,0,2.3.3,3.4,2.6-.3,7.2-5.1,8.4-8,1.2,1.1,2.2,3.6,1.9,5.5,2.1-3.5,2.1-8.8,2.1-13.1h-.2v.1Z"/>
        <path class="cls-17" d="M40.8,58.63h0c-2.5,0-4.5-2-4.5-4.5v-6.7h9.1v6.7c0,2.5-2,4.5-4.5,4.5h-.1Z"/>
        <path class="cls-6" d="M62.7,29.13c-.9,1.5-2.3,2.5-3.7,2.8h-1.2c-.4,3.9-1.8,7.5-3.8,10.4-3.8,5.7-9.5,9.1-13.7,8.9h-1c-4.5,0-9.7-3.1-13.3-8.3-2-2.9-3.5-6.4-4.1-10.3h-.3c-1.4,0-2.9-1.1-3.9-2.6-.2-.3-.3-.5-.4-.8-.2-.4-.3-.7-.4-1.1h0c-.3-1.5,0-2.7,1.2-3.2h0c1-.4,2.3,0,3.5.7.9-11.9,8.3-22.4,17.5-22.6,2.8,0,5.5.8,7.9,2.3,2.3,1.4,4.3,3.6,6,6.3h0c2.4,3.9,4.1,8.9,4.6,13.9h0c.5-.5,1.1-.9,1.7-1.1.8-.4,1.7-.4,2.4,0,1.6.7,1.9,2.9.6,5.1l.4-.3h0v-.1Z"/>
        <path class="cls-12" d="M60.2,32.53c-.3-3.2-.8-8.7-1.1-11.2,0-.9,0-1.7-.2-2.6-.3-6.5-2.4-13.6-7.2-17.2-3.4-2.6-6.5-.4-10.2-1.2-7.1-1.4-15.4,1.7-19.2,8.4-2.3,4-2.7,8.7-1.9,13.2,0,0,.5,8.5.3,10.5-.3,3.4-1.2,9.6.9,12.6,1,1.4,4.1,3.7,5.6,4.5.3-2.2-1.7-4.2-2.1-6.3-.5-2.3-.3-4.8-.3-7.2,0-4.3-.4-8.5-.2-12.8v-1.3c0-.2.2-.3.3-.5,1.1-1.8,2.4-3.4,3.9-4.8,1.6-1.5,3.5-2.3,5.2-3.7,1.6,1.4,3.1,2.9,4.9,4,2.2,1.3,5.2,2.4,7.7,2.6-.3-.6-1-1.2-1.5-1.8-.2-.3-.4-.8-.6-1.1,1.3,1.5,3.5,2.7,5.1,3.8,1.5,1.1,3.4,1.6,5.1,2.2,0-.6-1.5-3.3-1.9-4.1.6.8,1.5,1.3,2,2.1.6.8,1,1.7,1.4,2.5h0c.2,4.4-.2,8.6-.2,12.9s.2,4.9-.3,7.2c-.5,2.1-2.5,4.1-2.1,6.3,1.5-.8,4.6-3.1,5.6-4.5,2.1-2.9,1.2-9.2.9-12.6h0l.1.1Z"/>
        <g>
          <path class="cls-7" d="M28.1,23.93c.2,0,.4,0,.5-.3,1.7-3.2,4.6-1.9,4.7-1.8.3,0,.6,0,.8-.3,0-.3,0-.6-.3-.8-1.4-.6-4.5-1-6.2,2.3,0,.3,0,.6.2.8h.3v.1Z"/>
          <path class="cls-7" d="M45.5,21.33s.3.2.5,0c2.8-1.1,4,1.3,4,1.4,0,.2.4.3.6.2.2,0,.3-.4.2-.6-.5-1.2-2.3-3.1-5.2-1.9-.2,0-.4.4-.3.6v.2h.2v.1Z"/>
          <path class="cls-7" d="M31.6,26.23c0,1.1.7,2.1,1.5,2.1s1.6-1,1.6-2.1-.7-2.1-1.5-2.1-1.6,1-1.6,2.1Z"/>
          <path class="cls-7" d="M45.5,26.23c0,1.1.7,2.1,1.5,2.1s1.6-1,1.6-2.1-.7-2.1-1.5-2.1-1.6,1-1.6,2.1Z"/>
          <path class="cls-3" d="M35.4,40.23c.2.2,1.5,3.1,5,3,3.4,0,4.8-2.7,5-3"/>
          <path class="cls-8" d="M42.8,34.23c0,1.4-1.1,2.5-2.5,2.5s-2.5-1.1-2.5-2.5,1.1,1.4,2.5,1.4,2.5-2.8,2.5-1.4Z"/>
          <path class="cls-4" d="M51.6,29.23c2,0,3.6,1.5,3.5,3.2s-1.9,2.9-3.9,2.8-3.6-1.5-3.5-3.2,1.9-2.9,3.9-2.8Z"/>
          <path class="cls-4" d="M28.8,29.23c2,0,3.6,1.5,3.5,3.2s-1.9,2.9-3.9,2.8-3.6-1.5-3.5-3.2,1.9-2.9,3.9-2.8Z"/>
        </g>
      </g>
      <g>
        <path class="cls-1" d="M6.4,103.23h0c-4-.2-6.5-4.5-5.1-8.5l10.2-24.6c1.5-3.9,5.6-5.9,9.3-4.4h0c4.3,1.7,6.1,7.2,3.7,11.3l-12.9,23.2c-1.1,2-3.2,3.1-5.3,3h.1Z"/>
        <path class="cls-18" d="M14.8,65.33c-3.4,2.8-7.8,8.5-10.9,20.9l13.8,6.3s9.7-17,8.5-23.5c-.8-4.5-7.7-6.6-11.5-3.6h0l.1-.1Z"/>
        <path class="cls-1" d="M4.5,93.53h0c1.6,0,3,.5,4.1,1.9l20.3,23.9-6.1,4.4L1.6,102.93c-3.2-3.2-1.3-9,3.1-9.3h-.2v-.1Z"/>
        <path class="cls-1" d="M34.9,127.23l-6-8.4-6.5,3.8s0,.2.2.2c-2.5,9.4,1.2,14.4,1.2,14.4,3.5,4.9,5.2,4.1,5.9,2.6.5-1.1.5-2.3,0-3.4-1.5-4.8-.8-11.9-.8-11.9,6.1,6.2,5.7,2.6,5.7,2.6h.2l.1.1Z"/>
      </g>
      <g>
        <path class="cls-1" d="M73.4,103.13h0c4-.2,6.5-4.5,5.1-8.5l-10.2-24.6c-1.5-3.9-5.6-5.9-9.3-4.4h0c-4.3,1.7-6.1,7.2-3.7,11.3l12.9,23.2c1.1,2,3.2,3.1,5.3,3h-.1Z"/>
        <path class="cls-18" d="M65,65.23c3.4,2.8,7.8,8.5,10.9,20.9l-13.8,6.3s-9.7-17-8.5-23.5c.8-4.5,7.7-6.6,11.5-3.6h0l-.1-.1Z"/>
        <path class="cls-1" d="M74.1,92.53h0c-1.6,0-2.9.8-3.9,2.1l-18.3,25.4,6.5,3.9,19.5-22.4c3-3.4.7-9-3.7-9h-.1Z"/>
        <path class="cls-1" d="M46.1,125.13l7.6-6.9,5.6,5.1s-.2.1-.3.2c.6,9.7-4.1,13.8-4.1,13.8-4.4,4.1-5.9,3-6.3,1.3-.3-1.1,0-2.4.5-3.3,2.5-4.4,3.3-11.5,3.3-11.5-7.2,4.7-6.1,1.3-6.1,1.3h-.2Z"/>
      </g>
    </g>
  </g>
</svg>