<?xml version="1.0" encoding="UTF-8"?>
<svg id="Ebene_2" data-name="Ebene 2" xmlns="http://www.w3.org/2000/svg" viewBox="0 0 257.55 558.8">
  <defs>
    <style>
      .cls-1 {
        fill: #ffebe0;
      }

      .cls-1, .cls-2, .cls-3, .cls-4, .cls-5, .cls-6, .cls-7 {
        stroke-linecap: round;
      }

      .cls-1, .cls-3, .cls-4, .cls-5, .cls-6, .cls-7 {
        stroke: #03403f;
        stroke-linejoin: round;
      }

      .cls-8 {
        fill: #d9b6b6;
      }

      .cls-2 {
        stroke: #630;
        stroke-miterlimit: 10;
      }

      .cls-2, .cls-4 {
        fill: none;
      }

      .cls-9 {
        fill: #caa1a2;
      }

      .cls-10 {
        fill: #d9a2a0;
      }

      .cls-3 {
        fill: #eaea57;
      }

      .cls-5 {
        fill: #cae85b;
      }

      .cls-6 {
        fill: #f25ca3;
      }

      .cls-11 {
        fill: #d38a17;
      }

      .cls-12 {
        fill: #d9baba;
      }

      .cls-13 {
        fill: #25591f;
        opacity: .4;
      }

      .cls-13, .cls-14 {
        isolation: isolate;
      }

      .cls-15, .cls-14 {
        fill: #603813;
      }

      .cls-16 {
        fill: #273758;
      }

      .cls-7 {
        fill: #048c3d;
      }

      .cls-17 {
        fill: #466e9f;
      }

      .cls-14 {
        opacity: .5;
      }

      .cls-18 {
        fill: #e6e6e6;
      }
    </style>
  </defs>
  <g id="Layer_1" data-name="Layer 1">
    <g id="german-boy-lemonade-up">
      <g>
        <path class="cls-8" d="M160.53,235.05h0c7.6,0,12.95-9.15,10.88-18.13l-16.06-57.84c-2.24-9.32-9.84-14.33-17.26-11.74h0c-8.29,2.93-12.6,15.02-8.63,25.03l22.1,53.52c1.73,4.66,4.66,9.32,8.8,9.32h.17v-.17Z"/>
        <path class="cls-18" d="M149.66,148.72c7.42,6.56,16.92,20.72,24.17,50.07l-29,14.33-4.14-11.57c-9.32-17.44-16.75-33.67-15.02-45.06,1.21-10.88,16.06-15.19,24.34-7.94h-.35v.17Z"/>
        <g>
          <path id="hand11" class="cls-12" d="M217.33,170.48l5.35-11.74c1.04-2.42,5.35-8.11,7.77-8.98,3.11-1.21,1.21,4.14-3.45,15.19l18.3-4.49s12.26-.52,4.66,6.91c0,0,12.6,2.07,3.28,8.63,0,0,11.05,3.11-2.24,9.32l-13.12,4.83c-4.49,1.55-9.5,1.9-13.98,0-4.49-1.55-8.63-5.01-8.8-11.91,0-2.76.69-5.35,1.9-7.94h.35v.17Z"/>
          <path class="cls-8" d="M154.32,226.41h0c.52-3.45,2.42-6.73,5.01-8.98l58.18-43.33,6.39,14.33-52.14,45.92c-8.11,6.91-18.99,2.24-17.61-7.77h.35-.17v-.17Z"/>
        </g>
        <g>
          <path class="cls-5" d="M223.52,82.95c-.4,1.6-1.79,2.79-1.4,4.39,0,1,.8,1.6,1,2.59,0,1.2-1.2,6.38-1.6,8.37-3.59,23.93-1.6,17.15-10.97,39.08-3.99,9.37-.8,38.68-.8,61.41s.4,10.77,5.18,12.76c4.19,1.6,21.93,1,27.12.4,9.17-.8,10.77-4.79,10.97-12.56.4-50.84.8-53.44-1.79-61.41-2.19-7.38-7.58-13.36-8.77-20.94-2.79-14.95-5.58-26.52-4.79-27.91,1.4,0,1.2-1.79.8-3.19-1.79-4.98-.6-3.79-3.59-3.59-3.79,0-7.58.8-11.36,1v-.4h0Z"/>
          <path class="cls-13" d="M227.31,211.15c21.33,0,24.52-.8,24.52-11.96.4-50.84.8-53.24-1.79-61.01-2.19-7.18-7.38-13.36-8.97-21.13-3.19-18.14-5.78-26.92-4.59-28.91.8-1.4,1.6,1,0-4.19-.4-1,0-.6-1.6-.6-3.39,0-7.18-.6-10.57-.4-.4,1.2-1.2,3.39-1,3.99,0,.6.8,1.4,1,2.59,0,1.4-1.2,6.78-1.6,8.57-3.19,20.94-1.99,18.54-8.17,32.7-4.39,10.17-5.58,9.17-4.19,44.86,1.4,35.09-2.39,35.29,16.95,35.29h0v.2Z"/>
          <path class="cls-4" d="M236.48,81.55c-1,.6-1.99.6-2.99.8h-9.77"/>
          <path class="cls-7" d="M219.93,108.67c.4-2.59.8-5.98,1.6-10.37,0-1.2.8-3.79,1.2-5.78,4.98,1,10.17.8,15.15-.4.4,3.39,1.6,8.97,2.99,15.95-6.58,2.19-13.96,2.39-20.74.6h-.2Z"/>
          <path class="cls-4" d="M240.27,130.8c-5.98,3.39-13.36,3.39-19.94,1.4"/>
          <path class="cls-1" d="M241.07,152.53c-4.79-.4-9.57-.6-14.56-.6s-8.77-.4-10.57,2.39c-1.4,1.99-.4,4.98-.6,7.38,0,23.33-.6,26.32,1.99,28.11,2.79,1.79,20.74.8,23.93.6,3.39,0,4.79-1.2,4.59-5.78-1.6-30.51,1.79-31.1-4.98-31.9h0l.2-.2Z"/>
          <path class="cls-6" d="M227.51,189.42c6.18,0,12.56-.4,13.96-.6,2.59,0,3.59-.6,3.39-4.39-.4-9.97-.4-16.95-.4-21.53s0-6.98-.4-8.17c0-.6-.6-.8-2.99-1-3.99-.4-7.98-.6-12.36-.6s-1.4,0-1.99,0h-2.19c-1.6,0-6.18,0-7.18,1.79-.8,1.2-.6,2.79-.4,4.59v10.57c0,14.95,0,17.35,1.4,18.54,0,0,1.6.8,9.17.8h0Z"/>
          <path class="cls-4" d="M248.84,207.37c-2.39,1.2-5.18,0-7.58-1-5.38-1.99-11.56-2.59-17.15-.8-1.6.6-3.39,1.4-4.98,1.79-1.79.4-3.79,0-4.98-1"/>
          <path class="cls-4" d="M234.09,88.13c-2.39,1-4.98,1-7.38,0"/>
          <path class="cls-4" d="M221.73,111.46c0,5.78-1.6,11.56-4.39,16.55"/>
          <path class="cls-4" d="M215.35,135.19c-2.39,4.19-2.99,8.97-3.19,13.76,0,5.78,0,11.56.4,17.35"/>
          <path class="cls-4" d="M212.16,172.67c-.4,8.57,0,17.15,1,25.52"/>
          <path class="cls-4" d="M227.51,199.19c-3.99-1-7.38-3.39-9.57-6.78"/>
          <path class="cls-4" d="M223.32,201.38c-1.99-1-3.99-2.19-5.58-3.59"/>
          <path class="cls-4" d="M227.51,103.88c-1.6-1.79-2.79-3.99-3.79-6.18"/>
          <path class="cls-4" d="M226.11,106.48c-1-.8-1.79-1.79-2.39-2.99"/>
          <path class="cls-3" d="M228.06,164.1c1.09-.6,1.37-.4.96-1.2-1.09,0-2.59,1.2-3.96-1.6l-.55-1.6c1.64.8,3.55-.4,4.78,1.99,0-1.99-.41-3.19,0-3.39.41,0,1.09.6,1.09,1.79s-.27,1.79,0,2.99c8.74-1.2,11.06,13.96,3.69,17.94-10.92,5.78-13.65-12.76-6.01-16.95h.14-.14Z"/>
          <path class="cls-4" d="M227.31,179.85c-1.4,0-2.59-.4-3.59-1.4-1-.8-1.6-1.99-2.39-3.19"/>
          <path class="cls-4" d="M221.73,171.08c-.4.8-.4,1.79,0,2.59"/>
          <path class="cls-4" d="M223.32,186.03c-1.99-.4-3.59-1.6-4.39-3.39"/>
          <path class="cls-4" d="M220.93,187.23c-1.4-.4-2.59-1.4-3.19-2.59"/>
        </g>
      </g>
      <g>
        <path class="cls-8" d="M51.59,220.54h0c1.73,2.93,2.42,6.56,1.55,10.36l-17.26,70.27-13.98-6.91,11.22-68.54c1.73-10.53,13.29-13.81,18.65-5.18h-.17Z"/>
        <path class="cls-8" d="M44.52,239.02h0c-7.6,0-12.95-9.15-10.88-18.13l16.06-57.84c2.24-9.32,9.84-14.33,17.26-11.74h0c8.29,2.93,12.6,15.02,8.63,25.03l-22.1,53.52c-1.73,4.66-4.66,9.32-8.8,9.32h0l-.17-.17Z"/>
        <path class="cls-18" d="M55.56,152.7c-7.42,6.56-16.92,20.72-24.17,50.07l29,14.33,4.14-11.57c9.32-17.44,16.75-33.67,15.02-45.06-1.21-10.88-16.06-15.19-24.34-7.94h.35v.17Z"/>
        <path class="cls-8" d="M30.7,323.1l5.35-23.13-13.98-6.91v1.04c-17.44,8.63-20.72,22.62-20.72,22.62-3.28,13.81,0,15.54,3.45,14.67,2.24-.52,4.14-2.24,5.35-4.49,5.35-9.84,17.26-18.47,17.26-18.47-1.73,20.2,3.45,14.5,3.45,14.5h0l-.17.17Z"/>
      </g>
      <g>
        <path class="cls-8" d="M145.69,449.13c-2.93,41.95-8.8,85.63-10.01,85.63l-12.95-1.04-4.14-86.49-3.28-64.91v-2.76c0-1.04,0-1.73.52-2.76,1.73-6.91,8.11-12.09,15.54-11.22,8.29.69,14.33,7.6,13.98,16.06,2.93,12.95,2.24,40.05.52,67.68h0l-.17-.17Z"/>
        <path class="cls-18" d="M141.37,497.81c-2.42,21.41-4.66,36.95-5.7,36.95l-12.95-1.04-1.73-35.91h20.37Z"/>
        <path class="cls-16" d="M118.75,547.71c0,2.76,1.55,4.66,3.63,6.22,1.21,1.04,51.1,5.35,52.31,4.83,11.22-5.35-39.54-25.03-39.54-25.03l-13.81.52s-2.93,11.05-2.42,13.98h0v-.52h-.17Z"/>
        <g>
          <path class="cls-8" d="M147.41,297.03l-1.73,61.29-.52,18.47c0,8.63-6.91,15.54-15.54,16.06-9.15.52-14.67-6.39-15.54-15.54l-1.9-18.99-6.22-57.84v-1.73c0-10.88,8.29-19.85,19.16-20.72,11.57-1.04,21.58,7.6,22.44,19.16h0l-.17-.17Z"/>
          <path class="cls-17" d="M147.41,297.03l1.04,59.04c0,1.21-1.04,2.24-2.24,2.24h-37.64c-1.21,0-2.24-1.04-2.24-2.24l-.52-55.59v-1.73c0-10.88,8.29-19.85,19.16-20.72,11.57-1.04,21.58,7.6,22.44,19.16h0v-.17Z"/>
        </g>
      </g>
      <g>
        <path class="cls-8" d="M59.02,449.13c2.93,41.95,8.8,85.63,10.01,85.63l12.95-1.04,4.14-86.49,3.28-64.91v-2.76c0-1.04,0-1.73-.52-2.76-1.73-6.91-8.11-12.09-15.54-11.22-8.29.69-14.5,7.6-13.98,16.06-2.93,12.95-2.24,40.05-.52,67.68h0l.17-.17Z"/>
        <path class="cls-18" d="M83.53,497.81l-1.73,35.91-12.95,1.04c-1.04,0-3.28-15.54-5.7-36.95h20.37Z"/>
        <path class="cls-16" d="M85.26,547.71c0,2.76-1.55,4.66-3.63,6.22-1.21,1.04-51.1,5.35-52.31,4.83-11.22-5.35,39.54-25.03,39.54-25.03l13.81.52s2.93,11.05,2.42,13.98h0v-.52h.17Z"/>
        <g>
          <path class="cls-8" d="M98.38,298.75v1.55l-5.35,58.01-1.73,18.65c-.69,9.15-6.56,16.06-15.54,15.71-8.63-.52-15.19-7.08-15.71-15.71l-.69-18.47-2.42-60.94c1.04-11.57,10.88-19.85,22.1-19.34,11.05.69,19.34,9.84,19.34,20.72h0v-.17Z"/>
          <path class="cls-17" d="M98.38,298.75v1.55l-1.73,56.11c0,1.21-1.04,1.9-1.9,1.9h-36.6c-1.21,0-1.9-1.04-1.9-1.9l1.04-59.04c1.04-11.57,10.88-19.85,22.1-19.34,11.05.69,19.34,9.84,19.34,20.72h-.35Z"/>
        </g>
      </g>
      <path class="cls-18" d="M150.69,150.28l-2.42,14.5-9.32,56.28c-2.24,8.8-2.76,17.78-1.21,26.59h-70.61c3.45-10.01,4.14-20.72,2.42-31.25l-8.8-50.93-2.76-15.02,2.76-1.55,35.39-22.44h20.37l31.94,22.1,2.42,1.55h-.17v.17Z"/>
      <path class="cls-17" d="M147.24,303.24l-39.36,16.92h-11.74l-39.36-16.4c-1.21-11.22.69-28.31,3.63-39.36,1.04-3.28,1.9-6.39,3.28-9.15,1.21-2.42,2.24-4.83,2.93-7.6h70.61c.69,4.14,1.55,8.29,2.93,12.09,1.55,4.66,3.28,10.53,4.14,17.44,1.21,6.56,3.63,16.92,2.42,25.9h.52v.17Z"/>
      <path class="cls-17" d="M124.45,132.15h0c-5.35,17.96-30.56,18.65-37.12,1.21v-.69l9.32-5.87h20.37l7.94,5.35h-.52Z"/>
      <g id="german-boy-smiling1">
        <path class="cls-9" d="M95.96,132.15h0c4.32,5.7,15.02,5.52,18.82,0h0c.86-1.21,1.21-2.24,1.21-3.63v-21.75h-21.58v21.58c0,1.38.52,2.59,1.38,3.97h.17v-.17Z"/>
        <path class="cls-12" d="M153.63,72.59c-2.07,3.11-5.01,5.35-7.94,5.87h-2.42c-.86,8.29-3.8,15.88-8.11,22.27-8.11,12.09-20.2,19.51-29.18,19.16h-2.07c-9.67,0-20.72-6.73-28.31-17.78-4.32-6.04-7.42-13.64-8.8-22.1h-.69c-2.93,0-6.22-2.42-8.29-5.7-.52-.52-.69-1.21-.86-1.55-.52-.86-.69-1.55-.86-2.24h0c-.69-3.11,0-5.87,2.42-6.91h0c2.24-.86,5.01-.17,7.42,1.55,1.73-25.38,17.78-47.82,37.29-48.34,6.04,0,11.74,1.55,16.92,4.66,11.91,7.42,20.72,25.21,22.79,43.16,1.21-1.21,2.42-2.07,3.8-2.76,1.38-.69,3.63-.86,5.18-.17,3.63,1.38,3.97,6.22,1.38,10.88h.52-.17Z"/>
        <g>
          <path class="cls-15" d="M78.35,59.12c.52,0,.86,0,1.21-.69,3.8-7.25,10.36-4.32,10.53-3.97.69,0,1.38,0,1.73-.69,0-.69,0-1.38-.69-1.73-3.11-1.38-10.19-2.24-13.98,5.18,0,.69,0,1.38.52,1.73h.69v.17Z"/>
          <path class="cls-15" d="M117.37,53.25s.69.52,1.21,0c6.22-2.42,8.98,2.93,8.98,3.11,0,.52.86.69,1.38.52.52,0,.69-.86.52-1.38-1.21-2.76-5.18-6.91-11.74-4.32-.52,0-.86.86-.69,1.38v.52h.52v.17h-.17Z"/>
          <path class="cls-15" d="M86.12,64.3c0,2.42,1.55,4.66,3.45,4.66s3.63-2.24,3.63-4.66-1.55-4.66-3.45-4.66-3.63,2.24-3.63,4.66Z"/>
          <path class="cls-15" d="M117.37,64.3c0,2.42,1.55,4.66,3.45,4.66s3.63-2.24,3.63-4.66-1.55-4.66-3.45-4.66-3.63,2.24-3.63,4.66Z"/>
          <path class="cls-2" d="M94.41,95.9c.52.52,3.45,6.91,11.22,6.73,7.6,0,10.88-6.04,11.22-6.73"/>
          <path class="cls-14" d="M111.33,82.26c0,3.11-2.42,5.7-5.7,5.7s-5.7-2.42-5.7-5.7,2.42,3.11,5.7,3.11,5.7-6.22,5.7-3.11Z"/>
          <path class="cls-10" d="M131.18,71.03c4.49,0,8.11,3.45,7.94,7.25-.17,3.8-4.32,6.56-8.8,6.22s-8.11-3.45-7.94-7.25,4.32-6.56,8.8-6.22h0Z"/>
          <path class="cls-10" d="M79.91,71.03c4.49,0,8.11,3.45,7.94,7.25s-4.32,6.56-8.8,6.22-8.11-3.45-7.94-7.25,4.32-6.56,8.8-6.22h0Z"/>
        </g>
        <path class="cls-11" d="M149.31,33.05c-3.63-12.09-10.88-22.79-22.79-28.49C116.85-.1,84.74-7.86,66.96,21.14c-7.25,11.74-8.8,26.59-8.8,40.05s2.07,23.13,9.15,32.46c1.21,1.38,2.42,2.76,3.8,3.8,0,0-1.55-8.11-2.76-11.39-3.63-11.91-3.11-25.9.69-37.81.69-1.73,1.38-3.45,2.07-5.18,0-.86,2.42-5.01,2.24-5.7,3.8,9.15,16.4,12.78,25.38,14.33-1.55-2.42-4.32-3.8-5.7-6.56-1.55-2.76-2.42-5.7-3.45-8.29,10.88,3.97,22.1,11.74,34.36,11.05-2.76-2.76-9.84-8.11-9.67-12.6,2.76,3.8,7.42,5.01,11.74,6.56,2.76.86,5.7,1.55,8.29,2.42,2.24.69,2.24.52,2.93,2.42,3.97,13.47,5.87,29.69,2.76,43.68.69-3.45,6.22-9.84,7.42-13.12,1.38-3.8,2.42-7.6,3.45-11.74,1.55-7.94,1.55-16.23.52-24-.52-2.93-1.21-5.87-1.73-8.46h-.52.17Z"/>
      </g>
    </g>
  </g>
</svg>