<?xml version="1.0" encoding="UTF-8"?>
<svg id="Ebene_2" data-name="Ebene 2" xmlns="http://www.w3.org/2000/svg" viewBox="0 0 79.41 247.24">
  <defs>
    <style>
      .cls-1 {
        fill: #7e3709;
      }

      .cls-2 {
        fill: #d9b6b6;
      }

      .cls-3 {
        fill: #7c3609;
      }

      .cls-4 {
        fill: #e97828;
      }

      .cls-5 {
        fill: none;
        stroke: #630;
        stroke-linecap: round;
        stroke-miterlimit: 10;
      }

      .cls-6 {
        fill: #e97928;
      }

      .cls-7 {
        fill: #d9a2a0;
      }

      .cls-8 {
        fill: #7a3509;
      }

      .cls-9 {
        fill: #7d3709;
      }

      .cls-10 {
        fill: #8b4514;
      }

      .cls-11 {
        fill: #7b3609;
      }

      .cls-12 {
        fill: #d9baba;
      }

      .cls-13 {
        fill: #7d370a;
      }

      .cls-14, .cls-15 {
        fill: #603813;
      }

      .cls-16 {
        fill: #904614;
      }

      .cls-17 {
        fill: #8b2b0e;
      }

      .cls-18 {
        fill: #273758;
      }

      .cls-19 {
        fill: #8e3c09;
      }

      .cls-20 {
        fill: #7c3709;
      }

      .cls-21 {
        fill: #7b370a;
      }

      .cls-22 {
        fill: #e26717;
      }

      .cls-23 {
        fill: #7c370a;
      }

      .cls-24 {
        fill: #c69696;
      }

      .cls-15 {
        isolation: isolate;
        opacity: .5;
      }

      .cls-25 {
        fill: #e6e6e6;
      }

      .cls-26 {
        fill: #3f6138;
      }
    </style>
  </defs>
  <g id="Layer_1" data-name="Layer 1">
    <g id="german-girl-cookies">
      <g>
        <path class="cls-2" d="M39.05,167.93v1.2l-3.4,28.8-4.5,38.3h-5.8c-.6,0-1.9-19.6-1.9-38.3s.6-24.3,2.2-30c0-3.7,3-6.7,6.7-6.7s6,2.4,6.6,5.5v1.2h.1Z"/>
        <path class="cls-18" d="M32.45,242.33c0,1.2-.7,2.1-1.6,2.7-.6.4-22.7,2.4-23.3,2.2-5-2.4,17.6-11.2,17.6-11.2l6.1.2s1.3,4.9,1.1,6.2h0c0-.1.1-.1.1-.1h0Z"/>
        <path class="cls-2" d="M33.35,174.73h0c-3.8.4-7.2-2.2-8-5.9l-6.7-34.7c-.4-5.1,3.4-9.5,8.5-10h0c5.1-.4,9.5,3.4,10,8.5l2,34.2c.3,4-1.8,7.5-5.7,7.9h-.1Z"/>
      </g>
      <g>
        <path class="cls-2" d="M54.45,197.93c0,18.7-1.3,38.3-1.9,38.3h-5.8l-4.5-38.3-3.3-28.8v-2.4c.6-3.1,3.3-5.5,6.6-5.5s6.7,3,6.7,6.7c1.7,5.7,2.2,17.7,2.2,30h0Z"/>
        <path class="cls-18" d="M45.45,242.33c0,1.2.7,2.1,1.6,2.7.6.4,22.7,2.4,23.3,2.2,5-2.4-17.6-11.2-17.6-11.2l-6.1.2s-1.3,4.9-1.1,6.2h0l-.1-.1h0Z"/>
        <path class="cls-2" d="M44.65,174.73h0c3.8.4,7.2-2.2,8-5.9l6.7-34.7c.4-5.1-3.4-9.5-8.5-10h0c-5.1-.4-9.5,3.4-10,8.5l-2,34.2c-.3,4,1.8,7.5,5.7,7.9h.1Z"/>
      </g>
      <path class="cls-2" d="M55.55,96.93c-1.5,5.7-1.2,11.7.7,17.3.7,2.1,1.4,4.7,1.8,7.8.5,3,1.2,7.7,1.2,11.5l-18.9,7.5h-2.8l-18.9-7.2c0-5.2.7-12.8,2.1-17.6.4-1.4.9-2.8,1.4-4,2.5-5.4,3.5-11.4,2.5-17.3l-3.9-22.6-1.2-6.7,1.2-.7,15.7-9.9h9.1l14.2,9.8,1.1.7-1.1,6.5-4.1,25h0l-.1-.1h0Z"/>
      <path class="cls-25" d="M55.55,96.93c-1.5,5.7-1.2,11.7.7,17.3.7,2.1,1.4,4.7,1.8,7.8H20.75v-5.8c.4-1.4.9-2.8,1.4-4,2.5-5.4,3.5-11.4,2.5-17.3l-3.9-22.6-1.1-6.7,12.7-8,4.1-2.6h9.1l3.5,2.4,11.8,8.1-1.1,6.5-4.1,25h0c0-.07-.03-.1-.1-.1h0Z"/>
      <path class="cls-26" d="M24.05,108.53s-11.6,30-11.1,58.1c0,1.5.9,2.7,2.1,3.1,7.9,2.1,36.8,8.9,50.7-1.7.9-.7,1.3-1.9,1.2-3.1-1.1-8.2-5.6-40.7-11.9-56.3-10.2,4.3-20.5,4.1-31.1,0h0c0-.07.03-.1.1-.1Z"/>
      <g id="s-falsebelief-uc-a-cookies">
        <path class="cls-22" d="M51.07,117.85c.1.06.19.13.29.19,2.19,1.56,3.73,3.96,4.28,6.54.24,1.34.26,2.67.01,4-.01.07-.02.13-.04.2-.39,1.92-1.51,3.85-2.97,5.14-.05.04-.1.09-.15.13-2.17,1.9-4.78,2.68-7.71,2.51-1.73-.13-3.29-.67-4.76-1.6-.04.05-.08.1-.12.15-1.44,1.48-4.06,2-6.08,2.01-2.84-.01-5.62-1.22-7.69-3.2-.49-.49-.9-1.01-1.27-1.59q-.08-.12-.16-.24c-1.57-2.34-1.9-5.05-1.47-7.72.58-2.59,2.13-4.87,4.4-6.29,2.48-1.48,5.33-1.91,8.21-1.22.37.1.73.21,1.09.34.06.02.12.04.18.06.3.11.55.23.82.41.3.19.52.32.88.39.45-.19.81-.46,1.19-.75,1.91-1.34,4.64-1.47,6.93-1.14,1.48.28,2.87.85,4.12,1.68Z"/>
        <path class="cls-6" d="M31.55,121.67q-.02.17-.05.34-.07.35.14.55t.12.49c-.26.73-.63,1.33-1.36,1.7-.33.13-.53.17-.87.03-.18-.13-.34-.26-.51-.41q-.17-.12-.37-.08-.2.07-.4.26c-.67-.41-.96-.85-1.21-1.58-.15-.61,0-1.15.23-1.7.31-.47.72-.81,1.27-.97,1.29-.25,2.36.12,2.99,1.35Z"/>
        <path class="cls-4" d="M45.36,119.91c.2.45.24.73.08,1.19-.03.07-.06.14-.09.21q-.09.19,0,.43c-.2.52-.49.94-.98,1.22-.37.15-.76.2-1.16.25-.23-.27-.39-.52-.53-.85-.42-.89-1.05-1.69-1.7-2.43.29-.65.65-1.03,1.31-1.33,1.22-.41,2.45.2,3.07,1.3Z"/>
        <path class="cls-1" d="M36.15,118.18q.12.24.14.5c-.12.32-.2.44-.51.58-.35.02-.48-.05-.75-.27q-.12-.24-.14-.5c.12-.32.2-.44.51-.58.35-.02.48.05.75.27Z"/>
        <path class="cls-9" d="M35.87,131.28q.12.24.14.5t-.27.47-.59.08c-.29-.17-.41-.27-.52-.59.01-.28.06-.41.24-.62.41-.18.64-.13.99.16Z"/>
        <path class="cls-13" d="M29.38,124.49q.13.24.14.5c-.16.27-.3.45-.58.6-.3,0-.45-.1-.68-.28q-.12-.24-.14-.5c.12-.32.2-.44.51-.58.35-.02.48.05.75.27Z"/>
        <path class="cls-9" d="M36.1,120.91q.22.19.32.47t-.15.54-.58.27c-.32-.13-.45-.21-.61-.52-.03-.34.03-.47.25-.73.31-.14.44-.15.77-.03Z"/>
        <path class="cls-9" d="M49.98,121.82q.29.31.3.58c-.12.31-.2.44-.51.58-.35.02-.48-.05-.75-.27-.16-.31-.16-.44-.05-.76q.18-.21.46-.3t.55.16Z"/>
        <path class="cls-9" d="M27.4,127.93q.12.24.14.5c-.11.27-.19.42-.44.57-.34,0-.6-.16-.86-.38q-.1-.22-.06-.45t.4-.5c.39-.02.51.03.82.27Z"/>
        <path class="cls-13" d="M39.55,127.14q.07.25-.07.58c-.14.22-.18.29-.43.39-.34-.06-.51-.21-.76-.45-.03-.41.05-.56.29-.88.43-.17.66.06.98.36Z"/>
        <path class="cls-20" d="M34.37,126.61q.28.2.41.44t-.16.54-.56.24q-.53-.24-.66-.55c.04-.34.19-.5.43-.74q.25-.06.54.07Z"/>
        <path class="cls-11" d="M32.31,121.55q.28.2.41.44t-.16.54-.56.24q-.53-.24-.66-.55c.04-.34.19-.5.43-.74q.25-.06.54.07Z"/>
        <path class="cls-20" d="M39.61,123.01q.23.23.31.48-.27.59-.58.71c-.34-.06-.51-.21-.76-.45-.03-.38.02-.5.24-.8.35-.17.45-.16.79.06Z"/>
        <path class="cls-20" d="M52.62,125.12q.11.17.11.38c-.14.33-.23.5-.55.67q-.27,0-.56-.17t-.26-.56q.23-.5.49-.65c.32.01.51.15.77.34Z"/>
        <path class="cls-3" d="M51.13,119.24q.13.24.14.5c-.17.3-.29.46-.62.58-.32-.04-.45-.15-.67-.39-.09-.27-.08-.41.01-.67.35-.41.73-.35,1.14-.02Z"/>
        <path class="cls-3" d="M30.99,130.71c.2.13.3.19.43.4,0,.29-.1.44-.27.66q-.24.11-.5.12c-.32-.12-.45-.21-.61-.52q-.02-.26.16-.54c.32-.32.38-.33.81-.12Z"/>
        <path class="cls-23" d="M30.17,118.99q.11.24.14.5c-.12.32-.2.44-.51.58-.34.02-.48-.05-.75-.27q-.11-.17-.11-.38c.09-.24.19-.44.36-.63.35-.12.58-.05.87.19Z"/>
        <path class="cls-23" d="M50.48,128.33q.28.2.41.44t-.16.54-.48.29q-.61-.28-.75-.6c.05-.33.2-.5.43-.74q.25-.06.54.07Z"/>
        <path class="cls-3" d="M45.2,117.68q.12.24.14.5c-.12.32-.2.44-.51.59q-.27,0-.56-.17t-.31-.48q.27-.58.54-.73c.3.01.45.11.68.29Z"/>
        <path class="cls-3" d="M46.4,126.52q.11.18.11.38c-.12.31-.2.44-.51.58-.35.02-.48-.05-.75-.27q-.13-.24-.14-.5.17-.28.4-.5c.41-.02.56.08.9.31Z"/>
        <path class="cls-8" d="M33.05,134.86q.11.17.11.38c-.17.36-.25.52-.61.69q-.58-.27-.76-.55c0-.31.14-.5.32-.75.36-.21.63,0,.95.24Z"/>
        <path class="cls-8" d="M45.74,131.05q.11.17.11.38c-.12.28-.22.49-.49.65-.32-.01-.51-.15-.77-.34q-.11-.17-.11-.38c.12-.28.22-.49.49-.65.32.01.51.15.77.34Z"/>
        <path class="cls-21" d="M46.39,121.08q.14.2.19.42c-.11.28-.21.43-.46.61q-.23.04-.53-.09t-.37-.37c0-.32.13-.5.32-.75.34-.19.56-.04.87.19Z"/>
        <path class="cls-10" d="M29.38,124.49q.05.24.06.45c-.15-.04-.31-.07-.46-.11-.09-.02-.17-.04-.26-.06q-.22-.06-.39-.15l-.22.19c.13-.29.21-.44.51-.58.34-.02.48.05.75.27Z"/>
        <path class="cls-19" d="M41.64,133.47l.12.17q-.18.25-.4.5c-.11,0-.22.01-.33.02.08-.11.16-.22.24-.33.04-.06.09-.12.13-.18q.12-.15.24-.18Z"/>
        <path class="cls-16" d="M31.59,121.59c.07.34.11.65.08.99q-.14-.11-.28-.27c-.03-.35.01-.44.2-.72Z"/>
      </g>
      <g>
        <path class="cls-17" d="M64.55,38.13c0-4.7-2.2-8.3-4-12.1-.8-1.7-1.6-4.7-2.8-6-1.6-1.7-5.4-.9-7.4-1-7.4-.3-14.8.2-22.2,1.1-2.3.3-3.7-.6-4.6,2.7-.6,2.1-1,2.9-1,2.9-2.3,4-6.1,6.4-7.5,11.5-1.1,4.1-.6,9.2,1.8,12.1,0-1.6.2-3.7.5-5.1,1.6,1.2,2.7,3.6,4.3,5s3.4,2.6,5.2,3.3c.2-1.4-.3-3.3,0-4.5,1.3,3.2,4.5,4.6,6.9,6,0-1.9-.5-4.3,1.1-3.2.4.3,1,1.6,1.5,2s1.1.8,1.7,1.1c1.8,1.1,2.6,1.4,4.3,0,1.2-1.1,2.7-2.6,3.7-4,.6,1.2.3,3.2.3,4.6,2,0,4.4-2.4,5.7-4.3.3,1.1,0,2.3.3,3.4,2.6-.3,7.2-5.1,8.4-8,1.2,1.1,2.2,3.6,1.9,5.5,2.1-3.5,2.1-8.8,2.1-13.1h-.2v.1Z"/>
        <path class="cls-24" d="M40.95,58.63h0c-2.5,0-4.5-2-4.5-4.5v-6.7h9.1v6.7c0,2.5-2,4.5-4.5,4.5h-.1Z"/>
        <path class="cls-12" d="M62.85,29.13c-.9,1.5-2.3,2.5-3.7,2.8h-1.2c-.4,3.9-1.8,7.5-3.8,10.4-3.8,5.7-9.5,9.1-13.7,8.9h-1c-4.5,0-9.7-3.1-13.3-8.3-2-2.9-3.5-6.4-4.1-10.3h-.3c-1.4,0-2.9-1.1-3.9-2.6-.2-.3-.3-.5-.4-.8-.2-.4-.3-.7-.4-1.1h0c-.3-1.5,0-2.7,1.2-3.2h0c1-.4,2.3,0,3.5.7.9-11.9,8.3-22.4,17.5-22.6,2.8,0,5.5.8,7.9,2.3,2.3,1.4,4.3,3.6,6,6.3h0c2.4,3.9,4.1,8.9,4.6,13.9h0c.5-.5,1.1-.9,1.7-1.1.8-.4,1.7-.4,2.4,0,1.6.7,1.9,2.9.6,5.1l.4-.3h0v-.1h0Z"/>
        <path class="cls-17" d="M60.35,32.53c-.3-3.2-.8-8.7-1.1-11.2,0-.9,0-1.7-.2-2.6-.3-6.5-2.4-13.6-7.2-17.2-3.4-2.6-6.5-.4-10.2-1.2-7.1-1.4-15.4,1.7-19.2,8.4-2.3,4-2.7,8.7-1.9,13.2,0,0,.5,8.5.3,10.5-.3,3.4-1.2,9.6.9,12.6,1,1.4,4.1,3.7,5.6,4.5.3-2.2-1.7-4.2-2.1-6.3-.5-2.3-.3-4.8-.3-7.2,0-4.3-.4-8.5-.2-12.8v-1.3c0-.2.2-.3.3-.5,1.1-1.8,2.4-3.4,3.9-4.8,1.6-1.5,3.5-2.3,5.2-3.7,1.6,1.4,3.1,2.9,4.9,4,2.2,1.3,5.2,2.4,7.7,2.6-.3-.6-1-1.2-1.5-1.8-.2-.3-.4-.8-.6-1.1,1.3,1.5,3.5,2.7,5.1,3.8,1.5,1.1,3.4,1.6,5.1,2.2,0-.6-1.5-3.3-1.9-4.1.6.8,1.5,1.3,2,2.1.6.8,1,1.7,1.4,2.5h0c.2,4.4-.2,8.6-.2,12.9s.2,4.9-.3,7.2c-.5,2.1-2.5,4.1-2.1,6.3,1.5-.8,4.6-3.1,5.6-4.5,2.1-2.9,1.2-9.2.9-12.6h0l.1.1h0Z"/>
        <g>
          <path class="cls-14" d="M28.25,23.93c.2,0,.4,0,.5-.3,1.7-3.2,4.6-1.9,4.7-1.8.3,0,.6,0,.8-.3,0-.3,0-.6-.3-.8-1.4-.6-4.5-1-6.2,2.3,0,.3,0,.6.2.8h.3v.1Z"/>
          <path class="cls-14" d="M45.65,21.33s.3.2.5,0c2.8-1.1,4,1.3,4,1.4,0,.2.4.3.6.2.2,0,.3-.4.2-.6-.5-1.2-2.3-3.1-5.2-1.9-.2,0-.4.4-.3.6v.2h.2v.1Z"/>
          <path class="cls-14" d="M31.75,26.23c0,1.1.7,2.1,1.5,2.1s1.6-1,1.6-2.1-.7-2.1-1.5-2.1-1.6,1-1.6,2.1Z"/>
          <path class="cls-14" d="M45.65,26.23c0,1.1.7,2.1,1.5,2.1s1.6-1,1.6-2.1-.7-2.1-1.5-2.1-1.6,1-1.6,2.1Z"/>
          <path class="cls-5" d="M35.55,40.23c.2.2,1.5,3.1,5,3,3.4,0,4.8-2.7,5-3"/>
          <path class="cls-15" d="M42.95,34.23c0,1.4-1.1,2.5-2.5,2.5s-2.5-1.1-2.5-2.5,1.1,1.4,2.5,1.4,2.5-2.8,2.5-1.4Z"/>
          <path class="cls-7" d="M51.75,29.23c2,0,3.6,1.5,3.5,3.2s-1.9,2.9-3.9,2.8-3.6-1.5-3.5-3.2,1.9-2.9,3.9-2.8Z"/>
          <path class="cls-7" d="M28.95,29.23c2,0,3.6,1.5,3.5,3.2s-1.9,2.9-3.9,2.8-3.6-1.5-3.5-3.2,1.9-2.9,3.9-2.8Z"/>
        </g>
      </g>
      <g>
        <path class="cls-2" d="M6.55,103.18h0c-3.98-.18-6.52-4.53-5.07-8.51l10.23-24.62c1.54-3.89,5.61-5.88,9.32-4.44h0c4.34,1.72,6.06,7.15,3.71,11.32l-12.94,23.17c-1.09,1.99-3.17,3.08-5.34,2.99h0l.09.09h0Z"/>
        <path class="cls-25" d="M14.97,65.34c-3.44,2.81-7.78,8.51-10.86,20.91l13.85,6.34s9.69-17.02,8.51-23.54c-.81-4.53-7.69-6.61-11.5-3.62h0v-.09h0Z"/>
        <path class="cls-2" d="M4.69,93.48h0c1.56-.08,3,.52,4.05,1.86l20.26,23.85-6.14,4.39L1.62,102.75c-3.23-3.16-1.33-8.98,3.07-9.26h0Z"/>
        <path class="cls-2" d="M35.11,127.25l-5.99-8.36-6.55,3.76s.11.17.21.25c-2.55,9.36,1.19,14.35,1.19,14.35,3.46,4.94,5.18,4.09,5.9,2.63.5-1.07.53-2.25.11-3.39-1.53-4.83-.8-11.95-.8-11.95,6.08,6.16,5.72,2.65,5.72,2.65l.18-.02v.09s.02,0,.02,0h0Z"/>
      </g>
      <g>
        <path class="cls-2" d="M73.63,103.09h0c3.98-.18,6.52-4.53,5.07-8.51l-10.23-24.62c-1.54-3.89-5.61-5.88-9.32-4.44h0c-4.34,1.72-6.06,7.15-3.71,11.32l12.94,23.17c1.09,1.99,3.17,3.08,5.34,2.99h0l-.09.09h0Z"/>
        <path class="cls-25" d="M65.21,65.25c3.44,2.81,7.78,8.51,10.86,20.91l-13.85,6.34s-9.69-17.02-8.51-23.54c.81-4.53,7.69-6.61,11.5-3.62h0v-.09h0Z"/>
        <path class="cls-2" d="M74.28,92.49h0c-1.58.02-2.95.75-3.89,2.12l-18.3,25.38,6.47,3.9,19.51-22.44c2.97-3.43.66-9.03-3.7-8.96l-.09-.02h0Z"/>
        <path class="cls-2" d="M46.25,125.11l7.58-6.89,5.61,5.06c-.04.08-.15.13-.27.18.57,9.7-4.14,13.79-4.14,13.79-4.42,4.11-5.9,2.99-6.29,1.34-.3-1.12.02-2.35.54-3.32,2.46-4.36,3.26-11.51,3.26-11.51-7.23,4.68-6.09,1.33-6.09,1.33l-.17-.07-.04.08h0Z"/>
      </g>
    </g>
  </g>
</svg>