<?xml version="1.0" encoding="UTF-8"?>
<svg id="Ebene_2" data-name="Ebene 2" xmlns="http://www.w3.org/2000/svg" viewBox="0 0 152.5 475.75">
  <defs>
    <style>
      .cls-1 {
        fill: #e94850;
      }

      .cls-2 {
        fill: #d9b6b6;
      }

      .cls-3 {
        fill: none;
        stroke: #630;
        stroke-linecap: round;
        stroke-miterlimit: 10;
      }

      .cls-4 {
        fill: #d9a2a0;
      }

      .cls-5 {
        fill: #d9baba;
      }

      .cls-6, .cls-7 {
        fill: #603813;
      }

      .cls-8 {
        fill: #fdbd54;
      }

      .cls-9 {
        fill: #8b2b0e;
      }

      .cls-10 {
        fill: #273758;
      }

      .cls-11 {
        fill: #0e466d;
      }

      .cls-12 {
        fill: #c69696;
      }

      .cls-7 {
        isolation: isolate;
        opacity: .5;
      }

      .cls-13 {
        fill: #e6e6e6;
      }

      .cls-14 {
        fill: #3f6138;
      }
    </style>
  </defs>
  <g id="Layer_1" data-name="Layer 1">
    <g id="german-girl-ball">
      <g>
        <path class="cls-2" d="M74.85,323.13v2.31l-6.54,55.42-8.66,73.7h-11.16c-1.15,0-3.66-37.71-3.66-73.7s1.15-46.76,4.23-57.73c0-7.12,5.77-12.89,12.89-12.89s11.55,4.62,12.7,10.58v2.31h.19Z"/>
        <path class="cls-10" d="M62.15,466.29c0,2.31-1.35,4.04-3.08,5.2s-43.68,4.62-44.83,4.23c-9.62-4.62,33.87-21.55,33.87-21.55l11.74.38s2.5,9.43,2.12,11.93h0l.19-.19Z"/>
        <path class="cls-2" d="M63.88,336.22h0c-7.31.77-13.85-4.23-15.39-11.35l-12.89-66.77c-.77-9.81,6.54-18.28,16.36-19.24h0c9.81-.77,18.28,6.54,19.24,16.36l3.85,65.81c.58,7.7-3.46,14.43-10.97,15.2h-.19Z"/>
      </g>
      <g>
        <path class="cls-2" d="M104.48,380.86c0,35.98-2.5,73.7-3.66,73.7h-11.16l-8.66-73.7-6.35-55.42v-4.62c1.15-5.97,6.35-10.58,12.7-10.58s12.89,5.77,12.89,12.89c3.27,10.97,4.23,34.06,4.23,57.73h0Z"/>
        <path class="cls-10" d="M87.16,466.29c0,2.31,1.35,4.04,3.08,5.2s43.68,4.62,44.83,4.23c9.62-4.62-33.87-21.55-33.87-21.55l-11.74.38s-2.5,9.43-2.12,11.93h0c0-.19-.19-.19-.19-.19h0Z"/>
        <path class="cls-2" d="M85.62,336.22h0c7.31.77,13.85-4.23,15.39-11.35l12.89-66.77c.77-9.81-6.54-18.28-16.36-19.24h0c-9.81-.77-18.28,6.54-19.24,16.36l-3.85,65.81c-.58,7.7,3.46,14.43,10.97,15.2h.19Z"/>
      </g>
      <path class="cls-2" d="M106.6,186.51c-2.89,10.97-2.31,22.51,1.35,33.29,1.35,4.04,2.69,9.04,3.46,15.01.96,5.77,2.31,14.82,2.31,22.13l-36.37,14.43h-5.39l-36.37-13.85c0-10.01,1.35-24.63,4.04-33.87.77-2.69,1.73-5.39,2.69-7.7,4.81-10.39,6.73-21.94,4.81-33.29l-7.5-43.49-2.31-12.89,2.31-1.35,30.21-19.05h17.51l27.32,18.86,2.12,1.35-2.12,12.51-7.89,48.11h0l-.19-.19Z"/>
      <path class="cls-13" d="M106.6,186.51c-2.89,10.97-2.31,22.51,1.35,33.29,1.35,4.04,2.69,9.04,3.46,15.01H39.63v-11.16c.77-2.69,1.73-5.39,2.69-7.7,4.81-10.39,6.73-21.94,4.81-33.29l-7.5-43.49-2.12-12.89,24.44-15.39,7.89-5h17.51l6.73,4.62,22.71,15.59-2.12,12.51-7.89,48.11h0l-.19-.19Z"/>
      <path class="cls-14" d="M45.98,208.84s-22.32,57.73-21.36,111.8c0,2.89,1.73,5.2,4.04,5.97,15.2,4.04,70.81,17.13,97.56-3.27,1.73-1.35,2.5-3.66,2.31-5.97-2.12-15.78-10.78-78.32-22.9-108.33-19.63,8.27-39.45,7.89-59.84,0h.19v-.19Z"/>
      <g>
        <path class="cls-9" d="M123.91,73.37c0-9.04-4.23-15.97-7.7-23.28-1.54-3.27-3.08-9.04-5.39-11.55-3.08-3.27-10.39-1.73-14.24-1.92-14.24-.58-28.48.38-42.72,2.12-4.43.58-7.12-1.15-8.85,5.2-1.15,4.04-1.92,5.58-1.92,5.58-4.43,7.7-11.74,12.31-14.43,22.13-2.12,7.89-1.15,17.7,3.46,23.28,0-3.08.38-7.12.96-9.81,3.08,2.31,5.2,6.93,8.27,9.62s6.54,5,10.01,6.35c.38-2.69-.58-6.35,0-8.66,2.5,6.16,8.66,8.85,13.28,11.55,0-3.66-.96-8.27,2.12-6.16.77.58,1.92,3.08,2.89,3.85s2.12,1.54,3.27,2.12c3.46,2.12,5,2.69,8.27,0,2.31-2.12,5.2-5,7.12-7.7,1.15,2.31.58,6.16.58,8.85,3.85,0,8.47-4.62,10.97-8.27.58,2.12,0,4.43.58,6.54,5-.58,13.85-9.81,16.16-15.39,2.31,2.12,4.23,6.93,3.66,10.58,4.04-6.73,4.04-16.93,4.04-25.21h-.38v.19Z"/>
        <path class="cls-12" d="M78.5,112.82h0c-4.81,0-8.66-3.85-8.66-8.66v-12.89h17.51v12.89c0,4.81-3.85,8.66-8.66,8.66h-.19Z"/>
        <path class="cls-5" d="M120.64,56.05c-1.73,2.89-4.43,4.81-7.12,5.39h-2.31c-.77,7.5-3.46,14.43-7.31,20.01-7.31,10.97-18.28,17.51-26.36,17.13h-1.92c-8.66,0-18.66-5.97-25.59-15.97-3.85-5.58-6.73-12.31-7.89-19.82h-.58c-2.69,0-5.58-2.12-7.5-5-.38-.58-.58-.96-.77-1.54-.38-.77-.58-1.35-.77-2.12h0c-.58-2.89,0-5.2,2.31-6.16h0c1.92-.77,4.43,0,6.73,1.35,1.73-22.9,15.97-43.1,33.67-43.49,5.39,0,10.58,1.54,15.2,4.43,4.43,2.69,8.27,6.93,11.55,12.12h0c4.62,7.5,7.89,17.13,8.85,26.75h0c.96-.96,2.12-1.73,3.27-2.12,1.54-.77,3.27-.77,4.62,0,3.08,1.35,3.66,5.58,1.15,9.81l.77-.58h0v-.19Z"/>
        <path class="cls-9" d="M115.83,62.59c-.58-6.16-1.54-16.74-2.12-21.55,0-1.73,0-3.27-.38-5-.58-12.51-4.62-26.17-13.85-33.1-6.54-5-12.51-.77-19.63-2.31-13.66-2.69-29.63,3.27-36.94,16.16-4.43,7.7-5.2,16.74-3.66,25.4,0,0,.96,16.36.58,20.2-.58,6.54-2.31,18.47,1.73,24.25,1.92,2.69,7.89,7.12,10.78,8.66.58-4.23-3.27-8.08-4.04-12.12-.96-4.43-.58-9.24-.58-13.85,0-8.27-.77-16.36-.38-24.63v-2.5c0-.38.38-.58.58-.96,2.12-3.46,4.62-6.54,7.5-9.24,3.08-2.89,6.73-4.43,10.01-7.12,3.08,2.69,5.97,5.58,9.43,7.7,4.23,2.5,10.01,4.62,14.82,5-.58-1.15-1.92-2.31-2.89-3.46-.38-.58-.77-1.54-1.15-2.12,2.5,2.89,6.73,5.2,9.81,7.31,2.89,2.12,6.54,3.08,9.81,4.23,0-1.15-2.89-6.35-3.66-7.89,1.15,1.54,2.89,2.5,3.85,4.04,1.15,1.54,1.92,3.27,2.69,4.81h0c.38,8.47-.38,16.55-.38,24.82s.38,9.43-.58,13.85c-.96,4.04-4.81,7.89-4.04,12.12,2.89-1.54,8.85-5.97,10.78-8.66,4.04-5.58,2.31-17.7,1.73-24.25h0l.19.19Z"/>
        <g>
          <path class="cls-6" d="M54.07,46.05c.38,0,.77,0,.96-.58,3.27-6.16,8.85-3.66,9.04-3.46.58,0,1.15,0,1.54-.58,0-.58,0-1.15-.58-1.54-2.69-1.15-8.66-1.92-11.93,4.43,0,.58,0,1.15.38,1.54h.58v.19Z"/>
          <path class="cls-6" d="M87.55,41.04s.58.38.96,0c5.39-2.12,7.7,2.5,7.7,2.69,0,.38.77.58,1.15.38.38,0,.58-.77.38-1.15-.96-2.31-4.43-5.97-10.01-3.66-.38,0-.77.77-.58,1.15v.38h.38v.19Z"/>
          <path class="cls-6" d="M60.8,50.47c0,2.12,1.35,4.04,2.89,4.04s3.08-1.92,3.08-4.04-1.35-4.04-2.89-4.04-3.08,1.92-3.08,4.04Z"/>
          <path class="cls-6" d="M87.55,50.47c0,2.12,1.35,4.04,2.89,4.04s3.08-1.92,3.08-4.04-1.35-4.04-2.89-4.04-3.08,1.92-3.08,4.04Z"/>
          <path class="cls-3" d="M68.11,77.41c.38.38,2.89,5.97,9.62,5.77,6.54,0,9.24-5.2,9.62-5.77"/>
          <path class="cls-7" d="M82.35,65.87c0,2.69-2.12,4.81-4.81,4.81s-4.81-2.12-4.81-4.81,2.12,2.69,4.81,2.69,4.81-5.39,4.81-2.69Z"/>
          <path class="cls-4" d="M99.28,56.25c3.85,0,6.93,2.89,6.73,6.16s-3.66,5.58-7.5,5.39-6.93-2.89-6.73-6.16,3.66-5.58,7.5-5.39Z"/>
          <path class="cls-4" d="M55.41,56.25c3.85,0,6.93,2.89,6.73,6.16s-3.66,5.58-7.5,5.39-6.93-2.89-6.73-6.16,3.66-5.58,7.5-5.39Z"/>
        </g>
      </g>
      <g>
        <path class="cls-11" d="M105.06,248.04c0,1.3-.09,2.58-.26,3.83-.61,4.54-2.29,8.74-4.79,12.33-5.13,7.38-13.66,12.22-23.33,12.22-7.44,0-14.2-2.86-19.26-7.54-5.6-5.19-9.12-12.61-9.12-20.85,0-9.68,4.85-18.23,12.24-23.35,3.59-2.49,7.78-4.17,12.32-4.78,1.25-.17,2.52-.25,3.82-.25,13.67,0,25.09,9.67,27.78,22.55.39,1.88.6,3.83.6,5.83Z"/>
        <path class="cls-8" d="M105.06,248.04c0,1.3-.09,2.58-.26,3.83-.61,4.54-2.29,8.74-4.79,12.33-4.58,3.18-10.15,5.04-16.15,5.04-15.67,0-28.38-12.71-28.38-28.38,0-6.01,1.87-11.58,5.06-16.17,3.59-2.49,7.78-4.17,12.32-4.78,1.25-.17,2.52-.25,3.82-.25,15.67,0,28.38,12.71,28.38,28.38Z"/>
        <path class="cls-1" d="M105.06,248.04c0,1.3-.09,2.58-.26,3.83-4.16,4.89-10.35,7.99-17.27,7.99-12.52,0-22.67-10.15-22.67-22.67,0-6.93,3.11-13.12,8-17.28,1.25-.17,2.52-.25,3.82-.25,15.67,0,28.38,12.71,28.38,28.38Z"/>
      </g>
      <g>
        <path class="cls-2" d="M12.31,198.64h0c-7.7-.38-12.51-8.66-9.81-16.36l19.63-47.34c2.89-7.5,10.78-11.35,17.9-8.47h0c8.27,3.27,11.74,13.85,7.12,21.74l-24.82,44.64c-2.12,3.85-6.16,5.97-10.2,5.77h.19Z"/>
        <path class="cls-13" d="M28.47,125.71c-6.54,5.39-15.01,16.36-20.97,40.22l26.55,12.12s18.66-32.71,16.36-45.22c-1.54-8.66-14.82-12.7-22.13-6.93h0l.19-.19Z"/>
        <path class="cls-2" d="M8.65,179.97h0c3.08,0,5.77.96,7.89,3.66l39.06,45.99-11.74,8.47L3.07,198.06c-6.16-6.16-2.5-17.32,5.97-17.9h-.38v-.19Z"/>
        <path class="cls-2" d="M67.15,244.82l-11.55-16.16-12.51,7.31s0,.38.38.38c-4.81,18.09,2.31,27.71,2.31,27.71,6.73,9.43,10.01,7.89,11.35,5,.96-2.12.96-4.43,0-6.54-2.89-9.24-1.54-22.9-1.54-22.9,11.74,11.93,10.97,5,10.97,5h.58v.19Z"/>
      </g>
      <g>
        <path class="cls-2" d="M141.23,198.44h0c7.7-.38,12.51-8.66,9.81-16.36l-19.63-47.34c-2.89-7.5-10.78-11.35-17.9-8.47h0c-8.27,3.27-11.74,13.85-7.12,21.74l24.82,44.64c2.12,3.85,6.16,5.97,10.2,5.77h-.19Z"/>
        <path class="cls-13" d="M125.07,125.52c6.54,5.39,15.01,16.36,20.97,40.22l-26.55,12.12s-18.66-32.71-16.36-45.22c1.54-8.66,14.82-12.7,22.13-6.93h0l-.19-.19Z"/>
        <path class="cls-2" d="M142.58,178.05h0c-3.08,0-5.58,1.54-7.5,4.04l-35.21,48.87,12.51,7.5,37.52-43.1c5.77-6.54,1.35-17.32-7.12-17.32h-.19Z"/>
        <path class="cls-2" d="M88.7,240.78l14.62-13.28,10.78,9.81s-.38.19-.58.38c1.15,18.66-7.89,26.55-7.89,26.55-8.47,7.89-11.35,5.77-12.12,2.5-.58-2.12,0-4.62.96-6.35,4.81-8.47,6.35-22.13,6.35-22.13-13.85,9.04-11.74,2.5-11.74,2.5h-.38Z"/>
      </g>
    </g>
  </g>
</svg>