<?xml version="1.0" encoding="UTF-8"?>
<svg id="Ebene_2" data-name="Ebene 2" xmlns="http://www.w3.org/2000/svg" viewBox="0 0 415.91 852.78">
  <defs>
    <style>
      .cls-1, .cls-2 {
        opacity: .4;
      }

      .cls-1, .cls-2, .cls-3, .cls-4 {
        isolation: isolate;
      }

      .cls-1, .cls-5 {
        fill: #f2bd57;
      }

      .cls-6 {
        fill: #ffebe0;
      }

      .cls-6, .cls-7, .cls-8, .cls-9, .cls-5, .cls-10 {
        stroke-linecap: round;
      }

      .cls-6, .cls-7, .cls-9, .cls-5, .cls-10 {
        stroke: #03403f;
        stroke-linejoin: round;
      }

      .cls-7 {
        fill: #fff5cf;
      }

      .cls-11 {
        fill: #d9b6b6;
      }

      .cls-12, .cls-2, .cls-3 {
        fill: #fff;
      }

      .cls-8 {
        stroke: #630;
        stroke-miterlimit: 10;
      }

      .cls-8, .cls-9 {
        fill: none;
      }

      .cls-13 {
        fill: #caa1a2;
      }

      .cls-14 {
        fill: #d9a2a0;
      }

      .cls-15 {
        fill: #d38a17;
      }

      .cls-16 {
        fill: #d9baba;
      }

      .cls-10 {
        fill: #e3e3ff;
      }

      .cls-17, .cls-4 {
        fill: #603813;
      }

      .cls-18 {
        fill: #273758;
      }

      .cls-3 {
        opacity: .2;
      }

      .cls-19 {
        fill: #466e9f;
      }

      .cls-4 {
        opacity: .5;
      }

      .cls-20 {
        fill: #e6e6e6;
      }
    </style>
  </defs>
  <g id="svg">
    <g id="german-boy-lemonade-glass">
      <g>
        <path class="cls-11" d="M68.87,364.77h0c-11.55,0-19.98-13.74-16.55-27.79l24.35-88.04c3.43-14.36,14.99-21.85,26.22-18.11h0c12.8,4.37,19.04,22.79,13.11,38.4l-33.72,81.8c-2.5,7.18-7.18,14.36-13.42,14.36h0v-.62Z"/>
        <path class="cls-20" d="M85.42,233.03c-11.24,9.99-25.91,31.53-36.84,76.49l44.33,21.85,6.24-17.48c14.36-26.54,25.6-51.51,22.79-68.68-1.87-16.55-24.35-23.1-37.15-11.86h.31l.31-.31Z"/>
        <g>
          <path id="hand13" class="cls-16" d="M374.83,392.56l19.67-1.25c4.06,0,14.67.94,17.8,3.75,4.06,3.43-4.68,4.68-22.79,6.56l19.67,21.23s9.68,15.92-5.93,11.55c0,0,6.56,18.42-9.05,10.61,0,0,4.06,16.86-14.05,3.75l-16.23-13.74c-5.31-4.68-9.37-11.24-10.61-18.42-1.25-7.18.31-15.3,9.37-20.29,3.43-2.19,7.8-2.81,11.86-3.43h0l.31-.31Z"/>
          <path class="cls-11" d="M253.38,349.48h0c5-1.87,10.93-1.87,15.61,0l100.84,45.58-14.36,19.04-99.9-35.9c-15.3-5.93-17.17-23.73-2.81-29.35h.31l.31.62Z"/>
          <g>
            <path class="cls-6" d="M371.08,460.93c-5.31-.62-19.36-1.25-19.98-8.74-.31-4.37,5.62-5.31,12.49-7.18,2.5-5.31,2.5.31,1.87-11.86-.62-11.55-19.04-21.54-18.11-51.51,0-5.62.94-9.05,4.06-31.22,1.25-9.68-.94-14.99,8.74-14.99,48.7.94,52.14,1.87,52.14,2.19,1.25.94,1.87,20.6,1.87,22.48,0,9.05,2.81,25.91,0,38.71-3.12,16.23-13.11,25.91-15.61,29.35-2.81,4.37-3.75,14.05,1.56,16.55,3.75,1.87,7.18,1.87,9.05,6.24,5,10.93-22.48,12.8-38.09,10.61v-.62Z"/>
            <path class="cls-10" d="M367.02,430.34c0,.94.31,1.56.31,2.5.62,13.11.31,7.18-2.5,13.74-7.49,2.19-12.18,3.12-11.86,5.62.94,9.99,59.94,10.93,54.32-.94-2.5-5.62-10.3-2.5-12.8-11.24-.62-2.81-.62-6.24.31-9.37-4.68,1.25-9.68,2.5-14.67,2.5-4.68,0-9.37-.62-13.42-2.81h.31Z"/>
            <path class="cls-9" d="M353.91,450.32c5.93,8.12,48.7,9.05,53.7.94"/>
            <path class="cls-9" d="M364.84,446.57c8.43,3.43,19.98,5.62,32.16,0"/>
            <path class="cls-9" d="M379.51,445.63c4.68,1.56,9.99,1.25,14.36-.94"/>
            <path class="cls-9" d="M383.57,443.14c2.5,1.25,5.62.62,7.8-1.25"/>
            <path class="cls-7" d="M397.93,344.48c-2.81,0-5.31.94-8.12.62-3.12,0-5.93-1.25-9.05-1.25-3.43,0-6.87,1.56-10.61,1.56-2.19,0-4.37-.94-6.56-1.25-3.43-.62-6.87,0-10.3.62,0,1.56,0,3.12-.62,5.31,0,.94,0,1.87-.31,2.81,1.25.31,2.19.62,3.43.94,18.11,4.06,37.15,2.81,55.57.62,0-3.75,0-6.87-.31-9.05-4.37-.94-8.74-1.25-13.11-.94h0Z"/>
            <path class="cls-9" d="M363.27,348.85c3.43-.94,7.18-1.87,10.93-.94,1.87.31,3.75,1.56,5.62,1.56,5.31,0,8.43-.31,12.8-.31,3.43,0,7.18.62,9.99-1.56"/>
            <path class="cls-5" d="M398.86,424.09c19.67-24.04,13.42-39.02,12.8-64.31v-5c-18.73,2.19-37.46,3.75-55.57-.62-1.25,0-2.19-.62-3.43-.94-2.81,19.98-3.43,23.1-3.43,28.41-.94,27.47,14.99,37.46,17.8,49.02,4.06,2.19,9.05,2.81,13.42,2.81,5,0,9.68-1.25,14.67-2.5.31-1.56.94-2.81,1.87-4.06.62-.62,1.25-1.56,2.19-2.5l-.31-.31Z"/>
            <path class="cls-9" d="M368.89,427.84c8.74,4.06,16.86,3.43,24.66,1.25"/>
            <path class="cls-1" d="M364.52,405.67c.94-.31,2.19,0,2.81.94,1.87,1.56,4.06,2.81,5.93,4.37.62.62,1.56.94,2.19,1.25,2.19,0,3.43-2.19,4.06-4.37s.94-4.68,2.81-5.62c3.75-2.19,8.74,4.37,12.49,2.19,3.43-2.19,1.56-8.74,5-9.99,1.25-.31,2.5,0,3.43-.62.62-.62.94-1.25.94-2.19.62-3.75,0-7.49,0-10.93,0-3.75.94-7.8,4.06-9.99,2.81,6.87,2.19,14.36,1.25,21.54-1.25,10.61-3.75,22.17-11.86,29.35-6.87,5.93-17.8,8.12-26.22,4.06-4.37-2.19-13.42-16.23-6.87-19.67v-.31Z"/>
            <path class="cls-1" d="M357.03,385.07c0-3.12,1.56-2.81,3.12-3.75,4.37-2.5-.62-9.05,4.37-15.61,3.43-4.37,8.12-3.75,9.37,2.5.31,1.87.62,7.18,3.43,7.8,2.5.62,5.93-2.81,9.68-2.19,5.62.94,8.43,10.93,5.31,16.55-1.87,3.43-6.24,5.31-9.68,3.75-.94-.31-1.87-.94-2.81-.94-3.43.31-2.5,7.8-8.74,10.93-10.3,5.62-14.67-12.8-14.67-19.36l.62.31Z"/>
            <path class="cls-9" d="M408.23,368.52c0,9.99.31,19.98-1.56,29.66-1.87,9.68-5.93,19.36-13.11,26.54"/>
            <path class="cls-9" d="M407.61,358.22c0,1.56,0,3.43.31,5"/>
            <path class="cls-12" d="M388.87,352.91c-3.43-1.56-7.49-.62-11.24-.94-3.75,0-7.49-.94-10.93-.62-3.75.31,16.23,5.62,22.17,2.81.62-.31.31-1.25,0-1.56v.31Z"/>
            <path class="cls-2" d="M387.63,435.64h-8.12c-2.19,0-8.74-1.25-7.8.31,3.12,4.68,12.8,4.68,16.55,1.25.62-.62,0-1.56-.62-1.56h0Z"/>
            <path class="cls-2" d="M370.45,442.82c-.62.62,1.25,2.5,2.5,2.19,1.56-.62-1.87-2.81-2.5-2.19Z"/>
            <path class="cls-2" d="M381.38,451.88c-4.06-1.25-9.05,0-19.36-2.19-.31,0-.62.62-.31.62,1.56.94,2.81,2.19,4.68,2.81,3.75,1.56,11.24,3.12,15.3,1.25,1.25-.62.94-2.19,0-2.5h-.31Z"/>
            <path class="cls-3" d="M372.33,418.78c-5.31-14.05-10.61-25.6-9.68-42.15.31-5.31,1.56-9.37,1.56-10.93,0-1.25-.62-2.5-.62-3.75,0-1.87-2.81-2.5-4.06-1.25-2.19,2.5-2.81,2.19-3.75,7.18-6.56,36.21,18.73,56.2,16.55,50.58v.31Z"/>
            <path class="cls-3" d="M400.11,361.96c-5.31-3.43-11.86-1.87-22.17-.62-.31,0-7.49.62-6.56,1.87,5.62,8.43,35.28,2.81,28.41-1.25h.31Z"/>
            <path class="cls-9" d="M353.6,336.99c3.75,1.25,9.05,1.56,12.8,1.87,13.42.31,26.54.62,39.96,1.25,2.19,0,4.37-.62,5.93-2.19"/>
          </g>
        </g>
      </g>
      <g>
        <path class="cls-11" d="M78.86,336.99h0c2.5,4.37,3.75,9.99,2.19,15.61l-26.22,107.4-21.23-10.61,17.17-104.59c2.5-16.23,20.29-20.92,28.41-7.8h-.31Z"/>
        <path class="cls-11" d="M254.01,364.77h0c11.55,0,19.98-13.74,16.55-27.79l-24.35-88.04c-3.43-14.36-14.99-21.85-26.22-18.11h0c-12.8,4.37-19.04,22.79-13.11,38.4l33.72,81.8c2.5,7.18,7.18,14.36,13.42,14.36h0v-.62Z"/>
        <path class="cls-20" d="M237.15,233.03c11.24,9.99,25.91,31.53,36.84,76.49l-44.33,21.85-6.24-17.48c-14.36-26.54-25.6-51.51-22.79-68.68,1.87-16.55,24.35-23.1,37.15-11.86h-.31l-.31-.31Z"/>
        <path class="cls-11" d="M46.71,492.78l8.12-35.28-21.23-10.61v1.56c-26.54,13.11-31.53,34.65-31.53,34.65-5,20.92,0,23.73,5.31,22.48,3.43-.62,6.24-3.43,8.12-6.87,8.12-14.99,26.22-28.1,26.22-28.1-2.5,30.91,5.31,22.17,5.31,22.17h-.31Z"/>
      </g>
      <g>
        <path class="cls-11" d="M224.35,685.4c-4.37,64-13.42,130.5-15.3,130.5l-19.98-1.56-6.24-132.06-5-98.97v-4.06c0-1.56,0-2.5.62-4.06,2.5-10.61,12.49-18.42,23.73-17.17,12.8,1.25,21.85,11.55,21.23,24.35,4.37,19.98,3.43,61.19.62,103.03h.31Z"/>
        <path class="cls-20" d="M217.48,759.7c-3.75,32.78-7.18,56.2-8.74,56.2l-19.98-1.56-2.5-54.63h31.22Z"/>
        <path class="cls-18" d="M183.14,835.88c0,4.06,2.19,7.18,5.62,9.37,1.87,1.56,78.05,8.12,79.92,7.49,17.17-8.12-60.25-38.4-60.25-38.4l-20.92.62s-4.37,16.86-3.75,21.23h0v-.62h-.31l-.31.31Z"/>
        <g>
          <path class="cls-11" d="M226.84,453.44l-2.5,93.35-.62,28.1c0,13.11-10.61,23.73-23.73,24.35-13.74.62-22.48-9.68-23.73-23.73l-3.12-29.03-9.37-88.04v-2.5c0-16.55,12.8-30.28,29.35-31.53,17.48-1.56,33.09,11.55,34.03,29.35h-.31v-.31Z"/>
          <path class="cls-19" d="M226.84,453.44l1.56,89.91c0,1.87-1.56,3.43-3.43,3.43h-57.44c-1.87,0-3.43-1.56-3.43-3.43l-.62-84.92v-2.5c0-16.55,12.8-30.28,29.35-31.53,17.48-1.56,33.09,11.55,34.03,29.35h0v-.31h0Z"/>
        </g>
      </g>
      <g>
        <path class="cls-11" d="M91.97,685.4c4.37,64,13.42,130.5,15.3,130.5l19.98-1.56,6.24-132.06,5-98.97v-4.06c0-1.56,0-2.5-.62-4.06-2.5-10.61-12.49-18.42-23.73-17.17-12.8,1.25-22.17,11.55-21.23,24.35-4.37,19.98-3.43,61.19-.62,103.03h-.31Z"/>
        <path class="cls-20" d="M129.44,759.7l-2.5,54.63-19.98,1.56c-1.56,0-5-23.73-8.74-56.2h31.22Z"/>
        <path class="cls-18" d="M131.94,835.88c0,4.06-2.19,7.18-5.62,9.37-1.87,1.56-78.05,8.12-79.92,7.49-17.17-8.12,60.25-38.4,60.25-38.4l20.92.62s4.37,16.86,3.75,21.23h0v-.62h.31l.31.31Z"/>
        <g>
          <path class="cls-11" d="M151.92,455.94v2.19l-8.12,88.66-2.5,28.41c-1.25,13.74-9.99,24.35-23.73,24.04-13.11-.62-23.1-10.93-24.04-24.04l-1.25-28.1-3.75-93.03c1.56-17.48,16.55-30.28,33.72-29.66,16.86,1.25,29.66,14.99,29.66,31.53h0Z"/>
          <path class="cls-19" d="M151.92,455.94v2.19l-2.5,85.54c0,1.87-1.56,3.12-3.12,3.12h-55.88c-1.87,0-3.12-1.56-3.12-3.12l1.56-89.91c1.56-17.48,16.55-30.28,33.72-29.66,16.86,1.25,29.66,14.99,29.66,31.53h-.31v.31Z"/>
        </g>
      </g>
      <path class="cls-20" d="M231.84,229.28l-3.75,22.17-14.36,85.85c-3.43,13.42-4.06,27.16-1.87,40.59h-107.71c5.31-15.3,6.24-31.53,3.75-47.77l-13.42-77.74-4.06-22.79,4.06-2.19,54.01-34.03h31.22l48.7,33.72,3.75,2.19h-.31Z"/>
      <path class="cls-19" d="M226.53,462.8l-59.94,25.91h-18.11l-59.94-24.98c-1.87-17.17,1.25-43.08,5.62-59.94,1.56-5,3.12-9.68,5-13.74,1.87-3.75,3.43-7.49,4.37-11.55h107.71c1.25,6.24,2.19,12.8,4.37,18.42,2.19,7.18,5,16.23,6.24,26.54,1.87,9.99,5.62,25.91,3.75,39.34h.94Z"/>
      <path class="cls-19" d="M191.57,201.5h0c-8.12,27.47-46.52,28.41-56.51,1.87v-1.25l14.36-9.05h31.22l11.86,8.12h-.62l-.31.31Z"/>
      <g id="german-boy-smiling3">
        <path class="cls-13" d="M148.79,202.74h0c6.56,8.74,23.1,8.43,29.03,0h0c1.25-1.87,1.87-3.43,1.87-5.62v-33.41h-33.09v33.09c0,2.19.62,4.06,2.19,6.24h.31l-.31-.31Z"/>
        <path class="cls-16" d="M237.15,111.58c-3.12,4.68-7.49,8.43-12.18,9.05h-3.75c-1.25,12.8-5.93,24.35-12.49,34.03-12.49,18.73-30.91,29.97-44.96,29.35h-3.12c-14.67,0-31.84-10.3-43.4-27.16-6.56-9.37-11.24-20.92-13.42-33.72h-.94c-4.37-.31-9.68-3.75-12.8-8.74-.62-.62-.94-1.87-1.25-2.5-.62-1.25-.94-2.5-1.25-3.43h0c-.94-4.68,0-9.05,3.75-10.61h0c3.43-1.25,7.49-.31,11.24,2.5,2.81-39.02,27.16-73.37,57.13-73.99,9.37,0,17.8,2.5,25.91,7.18,18.42,11.24,31.84,38.71,34.97,66.19,1.87-1.87,3.75-3.12,5.93-4.06s5.62-1.25,7.8-.31c5.62,2.19,6.24,9.68,2.19,16.55h.62v-.31Z"/>
        <g>
          <path class="cls-17" d="M121.63,90.98c.62,0,1.25,0,1.87-.94,5.93-10.93,15.92-6.56,16.23-6.24.94,0,2.19,0,2.81-.94,0-.94,0-2.19-.94-2.81-4.68-2.19-15.61-3.43-21.23,7.8,0,.94,0,2.19.62,2.81h.94l-.31.31Z"/>
          <path class="cls-17" d="M181.58,81.92s.94.62,1.87,0c9.68-3.75,13.74,4.37,13.74,4.68,0,.62,1.25.94,2.19.62.62,0,.94-1.25.62-2.19-1.87-4.06-7.8-10.61-17.8-6.56-.62,0-1.25,1.25-.94,2.19v.62h.62v.31l-.31.31Z"/>
          <path class="cls-17" d="M133.81,98.78c0,3.75,2.5,7.18,5.31,7.18s5.62-3.43,5.62-7.18-2.5-7.18-5.31-7.18-5.62,3.43-5.62,7.18Z"/>
          <path class="cls-17" d="M181.58,98.78c0,3.75,2.5,7.18,5.31,7.18s5.62-3.43,5.62-7.18-2.5-7.18-5.31-7.18-5.62,3.43-5.62,7.18Z"/>
          <path class="cls-8" d="M146.3,147.17c.62.62,5.31,10.61,17.17,10.3,11.86,0,16.55-9.37,17.17-10.3"/>
          <path class="cls-4" d="M172.21,126.26c0,4.68-3.75,8.74-8.74,8.74s-8.74-3.75-8.74-8.74,3.75,4.68,8.74,4.68,8.74-9.68,8.74-4.68Z"/>
          <path class="cls-14" d="M202.49,109.08c6.87,0,12.49,5.31,12.18,10.93-.31,5.93-6.56,9.99-13.42,9.68s-12.49-5.31-12.18-10.93c.31-5.62,6.56-9.99,13.42-9.68Z"/>
          <path class="cls-14" d="M124.13,109.08c6.87,0,12.49,5.31,12.18,10.93s-6.56,9.99-13.42,9.68-12.49-5.31-12.18-10.93c.31-5.62,6.56-9.99,13.42-9.68Z"/>
        </g>
        <path class="cls-15" d="M230.59,50.7c-5.62-18.73-16.55-34.97-34.97-43.71-14.67-7.18-64-19.04-91.47,25.6-10.93,17.8-13.42,40.59-13.42,61.5s3.12,35.59,14.05,49.64c1.87,2.19,3.75,4.06,5.93,5.93,0,0-2.5-12.49-4.06-17.48-5.62-18.42-4.68-39.65.94-58.07.94-2.81,2.19-5.31,3.12-7.8.31-1.25,3.75-7.49,3.43-8.74,5.93,14.05,25.29,19.67,39.02,22.17-2.5-3.75-6.56-5.93-8.74-9.99-2.5-4.06-3.75-8.74-5.31-12.8,16.55,6.24,33.72,17.8,52.76,16.86-4.06-4.06-15.3-12.49-14.67-19.36,4.06,5.93,11.24,7.49,17.8,9.99,4.06,1.25,8.74,2.5,12.8,3.75,3.43.94,3.43.62,4.37,3.75,6.24,20.6,9.05,45.58,4.06,66.81.94-5.31,9.68-15.3,11.24-19.98,2.19-5.93,3.75-11.86,5.31-17.8,2.5-12.18,2.5-24.98.62-36.84-.62-4.37-1.87-9.05-2.81-13.11h-.62l.62-.31Z"/>
      </g>
    </g>
  </g>
</svg>