<?xml version="1.0" encoding="UTF-8"?>
<svg id="Ebene_2" data-name="Ebene 2" xmlns="http://www.w3.org/2000/svg" viewBox="0 0 390.44 847.21">
  <defs>
    <style>
      .cls-1 {
        fill: #ffebe0;
      }

      .cls-1, .cls-2, .cls-3, .cls-4, .cls-5, .cls-6 {
        stroke-linecap: round;
      }

      .cls-1, .cls-3, .cls-4, .cls-5, .cls-6 {
        stroke: #03403f;
        stroke-linejoin: round;
      }

      .cls-7 {
        fill: #d9b6b6;
      }

      .cls-2 {
        stroke: #630;
        stroke-miterlimit: 10;
      }

      .cls-2, .cls-3 {
        fill: none;
      }

      .cls-8 {
        fill: #caa1a2;
      }

      .cls-9 {
        fill: #d9a2a0;
      }

      .cls-10 {
        fill: #f27406;
        opacity: .4;
      }

      .cls-10, .cls-11 {
        isolation: isolate;
      }

      .cls-4 {
        fill: #f2bd57;
      }

      .cls-5 {
        fill: #f25ca3;
      }

      .cls-12 {
        fill: #d38a17;
      }

      .cls-13 {
        fill: #d9baba;
      }

      .cls-14, .cls-11 {
        fill: #603813;
      }

      .cls-15 {
        fill: #273758;
      }

      .cls-6 {
        fill: #048c3d;
      }

      .cls-16 {
        fill: #466e9f;
      }

      .cls-11 {
        opacity: .5;
      }

      .cls-17 {
        fill: #e6e6e6;
      }
    </style>
  </defs>
  <g id="svg">
    <g id="german-boy-lemonade-up">
      <g>
        <path class="cls-7" d="M243.35,356.29h0c11.52,0,19.63-13.87,16.49-27.48l-24.34-87.69c-3.4-14.13-14.92-21.73-26.18-17.8h0c-12.56,4.45-19.11,22.77-13.09,37.95l33.5,81.14c2.62,7.07,7.07,14.13,13.35,14.13h0l.26-.26Z"/>
        <path class="cls-17" d="M226.86,225.41c11.26,9.95,25.65,31.41,36.65,75.91l-43.97,21.73-6.28-17.54c-14.13-26.44-25.39-51.04-22.77-68.32,1.83-16.49,24.34-23.03,36.91-12.04h-.26l-.26.26Z"/>
        <g>
          <path id="hand11" class="cls-13" d="M329.47,258.39l8.11-17.8c1.57-3.66,8.11-12.3,11.78-13.61,4.71-1.83,1.83,6.28-5.24,23.03l27.75-6.81s18.58-.79,7.07,10.47c0,0,19.11,3.14,4.97,13.09,0,0,16.75,4.71-3.4,14.13l-19.89,7.33c-6.81,2.36-14.4,2.88-21.2.26-6.81-2.36-13.09-7.59-13.35-18.06,0-4.19,1.05-8.11,2.88-12.04h.52Z"/>
          <path class="cls-7" d="M233.93,343.2h0c.79-5.24,3.66-10.21,7.59-13.61l88.21-65.7,9.68,21.73-79.05,69.63c-12.3,10.47-28.79,3.4-26.7-11.78h.52l-.26-.26Z"/>
        </g>
        <g>
          <path class="cls-4" d="M335.21,109.94c-.65,2.61-2.94,4.57-2.29,7.19.33,1.63,1.31,2.61,1.63,4.25,0,1.96-1.96,10.45-2.61,13.72-5.88,39.2-2.61,28.09-17.96,64.02-6.53,15.35-1.31,63.37-1.31,100.6,0,7.19.65,17.64,8.49,20.9,6.86,2.61,35.93,1.63,44.42.65,15.03-1.31,17.64-7.84,17.96-20.58.65-83.29,1.31-87.54-2.94-100.6-3.59-12.09-12.41-21.88-14.37-34.3-4.57-24.5-9.15-43.44-7.84-45.73,2.29-.33,1.96-2.94,1.31-5.23-2.94-8.17-.98-6.21-5.88-5.88-6.21,0-12.41,1.31-18.62,1.63v-.65Z"/>
          <path class="cls-10" d="M341.42,319.96c34.95,0,40.18-1.31,40.18-19.6.65-83.29,1.31-87.21-2.94-99.95-3.59-11.76-12.09-21.88-14.7-34.62-5.23-29.72-9.47-44.1-7.51-47.36,1.31-2.29,2.61,1.63,0-6.86-.65-1.63,0-.98-2.61-.98-5.55,0-11.76-.98-17.31-.65-.65,1.96-1.96,5.55-1.63,6.53,0,.98,1.31,2.29,1.63,4.25,0,2.29-1.96,11.11-2.61,14.05-5.23,34.3-3.27,30.38-13.39,53.57-7.19,16.66-9.15,15.03-6.86,73.49,2.29,57.49-3.92,57.81,27.76,57.81v.33Z"/>
          <path class="cls-3" d="M356.44,107.65c-1.63.98-3.27.98-4.9,1.31-5.23,0-10.78,0-16.01-.33"/>
          <path class="cls-6" d="M329.33,152.07c.65-4.25,1.31-9.8,2.61-16.98,0-1.96,1.31-6.21,1.96-9.47,8.17,1.63,16.66,1.31,24.82-.65.65,5.55,2.61,14.7,4.9,26.13-10.78,3.59-22.86,3.92-33.97.98h-.33Z"/>
          <path class="cls-3" d="M362.65,188.33c-9.8,5.55-21.88,5.55-32.66,2.29"/>
          <path class="cls-1" d="M363.96,223.93c-7.84-.65-15.68-.98-23.84-.98-4.57,0-14.37-.65-17.31,3.92-2.29,3.27-.65,8.17-.98,12.09,0,38.22-.98,43.12,3.27,46.06,4.57,2.94,33.97,1.31,39.2.98,5.55-.33,7.84-1.96,7.51-9.47-2.61-49.97,2.94-50.95-8.17-52.26l.33-.33Z"/>
          <path class="cls-5" d="M341.74,284.36c10.13,0,20.58-.65,22.86-.98,4.25-.33,5.88-.98,5.55-7.19-.65-16.33-.65-27.76-.65-35.28s0-11.43-.65-13.39c-.33-.98-.98-1.31-4.9-1.63-6.53-.65-13.07-.98-20.25-.98s-2.29,0-3.27,0h-3.59c-2.61,0-10.13,0-11.76,2.94-1.31,1.96-.98,4.57-.65,7.51v17.31c0,24.5,0,28.42,2.29,30.38.33,0,2.61,1.31,15.03,1.31h0Z"/>
          <path class="cls-3" d="M376.69,313.76c-3.92,1.96-8.49,0-12.41-1.63-8.82-3.27-18.94-4.25-28.09-1.31-2.61.98-5.55,2.29-8.17,2.94-2.94.65-6.21,0-8.17-1.63"/>
          <path class="cls-3" d="M352.52,118.43c-3.92,1.63-8.17,1.63-12.09.33"/>
          <path class="cls-3" d="M332.27,156.65c0,9.47-2.61,18.94-7.19,27.11"/>
          <path class="cls-3" d="M321.82,195.52c-3.92,6.86-4.9,14.7-5.23,22.54-.33,9.47,0,18.94.65,28.42"/>
          <path class="cls-3" d="M316.59,256.92c-.65,14.05,0,28.09,1.63,41.81"/>
          <path class="cls-3" d="M341.74,300.37c-6.53-1.63-12.09-5.55-15.68-11.11"/>
          <path class="cls-3" d="M334.89,303.96c-3.27-1.63-6.53-3.59-9.15-5.88"/>
          <path class="cls-3" d="M341.74,144.24c-2.61-2.94-4.57-6.53-6.21-10.13"/>
          <path class="cls-3" d="M339.46,148.48c-1.63-1.31-2.94-2.94-3.92-4.9"/>
          <path class="cls-4" d="M340.11,242.88c2.61-.98,3.27-.65,2.29-1.96-2.61,0-6.21,1.96-9.47-2.61l-1.31-2.61c3.92,1.31,8.49-.65,11.43,3.27-.33-3.27-.98-5.23,0-5.55.98,0,2.61.98,2.61,2.94s-.65,2.94-.33,4.9c20.9-1.96,26.46,22.86,8.82,29.4-26.13,9.47-32.66-20.9-14.37-27.76h.33Z"/>
          <path class="cls-3" d="M341.42,268.68c-2.29,0-4.25-.65-5.88-2.29-1.63-1.31-2.61-3.27-3.92-5.23"/>
          <path class="cls-3" d="M332.27,254.31c-.65,1.31-.65,2.94-.33,4.25"/>
          <path class="cls-3" d="M334.89,278.81c-3.27-.65-5.88-2.61-7.19-5.55"/>
          <path class="cls-3" d="M330.97,280.77c-2.29-.65-4.25-2.29-5.23-4.25"/>
        </g>
      </g>
      <g>
        <path class="cls-7" d="M78.22,334.37h0c2.62,4.45,3.66,9.95,2.36,15.71l-26.18,106.53-21.2-10.47,17.01-103.91c2.62-15.97,20.15-20.94,28.27-7.85h-.26Z"/>
        <path class="cls-7" d="M67.49,362.38h0c-11.52,0-19.63-13.87-16.49-27.48l24.34-87.69c3.4-14.13,14.92-21.73,26.18-17.8h0c12.56,4.45,19.11,22.77,13.09,37.95l-33.5,81.14c-2.62,7.07-7.07,14.13-13.35,14.13h0l-.26-.26Z"/>
        <path class="cls-17" d="M84.24,231.5c-11.26,9.95-25.65,31.41-36.65,75.91l43.97,21.73,6.28-17.54c14.13-26.44,25.39-51.04,22.77-68.32-1.83-16.49-24.34-23.03-36.91-12.04h.26l.26.26Z"/>
        <path class="cls-7" d="M46.55,489.85l8.11-35.07-21.2-10.47v1.57c-26.44,13.09-31.41,34.29-31.41,34.29-4.97,20.94,0,23.56,5.24,22.25,3.4-.79,6.28-3.4,8.11-6.81,8.11-14.92,26.18-28.01,26.18-28.01-2.62,30.62,5.24,21.99,5.24,21.99h-.26v.26Z"/>
      </g>
      <g>
        <path class="cls-7" d="M220.85,680.93c-4.45,63.61-13.35,129.83-15.18,129.83l-19.63-1.57-6.28-131.14-4.97-98.42v-4.19c0-1.57,0-2.62.79-4.19,2.62-10.47,12.3-18.32,23.56-17.01,12.56,1.05,21.73,11.52,21.2,24.34,4.45,19.63,3.4,60.73.79,102.61h0l-.26-.26Z"/>
        <path class="cls-17" d="M214.31,754.74c-3.66,32.46-7.07,56.01-8.64,56.01l-19.63-1.57-2.62-54.44h30.89Z"/>
        <path class="cls-15" d="M180.02,830.39c0,4.19,2.36,7.07,5.5,9.42,1.83,1.57,77.48,8.11,79.31,7.33,17.01-8.11-59.94-37.95-59.94-37.95l-20.94.79s-4.45,16.75-3.66,21.2h0v-.79h-.26Z"/>
        <g>
          <path class="cls-7" d="M223.47,450.33l-2.62,92.92-.79,28.01c0,13.09-10.47,23.56-23.56,24.34-13.87.79-22.25-9.68-23.56-23.56l-2.88-28.79-9.42-87.69v-2.62c0-16.49,12.56-30.1,29.05-31.41,17.54-1.57,32.72,11.52,34.03,29.05h-.26v-.26Z"/>
          <path class="cls-16" d="M223.47,450.33l1.57,89.52c0,1.83-1.57,3.4-3.4,3.4h-57.06c-1.83,0-3.4-1.57-3.4-3.4l-.79-84.28v-2.62c0-16.49,12.56-30.1,29.05-31.41,17.54-1.57,32.72,11.52,34.03,29.05h0v-.26Z"/>
        </g>
      </g>
      <g>
        <path class="cls-7" d="M89.45,680.93c4.45,63.61,13.35,129.83,15.18,129.83l19.63-1.57,6.28-131.14,4.97-98.42v-4.19c0-1.57,0-2.62-.79-4.19-2.62-10.47-12.3-18.32-23.56-17.01-12.56,1.05-21.99,11.52-21.2,24.34-4.45,19.63-3.4,60.73-.79,102.61h0l.26-.26Z"/>
        <path class="cls-17" d="M126.62,754.74l-2.62,54.44-19.63,1.57c-1.57,0-4.97-23.56-8.64-56.01h30.89Z"/>
        <path class="cls-15" d="M129.24,830.39c0,4.19-2.36,7.07-5.5,9.42-1.83,1.57-77.48,8.11-79.31,7.33-17.01-8.11,59.94-37.95,59.94-37.95l20.94.79s4.45,16.75,3.66,21.2h0v-.79h.26,0Z"/>
        <g>
          <path class="cls-7" d="M149.13,452.95v2.36l-8.11,87.95-2.62,28.27c-1.05,13.87-9.95,24.34-23.56,23.82-13.09-.79-23.03-10.73-23.82-23.82l-1.05-28.01-3.66-92.4c1.57-17.54,16.49-30.1,33.5-29.32,16.75,1.05,29.32,14.92,29.32,31.41h0v-.26Z"/>
          <path class="cls-16" d="M149.13,452.95v2.36l-2.62,85.07c0,1.83-1.57,2.88-2.88,2.88h-55.49c-1.83,0-2.88-1.57-2.88-2.88l1.57-89.52c1.57-17.54,16.49-30.1,33.5-29.32,16.75,1.05,29.32,14.92,29.32,31.41h-.52Z"/>
        </g>
      </g>
      <path class="cls-17" d="M228.44,227.84l-3.66,21.99-14.13,85.33c-3.4,13.35-4.19,26.96-1.83,40.31h-107.06c5.24-15.18,6.28-31.41,3.66-47.38l-13.35-77.22-4.19-22.77,4.19-2.36,53.66-34.03h30.89l48.42,33.5,3.66,2.36h-.26v.26Z"/>
      <path class="cls-16" d="M223.21,459.75l-59.68,25.65h-17.8l-59.68-24.87c-1.83-17.01,1.05-42.93,5.5-59.68,1.57-4.97,2.88-9.68,4.97-13.87,1.83-3.66,3.4-7.33,4.45-11.52h107.06c1.05,6.28,2.36,12.56,4.45,18.32,2.36,7.07,4.97,15.97,6.28,26.44,1.83,9.95,5.5,25.65,3.66,39.26h.79v.26Z"/>
      <path class="cls-16" d="M188.66,200.36h0c-8.11,27.22-46.33,28.27-56.28,1.83v-1.05l14.13-8.9h30.89l12.04,8.11h-.79Z"/>
      <g id="german-boy-smiling1">
        <path class="cls-8" d="M145.47,200.36h0c6.54,8.64,22.77,8.38,28.53,0h0c1.31-1.83,1.83-3.4,1.83-5.5v-32.98h-32.72v32.72c0,2.09.79,3.93,2.09,6.02h.26v-.26Z"/>
        <path class="cls-13" d="M232.89,110.05c-3.14,4.71-7.59,8.11-12.04,8.9h-3.66c-1.31,12.56-5.76,24.08-12.3,33.77-12.3,18.32-30.62,29.58-44.24,29.05h-3.14c-14.66,0-31.41-10.21-42.93-26.96-6.54-9.16-11.26-20.68-13.35-33.5h-1.05c-4.45-.26-9.42-3.66-12.56-8.64-.79-.79-1.05-1.83-1.31-2.36-.79-1.31-1.05-2.36-1.31-3.4h0c-1.05-4.71,0-8.9,3.66-10.47h0c3.4-1.31,7.59-.26,11.26,2.36,2.62-38.48,26.96-72.5,56.54-73.29,9.16,0,17.8,2.36,25.65,7.07,18.06,11.26,31.41,38.22,34.55,65.44,1.83-1.83,3.66-3.14,5.76-4.19s5.5-1.31,7.85-.26c5.5,2.09,6.02,9.42,2.09,16.49h.79-.26Z"/>
        <g>
          <path class="cls-14" d="M118.77,89.64c.79,0,1.31,0,1.83-1.05,5.76-10.99,15.71-6.54,15.97-6.02,1.05,0,2.09,0,2.62-1.05,0-1.05,0-2.09-1.05-2.62-4.71-2.09-15.44-3.4-21.2,7.85,0,1.05,0,2.09.79,2.62h1.05v.26Z"/>
          <path class="cls-14" d="M177.92,80.74s1.05.79,1.83,0c9.42-3.66,13.61,4.45,13.61,4.71,0,.79,1.31,1.05,2.09.79.79,0,1.05-1.31.79-2.09-1.83-4.19-7.85-10.47-17.8-6.54-.79,0-1.31,1.31-1.05,2.09v.79h.79v.26h-.26Z"/>
          <path class="cls-14" d="M130.55,97.49c0,3.66,2.36,7.07,5.24,7.07s5.5-3.4,5.5-7.07-2.36-7.07-5.24-7.07-5.5,3.4-5.5,7.07Z"/>
          <path class="cls-14" d="M177.92,97.49c0,3.66,2.36,7.07,5.24,7.07s5.5-3.4,5.5-7.07-2.36-7.07-5.24-7.07-5.5,3.4-5.5,7.07Z"/>
          <path class="cls-2" d="M143.11,145.39c.79.79,5.24,10.47,17.01,10.21,11.52,0,16.49-9.16,17.01-10.21"/>
          <path class="cls-11" d="M168.76,124.71c0,4.71-3.66,8.64-8.64,8.64s-8.64-3.66-8.64-8.64,3.66,4.71,8.64,4.71,8.64-9.42,8.64-4.71Z"/>
          <path class="cls-9" d="M198.86,107.7c6.81,0,12.3,5.24,12.04,10.99s-6.54,9.95-13.35,9.42-12.3-5.24-12.04-10.99c.26-5.76,6.54-9.95,13.35-9.42h0Z"/>
          <path class="cls-9" d="M121.13,107.7c6.81,0,12.3,5.24,12.04,10.99s-6.54,9.95-13.35,9.42-12.3-5.24-12.04-10.99c.26-5.76,6.54-9.95,13.35-9.42h0Z"/>
        </g>
        <path class="cls-12" d="M226.35,50.11c-5.5-18.32-16.49-34.55-34.55-43.19-14.66-7.07-63.34-18.85-90.3,25.13-10.99,17.8-13.35,40.31-13.35,60.73s3.14,35.07,13.87,49.21c1.83,2.09,3.66,4.19,5.76,5.76,0,0-2.36-12.3-4.19-17.28-5.5-18.06-4.71-39.26,1.05-57.32,1.05-2.62,2.09-5.24,3.14-7.85.26-1.31,3.66-7.59,3.4-8.64,5.76,13.87,24.87,19.37,38.48,21.73-2.36-3.66-6.54-5.76-8.64-9.95-2.36-4.19-3.66-8.64-5.24-12.56,16.49,6.02,33.5,17.8,52.09,16.75-4.19-4.19-14.92-12.3-14.66-19.11,4.19,5.76,11.26,7.59,17.8,9.95,4.19,1.31,8.64,2.36,12.56,3.66,3.4,1.05,3.4.79,4.45,3.66,6.02,20.42,8.9,45.02,4.19,66.22,1.05-5.24,9.42-14.92,11.26-19.89,2.09-5.76,3.66-11.52,5.24-17.8,2.36-12.04,2.36-24.6.79-36.38-.79-4.45-1.83-8.9-2.62-12.83h-.79.26Z"/>
      </g>
    </g>
  </g>
</svg>