<?xml version="1.0" encoding="UTF-8"?>
<svg id="Ebene_2" data-name="Ebene 2" xmlns="http://www.w3.org/2000/svg" viewBox="0 0 406.92 847.64">
  <defs>
    <style>
      .cls-1 {
        fill: #d9b6b6;
      }

      .cls-2 {
        fill: #ede152;
        opacity: .38;
      }

      .cls-2, .cls-3, .cls-4, .cls-5, .cls-6, .cls-7 {
        isolation: isolate;
      }

      .cls-3 {
        fill: #c4ba44;
      }

      .cls-3, .cls-5 {
        opacity: .64;
      }

      .cls-8 {
        fill: none;
        stroke: #630;
        stroke-linecap: round;
        stroke-miterlimit: 10;
      }

      .cls-9 {
        fill: #caa1a2;
      }

      .cls-10 {
        fill: #d9a2a0;
      }

      .cls-11 {
        fill: #cbdee3;
      }

      .cls-4 {
        fill: #bfd0d6;
        opacity: .37;
      }

      .cls-12 {
        fill: #d38a17;
      }

      .cls-13 {
        fill: #d9baba;
      }

      .cls-14, .cls-7 {
        fill: #603813;
      }

      .cls-15 {
        fill: #e2e3ac;
      }

      .cls-5 {
        fill: #a89f3b;
      }

      .cls-16 {
        fill: #273758;
      }

      .cls-17 {
        fill: #b8ae40;
      }

      .cls-6 {
        fill: #fff;
        opacity: .67;
      }

      .cls-18 {
        fill: #466e9f;
      }

      .cls-7 {
        opacity: .5;
      }

      .cls-19 {
        fill: #d1d349;
      }

      .cls-20 {
        fill: #e6e6e6;
      }
    </style>
  </defs>
  <g id="svg">
    <g id="german-boy-vinegar">
      <g>
        <path class="cls-1" d="M154.76,362.51h0c-11.7,0-19.72-13.71-16.38-27.74l24.4-87.58c3.34-14.04,15.04-21.73,26.07-18.05h0c12.7,4.35,19.05,22.73,13.04,38.11l-33.43,81.23c-2.67,7.02-7.02,14.04-13.37,14.04h-.33Z"/>
        <path class="cls-20" d="M171.14,231.47c-11.03,10.03-25.74,31.42-36.44,76.21l44.12,21.73,6.35-17.38c14.04-26.41,25.4-51.14,22.73-68.19-2.01-16.38-24.4-23.07-36.77-12.03h0v-.33Z"/>
        <g>
          <path id="hand12" class="cls-13" d="M42.15,380.83l-17.95-1.34c-3.71,0-13.62,1-16.41,3.68-3.71,3.34,4.33,4.68,21.05,6.69l-17.95,21.06s-8.98,15.71,5.26,11.37c0,0-5.88,18.39,8.36,10.7,0,0-3.71,16.71,13,4.01l14.86-13.71c4.95-4.68,8.67-11.37,9.6-18.39s0-15.04-8.67-20.39c-3.1-2.01-7.12-3.01-10.83-3.34h-.31v-.33Z"/>
          <path class="cls-1" d="M153.9,338.04h0c-4.64-1.67-9.91-1.67-14.55,0l-92.86,45.46,13.31,18.72,91.93-35.77c14.24-5.68,15.79-23.73,2.48-29.08h0v.67h-.31Z"/>
          <g>
            <path class="cls-11" d="M39.37,275.16l74.58,21.29s-61.64,160.67-64.03,166.29c-2.39,5.62-8.13,4.5-12.25,7.29-3.33,2.26-10.36,30.91-12.95,41.92-.62,2.64-.99,4.26-.99,4.26l-11.93-3.18L0,509.44s4.24-12.24,7.83-24.23c3.06-10.22,5.64-20.26,4.7-22.35-2.03-4.55-7.5-6.63-6.56-12.66.94-6.04,33.39-175.04,33.39-175.04Z"/>
            <ellipse class="cls-11" cx="76.66" cy="285.8" rx="11.95" ry="38.78" transform="translate(-219.21 281.08) rotate(-74.07)"/>
            <path class="cls-19" d="M44.47,279.79c.25-.89.89-1.64,1.85-2.25,4.82-3.05,17.83-2.59,32.26,1.53,7.3,2.08,13.79,4.77,18.75,7.57h0c4.49,2.54,7.71,5.18,9.14,7.58.74,1.24,1,2.41.7,3.47-.04.15-.1.3-.17.45-.94,2.53-5.74,15.52-12.26,33.14-1.21,3.26-2.47,6.67-3.78,10.21-11.69,31.59-26.97,72.82-36.1,97.32h0c-1.57,4.22-2.96,7.94-4.12,11.03-2.1,5.62-3.44,9.16-3.72,9.8-2.01,4.73-7.69,3.54-11.16,5.89-1.78,1.2-5.85,13.96-9.41,26.12l-15.99-4.56c3.5-12.23,6.84-25.15,5.97-27.1-1.7-3.83-7.16-5.82-6.37-10.89.56-3.59,17.53-86.77,27.42-135.18.14-.68.27-1.36.41-2.03,0,0,0-.01,0-.02,3.44-16.85,5.95-29.1,6.46-31.61.02-.16.05-.32.1-.47Z"/>
            <path class="cls-17" d="M92.69,300.65c3.1-.58,12.09-.39,13.21-4.7.18-.71.38-1.27.59-1.72.74,1.24,1,2.41.7,3.47-.04.15-.1.3-.17.45-.94,2.53-5.74,15.52-12.26,33.14-.15.33-.31.67-.47,1.01,0,0,9.29-29.67,8.16-30.89,0,0-8.73,1.24-15.07.11-6.34-1.13,2.22-.27,5.33-.85Z"/>
            <path class="cls-17" d="M46.33,277.54s-2.09,4.86,2.71,8.61c4.8,3.75,15.55,8.06,15.46,8.37s-14.92-6.29-17.07-7.47c-1.54-.84-6.69,15.45-9.51,24.82,3.44-16.85,5.95-29.1,6.46-31.61.02-.16.05-.32.1-.47.25-.89.89-1.64,1.85-2.25Z"/>
            <path class="cls-5" d="M44.47,279.79c.25-.89.89-1.64,1.85-2.25,4.82-3.05,17.83-2.59,32.26,1.53,7.3,2.08,13.79,4.77,18.75,7.57h0c4.49,2.54,7.71,5.18,9.14,7.58.74,1.24,1,2.41.7,3.47-.04.15-.1.3-.17.45-.94,2.53-5.74,15.52-12.26,33.14-1.21,3.26-2.47,6.67-3.78,10.21-.16-13.3-3.27-25.14-13.24-27.99-16.87-4.81-32.17-1.92-40.22.41.14-.68.27-1.36.41-2.03,0,0,0-.01,0-.02,3.44-16.85,5.95-29.1,6.46-31.61.02-.16.05-.32.1-.47Z"/>
            <path class="cls-3" d="M44.47,279.79c.25-.89.89-1.64,1.85-2.25,4.82-3.05,17.83-2.59,32.26,1.53,7.3,2.08,13.79,4.77,18.75,7.57h0s-26.38-9.44-36.31.3c-9.94,9.75-35.45,130.9-30.16,142.78,5.24,11.77,23.65,9.13,24,9.08-1.57,4.21-2.96,7.93-4.12,11.02-4.74-1.5-16.01-3.83-22.41,5.28-5.47,7.79-9.47,23.85-11.54,33.77l-6.32-1.8c3.5-12.23,6.84-25.15,5.97-27.1-1.7-3.83-7.16-5.82-6.37-10.89.57-3.64,18.01-89.13,27.84-137.2,0,0,0-.01,0-.02,3.44-16.85,5.95-29.1,6.46-31.61.02-.16.05-.32.1-.47Z"/>
            <path class="cls-4" d="M0,509.44s4.24-12.24,7.83-24.23l8,.75s-4.54,13.39-5.42,18.99c-.67,4.29,9.52,6.3,14.31,7.01-.62,2.64-.99,4.26-.99,4.26l-11.93-3.18-11.8-3.59Z"/>
            <ellipse class="cls-15" cx="18.46" cy="489.36" rx="2.55" ry="8.32" transform="translate(-457.18 372.8) rotate(-74.07)"/>
            <path class="cls-6" d="M20.59,504.15c2.9-2.08,9.06-38.88,11.66-40.85,2.59-1.97,7.89-1.2,10.48-5.68,2.59-4.48,13.91-30.23,10.23-32.3-3.68-2.07-9.81,30.52-15.07,30.92s-10.95,3.24-12.17,8.03c-1.21,4.79-15.36,47.25-5.13,39.88Z"/>
            <path class="cls-6" d="M60.1,407.54c3.98-.33,12.44-30.68,11.07-32.04-2.2-2.19-15.66,32.42-11.07,32.04Z"/>
            <path class="cls-2" d="M42.66,422.13c9.96-6.01,30.63-77.13,23.79-89.55-6.85-12.42-30.15,7.53-32.47,46.65-2.33,39.12-2.93,49.91,8.69,42.9Z"/>
          </g>
        </g>
      </g>
      <g>
        <path class="cls-1" d="M327.59,335.37h0c-2.67,4.35-3.68,10.03-2.34,15.71l26.07,106.63,21.39-10.36-17.05-103.96c-2.67-16.05-20.06-20.73-28.41-7.69h0l.33-.33Z"/>
        <path class="cls-1" d="M338.61,362.51h0c11.7,0,19.72-13.71,16.38-27.74l-24.4-87.58c-3.34-14.04-15.04-21.73-26.07-18.05h0c-12.7,4.35-19.05,22.73-13.04,38.11l33.43,81.23c2.67,7.02,7.02,14.04,13.37,14.04h.33Z"/>
        <path class="cls-20" d="M321.57,231.47c11.03,10.03,25.74,31.42,36.44,76.21l-44.12,21.73-6.35-17.38c-14.04-26.41-25.4-51.14-22.73-68.19,2.01-16.38,24.4-23.07,36.77-12.03h0v-.33Z"/>
        <path class="cls-1" d="M360.39,491.17l-8.36-35.1,21.39-10.36v1.34c26.41,13.04,31.42,34.43,31.42,34.43,5.01,20.73,0,23.4-5.35,22.4-3.34-.67-6.35-3.34-8.36-6.69-8.36-15.04-26.07-28.08-26.07-28.08,2.67,30.42-5.35,22.06-5.35,22.06h.67,0Z"/>
      </g>
      <g>
        <path class="cls-1" d="M308.86,681.08c-4.35,63.85-13.37,129.7-15.38,129.7l-19.72-1.34-6.35-131.37-5.01-98.61v-4.01c0-1.34,0-2.67.67-4.01,2.67-10.36,12.37-18.39,23.4-17.05,12.7,1,21.73,11.7,21.39,24.4,4.35,19.72,3.34,60.84.67,102.62h0l.33-.33Z"/>
        <path class="cls-20" d="M302.18,754.95c-3.68,32.42-7.02,55.82-8.69,55.82l-19.72-1.34-2.67-54.49h31.09Z"/>
        <path class="cls-16" d="M268.08,830.83c0,4.01,2.34,7.02,5.68,9.36,2.01,1.34,77.55,8.36,79.56,7.35,17.05-8.36-60.17-38.11-60.17-38.11l-20.73.67s-4.35,16.71-3.68,21.39h0v-.67h-.67Z"/>
        <g>
          <path class="cls-1" d="M311.54,450.43l-2.67,92.93-.67,28.08c0,13.04-10.36,23.4-23.4,24.4-13.71.67-22.4-9.69-23.4-23.4l-3.01-28.75-9.36-87.58v-2.67c0-16.38,12.7-30.08,29.08-31.42,17.38-1.34,32.76,11.7,34.1,29.08h0v-.67h-.67Z"/>
          <path class="cls-18" d="M311.54,450.43l1.34,89.59c0,2.01-1.34,3.34-3.34,3.34h-57.16c-2.01,0-3.34-1.34-3.34-3.34l-.67-84.24v-2.67c0-16.38,12.7-30.08,29.08-31.42,17.38-1.34,32.76,11.7,34.1,29.08h0v-.33Z"/>
        </g>
      </g>
      <g>
        <path class="cls-1" d="M177.49,681.08c4.35,63.85,13.37,129.7,15.38,129.7l19.72-1.34,6.35-131.37,5.01-98.61v-4.01c0-1.34,0-2.67-.67-4.01-2.67-10.36-12.37-18.39-23.4-17.05-12.7,1-22.06,11.7-21.39,24.4-4.35,19.72-3.34,60.84-.67,102.62h0l-.33-.33Z"/>
        <path class="cls-20" d="M214.6,754.95l-2.67,54.49-19.72,1.34c-1.34,0-5.01-23.4-8.69-55.82h31.09Z"/>
        <path class="cls-16" d="M217.27,830.83c0,4.01-2.34,7.02-5.68,9.36-2.01,1.34-77.55,8.36-79.56,7.35-17.05-8.36,60.17-38.11,60.17-38.11l20.73.67s4.35,16.71,3.68,21.39h0v-.67h.67Z"/>
        <g>
          <path class="cls-1" d="M236.99,453.1v2.34l-8.36,87.91-2.67,28.41c-1,13.71-10.03,24.4-23.4,23.73-13.04-.67-23.07-10.7-23.73-23.73l-1-28.08-3.68-92.59c1.34-17.38,16.38-30.08,33.43-29.42,16.71,1,29.42,15.04,29.42,31.42h0Z"/>
          <path class="cls-18" d="M236.99,453.1v2.34l-2.67,84.91c0,2.01-1.34,3.01-3.01,3.01h-55.49c-2.01,0-3.01-1.34-3.01-3.01l1.34-89.59c1.34-17.38,16.38-30.08,33.43-29.42,16.71,1,29.42,15.04,29.42,31.42h0v.33Z"/>
        </g>
      </g>
      <path class="cls-20" d="M316.55,227.8l-3.68,22.06-14.04,85.24c-3.34,13.37-4.01,26.74-2.01,40.11h-106.97c5.35-15.38,6.35-31.42,3.68-47.47l-13.37-77.22-4.01-22.73,4.01-2.34,53.82-34.1h31.09l48.47,33.43,3.68,2.34h0v.67h-.67Z"/>
      <path class="cls-18" d="M311.2,459.79l-59.5,25.74h-18.05l-59.5-25.07c-2.01-17.05,1-42.79,5.68-59.5,1.34-5.01,3.01-9.69,5.01-13.71,2.01-3.68,3.34-7.35,4.35-11.7h106.97c1,6.35,2.34,12.7,4.35,18.39,2.34,7.02,5.01,16.05,6.35,26.41,2.01,10.03,5.68,25.74,3.68,39.11h.67v.33Z"/>
      <path class="cls-18" d="M276.44,200.05h0c-8.36,27.08-46.13,28.41-56.16,2.01v-1l14.04-9.03h31.09l12.03,8.36h-1v-.33Z"/>
      <g id="german-boy-smiling2">
        <path class="cls-9" d="M233.32,200.72h0c6.35,8.69,23.07,8.36,28.75,0h0c1.34-1.67,1.67-3.68,1.67-5.68v-33.09h-32.76v32.76c0,2.01.67,4.01,2.01,6.02h.33Z"/>
        <path class="cls-13" d="M320.9,110.47c-3.01,4.68-7.69,8.36-12.03,9.03h-3.68c-1.34,12.7-5.68,24.4-12.37,33.76-12.37,18.39-30.75,29.75-44.46,29.08h-3.01c-14.71,0-31.42-10.36-43.12-27.08-6.35-9.36-11.37-20.73-13.37-33.43h-1c-4.35,0-9.69-3.68-12.7-8.69-.67-.67-1-1.67-1.34-2.34-.67-1.34-1-2.34-1.34-3.34h0c-1-4.68,0-9.03,3.68-10.7h0c3.34-1.34,7.69,0,11.37,2.34,2.67-38.78,27.08-72.87,56.83-73.54,9.36,0,17.72,2.34,25.74,7.02,18.05,11.37,31.42,38.44,34.43,65.52,1.67-1.67,3.68-3.01,5.68-4.01s5.35-1.34,8.02,0c5.35,2.01,6.02,9.69,2.01,16.38h.67Z"/>
        <g>
          <path class="cls-14" d="M206.24,89.74c.67,0,1.34,0,1.67-1,5.68-11.03,15.71-6.35,16.05-6.02,1,0,2.01,0,2.67-1,0-1,0-2.01-1-2.67-4.68-2.01-15.38-3.34-21.06,8.02,0,1,0,2.01.67,2.67h1Z"/>
          <path class="cls-14" d="M265.74,81.05s1,.67,1.67,0c9.69-3.68,13.71,4.35,13.71,4.68,0,.67,1.34,1,2.01.67.67,0,1-1.34.67-2.01-1.67-4.01-8.02-10.7-17.72-6.35-.67,0-1.34,1.34-1,2.01v.67h.67v.33Z"/>
          <path class="cls-14" d="M218.28,97.76c0,3.68,2.34,7.02,5.01,7.02s5.35-3.34,5.35-7.02-2.34-7.02-5.01-7.02-5.35,3.34-5.35,7.02Z"/>
          <path class="cls-14" d="M265.74,97.76c0,3.68,2.34,7.02,5.01,7.02s5.35-3.34,5.35-7.02-2.34-7.02-5.01-7.02-5.35,3.34-5.35,7.02Z"/>
          <path class="cls-8" d="M230.98,145.57c.67.67,5.01,10.7,17.05,10.36,11.7,0,16.38-9.36,17.05-10.36"/>
          <path class="cls-7" d="M256.72,125.18c0,4.68-3.68,8.69-8.69,8.69s-8.69-3.68-8.69-8.69,3.68,4.68,8.69,4.68,8.69-9.69,8.69-4.68Z"/>
          <path class="cls-10" d="M286.8,108.13c6.69,0,12.37,5.01,12.03,11.03-.33,6.02-6.35,10.03-13.37,9.69-7.02-.33-12.37-5.01-12.03-11.03s6.35-10.03,13.37-9.69Z"/>
          <path class="cls-10" d="M208.58,108.13c6.69,0,12.37,5.01,12.03,11.03s-6.35,10.03-13.37,9.69c-7.02-.33-12.37-5.01-12.03-11.03s6.35-10.03,13.37-9.69Z"/>
        </g>
        <path class="cls-12" d="M314.55,50.3c-5.35-18.39-16.38-34.43-34.43-43.46-14.71-7.02-63.51-18.72-90.59,25.4-11.03,17.72-13.37,40.45-13.37,60.84s3.01,35.1,14.04,49.14c1.67,2.01,3.68,4.01,5.68,5.68,0,0-2.34-12.37-4.01-17.38-5.35-18.05-4.68-39.44,1-57.5,1-2.67,2.01-5.01,3.01-8.02,0-1.34,3.68-7.69,3.34-8.69,5.68,14.04,25.07,19.39,38.78,21.73-2.34-3.68-6.35-5.68-8.69-10.03-2.34-4.01-3.68-8.69-5.01-12.7,16.38,6.02,33.43,17.72,52.48,16.71-4.01-4.01-15.04-12.37-14.71-19.05,4.01,5.68,11.37,7.69,17.72,10.03,4.01,1.34,8.69,2.34,12.7,3.68,3.34,1,3.34.67,4.35,3.68,6.02,20.39,9.03,45.13,4.01,66.19,1-5.01,9.69-15.04,11.37-19.72,2.01-5.68,3.68-11.7,5.01-17.72,2.34-12.03,2.34-24.74.67-36.44-.67-4.35-1.67-9.03-2.67-13.04h-.67v.67h0Z"/>
      </g>
    </g>
  </g>
</svg>