<?xml version="1.0" encoding="UTF-8"?>
<svg id="Ebene_2" data-name="Ebene 2" xmlns="http://www.w3.org/2000/svg" viewBox="0 0 101.51 329.35">
  <defs>
    <style>
      .cls-1 {
        fill: #b8b8b8;
      }

      .cls-2 {
        fill: #d7d7d7;
      }

      .cls-3 {
        fill: #d9b6b6;
      }

      .cls-4 {
        fill: none;
        stroke: #630;
        stroke-linecap: round;
        stroke-miterlimit: 10;
      }

      .cls-5 {
        fill: #d9a2a0;
      }

      .cls-6, .cls-7 {
        fill: #d9baba;
      }

      .cls-6, .cls-8 {
        isolation: isolate;
        opacity: .5;
      }

      .cls-9 {
        fill: #f76f6f;
      }

      .cls-10 {
        fill: #d38a17;
      }

      .cls-11, .cls-8 {
        fill: #603813;
      }

      .cls-12 {
        fill: #273758;
      }

      .cls-13 {
        fill: #e0a46b;
      }

      .cls-14 {
        fill: #959595;
      }

      .cls-15 {
        fill: #466e9f;
      }

      .cls-16 {
        fill: #c69696;
      }

      .cls-17 {
        fill: #e6e6e6;
      }
    </style>
  </defs>
  <g id="Layer_1" data-name="Layer 1">
    <g id="german-boy-shovel">
      <g>
        <path class="cls-3" d="M72.82,120.55h0c-1.2,1.73-1.86,3.86-1.6,5.98l5.72,42.54,8.64-3.19-2.13-41.08c-.27-6.25-7.05-8.91-10.64-4.25h0Z"/>
        <path class="cls-3" d="M75.75,131.71h0c4.52.66,8.24-4.52,7.58-9.97l-5.72-35.1c-.8-5.58-4.92-9.04-9.31-7.98h0c-5.05,1.2-8.38,7.98-6.65,14.09l9.44,32.84c.8,2.79,2.13,5.85,4.52,6.12h.13,0Z"/>
        <path class="cls-17" d="M74.82,80.4c3.99,4.39,8.77,13.16,10.9,30.98l-17.95,6.51-1.6-6.91c-4.39-10.9-7.71-20.87-6.12-27.52,1.6-6.25,10.37-7.98,14.76-3.06h0Z"/>
        <path class="cls-3" d="M78.67,182.23l-1.6-13.96,8.64-3.19v.53c9.7,6.12,10.77,14.76,10.77,14.76,1.06,8.24-1.06,9.17-2.92,8.51-1.33-.4-2.39-1.6-2.79-2.92-2.53-6.12-9.04-11.83-9.04-11.83-.27,11.96-2.79,8.24-2.79,8.24h-.27v-.13h0Z"/>
      </g>
      <path class="cls-17" d="M78.01,142.88c-1.06-10.77-1.73-21.67-2.26-32.44l-.53-12.23c-.4-8.38-2.26-22.07-13.29-21.27-3.32-1.6-7.05-4.39-7.05-4.39l-12.1-.4-3.32,3.06-9.04,4.65c-3.32,3.06-2.79,9.7-1.99,14.09l7.05,39.48c.4,2.39.66,4.79.8,7.31.4,0,.8.27,1.06.53,13.56,5.05,26.99,5.72,40.28,1.73h.4v-.13h0Z"/>
      <g>
        <g>
          <path class="cls-3" d="M58.33,263.06c-1.6,24.86-4.92,50.65-5.72,50.65l-7.71-.53-2.66-51.18-1.99-38.42v-1.6c0-.53,0-1.06.27-1.6.93-4.12,4.79-7.05,9.17-6.78,4.39.27,7.98,3.86,8.24,8.11,0,1.2.27,2.26.4,3.46,1.33,8.24.93,22.87,0,37.89h0Z"/>
          <path class="cls-17" d="M55.94,290.44c-1.46,13.43-2.92,23.4-3.46,23.4h-7.58l-1.2-23.4h12.23Z"/>
        </g>
        <path class="cls-12" d="M43.44,323.02c0,.8.53,2.13,1.2,3.19.66,1.33,1.99,2.13,3.46,2.13h28.72c6.51-3.46-24.2-14.49-24.2-14.49h-7.58s-1.73,7.71-1.46,9.31h-.13v-.13h0Z"/>
        <g>
          <path class="cls-3" d="M49.29,230.75h0c5.05-.53,8.77-4.79,8.64-9.97l-1.06-46.93c-.93-6.78-7.05-11.43-13.83-10.5h0c-6.78.93-11.43,7.05-10.5,13.83l7.05,44.93c.66,5.18,4.52,9.17,9.7,8.64h0Z"/>
          <path class="cls-15" d="M59,216.8l-25.52.66-1.06-42.54c-.13-6.78,5.18-12.5,12.1-12.63h.66c6.78-.13,12.5,5.18,12.63,11.96l1.06,42.54h.13,0Z"/>
        </g>
      </g>
      <g>
        <g>
          <path class="cls-3" d="M81.99,263.06c-1.6,24.86-4.92,50.65-5.72,50.65l-7.71-.53-2.66-51.18-1.99-38.42v-1.6c0-.53,0-1.06.27-1.6.93-4.12,4.79-7.05,9.17-6.78s7.98,3.86,8.24,8.11c0,1.2.27,2.26.4,3.46,1.33,8.24.93,22.87,0,37.89h0Z"/>
          <path class="cls-17" d="M79.73,290.44c-1.46,13.43-2.92,23.4-3.32,23.4h-7.58l-1.2-23.4h12.23-.13Z"/>
        </g>
        <path class="cls-12" d="M67.24,323.02c0,.8.53,2.13,1.2,3.19.66,1.33,1.99,2.13,3.46,2.13h28.72c6.51-3.46-24.2-14.49-24.2-14.49h-7.58s-1.73,7.71-1.46,9.31h-.13v-.13h0Z"/>
        <g>
          <path class="cls-3" d="M73.09,230.75h0c5.05-.53,8.77-4.79,8.64-9.97l-1.06-46.93c-.93-6.78-7.05-11.43-13.83-10.5h0c-6.78.93-11.43,7.05-10.5,13.83l7.05,44.93c.66,5.18,4.52,9.17,9.7,8.64h0Z"/>
          <path class="cls-15" d="M87.31,212.94l-25.13,3.46-5.85-41.88c-.93-6.91,3.86-13.29,10.77-14.36h0c6.91-.93,13.29,3.86,14.36,10.77l5.85,41.88h0v.13Z"/>
        </g>
      </g>
      <path class="cls-15" d="M80.27,179.44v-5.45c.13-1.06,0,0,.13-.27v-13.16c-.4-3.06-.8-6.12-1.33-9.04-.13-1.99-.4-3.99-.53-5.85,0-.8-.27-1.6-.27-2.39-13.43,4.12-27.92,3.06-41.48-2.13v1.99c.27,5.85-.53,11.7-2.26,17.28-1.06,3.19-1.73,6.78-2.13,10.1-.8,9.04,1.2,15.82,1.2,15.82h0l23.8,9.04,1.2.4h.53c0,.13,21.27-8.77,21.27-8.77,0-1.99.27-3.86.4-5.72v-1.73h-.93.4v-.13Z"/>
      <g>
        <path class="cls-3" d="M30.55,122.01h0c1.33,1.46,1.99,3.86,1.73,5.85l-3.86,42.67-8.77-2.79.4-41.08c0-6.25,6.51-9.17,10.37-4.65h.13,0Z"/>
        <path class="cls-3" d="M28.15,133.31h0c-4.39.93-8.51-3.99-7.84-9.7l3.99-35.23c.4-5.58,4.39-9.31,8.91-8.51h0c5.18.93,8.64,7.58,7.18,13.83l-8.11,33.24c-.66,2.92-1.99,5.98-4.39,6.38h.27Z"/>
        <path class="cls-17" d="M26.69,81.86c-3.72,4.52-8.11,13.56-9.57,31.51l18.35,5.85,1.33-7.05c3.99-11.03,6.78-21.14,4.79-27.65-1.73-6.12-10.64-7.58-14.76-2.53h-.13v-.13Z"/>
        <path class="cls-3" d="M27.49,183.83l1.06-14.09-8.77-2.79v.53c-9.57,6.51-10.1,15.16-10.1,15.16-.53,8.38,1.6,9.04,3.32,8.38,1.2-.53,2.13-1.6,2.79-3.06,2.39-6.12,8.51-12.36,8.51-12.36.8,11.96,3.19,8.24,3.19,8.24h0Z"/>
      </g>
      <path class="cls-15" d="M59.93,79.2c0,5.32-5.72,8.91-10.64,6.51-4.92-2.26-8.11-6.91-9.84-10.64l3.32-3.06,12.1.4s2.13,1.46,4.92,3.59c.27,1.06.13,2.13.27,3.06h-.13v.13Z"/>
      <g>
        <path class="cls-10" d="M62.19,10.2c-1.06-2.92-2.79-5.72-4.92-7.71.27-.27.4-.66.66-.93-1.2-.53-2.79-1.06-4.12-1.06-7.05-.27-13.96,3.19-18.61,8.38-3.99,4.25-6.78,9.57-8.38,15.29-3.86,12.5-2.79,29.38,10.1,36.03,3.46,1.73,7.84,3.46,11.57,2.66,3.86-.8,6.78-3.86,8.64-7.44,3.46-6.65,5.58-14.89,6.78-22.2,1.06-7.58,1.06-15.69-1.73-23h0Z"/>
        <path class="cls-16" d="M50.35,77.07h0c-4.25-.13-7.44-3.72-7.31-7.84l.53-14.76,12.1.4-.66,17.95c0,2.39-2.13,4.25-4.52,4.25h-.13Z"/>
        <path class="cls-7" d="M78.27,35.73c0,1.46,0,2.92-.27,4.25,0,.93-.13,1.86-.4,2.66-.53,2.39-.93,4.52-1.86,6.65-.27.8-.53,1.46-.93,2.26-4.25,9.7-11.83,16.09-20.47,15.95-4.12,0-7.98-1.73-11.3-4.52-.8-.53-1.46-1.2-2.13-1.99-5.58-6.12-9.17-15.55-8.77-26.32.53-17.81,11.03-31.91,23.8-31.64,1.86,0,3.72.4,5.45,1.06,9.97,3.72,17.15,16.62,16.75,31.77h.13v-.13Z"/>
        <g>
          <path class="cls-11" d="M47.96,35.46c.27,0,.53,0,.66-.4,2.26-4.25,6.12-2.53,6.25-2.39.4,0,.8,0,1.06-.4,0-.4,0-.8-.4-1.06-1.86-.8-5.98-1.33-8.24,3.06,0,.4,0,.8.27,1.06h.4v.13Z"/>
          <path class="cls-11" d="M71.09,32.01s.4.27.66,0c3.72-1.46,5.32,1.73,5.32,1.86,0,.27.53.4.8.27.27,0,.4-.53.27-.8-.66-1.6-3.06-4.12-6.91-2.53-.27,0-.53.53-.4.8v.27h.27v.13Z"/>
          <path class="cls-11" d="M52.61,38.52c0,1.46.93,2.79,1.99,2.79s2.13-1.33,2.13-2.79-.93-2.79-1.99-2.79-2.13,1.33-2.13,2.79Z"/>
          <path class="cls-11" d="M71.09,38.52c0,1.46.93,2.79,1.99,2.79s2.13-1.33,2.13-2.79-.93-2.79-1.99-2.79-2.13,1.33-2.13,2.79Z"/>
          <path class="cls-4" d="M55.41,54.74c0,.27,1.06,4.25,5.05,4.92,3.86.53,5.98-1.33,6.25-1.73"/>
          <path class="cls-8" d="M66.84,45.97c1.33,1.33,1.33,3.32,0,4.65s-3.32,1.33-4.65,0,2.39.27,3.72-.93c1.33-1.33-.27-4.92,1.06-3.72h-.13,0Z"/>
          <path class="cls-5" d="M77.61,42.78c-.53,2.39-.93,4.52-1.86,6.65-.27.8-.53,1.46-.93,2.26-1.33-.93-1.99-2.66-1.86-4.25,0-2.39,2.13-4.25,4.52-4.52h.13v-.13Z"/>
          <path class="cls-5" d="M48.89,42.51c2.66,0,4.79,1.99,4.65,4.25s-2.53,3.86-5.18,3.72-4.79-1.99-4.65-4.25,2.53-3.86,5.18-3.72Z"/>
        </g>
        <path class="cls-6" d="M43.57,62.85h-.27c-.8-.53-1.46-1.2-2.13-1.99-5.58-6.12-9.17-15.55-8.77-26.19.53-17.81,11.03-31.91,23.8-31.64,1.86,0,3.72.4,5.45,1.06-10.1,7.44-28.05,27.52-18.08,58.89h0v-.13h0Z"/>
        <g>
          <path class="cls-10" d="M34.14,37.19l-3.32-7.31-3.32,5.32,1.33,15.95,10.9,7.98c-5.98-12.1-5.05-18.61-5.32-21.27v-.8h-.27v.13Z"/>
          <path class="cls-10" d="M84.52,19.38c-1.2-3.86-3.72-7.18-6.65-9.97-1.99-1.73-4.12-3.19-6.38-4.52-1.2-.93-2.39-1.73-3.59-2.39C62.59-.03,46.5-4.29,36.26,11.4c-4.25,6.25-4.92,10.1-5.32,17.55,0,0,4.52-.27,5.45,2.92,1.73,5.32-4.39,6.65,2.79,20.21.53.8,1.33,1.46,1.99,2.26,0,0-.8-4.39-1.2-6.25-1.73-6.51-1.2-14.09,1.06-20.61.27-.93.66-1.86,1.2-2.79.13-.53,1.46-2.66,1.33-3.06,1.99,5.18,8.77,7.31,13.69,8.38-.93-1.33-2.13-2.26-2.92-3.72s-1.2-3.06-1.73-4.52c5.85,2.53,11.83,6.78,18.48,6.65-1.46-1.46-5.32-4.65-5.05-7.05,1.33,1.99,3.99,2.79,6.25,3.86,1.46.53,3.06,1.06,4.52,1.46,1.99,7.44,1.2,18.61-1.86,24.99,2.79-3.19,5.18-11.83,5.58-21s1.2-3.32,2.66-4.25h0c1.06-.66,1.73-1.99,1.86-3.19,0-1.2,0-2.53-.53-3.72h0v-.13Z"/>
        </g>
        <g>
          <path class="cls-7" d="M36.13,31.34c1.33,3.99.4,7.84-2.13,8.64s-5.58-1.73-6.91-5.85-.4-7.84,2.13-8.64c2.39-.8,5.58,1.73,6.91,5.85Z"/>
          <path class="cls-6" d="M36.13,31.34c1.33,3.99.4,7.84-2.13,8.64s-5.58-1.73-6.91-5.85-.4-7.84,2.13-8.64c2.39-.8,5.58,1.73,6.91,5.85Z"/>
        </g>
      </g>
      <g id="Layer0_2_FILL" data-name="Layer0 2 FILL">
        <path class="cls-1" d="M40,280.7c-.08-1.64-.21-3.55-.41-5.73h-15.53c0,2.35-.02,4.26-.06,5.73-.33,10.64-1.6,18.27-3.8,22.88v25.76c10.59-5.31,17.06-11.6,19.4-18.87.92-9.69,1.05-19.62.41-29.78Z"/>
        <path class="cls-14" d="M.8,274.97c-1.07,12.15-1.07,23.99,0,35.51,2.34,7.27,8.81,13.56,19.39,18.87v-25.76c-2.2-4.64-3.45-12.27-3.74-22.88-.06-1.47-.09-3.38-.09-5.73H.8Z"/>
        <path class="cls-2" d="M17.51,269.15l-1.11.03-.03,5.79c0,2.35.03,4.26.09,5.73.29,10.62,1.54,18.24,3.74,22.88,2.2-4.62,3.47-12.25,3.8-22.88.04-1.47.06-3.38.06-5.73-.04-.63-.06-2.56-.06-5.79l-.96-.03c-1.83-.13-3.68-.13-5.53,0Z"/>
        <path class="cls-13" d="M23.04,180.59h-5.53v88.56c1.85-.13,3.7-.13,5.53,0v-88.56Z"/>
        <path class="cls-9" d="M9.61,145.63c-1.36.19-1.95.84-1.76,1.94,1.64,7.81,4.47,13.17,8.48,16.09v16.93h7.75v-16.93c3.98-2.91,6.81-8.22,8.48-15.93-.18-1.12-.81-1.81-1.9-2.07-7.31-1.04-14.33-1.05-21.06-.03M13.38,148.67c4.39-.5,8.89-.5,13.51,0,1.05.22,1.6.82,1.64,1.81-1.31,4.47-3.17,7.74-5.59,9.81-1.81.52-3.65.52-5.5,0-2.44-2.07-4.29-5.38-5.56-9.94-.21-.97.28-1.53,1.49-1.68Z"/>
      </g>
    </g>
  </g>
</svg>