<?xml version="1.0" encoding="UTF-8"?>
<svg id="Layer_2" data-name="Layer 2" xmlns="http://www.w3.org/2000/svg" viewBox="0 0 100.82 211.75">
  <defs>
    <style>
      .cls-1, .cls-2 {
        fill: #603813;
      }

      .cls-3 {
        fill: #273758;
      }

      .cls-4 {
        fill: #e6e6e6;
      }

      .cls-5 {
        fill: #c69696;
      }

      .cls-6 {
        fill: #d9a2a0;
      }

      .cls-7, .cls-2 {
        isolation: isolate;
        opacity: .5;
      }

      .cls-7, .cls-8 {
        fill: #d9baba;
      }

      .cls-9 {
        fill: #d9b6b6;
      }

      .cls-10 {
        fill: #466e9f;
      }

      .cls-11 {
        fill: none;
        stroke: #630;
        stroke-linecap: round;
        stroke-miterlimit: 10;
      }

      .cls-12 {
        fill: #d38a17;
      }
    </style>
  </defs>
  <g id="Layer_1-2" data-name="Layer 1">
    <g id="boy-sitting-desk">
      <g id="boy-sitting">
        <g>
          <path class="cls-9" d="M41.9,101.83h0c-3.3,1.5-7.2-1-7.6-4.9l-2-24.8c-.4-3.9,2.1-7.3,5.7-7.7h0c4.2-.4,7.8,3.4,7.7,7.9l-.8,24.8c0,2.1-1.3,3.9-3,4.8h0v-.1h0Z"/>
          <path class="cls-4" d="M32.7,65.63c-1.1,3.5-2.2,9.9-.5,19.6.2,1,1.1,1.6,2.1,1.4,2.6-.5,7.6-1.1,10.9.6,1,.5,2.2-.2,2.2-1.3,0-6.7-.5-22.6-7.7-24.5-3-.8-6,1.2-7,4.1h0s0,.05,0,0v.1h0Z"/>
          <path class="cls-9" d="M35.9,93.53h0c1.1-.9,2.5-1.3,3.8-.9l27,6.9-2.1,6.8-26.2-4c-4-.6-5.6-6.1-2.5-8.8h0Z"/>
          <path class="cls-9" d="M71.4,110.13l-7.9-4.6,2.9-6.3h.5c8.3-3.4,13.2-.5,13.2-.5,4.7,2.7,4,4.3,2.7,5.2-.9.6-2,.7-3,.5-4.4-.9-10.9.6-10.9.6,5.9,4.9,2.6,5,2.6,5h-.1v.1h0Z"/>
        </g>
        <path class="cls-4" d="M49.2,125.43c-5.6,2.4-11.8,3.6-18,3.6s-8.8-.6-13-1.9l-5.6-1.6s-.6-9.5,1.6-16.3c1.8-5.6,1.8-11.4.4-17.1l-6.3-25.3c-.7-2.9.3-5.8,2.7-7.9l3.3-2.9h0l4-3.7h9.1s2.5,1.3,5.5,3.4c.7.5,1.4,1,2.1,1.5,3.9,3,8,7.1,8.4,11.1l.7,7.9c1,10.8,2.3,21.5,4.6,32.1.8,3.7,1,8.1.5,17h0s0,.05,0,0v.1h0Z"/>
        <path class="cls-10" d="M33,55.93c-.1,1.2-.5,2.2-1,3.1-1.2,2-3.5,3.1-5.8,3.1-5.7.1-9.5-2.7-11.9-6h0l4-3.7h9.1s2.5,1.3,5.5,3.4h.1s0,.05,0,0v.1h0Z"/>
        <path class="cls-10" d="M12.5,119.33s-7.7,28,10.3,28.6l24.9-.5,1.7-28.2c-7.7,1.3-21.2,1.6-36.9,0h0v.1Z"/>
        <g>
          <path class="cls-5" d="M24.4,58.23h0c-3.3,0-5.9-2.6-5.9-5.9v-10.9h9.1v13.6c0,1.8-1.4,3.2-3.2,3.2h0Z"/>
          <path class="cls-12" d="M29.4,7.43c-.9-2.2-2.2-4.2-3.9-5.7.2-.2.3-.5.5-.7-.9-.4-2.1-.7-3.1-.7-5.3,0-10.4,2.8-13.9,6.7-2.9,3.3-4.8,7.4-6,11.7-2.6,9.5-1.4,22.2,8.4,26.9,2.6,1.2,6,2.4,8.8,1.7,2.9-.7,5-3.1,6.3-5.8,2.5-5.1,3.9-11.3,4.5-16.9.7-5.7.4-11.8-1.8-17.2h.2Z"/>
          <path class="cls-8" d="M42.1,26.23c0,1.1,0,2.2-.1,3.2,0,.7-.1,1.4-.2,2-.3,1.7-.7,3.4-1.2,5-.2.6-.4,1.1-.6,1.6-2.9,7.4-8.6,12.4-15,12.4s-6-1.1-8.6-3.1c-.6-.4-1.1-.9-1.6-1.4-4.4-4.4-7.2-11.5-7.3-19.6C7.5,12.93,15.1,2.03,24.7,2.03s2.8.2,4.1.7c7.6,2.5,13.3,12.1,13.3,23.5h0Z"/>
          <g>
            <path class="cls-1" d="M19.6,25.93c.2,0,.4,0,.5-.3,1.7-3.2,4.6-1.9,4.7-1.8.3,0,.6,0,.8-.3,0-.3,0-.6-.3-.8-1.4-.6-4.5-1-6.2,2.3,0,.3,0,.6.2.8h.3v.1Z"/>
            <path class="cls-1" d="M37,23.33s.3.2.5,0c2.8-1.1,4,1.3,4,1.4,0,.2.4.3.6.2.2,0,.3-.4.2-.6-.5-1.2-2.3-3.1-5.2-1.9-.2,0-.4.4-.3.6v.2h.2v.1h0Z"/>
            <path class="cls-1" d="M23.1,28.23c0,1.1.7,2.1,1.5,2.1s1.6-1,1.6-2.1-.7-2.1-1.5-2.1-1.6,1-1.6,2.1Z"/>
            <path class="cls-1" d="M37,28.23c0,1.1.7,2.1,1.5,2.1s1.6-1,1.6-2.1-.7-2.1-1.5-2.1-1.6,1-1.6,2.1Z"/>
            <path class="cls-11" d="M25.2,40.43c0,.2.8,3.2,3.8,3.7,2.9.4,4.5-1,4.7-1.3"/>
            <path class="cls-2" d="M33.8,33.83c1,1,1,2.5,0,3.5s-2.5,1-3.5,0,1.8.2,2.8-.7c1-1-.2-3.7.8-2.8h-.1,0Z"/>
            <path class="cls-6" d="M41.9,31.43c-.4,1.8-.7,3.4-1.4,5-.2.6-.4,1.1-.7,1.7-1-.7-1.5-2-1.4-3.2,0-1.8,1.6-3.2,3.4-3.4h.1v-.1Z"/>
            <path class="cls-6" d="M20.3,31.23c2,0,3.6,1.5,3.5,3.2s-1.9,2.9-3.9,2.8-3.6-1.5-3.5-3.2,1.9-2.9,3.9-2.8Z"/>
          </g>
          <path class="cls-7" d="M16.6,47.43h-.2c-.6-.4-1.1-.9-1.6-1.4-4.4-4.4-7.2-11.5-7.3-19.6C7.5,13.03,15.1,2.13,24.7,2.13s2.8.2,4.1.7c-7.4,5.9-20.5,21.3-12.2,44.7h0s0-.05,0,0v-.1h0Z"/>
          <path class="cls-12" d="M8.9,28.33l-2.7-5.4-2.4,4.1,1.3,12,8.4,5.8c-4.7-8.9-4.3-13.9-4.6-15.9v-.5h0v-.1h0Z"/>
          <path class="cls-12" d="M46.4,13.83c-1-2.9-2.9-5.3-5.2-7.3-1.5-1.2-3.2-2.3-4.9-3.2-.9-.7-1.8-1.2-2.8-1.7C29.5-.17,17.3-2.97,9.8,9.03c-3,4.8-3.5,7.7-3.5,13.2,0,0,3.4-.3,4.2,2.1,1.4,4-3.1,5.1,2.5,15.1.4.6,1,1.1,1.6,1.6,0,0-.7-3.3-1.1-4.7-1.5-4.9-1.3-10.6.3-15.5.2-.7.5-1.4.8-2.1.1-.4,1-2,.9-2.3,1.6,3.8,6.7,5.3,10.5,5.9-.7-1-1.7-1.6-2.3-2.7-.6-1.1-1-2.3-1.4-3.4,4.5,1.7,9,4.8,14.1,4.6-1.1-1.1-4-3.4-4-5.2,1.1,1.6,3.1,2.1,4.8,2.7,1.1.4,2.3.7,3.4,1,1.6,5.5,1.3,14-.8,18.8,2-2.5,3.7-8.9,3.6-15.9,0-1.4.8-2.5,1.9-3.3h0c.8-.5,1.2-1.5,1.3-2.4,0-.9-.1-1.9-.4-2.8h.2v.1h0Z"/>
          <g>
            <path class="cls-8" d="M10.2,23.93c1.1,3,.4,5.9-1.4,6.6s-4.2-1.2-5.3-4.2-.4-5.9,1.4-6.6c1.8-.7,4.2,1.2,5.3,4.2Z"/>
            <path class="cls-7" d="M10.2,23.93c1.1,3,.4,5.9-1.4,6.6s-4.2-1.2-5.3-4.2-.4-5.9,1.4-6.6c1.8-.7,4.2,1.2,5.3,4.2Z"/>
          </g>
        </g>
        <g>
          <g>
            <path class="cls-9" d="M86.2,164.83c-1.2,16.1-3.6,33-4.2,32.9l-5.8-.4-2.1-33.4-1.6-25.1v-1.1c0-.3,0-.7.2-1,.7-2.6,3.6-4.5,6.9-4.3s6,2.6,6.2,5.4c0,.7.2,1.5.3,2.2,1,5.4.8,14.9,0,24.7h.1v.1Z"/>
            <path class="cls-4" d="M84.5,182.43c-1.1,8.8-2.1,15.3-2.5,15.3l-5.8-.4-.9-14.9h9.2,0Z"/>
          </g>
          <path class="cls-3" d="M75.2,202.63c.1,1,.7,1.9,1.6,2.4.6.4,22.7,2.1,23.3,1.9,5-2-17.6-9.7-17.6-9.7h-6.1c0,.1-1.3,4.4-1.1,5.5h-.1s0-.05,0,0v-.1h0Z"/>
          <g>
            <path class="cls-9" d="M86.5,140.53c-.5,3.9-4,6-8,5.6l-14-1.1-20.1-1.6h-.3c-4.9-.7-8.5-5.2-8-10.1.5-5.1,5-8.8,10-8.3l20.6,4.5,14,3c3.7.8,6.2,4.3,5.8,8.1h0s0-.05,0,0v-.1h0Z"/>
            <path class="cls-10" d="M66.6,129.33c-3.9,4.8-4.3,10.1-2.2,15.6l-20.1-1.6h-.3c-4.9-.7-8.5-5.2-8-10.1.5-5.1,5-8.8,10-8.3l20.6,4.5h0s0-.05,0,0v-.1h0Z"/>
          </g>
        </g>
        <g>
          <g>
            <path class="cls-9" d="M64.8,169.63c-1.2,16.1-3.6,33-4.2,32.9l-5.8-.4-2.1-33.4-1.6-25.1v-1.1c0-.3,0-.7.2-1,.7-2.6,3.6-4.5,6.9-4.3s6,2.6,6.2,5.4c0,.7.2,1.5.3,2.2,1,5.4.8,14.9,0,24.7h.1v.1Z"/>
            <path class="cls-4" d="M63.1,187.53c-1,8.6-2.1,15-2.5,15l-5.8-.4-.9-14.6h9.2,0Z"/>
          </g>
          <path class="cls-3" d="M53.9,207.43c.1,1,.7,1.9,1.6,2.4.6.4,22.7,2.1,23.3,1.9,5-2-17.6-9.7-17.6-9.7h-6.1c0,.1-1.3,4.4-1.1,5.5h-.1s0-.05,0,0v-.1h0Z"/>
          <g>
            <path class="cls-9" d="M65.1,145.23c-.5,3.9-4,6-8,5.6l-14-1.1-20.1-1.6h-.3c-4.9-.7-8.5-5.2-8-10.1.5-5.1,5-8.8,10-8.3l20.6,4.5,14,3c3.7.8,6.2,4.3,5.8,8.1h0s0-.05,0,0v-.1h0Z"/>
            <path class="cls-10" d="M45.3,134.13c-3.8,5.2-4.8,10.4-2.2,15.6l-20.1-1.6h-.3c-4.9-.7-8.5-5.2-8-10.1.5-5.1,5-8.8,10-8.3l20.6,4.5h0s0-.05,0,0v-.1h0Z"/>
          </g>
        </g>
        <g>
          <path class="cls-9" d="M8.7,106.63h0c-3.4,1.2-7-1.6-7.1-5.5v-24.9c0-3.9,2.9-7.1,6.5-7.2h0c4.2,0,7.5,4,7,8.5l-2.9,24.6c-.3,2.1-1.6,3.8-3.4,4.5h-.1Z"/>
          <path class="cls-4" d="M5.4,62.93c-2,3.3-4.7,9.7-5.4,20.4,0,.7.5,1.4,1.2,1.5,2.5.2,8.2,1,11.1,4,.7.7,1.9.4,2.2-.6,1.8-6.7,5.4-23.5-1.2-27.5-2.7-1.6-6.1-.5-7.8,2.3h-.1s0-.05,0,0v-.1h0Z"/>
          <path class="cls-9" d="M4,97.73h0c1.2-.8,2.6-.9,3.9-.4l25.9,10.3-3,6.5-25.4-7.3c-3.9-1.1-4.8-6.7-1.4-9h0v-.1Z"/>
          <path class="cls-9" d="M37,118.83l-7.3-5.5,3.9-6,.2.2c8.7-2.3,13.1,1.2,13.1,1.2,4.3,3.3,3.4,4.8,2,5.5s-2.1.5-3.1.1c-4.3-1.5-10.9-.8-10.9-.8,5.2,5.6,2,5.3,2,5.3h.1,0Z"/>
        </g>
      </g>
    </g>
  </g>
</svg>