<?xml version="1.0" encoding="UTF-8"?>
<svg id="Layer_2" data-name="Layer 2" xmlns="http://www.w3.org/2000/svg" viewBox="0 0 58.04 251.33">
  <defs>
    <style>
      .cls-1 {
        fill: #603813;
      }

      .cls-2 {
        fill: #273758;
      }

      .cls-3 {
        fill: #e6e6e6;
      }

      .cls-4 {
        fill: #c69696;
      }

      .cls-5 {
        fill: #d9a2a0;
      }

      .cls-6 {
        isolation: isolate;
        opacity: .5;
      }

      .cls-6, .cls-7 {
        fill: #d9baba;
      }

      .cls-8 {
        fill: #8b2b0e;
      }

      .cls-9 {
        fill: #3f6138;
      }

      .cls-10 {
        fill: #d9b6b6;
      }

      .cls-11 {
        fill: none;
        stroke: #630;
        stroke-linecap: round;
        stroke-miterlimit: 10;
      }
    </style>
  </defs>
  <g id="Layer_1-2" data-name="Layer 1">
    <g id="girl-side">
      <g>
        <path class="cls-8" d="M33.96,43.03c1.3-2.3,3.6-2.6,5.5-1.8.1-.3.2-.6.4-.8,2.7-5.6,0-11.2.5-17.1.1-1.4.7-2.4,1.6-3.1-1.9-.6-4.5,0-6.1-.2-7.4-.3-14.8.2-22.2,1.1-2.3.3-3.7-.6-4.6,2.7-.6,2.1-1,2.9-1,2.9-2.3,4-6.1,6.4-7.5,11.5-1.1,4.1-.6,9.2,1.8,12.1,0-1.6.2-3.7.5-5.1,1.6,1.2,2.7,3.6,4.3,5s3.4,2.6,5.2,3.3c.2-1.4-.3-3.3,0-4.5,1.3,3.2,4.5,4.6,6.9,6,0-1.9-.5-4.3,1.1-3.2.4.3,1,1.6,1.5,2s1.1.8,1.7,1.1c1.8,1.1,2.6,1.4,4.3,0,1-.9,2.1-2,3-3.2.8-3,1.6-6,3.2-8.7h-.1,0Z"/>
        <rect class="cls-4" x="18.07" y="50.77" width="14.9" height="8.6" transform="translate(-32.44 73.08) rotate(-82.4)"/>
        <path class="cls-7" d="M49.26,32.23c-.2,0-.4,0-.6-.2-.2,0-.3-.2-.4-.3,0-.9.1-1.9.1-2.9,0-10.5-4.9-19.5-11.9-22.8-1.9-.9-3.8-1.4-5.9-1.4-9.8,0-17.8,10.8-17.8,24.2s8,24.2,17.8,24.2.5,0,.8,0c6.3-.4,11.8-5.2,14.7-12.3.2-.4.3-.8.5-1.2.4-1,.7-2.1,1-3.2h.8c1.2,0,1.9-.9,2.1-1.8.2-1-.3-2-1.3-2.4h0l.1.1h0Z"/>
        <path class="cls-6" d="M31.46,52.93h-.8c-9.8,0-17.8-10.8-17.8-24.2S20.86,4.53,30.66,4.53s4.1.5,5.9,1.4c-5.2,10-16.9,35-5.1,47h0Z"/>
        <g>
          <path class="cls-11" d="M38.66,41.53c.2.2,1.5,3.1,5,3"/>
          <path class="cls-1" d="M37.66,27.03c.2,0,.4,0,.5-.3,1.7-3.2,4.6-1.9,4.7-1.8.3,0,.6,0,.8-.3,0-.3,0-.6-.3-.8-1.4-.6-4.5-1-6.2,2.3,0,.3,0,.6.2.8h.3v.1Z"/>
          <path class="cls-1" d="M41.16,29.33c0,1.1.7,2.1,1.5,2.1s1.6-1,1.6-2.1-.7-2.1-1.5-2.1-1.6,1-1.6,2.1Z"/>
          <path class="cls-5" d="M35.46,31.93c2,0,3.6,1.5,3.5,3.2s-1.9,2.9-3.9,2.8-3.6-1.5-3.5-3.2,1.9-2.9,3.9-2.8Z"/>
        </g>
        <path class="cls-8" d="M51.16,10.13c-2-4.2-5.5-6.2-9.7-7.4C35.86,1.13,30.86-.47,24.96.13,15.46,1.13,8.06,8.73,5.86,16.33c-5.7,19.8,4.3,26,5.7,27.6.7.9,10.3,6,10.3,6-.3.6.3-3.9.2-4.6-.3-2.5.8-10.9,1.1-15.6,0-1.4,1.2-2.6,2.6-2.7,3.5,0,8.3-2.2,9.8-3.8-.7,1.5-2.1,2.9-3.2,4.2,3.8-1.6,7-5.4,9.7-8.2-.4,1.8.2,3.7-.6,5.4,2.4-2.3,3.1-5.5,4.4-8.3.6,1.5.8,3.3,1.2,4.9.6,2.4,1.6,5.1,3.1,7.1,1.4-2.8,3.4-12.8.8-18.1h.2v-.1Z"/>
        <path class="cls-7" d="M25.36,31.63c1.1,2.7.3,5.7-1.9,6.6s-4.9-.6-6-3.3-.3-5.7,1.9-6.6,4.9.6,6,3.3Z"/>
        <path class="cls-6" d="M25.36,31.63c1.1,2.7.3,5.7-1.9,6.6s-4.9-.6-6-3.3-.3-5.7,1.9-6.6,4.9.6,6,3.3Z"/>
      </g>
      <g>
        <path class="cls-10" d="M43.36,201.33c-1.2,18.7-3.7,38.1-4.3,38.1l-5.8-.4-2-38.5-1.5-28.9v-1.2c0-.4,0-.8.2-1.2.7-3.1,3.6-5.3,6.9-5.1,3.3.2,6,2.9,6.2,6.1,0,.9.2,1.7.3,2.6,1,6.2.7,17.2,0,28.5h0Z"/>
        <path class="cls-2" d="M32.26,246.43c0,.6.4,1.6.9,2.4.5,1,1.5,1.6,2.6,1.6h21.6c4.9-2.6-18.2-10.9-18.2-10.9h-5.7s-1.3,5.8-1.1,7h-.1v-.1Z"/>
        <path class="cls-10" d="M36.66,177.03h0c3.8-.4,6.6-3.6,6.5-7.5l-.8-35.3c-.7-5.1-5.3-8.6-10.4-7.9h0c-5.1.7-8.6,5.3-7.9,10.4l5.3,33.8c.5,3.9,3.4,6.9,7.3,6.5h0Z"/>
      </g>
      <g>
        <path class="cls-10" d="M32.06,202.23c-1.2,18.7-3.7,38.1-4.3,38.1l-5.8-.4-2-38.5-1.5-28.9v-1.2c0-.4,0-.8.2-1.2.7-3.1,3.6-5.3,6.9-5.1,3.3.2,6,2.9,6.2,6.1,0,.9.2,1.7.3,2.6,1,6.2.7,17.2,0,28.5h0Z"/>
        <path class="cls-2" d="M20.96,247.33c0,.6.4,1.6.9,2.4.5,1,1.5,1.6,2.6,1.6h21.6c4.9-2.6-18.2-10.9-18.2-10.9h-5.7s-1.3,5.8-1.1,7h-.1v-.1Z"/>
        <path class="cls-10" d="M25.36,177.93h0c3.8-.4,6.6-3.6,6.5-7.5l-.8-35.3c-.7-5.1-5.3-8.6-10.4-7.9h0c-5.1.7-8.6,5.3-7.9,10.4l5.3,33.8c.5,3.9,3.4,6.9,7.3,6.5h0Z"/>
      </g>
      <path class="cls-9" d="M17.56,106.73s-10,29.2-9.8,57c0,2.1,1.3,4,3.1,4.5,7.8,2.3,29.2,7.3,41.5-.4,2.2-1.4,3.4-4.2,3-7.1-1.3-10.8-6.2-39.4-11.3-53.9-9,4.3-17.1,4-26.4-.2h-.1v.1Z"/>
      <path class="cls-3" d="M43.96,107.93c-.2-20.5-4.9-34.1-8.7-41.6-.5-.9-.9-1.8-1.4-2.6-1.7-3-4.3-5.3-7.5-6.6l-4.2-1.7-.9-.4c-11,14.4-3.3,49.8-2.6,53,8.3,2.7,17.3,2.8,25.4,0h-.1v-.1h0Z"/>
      <g>
        <path class="cls-10" d="M24.46,93.03h0c1.2,1,1.9,2.5,2.1,4.2l2.3,32.1-6.9-1-4.6-30.6c-.7-4.7,3.8-7.6,7.2-4.7h-.1Z"/>
        <path class="cls-10" d="M23.96,101.73h0c-3.2,1.2-6.8-2-7.1-6.2l-1.2-26.6c-.3-4.2,2.2-7.5,5.7-7.4h0c4,.1,7.4,4.6,7.1,9.4l-2,25.7c-.1,2.2-.7,4.6-2.5,5.2h0v-.1h0Z"/>
        <path class="cls-3" d="M16.76,63.73c-2.2,3.8-4.4,11-3.3,24.5l14.3,2.1.2-5.4c1.6-8.7,2.4-16.6.3-21.1-2.1-4.4-8.8-4.3-11.3,0h-.2v-.1Z"/>
        <path class="cls-10" d="M29.56,139.33l-.9-10.6-6.9-1v.4c-6.3,6-5.7,12.5-5.7,12.5.5,6.2,2.2,6.6,3.5,5.9.9-.5,1.4-1.5,1.7-2.6,1-4.9,4.8-10.2,4.8-10.2,2,8.8,3.4,5.7,3.4,5.7h0l.1-.1h0Z"/>
      </g>
    </g>
  </g>
</svg>