<?xml version="1.0" encoding="UTF-8"?>
<svg id="Layer_2" data-name="Layer 2" xmlns="http://www.w3.org/2000/svg" viewBox="0 0 120.8 253.58">
  <defs>
    <style>
      .cls-1, .cls-2 {
        fill: #603813;
      }

      .cls-3 {
        fill: #273758;
      }

      .cls-4 {
        fill: #e6e6e6;
      }

      .cls-5 {
        fill: #e7f4fc;
      }

      .cls-6 {
        fill: #c9c969;
      }

      .cls-7 {
        fill: #d9a2a0;
      }

      .cls-8 {
        fill: #d4ecf6;
      }

      .cls-9 {
        fill: #c4e5f3;
      }

      .cls-10 {
        fill: #9fcce3;
      }

      .cls-11 {
        fill: #b5b947;
      }

      .cls-12 {
        fill: #caa1a2;
      }

      .cls-13 {
        fill: #bec34b;
      }

      .cls-14 {
        fill: #d8d770;
      }

      .cls-15 {
        fill: #9ba144;
      }

      .cls-2 {
        isolation: isolate;
        opacity: .5;
      }

      .cls-16 {
        fill: #d9b6b6;
      }

      .cls-17 {
        fill: #466e9f;
      }

      .cls-18 {
        fill: #d9baba;
      }

      .cls-19 {
        fill: none;
        stroke: #630;
        stroke-linecap: round;
        stroke-miterlimit: 10;
      }

      .cls-20 {
        fill: #d38a17;
      }
    </style>
  </defs>
  <g id="Layer_1-2" data-name="Layer 1">
    <g id="german-boy-vinegar">
      <g>
        <path class="cls-16" d="M45.37,108.45h0c-3.5,0-5.9-4.1-4.9-8.3l7.3-26.2c1-4.2,4.5-6.5,7.8-5.4h0c3.8,1.3,5.7,6.8,3.9,11.4l-10,24.3c-.8,2.1-2.1,4.2-4,4.2h-.1Z"/>
        <path class="cls-4" d="M50.27,69.25c-3.3,3-7.7,9.4-10.9,22.8l13.2,6.5,1.9-5.2c4.2-7.9,7.6-15.3,6.8-20.4-.6-4.9-7.3-6.9-11-3.6h0v-.1Z"/>
        <g>
          <path id="hand12" class="cls-18" d="M11.68,113.93l-5.37-.4c-1.11,0-4.07.3-4.91,1.1-1.11,1,1.3,1.4,6.3,2l-5.37,6.3s-2.69,4.7,1.57,3.4c0,0-1.76,5.5,2.5,3.2,0,0-1.11,5,3.89,1.2l4.44-4.1c1.48-1.4,2.59-3.4,2.87-5.5.28-2.1,0-4.5-2.59-6.1-.93-.6-2.13-.9-3.24-1h-.09v-.1Z"/>
          <path class="cls-16" d="M45.11,101.13h0c-1.39-.5-2.96-.5-4.35,0l-27.78,13.6,3.98,5.6,27.5-10.7c4.26-1.7,4.72-7.1.74-8.7h0v.2h-.09Z"/>
          <g>
            <path class="cls-8" d="M.15,105.68s-.06.02-.06.06c-.12.93.08,1.93.19,2.85.12,1.01.27,2.02.44,3.02.38,2.3.84,4.58,1.3,6.86.86,4.23,1.74,8.47,2.15,12.78,0,.04.05.05.08.04.2,3.11.09,6.2-.53,9.19-.16.76-.35,1.51-.58,2.26-.05,0-.11,0-.16.01-.04,0-.06.06-.03.09-.27.03-.53.09-.77.2-.76.36-1.18,1.66-1.06,2.73.07.63.33,1.17.81,1.41.16.08.35.14.55.19-.14.46-.2.8-.3,1.27-.3,1.3-.15.18-.16,1.44,2.75,2.39,7.32,1.82,8.67.85.2-.87-.07.93,0,0,.07-.88.22-1.73.16-2.62,0,0,.02,0,.03,0,.22.01.45.02.66-.06.94-.33,1.22-1.89,1.17-2.75-.03-.54-.27-1.09-.72-1.38.03-.02.03-.07,0-.09-.24-.13-.49-.24-.75-.33-.27-4.28.6-8.51,1.99-12.65,1.38-4.1,3.27-8.11,5.11-11.99,2.13-4.51,4.24-9.26,5.42-14.1.92-3.77,1.27-7.59.64-11.37.02,0,.05-.03.04-.06-.12-1.09-.4-2.28-.96-3.26-.15-.3-.33-.58-.55-.83-.42-.49-.95-.84-1.54-1.09-.68-.34-1.43-.56-2.16-.73-1.91-.44-3.88-.7-5.83-.87-1.82-.16-3.8-.42-5.65-.29-1.19-.03-2.38.11-3.33.79-.61.44-1.06,1.06-1.44,1.72-.09.16-.18.32-.26.49C.16,94.45-.3,100.03.15,105.68Z"/>
            <path class="cls-6" d="M4.33,113.65c.02.09.04.18.06.27h0c0,.05,0,.11.04.16.33.63,2.87,1.39,6.01,1.76s5.79.23,6.26-.31c.04-.05.06-.1.07-.15h0c.04-.09.08-.17.12-.25,1-2.12,2-4.31,2.83-6.55,1.72-4.65,2.72-9.48,1.56-14.22-.17-.7-.4-1.41-.87-1.95-.79-.92-2.08-1.18-3.27-1.34-1.23-.17-6.18-.76-7.42-.88-1.2-.12-2.52-.16-3.5.54-.59.42-.98,1.05-1.3,1.69-.3.59-.57,1.2-.8,1.81-2.27,6.03-1.11,12.99.23,19.41Z"/>
            <path class="cls-9" d="M2.95,142.85s.01,0,.02.01c1.42.46,3.1.41,4.58.55,1.48.14,2.97.28,4.4.73.02,0,.04,0,.05,0,.03-.02.03-.07,0-.09-.24-.13-.49-.24-.75-.33-.27-4.28.6-8.51,1.99-12.65-2.29,3.18-5.03,6.04-8.14,8.44-.44.34-.9.68-1.37.99-.16.76-.35,1.51-.58,2.26-.05,0-.11,0-.16.01-.04,0-.06.06-.03.09Z"/>
            <path class="cls-10" d="M7.91,143.16c-1.54-.16-3.21-.5-4.77-.41-.05,0-.11,0-.16.01-.04,0-.06.06-.03.09,0,0,.01,0,.02.01,1.42.46,3.1.41,4.58.55,1.48.14,2.97.28,4.4.73.02,0,.04,0,.05,0,.03-.02.03-.07,0-.09-.24-.13-.49-.24-.75-.33-1.06-.37-2.24-.45-3.33-.56Z"/>
            <path class="cls-9" d="M16.07,89.14c2.48.8,4.92,2.11,6.34,4.3,1.16,1.78,1.53,3.96,1.62,6.09.08,1.82-.03,3.63-.26,5.44.92-3.77,1.27-7.59.64-11.37.02,0,.05-.03.04-.06-.12-1.09-.4-2.28-.96-3.26-.12-.21-.25-.41-.4-.6-.45-.58-1.04-1-1.69-1.32-.68-.34-1.43-.56-2.16-.73-1.91-.44-3.88-.7-5.83-.87-1.82-.16-3.8-.42-5.65-.29-1.19-.03-2.38.11-3.33.79-.61.44-1.06,1.06-1.44,1.72,4.25-1.21,8.87-1.19,13.08.16Z"/>
            <path class="cls-10" d="M24.44,93.54c-.12-1.09-.4-2.28-.96-3.26-.12-.21-.25-.41-.4-.6-.45-.58-1.04-1-1.69-1.32-.68-.34-1.43-.56-2.16-.73-1.91-.44-3.88-.7-5.83-.87-1.82-.16-3.8-.42-5.65-.29-.18.01-.36.03-.53.05-.08,0-.08.13,0,.14,1.74.31,3.61.19,5.37.33.35.03.69.06,1.04.09.79.08,1.57.17,2.36.28.65.09,1.3.2,1.95.31,1.62.29,3.44.66,4.65,1.88,1.08,1.1,1.25,2.62,1.75,4.01,0,.02.03.03.05.03.02,0,.05-.03.04-.06Z"/>
            <path class="cls-13" d="M7.62,94.09c3.48.24,7.01,1.59,9.21,4.29,1.21,1.49,1.96,3.31,2.42,5.18.4,1.63.58,3.35.45,5.02,1.72-4.65,2.72-9.48,1.56-14.22-.17-.7-.4-1.41-.87-1.95-.79-.92-2.08-1.18-3.27-1.34-1.23-.17-6.18-.76-7.42-.88-1.2-.12-2.52-.16-3.5.54-.59.42-.98,1.05-1.3,1.69-.3.59-.57,1.2-.8,1.81,1.16-.19,2.35-.22,3.53-.14Z"/>
            <path class="cls-15" d="M15.16,94.18c-2.41-.01-4.76-.28-7.11-.83-.02,0-.03.03,0,.03,2.27.84,4.71,1.16,7.12.92.06,0,.07-.12,0-.12Z"/>
            <path class="cls-15" d="M14.96,91.64c-2.5-.45-5.22-.57-7.72-.06-.11.02-.09.19.03.18,2.08-.19,4.12-.33,6.21-.09.96.11,1.91.28,2.85.51.72.18,2.88.68,2.85,1.68,0,.06.08.07.09.01.27-1.5-3.32-2.06-4.31-2.23Z"/>
            <path class="cls-11" d="M10.71,113.47c-3.41-.4-6.24-.2-6.32.45h0c0,.05,0,.11.04.16.33.63,2.87,1.39,6.01,1.76s5.79.23,6.26-.31c.04-.05.06-.1.07-.15h0c.07-.66-2.63-1.51-6.05-1.92Z"/>
            <path class="cls-5" d="M13.71,118.5c-2.25.46-3.62,4.52-4.24,6.54-.41,1.33-.76,2.88-.35,4.24.05.16.11.32.18.46-.7.12-1.27.68-1.36,1.42-.11.9.54,1.71,1.43,1.82s1.71-.54,1.82-1.43c.04-.32-.02-.63-.15-.9.17-.07.35-.19.54-.35.66-.59.66-1.37.83-2.21.28-1.38.83-2.65,1.48-3.88.67-1.26,1.49-2.55,1.45-3.99-.03-.97-.63-1.92-1.62-1.72Z"/>
            <path class="cls-14" d="M4.28,97.82c-.06.62.3,1.19.85,1.41-.42.5-.61,1.23-.74,1.83-.64,3.02-.66,6.25.49,9.12.36.89,1.36,1.93,2.35,1.2.77-.56,1-1.7.91-2.59-.1-.96-.51-1.86-.77-2.84-.32-1.2-.3-2.45-.24-3.69.05-.98.11-2-.28-2.9-.07-.16-.16-.29-.27-.39.24-.22.4-.52.44-.87.08-.76-.47-1.43-1.23-1.51-.76-.08-1.43.47-1.51,1.23Z"/>
            <path class="cls-15" d="M15.42,110.47c-.38-.1-.75.1-.89.46-.13.34,0,.76.31.95.06.04.14-.05.07-.09-.25-.16-.36-.47-.27-.76.09-.28.36-.35.62-.3.26.05.49.26.45.54-.04.28-.31.5-.59.48-.21-.02-.25.31-.04.33.44.04.86-.27.94-.71.08-.42-.21-.79-.61-.9Z"/>
            <path class="cls-15" d="M10.43,97.7c-.38-.1-.75.1-.89.46-.13.34,0,.76.31.95.06.04.14-.05.07-.09-.25-.16-.36-.47-.27-.76.09-.28.36-.35.62-.3.26.05.49.26.45.54-.04.28-.31.5-.59.48-.21-.02-.25.31-.04.33.44.04.86-.27.94-.71.08-.42-.21-.79-.61-.9Z"/>
            <path class="cls-15" d="M19.31,98.05c-.13-.08-.18-.24-.14-.38.04-.14.18-.18.31-.15.13.02.25.13.22.27-.02.14-.15.25-.29.24-.11,0-.13.15-.02.16.22.02.43-.14.47-.36.04-.21-.11-.39-.3-.45-.19-.05-.37.05-.44.23-.07.17,0,.38.16.48.03.02.07-.03.04-.05Z"/>
            <path class="cls-15" d="M3.84,100.82c-.19-.05-.37.05-.44.23-.07.17,0,.38.16.48.03.02.07-.03.04-.05-.13-.08-.18-.24-.14-.38.04-.14.18-.18.31-.15.13.02.25.13.22.27-.02.14-.15.25-.29.24-.11,0-.13.15-.02.16.22.02.43-.14.47-.36.04-.21-.11-.39-.3-.45Z"/>
          </g>
        </g>
      </g>
      <g>
        <path class="cls-16" d="M97.07,100.33h0c-.8,1.3-1.1,3-.7,4.7l7.8,31.9,6.4-3.1-5.1-31.1c-.8-4.8-6-6.2-8.5-2.3h0l.1-.1Z"/>
        <path class="cls-16" d="M100.37,108.45h0c3.5,0,5.9-4.1,4.9-8.3l-7.3-26.2c-1-4.2-4.5-6.5-7.8-5.4h0c-3.8,1.3-5.7,6.8-3.9,11.4l10,24.3c.8,2.1,2.1,4.2,4,4.2h.1Z"/>
        <path class="cls-4" d="M95.27,69.25c3.3,3,7.7,9.4,10.9,22.8l-13.2,6.5-1.9-5.2c-4.2-7.9-7.6-15.3-6.8-20.4.6-4.9,7.3-6.9,11-3.6h0v-.1Z"/>
        <path class="cls-16" d="M106.88,146.93l-2.5-10.5,6.4-3.1v.4c7.9,3.9,9.4,10.3,9.4,10.3,1.5,6.2,0,7-1.6,6.7-1-.2-1.9-1-2.5-2-2.5-4.5-7.8-8.4-7.8-8.4.8,9.1-1.6,6.6-1.6,6.6h.2,0Z"/>
      </g>
      <g>
        <path class="cls-16" d="M91.47,203.75c-1.3,19.1-4,38.8-4.6,38.8l-5.9-.4-1.9-39.3-1.5-29.5v-1.2c0-.4,0-.8.2-1.2.8-3.1,3.7-5.5,7-5.1,3.8.3,6.5,3.5,6.4,7.3,1.3,5.9,1,18.2.2,30.7h0l.1-.1Z"/>
        <path class="cls-4" d="M89.47,225.85c-1.1,9.7-2.1,16.7-2.6,16.7l-5.9-.4-.8-16.3h9.3Z"/>
        <path class="cls-3" d="M79.27,248.55c0,1.2.7,2.1,1.7,2.8.6.4,23.2,2.5,23.8,2.2,5.1-2.5-18-11.4-18-11.4l-6.2.2s-1.3,5-1.1,6.4h0v-.2h-.2Z"/>
        <g>
          <path class="cls-16" d="M92.27,134.75l-.8,27.8-.2,8.4c0,3.9-3.1,7-7,7.3-4.1.2-6.7-2.9-7-7l-.9-8.6-2.8-26.2v-.8c0-4.9,3.8-9,8.7-9.4,5.2-.4,9.8,3.5,10.2,8.7h0v-.2h-.2Z"/>
          <path class="cls-17" d="M92.27,134.75l.4,26.8c0,.6-.4,1-1,1h-17.1c-.6,0-1-.4-1-1l-.2-25.2v-.8c0-4.9,3.8-9,8.7-9.4,5.2-.4,9.8,3.5,10.2,8.7h0v-.1Z"/>
        </g>
      </g>
      <g>
        <path class="cls-16" d="M52.17,203.75c1.3,19.1,4,38.8,4.6,38.8l5.9-.4,1.9-39.3,1.5-29.5v-1.2c0-.4,0-.8-.2-1.2-.8-3.1-3.7-5.5-7-5.1-3.8.3-6.6,3.5-6.4,7.3-1.3,5.9-1,18.2-.2,30.7h0l-.1-.1Z"/>
        <path class="cls-4" d="M63.27,225.85l-.8,16.3-5.9.4c-.4,0-1.5-7-2.6-16.7h9.3Z"/>
        <path class="cls-3" d="M64.07,248.55c0,1.2-.7,2.1-1.7,2.8-.6.4-23.2,2.5-23.8,2.2-5.1-2.5,18-11.4,18-11.4l6.2.2s1.3,5,1.1,6.4h0v-.2h.2Z"/>
        <g>
          <path class="cls-16" d="M69.97,135.55v.7l-2.5,26.3-.8,8.5c-.3,4.1-3,7.3-7,7.1-3.9-.2-6.9-3.2-7.1-7.1l-.3-8.4-1.1-27.7c.4-5.2,4.9-9,10-8.8,5,.3,8.8,4.5,8.8,9.4h0Z"/>
          <path class="cls-17" d="M69.97,135.55v.7l-.8,25.4c0,.6-.4.9-.9.9h-16.6c-.6,0-.9-.4-.9-.9l.4-26.8c.4-5.2,4.9-9,10-8.8,5,.3,8.8,4.5,8.8,9.4h0v.1Z"/>
        </g>
      </g>
      <path class="cls-4" d="M93.77,68.15l-1.1,6.6-4.2,25.5c-1,4-1.2,8-.6,12h-32c1.6-4.6,1.9-9.4,1.1-14.2l-4-23.1-1.2-6.8,1.2-.7,16.1-10.2h9.3l14.5,10,1.1.7h0v.2h-.2Z"/>
      <path class="cls-17" d="M92.17,137.55l-17.8,7.7h-5.4l-17.8-7.5c-.6-5.1.3-12.8,1.7-17.8.4-1.5.9-2.9,1.5-4.1.6-1.1,1-2.2,1.3-3.5h32c.3,1.9.7,3.8,1.3,5.5.7,2.1,1.5,4.8,1.9,7.9.6,3,1.7,7.7,1.1,11.7h.2v.1Z"/>
      <path class="cls-17" d="M81.77,59.85h0c-2.5,8.1-13.8,8.5-16.8.6v-.3l4.2-2.7h9.3l3.6,2.5h-.3v-.1Z"/>
      <g id="german-boy-smiling2">
        <path class="cls-12" d="M68.87,60.05h0c1.9,2.6,6.9,2.5,8.6,0h0c.4-.5.5-1.1.5-1.7v-9.9h-9.8v9.8c0,.6.2,1.2.6,1.8h.1Z"/>
        <path class="cls-18" d="M95.07,33.05c-.9,1.4-2.3,2.5-3.6,2.7h-1.1c-.4,3.8-1.7,7.3-3.7,10.1-3.7,5.5-9.2,8.9-13.3,8.7h-.9c-4.4,0-9.4-3.1-12.9-8.1-1.9-2.8-3.4-6.2-4-10h-.3c-1.3,0-2.9-1.1-3.8-2.6-.2-.2-.3-.5-.4-.7-.2-.4-.3-.7-.4-1h0c-.3-1.4,0-2.7,1.1-3.2h0c1-.4,2.3,0,3.4.7.8-11.6,8.1-21.8,17-22,2.8,0,5.3.7,7.7,2.1,5.4,3.4,9.4,11.5,10.3,19.6.5-.5,1.1-.9,1.7-1.2s1.6-.4,2.4,0c1.6.6,1.8,2.9.6,4.9h.2Z"/>
        <g>
          <path class="cls-1" d="M60.77,26.85c.2,0,.4,0,.5-.3,1.7-3.3,4.7-1.9,4.8-1.8.3,0,.6,0,.8-.3,0-.3,0-.6-.3-.8-1.4-.6-4.6-1-6.3,2.4,0,.3,0,.6.2.8h.3Z"/>
          <path class="cls-1" d="M78.57,24.25s.3.2.5,0c2.9-1.1,4.1,1.3,4.1,1.4,0,.2.4.3.6.2.2,0,.3-.4.2-.6-.5-1.2-2.4-3.2-5.3-1.9-.2,0-.4.4-.3.6v.2h.2v.1Z"/>
          <path class="cls-1" d="M64.37,29.25c0,1.1.7,2.1,1.5,2.1s1.6-1,1.6-2.1-.7-2.1-1.5-2.1-1.6,1-1.6,2.1Z"/>
          <path class="cls-1" d="M78.57,29.25c0,1.1.7,2.1,1.5,2.1s1.6-1,1.6-2.1-.7-2.1-1.5-2.1-1.6,1-1.6,2.1Z"/>
          <path class="cls-19" d="M68.17,43.55c.2.2,1.5,3.2,5.1,3.1,3.5,0,4.9-2.8,5.1-3.1"/>
          <path class="cls-2" d="M75.87,37.45c0,1.4-1.1,2.6-2.6,2.6s-2.6-1.1-2.6-2.6,1.1,1.4,2.6,1.4,2.6-2.9,2.6-1.4Z"/>
          <path class="cls-7" d="M84.87,32.35c2,0,3.7,1.5,3.6,3.3-.1,1.8-1.9,3-4,2.9s-3.7-1.5-3.6-3.3,1.9-3,4-2.9Z"/>
          <path class="cls-7" d="M61.47,32.35c2,0,3.7,1.5,3.6,3.3-.1,1.8-1.9,3-4,2.9s-3.7-1.5-3.6-3.3c.1-1.8,1.9-3,4-2.9Z"/>
        </g>
        <path class="cls-20" d="M93.17,15.05c-1.6-5.5-4.9-10.3-10.3-13-4.4-2.1-19-5.6-27.1,7.6-3.3,5.3-4,12.1-4,18.2s.9,10.5,4.2,14.7c.5.6,1.1,1.2,1.7,1.7,0,0-.7-3.7-1.2-5.2-1.6-5.4-1.4-11.8.3-17.2.3-.8.6-1.5.9-2.4,0-.4,1.1-2.3,1-2.6,1.7,4.2,7.5,5.8,11.6,6.5-.7-1.1-1.9-1.7-2.6-3-.7-1.2-1.1-2.6-1.5-3.8,4.9,1.8,10,5.3,15.7,5-1.2-1.2-4.5-3.7-4.4-5.7,1.2,1.7,3.4,2.3,5.3,3,1.2.4,2.6.7,3.8,1.1,1,.3,1,.2,1.3,1.1,1.8,6.1,2.7,13.5,1.2,19.8.3-1.5,2.9-4.5,3.4-5.9.6-1.7,1.1-3.5,1.5-5.3.7-3.6.7-7.4.2-10.9-.2-1.3-.5-2.7-.8-3.9h-.2v.2h0Z"/>
      </g>
    </g>
  </g>
</svg>