<?xml version="1.0" encoding="UTF-8"?>
<svg id="Ebene_2" data-name="Ebene 2" xmlns="http://www.w3.org/2000/svg" viewBox="0 0 90.36 366.05">
  <defs>
    <style>
      .cls-1 {
        fill: #d9b6b6;
      }

      .cls-2 {
        fill: none;
        stroke: #630;
        stroke-linecap: round;
        stroke-miterlimit: 10;
      }

      .cls-3 {
        fill: #d9a2a0;
      }

      .cls-4, .cls-5 {
        fill: #d9baba;
      }

      .cls-4, .cls-6 {
        isolation: isolate;
        opacity: .5;
      }

      .cls-7 {
        fill: #d38a17;
      }

      .cls-8, .cls-6 {
        fill: #603813;
      }

      .cls-9 {
        fill: #273758;
      }

      .cls-10 {
        fill: #466e9f;
      }

      .cls-11 {
        fill: #c69696;
      }

      .cls-12 {
        fill: #e6e6e6;
      }
    </style>
  </defs>
  <g id="Layer_1" data-name="Layer 1">
    <g id="german-boy-left">
      <g>
        <path class="cls-1" d="M31.65,135.52h0c1.31,1.96,2.1,4.32,1.83,6.68l-6.29,47.15-9.56-3.54,2.36-45.58c.26-6.94,7.86-9.82,11.79-4.72h-.13Z"/>
        <path class="cls-1" d="M28.51,147.97h0c-4.98.79-9.17-4.98-8.38-11l6.29-38.9c.92-6.16,5.5-10.09,10.35-8.91h0c5.63,1.31,9.3,8.91,7.33,15.59l-10.48,36.41c-.92,3.14-2.36,6.55-4.98,6.81h-.13Z"/>
        <path class="cls-12" d="M29.42,90.99c-4.45,4.85-9.69,14.54-12.05,34.32l19.91,7.2,1.7-7.6c4.85-12.05,8.51-23.18,6.81-30.52-1.7-6.94-11.53-8.91-16.37-3.41h0Z"/>
        <path class="cls-1" d="M25.23,203.9l1.83-15.46-9.56-3.54v.65c-10.74,6.81-11.92,16.37-11.92,16.37-1.18,9.17,1.18,10.22,3.27,9.43,1.44-.39,2.62-1.7,3.14-3.27,2.75-6.81,9.95-13.1,9.95-13.1.26,13.23,3.14,9.17,3.14,9.17h.26v-.26h-.13Z"/>
      </g>
      <path class="cls-12" d="M25.89,160.28c1.18-11.92,1.96-23.97,2.49-36.02l.65-13.62c.39-9.3,2.49-24.49,14.8-23.58,3.67-1.7,7.86-4.85,7.86-4.85l13.36-.39,3.67,3.41,10.09,5.11c3.67,3.41,3.14,10.74,2.23,15.59l-7.86,43.75c-.39,2.62-.79,5.24-.92,8.12-.39,0-.92.26-1.18.65-15.06,5.63-29.86,6.29-44.66,1.96h-.39v-.13h-.13Z"/>
      <g>
        <g>
          <path class="cls-1" d="M47.76,293.62c1.7,27.64,5.5,56.19,6.29,56.19l8.51-.52,2.88-56.71,2.23-42.57v-1.7c0-.65,0-1.18-.26-1.7-1.05-4.58-5.24-7.86-10.22-7.47-4.85.26-8.91,4.32-9.17,9.04,0,1.31-.26,2.49-.39,3.8-1.44,9.17-1.05,25.41,0,42.04h0v-.39h.13Z"/>
          <path class="cls-12" d="M50.38,324c1.57,14.93,3.27,25.93,3.8,25.93h8.38l1.31-25.93h-13.62.13Z"/>
        </g>
        <path class="cls-9" d="M64.26,360.16c0,.92-.65,2.36-1.31,3.54-.79,1.44-2.23,2.36-3.8,2.36h-31.83c-7.2-3.8,26.85-16.11,26.85-16.11h8.38s1.96,8.51,1.57,10.35h0l.13-.13Z"/>
        <g>
          <path class="cls-1" d="M57.85,257.73h0c-5.63-.52-9.69-5.37-9.56-11l1.18-52c1.05-7.47,7.86-12.71,15.32-11.66h0c7.47,1.05,12.71,7.86,11.66,15.32l-7.86,49.9c-.79,5.76-4.98,10.22-10.74,9.56h0v-.13Z"/>
          <path class="cls-10" d="M46.97,242.27l28.29.79,1.18-47.15c0-7.47-5.76-13.88-13.36-14.01h-.79c-7.47,0-13.88,5.76-14.01,13.23l-1.18,47.15h-.13Z"/>
        </g>
      </g>
      <g>
        <g>
          <path class="cls-1" d="M21.56,293.62c1.83,27.64,5.5,56.19,6.29,56.19l8.51-.52,2.88-56.71,2.23-42.57v-1.7c0-.65,0-1.18-.26-1.7-1.05-4.58-5.24-7.86-10.22-7.47s-8.91,4.32-9.17,9.04c0,1.31-.26,2.49-.39,3.8-1.44,9.17-1.05,25.41,0,42.04h0v-.39h.13Z"/>
          <path class="cls-12" d="M24.05,324c1.57,14.93,3.27,25.93,3.67,25.93h8.38l1.31-25.93h-13.62.26,0Z"/>
        </g>
        <path class="cls-9" d="M37.94,360.16c0,.92-.65,2.36-1.31,3.54-.79,1.44-2.23,2.36-3.8,2.36H1c-7.2-3.8,26.85-16.11,26.85-16.11h8.38s1.96,8.51,1.57,10.35h0l.13-.13Z"/>
        <g>
          <path class="cls-1" d="M31.39,257.73h0c-5.63-.52-9.69-5.37-9.56-11l1.18-52c1.05-7.47,7.86-12.71,15.32-11.66h0c7.47,1.05,12.71,7.86,11.66,15.32l-7.86,49.9c-.79,5.76-4.98,10.22-10.74,9.56h0v-.13Z"/>
          <path class="cls-10" d="M15.67,237.95l27.9,3.8,6.55-46.5c1.05-7.6-4.32-14.8-11.92-15.98h0c-7.73-1.05-14.8,4.32-15.98,11.92l-6.55,46.5h0v.26h0Z"/>
        </g>
      </g>
      <path class="cls-10" d="M23.4,200.88v-6.03c-.13-1.18,0,0-.13-.26v-14.54c.39-3.41.92-6.81,1.44-10.09.13-2.23.39-4.45.65-6.55,0-.92.26-1.7.26-2.62,14.93,4.58,30.91,3.41,45.97-2.36v2.23c-.26,6.55.65,12.97,2.49,19.12,1.18,3.54,1.96,7.47,2.36,11.26.92,10.09-1.31,17.55-1.31,17.55h0l-26.46,10.09-1.31.39h-.65l-23.58-9.69c0-2.23-.26-4.32-.39-6.29v-1.96h1.05-.39v-.26Z"/>
      <g>
        <path class="cls-1" d="M69.24,150.59h0c4.45,2.49,10.35,6.55,11.79-7.47l7.47-38.38c1.44-6.03-1.7-11.26-6.94-12.05h0c-6.03-.79-11.92,4.98-12.44,12.05l-2.23,37.72c-.26,3.27,0,7.07,2.62,8.25h-.26v-.13Z"/>
        <path class="cls-12" d="M87.19,96.75c2.75,5.89,4.98,16.37,1.05,34.45l-22.66-.92.65-7.47c-1.05-12.31-1.05-23.18,3.14-28.95,3.8-5.5,14.41-3.54,17.55,2.88h.26,0Z"/>
        <path class="cls-1" d="M75.51,168.16l4.36-17.63c1.7-6.72-4.45-11.49-9.81-7.78h0c-1.78,1.33-2.9,3.41-3.48,5.89l-7.8,45.96,10.18-.43,6.49-25.89"/>
        <path class="cls-1" d="M53.95,205.59l5.82-14.43,10.08,1.5-.31.57c6.14,11.14,2.58,20.09,2.58,20.09-3.38,8.61-5.95,8.39-7.41,6.69-1.07-1.04-1.48-2.75-1.18-4.38.86-7.29-2.43-16.27-2.43-16.27-6.59,11.47-7.16,6.53-7.16,6.53l-.23-.13.13-.23.11.06Z"/>
      </g>
      <path class="cls-10" d="M46.06,89.68c0,5.89,6.29,9.82,11.79,7.2,5.5-2.49,9.04-7.6,10.87-11.79l-3.67-3.41-13.36.39s-2.36,1.57-5.5,3.93c-.26,1.18,0,2.36-.26,3.41h0v.26h.13Z"/>
      <g>
        <path class="cls-11" d="M56.54,87.32h0c4.85-.52,8.38-4.72,7.99-9.69l-1.44-16.37-13.49,1.18,1.83,20.43c.26,2.75,2.49,4.72,5.11,4.45h0Z"/>
        <path class="cls-7" d="M42.39,11.62c1.05-3.54,2.75-6.55,4.98-9.04-.39-.26-.52-.65-.79-.92,1.31-.65,3.01-1.31,4.58-1.44,7.86-.65,15.72,2.88,21.48,8.25,4.85,4.58,8.12,10.48,10.35,16.77,5.11,13.88,4.85,33.14-8.91,41.52-3.67,2.1-8.64,4.45-12.97,3.67-4.45-.65-7.73-3.93-10.22-7.86-4.45-7.33-7.33-16.5-8.91-24.76-1.83-8.51-2.1-17.68.52-26.07h-.26l.13-.13Z"/>
        <path class="cls-5" d="M26.02,41.48c0,1.7.26,3.41.65,4.85,0,1.05.39,2.1.65,3.01.65,2.49,1.44,4.98,2.36,7.47.39.79.65,1.57,1.05,2.23,5.24,10.74,14.41,17.42,23.97,16.63,4.72-.39,8.78-2.36,12.44-5.76.79-.65,1.57-1.44,2.1-2.23,6.03-7.2,9.17-18.21,8.25-30.39-1.83-20.04-14.41-35.5-28.68-34.19-1.96.26-4.19.65-6.03,1.57-11,4.85-18.21,19.91-16.77,37.07h0v-.26h0Z"/>
        <g>
          <path class="cls-8" d="M60.47,39.78c-.26,0-.65,0-.65-.52-2.49-4.85-6.94-2.88-7.2-2.75-.52,0-.92,0-1.18-.52,0-.52,0-.92.52-1.18,2.1-.92,6.81-1.57,9.43,3.54,0,.52,0,.92-.26,1.18h-.52v.26h-.13Z"/>
          <path class="cls-8" d="M34.01,35.85s-.52.26-.65,0c-4.32-1.7-6.16,1.96-6.16,2.1,0,.26-.65.52-.92.26-.26,0-.52-.65-.26-.92.65-1.83,3.41-4.72,7.86-2.88.26,0,.65.65.52.92v.26h-.26v.26h-.13Z"/>
          <path class="cls-8" d="M55.23,43.32c0,1.7-1.05,3.27-2.23,3.27s-2.36-1.57-2.36-3.27,1.05-3.27,2.23-3.27,2.36,1.57,2.36,3.27Z"/>
          <path class="cls-8" d="M34.01,43.32c0,1.7-1.05,3.27-2.23,3.27s-2.36-1.57-2.36-3.27,1.05-3.27,2.23-3.27,2.36,1.57,2.36,3.27Z"/>
          <path class="cls-2" d="M51.95,61.78c0,.26-1.18,4.85-5.76,5.63-4.45.65-6.81-1.57-7.2-1.96"/>
          <path class="cls-6" d="M38.85,51.83c-1.57,1.57-1.57,3.8,0,5.24s3.8,1.57,5.24,0-2.75.26-4.32-1.05c-1.57-1.57.26-5.63-1.18-4.19h.26Z"/>
          <path class="cls-3" d="M26.54,48.03c.65,2.75,1.05,5.11,2.1,7.6.26.92.65,1.7,1.05,2.62,1.57-1.05,2.23-3.01,2.1-4.85,0-2.75-2.36-4.85-5.11-5.11h0v-.26h-.13Z"/>
          <path class="cls-3" d="M59.42,47.77c-3.01,0-5.5,2.23-5.24,4.85s2.88,4.45,5.89,4.19,5.5-2.23,5.24-4.85-2.88-4.45-5.89-4.19Z"/>
        </g>
        <path class="cls-4" d="M66.62,70.03h.26c.79-.65,1.57-1.57,2.1-2.36,6.03-7.2,9.17-18.21,8.25-30.39-1.83-20.04-14.41-35.5-28.68-34.19-1.96.26-4.19.65-6.03,1.57,11.79,7.86,33.27,29.34,23.97,65.49h.13v-.13Z"/>
        <path class="cls-7" d="M75.66,40.3l3.41-8.51,4.06,5.89-.39,18.21-11.79,9.82c5.89-14.01,4.58-21.35,4.85-24.49v-.79h0l-.13-.13Z"/>
        <g>
          <path class="cls-5" d="M73.17,33.88c-1.18,4.72,0,8.91,3.01,9.69s6.16-2.36,7.33-7.07,0-8.91-3.01-9.69c-2.75-.79-6.16,2.36-7.33,7.07Z"/>
          <path class="cls-4" d="M73.17,33.88c-1.18,4.72,0,8.91,3.01,9.69s6.16-2.36,7.33-7.07,0-8.91-3.01-9.69c-2.75-.79-6.16,2.36-7.33,7.07Z"/>
        </g>
        <path class="cls-7" d="M25.1,48.29c-.26-7.6,2.1-15.06,5.11-15.85,2.1-1.18,1.7,0,2.1-1.18,0-.65,1.31-3.41,1.18-3.8,2.88,6.03,11.13,7.86,17.16,8.51-1.18-1.57-2.88-2.36-3.93-4.19-1.05-1.7-1.83-3.54-2.49-5.37,7.33,2.23,14.54,6.81,22.53,6.03-1.83-1.7-6.68-5.11-6.81-7.99,1.96,2.49,5.11,3.14,7.73,3.8,1.83.52,3.67.79,5.37,1.18,3.14,8.78,3.54,22.53.79,30.65,2.88-4.32,4.85-14.8,3.93-26.2,0-2.23.92-4.19,2.62-5.63h0c1.18-.92,1.7-2.62,1.83-4.06,0-1.44-.39-3.14-.92-4.58h.39c-1.96-4.45-5.11-8.12-8.91-11.13-2.49-1.83-5.24-3.41-7.99-4.72-1.44-1.05-3.01-1.83-4.58-2.49-7.33-3.8-26.85.52-33.66,18.34-1.96,4.85-3.01,5.37-3.41,12.97,0,.65,0,1.05.26,1.57.39,1.57,0,3.01.65,6.16"/>
      </g>
    </g>
  </g>
</svg>