<?xml version="1.0" encoding="UTF-8"?>
<svg id="Layer_2" data-name="Layer 2" xmlns="http://www.w3.org/2000/svg" viewBox="0 0 128.39 267.31">
  <defs>
    <style>
      .cls-1 {
        fill: #616261;
      }

      .cls-2, .cls-3 {
        fill: #603813;
      }

      .cls-4 {
        fill: #273758;
      }

      .cls-5 {
        fill: #e6e6e6;
      }

      .cls-6 {
        fill: #c69696;
      }

      .cls-7 {
        fill: #4d4d4f;
      }

      .cls-8 {
        fill: #d9a2a0;
      }

      .cls-9, .cls-3 {
        isolation: isolate;
        opacity: .5;
      }

      .cls-9, .cls-10 {
        fill: #d9baba;
      }

      .cls-11 {
        fill: #7e725b;
      }

      .cls-12 {
        fill: #d9b6b6;
      }

      .cls-13 {
        fill: #9f9e9d;
      }

      .cls-14 {
        fill: #466e9f;
      }

      .cls-15 {
        fill: none;
        stroke: #630;
        stroke-linecap: round;
        stroke-miterlimit: 10;
      }

      .cls-16 {
        fill: #d38a17;
      }
    </style>
  </defs>
  <g id="Layer_1-2" data-name="Layer 1">
    <g id="boy-sitting-left">
      <g>
        <g>
          <path class="cls-1" d="M125.81,265.61c-.85.96-2.48,1.17-3.63.46l-23.04-14.2c-1.15-.71-1.4-2.07-.55-3.03h0c.85-.96,2.48-1.17,3.63-.46l23.04,14.2c1.15.71,1.4,2.07.55,3.03h0Z"/>
          <path class="cls-1" d="M125.81,265.61c-.85.96-2.48,1.17-3.63.46l-23.04-14.2c-1.15-.71-1.4-2.07-.55-3.03h0c.85-.96,2.48-1.17,3.63-.46l23.04,14.2c1.15.71,1.4,2.07.55,3.03h0Z"/>
          <path class="cls-1" d="M125.81,265.61c-.85.96-2.48,1.17-3.63.46l-23.04-14.2c-1.15-.71-1.4-2.07-.55-3.03h0c.85-.96,2.48-1.17,3.63-.46l23.04,14.2c1.15.71,1.4,2.07.55,3.03h0Z"/>
          <path class="cls-13" d="M124.1,266.08c-.12.13-.98-.23-1.92-.81l-18.81-11.59c-.94-.58-1.61-1.16-1.49-1.29h0c.12-.13.98.23,1.92.81l18.81,11.59c.94.58,1.61,1.16,1.49,1.29h0Z"/>
          <path class="cls-1" d="M62.13,265.61c.85.96,2.48,1.17,3.63.46l23.04-14.2c1.15-.71,1.4-2.07.55-3.03h0c-.85-.96-2.48-1.17-3.63-.46l-23.04,14.2c-1.15.71-1.4,2.07-.55,3.03h0Z"/>
          <path class="cls-13" d="M62.77,263.79c-.2.25.36,0,1.24-.55l17.64-11.04c.88-.55,1.76-1.2,1.96-1.45h0c.2-.25-.36,0-1.24.55l-17.64,11.04c-.88.55-1.76,1.2-1.96,1.45h0Z"/>
          <path class="cls-1" d="M96.56,263.82c0,1.47-1.16,2.66-2.58,2.66h-.53c-1.43,0-2.58-1.19-2.58-2.66v-12.79c0-1.47,1.16-2.66,2.58-2.66h.53c1.43,0,2.58,1.19,2.58,2.66v12.79Z"/>
          <path class="cls-1" d="M96.94,248c0,1.24-1.4,2.25-3.12,2.25h-.17c-1.72,0-3.12-1.01-3.12-2.25v-59.46c0-1.24,1.4-2.25,3.12-2.25h.17c1.72,0,3.12,1.01,3.12,2.25v59.46Z"/>
          <path class="cls-13" d="M92.42,243.72c0,1.02-.24,1.85-.54,1.85h-.03c-.3,0-.54-.83-.54-1.85v-48.98c0-1.02.24-1.85.54-1.85h.03c.3,0,.54.83.54,1.85v48.98Z"/>
          <path class="cls-1" d="M103.56,250.03c0,1.44-1.4,2.6-3.12,2.6h-13.44c-1.72,0-3.12-1.17-3.12-2.6v-.73c0-1.44,1.4-2.61,3.12-2.61h13.44c1.72,0,3.12,1.17,3.12,2.61v.73Z"/>
          <path class="cls-13" d="M92.49,264.49c0,.23-.15.42-.35.42h0c-.19,0-.35-.19-.35-.42v-10.86c0-.23.16-.42.35-.42h0c.19,0,.35.19.35.42v10.86Z"/>
        </g>
        <path class="cls-11" d="M122.73,186.3c0,2.92-1.11,5.28-2.48,5.28h-53.03c-1.37,0-2.48-2.37-2.48-5.28h0c0-2.92,1.11-5.28,2.48-5.28h53.03c1.37,0,2.48,2.37,2.48,5.28h0Z"/>
        <path class="cls-7" d="M64.75,186.09c0,.07,0,.14,0,.21,0,2.92,1.11,5.28,2.48,5.28h53.03c1.37,0,2.48-2.37,2.48-5.28,0-.07,0-.14,0-.21h-57.98Z"/>
      </g>
      <g>
        <path class="cls-12" d="M78.33,129.62h0c4.26,1.52,8.84-2.05,8.91-6.99l-.21-31.36c.07-4.94-3.4-8.94-7.92-9.04h0c-5.26-.04-9.32,5.13-8.71,10.77l3.69,31.05c.23,2.64,2.04,4.75,4.25,5.7v-.13Z"/>
        <path class="cls-5" d="M85.83,83.16c1.75,4.27,3.81,12.19,2.75,24.56-.14,1.28-1.19,2.13-2.46,1.99-3.28-.34-9.56-.55-13.48,1.95-1.19.74-2.76,0-2.87-1.39-.73-8.41-1.84-28.43,6.9-31.61,3.64-1.33,7.59.85,9.14,4.38v.13Z"/>
        <path class="cls-12" d="M84.88,118.54h0c-1.46-1.01-3.25-1.36-4.82-.71l-32.8,11.63,3.35,8.31,32.12-7.9c4.9-1.19,6.29-8.27,2.15-11.32h0Z"/>
        <path class="cls-12" d="M42.58,143.29l9.32-6.64-4.29-7.59-.62.05c-10.68-3.36-16.46.82-16.46.82-5.55,3.91-4.5,5.84-2.79,6.83,1.18.65,2.56.66,3.78.3,5.37-1.61,13.61-.44,13.61-.44-6.8,6.8-2.69,6.56-2.69,6.56l.14.11Z"/>
      </g>
      <path class="cls-5" d="M71.83,160.06c7.22,2.4,15.05,3.22,22.76,2.54,7.7-.68,10.87-1.72,15.95-3.81l6.78-2.62s-.29-11.99-3.76-20.29c-2.85-6.83-3.48-14.12-2.36-21.43l5.08-32.46c.55-3.72-1-7.25-4.21-9.62l-4.42-3.28h0l-5.37-4.21-11.31,1s-2.96,1.91-6.46,4.87c-.82.7-1.63,1.41-2.45,2.11-4.52,4.2-9.17,9.79-9.23,14.86v10c-.08,13.67-.53,27.25-2.24,40.81-.59,4.73-.36,10.28,1.23,21.4v.13Z"/>
      <path class="cls-14" d="M84.4,71.01c.25,1.5.86,2.71,1.58,3.78,1.71,2.38,4.69,3.51,7.54,3.26,7.09-.5,11.51-4.43,14.13-8.84h0l-5.37-4.21-11.31,1s-2.96,1.91-6.46,4.87l-.11.14Z"/>
      <path class="cls-14" d="M116.76,148.37s12.61,34.31-9.69,37.04l-30.99,2.11-5.18-35.22c9.71.79,26.51-.32,45.85-4.05v.13Z"/>
      <g>
        <path class="cls-6" d="M95.34,72.96h0c4.1-.36,7.05-3.91,6.69-8.06l-1.18-13.69-11.31,1,1.48,17.08c.2,2.26,2.09,3.86,4.32,3.67h0Z"/>
        <path class="cls-16" d="M83.6,9.72c.88-2.86,2.28-5.52,4.23-7.59-.27-.23-.43-.59-.7-.82,1.07-.6,2.53-1.11,3.78-1.22,6.59-.58,13.23,2.37,18,6.89,3.96,3.82,6.77,8.76,8.73,14.03,4.26,11.64,4.15,27.72-7.51,34.7-3.1,1.79-7.19,3.67-10.75,3.1-3.68-.56-6.55-3.34-8.46-6.59-3.66-6.13-6.07-13.76-7.43-20.73-1.49-7.08-1.78-14.77.37-21.79l-.25.02Z"/>
        <path class="cls-10" d="M69.87,34.72c.12,1.38.24,2.76.47,4.01.08.88.28,1.75.47,2.49.56,2.1,1.24,4.19,2.03,6.15.31.73.62,1.34.92,1.94,4.41,8.97,12.03,14.62,19.99,13.92,3.85-.34,7.34-2.04,10.35-4.84.7-.57,1.27-1.25,1.84-1.93,4.99-6.01,7.7-15.23,6.94-25.41-1.46-16.83-12.08-29.68-24.01-28.62-1.74.15-3.46.56-5.02,1.33-9.17,3.97-15.21,16.65-13.97,30.97h0Z"/>
        <g>
          <path class="cls-2" d="M98.65,33.25c-.25,0-.51,0-.63-.38-2.15-4.06-5.83-2.41-5.96-2.28-.38,0-.76,0-1.01-.38,0-.38,0-.76.38-1.01,1.77-.76,5.7-1.27,7.86,2.92,0,.38,0,.76-.25,1.01h-.38v.13Z"/>
          <path class="cls-2" d="M76.6,29.96s-.38.25-.63,0c-3.55-1.39-5.07,1.65-5.07,1.77,0,.25-.51.38-.76.25-.25,0-.38-.51-.25-.76.63-1.52,2.92-3.93,6.59-2.41.25,0,.51.51.38.76v.25h-.25v.13h0Z"/>
          <path class="cls-2" d="M94.22,36.17c0,1.39-.89,2.66-1.9,2.66s-2.03-1.27-2.03-2.66.89-2.66,1.9-2.66,2.03,1.27,2.03,2.66Z"/>
          <path class="cls-2" d="M76.6,36.17c0,1.39-.89,2.66-1.9,2.66s-2.03-1.27-2.03-2.66.89-2.66,1.9-2.66,2.03,1.27,2.03,2.66Z"/>
          <path class="cls-15" d="M91.56,51.63c0,.25-1.01,4.06-4.82,4.69-3.68.51-5.7-1.27-5.96-1.65"/>
          <path class="cls-3" d="M80.66,43.26c-1.27,1.27-1.27,3.17,0,4.44s3.17,1.27,4.44,0-2.28.25-3.55-.89c-1.27-1.27.25-4.69-1.01-3.55h.13,0Z"/>
          <path class="cls-8" d="M70.39,40.22c.51,2.28.89,4.31,1.77,6.34.25.76.51,1.39.89,2.15,1.27-.89,1.9-2.54,1.77-4.06,0-2.28-2.03-4.06-4.31-4.31h-.13v-.13Z"/>
          <path class="cls-8" d="M97.77,39.97c-2.54,0-4.56,1.9-4.44,4.06s2.41,3.68,4.94,3.55,4.56-1.9,4.44-4.06-2.41-3.68-4.94-3.55Z"/>
        </g>
        <path class="cls-9" d="M103.85,58.54l.25-.02c.7-.57,1.27-1.25,1.84-1.93,4.99-6.01,7.7-15.23,6.94-25.41-1.46-16.83-12.08-29.68-24.01-28.62-1.74.15-3.46.56-5.02,1.33,9.84,6.6,27.79,24.49,20.02,54.79v-.13Z"/>
        <path class="cls-16" d="M111.34,33.71l2.77-7.08,3.43,4.88-.31,15.21-9.81,8.21c4.87-11.69,3.83-17.93,3.99-20.47l-.05-.63v-.13Z"/>
        <g>
          <path class="cls-10" d="M109.25,28.33c-1.04,3.89.14,7.45,2.46,8.13s5.09-1.97,6.13-5.86c1.04-3.89-.14-7.45-2.46-8.13-2.31-.68-5.09,1.97-6.13,5.86Z"/>
          <path class="cls-9" d="M109.25,28.33c-1.04,3.89.14,7.45,2.46,8.13s5.09-1.97,6.13-5.86c1.04-3.89-.14-7.45-2.46-8.13-2.31-.68-5.09,1.97-6.13,5.86Z"/>
        </g>
        <path class="cls-16" d="M69.12,40.41c-.24-6.31,1.83-12.58,4.34-13.34,1.75-1.05,1.42-.07,1.75-1.05.09-.55,1.13-2.81.97-3.21,2.45,5.02,9.27,6.6,14.31,7.07-1.01-1.3-2.38-2.02-3.26-3.46-.89-1.44-1.52-3.03-2.15-4.49,6.06,1.9,12.24,5.71,18.91,4.98-1.54-1.4-5.56-4.26-5.72-6.7,1.59,2.07,4.26,2.57,6.54,3.23,1.48.44,3.08.74,4.55,1.05,2.6,7.33,2.99,18.9.67,25.61,2.39-3.58,4.04-12.42,3.27-21.93-.13-1.9.82-3.47,2.19-4.65h0c1-.75,1.44-2.15,1.49-3.38-.08-1.22-.31-2.57-.78-3.77l.27.12c-1.58-3.85-4.29-6.94-7.49-9.45-2.08-1.49-4.41-2.84-6.72-3.91-1.24-.87-2.47-1.47-3.83-2.06-6.09-3.21-22.47.41-28.24,15.29-1.65,4.06-2.52,4.52-2.93,10.79-.03.45.12.87.23,1.3.33,1.27-.01,2.49.61,5.14"/>
      </g>
      <g>
        <path class="cls-12" d="M120.1,132h0c4.35,1.13,8.52-2.78,8.22-7.69l-2.71-31.26c-.42-4.9-4.37-8.6-8.86-8.33h0c-5.22.46-8.88,5.85-7.77,11.44l6.28,30.57c.6,2.6,2.4,4.6,4.71,5.28h.12Z"/>
        <path class="cls-5" d="M119.45,76.77c2.84,3.92,6.89,11.66,8.93,25.02.08.88-.47,1.81-1.33,2.02-3.08.53-10.08,2.16-13.36,6.24-.79.96-2.32.71-2.8-.51-2.96-8.21-9.26-28.91-1.5-34.66,3.18-2.31,7.52-1.3,9.94,2.03l.11-.14Z"/>
        <path class="cls-12" d="M124.98,120.31h0c-1.58-.87-3.33-.84-4.89-.07l-31.06,15.78,4.43,7.83,30.77-11.96c4.73-1.81,5.24-8.94.76-11.45v-.13Z"/>
        <path class="cls-12" d="M86.27,150.43l8.47-7.71-5.5-7.11-.23.27c-11.06-1.93-16.15,2.95-16.15,2.95-4.98,4.62-3.7,6.4-1.89,7.13,1.3.52,2.66.4,3.86-.21,5.18-2.36,13.46-2.2,13.46-2.2-5.85,7.6-1.91,6.87-1.91,6.87h-.12Z"/>
      </g>
      <g>
        <g>
          <path class="cls-12" d="M18.24,208.18c1.5,20.29,4.49,41.59,5.24,41.47l7.23-.5,2.62-42.1,2-31.64v-1.39c0-.38,0-.88-.25-1.26-.87-3.28-4.49-5.67-8.61-5.42-4.12.25-7.48,3.28-7.73,6.81,0,.88-.25,1.89-.37,2.77-1.25,6.81-1,18.78,0,31.13l-.12.13Z"/>
          <path class="cls-5" d="M20.36,230.36c1.37,11.09,2.62,19.28,3.12,19.28l7.23-.5,1.12-18.78h-11.47,0Z"/>
        </g>
        <path class="cls-4" d="M31.96,255.82c-.12,1.26-.87,2.39-2,3.02-.75.5-28.31,2.65-29.06,2.39-6.24-2.52,21.95-12.23,21.95-12.23h7.61c0,.13,1.62,5.55,1.37,6.93l.12-.13Z"/>
        <g>
          <path class="cls-12" d="M17.86,177.55c.62,4.92,4.99,7.56,9.98,7.06l17.46-1.39,25.07-2.02h.37c6.11-.88,10.6-6.55,9.98-12.73-.62-6.43-6.24-11.09-12.47-10.46l-25.69,5.67-17.46,3.78c-4.61,1.01-7.73,5.42-7.23,10.21v-.13Z"/>
          <path class="cls-14" d="M42.68,163.43c4.86,6.05,5.36,12.73,2.74,19.66l25.07-2.02h.37c6.11-.88,10.6-6.55,9.98-12.73-.62-6.43-6.24-11.09-12.47-10.46l-25.69,5.67v-.13Z"/>
        </g>
      </g>
      <g>
        <g>
          <path class="cls-12" d="M44.93,214.23c1.5,20.29,4.49,41.59,5.24,41.47l7.23-.5,2.62-42.1,2-31.64v-1.39c0-.38,0-.88-.25-1.26-.87-3.28-4.49-5.67-8.61-5.42s-7.48,3.28-7.73,6.81c0,.88-.25,1.89-.37,2.77-1.25,6.81-1,18.78,0,31.13l-.12.13Z"/>
          <path class="cls-5" d="M47.05,236.79c1.25,10.84,2.62,18.91,3.12,18.91l7.23-.5,1.12-18.4h-11.47,0Z"/>
        </g>
        <path class="cls-4" d="M58.52,261.87c-.12,1.26-.87,2.39-2,3.02-.75.5-28.31,2.65-29.06,2.39-6.24-2.52,21.95-12.23,21.95-12.23h7.61c0,.13,1.62,5.55,1.37,6.93l.12-.13Z"/>
        <g>
          <path class="cls-12" d="M44.55,183.47c.62,4.92,4.99,7.56,9.98,7.06l17.46-1.39,25.07-2.02h.37c6.11-.88,10.6-6.55,9.98-12.73-.62-6.43-6.24-11.09-12.47-10.46l-25.69,5.67-17.46,3.78c-4.61,1.01-7.73,5.42-7.23,10.21v-.13Z"/>
          <path class="cls-14" d="M69.25,169.48c4.74,6.55,5.99,13.11,2.74,19.66l25.07-2.02h.37c6.11-.88,10.6-6.55,9.98-12.73-.62-6.43-6.24-11.09-12.47-10.46l-25.69,5.67v-.13Z"/>
        </g>
      </g>
    </g>
  </g>
</svg>