<?xml version="1.0" encoding="UTF-8"?>
<svg id="Ebene_2" data-name="Ebene 2" xmlns="http://www.w3.org/2000/svg" viewBox="0 0 269.26 840">
  <defs>
    <style>
      .cls-1 {
        fill: #4194c7;
      }

      .cls-1, .cls-2, .cls-3, .cls-4, .cls-5 {
        fill-rule: evenodd;
      }

      .cls-2 {
        fill: #2c87bc;
      }

      .cls-6 {
        fill: #e94850;
      }

      .cls-7 {
        fill: #d9b6b6;
      }

      .cls-8 {
        fill: none;
        stroke: #630;
        stroke-linecap: round;
        stroke-miterlimit: 10;
      }

      .cls-9 {
        fill: #d9a2a0;
      }

      .cls-10 {
        fill: #d9baba;
      }

      .cls-3 {
        fill: #004062;
      }

      .cls-11, .cls-12 {
        fill: #603813;
      }

      .cls-13 {
        fill: #fdbd54;
      }

      .cls-14 {
        fill: #8b2b0e;
      }

      .cls-4 {
        fill: #00547b;
      }

      .cls-15 {
        fill: #273758;
      }

      .cls-16 {
        fill: #0e466d;
      }

      .cls-17 {
        fill: #c69696;
      }

      .cls-12 {
        isolation: isolate;
        opacity: .5;
      }

      .cls-18 {
        fill: #e6e6e6;
      }

      .cls-5 {
        fill: #1d7fb3;
      }

      .cls-19 {
        fill: #3f6138;
      }
    </style>
  </defs>
  <g id="svg">
    <g id="s-aspectuality-b">
      <g id="german-girl-rattle-towl">
        <g>
          <path class="cls-7" d="M132.15,570.53v4.08l-11.55,97.85-15.29,130.12h-19.71c-2.04,0-6.46-66.59-6.46-130.12s2.04-82.56,7.47-101.92c0-12.57,10.19-22.76,22.76-22.76s20.38,8.15,22.42,18.69v4.08h.34Z"/>
          <path class="cls-15" d="M109.73,823.3c0,4.08-2.38,7.13-5.44,9.17s-77.12,8.15-79.16,7.47c-16.99-8.15,59.79-38.05,59.79-38.05l20.72.68s4.42,16.65,3.74,21.06h0l.34-.34Z"/>
          <path class="cls-7" d="M112.79,593.64h0c-12.91,1.36-24.46-7.47-27.18-20.04l-22.76-117.89c-1.36-17.33,11.55-32.28,28.88-33.97h0c17.33-1.36,32.28,11.55,33.97,28.88l6.79,116.19c1.02,13.59-6.12,25.48-19.37,26.84h-.34Z"/>
        </g>
        <g>
          <path class="cls-7" d="M184.47,672.46c0,63.53-4.42,130.12-6.46,130.12h-19.71l-15.29-130.12-11.21-97.85v-8.15c2.04-10.53,11.21-18.69,22.42-18.69s22.76,10.19,22.76,22.76c5.78,19.37,7.47,60.13,7.47,101.92h0Z"/>
          <path class="cls-15" d="M153.9,823.3c0,4.08,2.38,7.13,5.44,9.17s77.12,8.15,79.16,7.47c16.99-8.15-59.79-38.05-59.79-38.05l-20.72.68s-4.42,16.65-3.74,21.06h0c0-.34-.34-.34-.34-.34h0Z"/>
          <path class="cls-7" d="M151.18,593.64h0c12.91,1.36,24.46-7.47,27.18-20.04l22.76-117.89c1.36-17.33-11.55-32.28-28.88-33.97h0c-17.33-1.36-32.28,11.55-33.97,28.88l-6.79,116.19c-1.02,13.59,6.12,25.48,19.37,26.84h.34Z"/>
        </g>
        <path class="cls-7" d="M188.21,329.31c-5.1,19.37-4.08,39.75,2.38,58.78,2.38,7.13,4.76,15.97,6.12,26.5,1.7,10.19,4.08,26.16,4.08,39.07l-64.21,25.48h-9.51l-64.21-24.46c0-17.67,2.38-43.49,7.13-59.79,1.36-4.76,3.06-9.51,4.76-13.59,8.49-18.35,11.89-38.73,8.49-58.78l-13.25-76.78-4.08-22.76,4.08-2.38,53.34-33.63h30.92l48.24,33.29,3.74,2.38-3.74,22.08-13.93,84.94h0l-.34-.34Z"/>
        <path class="cls-18" d="M188.21,329.31c-5.1,19.37-4.08,39.75,2.38,58.78,2.38,7.13,4.76,15.97,6.12,26.5h-126.72v-19.71c1.36-4.76,3.06-9.51,4.76-13.59,8.49-18.35,11.89-38.73,8.49-58.78l-13.25-76.78-3.74-22.76,43.15-27.18,13.93-8.83h30.92l11.89,8.15,40.09,27.52-3.74,22.08-13.93,84.94h0l-.34-.34Z"/>
        <path class="cls-19" d="M81.19,368.72s-39.41,101.92-37.71,197.39c0,5.1,3.06,9.17,7.13,10.53,26.84,7.13,125.03,30.24,172.25-5.78,3.06-2.38,4.42-6.46,4.08-10.53-3.74-27.86-19.03-138.28-40.43-191.28-34.65,14.61-69.65,13.93-105.66,0h.34v-.34Z"/>
        <g>
          <path class="cls-14" d="M218.79,129.54c0-15.97-7.47-28.2-13.59-41.11-2.72-5.78-5.44-15.97-9.51-20.38-5.44-5.78-18.35-3.06-25.14-3.4-25.14-1.02-50.28.68-75.42,3.74-7.81,1.02-12.57-2.04-15.63,9.17-2.04,7.13-3.4,9.85-3.4,9.85-7.81,13.59-20.72,21.74-25.48,39.07-3.74,13.93-2.04,31.26,6.12,41.11,0-5.44.68-12.57,1.7-17.33,5.44,4.08,9.17,12.23,14.61,16.99s11.55,8.83,17.67,11.21c.68-4.76-1.02-11.21,0-15.29,4.42,10.87,15.29,15.63,23.44,20.38,0-6.46-1.7-14.61,3.74-10.87,1.36,1.02,3.4,5.44,5.1,6.79s3.74,2.72,5.78,3.74c6.12,3.74,8.83,4.76,14.61,0,4.08-3.74,9.17-8.83,12.57-13.59,2.04,4.08,1.02,10.87,1.02,15.63,6.79,0,14.95-8.15,19.37-14.61,1.02,3.74,0,7.81,1.02,11.55,8.83-1.02,24.46-17.33,28.54-27.18,4.08,3.74,7.47,12.23,6.46,18.69,7.13-11.89,7.13-29.9,7.13-44.51h-.68v.34Z"/>
          <path class="cls-17" d="M138.61,199.19h0c-8.49,0-15.29-6.79-15.29-15.29v-22.76h30.92v22.76c0,8.49-6.79,15.29-15.29,15.29h-.34Z"/>
          <path class="cls-10" d="M213.01,98.97c-3.06,5.1-7.81,8.49-12.57,9.51h-4.08c-1.36,13.25-6.12,25.48-12.91,35.33-12.91,19.37-32.28,30.92-46.54,30.24h-3.4c-15.29,0-32.95-10.53-45.19-28.2-6.79-9.85-11.89-21.74-13.93-34.99h-1.02c-4.76,0-9.85-3.74-13.25-8.83-.68-1.02-1.02-1.7-1.36-2.72-.68-1.36-1.02-2.38-1.36-3.74h0c-1.02-5.1,0-9.17,4.08-10.87h0c3.4-1.36,7.81,0,11.89,2.38,3.06-40.43,28.2-76.1,59.46-76.78,9.51,0,18.69,2.72,26.84,7.81,7.81,4.76,14.61,12.23,20.38,21.4h0c8.15,13.25,13.93,30.24,15.63,47.22h0c1.7-1.7,3.74-3.06,5.78-3.74,2.72-1.36,5.78-1.36,8.15,0,5.44,2.38,6.46,9.85,2.04,17.33l1.36-1.02h0v-.34Z"/>
          <path class="cls-14" d="M204.52,110.52c-1.02-10.87-2.72-29.56-3.74-38.05,0-3.06,0-5.78-.68-8.83-1.02-22.08-8.15-46.21-24.46-58.44-11.55-8.83-22.08-1.36-34.65-4.08-24.12-4.76-52.32,5.78-65.23,28.54-7.81,13.59-9.17,29.56-6.46,44.85,0,0,1.7,28.88,1.02,35.67-1.02,11.55-4.08,32.62,3.06,42.81,3.4,4.76,13.93,12.57,19.03,15.29,1.02-7.47-5.78-14.27-7.13-21.4-1.7-7.81-1.02-16.31-1.02-24.46,0-14.61-1.36-28.88-.68-43.49v-4.42c0-.68.68-1.02,1.02-1.7,3.74-6.12,8.15-11.55,13.25-16.31,5.44-5.1,11.89-7.81,17.67-12.57,5.44,4.76,10.53,9.85,16.65,13.59,7.47,4.42,17.67,8.15,26.16,8.83-1.02-2.04-3.4-4.08-5.1-6.12-.68-1.02-1.36-2.72-2.04-3.74,4.42,5.1,11.89,9.17,17.33,12.91,5.1,3.74,11.55,5.44,17.33,7.47,0-2.04-5.1-11.21-6.46-13.93,2.04,2.72,5.1,4.42,6.79,7.13,2.04,2.72,3.4,5.78,4.76,8.49h0c.68,14.95-.68,29.22-.68,43.83s.68,16.65-1.02,24.46c-1.7,7.13-8.49,13.93-7.13,21.4,5.1-2.72,15.63-10.53,19.03-15.29,7.13-9.85,4.08-31.26,3.06-42.81h0l.34.34Z"/>
          <g>
            <path class="cls-11" d="M95.46,81.3c.68,0,1.36,0,1.7-1.02,5.78-10.87,15.63-6.46,15.97-6.12,1.02,0,2.04,0,2.72-1.02,0-1.02,0-2.04-1.02-2.72-4.76-2.04-15.29-3.4-21.06,7.81,0,1.02,0,2.04.68,2.72h1.02v.34Z"/>
            <path class="cls-11" d="M154.58,72.47s1.02.68,1.7,0c9.51-3.74,13.59,4.42,13.59,4.76,0,.68,1.36,1.02,2.04.68.68,0,1.02-1.36.68-2.04-1.7-4.08-7.81-10.53-17.67-6.46-.68,0-1.36,1.36-1.02,2.04v.68h.68v.34Z"/>
            <path class="cls-11" d="M107.35,89.12c0,3.74,2.38,7.13,5.1,7.13s5.44-3.4,5.44-7.13-2.38-7.13-5.1-7.13-5.44,3.4-5.44,7.13Z"/>
            <path class="cls-11" d="M154.58,89.12c0,3.74,2.38,7.13,5.1,7.13s5.44-3.4,5.44-7.13-2.38-7.13-5.1-7.13-5.44,3.4-5.44,7.13Z"/>
            <path class="cls-8" d="M120.26,136.68c.68.68,5.1,10.53,16.99,10.19,11.55,0,16.31-9.17,16.99-10.19"/>
            <path class="cls-12" d="M145.4,116.29c0,4.76-3.74,8.49-8.49,8.49s-8.49-3.74-8.49-8.49,3.74,4.76,8.49,4.76,8.49-9.51,8.49-4.76Z"/>
            <path class="cls-9" d="M175.3,99.31c6.79,0,12.23,5.1,11.89,10.87-.34,5.78-6.46,9.85-13.25,9.51-6.79-.34-12.23-5.1-11.89-10.87s6.46-9.85,13.25-9.51Z"/>
            <path class="cls-9" d="M97.84,99.31c6.79,0,12.23,5.1,11.89,10.87s-6.46,9.85-13.25,9.51c-6.79-.34-12.23-5.1-11.89-10.87s6.46-9.85,13.25-9.51Z"/>
          </g>
        </g>
        <g>
          <path class="cls-16" d="M185.49,437.95c0,2.29-.16,4.55-.46,6.76-1.08,8.01-4.05,15.43-8.46,21.78-9.05,13.04-24.12,21.57-41.19,21.57-13.14,0-25.07-5.05-34.01-13.31-9.89-9.17-16.1-22.26-16.1-36.81,0-17.09,8.56-32.19,21.62-41.23,6.34-4.4,13.74-7.36,21.75-8.44,2.2-.29,4.45-.45,6.74-.45,24.14,0,44.3,17.07,49.05,39.81.7,3.32,1.07,6.76,1.07,10.3Z"/>
          <path class="cls-13" d="M185.49,437.95c0,2.29-.16,4.55-.46,6.76-1.08,8.01-4.05,15.43-8.46,21.78-8.09,5.61-17.92,8.9-28.51,8.9-27.68,0-50.11-22.44-50.11-50.11,0-10.61,3.3-20.45,8.93-28.55,6.34-4.4,13.74-7.36,21.75-8.44,2.2-.29,4.45-.45,6.74-.45,27.68,0,50.11,22.44,50.11,50.11Z"/>
          <path class="cls-6" d="M185.49,437.95c0,2.29-.16,4.55-.46,6.76-7.34,8.63-18.27,14.1-30.49,14.1-22.11,0-40.03-17.92-40.03-40.03,0-12.23,5.49-23.17,14.12-30.5,2.2-.29,4.45-.45,6.74-.45,27.68,0,50.11,22.44,50.11,50.11Z"/>
        </g>
        <g>
          <path class="cls-7" d="M21.74,350.72h0c-13.59-.68-22.08-15.29-17.33-28.88l34.65-83.58c5.1-13.25,19.03-20.04,31.6-14.95h0c14.61,5.78,20.72,24.46,12.57,38.39l-43.83,78.82c-3.74,6.79-10.87,10.53-18.01,10.19h.34Z"/>
          <path class="cls-18" d="M50.27,221.96c-11.55,9.51-26.5,28.88-37.03,71.01l46.88,21.4s32.95-57.76,28.88-79.84c-2.72-15.29-26.16-22.42-39.07-12.23h0l.34-.34Z"/>
          <path class="cls-7" d="M15.28,317.76h0c5.44,0,10.19,1.7,13.93,6.46l68.97,81.2-20.72,14.95L5.43,349.7c-10.87-10.87-4.42-30.58,10.53-31.6h-.68v-.34Z"/>
          <path class="cls-7" d="M118.56,432.26l-20.38-28.54-22.08,12.91s0,.68.68.68c-8.49,31.94,4.08,48.92,4.08,48.92,11.89,16.65,17.67,13.93,20.04,8.83,1.7-3.74,1.7-7.81,0-11.55-5.1-16.31-2.72-40.43-2.72-40.43,20.72,21.06,19.37,8.83,19.37,8.83h1.02v.34Z"/>
        </g>
        <g>
          <path class="cls-7" d="M249.36,350.38h0c13.59-.68,22.08-15.29,17.33-28.88l-34.65-83.58c-5.1-13.25-19.03-20.04-31.6-14.95h0c-14.61,5.78-20.72,24.46-12.57,38.39l43.83,78.82c3.74,6.79,10.87,10.53,18.01,10.19h-.34Z"/>
          <path class="cls-18" d="M220.83,221.62c11.55,9.51,26.5,28.88,37.03,71.01l-46.88,21.4s-32.95-57.76-28.88-79.84c2.72-15.29,26.16-22.42,39.07-12.23h0l-.34-.34Z"/>
          <path class="cls-7" d="M251.74,314.37h0c-5.44,0-9.85,2.72-13.25,7.13l-62.17,86.29,22.08,13.25,66.25-76.1c10.19-11.55,2.38-30.58-12.57-30.58h-.34Z"/>
          <path class="cls-7" d="M156.61,425.12l25.82-23.44,19.03,17.33s-.68.34-1.02.68c2.04,32.96-13.93,46.88-13.93,46.88-14.95,13.93-20.04,10.19-21.4,4.42-1.02-3.74,0-8.15,1.7-11.21,8.49-14.95,11.21-39.07,11.21-39.07-24.46,15.97-20.72,4.42-20.72,4.42h-.68Z"/>
        </g>
        <g>
          <path class="cls-4" d="M122.64,362.81c.12-.37.22-.78.26-1.21.09-1.07-.22-2.2-1.73-2.64-1.03-.3-2.03-.37-2.81-.3-.41.04-.76.12-1.04.22-.25.09-.43.21-.51.34-.11.17-.05.37.24.57.92.63,2.59,1.48,4.1,2.25.53.27,1.04.53,1.5.77h0ZM125.49,361.63c-.1,1.28-.76,2.46-.87,2.68l-.83,1.49-1.59-1.37c-.34-.3-1.62-.95-3.04-1.67-1.57-.79-3.29-1.67-4.31-2.37-.72-.5-.85-1.01-.54-1.48.22-.33.67-.63,1.29-.87.59-.23,1.35-.39,2.2-.48,1.43-.14,3.15-.03,4.83.46,2.45.71,2.99,2.22,2.87,3.61Z"/>
          <path class="cls-2" d="M56.55,470.3c6.4-13.12,41.14-105.47,64.83-106.61,23.88-1.14,89.94,97.72,89.66,98.13-.86,1.26-43.97,40.07-49.83,44.53-5.86,4.46-8.97,6.69-13.45,6.39-4.48-.3-90.35-38.29-91.38-39.4-1.04-1.12.17-3.05.17-3.05Z"/>
          <path class="cls-1" d="M56.55,470.3c6.36-13.03,40.69-104.28,64.37-106.56-23.29,5.26-34.49,67.89-36.21,80.36-1.73,12.49-20.95,24.05-25.18,26.24-4.15,2.16,2.24,5.62,2.46,5.74-3.4-1.57-5.47-2.57-5.62-2.73-1.03-1.12.18-3.05.18-3.05Z"/>
          <path class="cls-5" d="M128.18,433.23c1.38,2.23-66.21,36.58-68.11,38.88-1.87,2.27,31.53,17.22,32.64,17.72,5.45,2.4,11.08,4.86,16.58,7.24,0,0-.01,0-.02,0-61.77-27.62,37.34-41.95,41.13-47.01,3.48-4.63-37.31-49.12-44.14-56.51.23,1.02.58,1.74.63,1.84l13.56,24.53s0,0,0,0c.19.34,6.35,11.11,7.71,13.3Z"/>
          <path class="cls-4" d="M154.17,388.31s59.01,46.65,58.5,49.55c-.52,2.9-9.16,13.24-9.16,13.24l-49.33-62.78Z"/>
          <path class="cls-3" d="M212.57,437.51c.08.15.11.27.1.35-.03.19-.1.42-.2.67-.84,1.39-1.76,2.92-2.67,4.44-2.69,3.83-6.29,8.13-6.29,8.13l-.06-.08-44.63-59.02s38.48,47.35,45.39,48.17c3.65.43,6.43-.96,8.36-2.66Z"/>
          <path class="cls-4" d="M92.75,489.84s-34.57-15.43-32.67-17.73c1.9-2.3,69.48-36.65,68.11-38.88-1.38-2.23-7.71-13.31-7.71-13.31,0,0,14.09,13.83,12.02,15.99-2.07,2.16-71.55,35.39-68.97,37.47,2.58,2.08,29.22,16.47,29.22,16.47Z"/>
          <path class="cls-1" d="M152.7,386.48l58.34,75.35-26.84,24.47s6.21-8.56-1.72-31.45c-7.93-22.9-29.77-68.37-29.77-68.37Z"/>
          <path class="cls-4" d="M120.64,420.22s-10.15-18.39-8.43-29.83c1.73-11.45,11.38-26.32,10.35-26.35s-.78.04-2.59,2.45c-14.53,19.39-13.62,34.37.67,53.74Z"/>
        </g>
      </g>
    </g>
  </g>
</svg>