<?xml version="1.0" encoding="UTF-8"?>
<svg xmlns="http://www.w3.org/2000/svg" xmlns:xlink="http://www.w3.org/1999/xlink" viewBox="0 0 123.47 253.58">
  <defs>
    <style>
      .cls-1, .cls-2 {
        fill: #603813;
      }

      .cls-3 {
        fill: #273758;
      }

      .cls-4 {
        fill: #e6e6e6;
      }

      .cls-5 {
        fill: #d9a2a0;
      }

      .cls-6 {
        fill: #8ea4a3;
        mix-blend-mode: multiply;
        opacity: .2;
      }

      .cls-7 {
        opacity: .11;
      }

      .cls-7, .cls-8, .cls-9 {
        fill: #fff;
      }

      .cls-10, .cls-2 {
        isolation: isolate;
      }

      .cls-11 {
        fill: url(#linear-gradient);
        opacity: .89;
      }

      .cls-12 {
        fill: #caa1a2;
      }

      .cls-9 {
        mix-blend-mode: screen;
        opacity: .83;
      }

      .cls-2 {
        opacity: .5;
      }

      .cls-13 {
        fill: #d9b6b6;
      }

      .cls-14 {
        fill: #466e9f;
      }

      .cls-15 {
        fill: #d9baba;
      }

      .cls-16 {
        fill: #adafb2;
      }

      .cls-17 {
        fill: #dadbdc;
      }

      .cls-18 {
        fill: none;
        stroke: #630;
        stroke-linecap: round;
        stroke-miterlimit: 10;
      }

      .cls-19 {
        fill: #d38a17;
      }
    </style>
    <linearGradient id="linear-gradient" x1="110.14" y1="139.41" x2="110.14" y2="113.21" gradientTransform="translate(243.46 197.66) rotate(166.98)" gradientUnits="userSpaceOnUse">
      <stop offset=".34" stop-color="#9adbf9"/>
      <stop offset=".98" stop-color="#77caf2"/>
    </linearGradient>
  </defs>
  <g class="cls-10">
    <g id="Layer_2" data-name="Layer 2">
      <g id="Layer_1-2" data-name="Layer 1">
        <g id="german-boy-water">
          <g>
            <path class="cls-13" d="M20.62,108.45h0c-3.5,0-5.9-4.1-4.9-8.3l7.3-26.2c1-4.2,4.5-6.5,7.8-5.4h0c3.8,1.3,5.7,6.8,3.9,11.4l-10,24.3c-.8,2.1-2.1,4.2-4,4.2h-.1Z"/>
            <path class="cls-4" d="M25.52,69.25c-3.3,3-7.7,9.4-10.9,22.8l13.2,6.5,1.9-5.2c4.2-7.9,7.6-15.3,6.8-20.4-.6-4.9-7.3-6.9-11-3.6h0v-.1Z"/>
            <g>
              <path id="hand121" class="cls-15" d="M111.52,113.65l5.8-.4c1.2,0,4.4.3,5.3,1.1,1.2,1-1.4,1.4-6.8,2l5.8,6.3s2.9,4.7-1.7,3.4c0,0,1.9,5.5-2.7,3.2,0,0,1.2,5-4.2,1.2l-4.8-4.1c-1.6-1.4-2.8-3.4-3.1-5.5-.3-2.1,0-4.5,2.8-6.1,1-.6,2.3-.9,3.5-1h.1v-.1h0Z"/>
              <path class="cls-13" d="M75.42,100.85h0c1.5-.5,3.2-.5,4.7,0l30,13.6-4.3,5.6-29.7-10.7c-4.6-1.7-5.1-7.1-.8-8.7h0v.2h.1Z"/>
              <g>
                <path class="cls-7" d="M99.6,103.94c1.01,1.92,2.53,9.87,3.85,16.66,1.32,6.79,7.55,17.32,9.53,21.23,1.98,3.91,2.26,5.68,2.26,5.68,0,0,.95,3.83.99,4.27.04.43.61.43.61.43l2.72-.63.41-.09,2.72-.63s.51-.25.36-.65c-.16-.41-.99-4.27-.99-4.27,0,0-.52-1.72-.46-6.1.06-4.39,1.04-16.58-.75-23.26-1.8-6.68-3.92-14.49-3.85-16.66.07-2.17-.16-5.09-2.02-7.39s-5.55-1.82-6.57-1.58l-.38.09-4.25.98-.38.09c-1.02.24-4.55,1.43-5.21,4.31s.41,5.61,1.42,7.53Z"/>
                <path class="cls-11" d="M103.36,120.14l17.36-4.01c-1.77-6.58-3.8-14.09-3.73-16.21.07-2.17-.16-5.09-2.02-7.39s-5.55-1.82-6.57-1.58l-.38.09-4.25.98-.38.09c-1.02.24-4.55,1.43-5.21,4.31-.67,2.88.41,5.61,1.42,7.53.99,1.88,2.47,9.51,3.76,16.2Z"/>
                <path class="cls-16" d="M103.36,92.01l5-1.16c.18-.04,4.53-1.01,6.67,1.62,1.48,1.82,2.15,4.26,2.04,7.45-.07,2.09,1.93,9.5,3.69,16.03l.16.59c1.46,5.42,1.09,14.56.87,20.03-.05,1.3-.1,2.43-.11,3.26-.06,4.31.45,6.06.46,6.07.01.05.83,3.87.98,4.26.15.39-.2.67-.4.77h-.02s-5.87,1.36-5.87,1.36c-.23,0-.66-.1-.7-.51-.04-.42-.97-4.22-.98-4.25,0-.03-.31-1.82-2.26-5.66-.38-.74-.91-1.73-1.53-2.88-2.6-4.81-6.94-12.86-8.01-18.37l-.12-.6c-1.29-6.64-2.75-14.17-3.72-16.03h0c-1.49-2.82-1.96-5.31-1.43-7.59.76-3.3,5.1-4.34,5.28-4.38ZM122.65,150.77c.06-.03.42-.23.3-.53-.16-.41-.96-4.12-.99-4.28-.02-.06-.52-1.77-.46-6.12.01-.84.06-1.96.11-3.27.22-5.45.59-14.58-.86-19.97l-.16-.59c-1.76-6.55-3.76-13.97-3.69-16.09.1-3.14-.56-5.54-2-7.32-2.06-2.54-6.3-1.59-6.48-1.55l-5,1.16c-.18.04-4.41,1.05-5.14,4.24-.52,2.24-.05,4.68,1.41,7.46h0c.99,1.87,2.45,9.42,3.74,16.08l.12.6c1.06,5.48,5.4,13.52,7.99,18.32.62,1.15,1.15,2.14,1.53,2.89,1.97,3.88,2.26,5.64,2.27,5.71.04.15.95,3.84.99,4.28.03.32.43.34.5.34l5.83-1.35Z"/>
                <path class="cls-6" d="M99.6,103.94c1.01,1.92,2.53,9.87,3.85,16.66,1.32,6.79,7.55,17.32,9.53,21.23,1.98,3.91,2.26,5.68,2.26,5.68,0,0,.95,3.83.99,4.27.04.43.61.43.61.43l2.72-.63.41-.09,2.72-.63s.51-.25.36-.65c-.16-.41-.99-4.27-.99-4.27,0,0-.52-1.72-.46-6.1.06-4.39,1.04-16.58-.75-23.26-1.8-6.68-3.92-14.49-3.85-16.66.07-2.17-.16-5.09-2.02-7.39s-5.55-1.82-6.57-1.58l-.37.09-4.25.98-.37.09c-1.02.24-4.55,1.43-5.21,4.31s.41,5.61,1.42,7.53ZM111.78,92.19c3.94.95,3.69,5.15,3.78,8.33.11,3.77,2.49,11.5,3.92,16.58,1.43,5.08,1.46,8.87.79,15.1-.67,6.24.62,13.28.62,13.28l-2.07.56s-2.7-9.32-4.7-14.12c-2-4.8-4.74-19.03-6.55-25.77-1.81-6.74-1.23-3.52-2.71-8.07-1.67-5.17,2.98-6.85,6.91-5.9Z"/>
                <path class="cls-6" d="M99.6,103.94c1.01,1.92,2.53,9.87,3.85,16.66s7.55,17.32,9.53,21.23c1.98,3.91,2.26,5.68,2.26,5.68,0,0,.95,3.83.99,4.27.04.43.61.43.61.43l1.14-.26c-.02-.09-.04-.18-.06-.27-1.16-4.96-2.46-9.94-4.82-14.48-2.28-4.37-4.68-8.7-6.36-13.35-.86-2.38-1.44-4.81-1.97-7.28-.54-2.52-1.04-5.04-1.6-7.56-.27-1.24-.53-2.49-.88-3.71-.32-1.11-.83-2.16-1.33-3.2-.88-1.85-1.72-3.88-1.29-5.96.28-1.37,1.03-2.51,2.02-3.44-1.39.64-3.08,1.81-3.52,3.71-.67,2.88.41,5.61,1.42,7.53Z"/>
                <g>
                  <g>
                    <rect class="cls-17" x="114.54" y="146.66" width="8.75" height="1.16" rx=".57" ry=".57" transform="translate(267.94 263.91) rotate(166.98)"/>
                    <path class="cls-16" d="M115.02,147.47l7.5-1.73c.32-.07.64.13.71.45l.03.11c.07.32-.13.64-.45.71l-7.5,1.73c-.32.07-.64-.13-.71-.45l-.03-.11c-.07-.32.13-.64.45-.71ZM122.78,146.87c.24-.06.4-.3.34-.54l-.03-.11c-.06-.24-.3-.4-.54-.34l-7.5,1.73c-.24.06-.4.3-.34.54l.03.11c.06.24.3.4.54.34l7.5-1.73Z"/>
                  </g>
                  <g>
                    <path class="cls-8" d="M115.95,150.64l6.85-2.32c.14-.05.28.03.33.16h0c.05.14-.03.28-.16.33l-6.85,2.32c-.14.05-.28-.03-.33-.16h0c-.05-.14.03-.28.16-.33Z"/>
                    <path class="cls-16" d="M122.81,148.24c.07-.02.15,0,.22.03.08.04.14.11.17.19.03.08.02.17-.02.25-.04.08-.11.14-.19.17l-6.85,2.32c-.18.06-.36-.03-.42-.21-.03-.08-.02-.17.02-.25.04-.08.11-.14.19-.17l6.85-2.32s.02,0,.03,0ZM116.07,151.07s.01,0,.02,0l6.85-2.32s.09-.05.11-.1c.02-.05.03-.1,0-.14-.02-.05-.05-.09-.1-.11-.05-.02-.1-.03-.14,0l-6.85,2.32h0s-.09.05-.11.1c-.02.05-.03.1,0,.14.03.09.13.14.22.12Z"/>
                  </g>
                  <g>
                    <path class="cls-8" d="M115.69,149.5l6.85-2.32c.14-.05.28.03.33.16h0c.05.14-.03.28-.16.33l-6.85,2.32c-.14.05-.28-.03-.33-.16h0c-.05-.14.03-.28.16-.33Z"/>
                    <path class="cls-16" d="M122.54,147.11c.07-.02.15,0,.22.03.08.04.14.11.17.19.06.17-.03.36-.21.42l-6.85,2.32c-.08.03-.17.02-.25-.02-.08-.04-.14-.11-.17-.19-.06-.17.03-.36.21-.42h0l6.85-2.32s.02,0,.03,0ZM115.81,149.93s.01,0,.02,0l6.85-2.32c.1-.03.15-.14.12-.24-.02-.05-.05-.09-.1-.11-.05-.02-.1-.03-.14,0l-6.85,2.32c-.1.03-.15.14-.12.24.02.05.05.09.1.11.04.02.08.02.13.01ZM115.69,149.5h0s0,0,0,0Z"/>
                  </g>
                  <g>
                    <path class="cls-8" d="M116.21,151.77l6.85-2.32c.14-.05.28.03.33.16h0c.05.14-.03.28-.16.33l-6.85,2.32c-.14.05-.28-.03-.33-.16h0c-.05-.14.03-.28.16-.33Z"/>
                    <path class="cls-16" d="M123.07,149.38c.07-.02.15,0,.22.03.08.04.14.11.17.19.06.17-.03.36-.21.42l-6.85,2.32c-.08.03-.17.02-.25-.02-.08-.04-.14-.11-.17-.19-.06-.17.03-.36.21-.42h0l6.85-2.32s.02,0,.03,0ZM116.34,152.2s.01,0,.02,0l6.85-2.32c.1-.03.15-.14.12-.24-.02-.05-.05-.09-.1-.11-.05-.02-.1-.03-.14,0l-6.85,2.32c-.1.03-.15.14-.12.24.02.05.05.09.1.11.04.02.08.02.13.01ZM116.21,151.77h0s0,0,0,0Z"/>
                  </g>
                  <rect class="cls-9" x="117.26" y="146.52" width="5.77" height=".79" rx=".39" ry=".39" transform="translate(270.3 263.01) rotate(166.98)"/>
                </g>
              </g>
            </g>
          </g>
          <g>
            <path class="cls-13" d="M23.52,100.15h0c.8,1.3,1.1,3,.7,4.7l-7.8,31.9-6.4-3.1,5.1-31.1c.8-4.8,6-6.2,8.5-2.3h0l-.1-.1h0Z"/>
            <path class="cls-13" d="M75.62,108.45h0c3.5,0,5.9-4.1,4.9-8.3l-7.3-26.2c-1-4.2-4.5-6.5-7.8-5.4h0c-3.8,1.3-5.7,6.8-3.9,11.4l10,24.3c.8,2.1,2.1,4.2,4,4.2h.1Z"/>
            <path class="cls-4" d="M70.52,69.25c3.3,3,7.7,9.4,10.9,22.8l-13.2,6.5-1.9-5.2c-4.2-7.9-7.6-15.3-6.8-20.4.6-4.9,7.3-6.9,11-3.6h0v-.1Z"/>
            <path class="cls-13" d="M13.92,146.45l2.5-10.5-6.4-3.1v.4c-7.9,3.9-9.4,10.3-9.4,10.3-1.5,6.2,0,7,1.6,6.7,1-.2,1.9-1,2.5-2,2.5-4.5,7.8-8.4,7.8-8.4-.8,9.1,1.6,6.6,1.6,6.6h-.2Z"/>
          </g>
          <g>
            <path class="cls-13" d="M66.72,203.75c-1.3,19.1-4,38.8-4.6,38.8l-5.9-.4-1.9-39.3-1.5-29.5v-1.2c0-.4,0-.8.2-1.2.8-3.1,3.7-5.5,7-5.1,3.8.3,6.5,3.5,6.4,7.3,1.3,5.9,1,18.2.2,30.7h0l.1-.1h0Z"/>
            <path class="cls-4" d="M64.72,225.85c-1.1,9.7-2.1,16.7-2.6,16.7l-5.9-.4-.8-16.3h9.3Z"/>
            <path class="cls-3" d="M54.52,248.55c0,1.2.7,2.1,1.7,2.8.6.4,23.2,2.5,23.8,2.2,5.1-2.5-18-11.4-18-11.4l-6.2.2s-1.3,5-1.1,6.4h0v-.2h-.2Z"/>
            <g>
              <path class="cls-13" d="M67.52,134.75l-.8,27.8-.2,8.4c0,3.9-3.1,7-7,7.3-4.1.2-6.7-2.9-7-7l-.9-8.6-2.8-26.2v-.8c0-4.9,3.8-9,8.7-9.4,5.2-.4,9.8,3.5,10.2,8.7h0v-.2h-.2,0Z"/>
              <path class="cls-14" d="M67.52,134.75l.4,26.8c0,.6-.4,1-1,1h-17.1c-.6,0-1-.4-1-1l-.2-25.2v-.8c0-4.9,3.8-9,8.7-9.4,5.2-.4,9.8,3.5,10.2,8.7h0v-.1Z"/>
            </g>
          </g>
          <g>
            <path class="cls-13" d="M27.42,203.75c1.3,19.1,4,38.8,4.6,38.8l5.9-.4,1.9-39.3,1.5-29.5v-1.2c0-.4,0-.8-.2-1.2-.8-3.1-3.7-5.5-7-5.1-3.8.3-6.6,3.5-6.4,7.3-1.3,5.9-1,18.2-.2,30.7h0l-.1-.1h0Z"/>
            <path class="cls-4" d="M38.52,225.85l-.8,16.3-5.9.4c-.4,0-1.5-7-2.6-16.7h9.3Z"/>
            <path class="cls-3" d="M39.32,248.55c0,1.2-.7,2.1-1.7,2.8-.6.4-23.2,2.5-23.8,2.2-5.1-2.5,18-11.4,18-11.4l6.2.2s1.3,5,1.1,6.4h0v-.2h.2Z"/>
            <g>
              <path class="cls-13" d="M45.22,135.55v.7l-2.5,26.3-.8,8.5c-.3,4.1-3,7.3-7,7.1-3.9-.2-6.9-3.2-7.1-7.1l-.3-8.4-1.1-27.7c.4-5.2,4.9-9,10-8.8,5,.3,8.8,4.5,8.8,9.4h0Z"/>
              <path class="cls-14" d="M45.22,135.55v.7l-.8,25.4c0,.6-.4.9-.9.9h-16.6c-.6,0-.9-.4-.9-.9l.4-26.8c.4-5.2,4.9-9,10-8.8,5,.3,8.8,4.5,8.8,9.4h0v.1h0Z"/>
            </g>
          </g>
          <path class="cls-4" d="M69.02,68.15l-1.1,6.6-4.2,25.5c-1,4-1.2,8-.6,12H31.12c1.6-4.6,1.9-9.4,1.1-14.2l-4-23.1-1.2-6.8,1.2-.7,16.1-10.2h9.3l14.5,10,1.1.7h0v.2h-.2Z"/>
          <path class="cls-14" d="M67.42,137.55l-17.8,7.7h-5.4l-17.8-7.5c-.6-5.1.3-12.8,1.7-17.8.4-1.5.9-2.9,1.5-4.1.6-1.1,1-2.2,1.3-3.5h32c.3,1.9.7,3.8,1.3,5.5.7,2.1,1.5,4.8,1.9,7.9.6,3,1.7,7.7,1.1,11.7h.2v.1h0Z"/>
          <path class="cls-14" d="M57.02,59.85h0c-2.5,8.1-13.8,8.5-16.8.6v-.3l4.2-2.7h9.3l3.6,2.5h-.3v-.1h0Z"/>
          <g id="german-boy-smiling21">
            <path class="cls-12" d="M44.12,60.05h0c1.9,2.6,6.9,2.5,8.6,0h0c.4-.5.5-1.1.5-1.7v-9.9h-9.8v9.8c0,.6.2,1.2.6,1.8h.1Z"/>
            <path class="cls-15" d="M70.32,33.05c-.9,1.4-2.3,2.5-3.6,2.7h-1.1c-.4,3.8-1.7,7.3-3.7,10.1-3.7,5.5-9.2,8.9-13.3,8.7h-.9c-4.4,0-9.4-3.1-12.9-8.1-1.9-2.8-3.4-6.2-4-10h-.3c-1.3,0-2.9-1.1-3.8-2.6-.2-.2-.3-.5-.4-.7-.2-.4-.3-.7-.4-1h0c-.3-1.4,0-2.7,1.1-3.2h0c1-.4,2.3,0,3.4.7.8-11.6,8.1-21.8,17-22,2.8,0,5.3.7,7.7,2.1,5.4,3.4,9.4,11.5,10.3,19.6.5-.5,1.1-.9,1.7-1.2s1.6-.4,2.4,0c1.6.6,1.8,2.9.6,4.9h.2Z"/>
            <g>
              <path class="cls-1" d="M36.02,26.85c.2,0,.4,0,.5-.3,1.7-3.3,4.7-1.9,4.8-1.8.3,0,.6,0,.8-.3,0-.3,0-.6-.3-.8-1.4-.6-4.6-1-6.3,2.4,0,.3,0,.6.2.8h.3Z"/>
              <path class="cls-1" d="M53.82,24.25s.3.2.5,0c2.9-1.1,4.1,1.3,4.1,1.4,0,.2.4.3.6.2.2,0,.3-.4.2-.6-.5-1.2-2.4-3.2-5.3-1.9-.2,0-.4.4-.3.6v.2h.2v.1h0Z"/>
              <path class="cls-1" d="M39.62,29.25c0,1.1.7,2.1,1.5,2.1s1.6-1,1.6-2.1-.7-2.1-1.5-2.1-1.6,1-1.6,2.1Z"/>
              <path class="cls-1" d="M53.82,29.25c0,1.1.7,2.1,1.5,2.1s1.6-1,1.6-2.1-.7-2.1-1.5-2.1-1.6,1-1.6,2.1Z"/>
              <path class="cls-18" d="M43.42,43.55c.2.2,1.5,3.2,5.1,3.1,3.5,0,4.9-2.8,5.1-3.1"/>
              <path class="cls-2" d="M51.12,37.45c0,1.4-1.1,2.6-2.6,2.6s-2.6-1.1-2.6-2.6,1.1,1.4,2.6,1.4,2.6-2.9,2.6-1.4Z"/>
              <path class="cls-5" d="M60.12,32.35c2,0,3.7,1.5,3.6,3.3s-1.9,3-4,2.9-3.7-1.5-3.6-3.3,1.9-3,4-2.9Z"/>
              <path class="cls-5" d="M36.72,32.35c2,0,3.7,1.5,3.6,3.3s-1.9,3-4,2.9-3.7-1.5-3.6-3.3,1.9-3,4-2.9Z"/>
            </g>
            <path class="cls-19" d="M68.42,15.05c-1.6-5.5-4.9-10.3-10.3-13C53.72-.05,39.12-3.55,31.02,9.65c-3.3,5.3-4,12.1-4,18.2s.9,10.5,4.2,14.7c.5.6,1.1,1.2,1.7,1.7,0,0-.7-3.7-1.2-5.2-1.6-5.4-1.4-11.8.3-17.2.3-.8.6-1.5.9-2.4,0-.4,1.1-2.3,1-2.6,1.7,4.2,7.5,5.8,11.6,6.5-.7-1.1-1.9-1.7-2.6-3-.7-1.2-1.1-2.6-1.5-3.8,4.9,1.8,10,5.3,15.7,5-1.2-1.2-4.5-3.7-4.4-5.7,1.2,1.7,3.4,2.3,5.3,3,1.2.4,2.6.7,3.8,1.1,1,.3,1,.2,1.3,1.1,1.8,6.1,2.7,13.5,1.2,19.8.3-1.5,2.9-4.5,3.4-5.9.6-1.7,1.1-3.5,1.5-5.3.7-3.6.7-7.4.2-10.9-.2-1.3-.5-2.7-.8-3.9h-.2v.2h0Z"/>
          </g>
        </g>
      </g>
    </g>
  </g>
</svg>