<?xml version="1.0" encoding="UTF-8"?>
<svg id="Layer_2" data-name="Layer 2" xmlns="http://www.w3.org/2000/svg" viewBox="0 0 125.98 209.56">
  <defs>
    <style>
      .cls-1, .cls-2 {
        fill: #603813;
      }

      .cls-3 {
        fill: #273758;
      }

      .cls-4 {
        fill: #e6e6e6;
      }

      .cls-5 {
        fill: #c69696;
      }

      .cls-6 {
        fill: #d9a2a0;
      }

      .cls-7, .cls-2 {
        isolation: isolate;
        opacity: .5;
      }

      .cls-7, .cls-8 {
        fill: #d9baba;
      }

      .cls-9 {
        fill: #783640;
      }

      .cls-10 {
        fill: #fff;
      }

      .cls-11 {
        fill: #d9b6b6;
      }

      .cls-12 {
        fill: #466e9f;
      }

      .cls-13 {
        fill: #d38a17;
      }
    </style>
  </defs>
  <g id="Layer_1-2" data-name="Layer 1">
    <g id="boy-kneeling-left">
      <g>
        <path class="cls-11" d="M54.61,171.86c9.24-15.95,20.12-32.12,20.68-31.71l5.76,3.3-14.46,35.36-10.84,26.59-.55,1.13c-.15.31-.35.72-.7.93-2.01,2.32-5.94,2.83-9.23.99-3.29-1.85-4.87-5.66-3.68-8.63.35-.72.54-1.64.79-2.41,1.66-6.05,6.59-15.71,12.29-25.38h0s.02-.05,0,0l-.05-.15h0Z"/>
        <path class="cls-4" d="M64.11,156.17c5.91-9.32,10.77-16.22,11.18-16.02l5.76,3.3-7.18,17.45-9.76-4.73Z"/>
        <path class="cls-3" d="M72.59,137.51c-.07-1.14.66-2.21,1.65-2.84.65-.5,25.62-3.94,26.32-3.76,5.81,1.94-19.31,12.26-19.31,12.26l-6.92.42c0-.11-1.78-4.93-1.63-6.19h0s0,.06,0,0l-.11.12h0Z"/>
        <path class="cls-11" d="M49.1,207.44c-4.57-.07-8.33-2.32-8.38-6.77l.29-17.55-1.03-22.96v-.34c.09-5.71,4.61-10.32,10.32-10.58,5.82-.14,10.67,4.38,10.81,10.21l-2.07,23.95-1.39,16.31c-.41,4.33-4,7.7-8.34,7.75h-.23s0,0,0,0Z"/>
        <path class="cls-12" d="M58.63,182.88l-19.04-.27-.71-22.92h0c.09-5.71,5.29-10.71,11-10.97,5.82-.14,15.7,5.14,15.85,10.97l-7.11,23.19Z"/>
      </g>
      <g>
        <path class="cls-11" d="M79.16,171.86c9.24-15.95,20.12-32.12,20.68-31.71l5.76,3.3-14.46,35.36-10.84,26.59-.55,1.13c-.15.31-.35.72-.7.93-2.01,2.32-5.94,2.83-9.23.99-3.29-1.85-4.87-5.66-3.68-8.63.35-.72.54-1.64.79-2.41,1.66-6.05,6.59-15.71,12.29-25.38h0s.02-.05,0,0l-.05-.15h0Z"/>
        <path class="cls-4" d="M88.66,156.17c5.91-9.32,10.77-16.22,11.18-16.02l5.76,3.3-7.18,17.45-9.76-4.73Z"/>
        <path class="cls-3" d="M97.13,137.51c-.07-1.14.66-2.21,1.65-2.84.65-.5,25.62-3.94,26.32-3.76,5.81,1.94-19.31,12.26-19.31,12.26l-6.92.42c0-.11-1.78-4.93-1.63-6.19h0s0,.06,0,0l-.11.12h0Z"/>
        <path class="cls-11" d="M73.34,206.94c-4.57-.07-7.96-1.39-8.01-5.84l-.08-18.49-1.03-22.96v-.34c.09-5.71,4.61-10.32,10.32-10.58,5.82-.14,10.67,4.38,10.81,10.21l-2.07,23.95-1.52,17.91c-.41,4.33-3.86,6.1-8.2,6.15h-.23s0,0,0,0Z"/>
        <path class="cls-12" d="M84.18,182.88l-19.04-.27-4.3-19.73.49-4.02c.09-5.71,7.39-9.88,13.1-10.14,5.82-.14,10.67,4.38,10.81,10.21l-1.07,23.95Z"/>
      </g>
      <g>
        <path class="cls-11" d="M36.52,113.94h0c.5,1.79.44,3.76-.4,5.46l-17.05,33.92-6.3-5.16,13.62-33.74c2.02-5.15,8.46-5.41,10.12-.49h0Z"/>
        <path class="cls-11" d="M34.24,119.81h0c-4.03.34-9.74-1.47-6.14-9.22l6.97-30.67c1.01-4.89,4.84-7.71,8.65-6.53h0c4.4,1.33,6.95,7.5,5.1,12.8l-10.13,28.47c-.86,2.42-2.2,5.05-4.32,5.15h-.12s0,0,0,0Z"/>
        <path class="cls-4" d="M39.16,73.38c-3.64,3.78-8.08,11.41-10.41,27.11l15.71,6.21,1.58-6.07c4.15-9.53,7.33-18.26,6.09-24.18-1.26-5.56-8.97-7.31-12.97-3.07h0Z"/>
        <path class="cls-8" d="M14.94,147.93c-2.82-.34-9.01-.14-14.44,4.58-.8.69-.24,1.98.78,1.88h0s-2.4.93-.63,3.5c0,0-1.39,3.27,2.41,2.01l8.81-2.39s-2.05,1.62-3.22,2.98c-.59.72.08,1.73.9,1.47.96-.24,2.54-.91,4.94-2.42,0,0,10.36-7,3.3-10.85-1.01-.55-1.86-.65-2.99-.72l.14.02s0-.04,0,0v-.07h0,0Z"/>
      </g>
      <path class="cls-4" d="M41.06,129.85c-.03-9.57-.41-19.22-.91-28.75l-.63-10.81c-.4-7.41-4.69-19.5,9.7-20.9,2.78-1.7,5.91-3.49,5.91-3.49l10.61-1.43,3.2,2.39,8.36,3.28c3.2,2.39,3.32,8.29,3.01,12.22l.93,33.95c-.13,2.14.65,7.7.75,9.95-.35.04-2.78.84-5.81,1.63-12.53,3.02-22.72,4.36-34.76,2.03l-.35.04v-.12h-.01,0Z"/>
      <path class="cls-12" d="M38.72,154.19l.23-11.64c.44-2.69.9-5.39,1.47-7.96.17-1.76.46-3.52.62-5.16.01-.71.29-1.4.31-2.11,13.07,3.9,27.28,3.25,40.65-1.06l-.04,1.76c-.37,5.16.31,10.36,1.91,15.32.98,2.84,1.57,6.03,1.9,8.98.63,8-1.46,13.96-1.46,13.96h0l-19.56,7.85h-5.6c0,.11-19.72-7.81-19.72-7.81"/>
      <path class="cls-12" d="M38.89,159.79h0s0-.03,0,0"/>
      <g>
        <path class="cls-11" d="M80.96,107.24h0c-1.04,1.4-1.41,3.57-1,5.3l7.2,37.2,7.47-3.24-4.02-36.11c-.56-5.5-6.55-7.49-9.54-3.16h-.12Z"/>
        <path class="cls-11" d="M84.07,116.97h0c3.94.42,7.13-4.27,6.04-9.24l-6.66-30.64c-.85-4.88-4.69-7.8-8.6-6.69h0c-4.48,1.28-6.92,7.44-5.08,12.81l10.1,28.52c.85,2.52,2.29,5.09,4.43,5.22l-.24.02h0Z"/>
        <path class="cls-4" d="M80.76,71.57c3.68,3.65,8.34,11.2,11.24,26.86l-15.61,6.78-1.8-6.08c-4.5-9.35-7.86-17.99-6.68-23.9.98-5.54,8.69-7.62,12.76-3.54h.12s0-.05,0-.01v-.12h-.02Z"/>
        <path class="cls-11" d="M89.16,161.36l-2.19-12.3,7.47-3.24.05.47c9.01,4.88,10.25,12.43,10.25,12.43,1.22,7.32-.6,8.09-2.18,7.67-1.1-.36-2.01-1.21-2.73-2.44-2.66-5.17-8.59-10.11-8.59-10.11.36,10.6-2.07,7.54-2.07,7.54h-.01Z"/>
      </g>
      <path class="cls-12" d="M51.28,72.2c.47,4.68,5.83,7.33,9.94,4.78,4.13-2.43,6.52-6.8,7.71-10.24l-3.2-2.39-10.61,1.43s-1.74,1.47-4.01,3.59c-.14.96.07,1.88.03,2.71h.12s.01.11.01.11h0Z"/>
      <g>
        <path class="cls-13" d="M43.96,11.04c.67-2.67,1.95-5.28,3.64-7.22-.26-.21-.41-.55-.67-.76,1.01-.57,2.36-1.18,3.53-1.3,6.17-.87,12.56,1.56,17.12,5.71,3.89,3.38,6.82,7.82,8.74,12.7,4.51,10.65,5.08,25.6-5.68,32.6-2.89,1.83-6.6,3.75-9.94,3.37-3.46-.36-6.31-2.79-8.27-5.77-3.64-5.54-6.24-12.6-7.95-18.92-1.61-6.57-2.34-13.7-.53-20.39h0Z"/>
        <path class="cls-5" d="M59.51,69.48h0c3.73-.5,6.21-3.94,5.74-7.56l-1.79-12.94-10.61,1.43,2.19,15.73c.21,2.11,2.25,3.55,4.36,3.34h.12s0,0,0,0Z"/>
        <path class="cls-8" d="M31.26,35.6c.13,1.28.26,2.58.62,3.72.08.82.29,1.63.59,2.3.68,2.06,1.22,3.9,2.24,5.68.31.68.6,1.24,1.02,1.91,4.61,8.16,11.84,13.1,19.44,12.21,3.62-.37,6.86-2.23,9.53-4.99.66-.54,1.18-1.18,1.69-1.94,4.37-5.88,6.68-14.51,5.37-23.94-2.06-15.62-12.56-27.09-23.77-25.71-1.64.17-3.24.68-4.7,1.42-8.44,4.16-13.61,16.16-11.9,29.45h-.12s-.01-.11-.01-.11h0Z"/>
        <g>
          <path class="cls-1" d="M59.8,31.41c-.25.03-.51.05-.67-.31-2.55-3.82-6.04-1.81-6.16-1.67-.38.04-.76.08-1.04-.28-.04-.38-.08-.76.28-1.04,1.68-.93,5.54-1.84,8.11,2.11.04.38.08.76-.15,1.03l-.38.04v.13s0,0,0,0Z"/>
          <path class="cls-1" d="M37.53,30.36s-.35.29-.63.06c-3.67-1.02-4.88,2.15-4.87,2.27.03.25-.47.43-.73.33-.25.03-.43-.47-.33-.73.47-1.58,2.51-4.2,6.31-3.06.25-.03.56.46.45.72l.03.25-.25.03v.13h.01,0Z"/>
          <path class="cls-1" d="M55.69,34.75c.14,1.38-.62,2.74-1.62,2.84s-2.15-1.06-2.29-2.44.62-2.74,1.62-2.84,2.15,1.06,2.29,2.44Z"/>
          <path class="cls-1" d="M38.16,36.53c.14,1.38-.62,2.74-1.62,2.84s-2.15-1.06-2.29-2.44.62-2.74,1.62-2.84,2.15,1.06,2.29,2.44Z"/>
          <g>
            <path class="cls-3" d="M54.45,48.89s.54,2.44-.6,4.4c-.64,1.1-1.7,2.2-3.53,2.69,0,0-2.65.91-4.78-.5-.9-.93-1.22-1.48-2.31-3.64l11.22-2.96h0Z"/>
            <path class="cls-9" d="M53.86,53.28c-.64,1.1-1.7,2.2-3.53,2.69,0,0-2.21.72-4.78-.5,1.44-1.21,4.5-2.95,8.31-2.2h0Z"/>
            <polygon class="cls-10" points="53.19 49.22 52.88 50.75 45.05 52.82 44.1 51.62 53.19 49.22"/>
          </g>
          <path class="cls-2" d="M42.91,43.19c-1.14,1.39-.94,3.28.45,4.42s3.28.94,4.42-.45-2.24.48-3.62-.53c-1.39-1.14-.22-4.69-1.36-3.43h.13s0-.01,0-.01Z"/>
          <path class="cls-6" d="M32.39,41.2c.74,2.22,1.32,4.2,2.4,6.13.33.73.65,1.33,1.1,2.05,1.17-1.01,1.63-2.72,1.35-4.22-.23-2.27-2.43-3.83-4.72-3.85h-.13s-.01-.12-.01-.12h.01Z"/>
          <path class="cls-6" d="M59.6,38.19c-2.53.26-4.34,2.35-4.01,4.49s2.77,3.42,5.27,3.03,4.34-2.35,4.01-4.49-2.77-3.42-5.27-3.03Z"/>
        </g>
        <path class="cls-7" d="M64.21,56.35l.24-.02c.66-.54,1.18-1.18,1.69-1.94,4.37-5.88,6.68-14.51,5.38-23.83-2.06-15.62-12.56-27.09-23.77-25.71-1.64.17-3.24.68-4.7,1.42,9.56,5.64,27.14,21.71,21.17,50.2h0v-.12h-.01Z"/>
        <g>
          <path class="cls-8" d="M67.94,27.97c-.82,3.63.35,6.94,2.64,7.41s4.76-2.02,5.56-5.76-.35-6.94-2.64-7.41c-2.18-.49-4.76,2.02-5.56,5.76Z"/>
          <path class="cls-7" d="M67.94,27.97c-.82,3.63.35,6.94,2.64,7.41s4.76-2.02,5.56-5.76-.35-6.94-2.64-7.41c-2.18-.49-4.76,2.02-5.56,5.76Z"/>
        </g>
        <path class="cls-13" d="M32.66,43.59c-1.21-5.95-2.03-13.01-.94-17.56.66-1.18.34-.54,1.14-1.49.66-.58,2.35-1.2,2.16-1.56,2.75,4.44,9.26,5.27,14,5.23-1.07-1.11-2.41-1.66-3.37-2.91s-1.71-2.68-2.42-3.99c5.82,1.2,11.95,4.16,18.09,2.85-1.57-1.16-5.58-3.44-5.97-5.71,1.68,1.78,4.21,1.99,6.4,2.4,1.43.28,2.94.41,4.34.55,3.12,6.58,4.57,17.33,3.05,23.8,1.89-3.56,2.59-11.96.97-20.73-.3-1.76.44-3.31,1.6-4.54h0c.86-.79,1.14-2.14,1.06-3.28-.2-1.14-.53-2.37-1.08-3.44l.26.08c-1.84-3.44-4.66-6.06-7.87-8.1-2.08-1.2-4.38-2.23-6.63-3.01-1.25-.69-2.44-1.13-3.76-1.56-5.98-2.42-22.74,1.93-26.72,16.33-1.16,3.95-2.3,7.8-.94,9.04,3.58,3.25,4.33-4.16,3.58,3.25-.13,1.22-.21,1.72.06,4.55"/>
      </g>
    </g>
  </g>
</svg>