<?xml version="1.0" encoding="UTF-8"?>
<svg id="Layer_2" data-name="Layer 2" xmlns="http://www.w3.org/2000/svg" viewBox="0 0 123.49 253.58">
  <defs>
    <style>
      .cls-1 {
        fill: #bae6ef;
      }

      .cls-2, .cls-3 {
        fill: #603813;
      }

      .cls-4 {
        fill: #273758;
      }

      .cls-5 {
        fill: #e6e6e6;
      }

      .cls-6 {
        fill: #d9a2a0;
      }

      .cls-7 {
        fill: #578c9e;
      }

      .cls-8 {
        fill: #caa1a2;
      }

      .cls-9 {
        opacity: .36;
      }

      .cls-10 {
        fill: #a5c9d2;
      }

      .cls-3 {
        isolation: isolate;
        opacity: .5;
      }

      .cls-11 {
        fill: #bde5e9;
      }

      .cls-12 {
        fill: #d9b6b6;
      }

      .cls-13 {
        fill: #466e9f;
      }

      .cls-14 {
        fill: #d9baba;
      }

      .cls-15 {
        fill: none;
        stroke: #630;
        stroke-linecap: round;
        stroke-miterlimit: 10;
      }

      .cls-16 {
        fill: #d38a17;
      }
    </style>
  </defs>
  <g id="Layer_1-2" data-name="Layer 1">
    <g id="german-boy-water">
      <g>
        <path class="cls-12" d="M20.62,108.45h0c-3.5,0-5.9-4.1-4.9-8.3l7.3-26.2c1-4.2,4.5-6.5,7.8-5.4h0c3.8,1.3,5.7,6.8,3.9,11.4l-10,24.3c-.8,2.1-2.1,4.2-4,4.2h-.1Z"/>
        <path class="cls-5" d="M25.52,69.25c-3.3,3-7.7,9.4-10.9,22.8l13.2,6.5,1.9-5.2c4.2-7.9,7.6-15.3,6.8-20.4-.6-4.9-7.3-6.9-11-3.6h0v-.1Z"/>
        <g>
          <path id="hand12" class="cls-14" d="M111.52,113.65l5.8-.4c1.2,0,4.4.3,5.3,1.1,1.2,1-1.4,1.4-6.8,2l5.8,6.3s2.9,4.7-1.7,3.4c0,0,1.9,5.5-2.7,3.2,0,0,1.2,5-4.2,1.2l-4.8-4.1c-1.6-1.4-2.8-3.4-3.1-5.5-.3-2.1,0-4.5,2.8-6.1,1-.6,2.3-.9,3.5-1h.1v-.1Z"/>
          <path class="cls-12" d="M75.42,100.85h0c1.5-.5,3.2-.5,4.7,0l30,13.6-4.3,5.6-29.7-10.7c-4.6-1.7-5.1-7.1-.8-8.7h0v.2h.1Z"/>
          <g>
            <path class="cls-10" d="M99.92,139.36c1.05,2.99,5.38,4.79,7.71,5.75.35.15.75.31.91.39.32.56.89,3.17,1.29,5.5l-.13.13-.05.12c-.4.89.24,1.8.68,2.2l.23.21,2.27-.37.02.1h.07s1.83-.41,1.83-.41l1.85-.3h.07s-.02-.11-.02-.11l2.24-.49.14-.28c.26-.53.52-1.62-.18-2.3l-.09-.09-.17-.07c-.49-2.32-.92-4.96-.83-5.59.12-.14.43-.44.7-.7,1.8-1.76,5.16-5.03,5.04-8.19-.14-3.48-6.88-28.56-7.73-31.71.17-.38.39-1.07.25-1.78-.15-.78-.97-3.23-1.07-3.54-.09-.28-.63-1.59-2.92-1.69-1.49-.07-4.42.12-6.69.43h0c-.32.03-.7.09-1.14.17-.06.01-.12.02-.18.04-.06.01-.12.02-.19.03-.44.08-.82.17-1.12.26h0c-2.22.55-5.01,1.46-6.37,2.07-2.09.94-2.11,2.35-2.09,2.65.02.32.16,2.9.31,3.68.14.71.59,1.27.89,1.56.37,3.25,3.36,29.04,4.52,32.33Z"/>
            <path class="cls-11" d="M98.15,124.58c.47,1.32,2.17-.18,3.5-.6.52-.21,1.42-.53,3.04-.92l4.43-.66c1.81-.41,3.64-.51,4.62-.6,1.8-.21,5.02.59,4.95-1.07.01-2.58-4.98-19.63-4.98-19.63,0,0,.46-.59.35-1.13s-.83-2.44-.83-2.44c0,0-.23-.78-2.09-.76-1.29.01-3.99.26-6.15.58h0c-.33.04-.74.11-1.19.2-.45.08-.85.17-1.17.26h0c-2.13.5-4.72,1.27-5.93,1.73-1.73.67-1.66,1.48-1.66,1.48,0,0,.03,2.03.13,2.57s.75.92.75.92c0,0,1.25,17.69,2.22,20.08Z"/>
            <g class="cls-9">
              <path class="cls-7" d="M99.92,139.36c1.05,2.99,5.38,4.79,7.71,5.75.35.15.75.31.91.39.32.56.89,3.17,1.29,5.5l-.13.13-.05.12c-.4.89.24,1.8.68,2.2l.23.21,2.27-.37.02.1h.07s1.83-.41,1.83-.41l1.85-.3h.07s-.02-.11-.02-.11l2.24-.49.14-.28c.26-.53.52-1.62-.18-2.3l-.09-.09-.17-.07c-.49-2.32-.92-4.96-.83-5.59.12-.14.43-.44.7-.7,1.8-1.76,5.16-5.03,5.04-8.19-.14-3.48-6.88-28.56-7.73-31.71.17-.38.39-1.07.25-1.78-.15-.78-.97-3.23-1.07-3.54-.09-.28-.63-1.59-2.92-1.69-1.49-.07-4.42.12-6.69.43h0c-.32.03-.7.09-1.14.17-.06.01-.12.02-.18.04-.06.01-.12.02-.19.03-.44.08-.82.17-1.12.26h0c-2.22.55-5.01,1.46-6.37,2.07-2.09.94-2.11,2.35-2.09,2.65.02.32.16,2.9.31,3.68.14.71.59,1.27.89,1.56.37,3.25,3.36,29.04,4.52,32.33ZM119,150.44c.04.16.03.32,0,.47,0,.06-.01.13-.05.18-.01.02-.03.04-.05.05-.02.03-.03.06-.05.09-.02.03-.06,0-.06-.02-.05.02-.1.03-.15.03-.15.01-.3,0-.45-.02-.16-.02-.33-.04-.49-.06-.67-.08-1.35-.11-2.03-.07-.34.02-.67.06-1,.11-.11.02-.22.04-.33.07-.1.03-.2.07-.3.1-.21.07-.43.15-.66.17-.17.02-.38,0-.49-.17-.11-.18-.02-.42.08-.58.06-.1.12-.18.19-.26.08-.08.17-.15.26-.21.48-.3,1.06-.4,1.6-.5.61-.11,1.22-.22,1.84-.25.33-.01.66,0,.99.03.25.03.49.1.71.26.19.14.36.34.43.58ZM103.55,131.38c-.27-1.91-.46-3.83-.71-5.74-.19-1.45-.42-2.9-.65-4.34-.23-1.5-.46-3-.67-4.5-.22-1.51-.42-3.03-.6-4.54-.12-.96-.33-1.9-.47-2.86-.14-.94-.25-1.93-.07-2.86.08-.39.21-.81.47-1.1.07-.08.16-.15.24-.21.07-.06.14-.09.05-.18-.2-.2-.49-.24-.74-.21-.35.04-.71.13-.96-.23-.23-.33-.32-.79-.38-1.18-.07-.4-.1-.81-.14-1.22-.04-.39-.09-.8,0-1.18.1-.39.37-.65.67-.86.5-.37,1.07-.63,1.63-.86,1.06-.44,2.17-.74,3.28-1,2.18-.51,4.5-.83,6.75-.51.43.06.89.13,1.29.36.34.19.58.5.76.86.19.37.37.75.53,1.13.16.38.34.81.36,1.23.04.84-.93.86-1.48.85-.37,0-.75-.04-1.13-.02-.66.04-1.32.08-1.97.15-1.11.11-2.22.31-3.31.52-.93.18-1.96.41-2.71,1.05.24-.04.48-.07.72-.11,1.13-.19,2.25-.41,3.39-.54,1.08-.13,2.16-.15,3.25-.05,1.41.13,3.17.34,4.04,1.79.28.47.44,1.03.62,1.54.2.59.4,1.18.58,1.77.38,1.22.72,2.46,1.05,3.7.66,2.49,1.35,4.97,1.93,7.47.39,1.66.74,3.33,1.03,5.02.27,1.11.52,2.23.78,3.35.22.98.48,1.95.7,2.93.23,1.01.42,2.04.51,3.07.08.92.09,1.88-.15,2.76-.45,1.68-1.61,2.96-2.71,4.14-.54.57-1.06,1.16-1.44,1.89-.23.44-.39.92-.5,1.41.02.35.06.7.1,1.05.09.72.22,1.42.37,2.13.04.21.09.43.12.64.02.2.02.41-.07.59-.1.21-.3.3-.51.35-.26.06-.54.07-.81.09-.22.02-.44.06-.66.1-.39.21-.85.31-1.26.36-.36.04-.73.06-1.1.02-.29-.03-.56-.16-.78-.39-.49-.52-.66-1.34-.78-2.04-.13-.75-.17-1.52-.3-2.27-.16-.89-.52-1.77-1.11-2.43-.58-.65-1.34-1.06-2.08-1.44-.87-.45-1.78-.84-2.55-1.5-.36-.31-.68-.68-.94-1.1-.3-.49-.47-1.03-.62-1.59-.47-1.71-.71-3.46-.86-5.23Z"/>
            </g>
            <path class="cls-1" d="M106.32,138.3s0,0,0,0c0,0,0,0,0,0,0,0,0,0,0,0,0,0,0,0,0,0Z"/>
            <path class="cls-1" d="M116.64,148.04s0,0,0,0c0,0,0,0,0,0,0,0,0,0,0,0Z"/>
            <path class="cls-1" d="M99.47,123.74c.23.08.53.08.75-.04.18-.05.35-.13.5-.25.04-.03.08-.09.06-.15-.06-.22-.3-.33-.47-.39-.24-.08-.5-.11-.74-.09-.19.02-.42.07-.5.29-.1.29.18.56.41.64Z"/>
            <path class="cls-1" d="M100.1,103.74c.09.11.23.11.35.09.15-.02.29-.07.44-.12.4-.14.82-.23,1.24-.33.98-.26,1.96-.5,2.95-.71.99-.21,2-.37,3.01-.49.51-.06,1.02-.1,1.54-.15.5-.04,1.01-.07,1.51-.12.49-.05.98-.13,1.47-.15.13-.02.27-.04.4-.06.19-.03.37-.05.54-.14.11-.06.21-.15.27-.27.06-.12.08-.25.07-.39,0-.1-.02-.19-.05-.28-.08-.21-.2-.36-.4-.45-.23-.11-.48-.13-.73-.17-.27-.03-.54-.05-.82-.06-.56-.01-1.12.04-1.68.11-1.15.16-2.28.46-3.4.77-1.17.32-2.33.66-3.48,1.04-.55.18-1.1.39-1.63.64-.24.12-.48.26-.71.39-.21.12-.43.24-.61.41-.09.08-.17.18-.25.28-.02.03-.04.1-.01.14Z"/>
          </g>
        </g>
      </g>
      <g>
        <path class="cls-12" d="M23.52,100.15h0c.8,1.3,1.1,3,.7,4.7l-7.8,31.9-6.4-3.1,5.1-31.1c.8-4.8,6-6.2,8.5-2.3h0l-.1-.1Z"/>
        <path class="cls-12" d="M75.62,108.45h0c3.5,0,5.9-4.1,4.9-8.3l-7.3-26.2c-1-4.2-4.5-6.5-7.8-5.4h0c-3.8,1.3-5.7,6.8-3.9,11.4l10,24.3c.8,2.1,2.1,4.2,4,4.2h.1Z"/>
        <path class="cls-5" d="M70.52,69.25c3.3,3,7.7,9.4,10.9,22.8l-13.2,6.5-1.9-5.2c-4.2-7.9-7.6-15.3-6.8-20.4.6-4.9,7.3-6.9,11-3.6h0v-.1Z"/>
        <path class="cls-12" d="M13.92,146.45l2.5-10.5-6.4-3.1v.4c-7.9,3.9-9.4,10.3-9.4,10.3-1.5,6.2,0,7,1.6,6.7,1-.2,1.9-1,2.5-2,2.5-4.5,7.8-8.4,7.8-8.4-.8,9.1,1.6,6.6,1.6,6.6h-.2,0Z"/>
      </g>
      <g>
        <path class="cls-12" d="M66.72,203.75c-1.3,19.1-4,38.8-4.6,38.8l-5.9-.4-1.9-39.3-1.5-29.5v-1.2c0-.4,0-.8.2-1.2.8-3.1,3.7-5.5,7-5.1,3.8.3,6.5,3.5,6.4,7.3,1.3,5.9,1,18.2.2,30.7h0l.1-.1Z"/>
        <path class="cls-5" d="M64.72,225.85c-1.1,9.7-2.1,16.7-2.6,16.7l-5.9-.4-.8-16.3h9.3Z"/>
        <path class="cls-4" d="M54.52,248.55c0,1.2.7,2.1,1.7,2.8.6.4,23.2,2.5,23.8,2.2,5.1-2.5-18-11.4-18-11.4l-6.2.2s-1.3,5-1.1,6.4h0v-.2h-.2Z"/>
        <g>
          <path class="cls-12" d="M67.52,134.75l-.8,27.8-.2,8.4c0,3.9-3.1,7-7,7.3-4.1.2-6.7-2.9-7-7l-.9-8.6-2.8-26.2v-.8c0-4.9,3.8-9,8.7-9.4,5.2-.4,9.8,3.5,10.2,8.7h0v-.2h-.2Z"/>
          <path class="cls-13" d="M67.52,134.75l.4,26.8c0,.6-.4,1-1,1h-17.1c-.6,0-1-.4-1-1l-.2-25.2v-.8c0-4.9,3.8-9,8.7-9.4,5.2-.4,9.8,3.5,10.2,8.7h0v-.1Z"/>
        </g>
      </g>
      <g>
        <path class="cls-12" d="M27.42,203.75c1.3,19.1,4,38.8,4.6,38.8l5.9-.4,1.9-39.3,1.5-29.5v-1.2c0-.4,0-.8-.2-1.2-.8-3.1-3.7-5.5-7-5.1-3.8.3-6.6,3.5-6.4,7.3-1.3,5.9-1,18.2-.2,30.7h0l-.1-.1Z"/>
        <path class="cls-5" d="M38.52,225.85l-.8,16.3-5.9.4c-.4,0-1.5-7-2.6-16.7h9.3Z"/>
        <path class="cls-4" d="M39.32,248.55c0,1.2-.7,2.1-1.7,2.8-.6.4-23.2,2.5-23.8,2.2-5.1-2.5,18-11.4,18-11.4l6.2.2s1.3,5,1.1,6.4h0v-.2h.2Z"/>
        <g>
          <path class="cls-12" d="M45.22,135.55v.7l-2.5,26.3-.8,8.5c-.3,4.1-3,7.3-7,7.1-3.9-.2-6.9-3.2-7.1-7.1l-.3-8.4-1.1-27.7c.4-5.2,4.9-9,10-8.8,5,.3,8.8,4.5,8.8,9.4h0Z"/>
          <path class="cls-13" d="M45.22,135.55v.7l-.8,25.4c0,.6-.4.9-.9.9h-16.6c-.6,0-.9-.4-.9-.9l.4-26.8c.4-5.2,4.9-9,10-8.8,5,.3,8.8,4.5,8.8,9.4h0v.1Z"/>
        </g>
      </g>
      <path class="cls-5" d="M69.02,68.15l-1.1,6.6-4.2,25.5c-1,4-1.2,8-.6,12H31.12c1.6-4.6,1.9-9.4,1.1-14.2l-4-23.1-1.2-6.8,1.2-.7,16.1-10.2h9.3l14.5,10,1.1.7h0v.2h-.2Z"/>
      <path class="cls-13" d="M67.42,137.55l-17.8,7.7h-5.4l-17.8-7.5c-.6-5.1.3-12.8,1.7-17.8.4-1.5.9-2.9,1.5-4.1.6-1.1,1-2.2,1.3-3.5h32c.3,1.9.7,3.8,1.3,5.5.7,2.1,1.5,4.8,1.9,7.9.6,3,1.7,7.7,1.1,11.7h.2v.1Z"/>
      <path class="cls-13" d="M57.02,59.85h0c-2.5,8.1-13.8,8.5-16.8.6v-.3l4.2-2.7h9.3l3.6,2.5h-.3v-.1Z"/>
      <g id="german-boy-smiling2">
        <path class="cls-8" d="M44.12,60.05h0c1.9,2.6,6.9,2.5,8.6,0h0c.4-.5.5-1.1.5-1.7v-9.9h-9.8v9.8c0,.6.2,1.2.6,1.8h.1Z"/>
        <path class="cls-14" d="M70.32,33.05c-.9,1.4-2.3,2.5-3.6,2.7h-1.1c-.4,3.8-1.7,7.3-3.7,10.1-3.7,5.5-9.2,8.9-13.3,8.7h-.9c-4.4,0-9.4-3.1-12.9-8.1-1.9-2.8-3.4-6.2-4-10h-.3c-1.3,0-2.9-1.1-3.8-2.6-.2-.2-.3-.5-.4-.7-.2-.4-.3-.7-.4-1h0c-.3-1.4,0-2.7,1.1-3.2h0c1-.4,2.3,0,3.4.7.8-11.6,8.1-21.8,17-22,2.8,0,5.3.7,7.7,2.1,5.4,3.4,9.4,11.5,10.3,19.6.5-.5,1.1-.9,1.7-1.2s1.6-.4,2.4,0c1.6.6,1.8,2.9.6,4.9h.2Z"/>
        <g>
          <path class="cls-2" d="M36.02,26.85c.2,0,.4,0,.5-.3,1.7-3.3,4.7-1.9,4.8-1.8.3,0,.6,0,.8-.3,0-.3,0-.6-.3-.8-1.4-.6-4.6-1-6.3,2.4,0,.3,0,.6.2.8h.3Z"/>
          <path class="cls-2" d="M53.82,24.25s.3.2.5,0c2.9-1.1,4.1,1.3,4.1,1.4,0,.2.4.3.6.2.2,0,.3-.4.2-.6-.5-1.2-2.4-3.2-5.3-1.9-.2,0-.4.4-.3.6v.2h.2v.1Z"/>
          <path class="cls-2" d="M39.62,29.25c0,1.1.7,2.1,1.5,2.1s1.6-1,1.6-2.1-.7-2.1-1.5-2.1-1.6,1-1.6,2.1Z"/>
          <path class="cls-2" d="M53.82,29.25c0,1.1.7,2.1,1.5,2.1s1.6-1,1.6-2.1-.7-2.1-1.5-2.1-1.6,1-1.6,2.1Z"/>
          <path class="cls-15" d="M43.42,43.55c.2.2,1.5,3.2,5.1,3.1,3.5,0,4.9-2.8,5.1-3.1"/>
          <path class="cls-3" d="M51.12,37.45c0,1.4-1.1,2.6-2.6,2.6s-2.6-1.1-2.6-2.6,1.1,1.4,2.6,1.4,2.6-2.9,2.6-1.4Z"/>
          <path class="cls-6" d="M60.12,32.35c2,0,3.7,1.5,3.6,3.3s-1.9,3-4,2.9-3.7-1.5-3.6-3.3c.1-1.8,1.9-3,4-2.9Z"/>
          <path class="cls-6" d="M36.72,32.35c2,0,3.7,1.5,3.6,3.3-.1,1.8-1.9,3-4,2.9s-3.7-1.5-3.6-3.3,1.9-3,4-2.9Z"/>
        </g>
        <path class="cls-16" d="M68.42,15.05c-1.6-5.5-4.9-10.3-10.3-13C53.72-.05,39.12-3.55,31.02,9.65c-3.3,5.3-4,12.1-4,18.2s.9,10.5,4.2,14.7c.5.6,1.1,1.2,1.7,1.7,0,0-.7-3.7-1.2-5.2-1.6-5.4-1.4-11.8.3-17.2.3-.8.6-1.5.9-2.4,0-.4,1.1-2.3,1-2.6,1.7,4.2,7.5,5.8,11.6,6.5-.7-1.1-1.9-1.7-2.6-3-.7-1.2-1.1-2.6-1.5-3.8,4.9,1.8,10,5.3,15.7,5-1.2-1.2-4.5-3.7-4.4-5.7,1.2,1.7,3.4,2.3,5.3,3,1.2.4,2.6.7,3.8,1.1,1,.3,1,.2,1.3,1.1,1.8,6.1,2.7,13.5,1.2,19.8.3-1.5,2.9-4.5,3.4-5.9.6-1.7,1.1-3.5,1.5-5.3.7-3.6.7-7.4.2-10.9-.2-1.3-.5-2.7-.8-3.9h-.2v.2h0Z"/>
      </g>
    </g>
  </g>
</svg>