<?xml version="1.0" encoding="UTF-8"?>
<svg id="Layer_2" data-name="Layer 2" xmlns="http://www.w3.org/2000/svg" viewBox="0 0 79.55 247.24">
  <defs>
    <style>
      .cls-1, .cls-2 {
        fill: #603813;
      }

      .cls-3 {
        fill: #fff;
      }

      .cls-3, .cls-4, .cls-5, .cls-6 {
        fill-rule: evenodd;
      }

      .cls-7 {
        fill: #273758;
      }

      .cls-8 {
        fill: #e6e6e6;
      }

      .cls-9 {
        fill: #c69696;
      }

      .cls-10 {
        fill: #d9a2a0;
      }

      .cls-4, .cls-11 {
        fill: #d1957c;
      }

      .cls-12 {
        fill: #8b2b0e;
      }

      .cls-13 {
        fill: #3f6138;
      }

      .cls-5 {
        fill: #36313d;
      }

      .cls-6 {
        fill: #b56d4e;
      }

      .cls-2 {
        isolation: isolate;
        opacity: .5;
      }

      .cls-14 {
        fill: #d9b6b6;
      }

      .cls-15 {
        fill: #d9baba;
      }

      .cls-16 {
        fill: none;
        stroke: #630;
        stroke-linecap: round;
        stroke-miterlimit: 10;
      }
    </style>
  </defs>
  <g id="Layer_1-2" data-name="Layer 1">
    <g id="german-girl-teddy">
      <g>
        <path class="cls-14" d="M38.78,167.93v1.2l-3.4,28.8-4.5,38.3h-5.8c-.6,0-1.9-19.6-1.9-38.3s.6-24.3,2.2-30c0-3.7,3-6.7,6.7-6.7s6,2.4,6.6,5.5v1.2h.1Z"/>
        <path class="cls-7" d="M32.18,242.33c0,1.2-.7,2.1-1.6,2.7-.6.4-22.7,2.4-23.3,2.2-5-2.4,17.6-11.2,17.6-11.2l6.1.2s1.3,4.9,1.1,6.2h0c0-.1.1-.1.1-.1h0Z"/>
        <path class="cls-14" d="M33.08,174.73h0c-3.8.4-7.2-2.2-8-5.9l-6.7-34.7c-.4-5.1,3.4-9.5,8.5-10h0c5.1-.4,9.5,3.4,10,8.5l2,34.2c.3,4-1.8,7.5-5.7,7.9,0,0-.1,0-.1,0Z"/>
      </g>
      <g>
        <path class="cls-14" d="M54.18,197.93c0,18.7-1.3,38.3-1.9,38.3h-5.8l-4.5-38.3-3.3-28.8v-2.4c.6-3.1,3.3-5.5,6.6-5.5s6.7,3,6.7,6.7c1.7,5.7,2.2,17.7,2.2,30h0Z"/>
        <path class="cls-7" d="M45.18,242.33c0,1.2.7,2.1,1.6,2.7.6.4,22.7,2.4,23.3,2.2,5-2.4-17.6-11.2-17.6-11.2l-6.1.2s-1.3,4.9-1.1,6.2h0l-.1-.1h0Z"/>
        <path class="cls-14" d="M44.38,174.73h0c3.8.4,7.2-2.2,8-5.9l6.7-34.7c.4-5.1-3.4-9.5-8.5-10h0c-5.1-.4-9.5,3.4-10,8.5l-2,34.2c-.3,4,1.8,7.5,5.7,7.9h.1Z"/>
      </g>
      <path class="cls-14" d="M55.28,96.93c-1.5,5.7-1.2,11.7.7,17.3.7,2.1,1.4,4.7,1.8,7.8.5,3,1.2,7.7,1.2,11.5l-18.9,7.5h-2.8l-18.9-7.2c0-5.2.7-12.8,2.1-17.6.4-1.4.9-2.8,1.4-4,2.5-5.4,3.5-11.4,2.5-17.3l-3.9-22.6-1.2-6.7,1.2-.7,15.7-9.9h9.1l14.2,9.8,1.1.7-1.1,6.5-4.1,25h0l-.1-.1h0Z"/>
      <path class="cls-8" d="M55.28,96.93c-1.5,5.7-1.2,11.7.7,17.3.7,2.1,1.4,4.7,1.8,7.8H20.48v-5.8c.4-1.4.9-2.8,1.4-4,2.5-5.4,3.5-11.4,2.5-17.3l-3.9-22.6-1.1-6.7,12.7-8,4.1-2.6h9.1l3.5,2.4,11.8,8.1-1.1,6.5-4.1,25h0c0-.07-.03-.1-.1-.1Z"/>
      <path class="cls-13" d="M23.78,108.53s-11.6,30-11.1,58.1c0,1.5.9,2.7,2.1,3.1,7.9,2.1,36.8,8.9,50.7-1.7.9-.7,1.3-1.9,1.2-3.1-1.1-8.2-5.6-40.7-11.9-56.3-10.2,4.3-20.5,4.1-31.1,0h0c0-.07.03-.1.1-.1Z"/>
      <g>
        <path class="cls-12" d="M64.28,38.13c0-4.7-2.2-8.3-4-12.1-.8-1.7-1.6-4.7-2.8-6-1.6-1.7-5.4-.9-7.4-1-7.4-.3-14.8.2-22.2,1.1-2.3.3-3.7-.6-4.6,2.7-.6,2.1-1,2.9-1,2.9-2.3,4-6.1,6.4-7.5,11.5-1.1,4.1-.6,9.2,1.8,12.1,0-1.6.2-3.7.5-5.1,1.6,1.2,2.7,3.6,4.3,5s3.4,2.6,5.2,3.3c.2-1.4-.3-3.3,0-4.5,1.3,3.2,4.5,4.6,6.9,6,0-1.9-.5-4.3,1.1-3.2.4.3,1,1.6,1.5,2s1.1.8,1.7,1.1c1.8,1.1,2.6,1.4,4.3,0,1.2-1.1,2.7-2.6,3.7-4,.6,1.2.3,3.2.3,4.6,2,0,4.4-2.4,5.7-4.3.3,1.1,0,2.3.3,3.4,2.6-.3,7.2-5.1,8.4-8,1.2,1.1,2.2,3.6,1.9,5.5,2.1-3.5,2.1-8.8,2.1-13.1h-.2v.1Z"/>
        <path class="cls-9" d="M40.68,58.63h0c-2.5,0-4.5-2-4.5-4.5v-6.7h9.1v6.7c0,2.5-2,4.5-4.5,4.5h-.1Z"/>
        <path class="cls-15" d="M62.58,29.13c-.9,1.5-2.3,2.5-3.7,2.8h-1.2c-.4,3.9-1.8,7.5-3.8,10.4-3.8,5.7-9.5,9.1-13.7,8.9h-1c-4.5,0-9.7-3.1-13.3-8.3-2-2.9-3.5-6.4-4.1-10.3h-.3c-1.4,0-2.9-1.1-3.9-2.6-.2-.3-.3-.5-.4-.8-.2-.4-.3-.7-.4-1.1h0c-.3-1.5,0-2.7,1.2-3.2h0c1-.4,2.3,0,3.5.7.9-11.9,8.3-22.4,17.5-22.6,2.8,0,5.5.8,7.9,2.3,2.3,1.4,4.3,3.6,6,6.3h0c2.4,3.9,4.1,8.9,4.6,13.9h0c.5-.5,1.1-.9,1.7-1.1.8-.4,1.7-.4,2.4,0,1.6.7,1.9,2.9.6,5.1l.4-.3h0v-.1Z"/>
        <path class="cls-12" d="M60.08,32.53c-.3-3.2-.8-8.7-1.1-11.2,0-.9,0-1.7-.2-2.6-.3-6.5-2.4-13.6-7.2-17.2-3.4-2.6-6.5-.4-10.2-1.2-7.1-1.4-15.4,1.7-19.2,8.4-2.3,4-2.7,8.7-1.9,13.2,0,0,.5,8.5.3,10.5-.3,3.4-1.2,9.6.9,12.6,1,1.4,4.1,3.7,5.6,4.5.3-2.2-1.7-4.2-2.1-6.3-.5-2.3-.3-4.8-.3-7.2,0-4.3-.4-8.5-.2-12.8v-1.3c0-.2.2-.3.3-.5,1.1-1.8,2.4-3.4,3.9-4.8,1.6-1.5,3.5-2.3,5.2-3.7,1.6,1.4,3.1,2.9,4.9,4,2.2,1.3,5.2,2.4,7.7,2.6-.3-.6-1-1.2-1.5-1.8-.2-.3-.4-.8-.6-1.1,1.3,1.5,3.5,2.7,5.1,3.8,1.5,1.1,3.4,1.6,5.1,2.2,0-.6-1.5-3.3-1.9-4.1.6.8,1.5,1.3,2,2.1.6.8,1,1.7,1.4,2.5h0c.2,4.4-.2,8.6-.2,12.9s.2,4.9-.3,7.2c-.5,2.1-2.5,4.1-2.1,6.3,1.5-.8,4.6-3.1,5.6-4.5,2.1-2.9,1.2-9.2.9-12.6h0s.1.1.1.1Z"/>
        <g>
          <path class="cls-1" d="M27.98,23.93c.2,0,.4,0,.5-.3,1.7-3.2,4.6-1.9,4.7-1.8.3,0,.6,0,.8-.3,0-.3,0-.6-.3-.8-1.4-.6-4.5-1-6.2,2.3,0,.3,0,.6.2.8h.3v.1Z"/>
          <path class="cls-1" d="M45.38,21.33s.3.2.5,0c2.8-1.1,4,1.3,4,1.4,0,.2.4.3.6.2.2,0,.3-.4.2-.6-.5-1.2-2.3-3.1-5.2-1.9-.2,0-.4.4-.3.6v.2h.2s0,.1,0,.1Z"/>
          <path class="cls-1" d="M31.48,26.23c0,1.1.7,2.1,1.5,2.1s1.6-1,1.6-2.1-.7-2.1-1.5-2.1-1.6,1-1.6,2.1Z"/>
          <path class="cls-1" d="M45.38,26.23c0,1.1.7,2.1,1.5,2.1s1.6-1,1.6-2.1-.7-2.1-1.5-2.1-1.6,1-1.6,2.1Z"/>
          <path class="cls-16" d="M35.28,40.23c.2.2,1.5,3.1,5,3,3.4,0,4.8-2.7,5-3"/>
          <path class="cls-2" d="M42.68,34.23c0,1.4-1.1,2.5-2.5,2.5s-2.5-1.1-2.5-2.5,1.1,1.4,2.5,1.4,2.5-2.8,2.5-1.4Z"/>
          <path class="cls-10" d="M51.48,29.23c2,0,3.6,1.5,3.5,3.2s-1.9,2.9-3.9,2.8-3.6-1.5-3.5-3.2,1.9-2.9,3.9-2.8Z"/>
          <path class="cls-10" d="M28.68,29.23c2,0,3.6,1.5,3.5,3.2s-1.9,2.9-3.9,2.8-3.6-1.5-3.5-3.2,1.9-2.9,3.9-2.8Z"/>
        </g>
      </g>
      <g>
        <path class="cls-6" d="M57.68,153.48c-3.96,4.42-18.52,3.85-18.52,3.85,0,0-14.57.05-18.36-4.55-7.07-8.54.18-24.57,5.93-34.13.87-1.42,1.68-2.71,2.42-3.8l10.72,3.66,10.85-3.25c.66,1.09,1.42,2.34,2.18,3.72,5.42,9.78,12.18,26.2,4.72,34.53l.07-.03Z"/>
        <path class="cls-11" d="M57.71,144.98c-.07,3.58-.75,6.96-1.92,9.97-5.46,2.8-16.43,2.33-16.43,2.33,0,0-10.98.02-16.33-2.95-1.05-3.05-1.6-6.48-1.54-10.03.25-13,8.56-23.4,18.56-23.21,10,.19,17.91,10.9,17.66,23.9Z"/>
        <path class="cls-6" d="M55.44,139.49c3.97.08,7.29-3.12,7.37-7.09.08-3.97-3.12-7.29-7.09-7.37-3.97-.08-7.29,3.12-7.37,7.09-.08,3.97,3.12,7.29,7.09,7.37Z"/>
        <path class="cls-6" d="M24.33,138.9c3.97.08,7.29-3.12,7.37-7.09s-3.12-7.29-7.09-7.37-7.29,3.12-7.37,7.09c-.08,3.97,3.12,7.29,7.09,7.37Z"/>
        <path class="cls-6" d="M54.66,163.33c-5.2,1.07-10.5-3.1-11.78-9.28-1.28-6.18,1.93-12.12,7.13-13.19,5.2-1.07,10.5,3.1,11.78,9.28,1.28,6.18-1.93,12.12-7.13,13.19h0Z"/>
        <path class="cls-4" d="M53.95,159.77c-3.57.75-7.16-2.12-8.03-6.34s1.3-8.28,4.86-9c3.53-.75,7.16,2.12,8.03,6.34s-1.3,8.28-4.86,9Z"/>
        <path class="cls-6" d="M23.03,162.73c5.19,1.27,10.68-2.73,12.19-8.89,1.52-6.19-1.46-12.28-6.65-13.55s-10.68,2.73-12.19,8.89c-1.52,6.19,1.46,12.28,6.65,13.55Z"/>
        <path class="cls-4" d="M23.91,159.16c3.54.88,7.27-1.85,8.33-6.07,1.03-4.22-.98-8.36-4.55-9.24-3.54-.88-7.27,1.85-8.33,6.07-1.03,4.22.98,8.36,4.55,9.24Z"/>
        <g>
          <path class="cls-6" d="M55.99,86.55c3.42.07,6.13,3.34,6.05,7.28-.08,3.94-2.91,7.11-6.33,7.05s-6.13-3.34-6.05-7.28c.08-3.97,2.91-7.11,6.33-7.05Z"/>
          <path class="cls-4" d="M55.96,88.25c2.61.05,4.68,2.53,4.62,5.56s-2.22,5.43-4.83,5.38-4.68-2.53-4.62-5.56,2.22-5.43,4.83-5.38Z"/>
          <path class="cls-6" d="M31.98,93.26c-.08,3.97-2.91,7.11-6.33,7.05s-6.1-3.31-6.02-7.28,2.91-7.11,6.33-7.05,6.13,3.31,6.05,7.28h-.03Z"/>
          <path class="cls-4" d="M30.55,93.24c-.06,3.03-2.22,5.43-4.83,5.38-2.61-.05-4.68-2.53-4.62-5.56s2.22-5.43,4.83-5.38,4.68,2.53,4.62,5.56Z"/>
          <path class="cls-6" d="M40.07,122.09c10.75.2,19.63-7.32,19.81-16.76.18-9.45-8.44-17.33-19.15-17.54-10.72-.2-19.66,7.35-19.84,16.79-.18,9.45,8.44,17.3,19.15,17.51h.03Z"/>
          <path class="cls-5" d="M34.58,105.66c1.04.02,1.91-.81,1.93-1.85s-.81-1.91-1.85-1.93-1.91.81-1.93,1.85.81,1.91,1.85,1.93Z"/>
          <path class="cls-5" d="M46.08,105.88c1.04.02,1.91-.81,1.93-1.85s-.81-1.91-1.85-1.93-1.91.81-1.93,1.85.81,1.91,1.85,1.93Z"/>
          <path class="cls-3" d="M45.63,103.59c.26,0,.49-.22.5-.48s-.22-.49-.48-.5-.49.22-.5.48.22.49.48.5Z"/>
          <path class="cls-3" d="M34.07,103.37c.26,0,.49-.22.5-.48s-.22-.49-.48-.5-.49.22-.5.48.22.49.48.5Z"/>
          <path class="cls-4" d="M40.12,119.45c4.98.1,9.15-2.95,9.22-6.83.07-3.88-3.94-7.08-8.95-7.18-5.02-.1-9.15,2.95-9.22,6.83s3.94,7.08,8.95,7.18Z"/>
          <path class="cls-5" d="M40.45,112.03c1.73.03,3.15-1.15,3.18-2.64s-1.35-2.73-3.08-2.76c-1.73-.03-3.15,1.15-3.18,2.64s1.35,2.73,3.08,2.76Z"/>
          <path class="cls-5" d="M40.27,111.34c0-.1.1-.19.2-.19s.19.1.19.2l-.05,2.83c0,.52.18.98.53,1.35.32.33.8.57,1.32.58l1.21.02c.46,0,.92-.15,1.25-.43s.57-.67.64-1.13l.15-.84c0-.1.1-.16.23-.16.1,0,.16.1.16.23l-.15.84c-.11.55-.38,1.04-.78,1.39s-.92.54-1.48.53l-1.21-.02c-.62-.01-1.2-.28-1.58-.68-.19-.2-.35-.43-.48-.69-.1.26-.27.48-.47.68-.43.42-.99.63-1.61.62l-1.21-.02c-.55-.01-1.07-.22-1.46-.58s-.67-.83-.72-1.41l-.11-.85c0-.1.07-.19.17-.22.1,0,.19.07.22.17l.11.85c.06.46.28.89.6,1.15.32.3.74.47,1.23.48l1.21.02c.52,0,.98-.18,1.35-.53.33-.32.57-.8.58-1.32l.05-2.83h-.1Z"/>
        </g>
      </g>
      <g>
        <path class="cls-14" d="M6.28,103.18h0c-3.98-.18-6.52-4.53-5.07-8.51l10.23-24.62c1.54-3.89,5.61-5.88,9.32-4.44h0c4.34,1.72,6.06,7.15,3.71,11.32l-12.94,23.17c-1.09,1.99-3.17,3.08-5.34,2.99h0l.09.09h0Z"/>
        <path class="cls-8" d="M14.7,65.34c-3.44,2.81-7.78,8.51-10.86,20.91l13.85,6.34s9.69-17.02,8.51-23.54c-.81-4.53-7.69-6.61-11.5-3.62h0v-.09h0Z"/>
        <path class="cls-14" d="M5.92,94.31h0c1.54.27,2.81,1.18,3.53,2.72l14.39,27.79-6.97,2.9L.85,102.63c-2.44-3.8.72-9.05,5.07-8.33h0Z"/>
        <path class="cls-14" d="M28.37,133.41l-4.89-9.05-6.97,2.9s.09.18.18.27c-3.71,8.96-.63,14.39-.63,14.39,2.81,5.34,4.62,4.71,5.52,3.35.63-1,.81-2.17.54-3.35-.91-4.98.72-11.95.72-11.95,5.25,6.88,5.34,3.35,5.34,3.35h.18v.09Z"/>
      </g>
      <g>
        <path class="cls-14" d="M73.36,103.09h0c3.98-.18,6.52-4.53,5.07-8.51l-10.23-24.62c-1.54-3.89-5.61-5.88-9.32-4.44h0c-4.34,1.72-6.06,7.15-3.71,11.32l12.94,23.17c1.09,1.99,3.17,3.08,5.34,2.99h0l-.09.09h0Z"/>
        <path class="cls-8" d="M64.94,65.25c3.44,2.81,7.78,8.51,10.86,20.91l-13.85,6.34s-9.69-17.02-8.51-23.54c.81-4.53,7.69-6.61,11.5-3.62h0v-.09h0Z"/>
        <path class="cls-14" d="M73.27,93.49h0c-1.54.36-2.72,1.36-3.35,2.9l-12.49,28.69,7.15,2.44,14.3-26.07c2.17-3.98-1.27-8.96-5.52-7.97h-.09,0Z"/>
        <path class="cls-14" d="M53.44,134.04l4.25-9.32,7.15,2.44c0,.09-.09.18-.18.27,4.34,8.69,1.63,14.3,1.63,14.3-2.44,5.52-4.25,5.07-5.25,3.71-.72-.91-.91-2.17-.81-3.26.54-4.98-1.54-11.86-1.54-11.86-4.8,7.15-5.07,3.62-5.07,3.62h-.18v.09h0Z"/>
      </g>
    </g>
  </g>
</svg>