<?xml version="1.0" encoding="UTF-8"?>
<svg id="Layer_2" data-name="Layer 2" xmlns="http://www.w3.org/2000/svg" viewBox="0 0 74.6 285.32">
  <defs>
    <style>
      .cls-1 {
        fill: #e0a587;
      }

      .cls-2, .cls-3 {
        fill: #603813;
      }

      .cls-4 {
        fill: #d9a2a0;
      }

      .cls-5 {
        fill: #70b5ff;
      }

      .cls-6 {
        fill: #6c3231;
      }

      .cls-7 {
        fill: #db9673;
      }

      .cls-8 {
        fill: #533d24;
      }

      .cls-3 {
        isolation: isolate;
        opacity: .5;
      }

      .cls-9 {
        fill: #98caff;
      }

      .cls-10 {
        fill: #39433e;
      }

      .cls-11 {
        fill: none;
        stroke: #630;
        stroke-linecap: round;
        stroke-miterlimit: 10;
      }
    </style>
  </defs>
  <g id="Layer_1-2" data-name="Layer 1">
    <g id="german-man-standing">
      <g>
        <path class="cls-1" d="M66.6,151.49l6-.3-.2-41.8c0-2.6-2.6-4.5-5.5-4.4h0c-2.9.1-5.3,2.3-5.2,4.9l4.8,41.7.1-.1Z"/>
        <path class="cls-1" d="M67,164.69v4.3c-.2,2.4,3.3,3.3,4.9,1.3.5-.6.9-1.4,1.1-2.4q.13-.67,0,0c.8-2.6.7-6.3,0-11.1v-2.3c-.1,0-.4-3.3-.4-3.3h0l-6,.2h0l.3,3.3v.3l-3.1,11.4s-.2,4,3.2-1.8v.1Z"/>
        <path class="cls-9" d="M68.7,112.89h0c2.8-1.1,4.3-4.3,3.5-7.1l-7.2-43.1c-.7-4.4-4.9-7.1-9.1-5.8h0c-4.2,1.3-6.6,5.9-5.5,10.1l11.7,42.7c.9,2.9,3.8,4.3,6.6,3.3v-.1Z"/>
        <polygon class="cls-5" points="74.3 105.19 60.2 105.99 60.6 113.69 74.6 112.89 74.3 105.19"/>
      </g>
      <g>
        <path class="cls-1" d="M10.1,152.89h-6c0,.1-2-41.6-2-41.6,0-2.6,2.3-4.7,5.2-4.8h0c2.9,0,5.4,2,5.4,4.5,0,0-2.6,41.9-2.6,41.9Z"/>
        <path class="cls-1" d="M10.48,165.09l.4,4.3c.2,2.4-3.3,3.5-4.9,1.7-.5-.6-.9-1.4-1.3-2.3q-.27-.6,0,0c-.9-2.6-1.1-6.3-.6-11v-5.6h0l6-.2h0v3.6l3.7,11.1s.4,4-3.3-1.6Z"/>
        <path class="cls-9" d="M5.9,114.59h0c-2.8-.9-4.5-4-3.8-6.9l4.9-43.5c.5-4.5,4.5-7.4,8.8-6.4h0c4.2,1,6.9,5.4,6,9.7l-9.4,43.4c-.7,2.9-3.6,4.6-6.4,3.7h-.1Z"/>
        <polygon class="cls-5" points="0 107.19 14 107.09 14.1 114.89 0 114.99 0 107.19"/>
      </g>
      <path class="cls-6" d="M60.7,141.19l-19.8,5.4s-13-3.2-20.1-4.6l1.7-27.5,34.6.9c.8,9.7,2,19,3.6,25.7v.1Z"/>
      <g>
        <path class="cls-6" d="M49.9,203.49h0c3.8,0,7-2.5,7.3-5.7l4.7-58.8c.4-5.4-4.6-10-11-10h0c-6.3,0-11.3,4.4-11,9.7l2.8,58.9c.2,3.3,3.4,5.9,7.3,5.9h-.1Z"/>
        <path class="cls-6" d="M42.7,270.59l9.5.2,5-72.9c.1-3.4-3.1-6.3-7.2-6.4h0c-4.1,0-7.5,2.6-7.6,6.1l.2,73h.1Z"/>
        <path class="cls-8" d="M42.5,268.39v3.2c0,1,.5,1.9,1.4,2.5,4.4,3,18.1,11.8,27.1,11.2,1.9-.1,2.7-2,1.4-3.1l-20.2-13.9h-9.8l.1.1Z"/>
      </g>
      <g>
        <path class="cls-6" d="M29.7,202.49h0c-3.8,0-7-2.5-7.3-5.7l-4.7-58.8c-.4-5.4,4.6-10,11-10h0c6.3,0,11.3,4.4,11,9.7l-2.8,58.9c-.2,3.3-3.4,5.9-7.3,5.9h.1Z"/>
        <path class="cls-6" d="M36.8,269.59l-9.5.2-5-72.9c-.1-3.4,3.1-6.3,7.2-6.4h0c4.1,0,7.5,2.6,7.6,6.1l-.2,73h-.1Z"/>
        <path class="cls-8" d="M37.1,267.39v3.2c0,1-.5,1.9-1.4,2.5-4.4,3-18.1,11.8-27.1,11.2-1.9-.1-2.7-2-1.4-3.1l20.2-13.9h9.8l-.1.1Z"/>
      </g>
      <g>
        <rect class="cls-7" x="30.7" y="42.89" width="10.2" height="13.5"/>
        <path class="cls-1" d="M53.2,22.69c-.8-.4-1.9-.1-2.9.6-.9-9.5-7-16.9-14.4-16.9s-13.7,7.6-14.5,17.4c-1.1-1-2.4-1.5-3.4-1-1.3.6-1.5,2.4-.4,4.1,1,1.6,2.7,2.5,4,2.1,1.1,9.2,7.1,16.2,14.4,16.2s13.2-7,14.4-16.2c1.2,0,2.5-.9,3.4-2.2,1.1-1.7.9-3.5-.4-4.1h-.2Z"/>
        <g>
          <path class="cls-2" d="M46.9,20.59c-.2,0-.3,0-.4-.2-1.6-2.8-4.1-1.7-4.2-1.7-.2,0-.5,0-.7-.2,0-.2,0-.5.2-.7,1.3-.5,4-.9,5.6,2.1,0,.2,0,.5-.2.7h-.3Z"/>
          <path class="cls-2" d="M26,20.59c.2,0,.3,0,.4-.2,1.6-2.8,4.1-1.7,4.2-1.7.2,0,.5,0,.7-.2,0-.2,0-.5-.2-.7-1.3-.5-4-.9-5.6,2.1,0,.2,0,.5.2.7h.3Z"/>
          <path class="cls-2" d="M29.2,22.59c0,.9.6,1.9,1.4,1.9s1.5-.9,1.5-1.9-.6-1.9-1.4-1.9-1.5.9-1.5,1.9Z"/>
          <path class="cls-2" d="M41.7,22.59c0,.9.6,1.9,1.4,1.9s1.5-.9,1.5-1.9-.6-1.9-1.4-1.9-1.5.9-1.5,1.9Z"/>
          <path class="cls-11" d="M31.8,34.49c.2.2,1.4,2.8,4.5,2.7,3.1,0,4.3-2.4,4.5-2.7"/>
          <path class="cls-6" d="M27.7,33.59c.7-1.1,2.5-1.8,4.4-2.1s3.8-.4,5.7-.1c1.5.2,3.2.7,4.4,1.2.3.1.7.3.8.6.2.5-.6.6-1.2.7-4.6.5-8.9.7-13.5-.1"/>
          <path class="cls-3" d="M38.4,28.39c0,1.3-.9,2.2-2.2,2.2s-2.2-.9-2.2-2.2.9,1.3,2.2,1.3,2.2-2.5,2.2-1.3Z"/>
          <path class="cls-4" d="M47.1,25.39c1.8,0,3.3,1.4,3.2,2.8s-1.7,2.6-3.6,2.5-3.3-1.4-3.2-2.8,1.7-2.6,3.6-2.5Z"/>
          <path class="cls-4" d="M26.5,25.39c1.8,0,3.3,1.4,3.2,2.8s-1.7,2.6-3.6,2.5-3.3-1.4-3.2-2.8,1.7-2.6,3.6-2.5Z"/>
        </g>
        <path class="cls-6" d="M52.9,6.09c.6-.3,2.5-.5,1.9-1.3-.9-1.2-4-.4-5.4-.3.6-.4,1.6-.7,1.1-1.4-1.1-1.6-4.6-.7-6.3-.5.7-.7.5-1.4-.6-1.6-2.1-.5-4.4.2-6.3.8-.4-1.4-1.5-1.6-3.3-1.2-.9.2-1.5.7-2.3.9-.7.2-.5.2-.8-.2-1-1.1-1.5-1.6-3.2-1.1-2.1.6-2.8,1.7-3.9,3-.6-.4-1.7-.9-2.3,0-.5.7.3,1.8.8,2.4-1,.3-1.8.3-1.8,1.5,0,.9,1.4,2.5.5,3-1.2.6-2.6-.1-2.3,1.7.2,1.4,1.6,2.3,1.7,3.7-.6-.1-1.8.1-2.3.4-1.1.6-.3,1.9.3,2.5.3.3,2,1.4,1.6,2-.3.4-1.5.1-1.9.6s0,2,.3,2.5c.2.5,1.5,1.3,1.5,1.7s-.9.7-1,1.2c-.1.6.2,1.1.6,1.6.5.5.2,2.7,3.2,2,.6-.1,2.2-1.8,1.8-2.2-.2-.2-.7-.4-.8-.5-.3-.5,1.2-4.5-.7-4,1.7-.8,3.5-3.8,1-4.8.8-.6,1.7-1.1,1.9-2.1,0-.5,0-1.3-.3-1.7-.2-.4-.6-.5-.9-.9,1-.5,3.9-1.6,3.6-2.7,1.2,0,2.7-.5,3.7-.9.1,0,.7-.4,1.1-.7.4.5,1.3.7,1.9.8,1,.2,3.7.2,4.9-.5.3.1.7.2.8.2.8.2,2.4.2,3.2,0,.4.6,1.5,1.7,1.8,2.1.3.4.6,1.2,1.1,1.6,0,1.4.5,2.9,1,4.2,0,.2.4.7.4.9,0,.3-.8.8-.9,1.2-.4,1.1.3,2.3.5,3.3.1.7-.2,1.3,0,2,0,.8.7,3.8,2.1,3.4,1.7-.4.1-2,.3-2.7,0-.4.6-.7.8-1,.6-.6,1.1-1.3,1.4-2.1.5-1.1.6-2-.4-2.8.8-1.1,4.1-3.8.9-4.4,1.5-1.3.7-4.5-.9-5.6,1.1-.5,2.8-1,3.2-2.1.5-1.2-1.2-1.8-2.4-1.7l.1-.2Z"/>
      </g>
      <path class="cls-10" d="M62.3,132.89c.2,1.4-.9,2.7-2.7,3-14,2.2-25.2,3.1-37.9,1.2-.9-.1-2.2-.3-3.6-.4-1.8-.2-3.2-1.5-3.1-2.9.4-4.2,1.6-10,3-20.1.8-7.6.5-15.2-.7-22.8l-5.3-32.7s1.6-.7,3.9-1.7c1.5-.7,3.4-1.5,5.4-2.4,5.7-2.5,11.1-4.5,11.5-4.5l9.2-.3c.3,0,4.2,1.4,7.4,2.7,1.9.8,3.6,1.5,4.3,2l7.8,3.4-3.3,30.1v.3c-1.3,11.7,2.7,37.1,4.1,45.1Z"/>
      <g>
        <path class="cls-5" d="M31.3,46.59s.5,2.3,5,3.2c0,0-1.3,6-5.3,8.3,0,0-1.5-5.5-4.9-6.6,0,0-.8-2,5.3-4.9h-.1Z"/>
        <path class="cls-5" d="M39.9,46.39s-.5,2.3-5,3.2c0,0,1.3,6,5.3,8.3,0,0,1.5-5.5,4.9-6.6,0,0,.8-2-5.3-4.9h.1Z"/>
      </g>
    </g>
  </g>
</svg>