<?xml version="1.0" encoding="UTF-8"?>
<svg id="Layer_2" data-name="Layer 2" xmlns="http://www.w3.org/2000/svg" viewBox="0 0 128.39 265.3">
  <defs>
    <style>
      .cls-1 {
        fill: #616261;
      }

      .cls-2, .cls-3 {
        fill: #603813;
      }

      .cls-4 {
        fill: #273758;
      }

      .cls-5 {
        fill: #e6e6e6;
      }

      .cls-6 {
        fill: #c69696;
      }

      .cls-7 {
        fill: #4d4d4f;
      }

      .cls-8 {
        fill: #d9a2a0;
      }

      .cls-9, .cls-10, .cls-3 {
        isolation: isolate;
      }

      .cls-9, .cls-3 {
        opacity: .5;
      }

      .cls-9, .cls-11 {
        fill: #d9baba;
      }

      .cls-12 {
        fill: #7e725b;
      }

      .cls-13 {
        fill: #d9b6b6;
      }

      .cls-14 {
        fill: #9f9e9d;
      }

      .cls-15 {
        fill: #466e9f;
      }

      .cls-16 {
        fill: none;
        stroke: #630;
        stroke-linecap: round;
        stroke-miterlimit: 10;
      }

      .cls-17 {
        fill: #d38a17;
      }
    </style>
  </defs>
  <g id="Layer_1-2" data-name="Layer 1">
    <g class="cls-10">
      <g id="Layer_1-3" data-name="Layer 1">
        <g id="german-boy-right-sitting">
          <g>
            <g>
              <path class="cls-1" d="M2.6,263.58c.9,1,2.5,1.2,3.6.5l23-14.2c1.1-.7,1.4-2.1.5-3h0c-.9-1-2.5-1.2-3.6-.5l-23,14.2c-1.1.7-1.4,2.1-.5,3h0Z"/>
              <path class="cls-1" d="M2.6,263.58c.9,1,2.5,1.2,3.6.5l23-14.2c1.1-.7,1.4-2.1.5-3h0c-.9-1-2.5-1.2-3.6-.5l-23,14.2c-1.1.7-1.4,2.1-.5,3h0Z"/>
              <path class="cls-1" d="M2.6,263.58c.9,1,2.5,1.2,3.6.5l23-14.2c1.1-.7,1.4-2.1.5-3h0c-.9-1-2.5-1.2-3.6-.5l-23,14.2c-1.1.7-1.4,2.1-.5,3h0Z"/>
              <path class="cls-14" d="M4.3,264.08c.1,0,1-.2,1.9-.8l18.8-11.6c.9-.6,1.6-1.2,1.5-1.3h0c-.1,0-1,.2-1.9.8l-18.8,11.6c-.9.6-1.6,1.2-1.5,1.3h0Z"/>
              <path class="cls-1" d="M66.2,263.58c-.9,1-2.5,1.2-3.6.5l-23-14.2c-1.1-.7-1.4-2.1-.6-3h0c.9-1,2.5-1.2,3.6-.5l23,14.2c1.1.7,1.4,2.1.6,3h0Z"/>
              <path class="cls-14" d="M65.6,261.78c.2.2-.4,0-1.2-.5l-17.6-11c-.9-.5-1.8-1.2-2-1.5h0c-.2-.2.4,0,1.2.5l17.6,11c.9.5,1.8,1.2,2,1.5h0Z"/>
              <path class="cls-1" d="M31.8,261.78c0,1.5,1.2,2.7,2.6,2.7h.5c1.4,0,2.6-1.2,2.6-2.7v-12.8c0-1.5-1.2-2.7-2.6-2.7h-.5c-1.4,0-2.6,1.2-2.6,2.7v12.8Z"/>
              <path class="cls-1" d="M31.4,245.98c0,1.2,1.4,2.2,3.1,2.2h.2c1.7,0,3.1-1,3.1-2.2v-59.5c0-1.2-1.4-2.2-3.1-2.2h-.2c-1.7,0-3.1,1-3.1,2.2v59.5Z"/>
              <path class="cls-14" d="M35.9,241.68c0,1,.2,1.8.5,1.8h0c.3,0,.5-.8.5-1.8v-49c0-1-.2-1.8-.5-1.8h0c-.3,0-.5.8-.5,1.8v49Z"/>
              <path class="cls-1" d="M24.8,248.08c0,1.4,1.4,2.6,3.1,2.6h13.4c1.7,0,3.1-1.2,3.1-2.6v-.7c0-1.4-1.4-2.6-3.1-2.6h-13.4c-1.7,0-3.1,1.2-3.1,2.6v.7Z"/>
              <path class="cls-14" d="M35.9,262.48c0,.2.1.4.4.4h0c.2,0,.4-.2.4-.4v-10.9c0-.2-.2-.4-.4-.4h0c-.2,0-.4.2-.4.4v10.9Z"/>
            </g>
            <path class="cls-12" d="M5.6,184.28c0,2.9,1.1,5.3,2.5,5.3h53c1.4,0,2.5-2.4,2.5-5.3h0c0-2.9-1.1-5.3-2.5-5.3H8.1c-1.4,0-2.5,2.4-2.5,5.3h0Z"/>
            <path class="cls-7" d="M63.6,184.08v.2c0,2.9-1.1,5.3-2.5,5.3H8.1c-1.4,0-2.5-2.4-2.5-5.3v-.2h58Z"/>
          </g>
          <g>
            <path class="cls-13" d="M50,127.58h0c-4.3,1.5-8.8-2-8.9-7l.2-31.4c0-4.9,3.4-8.9,7.9-9h0c5.3,0,9.3,5.1,8.7,10.8l-3.7,31c-.2,2.6-2,4.8-4.2,5.7h0v-.1Z"/>
            <path class="cls-5" d="M42.5,81.18c-1.8,4.3-3.8,12.2-2.8,24.6.1,1.3,1.2,2.1,2.5,2,3.3-.3,9.6-.5,13.5,2,1.2.7,2.8,0,2.9-1.4.7-8.4,1.8-28.4-6.9-31.6-3.6-1.3-7.6.8-9.1,4.4h-.1,0Z"/>
            <path class="cls-13" d="M43.5,116.58h0c1.5-1,3.2-1.4,4.8-.7l32.8,11.6-3.4,8.3-32.1-7.9c-4.9-1.2-6.3-8.3-2.1-11.3h0Z"/>
            <path class="cls-13" d="M85.8,141.28l-9.3-6.6,4.3-7.6h.6c10.7-3.3,16.5.9,16.5.9,5.6,3.9,4.5,5.8,2.8,6.8-1.2.7-2.6.7-3.8.3-5.4-1.6-13.6-.4-13.6-.4,6.8,6.8,2.7,6.6,2.7,6.6h-.2Z"/>
          </g>
          <path class="cls-5" d="M56.5,158.08c-7.2,2.4-15.1,3.2-22.8,2.5-7.7-.7-10.9-1.7-16-3.8l-6.8-2.6s.3-12,3.8-20.3c2.9-6.8,3.5-14.1,2.4-21.4l-5.1-32.5c-.5-3.7,1-7.2,4.2-9.6l4.4-3.3h0l5.4-4.2,11.3,1s3,1.9,6.5,4.9c.8.7,1.6,1.4,2.4,2.1,4.5,4.2,9.2,9.8,9.2,14.9v10c0,13.7.5,27.2,2.2,40.8.6,4.7.4,10.3-1.2,21.4h.1v.1h0Z"/>
          <path class="cls-15" d="M44,68.98c-.2,1.5-.9,2.7-1.6,3.8-1.7,2.4-4.7,3.5-7.5,3.3-7.1-.5-11.5-4.4-14.1-8.8h0l5.4-4.2,11.3,1s3,1.9,6.5,4.9h.1-.1,0Z"/>
          <path class="cls-15" d="M11.6,146.38s-12.6,34.3,9.7,37l31,2.1,5.2-35.2c-9.7.8-26.5-.3-45.8-4h-.1v.1h0Z"/>
          <g>
            <path class="cls-17" d="M43.87,9.41c-.98-2.7-2.57-5.27-4.54-7.11.25-.25.37-.61.61-.86-1.1-.49-2.57-.98-3.8-.98-6.5-.25-12.87,2.94-17.16,7.72-3.68,3.92-6.25,8.83-7.72,14.1-3.55,11.52-2.57,27.09,9.32,33.22,3.19,1.59,7.23,3.19,10.66,2.45,3.55-.74,6.25-3.55,7.97-6.86,3.19-6.13,5.15-13.73,6.25-20.47.98-6.99.98-14.46-1.59-21.21h0Z"/>
            <path class="cls-6" d="M32.96,71.07h0c-3.92-.12-6.86-3.43-6.74-7.23l.49-13.61,11.15.37-.61,16.55c0,2.21-1.96,3.92-4.17,3.92h-.12Z"/>
            <path class="cls-11" d="M58.7,32.94c0,1.35,0,2.7-.25,3.92,0,.86-.12,1.72-.37,2.45-.49,2.21-.86,4.17-1.72,6.13-.25.74-.49,1.35-.86,2.08-3.92,8.95-10.91,14.83-18.88,14.71-3.8,0-7.35-1.59-10.42-4.17-.74-.49-1.35-1.1-1.96-1.84-5.15-5.64-8.46-14.34-8.09-24.27.49-16.43,10.17-29.42,21.94-29.17,1.72,0,3.43.37,5.03.98,9.19,3.43,15.81,15.32,15.44,29.3h.12s0-.12,0-.12Z"/>
            <g>
              <path class="cls-2" d="M30.75,32.7c.25,0,.49,0,.61-.37,2.08-3.92,5.64-2.33,5.76-2.21.37,0,.74,0,.98-.37,0-.37,0-.74-.37-.98-1.72-.74-5.52-1.23-7.6,2.82,0,.37,0,.74.25.98h.37v.12Z"/>
              <path class="cls-2" d="M52.08,29.51s.37.25.61,0c3.43-1.35,4.9,1.59,4.9,1.72,0,.25.49.37.74.25.25,0,.37-.49.25-.74-.61-1.47-2.82-3.8-6.37-2.33-.25,0-.49.49-.37.74v.25h.25v.12h0Z"/>
              <path class="cls-2" d="M35.04,35.52c0,1.35.86,2.57,1.84,2.57s1.96-1.23,1.96-2.57-.86-2.57-1.84-2.57-1.96,1.23-1.96,2.57Z"/>
              <path class="cls-2" d="M52.08,35.52c0,1.35.86,2.57,1.84,2.57s1.96-1.23,1.96-2.57-.86-2.57-1.84-2.57-1.96,1.23-1.96,2.57Z"/>
              <path class="cls-16" d="M37.61,50.47c0,.25.98,3.92,4.66,4.54,3.55.49,5.52-1.23,5.76-1.59"/>
              <path class="cls-3" d="M48.16,42.38c1.23,1.23,1.23,3.06,0,4.29s-3.06,1.23-4.29,0,2.21.25,3.43-.86c1.23-1.23-.25-4.54.98-3.43h-.12,0Z"/>
              <path class="cls-8" d="M58.09,39.44c-.49,2.21-.86,4.17-1.72,6.13-.25.74-.49,1.35-.86,2.08-1.23-.86-1.84-2.45-1.72-3.92,0-2.21,1.96-3.92,4.17-4.17h.12v-.12Z"/>
              <path class="cls-8" d="M31.61,39.2c2.45,0,4.41,1.84,4.29,3.92s-2.33,3.55-4.78,3.43-4.41-1.84-4.29-3.92,2.33-3.55,4.78-3.43Z"/>
            </g>
            <path class="cls-9" d="M26.71,57.95h-.25c-.74-.49-1.35-1.1-1.96-1.84-5.15-5.64-8.46-14.34-8.09-24.15.49-16.43,10.17-29.42,21.94-29.17,1.72,0,3.43.37,5.03.98-9.32,6.86-25.86,25.37-16.67,54.3h0v-.12h0Z"/>
            <g>
              <path class="cls-17" d="M18,34.29l-3.06-6.74-3.06,4.9,1.23,14.71,10.05,7.35c-5.52-11.15-4.66-17.16-4.9-19.61v-.74h-.25v.12Z"/>
              <path class="cls-17" d="M64.46,17.87c-1.1-3.55-3.43-6.62-6.13-9.19-1.84-1.59-3.8-2.94-5.88-4.17-1.1-.86-2.21-1.59-3.31-2.21C44.23-.03,29.4-3.95,19.96,10.51c-3.92,5.76-4.54,9.32-4.9,16.18,0,0,4.17-.25,5.03,2.7,1.59,4.9-4.05,6.13,2.57,18.63.49.74,1.23,1.35,1.84,2.08,0,0-.74-4.05-1.1-5.76-1.59-6.01-1.1-12.99.98-19,.25-.86.61-1.72,1.1-2.57.12-.49,1.35-2.45,1.23-2.82,1.84,4.78,8.09,6.74,12.63,7.72-.86-1.23-1.96-2.08-2.7-3.43s-1.1-2.82-1.59-4.17c5.39,2.33,10.91,6.25,17.04,6.13-1.35-1.35-4.9-4.29-4.66-6.5,1.23,1.84,3.68,2.57,5.76,3.55,1.35.49,2.82.98,4.17,1.35,1.84,6.86,1.1,17.16-1.72,23.04,2.57-2.94,4.78-10.91,5.15-19.37s1.1-3.06,2.45-3.92h0c.98-.61,1.59-1.84,1.72-2.94,0-1.1,0-2.33-.49-3.43h0v-.12h0Z"/>
            </g>
            <g>
              <path class="cls-11" d="M19.84,28.9c1.23,3.68.37,7.23-1.96,7.97s-5.15-1.59-6.37-5.39-.37-7.23,1.96-7.97c2.21-.74,5.15,1.59,6.37,5.39Z"/>
              <path class="cls-9" d="M19.84,28.9c1.23,3.68.37,7.23-1.96,7.97s-5.15-1.59-6.37-5.39-.37-7.23,1.96-7.97c2.21-.74,5.15,1.59,6.37,5.39Z"/>
            </g>
          </g>
          <g>
            <path class="cls-13" d="M8.3,129.98h0c-4.4,1.1-8.5-2.8-8.2-7.7l2.7-31.3c.4-4.9,4.4-8.6,8.9-8.3h0c5.2.5,8.9,5.8,7.8,11.4l-6.3,30.6c-.6,2.6-2.4,4.6-4.7,5.3h-.2,0Z"/>
            <path class="cls-5" d="M8.9,74.78c-2.8,3.9-6.9,11.7-8.9,25,0,.9.5,1.8,1.3,2,3.1.5,10.1,2.2,13.4,6.2.8,1,2.3.7,2.8-.5,3-8.2,9.3-28.9,1.5-34.7-3.2-2.3-7.5-1.3-9.9,2h-.2,0Z"/>
            <path class="cls-13" d="M3.4,118.28h0c1.6-.9,3.3-.8,4.9,0l31.1,15.8-4.4,7.8-30.8-12c-4.7-1.8-5.2-8.9-.8-11.5h0v-.1h0Z"/>
            <path class="cls-13" d="M42.1,148.38l-8.5-7.7,5.5-7.1.2.3c11.1-1.9,16.1,3,16.1,3,5,4.6,3.7,6.4,1.9,7.1-1.3.5-2.7.4-3.9-.2-5.2-2.4-13.5-2.2-13.5-2.2,5.9,7.6,1.9,6.9,1.9,6.9h.3v-.1Z"/>
          </g>
          <g>
            <g>
              <path class="cls-13" d="M110.1,206.18c-1.5,20.3-4.5,41.6-5.2,41.5l-7.2-.5-2.6-42.1-2-31.6v-1.4c0-.4,0-.9.2-1.3.9-3.3,4.5-5.7,8.6-5.4s7.5,3.3,7.7,6.8c0,.9.2,1.9.4,2.8,1.2,6.8,1,18.8,0,31.1h.1v.1h0Z"/>
              <path class="cls-5" d="M108,228.38c-1.4,11.1-2.6,19.3-3.1,19.3l-7.2-.5-1.1-18.8h11.5-.1,0Z"/>
            </g>
            <path class="cls-4" d="M96.4,253.78c.1,1.3.9,2.4,2,3,.8.5,28.3,2.7,29.1,2.4,6.2-2.5-21.9-12.2-21.9-12.2h-7.6s-1.6,5.5-1.4,6.9h-.2v-.1h0Z"/>
            <g>
              <path class="cls-13" d="M110.5,175.58c-.6,4.9-5,7.6-10,7.1l-17.5-1.4-25.1-2h-.4c-6.1-.9-10.6-6.5-10-12.7.6-6.4,6.2-11.1,12.5-10.5l25.7,5.7,17.5,3.8c4.6,1,7.7,5.4,7.2,10.2h0v-.2h.1Z"/>
              <path class="cls-15" d="M85.7,161.38c-4.9,6-5.4,12.7-2.7,19.7l-25.1-2h-.4c-6.1-.9-10.6-6.5-10-12.7.6-6.4,6.2-11.1,12.5-10.5l25.7,5.7h0v-.2Z"/>
            </g>
          </g>
          <g>
            <g>
              <path class="cls-13" d="M83.4,212.18c-1.5,20.3-4.5,41.6-5.2,41.5l-7.2-.5-2.6-42.1-2-31.6v-1.4c0-.4,0-.9.2-1.3.9-3.3,4.5-5.7,8.6-5.4s7.5,3.3,7.7,6.8c0,.9.2,1.9.4,2.8,1.2,6.8,1,18.8,0,31.1h.1v.1h0Z"/>
              <path class="cls-5" d="M81.3,234.78c-1.2,10.8-2.6,18.9-3.1,18.9l-7.2-.5-1.1-18.4h11.5-.1,0Z"/>
            </g>
            <path class="cls-4" d="M69.8,259.88c.1,1.3.9,2.4,2,3,.8.5,28.3,2.7,29.1,2.4,6.2-2.5-21.9-12.2-21.9-12.2h-7.6s-1.6,5.5-1.4,6.9h-.2v-.1h0Z"/>
            <g>
              <path class="cls-13" d="M83.8,181.48c-.6,4.9-5,7.6-10,7.1l-17.5-1.4-25.1-2h-.4c-6.1-.9-10.6-6.5-10-12.7.6-6.4,6.2-11.1,12.5-10.5l25.7,5.7,17.5,3.8c4.6,1,7.7,5.4,7.2,10.2h0v-.2h.1Z"/>
              <path class="cls-15" d="M59.1,167.48c-4.7,6.5-6,13.1-2.7,19.7l-25.1-2h-.4c-6.1-.9-10.6-6.5-10-12.7.6-6.4,6.2-11.1,12.5-10.5l25.7,5.7h0v-.2h0Z"/>
            </g>
          </g>
        </g>
      </g>
    </g>
  </g>
</svg>