<?xml version="1.0" encoding="UTF-8"?>
<svg id="Layer_2" data-name="Layer 2" xmlns="http://www.w3.org/2000/svg" viewBox="0 0 64.95 248.43">
  <defs>
    <style>
      .cls-1 {
        fill: #e0a587;
      }

      .cls-2, .cls-3 {
        fill: #603813;
      }

      .cls-4 {
        fill: #d9a2a0;
      }

      .cls-5 {
        fill: #b61e45;
      }

      .cls-6 {
        fill: #70b5ff;
      }

      .cls-7 {
        fill: #ff485d;
      }

      .cls-8 {
        fill: #6c3231;
      }

      .cls-9 {
        fill: #db9673;
      }

      .cls-10 {
        fill: #533d24;
      }

      .cls-3 {
        isolation: isolate;
        opacity: .5;
      }

      .cls-11 {
        fill: #98caff;
      }

      .cls-12 {
        fill: #39433e;
      }

      .cls-13 {
        fill: none;
        stroke: #630;
        stroke-linecap: round;
        stroke-miterlimit: 10;
      }
    </style>
  </defs>
  <g id="Layer_1-2" data-name="Layer 1">
    <g id="german-man-apron">
      <g>
        <path class="cls-1" d="M57.99,131.9l5.22-.26-.17-36.39c0-2.26-2.26-3.92-4.79-3.83h0c-2.53.09-4.61,2-4.53,4.27l4.18,36.31h0l.09-.09h0Z"/>
        <path class="cls-1" d="M58.34,143.4v3.74c-.17,2.09,2.87,2.87,4.27,1.13.44-.52.78-1.22.96-2.09q0-.05,0,0c.7-2.26.61-5.49,0-9.66v-2l-.35-2.87h0l-5.22.17h0l.26,2.87v.26l-2.7,9.93s-.17,3.48,2.79-1.57h0v.09Z"/>
        <path class="cls-11" d="M59.82,98.3h0c2.44-.96,3.74-3.74,3.05-6.18l-6.27-37.53c-.61-3.83-4.27-6.18-7.92-5.05h0c-3.66,1.13-5.75,5.14-4.79,8.79l10.19,37.18c.78,2.53,3.31,3.74,5.75,2.87h0v-.09h0Z"/>
        <polygon class="cls-6" points="64.69 91.59 52.42 92.29 52.76 98.99 64.95 98.3 64.69 91.59"/>
      </g>
      <g>
        <path class="cls-1" d="M8.79,133.12H3.57c0,.09-1.74-36.22-1.74-36.22,0-2.26,2-4.09,4.53-4.18h0c2.53,0,4.7,1.74,4.7,3.92,0,0-2.26,36.48-2.26,36.48Z"/>
        <path class="cls-1" d="M9.14,143.75l.35,3.74c.17,2.09-2.87,3.05-4.27,1.48-.44-.52-.78-1.22-1.13-2s-.26-.52,0,0c-.78-2.26-.96-5.49-.52-9.58v-4.88h0l5.22-.17h0v3.13l3.22,9.66s.35,3.48-2.87-1.39Z"/>
        <path class="cls-11" d="M5.14,99.78h0c-2.44-.78-3.92-3.48-3.31-6.01l4.27-37.88c.44-3.92,3.92-6.44,7.66-5.57h0c3.66.87,6.01,4.7,5.22,8.45l-8.18,37.79c-.61,2.53-3.13,4.01-5.57,3.22,0,0-.09,0-.09,0Z"/>
        <polygon class="cls-6" points="0 93.33 12.19 93.25 12.28 100.04 0 100.12 0 93.33"/>
      </g>
      <path class="cls-8" d="M52.85,122.94l-17.24,4.7s-11.32-2.79-17.5-4.01l1.48-23.94,30.13.78c.7,8.45,1.74,16.54,3.13,22.38h0v.09h0Z"/>
      <g>
        <path class="cls-8" d="M43.45,177.18h0c3.31,0,6.09-2.18,6.36-4.96l4.09-51.2c.35-4.7-4.01-8.71-9.58-8.71h0c-5.49,0-9.84,3.83-9.58,8.45l2.44,51.28c.17,2.87,2.96,5.14,6.36,5.14h-.09Z"/>
        <path class="cls-8" d="M37.18,235.6l8.27.17,4.35-63.47c0-2.96-2.7-5.49-6.27-5.57h0c-3.57,0-6.53,2.26-6.62,5.31l.17,63.56h.09Z"/>
        <path class="cls-10" d="M37,233.69v2.79c0,.87.44,1.65,1.22,2.18,3.83,2.61,15.76,10.27,23.6,9.75,1.65-.09,2.35-1.74,1.22-2.7l-17.59-12.1h-8.53.09v.09h0Z"/>
      </g>
      <g>
        <path class="cls-8" d="M25.86,176.31h0c-3.31,0-6.09-2.18-6.36-4.96l-4.09-51.2c-.35-4.7,4.01-8.71,9.58-8.71h0c5.49,0,9.84,3.83,9.58,8.45l-2.44,51.28c-.17,2.87-2.96,5.14-6.36,5.14h.09Z"/>
        <path class="cls-8" d="M32.04,234.73l-8.27.17-4.35-63.47c0-2.96,2.7-5.49,6.27-5.57h0c3.57,0,6.53,2.26,6.62,5.31l-.17,63.56h-.09Z"/>
        <path class="cls-10" d="M32.3,232.82v2.79c0,.87-.44,1.65-1.22,2.18-3.83,2.61-15.76,10.27-23.6,9.75-1.65-.09-2.35-1.74-1.22-2.7l17.59-12.1h8.53l-.09.09h0Z"/>
      </g>
      <g>
        <rect class="cls-9" x="26.73" y="37.35" width="8.88" height="11.75"/>
        <path class="cls-1" d="M46.32,19.76c-.7-.35-1.65,0-2.53.52-.78-8.27-6.09-14.71-12.54-14.71s-11.93,6.62-12.63,15.15c-.96-.87-2.09-1.31-2.96-.87-1.13.52-1.31,2.09-.35,3.57.87,1.39,2.35,2.18,3.48,1.83.96,8.01,6.18,14.11,12.54,14.11s11.49-6.09,12.54-14.11c1.04,0,2.18-.78,2.96-1.92.96-1.48.78-3.05-.35-3.57,0,0-.17,0-.17,0Z"/>
        <g>
          <path class="cls-2" d="M40.84,17.93c-.17,0-.26,0-.35-.17-1.39-2.44-3.57-1.48-3.66-1.48-.17,0-.44,0-.61-.17,0-.17,0-.44.17-.61,1.13-.44,3.48-.78,4.88,1.83,0,.17,0,.44-.17.61h-.26Z"/>
          <path class="cls-2" d="M22.64,17.93c.17,0,.26,0,.35-.17,1.39-2.44,3.57-1.48,3.66-1.48.17,0,.44,0,.61-.17,0-.17,0-.44-.17-.61-1.13-.44-3.48-.78-4.88,1.83,0,.17,0,.44.17.61,0,0,.26,0,.26,0Z"/>
          <path class="cls-2" d="M25.42,19.67c0,.78.52,1.65,1.22,1.65s1.31-.78,1.31-1.65-.52-1.65-1.22-1.65-1.31.78-1.31,1.65Z"/>
          <path class="cls-2" d="M36.31,19.67c0,.78.52,1.65,1.22,1.65s1.31-.78,1.31-1.65-.52-1.65-1.22-1.65-1.31.78-1.31,1.65Z"/>
          <path class="cls-13" d="M27.69,30.03c.17.17,1.22,2.44,3.92,2.35,2.7,0,3.74-2.09,3.92-2.35"/>
          <path class="cls-8" d="M24.12,29.25c.61-.96,2.18-1.57,3.83-1.83s3.31-.35,4.96,0c1.31.17,2.79.61,3.83,1.04.26,0,.61.26.7.52.17.44-.52.52-1.04.61-4.01.44-7.75.61-11.75,0"/>
          <path class="cls-3" d="M33.43,24.72c0,1.13-.78,1.92-1.92,1.92s-1.92-.78-1.92-1.92.78,1.13,1.92,1.13,1.92-2.18,1.92-1.13Z"/>
          <path class="cls-4" d="M41.01,22.11c1.57,0,2.87,1.22,2.79,2.44s-1.48,2.26-3.13,2.18-2.87-1.22-2.79-2.44,1.48-2.26,3.13-2.18Z"/>
          <path class="cls-4" d="M23.07,22.11c1.57,0,2.87,1.22,2.79,2.44s-1.48,2.26-3.13,2.18-2.87-1.22-2.79-2.44,1.48-2.26,3.13-2.18Z"/>
        </g>
        <path class="cls-8" d="M46.06,5.31c.52-.26,2.18-.44,1.65-1.13-.78-1.04-3.48-.35-4.7-.26.52-.35,1.39-.61.96-1.22-.96-1.39-4.01-.61-5.49-.44.61-.61.44-1.22-.52-1.39-1.83-.44-3.83.17-5.49.7-.35-1.22-1.31-1.39-2.87-1.04-.78.17-1.31.61-2,.78-.61.17-.44.17-.7-.17-.87-.96-1.31-1.39-2.79-.96-1.83.52-2.44,1.48-3.4,2.61-.52-.35-1.48-.78-2,0-.44.61.26,1.57.7,2.09-.87.26-1.57.26-1.57,1.31s1.22,2.18.44,2.61c-1.04.52-2.26,0-2,1.48.17,1.22,1.39,2,1.48,3.22-.52,0-1.57,0-2,.35-.96.52-.26,1.65.26,2.18s1.74,1.22,1.39,1.74c-.26.35-1.31,0-1.65.52s0,1.74.26,2.18c.17.44,1.31,1.13,1.31,1.48s-.78.61-.87,1.04c0,.52.17.96.52,1.39.44.44.17,2.35,2.79,1.74.52,0,1.92-1.57,1.57-1.92s-.61-.35-.7-.44c-.26-.44,1.04-3.92-.61-3.48,1.48-.7,3.05-3.31.87-4.18.7-.52,1.48-.96,1.65-1.83,0-.44,0-1.13-.26-1.48-.17-.35-.52-.44-.78-.78.87-.44,3.4-1.39,3.13-2.35,1.04,0,2.35-.44,3.22-.78,0,0,.61-.35.96-.61.35.44,1.13.61,1.65.7.87.17,3.22.17,4.27-.44.26,0,.61.17.7.17.7.17,2.09.17,2.79,0,.35.52,1.31,1.48,1.57,1.83.26.35.52,1.04.96,1.39,0,1.22.44,2.53.87,3.66,0,.17.35.61.35.78,0,.26-.7.7-.78,1.04-.35.96.26,2,.44,2.87,0,.61-.17,1.13,0,1.74,0,.7.61,3.31,1.83,2.96,1.48-.35,0-1.74.26-2.35,0-.35.52-.61.7-.87.52-.52.96-1.13,1.22-1.83.44-.96.52-1.74-.35-2.44.7-.96,3.57-3.31.78-3.83,1.31-1.13.61-3.92-.78-4.88.96-.44,2.44-.87,2.79-1.83.44-1.04-1.04-1.57-2.09-1.48v-.17s.09,0,.09,0Z"/>
      </g>
      <path class="cls-12" d="M54.24,115.71c.17,1.22-.78,2.35-2.35,2.61-12.19,1.92-21.94,2.7-33,1.04-.78-.09-1.92-.26-3.13-.35-1.57-.17-2.79-1.31-2.7-2.53.35-3.66,1.39-8.71,2.61-17.5.7-6.62.44-13.23-.61-19.85l-4.61-28.47s1.39-.61,3.4-1.48c1.31-.61,2.96-1.31,4.7-2.09,4.96-2.18,9.66-3.92,10.01-3.92l8.01-.26c.26,0,3.66,1.22,6.44,2.35,1.65.7,3.13,1.31,3.74,1.74l6.79,2.96-2.87,26.21v.26c-1.13,10.19,2.35,32.3,3.57,39.27Z"/>
      <g>
        <path class="cls-6" d="M27.25,40.57s.44,2,4.35,2.79c0,0-1.13,5.22-4.61,7.23,0,0-1.31-4.79-4.27-5.75,0,0-.7-1.74,4.61-4.27h-.09Z"/>
        <path class="cls-6" d="M34.74,40.4s-.44,2-4.35,2.79c0,0,1.13,5.22,4.61,7.23,0,0,1.31-4.79,4.27-5.75,0,0,.7-1.74-4.61-4.27h.09Z"/>
      </g>
      <g>
        <path class="cls-5" d="M45.6,45.67l-1.3-.09c-.68-.05-1.33.31-1.48.82-.62,2.04-1.96,7.25-1.62,13.23.04.65.88,1.04,1.7.8l1.35-.41c.52-.15.88-.53.9-.94.12-1.96.54-7.83,1.52-12.36.11-.53-.36-1.01-1.06-1.06Z"/>
        <path class="cls-5" d="M20.53,44.67l-.6.12c-.48.09-.86.4-.97.8-.52,1.8-1.87,7.1-1.6,12.78.02.59.61,1.06,1.32,1.06h1.09c.74,0,1.33-.49,1.31-1.1-.05-2.1,0-6.93,1.05-12.42.15-.77-.7-1.41-1.6-1.23h0Z"/>
        <path class="cls-7" d="M6.59,171.55c.09-49.13,1.5-85.39,6.26-112.92.11-.62.65-1.09,1.28-1.09,13.43-.15,29.37,1,34.02,1.36.73.06,1.27.7,1.21,1.43-.5,5.62-2.16,28.51,1.6,54.9,3.36,23.63,6.78,46.93,7.53,51.98.09.6-.24,1.18-.81,1.41-3.19,1.28-14.1,5.31-28.2,6.62-13.62,1.27-20.17-1.43-22.18-2.52-.43-.24-.71-.68-.7-1.18Z"/>
        <path class="cls-5" d="M50.2,98.75l.21,3.33s-19.97,4.13-42.27,1.77v-4.46s18.71,3.9,42.06-.64h0Z"/>
        <path class="cls-5" d="M39.2,107.7s-12.52,1.73-23.73,0c0,0-.65,7.8,0,15.62,0,0,5.84,7.27,11.44,7.98,5.59.71,13.55-7.98,13.55-7.98,0,0-1.09-6.84-1.25-15.62h0Z"/>
        <path class="cls-5" d="M45.82,101.67c2.1,17.4,5.37,34.7,8.46,51.95.75,4.15,1.49,8.29,2.33,12.42.04.21.36.12.32-.09-3.21-17.98-5.93-36.03-9.06-54.03-.6-3.44-1.2-6.86-1.9-10.28-.02-.09-.17-.07-.15.02h0Z"/>
        <path class="cls-5" d="M10.29,103.39c-.68,7.95-.8,15.98-1.09,23.96-.41,11.2-.79,22.41-.81,33.62,0,3.22-.25,6.66.32,9.85.06.31.58.24.54-.07-.3-2.81-.19-5.72-.15-8.54.06-5.13.17-10.26.32-15.39.31-11.12.68-22.24,1.18-33.35.15-3.36.25-6.73.53-10.07.05-.55-.81-.55-.86,0h0Z"/>
        <path class="cls-5" d="M56.72,165.75c-10.6,3.71-21.67,6.14-32.95,6.09-5.03-.02-9.83-.85-14.79-1.39-.32-.03-.4.52-.07.56,5.05.69,9.92,1.61,15.06,1.63,11.24.03,22.43-2.34,32.89-6.39.31-.12.18-.61-.14-.5h0Z"/>
        <path class="cls-5" d="M10.58,168.19c.41-2.87.89-5.84,1.12-8.73.02-.28-.37-.29-.46-.06-1.01,2.63-1.2,6.04-.74,8.79,0,.04.07.04.08,0h0Z"/>
        <path class="cls-5" d="M11.57,168.74c.45-.55.75-1.25,1.15-1.85.45-.66.92-1.29,1.34-1.99.05-.08-.05-.18-.13-.13-1.25.75-2.5,2.34-2.68,3.83-.02.15.22.25.32.13h0Z"/>
        <path class="cls-5" d="M12.04,170.19c1.2-.09,2.35-.42,3.56-.5,1.2-.08,2.42-.06,3.62,0,.27,0,.33-.42.06-.48-2.31-.51-5.2-.57-7.38.5-.23.11-.12.51.13.49h0Z"/>
        <path class="cls-5" d="M15.23,59.39c-.62,1.48-.84,3.3-1.12,4.87-.53,3-1,6.01-1.42,9.02-1.24,8.93-1.98,17.98-2.15,27,0,.21.32.21.33,0,.5-9.09,1.26-18.12,2.44-27.14.4-3.02.84-6.02,1.35-9.02.25-1.51.67-3.19.63-4.72,0-.04-.05-.04-.06,0h0Z"/>
      </g>
    </g>
  </g>
</svg>