<?xml version="1.0" encoding="UTF-8"?>
<svg id="Layer_2" data-name="Layer 2" xmlns="http://www.w3.org/2000/svg" viewBox="0 0 131.46 298.72">
  <defs>
    <style>
      .cls-1 {
        fill: #543a35;
      }

      .cls-2, .cls-3 {
        fill: #603813;
      }

      .cls-4 {
        fill: #273758;
      }

      .cls-5 {
        fill: #ca8a8c;
      }

      .cls-6 {
        fill: #d9a2a0;
      }

      .cls-7 {
        fill: #d9a8a7;
      }

      .cls-8, .cls-3 {
        isolation: isolate;
      }

      .cls-9 {
        fill: #783640;
      }

      .cls-10 {
        fill: #344260;
      }

      .cls-11 {
        fill: #faf0f5;
      }

      .cls-12 {
        fill: #fff;
      }

      .cls-3 {
        opacity: .5;
      }

      .cls-13 {
        fill: #1d2d4e;
      }
    </style>
  </defs>
  <g id="Ebene_1" data-name="Ebene 1">
    <g class="cls-8">
      <g id="Layer_1-2" data-name="Layer 1">
        <g id="german-woman-waving">
          <g>
            <path class="cls-13" d="M94.97,216.81h0c-4.3,0-7.7-3.4-7.9-7.6l-1.8-64.4c0-6.9,5.7-12.6,12.6-12.6h0c6.9,0,12.6,5.7,12.6,12.6,2.2,21.6-1.1,46.3-8,66.7-1.1,3.2-4.1,5.3-7.5,5.3h0Z"/>
            <path class="cls-13" d="M92.87,286.61h-5.6v-74.9c0-4.5,3.2-8.1,7.2-8.1h0c3.6,0,6.6,2.9,7.1,6.8,3,21.9-.3,47.9-8.8,76.2h.1Z"/>
            <path class="cls-1" d="M92.87,286.51s22.4,10.1,17,12c-.6.2-20.1-2.7-20.6-3-1.1-.6-1.8-1.7-1.9-3v-5.9h5.5v-.1Z"/>
          </g>
          <g>
            <path class="cls-13" d="M73.97,217.01h0c4.3,0,7.7-3.4,7.9-7.6l1.8-64.4c0-6.9-5.7-12.6-12.6-12.6h0c-6.9,0-12.6,5.7-12.6,12.6-2.2,21.6,1.1,46.3,8,66.7,1.1,3.2,4.1,5.3,7.5,5.3Z"/>
            <path class="cls-13" d="M75.97,286.81h5.6v-74.9c0-4.5-3.2-8.1-7.2-8.1h0c-3.6,0-6.6,2.9-7.1,6.8-3,21.9.3,47.9,8.8,76.2h-.1Z"/>
            <path class="cls-1" d="M75.97,286.71s-22.4,10.1-17,12c.6.2,20.1-2.7,20.6-3,1.1-.6,1.8-1.7,1.9-3v-5.9h-5.5v-.1Z"/>
          </g>
          <path class="cls-1" d="M113.17,35.91c-2.7-5-6.9-8.9-9.7-13.8-1.2-2.1-1-19.5-14-21.8-2.7-.5-5.6-.3-8.3.2-2.6.5-5.2.8-7.4,2.3-2.1,1.4-3.8,3.4-4.9,5.6-1.4,2.9-1.6,6.2-2.8,9.2-3.4,8-9.9,14.3-12.6,22.5-.2.6-.4,1.3-.6,1.9-.9,3.6.2,7.6,2,10.8,1-2.3.6-4.9,1.9-7.3.7,6.1,1.6,11.9,5.5,16.9,3.7,4.8,8.4,7.2,13.5,10.2-.4-.9-.7-1.7-.6-2.7,2,1.9,6,3.9,8.7,3.2,4.1-1.2,7.6-3.7,11.1-5.7,0,1-1.4,2.6-2,3.4,4.8-2.4,10.6-6.4,13.2-11.2,2.5-4.6,3-10.2,3.5-15.2,1.7,2.2,2,5.4,2.9,7.9,2.6-4.7,3-11.8.5-16.6v.2h.1Z"/>
          <g>
            <path class="cls-7" d="M123.67,143.11l-6.3,11.1s.4,3.5,5.3-3.4c0,0,2.2,6.9,1.6,11.8,0,1.1,0,2.3.8,3.3,1.1,1.3,2.9,1.9,5.5-3.5,0,0,3.1-6-2.3-15.5l-4.6-3.8h0Z"/>
            <path class="cls-10" d="M112.37,104.61h0c-3.5.3-6.6-2.2-6.9-5.5-2.1-12.1-3.3-23.4-3-33.5-.3-3.3,2.4-6.2,5.9-6.5h0c8.3,0,10,26,9.9,39,.3,3.3-2.4,6.2-5.9,6.5Z"/>
            <path class="cls-10" d="M127.67,145.91l-5.9,1-15.8-45.6c-1.2-3.4,1-7.1,4.8-7.8h0c3.5-.7,7,1.5,7.6,4.9l9.3,47.6h0v-.1Z"/>
          </g>
          <g>
            <path class="cls-7" d="M21.17,40.71l-5.5-12.3s-3.1-1.9-.2,6.7c0,0-6.9-2.2-10.5-5.9-.9-.8-2-1.4-3.1-1.2-1.7.2-3.1,1.3-.2,6.9,0,0,3.2,6.4,13.9,7.5l5.6-1.8h0v.1Z"/>
            <path class="cls-10" d="M32.57,93.71h0c-2.5-2.7-2.6-7,0-9.5,8.8-9.7,17.6-18.3,26.2-24.7,2.5-2.4,5.1-2,7.6.7l2.1,3.4c5.5,6.9-15.7,22-26.7,30.5-2.5,2.4-6.7,2.1-9.3-.6h0v.2h.1Z"/>
            <path class="cls-10" d="M15.57,42.41l5.5-1.7,21.1,46.6c1.6,3.5,0,7.6-3.6,8.8h0c-3.3,1.1-7-.8-8-4.3l-14.9-49.5h-.1v.1h0Z"/>
          </g>
          <g>
            <path class="cls-13" d="M109.47,140.31l-24.1,14.8-26.8-11.9c1.8-11,7-22.6,10.6-29.8,2.3-4.5,4-7.3,4-7.3h22.8c1.3,2.1,2.7,4.6,3.9,7.3,5.5,11.9,9.6,26.9,9.6,26.9Z"/>
            <path class="cls-11" d="M109.17,59.41l-2.5,12.6c-.3,1.3-.6,2.7-.9,4.1-.3,1.5-.7,2.9-1.2,4.4l-6.2,21.5-.3.9-.9,3.2-.6,2.1h-22.7l-.6-2.1-.9-3.2-.6-2.2-5.6-19.5c-.5-1.7-.9-3.4-1.2-5.2-.3-1.7-.6-3.4-.8-5.1l-1.4-12.6,3.3-1.4,6.4-2.7,8.5-3.6h9.4l4.7,2.2,6.9,3.2,7.1,3.3h0l.1.1Z"/>
            <path class="cls-1" d="M73.27,106.11h0l-.9-3.2h26.3l-.9,3.2c1.4,2.1,2.8,4.6,4.2,7.3h-32.9c2.4-4.5,4.3-7.3,4.3-7.3h-.1Z"/>
            <path class="cls-10" d="M75.37,52.81l4.5,32.7c2,14.7,2.1,29.6.3,44.3l-1.9,15.5c-1.4,11.2-11.6,19.7-23.7,19.7h-1.8c1.3-19.5,5.7-37.8,12.4-50.2,3.2-5.9,2.8-13.4,3.1-19.1l-7-37.1,14.3-5.7h-.2v-.1h0Z"/>
            <path class="cls-10" d="M94.37,52.11l-4.5,32.7c-2,14.7-2.1,29.6-.3,44.3l1.9,15.5c1.4,11.2,11.6,19.7,23.7,19.7h1.8c-1.3-19.5-5.7-37.8-12.4-50.2-3.2-5.9-2.9-12.7-3.1-19.1l8.3-35.5-15.5-7.3h0l.1-.1Z"/>
          </g>
          <path class="cls-5" d="M81.17,55.71h0c1.7,3.2,6.2,3.1,7.8,0h0c.3-.6.5-1.3.5-2.1v-12.2h-9v12.1c0,.8.2,1.5.6,2.2h.1Z"/>
          <path class="cls-7" d="M102.77,27.31c-.7,1.3-1.9,2.2-3,2.5h-1c-.3,3.5-1.4,6.6-3,9.2-3,5-7.6,8.1-11,7.9h-.8c-2.8,0-5.9-1.6-8.5-4.5h0c-.8-.8-1.5-1.8-2.1-2.8-1.6-2.5-2.8-5.6-3.3-9.1h-.3c-1.1,0-2.4-1-3.2-2.3,0-.2-.2-.5-.3-.7,0-.3-.2-.7-.3-1h0c-.3-1.3,0-2.4,1-2.9h0c.8-.4,1.9,0,2.8.6.6-8.4,4.4-16,9.7-18.8,1.4-.8,2.8-1.2,4.4-1.2,2.3,0,4.4.7,6.4,2,4.5,3,7.8,10.4,8.5,17.9.4-.5.9-.9,1.4-1.1.7-.3,1.4-.4,2,0,1.3.6,1.5,2.6.5,4.5h0v-.2h.1Z"/>
          <g>
            <path class="cls-2" d="M73.91,24.68c.18,0,.37,0,.46-.27,1.47-2.84,4.03-1.65,4.12-1.56.27,0,.55,0,.73-.27,0-.27,0-.55-.27-.73-1.19-.55-3.94-.92-5.4,2.01,0,.27,0,.55.18.73h.27-.09v.09Z"/>
            <path class="cls-2" d="M93.78,24.13c-.18,0-.37,0-.46-.27-1.47-2.84-4.03-1.65-4.12-1.56-.27,0-.55,0-.73-.27,0-.27,0-.55.27-.73,1.19-.55,3.94-.92,5.4,2.01,0,.27,0,.55-.18.73h-.27.09v.09Z"/>
            <path class="cls-2" d="M76.93,26.69c0,1.01.64,1.83,1.28,1.83s1.37-.92,1.37-1.83-.64-1.83-1.28-1.83-1.37.92-1.37,1.83Z"/>
            <path class="cls-2" d="M89.11,26.69c0,1.01.64,1.83,1.28,1.83s1.37-.92,1.37-1.83-.64-1.83-1.28-1.83-1.37.92-1.37,1.83Z"/>
            <g>
              <path class="cls-4" d="M89.66,38.78s0,2.2-1.47,3.57c-.82.82-1.92,1.47-3.57,1.47,0,0-2.47.18-3.94-1.47-.73-.73-1.1-1.83-1.1-3.57h10.16-.09Z"/>
              <path class="cls-9" d="M88.11,42.35c-.82.82-1.92,1.47-3.57,1.47,0,0-2.47.18-3.94-1.47,1.47-.73,4.49-1.47,7.51,0h0Z"/>
              <polygon class="cls-12" points="88.47 38.78 87.92 39.97 80.78 39.97 80.32 38.78 88.47 38.78"/>
            </g>
            <path class="cls-3" d="M86.73,33.65c0,1.19-1.01,2.2-2.2,2.2s-2.2-1.01-2.2-2.2,1.01,1.19,2.2,1.19,2.2-2.47,2.2-1.19Z"/>
            <path class="cls-6" d="M94.42,29.25c1.74,0,3.11,1.28,3.02,2.84s-1.65,2.56-3.39,2.47-3.11-1.28-3.02-2.84,1.65-2.56,3.39-2.47h0Z"/>
            <path class="cls-6" d="M74.46,29.25c1.74,0,3.11,1.28,3.02,2.84s-1.65,2.56-3.39,2.47-3.11-1.28-3.02-2.84,1.65-2.56,3.39-2.47Z"/>
          </g>
          <path class="cls-1" d="M101.07,22.91c0,2.6-1.4,13.5-4.7,16,1.5-6.9,2.3-17.1-.4-20.6-.9-1.2-3.7-3.4-3.5-5.1-4.1,5.3-12.4,6.6-14,6.8-2,.5-4.8.9-6.3,1.4-.5,5.1.4,15,.9,18-1.7-2.5-2.9-5.6-3.4-9.1,0,0-.4-2.7-.3-3.8-1.2.3-2.4.7-3.6.8h-.7c0-.3.2-.7.4-1h0c.2-.4.4-.7.6-1,.2-.6.4-1.2.5-1.9v-.4c.3-1.5.3-2.9.4-4.4.2-3,.5-6,1.9-8.7C71.97,4.11,78.87-.29,85.87.01c2.5.1,5,.9,7.1,2.2,4.3,2.7,7.4,7.5,8,12.4v8.2h0l.1.1Z"/>
        </g>
      </g>
    </g>
  </g>
</svg>