<?xml version="1.0" encoding="UTF-8"?>
<svg id="Ebene_2" data-name="Ebene 2" xmlns="http://www.w3.org/2000/svg" viewBox="0 0 133.41 273.14">
  <defs>
    <style>
      .cls-1, .cls-2 {
        opacity: .4;
      }

      .cls-1, .cls-2, .cls-3, .cls-4 {
        isolation: isolate;
      }

      .cls-1, .cls-5 {
        fill: #f2bd57;
      }

      .cls-6 {
        fill: #ffebe0;
      }

      .cls-6, .cls-7, .cls-8, .cls-9, .cls-5, .cls-10 {
        stroke-linecap: round;
      }

      .cls-6, .cls-7, .cls-9, .cls-5, .cls-10 {
        stroke: #03403f;
        stroke-linejoin: round;
      }

      .cls-7 {
        fill: #fff5cf;
      }

      .cls-11 {
        fill: #d9b6b6;
      }

      .cls-12, .cls-2, .cls-3 {
        fill: #fff;
      }

      .cls-8 {
        stroke: #630;
        stroke-miterlimit: 10;
      }

      .cls-8, .cls-9 {
        fill: none;
      }

      .cls-13 {
        fill: #caa1a2;
      }

      .cls-14 {
        fill: #d9a2a0;
      }

      .cls-15 {
        fill: #d38a17;
      }

      .cls-16 {
        fill: #d9baba;
      }

      .cls-10 {
        fill: #e3e3ff;
      }

      .cls-17, .cls-4 {
        fill: #603813;
      }

      .cls-18 {
        fill: #273758;
      }

      .cls-3 {
        opacity: .2;
      }

      .cls-19 {
        fill: #466e9f;
      }

      .cls-4 {
        opacity: .5;
      }

      .cls-20 {
        fill: #e6e6e6;
      }
    </style>
  </defs>
  <g id="Layer_1" data-name="Layer 1">
    <g id="german-boy-lemonade-glass">
      <g>
        <path class="cls-11" d="M22.06,116.82h0c-3.72,0-6.37-4.45-5.29-8.89l7.81-28.23c1.08-4.57,4.81-6.97,8.41-5.77h0c4.08,1.44,6.13,7.33,4.2,12.25l-10.81,26.19c-.84,2.28-2.28,4.57-4.32,4.57h0v-.12Z"/>
        <path class="cls-20" d="M27.34,74.65c-3.6,3.24-8.29,10.09-11.77,24.51l14.18,6.97,2.04-5.65c4.57-8.53,8.17-16.46,7.33-21.99-.6-5.29-7.81-7.45-11.89-3.84h.12Z"/>
        <g>
          <path id="hand1" class="cls-16" d="M119.99,125.69l6.27-.43c1.29-.1,4.74.34,5.68,1.22,1.26,1.05-1.52,1.47-7.29,2.12l6.26,6.75s3.08,5.1-1.87,3.67c0,0,2.08,5.9-2.9,3.43,0,0,1.25,5.43-4.47,1.24l-5.17-4.43c-1.74-1.53-3.02-3.62-3.39-5.89-.37-2.26.14-4.86,3-6.53,1.13-.66,2.45-.95,3.82-1.06l-.02-.08s0,0,0,0h0l.08-.02Z"/>
          <path class="cls-11" d="M81.16,111.94h0c1.57-.59,3.49-.57,5.05.05l32.29,14.62-4.63,6.08-31.96-11.49c-4.91-1.85-5.45-7.62-.87-9.38h0l.12.12Z"/>
          <g>
            <path class="cls-6" d="M118.78,147.65c-1.72-.22-6.18-.4-6.39-2.82-.12-1.39,1.76-1.66,4-2.32.75-1.74.79.13.59-3.84-.18-3.7-6.11-6.93-5.82-16.53.05-1.75.25-2.92,1.26-10.03.43-3.06-.27-4.82,2.81-4.76,15.64.29,16.66.64,16.67.65.42.33.55,6.63.56,7.17.06,2.9.89,8.29.09,12.43-.99,5.16-4.23,8.25-4.98,9.36-.93,1.38-1.21,4.45.5,5.3,1.21.6,2.31.62,2.92,1.99,1.58,3.5-7.19,4.05-12.23,3.41Z"/>
            <path class="cls-10" d="M117.49,137.83c.06.27.1.54.12.82.21,4.21.15,2.29-.76,4.38-2.42.72-3.91.95-3.84,1.75.28,3.24,19.15,3.5,17.45-.28-.82-1.83-3.34-.81-4.07-3.57-.24-.9-.18-2.02.11-3-1.53.42-3.08.76-4.66.81-1.49.04-3.03-.23-4.34-.9Z"/>
            <path class="cls-9" d="M113.27,144.23c1.92,2.55,15.57,2.91,17.18.26"/>
            <path class="cls-9" d="M116.85,143.02c2.68,1.14,6.44,1.76,10.33-.04"/>
            <path class="cls-9" d="M121.54,142.73c1.49.47,3.15.36,4.56-.31"/>
            <path class="cls-9" d="M122.84,141.9c.81.38,1.84.22,2.5-.38"/>
            <path class="cls-7" d="M127.47,110.33c-.86.1-1.72.28-2.59.24-.98-.06-1.94-.42-2.92-.4-1.13.02-2.22.53-3.36.49-.71-.02-1.39-.26-2.09-.37-1.1-.17-2.21-.02-3.31.23-.03.48-.07,1.03-.16,1.69-.04.3-.08.59-.12.87.35.12.72.22,1.08.3,5.82,1.34,11.86.86,17.82.16-.04-1.18-.09-2.16-.14-2.94-1.38-.33-2.81-.42-4.21-.26Z"/>
            <path class="cls-9" d="M116.31,111.73c1.14-.28,2.32-.57,3.46-.32.62.13,1.2.52,1.84.54,1.67.06,2.71-.14,4.06-.12,1.1.02,2.33.24,3.19-.45"/>
            <path class="cls-5" d="M127.73,135.78c6.27-7.66,4.34-12.47,4.13-20.61-.01-.58-.03-1.13-.04-1.64-5.96.7-12,1.18-17.82-.16-.36-.08-.73-.18-1.08-.3-.9,6.37-1.08,7.44-1.13,9.08-.27,8.84,4.84,12.01,5.7,15.67,1.31.67,2.85.94,4.34.9,1.58-.04,3.13-.39,4.66-.81.14-.49.34-.94.59-1.31.15-.22.37-.49.65-.83Z"/>
            <path class="cls-9" d="M118.13,137.03c2.75,1.27,5.43,1.09,7.85.37"/>
            <path class="cls-1" d="M116.72,129.95c.31-.15.66.06.93.26.64.46,1.27.91,1.91,1.37.22.16.46.32.73.35.69.07,1.14-.71,1.29-1.39s.26-1.48.87-1.81c1.25-.68,2.79,1.44,4,.7,1.06-.65.45-2.8,1.64-3.18.37-.12.81,0,1.12-.25.2-.16.27-.43.31-.69.17-1.17-.08-2.35-.09-3.53-.01-1.18.29-2.48,1.25-3.16.87,2.15.72,4.56.44,6.87-.41,3.43-1.23,7.1-3.82,9.39-2.21,1.95-5.66,2.59-8.37,1.33-1.41-.66-4.35-5.23-2.21-6.25Z"/>
            <path class="cls-1" d="M114.28,123.35c0-1.01.46-.87.99-1.16,1.41-.75-.2-2.88,1.41-5.02,1.05-1.4,2.6-1.18,3.02.79.13.6.24,2.27,1.14,2.53.77.23,1.94-.88,3.1-.69,1.78.3,2.7,3.52,1.73,5.28-.59,1.07-1.98,1.72-3.1,1.23-.28-.12-.56-.31-.87-.28-1.06.11-.84,2.47-2.76,3.52-3.32,1.82-4.66-4.09-4.66-6.2Z"/>
            <path class="cls-9" d="M130.77,118.06c.06,3.19.11,6.41-.48,9.55-.59,3.14-1.88,6.23-4.16,8.46"/>
            <path class="cls-9" d="M130.54,114.71c.04.54.07,1.08.11,1.63"/>
            <path class="cls-12" d="M124.57,112.97c-1.08-.45-2.42-.2-3.57-.26-1.15-.06-2.37-.29-3.51-.16-1.24.14,5.18,1.83,7.13.87.21-.1.14-.38-.04-.45Z"/>
            <path class="cls-2" d="M124.08,139.53c-.86-.09-1.75.05-2.62.05-.68,0-2.77-.36-2.47.11.98,1.53,4.05,1.53,5.29.38.21-.19.06-.51-.2-.54Z"/>
            <path class="cls-2" d="M118.62,141.81c-.19.24.41.82.83.66.46-.18-.64-.9-.83-.66Z"/>
            <path class="cls-2" d="M122.09,144.75c-1.26-.37-2.86.03-6.21-.74-.15-.03-.25.16-.11.25.49.32.92.67,1.47.89,1.24.48,3.61.99,4.93.41.35-.16.27-.71-.08-.81Z"/>
            <path class="cls-3" d="M119.22,134.15c-1.73-4.48-3.44-8.23-3.06-13.49.13-1.73.47-2.96.48-3.5,0-.38-.17-.79-.23-1.17-.08-.56-.94-.84-1.32-.39-.67.79-.93.72-1.21,2.33-2.05,11.58,6.04,18.05,5.34,16.23Z"/>
            <path class="cls-3" d="M128.12,115.88c-1.68-1.08-3.8-.62-7.05-.23-.12.01-2.4.19-2.09.64,1.85,2.73,11.26.95,9.15-.41Z"/>
            <path class="cls-9" d="M113.24,107.88c1.19.37,2.87.54,4.11.58,4.26.12,8.52.24,12.79.35.65.02,1.43-.18,1.85-.68"/>
          </g>
        </g>
      </g>
      <g>
        <path class="cls-11" d="M25.25,107.96h0c.84,1.44,1.2,3.24.72,5.05l-8.41,34.36-6.85-3.36,5.53-33.52c.84-5.17,6.49-6.73,9.13-2.52h-.12Z"/>
        <path class="cls-11" d="M81.29,116.82h0c3.72,0,6.37-4.45,5.29-8.89l-7.81-28.23c-1.08-4.57-4.81-6.97-8.41-5.77h0c-4.08,1.44-6.13,7.33-4.2,12.25l10.81,26.19c.84,2.28,2.28,4.57,4.32,4.57h0v-.12Z"/>
        <path class="cls-20" d="M75.88,74.65c3.6,3.24,8.29,10.09,11.77,24.51l-14.18,6.97-2.04-5.65c-4.57-8.53-8.17-16.46-7.33-21.99.6-5.29,7.81-7.45,11.89-3.84h-.12Z"/>
        <path class="cls-11" d="M14.94,157.77l2.64-11.29-6.85-3.36v.48c-8.53,4.2-10.09,11.05-10.09,11.05-1.56,6.73,0,7.57,1.68,7.21,1.08-.24,2.04-1.08,2.64-2.16,2.64-4.81,8.41-9.01,8.41-9.01-.84,9.85,1.68,7.09,1.68,7.09h-.12Z"/>
      </g>
      <g>
        <path class="cls-11" d="M71.8,219.54c-1.44,20.54-4.32,41.81-4.93,41.81l-6.37-.48-2.04-42.29-1.56-31.72v-1.32c0-.48,0-.84.24-1.32.84-3.36,3.96-5.89,7.57-5.53,4.08.36,6.97,3.72,6.85,7.81,1.44,6.37,1.08,19.58.24,33.04h0Z"/>
        <path class="cls-20" d="M69.63,243.33c-1.2,10.45-2.28,18.02-2.76,18.02l-6.37-.48-.84-17.54h9.97Z"/>
        <path class="cls-18" d="M58.58,267.71c0,1.32.72,2.28,1.8,3,.6.48,24.99,2.64,25.59,2.4,5.53-2.64-19.34-12.25-19.34-12.25l-6.73.24s-1.44,5.41-1.2,6.85h0v-.24h-.12Z"/>
        <g>
          <path class="cls-11" d="M72.64,145.17l-.84,29.91-.24,9.01c0,4.2-3.36,7.57-7.57,7.81-4.45.24-7.21-3.12-7.57-7.57l-.96-9.25-3-28.23v-.84c0-5.29,4.08-9.73,9.37-10.09,5.65-.48,10.57,3.72,10.93,9.37h0l-.12-.12Z"/>
          <path class="cls-19" d="M72.64,145.17l.48,28.83c0,.6-.48,1.08-1.08,1.08h-18.38c-.6,0-1.08-.48-1.08-1.08l-.24-27.15v-.84c0-5.29,4.08-9.73,9.37-10.09,5.65-.48,10.57,3.72,10.93,9.37h0v-.12h0Z"/>
        </g>
      </g>
      <g>
        <path class="cls-11" d="M29.39,219.54c1.44,20.54,4.32,41.81,4.93,41.81l6.37-.48,2.04-42.29,1.56-31.72v-1.32c0-.48,0-.84-.24-1.32-.84-3.36-3.96-5.89-7.57-5.53-4.08.36-7.09,3.72-6.85,7.81-1.44,6.37-1.08,19.58-.24,33.04h0Z"/>
        <path class="cls-20" d="M41.4,243.33l-.84,17.54-6.37.48c-.48,0-1.56-7.57-2.76-18.02h9.97Z"/>
        <path class="cls-18" d="M42.24,267.71c0,1.32-.72,2.28-1.8,3-.6.48-24.99,2.64-25.59,2.4-5.53-2.64,19.34-12.25,19.34-12.25l6.73.24s1.44,5.41,1.2,6.85h0v-.24h.12Z"/>
        <g>
          <path class="cls-11" d="M48.61,146.01v.72l-2.64,28.35-.84,9.13c-.36,4.45-3.24,7.81-7.57,7.69-4.2-.24-7.45-3.48-7.69-7.69l-.36-9.01-1.2-29.79c.48-5.65,5.29-9.73,10.81-9.49,5.41.36,9.49,4.81,9.49,10.09h0Z"/>
          <path class="cls-19" d="M48.61,146.01v.72l-.84,27.39c0,.6-.48.96-.96.96h-17.9c-.6,0-.96-.48-.96-.96l.48-28.83c.48-5.65,5.29-9.73,10.81-9.49,5.41.36,9.49,4.81,9.49,10.09h-.12v.12Z"/>
        </g>
      </g>
      <path class="cls-20" d="M74.2,73.45l-1.2,7.09-4.57,27.51c-1.08,4.33-1.32,8.65-.6,12.98h-34.48c1.68-4.93,2.04-10.09,1.2-15.26l-4.32-24.87-1.32-7.33,1.32-.72,17.3-10.93h9.97l15.62,10.81,1.2.72h-.12Z"/>
      <path class="cls-19" d="M72.52,148.18l-19.22,8.29h-5.77l-19.22-8.05c-.6-5.53.36-13.82,1.8-19.22.48-1.56.96-3.12,1.56-4.45.6-1.2,1.08-2.4,1.44-3.72h34.48c.36,2.04.72,4.08,1.44,5.89.72,2.28,1.56,5.17,2.04,8.53.6,3.24,1.8,8.29,1.2,12.61h.24v.12Z"/>
      <path class="cls-19" d="M61.34,64.56h0c-2.64,8.77-14.9,9.13-18.14.6v-.36l4.57-2.88h9.97l3.84,2.64s-.24,0-.24,0Z"/>
      <g id="german-boy-smiling">
        <path class="cls-13" d="M47.64,64.94h0c2.1,2.77,7.4,2.68,9.28,0h0c.44-.57.55-1.14.55-1.79v-10.66h-10.6v10.58c0,.65.22,1.3.66,1.95h.11s0,0,0,0h0v-.08Z"/>
        <path class="cls-16" d="M75.91,35.71c-.99,1.55-2.43,2.65-3.87,2.87h-1.21c-.44,4.09-1.88,7.84-3.98,10.93-3.98,5.96-9.94,9.61-14.36,9.39h-.99c-4.75,0-10.16-3.31-13.92-8.73-2.1-2.98-3.64-6.74-4.31-10.82h-.33c-1.44-.11-3.09-1.21-4.09-2.76-.22-.22-.33-.55-.44-.77-.22-.44-.33-.77-.44-1.1h0c-.33-1.55,0-2.87,1.21-3.42h0c1.1-.44,2.43-.11,3.64.77.88-12.48,8.73-23.53,18.33-23.75,2.98,0,5.74.77,8.28,2.32,5.85,3.64,10.16,12.37,11.16,21.21.55-.55,1.21-.99,1.88-1.33s1.77-.44,2.54-.11c1.77.66,1.99,3.09.66,5.3h.22Z"/>
        <g>
          <path class="cls-17" d="M38.91,29.08c.22,0,.44,0,.55-.33,1.88-3.53,5.08-2.1,5.19-1.99.33,0,.66,0,.88-.33,0-.33,0-.66-.33-.88-1.55-.66-4.97-1.1-6.85,2.54,0,.33,0,.66.22.88h.33v.11Z"/>
          <path class="cls-17" d="M58.13,26.21s.33.22.55,0c3.09-1.21,4.42,1.44,4.42,1.55,0,.22.44.33.66.22.22,0,.33-.44.22-.66-.55-1.33-2.54-3.42-5.74-2.1-.22,0-.44.44-.33.66v.22h.22v.11h0Z"/>
          <path class="cls-17" d="M42.78,31.62c0,1.21.77,2.32,1.66,2.32s1.77-1.1,1.77-2.32-.77-2.32-1.66-2.32-1.77,1.1-1.77,2.32Z"/>
          <path class="cls-17" d="M58.13,31.62c0,1.21.77,2.32,1.66,2.32s1.77-1.1,1.77-2.32-.77-2.32-1.66-2.32-1.77,1.1-1.77,2.32Z"/>
          <path class="cls-8" d="M46.87,47.09c.22.22,1.66,3.42,5.52,3.31,3.76,0,5.3-2.98,5.52-3.31"/>
          <path class="cls-4" d="M55.15,40.46c0,1.55-1.21,2.76-2.76,2.76s-2.76-1.21-2.76-2.76,1.21,1.55,2.76,1.55,2.76-3.09,2.76-1.55Z"/>
          <path class="cls-14" d="M64.87,34.94c2.21,0,3.98,1.66,3.87,3.53-.11,1.88-2.1,3.2-4.31,3.09s-3.98-1.66-3.87-3.53,2.1-3.2,4.31-3.09Z"/>
          <path class="cls-14" d="M39.69,34.94c2.21,0,3.98,1.66,3.87,3.53s-2.1,3.2-4.31,3.09-3.98-1.66-3.87-3.53,2.1-3.2,4.31-3.09Z"/>
        </g>
        <path class="cls-15" d="M73.82,16.27c-1.77-5.96-5.3-11.16-11.16-14.03C57.91-.08,42.12-3.83,33.39,10.42c-3.53,5.74-4.31,13.03-4.31,19.66s.99,11.38,4.53,15.9c.55.66,1.21,1.33,1.88,1.88,0,0-.77-3.98-1.33-5.63-1.77-5.85-1.55-12.7.33-18.56.33-.88.66-1.66.99-2.54.11-.44,1.21-2.43,1.1-2.76,1.88,4.53,8.06,6.3,12.48,7.07-.77-1.21-2.1-1.88-2.76-3.2-.77-1.33-1.21-2.76-1.66-4.09,5.3,1.99,10.82,5.74,16.9,5.41-1.33-1.33-4.86-3.98-4.75-6.19,1.33,1.88,3.64,2.43,5.74,3.2,1.33.44,2.76.77,4.09,1.21,1.1.33,1.1.22,1.44,1.21,1.99,6.63,2.87,14.58,1.33,21.43.33-1.66,3.09-4.86,3.64-6.41.66-1.88,1.21-3.76,1.66-5.74.77-3.87.77-7.95.22-11.82-.22-1.44-.55-2.87-.88-4.2h-.22Z"/>
      </g>
    </g>
  </g>
</svg>