<?xml version="1.0" encoding="UTF-8"?>
<svg id="Layer_2" data-name="Layer 2" xmlns="http://www.w3.org/2000/svg" viewBox="0 0 93.97 191.46">
  <defs>
    <style>
      .cls-1 {
        stroke: #282828;
        stroke-width: .75px;
      }

      .cls-1, .cls-2 {
        fill: none;
        stroke-linecap: round;
        stroke-miterlimit: 10;
      }

      .cls-3 {
        fill: #543a35;
      }

      .cls-4 {
        fill: #dbd4c6;
      }

      .cls-5, .cls-6 {
        fill: #603813;
      }

      .cls-7 {
        fill: #ca8a8c;
      }

      .cls-8 {
        fill: #d9a2a0;
      }

      .cls-9 {
        fill: #d9a8a7;
      }

      .cls-10 {
        fill: #5e533e;
      }

      .cls-11 {
        opacity: .37;
      }

      .cls-12 {
        fill: #c13355;
      }

      .cls-6 {
        isolation: isolate;
        opacity: .5;
      }

      .cls-13 {
        fill: #d3d3d3;
      }

      .cls-14 {
        fill: #f0eada;
      }

      .cls-15 {
        fill: #bfbebe;
      }

      .cls-2 {
        stroke: #630;
      }
    </style>
  </defs>
  <g id="Layer_1-2" data-name="Layer 1">
    <g id="german-woman-cook-cut">
      <path class="cls-3" d="M77.57,75.68c-2.7-5-6.9-8.9-9.7-13.8-1.2-2.1-1-19.5-14-21.8-2.7-.5-5.6-.3-8.3.2-2.6.5-5.2.8-7.4,2.3-2.1,1.4-3.8,3.4-4.9,5.6-1.4,2.9-1.6,6.2-2.8,9.2-3.4,8-9.9,14.3-12.6,22.5-.2.6-.4,1.3-.6,1.9-.9,3.6.2,7.6,2,10.8,1-2.3.6-4.9,1.9-7.3.7,6.1,1.6,11.9,5.5,16.9,3.7,4.8,8.4,7.2,13.5,10.2-.4-.9-.7-1.7-.6-2.7,2,1.9,6,3.9,8.7,3.2,4.1-1.2,7.6-3.7,11.1-5.7,0,1-1.4,2.6-2,3.4,4.8-2.4,10.6-6.4,13.2-11.2,2.5-4.6,3-10.2,3.5-15.2,1.7,2.2,2,5.4,2.9,7.9,2.6-4.7,3-11.8.5-16.6v.2h.1Z"/>
      <g>
        <g>
          <path class="cls-14" d="M74,169.86l-2.7-42.26,3.23,23.21s11.46,2.53,19.44-6.27c0,0-12.7-38.96-16.41-43.22-5.81-6.64-14.04-7.15-22.48-7.97-.11-1-.32-2.2-.5-3.04h-11.13c-.09.73-.23,1.75-.45,2.71-6.34,1.5-18.85.33-22.72,8.62-4.86,10.45-13.77,78.42-9.83,51.85l9.77-1.18h1.3l-1.49,12.59-1.78,25.82s23.91,2.27,57.55-1.17c-1.37-10.4-.34-5.64-1.94-19.73h.14v.03Z"/>
          <path class="cls-14" d="M20.39,131.55c.11,0,.36-1.6.82-4.18s1.09-6.16,1.93-10.06c.86-3.91,1.75-7.4,2.42-9.93.66-2.53,1.1-4.09,1-4.13-.09-.03-.68,1.46-1.46,3.96-.8,2.5-1.77,5.99-2.63,9.92s-1.43,7.54-1.75,10.15c-.32,2.63-.41,4.26-.32,4.28h0Z"/>
          <path class="cls-14" d="M71.36,130.72c.11-.02-.09-1.75-.41-4.53-.3-2.78-.71-6.62-1.06-10.86-.17-2.13-.3-4.16-.42-5.99-.11-1.85-.24-3.51-.14-4.87.09-1.36.44-2.41.83-3.04.39-.63.71-.88.68-.95-.02-.03-.41.15-.89.77s-.95,1.73-1.1,3.16c-.18,1.43-.08,3.11-.02,4.96.08,1.85.2,3.89.36,6.02.33,4.28.83,8.12,1.25,10.88.44,2.76.8,4.46.89,4.44l.02.02Z"/>
        </g>
        <g>
          <ellipse class="cls-10" cx="42.05" cy="122.78" rx="1.66" ry="2.65" transform="translate(-1.85 .65) rotate(-.87)"/>
          <ellipse class="cls-10" cx="55.45" cy="122.51" rx="1.66" ry="2.65" transform="translate(-1.85 .85) rotate(-.87)"/>
          <ellipse class="cls-10" cx="43.72" cy="143.03" rx="1.66" ry="2.65" transform="translate(-2.16 .68) rotate(-.87)"/>
          <ellipse class="cls-10" cx="57.12" cy="142.75" rx="1.66" ry="2.65" transform="translate(-2.15 .88) rotate(-.87)"/>
        </g>
        <g>
          <ellipse class="cls-10" cx="45.55" cy="159.61" rx="1.66" ry="2.65" transform="translate(-2.41 .71) rotate(-.87)"/>
          <ellipse class="cls-10" cx="58.96" cy="159.32" rx="1.66" ry="2.65" transform="translate(-2.4 .91) rotate(-.87)"/>
          <ellipse class="cls-10" cx="47.22" cy="179.87" rx="1.66" ry="2.65" transform="translate(-2.72 .73) rotate(-.87)"/>
          <ellipse class="cls-10" cx="60.62" cy="179.58" rx="1.66" ry="2.65" transform="translate(-2.71 .94) rotate(-.87)"/>
        </g>
        <path class="cls-4" d="M46,91.37h-1.07l.06,8.55-10.25,5.12c-.18.09-.29.26-.27.44l7.05,85.69c.26.03.97.03,1.07.03l-7.03-85.49,10.24-5.1c.17-.08.27-.24.27-.41l-.06-8.82h0Z"/>
      </g>
      <g>
        <path class="cls-13" d="M10.24,148.12h-5.03c-2.87,0-5.21-2.58-5.21-5.74s2.34-5.74,5.21-5.74h5.03c2.87,0,5.21,2.58,5.21,5.74s-2.34,5.74-5.21,5.74ZM5.21,138.4c-1.98,0-3.59,1.78-3.59,3.96s1.62,3.96,3.59,3.96h5.03c1.98,0,3.59-1.78,3.59-3.96s-1.62-3.96-3.59-3.96h-5.03Z"/>
        <path class="cls-13" d="M68.1,148.12h-5.03c-2.87,0-5.21-2.58-5.21-5.74s2.34-5.74,5.21-5.74h5.03c2.87,0,5.21,2.58,5.21,5.74s-2.34,5.74-5.21,5.74ZM63.06,138.4c-1.99,0-3.59,1.78-3.59,3.96s1.62,3.96,3.59,3.96h5.03c1.99,0,3.59-1.78,3.59-3.96s-1.62-3.96-3.59-3.96h-5.03Z"/>
        <path class="cls-13" d="M6.7,130.6h60.28c-34-19.8-60.28,0-60.28,0Z"/>
        <path class="cls-15" d="M6.7,130.6l3.2,37.95c.17,1.96,1.4,3.63,3.12,4.14,8.06,2.4,16.33,3.09,23.81,2.94,7.46.15,15.75-.53,23.81-2.94,1.72-.52,2.96-2.18,3.12-4.14l3.2-37.95H6.69h.02Z"/>
        <path class="cls-15" d="M39.1,118.84c0,3.18-1.01,5.76-2.25,5.76s-2.25-2.58-2.25-5.76,1.01-3.39,2.25-3.39,2.25.22,2.25,3.39Z"/>
        <path class="cls-13" d="M63.86,167.72c-26.19,9.07-53.77,0-53.77,0l-.26-.22.09,1.05c.17,1.96,1.4,3.63,3.12,4.14,8.06,2.4,16.33,3.09,23.81,2.94,7.46.15,15.75-.53,23.81-2.94,1.72-.52,2.96-2.18,3.12-4.14l.08-.83h0Z"/>
      </g>
      <path class="cls-9" d="M78.97,151.08l2.6,4.95s-21.41,1-23.74,2.75v6.42s17.89,4.91,31.38,2.25c1.19-.23,2.1-1.48,2.2-3.01.57-9.07,0-13.98-.54-17.4"/>
      <path class="cls-12" d="M22.16,173.06c-5.04,3.74-16.7,3.39-19.35-3.56-2.32-6.12,1.18-14.42,4.62-19,.66-.88,1.4-1.73,2.37-2.18s2.19-.35,2.91.47c.71.8.75,2.1.39,3.14s-1.06,1.9-1.75,2.73c3.37-2.6,7.85-3.31,11.74-1.88,1.18.43,2.31,1.06,3.23,1.96,2.46,2.43,3.05,6.6,2.01,10.05s-3.46,6.21-6.19,8.23v.03Z"/>
      <path class="cls-12" d="M48.38,175.77c2.02-.83,3.71-2.38,5.24-4.03.69-.75,1.27-1.78,2.17-2.03.95-.27,2.46.25,3.49.18.29-4.36-.21-8.77-1.45-12.91-.08-.25-.17-.52-.36-.65-.17-.12-.39-.12-.59-.12-.8.02-1.62.05-2.42.07-.29,0-.57,0-.85-.1-.2-.08-.38-.22-.54-.35-2.88-2.31-5.42-4.29-9.03-4.86-.72-.12-1.51-.15-2.13.28-.91.63-1.1,2.06-.72,3.16s1.19,1.95,2.01,2.7c-2.63.22-5.28.85-7.58,2.31-2.29,1.45-4.21,3.79-4.92,6.62-.71,2.83-.05,6.14,1.93,8.09,2.08,2.05,5.07,2.28,7.85,2.41,2.67.13,5.42.25,7.93-.78h-.03Z"/>
      <path class="cls-7" d="M45.57,95.48h0c1.7,3.2,6.2,3.1,7.8,0h0c.3-.6.5-1.3.5-2.1v-12.2h-9v12.1c0,.8.2,1.5.6,2.2h.1Z"/>
      <path class="cls-9" d="M67.17,67.08c-.7,1.3-1.9,2.2-3,2.5h-1c-.3,3.5-1.4,6.6-3,9.2-3,5-7.6,8.1-11,7.9h-.8c-2.8,0-5.9-1.6-8.5-4.5h0c-.8-.8-1.5-1.8-2.1-2.8-1.6-2.5-2.8-5.6-3.3-9.1h-.3c-1.1,0-2.4-1-3.2-2.3,0-.2-.2-.5-.3-.7,0-.3-.2-.7-.3-1h0c-.3-1.3,0-2.4,1-2.9h0c.8-.4,1.9,0,2.8.6.6-8.4,4.4-16,9.7-18.8,1.4-.8,2.8-1.2,4.4-1.2,2.3,0,4.4.7,6.4,2,4.5,3,7.8,10.4,8.5,17.9.4-.5.9-.9,1.4-1.1.7-.3,1.4-.4,2,0,1.3.6,1.5,2.6.5,4.5h0v-.2h.1Z"/>
      <g>
        <path class="cls-5" d="M58.67,63.78c-.2,0-.3,0-.4-.2-1.5-2.7-3.9-1.6-4-1.6-.2,0-.5,0-.7-.2,0-.2,0-.5.2-.7,1.2-.5,3.8-.9,5.3,2,0,.2,0,.5-.2.7h-.2Z"/>
        <path class="cls-5" d="M38.87,63.78c.2,0,.3,0,.4-.2,1.5-2.7,3.9-1.6,4-1.6.2,0,.5,0,.7-.2,0-.2,0-.5-.2-.7-1.2-.5-3.8-.9-5.3,2,0,.2,0,.5.2.7h.2,0Z"/>
        <path class="cls-5" d="M41.87,65.68c0,.9.6,1.8,1.3,1.8s1.4-.9,1.4-1.8-.6-1.8-1.3-1.8-1.4.9-1.4,1.8Z"/>
        <path class="cls-5" d="M53.77,65.68c0,.9.6,1.8,1.3,1.8s1.4-.9,1.4-1.8-.6-1.8-1.3-1.8-1.4.9-1.4,1.8Z"/>
        <path class="cls-2" d="M45.07,77.68c.2.2,1.3,2.7,4.3,2.6,2.9,0,4.1-2.3,4.3-2.6"/>
        <path class="cls-6" d="M51.37,72.58c0,1.2-.9,2.1-2.1,2.1s-2.1-.9-2.1-2.1.9,1.2,2.1,1.2,2.1-2.4,2.1-1.2Z"/>
        <path class="cls-8" d="M58.87,68.28c1.7,0,3.1,1.3,3,2.7s-1.6,2.5-3.4,2.4-3.1-1.3-3-2.7,1.6-2.5,3.4-2.4Z"/>
        <path class="cls-8" d="M39.37,68.28c1.7,0,3.1,1.3,3,2.7s-1.6,2.5-3.4,2.4-3.1-1.3-3-2.7,1.6-2.5,3.4-2.4Z"/>
      </g>
      <path class="cls-3" d="M65.47,62.68c0,2.6-1.4,13.5-4.7,16,1.5-6.9,2.3-17.1-.4-20.6-.9-1.2-3.7-3.4-3.5-5.1-4.1,5.3-12.4,6.6-14,6.8-2,.5-4.8.9-6.3,1.4-.5,5.1.4,15,.9,18-1.7-2.5-2.9-5.6-3.4-9.1,0,0-.4-2.7-.3-3.8-1.2.3-2.4.7-3.6.8h-.7c0-.3.2-.7.4-1h0c.2-.4.4-.7.6-1,.2-.6.4-1.2.5-1.9v-.4c.3-1.5.3-2.9.4-4.4.2-3,.5-6,1.9-8.7,3.1-5.8,10-10.2,17-9.9,2.5.1,5,.9,7.1,2.2,4.3,2.7,7.4,7.5,8,12.4v8.2h0l.1.1Z"/>
      <g>
        <line class="cls-1" x1="33.87" y1="62.66" x2="38.97" y2="70.16"/>
        <path class="cls-1" d="M35.55,72.03s1.81,5.06,2.88,7.67"/>
        <line class="cls-1" x1="65.06" y1="62.84" x2="59.9" y2="70.16"/>
        <path class="cls-1" d="M63.19,72.19s-1.68,4.89-2.75,7.5"/>
        <path class="cls-14" d="M49.43,85.71s4.93.03,11.19-6.02l-.27-8.88c-.02-.63-.45-1.16-1.05-1.29l-9.87-2.17-9.87,2.17c-.6.13-1.03.66-1.05,1.29l-.27,8.88c6.26,6.05,11.19,6.02,11.19,6.02h0Z"/>
      </g>
      <g>
        <path class="cls-14" d="M44.28,27.96l-10.3.57-3.47,24.69s21.3,3.82,37.66-.87c-.21-8.21-2.12-21.74-2.35-24.89l-21.54.5Z"/>
        <g class="cls-11">
          <path class="cls-4" d="M65.82,27.46l-21.54.5-10.3.57-1.66,11.8c1.94.42,3.96.41,5.89-.07,3.57-.89,6.77-3.38,8.67-6.74-.74,1.3,3.25,4.14,3.98,4.54,1.91,1.07,3.55,2.31,5.7,2.86,3.58.92,6.86,1.53,10.57.61.09-.02.17-.05.25-.07-.63-6.17-1.41-12.07-1.55-14.02v.02Z"/>
        </g>
        <path class="cls-4" d="M49.34,49.53c-6.07.11-12.19.03-18.2-.79l-.63,4.48s21.3,3.82,37.66-.87c-.04-1.51-.14-3.19-.27-4.96-5.98,1.67-12.34,2.02-18.56,2.13h0Z"/>
        <path class="cls-14" d="M24.15,28.48c-3.36-5.77-1.32-14.13,4.95-16.16,2.38-.77,4.57-.33,6.97.07-.32-3.29,1.09-6.63,3.39-8.84C41.94,1.16,45.37.04,48.66,0c3.48-.04,5.96,1.33,7.87,4.53,1.48,2.49,1.4,4.78,1.88,7.59.8-.79,1.88-1.18,2.96-1.3,3.43-.38,7.02.43,9.92,2.45,4.65,3.24,7.04,11.19,4.02,16.5-.37.66-.83,1.25-1.29,1.85-1.95,2.52-4.41,3.93-7.44,4.58-3.73.81-7,.11-10.55-.91-2.14-.62-3.74-1.9-5.63-3.03-.72-.43-4.63-3.37-3.86-4.66-1.98,3.31-5.24,5.7-8.83,6.49s-7.46-.04-10.5-2.24c-1.27-.93-2.29-2.08-3.05-3.37h-.01Z"/>
      </g>
    </g>
  </g>
</svg>