<?xml version="1.0" encoding="UTF-8"?>
<svg id="Ebene_2" data-name="Ebene 2" xmlns="http://www.w3.org/2000/svg" viewBox="0 0 83.43 246.69">
  <defs>
    <style>
      .cls-1 {
        opacity: .6;
      }

      .cls-1, .cls-2, .cls-3, .cls-4 {
        isolation: isolate;
      }

      .cls-1, .cls-5 {
        fill: #9162a6;
      }

      .cls-6 {
        fill: #d9b6b6;
      }

      .cls-7 {
        fill: none;
        stroke: #630;
        stroke-linecap: round;
        stroke-miterlimit: 10;
      }

      .cls-8 {
        fill: #d9a2a0;
      }

      .cls-2, .cls-9 {
        fill: #d9baba;
      }

      .cls-2, .cls-3, .cls-4 {
        opacity: .5;
      }

      .cls-3 {
        fill: #ec8ab9;
      }

      .cls-10, .cls-4 {
        fill: #603813;
      }

      .cls-11 {
        fill: #8b2b0e;
      }

      .cls-12 {
        fill: #273758;
      }

      .cls-13 {
        fill: #51306d;
      }

      .cls-14 {
        fill: #c69696;
      }

      .cls-15 {
        fill: #524194;
      }

      .cls-16 {
        fill: #e6e6e6;
      }

      .cls-17 {
        fill: #3f6138;
      }
    </style>
  </defs>
  <g id="Layer_1" data-name="Layer 1">
    <g id="german-girl-cup">
      <g>
        <path class="cls-6" d="M41.34,90.79h0c.9,1.3,1.4,2.9,1.2,4.5l-4.3,32-6.5-2.4,1.6-30.9c.2-4.7,5.3-6.7,8-3.2h0Z"/>
        <path class="cls-6" d="M39.14,99.29h0c-3.4.5-6.2-3.4-5.7-7.5l4.3-26.4c.6-4.2,3.7-6.8,7-6h0c3.8.9,6.3,6,5,10.6l-7.1,24.7c-.6,2.1-1.6,4.4-3.4,4.6h-.1Z"/>
        <path class="cls-16" d="M39.84,60.69c-3,3.3-6.6,9.9-8.2,23.3l13.5,4.9,1.2-5.2c3.3-8.2,5.8-15.7,4.6-20.7-1.2-4.7-7.8-6-11.1-2.3h0Z"/>
        <path class="cls-6" d="M36.94,137.19l1.2-10.5-6.5-2.4v.4c-7.3,4.6-8,11.1-8,11.1-.8,6.2.8,6.9,2.2,6.4,1-.3,1.8-1.2,2.1-2.2,1.9-4.6,6.8-8.9,6.8-8.9.2,9,2.1,6.2,2.1,6.2h.1v-.1Z"/>
      </g>
      <path class="cls-16" d="M69.74,100.19l5.3-29.7c.6-3.3.5-8.8-3-10.1l-5.3-4-2.5-2.3-9.1.3s-1.6,1.8-4.7,2.7c-11.6,3.6-9,2.3-10.6,16.5l-.4,9.2c-.3,8.2-.8,16.3-1.6,24.5,10.1,3.1,20.3,2.6,30.6-1.3l1.2-5.8h.2-.1,0Z"/>
      <g>
        <path class="cls-11" d="M33.24,37.99c-.2-4.7,1.9-8.4,3.6-12.2.7-1.7,1.4-4.8,2.6-6.1,1.5-1.8,5.4-1.1,7.4-1.3,7.4-.6,14.8-.3,22.2.3,2.3.2,3.7-.7,4.7,2.5.7,2.1,1.1,2.9,1.1,2.9,2.4,3.9,6.3,6.2,7.9,11.2,1.2,4.1.9,9.2-1.4,12.2,0-1.6-.3-3.7-.7-5.1-1.6,1.3-2.6,3.7-4.1,5.1s-3.3,2.7-5.1,3.5c-.2-1.4.2-3.3-.2-4.5-1.2,3.2-4.3,4.8-6.7,6.2,0-1.9.3-4.3-1.2-3.2-.4.3-.9,1.6-1.4,2.1s-1.1.8-1.7,1.2c-1.8,1.2-2.5,1.5-4.3.2-1.2-1.1-2.8-2.5-3.8-3.9-.6,1.2-.2,3.2-.1,4.6-2,.2-4.5-2.2-5.8-4.1-.3,1.1,0,2.3-.2,3.4-2.6-.2-7.4-4.8-8.7-7.7-1.2,1.1-2.1,3.7-1.7,5.6-2.2-3.4-2.4-8.7-2.6-13h.2v.1Z"/>
        <path class="cls-14" d="M58.64,57.59h0c3.2,0,5.6-2.8,5.5-5.9l-.4-11.1-9.1.3.5,13.5c0,1.8,1.6,3.2,3.4,3.2h.1Z"/>
        <path class="cls-9" d="M38.14,31.69c.4,1.8.7,3.4,1.4,5,.2.6.4,1.1.7,1.7,3.2,7.3,8.9,12.1,15.4,12,3.1,0,6-1.3,8.5-3.4.6-.4,1.1-.9,1.6-1.5,4.2-4.6,6.9-11.7,6.6-19.8-.4-13.4-8.3-24-17.9-23.8-1.4,0-2.8.3-4.1.8-7.5,2.8-13.1,12.4-12.8,23.8"/>
        <g>
          <path class="cls-10" d="M60.64,26.29c-.2,0-.4,0-.5-.3-1.7-3.2-4.6-1.9-4.7-1.8-.3,0-.6,0-.8-.3,0-.3,0-.6.3-.8,1.4-.6,4.5-1,6.2,2.3,0,.3,0,.6-.2.8h-.3v.1Z"/>
          <path class="cls-10" d="M43.24,23.69s-.3.2-.5,0c-2.8-1.1-4,1.3-4,1.4,0,.2-.4.3-.6.2-.2,0-.3-.4-.2-.6.5-1.2,2.3-3.1,5.2-1.9.2,0,.4.4.3.6v.2h-.2v.1Z"/>
          <path class="cls-10" d="M57.14,28.59c0,1.1-.7,2.1-1.5,2.1s-1.6-1-1.6-2.1.7-2.1,1.5-2.1,1.6,1,1.6,2.1Z"/>
          <path class="cls-10" d="M43.24,28.59c0,1.1-.7,2.1-1.5,2.1s-1.6-1-1.6-2.1.7-2.1,1.5-2.1,1.6,1,1.6,2.1Z"/>
          <path class="cls-7" d="M55.04,40.69c0,.2-.8,3.2-3.8,3.7-2.9.4-4.5-1-4.7-1.3"/>
          <path class="cls-4" d="M46.44,34.09c-1,1-1,2.5,0,3.5s2.5,1,3.5,0-1.8.2-2.8-.7c-1-1,.2-3.7-.8-2.8h.1Z"/>
          <path class="cls-8" d="M38.34,31.69c.4,1.8.7,3.4,1.4,5,.2.6.4,1.1.7,1.7,1-.7,1.5-2,1.4-3.2,0-1.8-1.6-3.2-3.4-3.4h0l-.1-.1Z"/>
          <path class="cls-8" d="M59.94,31.49c-2,0-3.6,1.5-3.5,3.2s1.9,2.9,3.9,2.8,3.6-1.5,3.5-3.2-1.9-2.9-3.9-2.8Z"/>
        </g>
        <path class="cls-2" d="M63.84,46.89h.2c.6-.4,1.1-.9,1.6-1.5,4.2-4.6,6.9-11.7,6.6-19.7-.4-13.4-8.3-24-17.9-23.8-1.4,0-2.8.3-4.1.8,7.6,5.6,21.1,20.7,13.6,44.3h0v-.1Z"/>
        <g>
          <path class="cls-9" d="M68.14,25.79c-1,3-.3,5.9,1.6,6.5s4.2-1.3,5.2-4.4.3-5.9-1.6-6.5c-1.8-.6-4.2,1.3-5.2,4.4Z"/>
          <path class="cls-2" d="M68.14,25.79c-1,3-.3,5.9,1.6,6.5s4.2-1.3,5.2-4.4.3-5.9-1.6-6.5c-1.8-.6-4.2,1.3-5.2,4.4Z"/>
        </g>
        <path class="cls-11" d="M38.44,23.79c-.8,4.4-2.3,3.7.2,12.7s1,4.9,1.6,7.2c.5,2.1,2.3,4,2.1,6.2-1.4-.8-4.2-3-5.2-4.3-2-2.8-1.4-9.2-1.2-12.6h0c.2-3.3.4-8.8.6-11.3v-2.6c0-6.5,2.6-12.8,6.8-16.5,4.3-2.5,6.9-.9,10.2-1.6,10.1-2.1,16.5-1.4,20.5,7.3,9.7,21.3-1.5,33-3.2,36-.9,1.4-9.5,7.4-10.9,8.3,7.1-8.2,6.2-21.9,4.9-30-.6-4-2.9-7.6-6.2-10h0s-1.2.5-3,1.3c-1.2,0-1.5.2-1.9.2-.8.2-.7,0-1.6.5-.6,0-1-.2-1-.2h-.8c-1.8.6-1.6.7-3.3,1.1-1,0-2.5-1-2.1-1.9-3.2,2.4-4.7,6.5-5.1,7.5"/>
        <path class="cls-11" d="M66.24,19.69l.7-.4c0-6.5-1.5-11.6-5.7-15.3-3-2.7-6.7-.2-10-.9-6.6,4-5.2,3-9.2,11.7,0,1.1,0,0-.3,1.3-.3.9.3-1.3,0,.4,0,0,0-.7,0,.6l3.1-2.2h0s2.7,3,4.3,4.2c2,1.4,4.6,2.6,6.8,2.8-.3-.6-.9-1.2-1.2-1.8-.2-.3-.4-.8-.6-1.1,1.1,1.5,3,2.8,4.4,4,1.4,1.1,2.9,1.7,4.5,2.4.1-.6-1.2-3.3-1.6-4.2.5.8,2.2,1.5,3.3,1.5"/>
      </g>
      <g>
        <path class="cls-6" d="M55.54,197.59c1.2,18.7,3.7,38.1,4.3,38.1l5.8-.4,2-38.5,1.5-28.9v-1.2c0-.4,0-.8-.2-1.2-.7-3.1-3.6-5.3-6.9-5.1-3.3.2-6,2.9-6.2,6.1,0,.9-.2,1.7-.3,2.6-1,6.2-.7,17.2,0,28.5h0Z"/>
        <path class="cls-12" d="M66.74,242.69c0,.6-.4,1.6-.9,2.4-.5,1-1.5,1.6-2.6,1.6h-21.6c-4.9-2.6,18.2-10.9,18.2-10.9h5.7s1.3,5.8,1.1,7h.1v-.1Z"/>
        <path class="cls-6" d="M62.34,173.29h0c-3.8-.4-6.6-3.6-6.5-7.5l.8-35.3c.7-5.1,5.3-8.6,10.4-7.9h0c5.1.7,8.6,5.3,7.9,10.4l-5.3,33.8c-.5,3.9-3.4,6.9-7.3,6.5h0Z"/>
      </g>
      <g>
        <path class="cls-6" d="M37.74,197.59c1.2,18.7,3.7,38.1,4.3,38.1l5.8-.4,2-38.5,1.5-28.9v-1.2c0-.4,0-.8-.2-1.2-.7-3.1-3.6-5.3-6.9-5.1s-6,2.9-6.2,6.1c0,.9-.2,1.7-.3,2.6-1,6.2-.7,17.2,0,28.5h0Z"/>
        <path class="cls-12" d="M48.84,242.69c0,.6-.4,1.6-.9,2.4-.5,1-1.5,1.6-2.6,1.6h-21.6c-4.9-2.6,18.2-10.9,18.2-10.9h5.7s1.3,5.8,1.1,7h.1v-.1Z"/>
        <path class="cls-6" d="M44.44,173.29h0c-3.8-.4-6.6-3.6-6.5-7.5l.8-35.3c.7-5.1,5.3-8.6,10.4-7.9h0c5.1.7,8.6,5.3,7.9,10.4l-5.3,33.8c-.5,3.9-3.4,6.9-7.3,6.5h0Z"/>
      </g>
      <g>
        <path class="cls-17" d="M36.54,140.09l16,6.7,19-7.3h0s1.5-5.3.9-12c-.3-2.6-.9-5.2-1.6-7.6-1.4-4.2-1.9-8.5-1.9-12.9-.3-.8-.5-1.1-.5-1.1-10.3,3.9-20.5,4.4-30.6,1.3,0,.5,0,.9-.2,1.4-.2,2.3-.5,4.7-.9,7,0,.6-.2,1.1-.2,1.6-.2,1-.3,2-.4,3-.6,4.3-.7,9.5.2,19.8h.2v.1Z"/>
        <path class="cls-17" d="M68.44,106.29s12.6,29.6,13.1,57.7c0,1.5-.8,2.7-2,3.2-7.8,2.4-36.5,10.2-50.7,0-.9-.7-1.5-1.8-1.3-3.1.8-8.2,4.2-40.9,9.9-56.7,10.3,3.9,20.6,3.4,31.1-1.1h-.1Z"/>
      </g>
      <g>
        <path class="cls-6" d="M55.5,88.08h0c-1.18-.91-3.01-1.26-4.49-.94l-31.76,5.49,2.63,6.41,30.77-2.8c4.68-.38,6.48-5.44,2.86-8.06v-.1h0,0Z"/>
        <path class="cls-6" d="M48.3,92.88h0c1.73,2.9,6.55,2.65,9.36-.64l17.39-20.22c2.88-3.08,2.89-7.18.14-9.26h0c-3.17-2.38-8.6-.89-11.3,3.11l-14.18,21.47c-1.27,1.86-2.28,4.16-1.28,5.68l-.14-.15h0Z"/>
        <path class="cls-16" d="M77.42,67.37c-.59,4.37-3.33,11.41-12.48,21.4l-12.61-7.13,3.21-4.34c4.05-7.84,8.19-14.55,12.8-16.78,4.26-2.17,9.62,1.99,8.94,6.85l.07.07.07-.07Z"/>
        <g>
          <g>
            <path class="cls-5" d="M22.73,86.52H1.03l3.06,22.58c0,.15.84.29,2.2.4.18.01.38.03.58.04,1.35.08,3.1.13,5.01.13,1.24,0,2.42-.02,3.46-.06,2.56-.09,4.33-.29,4.33-.51,0,0,0,0,0,0l3.06-22.58Z"/>
            <path class="cls-13" d="M11.88,109.75c-1.83,0-3.62-.05-5.02-.13-.2-.01-.39-.03-.58-.04-2.23-.17-2.27-.36-2.27-.47l-3.06-22.58s0-.04.02-.06c.01-.02.04-.03.06-.03h21.7s.04.01.06.03c.01.02.02.04.02.06l-3.06,22.57h0c0,.12-.1.25-1.27.39-.77.09-1.85.16-3.13.21-1.08.04-2.25.06-3.47.06ZM4.17,109.09s.27.19,2.13.33c.18.01.37.03.58.04,1.4.09,3.18.13,5.01.13,1.21,0,2.38-.02,3.46-.06,3.15-.11,4.15-.34,4.25-.44,0,0,0,0,0,0l3.05-22.49H1.12l3.05,22.49Z"/>
          </g>
          <path class="cls-3" d="M3.68,86.52h-.57l.26,1.71,2.93,21.27c.18.01.38.03.58.04l-2.93-21.31-.26-1.71Z"/>
          <path class="cls-1" d="M22.8,86.31h-5.35l-.1.99-1.93,22.11c2.56-.09,4.33-.29,4.33-.51,0,0,0,0,0,0l3.06-22.58Z"/>
          <g>
            <path class="cls-5" d="M.48,83.86H.08s.46,3,.46,3c0,.44,5.28.8,11.34.8s11.32-.36,11.32-.8l.48-2.99H.48Z"/>
            <path class="cls-13" d="M11.88,87.74c-2.91,0-5.81-.09-7.95-.24-3.41-.24-3.47-.52-3.47-.64L0,83.87s0-.05.02-.06c.01-.02.03-.03.06-.03h.41s23.19.01,23.19.01c.02,0,.04.01.06.03.01.02.02.04.02.06l-.48,2.98c0,.12-.06.4-3.46.64-2.13.15-5.03.24-7.94.24ZM.17,83.94l.44,2.91s0,0,0,.01c.17.34,4.84.73,11.27.73s11.07-.39,11.24-.73l.47-2.9H.48s-.32-.01-.32-.01Z"/>
          </g>
          <path class="cls-3" d="M2.24,83.86l.53,3.51c.18.02.38.03.58.04l-.53-3.56h-.57Z"/>
          <path class="cls-1" d="M18.28,83.87c-.2,1.22-.35,2.44-.44,3.67,3.17-.14,5.36-.39,5.36-.68l.48-2.99h-5.4Z"/>
          <g>
            <path class="cls-5" d="M23.68,83.86c0,.48-5.28.87-11.8.87s-11.8-.39-11.8-.87,5.28-.87,11.8-.87,11.8.39,11.8.87Z"/>
            <path class="cls-13" d="M11.88,84.8c-3.15,0-6.12-.09-8.35-.25C0,84.29,0,83.97,0,83.86s0-.43,3.53-.69c2.23-.16,5.2-.25,8.35-.25s6.12.09,8.35.25c3.53.26,3.53.57,3.53.69s0,.43-3.53.69c-2.23.16-5.2.25-8.35.25ZM11.88,83.07c-3.09,0-6.02.09-8.23.25-3.29.23-3.48.51-3.49.55.01.02.21.3,3.49.54,2.21.16,5.14.25,8.23.25s6.02-.09,8.23-.25c3.29-.23,3.48-.51,3.49-.54-.01-.02-.21-.3-3.49-.54-2.21-.16-5.14-.25-8.23-.25Z"/>
          </g>
          <g>
            <path class="cls-15" d="M22.63,83.81c0,.32-4.85.57-10.82.57s-10.82-.26-10.82-.57,4.85-.57,10.82-.57c5.98,0,10.82.26,10.82.57Z"/>
            <path class="cls-13" d="M11.8,84.45c-2.89,0-5.61-.06-7.66-.17-3.24-.17-3.24-.37-3.24-.48s0-.31,3.24-.48c2.05-.11,4.77-.17,7.66-.17s5.61.06,7.66.17c3.24.17,3.24.37,3.24.48s0,.31-3.24.48c-2.05.11-4.77.17-7.66.17ZM1.08,83.81c.49.24,4.78.49,10.72.49s10.23-.25,10.72-.49c-.49-.24-4.78-.49-10.72-.49-5.94,0-10.23.25-10.72.49Z"/>
          </g>
        </g>
        <path class="cls-6" d="M11.5,93.46l10.51-1.56,2.57,6.43-.4.03c-4.37,7.54-10.82,8.4-10.82,8.4-6.25.85-6.87-.71-6.46-2.04.33-.93,1.08-1.68,2.14-2.26,4.46-2.13,8.81-7.06,8.81-7.06-9.02.05-6.36-1.95-6.36-1.95h0Z"/>
      </g>
    </g>
  </g>
</svg>