<?xml version="1.0" encoding="UTF-8"?>
<svg id="Ebene_2" data-name="Ebene 2" xmlns="http://www.w3.org/2000/svg" viewBox="0 0 232.78 847.81">
  <defs>
    <style>
      .cls-1 {
        fill: #156caf;
      }

      .cls-2 {
        fill: #d9b6b6;
      }

      .cls-3 {
        fill: none;
        stroke: #630;
        stroke-linecap: round;
        stroke-miterlimit: 10;
      }

      .cls-4 {
        fill: #1261ae;
      }

      .cls-5 {
        fill: #d9a2a0;
      }

      .cls-6 {
        fill: #26aeec;
      }

      .cls-7 {
        fill: #6dc3c7;
      }

      .cls-7, .cls-8, .cls-9, .cls-10 {
        isolation: isolate;
        opacity: .5;
      }

      .cls-8, .cls-11 {
        fill: #d9baba;
      }

      .cls-12 {
        fill: #d38a17;
      }

      .cls-9 {
        fill: #26adeb;
      }

      .cls-13, .cls-10 {
        fill: #603813;
      }

      .cls-14 {
        fill: #273758;
      }

      .cls-15 {
        fill: #466e9f;
      }

      .cls-16 {
        fill: #c69696;
      }

      .cls-17 {
        fill: #e6e6e6;
      }
    </style>
  </defs>
  <g id="svg">
    <g id="german-boy-cup">
      <g>
        <path class="cls-2" d="M96.81,313.89h0c3.03,4.55,4.85,10.01,4.25,15.47l-14.56,109.21-22.15-8.19,5.46-105.57c.61-16.08,18.2-22.75,27.3-10.92h-.3Z"/>
        <path class="cls-2" d="M89.53,342.71h0c-11.53,1.82-21.24-11.53-19.42-25.48l14.56-90.1c2.12-14.26,12.74-23.36,23.97-20.63h0c13.04,3.03,21.54,20.63,16.99,36.1l-24.27,84.33c-2.12,7.28-5.46,15.17-11.53,15.77h-.3Z"/>
        <path class="cls-17" d="M91.65,210.75c-10.31,11.22-22.45,33.67-27.91,79.48l46.11,16.68,3.94-17.59c11.22-27.91,19.72-53.7,15.77-70.68-3.94-16.08-26.7-20.63-37.92-7.89h0Z"/>
        <path class="cls-2" d="M81.94,472.24l4.25-35.8-22.15-8.19v1.52c-24.88,15.77-27.61,37.92-27.61,37.92-2.73,21.24,2.73,23.66,7.58,21.84,3.34-.91,6.07-3.94,7.28-7.58,6.37-15.77,23.06-30.34,23.06-30.34.61,30.64,7.28,21.24,7.28,21.24h.61v-.61h-.3Z"/>
      </g>
      <path class="cls-17" d="M83.46,371.22c2.73-27.61,4.55-55.52,5.76-83.42l1.52-31.55c.91-21.54,5.76-56.73,34.28-54.61,8.49-3.94,18.2-11.22,18.2-11.22l30.94-.91,8.49,7.89,23.36,11.83c8.49,7.89,7.28,24.88,5.16,36.1l-18.2,101.32c-.91,6.07-1.82,12.13-2.12,18.81-.91,0-2.12.61-2.73,1.52-34.89,13.04-69.17,14.56-103.45,4.55h-.91v-.3h-.3Z"/>
      <g>
        <g>
          <path class="cls-2" d="M134.12,680.05c3.94,64.01,12.74,130.14,14.56,130.14l19.72-1.21,6.67-131.36,5.16-98.59v-3.94c0-1.52,0-2.73-.61-3.94-2.43-10.62-12.13-18.2-23.66-17.29-11.22.61-20.63,10.01-21.24,20.93,0,3.03-.61,5.76-.91,8.8-3.34,21.24-2.43,58.85,0,97.38h0v-.91h.3Z"/>
          <path class="cls-17" d="M140.19,750.43c3.64,34.58,7.58,60.07,8.8,60.07h19.42l3.03-60.07h-31.55.3Z"/>
        </g>
        <path class="cls-14" d="M172.34,834.16c0,2.12-1.52,5.46-3.03,8.19-1.82,3.34-5.16,5.46-8.8,5.46h-73.72c-16.68-8.8,62.19-37.31,62.19-37.31h19.42s4.55,19.72,3.64,23.97h0l.3-.3Z"/>
        <g>
          <path class="cls-2" d="M157.48,596.93h0c-13.04-1.21-22.45-12.44-22.15-25.48l2.73-120.43c2.43-17.29,18.2-29.43,35.49-27h0c17.29,2.43,29.43,18.2,27,35.49l-18.2,115.58c-1.82,13.35-11.53,23.66-24.88,22.15h0v-.3Z"/>
          <path class="cls-15" d="M132.3,561.13l65.53,1.82,2.73-109.21c0-17.29-13.35-32.16-30.94-32.46h-1.82c-17.29,0-32.16,13.35-32.46,30.64l-2.73,109.21h-.3Z"/>
        </g>
      </g>
      <g>
        <g>
          <path class="cls-2" d="M73.45,680.05c4.25,64.01,12.74,130.14,14.56,130.14l19.72-1.21,6.67-131.36,5.16-98.59v-3.94c0-1.52,0-2.73-.61-3.94-2.43-10.62-12.13-18.2-23.66-17.29-11.53.91-20.63,10.01-21.24,20.93,0,3.03-.61,5.76-.91,8.8-3.34,21.24-2.43,58.85,0,97.38h0v-.91h.3Z"/>
          <path class="cls-17" d="M79.21,750.43c3.64,34.58,7.58,60.07,8.49,60.07h19.42l3.03-60.07h-31.55.61,0Z"/>
        </g>
        <path class="cls-14" d="M111.37,834.16c0,2.12-1.52,5.46-3.03,8.19-1.82,3.34-5.16,5.46-8.8,5.46H25.82c-16.68-8.8,62.19-37.31,62.19-37.31h19.42s4.55,19.72,3.64,23.97h0l.3-.3Z"/>
        <g>
          <path class="cls-2" d="M96.2,596.93h0c-13.04-1.21-22.45-12.44-22.15-25.48l2.73-120.43c2.43-17.29,18.2-29.43,35.49-27h0c17.29,2.43,29.43,18.2,27,35.49l-18.2,115.58c-1.82,13.35-11.53,23.66-24.88,22.15h0v-.3Z"/>
          <path class="cls-15" d="M59.8,551.12l64.62,8.8,15.17-107.69c2.43-17.59-10.01-34.28-27.61-37.01h0c-17.9-2.43-34.28,10.01-37.01,27.61l-15.17,107.69h0v.61h0Z"/>
        </g>
      </g>
      <path class="cls-15" d="M77.7,465.27v-13.95c-.3-2.73,0,0-.3-.61v-33.67c.91-7.89,2.12-15.77,3.34-23.36.3-5.16.91-10.31,1.52-15.17,0-2.12.61-3.94.61-6.07,34.58,10.62,71.59,7.89,106.48-5.46v5.16c-.61,15.17,1.52,30.03,5.76,44.29,2.73,8.19,4.55,17.29,5.46,26.09,2.12,23.36-3.03,40.65-3.03,40.65h0l-61.28,23.36-3.03.91h-1.52l-54.61-22.45c0-5.16-.61-10.01-.91-14.56v-4.55h2.43-.91v-.61Z"/>
      <g>
        <path class="cls-2" d="M183.87,348.78h0c10.31,5.76,23.97,15.17,27.3-17.29l17.29-88.89c3.34-13.95-3.94-26.09-16.08-27.91h0c-13.95-1.82-27.61,11.53-28.82,27.91l-5.16,87.37c-.61,7.58,0,16.38,6.07,19.11h-.61v-.3Z"/>
        <path class="cls-17" d="M225.43,224.09c6.37,13.65,11.53,37.92,2.43,79.78l-52.48-2.12,1.52-17.29c-2.43-28.52-2.43-53.7,7.28-67.04,8.8-12.74,33.37-8.19,40.65,6.67h.61,0Z"/>
        <path class="cls-2" d="M152.02,367.28l41.26-8.19c15.77-3.03,19.72-20.63,6.67-28.21h0c-4.55-2.43-10.01-2.73-15.77-1.52l-104.05,28.82,10.92,20.93,60.67-11.83"/>
        <g id="s-deception-b-cup-blue">
          <g>
            <path class="cls-6" d="M77.82,327.35H3.53l10.48,77.32c0,.53,2.87,1.01,7.53,1.36.63.05,1.28.09,1.97.14,4.64.29,10.63.46,17.17.46,4.26,0,8.29-.07,11.86-.2,8.77-.32,14.81-.98,14.81-1.75,0,0,0,0,0,0l10.48-77.31Z"/>
            <path class="cls-4" d="M40.67,406.88c-6.28,0-12.38-.16-17.19-.46-.69-.04-1.35-.09-1.98-.14-7.64-.58-7.77-1.24-7.77-1.61l-10.48-77.3c-.01-.08.01-.15.06-.21.05-.06.12-.09.2-.09h74.29c.08,0,.15.03.2.09.05.06.07.14.06.21l-10.47,77.27s0,0,0,.01c0,.39-.34.84-4.35,1.31-2.63.3-6.33.55-10.72.71-3.71.14-7.71.2-11.87.2ZM14.27,404.62c.1.1.92.65,7.28,1.13.63.05,1.28.09,1.97.14,4.79.3,10.88.46,17.15.46,4.16,0,8.14-.07,11.85-.2,10.76-.39,14.2-1.15,14.55-1.52,0,0,0,0,0-.01l10.44-77.01H3.83l10.44,77.01Z"/>
          </g>
          <path class="cls-7" d="M12.59,327.35h-1.96l.88,5.84,10.02,72.84c.63.05,1.28.09,1.97.14l-10.03-72.97-.88-5.84Z"/>
          <path class="cls-9" d="M77.82,327.35h-18.32l-.34,3.38-6.62,75.69c8.77-.32,14.81-.98,14.81-1.75,0,0,0,0,0,0l10.48-77.31Z"/>
          <g>
            <path class="cls-6" d="M1.66,318.24H.27s1.57,10.26,1.57,10.26c0,1.52,18.08,2.76,38.84,2.76s38.75-1.23,38.75-2.76l1.64-10.23-79.41-.03Z"/>
            <path class="cls-4" d="M40.67,331.52c-9.97,0-19.9-.29-27.22-.81-11.69-.82-11.88-1.77-11.88-2.19L0,318.26c-.01-.08.01-.16.06-.21.05-.06.13-.08.2-.09h1.39s79.4.05,79.4.05c.08,0,.15.03.2.09.05.06.07.14.06.22l-1.64,10.21c0,.43-.2,1.37-11.84,2.19-7.3.51-17.21.81-27.18.81ZM.58,318.49l1.52,9.97s0,.03,0,.04c.59,1.16,16.58,2.49,38.57,2.49s37.9-1.32,38.48-2.51l1.59-9.94-79.09-.03H.58Z"/>
          </g>
          <path class="cls-7" d="M7.67,318.24l1.81,12.03c.63.05,1.29.1,1.98.15l-1.83-12.18h-1.96Z"/>
          <path class="cls-9" d="M62.59,318.26c-.69,4.17-1.19,8.36-1.51,12.57,10.87-.49,18.34-1.35,18.34-2.33l1.64-10.23h-18.48Z"/>
          <g>
            <path class="cls-6" d="M81.08,318.22c0,1.64-18.09,2.96-40.41,2.96s-40.41-1.33-40.41-2.96,18.09-2.96,40.41-2.96,40.41,1.33,40.41,2.96Z"/>
            <path class="cls-4" d="M40.67,321.45c-10.8,0-20.95-.31-28.59-.87-12.08-.89-12.08-1.96-12.08-2.36s0-1.47,12.08-2.36c7.64-.56,17.79-.87,28.59-.87s20.95.31,28.59.87c12.08.89,12.08,1.96,12.08,2.36s0,1.48-12.08,2.36c-7.64.56-17.79.87-28.59.87ZM40.67,315.53c-10.59,0-20.6.3-28.19.84-11.25.8-11.92,1.76-11.96,1.87.04.09.71,1.04,11.96,1.84,7.58.54,17.59.84,28.19.84s20.6-.3,28.19-.84c11.25-.8,11.92-1.76,11.95-1.87-.04-.09-.71-1.04-11.95-1.85-7.58-.54-17.59-.84-28.19-.84Z"/>
          </g>
          <g>
            <path class="cls-1" d="M77.46,318.04c0,1.08-16.59,1.95-37.06,1.95s-37.06-.87-37.06-1.95,16.59-1.96,37.06-1.96,37.06.88,37.06,1.96Z"/>
            <path class="cls-4" d="M40.41,320.27c-9.9,0-19.21-.2-26.22-.57-11.11-.59-11.11-1.25-11.11-1.65s0-1.06,11.11-1.65c7-.37,16.31-.57,26.22-.57s19.21.2,26.22.57c11.11.59,11.11,1.25,11.11,1.65s0,1.06-11.11,1.65c-7,.37-16.31.57-26.22.57ZM3.71,318.04c1.66.83,16.35,1.69,36.69,1.69s35.03-.86,36.69-1.69c-1.66-.83-16.35-1.69-36.69-1.69-20.35,0-35.03.86-36.69,1.69Z"/>
          </g>
        </g>
        <path class="cls-2" d="M47.85,362.8l35.8-4.25,8.19,22.15h-1.52c-15.77,24.88-37.92,27.61-37.92,27.61-21.24,2.73-23.66-2.73-21.84-7.58.91-3.34,3.94-6.07,7.58-7.28,15.77-6.37,30.34-23.06,30.34-23.06-30.64-.61-21.24-7.28-21.24-7.28v-.61s.61,0,.61,0v.3Z"/>
      </g>
      <path class="cls-15" d="M130.18,207.71c0,13.65,14.56,22.75,27.3,16.68,12.74-5.76,20.93-17.59,25.18-27.3l-8.49-7.89-30.94.91s-5.46,3.64-12.74,9.1c-.61,2.73,0,5.46-.61,7.89h0v.61h.3Z"/>
      <g>
        <path class="cls-16" d="M154.45,202.25h0c11.22-1.21,19.42-10.92,18.51-22.45l-3.34-37.92-31.25,2.73,4.25,47.32c.61,6.37,5.76,10.92,11.83,10.31h0Z"/>
        <path class="cls-12" d="M121.68,26.91c2.43-8.19,6.37-15.17,11.53-20.93-.91-.61-1.21-1.52-1.82-2.12,3.03-1.52,6.98-3.03,10.62-3.34,18.2-1.52,36.4,6.67,49.75,19.11,11.22,10.62,18.81,24.27,23.97,38.83,11.83,32.16,11.22,76.75-20.63,96.17-8.49,4.85-20.02,10.31-30.03,8.49-10.31-1.52-17.9-9.1-23.66-18.2-10.31-16.99-16.99-38.22-20.63-57.34-4.25-19.72-4.85-40.95,1.21-60.37h-.61l.3-.3Z"/>
        <path class="cls-11" d="M83.76,96.08c0,3.94.61,7.89,1.52,11.22,0,2.43.91,4.85,1.52,6.98,1.52,5.76,3.34,11.53,5.46,17.29.91,1.82,1.52,3.64,2.43,5.16,12.13,24.88,33.37,40.35,55.52,38.53,10.92-.91,20.33-5.46,28.82-13.35,1.82-1.52,3.64-3.34,4.85-5.16,13.95-16.68,21.24-42.17,19.11-70.38-4.25-46.41-33.37-82.21-66.44-79.18-4.55.61-9.71,1.52-13.95,3.64-25.48,11.22-42.17,46.11-38.83,85.85h0v-.61h0Z"/>
        <g>
          <path class="cls-13" d="M163.55,92.13c-.61,0-1.52,0-1.52-1.21-5.76-11.22-16.08-6.67-16.68-6.37-1.21,0-2.12,0-2.73-1.21,0-1.21,0-2.12,1.21-2.73,4.85-2.12,15.77-3.64,21.84,8.19,0,1.21,0,2.12-.61,2.73h-1.21v.61h-.3Z"/>
          <path class="cls-13" d="M102.27,83.03s-1.21.61-1.52,0c-10.01-3.94-14.26,4.55-14.26,4.85,0,.61-1.52,1.21-2.12.61-.61,0-1.21-1.52-.61-2.12,1.52-4.25,7.89-10.92,18.2-6.67.61,0,1.52,1.52,1.21,2.12v.61h-.61v.61h-.3Z"/>
          <path class="cls-13" d="M151.41,100.32c0,3.94-2.43,7.58-5.16,7.58s-5.46-3.64-5.46-7.58,2.43-7.58,5.16-7.58,5.46,3.64,5.46,7.58Z"/>
          <path class="cls-13" d="M102.27,100.32c0,3.94-2.43,7.58-5.16,7.58s-5.46-3.64-5.46-7.58,2.43-7.58,5.16-7.58,5.46,3.64,5.46,7.58Z"/>
          <path class="cls-3" d="M143.83,143.1c0,.61-2.73,11.22-13.35,13.04-10.31,1.52-15.77-3.64-16.68-4.55"/>
          <path class="cls-10" d="M113.49,120.04c-3.64,3.64-3.64,8.8,0,12.13s8.8,3.64,12.13,0c3.34-3.64-6.37.61-10.01-2.43-3.64-3.64.61-13.04-2.73-9.71h.61Z"/>
          <path class="cls-5" d="M84.98,111.24c1.52,6.37,2.43,11.83,4.85,17.59.61,2.12,1.52,3.94,2.43,6.07,3.64-2.43,5.16-6.98,4.85-11.22,0-6.37-5.46-11.22-11.83-11.83h0v-.61h-.3Z"/>
          <path class="cls-5" d="M161.12,110.64c-6.98,0-12.74,5.16-12.13,11.22s6.67,10.31,13.65,9.71c6.98-.61,12.74-5.16,12.13-11.22s-6.67-10.31-13.65-9.71Z"/>
        </g>
        <path class="cls-8" d="M177.8,162.21h.61c1.82-1.52,3.64-3.64,4.85-5.46,13.95-16.68,21.24-42.17,19.11-70.38-4.25-46.41-33.37-82.21-66.44-79.18-4.55.61-9.71,1.52-13.95,3.64,27.3,18.2,77.05,67.95,55.52,151.68h.3v-.3Z"/>
        <path class="cls-12" d="M198.74,93.34l7.89-19.72,9.4,13.65-.91,42.17-27.3,22.75c13.65-32.46,10.62-49.45,11.22-56.73v-1.82h0l-.3-.3Z"/>
        <g>
          <path class="cls-11" d="M192.97,78.48c-2.73,10.92,0,20.63,6.98,22.45,6.98,1.82,14.26-5.46,16.99-16.38,2.73-10.92,0-20.63-6.98-22.45-6.37-1.82-14.26,5.46-16.99,16.38Z"/>
          <path class="cls-8" d="M192.97,78.48c-2.73,10.92,0,20.63,6.98,22.45,6.98,1.82,14.26-5.46,16.99-16.38,2.73-10.92,0-20.63-6.98-22.45-6.37-1.82-14.26,5.46-16.99,16.38Z"/>
        </g>
        <path class="cls-12" d="M81.64,111.85c-.61-17.59,4.85-34.89,11.83-36.71,4.85-2.73,3.94,0,4.85-2.73,0-1.52,3.03-7.89,2.73-8.8,6.67,13.95,25.79,18.2,39.74,19.72-2.73-3.64-6.67-5.46-9.1-9.71-2.43-3.94-4.25-8.19-5.76-12.44,16.99,5.16,33.67,15.77,52.18,13.95-4.25-3.94-15.47-11.83-15.77-18.51,4.55,5.76,11.83,7.28,17.9,8.8,4.25,1.21,8.49,1.82,12.44,2.73,7.28,20.33,8.19,52.18,1.82,70.99,6.67-10.01,11.22-34.28,9.1-60.67,0-5.16,2.12-9.71,6.07-13.04h0c2.73-2.12,3.94-6.07,4.25-9.4,0-3.34-.91-7.28-2.12-10.62h.91c-4.55-10.31-11.83-18.81-20.63-25.79-5.76-4.25-12.13-7.89-18.51-10.92-3.34-2.43-6.98-4.25-10.62-5.76-16.99-8.8-62.19,1.21-77.96,42.47-4.55,11.22-6.98,12.44-7.89,30.03,0,1.52,0,2.43.61,3.64.91,3.64,0,6.98,1.52,14.26"/>
      </g>
    </g>
  </g>
</svg>