<?xml version="1.0" encoding="UTF-8"?>
<svg id="Layer_2" data-name="Layer 2" xmlns="http://www.w3.org/2000/svg" viewBox="0 0 84.22 246.68">
  <defs>
    <style>
      .cls-1, .cls-2 {
        fill: #603813;
      }

      .cls-3 {
        fill: #273758;
      }

      .cls-4 {
        fill: #e6e6e6;
      }

      .cls-5 {
        fill: #c69696;
      }

      .cls-6 {
        fill: #d9a2a0;
      }

      .cls-7, .cls-2 {
        isolation: isolate;
        opacity: .5;
      }

      .cls-7, .cls-8 {
        fill: #d9baba;
      }

      .cls-9 {
        fill: #8b2b0e;
      }

      .cls-10 {
        fill: #3f6138;
      }

      .cls-11 {
        fill: #d9b6b6;
      }
    </style>
  </defs>
  <g id="Layer_1-2" data-name="Layer 1">
    <g id="girl-nay-left">
      <g>
        <path class="cls-8" d="M11.07,130.94l-6.36,9.56c-.45.68-1.39.81-2.11.33h0c-.72-.48-.97-1.4-.51-2.08l4.48-6.74s-2.83.98-3.49-2.17c0,0-4.35.27-2.72-3.47l7.77-8.69,6.17,4.11s.76,13.24-1.37,13.03c0,0-.73,1.1-1.87-3.88Z"/>
        <path class="cls-11" d="M25.59,94.31h0c.46,1.54.44,3.25-.26,4.74l-14.26,29.66-5.54-4.38,11.29-29.44c1.68-4.49,7.25-4.82,8.76-.58h0Z"/>
        <path class="cls-11" d="M22.31,100.71h0c-3.5-.06-5.67-4.44-4.49-8.48l8.69-25.84c1.3-4.12,4.85-6.23,8.03-4.88h0c3.67,1.53,5.34,7.08,3.27,11.49l-11.23,23.66c-.95,2.01-2.34,4.16-4.18,4.06l-.1-.02h0Z"/>
        <path class="cls-4" d="M30.62,61.11c-3.46,2.94-7.97,9.14-11.34,22.47l13,6.72,1.9-5.1c4.41-7.85,7.92-15.11,7.36-20.32-.6-4.91-7.1-7.09-10.92-3.78h0Z"/>
      </g>
      <path class="cls-4" d="M62.76,100.18l5.3-29.7c.6-3.3.5-8.8-3-10.1l-5.3-4-2.5-2.3-9.1.3s-1.6,1.8-4.7,2.7c-11.6,3.6-9,2.3-10.6,16.5l-.4,9.2c-.3,8.2-.8,16.3-1.6,24.5,10.1,3.1,20.3,2.6,30.6-1.3l1.2-5.8h.2-.1,0Z"/>
      <g>
        <path class="cls-9" d="M26.26,37.98c-.2-4.7,1.9-8.4,3.6-12.2.7-1.7,1.4-4.8,2.6-6.1,1.5-1.8,5.4-1.1,7.4-1.3,7.4-.6,14.8-.3,22.2.3,2.3.2,3.7-.7,4.7,2.5.7,2.1,1.1,2.9,1.1,2.9,2.4,3.9,6.3,6.2,7.9,11.2,1.2,4.1.9,9.2-1.4,12.2,0-1.6-.3-3.7-.7-5.1-1.6,1.3-2.6,3.7-4.1,5.1s-3.3,2.7-5.1,3.5c-.2-1.4.2-3.3-.2-4.5-1.2,3.2-4.3,4.8-6.7,6.2,0-1.9.3-4.3-1.2-3.2-.4.3-.9,1.6-1.4,2.1s-1.1.8-1.7,1.2c-1.8,1.2-2.5,1.5-4.3.2-1.2-1.1-2.8-2.5-3.8-3.9-.6,1.2-.2,3.2-.1,4.6-2,.2-4.5-2.2-5.8-4.1-.3,1.1,0,2.3-.2,3.4-2.6-.2-7.4-4.8-8.7-7.7-1.2,1.1-2.1,3.7-1.7,5.6-2.2-3.4-2.4-8.7-2.6-13h.2v.1h0Z"/>
        <path class="cls-5" d="M51.66,57.58h0c3.2-.1,5.6-2.8,5.5-5.9l-.4-11.1-9.1.3.5,13.5c0,1.8,1.6,3.2,3.4,3.2h.1Z"/>
        <path class="cls-8" d="M31.16,31.68c.4,1.8.7,3.4,1.4,5,.2.6.4,1.1.7,1.7,3.2,7.3,8.9,12.1,15.4,12,3.1,0,6-1.3,8.5-3.4.6-.4,1.1-.9,1.6-1.5,4.2-4.6,6.9-11.7,6.6-19.8-.4-13.4-8.3-24-17.9-23.8-1.4,0-2.8.3-4.1.8-7.5,2.8-13.1,12.4-12.8,23.8"/>
        <g>
          <path class="cls-1" d="M46.74,21.82c.19-.06.38-.13.58.13,2.65,2.53,5.02.36,5.09.23.29-.1.58-.19.86.03.1.29.19.58-.03.86-1.15,1.02-4,2.39-6.69-.23-.1-.29-.19-.58-.06-.83l.29-.1-.03-.1Z"/>
          <path class="cls-1" d="M30.82,23.09s.3-.2.51,0c2.83,1.11,4.05-1.32,4.05-1.42,0-.2.4-.3.61-.2.2,0,.3.4.2.61-.51,1.21-2.33,3.14-5.26,1.92-.2,0-.4-.4-.3-.61v-.2h.2v-.1h0Z"/>
          <path class="cls-1" d="M50.06,28.55c0,1.11-.71,2.12-1.52,2.12s-1.62-1.01-1.62-2.12.71-2.12,1.52-2.12,1.62,1.01,1.62,2.12Z"/>
          <path class="cls-1" d="M35.99,28.55c0,1.11-.71,2.12-1.52,2.12s-1.62-1.01-1.62-2.12.71-2.12,1.52-2.12,1.62,1.01,1.62,2.12Z"/>
          <path class="cls-2" d="M39.23,34.21c-1.01,1.01-1.01,2.53,0,3.54s2.53,1.01,3.54,0-1.82.2-2.83-.71c-1.01-1.01.2-3.74-.81-2.83h.1,0Z"/>
          <path class="cls-6" d="M31.04,31.78c.4,1.82.71,3.44,1.42,5.06.2.61.4,1.11.71,1.72,1.01-.71,1.52-2.02,1.42-3.24,0-1.82-1.62-3.24-3.44-3.44h-.1v-.1Z"/>
          <path class="cls-6" d="M52.89,31.58c-2.02,0-3.64,1.52-3.54,3.24s1.92,2.93,3.95,2.83,3.64-1.52,3.54-3.24-1.92-2.93-3.95-2.83Z"/>
          <ellipse class="cls-1" cx="43.15" cy="43.73" rx="1.9" ry="3.3" transform="translate(-8.09 9.83) rotate(-11.9)"/>
        </g>
        <path class="cls-7" d="M56.86,46.88h.2c.6-.4,1.1-.9,1.6-1.5,4.2-4.6,6.9-11.7,6.6-19.7-.4-13.4-8.3-24-17.9-23.8-1.4,0-2.8.3-4.1.8,7.6,5.6,21.1,20.7,13.6,44.3h0v-.1h0Z"/>
        <g>
          <path class="cls-8" d="M61.16,25.78c-1,3-.3,5.9,1.6,6.5s4.2-1.3,5.2-4.4.3-5.9-1.6-6.5c-1.8-.6-4.2,1.3-5.2,4.4Z"/>
          <path class="cls-7" d="M61.16,25.78c-1,3-.3,5.9,1.6,6.5s4.2-1.3,5.2-4.4.3-5.9-1.6-6.5c-1.8-.6-4.2,1.3-5.2,4.4Z"/>
        </g>
        <path class="cls-9" d="M31.46,23.78c-.8,4.4-2.3,3.7.2,12.7s1,4.9,1.6,7.2c.5,2.1,2.3,4,2.1,6.2-1.4-.8-4.2-3-5.2-4.3-2-2.8-1.4-9.2-1.2-12.6h-.1c.2-3.3.4-8.8.6-11.3v-2.6c0-6.5,2.6-12.76,6.8-16.46,4.3-2.54,6.94-.91,10.24-1.61,10.1-2.1,16.46-1.42,20.46,7.28,9.7,21.3-1.5,33-3.2,36-.9,1.4-9.5,7.4-10.9,8.3,7.1-8.2,6.2-21.9,4.9-30-.6-4-2.9-7.6-6.2-10h0s-1.2.5-2.97,1.33c-1.22.12-1.53.22-1.94.23-.79.25-.68.12-1.57.53-.64-.12-.99-.2-.99-.2q-.25-.1-.83-.02c-1.82.61-1.59.68-3.33,1.07-1,.03-2.52-.99-2.12-1.89-3.15,2.38-4.65,6.55-5.05,7.45"/>
        <path class="cls-9" d="M59.2,19.61l.72-.4c0-6.5-1.54-11.6-5.74-15.3-3-2.7-6.74-.23-10.04-.93-6.61,4.02-5.18,3.03-9.18,11.73-.04,1.09,0,0-.31,1.31-.32.86.31-1.31,0,.39,0,0,.13-.66.13.61l3.09-2.21h0s2.7,3,4.3,4.2c2,1.4,4.6,2.6,6.8,2.8-.3-.6-.9-1.2-1.2-1.8-.2-.3-.4-.8-.6-1.1,1.1,1.5,3,2.8,4.4,4,1.4,1.1,2.9,1.7,4.5,2.4.1-.6-1.2-3.3-1.6-4.2.5.8,2.2,1.46,3.28,1.47"/>
      </g>
      <g>
        <path class="cls-11" d="M48.56,197.58c1.2,18.7,3.7,38.1,4.3,38.1l5.8-.4,2-38.5,1.5-28.9v-1.2c0-.4,0-.8-.2-1.2-.7-3.1-3.6-5.3-6.9-5.1-3.3.2-6,2.9-6.2,6.1,0,.9-.2,1.7-.3,2.6-1,6.2-.7,17.2,0,28.5h0Z"/>
        <path class="cls-3" d="M59.76,242.68c0,.6-.4,1.6-.9,2.4-.5,1-1.5,1.6-2.6,1.6h-21.6c-4.9-2.6,18.2-10.9,18.2-10.9h5.7s1.3,5.8,1.1,7h.1v-.1Z"/>
        <path class="cls-11" d="M55.36,173.28h0c-3.8-.4-6.6-3.6-6.5-7.5l.8-35.3c.7-5.1,5.3-8.6,10.4-7.9h0c5.1.7,8.6,5.3,7.9,10.4l-5.3,33.8c-.5,3.9-3.4,6.9-7.3,6.5h0Z"/>
      </g>
      <g>
        <path class="cls-11" d="M30.76,197.58c1.2,18.7,3.7,38.1,4.3,38.1l5.8-.4,2-38.5,1.5-28.9v-1.2c0-.4,0-.8-.2-1.2-.7-3.1-3.6-5.3-6.9-5.1s-6,2.9-6.2,6.1c0,.9-.2,1.7-.3,2.6-1,6.2-.7,17.2,0,28.5h0Z"/>
        <path class="cls-3" d="M41.86,242.68c0,.6-.4,1.6-.9,2.4-.5,1-1.5,1.6-2.6,1.6h-21.6c-4.9-2.6,18.2-10.9,18.2-10.9h5.7s1.3,5.8,1.1,7h0l.1-.1h0Z"/>
        <path class="cls-11" d="M37.46,173.28h0c-3.8-.4-6.6-3.6-6.5-7.5l.8-35.3c.7-5.1,5.3-8.6,10.4-7.9h0c5.1.7,8.6,5.3,7.9,10.4l-5.3,33.8c-.5,3.9-3.4,6.9-7.3,6.5h0Z"/>
      </g>
      <g>
        <path class="cls-10" d="M29.56,140.08l16,6.7,19-7.3h0s1.5-5.3.9-12c-.3-2.6-.9-5.2-1.6-7.6-1.4-4.2-1.9-8.5-1.9-12.9-.3-.8-.5-1.1-.5-1.1-10.3,3.9-20.5,4.4-30.6,1.3,0,.5,0,.9-.2,1.4-.2,2.3-.5,4.7-.9,7,0,.6-.2,1.1-.2,1.6-.2,1-.3,2-.4,3-.6,4.3-.7,9.5.2,19.8h.2v.1Z"/>
        <path class="cls-10" d="M61.46,106.28s12.6,29.6,13.1,57.7c0,1.5-.8,2.7-2,3.2-7.8,2.4-36.5,10.2-50.7,0-.9-.7-1.5-1.8-1.3-3.1.8-8.2,4.2-40.9,9.9-56.7,10.3,3.9,20.6,3.4,31.1-1.1h-.1Z"/>
      </g>
      <g>
        <path class="cls-11" d="M68.46,93.48h0c-1,1.1-1.5,2.9-1.3,4.4l2.9,32.1,6.6-2.1-.3-30.9c0-4.7-4.9-6.9-7.8-3.5h-.1,0Z"/>
        <path class="cls-11" d="M70.26,102.08h0c3.3.7,6.4-3,5.9-7.3l-3-26.5c-.3-4.2-3.3-7-6.7-6.4h0c-3.9.7-6.5,5.7-5.4,10.4l6.1,25c.5,2.2,1.5,4.5,3.3,4.8h-.2Z"/>
        <path class="cls-4" d="M71.36,63.38c2.8,3.4,6.1,10.2,7.2,23.7l-13.8,4.4-1-5.3c-3-8.3-5.1-15.9-3.6-20.8,1.3-4.6,8-5.7,11.1-1.9h.1v-.1h0Z"/>
        <path class="cls-11" d="M70.76,140.08l-.8-10.6,6.6-2.1v.4c7.2,4.9,7.6,11.4,7.6,11.4.4,6.3-1.2,6.8-2.5,6.3-.9-.4-1.6-1.2-2.1-2.3-1.8-4.6-6.4-9.3-6.4-9.3-.6,9-2.4,6.2-2.4,6.2h0Z"/>
      </g>
    </g>
  </g>
</svg>