<?xml version="1.0" encoding="UTF-8"?>
<svg id="Ebene_2" data-name="Ebene 2" xmlns="http://www.w3.org/2000/svg" xmlns:xlink="http://www.w3.org/1999/xlink" viewBox="0 0 416.05 846.04">
  <defs>
    <style>
      .cls-1 {
        fill: #d9b6b6;
      }

      .cls-2 {
        opacity: .29;
      }

      .cls-3 {
        fill: none;
        stroke: #630;
        stroke-linecap: round;
        stroke-miterlimit: 10;
      }

      .cls-4 {
        fill: #caa1a2;
      }

      .cls-5 {
        fill: #d9a2a0;
      }

      .cls-6 {
        fill: #d38a17;
      }

      .cls-7 {
        fill: #d9baba;
      }

      .cls-8 {
        fill: #a1c8ee;
      }

      .cls-9, .cls-10 {
        fill: #603813;
      }

      .cls-11 {
        opacity: .56;
      }

      .cls-12 {
        fill: #273758;
      }

      .cls-13 {
        fill: url(#Unbenannter_Verlauf_14);
      }

      .cls-14 {
        fill: #1065b2;
      }

      .cls-15 {
        fill: #fff;
        opacity: .57;
      }

      .cls-15, .cls-10 {
        isolation: isolate;
      }

      .cls-16 {
        fill: #466e9f;
      }

      .cls-10 {
        opacity: .5;
      }

      .cls-17 {
        fill: url(#Unbenannter_Verlauf_16);
      }

      .cls-18 {
        fill: #dbe1fd;
      }

      .cls-19 {
        fill: #e6e6e6;
      }
    </style>
    <linearGradient id="Unbenannter_Verlauf_16" data-name="Unbenannter Verlauf 16" x1="540.28" y1="-585.19" x2="612.34" y2="-585.19" gradientTransform="translate(1062.53 769.41) rotate(164.42) scale(1 -1)" gradientUnits="userSpaceOnUse">
      <stop offset="0" stop-color="#68bee2"/>
      <stop offset="1" stop-color="#61dfff"/>
    </linearGradient>
    <linearGradient id="Unbenannter_Verlauf_14" data-name="Unbenannter Verlauf 14" x1="540.28" y1="-593.78" x2="612.34" y2="-593.78" gradientTransform="translate(1062.53 769.41) rotate(164.42) scale(1 -1)" gradientUnits="userSpaceOnUse">
      <stop offset="0" stop-color="#2e71ff"/>
      <stop offset="1" stop-color="#2626ff"/>
    </linearGradient>
  </defs>
  <g id="svg">
    <g id="german-boy-water">
      <g>
        <path class="cls-1" d="M68.79,361.83h0c-11.68,0-19.69-13.68-16.35-27.69l24.36-87.41c3.34-14.01,15.01-21.69,26.02-18.02h0c12.68,4.34,19.02,22.69,13.01,38.04l-33.36,81.08c-2.67,7.01-7.01,14.01-13.35,14.01h-.33Z"/>
        <path class="cls-19" d="M85.14,231.04c-11.01,10.01-25.69,31.36-36.37,76.07l44.04,21.69,6.34-17.35c14.01-26.36,25.36-51.05,22.69-68.06-2-16.35-24.36-23.02-36.7-12.01h0v-.33Z"/>
        <g>
          <path id="hand12" class="cls-7" d="M372.08,379.18l19.35-1.33c4,0,14.68,1,17.68,3.67,4,3.34-4.67,4.67-22.69,6.67l19.35,21.02s9.68,15.68-5.67,11.34c0,0,6.34,18.35-9.01,10.68,0,0,4,16.68-14.01,4l-16.01-13.68c-5.34-4.67-9.34-11.34-10.34-18.35s0-15.01,9.34-20.35c3.34-2,7.67-3,11.68-3.34h.33v-.33Z"/>
          <path class="cls-1" d="M251.63,336.47h0c5-1.67,10.68-1.67,15.68,0l100.09,45.38-14.35,18.68-99.09-35.7c-15.35-5.67-17.02-23.69-2.67-29.03h0v.67h.33Z"/>
          <g id="s-deception-b-water-open">
            <path class="cls-18" d="M316.66,384.67c8.08,25.65,13.26,24.21,16.96,34.16,3.7,9.95.05,40.24,10.13,58.02,10.07,17.78,32.57,18.37,32.57,18.37l10.56-3.4,10.79-2.56s18.95-12.14,18.37-32.57c-.58-20.43-19.37-44.46-21.35-54.89-1.98-10.43,3.2-11.87-3.15-38.01-6.35-26.13-21.9-83.56-28.39-96.85-6.49-13.29-9.72-16.5-17.89-17.43,0,0-2.16-4.43-12.53-1.54-9.14,2.55-10.85,8.36-11.13,9.7-.93-1-5.4-5.09-14.54-2.54-10.36,2.89-9.92,7.8-9.92,7.8-6.51,5.02-7.6,9.44-6.29,24.17,1.31,14.73,17.72,71.92,25.8,97.57Z"/>
            <path class="cls-17" d="M346.81,475.11c-5.93-10.47-6.81-26.13-7.51-38.71-.46-8.17-.82-14.62-2.38-18.8-1.53-4.11-3.31-6.53-5.2-9.1-3.01-4.1-6.76-9.19-11.7-24.88-8.28-26.3-24.39-82.72-25.65-96.82-1.27-14.25-.16-17.14,4.93-21.06l1.53-1.18-.15-1.66c.21-.77,1.83-2.82,7.33-4.35,7.24-2.02,10.44.93,11.01,1.54l4.65,5.01,1.39-6.69c.17-.82,1.38-5,8.62-7.02,5.5-1.53,7.95-.62,8.53-.07l.73,1.5,1.92.22c6.39.72,8.83,2.62,15.12,15.48,6.22,12.72,21.62,69.34,28.13,96.13,3.89,15.98,3.32,22.29,2.86,27.35-.29,3.17-.56,6.17.26,10.48.83,4.39,3.86,10.1,7.69,17.32,5.91,11.13,13.26,24.98,13.6,37.01l-65.7,18.31Z"/>
            <path class="cls-13" d="M306.88,339.03c4.63,16.6,9.6,33.35,13.14,44.59.09.3.19.59.28.88l68.02-18.96c-.07-.3-.14-.59-.21-.89-2.78-11.45-7.19-28.36-11.82-44.96l-69.42,19.35Z"/>
            <g class="cls-2">
              <path class="cls-14" d="M302.77,289.38c3.35,14.4,17.7,66.33,25.78,91.98,8.08,25.65,13.26,24.21,16.96,34.16,3.7,9.95.05,40.24,10.13,58.02,8.62,15.21,26.33,17.84,31.26,18.28h-.02s-10.56,3.4-10.56,3.4c0,0-22.5-.59-32.57-18.37-10.07-17.78-6.42-48.07-10.13-58.02-3.7-9.95-8.88-8.5-16.96-34.16-8.08-25.65-24.49-82.84-25.8-97.57-1.31-14.73-.22-19.15,6.29-24.17,0,0,3.63,17.87,5.62,26.44Z"/>
            </g>
            <path class="cls-15" d="M351.05,270.33c8.96,11.77,21.53,62.34,27.89,88.47,6.35,26.13,1.68,35.95,3.66,46.38,1.98,10.43,21.08,34.46,21.35,54.89.15,11.11-5.08,19.43-10.99,20.39-5.91.96,5.97-10.58,3.87-23.04-1.92-11.38-18.54-39.43-21.17-53.79-2.63-14.36,1.86-20.42-2.73-41.78-4.58-21.37-25.06-84.96-26.3-89.42-1.24-4.46,2.58-4.52,4.42-2.1Z"/>
            <path class="cls-8" d="M390.97,506.14h0c.16-.04.31-.08.46-.13.15-.04.3-.08.46-.13h0c9.28-2.65,12.61-4.53,11.98-6-.65-1.51-3.98-.34-3.98-.34l-1.31-4.71c2.6-2.17,2.25-4.25,2.25-4.25l-1.24-2.8-12.22,3.64-12.34,3.21.39,3.03s.77,1.96,4.12,2.48l1.31,4.71s-3.46.72-3.23,2.35c.22,1.58,4.04,1.47,13.35-1.07Z"/>
            <g class="cls-11">
              <path class="cls-14" d="M380.74,504.48l19.03-5.31c.2-.06.41.06.47.27s-.06.41-.27.47l-19.03,5.31c-.2.06-.41-.06-.47-.27s.06-.41.27-.47Z"/>
            </g>
            <g class="cls-11">
              <path class="cls-14" d="M379.43,499.77l19.03-5.31c.2-.06.41.06.47.27s-.06.41-.27.47l-19.03,5.31c-.2.06-.41-.06-.47-.27s.06-.41.27-.47Z"/>
            </g>
          </g>
        </g>
      </g>
      <g>
        <path class="cls-1" d="M78.47,334.13h0c2.67,4.34,3.67,10.01,2.34,15.68l-26.02,106.43-21.35-10.34,17.02-103.76c2.67-16.01,20.02-20.69,28.36-7.67h0l-.33-.33Z"/>
        <path class="cls-1" d="M252.3,361.83h0c11.68,0,19.69-13.68,16.35-27.69l-24.36-87.41c-3.34-14.01-15.01-21.69-26.02-18.02h0c-12.68,4.34-19.02,22.69-13.01,38.04l33.36,81.08c2.67,7.01,7.01,14.01,13.35,14.01h.33Z"/>
        <path class="cls-19" d="M235.28,231.04c11.01,10.01,25.69,31.36,36.37,76.07l-44.04,21.69-6.34-17.35c-14.01-26.36-25.36-51.05-22.69-68.06,2-16.35,24.36-23.02,36.7-12.01h0v-.33Z"/>
        <path class="cls-1" d="M46.44,488.61l8.34-35.03-21.35-10.34v1.33c-26.36,13.01-31.36,34.37-31.36,34.37-5,20.69,0,23.36,5.34,22.35,3.34-.67,6.34-3.34,8.34-6.67,8.34-15.01,26.02-28.03,26.02-28.03-2.67,30.36,5.34,22.02,5.34,22.02h-.67,0Z"/>
      </g>
      <g>
        <path class="cls-1" d="M222.6,679.79c-4.34,63.73-13.35,129.45-15.35,129.45l-19.69-1.33-6.34-131.12-5-98.43v-4c0-1.33,0-2.67.67-4,2.67-10.34,12.34-18.35,23.36-17.02,12.68,1,21.69,11.68,21.35,24.36,4.34,19.69,3.34,60.72.67,102.43h0l.33-.33Z"/>
        <path class="cls-19" d="M215.93,753.52c-3.67,32.36-7.01,55.72-8.67,55.72l-19.69-1.33-2.67-54.38h31.03Z"/>
        <path class="cls-12" d="M181.9,829.26c0,4,2.34,7.01,5.67,9.34,2,1.33,77.41,8.34,79.41,7.34,17.02-8.34-60.06-38.04-60.06-38.04l-20.69.67s-4.34,16.68-3.67,21.35h0v-.67h-.67Z"/>
        <g>
          <path class="cls-1" d="M225.27,449.57l-2.67,92.75-.67,28.03c0,13.01-10.34,23.36-23.36,24.36-13.68.67-22.35-9.68-23.36-23.36l-3-28.69-9.34-87.41v-2.67c0-16.35,12.68-30.03,29.03-31.36,17.35-1.33,32.7,11.68,34.03,29.03h0v-.67h-.67Z"/>
          <path class="cls-16" d="M225.27,449.57l1.33,89.42c0,2-1.33,3.34-3.34,3.34h-57.05c-2,0-3.34-1.33-3.34-3.34l-.67-84.08v-2.67c0-16.35,12.68-30.03,29.03-31.36,17.35-1.33,32.7,11.68,34.03,29.03h0v-.33Z"/>
        </g>
      </g>
      <g>
        <path class="cls-1" d="M91.48,679.79c4.34,63.73,13.35,129.45,15.35,129.45l19.69-1.33,6.34-131.12,5-98.43v-4c0-1.33,0-2.67-.67-4-2.67-10.34-12.34-18.35-23.36-17.02-12.68,1-22.02,11.68-21.35,24.36-4.34,19.69-3.34,60.72-.67,102.43h0l-.33-.33Z"/>
        <path class="cls-19" d="M128.52,753.52l-2.67,54.38-19.69,1.33c-1.33,0-5-23.36-8.67-55.72h31.03Z"/>
        <path class="cls-12" d="M131.19,829.26c0,4-2.34,7.01-5.67,9.34-2,1.33-77.41,8.34-79.41,7.34-17.02-8.34,60.06-38.04,60.06-38.04l20.69.67s4.34,16.68,3.67,21.35h0v-.67h.67Z"/>
        <g>
          <path class="cls-1" d="M150.87,452.24v2.34l-8.34,87.75-2.67,28.36c-1,13.68-10.01,24.36-23.36,23.69-13.01-.67-23.02-10.68-23.69-23.69l-1-28.03-3.67-92.42c1.33-17.35,16.35-30.03,33.36-29.36,16.68,1,29.36,15.01,29.36,31.36h0Z"/>
          <path class="cls-16" d="M150.87,452.24v2.34l-2.67,84.75c0,2-1.33,3-3,3h-55.38c-2,0-3-1.33-3-3l1.33-89.42c1.33-17.35,16.35-30.03,33.36-29.36,16.68,1,29.36,15.01,29.36,31.36h0v.33Z"/>
        </g>
      </g>
      <path class="cls-19" d="M230.28,227.37l-3.67,22.02-14.01,85.08c-3.34,13.35-4,26.69-2,40.04h-106.77c5.34-15.35,6.34-31.36,3.67-47.38l-13.35-77.07-4-22.69,4-2.34,53.72-34.03h31.03l48.38,33.36,3.67,2.34h0v.67h-.67Z"/>
      <path class="cls-16" d="M224.94,458.92l-59.39,25.69h-18.02l-59.39-25.02c-2-17.02,1-42.71,5.67-59.39,1.33-5,3-9.68,5-13.68,2-3.67,3.34-7.34,4.34-11.68h106.77c1,6.34,2.34,12.68,4.34,18.35,2.34,7.01,5,16.01,6.34,26.36,2,10.01,5.67,25.69,3.67,39.04h.67v.33Z"/>
      <path class="cls-16" d="M190.24,199.68h0c-8.34,27.03-46.04,28.36-56.05,2v-1l14.01-9.01h31.03l12.01,8.34h-1v-.33Z"/>
      <g id="german-boy-smiling2">
        <path class="cls-4" d="M147.2,200.34h0c6.34,8.67,23.02,8.34,28.69,0h0c1.33-1.67,1.67-3.67,1.67-5.67v-33.03h-32.7v32.7c0,2,.67,4,2,6.01h.33Z"/>
        <path class="cls-7" d="M234.61,110.26c-3,4.67-7.67,8.34-12.01,9.01h-3.67c-1.33,12.68-5.67,24.36-12.34,33.7-12.34,18.35-30.7,29.69-44.37,29.03h-3c-14.68,0-31.36-10.34-43.04-27.03-6.34-9.34-11.34-20.69-13.35-33.36h-1c-4.34,0-9.68-3.67-12.68-8.67-.67-.67-1-1.67-1.33-2.34-.67-1.33-1-2.34-1.33-3.34h0c-1-4.67,0-9.01,3.67-10.68h0c3.34-1.33,7.67,0,11.34,2.34,2.67-38.7,27.03-72.73,56.72-73.4,9.34,0,17.68,2.34,25.69,7.01,18.02,11.34,31.36,38.37,34.37,65.39,1.67-1.67,3.67-3,5.67-4s5.34-1.33,8.01,0c5.34,2,6.01,9.68,2,16.35h.67Z"/>
        <g>
          <path class="cls-9" d="M120.17,89.57c.67,0,1.33,0,1.67-1,5.67-11.01,15.68-6.34,16.01-6.01,1,0,2,0,2.67-1,0-1,0-2-1-2.67-4.67-2-15.35-3.34-21.02,8.01,0,1,0,2,.67,2.67h1Z"/>
          <path class="cls-9" d="M179.56,80.9s1,.67,1.67,0c9.68-3.67,13.68,4.34,13.68,4.67,0,.67,1.33,1,2,.67.67,0,1-1.33.67-2-1.67-4-8.01-10.68-17.68-6.34-.67,0-1.33,1.33-1,2v.67h.67v.33Z"/>
          <path class="cls-9" d="M132.19,97.58c0,3.67,2.34,7.01,5,7.01s5.34-3.34,5.34-7.01-2.34-7.01-5-7.01-5.34,3.34-5.34,7.01Z"/>
          <path class="cls-9" d="M179.56,97.58c0,3.67,2.34,7.01,5,7.01s5.34-3.34,5.34-7.01-2.34-7.01-5-7.01-5.34,3.34-5.34,7.01Z"/>
          <path class="cls-3" d="M144.86,145.29c.67.67,5,10.68,17.02,10.34,11.68,0,16.35-9.34,17.02-10.34"/>
          <path class="cls-10" d="M170.56,124.94c0,4.67-3.67,8.67-8.67,8.67s-8.67-3.67-8.67-8.67,3.67,4.67,8.67,4.67,8.67-9.68,8.67-4.67Z"/>
          <path class="cls-5" d="M200.58,107.92c6.67,0,12.34,5,12.01,11.01s-6.34,10.01-13.35,9.68-12.34-5-12.01-11.01,6.34-10.01,13.35-9.68Z"/>
          <path class="cls-5" d="M122.51,107.92c6.67,0,12.34,5,12.01,11.01s-6.34,10.01-13.35,9.68-12.34-5-12.01-11.01,6.34-10.01,13.35-9.68Z"/>
        </g>
        <path class="cls-6" d="M228.28,50.2c-5.34-18.35-16.35-34.37-34.37-43.37-14.68-7.01-63.39-18.68-90.42,25.36-11.01,17.68-13.35,40.37-13.35,60.72s3,35.03,14.01,49.05c1.67,2,3.67,4,5.67,5.67,0,0-2.34-12.34-4-17.35-5.34-18.02-4.67-39.37,1-57.39,1-2.67,2-5,3-8.01,0-1.33,3.67-7.67,3.34-8.67,5.67,14.01,25.02,19.35,38.7,21.69-2.34-3.67-6.34-5.67-8.67-10.01-2.34-4-3.67-8.67-5-12.68,16.35,6.01,33.36,17.68,52.38,16.68-4-4-15.01-12.34-14.68-19.02,4,5.67,11.34,7.67,17.68,10.01,4,1.33,8.67,2.34,12.68,3.67,3.34,1,3.34.67,4.34,3.67,6.01,20.35,9.01,45.04,4,66.06,1-5,9.68-15.01,11.34-19.69,2-5.67,3.67-11.68,5-17.68,2.34-12.01,2.34-24.69.67-36.37-.67-4.34-1.67-9.01-2.67-13.01h-.67v.67h0Z"/>
      </g>
    </g>
  </g>
</svg>