<?xml version="1.0" encoding="UTF-8"?>
<svg id="Layer_2" data-name="Layer 2" xmlns="http://www.w3.org/2000/svg" viewBox="0 0 87.88 293.52">
  <defs>
    <style>
      .cls-1 {
        fill: #bae6ef;
      }

      .cls-2, .cls-3 {
        fill: #603813;
      }

      .cls-4 {
        fill: #273758;
      }

      .cls-5 {
        fill: #eebd8a;
      }

      .cls-6 {
        fill: #e6e6e6;
      }

      .cls-7 {
        fill: #e7f4fc;
      }

      .cls-8 {
        fill: #c69696;
      }

      .cls-9 {
        fill: #c9c969;
      }

      .cls-10 {
        fill: #d9a2a0;
      }

      .cls-11 {
        fill: #d4ecf6;
      }

      .cls-12 {
        fill: #c4e5f3;
      }

      .cls-13 {
        fill: #578c9e;
      }

      .cls-14 {
        fill: #d79a5c;
      }

      .cls-15 {
        fill: #9fcce3;
      }

      .cls-16 {
        opacity: .51;
      }

      .cls-16, .cls-3 {
        isolation: isolate;
      }

      .cls-16, .cls-17 {
        fill: #925d33;
      }

      .cls-18 {
        fill: #b57342;
      }

      .cls-19 {
        fill: #b5b947;
      }

      .cls-20 {
        fill: #613c1a;
      }

      .cls-21 {
        fill: #bec34b;
      }

      .cls-22 {
        fill: #d8d770;
      }

      .cls-23 {
        fill: #9ba144;
      }

      .cls-24 {
        opacity: .36;
      }

      .cls-25 {
        fill: #a5c9d2;
      }

      .cls-3 {
        opacity: .5;
      }

      .cls-26 {
        fill: #bde5e9;
      }

      .cls-27 {
        fill: #d9b6b6;
      }

      .cls-28 {
        fill: #e9b078;
      }

      .cls-29 {
        fill: #466e9f;
      }

      .cls-30 {
        fill: #d9baba;
      }

      .cls-31 {
        fill: none;
        stroke: #630;
        stroke-linecap: round;
        stroke-miterlimit: 10;
      }

      .cls-32 {
        fill: #d38a17;
      }
    </style>
  </defs>
  <g id="Layer_1-2" data-name="Layer 1">
    <g id="german-boy-bottles">
      <g>
        <path class="cls-27" d="M65.64,235.91c-1.5,22.1-4.6,45-5.3,45l-6.9-.5-2.1-45.5-1.6-34.1v-1.4c0-.5,0-.9.2-1.4.9-3.7,4.2-6.3,8.1-5.9,4.4.3,7.5,4,7.3,8.4,1.5,6.8,1.2,21,.2,35.5h.1v-.1Z"/>
        <path class="cls-6" d="M63.34,261.51c-1.3,11.2-2.5,19.4-3,19.4l-6.9-.5-.9-18.9h10.8Z"/>
        <path class="cls-4" d="M51.54,287.71c.1,1.4.8,2.5,1.9,3.2.7.5,26.8,2.8,27.5,2.6,5.9-2.8-20.8-13.2-20.8-13.2l-7.2.2s-1.5,5.8-1.3,7.3h-.1v-.1Z"/>
        <g>
          <path class="cls-27" d="M66.64,156.01l-.9,32.1-.2,9.7c-.1,4.5-3.7,8.2-8.1,8.4-4.7.2-7.8-3.4-8.1-8.2l-1.1-9.9-3.2-30.3v-.9c0-5.7,4.4-10.4,10-10.9,6-.5,11.3,4,11.8,10h-.2,0Z"/>
          <path class="cls-29" d="M66.64,156.01l.5,30.9c0,.6-.5,1.2-1.2,1.2h-19.7c-.6,0-1.2-.5-1.2-1.2l-.2-29.2v-.9c0-5.7,4.4-10.4,10-10.9,6-.5,11.3,4,11.8,10h0v.1h0Z"/>
        </g>
      </g>
      <g>
        <path class="cls-27" d="M20.14,235.91c1.5,22.1,4.6,45,5.3,45l6.9-.5,2.1-45.5,1.6-34.1v-1.4c0-.5,0-.9-.2-1.4-.9-3.7-4.2-6.3-8.1-5.9-4.4.3-7.7,4-7.3,8.4-1.5,6.8-1.2,21-.2,35.5h-.1v-.1Z"/>
        <path class="cls-6" d="M33.04,261.51l-.9,18.9-6.9.5c-.5,0-1.6-8.2-3-19.4h10.8Z"/>
        <path class="cls-4" d="M33.94,287.71c-.1,1.4-.8,2.5-1.9,3.2-.7.5-26.8,2.8-27.5,2.6-5.9-2.8,20.8-13.2,20.8-13.2l7.2.2s1.5,5.8,1.3,7.3h.1v-.1Z"/>
        <g>
          <path class="cls-27" d="M40.74,157.01v.8l-2.8,30.5-.9,9.8c-.4,4.7-3.4,8.4-8.1,8.3-4.5-.2-8-3.8-8.3-8.3l-.4-9.7-1.3-32c.5-6,5.7-10.5,11.7-10.2,5.8.3,10.1,5.2,10.1,10.9h0v-.1Z"/>
          <path class="cls-29" d="M40.74,157.01v.8l-.9,29.4c0,.6-.5,1.1-1.1,1.1h-19.2c-.6,0-1.1-.5-1.1-1.1l.5-30.9c.5-6,5.7-10.5,11.7-10.2,5.8.3,10.1,5.2,10.1,10.9h0Z"/>
        </g>
      </g>
      <path class="cls-6" d="M68.24,78.91l-1.3,7.7-4.8,29.5c-1.2,4.6-1.4,9.3-.7,13.9H24.34c1.8-5.3,2.2-10.9,1.3-16.4l-4.6-26.7-1.4-7.9,1.4-.8,18.5-11.7h10.7l16.8,11.6,1.3.8h-.1,0Z"/>
      <path class="cls-29" d="M66.54,159.21l-20.7,8.8h-6.1l-20.7-8.6c-.6-5.9.4-14.9,2-20.7.5-1.7,1.1-3.3,1.6-4.7.6-1.3,1.2-2.6,1.5-4h37.1c.4,2.1.8,4.4,1.5,6.4.8,2.5,1.6,5.5,2.1,9.2.6,3.5,1.9,9,1.3,13.6h.4Z"/>
      <path class="cls-29" d="M54.44,69.41h0c-2.8,9.4-16,9.8-19.5.6,0,0,0-.2-.1-.3l4.8-3.1h10.7l4.1,2.8h-.1.1Z"/>
      <g>
        <path class="cls-8" d="M45.04,70.91h0c-3,0-5.3-2.4-5.3-5.3v-7.9h10.7v7.9c0,3-2.4,5.3-5.3,5.3h-.1Z"/>
        <path class="cls-30" d="M70.84,36.11c-1.1,1.8-2.7,3-4.4,3.3h-1.4c-.5,4.6-2.1,8.8-4.5,12.3-4.5,6.7-11.2,10.7-16.2,10.5h-1.2c-5.3,0-11.5-3.7-15.7-9.8-2.4-3.4-4.1-7.5-4.8-12.2h-.4c-1.6,0-3.4-1.3-4.6-3.1-.2-.3-.4-.6-.5-.9-.2-.5-.4-.8-.5-1.3h0c-.4-1.8,0-3.2,1.4-3.8h0c1.2-.5,2.7,0,4.1.8,1.1-14,9.8-26.4,20.7-26.7,3.3,0,6.5.9,9.3,2.7,2.7,1.7,5.1,4.2,7.1,7.4h0c2.8,4.6,4.8,10.5,5.4,16.4h0c.6-.6,1.3-1.1,2-1.3.9-.5,2-.5,2.8,0,1.9.8,2.2,3.4.7,6l.5-.3h.2Z"/>
        <g>
          <path class="cls-2" d="M30.84,31.01c.2,0,.5,0,.6-.3,1.9-3.6,5.2-2.1,5.3-2,.3,0,.7,0,.9-.3,0-.3,0-.7-.3-.9-1.6-.7-5.1-1.1-7,2.6,0,.3,0,.7.2.9h.3Z"/>
          <path class="cls-2" d="M50.44,28.11s.3.2.6,0c3.2-1.2,4.5,1.5,4.5,1.6,0,.2.5.3.7.2.2,0,.3-.5.2-.7-.6-1.3-2.6-3.5-5.9-2.1-.2,0-.5.5-.3.7v.2h.2v.1Z"/>
          <path class="cls-2" d="M34.74,33.61c0,1.2.8,2.4,1.7,2.4s1.8-1.1,1.8-2.4-.8-2.4-1.7-2.4-1.8,1.1-1.8,2.4Z"/>
          <path class="cls-2" d="M50.44,33.61c0,1.2.8,2.4,1.7,2.4s1.8-1.1,1.8-2.4-.8-2.4-1.7-2.4-1.8,1.1-1.8,2.4Z"/>
          <path class="cls-31" d="M38.94,49.41c.2.2,1.7,3.5,5.6,3.4,3.8,0,5.4-3,5.6-3.4"/>
          <path class="cls-3" d="M47.34,42.71c0,1.6-1.2,2.8-2.8,2.8s-2.8-1.2-2.8-2.8,1.2,1.6,2.8,1.6,2.8-3.2,2.8-1.6Z"/>
          <path class="cls-10" d="M57.34,37.01c2.2,0,4.1,1.7,4,3.6s-2.1,3.3-4.4,3.2-4.1-1.7-4-3.6,2.1-3.3,4.4-3.2Z"/>
          <path class="cls-10" d="M31.54,37.01c2.2,0,4.1,1.7,4,3.6s-2.1,3.3-4.4,3.2-4.1-1.7-4-3.6,2.1-3.3,4.4-3.2Z"/>
        </g>
        <path class="cls-32" d="M67.94,17.41c-1.9-6.4-5.7-11.9-11.9-15C50.94-.09,34.04-4.09,24.74,11.11c-3.8,6.1-4.6,13.9-4.6,21s1.1,12.2,4.8,17c.6.7,1.3,1.4,2,2,0,0-.8-4.2-1.4-6-1.9-6.3-1.6-13.6.4-19.8.4-.9.7-1.8,1.1-2.7.1-.5,1.3-2.6,1.2-3,2,4.8,8.6,6.7,13.3,7.5-.8-1.3-2.1-2-3-3.4-.8-1.4-1.3-3-1.8-4.4,5.7,2.1,11.6,6.1,18.1,5.8-1.4-1.4-5.2-4.2-5.1-6.6,1.4,2,3.9,2.6,6.1,3.4,1.4.5,3,.8,4.4,1.3,1.2.3,1.2.2,1.5,1.3,2.1,7.1,3.1,15.6,1.4,22.9.4-1.8,3.3-5.2,3.9-6.8.7-2,1.3-4,1.8-6.1.8-4.1.8-8.5.2-12.6-.2-1.5-.6-3.1-.9-4.5h-.2Z"/>
      </g>
      <g>
        <path class="cls-25" d="M50.56,132.58c-.53-3.18-4.96-5.8-7.33-7.21-.36-.21-.77-.45-.93-.57-.23-.61-.32-3.33-.27-5.73l.17-.1.08-.11c.64-.81.12-1.84-.28-2.32l-.21-.26-2.6-.06v-.1h-.08l-2.12.05-2.12-.05h-.08v.1l-2.6.06-.21.26c-.4.48-.92,1.51-.28,2.32l.08.11.17.1c.05,2.4-.03,5.12-.27,5.73-.16.11-.57.35-.93.57-2.38,1.41-6.8,4.03-7.33,7.21-.58,3.5,1.58,29.79,1.85,33.1-.26.35-.66.99-.66,1.73,0,.81.39,3.41.43,3.73.04.3.36,1.7,2.89,2.24,1.64.35,4.94.72,7.52.85h.01c.36.03.8.05,1.3.05.07,0,.14,0,.21,0,.07,0,.14,0,.21,0,.51,0,.95-.02,1.3-.05h.01c2.58-.13,5.87-.5,7.52-.85,2.53-.54,2.85-1.94,2.89-2.24.05-.33.43-2.92.43-3.73,0-.74-.39-1.38-.66-1.73.28-3.31,2.44-29.6,1.85-33.1Z"/>
        <path class="cls-26" d="M49.38,147.65c-.24-1.4-2.44-.24-4.02-.07-.62.11-1.69.26-3.57.34l-5.06-.19c-2.1.07-4.15-.19-5.26-.28-2.04-.13-5.45-1.55-5.72.12-.56,2.57,1.36,20.52,1.36,20.52,0,0-.63.5-.63,1.06s.4,2.59.4,2.59c0,0,.09.82,2.16,1.15,1.44.23,4.48.5,6.95.6h0c.38.03.84.03,1.36.03.52,0,.98,0,1.36-.03h0c2.47-.09,5.51-.36,6.95-.6,2.07-.34,2.16-1.15,2.16-1.15,0,0,.4-2.03.4-2.59s-.63-1.06-.63-1.06c0,0,2.37-17.88,1.8-20.45Z"/>
        <g class="cls-24">
          <path class="cls-13" d="M50.56,132.58c-.53-3.18-4.96-5.8-7.33-7.21-.36-.21-.77-.45-.93-.57-.23-.61-.32-3.33-.27-5.73l.17-.1.08-.11c.64-.81.12-1.84-.28-2.32l-.21-.26-2.6-.06v-.1h-.08l-2.12.05-2.12-.05h-.08v.1l-2.6.06-.21.26c-.4.48-.92,1.51-.28,2.32l.08.11.17.1c.05,2.4-.03,5.12-.27,5.73-.16.11-.57.35-.93.57-2.38,1.41-6.8,4.03-7.33,7.21-.58,3.5,1.58,29.79,1.85,33.1-.26.35-.66.99-.66,1.73,0,.81.39,3.41.43,3.73.04.3.36,1.7,2.89,2.24,1.64.35,4.94.72,7.52.85h.01c.36.03.8.05,1.3.05.07,0,.14,0,.21,0,.07,0,.14,0,.21,0,.51,0,.95-.02,1.3-.05h.01c2.58-.13,5.87-.5,7.52-.85,2.53-.54,2.85-1.94,2.89-2.24.05-.33.43-2.92.43-3.73,0-.74-.39-1.38-.66-1.73.28-3.31,2.44-29.6,1.85-33.1ZM31.72,117.88c-.01-.17.03-.32.11-.46.01-.06.04-.12.09-.17.02-.02.04-.03.06-.04.02-.03.05-.05.08-.08.03-.03.07,0,.06.03.06,0,.11,0,.17,0,.17.01.34.06.5.11.18.05.35.1.53.15.73.21,1.48.37,2.24.45.38.04.76.07,1.14.08.13,0,.25,0,.38,0,.12-.01.24-.03.35-.04.25-.03.51-.07.77-.05.19.01.42.07.5.27.09.21-.07.42-.21.57-.08.09-.17.16-.27.23-.1.07-.22.12-.33.16-.6.2-1.26.2-1.88.19-.7,0-1.4,0-2.1-.1-.37-.05-.73-.12-1.09-.22-.27-.08-.52-.2-.73-.39-.19-.17-.33-.4-.35-.66ZM44.83,139.84c-.1,1.95-.3,3.91-.43,5.86-.1,1.48-.14,2.97-.2,4.45-.06,1.54-.13,3.08-.21,4.62-.08,1.55-.18,3.1-.29,4.64-.07.98-.04,1.96-.08,2.94-.04.96-.13,1.97-.53,2.86-.17.38-.41.76-.76,1.01-.1.07-.2.12-.31.17-.09.04-.18.06-.1.17.18.24.49.33.77.35.4.03.81,0,1.02.41.19.37.18.84.17,1.25-.01.42-.06.83-.1,1.24-.04.39-.07.82-.25,1.17-.19.37-.55.58-.92.74-.63.27-1.33.42-2,.55-1.27.24-2.57.33-3.85.37-2.54.09-5.17-.03-7.61-.78-.47-.14-.96-.3-1.35-.6-.33-.25-.53-.61-.66-1-.13-.4-.25-.81-.35-1.22-.1-.41-.21-.87-.14-1.3.13-.85,1.21-.68,1.82-.57.42.07.83.19,1.24.24.74.09,1.48.17,2.22.23,1.26.1,2.53.11,3.79.11,1.07,0,2.26-.03,3.23-.53-.28,0-.55-.02-.83-.02-1.29-.03-2.59-.03-3.88-.11-1.23-.08-2.43-.26-3.62-.57-1.54-.39-3.45-.95-4.11-2.56-.21-.52-.27-1.11-.36-1.66-.1-.62-.19-1.25-.27-1.88-.16-1.29-.27-2.59-.38-3.88-.21-2.61-.44-5.21-.55-7.82-.08-1.73-.11-3.47-.07-5.2-.06-1.16-.1-2.32-.15-3.48-.04-1.02-.12-2.03-.15-3.05-.04-1.05-.04-2.11.09-3.16.11-.93.3-1.89.75-2.72.86-1.59,2.42-2.65,3.89-3.61.72-.47,1.43-.96,2-1.61.35-.4.62-.84.85-1.31.05-.35.08-.71.11-1.06.05-.73.05-1.46.04-2.2,0-.22-.01-.44,0-.66.02-.2.07-.42.2-.58.16-.19.4-.25.64-.26.31-.01.61.04.91.07.25.02.5.03.75.03.48-.13,1.01-.15,1.48-.12.41.02.83.08,1.23.19.32.09.59.27.78.54.44.61.45,1.47.43,2.19-.02.78-.13,1.55-.15,2.32-.01.92.2,1.87.71,2.64.51.76,1.26,1.31,2,1.83.87.61,1.8,1.17,2.51,1.98.33.38.62.8.81,1.27.23.54.3,1.12.35,1.7.16,1.79.06,3.59-.15,5.38Z"/>
        </g>
        <path class="cls-1" d="M43.23,132.41s0,0,0,0c0,0,0,0,0,0,0,0,0,0,0,0,0,0,0,0,0,0Z"/>
        <path class="cls-1" d="M33.84,120.73s0,0,0,0c0,0,0,0,0,0,0,0,0,0,0,0Z"/>
        <path class="cls-1" d="M47.74,148.24c-.24-.13-.57-.18-.84-.1-.21.01-.42.06-.61.16-.05.03-.1.08-.1.14.02.23.26.38.44.48.25.13.53.21.8.23.21.02.49,0,.62-.19.17-.27-.09-.59-.31-.71Z"/>
        <path class="cls-1" d="M42.79,168.06c-.08-.12-.23-.15-.37-.16-.17,0-.34.01-.51.04-.48.06-.96.07-1.44.1-1.14.07-2.28.13-3.43.15-1.15.02-2.3-.01-3.44-.09-.58-.04-1.16-.09-1.74-.15-.57-.06-1.14-.13-1.71-.17-.55-.05-1.11-.06-1.66-.13-.15,0-.31-.01-.46-.02-.21,0-.42-.02-.63.03-.14.04-.27.11-.36.22-.09.1-.14.24-.16.37-.01.1-.01.19,0,.29.05.22.15.4.35.53.23.15.51.23.77.3.29.09.59.16.9.21.62.12,1.25.18,1.89.21,1.31.06,2.63-.03,3.94-.12,1.36-.09,2.73-.22,4.09-.37.65-.07,1.31-.17,1.95-.33.3-.07.59-.16.88-.25.26-.08.53-.16.77-.29.12-.07.23-.14.33-.24.03-.02.07-.09.04-.13Z"/>
        <g>
          <g>
            <g>
              <path class="cls-17" d="M42.32,109.53l-10.87-.02v6.35c0,.72,2.43,1.31,5.44,1.31s5.44-.59,5.44-1.31c0-.02,0-.04,0-.05h0v-6.28Z"/>
              <path class="cls-16" d="M42.32,109.53l-10.85-.02c.09.23.25.44.41.62.29.31.63.54,1.01.72.84.42,1.76.61,2.68.78.42.08.84.15,1.25.26.38.1.76.26,1.01.57.27.32.36.77.4,1.18.02.21.04.43.05.64.02.23.03.46.03.7,0,.71-.07,1.43-.04,2.14,2.33-.15,4.05-.66,4.05-1.27,0-.02,0-.04,0-.05h0v-6.28Z"/>
              <path class="cls-16" d="M42.32,109.53l-10.4-.02c.07.23.25.42.45.57.3.22.65.37,1,.49.3.1.6.18.91.24.64.13,1.3.2,1.95.23.67.03,1.34.01,2.01,0,.32,0,.64-.02.97-.01.23,0,.48.01.7.1.22.09.38.25.48.46.1.22.13.47.15.71.02.24.02.47.03.71.02.35.04.69.06,1.04.03.69.05,1.38.07,2.07,0,.23,0,.45.01.68,1-.24,1.61-.57,1.61-.93,0-.02,0-.04,0-.05h0v-6.28h0Z"/>
              <path class="cls-20" d="M36.89,117.24c-2.71,0-5.51-.52-5.51-1.38v-6.35s0-.04.02-.05c.01-.01.03-.02.05-.02l10.87.02s.07.03.07.07v6.28s0,.01,0,.02c0,.01,0,.02,0,.04,0,.87-2.8,1.38-5.51,1.38ZM31.53,109.58v6.28c0,.6,2.15,1.23,5.36,1.23s5.36-.64,5.36-1.23c0-.01,0-.03,0-.04,0-.01,0-.03,0-.04v-6.18l-10.72-.02Z"/>
            </g>
            <g>
              <ellipse class="cls-17" cx="36.89" cy="109.48" rx="5.44" ry="1.31"/>
              <ellipse class="cls-18" cx="35.26" cy="109.07" rx="2.66" ry=".64"/>
              <path class="cls-18" d="M35.5,109.08c0,.17-.56.3-1.26.3s-1.26-.14-1.26-.3.56-.3,1.26-.3c.69,0,1.26.14,1.26.3Z"/>
              <path class="cls-16" d="M38.39,108.22c.11.03.21.06.32.09.3.1.89.35.64.76-.12.21-.35.33-.57.42-.26.1-.55.16-.83.2-.68.1-1.37.14-2.06.14-.6,0-1.2-.03-1.79-.08-.39-.03-.79-.07-1.18-.15-.19-.04-.38-.09-.56-.17-.12-.06-.26-.14-.32-.26-.05-.1-.03-.2.02-.29-.4.18-.62.39-.62.61,0,.72,2.43,1.31,5.44,1.31s5.44-.59,5.44-1.31c0-.6-1.66-1.1-3.93-1.26Z"/>
              <path class="cls-16" d="M40.82,108.58c.09.2.11.43.03.62-.14.38-.55.55-.9.69-.46.17-.94.27-1.42.34-.5.07-1,.1-1.51.12-.49.02-.98.02-1.47.02-.91,0-1.85,0-2.74-.26-.21-.06-.42-.14-.61-.24-.18-.09-.37-.21-.48-.38-.07-.1-.1-.22-.09-.34-.12.11-.18.22-.18.34,0,.72,2.43,1.31,5.44,1.31s5.44-.59,5.44-1.31c0-.35-.57-.67-1.51-.9Z"/>
              <path class="cls-20" d="M36.89,110.86c-2.71,0-5.51-.52-5.51-1.38s2.8-1.38,5.51-1.38,5.51.52,5.51,1.38c0,.87-2.8,1.38-5.51,1.38ZM36.89,108.24c-3.21,0-5.36.64-5.36,1.23s2.15,1.23,5.36,1.23,5.36-.64,5.36-1.23c0-.6-2.15-1.23-5.36-1.23Z"/>
            </g>
          </g>
          <path class="cls-18" d="M37.1,116.8c-.74-.19-1.49-.37-2.18-.69-.32-.15-.63-.32-.89-.58-.23-.23-.39-.51-.51-.81-.11-.3-.18-.61-.21-.93-.04-.33-.06-.67-.04-.99.02-.25.08-.5.24-.69.16-.2.41-.31.65-.37.41-.11.84-.15,1.26-.16.03,0,.05,0,.08,0,.06,0,.11,0,.17.01.36.03,1.26-.05,1.17-.07-.39-.11-.79-.15-1.2-.15-.02,0-.04,0-.05,0-.27-.03-.53-.05-.8-.09-.66-.08-1.33-.23-1.94-.49-.33-.14-.63-.33-.9-.57-.09-.08-.22.06-.22.15-.01.34,0,.68.03,1.01-.01.13-.02.26-.03.39-.03.43-.03.88-.02,1.31,0,.44.02.88.03,1.31.01.31,0,.62,0,.92.02.28.08.56.3.75.22.19.5.32.78.42.59.22,1.2.32,1.82.42.78.13,1.62.24,2.39.05.04,0,.15-.13.06-.15Z"/>
        </g>
      </g>
      <g>
        <path class="cls-11" d="M67.92,153.18s.06-.03.06-.07c0-.98-.32-1.99-.55-2.93-.25-1.03-.53-2.06-.83-3.08-.67-2.33-1.43-4.64-2.19-6.95-1.41-4.28-2.84-8.56-3.79-12.96,0-.04-.05-.05-.08-.03-.59-3.2-.85-6.41-.57-9.58.07-.8.18-1.61.32-2.41.06,0,.11-.02.17-.03.05,0,.05-.07.02-.1.28-.06.54-.16.77-.31.74-.47,1.01-1.86.76-2.96-.15-.64-.48-1.17-1.01-1.36-.18-.06-.38-.1-.59-.13.09-.49.1-.85.16-1.35.15-1.39.15-2.78,0-4.09-3.13-2.13-7.72-1.27-9.01-.11-.1.92-.13,1.89-.09,2.86.04.92-.01,1.82.15,2.73,0,0-.02,0-.03,0-.23.02-.47.04-.68.14-.93.46-1.03,2.11-.88,2.99.1.55.41,1.09.91,1.34-.03.02-.03.07.02.09.26.11.53.19.81.25.8,4.39.42,8.88-.51,13.34-.92,4.41-2.39,8.8-3.82,13.04-1.65,4.92-3.25,10.11-3.88,15.26-.49,4.01-.39,8.01.73,11.85-.02,0-.04.03-.04.06.25,1.12.69,2.31,1.4,3.26.19.29.41.56.67.79.5.45,1.09.75,1.73.94.75.26,1.55.4,2.32.49,2.03.22,4.1.25,6.14.19,1.91-.06,3.98-.03,5.88-.39,1.24-.11,2.45-.41,3.35-1.23.58-.53.97-1.23,1.28-1.96.07-.18.14-.36.21-.54,2.05-5.47,1.84-11.31.68-17.09Z"/>
        <path class="cls-9" d="M62.63,145.44c-.03-.09-.06-.18-.09-.27h0c0-.06-.02-.11-.06-.17-.41-.61-3.14-1.08-6.43-1.08s-6.02.47-6.44,1.08c-.04.05-.05.11-.05.16h0c-.03.09-.06.18-.09.28-.78,2.32-1.54,4.71-2.13,7.12-1.21,5.02-1.66,10.15.12,14.91.26.7.59,1.41,1.14,1.91.93.85,2.3.97,3.55.99,1.3.03,6.49.03,7.79,0,1.26-.03,2.62-.14,3.55-.99.56-.5.88-1.21,1.14-1.91.24-.65.45-1.31.61-1.97,1.61-6.52-.44-13.58-2.61-20.06Z"/>
        <path class="cls-5" d="M60.63,104.72c-3.13-2.13-7.94-1.17-9.23,0-.1.92-.13,1.89-.09,2.86.04.92.15,1.85.31,2.77,2.31-.17,4.65-.16,6.96-.08.54.02,1.22-.04,1.82.03.09-.49.16-.99.21-1.49.15-1.39.15-2.78,0-4.09Z"/>
        <path class="cls-28" d="M58.59,110.27c.54.02,1.22-.04,1.82.03.09-.49.16-.99.21-1.49-1.54.48-3.18.59-4.79.45-1.63-.14-3.32-.6-4.51-1.67.04.92.15,1.85.31,2.77,2.31-.17,4.65-.16,6.96-.08Z"/>
        <path class="cls-12" d="M60.48,115.05s-.01,0-.02,0c-1.53-.31-3.26-.05-4.81-.01-1.55.03-3.11.07-4.64-.22-.02,0-.04,0-.05.01-.03.02-.03.07.02.09.26.11.53.19.81.25.8,4.39.42,8.88-.51,13.34,1.98-3.58,4.47-6.87,7.39-9.73.42-.41.85-.81,1.3-1.19.07-.8.18-1.61.32-2.41.06,0,.11-.02.17-.03.05,0,.05-.07.02-.1Z"/>
        <path class="cls-15" d="M55.31,115.33c1.62-.03,3.38.12,4.98-.16.06,0,.11-.02.17-.03.05,0,.05-.07.02-.1,0,0-.01,0-.02,0-1.53-.31-3.26-.05-4.81-.01-1.55.03-3.11.07-4.64-.22-.02,0-.04,0-.05.01-.03.02-.03.07.02.09.26.11.53.19.81.25,1.14.26,2.37.19,3.52.17Z"/>
        <path class="cls-12" d="M53.47,172.24c-2.66-.52-5.35-1.59-7.08-3.67-1.42-1.7-2.07-3.91-2.42-6.1-.3-1.87-.41-3.76-.39-5.66-.49,4.01-.39,8.01.73,11.85-.02,0-.04.03-.04.06.25,1.12.69,2.31,1.4,3.26.15.2.31.39.49.57.54.54,1.2.91,1.91,1.16.75.26,1.55.4,2.32.49,2.03.22,4.1.25,6.14.19,1.91-.06,3.98-.03,5.88-.39,1.24-.11,2.45-.41,3.35-1.23.58-.53.97-1.23,1.28-1.96-4.26,1.78-9.03,2.32-13.56,1.43Z"/>
        <path class="cls-15" d="M44.27,168.72c.25,1.12.69,2.31,1.4,3.26.15.2.31.39.49.57.54.54,1.2.91,1.91,1.16.75.26,1.55.4,2.32.49,2.03.22,4.1.25,6.14.19,1.91-.06,3.98-.03,5.88-.39.18-.03.36-.07.54-.12.09-.02.06-.14-.02-.15-1.84-.11-3.76.24-5.6.32-.36.02-.72.03-1.09.03-.82.02-1.65.02-2.47,0-.69-.02-1.37-.05-2.06-.09-1.72-.1-3.65-.26-5.04-1.38-1.26-1.01-1.62-2.56-2.31-3.94-.01-.02-.04-.03-.06-.02-.02,0-.04.03-.04.06Z"/>
        <path class="cls-21" d="M61.61,166.08c-3.63.18-7.45-.79-10.06-3.32-1.43-1.39-2.43-3.19-3.14-5.06-.62-1.63-1.01-3.39-1.08-5.14-1.21,5.02-1.66,10.15.12,14.91.26.7.59,1.41,1.14,1.91.93.85,2.3.97,3.55.99,1.3.03,6.49.03,7.79,0,1.26-.03,2.62-.14,3.55-.99.56-.5.88-1.21,1.14-1.91.24-.65.45-1.31.61-1.97-1.18.34-2.41.52-3.63.58Z"/>
        <path class="cls-23" d="M53.8,166.91c2.5-.28,4.96-.29,7.46,0,.02,0,.02-.03,0-.03-2.45-.59-5.01-.62-7.48-.08-.07.01-.05.13.02.12Z"/>
        <path class="cls-23" d="M54.32,169.52c2.64.16,5.48-.04,8-.89.11-.04.07-.2-.05-.18-2.13.45-4.23.85-6.42.85-1.01,0-2.01-.05-3.01-.18-.77-.1-3.06-.35-3.16-1.39,0-.06-.09-.06-.09,0-.1,1.59,3.69,1.72,4.73,1.79Z"/>
        <path class="cls-19" d="M56.05,146.41c3.58,0,6.48-.55,6.49-1.24h0c0-.06-.02-.11-.06-.17-.41-.61-3.14-1.08-6.43-1.08s-6.02.47-6.44,1.08c-.04.05-.05.11-.05.16h0c0,.69,2.91,1.24,6.49,1.24Z"/>
        <path class="cls-7" d="M52.32,141.57c2.28-.75,3.2-5.12,3.59-7.29.26-1.43.44-3.07-.15-4.43-.07-.16-.15-.31-.24-.45.71-.21,1.23-.86,1.23-1.64,0-.94-.76-1.71-1.71-1.71s-1.71.76-1.71,1.71c0,.34.1.65.27.91-.17.1-.34.24-.51.43-.62.69-.52,1.5-.59,2.39-.12,1.47-.53,2.85-1.06,4.2-.54,1.38-1.23,2.82-1.01,4.3.15,1,.89,1.91,1.89,1.58Z"/>
        <path class="cls-22" d="M64.61,161.82c-.01-.65-.45-1.19-1.05-1.36.37-.57.48-1.35.54-1.98.3-3.21-.08-6.55-1.62-9.38-.48-.88-1.64-1.83-2.58-.96-.72.68-.82,1.88-.62,2.79.22.98.75,1.86,1.14,2.84.47,1.2.61,2.5.7,3.79.07,1.02.13,2.08.64,2.97.09.15.2.28.33.38-.22.26-.35.59-.34.96.01.79.67,1.42,1.46,1.41.79-.01,1.42-.67,1.41-1.46Z"/>
        <path class="cls-23" d="M51.53,150.09c.4.06.76-.2.86-.59.1-.37-.08-.79-.44-.95-.07-.03-.13.07-.06.11.28.13.43.45.37.75-.06.3-.33.41-.6.39-.27-.02-.54-.21-.53-.51.01-.29.25-.56.55-.57.22,0,.22-.35,0-.34-.46.01-.86.39-.89.85-.03.44.32.79.74.85Z"/>
        <path class="cls-23" d="M58.27,162.69c.4.06.76-.2.86-.59.1-.37-.08-.79-.44-.95-.07-.03-.13.07-.06.11.28.13.43.45.37.75-.06.3-.33.41-.6.39-.27-.02-.54-.21-.53-.51.01-.29.25-.56.55-.57.22,0,.22-.35,0-.34-.46.01-.86.39-.89.85-.03.44.32.79.74.85Z"/>
        <path class="cls-23" d="M49.03,163.42c.14.07.22.22.19.38-.03.15-.17.21-.3.2-.14,0-.27-.1-.27-.25,0-.15.13-.28.27-.28.11,0,.11-.17,0-.17-.23,0-.43.19-.44.43-.01.22.16.4.37.43.2.03.38-.1.43-.29.05-.19-.04-.4-.22-.47-.04-.02-.07.04-.03.05Z"/>
        <path class="cls-23" d="M64.7,158.66c.2.03.38-.1.43-.29.05-.19-.04-.4-.22-.47-.04-.02-.07.04-.03.05.14.07.22.22.19.38-.03.15-.17.21-.3.2-.14,0-.27-.1-.27-.25,0-.15.13-.28.27-.28.11,0,.11-.17,0-.17-.23,0-.43.19-.44.43-.01.22.16.4.37.43Z"/>
        <path class="cls-14" d="M57.89,105.02c-1.97.34-3.62.38-5.6.15-.03,0-.03.04,0,.04,1.75.54,3.9.52,5.64-.06.08-.03.05-.15-.04-.13Z"/>
      </g>
      <g>
        <path class="cls-27" d="M6.94,119.91h0c-4.4-.2-7.2-5-5.6-9.4l11.3-27.2c1.7-4.3,6.2-6.5,10.3-4.9h0c4.8,1.9,6.7,7.9,4.1,12.5l-14.3,25.6c-1.2,2.2-3.5,3.4-5.9,3.3h.1v.1Z"/>
        <path class="cls-6" d="M16.24,78.11c-3.8,3.1-8.6,9.4-12,23.1l15.3,7s10.7-18.8,9.4-26c-.9-5-8.5-7.3-12.7-4h0v-.1Z"/>
        <path class="cls-27" d="M6.54,110.11h0c1.7.3,3.1,1.3,3.9,3l15.9,30.7-7.7,3.2L.94,119.31c-2.7-4.2.8-10,5.6-9.2h0Z"/>
        <path class="cls-27" d="M32.3,148.45l-8.43-7.63-6.19,5.58s.16.16.29.22c-.56,10.7,4.64,15.22,4.64,15.22,4.89,4.53,6.54,3.2,6.98,1.45.29-1.27.05-2.56-.67-3.69-2.78-4.85-3.65-12.71-3.65-12.71,8,5.23,6.8,1.52,6.8,1.52l.19-.07.03.09Z"/>
      </g>
      <g>
        <path class="cls-27" d="M81.04,119.81h0c4.4-.2,7.2-5,5.6-9.4l-11.3-27.2c-1.7-4.3-6.2-6.5-10.3-4.9h0c-4.8,1.9-6.7,7.9-4.1,12.5l14.3,25.6c1.2,2.2,3.5,3.4,5.9,3.3h-.1v.1Z"/>
        <path class="cls-6" d="M71.74,78.01c3.8,3.1,8.6,9.4,12,23.1l-15.3,7s-10.7-18.8-9.4-26c.9-5,8.5-7.3,12.7-4h0v-.1Z"/>
        <path class="cls-27" d="M80.94,109.21h0c-1.7.4-3,1.5-3.7,3.2l-13.8,31.7,7.9,2.7,15.8-28.8c2.4-4.4-1.4-9.9-6.1-8.8h-.1,0Z"/>
        <path class="cls-27" d="M56.91,148.63l8.53-7.44,6.08,5.72s-.17.14-.31.19c.41,10.73-4.89,15.13-4.89,15.13-4.98,4.44-6.59,3.16-6.98,1.34-.32-1.24.08-2.6.67-3.65,2.82-4.76,3.86-12.63,3.86-12.63-8.09,5.01-6.75,1.33-6.75,1.33l-.18-.08h0l-.04.09Z"/>
      </g>
    </g>
  </g>
</svg>