<?xml version="1.0" encoding="UTF-8"?>
<svg id="Ebene_2" data-name="Ebene 2" xmlns="http://www.w3.org/2000/svg" viewBox="0 0 97.23 298.72">
  <defs>
    <style>
      .cls-1 {
        fill: #d9a8a7;
      }

      .cls-2 {
        fill: #fcf9b9;
      }

      .cls-3 {
        fill: #1d2d4e;
      }

      .cls-4 {
        fill: #95acba;
      }

      .cls-5 {
        fill: none;
        stroke: #630;
        stroke-linecap: round;
        stroke-miterlimit: 10;
      }

      .cls-6 {
        fill: #7894a2;
      }

      .cls-7 {
        fill: #344260;
      }

      .cls-8 {
        fill: #d9a2a0;
      }

      .cls-9 {
        fill: #9b542a;
      }

      .cls-10 {
        fill: #ca8a8c;
      }

      .cls-11, .cls-12 {
        fill: #603813;
      }

      .cls-13 {
        fill: #5b2b16;
      }

      .cls-14 {
        fill: #faf0f5;
      }

      .cls-15 {
        fill: #596e77;
      }

      .cls-16 {
        fill: #543a35;
      }

      .cls-17 {
        fill: #e3f1fb;
      }

      .cls-18 {
        fill: #753b1d;
      }

      .cls-12 {
        isolation: isolate;
        opacity: .5;
      }
    </style>
  </defs>
  <g id="Ebene_1-2" data-name="Ebene 1">
    <g id="german-woman-cake">
      <g>
        <path class="cls-3" d="M58.97,216.81h0c-4.3,0-7.7-3.4-7.9-7.6l-1.8-64.4c0-6.9,5.7-12.6,12.6-12.6h0c6.9,0,12.6,5.7,12.6,12.6,2.2,21.6-1.1,46.3-8,66.7-1.1,3.2-4.1,5.3-7.5,5.3h0Z"/>
        <path class="cls-3" d="M56.87,286.61h-5.6v-74.9c0-4.5,3.2-8.1,7.2-8.1h0c3.6,0,6.6,2.9,7.1,6.8,3,21.9-.3,47.9-8.8,76.2h.1Z"/>
        <path class="cls-16" d="M56.87,286.51s22.4,10.1,17,12c-.6.2-20.1-2.7-20.6-3-1.1-.6-1.8-1.7-1.9-3v-5.9h5.5v-.1Z"/>
      </g>
      <g>
        <path class="cls-3" d="M37.97,217.01h0c4.3,0,7.7-3.4,7.9-7.6l1.8-64.4c0-6.9-5.7-12.6-12.6-12.6h0c-6.9,0-12.6,5.7-12.6,12.6-2.2,21.6,1.1,46.3,8,66.7,1.1,3.2,4.1,5.3,7.5,5.3Z"/>
        <path class="cls-3" d="M39.97,286.81h5.6v-74.9c0-4.5-3.2-8.1-7.2-8.1h0c-3.6,0-6.6,2.9-7.1,6.8-3,21.9.3,47.9,8.8,76.2h-.1Z"/>
        <path class="cls-16" d="M39.97,286.71s-22.4,10.1-17,12c.6.2,20.1-2.7,20.6-3,1.1-.6,1.8-1.7,1.9-3v-5.9h-5.5v-.1Z"/>
      </g>
      <path class="cls-16" d="M77.17,35.91c-2.7-5-6.9-8.9-9.7-13.8-1.2-2.1-1-19.5-14-21.8-2.7-.5-5.6-.3-8.3.2-2.6.5-5.2.8-7.4,2.3-2.1,1.4-3.8,3.4-4.9,5.6-1.4,2.9-1.6,6.2-2.8,9.2-3.4,8-9.9,14.3-12.6,22.5-.2.6-.4,1.3-.6,1.9-.9,3.6.2,7.6,2,10.8,1-2.3.6-4.9,1.9-7.3.7,6.1,1.6,11.9,5.5,16.9,3.7,4.8,8.4,7.2,13.5,10.2-.4-.9-.7-1.7-.6-2.7,2,1.9,6,3.9,8.7,3.2,4.1-1.2,7.6-3.7,11.1-5.7,0,1-1.4,2.6-2,3.4,4.8-2.4,10.6-6.4,13.2-11.2,2.5-4.6,3-10.2,3.5-15.2,1.7,2.2,2,5.4,2.9,7.9,2.6-4.7,3-11.8.5-16.6v.2h.1Z"/>
      <g>
        <path class="cls-3" d="M73.47,140.31l-24.1,14.8-26.8-11.9c1.8-11,7-22.6,10.6-29.8,2.3-4.5,4-7.3,4-7.3h22.8c1.3,2.1,2.7,4.6,3.9,7.3,5.5,11.9,9.6,26.9,9.6,26.9Z"/>
        <path class="cls-14" d="M73.17,59.41l-2.5,12.6c-.3,1.3-.6,2.7-.9,4.1-.3,1.5-.7,2.9-1.2,4.4l-6.2,21.5-.3.9-.9,3.2-.6,2.1h-22.7l-.6-2.1-.9-3.2-.6-2.2-5.6-19.5c-.5-1.7-.9-3.4-1.2-5.2-.3-1.7-.6-3.4-.8-5.1l-1.4-12.6,3.3-1.4,6.4-2.7,8.5-3.6h9.4l4.7,2.2,6.9,3.2,7.1,3.3h0l.1.1Z"/>
        <path class="cls-16" d="M37.27,106.11h0l-.9-3.2h26.3l-.9,3.2c1.4,2.1,2.8,4.6,4.2,7.3h-32.9c2.4-4.5,4.3-7.3,4.3-7.3h-.1Z"/>
        <path class="cls-7" d="M39.37,52.81l4.5,32.7c2,14.7,2.1,29.6.3,44.3l-1.9,15.5c-1.4,11.2-11.6,19.7-23.7,19.7h-1.8c1.3-19.5,5.7-37.8,12.4-50.2,3.2-5.9,2.8-13.4,3.1-19.1l-7-37.1,14.3-5.7h-.2v-.1Z"/>
        <path class="cls-7" d="M58.37,52.11l-4.5,32.7c-2,14.7-2.1,29.6-.3,44.3l1.9,15.5c1.4,11.2,11.6,19.7,23.7,19.7h1.8c-1.3-19.5-5.7-37.8-12.4-50.2-3.2-5.9-2.9-12.7-3.1-19.1l8.3-35.5-15.5-7.3h0v-.1h.1Z"/>
      </g>
      <g id="s-deception-a-cake">
        <g>
          <path class="cls-15" d="M74,128.68c0,5.38-11.28,9.74-25.2,9.74s-25.2-4.36-25.2-9.74,11.28-9.74,25.2-9.74c13.92,0,25.2,4.36,25.2,9.74Z"/>
          <g>
            <path class="cls-6" d="M80.97,124.87c0,6.98-14.36,13.03-32.15,13.03s-32.27-6.05-32.27-13.03,14.42-12.64,32.21-12.64c17.79,0,32.21,5.66,32.21,12.64Z"/>
            <path class="cls-17" d="M80.95,124.33c0,7.09-14.39,12.84-32.15,12.84s-32.15-5.75-32.15-12.84,14.39-12.84,32.15-12.84c17.76,0,32.15,5.75,32.15,12.84Z"/>
            <path class="cls-17" d="M80.95,124.33c0,7.09-14.39,12.84-32.15,12.84s-32.15-5.75-32.15-12.84,14.39-12.84,32.15-12.84c17.76,0,32.15,5.75,32.15,12.84Z"/>
            <path class="cls-4" d="M74.32,123.48c0,5.63-11.43,10.19-25.52,10.19s-25.52-4.56-25.52-10.19,11.43-10.19,25.52-10.19c14.09,0,25.52,4.57,25.52,10.19Z"/>
            <path class="cls-17" d="M74,123.51c0,5.27-11.28,9.55-25.2,9.55s-25.2-4.28-25.2-9.55,11.28-9.55,25.2-9.55c13.92,0,25.2,4.27,25.2,9.55Z"/>
          </g>
        </g>
        <g>
          <g>
            <path class="cls-18" d="M57.24,115.62c-.33-.47-.47-1-.78-1.46-.18-.27-.45-.49-.62-.76-.16-.28-.96-1.5-1.14-1.86-.14-.26-3.28-5.54-3.55-5.76l-.54-.95s-.06,0-.18,0c-.22-.12-.6-.23-.77-.26-.43-.07-.92-.04-1.36-.04-.99,0-1.95-.23-2.92-.14-.46.04-10.47.96-10.68,1.09-.11.07-.33-.08-.5-.01-.04.02-.18.13-.09.24-.01-.02,1.61,1.12,4.02,2.41,5.76,3.09,16.05,8.46,19.44,10.22.25.33.52.72.83.76,1.18.12-.77-2.94-1.16-3.49Z"/>
            <path class="cls-9" d="M59.11,121.96c-.1-.31-.26-.5-.3-.85-.04-.35.14-.52.25-.84.08-.24.12-.59.08-.85-.12-.71-1.03-.8-1.55-1.08-.79-.42-1.58-.85-2.37-1.27-2.59-1.39-5.18-2.79-7.77-4.18-2.75-1.48-5.5-2.96-8.24-4.43-1.03-.56-2.06-1.11-3.1-1.66-.56-.3-1.16-.74-1.77-.95-.06-.02-.07-.11-.12-.11l-.06.02s-.06-.03-.06-.03v.09c-.31.02-.42.37-.4.78.02.35,0,.55-.08.89-.19.8.08,1.51-.04,2.31-.06.4-.21.81-.18,1.23.03.39.15.8.19,1.19.04.36-.05.72-.04,1.08.02.45.12.91.18,1.34.18,1.37-.13,2.78.12,4.14.03.16.07.31.13.45.03.12.07.25.12.37v.02h0s0,.03.01.04c.02,0,.04,0,.06,0h.01c.39.66,7.6,4.07,7.95,4.32.36.26,3.86,2.24,4.14,2.43.6.4,1.27.6,1.84.96.61.39,9.18,4.71,9.61,4.85.28.09.68-.02.84.27,0-.05-.02-.1-.04-.15l.13.07v-1.9c.09-.48.09-.98.18-1.47.04-.2.16-.37.2-.56.04-.2,0-.45,0-.65,0-.64.08-1.23.11-1.85.04-.82-.03-1.62-.03-2.43,0-.47.11-1.14-.03-1.58Z"/>
            <path class="cls-2" d="M33.61,112.27s8.84,5.21,9.55,5.63c.65.38,1.31.8,1.98,1.17.65.35,14.03,7.03,14.03,7.03,0-.04,0-.08,0-.12.04-.74-.01-1.47-.02-2.2-.45-.24-2.15-1.13-3.94-2.1-.02-.02-.05-.03-.07-.05-.81-.63-1.66-.99-2.52-1.52-.82-.52-1.62-1.1-2.43-1.64-.47-.31-.9-.59-1.37-.83-.51-.26-13.77-6.79-13.92-6.87l.05.07c-.23-.11-.9-.55-1.37-.89,0,0,0,0,0,0,0,.02,0,.04-.01.05,0,.03-.01.06-.02.09-.01.05-.02.09-.03.14,0,.01,0,.02,0,.03,0,.04-.02.08-.03.12,0,.02,0,.03-.01.05,0,.03-.01.07-.02.1,0,.02,0,.04,0,.05,0,.03,0,.06-.01.09,0,.02,0,.04,0,.05,0,.03,0,.07,0,.1,0,.02,0,.03,0,.05,0,.05,0,.1,0,.15.03.39.15.8.19,1.19,0,.02,0,.04,0,.06Z"/>
          </g>
          <path class="cls-18" d="M57.22,117.68c-.59-.48-1.27-.88-1.88-1.35-.94-.73-1.67-1.59-2.47-2.48-1-1.1-2.62-2.06-3.98-2.67-.81-.36-1.68-.62-2.46-1.07-.42-.24-.8-.55-1.25-.75-.49-.22-1.04-.29-1.55-.48-.7-.26-1.64-.98-2.42-.92l-2.35-.07c-.18.56-.09.8.3,1.16.48.44.64,1.02.74,1.64.1.61.03,1.25-.04,1.85-.06.53.03,1.1-.08,1.63-.13.65-.4,1.23-.51,1.9-.11.67-.27,1.33-.3,2.01-.03.59.04,1.06.41,1.54.21.27.76.62,1.12.36.79-.55-.34-2.12-.34-2.84,0-.64.47-1.19.68-1.78.16-.45.13-.99.07-1.45-.12-.81-.44-2.09.16-2.74.43-.48.75-.54,1.25-.12.54.44.87.98.87,1.68,0,.52-.07,1.02-.15,1.52-.05.35-.25,1.18.08,1.43.37.28.96-.02,1.12-.37.23-.52-.07-.91-.15-1.38-.17-1,.67-2.27,1.63-1.38.3.28.52.44.94.48.53.06.81.17,1.05.7.22.49.08,1.01.15,1.53.05.4.46.79.81.38.29-.34-.02-.87.34-1.21.12-.11.39-.26.56-.21.17.05.22.3.37.38.42.21.77-.1,1.13.37.28.37.35.95.48,1.38.14.46.24.84.29,1.33.04.43.11.92.68.78.75-.18.43-1.25,1.03-1.57.25-.13.54-.08.75.09.1.08.09.22.21.29.1.06.28.04.41.07.34.09.42.33.67.53.25.2.48.19.8.25.45.08,1.86.96,2.3.87.09-.35-1.23-1.13-1.46-1.32Z"/>
          <circle class="cls-13" cx="47.67" cy="105.16" r="2.01"/>
          <circle class="cls-13" cx="42.42" cy="107.89" r="2.01"/>
          <circle class="cls-13" cx="49.45" cy="110.7" r="2.01"/>
          <circle class="cls-13" cx="54.37" cy="113.43" r="2.01"/>
        </g>
      </g>
      <g id="arm5">
        <path class="cls-1" d="M23.17,118.51l13.2,2.86s2.47,2.68-6.57,1.54c0,0,3.6,6.25,7.9,9.05.99.71,1.75,1.65,1.84,2.81.18,1.65-.66,3.36-6.7,1.59,0,0-6.89-1.86-10.19-12.09l.56-5.86h0q-.03.06,0,0l-.04.09Z"/>
        <path class="cls-7" d="M1.23,82.34h0c2.04,2.73,5.87,3.48,8.54,1.54,10.15-6.29,19.29-12.76,26.48-19.5,2.59-1.89,2.99-5.71.95-8.44h0c-5.36-6.07-25.51,9.44-34.95,17.91-2.59,1.89-2.99,5.71-.95,8.44h0s-.05.04,0,0l-.07.06Z"/>
        <path class="cls-7" d="M22.72,121.12l5.24-2.24-15.67-42c-1.15-3.13-5.19-4.72-8.6-3.41h0c-3.21,1.3-4.65,4.63-3.02,7.46l22.14,40.09v.09s-.09,0-.09,0Z"/>
      </g>
      <g id="arm5-2" data-name="arm5">
        <path class="cls-1" d="M70.79,117.82l-12.43,5.3s-1.92,3.09,6.74.28c0,0-2.36,6.82-6.05,10.38-.83.89-1.41,1.95-1.28,3.11.13,1.66,1.28,3.17,6.88.3,0,0,6.42-3.12,7.73-13.79l-1.66-5.65h0q.04.05,0,0l.06.08Z"/>
        <path class="cls-7" d="M95.27,82.94h0c-2.04,2.73-5.87,3.48-8.54,1.54-10.15-6.29-19.29-12.76-26.48-19.5-2.59-1.89-2.99-5.71-.95-8.44h0c5.36-6.07,25.51,9.44,34.95,17.91,2.59,1.89,2.99,5.71.95,8.44h0s.05.04,0,0l.07.06Z"/>
        <path class="cls-7" d="M71.8,122.65l-5.09-2.62,18.34-42.85c1.35-3.19,5.49-4.63,8.8-3.08h0c3.12,1.53,4.35,5.07,2.54,7.93l-24.68,40.51v.09s.09.01.09.01Z"/>
      </g>
      <path class="cls-10" d="M45.17,55.71h0c1.7,3.2,6.2,3.1,7.8,0h0c.3-.6.5-1.3.5-2.1v-12.2h-9v12.1c0,.8.2,1.5.6,2.2h.1Z"/>
      <path class="cls-1" d="M66.77,27.31c-.7,1.3-1.9,2.2-3,2.5h-1c-.3,3.5-1.4,6.6-3,9.2-3,5-7.6,8.1-11,7.9h-.8c-2.8,0-5.9-1.6-8.5-4.5h0c-.8-.8-1.5-1.8-2.1-2.8-1.6-2.5-2.8-5.6-3.3-9.1h-.3c-1.1,0-2.4-1-3.2-2.3,0-.2-.2-.5-.3-.7,0-.3-.2-.7-.3-1h0c-.3-1.3,0-2.4,1-2.9h0c.8-.4,1.9,0,2.8.6.6-8.4,4.4-16,9.7-18.8,1.4-.8,2.8-1.2,4.4-1.2,2.3,0,4.4.7,6.4,2,4.5,3,7.8,10.4,8.5,17.9.4-.5.9-.9,1.4-1.1.7-.3,1.4-.4,2,0,1.3.6,1.5,2.6.5,4.5h0v-.2h.1Z"/>
      <g>
        <path class="cls-11" d="M58.27,24.01c-.2,0-.3,0-.4-.2-1.5-2.7-3.9-1.6-4-1.6-.2,0-.5,0-.7-.2,0-.2,0-.5.2-.7,1.2-.5,3.8-.9,5.3,2,0,.2,0,.5-.2.7h-.2Z"/>
        <path class="cls-11" d="M38.47,24.01c.2,0,.3,0,.4-.2,1.5-2.7,3.9-1.6,4-1.6.2,0,.5,0,.7-.2,0-.2,0-.5-.2-.7-1.2-.5-3.8-.9-5.3,2,0,.2,0,.5.2.7h.2,0Z"/>
        <path class="cls-11" d="M41.47,25.91c0,.9.6,1.8,1.3,1.8s1.4-.9,1.4-1.8-.6-1.8-1.3-1.8-1.4.9-1.4,1.8Z"/>
        <path class="cls-11" d="M53.37,25.91c0,.9.6,1.8,1.3,1.8s1.4-.9,1.4-1.8-.6-1.8-1.3-1.8-1.4.9-1.4,1.8Z"/>
        <path class="cls-5" d="M44.67,37.91c.2.2,1.3,2.7,4.3,2.6,2.9,0,4.1-2.3,4.3-2.6"/>
        <path class="cls-12" d="M50.97,32.81c0,1.2-.9,2.1-2.1,2.1s-2.1-.9-2.1-2.1.9,1.2,2.1,1.2,2.1-2.4,2.1-1.2Z"/>
        <path class="cls-8" d="M58.47,28.51c1.7,0,3.1,1.3,3,2.7s-1.6,2.5-3.4,2.4-3.1-1.3-3-2.7,1.6-2.5,3.4-2.4Z"/>
        <path class="cls-8" d="M38.97,28.51c1.7,0,3.1,1.3,3,2.7s-1.6,2.5-3.4,2.4-3.1-1.3-3-2.7,1.6-2.5,3.4-2.4Z"/>
      </g>
      <path class="cls-16" d="M65.07,22.91c0,2.6-1.4,13.5-4.7,16,1.5-6.9,2.3-17.1-.4-20.6-.9-1.2-3.7-3.4-3.5-5.1-4.1,5.3-12.4,6.6-14,6.8-2,.5-4.8.9-6.3,1.4-.5,5.1.4,15,.9,18-1.7-2.5-2.9-5.6-3.4-9.1,0,0-.4-2.7-.3-3.8-1.2.3-2.4.7-3.6.8h-.7c0-.3.2-.7.4-1h0c.2-.4.4-.7.6-1,.2-.6.4-1.2.5-1.9v-.4c.3-1.5.3-2.9.4-4.4.2-3,.5-6,1.9-8.7C35.97,4.11,42.87-.29,49.87.01c2.5.1,5,.9,7.1,2.2,4.3,2.7,7.4,7.5,8,12.4v8.2h0l.1.1Z"/>
    </g>
  </g>
</svg>