<?xml version="1.0" encoding="UTF-8"?>
<svg id="Ebene_2" data-name="Ebene 2" xmlns="http://www.w3.org/2000/svg" viewBox="0 0 130.54 253.64">
  <defs>
    <style>
      .cls-1 {
        fill: #ffebe0;
      }

      .cls-1, .cls-2, .cls-3, .cls-4, .cls-5, .cls-6 {
        stroke-linecap: round;
      }

      .cls-1, .cls-3, .cls-4, .cls-5, .cls-6 {
        stroke: #03403f;
        stroke-linejoin: round;
      }

      .cls-7 {
        fill: #d9b6b6;
      }

      .cls-2 {
        stroke: #630;
        stroke-miterlimit: 10;
      }

      .cls-2, .cls-3 {
        fill: none;
      }

      .cls-8 {
        fill: #caa1a2;
      }

      .cls-9 {
        fill: #d9a2a0;
      }

      .cls-10 {
        fill: #f27406;
        opacity: .4;
      }

      .cls-10, .cls-11 {
        isolation: isolate;
      }

      .cls-4 {
        fill: #f2bd57;
      }

      .cls-5 {
        fill: #f25ca3;
      }

      .cls-12 {
        fill: #d38a17;
      }

      .cls-13 {
        fill: #d9baba;
      }

      .cls-14, .cls-11 {
        fill: #603813;
      }

      .cls-15 {
        fill: #273758;
      }

      .cls-6 {
        fill: #048c3d;
      }

      .cls-16 {
        fill: #466e9f;
      }

      .cls-11 {
        opacity: .5;
      }

      .cls-17 {
        fill: #e6e6e6;
      }
    </style>
  </defs>
  <g id="Layer_1" data-name="Layer 1">
    <g id="german-boy-lemonade-down">
      <g>
        <path class="cls-7" d="M20.48,108.48h0c-3.46,0-5.91-4.13-4.91-8.26l7.25-26.22c1-4.24,4.46-6.47,7.81-5.35h0c3.79,1.34,5.69,6.81,3.9,11.38l-10.04,24.32c-.78,2.12-2.12,4.24-4.02,4.24h0v-.11Z"/>
        <path class="cls-17" d="M25.39,69.32c-3.35,3.01-7.7,9.37-10.93,22.76l13.16,6.47,1.9-5.24c4.24-7.92,7.59-15.28,6.81-20.42-.56-4.91-7.25-6.92-11.04-3.57h.11Z"/>
        <g>
          <path id="hand1" class="cls-13" d="M111.42,116.72l5.83-.4c1.2-.09,4.4.32,5.28,1.13,1.17.98-1.41,1.37-6.77,1.97l5.81,6.27s2.86,4.73-1.73,3.41c0,0,1.93,5.48-2.69,3.19,0,0,1.16,5.04-4.15,1.16l-4.8-4.11c-1.62-1.42-2.81-3.37-3.15-5.47-.34-2.1.13-4.51,2.78-6.06,1.05-.62,2.28-.88,3.55-.99l-.02-.08s0,0,0,0h0l.08-.02Z"/>
          <path class="cls-7" d="M75.37,103.95h0c1.46-.54,3.24-.53,4.69.05l29.99,13.57-4.3,5.65-29.68-10.67c-4.56-1.72-5.06-7.08-.81-8.71h0l.11.11Z"/>
        </g>
        <g>
          <path class="cls-4" d="M124.27,151.25c-.42-.56-1.27-.81-1.41-1.49-.09-.41.05-.81-.08-1.22-.17-.5-1.71-2.36-2.2-3.09-6.01-9.07-3.87-6.69-11.91-13.83-3.46-3.07-7.69-15.65-12.03-24.93-.78-1.82-1.89-4.51-.28-6.19,1.43-1.49,8.75-4.55,10.98-5.36,3.89-1.4,5.33-.13,6.85,3.06,9.8,20.66,10.47,21.63,10.99,25.41.47,3.41-.5,6.9.39,10.26,1.75,6.63,2.8,11.89,3.4,12.3.59-.16.82.52.89,1.13.25,2.41.43,1.65-.77,2.17-1.56.67-3.25,1.09-4.82,1.77Z"/>
          <path class="cls-10" d="M101.4,98.28c8.67-4.05,10.13-4.32,12.26.18,9.79,20.65,10.43,21.56,10.94,25.25.46,3.34-.51,6.85.41,10.33,2.12,8.05,2.78,12.04,3.63,12.63.64.44.44-.71.76,1.74.06.49.15.25-.55.55-1.39.6-2.79,1.57-4.25,2.16-.42-.38-1.12-1.17-1.18-1.47-.06-.31.08-.75-.1-1.28-.21-.62-1.79-2.5-2.27-3.23-5.29-7.98-4.31-7.16-9.58-11.8-3.72-3.28-4.08-2.69-10.24-17.47-6.08-14.58-7.65-13.93.17-17.58Z"/>
          <path class="cls-3" d="M129.89,149.34c-.48-.05-.94.12-1.39.29-1.36.54-2.67,1.19-3.93,1.95"/>
          <path class="cls-6" d="M117.97,141.48c.67,1.02,1.5,2.31,2.6,3.98.31.47,1.05,1.39,1.59,2.13,1.84-1.35,3.97-2.3,6.21-2.75-.45-1.46-1.04-3.98-1.81-7.07-3.15.35-6.19,1.66-8.6,3.71Z"/>
          <path class="cls-3" d="M121.97,128.52c-3.08-.26-6.1,1.18-8.4,3.24"/>
          <path class="cls-1" d="M118.19,119.49c-1.87,1.11-3.82,2.09-5.8,2.99-1.12.51-3.52,1.85-4.75,1.07-.92-.59-1.17-1.98-1.61-2.91-4.51-9.46-5.27-10.6-4.53-11.81.75-1.25,8.34-4.28,9.71-4.79,1.42-.53,2.18-.39,2.95,1.5,5.2,12.75,6.68,12.39,4.04,13.95Z"/>
          <path class="cls-5" d="M105.61,107.02c2.48-1.16,5.2-2.22,5.79-2.44,1.13-.42,1.55-.43,2.21,1.18,1.71,4.2,3.04,7.01,3.92,8.87.84,1.77,1.34,2.85,1.36,3.39.01.27-.07.42-1,.97-1.53.9-3.14,1.75-4.94,2.59-.27.12-.53.25-.8.37-.05.02-.1.04-.15.07-.11.05-.22.1-.34.16-.14.06-.28.13-.43.21-.62.29-2.5,1.17-3.27.67-.5-.32-.78-1.06-1.04-1.78-.11-.3-.23-.61-.36-.89-.62-1.29-1.16-2.43-1.65-3.44-2.9-6.04-3.37-7.07-2.91-7.83.06-.1.5-.64,3.62-2.1Z"/>
          <path class="cls-3" d="M110.95,95.67c-1.19-.06-2.1.98-2.93,1.83-1.83,1.89-4.25,3.29-6.86,3.56-.8.08-1.62.06-2.4.26-.78.19-1.56.66-1.86,1.4"/>
          <path class="cls-3" d="M127.63,147.16c-1.12.08-2.22.54-3.06,1.29"/>
          <path class="cls-3" d="M118.16,139.93c-1.12-2.35-2.84-4.4-4.95-5.93"/>
          <path class="cls-3" d="M110.99,131.55c-1.79-1.2-2.96-3.12-3.96-5.03-1.21-2.31-2.28-4.69-3.18-7.14"/>
          <path class="cls-3" d="M102.6,116.84c-1.76-3.42-3.25-6.99-4.46-10.64"/>
          <path class="cls-3" d="M103.8,103.07c-1.42,1.12-2.38,2.82-2.61,4.62"/>
          <path class="cls-3" d="M101.64,102.98c-.64.77-1.18,1.64-1.57,2.56"/>
          <path class="cls-3" d="M121.92,141.93c-.31,1.04-.43,2.14-.34,3.22"/>
          <path class="cls-3" d="M120.91,141.18c-.22.53-.35,1.1-.4,1.68"/>
          <path class="cls-4" d="M110.04,117.57c.73-.06.88-.25.78.26-.7.27-1.77.24-2.07,1.73-.02.11.03.8,0,.82.85-.78,2.23-.81,2.49-2.12.26.86.4,1.4.71,1.36.25-.03.52-.49.27-1.05-.23-.52-.52-.64-.67-1.21,5.42-1.95,3.95-8.82-1.17-8.34-7.62.72-5.66,9-.35,8.55Z"/>
          <path class="cls-3" d="M107.4,110.97c-.57.19-.99.69-1.22,1.24-.23.55-.29,1.16-.34,1.75"/>
          <path class="cls-3" d="M106.75,115.69c-.29-.26-.5-.61-.59-1"/>
          <path class="cls-3" d="M104.56,109.22c-.71.51-1.15,1.36-1.16,2.24"/>
          <path class="cls-3" d="M103.38,109.23c-.48.42-.79,1.03-.85,1.66"/>
        </g>
      </g>
      <g>
        <path class="cls-7" d="M23.45,100.25h0c.78,1.34,1.12,3.01.67,4.69l-7.81,31.91-6.36-3.12,5.13-31.13c.78-4.8,6.02-6.25,8.48-2.34h-.11Z"/>
        <path class="cls-7" d="M75.48,108.48h0c3.46,0,5.91-4.13,4.91-8.26l-7.25-26.22c-1-4.24-4.46-6.47-7.81-5.35h0c-3.79,1.34-5.69,6.81-3.9,11.38l10.04,24.32c.78,2.12,2.12,4.24,4.02,4.24h0v-.11Z"/>
        <path class="cls-17" d="M70.46,69.32c3.35,3.01,7.7,9.37,10.93,22.76l-13.16,6.47-1.9-5.24c-4.24-7.92-7.59-15.28-6.81-20.42.56-4.91,7.25-6.92,11.04-3.57h-.11Z"/>
        <path class="cls-7" d="M13.87,146.51l2.45-10.49-6.36-3.12v.45c-7.92,3.9-9.37,10.26-9.37,10.26-1.45,6.25,0,7.03,1.56,6.69,1-.22,1.9-1,2.45-2.01,2.45-4.46,7.81-8.37,7.81-8.37-.78,9.15,1.56,6.58,1.56,6.58h-.11Z"/>
      </g>
      <g>
        <path class="cls-7" d="M66.67,203.86c-1.34,19.08-4.02,38.82-4.57,38.82l-5.91-.45-1.9-39.27-1.45-29.45v-1.23c0-.45,0-.78.22-1.23.78-3.12,3.68-5.47,7.03-5.13,3.79.33,6.47,3.46,6.36,7.25,1.34,5.91,1,18.18.22,30.68h0Z"/>
        <path class="cls-17" d="M64.66,225.95c-1.12,9.71-2.12,16.73-2.57,16.73l-5.91-.45-.78-16.29h9.26Z"/>
        <path class="cls-15" d="M54.4,248.6c0,1.23.67,2.12,1.67,2.79.56.45,23.2,2.45,23.76,2.23,5.13-2.45-17.96-11.38-17.96-11.38l-6.25.22s-1.34,5.02-1.12,6.36h0v-.22h-.11Z"/>
        <g>
          <path class="cls-7" d="M67.45,134.81l-.78,27.78-.22,8.37c0,3.9-3.12,7.03-7.03,7.25-4.13.22-6.69-2.9-7.03-7.03l-.89-8.59-2.79-26.22v-.78c0-4.91,3.79-9.04,8.7-9.37,5.24-.45,9.82,3.46,10.15,8.7h0l-.11-.11Z"/>
          <path class="cls-16" d="M67.45,134.81l.45,26.77c0,.56-.45,1-1,1h-17.07c-.56,0-1-.45-1-1l-.22-25.21v-.78c0-4.91,3.79-9.04,8.7-9.37,5.24-.45,9.82,3.46,10.15,8.7h0v-.11h0Z"/>
        </g>
      </g>
      <g>
        <path class="cls-7" d="M27.29,203.86c1.34,19.08,4.02,38.82,4.57,38.82l5.91-.45,1.9-39.27,1.45-29.45v-1.23c0-.45,0-.78-.22-1.23-.78-3.12-3.68-5.47-7.03-5.13-3.79.33-6.58,3.46-6.36,7.25-1.34,5.91-1,18.18-.22,30.68h0Z"/>
        <path class="cls-17" d="M38.44,225.95l-.78,16.29-5.91.45c-.45,0-1.45-7.03-2.57-16.73h9.26Z"/>
        <path class="cls-15" d="M39.23,248.6c0,1.23-.67,2.12-1.67,2.79-.56.45-23.2,2.45-23.76,2.23-5.13-2.45,17.96-11.38,17.96-11.38l6.25.22s1.34,5.02,1.12,6.36h0v-.22h.11Z"/>
        <g>
          <path class="cls-7" d="M45.14,135.59v.67l-2.45,26.33-.78,8.48c-.33,4.13-3.01,7.25-7.03,7.14-3.9-.22-6.92-3.24-7.14-7.14l-.33-8.37-1.12-27.67c.45-5.24,4.91-9.04,10.04-8.81,5.02.33,8.81,4.46,8.81,9.37h0Z"/>
          <path class="cls-16" d="M45.14,135.59v.67l-.78,25.44c0,.56-.45.89-.89.89h-16.62c-.56,0-.89-.45-.89-.89l.45-26.77c.45-5.24,4.91-9.04,10.04-8.81,5.02.33,8.81,4.46,8.81,9.37h-.11v.11Z"/>
        </g>
      </g>
      <path class="cls-17" d="M68.9,68.2l-1.12,6.58-4.24,25.55c-1,4.02-1.23,8.03-.56,12.05H30.97c1.56-4.57,1.9-9.37,1.12-14.17l-4.02-23.09-1.23-6.81,1.23-.67,16.06-10.15h9.26l14.5,10.04,1.12.67h-.11Z"/>
      <path class="cls-16" d="M67.34,137.6l-17.85,7.7h-5.35l-17.85-7.47c-.56-5.13.33-12.83,1.67-17.85.45-1.45.89-2.9,1.45-4.13.56-1.12,1-2.23,1.34-3.46h32.02c.33,1.9.67,3.79,1.34,5.47.67,2.12,1.45,4.8,1.9,7.92.56,3.01,1.67,7.7,1.12,11.71h.22v.11Z"/>
      <path class="cls-16" d="M56.96,59.95h0c-2.45,8.14-13.83,8.48-16.85.56v-.33l4.24-2.68h9.26l3.57,2.45s-.22,0-.22,0Z"/>
      <g id="german-boy-smiling">
        <path class="cls-8" d="M44.03,60.16h0c1.94,2.56,6.86,2.49,8.59,0h0c.41-.53.51-1.06.51-1.66v-9.87h-9.82v9.8c0,.6.2,1.21.61,1.81h.1s0,0,0,0h0v-.08Z"/>
        <path class="cls-13" d="M70.23,33.08c-.92,1.43-2.25,2.46-3.58,2.66h-1.13c-.41,3.79-1.74,7.26-3.68,10.13-3.68,5.53-9.21,8.9-13.3,8.7h-.92c-4.4,0-9.41-3.07-12.89-8.08-1.94-2.76-3.38-6.24-3.99-10.03h-.31c-1.33-.1-2.86-1.13-3.79-2.56-.2-.2-.31-.51-.41-.72-.2-.41-.31-.72-.41-1.02h0c-.31-1.43,0-2.66,1.13-3.17h0c1.02-.41,2.25-.1,3.38.72.82-11.56,8.08-21.79,16.98-22,2.76,0,5.32.72,7.67,2.15,5.42,3.38,9.41,11.46,10.33,19.65.51-.51,1.13-.92,1.74-1.23s1.64-.41,2.35-.1c1.64.61,1.84,2.86.61,4.91h.2Z"/>
        <g>
          <path class="cls-14" d="M35.95,26.94c.2,0,.41,0,.51-.31,1.74-3.27,4.71-1.94,4.81-1.84.31,0,.61,0,.82-.31,0-.31,0-.61-.31-.82-1.43-.61-4.6-1.02-6.34,2.35,0,.31,0,.61.2.82h.31v.1Z"/>
          <path class="cls-14" d="M53.75,24.28s.31.2.51,0c2.86-1.13,4.09,1.33,4.09,1.43,0,.2.41.31.61.2.2,0,.31-.41.2-.61-.51-1.23-2.35-3.17-5.32-1.94-.2,0-.41.41-.31.61v.2h.2v.1h0Z"/>
          <path class="cls-14" d="M39.53,29.29c0,1.13.72,2.15,1.53,2.15s1.64-1.02,1.64-2.15-.72-2.15-1.53-2.15-1.64,1.02-1.64,2.15Z"/>
          <path class="cls-14" d="M53.75,29.29c0,1.13.72,2.15,1.53,2.15s1.64-1.02,1.64-2.15-.72-2.15-1.53-2.15-1.64,1.02-1.64,2.15Z"/>
          <path class="cls-2" d="M43.32,43.62c.2.2,1.53,3.17,5.12,3.07,3.48,0,4.91-2.76,5.12-3.07"/>
          <path class="cls-11" d="M50.99,37.48c0,1.43-1.13,2.56-2.56,2.56s-2.56-1.13-2.56-2.56,1.13,1.43,2.56,1.43,2.56-2.86,2.56-1.43Z"/>
          <path class="cls-9" d="M59.99,32.36c2.05,0,3.68,1.53,3.58,3.27s-1.94,2.97-3.99,2.86-3.68-1.53-3.58-3.27,1.94-2.97,3.99-2.86Z"/>
          <path class="cls-9" d="M36.67,32.36c2.05,0,3.68,1.53,3.58,3.27s-1.94,2.97-3.99,2.86-3.68-1.53-3.58-3.27,1.94-2.97,3.99-2.86Z"/>
        </g>
        <path class="cls-12" d="M68.28,15.07c-1.64-5.53-4.91-10.33-10.33-12.99C53.55-.07,38.92-3.55,30.83,9.65c-3.27,5.32-3.99,12.07-3.99,18.21s.92,10.54,4.2,14.73c.51.61,1.13,1.23,1.74,1.74,0,0-.72-3.68-1.23-5.22-1.64-5.42-1.43-11.77.31-17.19.31-.82.61-1.53.92-2.35.1-.41,1.13-2.25,1.02-2.56,1.74,4.2,7.47,5.83,11.56,6.55-.72-1.13-1.94-1.74-2.56-2.97-.72-1.23-1.13-2.56-1.53-3.79,4.91,1.84,10.03,5.32,15.65,5.01-1.23-1.23-4.5-3.68-4.4-5.73,1.23,1.74,3.38,2.25,5.32,2.97,1.23.41,2.56.72,3.79,1.13,1.02.31,1.02.2,1.33,1.13,1.84,6.14,2.66,13.51,1.23,19.85.31-1.53,2.86-4.5,3.38-5.93.61-1.74,1.13-3.48,1.53-5.32.72-3.58.72-7.37.2-10.95-.2-1.33-.51-2.66-.82-3.89h-.2Z"/>
      </g>
    </g>
  </g>
</svg>