<?xml version="1.0" encoding="UTF-8"?>
<svg id="Ebene_2" data-name="Ebene 2" xmlns="http://www.w3.org/2000/svg" xmlns:xlink="http://www.w3.org/1999/xlink" viewBox="0 0 90.5 169.6">
  <defs>
    <style>
      .cls-1 {
        fill: #d9a8a7;
      }

      .cls-2 {
        fill: #103d54;
      }

      .cls-3 {
        fill: #2e89ce;
      }

      .cls-4 {
        fill: #fff;
      }

      .cls-5 {
        fill: none;
        stroke: #630;
        stroke-linecap: round;
        stroke-miterlimit: 10;
      }

      .cls-6 {
        fill: #d9a2a0;
      }

      .cls-7 {
        fill: #d7d6d8;
      }

      .cls-8, .cls-9, .cls-10, .cls-11 {
        isolation: isolate;
      }

      .cls-8, .cls-12 {
        fill: #88a5d8;
      }

      .cls-8, .cls-10 {
        mix-blend-mode: multiply;
      }

      .cls-13 {
        fill: #226baf;
      }

      .cls-14 {
        fill: #ca8a8c;
      }

      .cls-15, .cls-11 {
        fill: #603813;
      }

      .cls-16 {
        fill: #543a35;
      }

      .cls-17 {
        fill: #752c46;
      }

      .cls-10 {
        fill: url(#Unbenannter_Verlauf);
      }

      .cls-11 {
        opacity: .5;
      }
    </style>
    <linearGradient id="Unbenannter_Verlauf" data-name="Unbenannter Verlauf" x1="44.7" y1="171.4" x2="44.7" y2="148.5" gradientTransform="translate(0 -148)" gradientUnits="userSpaceOnUse">
      <stop offset="0" stop-color="#88a5d8"/>
      <stop offset="1" stop-color="#88a5d8" stop-opacity="0"/>
    </linearGradient>
  </defs>
  <g id="Ebene_1-2" data-name="Ebene 1">
    <g class="cls-9">
      <g id="Layer_1" data-name="Layer 1">
        <g id="german-woman-doctor-nomask-cut">
          <g>
            <path class="cls-1" d="M13.8,134.9l-12.3-1.3,1.8-29.8c0-1.9,3.7-3.2,8-3.1h0c4.4.2,8.1,1.9,8,3.7l-5.6,30.4h0l.1.1Z"/>
            <path class="cls-1" d="M11.1,168.3H3.9l-2.4-35.7c0-2.2,2.8-4,6.2-4.1h0c3.5,0,6.5,1.7,6.5,3.9l-3.1,36h0v-.1Z"/>
          </g>
          <g>
            <path class="cls-1" d="M78.2,135.3l12.3-1.3-1.8-29.8c0-1.9-3.7-3.2-8-3.1h0c-4.4.2-8.1,1.9-8,3.7l5.6,30.4h0l-.1.1Z"/>
            <path class="cls-1" d="M80.9,167.2h7.2l2.4-34.4c0-2.2-2.8-3.9-6.2-4h0c-3.5,0-6.5,1.7-6.5,3.7l3.1,34.6h0v.1Z"/>
          </g>
          <path class="cls-16" d="M76.5,48.2c-3.1-5.7-7.8-10.1-11-15.6-1.4-2.4-1.1-22.1-15.8-24.7-3.1-.6-6.3-.3-9.4.2-2.9.6-5.9.9-8.4,2.6-2.4,1.6-4.3,3.9-5.5,6.3-1.6,3.3-1.8,7-3.2,10.4-3.8,9-11.2,16.2-14.3,25.5-.2.7-.5,1.5-.7,2.2-1,4.1.2,8.6,2.3,12.2,1.1-2.6.7-5.5,2.2-8.3.8,6.9,1.8,13.5,6.2,19.1,4.2,5.4,9.5,8.2,15.3,11.5-.5-1-.8-1.9-.7-3.1,2.3,2.2,6.8,4.4,9.8,3.6,4.6-1.4,8.6-4.2,12.6-6.5,0,1.1-1.6,2.9-2.3,3.8,5.4-2.7,12-7.2,14.9-12.7,2.8-5.2,3.4-11.5,4-17.2,1.9,2.5,2.3,6.1,3.3,8.9,2.9-5.3,3.4-13.3.6-18.8v.2h0v.4h.1Z"/>
          <g>
            <path class="cls-13" d="M72.5,115.9s13-2.4,17.8-7.7c-1.7-6.3-14.4-35.6-24.2-39-1.8-.6-3.5-1.2-5.1-1.7-5.1,6.3-10.8,12-17.1,16.9-.5.3-1,.7-1.5.6-.4,0-.8-.5-1.1-.8-4.6-5.4-9.2-10.7-13.8-16.1-4.5,1.9-9.1,4.5-11.1,7.5-4.6,6.9-14.5,24.6-16.4,34.2,2.5,4.9,10.5,7.9,16.8,7.8.8-2.3,1.3-4.5,2.3-7.8-.5,13.6-3.7,57.4-3.7,57.4,0,0,27.5,5.4,59.2,0l-3.9-56.7,1.8,5.4h0Z"/>
            <path class="cls-2" d="M71.2,112.1v-.2l.5-.2v.2c-.3,0-.5.2-.5.2h0ZM72.3,111.8v-.2s.3,0,.5-.2v.2s-.3,0-.5.2ZM73.3,111.4v-.2s.3,0,.5-.2v.2s-.3,0-.5.2h0ZM74.3,111.1v-.2s.3,0,.5-.2v.2s-.3,0-.5.2ZM75.3,110.7v-.2s.3,0,.5-.2v.2s-.3,0-.5.2ZM76.3,110.3v-.2s.3,0,.5-.2v.2s-.3,0-.5.2ZM77.3,109.9v-.2s.3,0,.4-.2v.2s-.3,0-.4.2ZM78.3,109.5v-.2s.3,0,.4-.2v.2s-.3.2-.4.2ZM79.3,109.1v-.2s.3-.2.4-.2v.2s-.3.2-.4.2ZM80.3,108.7v-.2s.3-.2.4-.2v.2s-.3.2-.4.2ZM81.3,108.2v-.2s.3-.2.4-.2v.2s-.3.2-.4.2ZM82.3,107.7v-.2s.3-.2.4-.2v.2s-.2.2-.4.2ZM83.2,107.2v-.2s.2-.2.4-.3v.2s-.2.2-.4.3ZM84.2,106.7v-.2s.2-.2.4-.3v.2s-.2.2-.4.3h0ZM85.1,106.2v-.2s.2-.2.4-.3v.2s-.2.2-.4.3h0ZM86.1,105.6v-.2s.2-.2.4-.3v.2s-.2.2-.4.3h0ZM86.9,104.9v-.2l.3-.3v.2l-.3.3h0ZM87.8,104.3h0c.2-.2.3-.4.4-.5h0c0,.2-.3.4-.4.5h0Z"/>
            <path class="cls-2" d="M16.8,113.2h-.4v-.2h.5v.2h-.2.1ZM17.5,113.2v-.2h.5v.2h-.5ZM15.9,113.2h-.5v-.2h.5v.2h0ZM14.8,113.1h-.5v-.2h.6v.2h-.1ZM13.8,112.9h-.5v-.2h.5v.2h0ZM12.7,112.6c-.2,0-.3,0-.5-.2v-.2c.2,0,.4,0,.6.2v.2h-.1ZM11.7,112.3c-.2,0-.3,0-.5-.2v-.2c.2,0,.4,0,.5.2v.2h0ZM10.7,111.9c-.2,0-.3,0-.5-.2v-.2c.2,0,.4.2.6.2v.2h-.1ZM9.7,111.5c-.2,0-.3-.2-.5-.2v-.2c.2,0,.4.2.5.2v.2ZM8.7,111c-.2,0-.3-.2-.5-.3v-.2c.2,0,.4.2.5.3v.2ZM7.8,110.5c-.2,0-.3-.2-.5-.3v-.2c.2,0,.4.2.5.3v.2h0ZM6.9,109.9c-.2,0-.3-.2-.5-.3v-.2c.2,0,.4.2.6.3v.2h-.1ZM5.9,109.3c-.2,0-.3-.2-.5-.3v-.2c.2,0,.4.2.5.3v.2ZM5,108.7c-.2,0-.3-.2-.4-.3v-.2c.2,0,.4.2.5.3v.2h-.1ZM4.2,108.1c-.2,0-.3-.2-.4-.3v-.2c.2,0,.4.2.5.3v.2h-.1ZM3.3,107.4c-.2,0-.3-.2-.4-.3h0s.3,0,.4.2h0v.1ZM2.4,106.7c-.2,0-.3-.3-.4-.4h0s.3,0,.4.2h0v.2ZM1.6,105.9c-.3-.2-.4-.4-.4-.4h0l.4.3h0v.1Z"/>
            <path class="cls-17" d="M44.9,164.9h-.5v-.2h.5v.2ZM45.5,164.9v-.2h.5v.2h-.5ZM43.9,164.8h-.5v-.2h.5v.2ZM46.5,164.8v-.2h.5v.2h-.5ZM42.8,164.8h-.5v-.2h.5v.2ZM47.6,164.8v-.2h.5v.2h-.5ZM41.7,164.8h-.5v-.2h.5v.2ZM48.6,164.8v-.2h.5v.2h-.5ZM40.7,164.8h-.5v-.2h.5v.2ZM49.7,164.8v-.2h.5v.2h-.5ZM39.6,164.8h-.5v-.2h.5v.2ZM50.8,164.8v-.2h.5v.2h-.5ZM38.6,164.7h-.5v-.2h.5v.2h0ZM51.9,164.7v-.2h.5-.5v.2ZM37.5,164.7h-.5v-.2h.5v.2h0ZM52.9,164.7v-.2h.5-.5v.2ZM36.4,164.7h-.5v-.2h.5v.2h0ZM54,164.6v-.2h.5-.5v.2ZM35.4,164.6h-.5v-.2h.5v.2h0ZM55,164.6v-.2h.5-.5v.2ZM34.3,164.5h-.5v-.2h.5v.2h0ZM56.1,164.5v-.2h.5v.2h-.5ZM33.2,164.5h-.5v-.2h.5v.2h0ZM57.2,164.4v-.2h.5-.5v.2ZM32.2,164.4h-.5v-.2h.5v.2h0ZM58.2,164.4v-.2h.5-.5v.2ZM31.1,164.3h-.5v-.2h.5v.2h0ZM59.3,164.3v-.2h.5-.5v.2ZM30,164.2h-.5v-.2h.5v.2h0ZM60.4,164.2v-.2h.5v.2h-.5ZM29,164.1h-.5v-.2h.5v.2h0ZM61.4,164.1v-.2h.5v.2h-.5ZM27.9,164.1h-.5v-.2h.5v.2h0ZM62.5,164v-.2h.5v.2h-.5ZM26.9,164h-.5v-.2h.5v.2h0ZM63.5,163.9v-.2h.5-.5v.2ZM25.8,163.9h-.5v-.2h.5v.2h0ZM64.6,163.8v-.2h.5-.5v.2ZM24.7,163.7h-.5v-.2h.5v.2h0ZM65.6,163.7v-.2h.5-.5v.2ZM23.7,163.6h-.5v-.2h.5v.2h0ZM66.7,163.5v-.2h.5-.5v.2ZM22.6,163.5h-.5v-.2h.5v.2h0ZM67.7,163.4v-.2h.5v.2h-.5ZM21.6,163.3h-.5v-.2h.6v.2h-.1ZM68.8,163.3v-.2h.5v.2h-.5ZM20.5,163.2h-.5v-.2h.6v.2h-.1ZM69.9,163.1v-.2h.5v.2h-.5ZM19.5,163.1h-.5v-.2h.6v.2h-.1ZM70.9,163v-.2h.5v.2h-.5ZM18.4,162.9h-.5v-.2h.6v.2h-.1ZM72,162.8v-.2h.5v.2h-.5ZM17.4,162.7h-.5v-.2h.6v.2h-.1ZM73,162.7v-.2h.5v.2h-.5ZM16.3,162.5h-.5v-.2h.6v.2h-.1ZM74.1,162.5v-.2h.2v.2h-.2Z"/>
          </g>
          <path class="cls-3" d="M57.4,66.4l-13.8,15.8-12.9-15.3c-1.6.6-3.3,1.3-5,2.1l18.2,19.6,18.2-20.7c-1.8-.6-3.4-1.1-4.8-1.5h.1Z"/>
          <g>
            <path class="cls-4" d="M49.6,115.7c0-.3-.3-.5-.6-.6s-.7,0-.9.3c-.2.2-.4.6-.4.9,0,.7,0,1.3.3,1.9v.2c0,2.9-1.6,4.1-3.5,4.2,1.5-3.3.9-7,0-10.6-2.2-8.1-7-15.5-14.2-19.3,0-.6-.9-.8-1.1,0-2.1,9.1.8,18.3,5.9,25.7,1.9,2.7,4.2,4.8,7.3,5.5-1.4,1.6-3.5,2.2-5.7.4h-.3c-.2-.4-.3-.8-.5-1.1s-.5-.7-.8-.9-.8-.2-1.1,0c0,0-.2.2-.3.4-.3.7-.2,1.7.5,2.1.2.2.5.2.8.3h1.2s0,.2.2.2c2.3,1.9,5.8,1.4,7.6-1.1l.2-.2c2.9,0,5.2-2.6,5.4-5.6v-.3c.2-.2.4-.5.5-.8v-1.7h0l-.5.2v-.1ZM37.6,119.8c-2.1-2.1-3.6-5.1-4.9-7.8-2.7-5.6-3.8-12-2.7-18.1,5.1,2.8,8.8,7.5,11.4,12.9,1.5,3.2,2.6,6.9,3,10.5.2,1.7-.3,3.7-1.2,5.3-2.1-.3-4.3-1.5-5.6-2.8h0Z"/>
            <g>
              <path class="cls-17" d="M37.2,62.4c-.3-.5-.6-1-.6-1.6-4.1,1.5-7.7,4.2-9.7,8.5-3.4,7.3-1.8,17.2,2,23.9.6,1,2,0,1.4-.9-3.7-6.4-4.9-15.2-2-22.2,1.7-4.1,5.1-6.5,8.9-7.8h0v.1Z"/>
              <path class="cls-17" d="M63.7,72.3c-1-3.7-3-6.6-5.5-8.7h-3.1c3.6,2.1,6.3,5.7,7.4,10.5,1.4,6.3,0,13.2-1.2,19.4-.2,1.1,1.4,1.6,1.6.5,1.5-7,2.8-14.6.9-21.7h-.1Z"/>
            </g>
            <ellipse class="cls-4" cx="60.4" cy="97.4" rx="5.8" ry="6.2"/>
            <ellipse class="cls-7" cx="60.4" cy="97.4" rx="2.5" ry="2.6"/>
          </g>
          <path class="cls-14" d="M43.6,81.9c.5,0,.9-.2,1.3-.5,5.2-4.4,10-9.4,14.3-15-5.8-2-9.7-3-9.7-3h-8.5s-4.9,1.3-9.8,3.5c3.8,4.8,7.7,9.5,11.5,14.3.3.3.5.7.9.7h0Z"/>
          <path class="cls-14" d="M40.3,64.1h0c1.9,2.2,7,2.1,8.8,0h0c.3-.4.6-.9.6-1.4v-8.2h-10.2v8.2c0,.5.2,1,.7,1.5h.1v-.1Z"/>
          <path class="cls-1" d="M64.7,38.4c-.8,1.5-2.2,2.5-3.4,2.8h-1.1c-.3,4-1.6,7.5-3.4,10.4-3.4,5.7-8.6,9.2-12.5,8.9h-.9c-3.2,0-6.7-1.8-9.6-5.1h0c-.9-.9-1.7-2-2.4-3.2-1.8-2.8-3.2-6.3-3.7-10.3h-.3c-1.2,0-2.7-1.1-3.6-2.6,0-.2-.2-.6-.3-.8,0-.3-.2-.8-.3-1.1h0c-.3-1.5,0-2.7,1.1-3.3h0c.9-.5,2.2,0,3.2.7.7-9.5,5-18.1,11-21.3,1.6-.9,3.2-1.4,5-1.4,2.6,0,5,.8,7.2,2.3,5.1,3.4,8.8,11.8,9.6,20.3.5-.6,1-1,1.6-1.2.8-.3,1.6-.5,2.3,0,1.5.7,1.7,2.9.6,5.1h0v-.2h-.2.1Z"/>
          <g>
            <path class="cls-15" d="M55.1,34.7c-.2,0-.3,0-.5-.2-1.7-3.1-4.4-1.8-4.5-1.8-.2,0-.6,0-.8-.2,0-.2,0-.6.2-.8,1.4-.6,4.3-1,6,2.3,0,.2,0,.6-.2.8h-.2v-.1Z"/>
            <path class="cls-15" d="M32.7,34.7c.2,0,.3,0,.5-.2,1.7-3.1,4.4-1.8,4.5-1.8.2,0,.6,0,.8-.2,0-.2,0-.6-.2-.8-1.4-.6-4.3-1-6,2.3,0,.2,0,.6.2.8h.2v-.1Z"/>
            <path class="cls-15" d="M36.1,36.9c0,1,.7,2,1.5,2s1.6-1,1.6-2-.7-2-1.5-2-1.6,1-1.6,2Z"/>
            <path class="cls-15" d="M49.6,36.9c0,1,.7,2,1.5,2s1.6-1,1.6-2-.7-2-1.5-2-1.6,1-1.6,2Z"/>
            <path class="cls-5" d="M39.7,50.4c.2.2,1.5,3.1,4.9,2.9,3.3,0,4.6-2.6,4.9-2.9"/>
            <path class="cls-11" d="M46.9,44.7c0,1.4-1,2.4-2.4,2.4s-2.4-1-2.4-2.4,1,1.4,2.4,1.4,2.4-2.7,2.4-1.4Z"/>
            <path class="cls-6" d="M55.4,39.8c1.9,0,3.5,1.5,3.4,3.1s-1.8,2.8-3.8,2.7-3.5-1.5-3.4-3.1,1.8-2.8,3.8-2.7Z"/>
            <path class="cls-6" d="M33.3,39.8c1.9,0,3.5,1.5,3.4,3.1s-1.8,2.8-3.8,2.7-3.5-1.5-3.4-3.1,1.8-2.8,3.8-2.7Z"/>
          </g>
          <path class="cls-16" d="M62.8,33.5c0,2.9-1.6,15.3-5.3,18.1,1.7-7.8,2.6-19.3-.5-23.3-1-1.4-4.2-3.9-4-5.8-4.6,6-14,7.5-15.8,7.7-2.3.6-5.4,1-7.1,1.6-.6,5.8.5,17,1,20.4-1.9-2.8-3.3-6.3-3.8-10.3,0,0-.5-3.1-.3-4.3-1.4.3-2.7.8-4.1.9h-.8c0-.3.2-.8.5-1.1h0c.2-.5.5-.8.7-1.1.2-.7.5-1.4.6-2.2v-.5c.3-1.7.3-3.3.5-5,.2-3.4.6-6.8,2.2-9.9,3.5-6.6,11.3-11.5,19.2-11.2,2.8.1,5.7,1,8,2.5,4.9,3.1,8.4,8.5,9,14v9.3h0l-.1.2h.1Z"/>
          <g>
            <path class="cls-12" d="M44.6,0c6.3,0,14.2,2.3,18.9,3.9,2.5.8,4.1,3.1,4.2,5.7,0,3.2,0,8.1-.4,13.8,0,.2-.2.4-.5.4-2.1-.4-11.6-1.9-22.2-1.9s-20.1,1.6-22.2,1.9c-.2,0-.5-.1-.5-.4-.4-5.6-.4-10.5-.4-13.8s1.7-4.9,4.2-5.7c4.7-1.6,12.7-3.9,18.9-3.9h0Z"/>
            <path class="cls-10" d="M44.6,21.4c10.7,0,20.4,1.6,22.3,1.9.4-5.6.4-10.6.4-13.7s-1.6-4.5-3.8-5.3c-4.3-1.5-12.5-3.9-18.8-3.9s-14.5,2.5-18.8,3.9c-2.3.8-3.8,2.9-3.8,5.3s0,8,.4,13.7c1.9-.3,11.6-1.9,22.3-1.9h-.2Z"/>
            <path class="cls-8" d="M44.6,20.6c-15.2,0-21-2.7-23-4,0,2.1.2,4.4.3,6.9,0,.2.2.4.5.4,2.1-.4,11.6-1.9,22.2-1.9s20.1,1.6,22.2,1.9c.2,0,.5-.1.5-.4.2-2.5.3-4.8.3-6.9-2,1.4-7.8,4-23,4h0Z"/>
          </g>
        </g>
      </g>
    </g>
  </g>
</svg>