<?xml version="1.0" encoding="UTF-8"?>
<svg id="Ebene_2" data-name="Ebene 2" xmlns="http://www.w3.org/2000/svg" viewBox="0 0 86.14 227.35">
  <defs>
    <style>
      .cls-1 {
        fill: #d9b6b6;
      }

      .cls-2 {
        fill: #fff;
      }

      .cls-3 {
        fill: #d9a2a0;
      }

      .cls-4 {
        fill: #d38a17;
      }

      .cls-5 {
        fill: #d9baba;
      }

      .cls-6, .cls-7 {
        fill: #603813;
      }

      .cls-8 {
        fill: #273758;
      }

      .cls-9 {
        fill: #783640;
      }

      .cls-10 {
        fill: #466e9f;
      }

      .cls-11 {
        fill: #c69696;
      }

      .cls-7 {
        isolation: isolate;
        opacity: .5;
      }

      .cls-12 {
        fill: #e6e6e6;
      }
    </style>
  </defs>
  <g id="Layer_1" data-name="Layer 1">
    <g id="german-boy-laughing">
      <g>
        <path class="cls-1" d="M18.81,97.24h0c-3.1,0-5.3-3.7-4.4-7.4l6.5-23.5c.9-3.8,4-5.8,7-4.8h0c3.4,1.2,5.1,6.1,3.5,10.2l-9,21.8c-.7,1.9-1.9,3.8-3.6,3.8h0v-.1Z"/>
        <path class="cls-12" d="M23.21,62.14c-3,2.7-6.9,8.4-9.8,20.4l11.8,5.8,1.7-4.7c3.8-7.1,6.8-13.7,6.1-18.3-.5-4.4-6.5-6.2-9.9-3.2h.1Z"/>
        <g>
          <path class="cls-1" d="M21.19,89.94h0c.71,1.2.98,2.77.71,4.14l-7.19,28.62-5.67-2.89,4.68-27.88c.79-4.29,5.44-5.59,7.55-2.1h0l-.08.12Z"/>
          <path class="cls-1" d="M12.46,131.6l2.25-9.41-5.67-2.89.07.39c-7.22,3.46-8.58,9.17-8.58,9.17-1.28,5.59-.04,6.3,1.34,6.06s1.67-.89,2.23-1.8c2.25-4.04,7.04-7.49,7.04-7.49-.82,8.26,1.3,5.86,1.3,5.86h0l.02.1Z"/>
        </g>
      </g>
      <g>
        <path class="cls-1" d="M65.21,89.74h0c-.7,1.2-1,2.7-.6,4.2l7,28.6,5.7-2.8-4.6-27.9c-.7-4.3-5.4-5.6-7.6-2.1h.1Z"/>
        <path class="cls-1" d="M68.11,97.24h0c3.1,0,5.3-3.7,4.4-7.4l-6.5-23.5c-.9-3.8-4-5.8-7-4.8h0c-3.4,1.2-5.1,6.1-3.5,10.2l9,21.8c.7,1.9,1.9,3.8,3.6,3.8h0v-.1Z"/>
        <path class="cls-12" d="M63.61,62.14c3,2.7,6.9,8.4,9.8,20.4l-11.8,5.8-1.7-4.7c-3.8-7.1-6.8-13.7-6.1-18.3.5-4.4,6.5-6.2,9.9-3.2h-.1Z"/>
        <path class="cls-1" d="M73.71,131.44l-2.2-9.4,5.7-2.8v.4c7.1,3.5,8.4,9.2,8.4,9.2,1.3,5.6,0,6.3-1.4,6-.9-.2-1.7-.9-2.2-1.8-2.2-4-7-7.5-7-7.5.7,8.2-1.4,5.9-1.4,5.9h.1Z"/>
      </g>
      <g>
        <path class="cls-1" d="M60.21,182.74c-1.2,17.1-3.6,34.8-4.1,34.8l-5.3-.4-1.7-35.2-1.3-26.4v-1.1c0-.4,0-.7.2-1.1.7-2.8,3.3-4.9,6.3-4.6,3.4.3,5.8,3.1,5.7,6.5,1.2,5.3.9,16.3.2,27.5h0Z"/>
        <path class="cls-12" d="M58.41,202.54c-1,8.7-1.9,15-2.3,15l-5.3-.4-.7-14.6h8.3Z"/>
        <path class="cls-8" d="M49.21,222.84c0,1.1.6,1.9,1.5,2.5.5.4,20.8,2.2,21.3,2,4.6-2.2-16.1-10.2-16.1-10.2l-5.6.2s-1.2,4.5-1,5.7h0v-.2h-.1Z"/>
        <g>
          <path class="cls-1" d="M60.91,120.84l-.7,24.9-.2,7.5c0,3.5-2.8,6.3-6.3,6.5-3.7.2-6-2.6-6.3-6.3l-.8-7.7-2.5-23.5v-.7c0-4.4,3.4-8.1,7.8-8.4,4.7-.4,8.8,3.1,9.1,7.8h0l-.1-.1Z"/>
          <path class="cls-10" d="M60.91,120.84l.4,24c0,.5-.4.9-.9.9h-15.3c-.5,0-.9-.4-.9-.9l-.2-22.6v-.7c0-4.4,3.4-8.1,7.8-8.4,4.7-.4,8.8,3.1,9.1,7.8h0v-.1h0Z"/>
        </g>
      </g>
      <g>
        <path class="cls-1" d="M24.91,182.74c1.2,17.1,3.6,34.8,4.1,34.8l5.3-.4,1.7-35.2,1.3-26.4v-1.1c0-.4,0-.7-.2-1.1-.7-2.8-3.3-4.9-6.3-4.6-3.4.3-5.9,3.1-5.7,6.5-1.2,5.3-.9,16.3-.2,27.5h0Z"/>
        <path class="cls-12" d="M34.91,202.54l-.7,14.6-5.3.4c-.4,0-1.3-6.3-2.3-15h8.3Z"/>
        <path class="cls-8" d="M35.61,222.84c0,1.1-.6,1.9-1.5,2.5-.5.4-20.8,2.2-21.3,2-4.6-2.2,16.1-10.2,16.1-10.2l5.6.2s1.2,4.5,1,5.7h0v-.2h.1Z"/>
        <g>
          <path class="cls-1" d="M40.91,121.54v.6l-2.2,23.6-.7,7.6c-.3,3.7-2.7,6.5-6.3,6.4-3.5-.2-6.2-2.9-6.4-6.4l-.3-7.5-1-24.8c.4-4.7,4.4-8.1,9-7.9,4.5.3,7.9,4,7.9,8.4h0Z"/>
          <path class="cls-10" d="M40.91,121.54v.6l-.7,22.8c0,.5-.4.8-.8.8h-14.9c-.5,0-.8-.4-.8-.8l.4-24c.4-4.7,4.4-8.1,9-7.9,4.5.3,7.9,4,7.9,8.4h-.1v.1Z"/>
        </g>
      </g>
      <path class="cls-12" d="M62.21,61.14l-1,5.9-3.8,22.9c-.9,3.6-1.1,7.2-.5,10.8h-28.7c1.4-4.1,1.7-8.4,1-12.7l-3.6-20.7-1.1-6.1,1.1-.6,14.4-9.1h8.3l13,9,1,.6h-.1Z"/>
      <path class="cls-10" d="M60.81,123.34l-16,6.9h-4.8l-16-6.7c-.5-4.6.3-11.5,1.5-16,.4-1.3.8-2.6,1.3-3.7.5-1,.9-2,1.2-3.1h28.7c.3,1.7.6,3.4,1.2,4.9.6,1.9,1.3,4.3,1.7,7.1.5,2.7,1.5,6.9,1,10.5h.2v.1Z"/>
      <path class="cls-10" d="M51.51,53.74h0c-2.2,7.3-12.4,7.6-15.1.5v-.3l3.8-2.4h8.3l3.2,2.2s-.2,0-.2,0Z"/>
      <g>
        <path class="cls-11" d="M44.21,54.84h0c-2.3,0-4.1-1.8-4.1-4.1v-6.1h8.3v6.1c0,2.3-1.8,4.1-4.1,4.1h-.1Z"/>
        <path class="cls-5" d="M64.21,27.94c-.8,1.4-2.1,2.3-3.4,2.6h-1.1c-.4,3.6-1.7,6.9-3.5,9.5-3.5,5.2-8.7,8.3-12.5,8.1h-.9c-4.1,0-8.9-2.8-12.2-7.6-1.8-2.7-3.2-5.8-3.8-9.4h-.3c-1.3,0-2.7-1-3.6-2.4-.2-.3-.3-.5-.4-.7-.2-.4-.3-.6-.4-1h0c-.3-1.4,0-2.5,1.1-2.9h0c.9-.4,2.1,0,3.2.6.8-10.9,7.6-20.5,16-20.7,2.6,0,5,.7,7.2,2.1,2.1,1.3,3.9,3.3,5.5,5.8h0c2.2,3.6,3.8,8.1,4.2,12.7h0c.5-.5,1-.8,1.5-1,.7-.4,1.5-.4,2.2,0,1.5.6,1.7,2.7.5,4.7l.4-.3h.3v-.1Z"/>
        <g>
          <path class="cls-6" d="M32.61,22.54c.2,0,.4,0,.5-.3,1.5-2.9,4.2-1.7,4.3-1.6.3,0,.5,0,.7-.3,0-.3,0-.5-.3-.7-1.3-.5-4.1-.9-5.7,2.1,0,.3,0,.5.2.7h.3v.1Z"/>
          <path class="cls-6" d="M48.41,20.24s.3.2.5,0c2.5-1,3.6,1.2,3.6,1.3,0,.2.4.3.5.2.2,0,.3-.4.2-.5-.5-1.1-2.1-2.8-4.7-1.7-.2,0-.4.4-.3.5v.2h.2Z"/>
          <path class="cls-6" d="M35.71,24.64c0,1,.6,1.9,1.4,1.9s1.5-.9,1.5-1.9-.6-1.9-1.4-1.9-1.5.9-1.5,1.9Z"/>
          <path class="cls-6" d="M48.41,24.64c0,1,.6,1.9,1.4,1.9s1.5-.9,1.5-1.9-.6-1.9-1.4-1.9-1.5.9-1.5,1.9Z"/>
          <g>
            <path class="cls-8" d="M48.61,37.24s0,2.3-1.5,3.7c-.8.8-2,1.5-3.7,1.5,0,0-2.5.2-4.1-1.5-.7-.7-1.2-1.9-1.2-3.7h10.6-.1Z"/>
            <path class="cls-9" d="M47.01,40.94c-.8.8-2,1.5-3.7,1.5,0,0-2.5.2-4.1-1.5,1.5-.7,4.7-1.5,7.8,0h0Z"/>
            <polygon class="cls-2" points="47.41 37.24 46.81 38.54 39.41 38.54 38.81 37.24 47.41 37.24"/>
          </g>
          <path class="cls-7" d="M45.91,31.94c0,1.3-1,2.3-2.3,2.3s-2.3-1-2.3-2.3,1,1.3,2.3,1.3,2.3-2.5,2.3-1.3Z"/>
          <path class="cls-3" d="M54.01,27.34c1.8,0,3.3,1.4,3.2,2.9s-1.7,2.6-3.5,2.5-3.3-1.4-3.2-2.9,1.7-2.6,3.5-2.5Z"/>
          <path class="cls-3" d="M33.21,27.34c1.8,0,3.3,1.4,3.2,2.9s-1.7,2.6-3.5,2.5-3.3-1.4-3.2-2.9,1.7-2.6,3.5-2.5Z"/>
        </g>
        <path class="cls-4" d="M61.91,13.44c-1.5-4.9-4.4-9.2-9.2-11.6-3.9-1.9-17-5-24.2,6.8-2.9,4.8-3.6,10.8-3.6,16.3s.8,9.4,3.8,13.2c.5.5,1,1.1,1.5,1.5,0,0-.6-3.3-1.1-4.7-1.5-4.8-1.3-10.5.3-15.4.3-.7.5-1.4.8-2.1,0-.4,1-2,.9-2.3,1.5,3.8,6.7,5.2,10.3,5.8-.6-1-1.7-1.5-2.3-2.7-.6-1.1-1-2.3-1.4-3.4,4.4,1.7,9,4.8,14,4.5-1.1-1.1-4-3.3-3.9-5.1,1.1,1.5,3,2,4.8,2.7,1.1.4,2.3.6,3.4,1,.9.3.9.2,1.2,1,1.7,5.5,2.4,12.1,1.1,17.7.3-1.4,2.6-4,3-5.3.5-1.5,1-3.1,1.4-4.8.6-3.2.6-6.6.2-9.8-.2-1.2-.5-2.4-.7-3.5h-.2v.2h-.1Z"/>
      </g>
    </g>
  </g>
</svg>