<?xml version="1.0" encoding="UTF-8"?>
<svg id="Layer_2" data-name="Layer 2" xmlns="http://www.w3.org/2000/svg" viewBox="0 0 103.51 212.19">
  <defs>
    <style>
      .cls-1 {
        fill: #616261;
      }

      .cls-2, .cls-3 {
        fill: #603813;
      }

      .cls-4 {
        fill: #273758;
      }

      .cls-5 {
        fill: #d4afaf;
      }

      .cls-6 {
        fill: #e6e6e6;
      }

      .cls-7 {
        fill: #c69696;
      }

      .cls-8 {
        fill: #4d4d4f;
      }

      .cls-9 {
        fill: #d9a2a0;
      }

      .cls-10, .cls-3 {
        isolation: isolate;
        opacity: .5;
      }

      .cls-10, .cls-11 {
        fill: #d9baba;
      }

      .cls-12 {
        fill: #8b2b0e;
      }

      .cls-13 {
        fill: #7e725b;
      }

      .cls-14 {
        fill: #d4abab;
      }

      .cls-15 {
        fill: #3f6138;
      }

      .cls-16 {
        fill: #d9b6b6;
      }

      .cls-17 {
        fill: #9f9e9d;
      }

      .cls-18 {
        fill: none;
        stroke: #630;
        stroke-linecap: round;
        stroke-miterlimit: 10;
      }
    </style>
  </defs>
  <g id="Layer_1-2" data-name="Layer 1">
    <g id="german-girl-left-sitting">
      <g>
        <g>
          <path class="cls-1" d="M48.02,211.49c.7.8,2,.9,2.9.4l18.2-11.2c.9-.6,1.1-1.6.4-2.4h0c-.7-.8-2-.9-2.9-.4l-18.2,11.2c-.9.6-1.1,1.6-.4,2.4h0Z"/>
          <path class="cls-1" d="M48.02,211.49c.7.8,2,.9,2.9.4l18.2-11.2c.9-.6,1.1-1.6.4-2.4h0c-.7-.8-2-.9-2.9-.4l-18.2,11.2c-.9.6-1.1,1.6-.4,2.4h0Z"/>
          <path class="cls-1" d="M48.02,211.49c.7.8,2,.9,2.9.4l18.2-11.2c.9-.6,1.1-1.6.4-2.4h0c-.7-.8-2-.9-2.9-.4l-18.2,11.2c-.9.6-1.1,1.6-.4,2.4h0Z"/>
          <path class="cls-17" d="M49.32,211.89s.8-.2,1.5-.6l14.9-9.2c.8-.5,1.3-.9,1.2-1h0s-.8.2-1.5.6l-14.9,9.2c-.8.5-1.3.9-1.2,1h0Z"/>
          <path class="cls-1" d="M98.42,211.49c-.7.8-2,.9-2.9.4l-18.2-11.2c-.9-.6-1.1-1.6-.4-2.4h0c.7-.8,2-.9,2.9-.4l18.2,11.2c.9.6,1.1,1.6.4,2.4h0Z"/>
          <path class="cls-17" d="M97.92,210.09c.2.2-.3,0-1-.4l-14-8.7c-.7-.4-1.4-1-1.5-1.2h0c-.2-.2.3,0,1,.4l14,8.7c.7.4,1.4,1,1.5,1.2h0Z"/>
          <path class="cls-1" d="M71.12,210.09c0,1.2.9,2.1,2,2.1h.4c1.1,0,2-.9,2-2.1v-10.1c0-1.2-.9-2.1-2-2.1h-.4c-1.1,0-2,.9-2,2.1v10.1Z"/>
          <path class="cls-1" d="M70.82,197.59c0,1,1.1,1.8,2.5,1.8h.1c1.4,0,2.5-.8,2.5-1.8v-47.1c0-1-1.1-1.8-2.5-1.8h-.1c-1.4,0-2.5.8-2.5,1.8v47.1Z"/>
          <path class="cls-17" d="M74.42,194.19c0,.8.2,1.5.4,1.5h0c.2,0,.4-.7.4-1.5v-38.8c0-.8-.2-1.5-.4-1.5h0c-.2,0-.4.7-.4,1.5v38.8Z"/>
          <path class="cls-1" d="M65.62,199.19c0,1.1,1.1,2.1,2.5,2.1h10.6c1.4,0,2.5-.9,2.5-2.1v-.6c0-1.1-1.1-2.1-2.5-2.1h-10.6c-1.4,0-2.5.9-2.5,2.1v.6Z"/>
          <path class="cls-17" d="M74.42,210.59c0,.2.1.3.3.3h0c.1,0,.3-.2.3-.3v-8.6c0-.2-.1-.3-.3-.3h0c-.1,0-.3.2-.3.3v8.6Z"/>
        </g>
        <path class="cls-13" d="M50.42,148.69c0,2.3.9,4.2,2,4.2h42c1.1,0,2-1.9,2-4.2h0c0-2.3-.9-4.2-2-4.2h-42c-1.1,0-2,1.9-2,4.2h0Z"/>
        <path class="cls-8" d="M96.32,148.59v.2c0,2.3-.9,4.2-2,4.2h-42c-1.1,0-2-1.9-2-4.2v-.2h46Z"/>
      </g>
      <g id="german-girl-sitting1">
        <g>
          <path class="cls-5" d="M14.32,99.49c.4.4.9.6,1.4.7h1.9c2.6,0,5.2.7,7.6,1.7-.4.3-.8.6-1.2.8-4.1,3-1.9,3.3-1.9,3.3l5-2.8c.2,0,20.3,7.8,25.8,10.1,1.1.4,2.2.9,3.3.9s3-.7,3.9-2c.7-1,1-2.1,1.3-3.3,1.1-6,5-29,5.6-34.6.4-3.6.8-7.5.3-11.1,0-.5-.2-1.1-.5-1.6l-1.5.3c-4.1.9-7.5,3.8-8.8,7.8,0,.3-.2.6-.2.8s0,.5-.1.7l-3.1,32.7c-10.1-3-24-5.3-24-5.3-.3,0-3.1-2.8-4.4-3.4-1.2-.5-2.5-.8-3.8-.8s-3.5.5-5,1.4c-.7.4-1.5,1-1.9,1.8-.3.7,0,1.2.4,1.7h-.1v.2h0Z"/>
          <path class="cls-6" d="M70.92,65.49c.3,3.6,0,10.1-3.7,19.2-.4.9-1.4,1.3-2.3,1-2.4-1-7.2-2.7-10.8-1.7-1.1.3-2.1-.6-1.9-1.7,1.3-6.6,5.3-22,12.8-22.3,3.1,0,5.6,2.4,5.9,5.5Z"/>
        </g>
        <path class="cls-6" d="M51.92,126.49c5.6,2.4,11.8,3.6,18,3.6s8.8-.6,13-1.9l5.6-1.6s.6-9.5-1.6-16.3c-1.8-5.6-1.8-11.4-.4-17.1l6.3-25.3c.7-2.9-.3-5.8-2.7-7.9l-3.3-2.9h0l-4-3.7h-9.1s-2.5,1.3-5.5,3.4c-.7.5-1.4,1-2.1,1.5-3.9,3-8,7.1-8.4,11.1l-.7,7.9c-1,10.8-2.3,21.5-4.6,32.1-.8,3.7-1,8.1-.5,17h0v.1h0Z"/>
        <path class="cls-11" d="M56.02,115.49c.5.2,1,.3,1.5.2.6,0,1.2-.4,1.8-.6,2.5-.9,5.1-1.2,7.7-1.1-.3.4-.6.8-.8,1.2-2.8,4.2-.6,3.8-.6,3.8l3.6-4.4c.2-.2,21.8,0,27.7,0s2.3,0,3.4-.3c1.4-.5,2.6-1.8,3-3.3.3-1.1.2-2.4,0-3.5-1.1-6-5.7-28.9-7.2-34.3-1-3.5-1.9-7.3-3.7-10.4-.3-.5-.6-1-1-1.3l-1.3.9c-3.5,2.3-5.7,6.2-5.4,10.4v.9c0,.2,0,.5.1.7l8.8,31.6c-10.5.8-24.3,3.6-24.3,3.6-.3,0-3.9-1.5-5.3-1.6-1.3,0-2.6,0-3.8.6-1.6.6-3.1,1.7-4.2,3.1-.5.7-1.1,1.5-1.1,2.3s.4,1.2.9,1.4h.2v.1Z"/>
        <path class="cls-6" d="M95.82,64.09c2,3.3,4.7,9.7,5.4,20.4,0,.7-.5,1.4-1.2,1.5-2.5.2-8.2,1-11.1,4-.7.7-1.9.4-2.2-.6-1.8-6.7-5.4-23.5,1.2-27.5,2.7-1.6,6.1-.5,7.8,2.3h.1v-.1h0Z"/>
        <g>
          <path class="cls-12" d="M50.86,39.05c-.21-4.83,1.95-8.63,3.7-12.54.72-1.75,1.44-4.93,2.67-6.27,1.54-1.85,5.55-1.13,7.6-1.34,7.6-.62,15.21-.31,22.81.31,2.36.21,3.8-.72,4.83,2.57.72,2.16,1.13,2.98,1.13,2.98,2.47,4.01,6.47,6.37,8.12,11.51,1.23,4.21.92,9.45-1.44,12.54,0-1.64-.31-3.8-.72-5.24-1.64,1.34-2.67,3.8-4.21,5.24s-3.39,2.77-5.24,3.6c-.21-1.44.21-3.39-.21-4.62-1.23,3.29-4.42,4.93-6.89,6.37,0-1.95.31-4.42-1.23-3.29-.41.31-.92,1.64-1.44,2.16s-1.13.82-1.75,1.23c-1.85,1.23-2.57,1.54-4.42.21-1.23-1.13-2.88-2.57-3.91-4.01-.62,1.23-.21,3.29-.1,4.73-2.06.21-4.62-2.26-5.96-4.21-.31,1.13,0,2.36-.21,3.49-2.67-.21-7.6-4.93-8.94-7.91-1.23,1.13-2.16,3.8-1.75,5.76-2.26-3.49-2.47-8.94-2.67-13.36h.21v.1Z"/>
          <path class="cls-7" d="M76.96,59.19h0c3.29,0,5.76-2.88,5.65-6.06l-.41-11.41-9.35.31.51,13.87c0,1.85,1.64,3.29,3.49,3.29h.1Z"/>
          <path class="cls-11" d="M55.89,32.57c.41,1.85.72,3.49,1.44,5.14.21.62.41,1.13.72,1.75,3.29,7.5,9.15,12.43,15.83,12.33,3.19,0,6.17-1.34,8.74-3.49.62-.41,1.13-.92,1.64-1.54,4.32-4.73,7.09-12.02,6.78-20.35-.41-13.77-8.53-24.66-18.4-24.46-1.44,0-2.88.31-4.21.82-7.71,2.88-13.46,12.74-13.15,24.46"/>
          <g>
            <path class="cls-2" d="M79.01,27.02c-.21,0-.41,0-.51-.31-1.75-3.29-4.73-1.95-4.83-1.85-.31,0-.62,0-.82-.31,0-.31,0-.62.31-.82,1.44-.62,4.62-1.03,6.37,2.36,0,.31,0,.62-.21.82h-.31v.1Z"/>
            <path class="cls-2" d="M61.13,24.35s-.31.21-.51,0c-2.88-1.13-4.11,1.34-4.11,1.44,0,.21-.41.31-.62.21-.21,0-.31-.41-.21-.62.51-1.23,2.36-3.19,5.34-1.95.21,0,.41.41.31.62v.21h-.21v.1Z"/>
            <path class="cls-2" d="M75.42,29.39c0,1.13-.72,2.16-1.54,2.16s-1.64-1.03-1.64-2.16.72-2.16,1.54-2.16,1.64,1.03,1.64,2.16Z"/>
            <path class="cls-2" d="M61.13,29.39c0,1.13-.72,2.16-1.54,2.16s-1.64-1.03-1.64-2.16.72-2.16,1.54-2.16,1.64,1.03,1.64,2.16Z"/>
            <path class="cls-18" d="M73.26,41.82c0,.21-.82,3.29-3.91,3.8-2.98.41-4.62-1.03-4.83-1.34"/>
            <path class="cls-3" d="M64.42,35.04c-1.03,1.03-1.03,2.57,0,3.6s2.57,1.03,3.6,0-1.85.21-2.88-.72c-1.03-1.03.21-3.8-.82-2.88h.1Z"/>
            <path class="cls-9" d="M56.1,32.57c.41,1.85.72,3.49,1.44,5.14.21.62.41,1.13.72,1.75,1.03-.72,1.54-2.06,1.44-3.29,0-1.85-1.64-3.29-3.49-3.49h0l-.1-.1Z"/>
            <path class="cls-9" d="M78.29,32.37c-2.06,0-3.7,1.54-3.6,3.29.1,1.75,1.95,2.98,4.01,2.88s3.7-1.54,3.6-3.29-1.95-2.98-4.01-2.88Z"/>
          </g>
          <path class="cls-10" d="M82.3,48.19h.21c.62-.41,1.13-.92,1.64-1.54,4.32-4.73,7.09-12.02,6.78-20.25-.41-13.77-8.53-24.66-18.4-24.46-1.44,0-2.88.31-4.21.82,7.81,5.76,21.68,21.27,13.98,45.53h0v-.1Z"/>
          <g>
            <path class="cls-11" d="M86.72,26.51c-1.03,3.08-.31,6.06,1.64,6.68s4.32-1.34,5.34-4.52c1.03-3.19.31-6.06-1.64-6.68-1.85-.62-4.32,1.34-5.34,4.52Z"/>
            <path class="cls-10" d="M86.72,26.51c-1.03,3.08-.31,6.06,1.64,6.68s4.32-1.34,5.34-4.52c1.03-3.19.31-6.06-1.64-6.68-1.85-.62-4.32,1.34-5.34,4.52Z"/>
          </g>
          <path class="cls-12" d="M56.2,24.45c-.82,4.52-2.36,3.8.21,13.05s1.03,5.04,1.64,7.4c.51,2.16,2.36,4.11,2.16,6.37-1.44-.82-4.32-3.08-5.34-4.42-2.06-2.88-1.44-9.45-1.23-12.95h0c.21-3.39.41-9.04.62-11.61v-2.67c0-6.68,2.67-13.15,6.99-16.96,4.42-2.57,7.09-.92,10.48-1.64,10.38-2.16,16.96-1.44,21.07,7.5,9.97,21.89-1.54,33.91-3.29,37-.92,1.44-9.76,7.6-11.2,8.53,7.3-8.43,6.37-22.51,5.04-30.83-.62-4.11-2.98-7.81-6.37-10.28h0s-1.23.51-3.08,1.34c-1.23,0-1.54.21-1.95.21-.82.21-.72,0-1.64.51-.62,0-1.03-.21-1.03-.21h-.82c-1.85.62-1.64.72-3.39,1.13-1.03,0-2.57-1.03-2.16-1.95-3.29,2.47-4.83,6.68-5.24,7.71"/>
          <path class="cls-12" d="M84.77,20.24l.72-.41c0-6.68-1.54-11.92-5.86-15.72-3.08-2.77-6.89-.21-10.28-.92-6.78,4.11-5.34,3.08-9.45,12.02,0,1.13,0,0-.31,1.34-.31.92.31-1.34,0,.41,0,0,0-.72,0,.62l3.19-2.26h0s2.77,3.08,4.42,4.32c2.06,1.44,4.73,2.67,6.99,2.88-.31-.62-.92-1.23-1.23-1.85-.21-.31-.41-.82-.62-1.13,1.13,1.54,3.08,2.88,4.52,4.11,1.44,1.13,2.98,1.75,4.62,2.47.1-.62-1.23-3.39-1.64-4.32.51.82,2.26,1.54,3.39,1.54"/>
        </g>
        <g>
          <path class="cls-14" d="M14.62,166.79c1.2,16.6,3.6,33.8,4.2,33.8l5.8-.4,2.1-34.2,1.6-25.7v-1.2c0-.4,0-.7-.2-1-.7-2.7-3.6-4.6-6.9-4.4-3.3.2-6,2.6-6.2,5.5,0,.8-.2,1.5-.3,2.3-1,5.5-.8,15.3,0,25.3h-.1Z"/>
          <path class="cls-4" d="M25.62,205.59c-.1,1-.7,1.9-1.6,2.4-.6.4-22.7,2.2-23.3,1.9-5-2.1,17.6-10,17.6-10h6.1s1.3,4.5,1.1,5.6h.1v.1Z"/>
          <path class="cls-14" d="M15.22,140.09h0c0-3.8,3.1-7,6.9-7.2l35.3-2.6c5.1.2,9,4.5,8.8,9.6h0c-.3,5.1-4.6,9.1-9.7,8.9l-34.2-2c-4,0-7.2-2.7-7.1-6.6h0v-.1h0Z"/>
        </g>
        <g>
          <path class="cls-16" d="M33.32,166.79c1.2,16.6,3.6,33.8,4.2,33.8l5.8-.4,2.1-34.2,1.6-25.7v-1.2c0-.4,0-.7-.2-1-.7-2.7-3.6-4.6-6.9-4.4-3.3.2-6,2.6-6.2,5.5,0,.8-.2,1.5-.3,2.3-1,5.5-.8,15.3,0,25.3h-.1Z"/>
          <path class="cls-4" d="M44.32,205.59c-.1,1-.7,1.9-1.6,2.4-.6.4-22.7,2.2-23.3,1.9-5-2.1,17.6-10,17.6-10h6.1s1.3,4.5,1.1,5.6h.1v.1Z"/>
          <path class="cls-16" d="M33.82,140.09h0c0-3.8,3.1-7,6.9-7.2l35.3-2.6c5.1.2,9,4.5,8.8,9.6h0c-.3,5.1-4.6,9.1-9.7,8.9l-34.2-2c-4,0-7.2-2.7-7.1-6.6h0v-.1h0Z"/>
        </g>
        <path class="cls-15" d="M88.42,118.29s5.3,27.8-9.8,30.5h-26.1c4.4-13.9-7.5-17.8-31.9-15.8l31-16.1c1.4,6,14.2,6.4,36.8,1.4h0Z"/>
      </g>
    </g>
  </g>
</svg>