<?xml version="1.0" encoding="UTF-8"?>
<svg xmlns="http://www.w3.org/2000/svg" xmlns:xlink="http://www.w3.org/1999/xlink" viewBox="0 0 90.47 169.58">
  <defs>
    <style>
      .cls-1 {
        stroke: #282828;
        stroke-width: .75px;
      }

      .cls-1, .cls-2 {
        fill: none;
        stroke-linecap: round;
        stroke-miterlimit: 10;
      }

      .cls-3 {
        fill: #543a35;
      }

      .cls-4, .cls-5 {
        fill: #603813;
      }

      .cls-6 {
        fill: #2e89ce;
      }

      .cls-7 {
        fill: #ca8a8c;
      }

      .cls-8 {
        fill: #d9a2a0;
      }

      .cls-9 {
        fill: #d9a8a7;
      }

      .cls-10, .cls-11 {
        fill: #88a5d8;
      }

      .cls-12, .cls-13, .cls-5, .cls-11 {
        isolation: isolate;
      }

      .cls-14 {
        fill: #103d54;
      }

      .cls-15 {
        fill: #fff;
      }

      .cls-13 {
        fill: url(#linear-gradient);
      }

      .cls-13, .cls-11 {
        mix-blend-mode: multiply;
      }

      .cls-16 {
        fill: #d7d6d8;
      }

      .cls-17 {
        fill: #752c46;
      }

      .cls-5 {
        opacity: .5;
      }

      .cls-18 {
        fill: #226baf;
      }

      .cls-2 {
        stroke: #630;
      }
    </style>
    <linearGradient id="linear-gradient" x1="44.59" y1="12.37" x2="44.59" y2="35.27" gradientTransform="translate(0 35.7) scale(1 -1)" gradientUnits="userSpaceOnUse">
      <stop offset="0" stop-color="#88a5d8"/>
      <stop offset="1" stop-color="#88a5d8" stop-opacity="0"/>
    </linearGradient>
  </defs>
  <g class="cls-12">
    <g id="Layer_2" data-name="Layer 2">
      <g id="Layer_1-2" data-name="Layer 1">
        <g id="german-woman-doctor-cut">
          <g>
            <path class="cls-9" d="M13.71,134.89l-12.27-1.28c0,.07,1.81-29.75,1.81-29.75.1-1.9,3.66-3.24,8.05-3.08h0c4.38.23,8.09,1.9,7.99,3.73l-5.58,30.4h0Z"/>
            <path class="cls-9" d="M10.99,168.24H3.79c0,.09-2.4-35.73-2.4-35.73,0-2.23,2.75-4.04,6.23-4.12h0c3.47,0,6.47,1.71,6.47,3.87l-3.12,35.98h.01Z"/>
          </g>
          <g>
            <path class="cls-9" d="M78.16,135.25l12.27-1.28c0,.07-1.81-29.75-1.81-29.75-.1-1.9-3.66-3.24-8.05-3.08h0c-4.38.23-8.09,1.9-7.99,3.73l5.58,30.4h0Z"/>
            <path class="cls-9" d="M80.88,167.11h7.19c0,.09,2.4-34.38,2.4-34.38,0-2.15-2.75-3.88-6.23-3.97h0c-3.47,0-6.47,1.65-6.47,3.72l3.12,34.62h-.01Z"/>
          </g>
          <path class="cls-3" d="M76.44,48.13c-3.06-5.66-7.81-10.07-10.98-15.62-1.36-2.38-1.13-22.07-15.84-24.67-3.06-.57-6.34-.34-9.39.23-2.94.57-5.88.91-8.37,2.6-2.38,1.58-4.3,3.85-5.55,6.34-1.58,3.28-1.81,7.02-3.17,10.41-3.85,9.05-11.2,16.18-14.26,25.46-.23.68-.45,1.47-.68,2.15-1.02,4.07.23,8.6,2.26,12.22,1.13-2.6.68-5.55,2.15-8.26.79,6.9,1.81,13.47,6.22,19.13,4.19,5.43,9.51,8.15,15.28,11.54-.45-1.02-.79-1.92-.68-3.06,2.26,2.15,6.79,4.41,9.85,3.62,4.64-1.36,8.6-4.19,12.56-6.45,0,1.13-1.58,2.94-2.26,3.85,5.43-2.72,12-7.24,14.94-12.67,2.83-5.21,3.4-11.54,3.96-17.2,1.92,2.49,2.26,6.11,3.28,8.94,2.94-5.32,3.4-13.35.57-18.79v.23h.11Z"/>
          <g>
            <path class="cls-18" d="M72.41,115.89s12.96-2.4,17.76-7.66c-1.66-6.34-14.44-35.58-24.16-39.01-1.8-.64-3.5-1.21-5.08-1.71-5.09,6.32-10.83,12.01-17.07,16.93-.45.35-.98.73-1.53.62-.44-.09-.77-.46-1.08-.82-4.6-5.37-9.19-10.73-13.79-16.1-4.51,1.93-9.08,4.48-11.08,7.47-4.64,6.89-14.51,24.58-16.39,34.18,2.51,4.87,10.53,7.9,16.78,7.77.75-2.34,1.3-4.55,2.28-7.76-.55,13.63-3.68,57.39-3.68,57.39,0,0,27.51,5.37,59.21,0l-3.93-56.73,1.76,5.43h-.01Z"/>
            <path class="cls-14" d="M71.16,112.07l-.04-.17s.18-.06.51-.16l.05.17c-.33.11-.51.16-.51.16h-.01ZM72.19,111.74l-.05-.17c.16-.05.33-.11.51-.17l.05.17c-.18.06-.35.12-.51.17ZM73.22,111.4l-.05-.17c.16-.06.33-.11.51-.17l.05.17c-.17.06-.34.12-.51.18h0ZM74.23,111.03l-.05-.17c.16-.06.33-.12.5-.18l.05.17c-.17.06-.34.12-.5.18ZM75.25,110.66l-.05-.16c.17-.06.33-.12.5-.18l.05.16c-.17.06-.34.12-.5.18ZM76.25,110.29l-.05-.16c.17-.06.33-.12.5-.2l.05.16c-.17.07-.34.13-.5.2ZM77.26,109.89l-.06-.16c.17-.06.33-.13.5-.2l.06.16c-.17.07-.34.13-.5.2ZM78.26,109.48l-.06-.16c.16-.07.33-.13.5-.21l.06.16c-.17.07-.33.15-.5.21ZM79.25,109.06l-.06-.16c.16-.07.33-.15.49-.22l.06.16c-.16.07-.33.15-.49.22ZM80.24,108.62l-.06-.16c.16-.07.33-.15.49-.22l.06.16c-.16.07-.33.15-.49.22ZM81.22,108.17l-.06-.16c.16-.07.33-.16.49-.23l.06.16c-.16.07-.33.16-.49.23ZM82.2,107.7l-.06-.16c.16-.09.32-.16.48-.24l.07.16c-.16.09-.32.16-.49.24ZM83.16,107.2l-.07-.16c.16-.09.32-.17.48-.26l.07.16c-.16.09-.32.17-.48.26ZM84.12,106.68l-.07-.16c.16-.09.32-.18.46-.27l.07.15c-.16.1-.32.18-.48.27h.01ZM85.05,106.13l-.07-.15c.16-.1.31-.2.46-.29l.09.15c-.15.1-.31.2-.46.29h-.01ZM85.98,105.54l-.09-.15c.15-.1.31-.21.45-.31l.09.15c-.15.11-.29.21-.45.32h0ZM86.87,104.9l-.09-.15c.15-.11.29-.22.43-.34l.1.15c-.15.11-.28.22-.44.34ZM87.73,104.21l-.1-.13c.15-.12.27-.24.4-.37l.11.13c-.13.12-.27.26-.42.38h0Z"/>
            <path class="cls-14" d="M16.74,113.18h-.38v-.17h.53v.17h-.16.01ZM17.43,113.17v-.17c.17,0,.34-.02.51-.04v.17c-.16.01-.34.04-.51.04ZM15.83,113.15c-.18-.01-.35-.02-.53-.05v-.17c.2.02.37.04.54.05v.17h-.01ZM14.77,113.04c-.17-.02-.35-.05-.53-.09l.02-.17c.17.04.34.06.53.09l-.02.17ZM13.71,112.84c-.17-.04-.34-.07-.53-.12l.04-.17c.17.04.34.09.51.12l-.04.17h.01ZM12.67,112.59c-.17-.05-.34-.1-.51-.16l.05-.17c.17.05.34.11.51.15l-.04.17h-.01ZM11.65,112.26c-.17-.06-.34-.12-.5-.18l.05-.16c.17.06.33.12.5.18l-.05.17h0ZM10.64,111.88c-.17-.07-.33-.13-.5-.21l.06-.16c.16.07.33.15.5.21l-.06.16ZM9.65,111.45c-.17-.07-.33-.16-.49-.23l.06-.16c.16.07.32.16.49.23l-.06.16ZM8.67,110.97c-.16-.09-.32-.17-.48-.26l.07-.16c.16.09.32.17.48.26l-.07.16ZM7.72,110.46c-.16-.09-.32-.18-.48-.27l.07-.15c.16.1.31.18.46.27l-.07.16h.01ZM6.78,109.89c-.16-.1-.31-.2-.46-.29l.09-.15c.15.1.31.2.46.29l-.09.15ZM5.86,109.29c-.16-.1-.31-.21-.45-.31l.09-.15c.15.1.29.21.45.31l-.09.15ZM4.97,108.67c-.15-.11-.31-.22-.44-.32l.09-.15c.15.11.29.21.44.32l-.09.15ZM4.07,108.02c-.15-.11-.29-.23-.44-.34l.1-.15c.13.11.28.22.43.34l-.09.15ZM3.22,107.34c-.15-.12-.29-.24-.43-.35l.1-.13c.13.11.27.23.43.35l-.1.13ZM2.37,106.62c-.15-.13-.29-.26-.42-.37l.1-.13c.12.11.26.23.42.37l-.1.13ZM1.54,105.87c-.26-.24-.4-.39-.4-.39l.11-.12s.13.15.4.39l-.11.13h0Z"/>
            <path class="cls-17" d="M44.86,164.8h-.53v-.17h.53v.17ZM45.39,164.8v-.17h.53v.17h-.53ZM43.8,164.79h-.53v-.18h.53v.18ZM46.45,164.79v-.17h.53v.17h-.53ZM42.73,164.79h-.53v-.18h.53v.18ZM47.52,164.77v-.17h.51v.17s-.53,0-.53,0h.01ZM41.67,164.77h-.53v-.18h.53v.18ZM48.58,164.76v-.17h.53v.17h-.53ZM40.6,164.75h-.53v-.18h.53v.18ZM49.66,164.74v-.17h.51v.16h-.51ZM39.54,164.71h-.53v-.2h.53v.2ZM50.71,164.71v-.17h.53s0,.16,0,.16h-.53ZM38.47,164.69l-.53-.02v-.17l.54.02v.17h-.01ZM51.77,164.68v-.17l.53-.02v.17l-.53.02ZM37.41,164.64l-.53-.02v-.17l.54.02v.17h-.01ZM52.84,164.63v-.17l.53-.02v.17l-.53.02ZM36.35,164.6l-.53-.02v-.17l.54.02v.17h-.01ZM53.9,164.58v-.17l.53-.02v.17l-.53.02ZM35.28,164.54l-.53-.02v-.17l.54.02v.17h-.01ZM54.97,164.53v-.17l.53-.02v.17l-.53.02ZM34.23,164.49l-.53-.04v-.17l.54.04v.17h-.01ZM56.04,164.47l-.02-.17h.01c.17,0,.34-.02.51-.04v.17c-.16,0-.34.02-.51.04h.01ZM33.17,164.42l-.53-.04v-.17l.54.04v.17h-.01ZM57.08,164.4v-.17l.53-.04v.17l-.53.04ZM32.1,164.36l-.53-.04v-.17l.54.04v.17h-.01ZM58.15,164.32v-.17l.51-.04v.17l-.51.04ZM31.04,164.27l-.53-.04v-.17l.54.04v.17h-.01ZM59.21,164.24v-.17l.51-.04v.17l-.51.04ZM29.97,164.2c-.18-.01-.35-.02-.53-.05v-.17c.18.01.37.02.54.05v.17h-.01ZM60.28,164.15v-.17c.16-.01.34-.02.51-.05v.17c-.17.01-.34.04-.51.05ZM28.92,164.1c-.18-.01-.35-.04-.53-.05v-.17c.18.01.37.04.54.05v.17h-.01ZM61.33,164.06v-.17c.16-.01.34-.04.51-.05v.17c-.16.01-.34.04-.51.05ZM27.86,164.02c-.18-.01-.35-.04-.53-.05v-.17c.18.01.37.04.55.05v.17h-.02ZM62.39,163.95v-.17c.16-.01.34-.04.51-.05v.17c-.16.01-.34.04-.51.05ZM26.79,163.91l-.53-.05v-.17l.54.05v.17h-.01ZM63.44,163.86v-.17l.51-.06v.17l-.51.06ZM25.74,163.8l-.53-.06v-.17l.54.06v.17h-.01ZM64.51,163.75v-.17l.51-.06v.17l-.51.06ZM24.68,163.69l-.53-.06v-.17l.55.06v.17h-.02ZM65.57,163.62v-.17l.51-.06v.17l-.51.06ZM23.62,163.56l-.53-.06v-.17l.55.06v.17h-.02ZM66.62,163.49v-.17l.51-.06v.17l-.51.06ZM22.56,163.43l-.53-.07v-.17l.55.07v.17h-.02ZM67.68,163.37v-.17h0c.17-.02.33-.04.5-.06l.02.17c-.17.02-.33.05-.5.06h-.02ZM21.51,163.29c-.18-.02-.35-.05-.53-.07l.02-.17c.17.02.34.05.53.07l-.02.17ZM68.73,163.22l-.02-.17h.02c.17-.02.33-.05.5-.07l.02.17c-.17.02-.33.05-.5.07h-.02ZM20.44,163.15c-.18-.02-.35-.05-.53-.07l.02-.17c.17.02.34.05.53.07l-.02.17ZM69.78,163.07l-.02-.17c.17-.02.35-.05.53-.07l.02.17c-.17.02-.35.05-.53.07ZM19.39,163c-.18-.02-.35-.05-.53-.09l.02-.17c.17.02.34.05.53.09l-.02.17ZM70.83,162.93l-.02-.17c.17-.02.35-.05.53-.07l.02.17c-.17.02-.35.05-.53.07ZM18.34,162.83c-.18-.02-.35-.06-.53-.09l.02-.17c.17.02.34.06.53.09l-.02.17ZM71.89,162.77l-.02-.17h.04c.16-.02.33-.06.49-.09l.02.17c-.16.02-.33.05-.49.07h-.04ZM17.29,162.66c-.2-.04-.37-.06-.53-.09l.02-.17c.16.02.33.06.53.09l-.02.17ZM72.94,162.6l-.02-.17.53-.09.02.17-.53.09ZM16.23,162.47c-.34-.06-.53-.1-.53-.1l.02-.17s.18.04.53.1l-.02.17ZM73.99,162.43l-.02-.17.26-.05.02.17-.27.05h.01Z"/>
          </g>
          <path class="cls-6" d="M57.35,66.38l-13.75,15.82-12.91-15.34c-1.61.6-3.33,1.3-5,2.08l18.24,19.64,18.25-20.65c-1.75-.57-3.38-1.09-4.84-1.53h.01Z"/>
          <g>
            <path class="cls-15" d="M49.57,115.62c-.1-.27-.29-.51-.56-.6-.32-.11-.67.02-.92.27-.23.24-.37.59-.42.94-.11.66.02,1.35.34,1.92-.02.06-.05.13-.05.22-.13,2.91-1.63,4.09-3.5,4.25,1.52-3.29.92-7.03-.05-10.58-2.19-8.06-7.05-15.55-14.25-19.34-.06-.56-.93-.75-1.08-.09-2.12,9.13.83,18.29,5.88,25.73,1.86,2.73,4.2,4.84,7.28,5.48-1.43,1.61-3.46,2.25-5.74.44-.12-.1-.24-.12-.35-.11-.15-.39-.32-.77-.54-1.11-.22-.34-.48-.67-.83-.87-.35-.18-.81-.21-1.13.05-.13.1-.23.24-.31.39-.35.7-.17,1.69.46,2.12.23.16.5.24.77.29.39.07.78.09,1.19.04.04.07.1.15.17.21,2.34,1.86,5.79,1.44,7.61-1.06l.15-.22c2.94.02,5.25-2.62,5.38-5.6,0-.12-.02-.22-.07-.31.23-.24.44-.53.55-.84.09-.23.11-.49.12-.75.01-.28,0-.59-.11-.86h-.01ZM37.55,119.75c-2.09-2.14-3.62-5.06-4.93-7.78-2.7-5.57-3.83-11.96-2.65-18.09,5.14,2.83,8.8,7.45,11.37,12.91,1.53,3.24,2.64,6.9,2.99,10.5.17,1.7-.29,3.71-1.19,5.28-2.06-.28-4.27-1.48-5.58-2.81h0Z"/>
            <g>
              <path class="cls-17" d="M37.12,62.31c-.34-.46-.56-1.03-.64-1.63-4.1,1.47-7.67,4.18-9.71,8.51-3.43,7.3-1.84,17.2,2.04,23.93.56.97,1.99.09,1.44-.89-3.68-6.41-4.92-15.16-2.04-22.16,1.7-4.12,5.06-6.52,8.91-7.78h0Z"/>
              <path class="cls-17" d="M63.63,72.23c-.98-3.72-2.96-6.58-5.54-8.65-1.04-.02-2.09-.04-3.13-.06,3.63,2.14,6.29,5.69,7.39,10.51,1.44,6.32.13,13.21-1.24,19.4-.24,1.1,1.36,1.58,1.6.46,1.55-7.05,2.78-14.56.91-21.68h.01Z"/>
            </g>
            <ellipse class="cls-15" cx="60.36" cy="97.39" rx="5.84" ry="6.17"/>
            <ellipse class="cls-16" cx="60.36" cy="97.39" rx="2.5" ry="2.63"/>
          </g>
          <path class="cls-7" d="M43.51,81.87c.46.1.91-.23,1.28-.55,5.22-4.37,10.02-9.41,14.28-15.01-5.85-2.01-9.74-2.95-9.74-2.95h-8.47s-4.86,1.3-9.77,3.52c3.84,4.76,7.68,9.52,11.52,14.26.26.32.54.65.89.72Z"/>
          <path class="cls-7" d="M40.23,64h0c1.92,2.16,7.02,2.09,8.83,0h0c.34-.4.57-.88.57-1.42v-8.23h-10.19v8.17c0,.54.23,1.01.68,1.48h.11Z"/>
          <path class="cls-9" d="M64.67,38.39c-.79,1.47-2.15,2.49-3.4,2.83h-1.13c-.34,3.96-1.58,7.47-3.4,10.41-3.4,5.66-8.6,9.17-12.45,8.94h-.91c-3.17,0-6.68-1.81-9.62-5.09h0c-.91-.91-1.7-2.04-2.38-3.17-1.81-2.83-3.17-6.34-3.73-10.3h-.34c-1.24,0-2.72-1.13-3.62-2.6,0-.23-.23-.57-.34-.79,0-.34-.23-.79-.34-1.13h0c-.34-1.47,0-2.72,1.13-3.28h0c.91-.45,2.15,0,3.17.68.68-9.51,4.98-18.11,10.98-21.28,1.58-.91,3.17-1.36,4.98-1.36,2.6,0,4.98.79,7.24,2.26,5.09,3.4,8.83,11.77,9.62,20.26.45-.57,1.02-1.02,1.58-1.24.79-.34,1.58-.45,2.26,0,1.47.68,1.7,2.94.57,5.09h0v-.23h.11Z"/>
          <g>
            <path class="cls-4" d="M55.05,34.66c-.23,0-.34,0-.45-.23-1.7-3.06-4.41-1.81-4.53-1.81-.23,0-.57,0-.79-.23,0-.23,0-.57.23-.79,1.36-.57,4.3-1.02,6,2.26,0,.23,0,.57-.23.79h-.23Z"/>
            <path class="cls-4" d="M32.65,34.66c.23,0,.34,0,.45-.23,1.7-3.06,4.41-1.81,4.53-1.81.23,0,.57,0,.79-.23,0-.23,0-.57-.23-.79-1.36-.57-4.3-1.02-6,2.26,0,.23,0,.57.23.79h.23,0Z"/>
            <path class="cls-4" d="M36.04,36.81c0,1.02.68,2.04,1.47,2.04s1.58-1.02,1.58-2.04-.68-2.04-1.47-2.04-1.58,1.02-1.58,2.04Z"/>
            <path class="cls-4" d="M49.51,36.81c0,1.02.68,2.04,1.47,2.04s1.58-1.02,1.58-2.04-.68-2.04-1.47-2.04-1.58,1.02-1.58,2.04Z"/>
            <path class="cls-2" d="M39.66,50.39c.23.23,1.47,3.06,4.87,2.94,3.28,0,4.64-2.6,4.87-2.94"/>
            <path class="cls-5" d="M46.79,44.62c0,1.36-1.02,2.38-2.38,2.38s-2.38-1.02-2.38-2.38,1.02,1.36,2.38,1.36,2.38-2.72,2.38-1.36Z"/>
            <path class="cls-8" d="M55.28,39.75c1.92,0,3.51,1.47,3.4,3.06s-1.81,2.83-3.85,2.72-3.51-1.47-3.4-3.06,1.81-2.83,3.85-2.72Z"/>
            <path class="cls-8" d="M33.21,39.75c1.92,0,3.51,1.47,3.4,3.06s-1.81,2.83-3.85,2.72-3.51-1.47-3.4-3.06,1.81-2.83,3.85-2.72Z"/>
          </g>
          <path class="cls-3" d="M62.75,33.41c0,2.94-1.58,15.28-5.32,18.11,1.7-7.81,2.6-19.35-.45-23.31-1.02-1.36-4.19-3.85-3.96-5.77-4.64,6-14.03,7.47-15.84,7.7-2.26.57-5.43,1.02-7.13,1.58-.57,5.77.45,16.98,1.02,20.37-1.92-2.83-3.28-6.34-3.85-10.3,0,0-.45-3.06-.34-4.3-1.36.34-2.72.79-4.07.91h-.79c0-.34.23-.79.45-1.13h0c.23-.45.45-.79.68-1.13.23-.68.45-1.36.57-2.15v-.45c.34-1.7.34-3.28.45-4.98.23-3.4.57-6.79,2.15-9.85,3.51-6.56,11.32-11.54,19.24-11.2,2.83.11,5.66,1.02,8.03,2.49,4.87,3.06,8.37,8.49,9.05,14.03v9.28h0l.11.11Z"/>
          <g>
            <line class="cls-1" x1="26.12" y1="33.27" x2="32.09" y2="42.03"/>
            <path class="cls-1" d="M28.1,44.22s2.12,5.92,3.37,8.97"/>
            <line class="cls-1" x1="62.61" y1="33.47" x2="56.57" y2="42.03"/>
            <path class="cls-1" d="M60.42,44.42s-1.97,5.72-3.22,8.77"/>
            <path class="cls-15" d="M44.34,60.23s5.77.04,13.09-7.04l-.32-10.39c-.02-.74-.53-1.36-1.23-1.51l-11.55-2.54-11.55,2.54c-.7.15-1.2.77-1.23,1.51l-.32,10.39c7.32,7.08,13.09,7.04,13.09,7.04Z"/>
          </g>
          <g>
            <path class="cls-10" d="M44.58,0c6.29,0,14.23,2.34,18.94,3.93,2.45.83,4.11,3.12,4.15,5.7.04,3.25,0,8.15-.38,13.75-.01.24-.23.42-.48.38-2.13-.38-11.63-1.93-22.23-1.93s-20.09,1.57-22.23,1.93c-.24.04-.46-.13-.48-.38-.37-5.6-.42-10.48-.38-13.75.02-2.59,1.69-4.87,4.15-5.7,4.71-1.6,12.65-3.93,18.94-3.93Z"/>
            <path class="cls-13" d="M44.58,21.4c10.67,0,20.37,1.6,22.28,1.93.38-5.65.42-10.56.38-13.69-.02-2.4-1.58-4.53-3.85-5.3-4.29-1.46-12.45-3.91-18.79-3.91s-14.5,2.45-18.79,3.91c-2.28.77-3.83,2.9-3.85,5.3-.04,3.13,0,8.04.38,13.69,1.91-.33,11.61-1.93,22.28-1.93h-.02Z"/>
            <path class="cls-11" d="M44.58,20.52c-15.17,0-21.02-2.67-23.02-4.04.06,2.12.16,4.44.32,6.9.01.24.23.42.48.38,2.13-.38,11.63-1.93,22.23-1.93s20.09,1.57,22.23,1.93c.24.04.46-.13.48-.38.16-2.47.27-4.8.32-6.9-2.01,1.37-7.85,4.04-23.02,4.04Z"/>
          </g>
        </g>
      </g>
    </g>
  </g>
</svg>