<?xml version="1.0" encoding="UTF-8"?>
<svg id="Ebene_2" data-name="Ebene 2" xmlns="http://www.w3.org/2000/svg" viewBox="0 0 79.25 247.25">
  <defs>
    <style>
      .cls-1 {
        fill: #bf895b;
      }

      .cls-2 {
        fill: #ddc4a1;
      }

      .cls-3 {
        fill: #dbb292;
      }

      .cls-4 {
        fill: #daa07d;
      }

      .cls-5 {
        fill: #dba07e;
      }

      .cls-6 {
        fill: #d9b6b6;
      }

      .cls-7 {
        fill: none;
        stroke: #630;
        stroke-linecap: round;
        stroke-miterlimit: 10;
      }

      .cls-8 {
        fill: #d9a2a0;
      }

      .cls-9 {
        fill: #f8ebd3;
      }

      .cls-10 {
        fill: #d9baba;
      }

      .cls-11 {
        fill: #fefefd;
      }

      .cls-12, .cls-13 {
        fill: #603813;
      }

      .cls-14 {
        fill: #fefdfd;
      }

      .cls-15 {
        fill: #8b2b0e;
      }

      .cls-16 {
        fill: #273758;
      }

      .cls-17 {
        fill: #fefdfc;
      }

      .cls-18 {
        fill: #dba07d;
      }

      .cls-19 {
        fill: #ededed;
      }

      .cls-20 {
        fill: #c69696;
      }

      .cls-13 {
        isolation: isolate;
        opacity: .5;
      }

      .cls-21 {
        fill: #e6e6e6;
      }

      .cls-22 {
        fill: #3f6138;
      }
    </style>
  </defs>
  <g id="Layer_1" data-name="Layer 1">
    <g id="german-girl-bandaids">
      <g>
        <path class="cls-6" d="M38.9,167.93v1.2l-3.4,28.8-4.5,38.3h-5.8c-.6,0-1.9-19.6-1.9-38.3s.6-24.3,2.2-30c0-3.7,3-6.7,6.7-6.7s6,2.4,6.6,5.5v1.2h.1Z"/>
        <path class="cls-16" d="M32.3,242.33c0,1.2-.7,2.1-1.6,2.7s-22.7,2.4-23.3,2.2c-5-2.4,17.6-11.2,17.6-11.2l6.1.2s1.3,4.9,1.1,6.2h0l.1-.1Z"/>
        <path class="cls-6" d="M33.2,174.73h0c-3.8.4-7.2-2.2-8-5.9l-6.7-34.7c-.4-5.1,3.4-9.5,8.5-10h0c5.1-.4,9.5,3.4,10,8.5l2,34.2c.3,4-1.8,7.5-5.7,7.9h-.1Z"/>
      </g>
      <g>
        <path class="cls-6" d="M54.3,197.93c0,18.7-1.3,38.3-1.9,38.3h-5.8l-4.5-38.3-3.3-28.8v-2.4c.6-3.1,3.3-5.5,6.6-5.5s6.7,3,6.7,6.7c1.7,5.7,2.2,17.7,2.2,30h0Z"/>
        <path class="cls-16" d="M45.3,242.33c0,1.2.7,2.1,1.6,2.7s22.7,2.4,23.3,2.2c5-2.4-17.6-11.2-17.6-11.2l-6.1.2s-1.3,4.9-1.1,6.2h0v-.1h-.1Z"/>
        <path class="cls-6" d="M44.5,174.73h0c3.8.4,7.2-2.2,8-5.9l6.7-34.7c.4-5.1-3.4-9.5-8.5-10h0c-5.1-.4-9.5,3.4-10,8.5l-2,34.2c-.3,4,1.8,7.5,5.7,7.9h.1Z"/>
      </g>
      <path class="cls-6" d="M55.4,96.93c-1.5,5.7-1.2,11.7.7,17.3.7,2.1,1.4,4.7,1.8,7.8.5,3,1.2,7.7,1.2,11.5l-18.9,7.5h-2.8l-18.9-7.2c0-5.2.7-12.8,2.1-17.6.4-1.4.9-2.8,1.4-4,2.5-5.4,3.5-11.4,2.5-17.3l-3.9-22.6-1.2-6.7,1.2-.7,15.7-9.9h9.1l14.2,9.8,1.1.7-1.1,6.5-4.1,25h0l-.1-.1Z"/>
      <path class="cls-21" d="M55.4,96.93c-1.5,5.7-1.2,11.7.7,17.3.7,2.1,1.4,4.7,1.8,7.8H20.6v-5.8c.4-1.4.9-2.8,1.4-4,2.5-5.4,3.5-11.4,2.5-17.3l-3.9-22.6-1.1-6.7,12.7-8,4.1-2.6h9.1l3.5,2.4,11.8,8.1-1.1,6.5-4.1,25h0l-.1-.1Z"/>
      <path class="cls-22" d="M23.9,108.53s-11.6,30-11.1,58.1c0,1.5.9,2.7,2.1,3.1,7.9,2.1,36.8,8.9,50.7-1.7.9-.7,1.3-1.9,1.2-3.1-1.1-8.2-5.6-40.7-11.9-56.3-10.2,4.3-20.5,4.1-31.1,0h0l.1-.1Z"/>
      <g id="s-falsebelief-uc-a-bandaids">
        <g>
          <path class="cls-3" d="M24.3,115.93h30.5c.1,0,.3,0,.4.1h0c.4.1.7.4,1,.7h0s.1.2.2.3h0c0,.1.2.3.2.4h0v.2h0v.3h0v1h0v.6h0v.1h0v1.4h0v.9h0v.3h0c0,.2,0,.4-.2.6h0c-.1.2-.3.5-.5.7h0c-.2.2-.4.3-.7.4h0c-.2,0-.3.1-.5.2h-18.6c-.2,0,0,0-.1,0h-3.8q-.07,0,0,0h-8.1c-.1,0,0,0,0,0h-.3c-.3,0-.6-.2-.8-.4h0s-.1-.1-.2-.2h0c-.2-.2-.4-.4-.5-.7h0c0-.1,0-.3-.1-.4h0v-.4h0v-1h0v-.6h0v-.1h0v-1.5h0v-.9h0v-.3q0-.07,0,0c0-.2,0-.3.2-.5h0c0-.1.2-.2.2-.4h0s.1-.1.2-.2h0s.2-.2.3-.2h0c.3-.2.7-.3,1-.4q.2-.07,0,0h.4-.2Z"/>
          <path class="cls-5" d="M24.3,115.93h30.5c.1,0,.3,0,.4.1h0c.4.1.7.4,1,.7h0s.1.2.2.3h0c0,.1.2.3.2.4h0v.2h0v.3h0v1h0v.6h0v.1h0v1.4h0v.9h0v.3h0c0,.2,0,.4-.2.6h0c-.1.2-.3.5-.5.7h0c-.2.2-.4.3-.7.4h0c-.2,0-.3.1-.5.2h-18.6c-.2,0,0,0-.1,0h-3.8q-.07,0,0,0h-8.1c-.1,0,0,0,0,0h-.3c-.3,0-.6-.2-.8-.4h0s-.1-.1-.2-.2h0c-.2-.2-.4-.4-.5-.7h0c0-.1,0-.3-.1-.4h0v-.4h0v-1h0v-.6h0v-.1h0v-1.5h0v-.9h0v-.3q0-.07,0,0c0-.2,0-.3.2-.5h0c0-.1.2-.2.2-.4h0s.1-.1.2-.2h0s.2-.2.3-.2h0c.3-.2.7-.3,1-.4q.2-.07,0,0h.4-.2ZM22.7,116.63h0c-.3.3-.6.6-.7,1h0v.5h0v1h0v.6h0v.1h0v1.4h0v.9h0c0,.4.1.9.4,1.2h0s.1.1.2.2h0c.3.3.8.5,1.3.6h9.9q.33,0,0,0h21.3q.13,0,0,0c.3,0,.7-.2.9-.4h0l.1-.1c.1-.1,0,0,0,0,.2-.1.3-.3.4-.5h0c0-.1,0-.2.1-.3q.07-.07,0,0c-.1.1,0,0,0,0h0v-.5h0v-1h0v-.6h0v-.1h0v-1.4h0v-.9h0v-.3q0-.07,0,0c0-.4-.2-.7-.5-1h0l-.1-.1q-.07-.07,0,0s-.2-.1-.3-.2h0c-.2-.1-.5-.2-.7-.3h-7.2q-.2,0,0,0h-9.3q-.73,0,0,0h-10.9q-.07,0,0,0h-2.9c-.7,0-1.3.1-1.8.5l-.2-.3Z"/>
          <path class="cls-1" d="M46.2,117.53h0s.1,0,.2.2h0c.2.2.3.4.4.6h0v.2h0v.2q0,.07,0,0v.2h0v.4h0v.5h0v1.3c0,.6-.2,1.1-.6,1.5h0c-.3.2-.6.4-.9.4h-3.3q-.13,0,0,0c.2,0,0,0-.1,0h-6.9,4.9q.2,0,0,0h1.9q.07,0,0,0h2.7c.1,0,.3,0,.4-.1h0c.2,0,.3-.2.5-.3h.1c.1-.1.3-.2.4-.3h0c.1-.1.2-.3.3-.5h0v-2.1h0v-1.2h0v-.3h0c0-.1,0-.2-.1-.3q-.07-.07,0,0c0-.1-.1-.3-.2-.4h.3Z"/>
          <path class="cls-9" d="M34.5,116.93h7.9-2q-.07,0,0,0h-1.4q-.07,0,0,0c.1,0,0,0-.1,0h-3c-.6,0-1.1.2-1.6.6l-.1.1h0c-.2.2-.4.5-.5.7h0c0,.1,0,.2-.1.3h0v.3q0,.07,0,0v.4h0v.3h0v-1.1h0v-.3h0v-.2h0c0-.2.2-.4.3-.5h-.1c-.1,0,0,0,0,0v-.3h.2l.1.1h0c.4-.3.8-.5,1.3-.5q.33,0,0,0h.3l-1.2.1Z"/>
          <path class="cls-4" d="M34.6,123.83h7.6q.13,0,0,0h2.1-1.3v.3s0,.1-.2.2h-.3s-.2,0-.2-.2v-.1h0s0-.1.1-.2h-2.6v.3s-.1.1-.2.1h-.3s-.1-.1-.1-.2v-.2h-2.6v.3s-.1.2-.2.2h-.3c-.1,0-.2-.1-.2-.2v-.3q0-.07,0,0h-2.4,1.1Z"/>
          <path class="cls-5" d="M24.8,121.73h0s.1.1.2.2v.3s-.1.1-.3.1h-.2s-.1-.2-.1-.3c0,0,0-.2.2-.2h.4l-.2-.1Z"/>
          <path class="cls-5" d="M43.4,121.73s.1.1.2.2v.3s-.2.1-.3.1h-.3l-.1-.1h0c0-.1,0-.2.1-.2.1-.1.3-.1.5,0l-.1-.3Z"/>
          <path class="cls-5" d="M45,122.83s.1.1.2.2v.3s-.1.1-.2.1h0c-.1,0-.2,0-.3-.1v-.3h0s.1-.1.3-.2h.3-.3Z"/>
          <path class="cls-5" d="M49.9,121.73h0s.1.1.2.2v.2h0s-.1.1-.2.1h-.3s-.1-.1-.2-.2v-.3s.1-.1.3-.1h.2v.1Z"/>
          <path class="cls-5" d="M23.4,120.93s.1.1.1.2v.2s-.1.1-.3.1h0c-.1,0-.2,0-.3-.1v-.1h0v-.1h0s.1-.1.2-.2h.4-.1Z"/>
          <path class="cls-5" d="M23.3,119.03c.1,0,.2.1.2.2v.3s-.1.1-.2.1h-.3s-.1-.1-.1-.2v-.3c.1-.1.3-.2.5,0l-.1-.1Z"/>
          <path class="cls-18" d="M37.3,118.03s.1.1.1.2v.3s-.1.1-.2.1h-.3s-.1-.1-.1-.2v-.2q0-.07,0,0s.1-.1.2-.2h.3Z"/>
          <path class="cls-5" d="M34.1,123.83s.2.1.2.2v.3s-.1.1-.2.1h-.3s-.1-.1-.1-.2,0-.2.1-.3.3-.1.5,0l-.2-.1Z"/>
          <path class="cls-5" d="M51.5,120.83s.1.1.2.2v.3s-.1.1-.2.2h-.3s-.1-.1-.1-.2,0-.2.1-.3.3-.1.5,0l-.2-.2Z"/>
          <path class="cls-5" d="M46.5,119.83s.1.1.2.2v.3s-.1.1-.2.1h-.3s-.1-.1-.1-.2,0-.2.1-.3.3-.1.5,0l-.2-.1Z"/>
          <path class="cls-5" d="M35.7,119.03s.1,0,.1.1q0,.07,0,0v.2s-.1.2-.2.2h-.3c-.1,0-.2-.1-.2-.2v-.3s0-.1.2-.1h.4v.1Z"/>
          <path class="cls-5" d="M54.5,117.43c.1,0,.2.1.2.2v.3s-.1.1-.2.2h-.3v-.3h0c0-.1.3-.2.5-.2l-.2-.2Z"/>
          <path class="cls-5" d="M28,123.83s.1.1.2.2v.3s-.1.1-.2.1h-.3q-.07,0,0,0s-.1-.1-.2-.2v-.3c.1-.1.3-.2.5,0v-.1Z"/>
          <path class="cls-5" d="M35.7,122.83s.1.1.2.2c0,.1,0,.2-.1.3h-.3s-.2,0-.2-.1v-.3s0-.2.2-.2h.4l-.2.1Z"/>
          <path class="cls-5" d="M43.4,119.83l.1.1h0v.2c0,.1-.1.2-.2.2h-.3s-.2-.1-.2-.2v-.3h0s.1-.1.2-.2h.3l.1.2Z"/>
          <path class="cls-5" d="M35.6,117.43h0s.1.1.2.2v.3s-.1.1-.2.2h-.3s-.1-.1-.2-.2v-.3c.1-.1.3-.1.4,0l.1-.2Z"/>
          <path class="cls-5" d="M49.9,123.83h0s.1.1.2.2v.3s-.1.1-.2.2h-.3s-.1-.1-.1-.2v-.3c.1-.1.3-.1.5,0l-.1-.2Z"/>
          <path class="cls-5" d="M31.1,123.83s.1.1.2.2v.3s-.1.1-.2.1h-.2s-.2-.1-.2-.2v-.3c.1-.1.3-.2.5,0l-.1-.1Z"/>
          <path class="cls-5" d="M45,119.13s.1.1.1.2,0,.2-.1.3h-.3c-.1,0-.2,0-.3-.1,0,0-.1-.2,0-.3,0,0,0-.2.1-.2.2-.1.4,0,.5,0v.1Z"/>
          <path class="cls-5" d="M26.2,117.43h0c.1,0,.2,0,.3.1,0,0,.1.2,0,.3,0,0,0,.2-.1.2h-.1q-.07,0,0,0h-.3s-.1-.1-.2-.2v-.3s.2-.2.3-.1h.1Z"/>
          <path class="cls-5" d="M32.4,120.83h.3s.1.1.1.2,0,.2-.1.3h-.6v-.2s.1-.2.2-.2h.1v-.1Z"/>
          <path class="cls-18" d="M37.3,119.83s.1.1.1.2h0s0,.2-.1.2h-.3c-.1,0-.2,0-.3-.1v-.3s0-.2.2-.2h.5l-.1.2Z"/>
          <path class="cls-5" d="M48.4,119.03s.1.1.2.2v.3s-.2.1-.3.1h-.3s-.1-.2-.1-.3c0,0,0-.2.1-.2h.4v-.1Z"/>
          <path class="cls-5" d="M49.9,116.43s.2.1.2.2v.3s-.1.1-.2.1h-.3s-.1-.1-.1-.2,0-.2.1-.3c.1,0,.3-.1.4,0l-.1-.1Z"/>
          <path class="cls-5" d="M31.1,116.43s.1.1.1.2v.3s-.2.1-.3.1h-.3s-.1-.2-.1-.3c0,0,0-.2.1-.2.1-.1.4-.1.5,0v-.1Z"/>
          <path class="cls-5" d="M38.8,122.83s.1.1.2.2h0v.1h0l-.1.1h-.3s-.1-.1-.2-.2v-.3c.1-.2.3-.2.5,0l-.1.1Z"/>
          <path class="cls-5" d="M26.4,122.83h0s.1.1.1.2c0,0,0,.2-.1.2h-.5s-.1-.2,0-.3c0,0,0-.2.2-.2h.4l-.1.1Z"/>
          <path class="cls-5" d="M27.9,121.73h0s.1.1.2.2v.2h0l-.1.1h-.3c-.1,0-.2,0-.3-.2v-.2s.1-.2.2-.2h.3v.1Z"/>
          <path class="cls-5" d="M49.9,119.83s.1.1.2.2v.1q0,.07,0,0v.2h0s-.1,0-.2.1h-.3s-.1-.1-.1-.2c0,0,0-.2.1-.2.1-.1.3-.1.4,0l-.1-.2Z"/>
          <path class="cls-5" d="M29.5,119.03s.1.1.2.2v.3q0,.07,0,0c0-.1,0,0,0,0h-.5s-.1-.1-.1-.2,0-.2.1-.3h.5-.2Z"/>
          <path class="cls-5" d="M28,116.43h0s.1.1.1.2c0,0,0,.2-.1.2h-.3s-.2,0-.3-.1v-.3s0-.2.2-.2h.4v.2Z"/>
          <path class="cls-5" d="M32.4,122.73h.3s.1.1.1.2,0,.2-.1.3h-.3s-.2-.1-.2-.2v-.3s.1-.1.3-.2h0l-.1.2Z"/>
          <path class="cls-5" d="M54.6,120.83s.1.1.2.2v.3s-.1.1-.2.1h-.3s-.1-.1-.1-.2,0-.2.1-.3.3-.1.5,0l-.2-.1Z"/>
          <path class="cls-5" d="M26.4,120.83s.1.1.1.2,0,.2-.1.3h-.3c-.1,0-.2,0-.3-.1v-.3s0-.2.2-.2h.4v.1Z"/>
          <path class="cls-5" d="M56.1,119.83s.2.1.2.2v.3s-.1.1-.2.1h-.3s-.1-.1-.2-.2v-.3c.1-.1.3-.1.5,0v-.1Z"/>
          <path class="cls-5" d="M54.6,119.03l.1.1h0v.3s-.1.1-.2.1h-.3s-.1-.1-.1-.2v-.3c.1-.1.4-.2.5,0h0Z"/>
          <path class="cls-5" d="M51.5,119.03s.1.1.1.2v.3s-.2.1-.3.1-.2,0-.3-.1h0v-.2s.1-.2.2-.2h.4l-.1-.1Z"/>
          <path class="cls-5" d="M26.4,119.03s.1.1.1.2c0,0,0,.2-.1.3h-.3c-.1,0-.2,0-.2-.1v-.2h0s0-.2.1-.2c.1-.1.3-.1.5,0h-.1Z"/>
          <path class="cls-5" d="M49.9,118.03h0v.2s0,.2-.1.2h-.3c-.1,0-.2,0-.2-.1v-.3s0-.2.2-.2h.4v.2Z"/>
          <path class="cls-18" d="M40.4,118.03s.1.1.1.2c0,0,0,.2-.1.3h-.3s-.2,0-.2-.1h0v-.1q0-.07,0,0s.1-.1.2-.2h.4l-.1-.1Z"/>
          <path class="cls-5" d="M31,118.03s.1.1.2.2v.3h0l-.2.1h-.3s-.1-.1-.2-.2v-.3c.1-.1.3-.2.5,0v-.1Z"/>
          <path class="cls-5" d="M43.4,116.43s.1.1.2.2v.2h0s-.2,0-.3.1h-.3s-.1-.1-.1-.2h0s0-.2.1-.2c.1-.1.3-.1.5,0l-.1-.1Z"/>
          <path class="cls-18" d="M56.1,123.73l.1.1h0v.2s0,.1-.1.2q-.07.07,0,0h-.2c-.1,0-.2,0-.3-.1v-.3s.1-.2.2-.2h.4l-.1.1Z"/>
          <path class="cls-5" d="M54.6,122.83s.1.1.1.2v.3h-.5s-.1-.1-.2-.2v-.3c.1-.2.4-.2.5,0h.1Z"/>
          <path class="cls-5" d="M45,120.83s.1.1.2.2v.3q0,.07,0,0h-.3c-.1,0-.2-.1-.2-.2v-.3c.1-.1.3-.2.5,0h-.2Z"/>
          <path class="cls-5" d="M38.8,120.83s.2.1.2.2v.3l-.1.1q-.07.07,0,0h-.2q-.07,0,0,0c-.1,0-.2,0-.3-.1,0,0-.1-.2-.1-.3,0,0,0-.2.2-.2h.4-.1Z"/>
          <path class="cls-5" d="M29.5,120.83h0s.1.1.1.2,0,.2-.1.3h-.4s-.2-.1-.2-.2v-.3c.1-.2.3-.2.5-.1l.1.1Z"/>
          <path class="cls-5" d="M31.1,119.83s.1.1.1.2v.3h-.5v-.1h0v-.2s.1-.1.2-.2h.4-.2Z"/>
          <path class="cls-5" d="M56.2,118.03s.1.1.1.2v.3s-.2,0-.3.1h-.3s-.1-.1-.1-.2c0,0,0-.2.1-.2.1-.1.3-.1.5,0v-.2Z"/>
          <path class="cls-5" d="M34.2,118.03s.1.1.1.2v.3s-.2.1-.3.1h-.3v-.1h0s0-.2.1-.2c.2-.1.4-.1.5,0l-.1-.3Z"/>
          <path class="cls-5" d="M56.2,116.63s.1.1.1.2,0,.2-.1.3h-.3c-.1,0-.2,0-.3-.1v-.2s0-.2.1-.2h.5Z"/>
          <path class="cls-5" d="M53,116.43s.2.1.2.2v.3s-.1.1-.2.2h-.3s-.1-.1-.1-.2v-.3l.2-.1h.3l-.1-.1Z"/>
          <path class="cls-5" d="M53.1,123.83s.1.1.2.2v.3s-.2,0-.3.1h-.3l-.1-.2s0-.2.1-.2c.1-.1.3-.1.5,0l-.1-.2Z"/>
          <path class="cls-5" d="M51.3,122.73h.3s.1.2.1.3c0,0,0,.2-.1.2h-.5v-.2h0s.1-.1.2-.2h0v-.1Z"/>
          <path class="cls-5" d="M48.2,120.83h.3s.1.1.1.2c0,0,0,.2-.1.2h-.3c-.1,0-.2,0-.2-.1v-.3h0s.1-.1.2-.2h0v.2Z"/>
          <path class="cls-18" d="M34.1,119.83h0s.1.1.2.2v.3h0s-.1,0-.2.1h-.3s-.1-.2-.1-.3c0,0,0-.2.1-.2s.3-.1.4,0l-.1-.1Z"/>
          <path class="cls-5" d="M27.9,119.83s.2.1.2.2v.3s-.1.1-.2.1h-.3s-.1-.1-.1-.2v-.3h.1q.07,0,0,0h.3v-.1Z"/>
          <path class="cls-5" d="M24.9,119.83s.1.1.1.2v.3s-.1,0-.2.1h-.3s-.1-.1-.1-.2,0-.2.1-.3h.5l-.1-.1Z"/>
          <path class="cls-5" d="M41.9,119.03s.2.1.2.2v.2s-.1.1-.3.2h-.3s-.1-.1-.1-.2c0,0,0-.2.1-.3.1,0,.3-.1.5,0l-.1-.1Z"/>
          <path class="cls-5" d="M38.7,117.43h0s.1.1.2.2v.3s-.1.1-.2.2h-.3s-.1-.1-.2-.2v-.3c.1-.1.3-.2.5-.1v-.1Z"/>
          <path class="cls-5" d="M46.5,123.83s.1.1.2.2v.3s-.2.1-.3.1h-.3s-.1-.2-.1-.3c0,0,0-.1.1-.2.1,0,.3-.1.5,0l-.1-.1Z"/>
          <path class="cls-5" d="M41.6,122.73h.3s.1.2.1.3v.2h0s-.2.1-.3.1h-.3s0-.1-.1-.2h0v-.2s.2-.1.3-.1v-.1Z"/>
          <path class="cls-5" d="M23.4,122.83s.1.1.1.2,0,.2-.1.3h-.3c-.1,0-.2,0-.3-.1v-.3s0-.2.1-.2c.1-.1.3-.1.5,0v.1Z"/>
          <path class="cls-5" d="M34.2,121.73s.1.1.1.2c0,0,0,.2-.1.2h-.2c-.1,0-.2,0-.3-.1v-.3c0-.1,0-.2.2-.2h.4l-.1.2Z"/>
          <path class="cls-5" d="M53.1,119.83s.1.1.1.2v.3h-.4s-.2-.1-.2-.2v-.3s.1-.1.2-.2h.3v.2Z"/>
          <path class="cls-5" d="M43.4,118.03h0s.1.1.2.2v.3h-.5s-.2-.1-.2-.2v-.3c.1-.1.3-.2.5-.1v.1Z"/>
          <path class="cls-5" d="M51.5,117.43s.2.1.2.2v.3l-.2.1h-.3s-.1-.2-.1-.3v-.1h0s.1-.1.2-.1h.3l-.1-.1Z"/>
          <path class="cls-5" d="M44.9,117.43s.2.1.2.2v.3s-.1.1-.2.2h-.3s-.1-.1-.2-.2v-.3c.1-.1.3-.1.5,0v-.2Z"/>
          <path class="cls-5" d="M23.1,117.43h.2s.1.2.1.3c0,0,0,.2-.1.2h-.3c-.1,0-.2,0-.2-.2v-.2s.1-.2.2-.2h.1v.1Z"/>
          <path class="cls-18" d="M56.2,121.73h0s.1.1.1.2v.3s-.2,0-.3.1h-.2s-.1-.1-.1-.2v-.2c0-.1,0,0,0,0,0,0,.1-.1.2-.2h.4-.1Z"/>
          <path class="cls-5" d="M52.8,121.73h.2s.1.1.1.2,0,.2-.1.3h-.3q-.07,0,0,0h-.2s-.1-.2-.1-.3c0,0,0-.2.1-.2h.3Z"/>
          <path class="cls-5" d="M35.7,120.93s.1.1.1.2v.3h-.4q-.07,0,0,0s-.2-.1-.2-.2v-.3s.1-.1.2-.1h.4l-.1.1Z"/>
          <path class="cls-5" d="M29.5,117.43s.1.1.2.2v.3s-.2.1-.3.1h-.3s-.1-.1-.1-.2,0-.2.1-.3c.1,0,.3-.1.5,0l-.1-.1Z"/>
          <path class="cls-18" d="M38.8,119.03l.1.1h0v.3s-.1.2-.2.2h-.3c-.1,0-.2-.1-.2-.2v-.2s.1-.1.2-.2h.4Z"/>
          <path class="cls-5" d="M27.7,117.93h.3s.1.2.1.3c0,0,0,.2-.1.2h-.3s-.2,0-.2-.1v-.3s0-.2.1-.2h.2l-.1.1Z"/>
          <path class="cls-5" d="M40.4,121.83s.1.2.1.3c0,0,0,.2-.1.2h-.3s-.2,0-.2-.1c0,0-.1-.2,0-.3v-.1h0l.2-.1h.3v.1Z"/>
          <path class="cls-5" d="M40.4,119.83s.1.1.1.2v.3s-.1.1-.2.1h-.3s-.1-.1-.1-.2h0v-.1h0s.1-.1.2-.2h.4l-.1-.1Z"/>
          <path class="cls-5" d="M24.9,118.03s.1.1.2.2v.3s-.2.1-.3.1h-.3l-.1-.2v-.2h0c.1-.1.3-.1.5,0v-.2Z"/>
          <path class="cls-5" d="M46.5,116.43s.1.1.1.2v.3s-.1,0-.2.1h-.3v-.3s0-.2.1-.2h.5l-.2-.1Z"/>
          <path class="cls-5" d="M24.6,123.73h.3s.1.1.1.2,0,.2-.1.3h-.3s-.2,0-.2-.1v-.3s0-.1.1-.2h.2l-.1.1Z"/>
          <path class="cls-5" d="M48.4,122.73s.1.1.2.2v.3s-.1.1-.2.1h-.3s-.1-.1-.1-.2v-.3c.1-.1.3-.1.5,0l-.1-.1Z"/>
          <path class="cls-5" d="M29.5,122.83s.1.1.2.2c0,.1,0,.2-.1.3h-.3q-.07,0,0,0c-.1,0-.2,0-.3-.1v-.3s0-.1.1-.2h.5l-.1.1Z"/>
          <path class="cls-5" d="M37.3,121.83s.1.2.1.3v.1h0s-.1,0-.2.1h-.3s-.1-.2-.1-.3c0,0,0-.2.1-.2.2-.1.4-.1.5,0h-.1Z"/>
          <path class="cls-5" d="M31.1,121.73h0v.1q0,.07,0,0v.2s0,.1-.2.2h-.3c-.1,0-.2,0-.2-.2v-.2c0-.1.1-.2.2-.2h.4l.1.1Z"/>
          <path class="cls-18" d="M53,118.03h0s.1.1.2.2v.3s-.1.1-.2.1h-.3s-.1-.1-.1-.2c0,0,0-.2.1-.3.1,0,.3-.1.4,0l-.1-.1Z"/>
          <path class="cls-5" d="M48.4,117.43h0s.1.1.2.2v.3h-.5s-.1-.1-.1-.2c0,0,0-.2.1-.2s.3-.1.4,0l-.1-.1Z"/>
          <path class="cls-5" d="M41.9,120.83s.1.1.1.2v.3s-.1.1-.2.1h-.3s-.1-.1-.1-.2c0,0,0-.2.1-.2.1-.1.3-.1.5,0l-.1-.2Z"/>
          <path class="cls-5" d="M24.8,116.43s.2.1.2.2v.3s-.1.1-.2.1h-.3s-.1-.1-.2-.2v-.3c.1-.1.3-.1.5,0v-.1Z"/>
          <path class="cls-5" d="M41.7,117.43h.2s.1.1.1.2v.3s-.2,0-.3.1h-.3s-.1-.2-.1-.3,0-.2.1-.2h.1l.2-.1Z"/>
          <path class="cls-5" d="M46.6,121.83s.1.1.1.2h0v.1h-.3s-.1,0-.2-.2h0v-.2h0s.1-.1.2-.2h.4l-.2.3Z"/>
          <path class="cls-5" d="M34.1,116.43s.1.1.2.2c0,.1,0,.2-.1.3h-.4s-.1-.1-.1-.2v-.2h0c.1-.1.3-.2.5-.1h-.1Z"/>
          <path class="cls-18" d="M46.5,118.03v.1h0v.1h0s-.1.1-.2.2h-.3s-.2-.1-.2-.2v-.1h0s0-.2.1-.2c.1-.1.3-.1.5,0l.1.1Z"/>
          <path class="cls-5" d="M40.3,116.43s.2,0,.2.2h0v.2l-.1.1h-.3c-.1,0,0,0,0,0h0v-.3s.1-.2.2-.2h.3-.3Z"/>
          <path class="cls-5" d="M37.2,116.43h0s.1.1.2.2v.3h-.2c-.1,0,0,0,0,0h0v-.2l.1-.1h.4l-.5-.2Z"/>
          <path class="cls-5" d="M32.6,119.03h0v.2s0,.2-.2.2h-.3s-.2,0-.2-.1h0v-.1h0v-.1h.4l.3-.1Z"/>
          <path class="cls-5" d="M32.6,117.43h0l.1.1h-.3v.2h.1v.1c-.1,0-.2,0-.2-.2v-.3s.1-.2.2-.2h.3l-.2.3Z"/>
          <path class="cls-17" d="M56.1,121.93v.2h-.3v-.2h.3Z"/>
          <path class="cls-17" d="M56,123.83l.1.1v.2h-.3v-.2h.2v-.1Z"/>
          <path class="cls-14" d="M37.1,118.13l.1.1v.1h-.3v-.2h.2Z"/>
          <path class="cls-14" d="M34,119.93v.3h-.3v-.2h.2l.1-.1Z"/>
          <path class="cls-14" d="M40.2,118.13l.1.1v.1h-.3v-.2h.2Z"/>
          <path class="cls-14" d="M37.1,119.93v.2h-.2v-.2h.2Z"/>
          <path class="cls-14" d="M53,118.13v.2h-.3v-.2h.3Z"/>
          <path class="cls-14" d="M34,118.13v.2h-.4v-.3h.2l.2.1Z"/>
          <path class="cls-14" d="M43.3,119.93h0v.2h-.3v-.2h.3Z"/>
          <path class="cls-14" d="M29.4,119.23v.2h-.2v-.3h.3l-.1.1Z"/>
          <path class="cls-14" d="M46.4,118.13h0v.2h-.3v-.2h.3Z"/>
          <path class="cls-14" d="M26.3,122.93v.2q0,.07,0,0c0-.1,0,0,0,0h-.3v-.1l.1-.1h.2Z"/>
          <path class="cls-14" d="M31,121.93v.2h-.3v-.3h.3v.1Z"/>
          <path class="cls-14" d="M35.6,119.13l.1.1v.2h-.3v-.2h.2v-.1Z"/>
          <path class="cls-14" d="M24.8,118.13v.1h0v.2h-.3v-.2h.3v-.1Z"/>
          <path class="cls-14" d="M52.9,123.93h0v.2h-.2v-.2s.2-.1.3,0h-.1Z"/>
          <path class="cls-14" d="M27.9,121.83v.3h-.3v-.2l.1-.1h.2Z"/>
          <path class="cls-14" d="M56,119.93v.3h-.2v-.3h.2Z"/>
          <path class="cls-14" d="M38.6,119.13h.1v.1h-.3v-.2h.2v.1Z"/>
          <path class="cls-14" d="M24.8,123.93l.1.1v.2h-.3v-.3h.2Z"/>
          <path class="cls-11" d="M34.1,121.93v.2h-.3v-.3h.2l.1.1Z"/>
          <path class="cls-14" d="M26.3,117.53v.2h-.4v-.1h.3l.1-.1Z"/>
          <path class="cls-14" d="M24.8,116.53v.2h-.3v-.2h.3Z"/>
          <path class="cls-14" d="M40.2,121.83h0v.2h-.3v-.3h.2l.1.1Z"/>
          <path class="cls-11" d="M37.1,121.83v.3h-.3v-.2h.2l.1-.1Z"/>
          <path class="cls-14" d="M54.5,120.93l.1.1v.2h-.3v-.2l.1-.1h.2-.1Z"/>
          <path class="cls-14" d="M38.6,120.93h0v.2h-.3v-.2s.1-.1.3-.1v.1Z"/>
          <path class="cls-14" d="M40.2,119.93l.1.1v.1c0,.07-.03.07-.1,0h-.2v-.2h.2Z"/>
          <path class="cls-14" d="M27.9,116.53v.2h-.3v-.2l.1-.1h.2v.1Z"/>
          <path class="cls-14" d="M48.3,122.93l.1.1v.1h-.3v-.2h.2Z"/>
          <path class="cls-14" d="M23.2,122.93h0v.1h-.3v-.1l.1-.1h.2v.1Z"/>
          <path class="cls-14" d="M35.6,120.93h.1v.1h-.3v-.2h.2v.1Z"/>
          <path class="cls-14" d="M52.9,119.93v.3h-.3v-.3h.3Z"/>
          <path class="cls-14" d="M43.3,118.13v.3h-.3v-.3h.3Z"/>
          <path class="cls-14" d="M44.9,117.53h0v.1h-.3v-.2h.2l.1.1Z"/>
          <path class="cls-14" d="M46.4,116.53v.2h-.3v-.2h.3Z"/>
          <path class="cls-11" d="M27.8,123.93l.1.1v.2h-.3v-.2h.2v-.1Z"/>
          <path class="cls-14" d="M52.9,121.83v.3h-.2v-.3h.2Z"/>
          <path class="cls-11" d="M41.8,121.03v.3h-.3v-.3h.3Z"/>
          <path class="cls-14" d="M32.4,120.93h.1v.1l-.1.1q-.07.07,0,0c.1-.1,0,0,0,0h-.1v-.2h.2-.1Z"/>
          <path class="cls-11" d="M46.4,119.93v.2h-.3v-.2h.3Z"/>
          <path class="cls-11" d="M51.4,119.13l.1.1v.2h-.3c-.1,0,0,0,0-.1v-.1h.2v-.1Z"/>
          <path class="cls-14" d="M48.3,117.53l.1.1v.2h-.3v-.1h0v-.1h.2v-.1Z"/>
          <path class="cls-11" d="M29.4,117.53v.3h-.3v-.2h.2l.1-.1Z"/>
          <path class="cls-11" d="M49.8,123.93l.1.1v.1h-.3v-.2h.2Z"/>
          <path class="cls-11" d="M43.3,123.93h.1v.1l-.1.1h-.1l-.1-.1v-.2h.2v.1Z"/>
          <path class="cls-11" d="M41.8,122.93l.1.1v.2h-.3v-.2h.2v-.1Z"/>
          <path class="cls-11" d="M35.6,122.93v.2h-.3v-.1l.1-.1h.2Z"/>
          <path class="cls-11" d="M29.4,122.93v.2h-.3v-.1l.1-.1h.2Z"/>
          <path class="cls-14" d="M30.9,119.93l.1.1v.1l-.1.1h-.2v-.3h.2Z"/>
          <path class="cls-14" d="M32.5,119.23h0v.2h-.3v-.3h.2l.1.1Z"/>
          <path class="cls-11" d="M54.5,117.53l.1.1v.2h-.3v-.3h.2Z"/>
          <path class="cls-14" d="M56,116.63l.1.1v.2h-.3v-.2h.2v-.1Z"/>
          <path class="cls-11" d="M49.9,116.53v.2h-.3v-.2h.3Z"/>
          <path class="cls-11" d="M46.4,123.93l.1.1v.2h-.3v-.2h.2v-.1Z"/>
          <path class="cls-11" d="M44.8,122.93l.1.1v.2h-.3v-.2h.2v-.1Z"/>
          <path class="cls-11" d="M26.3,120.93l.1.1v.2h-.3v-.2h.2v-.1Z"/>
          <path class="cls-11" d="M54.5,119.23h0v.2h-.3v-.3h.2l.1.1Z"/>
          <path class="cls-11" d="M41.8,119.23h0v.2h-.3v-.1h.3v-.1Z"/>
          <path class="cls-11" d="M49.9,118.13v.3h-.3v-.2l.1-.1h.2Z"/>
          <path class="cls-11" d="M27.8,118.13h.1v.2h-.3v-.2l.1-.1h0l.1.1Z"/>
          <path class="cls-11" d="M41.7,117.53l.1.1v.1h-.3v-.2h.2Z"/>
          <path class="cls-11" d="M34.1,116.53v.3h-.3v-.1l.1-.1h.2v-.1Z"/>
          <path class="cls-11" d="M51.4,122.93l.1.1v.2h-.3v-.3h.2Z"/>
          <path class="cls-11" d="M24.8,121.93v.2h-.3v-.2h.3Z"/>
          <path class="cls-11" d="M29.4,120.93l.1.1v.2h-.4v-.2c0-.1.2-.1.3-.1h0Z"/>
          <path class="cls-11" d="M24.7,119.93h.1v.2h-.3v-.2h.2Z"/>
          <path class="cls-11" d="M51.4,117.53v.2h-.3v-.1h0v-.1h.3,0Z"/>
          <path class="cls-11" d="M35.6,117.53h0v.2h-.3v-.3h.2l.1.1Z"/>
          <path class="cls-11" d="M46.4,121.83l.1.1v.2h-.3v-.2h.2v-.1Z"/>
          <path class="cls-11" d="M51.4,121.03h0v.2h-.4v-.2h.4Z"/>
          <path class="cls-11" d="M49.8,119.93h.1v.2h-.3v-.2h.2Z"/>
          <path class="cls-11" d="M23.2,117.53v.3h-.3v-.1h.2l.1-.2Z"/>
          <path class="cls-11" d="M53,116.53v.2h-.3v-.2h.3,0Z"/>
          <path class="cls-11" d="M43.3,116.53l.1.1v.2h-.2v-.3h.2-.1Z"/>
          <path class="cls-11" d="M54.5,122.93h0v.2h-.3v-.2s.2-.1.3,0h0Z"/>
          <path class="cls-11" d="M43.3,121.93v.1q0,.07,0,0c0-.1,0,0,0,0v.1h-.3v-.2h.3Z"/>
          <path class="cls-11" d="M44.8,120.93l.1.1v.2h-.3v-.3h.2Z"/>
          <path class="cls-11" d="M27.8,119.93v.3h-.2v-.3h.2Z"/>
          <path class="cls-11" d="M44.9,119.23v.2h-.3v-.2l.1-.1h.2v.1Z"/>
          <path class="cls-11" d="M34,123.93h.1v.2h-.3v-.2h.2Z"/>
          <path class="cls-11" d="M38.7,122.93v.3h-.3v-.1l.1-.1h.2v-.1Z"/>
          <path class="cls-11" d="M49.8,121.83v.3h-.3v-.2h.2l.1-.1Z"/>
          <path class="cls-11" d="M48.3,119.23h0v.2h-.3v-.2h.3,0Z"/>
          <path class="cls-11" d="M26.3,119.23h0v.2h-.3v-.3h.2l.1.1Z"/>
          <path class="cls-11" d="M37.1,116.53v.2h-.3v-.3h.2l.1.1Z"/>
          <path class="cls-11" d="M37.1,123.93v.2h-.4v-.2l.1-.1h.2l.1.1Z"/>
          <path class="cls-11" d="M23.2,121.03h0v.1h-.3v-.2l.1-.1h.2v.2Z"/>
          <path class="cls-11" d="M56,118.13v.3h-.3v-.1l.1-.1h.2v-.1Z"/>
          <path class="cls-11" d="M31,118.13v.2h-.3v-.2l.1-.1h.2v.1Z"/>
          <path class="cls-11" d="M48.3,121.03h0v.1h-.4v-.1l.1-.1h.2l.1.1Z"/>
          <path class="cls-11" d="M38.7,117.53h.1v.1h-.3v-.3h.2v.2Z"/>
          <path class="cls-11" d="M40.2,116.53h0v.2h-.3v-.3h.3v.1Z"/>
          <path class="cls-11" d="M30.9,123.93l.1.1v.2h-.3v-.2h.2v-.1Z"/>
          <path class="cls-11" d="M32.5,122.93v.2h-.3v-.2h.3Z"/>
          <path class="cls-11" d="M23.2,119.23h0v.2h-.3v-.2h.3,0Z"/>
          <path class="cls-11" d="M40.2,123.93h0v.2h-.4v-.2l.1-.1h.2l.1.1Z"/>
          <path class="cls-11" d="M31,116.53v.3h-.3v-.2l.1-.1h.2Z"/>
          <path class="cls-11" d="M32.5,117.53h-.1v-.2h.3l-.2.2Z"/>
          <path class="cls-2" d="M32.6,117.63h0v.1h-.1q-.07,0,0,0c.1,0,0,0,0-.1h.1Z"/>
        </g>
        <g>
          <path class="cls-3" d="M24.1,127.43h30.5c.1,0,.3,0,.4.1h0c.4.1.7.4,1,.7h0s.1.2.2.3h0c0,.1.2.3.2.4h0v.2h0v.3h0v1h0v.6h0v.1h0v1.4h0v.9h0v.3h0c0,.2,0,.4-.2.6h0c-.1.2-.3.5-.5.7h0c-.2.2-.4.3-.7.4h0c-.2,0-.3.1-.5.2h-18.6c-.2,0,0,0-.1,0h-3.8q-.07,0,0,0h-8.1c-.1,0,0,0,0,0h-.3c-.3,0-.6-.2-.8-.4h0s-.1-.1-.2-.2h0c-.2-.2-.4-.4-.5-.7h0c0-.1,0-.3-.1-.4h0v-.4h0v-1h0v-.6h0v-.1h0v-1.5h0v-.9h0v-.3q0-.07,0,0c0-.2,0-.3.2-.5h0c0-.1.2-.2.2-.4h0s.1-.1.2-.2h0s.2-.2.3-.2h0c.3-.2.7-.3,1-.4q.2-.07,0,0h.4-.2Z"/>
          <path class="cls-19" d="M42.5,135.43c.4,0,.3,0-1.6,0h-3c2,0,.4,0,0,0h-2.7c-1,0-2.1,0-2.9-.7-.7-.6-1-1.4-1-2.8s.1-2.2.7-2.7c.7-.6,1.8-.6,3.3-.6s.9,0,1.4,0h5.1c1.9,0,3.3,0,4.2.8.8.7.9,1.7.8,3.2,0,1.2-.5,1.9-1.3,2.4-.7.4-1.7.6-3.2.6l.2-.2Z"/>
          <path class="cls-5" d="M24.1,127.43h30.5c.1,0,.3,0,.4.1h0c.4.1.7.4,1,.7h0s.1.2.2.3h0c0,.1.2.3.2.4h0v.2h0v.3h0v1h0v.6h0v.1h0v1.4h0v.9h0v.3h0c0,.2,0,.4-.2.6h0c-.1.2-.3.5-.5.7h0c-.2.2-.4.3-.7.4h0c-.2,0-.3.1-.5.2h-18.6c-.2,0,0,0-.1,0h-3.8q-.07,0,0,0h-8.1c-.1,0,0,0,0,0h-.3c-.3,0-.6-.2-.8-.4h0s-.1-.1-.2-.2h0c-.2-.2-.4-.4-.5-.7h0c0-.1,0-.3-.1-.4h0v-.4h0v-1h0v-.6h0v-.1h0v-1.5h0v-.9h0v-.3q0-.07,0,0c0-.2,0-.3.2-.5h0c0-.1.2-.2.2-.4h0s.1-.1.2-.2h0s.2-.2.3-.2h0c.3-.2.7-.3,1-.4q.2-.07,0,0h.4-.2ZM22.5,128.13h0c-.3.3-.6.6-.7,1h0v.5h0v1h0v.6h0v.1h0v1.4h0v.9h0c0,.4.1.9.4,1.2h0s.1.1.2.2h0c.3.3.8.5,1.3.6h9.9q.33,0,0,0h21.3q.13,0,0,0c.3,0,.7-.2.9-.4h0l.1-.1c.1-.1,0,0,0,0,.2-.1.3-.3.4-.5h0c0-.1,0-.2.1-.3q.07-.07,0,0c-.1.1,0,0,0,0h0v-.5h0v-1h0v-.6h0v-.1h0v-1.4h0v-.9h0v-.3q0-.07,0,0c0-.4-.2-.7-.5-1h0l-.1-.1q-.07-.07,0,0s-.2-.1-.3-.2h0c-.2-.1-.5-.2-.7-.3h-7.2q-.2,0,0,0h-9.3q-.73,0,0,0h-10.9q-.07,0,0,0h-2.9c-.7,0-1.3.1-1.8.5l-.2-.3Z"/>
          <path class="cls-1" d="M46.5,129.43s.8.6.6,3.8c0,.6-.4,1.1-.8,1.5h0c-.3.2-.6.4-.9.4h-3.4q-.13,0,0,0c.2,0,0,0-.1,0h-1.8c-1.8,0-1.8-.1-5.1-.1h-.2,5.1q.2,0,0,0h1.9q.07,0,0,0h2.7c.1,0,0,0,.1,0s.3,0,.4-.1,0,0,0,0c.2,0,.4-.2.5-.3h.1c.1-.1.3-.2.4-.4s0,0,0,0c.2-.2.4-.5.3-.4.4-1,.2-2.4.2-2.4"/>
          <path class="cls-4" d="M44.5,135.33h-1.3v.3s0,.1-.2.2h-.3s-.2,0-.2-.2v-.1h0s0-.1.1-.2h-2.6v.3s-.1.1-.2.1h-.3s-.1-.1-.1-.2v-.2h-2.6v.3s-.1.2-.2.2h-.3c-.1,0-.2-.1-.2-.2v-.3q0-.07,0,0h-2.4,7.7q.13,0,0,0"/>
          <path class="cls-5" d="M24.6,133.23h0s.1.1.2.2v.3s-.1.1-.3.1h-.2s-.1-.2-.1-.3c0,0,0-.2.2-.2h.4l-.2-.1Z"/>
          <path class="cls-5" d="M49.7,133.23h0s.1.1.2.2v.2h0s-.1.1-.2.1h-.3s-.1-.1-.2-.2v-.3s.1-.1.3-.1h.2v.1Z"/>
          <path class="cls-5" d="M23.2,132.43s.1.1.1.2v.2s-.1.1-.3.1h0c-.1,0-.2,0-.3-.1v-.1h0v-.1h0s.1-.1.2-.2h.4-.1Z"/>
          <path class="cls-5" d="M23.1,130.53c.1,0,.2.1.2.2v.3s-.1.1-.2.1h-.3s-.1-.1-.1-.2v-.3c.1-.1.3-.2.5,0l-.1-.1Z"/>
          <path class="cls-5" d="M33.9,135.33s.2.1.2.2v.3s-.1.1-.2.1h-.3s-.1-.1-.1-.2,0-.2.1-.3.3-.1.5,0l-.2-.1Z"/>
          <path class="cls-5" d="M51.3,132.33s.1.1.2.2v.3s-.1.1-.2.2h-.3s-.1-.1-.1-.2,0-.2.1-.3.3-.1.5,0l-.2-.2Z"/>
          <path class="cls-5" d="M54.3,128.93c.1,0,.2.1.2.2v.3s-.1.1-.2.2h-.3v-.3h0c0-.1.3-.2.5-.2l-.2-.2Z"/>
          <path class="cls-5" d="M27.7,135.33s.1.1.2.2v.3s-.1.1-.2.1h-.3q-.07,0,0,0s-.1-.1-.2-.2v-.3c.1-.1.3-.2.5,0v-.1Z"/>
          <path class="cls-5" d="M49.7,135.33h0s.1.1.2.2v.3s-.1.1-.2.2h-.3s-.1-.1-.1-.2v-.3c.1-.1.3-.1.5,0l-.1-.2Z"/>
          <path class="cls-5" d="M30.9,135.33s.1.1.2.2v.3s-.1.1-.2.1h-.2s-.2-.1-.2-.2v-.3c.1-.1.3-.2.5,0l-.1-.1Z"/>
          <path class="cls-5" d="M26,128.93h0c.1,0,.2,0,.3.1,0,0,.1.2,0,.3,0,0,0,.2-.1.2h-.1q-.07,0,0,0h-.3s-.1-.1-.2-.2v-.3s.2-.2.3-.1h.1Z"/>
          <path class="cls-5" d="M48.2,130.53s.1.1.2.2v.3s-.2.1-.3.1h-.3s-.1-.2-.1-.3c0,0,0-.2.1-.2h.4v-.1Z"/>
          <path class="cls-5" d="M49.7,127.93s.2.1.2.2v.3s-.1.1-.2.1h-.3s-.1-.1-.1-.2,0-.2.1-.3c.1,0,.3-.1.4,0l-.1-.1Z"/>
          <path class="cls-5" d="M30.9,127.93s.1.1.1.2v.3s-.2.1-.3.1h-.3s-.1-.2-.1-.3c0,0,0-.2.1-.2.1-.1.4-.1.5,0v-.1Z"/>
          <path class="cls-5" d="M26.2,134.33h0s.1.1.1.2c0,0,0,.2-.1.2h-.5s-.1-.2,0-.3c0,0,0-.2.2-.2h.4l-.1.1Z"/>
          <path class="cls-5" d="M27.7,133.23h0s.1.1.2.2v.2h0l-.1.1h-.3c-.1,0-.2,0-.3-.2v-.2s.1-.2.2-.2h.3v.1Z"/>
          <path class="cls-5" d="M49.7,131.33s.1.1.2.2v.1q0,.07,0,0v.2h0s-.1,0-.2.1h-.3s-.1-.1-.1-.2c0,0,0-.2.1-.2.1-.1.3-.1.4,0l-.1-.2Z"/>
          <path class="cls-5" d="M29.3,130.53s.1.1.2.2v.3q0,.07,0,0c0-.1,0,0,0,0h-.5s-.1-.1-.1-.2,0-.2.1-.3h.5-.2Z"/>
          <path class="cls-5" d="M27.8,127.93h0s.1.1.1.2c0,0,0,.2-.1.2h-.3s-.2,0-.3-.1v-.3s0-.2.2-.2h.4v.2Z"/>
          <path class="cls-5" d="M54.4,132.33s.1.1.2.2v.3s-.1.1-.2.1h-.3s-.1-.1-.1-.2,0-.2.1-.3.3-.1.5,0l-.2-.1Z"/>
          <path class="cls-5" d="M26.2,132.33s.1.1.1.2,0,.2-.1.3h-.3c-.1,0-.2,0-.3-.1v-.3s0-.2.2-.2h.4v.1Z"/>
          <path class="cls-5" d="M55.9,131.33s.2.1.2.2v.3s-.1.1-.2.1h-.3s-.1-.1-.2-.2v-.3c.1-.1.3-.1.5,0v-.1Z"/>
          <path class="cls-5" d="M54.4,130.53l.1.1h0v.3s-.1.1-.2.1h-.3s-.1-.1-.1-.2v-.3c.1-.1.4-.2.5,0h0Z"/>
          <path class="cls-5" d="M51.3,130.53s.1.1.1.2v.3s-.2.1-.3.1-.2,0-.3-.1h0v-.2s.1-.2.2-.2h.4l-.1-.1Z"/>
          <path class="cls-5" d="M26.2,130.53s.1.1.1.2c0,0,0,.2-.1.3h-.3c-.1,0-.2,0-.2-.1v-.2h0s0-.2.1-.2c.1-.1.3-.1.5,0h-.1Z"/>
          <path class="cls-5" d="M49.7,129.53h0v.2s0,.2-.1.2h-.3c-.1,0-.2,0-.2-.1v-.3s0-.2.2-.2h.4v.2Z"/>
          <path class="cls-5" d="M30.8,129.53s.1.1.2.2v.3h0l-.2.1h-.3s-.1-.1-.2-.2v-.3c.1-.1.3-.2.5,0v-.1Z"/>
          <path class="cls-5" d="M43.2,127.93s.1.1.2.2v.2h0s-.2,0-.3.1h-.3s-.1-.1-.1-.2h0s0-.2.1-.2c.1-.1.3-.1.5,0l-.1-.1Z"/>
          <path class="cls-18" d="M55.9,135.23l.1.1h0v.2s0,.1-.1.2q-.07.07,0,0h-.2c-.1,0-.2,0-.3-.1v-.3s.1-.2.2-.2h.4l-.1.1Z"/>
          <path class="cls-5" d="M54.4,134.33s.1.1.1.2v.3h-.5s-.1-.1-.2-.2v-.3c.1-.2.4-.2.5,0h.1Z"/>
          <path class="cls-5" d="M29.3,132.33h0s.1.1.1.2,0,.2-.1.3h-.4s-.2-.1-.2-.2v-.3c.1-.2.3-.2.5-.1l.1.1Z"/>
          <path class="cls-5" d="M30.9,131.33s.1.1.1.2v.3h-.5v-.1h0v-.2s.1-.1.2-.2h.4-.2Z"/>
          <path class="cls-5" d="M55.9,129.53s.1.1.1.2v.3s-.2,0-.3.1h-.3s-.1-.1-.1-.2c0,0,0-.2.1-.2.1-.1.3-.1.5,0v-.2Z"/>
          <path class="cls-5" d="M56,128.13s.1.1.1.2,0,.2-.1.3h-.3c-.1,0-.2,0-.3-.1v-.2s0-.2.1-.2h.5Z"/>
          <path class="cls-5" d="M52.8,127.93s.2.1.2.2v.3s-.1.1-.2.2h-.3s-.1-.1-.1-.2v-.3l.2-.1h.3l-.1-.1Z"/>
          <path class="cls-5" d="M52.8,135.33s.1.1.2.2v.3s-.2,0-.3.1h-.3l-.1-.2s0-.2.1-.2c.1-.1.3-.1.5,0l-.1-.2Z"/>
          <path class="cls-5" d="M51.1,134.23h.3s.1.2.1.3c0,0,0,.2-.1.2h-.5v-.2h0s.1-.1.2-.2h0v-.1Z"/>
          <path class="cls-5" d="M48,132.33h.3s.1.1.1.2c0,0,0,.2-.1.2h-.3c-.1,0-.2,0-.2-.1v-.3h0s.1-.1.2-.2h0v.2Z"/>
          <path class="cls-5" d="M27.7,131.33s.2.1.2.2v.3s-.1.1-.2.1h-.3s-.1-.1-.1-.2v-.3h.1q.07,0,0,0h.3v-.1Z"/>
          <path class="cls-5" d="M24.7,131.33s.1.1.1.2v.3s-.1,0-.2.1h-.3s-.1-.1-.1-.2,0-.2.1-.3h.5l-.1-.1Z"/>
          <path class="cls-5" d="M46.3,135.33s.1.1.2.2v.3s-.2.1-.3.1h-.3s-.1-.2-.1-.3c0,0,0-.1.1-.2.1,0,.3-.1.5,0l-.1-.1Z"/>
          <path class="cls-5" d="M23.1,134.33s.1.1.1.2,0,.2-.1.3h-.3c-.1,0-.2,0-.3-.1v-.3s0-.2.1-.2c.1-.1.3-.1.5,0v.1Z"/>
          <path class="cls-5" d="M52.9,131.33s.1.1.1.2v.3h-.4s-.2-.1-.2-.2v-.3s.1-.1.2-.2h.3v.2Z"/>
          <path class="cls-5" d="M51.3,128.93s.2.1.2.2v.3l-.2.1h-.3s-.1-.2-.1-.3v-.1h0s.1-.1.2-.1h.3l-.1-.1Z"/>
          <path class="cls-5" d="M22.9,128.93h.2s.1.2.1.3c0,0,0,.2-.1.2h-.3c-.1,0-.2,0-.2-.2v-.2s.1-.2.2-.2h.1v.1Z"/>
          <path class="cls-18" d="M56,133.23h0s.1.1.1.2v.3s-.2,0-.3.1h-.2s-.1-.1-.1-.2v-.2c0-.1,0,0,0,0,0,0,.1-.1.2-.2h.4-.1Z"/>
          <path class="cls-5" d="M52.6,133.23h.2s.1.1.1.2,0,.2-.1.3h-.3q-.07,0,0,0h-.2s-.1-.2-.1-.3c0,0,0-.2.1-.2h.3Z"/>
          <path class="cls-5" d="M29.3,128.93s.1.1.2.2v.3s-.2.1-.3.1h-.3s-.1-.1-.1-.2,0-.2.1-.3c.1,0,.3-.1.5,0l-.1-.1Z"/>
          <path class="cls-5" d="M27.5,129.43h.3s.1.2.1.3c0,0,0,.2-.1.2h-.3s-.2,0-.2-.1v-.3s0-.2.1-.2h.2l-.1.1Z"/>
          <path class="cls-5" d="M24.7,129.53s.1.1.2.2v.3s-.2.1-.3.1h-.3l-.1-.2v-.2h0c.1-.1.3-.1.5,0v-.2Z"/>
          <path class="cls-5" d="M46.3,127.93s.1.1.1.2v.3s-.1,0-.2.1h-.3v-.3s0-.2.1-.2h.5l-.2-.1Z"/>
          <path class="cls-5" d="M24.4,135.23h.3s.1.1.1.2,0,.2-.1.3h-.3s-.2,0-.2-.1v-.3s0-.1.1-.2h.2l-.1.1Z"/>
          <path class="cls-5" d="M48.2,134.23s.1.1.2.2v.3s-.1.1-.2.1h-.3s-.1-.1-.1-.2v-.3c.1-.1.3-.1.5,0l-.1-.1Z"/>
          <path class="cls-5" d="M29.3,134.33s.1.1.2.2c0,.1,0,.2-.1.3h-.3q-.07,0,0,0c-.1,0-.2,0-.3-.1v-.3s0-.1.1-.2h.5l-.1.1Z"/>
          <path class="cls-5" d="M30.9,133.23h0v.1q0,.07,0,0v.2s0,.1-.2.2h-.3c-.1,0-.2,0-.2-.2v-.2c0-.1.1-.2.2-.2h.4l.1.1Z"/>
          <path class="cls-18" d="M52.8,129.53h0s.1.1.2.2v.3s-.1.1-.2.1h-.3s-.1-.1-.1-.2c0,0,0-.2.1-.3.1,0,.3-.1.4,0l-.1-.1Z"/>
          <path class="cls-5" d="M48.2,128.93h0s.1.1.2.2v.3h-.5s-.1-.1-.1-.2c0,0,0-.2.1-.2s.3-.1.4,0l-.1-.1Z"/>
          <path class="cls-5" d="M24.6,127.93s.2.1.2.2v.3s-.1.1-.2.1h-.3s-.1-.1-.2-.2v-.3c.1-.1.3-.1.5,0v-.1Z"/>
          <path class="cls-5" d="M33.9,127.93s.1.1.2.2c0,.1,0,.2-.1.3h-.4s-.1-.1-.1-.2v-.2h0c.1-.1.3-.2.5-.1h-.1Z"/>
          <path class="cls-5" d="M40.1,127.93s.2,0,.2.2h0v.2l-.1.1h-.3c-.1,0,0,0,0,0h0v-.3s.1-.2.2-.2h.3-.3Z"/>
          <path class="cls-5" d="M37,127.93h0s.1.1.2.2v.3h-.2c-.1,0,0,0,0,0h0v-.2l.1-.1h.4l-.5-.2Z"/>
          <path class="cls-17" d="M55.8,133.43v.2h-.3v-.2h.3Z"/>
          <path class="cls-17" d="M55.8,135.33l.1.1v.2h-.3v-.2h.2v-.1Z"/>
          <path class="cls-14" d="M52.7,129.63v.2h-.3v-.2h.3Z"/>
          <path class="cls-14" d="M29.2,130.63v.2h-.2v-.3h.3l-.1.1Z"/>
          <path class="cls-14" d="M26.1,134.43v.2q0,.07,0,0c0-.1,0,0,0,0h-.3v-.1l.1-.1h.2Z"/>
          <path class="cls-14" d="M30.8,133.43v.2h-.3v-.3h.3v.1Z"/>
          <path class="cls-14" d="M24.6,129.63v.1h0v.2h-.3v-.2h.3v-.1Z"/>
          <path class="cls-14" d="M52.7,135.43h0v.2h-.2v-.2s.2-.1.3,0h-.1Z"/>
          <path class="cls-14" d="M27.7,133.33v.3h-.3v-.2l.1-.1h.2Z"/>
          <path class="cls-14" d="M55.8,131.43v.3h-.2v-.3h.2Z"/>
          <path class="cls-14" d="M24.5,135.43l.1.1v.2h-.3v-.3h.2Z"/>
          <path class="cls-14" d="M26.1,129.03v.2h-.4v-.1h.3l.1-.1Z"/>
          <path class="cls-14" d="M24.6,128.03v.2h-.3v-.2h.3Z"/>
          <path class="cls-14" d="M45.5,123.03l8.9,9.5v.2h-.3v-.2l.1-.1s-8.7-9.4-8.6-9.4h-.1Z"/>
          <path class="cls-14" d="M27.7,128.03v.2h-.3v-.2l.1-.1h.2v.1Z"/>
          <path class="cls-14" d="M48.1,134.43l.1.1v.1h-.3v-.2h.2Z"/>
          <path class="cls-14" d="M23,134.43h0v.1h-.3v-.1l.1-.1h.2v.1Z"/>
          <path class="cls-14" d="M52.7,131.43v.3h-.3v-.3h.3Z"/>
          <path class="cls-14" d="M46.2,128.03v.2h-.3v-.2h.3Z"/>
          <path class="cls-11" d="M27.6,135.43l.1.1v.2h-.3v-.2h.2v-.1Z"/>
          <path class="cls-14" d="M52.7,133.33v.3h-.2v-.3h.2Z"/>
          <path class="cls-11" d="M51.2,130.63l.1.1v.2h-.3c-.1,0,0,0,0-.1v-.1h.2v-.1Z"/>
          <path class="cls-14" d="M48.1,129.03l.1.1v.2h-.3v-.1h0v-.1h.2v-.1Z"/>
          <path class="cls-11" d="M29.2,129.03v.3h-.3v-.2h.2l.1-.1Z"/>
          <path class="cls-11" d="M49.6,135.43l.1.1v.1h-.3v-.2h.2Z"/>
          <path class="cls-11" d="M43.1,135.43h.1v.1l-.1.1h-.1l-.1-.1v-.2h.2v.1Z"/>
          <path class="cls-11" d="M29.2,134.43v.2h-.3v-.1l.1-.1h.2Z"/>
          <path class="cls-14" d="M30.7,131.43l.1.1v.1l-.1.1h-.2v-.3h.2Z"/>
          <path class="cls-11" d="M54.3,129.03l.1.1v.2h-.3v-.3h.2Z"/>
          <path class="cls-14" d="M55.8,128.13l.1.1v.2h-.3v-.2h.2v-.1Z"/>
          <path class="cls-11" d="M49.6,128.03v.2h-.3v-.2h.3Z"/>
          <path class="cls-11" d="M46.2,135.43l.1.1v.2h-.3v-.2h.2v-.1Z"/>
          <path class="cls-11" d="M26.1,132.43l.1.1v.2h-.3v-.2h.2v-.1Z"/>
          <path class="cls-11" d="M54.3,130.63h0v.2h-.3v-.3h.2l.1.1Z"/>
          <path class="cls-11" d="M49.7,129.63v.3h-.3v-.2l.1-.1h.2Z"/>
          <path class="cls-11" d="M27.6,129.63h.1v.2h-.3v-.2l.1-.1h0l.1.1Z"/>
          <path class="cls-11" d="M33.9,128.03v.3h-.3v-.1l.1-.1h.2v-.1Z"/>
          <path class="cls-11" d="M51.2,134.43l.1.1v.2h-.3v-.3h.2Z"/>
          <path class="cls-11" d="M24.6,133.43v.2h-.3v-.2h.3Z"/>
          <path class="cls-11" d="M29.2,132.43l.1.1v.2h-.4v-.2c0-.1.2-.1.3-.1h0Z"/>
          <path class="cls-11" d="M24.5,131.43h.1v.2h-.3v-.2h.2Z"/>
          <path class="cls-11" d="M51.2,129.03v.2h-.3v-.1h0v-.1h.3,0Z"/>
          <path class="cls-11" d="M51.2,132.43h0v.2h-.4v-.2h.4Z"/>
          <path class="cls-11" d="M49.6,131.43h.1v.2h-.3v-.2h.2Z"/>
          <path class="cls-11" d="M23,129.03v.3h-.3v-.1h.2l.1-.2Z"/>
          <path class="cls-11" d="M52.8,128.03v.2h-.3v-.2h.3,0Z"/>
          <path class="cls-11" d="M43.1,128.03l.1.1v.2h-.2v-.3h.2-.1Z"/>
          <path class="cls-11" d="M54.3,134.43h0v.2h-.3v-.2s.2-.1.3,0h0Z"/>
          <path class="cls-11" d="M27.6,131.43v.3h-.2v-.3h.2Z"/>
          <path class="cls-11" d="M33.8,135.43h.1v.2h-.3v-.2h.2Z"/>
          <path class="cls-11" d="M49.6,133.33v.3h-.3v-.2h.2l.1-.1Z"/>
          <path class="cls-11" d="M48.1,130.63h0v.2h-.3v-.2h.3,0Z"/>
          <path class="cls-11" d="M26.1,130.63h0v.2h-.3v-.3h.2l.1.1Z"/>
          <path class="cls-11" d="M36.9,128.03v.2h-.3v-.3h.2l.1.1Z"/>
          <path class="cls-11" d="M36.9,135.43v.2h-.4v-.2l.1-.1h.2l.1.1Z"/>
          <path class="cls-11" d="M23,132.53h0v.1h-.3v-.2l.1-.1h.2v.2Z"/>
          <path class="cls-11" d="M55.8,129.63v.3h-.3v-.1l.1-.1h.2v-.1Z"/>
          <path class="cls-11" d="M30.8,129.63v.2h-.3v-.2l.1-.1h.2v.1Z"/>
          <path class="cls-11" d="M48.1,132.53h0v.1h-.4v-.1l.1-.1h.2l.1.1Z"/>
          <path class="cls-11" d="M40,128.03h0v.2h-.3v-.3h.3v.1Z"/>
          <path class="cls-11" d="M30.7,135.43l.1.1v.2h-.3v-.2h.2v-.1Z"/>
          <path class="cls-11" d="M23,130.63h0v.2h-.3v-.2h.3,0Z"/>
          <path class="cls-11" d="M40,135.43h0v.2h-.4v-.2l.1-.1h.2l.1.1Z"/>
          <path class="cls-11" d="M30.8,128.03v.3h-.3v-.2l.1-.1h.2Z"/>
        </g>
      </g>
      <g>
        <path class="cls-15" d="M64.4,38.13c0-4.7-2.2-8.3-4-12.1-.8-1.7-1.6-4.7-2.8-6-1.6-1.7-5.4-.9-7.4-1-7.4-.3-14.8.2-22.2,1.1-2.3.3-3.7-.6-4.6,2.7-.6,2.1-1,2.9-1,2.9-2.3,4-6.1,6.4-7.5,11.5-1.1,4.1-.6,9.2,1.8,12.1,0-1.6.2-3.7.5-5.1,1.6,1.2,2.7,3.6,4.3,5s3.4,2.6,5.2,3.3c.2-1.4-.3-3.3,0-4.5,1.3,3.2,4.5,4.6,6.9,6,0-1.9-.5-4.3,1.1-3.2.4.3,1,1.6,1.5,2s1.1.8,1.7,1.1c1.8,1.1,2.6,1.4,4.3,0,1.2-1.1,2.7-2.6,3.7-4,.6,1.2.3,3.2.3,4.6,2,0,4.4-2.4,5.7-4.3.3,1.1,0,2.3.3,3.4,2.6-.3,7.2-5.1,8.4-8,1.2,1.1,2.2,3.6,1.9,5.5,2.1-3.5,2.1-8.8,2.1-13.1h-.2v.1Z"/>
        <path class="cls-20" d="M40.8,58.63h0c-2.5,0-4.5-2-4.5-4.5v-6.7h9.1v6.7c0,2.5-2,4.5-4.5,4.5h-.1Z"/>
        <path class="cls-10" d="M62.7,29.13c-.9,1.5-2.3,2.5-3.7,2.8h-1.2c-.4,3.9-1.8,7.5-3.8,10.4-3.8,5.7-9.5,9.1-13.7,8.9h-1c-4.5,0-9.7-3.1-13.3-8.3-2-2.9-3.5-6.4-4.1-10.3h-.3c-1.4,0-2.9-1.1-3.9-2.6-.2-.3-.3-.5-.4-.8-.2-.4-.3-.7-.4-1.1h0c-.3-1.5,0-2.7,1.2-3.2h0c1-.4,2.3,0,3.5.7.9-11.9,8.3-22.4,17.5-22.6,2.8,0,5.5.8,7.9,2.3,2.3,1.4,4.3,3.6,6,6.3h0c2.4,3.9,4.1,8.9,4.6,13.9h0c.5-.5,1.1-.9,1.7-1.1.8-.4,1.7-.4,2.4,0,1.6.7,1.9,2.9.6,5.1l.4-.3h0v-.1Z"/>
        <path class="cls-15" d="M60.2,32.53c-.3-3.2-.8-8.7-1.1-11.2,0-.9,0-1.7-.2-2.6-.3-6.5-2.4-13.6-7.2-17.2-3.4-2.6-6.5-.4-10.2-1.2-7.1-1.4-15.4,1.7-19.2,8.4-2.3,4-2.7,8.7-1.9,13.2,0,0,.5,8.5.3,10.5-.3,3.4-1.2,9.6.9,12.6,1,1.4,4.1,3.7,5.6,4.5.3-2.2-1.7-4.2-2.1-6.3-.5-2.3-.3-4.8-.3-7.2,0-4.3-.4-8.5-.2-12.8v-1.3c0-.2.2-.3.3-.5,1.1-1.8,2.4-3.4,3.9-4.8,1.6-1.5,3.5-2.3,5.2-3.7,1.6,1.4,3.1,2.9,4.9,4,2.2,1.3,5.2,2.4,7.7,2.6-.3-.6-1-1.2-1.5-1.8-.2-.3-.4-.8-.6-1.1,1.3,1.5,3.5,2.7,5.1,3.8,1.5,1.1,3.4,1.6,5.1,2.2,0-.6-1.5-3.3-1.9-4.1.6.8,1.5,1.3,2,2.1.6.8,1,1.7,1.4,2.5h0c.2,4.4-.2,8.6-.2,12.9s.2,4.9-.3,7.2c-.5,2.1-2.5,4.1-2.1,6.3,1.5-.8,4.6-3.1,5.6-4.5,2.1-2.9,1.2-9.2.9-12.6h0l.1.1Z"/>
        <g>
          <path class="cls-12" d="M28.1,23.93c.2,0,.4,0,.5-.3,1.7-3.2,4.6-1.9,4.7-1.8.3,0,.6,0,.8-.3,0-.3,0-.6-.3-.8-1.4-.6-4.5-1-6.2,2.3,0,.3,0,.6.2.8h.3v.1Z"/>
          <path class="cls-12" d="M45.5,21.33s.3.2.5,0c2.8-1.1,4,1.3,4,1.4,0,.2.4.3.6.2.2,0,.3-.4.2-.6-.5-1.2-2.3-3.1-5.2-1.9-.2,0-.4.4-.3.6v.2h.2v.1Z"/>
          <path class="cls-12" d="M31.6,26.23c0,1.1.7,2.1,1.5,2.1s1.6-1,1.6-2.1-.7-2.1-1.5-2.1-1.6,1-1.6,2.1Z"/>
          <path class="cls-12" d="M45.5,26.23c0,1.1.7,2.1,1.5,2.1s1.6-1,1.6-2.1-.7-2.1-1.5-2.1-1.6,1-1.6,2.1Z"/>
          <path class="cls-7" d="M35.4,40.23c.2.2,1.5,3.1,5,3,3.4,0,4.8-2.7,5-3"/>
          <path class="cls-13" d="M42.8,34.23c0,1.4-1.1,2.5-2.5,2.5s-2.5-1.1-2.5-2.5,1.1,1.4,2.5,1.4,2.5-2.8,2.5-1.4Z"/>
          <path class="cls-8" d="M51.6,29.23c2,0,3.6,1.5,3.5,3.2s-1.9,2.9-3.9,2.8-3.6-1.5-3.5-3.2,1.9-2.9,3.9-2.8Z"/>
          <path class="cls-8" d="M28.8,29.23c2,0,3.6,1.5,3.5,3.2s-1.9,2.9-3.9,2.8-3.6-1.5-3.5-3.2,1.9-2.9,3.9-2.8Z"/>
        </g>
      </g>
      <g>
        <path class="cls-6" d="M6.4,103.23h0c-4-.2-6.5-4.5-5.1-8.5l10.2-24.6c1.5-3.9,5.6-5.9,9.3-4.4h0c4.3,1.7,6.1,7.2,3.7,11.3l-12.9,23.2c-1.1,2-3.2,3.1-5.3,3h.1Z"/>
        <path class="cls-21" d="M14.8,65.33c-3.4,2.8-7.8,8.5-10.9,20.9l13.8,6.3s9.7-17,8.5-23.5c-.8-4.5-7.7-6.6-11.5-3.6h0l.1-.1Z"/>
        <path class="cls-6" d="M4.5,93.53h0c1.6,0,3,.5,4.1,1.9l20.3,23.9-6.1,4.4L1.6,102.93c-3.2-3.2-1.3-9,3.1-9.3h0l-.2-.1Z"/>
        <path class="cls-6" d="M35,127.33l-6-8.4-6.5,3.8s.1.2.2.2c-2.5,9.4,1.2,14.4,1.2,14.4,3.5,4.9,5.2,4.1,5.9,2.6.5-1.1.5-2.3.1-3.4-1.5-4.8-.8-11.9-.8-11.9,6.1,6.2,5.7,2.6,5.7,2.6h.2v.1Z"/>
      </g>
      <g>
        <path class="cls-6" d="M73.5,103.13h0c4-.2,6.5-4.5,5.1-8.5l-10.2-24.6c-1.5-3.9-5.6-5.9-9.3-4.4h0c-4.3,1.7-6.1,7.2-3.7,11.3l12.9,23.2c1.1,2,3.2,3.1,5.3,3h-.1Z"/>
        <path class="cls-21" d="M65.1,65.33c3.4,2.8,7.8,8.5,10.9,20.9l-13.8,6.3s-9.7-17-8.5-23.5c.8-4.5,7.7-6.6,11.5-3.6h0l-.1-.1Z"/>
        <path class="cls-6" d="M74.1,92.53h0c-1.6,0-2.9.8-3.9,2.1l-18.3,25.4,6.5,3.9,19.5-22.4c3-3.4.7-9-3.7-9h-.1Z"/>
        <path class="cls-6" d="M46.1,125.13l7.6-6.9,5.6,5.1s-.2.1-.3.2c.6,9.7-4.1,13.8-4.1,13.8-4.4,4.1-5.9,3-6.3,1.3-.3-1.1,0-2.4.5-3.3,2.5-4.4,3.3-11.5,3.3-11.5-7.2,4.7-6.1,1.3-6.1,1.3h-.2Z"/>
      </g>
    </g>
  </g>
</svg>