<?xml version="1.0" encoding="UTF-8"?>
<svg id="Ebene_2" data-name="Ebene 2" xmlns="http://www.w3.org/2000/svg" viewBox="0 0 98.65 246.69">
  <defs>
    <style>
      .cls-1 {
        fill: #4194c7;
      }

      .cls-1, .cls-2, .cls-3, .cls-4, .cls-5 {
        fill-rule: evenodd;
      }

      .cls-2 {
        fill: #2c87bc;
      }

      .cls-6 {
        fill: #e94850;
      }

      .cls-7 {
        fill: #d9b6b6;
      }

      .cls-8 {
        fill: none;
        stroke: #630;
        stroke-linecap: round;
        stroke-miterlimit: 10;
      }

      .cls-9 {
        fill: #d9a2a0;
      }

      .cls-10, .cls-11 {
        fill: #d9baba;
      }

      .cls-10, .cls-12 {
        isolation: isolate;
        opacity: .5;
      }

      .cls-3 {
        fill: #004062;
      }

      .cls-13, .cls-12 {
        fill: #603813;
      }

      .cls-14 {
        fill: #fdbd54;
      }

      .cls-15 {
        fill: #8b2b0e;
      }

      .cls-4 {
        fill: #00547b;
      }

      .cls-16 {
        fill: #273758;
      }

      .cls-17 {
        fill: #0e466d;
      }

      .cls-18 {
        fill: #c69696;
      }

      .cls-19 {
        fill: #e6e6e6;
      }

      .cls-5 {
        fill: #1d7fb3;
      }

      .cls-20 {
        fill: #3f6138;
      }
    </style>
  </defs>
  <g id="Layer_1" data-name="Layer 1">
    <g id="german-girl-towl-right">
      <g>
        <path class="cls-7" d="M52.02,87.62h0c.38,1.43,1.22,2.72,2.48,3.45l25.55,14.44,2.27-6.47-23.1-15.95c-3.49-2.46-8.05.45-7.2,4.53h0Z"/>
        <path class="cls-7" d="M58.59,92.96h0c3.21-.95,4.16-5.42,2.12-8.73l-14.13-20.87c-2.17-3.35-5.94-4.33-8.55-2.31h0c-3.01,2.31-3.24,7.69-.29,11.1l15.95,18.29c1.35,1.56,3.14,3.12,4.81,2.57l.09-.04Z"/>
        <path class="cls-19" d="M44.22,59.59c3.79,2.35,9.06,7.71,14.27,20.16l-11.64,8.41-2.58-4.67c-5.42-6.98-9.88-13.51-10.1-18.65-.13-4.85,5.86-7.91,10.04-5.25h0Z"/>
        <path class="cls-7" d="M79.78,111.99l-4.29-9.66,5.48-4.24.12.38c8.34,2.2,10.96,8.19,10.96,8.19,2.62,5.68,1.3,6.82-.18,6.77-1.04.01-2.08-.61-2.66-1.47-3.19-3.82-9.15-6.45-9.15-6.45,2.51,8.65-.15,6.54-.15,6.54l-.1.03-.03-.1Z"/>
        <g>
          <path class="cls-17" d="M58.42,104.4c0,.7,0,1.3.1,2,.3,2.4,1.2,4.5,2.5,6.4,2.7,3.8,7.1,6.3,12.1,6.3s7.4-1.5,10-3.9c2.9-2.7,4.7-6.6,4.7-10.8s-2.5-9.5-6.4-12.1c-1.9-1.3-4-2.2-6.4-2.5-.6,0-1.3-.1-2-.1-7.1,0-13,5-14.4,11.7-.2,1-.3,2-.3,3h.1Z"/>
          <path class="cls-14" d="M58.42,104.4c0,.7,0,1.3.1,2,.3,2.4,1.2,4.5,2.5,6.4,2.4,1.7,5.3,2.6,8.4,2.6,8.1,0,14.8-6.6,14.8-14.8s-1-6-2.6-8.4c-1.9-1.3-4-2.2-6.4-2.5-.6,0-1.3-.1-2-.1-8.1,0-14.8,6.6-14.8,14.8Z"/>
          <path class="cls-6" d="M58.42,104.4c0,.7,0,1.3.1,2,2.2,2.5,5.4,4.2,9,4.2,6.5,0,11.8-5.3,11.8-11.8s-1.6-6.8-4.2-9c-.6,0-1.3-.1-2-.1-8.1,0-14.8,6.6-14.8,14.8l.1-.1Z"/>
        </g>
        <g>
          <path class="cls-4" d="M72.05,81.42v-.4c0-.3,0-.6-.5-.8-.3,0-.6-.1-.8,0h-.5v.2c.3.2.8.4,1.2.7.2,0,.3.2.4.2h0l.2.1ZM72.95,81.02c0,.4-.2.7-.3.8l-.2.4-.5-.4c-.1,0-.5-.3-.9-.5-.5-.2-1-.5-1.3-.7-.2-.1-.3-.3-.2-.4,0,0,.2-.2.4-.3.2,0,.4-.1.6-.1.4,0,.9,0,1.4.1.7.2.9.7.8,1.1h.2Z"/>
          <path class="cls-2" d="M52.65,113.02c1.9-3.9,12.1-31,19.1-31.4,7-.3,26.5,28.8,26.4,28.9-.3.4-12.9,11.8-14.7,13.1-1.7,1.3-2.6,2-4,1.9s-26.6-11.3-26.9-11.6c-.3-.3,0-.9,0-.9h.1Z"/>
          <path class="cls-1" d="M52.65,113.02c1.9-3.8,12-30.7,18.9-31.4-6.9,1.5-10.2,20-10.7,23.7s-6.2,7.1-7.4,7.7c-1.2.6.7,1.7.7,1.7-1-.5-1.6-.8-1.7-.8-.3-.3,0-.9,0-.9h.2Z"/>
          <path class="cls-5" d="M73.75,102.12c.4.7-19.5,10.8-20,11.4-.5.7,9.3,5.1,9.6,5.2,1.6.7,3.3,1.4,4.9,2.1h0c-18.2-8.1,11-12.3,12.1-13.8,1-1.4-11-14.5-13-16.6,0,.3.2.5.2.5l4,7.2h0c0,.1,1.9,3.3,2.3,3.9l-.1.1Z"/>
          <path class="cls-4" d="M81.35,88.92s17.4,13.7,17.2,14.6c-.2.9-2.7,3.9-2.7,3.9l-14.5-18.5Z"/>
          <path class="cls-3" d="M98.55,103.42v.3c-.2.4-.5.9-.8,1.3-.8,1.1-1.9,2.4-1.9,2.4h0l-13.1-17.4s11.3,13.9,13.4,14.2c1.1.1,1.9-.3,2.5-.8h-.1Z"/>
          <path class="cls-4" d="M63.25,118.82s-10.2-4.5-9.6-5.2,20.5-10.8,20-11.4c-.4-.7-2.3-3.9-2.3-3.9,0,0,4.1,4.1,3.5,4.7s-21.1,10.4-20.3,11c.8.6,8.6,4.8,8.6,4.8h.1Z"/>
          <path class="cls-1" d="M80.95,88.32l17.2,22.2-7.9,7.2s1.8-2.5-.5-9.3c-2.3-6.7-8.8-20.1-8.8-20.1h0Z"/>
          <path class="cls-4" d="M71.55,98.32s-3-5.4-2.5-8.8,3.4-7.7,3-7.8-.2,0-.8.7c-4.3,5.7-4,10.1.2,15.8l.1.1Z"/>
        </g>
      </g>
      <path class="cls-19" d="M13.69,100.19l-5.3-29.7c-.6-3.3-.5-8.8,3-10.1l5.3-4,2.5-2.3,9.1.3s1.6,1.8,4.7,2.7c11.6,3.6,9,2.3,10.6,16.5l.4,9.2c.3,8.2.8,16.3,1.6,24.5-10.1,3.1-20.3,2.6-30.6-1.3l-1.2-5.8h-.2.1,0Z"/>
      <g>
        <path class="cls-15" d="M50.19,37.99c.2-4.7-1.9-8.4-3.6-12.2-.7-1.7-1.4-4.8-2.6-6.1-1.5-1.8-5.4-1.1-7.4-1.3-7.4-.6-14.8-.3-22.2.3-2.3.2-3.7-.7-4.7,2.5-.7,2.1-1.1,2.9-1.1,2.9-2.4,3.9-6.3,6.2-7.9,11.2-1.2,4.1-.9,9.2,1.4,12.2,0-1.6.3-3.7.7-5.1,1.6,1.3,2.6,3.7,4.1,5.1s3.3,2.7,5.1,3.5c.2-1.4-.2-3.3.2-4.5,1.2,3.2,4.3,4.8,6.7,6.2,0-1.9-.3-4.3,1.2-3.2.4.3.9,1.6,1.4,2.1s1.1.8,1.7,1.2c1.8,1.2,2.5,1.5,4.3.2,1.2-1.1,2.8-2.5,3.8-3.9.6,1.2.2,3.2.1,4.6,2,.2,4.5-2.2,5.8-4.1.3,1.1,0,2.3.2,3.4,2.6-.2,7.4-4.8,8.7-7.7,1.2,1.1,2.1,3.7,1.7,5.6,2.2-3.4,2.4-8.7,2.6-13h-.2s0,.1,0,.1Z"/>
        <path class="cls-18" d="M24.79,57.59h0c-3.2,0-5.6-2.8-5.5-5.9l.4-11.1,9.1.3-.5,13.5c0,1.8-1.6,3.2-3.4,3.2,0,0-.1,0-.1,0Z"/>
        <path class="cls-11" d="M45.29,31.69c-.4,1.8-.7,3.4-1.4,5-.2.6-.4,1.1-.7,1.7-3.2,7.3-8.9,12.1-15.4,12-3.1,0-6-1.3-8.5-3.4-.6-.4-1.1-.9-1.6-1.5-4.2-4.6-6.9-11.7-6.6-19.8C11.49,12.29,19.39,1.69,28.99,1.89c1.4,0,2.8.3,4.1.8,7.5,2.8,13.1,12.4,12.8,23.8"/>
        <g>
          <path class="cls-13" d="M22.79,26.29c.2,0,.4,0,.5-.3,1.7-3.2,4.6-1.9,4.7-1.8.3,0,.6,0,.8-.3,0-.3,0-.6-.3-.8-1.4-.6-4.5-1-6.2,2.3,0,.3,0,.6.2.8h.3s0,.1,0,.1Z"/>
          <path class="cls-13" d="M40.19,23.69s.3.2.5,0c2.8-1.1,4,1.3,4,1.4,0,.2.4.3.6.2.2,0,.3-.4.2-.6-.5-1.2-2.3-3.1-5.2-1.9-.2,0-.4.4-.3.6v.2h.2s0,.1,0,.1Z"/>
          <path class="cls-13" d="M26.29,28.59c0,1.1.7,2.1,1.5,2.1s1.6-1,1.6-2.1-.7-2.1-1.5-2.1-1.6,1-1.6,2.1Z"/>
          <path class="cls-13" d="M40.19,28.59c0,1.1.7,2.1,1.5,2.1s1.6-1,1.6-2.1-.7-2.1-1.5-2.1-1.6,1-1.6,2.1Z"/>
          <path class="cls-8" d="M28.39,40.69c0,.2.8,3.2,3.8,3.7,2.9.4,4.5-1,4.7-1.3"/>
          <path class="cls-12" d="M36.99,34.09c1,1,1,2.5,0,3.5s-2.5,1-3.5,0,1.8.2,2.8-.7c1-1-.2-3.7.8-2.8h-.1Z"/>
          <path class="cls-9" d="M45.09,31.69c-.4,1.8-.7,3.4-1.4,5-.2.6-.4,1.1-.7,1.7-1-.7-1.5-2-1.4-3.2,0-1.8,1.6-3.2,3.4-3.4h0s.1-.1.1-.1Z"/>
          <path class="cls-9" d="M23.49,31.49c2,0,3.6,1.5,3.5,3.2s-1.9,2.9-3.9,2.8-3.6-1.5-3.5-3.2,1.9-2.9,3.9-2.8Z"/>
        </g>
        <path class="cls-10" d="M19.59,46.89h-.2c-.6-.4-1.1-.9-1.6-1.5-4.2-4.6-6.9-11.7-6.6-19.7C11.59,12.29,19.49,1.69,29.09,1.89c1.4,0,2.8.3,4.1.8-7.6,5.6-21.1,20.7-13.6,44.3h0s0-.1,0-.1Z"/>
        <g>
          <path class="cls-11" d="M15.29,25.79c1,3,.3,5.9-1.6,6.5-1.9.6-4.2-1.3-5.2-4.4s-.3-5.9,1.6-6.5c1.8-.6,4.2,1.3,5.2,4.4Z"/>
          <path class="cls-10" d="M15.29,25.79c1,3,.3,5.9-1.6,6.5-1.9.6-4.2-1.3-5.2-4.4s-.3-5.9,1.6-6.5c1.8-.6,4.2,1.3,5.2,4.4Z"/>
        </g>
        <path class="cls-15" d="M44.99,23.79c.8,4.4,2.3,3.7-.2,12.7s-1,4.9-1.6,7.2c-.5,2.1-2.3,4-2.1,6.2,1.4-.8,4.2-3,5.2-4.3,2-2.8,1.4-9.2,1.2-12.6h0c-.2-3.3-.4-8.8-.6-11.3v-2.6c0-6.5-2.6-12.8-6.8-16.5-4.3-2.5-6.9-.9-10.2-1.6C19.79-1.11,13.39-.41,9.39,8.29c-9.7,21.3,1.5,33,3.2,36,.9,1.4,9.5,7.4,10.9,8.3-7.1-8.2-6.2-21.9-4.9-30,.6-4,2.9-7.6,6.2-10h0s1.2.5,3,1.3c1.2,0,1.5.2,1.9.2.8.2.7,0,1.6.5.6,0,1-.2,1-.2h.8c1.8.6,1.6.7,3.3,1.1,1,0,2.5-1,2.1-1.9,3.2,2.4,4.7,6.5,5.1,7.5"/>
        <path class="cls-15" d="M46.12,18.38l.7-.4c0-6.5-1.5-11.6-5.7-15.3-3-2.7-6.7-.2-10-.9-6.6,4-5.2,3-9.2,11.7,0,1.1,0,0-.3,1.3-.3.9.3-1.3,0,.4,0,0,0-.7,0,.6l3.1-2.2h0s2.7,3,4.3,4.2c2,1.4,4.6,2.6,6.8,2.8-.3-.6-.9-1.2-1.2-1.8-.2-.3-.4-.8-.6-1.1,1.1,1.5,3,2.8,4.4,4,1.4,1.1,2.9,1.7,4.5,2.4.1-.6-1.2-3.3-1.6-4.2.5.8,2.2,1.5,3.3,1.5"/>
      </g>
      <g>
        <path class="cls-7" d="M27.89,197.59c-1.2,18.7-3.7,38.1-4.3,38.1l-5.8-.4-2-38.5-1.5-28.9v-1.2c0-.4,0-.8.2-1.2.7-3.1,3.6-5.3,6.9-5.1,3.3.2,6,2.9,6.2,6.1,0,.9.2,1.7.3,2.6,1,6.2.7,17.2,0,28.5h0Z"/>
        <path class="cls-16" d="M16.69,242.69c0,.6.4,1.6.9,2.4.5,1,1.5,1.6,2.6,1.6h21.6c4.9-2.6-18.2-10.9-18.2-10.9h-5.7s-1.3,5.8-1.1,7h-.1v-.1Z"/>
        <path class="cls-7" d="M21.09,173.29h0c3.8-.4,6.6-3.6,6.5-7.5l-.8-35.3c-.7-5.1-5.3-8.6-10.4-7.9h0c-5.1.7-8.6,5.3-7.9,10.4l5.3,33.8c.5,3.9,3.4,6.9,7.3,6.5h0Z"/>
      </g>
      <g>
        <path class="cls-7" d="M45.69,197.59c-1.2,18.7-3.7,38.1-4.3,38.1l-5.8-.4-2-38.5-1.5-28.9v-1.2c0-.4,0-.8.2-1.2.7-3.1,3.6-5.3,6.9-5.1s6,2.9,6.2,6.1c0,.9.2,1.7.3,2.6,1,6.2.7,17.2,0,28.5h0Z"/>
        <path class="cls-16" d="M34.59,242.69c0,.6.4,1.6.9,2.4.5,1,1.5,1.6,2.6,1.6h21.6c4.9-2.6-18.2-10.9-18.2-10.9h-5.7s-1.3,5.8-1.1,7h-.1v-.1Z"/>
        <path class="cls-7" d="M38.99,173.29h0c3.8-.4,6.6-3.6,6.5-7.5l-.8-35.3c-.7-5.1-5.3-8.6-10.4-7.9h0c-5.1.7-8.6,5.3-7.9,10.4l5.3,33.8c.5,3.9,3.4,6.9,7.3,6.5h0Z"/>
      </g>
      <g>
        <path class="cls-20" d="M46.89,140.09l-16,6.7-19-7.3h0s-1.5-5.3-.9-12c.3-2.6.9-5.2,1.6-7.6,1.4-4.2,1.9-8.5,1.9-12.9.3-.8.5-1.1.5-1.1,10.3,3.9,20.5,4.4,30.6,1.3,0,.5,0,.9.2,1.4.2,2.3.5,4.7.9,7,0,.6.2,1.1.2,1.6.2,1,.3,2,.4,3,.6,4.3.7,9.5-.2,19.8h-.2v.1Z"/>
        <path class="cls-20" d="M14.99,106.29s-12.6,29.6-13.1,57.7c0,1.5.8,2.7,2,3.2,7.8,2.4,36.5,10.2,50.7,0,.9-.7,1.5-1.8,1.3-3.1-.8-8.2-4.2-40.9-9.9-56.7-10.3,3.9-20.6,3.4-31.1-1.1h.1Z"/>
      </g>
      <g>
        <path class="cls-7" d="M30.35,87.59h0c1.44-.36,3.26.04,4.49.93l26.94,17.69-4.97,4.83-27.11-14.83c-4.14-2.21-3.78-7.57.59-8.53l.04-.09h0Z"/>
        <path class="cls-7" d="M35.13,92.88h0c-1.73,2.9-6.55,2.65-9.36-.64l-17.39-20.22c-2.88-3.08-2.89-7.18-.14-9.26h0c3.17-2.38,8.6-.89,11.3,3.11l14.18,21.47c1.27,1.86,2.28,4.16,1.28,5.68l.14-.15h0Z"/>
        <path class="cls-19" d="M6.01,67.37c.59,4.37,3.33,11.41,12.48,21.4l12.61-7.13-3.21-4.34c-4.05-7.84-8.19-14.55-12.8-16.78-4.26-2.17-9.62,1.99-8.94,6.85l-.07.07s-.07-.07-.07-.07Z"/>
        <path class="cls-7" d="M65.97,104.05l-10.51-1.56-2.57,6.43.4.03c4.37,7.54,10.82,8.4,10.82,8.4,6.25.85,6.87-.71,6.46-2.04-.33-.93-1.08-1.68-2.14-2.26-4.46-2.13-8.81-7.06-8.81-7.06,9.02.05,6.36-1.95,6.36-1.95h0Z"/>
      </g>
    </g>
  </g>
</svg>