<?xml version="1.0" encoding="UTF-8"?>
<svg id="Layer_2" data-name="Layer 2" xmlns="http://www.w3.org/2000/svg" viewBox="0 0 87.88 293.52">
  <defs>
    <style>
      .cls-1, .cls-2 {
        fill: #603813;
      }

      .cls-3 {
        fill: #fff;
      }

      .cls-3, .cls-4, .cls-5, .cls-6 {
        fill-rule: evenodd;
      }

      .cls-7 {
        fill: #273758;
      }

      .cls-8 {
        fill: #e6e6e6;
      }

      .cls-9 {
        fill: #c69696;
      }

      .cls-10 {
        fill: #d9a2a0;
      }

      .cls-4, .cls-11 {
        fill: #d1957c;
      }

      .cls-5 {
        fill: #36313d;
      }

      .cls-6 {
        fill: #b56d4e;
      }

      .cls-2 {
        isolation: isolate;
        opacity: .5;
      }

      .cls-12 {
        fill: #d9b6b6;
      }

      .cls-13 {
        fill: #466e9f;
      }

      .cls-14 {
        fill: #d9baba;
      }

      .cls-15 {
        fill: none;
        stroke: #630;
        stroke-linecap: round;
        stroke-miterlimit: 10;
      }

      .cls-16 {
        fill: #d38a17;
      }
    </style>
  </defs>
  <g id="Layer_1-2" data-name="Layer 1">
    <g id="german-boy-teddy">
      <g>
        <path class="cls-12" d="M65.64,235.91c-1.5,22.1-4.6,45-5.3,45l-6.9-.5-2.1-45.5-1.6-34.1v-1.4c0-.5,0-.9.2-1.4.9-3.7,4.2-6.3,8.1-5.9,4.4.3,7.5,4,7.3,8.4,1.5,6.8,1.2,21,.2,35.5h0v-.1h.1,0Z"/>
        <path class="cls-8" d="M63.34,261.51c-1.3,11.2-2.5,19.4-3,19.4l-6.9-.5-.9-18.9h10.8Z"/>
        <path class="cls-7" d="M51.54,287.71c.1,1.4.8,2.5,1.9,3.2.7.5,26.8,2.8,27.5,2.6,5.9-2.8-20.8-13.2-20.8-13.2l-7.2.2s-1.5,5.8-1.3,7.3h-.1v-.1Z"/>
        <g>
          <path class="cls-12" d="M66.64,156.01l-.9,32.1-.2,9.7c-.1,4.5-3.7,8.2-8.1,8.4-4.7.2-7.8-3.4-8.1-8.2l-1.1-9.9-3.2-30.3v-.9c0-5.7,4.4-10.4,10-10.9,6-.5,11.3,4,11.8,10h-.2,0Z"/>
          <path class="cls-13" d="M66.64,156.01l.5,30.9c0,.6-.5,1.2-1.2,1.2h-19.7c-.6,0-1.2-.5-1.2-1.2l-.2-29.2v-.9c0-5.7,4.4-10.4,10-10.9,6-.5,11.3,4,11.8,10h0v.1h0Z"/>
        </g>
      </g>
      <g>
        <path class="cls-12" d="M20.14,235.91c1.5,22.1,4.6,45,5.3,45l6.9-.5,2.1-45.5,1.6-34.1v-1.4c0-.5,0-.9-.2-1.4-.9-3.7-4.2-6.3-8.1-5.9-4.4.3-7.7,4-7.3,8.4-1.5,6.8-1.2,21-.2,35.5h0v-.1h-.1,0Z"/>
        <path class="cls-8" d="M33.04,261.51l-.9,18.9-6.9.5c-.5,0-1.6-8.2-3-19.4h10.8Z"/>
        <path class="cls-7" d="M33.94,287.71c-.1,1.4-.8,2.5-1.9,3.2-.7.5-26.8,2.8-27.5,2.6-5.9-2.8,20.8-13.2,20.8-13.2l7.2.2s1.5,5.8,1.3,7.3h.1v-.1Z"/>
        <g>
          <path class="cls-12" d="M40.74,157.01v.8l-2.8,30.5-.9,9.8c-.4,4.7-3.4,8.4-8.1,8.3-4.5-.2-8-3.8-8.3-8.3l-.4-9.7-1.3-32c.5-6,5.7-10.5,11.7-10.2,5.8.3,10.1,5.2,10.1,10.9h0v-.1h0Z"/>
          <path class="cls-13" d="M40.74,157.01v.8l-.9,29.4c0,.6-.5,1.1-1.1,1.1h-19.2c-.6,0-1.1-.5-1.1-1.1l.5-30.9c.5-6,5.7-10.5,11.7-10.2,5.8.3,10.1,5.2,10.1,10.9h0Z"/>
        </g>
      </g>
      <path class="cls-8" d="M68.24,78.91l-1.3,7.7-4.8,29.5c-1.2,4.6-1.4,9.3-.7,13.9H24.34c1.8-5.3,2.2-10.9,1.3-16.4l-4.6-26.7-1.4-7.9,1.4-.8,18.5-11.7h10.7l16.8,11.6,1.3.8h-.1,0Z"/>
      <path class="cls-13" d="M66.54,159.21l-20.7,8.8h-6.1l-20.7-8.6c-.6-5.9.4-14.9,2-20.7.5-1.7,1.1-3.3,1.6-4.7.6-1.3,1.2-2.6,1.5-4h37.1c.4,2.1.8,4.4,1.5,6.4.8,2.5,1.6,5.5,2.1,9.2.6,3.5,1.9,9,1.3,13.6h.4Z"/>
      <path class="cls-13" d="M54.44,69.41h0c-2.8,9.4-16,9.8-19.5.6,0,0,0-.2-.1-.3l4.8-3.1h10.7l4.1,2.8h-.1.1Z"/>
      <g>
        <path class="cls-9" d="M45.04,70.91h0c-3,0-5.3-2.4-5.3-5.3v-7.9h10.7v7.9c0,3-2.4,5.3-5.3,5.3h-.1Z"/>
        <path class="cls-14" d="M70.84,36.11c-1.1,1.8-2.7,3-4.4,3.3h-1.4c-.5,4.6-2.1,8.8-4.5,12.3-4.5,6.7-11.2,10.7-16.2,10.5h-1.2c-5.3,0-11.5-3.7-15.7-9.8-2.4-3.4-4.1-7.5-4.8-12.2h-.4c-1.6-.1-3.4-1.3-4.6-3.1-.2-.3-.4-.6-.5-.9-.2-.5-.4-.8-.5-1.3h0c-.4-1.8,0-3.2,1.4-3.8h0c1.2-.5,2.7-.1,4.1.8,1.1-14,9.8-26.4,20.7-26.7,3.3,0,6.5.9,9.3,2.7,2.7,1.7,5.1,4.2,7.1,7.4h0c2.8,4.6,4.8,10.5,5.4,16.4h0c.6-.6,1.3-1.1,2-1.3.9-.5,2-.5,2.8-.1,1.9.8,2.2,3.4.7,6l.5-.3h0l.2.1h0Z"/>
        <g>
          <path class="cls-1" d="M30.84,31.01c.2,0,.5,0,.6-.3,1.9-3.6,5.2-2.1,5.3-2,.3,0,.7,0,.9-.3,0-.3,0-.7-.3-.9-1.6-.7-5.1-1.1-7,2.6,0,.3,0,.7.2.9h.3Z"/>
          <path class="cls-1" d="M50.44,28.11s.3.2.6,0c3.2-1.2,4.5,1.5,4.5,1.6,0,.2.5.3.7.2.2,0,.3-.5.2-.7-.6-1.3-2.6-3.5-5.9-2.1-.2,0-.5.5-.3.7v.2h.2v.1h0Z"/>
          <path class="cls-1" d="M34.74,33.61c0,1.2.8,2.4,1.7,2.4s1.8-1.1,1.8-2.4-.8-2.4-1.7-2.4-1.8,1.1-1.8,2.4Z"/>
          <path class="cls-1" d="M50.44,33.61c0,1.2.8,2.4,1.7,2.4s1.8-1.1,1.8-2.4-.8-2.4-1.7-2.4-1.8,1.1-1.8,2.4Z"/>
          <path class="cls-15" d="M38.94,49.41c.2.2,1.7,3.5,5.6,3.4,3.8,0,5.4-3,5.6-3.4"/>
          <path class="cls-2" d="M47.34,42.71c0,1.6-1.2,2.8-2.8,2.8s-2.8-1.2-2.8-2.8,1.2,1.6,2.8,1.6,2.8-3.2,2.8-1.6Z"/>
          <path class="cls-10" d="M57.34,37.01c2.2,0,4.1,1.7,4,3.6s-2.1,3.3-4.4,3.2-4.1-1.7-4-3.6,2.1-3.3,4.4-3.2Z"/>
          <path class="cls-10" d="M31.54,37.01c2.2,0,4.1,1.7,4,3.6s-2.1,3.3-4.4,3.2-4.1-1.7-4-3.6,2.1-3.3,4.4-3.2Z"/>
        </g>
        <path class="cls-16" d="M67.94,17.41c-1.9-6.4-5.7-11.9-11.9-15C50.94-.09,34.04-4.09,24.74,11.11c-3.8,6.1-4.6,13.9-4.6,21s1.1,12.2,4.8,17c.6.7,1.3,1.4,2,2,0,0-.8-4.2-1.4-6-1.9-6.3-1.6-13.6.4-19.8.4-.9.7-1.8,1.1-2.7.1-.5,1.3-2.6,1.2-3,2,4.8,8.6,6.7,13.3,7.5-.8-1.3-2.1-2-3-3.4-.8-1.4-1.3-3-1.8-4.4,5.7,2.1,11.6,6.1,18.1,5.8-1.4-1.4-5.2-4.2-5.1-6.6,1.4,2,3.9,2.6,6.1,3.4,1.4.5,3,.8,4.4,1.3,1.2.3,1.2.2,1.5,1.3,2.1,7.1,3.1,15.6,1.4,22.9.4-1.8,3.3-5.2,3.9-6.8.7-2,1.3-4,1.8-6.1.8-4.1.8-8.5.2-12.6-.2-1.5-.6-3.1-.9-4.5h-.2Z"/>
      </g>
      <g>
        <path class="cls-6" d="M63.72,175.49c-4.38,4.88-20.46,4.25-20.46,4.25,0,0-16.09.05-20.28-5.03-7.81-9.44.19-27.14,6.55-37.71.97-1.57,1.86-2.99,2.67-4.2l11.84,4.04,11.98-3.59c.73,1.2,1.57,2.59,2.41,4.11,5.99,10.81,13.45,28.95,5.21,38.15l.07-.03Z"/>
        <path class="cls-11" d="M63.76,166.09c-.08,3.96-.83,7.69-2.12,11.01-6.03,3.09-18.16,2.57-18.16,2.57,0,0-12.13.02-18.05-3.26-1.16-3.37-1.77-7.16-1.7-11.08.27-14.36,9.46-25.85,20.5-25.64,11.05.21,19.79,12.04,19.51,26.4Z"/>
        <path class="cls-6" d="M61.25,160.03c4.39.08,8.06-3.45,8.14-7.84.08-4.39-3.45-8.06-7.84-8.14-4.39-.08-8.06,3.45-8.14,7.84s3.45,8.06,7.84,8.14Z"/>
        <path class="cls-6" d="M26.88,159.38c4.39.08,8.06-3.45,8.14-7.84s-3.45-8.06-7.84-8.14-8.06,3.45-8.14,7.84,3.45,8.06,7.84,8.14Z"/>
        <path class="cls-6" d="M60.38,186.37c-5.75,1.19-11.6-3.43-13.02-10.26-1.42-6.83,2.13-13.39,7.87-14.57,5.75-1.19,11.6,3.43,13.02,10.26s-2.13,13.39-7.87,14.57h0Z"/>
        <path class="cls-4" d="M59.6,182.43c-3.94.82-7.91-2.35-8.87-7.01-.96-4.66,1.43-9.15,5.37-9.94,3.9-.83,7.91,2.35,8.87,7.01s-1.43,9.15-5.37,9.94Z"/>
        <path class="cls-6" d="M25.44,185.7c5.73,1.41,11.79-3.01,13.47-9.82,1.68-6.84-1.61-13.57-7.35-14.97-5.73-1.41-11.79,3.01-13.47,9.82-1.68,6.84,1.61,13.57,7.35,14.97Z"/>
        <path class="cls-4" d="M26.42,181.76c3.91.97,8.03-2.04,9.2-6.7,1.13-4.66-1.08-9.24-5.03-10.21-3.91-.97-8.03,2.04-9.2,6.7-1.13,4.66,1.08,9.24,5.03,10.21Z"/>
        <g>
          <path class="cls-6" d="M61.86,101.55c3.78.07,6.77,3.69,6.69,8.05-.08,4.35-3.21,7.86-6.99,7.79s-6.77-3.69-6.69-8.05,3.21-7.86,6.99-7.79Z"/>
          <path class="cls-4" d="M61.82,103.42c2.88.05,5.17,2.8,5.1,6.15s-2.45,6-5.33,5.95-5.17-2.8-5.1-6.15,2.45-6,5.33-5.95Z"/>
          <path class="cls-6" d="M35.33,108.96c-.08,4.39-3.21,7.86-6.99,7.79s-6.73-3.66-6.65-8.05,3.21-7.86,6.99-7.79,6.77,3.66,6.69,8.05h-.04Z"/>
          <path class="cls-4" d="M33.75,108.93c-.06,3.35-2.45,6-5.33,5.95-2.88-.05-5.17-2.8-5.1-6.15s2.45-6,5.33-5.95,5.17,2.8,5.1,6.15Z"/>
          <path class="cls-6" d="M44.26,140.81c11.88.23,21.68-8.08,21.88-18.52.2-10.44-9.32-19.15-21.16-19.37-11.84-.23-21.72,8.12-21.92,18.55-.2,10.44,9.32,19.11,21.16,19.34h.04Z"/>
          <path class="cls-5" d="M38.2,122.66c1.15.02,2.1-.9,2.13-2.05s-.9-2.1-2.05-2.13-2.1.9-2.13,2.05.9,2.1,2.05,2.13Z"/>
          <path class="cls-5" d="M50.9,122.9c1.15.02,2.1-.9,2.13-2.05s-.9-2.1-2.05-2.13-2.1.9-2.13,2.05.9,2.1,2.05,2.13Z"/>
          <path class="cls-3" d="M50.41,120.37c.29,0,.54-.24.55-.53s-.24-.54-.53-.55-.54.24-.55.53.24.54.53.55Z"/>
          <path class="cls-3" d="M37.64,120.13c.29,0,.54-.24.55-.53s-.24-.54-.53-.55-.54.24-.55.53.24.54.53.55Z"/>
          <path class="cls-4" d="M44.32,137.9c5.51.1,10.11-3.26,10.19-7.55.08-4.28-4.35-7.82-9.89-7.93-5.54-.11-10.11,3.26-10.19,7.55s4.35,7.82,9.89,7.93Z"/>
          <path class="cls-5" d="M44.69,129.69c1.91.04,3.48-1.27,3.51-2.92s-1.49-3.02-3.4-3.05c-1.91-.04-3.48,1.27-3.51,2.92s1.49,3.02,3.4,3.05Z"/>
          <path class="cls-5" d="M44.49,128.93c0-.11.11-.21.22-.21s.21.11.21.22l-.06,3.13c-.01.58.2,1.08.58,1.49.35.37.89.63,1.46.64l1.33.03c.5,0,1.01-.16,1.38-.48s.63-.74.71-1.25l.16-.93c0-.11.11-.18.26-.18.11,0,.18.11.18.26l-.16.93c-.12.61-.42,1.14-.86,1.53s-1.02.59-1.63.58l-1.33-.03c-.68-.01-1.33-.31-1.75-.75-.21-.22-.39-.48-.53-.77-.11.29-.3.53-.52.75-.48.46-1.09.7-1.78.69l-1.33-.03c-.61-.01-1.18-.24-1.61-.64s-.74-.91-.8-1.56l-.13-.94c0-.11.08-.21.18-.25.11,0,.21.08.25.18l.13.94c.06.51.31.98.66,1.27.35.33.82.52,1.36.53l1.33.03c.58.01,1.08-.2,1.49-.58.37-.35.63-.89.64-1.46l.06-3.13h-.11Z"/>
        </g>
      </g>
      <g>
        <path class="cls-12" d="M6.94,119.91h0c-4.4-.2-7.2-5-5.6-9.4l11.3-27.2c1.7-4.3,6.2-6.5,10.3-4.9h0c4.8,1.9,6.7,7.9,4.1,12.5l-14.3,25.6c-1.2,2.2-3.5,3.4-5.9,3.3h0l.1.1h0Z"/>
        <path class="cls-8" d="M16.24,78.11c-3.8,3.1-8.6,9.4-12,23.1l15.3,7s10.7-18.8,9.4-26c-.9-5-8.5-7.3-12.7-4h0v-.1h0Z"/>
        <path class="cls-12" d="M6.54,110.11h0c1.7.3,3.1,1.3,3.9,3l15.9,30.7-7.7,3.2L.94,119.31c-2.7-4.2.8-10,5.6-9.2h0Z"/>
        <path class="cls-12" d="M31.34,153.31l-5.4-10-7.7,3.2s.1.2.2.3c-4.1,9.9-.7,15.9-.7,15.9,3.1,5.9,5.1,5.2,6.1,3.7.7-1.1.9-2.4.6-3.7-1-5.5.8-13.2.8-13.2,5.8,7.6,5.9,3.7,5.9,3.7h.2v.1Z"/>
      </g>
      <g>
        <path class="cls-12" d="M81.04,119.81h0c4.4-.2,7.2-5,5.6-9.4l-11.3-27.2c-1.7-4.3-6.2-6.5-10.3-4.9h0c-4.8,1.9-6.7,7.9-4.1,12.5l14.3,25.6c1.2,2.2,3.5,3.4,5.9,3.3h0l-.1.1h0Z"/>
        <path class="cls-8" d="M71.74,78.01c3.8,3.1,8.6,9.4,12,23.1l-15.3,7s-10.7-18.8-9.4-26c.9-5,8.5-7.3,12.7-4h0v-.1h0Z"/>
        <path class="cls-12" d="M80.94,109.21h0c-1.7.4-3,1.5-3.7,3.2l-13.8,31.7,7.9,2.7,15.8-28.8c2.4-4.4-1.4-9.9-6.1-8.8h-.1,0Z"/>
        <path class="cls-12" d="M59.04,154.01l4.7-10.3,7.9,2.7c0,.1-.1.2-.2.3,4.8,9.6,1.8,15.8,1.8,15.8-2.7,6.1-4.7,5.6-5.8,4.1-.8-1-1-2.4-.9-3.6.6-5.5-1.7-13.1-1.7-13.1-5.3,7.9-5.6,4-5.6,4h-.2v.1h0Z"/>
      </g>
    </g>
  </g>
</svg>