<?xml version="1.0" encoding="UTF-8"?>
<svg id="Layer_2" data-name="Layer 2" xmlns="http://www.w3.org/2000/svg" viewBox="0 0 104.03 285.5">
  <defs>
    <style>
      .cls-1 {
        fill: #e0a587;
      }

      .cls-2, .cls-3 {
        fill: #603813;
      }

      .cls-4 {
        fill: #273758;
      }

      .cls-5 {
        fill: #d9a2a0;
      }

      .cls-6, .cls-3 {
        isolation: isolate;
      }

      .cls-7 {
        fill: #70b5ff;
      }

      .cls-8 {
        fill: #783640;
      }

      .cls-9 {
        fill: #fff;
      }

      .cls-10 {
        fill: #6c3231;
      }

      .cls-11 {
        fill: #db9673;
      }

      .cls-12 {
        fill: #533d24;
      }

      .cls-3 {
        opacity: .5;
      }

      .cls-13 {
        fill: #98caff;
      }

      .cls-14 {
        fill: #39433e;
      }
    </style>
  </defs>
  <g id="Layer_1-2" data-name="Layer 1">
    <g class="cls-6">
      <g id="german-man-waving">
        <g>
          <path class="cls-1" d="M94.5,43.97l5.9,1.5-9,39.9c-.6,2.4-3.5,3.8-6.4,3h0c-2.9-.7-4.7-3.3-4.1-5.7l13.5-38.7h.1Z"/>
          <path class="cls-13" d="M90.5,87.17h0c-1.8,2.3-5.1,2.9-7.1,1.3l-34.2-19.3c-3.5-2-4.4-6.7-2-10.4h0c2.5-3.6,7.1-4.6,10.3-2.3l32.3,23.5c2.2,1.7,2.4,4.9.6,7.3h0l.1-.1Z"/>
          <path class="cls-1" d="M97.5,31.47l.7-4.1c.4-2.3,4.2-2.4,5.2-.2.3.7.5,1.6.6,2.5t0,0c.2,2.7-.6,6.2-2.4,10.6l-.7,2.2-.9,3.1h0l-5.8-1.5h0l.9-3.1v-.3l-.6-11.5s.7-3.8,2.8,2.4h0l.2-.1h0Z"/>
          <polygon class="cls-7" points="85 69.57 92.9 78.47 91.4 85.67 81.5 74.27 85 69.57"/>
        </g>
        <g>
          <path class="cls-1" d="M10.1,153.07h-6c0,.1-2-41.6-2-41.6,0-2.6,2.3-4.7,5.2-4.8h0c2.9,0,5.4,2,5.4,4.5l-2.6,41.9h0Z"/>
          <path class="cls-1" d="M10.4,165.27l.4,4.3c.2,2.4-3.3,3.5-4.9,1.7-.5-.6-.9-1.4-1.3-2.3s-.3-.6,0,0c-.9-2.6-1.1-6.3-.6-11v-5.6h0l6-.2h0v3.6l3.7,11.1s.4,4-3.3-1.6Z"/>
          <path class="cls-13" d="M5.9,114.77h0c-2.8-.9-4.5-4-3.8-6.9l4.9-43.5c.5-4.5,4.5-7.4,8.8-6.4h0c4.2,1,6.9,5.4,6,9.7l-9.4,43.4c-.7,2.9-3.6,4.6-6.4,3.7h-.1Z"/>
          <polygon class="cls-7" points="0 107.37 14 107.27 14.1 115.07 0 115.17 0 107.37"/>
        </g>
        <path class="cls-10" d="M60.7,141.37l-19.8,5.4s-13-3.2-20.1-4.6l1.7-27.5,34.6.9c.8,9.7,2,19,3.6,25.7h0v.1h0Z"/>
        <g>
          <path class="cls-10" d="M49.9,203.67h0c3.8,0,7-2.5,7.3-5.7l4.7-58.8c.4-5.4-4.6-10-11-10h0c-6.3,0-11.3,4.4-11,9.7l2.8,58.9c.2,3.3,3.4,5.9,7.3,5.9h-.1Z"/>
          <path class="cls-10" d="M42.7,270.77l9.5.2,5-72.9c0-3.4-3.1-6.3-7.2-6.4h0c-4.1,0-7.5,2.6-7.6,6.1l.2,73h.1Z"/>
          <path class="cls-12" d="M42.5,268.57v3.2c0,1,.5,1.9,1.4,2.5,4.4,3,18.1,11.8,27.1,11.2,1.9-.1,2.7-2,1.4-3.1l-20.2-13.9h-9.8.1s0,.1,0,.1Z"/>
        </g>
        <g>
          <path class="cls-10" d="M29.7,202.67h0c-3.8,0-7-2.5-7.3-5.7l-4.7-58.8c-.4-5.4,4.6-10,11-10h0c6.3,0,11.3,4.4,11,9.7l-2.8,58.9c-.2,3.3-3.4,5.9-7.3,5.9h.1Z"/>
          <path class="cls-10" d="M36.8,269.77l-9.5.2-5-72.9c0-3.4,3.1-6.3,7.2-6.4h0c4.1,0,7.5,2.6,7.6,6.1l-.2,73h-.1Z"/>
          <path class="cls-12" d="M37.1,267.57v3.2c0,1-.5,1.9-1.4,2.5-4.4,3-18.1,11.8-27.1,11.2-1.9-.1-2.7-2-1.4-3.1l20.2-13.9h9.8l-.1.1Z"/>
        </g>
        <g>
          <rect class="cls-11" x="30.71" y="43.28" width="10.25" height="13.57"/>
          <path class="cls-1" d="M53.4,22.85c-.83-.38-1.96,0-2.94.6-.9-9.65-7.09-17.04-14.55-17.04s-13.87,7.69-14.62,17.49c-1.06-1.06-2.49-1.51-3.47-1.06-1.28.6-1.51,2.41-.45,4.15.98,1.58,2.71,2.49,4,2.19,1.13,9.27,7.16,16.36,14.47,16.36s13.34-7.09,14.47-16.28c1.21,0,2.56-.9,3.39-2.19,1.06-1.73.9-3.54-.45-4.15h.15v-.08Z"/>
          <g>
            <path class="cls-2" d="M47,20.82c-.23,0-.3,0-.45-.23-1.58-2.86-4.15-1.73-4.22-1.73-.23,0-.53,0-.75-.23,0-.23,0-.53.23-.75,1.28-.53,4.07-.98,5.65,2.11,0,.23,0,.53-.23.75h-.23v.08Z"/>
            <path class="cls-2" d="M25.96,20.82c.23,0,.3,0,.45-.23,1.58-2.86,4.15-1.73,4.22-1.73.23,0,.53,0,.75-.23,0-.23,0-.53-.23-.75-1.28-.53-4.07-.98-5.65,2.11,0,.23,0,.53.23.75h.23v.08Z"/>
            <path class="cls-2" d="M29.13,22.85c0,.98.6,1.88,1.36,1.88s1.51-.98,1.51-1.88-.6-1.88-1.36-1.88-1.51.98-1.51,1.88Z"/>
            <path class="cls-2" d="M41.8,22.85c0,.98.6,1.88,1.36,1.88s1.51-.98,1.51-1.88-.6-1.88-1.36-1.88-1.51.98-1.51,1.88Z"/>
            <path class="cls-10" d="M27.7,33.93c.68-1.13,2.49-1.88,4.37-2.11s3.77-.38,5.73-.15c1.51.15,3.17.68,4.45,1.21.3.15.68.3.75.53.23.45-.68.68-1.21.68-4.67.53-8.97.68-13.57-.15"/>
            <path class="cls-3" d="M38.48,28.66c0,1.28-.98,2.26-2.26,2.26s-2.26-.98-2.26-2.26.98,1.28,2.26,1.28,2.26-2.56,2.26-1.28Z"/>
            <path class="cls-5" d="M47.22,25.64c1.81,0,3.32,1.36,3.17,2.86s-1.73,2.64-3.62,2.56-3.32-1.36-3.17-2.86,1.73-2.64,3.62-2.56Z"/>
            <path class="cls-5" d="M26.49,25.64c1.81,0,3.32,1.36,3.17,2.86s-1.73,2.64-3.62,2.56-3.32-1.36-3.17-2.86,1.73-2.64,3.62-2.56Z"/>
            <g>
              <path class="cls-4" d="M41.64,34.54s0,2.34-1.51,3.77c-.83.83-2.04,1.51-3.77,1.51,0,0-2.56.23-4.15-1.51-.75-.75-1.13-1.96-1.13-3.77h10.7-.15Z"/>
              <path class="cls-8" d="M39.99,38.31c-.83.83-2.04,1.51-3.77,1.51,0,0-2.56.23-4.15-1.51,1.51-.75,4.75-1.51,7.92,0h0Z"/>
              <polygon class="cls-9" points="40.36 34.54 39.84 35.74 32.3 35.74 31.84 34.54 40.36 34.54"/>
            </g>
          </g>
          <path class="cls-10" d="M53.03,6.19c.6-.3,2.56-.53,1.88-1.36-.98-1.21-4.07-.45-5.43-.3.6-.45,1.66-.68,1.13-1.36-1.13-1.58-4.67-.68-6.41-.53.75-.75.45-1.36-.6-1.66-2.11-.53-4.37.15-6.33.83-.38-1.43-1.43-1.66-3.32-1.21-.9.23-1.51.68-2.34.9-.75.23-.45.15-.83-.23-.98-1.06-1.51-1.58-3.24-1.13-2.11.53-2.79,1.73-4,3.09-.6-.38-1.73-.9-2.34-.08-.53.68.38,1.81.75,2.41-.98.3-1.81.23-1.81,1.51s1.43,2.56.45,3.02c-1.21.6-2.56,0-2.34,1.73.23,1.43,1.58,2.34,1.73,3.77-.6,0-1.81.15-2.34.45-1.13.6-.3,1.88.3,2.56.3.3,2.04,1.43,1.66,2.04-.3.45-1.51,0-1.88.6s0,1.96.23,2.49,1.58,1.28,1.58,1.73-.9.68-.98,1.21c-.15.6.23,1.13.6,1.58.53.53.15,2.71,3.17,2.04.6-.15,2.26-1.81,1.88-2.26-.15-.23-.68-.38-.75-.53-.23-.53,1.28-4.52-.75-4,1.66-.83,3.54-3.84,1.06-4.82.83-.68,1.73-1.13,1.96-2.19.08-.45,0-1.28-.3-1.73-.23-.38-.68-.53-.9-.83.98-.45,4-1.58,3.69-2.71,1.21,0,2.71-.53,3.69-.9.15,0,.68-.38,1.13-.68.38.53,1.28.68,1.88.83.98.15,3.77.23,4.9-.53.3,0,.68.15.83.23.83.15,2.41.23,3.24,0,.38.6,1.58,1.73,1.81,2.11.3.45.6,1.28,1.13,1.58,0,1.43.53,2.94,1.06,4.22.08.23.45.68.38.9,0,.3-.75.75-.9,1.21-.38,1.13.3,2.26.45,3.39.15.68-.15,1.36-.08,2.04,0,.83.68,3.84,2.11,3.47,1.66-.38.15-1.96.3-2.71,0-.38.6-.68.83-.98.6-.68,1.06-1.36,1.43-2.11.53-1.13.6-2.04-.45-2.86.83-1.13,4.15-3.77.83-4.37,1.51-1.36.68-4.52-.9-5.65,1.13-.53,2.79-.98,3.24-2.19.53-1.21-1.21-1.81-2.41-1.73l.3-.23s0-.08,0-.08Z"/>
        </g>
        <path class="cls-14" d="M62.3,133.07c.2,1.4-.9,2.7-2.7,3-14,2.2-25.2,3.1-37.9,1.2-.9-.1-2.2-.3-3.6-.4-1.8-.2-3.2-1.5-3.1-2.9.4-4.2,1.6-10,3-20.1.8-7.6.5-15.2-.7-22.8l-5.3-32.7s1.6-.7,3.9-1.7c1.5-.7,3.4-1.5,5.4-2.4,5.7-2.5,11.1-4.5,11.5-4.5l9.2-.3c.3,0,4.2,1.4,7.4,2.7,1.9.8,3.6,1.5,4.3,2l7.8,3.4-3.3,30.1v.3c-1.3,11.7,2.7,37.1,4.1,45.1h0Z"/>
        <g>
          <path class="cls-7" d="M31.3,46.77s.5,2.3,5,3.2c0,0-1.3,6-5.3,8.3,0,0-1.5-5.5-4.9-6.6,0,0-.8-2,5.3-4.9h-.1Z"/>
          <path class="cls-7" d="M39.9,46.57s-.5,2.3-5,3.2c0,0,1.3,6,5.3,8.3,0,0,1.5-5.5,4.9-6.6,0,0,.8-2-5.3-4.9h.1Z"/>
        </g>
      </g>
    </g>
  </g>
</svg>