<?xml version="1.0" encoding="UTF-8"?>
<svg id="Layer_2" data-name="Layer 2" xmlns="http://www.w3.org/2000/svg" viewBox="0 0 44.08 65.34">
  <defs>
    <style>
      .cls-1, .cls-2 {
        fill: #603813;
      }

      .cls-3 {
        fill: #d9a2a0;
      }

      .cls-4 {
        fill: #caa1a2;
      }

      .cls-2 {
        isolation: isolate;
        opacity: .5;
      }

      .cls-5 {
        fill: #d9baba;
      }

      .cls-6 {
        fill: none;
        stroke: #630;
        stroke-linecap: round;
        stroke-miterlimit: 10;
      }

      .cls-7 {
        fill: #d38a17;
      }
    </style>
  </defs>
  <g id="Layer_1-2" data-name="Layer 1">
    <g id="boy-smiling">
      <path class="cls-4" d="M17.91,62.83h0c1.9,3.4,6.7,3.3,8.4,0h0c.4-.7.5-1.4.5-2.2v-13.1h-9.6v13c0,.8.2,1.6.6,2.4h.1s0-.05,0,0v-.1h0Z"/>
      <path class="cls-5" d="M43.51,32.33c-.9,1.4-2.2,2.4-3.5,2.6h-1.1c-.4,3.7-1.7,7.1-3.6,9.9-3.6,5.4-9,8.7-13,8.5h-.9c-4.3,0-9.2-3-12.6-7.9-1.9-2.7-3.3-6.1-3.9-9.8h-.3c-1.3-.1-2.8-1.1-3.7-2.5-.2-.2-.3-.5-.4-.7-.2-.4-.3-.7-.4-1H.11c-.3-1.4,0-2.6,1.1-3.1h0c1-.4,2.2-.1,3.3.7.8-11.3,7.9-21.3,16.6-21.5,2.7,0,5.2.7,7.5,2.1,5.3,3.3,9.2,11.2,10.1,19.2.5-.5,1.1-.9,1.7-1.2s1.6-.4,2.3-.1c1.6.6,1.8,2.8.6,4.8h.2Z"/>
      <g>
        <path class="cls-1" d="M10.01,26.33c.2,0,.4,0,.5-.3,1.7-3.2,4.6-1.9,4.7-1.8.3,0,.6,0,.8-.3,0-.3,0-.6-.3-.8-1.4-.6-4.5-1-6.2,2.3,0,.3,0,.6.2.8h.3v.1Z"/>
        <path class="cls-1" d="M27.41,23.73s.3.2.5,0c2.8-1.1,4,1.3,4,1.4,0,.2.4.3.6.2.2,0,.3-.4.2-.6-.5-1.2-2.3-3.1-5.2-1.9-.2,0-.4.4-.3.6v.2h.2v.1h0Z"/>
        <path class="cls-1" d="M13.51,28.63c0,1.1.7,2.1,1.5,2.1s1.6-1,1.6-2.1-.7-2.1-1.5-2.1-1.6,1-1.6,2.1Z"/>
        <path class="cls-1" d="M27.41,28.63c0,1.1.7,2.1,1.5,2.1s1.6-1,1.6-2.1-.7-2.1-1.5-2.1-1.6,1-1.6,2.1Z"/>
        <path class="cls-6" d="M17.21,42.63c.2.2,1.5,3.1,5,3,3.4,0,4.8-2.7,5-3"/>
        <path class="cls-2" d="M24.71,36.63c0,1.4-1.1,2.5-2.5,2.5s-2.5-1.1-2.5-2.5,1.1,1.4,2.5,1.4,2.5-2.8,2.5-1.4Z"/>
        <path class="cls-3" d="M33.51,31.63c2,0,3.6,1.5,3.5,3.2s-1.9,2.9-3.9,2.8-3.6-1.5-3.5-3.2,1.9-2.9,3.9-2.8Z"/>
        <path class="cls-3" d="M10.71,31.63c2,0,3.6,1.5,3.5,3.2s-1.9,2.9-3.9,2.8-3.6-1.5-3.5-3.2,1.9-2.9,3.9-2.8Z"/>
      </g>
      <path class="cls-7" d="M41.61,14.73c-1.6-5.4-4.8-10.1-10.1-12.7C27.21-.07,12.91-3.47,5.01,9.43,1.81,14.63,1.11,21.23,1.11,27.23s.9,10.3,4.1,14.4c.5.6,1.1,1.2,1.7,1.7,0,0-.7-3.6-1.2-5.1-1.6-5.3-1.4-11.5.3-16.8.3-.8.6-1.5.9-2.3.1-.4,1.1-2.2,1-2.5,1.7,4.1,7.3,5.7,11.3,6.4-.7-1.1-1.9-1.7-2.5-2.9-.7-1.2-1.1-2.5-1.5-3.7,4.8,1.8,9.8,5.2,15.3,4.9-1.2-1.2-4.4-3.6-4.3-5.6,1.2,1.7,3.3,2.2,5.2,2.9,1.2.4,2.5.7,3.7,1.1,1,.3,1,.2,1.3,1.1,1.8,6,2.6,13.2,1.2,19.4.3-1.5,2.8-4.4,3.3-5.8.6-1.7,1.1-3.4,1.5-5.2.7-3.5.7-7.2.2-10.7-.2-1.3-.5-2.6-.8-3.8h-.2Z"/>
    </g>
  </g>
</svg>