<?xml version="1.0" encoding="UTF-8"?>
<svg xmlns="http://www.w3.org/2000/svg" xmlns:xlink="http://www.w3.org/1999/xlink" viewBox="0 0 73.95 140.44">
  <defs>
    <style>
      .cls-1 {
        stroke: #282828;
        stroke-width: .75px;
      }

      .cls-1, .cls-2 {
        fill: none;
        stroke-linecap: round;
        stroke-miterlimit: 10;
      }

      .cls-3 {
        fill: #e0a587;
      }

      .cls-4, .cls-5 {
        fill: #603813;
      }

      .cls-6 {
        fill: #2e89ce;
      }

      .cls-7 {
        fill: #d9a2a0;
      }

      .cls-8, .cls-9 {
        fill: #88a5d8;
      }

      .cls-10, .cls-11, .cls-5, .cls-9 {
        isolation: isolate;
      }

      .cls-12 {
        fill: #103d54;
      }

      .cls-13 {
        fill: #fff;
      }

      .cls-11 {
        fill: url(#linear-gradient);
      }

      .cls-11, .cls-9 {
        mix-blend-mode: multiply;
      }

      .cls-14 {
        fill: #d7d6d8;
      }

      .cls-15 {
        fill: #752c46;
      }

      .cls-16 {
        fill: #6c3231;
      }

      .cls-17 {
        fill: #db9673;
      }

      .cls-5 {
        opacity: .5;
      }

      .cls-18 {
        fill: #226baf;
      }

      .cls-2 {
        stroke: #630;
      }
    </style>
    <linearGradient id="linear-gradient" x1="36.56" y1="-298.13" x2="36.56" y2="-279.41" gradientTransform="translate(0 -279.06) scale(1 -1)" gradientUnits="userSpaceOnUse">
      <stop offset="0" stop-color="#88a5d8"/>
      <stop offset="1" stop-color="#88a5d8" stop-opacity="0"/>
    </linearGradient>
  </defs>
  <g class="cls-10">
    <g id="Layer_2" data-name="Layer 2">
      <g id="Layer_1-2" data-name="Layer 1">
        <g id="german-man-doctor-cut">
          <g>
            <path class="cls-3" d="M11.21,112.08l-10.03-1.05c0,.06,1.48-24.32,1.48-24.32.08-1.55,2.99-2.65,6.58-2.52h0c3.58.19,6.61,1.55,6.53,3.05l-4.56,24.85h0Z"/>
            <path class="cls-3" d="M8.98,139.14H3.1c0,.07-1.96-29.02-1.96-29.02,0-1.81,2.25-3.28,5.09-3.35h0c2.84,0,5.29,1.39,5.29,3.14l-2.55,29.22h0Z"/>
          </g>
          <g>
            <path class="cls-3" d="M63.89,112.38l10.03-1.05c0,.06-1.48-24.32-1.48-24.32-.08-1.55-2.99-2.65-6.58-2.52h0c-3.58.19-6.61,1.55-6.53,3.05l4.56,24.85h0Z"/>
            <path class="cls-3" d="M66.11,138.68h5.88c0,.07,1.96-28.34,1.96-28.34,0-1.77-2.25-3.2-5.09-3.27h0c-2.84,0-5.29,1.36-5.29,3.07l2.55,28.54h-.01Z"/>
          </g>
          <path class="cls-15" d="M24.73,77.22c-3.01-5.24-4.02-12.39-1.67-18.11,2.52-6.14,9.57-7.59,15.25-7.29,6.25.33,11.17,4.03,12.65,10.51,1.18,5.17.11,10.8-1.01,15.86-.2.9,1.11,1.29,1.31.38,1.27-5.76,2.27-11.9.75-17.72-1.75-6.7-7.48-9.98-13.7-10.48-6.34-.51-13.43,1.61-16.42,8-2.8,5.97-1.5,14.06,1.67,19.56.45.79,1.63.07,1.18-.73h0v.02Z"/>
          <g>
            <path class="cls-18" d="M59.19,96.55s10.59-1.96,14.52-6.26c-1.36-5.18-11.8-29.08-19.75-31.89-1.47-.52-2.86-.99-4.15-1.4-4.16,5.17-8.85,9.82-13.95,13.84-.37.29-.8.6-1.25.51-.36-.07-.63-.38-.88-.67-3.76-4.39-7.51-8.77-11.27-13.16-3.69,1.58-7.42,3.66-9.06,6.11-3.79,5.63-11.86,20.09-13.4,27.94,2.05,3.98,8.61,6.46,13.72,6.35.61-1.91,1.06-3.72,1.86-6.34-.45,11.14-3.01,46.91-3.01,46.91,0,0,22.49,4.39,48.4,0l-3.21-46.37,1.44,4.44h-.01Z"/>
            <path class="cls-12" d="M58.17,93.43l-.03-.14s.15-.05.42-.13l.04.14c-.27.09-.42.13-.42.13h-.01ZM59.01,93.16l-.04-.14c.13-.04.27-.09.42-.14l.04.14c-.15.05-.29.1-.42.14ZM59.85,92.88l-.04-.14c.13-.05.27-.09.42-.14l.04.14c-.14.05-.28.1-.42.15h0ZM60.68,92.58l-.04-.14c.13-.05.27-.1.41-.15l.04.14c-.14.05-.28.1-.41.15ZM61.51,92.28l-.04-.13c.14-.05.27-.1.41-.15l.04.13c-.14.05-.28.1-.41.15ZM62.33,91.97l-.04-.13c.14-.05.27-.1.41-.16l.04.13c-.14.06-.28.11-.41.16ZM63.15,91.65l-.05-.13c.14-.05.27-.11.41-.16l.05.13c-.14.06-.28.11-.41.16ZM63.97,91.31l-.05-.13c.13-.06.27-.11.41-.17l.05.13c-.14.06-.27.12-.41.17ZM64.78,90.97l-.05-.13c.13-.06.27-.12.4-.18l.05.13c-.13.06-.27.12-.4.18ZM65.59,90.61l-.05-.13c.13-.06.27-.12.4-.18l.05.13c-.13.06-.27.12-.4.18ZM66.39,90.24l-.05-.13c.13-.06.27-.13.4-.19l.05.13c-.13.06-.27.13-.4.19ZM67.19,89.86l-.05-.13c.13-.07.26-.13.39-.2l.06.13c-.13.07-.26.13-.4.2ZM67.98,89.45l-.06-.13c.13-.07.26-.14.39-.21l.06.13c-.13.07-.26.14-.39.21ZM68.76,89.02l-.06-.13c.13-.07.26-.15.38-.22l.06.12c-.13.08-.26.15-.39.22h.01ZM69.52,88.57l-.06-.12c.13-.08.25-.16.38-.24l.07.12c-.12.08-.25.16-.38.24h-.01ZM70.28,88.09l-.07-.12c.12-.08.25-.17.37-.25l.07.12c-.12.09-.24.17-.37.26h0ZM71.01,87.57l-.07-.12c.12-.09.24-.18.35-.28l.08.12c-.12.09-.23.18-.36.28ZM71.71,87l-.08-.11c.12-.1.22-.2.33-.3l.09.11c-.11.1-.22.21-.34.31h0Z"/>
            <path class="cls-12" d="M13.68,94.34h-.31v-.14h.43v.14h-.13.01ZM14.25,94.33v-.14c.14,0,.28-.02.42-.03v.14c-.13.01-.28.03-.42.03ZM12.94,94.31c-.15-.01-.29-.02-.43-.04v-.14c.16.02.3.03.44.04v.14h0ZM12.07,94.22c-.14-.02-.29-.04-.43-.07l.02-.14c.14.03.28.05.43.07l-.02.14ZM11.21,94.06c-.14-.03-.28-.06-.43-.1l.03-.14c.14.03.28.07.42.1l-.03.14h.01ZM10.36,93.85c-.14-.04-.28-.08-.42-.13l.04-.14c.14.04.28.09.42.12l-.03.14h-.01ZM9.52,93.58c-.14-.05-.28-.1-.41-.15l.04-.13c.14.05.27.1.41.15l-.04.14h0ZM8.7,93.27c-.14-.06-.27-.11-.41-.17l.05-.13c.13.06.27.12.41.17l-.05.13ZM7.89,92.92c-.14-.06-.27-.13-.4-.19l.05-.13c.13.06.26.13.4.19l-.05.13ZM7.09,92.53c-.13-.07-.26-.14-.39-.21l.06-.13c.13.07.26.14.39.21l-.06.13ZM6.31,92.11c-.13-.07-.26-.15-.39-.22l.06-.12c.13.08.25.15.38.22l-.06.13h0ZM5.54,91.65c-.13-.08-.25-.16-.38-.24l.07-.12c.12.08.25.16.38.24l-.07.12ZM4.79,91.16c-.13-.08-.25-.17-.37-.25l.07-.12c.12.08.24.17.37.25l-.07.12ZM4.06,90.65c-.12-.09-.25-.18-.36-.26l.07-.12c.12.09.24.17.36.26l-.07.12ZM3.33,90.12c-.12-.09-.24-.19-.36-.28l.08-.12c.11.09.23.18.35.28l-.07.12ZM2.63,89.56c-.12-.1-.24-.2-.35-.29l.08-.11c.11.09.22.19.35.29l-.08.11ZM1.94,88.97c-.12-.11-.24-.21-.34-.3l.08-.11c.1.09.21.19.34.3l-.08.11ZM1.26,88.36c-.21-.2-.33-.32-.33-.32l.09-.1s.11.12.33.32l-.09.11h0Z"/>
            <path class="cls-15" d="M36.67,136.53h-.43v-.14h.43v.14ZM37.1,136.53v-.14h.43v.14h-.43ZM35.8,136.52h-.43v-.15h.43v.15ZM37.97,136.52v-.14h.43v.14h-.43ZM34.93,136.52h-.43v-.15h.43v.15ZM38.84,136.51v-.14h.42v.14s-.43,0-.43,0h.01ZM34.06,136.51h-.43v-.15h.43v.15ZM39.71,136.5v-.14h.43v.14h-.43ZM33.19,136.49h-.43v-.15h.43v.15ZM40.59,136.48v-.14h.42v.13h-.42ZM32.32,136.46h-.43v-.16h.43v.16ZM41.45,136.46v-.14h.43s0,.13,0,.13h-.43ZM31.45,136.44l-.43-.02v-.14l.44.02v.14h-.01ZM42.32,136.43v-.14l.43-.02v.14l-.43.02ZM30.58,136.4l-.43-.02v-.14l.44.02v.14h-.01ZM43.19,136.39v-.14l.43-.02v.14l-.43.02ZM29.71,136.37l-.43-.02v-.14l.44.02v.14h-.01ZM44.06,136.35v-.14l.43-.02v.14l-.43.02ZM28.84,136.32l-.43-.02v-.14l.44.02v.14h0ZM44.93,136.31v-.14l.43-.02v.14l-.43.02ZM27.98,136.28l-.43-.03v-.14l.44.03v.14h0ZM45.81,136.26l-.02-.14h.01c.14,0,.28-.02.42-.03v.14c-.13,0-.28.02-.42.03h0ZM27.11,136.22l-.43-.03v-.14l.44.03v.14h0ZM46.66,136.2v-.14l.43-.03v.14l-.43.03ZM26.24,136.17l-.43-.03v-.14l.44.03v.14h0ZM47.53,136.14v-.14l.42-.03v.14l-.42.03ZM25.37,136.1l-.43-.03v-.14l.44.03v.14h0ZM48.4,136.07v-.14l.42-.03v.14l-.42.03ZM24.5,136.04c-.15-.01-.29-.02-.43-.04v-.14c.15.01.3.02.44.04v.14h0ZM49.27,136v-.14c.13-.01.28-.02.42-.04v.14c-.14.01-.28.03-.42.04ZM23.64,135.96c-.15-.01-.29-.03-.43-.04v-.14c.15.01.3.03.44.04v.14h0ZM50.13,135.93v-.14c.13-.01.28-.03.42-.04v.14c-.13.01-.28.03-.42.04ZM22.77,135.89c-.15-.01-.29-.03-.43-.04v-.14c.15.01.3.03.45.04v.14h-.02ZM51,135.84v-.14c.13-.01.28-.03.42-.04v.14c-.13.01-.28.03-.42.04ZM21.9,135.8l-.43-.04v-.14l.44.04v.14h0ZM51.86,135.76v-.14l.42-.05v.14l-.42.05ZM21.04,135.71l-.43-.05v-.14l.44.05v.14h0ZM52.73,135.67v-.14l.42-.05v.14l-.42.05ZM20.17,135.62l-.43-.05v-.14l.45.05v.14h-.02ZM53.6,135.57v-.14l.42-.05v.14l-.42.05ZM19.31,135.52l-.43-.05v-.14l.45.05v.14h-.02ZM54.46,135.46v-.14l.42-.05v.14l-.42.05ZM18.44,135.41l-.43-.06v-.14l.45.06v.14h-.02ZM55.32,135.36v-.14h0c.14-.02.27-.03.41-.05l.02.14c-.14.02-.27.04-.41.05h-.02ZM17.58,135.3c-.15-.02-.29-.04-.43-.06l.02-.14c.14.02.28.04.43.06l-.02.14ZM56.18,135.24l-.02-.14h.02c.14-.02.27-.04.41-.06l.02.14c-.14.02-.27.04-.41.06h-.02ZM16.71,135.18c-.15-.02-.29-.04-.43-.06l.02-.14c.14.02.28.04.43.06l-.02.14ZM57.04,135.12l-.02-.14c.14-.02.29-.04.43-.06l.02.14c-.14.02-.29.04-.43.06ZM15.85,135.06c-.15-.02-.29-.04-.43-.07l.02-.14c.14.02.28.04.43.07l-.02.14ZM57.9,135l-.02-.14c.14-.02.29-.04.43-.06l.02.14c-.14.02-.29.04-.43.06ZM14.99,134.92c-.15-.02-.29-.05-.43-.07l.02-.14c.14.02.28.05.43.07l-.02.14ZM58.76,134.87l-.02-.14h.03c.13-.02.27-.05.4-.07l.02.14c-.13.02-.27.04-.4.06h-.03ZM14.13,134.78c-.16-.03-.3-.05-.43-.07l.02-.14c.13.02.27.05.43.07l-.02.14ZM59.62,134.73l-.02-.14.43-.07.02.14-.43.07ZM13.27,134.63c-.28-.05-.43-.08-.43-.08l.02-.14s.15.03.43.08l-.02.14ZM60.48,134.59l-.02-.14.21-.04.02.14-.22.04h.01Z"/>
          </g>
          <path class="cls-6" d="M46.88,56.08l-11.24,12.93-10.55-12.54c-1.32.49-2.72,1.06-4.09,1.7l14.91,16.05,14.92-16.88c-1.43-.47-2.76-.89-3.96-1.25h.01Z"/>
          <g>
            <path class="cls-13" d="M40.52,96.33c-.08-.22-.24-.42-.46-.49-.26-.09-.55.02-.75.22-.19.2-.3.48-.34.77-.09.54.02,1.1.28,1.57-.02.05-.04.11-.04.18-.11,2.38-1.33,3.34-2.86,3.47,1.24-2.69.75-5.75-.04-8.65-1.79-6.59-5.76-12.71-11.65-15.81-.05-.46-.76-.61-.88-.07-1.73,7.46.68,14.95,4.81,21.03,1.52,2.23,3.43,3.96,5.95,4.48-1.17,1.32-2.83,1.84-4.69.36-.1-.08-.2-.1-.29-.09-.12-.32-.26-.63-.44-.91-.18-.28-.39-.55-.68-.71-.29-.15-.66-.17-.92.04-.11.08-.19.2-.25.32-.29.57-.14,1.38.38,1.73.19.13.41.2.63.24.32.06.64.07.97.03.03.06.08.12.14.17,1.91,1.52,4.73,1.18,6.22-.87l.12-.18c2.4.02,4.29-2.14,4.4-4.58,0-.1-.02-.18-.06-.25.19-.2.36-.43.45-.69.07-.19.09-.4.1-.61.01-.23,0-.48-.09-.7h-.01ZM30.69,99.71c-1.71-1.75-2.96-4.14-4.03-6.36-2.21-4.55-3.13-9.78-2.17-14.79,4.2,2.31,7.19,6.09,9.29,10.55,1.25,2.65,2.16,5.64,2.44,8.58.14,1.39-.24,3.03-.97,4.32-1.68-.23-3.49-1.21-4.56-2.3h0Z"/>
            <g>
              <path class="cls-15" d="M30.34,52.75c-.28-.38-.46-.84-.52-1.33-3.35,1.2-6.27,3.42-7.94,6.96-2.8,5.97-1.5,14.06,1.67,19.56.46.79,1.63.07,1.18-.73-3.01-5.24-4.02-12.39-1.67-18.11,1.39-3.37,4.14-5.33,7.28-6.36h0Z"/>
              <path class="cls-15" d="M52.01,60.86c-.8-3.04-2.42-5.38-4.53-7.07-.85-.02-1.71-.03-2.56-.05,2.97,1.75,5.14,4.65,6.04,8.59,1.18,5.17.11,10.8-1.01,15.86-.2.9,1.11,1.29,1.31.38,1.27-5.76,2.27-11.9.74-17.72h.01Z"/>
            </g>
            <ellipse class="cls-13" cx="49.34" cy="81.43" rx="4.77" ry="5.04"/>
            <ellipse class="cls-14" cx="49.34" cy="81.43" rx="2.04" ry="2.15"/>
          </g>
          <g>
            <path class="cls-17" d="M35.19,68.99c.38.08.74-.19,1.05-.45,4.27-3.57,8.19-7.69,11.67-12.27-4.78-1.64-7.96-2.41-7.96-2.41h-6.92s-3.97,1.06-7.99,2.88c3.14,3.89,6.28,7.78,9.42,11.66.21.26.44.53.73.59Z"/>
            <rect class="cls-17" x="30.74" y="47.23" width="10.2" height="13.5"/>
            <path class="cls-3" d="M53.24,27.03c-.8-.4-1.9,0-2.9.6-.9-9.5-7-16.9-14.4-16.9s-13.7,7.6-14.5,17.4c-1.1-1-2.4-1.5-3.4-1-1.3.6-1.5,2.4-.4,4.1,1,1.6,2.7,2.5,4,2.1,1.1,9.2,7.1,16.2,14.4,16.2s13.2-7,14.4-16.2c1.2,0,2.5-.9,3.4-2.2,1.1-1.7.9-3.5-.4-4.1h-.2Z"/>
            <g>
              <path class="cls-4" d="M46.94,24.93c-.2,0-.3,0-.4-.2-1.6-2.8-4.1-1.7-4.2-1.7-.2,0-.5,0-.7-.2,0-.2,0-.5.2-.7,1.3-.5,4-.9,5.6,2.1,0,.2,0,.5-.2.7h-.3Z"/>
              <path class="cls-4" d="M26.04,24.93c.2,0,.3,0,.4-.2,1.6-2.8,4.1-1.7,4.2-1.7.2,0,.5,0,.7-.2,0-.2,0-.5-.2-.7-1.3-.5-4-.9-5.6,2.1,0,.2,0,.5.2.7h.3,0Z"/>
              <path class="cls-4" d="M29.24,26.93c0,.9.6,1.9,1.4,1.9s1.5-.9,1.5-1.9-.6-1.9-1.4-1.9-1.5.9-1.5,1.9Z"/>
              <path class="cls-4" d="M41.74,26.93c0,.9.6,1.9,1.4,1.9s1.5-.9,1.5-1.9-.6-1.9-1.4-1.9-1.5.9-1.5,1.9Z"/>
              <path class="cls-2" d="M31.84,38.83c.2.2,1.4,2.8,4.5,2.7,3.1,0,4.3-2.4,4.5-2.7"/>
              <path class="cls-16" d="M27.74,37.93c.7-1.1,2.5-1.8,4.4-2.1s3.8-.4,5.7,0c1.5.2,3.2.7,4.4,1.2.3,0,.7.3.8.6.2.5-.6.6-1.2.7-4.6.5-8.9.7-13.5,0"/>
              <path class="cls-5" d="M38.44,32.73c0,1.3-.9,2.2-2.2,2.2s-2.2-.9-2.2-2.2.9,1.3,2.2,1.3,2.2-2.5,2.2-1.3Z"/>
              <path class="cls-7" d="M47.14,29.73c1.8,0,3.3,1.4,3.2,2.8s-1.7,2.6-3.6,2.5-3.3-1.4-3.2-2.8,1.7-2.6,3.6-2.5Z"/>
              <path class="cls-7" d="M26.54,29.73c1.8,0,3.3,1.4,3.2,2.8s-1.7,2.6-3.6,2.5-3.3-1.4-3.2-2.8,1.7-2.6,3.6-2.5Z"/>
            </g>
          </g>
          <g>
            <line class="cls-1" x1="20.47" y1="25.36" x2="25.57" y2="32.85"/>
            <path class="cls-1" d="M22.16,34.72s1.81,5.06,2.88,7.67"/>
            <line class="cls-1" x1="51.66" y1="25.53" x2="46.5" y2="32.85"/>
            <path class="cls-1" d="M49.79,34.89s-1.68,4.89-2.75,7.5"/>
            <path class="cls-13" d="M36.04,48.41s4.93.03,11.19-6.02l-.27-8.88c-.02-.63-.45-1.16-1.05-1.29l-9.87-2.17-9.87,2.17c-.6.13-1.03.66-1.05,1.29l-.27,8.88c6.26,6.05,11.19,6.02,11.19,6.02Z"/>
          </g>
          <path class="cls-16" d="M52.94,10.43c.6-.3,2.5-.5,1.9-1.3-.9-1.2-4-.4-5.4-.3.6-.4,1.6-.7,1.1-1.4-1.1-1.6-4.6-.7-6.3-.5.7-.7.5-1.4-.6-1.6-2.1-.5-4.4.2-6.3.8-.4-1.4-1.5-1.6-3.3-1.2-.9.2-1.5.7-2.3.9-.7.2-.5.2-.8-.2-1-1.1-1.5-1.6-3.2-1.1-2.1.6-2.8,1.7-3.9,3-.6-.4-1.7-.9-2.3,0-.5.7.3,1.8.8,2.4-1,.3-1.8.3-1.8,1.5s1.4,2.5.5,3c-1.2.6-2.6,0-2.3,1.7.2,1.4,1.6,2.3,1.7,3.7-.6,0-1.8,0-2.3.4-1.1.6-.3,1.9.3,2.5s2,1.4,1.6,2c-.3.4-1.5,0-1.9.6s0,2,.3,2.5c.2.5,1.5,1.3,1.5,1.7s-.9.7-1,1.2c0,.6.2,1.1.6,1.6.5.5.2,2.7,3.2,2,.6,0,2.2-1.8,1.8-2.2s-.7-.4-.8-.5c-.3-.5,1.2-4.5-.7-4,1.7-.8,3.5-3.8,1-4.8.8-.6,1.7-1.1,1.9-2.1,0-.5,0-1.3-.3-1.7-.2-.4-.6-.5-.9-.9,1-.5,3.9-1.6,3.6-2.7,1.2,0,2.7-.5,3.7-.9,0,0,.7-.4,1.1-.7.4.5,1.3.7,1.9.8,1,.2,3.7.2,4.9-.5.3,0,.7.2.8.2.8.2,2.4.2,3.2,0,.4.6,1.5,1.7,1.8,2.1.3.4.6,1.2,1.1,1.6,0,1.4.5,2.9,1,4.2,0,.2.4.7.4.9,0,.3-.8.8-.9,1.2-.4,1.1.3,2.3.5,3.3,0,.7-.2,1.3,0,2,0,.8.7,3.8,2.1,3.4,1.7-.4,0-2,.3-2.7,0-.4.6-.7.8-1,.6-.6,1.1-1.3,1.4-2.1.5-1.1.6-2-.4-2.8.8-1.1,4.1-3.8.9-4.4,1.5-1.3.7-4.5-.9-5.6,1.1-.5,2.8-1,3.2-2.1.5-1.2-1.2-1.8-2.4-1.7v-.2h.1Z"/>
          <g>
            <path class="cls-8" d="M36.55,0c5.14,0,11.63,1.91,15.48,3.21,2,.68,3.36,2.55,3.39,4.66.03,2.66,0,6.66-.31,11.24-.01.2-.19.34-.39.31-1.74-.31-9.51-1.58-18.17-1.58s-16.42,1.28-18.17,1.58c-.2.03-.38-.11-.39-.31-.3-4.58-.34-8.57-.31-11.24.02-2.12,1.38-3.98,3.39-4.66,3.85-1.31,10.34-3.21,15.48-3.21Z"/>
            <path class="cls-11" d="M36.55,17.49c8.72,0,16.65,1.31,18.21,1.58.31-4.62.34-8.63.31-11.19-.02-1.96-1.29-3.7-3.15-4.33-3.51-1.19-10.18-3.2-15.36-3.2s-11.85,2-15.36,3.2c-1.86.63-3.13,2.37-3.15,4.33-.03,2.56,0,6.57.31,11.19,1.56-.27,9.49-1.58,18.21-1.58h-.02Z"/>
            <path class="cls-9" d="M36.55,16.77c-12.4,0-17.18-2.18-18.82-3.3.05,1.73.13,3.63.26,5.64,0,.2.19.34.39.31,1.74-.31,9.51-1.58,18.17-1.58s16.42,1.28,18.17,1.58c.2.03.38-.11.39-.31.13-2.02.22-3.92.26-5.64-1.64,1.12-6.42,3.3-18.82,3.3Z"/>
          </g>
        </g>
      </g>
    </g>
  </g>
</svg>