<?xml version="1.0" encoding="UTF-8"?>
<svg id="Layer_2" data-name="Layer 2" xmlns="http://www.w3.org/2000/svg" viewBox="0 0 153.32 167.96">
  <defs>
    <style>
      .cls-1, .cls-2 {
        fill: #603813;
      }

      .cls-3 {
        fill: #d4afaf;
      }

      .cls-4 {
        fill: #e6e6e6;
      }

      .cls-5 {
        fill: #d9a2a0;
      }

      .cls-6, .cls-2 {
        isolation: isolate;
        opacity: .5;
      }

      .cls-6, .cls-7 {
        fill: #d9baba;
      }

      .cls-8 {
        fill: #8b2b0e;
      }

      .cls-9 {
        fill: #86a33d;
      }

      .cls-10 {
        fill: none;
        stroke: #630;
        stroke-linecap: round;
        stroke-miterlimit: 10;
      }
    </style>
  </defs>
  <g id="Layer_1-2" data-name="Layer 1">
    <g id="german-girl-hiding">
      <g>
        <g>
          <path class="cls-3" d="M111.55,134c-.5.26-1.03.31-1.53.26l-1.81-.55c-2.47-.75-5.15-.84-7.72-.58.29.4.59.8.91,1.11,3.03,4.04.85,3.69.85,3.69l-3.95-4.11c-.19-.06-21.57,1.54-27.47,2.14-1.16.06-2.35.22-3.4-.1s-2.65-1.53-3.13-3.03c-.38-1.15-.34-2.29-.28-3.52.69-6.03,3.64-29.04,4.69-34.54.66-3.54,1.41-7.37,2.93-10.65.14-.48.51-.99.94-1.38l1.34.72c3.64,2.04,6.03,5.79,6.11,9.97-.09.29.02.63-.04.82s-.14.48-.11.69l-6.52,32.01c10.48.07,24.37,1.91,24.37,1.91.29.09,3.76-1.77,5.17-1.96,1.29-.13,2.61-.04,3.85.34s3.18,1.49,4.35,2.78c.55.58,1.14,1.39,1.29,2.26.08.75-.35,1.14-.87,1.5l.1.03-.06.19h0Z"/>
          <path class="cls-4" d="M67.55,85.27c-1.33,3.34-2.92,9.61-2.04,19.34.12.97.96,1.64,1.9,1.62,2.57-.26,7.63-.48,10.77,1.51.96.6,2.17.04,2.3-1.07.67-6.66,1.33-22.46-5.72-24.92-2.95-.9-6.02.66-7.21,3.52Z"/>
        </g>
        <path class="cls-4" d="M67.96,148.8c-6.02.66-12.27,0-18.17-1.79s-8.2-3.12-11.82-5.57l-4.86-3.14s2.18-9.21,6.24-15.04c3.33-4.81,5.01-10.32,5.33-16.15l1.33-25.89c.17-2.96,1.96-5.43,4.86-6.73l3.98-1.8h0l4.88-2.36,8.66,2.63s2,1.96,4.25,4.83c.52.68,1.04,1.36,1.56,2.04,2.84,3.98,5.56,9.07,4.78,12.99l-1.62,7.72c-2.18,10.56-4.04,21.12-4.92,31.87-.31,3.75-1.39,8-4.45,16.32h0l-.03.1h0Z"/>
        <path class="cls-7" d="M67.25,137.15c-.53.05-1.04,0-1.48-.24-.57-.17-1.03-.73-1.54-1.09-2.12-1.58-4.5-2.62-7.01-3.28.17.47.34.93.41,1.37,1.45,4.81-.53,3.79-.53,3.79l-2.15-5.23c-.13-.25-20.74-6.31-26.35-8.02s-2.19-.67-3.15-1.27c-1.19-.88-1.95-2.47-1.9-4.01.03-1.13.5-2.34,1.01-3.33,2.78-5.39,13.79-25.84,16.78-30.55,1.96-3.04,3.92-6.39,6.53-8.82.43-.39.86-.78,1.33-.95l.98,1.23c2.66,3.2,3.63,7.55,2.13,11.46l-.26.86c-.06.19-.14.48-.3.64l-17.52,27.51c9.76,3.8,22.08,10.46,22.08,10.46.29.09,4.14-.3,5.51.01,1.24.38,2.47.75,3.44,1.67,1.35,1.03,2.46,2.51,3.1,4.17.27.81.61,1.75.38,2.51s-.73,1.03-1.26,1.07l-.19-.06h0l-.03.1Z"/>
        <path class="cls-4" d="M44.27,76.73c-2.86,2.56-7.28,7.87-11.04,17.84-.2.67.07,1.48.71,1.77,2.32.91,7.51,3.33,9.4,7.02.46.87,1.69.93,2.27.07,3.65-5.85,11.94-20.79,6.82-26.51-2.11-2.3-5.66-2.24-8.09-.07l-.1-.03.03-.1h0Z"/>
        <g>
          <path class="cls-8" d="M90.88,64.62c1.55-4.41.62-8.54.11-12.65-.17-1.82.06-4.97-.71-6.56-.91-2.15-4.82-2.61-6.66-3.38-6.87-2.71-13.99-4.57-21.21-6.14-2.25-.48-3.32-1.74-5.2,1.02-1.27,1.8-1.89,2.44-1.89,2.44-3.41,3.02-7.79,4.07-10.76,8.37-2.33,3.55-3.52,8.49-2.2,12.01.46-1.52,1.36-3.43,2.14-4.65,1.15,1.7,1.4,4.27,2.42,6.04s2.36,3.52,3.84,4.81c.6-1.27.77-3.2,1.49-4.22.22,3.39,2.7,5.81,4.58,7.84.55-1.81.96-4.18,2.07-2.7.29.4.39,1.78.72,2.4s.81,1.08,1.27,1.63c1.36,1.66,1.94,2.15,4.03,1.44,1.46-.7,3.39-1.57,4.74-2.61.22,1.32-.74,3.1-1.24,4.41,1.84.77,4.92-.79,6.7-2.22-.03,1.13-.67,2.19-.79,3.29,2.53.56,8.43-2.42,10.51-4.81.82,1.39.93,4.13,0,5.82,3.08-2.6,4.8-7.58,6.24-11.61l-.19-.06-.03.1Z"/>
          <path class="cls-5" d="M63.73,77.66h0c-3.14-.96-4.86-4.18-3.9-7.32l3.16-10.37,8.66,2.63-3.94,12.94c-.52,1.71-2.26,2.64-3.97,2.12h0Z"/>
          <path class="cls-7" d="M88.04,57.21c-.9,1.6-1.65,3.03-2.78,4.35-.36.51-.7.93-1.16,1.41-5.16,6.02-11.97,8.93-18.13,6.96-2.95-.9-5.33-2.97-7.1-5.7-.45-.55-.79-1.17-1.09-1.89-2.66-5.59-3.18-13.13-.55-20.75,4.26-12.63,14.84-20.43,23.92-17.46,1.33.41,2.58,1.1,3.67,1.95,6.32,4.84,8.87,15.59,5.29,26.35"/>
          <g>
            <path class="cls-1" d="M68.23,45.46c.19.06.38.12.56-.14,2.54-2.55,4.93-.48,4.99-.35.29.09.57.17.85-.05.09-.29.17-.57-.05-.85-1.16-.98-3.99-2.25-6.56.39-.09.29-.17.57-.04.82l.29.09-.03.1Z"/>
            <path class="cls-1" d="M85.66,47.96s.23.28.48.14c2.98-.24,3.43,2.39,3.4,2.49-.06.19.29.4.51.36.19.06.4-.29.36-.51-.13-1.29-1.29-3.62-4.4-3.31-.19-.06-.5.26-.46.48l-.06.19.19.06h0l-.03.1Z"/>
            <path class="cls-1" d="M70.9,48.66c-.32,1.05.06,2.2.82,2.43s1.81-.49,2.13-1.53-.06-2.2-.82-2.43-1.81.49-2.13,1.53Z"/>
            <path class="cls-1" d="M84.21,52.71c-.32,1.05.06,2.2.82,2.43s1.81-.49,2.13-1.53-.06-2.2-.82-2.43-1.81.49-2.13,1.53Z"/>
            <path class="cls-10" d="M69.27,60.85c-.06.19-.17,3.28,2.54,4.62,2.64,1.22,4.57.35,4.85.12"/>
            <path class="cls-2" d="M79.58,57.02c.66,1.24.23,2.67-1.01,3.33s-2.67.23-3.33-1.01,1.65.71,2.87.14c1.24-.66.88-3.58,1.57-2.43l-.1-.03h0Z"/>
            <path class="cls-5" d="M87.95,57.18c-.9,1.6-1.65,3.03-2.78,4.35-.36.51-.7.93-1.16,1.41-.75-.96-.85-2.34-.41-3.45.52-1.71,2.45-2.58,4.22-2.25l.1.03.03-.1Z"/>
            <path class="cls-5" d="M67.36,50.7c1.9.58,2.99,2.47,2.4,4.06s-2.65,2.21-4.52,1.53-2.99-2.47-2.4-4.06,2.65-2.21,4.52-1.53Z"/>
          </g>
          <path class="cls-6" d="M59.13,64.1l-.19-.06c-.45-.55-.79-1.17-1.09-1.89-2.66-5.59-3.18-13.13-.58-20.65,4.26-12.63,14.84-20.43,23.92-17.46,1.33.41,2.58,1.1,3.67,1.95-8.85,3.13-26.07,13.58-25.76,38.21h0l.03-.1Z"/>
          <g>
            <path class="cls-7" d="M61.24,42.81c.08,3.14-1.42,5.7-3.4,5.72s-3.62-2.45-3.67-5.69c-.05-3.24,1.42-5.7,3.4-5.72,1.89-.05,3.62,2.45,3.67,5.69Z"/>
            <path class="cls-6" d="M61.24,42.81c.08,3.14-1.42,5.7-3.4,5.72s-3.62-2.45-3.67-5.69c-.05-3.24,1.42-5.7,3.4-5.72,1.89-.05,3.62,2.45,3.67,5.69Z"/>
          </g>
          <path class="cls-8" d="M90.17,49.54c-.51,4.42,1.12,4.19-3.87,12.02-4.98,7.84-2.37,4.37-3.61,6.39-1.08,1.85-3.35,3.14-3.79,5.29,1.56-.36,4.86-1.64,6.19-2.59,2.71-2.08,4-8.35,4.79-11.64l.1.03c.77-3.2,2.17-8.49,2.7-10.92l.75-2.47c1.88-6.18,2.44-13.5-.48-18.23-2.07-3.44-5.29-2.44-8.22-4.06-9-4.92-17.52-5.96-23.85,1.16-15.4,17.46-8.13,31.83-7.38,35.17.45,1.59,6.9,9.79,7.97,11.05-4.38-9.86.44-22.63,4.02-29.96,1.73-3.63,4.96-6.39,8.79-7.72h0s1.7,3.64,2.87,5.24c1.5,1.91,3.62,3.81,5.66,4.63-.11-.66-.51-1.4-.62-2.06-.1-.34-.15-.88-.25-1.22.61,1.75,2.04,3.53,3.03,5.08,1.01,1.45,2.27,2.46,3.59,3.59.27-.54-.19-3.49-.31-4.46.24.91,1.34,1.76,1.46,2.73"/>
        </g>
      </g>
      <path class="cls-9" d="M84.17,122.45c-.35-.12-.74-.19-1.15-.23-.04-.04-.07-.09-.11-.13-.85-.94-2.29-1.54-3.96-1.53-.88,0-1.83.19-2.8.59-.42.17-.85.31-1.2.55-.24.16-.41.36-.68.51,1.09-.92,1.05-2.22.24-2.88-.65-.53-1.82-.71-3-.43-.97.23-1.88.74-2.61,1.32-.7.56-1.15,1.21-1.82,1.76-.24-.21-.46-.46-.74-.66-1.37-1-3.44-1.18-5.74-.87-.59-.17-1.27-.23-1.98-.19-1.55.08-3.22.55-4.45,1.36-.65.43-1.18.95-1.52,1.55-.15.26-.33.52-.36.77-.02.18.05.32,0,.51-.09-.85-1.39-1.29-2.64-1.14-1,.12-2.05.62-2.66,1.29-.5.55-.69,1.17-.66,1.72.02.53.33.98.37,1.5-.39.04-.8.06-1.2.12-2.14.32-3.95,1.36-5.42,2.7-.77.7-1.35,1.51-1.48,2.29-.17,1.01.45,1.88,1.45,2.4.26.13.55.26.88.37-.61.41-1.1.91-1.42,1.49-.15.26-.33.52-.36.77-.02.18.05.32,0,.51-.09-.85-1.39-1.29-2.64-1.14-.03,0-.05,0-.08.01.32-1.3-.21-2.55-1.66-3.05-.62-.21-1.37-.28-2.15-.24-1.55.08-3.22.55-4.45,1.36-.65.43-1.18.95-1.52,1.55-.15.26-.33.52-.36.77-.02.18.05.32,0,.51-.09-.85-1.39-1.29-2.64-1.14-1,.12-2.05.62-2.66,1.29-.5.55-.69,1.17-.66,1.72.02.53.33.98.37,1.5-.39.04-.8.06-1.2.12-2.14.32-3.95,1.36-5.42,2.7-.77.7-1.35,1.51-1.48,2.29-.17,1.01.45,1.88,1.45,2.4,1.41.73,4.02,1.2,6.05-.03-.22.13-.3.44-.4.61-.12.21-.23.43-.36.64-1,1.77.6,3.44,2.7,3.77.05,0,.1.01.15.02-.39.28-.76.58-1.11.9-.77.7-1.35,1.51-1.48,2.29-.17,1.01.45,1.88,1.45,2.4.2.11.43.21.68.3-.07.17-.12.34-.15.51-.17,1.01.45,1.88,1.45,2.4.91.47,2.31.83,3.74.7.37.36.85.65,1.4.85-.64,1.64.89,3.12,2.86,3.43.52.08,1.1.1,1.69.01,1.06-.15,2.11-.62,3.01-1.17.4-.25.78-.51,1.13-.79.13.01.25.02.38.02.45,0,.94-.04,1.41-.17.85-.23,1.62-.68,2.26-1.19.81-.65,1.42-1.4,1.79-2.16.19-.39.21-.75.35-1.14.23-.64.9-.69,1.55-1.2.68-.53,1.1-1.21,1.3-1.83.02-.05.03-.09.04-.14.28.1.58.18.89.23.52.08,1.1.1,1.69.01,1.06-.15,2.11-.62,3.01-1.17,1.15-.71,2.12-1.58,2.79-2.5.24-.32.38-.65.54-.97.32.13.67.23,1.04.29.52.08,1.1.1,1.69.01,1.06-.15,2.11-.62,3.01-1.17.25-.15.49-.32.72-.48.33.08.71.12,1.09.13.95.02,1.97-.14,2.95-.46.5-.16.94-.4,1.42-.58.81-.31,1.01.05,1.76.07.78.03,1.67-.19,2.45-.5.7-.28,1.36-.64,1.91-1.07.38.03.78.01,1.18-.04,1.06-.15,2.11-.62,3.01-1.17,1.15-.71,2.12-1.58,2.79-2.5.34-.47.5-.94.78-1.41.48-.79,1.27-.74,2.2-1.3.97-.58,1.68-1.38,2.12-2.15.53-.92.76-1.89.5-2.71-.27-.82-1.13-1.28-2.09-1.67,1.34-1.02,2.58-1.95,3.17-3.24.69-1.51.23-3.09-1.44-3.66-.49-.17-1.05-.24-1.65-.25-.31-.18-.66-.34-1.03-.49,1.34-1.02,2.58-1.95,3.17-3.24.69-1.51.23-3.09-1.44-3.66ZM44.01,154.81c-.06.14-.11.27-.14.41-.08-.02-.16-.04-.25-.06.11-.11.22-.22.33-.33.02,0,.04-.01.06-.02ZM33.31,140.98c.04.13.09.26.13.39-.13-.06-.27-.12-.41-.18.09-.07.19-.14.28-.21ZM32.19,141.61l.16.04c-.07,0-.13,0-.17-.02,0,0,0,0,0-.01ZM82.54,137.43s0,0,0-.01l.16.04c-.07,0-.12,0-.17-.02ZM81.59,129.79s0,0,0-.01l.16.04c-.07,0-.13,0-.17-.02Z"/>
      <path class="cls-9" d="M70.45,95.71c-.14-.38-.35-.74-.59-1.08,0-.07.02-.15.02-.22.13-1.62-.37-3.31-1.49-4.51-.59-.63-1.35-1.12-2.28-1.4-.4-.12-.79-.28-1.21-.28-.28,0-.54.09-.83.05,1.41-.19,2.34-1.61,2.29-2.9-.04-1.03-.68-2.08-1.66-2.64-.81-.46-1.79-.58-2.7-.49-.87.09-1.66.46-2.5.56,0-.4.04-.83,0-1.25-.16-2.07-1.4-3.75-3.14-5.09-.26-.61-.67-1.17-1.17-1.64-1.08-1.04-2.53-1.75-3.95-1.78-.74-.02-1.48.15-2.15.55-.29.17-.6.32-.81.57-.14.17-.21.38-.38.54.57-.97.03-2.39-.9-3.13-.75-.59-1.82-.82-2.71-.56-.74.22-1.32.75-1.71,1.36-.38.58-.51,1.29-.87,1.86-.29-.24-.57-.52-.88-.75-1.66-1.21-3.62-1.41-5.57-1.05-1.03.19-2.01.63-2.67,1.36-.86.96-1.09,2.33-.82,3.61.07.33.17.68.31,1.03-.71,0-1.4.17-2.04.55-.29.17-.6.32-.81.57-.14.17-.21.38-.38.54.57-.97.03-2.39-.9-3.13-.02-.02-.04-.03-.06-.05,1.18-1.16,1.75-2.88,1.16-4.46-.25-.68-.7-1.29-1.24-1.81-1.08-1.04-2.53-1.75-3.95-1.78-.74-.02-1.48.15-2.15.55-.29.17-.6.32-.81.57-.14.17-.21.38-.38.54.57-.97.03-2.39-.9-3.13-.75-.59-1.82-.82-2.71-.56-.74.22-1.32.75-1.71,1.36-.38.58-.51,1.29-.87,1.86-.29-.24-.57-.52-.88-.75-1.66-1.21-3.62-1.41-5.57-1.05-1.03.19-2.01.63-2.67,1.36-.86.96-1.09,2.33-.82,3.61.39,1.81,1.77,4.2,4.02,4.36-.24-.02-.52.24-.71.36-.24.14-.47.29-.71.43-1.98,1.16-2.15,4.11-1,5.98.03.04.06.09.09.13-.46.02-.93.07-1.4.16-1.03.19-2.01.63-2.67,1.36-.86.96-1.09,2.33-.82,3.61.06.26.13.53.23.81-.17.13-.33.28-.48.44-.86.96-1.09,2.33-.82,3.61.25,1.16.91,2.57,1.95,3.47-.02.65.08,1.31.29,1.92-1.64,1.29-1.73,3.98-.65,5.74.29.47.65.9,1.11,1.24.81.6,1.85.87,2.86.93.45.03.89.02,1.33-.03.07.1.15.2.24.3.3.34.65.63,1.06.84.73.37,1.58.45,2.37.36,1.02-.11,1.98-.46,2.78-1.01.41-.28.7-.65,1.07-.96.63-.52,1.1-.09,1.91-.15.84-.07,1.62-.49,2.21-1.01.04-.04.09-.08.13-.12.11.32.25.62.42.9.29.47.65.9,1.11,1.24.81.6,1.85.87,2.86.93,1.29.08,2.57-.15,3.7-.65.4-.17.73-.41,1.07-.64.12.38.28.73.48,1.06.29.47.65.9,1.11,1.24.81.6,1.85.87,2.86.93.28.02.56.02.83,0,.16.33.38.65.62.93.61.71,1.41,1.28,2.29,1.66.45.19.92.26,1.37.41.77.26.63.78,1.11,1.35.49.6,1.25,1.01,1.99,1.24.67.21,1.37.31,2.05.25.23.3.5.58.81.81.81.6,1.85.87,2.86.93,1.29.08,2.57-.15,3.7-.65.58-.25,1.02-.64,1.56-.94.91-.5,1.39.13,2.41.21,1.06.09,2.13-.25,2.99-.76,1.03-.6,1.9-1.47,2.34-2.54.43-1.07.2-2.18-.14-3.29,1.64-.11,3.14-.21,4.49-1.16,1.57-1.11,2.44-3.13,1.76-4.96-.2-.53-.52-1.02-.9-1.46-.07-.42-.18-.85-.31-1.27,1.64-.11,3.14-.21,4.49-1.16,1.57-1.11,2.44-3.13,1.76-4.96ZM19.97,101.11c-.14.1-.27.22-.4.34-.04-.08-.08-.16-.12-.24.16-.04.31-.08.46-.11.02,0,.04.01.05.02ZM23.14,78.57c-.07.17-.13.34-.2.51-.04-.16-.09-.32-.14-.49.12,0,.23-.02.35-.02ZM21.94,78.43l.08.16s-.08-.09-.1-.15c0,0,.01,0,.02,0ZM58.28,110.53s.01,0,.02,0l.08.16s-.08-.09-.1-.15ZM63.32,101.67s.01,0,.02,0l.08.16s-.08-.09-.1-.15Z"/>
      <path class="cls-9" d="M153.09,28.96c-.14-.38-.35-.74-.59-1.08,0-.07.02-.15.02-.22.13-1.62-.37-3.31-1.49-4.51-.59-.63-1.35-1.12-2.28-1.4-.4-.12-.79-.28-1.21-.28-.28,0-.54.09-.83.05,1.41-.19,2.34-1.61,2.29-2.9-.04-1.03-.68-2.08-1.66-2.64-.81-.46-1.79-.58-2.7-.49-.87.09-1.66.46-2.5.56,0-.4.04-.83,0-1.25-.16-2.07-1.4-3.75-3.14-5.09-.26-.61-.67-1.17-1.17-1.64-1.08-1.04-2.53-1.75-3.95-1.78-.74-.02-1.48.15-2.15.55-.29.17-.6.32-.81.57-.14.17-.21.38-.38.54.57-.97.03-2.39-.9-3.13-.75-.59-1.82-.82-2.71-.56-.74.22-1.32.75-1.71,1.36-.38.58-.51,1.29-.87,1.86-.29-.24-.57-.52-.88-.75-1.66-1.21-3.62-1.41-5.57-1.05-1.03.19-2.01.63-2.67,1.36-.86.96-1.09,2.33-.82,3.61.07.33.17.68.31,1.03-.71,0-1.4.17-2.04.55-.29.17-.6.32-.81.57-.14.17-.21.38-.38.54.57-.97.03-2.39-.9-3.13-.02-.02-.04-.03-.06-.05,1.18-1.16,1.75-2.88,1.16-4.46-.25-.68-.7-1.29-1.24-1.81-1.08-1.04-2.53-1.75-3.95-1.78-.74-.02-1.48.15-2.15.55-.29.17-.6.32-.81.57-.14.17-.21.38-.38.54.57-.97.03-2.39-.9-3.13-.75-.59-1.82-.82-2.71-.56-.74.22-1.32.75-1.71,1.36-.38.58-.51,1.29-.87,1.86-.29-.24-.57-.52-.88-.75-1.66-1.21-3.62-1.41-5.57-1.05-1.03.19-2.01.63-2.67,1.36-.86.96-1.09,2.33-.82,3.61.39,1.81,1.77,4.2,4.02,4.36-.24-.02-.52.24-.71.36-.24.14-.47.29-.71.43-1.98,1.16-2.15,4.11-1,5.98.03.04.06.09.09.13-.46.02-.93.07-1.4.16-1.03.19-2.01.63-2.67,1.36-.86.96-1.09,2.33-.82,3.61.06.26.13.53.23.81-.17.13-.33.28-.48.44-.86.96-1.09,2.33-.82,3.61.25,1.16.91,2.57,1.95,3.47-.02.65.08,1.31.29,1.92-1.64,1.29-1.73,3.98-.65,5.74.29.47.65.9,1.11,1.24.81.6,1.85.87,2.86.93.45.03.89.02,1.33-.03.07.1.15.2.24.3.3.34.65.63,1.06.84.73.37,1.58.45,2.37.36,1.02-.11,1.98-.46,2.78-1.01.41-.28.7-.65,1.07-.96.63-.52,1.1-.09,1.91-.15.84-.07,1.62-.49,2.21-1.01.04-.04.09-.08.13-.12.11.32.25.62.42.9.29.47.65.9,1.11,1.24.81.6,1.85.87,2.86.93,1.29.08,2.57-.15,3.7-.65.4-.17.73-.41,1.07-.64.12.38.28.73.48,1.06.29.47.65.9,1.11,1.24.81.6,1.85.87,2.86.93.28.02.56.02.83,0,.16.33.38.65.62.93.61.71,1.41,1.28,2.29,1.66.45.19.92.26,1.37.41.77.26.63.78,1.11,1.35.49.6,1.25,1.01,1.99,1.24.67.21,1.37.31,2.05.25.23.3.5.58.81.81.81.6,1.85.87,2.86.93,1.29.08,2.57-.15,3.7-.65.58-.25,1.02-.64,1.56-.94.91-.5,1.39.13,2.41.21,1.06.09,2.13-.25,2.99-.76,1.03-.6,1.9-1.47,2.34-2.54.43-1.07.2-2.18-.14-3.29,1.64-.11,3.14-.21,4.49-1.16,1.57-1.11,2.44-3.13,1.76-4.96-.2-.53-.52-1.02-.9-1.46-.07-.42-.18-.85-.31-1.27,1.64-.11,3.14-.21,4.49-1.16,1.57-1.11,2.44-3.13,1.76-4.96ZM102.61,34.36c-.14.1-.27.22-.4.34-.04-.08-.08-.16-.12-.24.16-.04.31-.08.46-.11.02,0,.04.01.05.02ZM105.78,11.83c-.07.17-.13.34-.2.51-.04-.16-.09-.32-.14-.49.12,0,.23-.02.35-.02ZM104.58,11.68l.08.16s-.08-.09-.1-.15c0,0,.01,0,.02,0ZM140.92,43.78s.01,0,.02,0l.08.16s-.08-.09-.1-.15ZM145.96,34.92s.01,0,.02,0l.08.16s-.08-.09-.1-.15Z"/>
    </g>
  </g>
</svg>