<?xml version="1.0" encoding="UTF-8"?>
<svg id="Ebene_2" data-name="Ebene 2" xmlns="http://www.w3.org/2000/svg" viewBox="0 0 432.22 840.71">
  <defs>
    <style>
      .cls-1 {
        fill: #ffebe0;
      }

      .cls-1, .cls-2, .cls-3, .cls-4, .cls-5, .cls-6 {
        stroke-linecap: round;
      }

      .cls-1, .cls-3, .cls-4, .cls-5, .cls-6 {
        stroke: #03403f;
        stroke-linejoin: round;
      }

      .cls-7 {
        fill: #d9b6b6;
      }

      .cls-2 {
        stroke: #630;
        stroke-miterlimit: 10;
      }

      .cls-2, .cls-3 {
        fill: none;
      }

      .cls-8 {
        fill: #caa1a2;
      }

      .cls-9 {
        fill: #d9a2a0;
      }

      .cls-10 {
        fill: #f27406;
        opacity: .4;
      }

      .cls-10, .cls-11 {
        isolation: isolate;
      }

      .cls-4 {
        fill: #f2bd57;
      }

      .cls-5 {
        fill: #f25ca3;
      }

      .cls-12 {
        fill: #d38a17;
      }

      .cls-13 {
        fill: #d9baba;
      }

      .cls-14, .cls-11 {
        fill: #603813;
      }

      .cls-15 {
        fill: #273758;
      }

      .cls-6 {
        fill: #048c3d;
      }

      .cls-16 {
        fill: #466e9f;
      }

      .cls-11 {
        opacity: .5;
      }

      .cls-17 {
        fill: #e6e6e6;
      }
    </style>
  </defs>
  <g id="svg">
    <g id="german-boy-lemonade-down">
      <g>
        <path class="cls-7" d="M68.36,359.55h0c-11.6,0-19.56-13.59-16.25-27.52l24.2-86.86c3.32-13.92,14.92-21.55,25.86-17.9h0c12.6,4.31,18.9,22.54,12.93,37.8l-33.15,80.56c-2.65,6.96-6.96,13.92-13.26,13.92h-.33Z"/>
        <path class="cls-17" d="M84.61,229.58c-10.94,9.95-25.53,31.17-36.14,75.59l43.76,21.55,6.3-17.24c13.92-26.19,25.2-50.73,22.54-67.63-1.99-16.25-24.2-22.88-36.47-11.94h.33l-.33-.33Z"/>
        <g>
          <path id="hand12" class="cls-13" d="M369.73,376.79l19.23-1.33c3.98,0,14.59.99,17.57,3.65,3.98,3.32-4.64,4.64-22.54,6.63l19.23,20.89s9.61,15.58-5.64,11.27c0,0,6.3,18.23-8.95,10.61,0,0,3.98,16.58-13.92,3.98l-15.91-13.59c-5.3-4.64-9.28-11.27-10.28-18.23-.99-6.96.33-14.92,9.28-20.22,3.32-1.99,7.63-2.98,11.6-3.32h0l.33-.33Z"/>
          <path class="cls-7" d="M250.05,334.35h0c4.97-1.66,10.61-1.66,15.58,0l99.46,45.09-14.26,18.57-98.47-35.48c-15.25-5.64-16.91-23.54-2.65-28.84h.33v.66Z"/>
        </g>
        <g>
          <path class="cls-4" d="M412.17,501.12c-1.33-1.99-4.31-2.65-4.64-4.97v-3.98c-.66-1.66-5.64-7.96-7.29-10.28-19.89-30.17-12.93-22.21-39.45-45.75-11.6-10.28-25.53-51.72-39.79-82.55-2.65-5.97-6.3-14.92-.99-20.56,4.64-4.97,28.84-15.25,36.47-17.9,12.93-4.64,17.57-.33,22.54,10.28,32.49,68.63,34.81,71.61,36.47,84.21,1.66,11.27-1.66,22.88,1.33,34.15,5.64,21.88,9.28,39.45,11.27,40.78,1.99-.66,2.65,1.66,2.98,3.65.99,7.96,1.33,5.64-2.65,7.29-5.3,2.32-10.94,3.65-15.91,5.97l-.33-.33Z"/>
          <path class="cls-10" d="M336.58,325.73c28.84-13.59,33.49-14.26,40.78.66,32.49,68.3,34.48,71.61,36.14,83.55,1.66,10.94-1.66,22.54,1.33,34.15,6.96,26.52,9.28,39.79,11.94,41.77,1.99,1.33,1.33-2.32,2.65,5.64,0,1.66.66.66-1.66,1.99-4.64,1.99-9.28,5.3-14.26,7.29-1.33-1.33-3.65-3.98-3.98-4.97v-4.31c-.66-1.99-5.97-8.29-7.63-10.61-17.57-26.52-14.26-23.87-31.83-39.12-12.27-10.94-13.59-8.95-33.82-58.02-20.22-48.41-25.2-46.08.66-58.35l-.33.33Z"/>
          <path class="cls-3" d="M431.07,494.82c-1.66,0-2.98.33-4.64.99-4.64,1.66-8.95,3.98-12.93,6.3"/>
          <path class="cls-6" d="M391.28,468.96c2.32,3.32,4.97,7.63,8.62,13.26.99,1.66,3.65,4.64,5.3,6.96,5.97-4.64,13.26-7.63,20.56-8.95-1.33-4.97-3.32-13.26-5.97-23.54-10.28.99-20.56,5.64-28.51,12.27Z"/>
          <path class="cls-3" d="M404.54,425.86c-10.28-.99-20.22,3.98-27.85,10.61"/>
          <path class="cls-1" d="M392.28,396.02c-6.3,3.65-12.6,6.96-19.23,9.95-3.65,1.66-11.6,6.3-15.58,3.65-2.98-1.99-3.98-6.63-5.3-9.61-14.92-31.5-17.57-35.14-14.92-39.12,2.65-4.31,27.52-14.26,32.16-15.91s7.29-1.33,9.61,4.97c17.24,42.11,22.21,41.11,13.26,46.08h0Z"/>
          <path class="cls-5" d="M350.5,354.57c8.29-3.98,17.24-7.29,19.23-7.96,3.65-1.33,5.3-1.33,7.29,3.98,5.64,13.92,9.95,23.21,12.93,29.51,2.65,5.97,4.31,9.28,4.64,11.27,0,.99,0,1.33-3.32,3.32-4.97,2.98-10.28,5.97-16.25,8.62s-1.66.66-2.65,1.33h-.33c-.33,0-.66.33-.99.66-.33,0-.99.33-1.33.66-1.99.99-8.29,3.98-10.94,2.32-1.66-.99-2.65-3.65-3.32-5.97-.33-.99-.66-1.99-1.33-2.98-1.99-4.31-3.98-7.96-5.3-11.27-9.61-19.89-11.27-23.54-9.61-25.86,0,0,1.66-1.99,11.94-6.96l-.66-.66Z"/>
          <path class="cls-3" d="M368.07,317.11c-3.98,0-6.96,3.32-9.61,5.97-5.97,6.3-13.92,10.94-22.88,11.94-2.65,0-5.3,0-7.96.99-2.65.66-5.3,2.32-6.3,4.64"/>
          <path class="cls-3" d="M423.44,487.52c-3.65,0-7.29,1.66-10.28,4.31"/>
          <path class="cls-3" d="M391.95,463.65c-3.65-7.63-9.28-14.59-16.58-19.56"/>
          <path class="cls-3" d="M368.41,435.8c-5.97-3.98-9.95-10.28-13.26-16.58-3.98-7.63-7.63-15.58-10.61-23.54"/>
          <path class="cls-3" d="M340.56,387.07c-5.97-11.27-10.94-23.21-14.92-35.14"/>
          <path class="cls-3" d="M344.54,341.64c-4.64,3.65-7.96,9.28-8.62,15.25"/>
          <path class="cls-3" d="M337.24,341.31c-1.99,2.65-3.98,5.3-5.3,8.62"/>
          <path class="cls-3" d="M404.54,470.28c-.99,3.32-1.33,6.96-.99,10.61"/>
          <path class="cls-3" d="M401.23,467.96c-.66,1.66-1.33,3.65-1.33,5.64"/>
          <path class="cls-4" d="M365.09,389.72c2.32,0,2.98-.99,2.65.99-2.32.99-5.97.66-6.96,5.64v2.65c2.98-2.65,7.29-2.65,8.29-6.96.99,2.98,1.33,4.64,2.32,4.64.66,0,1.66-1.66.99-3.65-.66-1.66-1.66-1.99-2.32-3.98,17.9-6.63,13.26-29.18-3.98-27.52-25.2,2.32-18.9,29.84-.99,28.18h0Z"/>
          <path class="cls-3" d="M356.47,367.84c-1.99.66-3.32,2.32-3.98,3.98-.66,1.99-.99,3.98-.99,5.97"/>
          <path class="cls-3" d="M354.15,383.42c-.99-.99-1.66-1.99-1.99-3.32"/>
          <path class="cls-3" d="M346.86,361.87c-2.32,1.66-3.65,4.64-3.98,7.29"/>
          <path class="cls-3" d="M343.21,361.87c-1.66,1.33-2.65,3.32-2.65,5.64"/>
        </g>
      </g>
      <g>
        <path class="cls-7" d="M77.98,332.03h0c2.65,4.31,3.65,9.95,2.32,15.58l-25.86,105.76-21.22-10.28,16.91-103.11c2.65-15.91,19.89-20.56,28.18-7.63h-.33v-.33Z"/>
        <path class="cls-7" d="M250.71,359.55h0c11.6,0,19.56-13.59,16.25-27.52l-24.2-86.86c-3.32-13.92-14.92-21.55-25.86-17.9h0c-12.6,4.31-18.9,22.54-12.93,37.8l33.15,80.56c2.65,6.96,6.96,13.92,13.26,13.92h.33Z"/>
        <path class="cls-17" d="M233.8,229.58c10.94,9.95,25.53,31.17,36.14,75.59l-43.76,21.55-6.3-17.24c-13.92-26.19-25.2-50.73-22.54-67.63,1.99-16.25,24.2-22.88,36.47-11.94h-.33l.33-.33Z"/>
        <path class="cls-7" d="M46.15,485.53l8.29-34.81-21.22-10.28v1.33c-26.19,12.93-31.17,34.15-31.17,34.15-4.97,20.56,0,23.21,5.3,22.21,3.32-.66,6.3-3.32,8.29-6.63,8.29-14.92,25.86-27.85,25.86-27.85-2.65,30.17,5.3,21.88,5.3,21.88h-.66Z"/>
      </g>
      <g>
        <path class="cls-7" d="M221.2,675.51c-4.31,63.32-13.26,128.64-15.25,128.64l-19.56-1.33-6.3-130.3-4.97-97.81v-3.98c0-1.33,0-2.65.66-3.98,2.65-10.28,12.27-18.23,23.21-16.91,12.6.99,21.55,11.6,21.22,24.2,4.31,19.56,3.32,60.34.66,101.78h0l.33-.33Z"/>
        <path class="cls-17" d="M214.57,748.78c-3.65,32.16-6.96,55.37-8.62,55.37l-19.56-1.33-2.65-54.04h30.83Z"/>
        <path class="cls-15" d="M180.75,824.04c0,3.98,2.32,6.96,5.64,9.28,1.99,1.33,76.92,8.29,78.91,7.29,16.91-8.29-59.68-37.8-59.68-37.8l-20.56.66s-4.31,16.58-3.65,21.22h0v-.66h-.66Z"/>
        <g>
          <path class="cls-7" d="M223.85,446.74l-2.65,92.17-.66,27.85c0,12.93-10.28,23.21-23.21,24.2-13.59.66-22.21-9.61-23.21-23.21l-2.98-28.51-9.28-86.86v-2.65c0-16.25,12.6-29.84,28.84-31.17,17.24-1.33,32.49,11.6,33.82,28.84h-.33l-.33-.66Z"/>
          <path class="cls-16" d="M223.85,446.74l1.33,88.85c0,1.99-1.33,3.32-3.32,3.32h-56.69c-1.99,0-3.32-1.33-3.32-3.32l-.66-83.55v-2.65c0-16.25,12.6-29.84,28.84-31.17,17.24-1.33,32.49,11.6,33.82,28.84h0v-.33h0Z"/>
        </g>
      </g>
      <g>
        <path class="cls-7" d="M90.91,675.51c4.31,63.32,13.26,128.64,15.25,128.64l19.56-1.33,6.3-130.3,4.97-97.81v-3.98c0-1.33,0-2.65-.66-3.98-2.65-10.28-12.27-18.23-23.21-16.91-12.6.99-21.88,11.6-21.22,24.2-4.31,19.56-3.32,60.34-.66,101.78h0l-.33-.33Z"/>
        <path class="cls-17" d="M127.71,748.78l-2.65,54.04-19.56,1.33c-1.33,0-4.97-23.21-8.62-55.37h30.83Z"/>
        <path class="cls-15" d="M130.36,824.04c0,3.98-2.32,6.96-5.64,9.28-1.99,1.33-76.92,8.29-78.91,7.29-16.91-8.29,59.68-37.8,59.68-37.8l20.56.66s4.31,16.58,3.65,21.22h0v-.66h.66Z"/>
        <g>
          <path class="cls-7" d="M149.92,449.4v2.32l-8.29,87.2-2.65,28.18c-.99,13.59-9.95,24.2-23.21,23.54-12.93-.66-22.88-10.61-23.54-23.54l-.99-27.85-3.65-91.84c1.33-17.24,16.25-29.84,33.15-29.18,16.58.99,29.18,14.92,29.18,31.17h0Z"/>
          <path class="cls-16" d="M149.92,449.4v2.32l-2.65,84.21c0,1.99-1.33,2.98-2.98,2.98h-55.04c-1.99,0-2.98-1.33-2.98-2.98l1.33-88.85c1.33-17.24,16.25-29.84,33.15-29.18,16.58.99,29.18,14.92,29.18,31.17h-.33l.33.33Z"/>
        </g>
      </g>
      <path class="cls-17" d="M228.83,225.94l-3.65,21.88-13.92,84.54c-3.32,13.26-3.98,26.52-1.99,39.79h-106.09c5.3-15.25,6.3-31.17,3.65-47.08l-13.26-76.59-3.98-22.54,3.98-2.32,53.38-33.82h30.83l48.07,33.15,3.65,2.32h-.33l-.33.66Z"/>
      <path class="cls-16" d="M223.52,456.03l-59.01,25.53h-17.9l-59.01-24.87c-1.99-16.91.99-42.44,5.64-59.01,1.33-4.97,2.98-9.61,4.97-13.59,1.99-3.65,3.32-7.29,4.31-11.6h106.09c.99,6.3,2.32,12.6,4.31,18.23,2.32,6.96,4.97,15.91,6.3,26.19,1.99,9.95,5.64,25.53,3.65,38.79h.66v.33Z"/>
      <path class="cls-16" d="M189.04,198.42h0c-8.29,26.85-45.75,28.18-55.7,1.99v-.99l13.92-8.95h30.83l11.94,8.29h-.66l-.33-.33Z"/>
      <g id="german-boy-smiling2">
        <path class="cls-8" d="M146.27,199.08h0c6.3,8.62,22.88,8.29,28.51,0h0c1.33-1.66,1.66-3.65,1.66-5.64v-32.82h-32.49v32.49c0,1.99.66,3.98,1.99,5.97h.33Z"/>
        <path class="cls-13" d="M233.14,109.56c-2.98,4.64-7.63,8.29-11.94,8.95h-3.65c-1.33,12.6-5.64,24.2-12.27,33.49-12.27,18.23-30.5,29.51-44.1,28.84h-2.98c-14.59,0-31.17-10.28-42.77-26.85-6.3-9.28-11.27-20.56-13.26-33.15h-.99c-4.31-.33-9.61-3.65-12.6-8.62-.66-.66-.99-1.66-1.33-2.32-.66-1.33-.99-2.32-1.33-3.32h0c-.99-4.64,0-8.95,3.65-10.61h0c3.32-1.33,7.63-.33,11.27,2.32,2.65-38.46,26.85-72.28,56.36-72.94,9.28,0,17.57,2.32,25.53,6.96,17.9,11.27,31.17,38.13,34.15,64.98,1.66-1.66,3.65-2.98,5.64-3.98s5.3-1.33,7.96-.33c5.3,1.99,5.97,9.61,1.99,16.25h.66v.33Z"/>
        <g>
          <path class="cls-14" d="M119.42,89.01c.66,0,1.33,0,1.66-.99,5.64-10.94,15.58-6.3,15.91-5.97.99,0,1.99,0,2.65-.99,0-.99,0-1.99-.99-2.65-4.64-1.99-15.25-3.32-20.89,7.96,0,.99,0,1.99.66,2.65h.99Z"/>
          <path class="cls-14" d="M178.43,80.39s.99.66,1.66,0c9.61-3.65,13.59,4.31,13.59,4.64,0,.66,1.33.99,1.99.66.66,0,.99-1.33.66-1.99-1.66-3.98-7.96-10.61-17.57-6.3-.66,0-1.33,1.33-.99,1.99v.66h.66c0,.22,0,.33,0,.33Z"/>
          <path class="cls-14" d="M131.35,96.97c0,3.65,2.32,6.96,4.97,6.96s5.3-3.32,5.3-6.96-2.32-6.96-4.97-6.96-5.3,3.32-5.3,6.96Z"/>
          <path class="cls-14" d="M178.43,96.97c0,3.65,2.32,6.96,4.97,6.96s5.3-3.32,5.3-6.96-2.32-6.96-4.97-6.96-5.3,3.32-5.3,6.96Z"/>
          <path class="cls-2" d="M143.95,144.38c.66.66,4.97,10.61,16.91,10.28,11.6,0,16.25-9.28,16.91-10.28"/>
          <path class="cls-11" d="M169.48,124.15c0,4.64-3.65,8.62-8.62,8.62s-8.62-3.65-8.62-8.62,3.65,4.64,8.62,4.64,8.62-9.61,8.62-4.64Z"/>
          <path class="cls-9" d="M199.32,107.24c6.63,0,12.27,4.97,11.94,10.94-.33,5.97-6.3,9.95-13.26,9.61s-12.27-4.97-11.94-10.94,6.3-9.95,13.26-9.61Z"/>
          <path class="cls-9" d="M121.74,107.24c6.63,0,12.27,4.97,11.94,10.94s-6.3,9.95-13.26,9.61-12.27-4.97-11.94-10.94,6.3-9.95,13.26-9.61Z"/>
        </g>
        <path class="cls-12" d="M226.84,49.89c-5.3-18.23-16.25-34.15-34.15-43.1-14.59-6.96-62.99-18.57-89.85,25.2-10.94,17.57-13.26,40.12-13.26,60.34s2.98,34.81,13.92,48.74c1.66,1.99,3.65,3.98,5.64,5.64,0,0-2.32-12.27-3.98-17.24-5.3-17.9-4.64-39.12.99-57.03.99-2.65,1.99-4.97,2.98-7.96.33-1.33,3.65-7.63,3.32-8.62,5.64,13.92,24.87,19.23,38.46,21.55-2.32-3.65-6.3-5.64-8.62-9.95-2.32-3.98-3.65-8.62-4.97-12.6,16.25,5.97,33.15,17.57,52.05,16.58-3.98-3.98-14.92-12.27-14.59-18.9,3.98,5.64,11.27,7.63,17.57,9.95,3.98,1.33,8.62,2.32,12.6,3.65,3.32.99,3.32.66,4.31,3.65,5.97,20.22,8.95,44.76,3.98,65.65.99-4.97,9.61-14.92,11.27-19.56,1.99-5.64,3.65-11.6,4.97-17.57,2.32-11.94,2.32-24.53.66-36.14-.66-4.31-1.66-8.95-2.65-12.93h-.66v.66Z"/>
      </g>
    </g>
  </g>
</svg>