<?xml version="1.0" encoding="UTF-8"?>
<svg id="Layer_2" data-name="Layer 2" xmlns="http://www.w3.org/2000/svg" viewBox="0 0 119.28 285.32">
  <defs>
    <style>
      .cls-1 {
        fill: #e0a587;
      }

      .cls-2, .cls-3 {
        fill: #603813;
      }

      .cls-4 {
        fill: #d9a2a0;
      }

      .cls-5 {
        fill: #70b5ff;
      }

      .cls-6 {
        fill: #6c3231;
      }

      .cls-7 {
        fill: #db9673;
      }

      .cls-8 {
        fill: #533d24;
      }

      .cls-3 {
        isolation: isolate;
        opacity: .5;
      }

      .cls-9 {
        fill: #98caff;
      }

      .cls-10 {
        fill: #39433e;
      }

      .cls-11 {
        fill: none;
        stroke: #630;
        stroke-linecap: round;
        stroke-miterlimit: 10;
      }
    </style>
  </defs>
  <g id="Layer_1-2" data-name="Layer 1">
    <g id="german-man-handsup">
      <path class="cls-6" d="M86.25,141.19l-19.8,5.4s-13-3.2-20.1-4.6l1.7-27.5,34.6.9c.8,9.7,2,19,3.6,25.7h0v.1Z"/>
      <g>
        <path class="cls-6" d="M75.45,203.49h0c3.8,0,7-2.5,7.3-5.7l4.7-58.8c.4-5.4-4.6-10-11-10h0c-6.3,0-11.3,4.4-11,9.7l2.8,58.9c.2,3.3,3.4,5.9,7.3,5.9h-.1Z"/>
        <path class="cls-6" d="M68.25,270.59l9.5.2,5-72.9c0-3.4-3.1-6.3-7.2-6.4h0c-4.1,0-7.5,2.6-7.6,6.1l.2,73h.1Z"/>
        <path class="cls-8" d="M68.05,268.39v3.2c0,1,.5,1.9,1.4,2.5,4.4,3,18.1,11.8,27.1,11.2,1.9-.1,2.7-2,1.4-3.1l-20.2-13.9h-9.8.1v.1Z"/>
      </g>
      <g>
        <path class="cls-6" d="M55.25,202.49h0c-3.8,0-7-2.5-7.3-5.7l-4.7-58.8c-.4-5.4,4.6-10,11-10h0c6.3,0,11.3,4.4,11,9.7l-2.8,58.9c-.2,3.3-3.4,5.9-7.3,5.9h.1Z"/>
        <path class="cls-6" d="M62.35,269.59l-9.5.2-5-72.9c0-3.4,3.1-6.3,7.2-6.4h0c4.1,0,7.5,2.6,7.6,6.1l-.2,73h-.1Z"/>
        <path class="cls-8" d="M62.65,267.39v3.2c0,1-.5,1.9-1.4,2.5-4.4,3-18.1,11.8-27.1,11.2-1.9-.1-2.7-2-1.4-3.1l20.2-13.9h9.8l-.1.1Z"/>
      </g>
      <g>
        <path class="cls-9" d="M99.57,113.17h0c3.04-1.18,4.71-4.52,3.59-7.26l-10.01-42.71c-1.04-4.34-5.8-6.86-10.49-5.35h0c-4.59,1.52-7.2,6.17-5.73,10.35l15.01,42.04c1.1,2.83,4.49,4.1,7.63,2.93h0Z"/>
        <rect class="cls-5" x="93.01" y="95.87" width="7.7" height="15.8" transform="translate(2.83 210.1) rotate(-95.48)"/>
        <g>
          <path class="cls-1" d="M107.86,69.36l6.48,2.07-11.57,39.89c-.76,2.43-4.04,3.58-7.12,2.51h0c-3.17-1.02-5.09-3.83-4.33-6.27l16.49-38.29h0l.05.09Z"/>
          <path class="cls-1" d="M111.81,56.86l1.04-4.11c.59-2.33,4.69-2.1,5.76.28.41.69.53,1.66.65,2.64q.03.45,0,0c.12,2.73-.92,6.26-3.02,10.54l-.83,2.13-1.15,3.14h0l-6.48-2.07h0l1.15-3.14-.1-.17c.09-.05-.14-11.92-.14-11.92,0,0,.83-3.87,3.03,2.73h0l.09-.05Z"/>
        </g>
      </g>
      <g>
        <path class="cls-9" d="M23.75,113.87h0c-3-1.29-4.54-4.69-3.33-7.38l11.54-42.32c1.2-4.3,6.05-6.64,10.68-4.97h0c4.53,1.68,6.97,6.42,5.36,10.55l-16.51,41.47c-1.21,2.79-4.63,3.94-7.73,2.65h0Z"/>
        <rect class="cls-5" x="22.95" y="96.67" width="7.7" height="15.8" transform="translate(-80.39 117.39) rotate(-82.45)"/>
        <g>
          <path class="cls-1" d="M12.56,71.01l-6.27,2.63,15.06,38.71c.97,2.36,4.34,3.21,7.32,1.87h0c3.07-1.29,4.73-4.27,3.76-6.63l-19.82-36.67h0l-.04.09Z"/>
          <path class="cls-1" d="M7.52,58.91l-1.4-4.01c-.79-2.27-4.85-1.68-5.71.79-.35.72-.38,1.7-.41,2.69q0,.45,0,0c.13,2.73,1.47,6.15,3.94,10.23l1.01,2.04,1.43,3.02h0l6.27-2.63h0l-1.43-3.02.09-.18c-.09-.04-.92-11.88-.92-11.88,0,0-1.17-3.79-2.78,2.99h0l-.09-.04Z"/>
        </g>
      </g>
      <g>
        <rect class="cls-7" x="56.25" y="42.89" width="10.2" height="13.5"/>
        <path class="cls-1" d="M78.75,22.69c-.8-.4-1.9,0-2.9.6-.9-9.5-7-16.9-14.4-16.9s-13.7,7.6-14.5,17.4c-1.1-1-2.4-1.5-3.4-1-1.3.6-1.5,2.4-.4,4.1,1,1.6,2.7,2.5,4,2.1,1.1,9.2,7.1,16.2,14.4,16.2s13.2-7,14.4-16.2c1.2,0,2.5-.9,3.4-2.2,1.1-1.7.9-3.5-.4-4.1,0,0-.2,0-.2,0Z"/>
        <g>
          <path class="cls-2" d="M72.45,20.59c-.2,0-.3,0-.4-.2-1.6-2.8-4.1-1.7-4.2-1.7-.2,0-.5,0-.7-.2,0-.2,0-.5.2-.7,1.3-.5,4-.9,5.6,2.1,0,.2,0,.5-.2.7h-.3Z"/>
          <path class="cls-2" d="M51.55,20.59c.2,0,.3,0,.4-.2,1.6-2.8,4.1-1.7,4.2-1.7.2,0,.5,0,.7-.2,0-.2,0-.5-.2-.7-1.3-.5-4-.9-5.6,2.1,0,.2,0,.5.2.7,0,0,.3,0,.3,0Z"/>
          <path class="cls-2" d="M54.75,22.59c0,.9.6,1.9,1.4,1.9s1.5-.9,1.5-1.9-.6-1.9-1.4-1.9-1.5.9-1.5,1.9Z"/>
          <path class="cls-2" d="M67.25,22.59c0,.9.6,1.9,1.4,1.9s1.5-.9,1.5-1.9-.6-1.9-1.4-1.9-1.5.9-1.5,1.9Z"/>
          <path class="cls-11" d="M57.35,34.49c.2.2,1.4,2.8,4.5,2.7,3.1,0,4.3-2.4,4.5-2.7"/>
          <path class="cls-6" d="M53.25,33.59c.7-1.1,2.5-1.8,4.4-2.1s3.8-.4,5.7,0c1.5.2,3.2.7,4.4,1.2.3,0,.7.3.8.6.2.5-.6.6-1.2.7-4.6.5-8.9.7-13.5,0"/>
          <path class="cls-3" d="M63.95,28.39c0,1.3-.9,2.2-2.2,2.2s-2.2-.9-2.2-2.2.9,1.3,2.2,1.3,2.2-2.5,2.2-1.3Z"/>
          <path class="cls-4" d="M72.65,25.39c1.8,0,3.3,1.4,3.2,2.8s-1.7,2.6-3.6,2.5-3.3-1.4-3.2-2.8,1.7-2.6,3.6-2.5Z"/>
          <path class="cls-4" d="M52.05,25.39c1.8,0,3.3,1.4,3.2,2.8s-1.7,2.6-3.6,2.5-3.3-1.4-3.2-2.8,1.7-2.6,3.6-2.5Z"/>
        </g>
        <path class="cls-6" d="M78.45,6.09c.6-.3,2.5-.5,1.9-1.3-.9-1.2-4-.4-5.4-.3.6-.4,1.6-.7,1.1-1.4-1.1-1.6-4.6-.7-6.3-.5.7-.7.5-1.4-.6-1.6-2.1-.5-4.4.2-6.3.8-.4-1.4-1.5-1.6-3.3-1.2-.9.2-1.5.7-2.3.9-.7.2-.5.2-.8-.2-1-1.1-1.5-1.6-3.2-1.1-2.1.6-2.8,1.7-3.9,3-.6-.4-1.7-.9-2.3,0-.5.7.3,1.8.8,2.4-1,.3-1.8.3-1.8,1.5s1.4,2.5.5,3c-1.2.6-2.6,0-2.3,1.7.2,1.4,1.6,2.3,1.7,3.7-.6,0-1.8,0-2.3.4-1.1.6-.3,1.9.3,2.5s2,1.4,1.6,2c-.3.4-1.5,0-1.9.6s0,2,.3,2.5c.2.5,1.5,1.3,1.5,1.7s-.9.7-1,1.2c0,.6.2,1.1.6,1.6.5.5.2,2.7,3.2,2,.6,0,2.2-1.8,1.8-2.2s-.7-.4-.8-.5c-.3-.5,1.2-4.5-.7-4,1.7-.8,3.5-3.8,1-4.8.8-.6,1.7-1.1,1.9-2.1,0-.5,0-1.3-.3-1.7-.2-.4-.6-.5-.9-.9,1-.5,3.9-1.6,3.6-2.7,1.2,0,2.7-.5,3.7-.9,0,0,.7-.4,1.1-.7.4.5,1.3.7,1.9.8,1,.2,3.7.2,4.9-.5.3,0,.7.2.8.2.8.2,2.4.2,3.2,0,.4.6,1.5,1.7,1.8,2.1.3.4.6,1.2,1.1,1.6,0,1.4.5,2.9,1,4.2,0,.2.4.7.4.9,0,.3-.8.8-.9,1.2-.4,1.1.3,2.3.5,3.3,0,.7-.2,1.3,0,2,0,.8.7,3.8,2.1,3.4,1.7-.4,0-2,.3-2.7,0-.4.6-.7.8-1,.6-.6,1.1-1.3,1.4-2.1.5-1.1.6-2-.4-2.8.8-1.1,4.1-3.8.9-4.4,1.5-1.3.7-4.5-.9-5.6,1.1-.5,2.8-1,3.2-2.1.5-1.2-1.2-1.8-2.4-1.7v-.2h.1Z"/>
      </g>
      <path class="cls-10" d="M87.85,132.89c.2,1.4-.9,2.7-2.7,3-14,2.2-25.2,3.1-37.9,1.2-.9-.1-2.2-.3-3.6-.4-1.8-.2-3.2-1.5-3.1-2.9.4-4.2,1.6-10,3-20.1.8-7.6.5-15.2-.7-22.8l-5.3-32.7s1.6-.7,3.9-1.7c1.5-.7,3.4-1.5,5.4-2.4,5.7-2.5,11.1-4.5,11.5-4.5l9.2-.3c.3,0,4.2,1.4,7.4,2.7,1.9.8,3.6,1.5,4.3,2l7.8,3.4-3.3,30.1v.3c-1.3,11.7,2.7,37.1,4.1,45.1Z"/>
      <g>
        <path class="cls-5" d="M56.85,46.59s.5,2.3,5,3.2c0,0-1.3,6-5.3,8.3,0,0-1.5-5.5-4.9-6.6,0,0-.8-2,5.3-4.9h-.1Z"/>
        <path class="cls-5" d="M65.45,46.39s-.5,2.3-5,3.2c0,0,1.3,6,5.3,8.3,0,0,1.5-5.5,4.9-6.6,0,0,.8-2-5.3-4.9h.1Z"/>
      </g>
    </g>
  </g>
</svg>