<?xml version="1.0" encoding="UTF-8"?>
<svg id="Layer_2" data-name="Layer 2" xmlns="http://www.w3.org/2000/svg" viewBox="0 0 95.7 156.61">
  <defs>
    <style>
      .cls-1, .cls-2 {
        fill: #603813;
      }

      .cls-3 {
        fill: #273758;
      }

      .cls-4 {
        fill: #e6e6e6;
      }

      .cls-5 {
        fill: #c69696;
      }

      .cls-6 {
        fill: #d9a2a0;
      }

      .cls-7, .cls-8, .cls-2 {
        isolation: isolate;
      }

      .cls-7, .cls-2 {
        opacity: .5;
      }

      .cls-7, .cls-9 {
        fill: #d9baba;
      }

      .cls-10 {
        fill: #d9b6b6;
      }

      .cls-11 {
        fill: #466e9f;
      }

      .cls-12 {
        fill: none;
        stroke: #630;
        stroke-linecap: round;
        stroke-miterlimit: 10;
      }

      .cls-13 {
        fill: #d38a17;
      }
    </style>
  </defs>
  <g id="Layer_1-2" data-name="Layer 1">
    <g class="cls-8">
      <g id="Layer_1-3" data-name="Layer 1">
        <g id="german-boy-right-kneeling">
          <g>
            <path class="cls-10" d="M54.36,127.92c-7-12.1-15.3-24.5-15.8-24.2l-4.4,2.5,11.1,27,8.2,20.3.4.8c0,.2.3.5.5.7,1.5,1.8,4.5,2.1,7,.8,2.5-1.4,3.7-4.3,2.8-6.6-.3-.5-.4-1.2-.6-1.8-1.3-4.7-5-12-9.4-19.4h0v-.2h.2v.1h0Z"/>
            <path class="cls-4" d="M47.16,115.92c-4.5-7.1-8.2-12.4-8.5-12.2l-4.4,2.5,5.5,13.3,7.5-3.6h-.1Z"/>
            <path class="cls-3" d="M40.76,101.72c0-.8-.5-1.7-1.2-2.1-.5-.4-19.5-3-20.1-2.9-4.4,1.4,14.7,9.4,14.7,9.4l5.3.3s1.4-3.7,1.2-4.7h.1Z"/>
            <path class="cls-10" d="M58.56,155.02c3.5,0,6.3-1.8,6.4-5.2l-.2-13.4.8-17.5v-.2c0-4.3-3.5-7.9-7.9-8.1-4.4,0-8.2,3.4-8.2,7.8l1.6,18.2,1.1,12.4c.3,3.3,3.1,5.9,6.3,5.9h.2l-.1.1h0Z"/>
            <path class="cls-11" d="M51.36,136.32l14.5-.2.5-17.5h0c0-4.3-4-8.2-8.4-8.4-4.4,0-12,3.9-12.1,8.4l5.4,17.7h.1Z"/>
          </g>
          <g>
            <path class="cls-10" d="M35.66,127.92c-7-12.1-15.3-24.5-15.8-24.2l-4.4,2.5,11.1,27,8.2,20.3.4.8c0,.2.3.5.5.7,1.5,1.8,4.5,2.1,7,.8,2.5-1.4,3.7-4.3,2.8-6.6-.3-.5-.4-1.2-.6-1.8-1.3-4.7-5-12-9.4-19.4h0v-.2h.2v.1h0Z"/>
            <path class="cls-4" d="M28.46,115.92c-4.5-7.1-8.2-12.4-8.5-12.2l-4.4,2.5,5.5,13.3,7.5-3.6h-.1Z"/>
            <path class="cls-3" d="M21.96,101.72c0-.8-.5-1.7-1.2-2.1-.5-.4-19.5-3-20.1-2.9-4.4,1.4,14.7,9.4,14.7,9.4l5.3.3s1.4-3.7,1.2-4.7h.1Z"/>
            <path class="cls-10" d="M40.16,154.62c3.5,0,6.1-1.1,6.1-4.4v-14.1l.8-17.5v-.2c0-4.3-3.5-7.9-7.9-8.1-4.4,0-8.2,3.4-8.2,7.8l1.6,18.2,1.1,13.7c.3,3.3,3,4.7,6.3,4.7h.2v-.1Z"/>
            <path class="cls-11" d="M31.86,136.32l14.5-.2,3.3-15-.4-3.1c0-4.3-5.6-7.5-10-7.7-4.4,0-8.2,3.4-8.2,7.8l.8,18.2h0Z"/>
          </g>
          <path class="cls-4" d="M64.76,95.82c0-7.3.3-14.6.7-22l.5-8.2c.3-5.6,3.6-14.9-7.4-15.9-2.1-1.3-4.5-2.7-4.5-2.7l-8.1-1.1-2.4,1.8-6.4,2.5c-2.4,1.8-2.5,6.3-2.3,9.3l-.7,25.9c0,1.6-.5,5.9-.6,7.6.3,0,2.1.6,4.4,1.2,9.5,2.3,17.3,3.4,26.5,1.5h.3v.1h0Z"/>
          <path class="cls-11" d="M66.56,114.42l-.2-8.8c-.3-2.1-.7-4.1-1.1-6.1-.2-1.4-.4-2.7-.5-4,0-.5-.2-1.1-.2-1.6-10,3-20.8,2.4-31-.8v1.4c.3,4-.2,7.9-1.4,11.7-.8,2.1-1.2,4.6-1.4,6.9-.5,6.1,1.1,10.7,1.1,10.7h0l14.9,5.9h4.3l15-5.9"/>
          <g id="arm511">
            <path class="cls-10" d="M23.56,77.1h0c1.52.1,2.71.91,3.58,2.12l15.85,23.98-6.52,3.04-17.16-21.35c-2.61-3.24,0-8.09,4.24-7.79h0Z"/>
            <path class="cls-10" d="M47.99,110.68l-5.32-7.79-6.52,3.04s0,.2.22.2c-2.93,8.3.43,12.95.43,12.95,3.15,4.65,4.78,3.95,5.54,2.63.54-.91.54-2.02.33-3.04-1.19-4.35,0-10.72,0-10.72,5.54,5.77,5.43,2.63,5.43,2.63h0l-.11.1h0Z"/>
            <path class="cls-10" d="M22.82,85.52h0c-3.51-.14-5.88-3.94-4.54-7.51l8.84-21.91c1.35-3.46,4.97-5.23,8.23-3.97h0c3.87,1.53,5.48,6.26,3.45,10.06l-11.29,20.72c-.92,1.74-2.78,2.83-4.68,2.71h0v-.1h-.01Z"/>
            <path class="cls-4" d="M30.04,51.87c-3,2.43-6.87,7.61-9.48,18.64l12.36,5.56s8.44-15.19,7.38-21.05c-.78-4.07-6.86-5.8-10.24-3.05h0v-.1h-.02Z"/>
          </g>
          <g id="arm521">
            <path class="cls-10" d="M70.59,76.08h0c-.94,1.17-1.11,2.62-.66,4.19l8.42,28.72,6.71-2.54-5.59-27.85c-.85-4.28-6.37-5.87-8.95-2.44l.07-.08h0Z"/>
            <path class="cls-10" d="M80.91,117.89l-2.58-9.51,6.71-2.54s.16.15.01.3c8.48,3.74,10,9.51,10,9.51,1.59,5.54-.05,6.36-1.58,5.97-1.07-.26-2.01-.98-2.58-1.94-2.66-4.06-8.41-7.76-8.41-7.76.86,8.21-1.51,5.74-1.51,5.74l-.15.16.08.07h.01Z"/>
            <path class="cls-10" d="M74.74,85.06h0c3.62-.19,5.94-3.97,4.54-7.55l-8.95-22.05c-1.3-3.48-5-5.3-8.28-3.98h0c-3.89,1.48-5.47,6.3-3.39,10.12l11.32,20.79c1,1.76,2.75,2.76,4.75,2.68h.01Z"/>
            <path class="cls-4" d="M67.58,51.2c3.06,2.48,6.87,7.71,9.44,18.77l-12.44,5.49s-8.53-15.32-7.4-21.06c.73-4.06,6.95-5.81,10.3-3.11h0l.11-.09h-.01Z"/>
          </g>
          <path class="cls-11" d="M56.96,51.92c-.4,3.6-4.4,5.6-7.5,3.7-3.1-1.8-5-5.2-5.9-7.8l2.4-1.8,8.1,1.1s1.3,1.1,3.1,2.7v2.1h-.2Z"/>
          <g>
            <path class="cls-13" d="M59.9,6.9c-.72-1.98-1.89-3.87-3.33-5.21.18-.18.27-.45.45-.63-.81-.36-1.89-.72-2.79-.72-4.76-.18-9.44,2.16-12.58,5.66-2.7,2.88-4.58,6.47-5.66,10.34-2.61,8.45-1.89,19.87,6.83,24.36,2.34,1.17,5.3,2.34,7.82,1.8,2.61-.54,4.58-2.61,5.84-5.03,2.34-4.49,3.78-10.07,4.58-15.01.72-5.12.72-10.61-1.17-15.55h0Z"/>
            <path class="cls-5" d="M51.9,52.12h0c-2.88-.09-5.03-2.52-4.94-5.3l.36-9.98,8.18.27-.45,12.14c0,1.62-1.44,2.88-3.06,2.88h-.09Z"/>
            <path class="cls-9" d="M70.77,24.16c0,.99,0,1.98-.18,2.88,0,.63-.09,1.26-.27,1.8-.36,1.62-.63,3.06-1.26,4.49-.18.54-.36.99-.63,1.53-2.88,6.56-8,10.88-13.84,10.79-2.79,0-5.39-1.17-7.64-3.06-.54-.36-.99-.81-1.44-1.35-3.78-4.13-6.2-10.52-5.93-17.8.36-12.05,7.46-21.57,16.09-21.39,1.26,0,2.52.27,3.69.72,6.74,2.52,11.6,11.24,11.33,21.48h.09s0-.09,0-.09Z"/>
            <g>
              <path class="cls-1" d="M50.28,23.98c.18,0,.36,0,.45-.27,1.53-2.88,4.13-1.71,4.22-1.62.27,0,.54,0,.72-.27,0-.27,0-.54-.27-.72-1.26-.54-4.05-.9-5.57,2.07,0,.27,0,.54.18.72h.27v.09Z"/>
              <path class="cls-1" d="M65.92,21.64s.27.18.45,0c2.52-.99,3.6,1.17,3.6,1.26,0,.18.36.27.54.18.18,0,.27-.36.18-.54-.45-1.08-2.07-2.79-4.67-1.71-.18,0-.36.36-.27.54v.18h.18v.09h0Z"/>
              <path class="cls-1" d="M53.42,26.05c0,.99.63,1.89,1.35,1.89s1.44-.9,1.44-1.89-.63-1.89-1.35-1.89-1.44.9-1.44,1.89Z"/>
              <path class="cls-1" d="M65.92,26.05c0,.99.63,1.89,1.35,1.89s1.44-.9,1.44-1.89-.63-1.89-1.35-1.89-1.44.9-1.44,1.89Z"/>
              <path class="cls-12" d="M55.31,37.01c0,.18.72,2.88,3.42,3.33,2.61.36,4.05-.9,4.22-1.17"/>
              <path class="cls-2" d="M63.04,31.08c.9.9.9,2.25,0,3.15s-2.25.9-3.15,0,1.62.18,2.52-.63c.9-.9-.18-3.33.72-2.52h-.09,0Z"/>
              <path class="cls-6" d="M70.32,28.92c-.36,1.62-.63,3.06-1.26,4.49-.18.54-.36.99-.63,1.53-.9-.63-1.35-1.8-1.26-2.88,0-1.62,1.44-2.88,3.06-3.06h.09v-.09Z"/>
              <path class="cls-6" d="M50.91,28.74c1.8,0,3.24,1.35,3.15,2.88s-1.71,2.61-3.51,2.52-3.24-1.35-3.15-2.88,1.71-2.61,3.51-2.52Z"/>
            </g>
            <path class="cls-7" d="M47.31,42.5h-.18c-.54-.36-.99-.81-1.44-1.35-3.78-4.13-6.2-10.52-5.93-17.71.36-12.05,7.46-21.57,16.09-21.39,1.26,0,2.52.27,3.69.72-6.83,5.03-18.97,18.61-12.23,39.82h0v-.09h0Z"/>
            <g>
              <path class="cls-13" d="M40.93,25.15l-2.25-4.94-2.25,3.6.9,10.79,7.37,5.39c-4.05-8.18-3.42-12.58-3.6-14.38v-.54h-.18v.09Z"/>
              <path class="cls-13" d="M75,13.1c-.81-2.61-2.52-4.85-4.49-6.74-1.35-1.17-2.79-2.16-4.31-3.06-.81-.63-1.62-1.17-2.43-1.62-3.6-1.71-14.47-4.58-21.39,6.02-2.88,4.22-3.33,6.83-3.6,11.87,0,0,3.06-.18,3.69,1.98,1.17,3.6-2.97,4.49,1.89,13.66.36.54.9.99,1.35,1.53,0,0-.54-2.97-.81-4.22-1.17-4.4-.81-9.53.72-13.93.18-.63.45-1.26.81-1.89.09-.36.99-1.8.9-2.07,1.35,3.51,5.93,4.94,9.26,5.66-.63-.9-1.44-1.53-1.98-2.52s-.81-2.07-1.17-3.06c3.96,1.71,8,4.58,12.49,4.49-.99-.99-3.6-3.15-3.42-4.76.9,1.35,2.7,1.89,4.22,2.61.99.36,2.07.72,3.06.99,1.35,5.03.81,12.58-1.26,16.9,1.89-2.16,3.51-8,3.78-14.2s.81-2.25,1.8-2.88h0c.72-.45,1.17-1.35,1.26-2.16,0-.81,0-1.71-.36-2.52h0v-.09h0Z"/>
            </g>
            <g>
              <path class="cls-9" d="M42.28,21.19c.9,2.7.27,5.3-1.44,5.84s-3.78-1.17-4.67-3.96-.27-5.3,1.44-5.84c1.62-.54,3.78,1.17,4.67,3.96Z"/>
              <path class="cls-7" d="M42.28,21.19c.9,2.7.27,5.3-1.44,5.84s-3.78-1.17-4.67-3.96-.27-5.3,1.44-5.84c1.62-.54,3.78,1.17,4.67,3.96Z"/>
            </g>
          </g>
        </g>
      </g>
    </g>
  </g>
</svg>