<?xml version="1.0" encoding="UTF-8"?>
<svg id="Ebene_2" data-name="Ebene 2" xmlns="http://www.w3.org/2000/svg" viewBox="0 0 79.26 247.25">
  <defs>
    <style>
      .cls-1 {
        fill: #7e3709;
      }

      .cls-2 {
        fill: #d9b6b6;
      }

      .cls-3 {
        fill: #7c3609;
      }

      .cls-4 {
        fill: #e97828;
      }

      .cls-5 {
        fill: none;
        stroke: #630;
        stroke-linecap: round;
        stroke-miterlimit: 10;
      }

      .cls-6 {
        fill: #e97928;
      }

      .cls-7 {
        fill: #e26716;
      }

      .cls-8 {
        fill: #d9a2a0;
      }

      .cls-9 {
        fill: #7a3509;
      }

      .cls-10 {
        fill: #7d3709;
      }

      .cls-11 {
        fill: #8b4514;
      }

      .cls-12 {
        fill: #7b3609;
      }

      .cls-13 {
        fill: #d9baba;
      }

      .cls-14 {
        fill: #7d370a;
      }

      .cls-15, .cls-16 {
        fill: #603813;
      }

      .cls-17 {
        fill: #904614;
      }

      .cls-18 {
        fill: #8b2b0e;
      }

      .cls-19 {
        fill: #273758;
      }

      .cls-20 {
        fill: #8e3c09;
      }

      .cls-21 {
        fill: #7c3709;
      }

      .cls-22 {
        fill: #7b370a;
      }

      .cls-23 {
        fill: #e26717;
      }

      .cls-24 {
        fill: #7c370a;
      }

      .cls-25 {
        fill: #c69696;
      }

      .cls-16 {
        isolation: isolate;
        opacity: .5;
      }

      .cls-26 {
        fill: #e6e6e6;
      }

      .cls-27 {
        fill: #3f6138;
      }
    </style>
  </defs>
  <g id="Layer_1" data-name="Layer 1">
    <g id="german-girl-cookies">
      <g>
        <path class="cls-2" d="M38.9,167.93v1.2l-3.4,28.8-4.5,38.3h-5.8c-.6,0-1.9-19.6-1.9-38.3s.6-24.3,2.2-30c0-3.7,3-6.7,6.7-6.7s6,2.4,6.6,5.5v1.2h.1Z"/>
        <path class="cls-19" d="M32.3,242.33c0,1.2-.7,2.1-1.6,2.7s-22.7,2.4-23.3,2.2c-5-2.4,17.6-11.2,17.6-11.2l6.1.2s1.3,4.9,1.1,6.2h0l.1-.1Z"/>
        <path class="cls-2" d="M33.2,174.73h0c-3.8.4-7.2-2.2-8-5.9l-6.7-34.7c-.4-5.1,3.4-9.5,8.5-10h0c5.1-.4,9.5,3.4,10,8.5l2,34.2c.3,4-1.8,7.5-5.7,7.9h-.1Z"/>
      </g>
      <g>
        <path class="cls-2" d="M54.3,197.93c0,18.7-1.3,38.3-1.9,38.3h-5.8l-4.5-38.3-3.3-28.8v-2.4c.6-3.1,3.3-5.5,6.6-5.5s6.7,3,6.7,6.7c1.7,5.7,2.2,17.7,2.2,30h0Z"/>
        <path class="cls-19" d="M45.3,242.33c0,1.2.7,2.1,1.6,2.7s22.7,2.4,23.3,2.2c5-2.4-17.6-11.2-17.6-11.2l-6.1.2s-1.3,4.9-1.1,6.2h0v-.1h-.1Z"/>
        <path class="cls-2" d="M44.5,174.73h0c3.8.4,7.2-2.2,8-5.9l6.7-34.7c.4-5.1-3.4-9.5-8.5-10h0c-5.1-.4-9.5,3.4-10,8.5l-2,34.2c-.3,4,1.8,7.5,5.7,7.9h.1Z"/>
      </g>
      <path class="cls-2" d="M55.4,96.93c-1.5,5.7-1.2,11.7.7,17.3.7,2.1,1.4,4.7,1.8,7.8.5,3,1.2,7.7,1.2,11.5l-18.9,7.5h-2.8l-18.9-7.2c0-5.2.7-12.8,2.1-17.6.4-1.4.9-2.8,1.4-4,2.5-5.4,3.5-11.4,2.5-17.3l-3.9-22.6-1.2-6.7,1.2-.7,15.7-9.9h9.1l14.2,9.8,1.1.7-1.1,6.5-4.1,25h0l-.1-.1Z"/>
      <path class="cls-26" d="M55.4,96.93c-1.5,5.7-1.2,11.7.7,17.3.7,2.1,1.4,4.7,1.8,7.8H20.6v-5.8c.4-1.4.9-2.8,1.4-4,2.5-5.4,3.5-11.4,2.5-17.3l-3.9-22.6-1.1-6.7,12.7-8,4.1-2.6h9.1l3.5,2.4,11.8,8.1-1.1,6.5-4.1,25h0l-.1-.1Z"/>
      <path class="cls-27" d="M23.9,108.53s-11.6,30-11.1,58.1c0,1.5.9,2.7,2.1,3.1,7.9,2.1,36.8,8.9,50.7-1.7.9-.7,1.3-1.9,1.2-3.1-1.1-8.2-5.6-40.7-11.9-56.3-10.2,4.3-20.5,4.1-31.1,0h.1v-.1Z"/>
      <g>
        <path class="cls-18" d="M64.4,38.13c0-4.7-2.2-8.3-4-12.1-.8-1.7-1.6-4.7-2.8-6-1.6-1.7-5.4-.9-7.4-1-7.4-.3-14.8.2-22.2,1.1-2.3.3-3.7-.6-4.6,2.7-.6,2.1-1,2.9-1,2.9-2.3,4-6.1,6.4-7.5,11.5-1.1,4.1-.6,9.2,1.8,12.1,0-1.6.2-3.7.5-5.1,1.6,1.2,2.7,3.6,4.3,5s3.4,2.6,5.2,3.3c.2-1.4-.3-3.3,0-4.5,1.3,3.2,4.5,4.6,6.9,6,0-1.9-.5-4.3,1.1-3.2.4.3,1,1.6,1.5,2s1.1.8,1.7,1.1c1.8,1.1,2.6,1.4,4.3,0,1.2-1.1,2.7-2.6,3.7-4,.6,1.2.3,3.2.3,4.6,2,0,4.4-2.4,5.7-4.3.3,1.1,0,2.3.3,3.4,2.6-.3,7.2-5.1,8.4-8,1.2,1.1,2.2,3.6,1.9,5.5,2.1-3.5,2.1-8.8,2.1-13.1h-.2v.1Z"/>
        <path class="cls-25" d="M40.8,58.63h0c-2.5,0-4.5-2-4.5-4.5v-6.7h9.1v6.7c0,2.5-2,4.5-4.5,4.5h-.1Z"/>
        <path class="cls-13" d="M62.7,29.13c-.9,1.5-2.3,2.5-3.7,2.8h-1.2c-.4,3.9-1.8,7.5-3.8,10.4-3.8,5.7-9.5,9.1-13.7,8.9h-1c-4.5,0-9.7-3.1-13.3-8.3-2-2.9-3.5-6.4-4.1-10.3h-.3c-1.4,0-2.9-1.1-3.9-2.6-.2-.3-.3-.5-.4-.8-.2-.4-.3-.7-.4-1.1h0c-.3-1.5,0-2.7,1.2-3.2h0c1-.4,2.3,0,3.5.7.9-11.9,8.3-22.4,17.5-22.6,2.8,0,5.5.8,7.9,2.3,2.3,1.4,4.3,3.6,6,6.3h0c2.4,3.9,4.1,8.9,4.6,13.9h0c.5-.5,1.1-.9,1.7-1.1.8-.4,1.7-.4,2.4,0,1.6.7,1.9,2.9.6,5.1l.4-.3h0v-.1Z"/>
        <path class="cls-18" d="M60.2,32.53c-.3-3.2-.8-8.7-1.1-11.2,0-.9,0-1.7-.2-2.6-.3-6.5-2.4-13.6-7.2-17.2-3.4-2.6-6.5-.4-10.2-1.2-7.1-1.4-15.4,1.7-19.2,8.4-2.3,4-2.7,8.7-1.9,13.2,0,0,.5,8.5.3,10.5-.3,3.4-1.2,9.6.9,12.6,1,1.4,4.1,3.7,5.6,4.5.3-2.2-1.7-4.2-2.1-6.3-.5-2.3-.3-4.8-.3-7.2,0-4.3-.4-8.5-.2-12.8v-1.3c0-.2.2-.3.3-.5,1.1-1.8,2.4-3.4,3.9-4.8,1.6-1.5,3.5-2.3,5.2-3.7,1.6,1.4,3.1,2.9,4.9,4,2.2,1.3,5.2,2.4,7.7,2.6-.3-.6-1-1.2-1.5-1.8-.2-.3-.4-.8-.6-1.1,1.3,1.5,3.5,2.7,5.1,3.8,1.5,1.1,3.4,1.6,5.1,2.2,0-.6-1.5-3.3-1.9-4.1.6.8,1.5,1.3,2,2.1.6.8,1,1.7,1.4,2.5h0c.2,4.4-.2,8.6-.2,12.9s.2,4.9-.3,7.2c-.5,2.1-2.5,4.1-2.1,6.3,1.5-.8,4.6-3.1,5.6-4.5,2.1-2.9,1.2-9.2.9-12.6h0l.1.1Z"/>
        <g>
          <path class="cls-15" d="M28.1,23.93c.2,0,.4,0,.5-.3,1.7-3.2,4.6-1.9,4.7-1.8.3,0,.6,0,.8-.3,0-.3,0-.6-.3-.8-1.4-.6-4.5-1-6.2,2.3,0,.3,0,.6.2.8h.3v.1Z"/>
          <path class="cls-15" d="M45.5,21.33s.3.2.5,0c2.8-1.1,4,1.3,4,1.4,0,.2.4.3.6.2.2,0,.3-.4.2-.6-.5-1.2-2.3-3.1-5.2-1.9-.2,0-.4.4-.3.6v.2h.2v.1Z"/>
          <path class="cls-15" d="M31.6,26.23c0,1.1.7,2.1,1.5,2.1s1.6-1,1.6-2.1-.7-2.1-1.5-2.1-1.6,1-1.6,2.1Z"/>
          <path class="cls-15" d="M45.5,26.23c0,1.1.7,2.1,1.5,2.1s1.6-1,1.6-2.1-.7-2.1-1.5-2.1-1.6,1-1.6,2.1Z"/>
          <path class="cls-5" d="M35.4,40.23c.2.2,1.5,3.1,5,3,3.4,0,4.8-2.7,5-3"/>
          <path class="cls-16" d="M42.8,34.23c0,1.4-1.1,2.5-2.5,2.5s-2.5-1.1-2.5-2.5,1.1,1.4,2.5,1.4,2.5-2.8,2.5-1.4Z"/>
          <path class="cls-8" d="M51.6,29.23c2,0,3.6,1.5,3.5,3.2s-1.9,2.9-3.9,2.8-3.6-1.5-3.5-3.2,1.9-2.9,3.9-2.8Z"/>
          <path class="cls-8" d="M28.8,29.23c2,0,3.6,1.5,3.5,3.2s-1.9,2.9-3.9,2.8-3.6-1.5-3.5-3.2,1.9-2.9,3.9-2.8Z"/>
        </g>
      </g>
      <g id="s-falsebelief-uc-a-cookies">
        <path class="cls-23" d="M25.83,118.98s-.18.03-.28.09c-2.12.73-3.84,2.23-4.86,4.01-.44.95-.82,2-.86,3.06l-.04.15c-.08,1.55.4,3.25,1.33,4.58h0c1.35,2.03,3.27,3.23,5.66,3.73,1.39.31,2.81.21,4.22-.14h0c.79,1.54,2.86,2.53,4.47,2.98s4.78.34,6.9-.71c.51-.27.94-.56,1.39-.93,0,0,.02-.08.2-.11,1.78-1.4,2.63-3.48,2.86-5.56.07-2.13-.65-4.23-2.2-5.82-1.7-1.71-3.87-2.65-6.36-2.77-.34-.01-.61,0-.95-.02l-.16-.05c-.26,0-.53.02-.73.13-.28.09-.47.12-.81.1-.36-.27-.54-.56-.8-.88-1.25-1.42-3.39-2.19-5.33-2.4-1.27-.11-2.53.04-3.67.38l-.04.15.08.02Z"/>
        <path class="cls-6" d="M41.56,125.83l-.06.23-.11.38-.11.38c.09.6.21,1.13.77,1.62.22.14.36.27.73.2.18-.03.31-.16.49-.19l.32.09c.08.02.22.14.26.32.65-.15,1-.46,1.31-.95.29-.41.24-.84.2-1.35-.14-.45-.39-.77-.83-1.06-1.01-.45-1.96-.46-2.72.4l-.08-.02-.16-.05Z"/>
        <path class="cls-4" d="M30.71,121.39c-.25.26-.31.49-.26.92l-.13.46c.05.43.21.8.55,1.14l.9.5c.23-.18.43-.29.57-.5.52-.6,1.17-1.08,1.89-1.45-.11-.53-.35-.92-.77-1.29-.88-.58-2.06-.41-2.78.3h0l.02-.08Z"/>
        <path class="cls-1" d="M38.5,122.16l-.11.38c-.06.23.08.35.27.57.24.07.4.11.71-.05l.11-.38c.06-.23-.08-.35-.27-.57-.24-.07-.4-.11-.71.05Z"/>
        <path class="cls-10" d="M35.93,132.27l-.11.38c-.04.15-.09.31.14.45.14.12.3.17.48.14.28-.09.39-.14.53-.35.06-.23.09-.31-.03-.5-.28-.24-.46-.21-.85-.07l-.08-.02-.08-.02Z"/>
        <path class="cls-14" d="M42.63,128.52l-.11.38c.1.27.16.37.36.59.24.07.34.01.63-.07l.11-.38c.06-.23-.08-.35-.27-.57-.24-.07-.4-.11-.71.05h0Z"/>
        <path class="cls-10" d="M38,124.25c-.1.05-.23.18-.35.32s-.09.31-.11.38c.06.1.2.22.42.37.26,0,.45-.04.59-.25.06-.23.11-.38-.01-.58-.22-.14-.3-.17-.65-.18h0l.1-.05Z"/>
        <path class="cls-10" d="M26.59,121.81c-.2.11-.33.24-.37.39-.06.23.08.35.27.57.24.07.4.11.71-.05.23-.18.25-.26.17-.61-.06-.1-.2-.22-.34-.34-.16-.05-.32-.09-.53.02h0l.08.02Z"/>
        <path class="cls-10" d="M43.52,131.58l-.11.38c-.06.23.08.35.19.55.24.07.53-.02.81-.1l.11-.38c.04-.15,0-.33-.22-.47-.32-.09-.4-.11-.71.05l-.08-.02Z"/>
        <path class="cls-14" d="M33.93,128.24l-.13.46c-.04.15.1.27.24.4.24.07.45-.04.73-.13.09-.31.13-.46-.05-.76-.28-.24-.56-.16-.89.08h0l.1-.05Z"/>
        <path class="cls-21" d="M38.15,129c-.18.03-.31.16-.41.22s-.06.23.05.43.26.32.44.29.37-.06.67-.23c.06-.23-.05-.43-.17-.63l-.56-.16-.02.08Z"/>
        <path class="cls-12" d="M40.94,125.57c-.18.03-.31.16-.41.22-.02.08-.06.23.05.43s.26.32.44.29c.16.05.37-.06.67-.23.06-.23-.05-.43-.17-.63l-.56-.16-.02.08Z"/>
        <path class="cls-21" d="M34.72,125.07c-.1.05-.23.18-.35.32s0,.33.33.67c.24.07.45-.04.73-.13.09-.31.11-.38,0-.66-.19-.16-.4-.22-.65-.18h0l-.08-.02Z"/>
        <path class="cls-21" d="M23.78,123.75l-.09.31c-.06.23.05.43.33.67.16.05.32.09.53-.02s.31-.16.37-.39-.05-.43-.27-.57c-.24-.07-.42-.04-.71.05h0l-.16-.05Z"/>
        <path class="cls-3" d="M26.26,119.57l-.11.38c.1.27.14.45.36.59.24.07.45-.04.65-.15l.15-.54c-.16-.37-.5-.39-.89-.25h0l-.16-.05Z"/>
        <path class="cls-3" d="M40.01,132.91c-.18.03-.28.09-.41.22-.06.23-.09.31.09.6.08.02.22.14.38.19.26,0,.45-.04.59-.25.04-.15.09-.31-.05-.43-.18-.3-.26-.32-.62-.26h0l.02-.08Z"/>
        <path class="cls-24" d="M43.17,124.13l-.11.38c-.06.23.08.35.27.57.24.07.4.11.71-.05l.09-.31c.04-.15-.08-.35-.19-.55-.22-.14-.48-.14-.77-.05h0Z"/>
        <path class="cls-24" d="M24.79,126.67c-.18.03-.31.16-.41.22s-.06.23.05.43.26.32.34.34.37-.06.69-.3c.06-.23-.05-.43-.17-.63l-.48-.14-.02.08Z"/>
        <path class="cls-3" d="M31.34,119.75l-.11.38c-.06.23.08.35.27.57.16.05.32.09.53-.02.18-.03.31-.16.35-.32s-.08-.35-.25-.65c-.24-.07-.34-.01-.63.07l-.08-.02-.08-.02Z"/>
        <path class="cls-3" d="M28.49,126.22l-.09.31c-.06.23.08.35.27.57.24.07.4.11.71-.05l.11-.38c.04-.15,0-.33-.22-.47-.32-.09-.48-.14-.79.03Z"/>
        <path class="cls-9" d="M37.52,135.6l-.09.31c.08.35.05.43.33.67.37-.06.65-.15.77-.28.06-.23.11-.38-.09-.6-.28-.24-.48-.14-.77-.05h0l-.16-.05Z"/>
        <path class="cls-9" d="M28.09,129.82l-.09.31c-.06.23.05.43.27.57.24.07.42.04.71-.05l.09-.31c.06-.23-.05-.43-.27-.57-.24-.07-.42-.04-.71.05Z"/>
        <path class="cls-22" d="M29.64,122.08l-.25.26c-.06.23.08.35.27.57l.4.11c.16.05.26,0,.41-.22.06-.23.11-.38-.09-.6s-.48-.14-.77-.05h0l.02-.08Z"/>
        <path class="cls-11" d="M42.63,128.52l-.11.38c.16.05.24.07.42.04l.24.07c.08.02.24.07.37-.06l.12.2c.06-.23-.08-.35-.27-.57-.24-.07-.4-.11-.71.05h0l-.06-.1Z"/>
        <path class="cls-20" d="M30.86,132.66l-.04.15c-.02.08-.06.23.14.45l.24.07c.02-.08-.12-.2-.1-.27l.04-.15-.12-.2-.08-.02-.08-.02Z"/>
        <path class="cls-17" d="M41.48,125.81l-.21.77s.2-.11.31-.16c.06-.2.05-.4-.01-.58l-.08-.02h0Z"/>
        <g id="s-falsebelief-uc-a-cookies-2" data-name="s-falsebelief-uc-a-cookies">
          <path class="cls-7" d="M40.14,114.92s-.18.03-.28.09c-2.12.73-3.84,2.23-4.86,4.01-.44.95-.82,2-.86,3.06l-.04.15c-.08,1.55.4,3.25,1.33,4.58h0c1.35,2.03,3.27,3.23,5.66,3.73,1.39.31,2.81.21,4.22-.14h0c.79,1.54,2.86,2.53,4.47,2.98s4.78.34,6.9-.71c.51-.27.94-.56,1.39-.93,0,0,.02-.08.2-.11,1.78-1.4,2.63-3.48,2.86-5.56.07-2.13-.65-4.23-2.2-5.82-1.7-1.71-3.87-2.65-6.36-2.77-.34-.01-.61,0-.95-.02l-.16-.05c-.26,0-.53.02-.73.13-.28.09-.47.12-.81.1-.36-.27-.54-.56-.8-.88-1.25-1.42-3.39-2.19-5.33-2.4-1.27-.11-2.53.04-3.67.38l-.04.15.08.02Z"/>
          <path class="cls-6" d="M53.68,122.49l-.06.23-.11.38-.11.38c.09.6.21,1.13.77,1.62.22.14.36.27.73.2.18-.03.31-.16.49-.19l.32.09c.08.02.22.14.26.32.65-.15,1-.46,1.31-.95.29-.41.24-.84.2-1.35-.14-.45-.39-.77-.83-1.06-1.01-.45-1.96-.46-2.72.4l-.08-.02-.16-.05Z"/>
          <path class="cls-4" d="M42.83,118.05c-.25.26-.31.49-.26.92l-.13.46c.05.43.21.8.55,1.14l.9.5c.23-.18.43-.29.57-.5.52-.6,1.17-1.08,1.89-1.45-.11-.53-.35-.92-.77-1.29-.88-.58-2.06-.41-2.78.3h0l.02-.08Z"/>
          <path class="cls-1" d="M50.62,118.83l-.11.38c-.06.23.08.35.27.57.24.07.4.11.71-.05l.11-.38c.06-.23-.08-.35-.27-.57-.24-.07-.4-.11-.71.05Z"/>
          <path class="cls-10" d="M48.05,128.93l-.11.38c-.04.15-.09.31.14.45.14.12.3.17.48.14.28-.09.39-.14.53-.35.06-.23.09-.31-.03-.5-.28-.24-.46-.21-.85-.07l-.08-.02-.08-.02Z"/>
          <path class="cls-14" d="M54.75,125.19l-.11.38c.1.27.16.37.36.59.24.07.34.01.63-.07l.11-.38c.06-.23-.08-.35-.27-.57-.24-.07-.4-.11-.71.05h0Z"/>
          <path class="cls-10" d="M50.12,120.92c-.1.05-.23.18-.35.32s-.09.31-.11.38c.06.1.2.22.42.37.26,0,.45-.04.59-.25.06-.23.11-.38-.01-.58-.22-.14-.3-.17-.65-.18h0l.1-.05Z"/>
          <path class="cls-10" d="M38.71,118.47c-.2.11-.33.24-.37.39-.06.23.08.35.27.57.24.07.4.11.71-.05.23-.18.25-.26.17-.61-.06-.1-.2-.22-.34-.34-.16-.05-.32-.09-.53.02h0l.08.02Z"/>
          <path class="cls-10" d="M55.64,128.24l-.11.38c-.06.23.08.35.19.55.24.07.53-.02.81-.1l.11-.38c.04-.15,0-.33-.22-.47-.32-.09-.4-.11-.71.05l-.08-.02Z"/>
          <path class="cls-14" d="M46.05,124.9l-.13.46c-.04.15.1.27.24.4.24.07.45-.04.73-.13.09-.31.13-.46-.05-.76-.28-.24-.56-.16-.89.08h0l.1-.05Z"/>
          <path class="cls-21" d="M50.27,125.67c-.18.03-.31.16-.41.22s-.06.23.05.43.26.32.44.29.37-.06.67-.23c.06-.23-.05-.43-.17-.63l-.56-.16-.02.08Z"/>
          <path class="cls-12" d="M53.06,122.23c-.18.03-.31.16-.41.22-.02.08-.06.23.05.43s.26.32.44.29c.16.05.37-.06.67-.23.06-.23-.05-.43-.17-.63l-.56-.16-.02.08Z"/>
          <path class="cls-21" d="M46.84,121.74c-.1.05-.23.18-.35.32s0,.33.33.67c.24.07.45-.04.73-.13.09-.31.11-.38,0-.66-.19-.16-.4-.22-.65-.18h0l-.08-.02Z"/>
          <path class="cls-21" d="M35.9,120.41l-.09.31c-.06.23.05.43.33.67.16.05.32.09.53-.02s.31-.16.37-.39-.05-.43-.27-.57c-.24-.07-.42-.04-.71.05h0l-.16-.05Z"/>
          <path class="cls-3" d="M38.38,116.23l-.11.38c.1.27.14.45.36.59.24.07.45-.04.65-.15l.15-.54c-.16-.37-.5-.39-.89-.25h0l-.16-.05Z"/>
          <path class="cls-3" d="M52.14,129.57c-.18.03-.28.09-.41.22-.06.23-.09.31.09.6.08.02.22.14.38.19.26,0,.45-.04.59-.25.04-.15.09-.31-.05-.43-.18-.3-.26-.32-.62-.26h0l.02-.08Z"/>
          <path class="cls-24" d="M55.29,120.79l-.11.38c-.06.23.08.35.27.57.24.07.4.11.71-.05l.09-.31c.04-.15-.08-.35-.19-.55-.22-.14-.48-.14-.77-.05h0Z"/>
          <path class="cls-24" d="M36.91,123.34c-.18.03-.31.16-.41.22s-.06.23.05.43.26.32.34.34.37-.06.69-.3c.06-.23-.05-.43-.17-.63l-.48-.14-.02.08Z"/>
          <path class="cls-3" d="M43.46,116.41l-.11.38c-.06.23.08.35.27.57.16.05.32.09.53-.02.18-.03.31-.16.35-.32s-.08-.35-.25-.65c-.24-.07-.34-.01-.63.07l-.08-.02-.08-.02Z"/>
          <path class="cls-3" d="M40.61,122.88l-.09.31c-.06.23.08.35.27.57.24.07.4.11.71-.05l.11-.38c.04-.15,0-.33-.22-.47-.32-.09-.48-.14-.79.03Z"/>
          <path class="cls-9" d="M49.64,132.26l-.09.31c.08.35.05.43.33.67.37-.06.65-.15.77-.28.06-.23.11-.38-.09-.6-.28-.24-.48-.14-.77-.05h0l-.16-.05Z"/>
          <path class="cls-9" d="M40.21,126.49l-.09.31c-.06.23.05.43.27.57.24.07.42.04.71-.05l.09-.31c.06-.23-.05-.43-.27-.57-.24-.07-.42-.04-.71.05Z"/>
          <path class="cls-22" d="M41.76,118.75l-.25.26c-.06.23.08.35.27.57l.4.11c.16.05.26,0,.41-.22.06-.23.11-.38-.09-.6s-.48-.14-.77-.05h0l.02-.08Z"/>
          <path class="cls-11" d="M54.75,125.19l-.11.38c.16.05.24.07.42.04l.24.07c.08.02.24.07.37-.06l.12.2c.06-.23-.08-.35-.27-.57-.24-.07-.4-.11-.71.05h0l-.06-.1Z"/>
          <path class="cls-20" d="M42.98,129.33l-.04.15c-.02.08-.06.23.14.45l.24.07c.02-.08-.12-.2-.1-.27l.04-.15-.12-.2-.08-.02-.08-.02Z"/>
          <path class="cls-17" d="M53.6,122.47l-.21.77s.2-.11.31-.16c.06-.2.05-.4-.01-.58l-.08-.02h0Z"/>
        </g>
      </g>
      <g>
        <path class="cls-2" d="M6.4,103.23h0c-4-.2-6.5-4.5-5.1-8.5l10.2-24.6c1.5-3.9,5.6-5.9,9.3-4.4h0c4.3,1.7,6.1,7.2,3.7,11.3l-12.9,23.2c-1.1,2-3.2,3.1-5.3,3h.1Z"/>
        <path class="cls-26" d="M14.8,65.33c-3.4,2.8-7.8,8.5-10.9,20.9l13.8,6.3s9.7-17,8.5-23.5c-.8-4.5-7.7-6.6-11.5-3.6h0l.1-.1Z"/>
        <path class="cls-2" d="M4.5,93.53h0c1.6,0,3,.5,4.1,1.9l20.3,23.9-6.1,4.4L1.6,102.93c-3.2-3.2-1.3-9,3.1-9.3h-.2v-.1Z"/>
        <path class="cls-2" d="M34.9,127.23l-6-8.4-6.5,3.8s0,.2.2.2c-2.5,9.4,1.2,14.4,1.2,14.4,3.5,4.9,5.2,4.1,5.9,2.6.5-1.1.5-2.3,0-3.4-1.5-4.8-.8-11.9-.8-11.9,6.1,6.2,5.7,2.6,5.7,2.6h.3v.1Z"/>
      </g>
      <g>
        <path class="cls-2" d="M73.4,103.13h0c4-.2,6.5-4.5,5.1-8.5l-10.2-24.6c-1.5-3.9-5.6-5.9-9.3-4.4h0c-4.3,1.7-6.1,7.2-3.7,11.3l12.9,23.2c1.1,2,3.2,3.1,5.3,3h-.1Z"/>
        <path class="cls-26" d="M65,65.23c3.4,2.8,7.8,8.5,10.9,20.9l-13.8,6.3s-9.7-17-8.5-23.5c.8-4.5,7.7-6.6,11.5-3.6h0l-.1-.1Z"/>
        <path class="cls-2" d="M74.1,92.53h0c-1.6,0-2.9.8-3.9,2.1l-18.3,25.4,6.5,3.9,19.5-22.4c3-3.4.7-9-3.7-9h-.1Z"/>
        <path class="cls-2" d="M46.1,125.13l7.6-6.9,5.6,5.1s-.2.1-.3.2c.6,9.7-4.1,13.8-4.1,13.8-4.4,4.1-5.9,3-6.3,1.3-.3-1.1,0-2.4.5-3.3,2.5-4.4,3.3-11.5,3.3-11.5-7.2,4.7-6.1,1.3-6.1,1.3h-.2Z"/>
      </g>
    </g>
  </g>
</svg>