<?xml version="1.0" encoding="UTF-8"?>
<svg id="Ebene_2" data-name="Ebene 2" xmlns="http://www.w3.org/2000/svg" viewBox="0 0 251.5 839.91">
  <defs>
    <style>
      .cls-1 {
        fill: #156caf;
      }

      .cls-2 {
        fill: #d9b6b6;
      }

      .cls-3 {
        fill: #1261ae;
      }

      .cls-4 {
        fill: #d9a2a0;
      }

      .cls-5 {
        fill: #26aeec;
      }

      .cls-6 {
        fill: #6dc3c7;
      }

      .cls-6, .cls-7, .cls-8, .cls-9 {
        isolation: isolate;
        opacity: .5;
      }

      .cls-7, .cls-10 {
        fill: #d9baba;
      }

      .cls-8 {
        fill: #26adeb;
      }

      .cls-11, .cls-9 {
        fill: #603813;
      }

      .cls-12 {
        fill: #8b2b0e;
      }

      .cls-13 {
        fill: #273758;
      }

      .cls-14 {
        fill: #c69696;
      }

      .cls-15 {
        fill: #e6e6e6;
      }

      .cls-16 {
        fill: #3f6138;
      }
    </style>
  </defs>
  <g id="svg">
    <g id="german-girl-drinking">
      <g>
        <path class="cls-2" d="M143.27,310.52h0c-3.06,4.41-4.75,9.85-4.07,15.28l14.6,108.66,22.07-8.15-5.43-104.93c-.68-15.96-18-22.75-27.17-10.87h0Z"/>
        <path class="cls-2" d="M150.4,339.38h0c11.55,1.7,21.05-11.55,19.36-25.47l-14.6-89.65c-2.04-14.26-12.56-23.09-23.77-20.37h0c-12.9,3.06-21.39,20.37-16.98,35.99l24.11,83.87c2.04,7.13,5.43,14.94,11.55,15.62h.34,0Z"/>
        <path class="cls-15" d="M148.36,208.31c10.19,11.21,22.41,33.62,27.84,79.12l-45.84,16.64-4.07-17.66c-11.21-27.84-19.7-53.31-15.62-70.29,4.07-15.96,26.49-20.37,37.69-7.81Z"/>
        <path class="cls-2" d="M137.16,450.76l16.3-31.92,22.75,5.43-.68,1.02c11.88,26.83,1.7,46.52,1.7,46.52-9.51,19.02-15.28,18-18.34,13.92-2.38-2.72-2.72-6.79-1.7-10.19,3.4-16.64-2.72-38.03-2.72-38.03-17.32,25.13-17.66,13.58-17.66,13.58h.34v-.34Z"/>
      </g>
      <g>
        <path class="cls-12" d="M170.43,131.23c.68-15.96-6.45-28.52-12.22-41.43-2.38-5.77-4.75-16.3-8.83-20.71-5.09-6.11-18.34-3.74-25.13-4.41-25.13-2.04-50.26-1.02-75.38,1.02-7.81.68-12.56-2.38-15.96,8.49-2.38,7.13-3.74,9.85-3.74,9.85-8.15,13.24-21.39,21.05-26.83,38.03-4.07,13.92-3.06,31.24,4.75,41.43,0-5.43,1.02-12.56,2.38-17.32,5.43,4.41,8.83,12.56,13.92,17.32s11.21,9.17,17.32,11.88c.68-4.75-.68-11.21.68-15.28,4.07,10.87,14.6,16.3,22.75,21.05,0-6.45-1.02-14.6,4.07-10.87,1.36,1.02,3.06,5.43,4.75,7.13s3.74,2.72,5.77,4.07c6.11,4.07,8.49,5.09,14.6.68,4.07-3.74,9.51-8.49,12.9-13.24,2.04,4.07.68,10.87.34,15.62,6.79.68,15.28-7.47,19.7-13.92,1.02,3.74,0,7.81.68,11.55,8.83-.68,25.13-16.3,29.54-26.15,4.07,3.74,7.13,12.56,5.77,19.02,7.47-11.55,8.15-29.54,8.83-44.14h-.68v.34Z"/>
        <path class="cls-14" d="M84.52,197.78h0c-10.87,0-19.02-9.51-18.68-20.03l1.36-37.69,30.9,1.02-1.7,45.84c0,6.11-5.43,10.87-11.55,10.87h-.34Z"/>
        <path class="cls-10" d="M153.79,109.83c-1.36,6.11-2.38,11.55-4.75,16.98-.68,2.04-1.36,3.74-2.38,5.77-10.87,24.79-30.22,41.09-52.29,40.75-10.53,0-20.37-4.41-28.86-11.55-2.04-1.36-3.74-3.06-5.43-5.09-14.26-15.62-23.43-39.73-22.41-67.23,1.36-45.5,28.18-81.5,60.78-80.82,4.75,0,9.51,1.02,13.92,2.72,25.47,9.51,44.48,42.11,43.46,80.82"/>
        <g>
          <path class="cls-11" d="M77.73,91.5c.68,0,1.36,0,1.7-1.02,5.77-10.87,15.62-6.45,15.96-6.11,1.02,0,2.04,0,2.72-1.02,0-1.02,0-2.04-1.02-2.72-4.75-2.04-15.28-3.4-21.05,7.81,0,1.02,0,2.04.68,2.72h1.02v.34Z"/>
          <path class="cls-11" d="M136.48,82.67s1.02.68,1.7,0c9.51-3.74,13.58,4.41,13.58,4.75,0,.68,1.36,1.02,2.04.68.68,0,1.02-1.36.68-2.04-1.7-4.07-7.81-10.53-17.66-6.45-.68,0-1.36,1.36-1.02,2.04v.68h.68v.34Z"/>
          <path class="cls-11" d="M89.28,99.31c0,3.74,2.38,7.13,5.09,7.13s5.43-3.4,5.43-7.13-2.38-7.13-5.09-7.13-5.43,3.4-5.43,7.13Z"/>
          <path class="cls-11" d="M136.48,99.31c0,3.74,2.38,7.13,5.09,7.13s5.43-3.4,5.43-7.13-2.38-7.13-5.09-7.13-5.43,3.4-5.43,7.13Z"/>
          <path class="cls-11" d="M124.59,150.6c0,6.45-5.09,11.55-11.55,11.55s-11.55-5.09-11.55-11.55,5.09-11.55,11.55-11.55,11.55,5.09,11.55,11.55Z"/>
          <path class="cls-9" d="M125.95,117.98c3.4,3.4,3.4,8.49,0,11.88s-8.49,3.4-11.88,0,6.11.68,9.51-2.38c3.4-3.4-.68-12.56,2.72-9.51h-.34,0Z"/>
          <path class="cls-4" d="M153.12,109.83c-1.36,6.11-2.38,11.55-4.75,16.98-.68,2.04-1.36,3.74-2.38,5.77-3.4-2.38-5.09-6.79-4.75-10.87,0-6.11,5.43-10.87,11.55-11.55h.34v-.34Z"/>
          <path class="cls-4" d="M79.77,109.15c6.79,0,12.22,5.09,11.88,10.87s-6.45,9.85-13.24,9.51-12.22-5.09-11.88-10.87,6.45-9.85,13.24-9.51Z"/>
        </g>
        <path class="cls-7" d="M66.86,161.45h-.68c-2.04-1.36-3.74-3.06-5.43-5.09-14.26-15.62-23.43-39.73-22.41-66.9,1.36-45.5,28.18-81.5,60.78-80.82,4.75,0,9.51,1.02,13.92,2.72-25.81,19.02-71.65,70.29-46.18,150.43h0v-.34Z"/>
        <g>
          <path class="cls-10" d="M51.92,89.8c3.4,10.19,1.02,20.03-5.43,22.07s-14.26-4.41-17.66-14.94c-3.4-10.53-1.02-20.03,5.43-22.07,6.11-2.04,14.26,4.41,17.66,14.94Z"/>
          <path class="cls-7" d="M51.92,89.8c3.4,10.19,1.02,20.03-5.43,22.07s-14.26-4.41-17.66-14.94c-3.4-10.53-1.02-20.03,5.43-22.07,6.11-2.04,14.26,4.41,17.66,14.94Z"/>
        </g>
        <path class="cls-12" d="M153.12,83.01c2.72,14.94,7.81,12.56-.68,43.13-8.49,30.56-3.4,16.64-5.43,24.45-1.7,7.13-7.81,13.58-7.13,21.05,4.75-2.72,14.26-10.19,17.66-14.6,6.79-9.51,4.75-31.24,4.07-42.79h.34c-.68-11.21-1.36-29.88-2.04-38.37v-8.83c0-22.07-5.43-46.52-19.7-59.09-10.19-9.17-19.7-2.72-30.9-5.09C75.01-4.26,46.15.83,32.57,30.37c-32.94,72.33,5.09,112.06,10.87,122.25,3.06,4.75,32.26,25.13,37.01,28.18-24.11-27.84-21.05-74.37-16.64-101.87,2.04-13.58,9.85-25.81,21.05-33.96h0s9.17,10.19,14.6,14.26c6.79,4.75,15.62,8.83,23.09,9.51-1.02-2.04-3.06-4.07-4.07-6.11-.68-1.02-1.36-2.72-2.04-3.74,3.74,5.09,10.19,9.51,14.94,13.58,4.75,3.74,9.85,5.77,15.28,8.15.34-2.04-4.07-11.21-5.43-14.26,1.7,2.72,6.11,4.41,7.47,7.47"/>
      </g>
      <g>
        <path class="cls-2" d="M95.05,673.18c-4.07,63.5-12.56,129.38-14.6,129.38l-19.7-1.36-6.79-130.73-5.09-98.14v-4.07c0-1.36,0-2.72.68-4.07,2.38-10.53,12.22-18,23.43-17.32,11.21.68,20.37,9.85,21.05,20.71,0,3.06.68,5.77,1.02,8.83,3.4,21.05,2.38,58.41,0,96.78h0Z"/>
        <path class="cls-13" d="M56.68,826.33c0,2.04,1.36,5.43,3.06,8.15,1.7,3.4,5.09,5.43,8.83,5.43h73.35c16.64-8.83-61.8-37.01-61.8-37.01h-19.36s-4.41,19.7-3.74,23.77h-.34v-.34Z"/>
        <path class="cls-2" d="M71.96,590.66h0c12.9-1.36,22.41-12.22,22.07-25.47l-2.72-119.87c-2.38-17.32-18-29.2-35.32-26.83h0c-17.32,2.38-29.2,18-26.83,35.32l18,114.77c1.7,13.24,11.55,23.43,24.79,22.07h0Z"/>
      </g>
      <g>
        <path class="cls-2" d="M155.15,673.18c-4.07,63.5-12.56,129.38-14.6,129.38l-19.7-1.36-6.79-130.73-5.09-98.14v-4.07c0-1.36,0-2.72.68-4.07,2.38-10.53,12.22-18,23.43-17.32s20.37,9.85,21.05,20.71c0,3.06.68,5.77,1.02,8.83,3.4,21.05,2.38,58.41,0,96.78h0Z"/>
        <path class="cls-13" d="M117.46,826.33c0,2.04,1.36,5.43,3.06,8.15,1.7,3.4,5.09,5.43,8.83,5.43h73.35c16.64-8.83-61.8-37.01-61.8-37.01h-19.36s-4.41,19.7-3.74,23.77h-.34v-.34Z"/>
        <path class="cls-2" d="M132.74,590.66h0c12.9-1.36,22.41-12.22,22.07-25.47l-2.72-119.87c-2.38-17.32-18-29.2-35.32-26.83h0c-17.32,2.38-29.2,18-26.83,35.32l18,114.77c1.7,13.24,11.55,23.43,24.79,22.07h0Z"/>
      </g>
      <path class="cls-15" d="M46.49,342.44l-18-100.85c-2.04-11.21-1.7-29.88,10.19-34.3l18-13.58,8.49-7.81,30.9,1.02s5.43,6.11,15.96,9.17c39.39,12.22,30.56,7.81,35.99,56.03l1.36,31.24c1.02,27.84,2.72,55.35,5.43,83.19-34.3,10.53-68.93,8.83-103.91-4.41l-4.07-19.7h-.68.34,0Z"/>
      <g>
        <path class="cls-16" d="M159.57,477.93l-54.33,22.75-64.52-24.79h0s-5.09-18-3.06-40.75c1.02-8.83,3.06-17.66,5.43-25.81,4.75-14.26,6.45-28.86,6.45-43.8,1.02-2.72,1.7-3.74,1.7-3.74,34.98,13.24,69.61,14.94,103.91,4.41,0,1.7,0,3.06.68,4.75.68,7.81,1.7,15.96,3.06,23.77,0,2.04.68,3.74.68,5.43.68,3.4,1.02,6.79,1.36,10.19,2.04,14.6,2.38,32.26-.68,67.23h-.68v.34Z"/>
        <path class="cls-16" d="M50.9,363.15S8.12,463.66,6.42,559.08c0,5.09,2.72,9.17,6.79,10.87,26.49,8.15,123.94,34.64,172.16,0,3.06-2.38,5.09-6.11,4.41-10.53-2.72-27.84-14.26-138.88-33.62-192.54-34.98,13.24-69.95,11.55-105.61-3.74h.34Z"/>
      </g>
      <g>
        <path class="cls-2" d="M163.93,267.05h0c1.05,13.18,4.01,31-28.61,19.64l-93.25-23.32c-14.83-2.93-23.45-15.97-19.97-28.87h0c4.29-14.75,23.11-22.62,39.66-16.26l86.51,34.67c7.68,2.9,15.58,7.76,15.69,14.9l.27-.62-.3-.14h0Z"/>
        <path class="cls-15" d="M25.19,252.02c10.22,12.68,31.35,29.04,76.02,39.02l20.99-53.84-17.28-6.33c-26.5-15.55-50.82-27.07-67.88-23.23-16.07,3.2-22.71,29.9-11.28,43.89l-.27.62-.3-.14Z"/>
        <g id="s-deception-b-cup-blue">
          <g>
            <path class="cls-5" d="M160.94,101.45l4.13,18.67,10.58,47.8.44,1.99,1.6,7.25,73.23-28.86c.52-.12.34-3.16-.37-7.99-.09-.65-.2-1.33-.31-2.04-.77-4.8-1.95-10.94-3.42-17.61-.96-4.34-1.94-8.43-2.87-12.04-2.29-8.87-4.3-14.86-5.05-14.68,0,0,0,0,0,0l-77.95,7.5Z"/>
            <path class="cls-3" d="M247.09,120.61c1.42,6.4,2.63,12.66,3.43,17.62.11.71.22,1.4.31,2.05,1.16,7.93.54,8.21.18,8.3l-73.22,28.85c-.07.03-.15.02-.22-.02-.07-.04-.12-.1-.13-.18l-16.76-75.72c-.02-.08,0-.16.04-.23.05-.06.12-.11.19-.11l77.91-7.49s0,0,.01,0c.38-.09.9.14,2.26,4.13.89,2.6,1.96,6.32,3.11,10.76.97,3.75,1.94,7.81,2.88,12.05ZM250.83,148.05c.08-.13.43-1.1-.53-7.69-.09-.65-.2-1.33-.31-2.04-.79-4.95-2.01-11.2-3.42-17.59-.94-4.24-1.9-8.28-2.87-12.03-2.81-10.88-4.33-14.2-4.77-14.47,0,0,0,0-.01,0l-77.65,7.47,16.62,75.09,72.94-28.74Z"/>
          </g>
          <path class="cls-6" d="M175.65,167.93l.44,1.99,5.51-2.27,68.96-27.33c-.09-.65-.2-1.33-.31-2.04l-69.09,27.38-5.51,2.27Z"/>
          <path class="cls-8" d="M160.94,101.45l4.13,18.67,3.38-.45,75.5-11.04c-2.29-8.87-4.3-14.86-5.05-14.68,0,0,0,0,0,0l-77.95,7.5Z"/>
          <g>
            <path class="cls-5" d="M169.21,181.21l.3,1.42,9.7-4.02c1.49-.36-1.38-19.08-6.06-40.23-4.68-21.15-9.95-39.2-11.43-38.84l-10.37.73,17.88,80.94Z"/>
            <path class="cls-3" d="M173.4,138.33c2.25,10.17,4.2,20.35,5.35,27.93,1.84,12.11.95,12.52.54,12.63l-9.68,4.01c-.07.03-.16.02-.22-.01-.07-.04-.11-.11-.14-.19l-.3-1.42-17.88-80.94c-.02-.08,0-.16.05-.23.05-.06.12-.11.2-.11l10.35-.73c.42-.1,1.39-.12,4.81,11.55,2.15,7.32,4.67,17.35,6.92,27.51ZM169.71,182.26l9.4-3.9s.03,0,.04-.01c1.01-.88-1.31-17.48-6.27-39.89-4.95-22.37-9.84-38.31-11.14-38.63l-10.08.71,17.81,80.62.23,1.11Z"/>
          </g>
          <path class="cls-6" d="M167.86,175.09l11.35-4.67c-.09-.66-.19-1.34-.3-2.05l-11.5,4.73.44,1.99Z"/>
          <path class="cls-8" d="M155.5,119.11c4.23-.27,8.44-.75,12.63-1.42-2.93-10.96-5.46-18.38-6.41-18.15l-10.37.73,4.16,18.83Z"/>
          <g>
            <path class="cls-5" d="M151.29,100.27c1.6-.38,6.98,17.74,12.01,40.49s7.82,41.49,6.22,41.88-6.98-17.74-12.01-40.49c-5.03-22.74-7.82-41.49-6.22-41.88Z"/>
            <path class="cls-3" d="M163.56,140.7c2.44,11.01,4.42,21.43,5.6,29.34,1.86,12.52.81,12.77.42,12.87s-1.44.35-5.03-11.76c-2.27-7.65-4.86-17.93-7.3-28.94-2.44-11.01-4.42-21.43-5.6-29.34-1.86-12.52-.81-12.77-.42-12.87s1.44-.35,5.03,11.76c2.27,7.65,4.86,17.93,7.3,28.94ZM157.76,142.09c2.39,10.8,4.94,20.93,7.18,28.53,3.32,11.28,4.41,11.73,4.52,11.75.07-.06.86-.97-.89-12.62-1.18-7.86-3.15-18.13-5.53-28.92s-4.94-20.93-7.18-28.53c-3.32-11.28-4.41-11.73-4.52-11.75-.07.06-.86.96.89,12.62,1.18,7.85,3.15,18.13,5.53,28.92Z"/>
          </g>
          <g>
            <path class="cls-1" d="M151.93,104c1.06-.25,5.65,16.45,10.27,37.31,4.62,20.86,7.5,37.98,6.45,38.23s-5.65-16.45-10.27-37.31c-4.62-20.86-7.5-37.98-6.45-38.23Z"/>
            <path class="cls-3" d="M162.46,141.25c2.23,10.09,4.13,19.63,5.35,26.86,1.93,11.46,1.28,11.61.89,11.71s-1.04.25-4.12-10.93c-1.94-7.05-4.24-16.49-6.47-26.59-2.23-10.09-4.13-19.63-5.35-26.86-1.93-11.46-1.28-11.61-.89-11.71s1.04-.25,4.12,10.93c1.94,7.05,4.24,16.49,6.47,26.59ZM168.56,179.17c.44-1.89-2.04-17.06-6.63-37.8-4.59-20.74-8.74-35.5-9.93-37-.44,1.89,2.04,17.06,6.63,37.8,4.59,20.74,8.74,35.5,9.93,37Z"/>
          </g>
        </g>
        <path class="cls-2" d="M190.76,229.92l-14.05,43.98c-5.38,16.73-24.34,18.61-30.65,3.36h0c-1.95-5.4-1.52-11.51.54-17.39l44.66-110.01,20.45,15.11-20.95,64.96"/>
        <path id="hand1" class="cls-10" d="M182.7,160.25l-13.37-14.71c-2.76-3-8.49-12.49-8.26-16.63.04-5.28,6.5.75,19.39,13.79l3.8-29.4s6.1-18.11,12.43-2.88c0,0,9.99-17.27,13.89.17,0,0,10.5-14.24,11.76,8.57l-.39,21.94c-.23,7.46-2.7,14.95-7.38,20.5-4.68,5.55-11.85,9.61-21.47,5.92-3.8-1.44-7.08-4.16-10.05-7.32l-.15.22-.21-.16Z"/>
      </g>
    </g>
  </g>
</svg>