<?xml version="1.0" encoding="UTF-8"?>
<svg xmlns="http://www.w3.org/2000/svg" xmlns:xlink="http://www.w3.org/1999/xlink" viewBox="0 0 87.88 293.52">
  <defs>
    <style>
      .cls-1, .cls-2 {
        fill: #603813;
      }

      .cls-3 {
        fill: #273758;
      }

      .cls-4 {
        fill: #eebd8a;
      }

      .cls-5 {
        fill: #e6e6e6;
      }

      .cls-6 {
        fill: #e7f4fc;
      }

      .cls-7 {
        fill: #c69696;
      }

      .cls-8 {
        fill: #c9c969;
      }

      .cls-9 {
        fill: #d9a2a0;
      }

      .cls-10 {
        fill: #d4ecf6;
      }

      .cls-11 {
        fill: #8ea4a3;
        mix-blend-mode: multiply;
        opacity: .2;
      }

      .cls-12 {
        fill: #c4e5f3;
      }

      .cls-13 {
        opacity: .11;
      }

      .cls-13, .cls-14, .cls-15 {
        fill: #fff;
      }

      .cls-16 {
        fill: #d79a5c;
      }

      .cls-17 {
        fill: #9fcce3;
      }

      .cls-18, .cls-2 {
        isolation: isolate;
      }

      .cls-19 {
        fill: url(#linear-gradient);
        opacity: .89;
      }

      .cls-20 {
        fill: #b5b947;
      }

      .cls-21 {
        fill: #bec34b;
      }

      .cls-15 {
        mix-blend-mode: screen;
        opacity: .83;
      }

      .cls-22 {
        fill: #d8d770;
      }

      .cls-23 {
        fill: #9ba144;
      }

      .cls-24 {
        fill: #001cff;
      }

      .cls-25 {
        fill: #0b00c8;
      }

      .cls-2 {
        opacity: .5;
      }

      .cls-26 {
        fill: #d9b6b6;
      }

      .cls-27 {
        fill: #e9b078;
      }

      .cls-28 {
        fill: #466e9f;
      }

      .cls-29 {
        fill: #d9baba;
      }

      .cls-30 {
        fill: #adafb2;
      }

      .cls-31 {
        fill: #dadbdc;
      }

      .cls-32 {
        fill: none;
        stroke: #630;
        stroke-linecap: round;
        stroke-miterlimit: 10;
      }

      .cls-33 {
        fill: #d38a17;
      }
    </style>
    <linearGradient id="linear-gradient" x1="36.99" y1="178.61" x2="36.99" y2="149.94" gradientUnits="userSpaceOnUse">
      <stop offset=".34" stop-color="#9adbf9"/>
      <stop offset=".98" stop-color="#77caf2"/>
    </linearGradient>
  </defs>
  <g class="cls-18">
    <g id="Layer_2" data-name="Layer 2">
      <g id="Layer_1-2" data-name="Layer 1">
        <g id="german-boy-bottles">
          <g>
            <path class="cls-26" d="M65.64,235.91c-1.5,22.1-4.6,45-5.3,45l-6.9-.5-2.1-45.5-1.6-34.1v-1.4c0-.5,0-.9.2-1.4.9-3.7,4.2-6.3,8.1-5.9,4.4.3,7.5,4,7.3,8.4,1.5,6.8,1.2,21,.2,35.5h.1v-.1h0Z"/>
            <path class="cls-5" d="M63.34,261.51c-1.3,11.2-2.5,19.4-3,19.4l-6.9-.5-.9-18.9h10.8Z"/>
            <path class="cls-3" d="M51.54,287.71c.1,1.4.8,2.5,1.9,3.2.7.5,26.8,2.8,27.5,2.6,5.9-2.8-20.8-13.2-20.8-13.2l-7.2.2s-1.5,5.8-1.3,7.3h-.1v-.1h0Z"/>
            <g>
              <path class="cls-26" d="M66.64,156.01l-.9,32.1-.2,9.7c-.1,4.5-3.7,8.2-8.1,8.4-4.7.2-7.8-3.4-8.1-8.2l-1.1-9.9-3.2-30.3v-.9c0-5.7,4.4-10.4,10-10.9,6-.5,11.3,4,11.8,10h-.2Z"/>
              <path class="cls-28" d="M66.64,156.01l.5,30.9c0,.6-.5,1.2-1.2,1.2h-19.7c-.6,0-1.2-.5-1.2-1.2l-.2-29.2v-.9c0-5.7,4.4-10.4,10-10.9,6-.5,11.3,4,11.8,10h0v.1h0Z"/>
            </g>
          </g>
          <g>
            <path class="cls-26" d="M20.14,235.91c1.5,22.1,4.6,45,5.3,45l6.9-.5,2.1-45.5,1.6-34.1v-1.4c0-.5,0-.9-.2-1.4-.9-3.7-4.2-6.3-8.1-5.9-4.4.3-7.7,4-7.3,8.4-1.5,6.8-1.2,21-.2,35.5h-.1v-.1h0Z"/>
            <path class="cls-5" d="M33.04,261.51l-.9,18.9-6.9.5c-.5,0-1.6-8.2-3-19.4h10.8Z"/>
            <path class="cls-3" d="M33.94,287.71c-.1,1.4-.8,2.5-1.9,3.2-.7.5-26.8,2.8-27.5,2.6-5.9-2.8,20.8-13.2,20.8-13.2l7.2.2s1.5,5.8,1.3,7.3h.1v-.1h0Z"/>
            <g>
              <path class="cls-26" d="M40.74,157.01v.8l-2.8,30.5-.9,9.8c-.4,4.7-3.4,8.4-8.1,8.3-4.5-.2-8-3.8-8.3-8.3l-.4-9.7-1.3-32c.5-6,5.7-10.5,11.7-10.2,5.8.3,10.1,5.2,10.1,10.9h0v-.1h0Z"/>
              <path class="cls-28" d="M40.74,157.01v.8l-.9,29.4c0,.6-.5,1.1-1.1,1.1h-19.2c-.6,0-1.1-.5-1.1-1.1l.5-30.9c.5-6,5.7-10.5,11.7-10.2,5.8.3,10.1,5.2,10.1,10.9h0Z"/>
            </g>
          </g>
          <path class="cls-5" d="M68.24,78.91l-1.3,7.7-4.8,29.5c-1.2,4.6-1.4,9.3-.7,13.9H24.34c1.8-5.3,2.2-10.9,1.3-16.4l-4.6-26.7-1.4-7.9,1.4-.8,18.5-11.7h10.7l16.8,11.6,1.3.8h-.1Z"/>
          <path class="cls-28" d="M66.54,159.21l-20.7,8.8h-6.1l-20.7-8.6c-.6-5.9.4-14.9,2-20.7.5-1.7,1.1-3.3,1.6-4.7.6-1.3,1.2-2.6,1.5-4h37.1c.4,2.1.8,4.4,1.5,6.4.8,2.5,1.6,5.5,2.1,9.2.6,3.5,1.9,9,1.3,13.6h.4Z"/>
          <path class="cls-28" d="M54.44,69.41h0c-2.8,9.4-16,9.8-19.5.6,0,0,0-.2-.1-.3l4.8-3.1h10.7l4.1,2.8h-.1.1Z"/>
          <g>
            <path class="cls-7" d="M45.04,70.91h0c-3,0-5.3-2.4-5.3-5.3v-7.9h10.7v7.9c0,3-2.4,5.3-5.3,5.3h-.1Z"/>
            <path class="cls-29" d="M70.84,36.11c-1.1,1.8-2.7,3-4.4,3.3h-1.4c-.5,4.6-2.1,8.8-4.5,12.3-4.5,6.7-11.2,10.7-16.2,10.5h-1.2c-5.3,0-11.5-3.7-15.7-9.8-2.4-3.4-4.1-7.5-4.8-12.2h-.4c-1.6,0-3.4-1.3-4.6-3.1-.2-.3-.4-.6-.5-.9-.2-.5-.4-.8-.5-1.3h0c-.4-1.8,0-3.2,1.4-3.8h0c1.2-.5,2.7,0,4.1.8,1.1-14,9.8-26.4,20.7-26.7,3.3,0,6.5.9,9.3,2.7,2.7,1.7,5.1,4.2,7.1,7.4h0c2.8,4.6,4.8,10.5,5.4,16.4h0c.6-.6,1.3-1.1,2-1.3.9-.5,2-.5,2.8,0,1.9.8,2.2,3.4.7,6l.5-.3h.2Z"/>
            <g>
              <path class="cls-1" d="M30.84,31.01c.2,0,.5,0,.6-.3,1.9-3.6,5.2-2.1,5.3-2,.3,0,.7,0,.9-.3,0-.3,0-.7-.3-.9-1.6-.7-5.1-1.1-7,2.6,0,.3,0,.7.2.9h.3Z"/>
              <path class="cls-1" d="M50.44,28.11s.3.2.6,0c3.2-1.2,4.5,1.5,4.5,1.6,0,.2.5.3.7.2.2,0,.3-.5.2-.7-.6-1.3-2.6-3.5-5.9-2.1-.2,0-.5.5-.3.7v.2h.2v.1h0Z"/>
              <path class="cls-1" d="M34.74,33.61c0,1.2.8,2.4,1.7,2.4s1.8-1.1,1.8-2.4-.8-2.4-1.7-2.4-1.8,1.1-1.8,2.4Z"/>
              <path class="cls-1" d="M50.44,33.61c0,1.2.8,2.4,1.7,2.4s1.8-1.1,1.8-2.4-.8-2.4-1.7-2.4-1.8,1.1-1.8,2.4Z"/>
              <path class="cls-32" d="M38.94,49.41c.2.2,1.7,3.5,5.6,3.4,3.8,0,5.4-3,5.6-3.4"/>
              <path class="cls-2" d="M47.34,42.71c0,1.6-1.2,2.8-2.8,2.8s-2.8-1.2-2.8-2.8,1.2,1.6,2.8,1.6,2.8-3.2,2.8-1.6Z"/>
              <path class="cls-9" d="M57.34,37.01c2.2,0,4.1,1.7,4,3.6s-2.1,3.3-4.4,3.2-4.1-1.7-4-3.6,2.1-3.3,4.4-3.2Z"/>
              <path class="cls-9" d="M31.54,37.01c2.2,0,4.1,1.7,4,3.6s-2.1,3.3-4.4,3.2-4.1-1.7-4-3.6,2.1-3.3,4.4-3.2Z"/>
            </g>
            <path class="cls-33" d="M67.94,17.41c-1.9-6.4-5.7-11.9-11.9-15C50.94-.09,34.04-4.09,24.74,11.11c-3.8,6.1-4.6,13.9-4.6,21s1.1,12.2,4.8,17c.6.7,1.3,1.4,2,2,0,0-.8-4.2-1.4-6-1.9-6.3-1.6-13.6.4-19.8.4-.9.7-1.8,1.1-2.7.1-.5,1.3-2.6,1.2-3,2,4.8,8.6,6.7,13.3,7.5-.8-1.3-2.1-2-3-3.4-.8-1.4-1.3-3-1.8-4.4,5.7,2.1,11.6,6.1,18.1,5.8-1.4-1.4-5.2-4.2-5.1-6.6,1.4,2,3.9,2.6,6.1,3.4,1.4.5,3,.8,4.4,1.3,1.2.3,1.2.2,1.5,1.3,2.1,7.1,3.1,15.6,1.4,22.9.4-1.8,3.3-5.2,3.9-6.8.7-2,1.3-4,1.8-6.1.8-4.1.8-8.5.2-12.6-.2-1.5-.6-3.1-.9-4.5h-.2Z"/>
          </g>
          <g>
            <g>
              <path class="cls-13" d="M46.75,161.44c-.61-2.3-.27-11.14,0-18.7.27-7.56-3.78-20.32-4.93-24.98-1.15-4.66-1.01-6.62-1.01-6.62,0,0-.07-4.32,0-4.79.07-.47-.54-.61-.54-.61h-6.57s-.61.14-.54.61c.07.47,0,4.79,0,4.79,0,0,.14,1.96-1.01,6.62-1.15,4.66-5.2,17.42-4.93,24.98.27,7.56.61,16.41,0,18.7-.61,2.3-1.08,5.47.34,8.37s5.47,3.31,6.62,3.31h5.62c1.15,0,5.2-.41,6.62-3.31,1.42-2.9.95-6.08.34-8.37Z"/>
              <path class="cls-19" d="M46.73,143.24h-19.49c.27,7.45.58,15.95-.02,18.2-.61,2.3-1.08,5.47.34,8.37s5.47,3.31,6.62,3.31h5.62c1.15,0,5.2-.41,6.62-3.31,1.42-2.9.95-6.08.34-8.37-.59-2.24-.28-10.75-.02-18.2Z"/>
              <path class="cls-30" d="M39.8,173.22h-5.62c-.21,0-5.08-.04-6.71-3.37-1.13-2.31-1.24-5.07-.34-8.44.59-2.21.29-10.6.02-18l-.02-.67c-.22-6.14,2.43-15.79,4.01-21.56.38-1.38.7-2.56.92-3.45,1.13-4.58,1.01-6.57,1.01-6.59,0-.05.07-4.33,0-4.79-.06-.45.38-.67.62-.72h.02s6.59,0,6.59,0c.24.05.68.27.62.72-.07.46,0,4.74,0,4.78,0,.03-.12,2.01,1.01,6.59.22.89.54,2.07.92,3.45,1.58,5.77,4.23,15.42,4.01,21.56l-.02.67c-.26,7.4-.57,15.79.02,18h0c.89,3.38.78,6.14-.34,8.44-1.63,3.33-6.5,3.37-6.71,3.37ZM33.72,105.83c-.07.02-.5.14-.45.49.07.48,0,4.63,0,4.81,0,.07.12,2.02-1.02,6.64-.22.89-.55,2.08-.92,3.46-1.58,5.76-4.22,15.39-4,21.5l.02.67c.27,7.41.57,15.82-.03,18.06-.88,3.33-.77,6.04.33,8.3,1.57,3.21,6.32,3.25,6.53,3.25h5.62c.2,0,4.96-.04,6.53-3.25,1.1-2.26,1.21-4.97.33-8.3h0c-.59-2.24-.29-10.65-.03-18.06l.02-.67c.22-6.11-2.42-15.74-4-21.5-.38-1.38-.7-2.57-.92-3.46-1.14-4.62-1.02-6.57-1.02-6.65,0-.17-.07-4.33,0-4.8.05-.35-.38-.47-.45-.49h-6.54Z"/>
              <path class="cls-11" d="M46.75,161.44c-.61-2.3-.27-11.14,0-18.7.27-7.56-3.78-20.32-4.93-24.98-1.15-4.66-1.01-6.62-1.01-6.62,0,0-.07-4.32,0-4.79.07-.47-.54-.61-.54-.61h-6.57s-.61.14-.54.61c.07.47,0,4.79,0,4.79,0,0,.14,1.96-1.01,6.62-1.15,4.66-5.2,17.42-4.93,24.98.27,7.56.61,16.41,0,18.7-.61,2.3-1.08,5.47.34,8.37s5.47,3.31,6.62,3.31h5.62c1.15,0,5.2-.41,6.62-3.31s.95-6.08.34-8.37ZM30.87,170.96c-3.96-1.98-2.66-6.4-1.98-9.81.81-4.05.18-12.87-.09-18.64-.27-5.76.63-9.81,2.88-16.3,2.25-6.48,2.61-14.32,2.61-14.32l2.34-.09s.59,10.6,1.53,16.21c.95,5.6.36,21.45.63,29.08.27,7.63.45,4.05.9,9.27.51,5.92-4.86,6.57-8.82,4.59Z"/>
              <path class="cls-11" d="M46.75,161.44c-.61-2.3-.27-11.14,0-18.7.27-7.56-3.78-20.32-4.93-24.98-1.15-4.66-1.01-6.62-1.01-6.62,0,0-.07-4.32,0-4.79.07-.47-.54-.61-.54-.61h-1.29c0,.1,0,.2,0,.3.02,5.57.17,11.2,1.57,16.62,1.35,5.22,2.84,10.43,3.49,15.8.33,2.75.35,5.48.31,8.25-.05,2.82-.13,5.63-.16,8.45-.01,1.39-.05,2.79.02,4.18.07,1.27.36,2.5.63,3.74.48,2.19.87,4.55-.1,6.67-.64,1.4-1.72,2.42-3,3.17,1.64-.34,3.73-1.17,4.67-3.09,1.42-2.9.95-6.08.34-8.37Z"/>
              <g>
                <g>
                  <rect class="cls-31" x="32.04" y="109.88" width="9.57" height="1.27" rx=".61" ry=".61"/>
                  <path class="cls-30" d="M41.04,111.23h-8.43c-.36,0-.65-.29-.65-.65v-.13c0-.36.29-.65.65-.65h8.43c.36,0,.65.29.65.65v.13c0,.36-.29.65-.65.65ZM32.61,109.96c-.27,0-.5.22-.5.5v.13c0,.27.22.5.5.5h8.43c.27,0,.5-.22.5-.5v-.13c0-.27-.22-.5-.5-.5h-8.43Z"/>
                </g>
                <g>
                  <path class="cls-14" d="M40.83,107.63l-7.87.78c-.16.02-.3-.1-.31-.25h0c-.02-.16.1-.3.25-.31l7.87-.78c.16-.02.3.1.31.25h0c.02.16-.1.3-.25.31Z"/>
                  <path class="cls-30" d="M32.93,108.49c-.08,0-.16-.03-.23-.08-.07-.06-.12-.15-.13-.24,0-.1.02-.19.08-.26.06-.08.15-.12.24-.13l7.87-.78c.2-.02.38.13.4.32,0,.1-.02.19-.08.26-.06.08-.15.12-.24.13l-7.87.78s-.02,0-.04,0ZM40.8,107.14s-.01,0-.02,0l-7.87.78c-.05,0-.1.03-.14.07-.04.04-.05.1-.05.15,0,.05.03.1.07.14.04.04.1.05.15.05l7.87-.78h0c.05,0,.1-.03.14-.07.04-.04.05-.1.05-.15-.01-.11-.1-.19-.21-.19Z"/>
                </g>
                <g>
                  <path class="cls-14" d="M40.83,108.9l-7.87.78c-.16.02-.3-.1-.31-.25h0c-.02-.16.1-.3.25-.31l7.87-.78c.16-.02.3.1.31.25h0c.02.16-.1.3-.25.31Z"/>
                  <path class="cls-30" d="M32.93,109.77c-.08,0-.16-.03-.23-.08-.07-.06-.12-.15-.13-.24-.02-.2.13-.38.32-.4l7.87-.78c.1,0,.19.02.27.08.08.06.12.15.13.24.02.2-.13.38-.32.4h0l-7.87.78s-.02,0-.04,0ZM40.8,108.41s-.01,0-.02,0l-7.87.78c-.11.01-.2.11-.18.23,0,.05.03.1.07.14.04.04.1.05.15.05l7.87-.78c.11-.01.2-.11.19-.23,0-.05-.03-.1-.07-.14-.04-.03-.08-.05-.13-.05ZM40.83,108.9h0,0Z"/>
                </g>
                <g>
                  <path class="cls-14" d="M40.83,106.35l-7.87.78c-.16.02-.3-.1-.31-.25h0c-.02-.16.1-.3.25-.31l7.87-.78c.16-.02.3.1.31.25h0c.02.16-.1.3-.25.31Z"/>
                  <path class="cls-30" d="M32.93,107.22c-.08,0-.16-.03-.23-.08-.07-.06-.12-.15-.13-.24-.02-.2.13-.38.32-.4l7.87-.78c.1,0,.19.02.27.08.08.06.12.15.13.24.02.2-.13.38-.32.4h0l-7.87.78s-.02,0-.04,0ZM40.8,105.86s-.01,0-.02,0l-7.87.78c-.11.01-.2.11-.18.23,0,.05.03.1.07.14.04.04.1.05.15.05l7.87-.78c.11-.01.2-.11.19-.23,0-.05-.03-.1-.07-.14-.04-.03-.08-.05-.13-.05ZM40.83,106.35h0,0Z"/>
                </g>
                <rect class="cls-15" x="32.28" y="110.12" width="6.31" height=".86" rx=".42" ry=".42"/>
              </g>
            </g>
            <g>
              <path class="cls-24" d="M31.87,106.01c3.27-2.09,8.35-1.24,9.72-.14.12.88.16,1.81.13,2.74-.03.88-.13,1.78-.29,2.65-2.43-.13-4.9-.09-7.33.03-.57.03-1.29-.02-1.92.06-.1-.47-.18-.95-.25-1.43-.18-1.33-.2-2.66-.06-3.91Z"/>
              <path class="cls-25" d="M34.1,111.3c-.57.03-1.29-.02-1.92.06-.1-.47-.18-.95-.25-1.43,1.63.44,3.36.52,5.05.36,1.71-.16,3.49-.63,4.73-1.67-.03.88-.13,1.78-.29,2.65-2.43-.13-4.9-.09-7.33.03Z"/>
              <path class="cls-25" d="M34.76,106.26c2.08.29,3.82.31,5.9.06.03,0,.03.03,0,.04-1.83.55-4.1.56-5.94.03-.09-.03-.05-.14.04-.13Z"/>
            </g>
          </g>
          <g>
            <path class="cls-10" d="M67.92,153.18s.06-.03.06-.07c0-.98-.32-1.99-.55-2.93-.25-1.03-.53-2.06-.83-3.08-.67-2.33-1.43-4.64-2.19-6.95-1.41-4.28-2.84-8.56-3.79-12.96,0-.04-.05-.05-.08-.03-.59-3.2-.85-6.41-.57-9.58.07-.8.18-1.61.32-2.41.06,0,.11-.02.17-.03.05,0,.05-.07.02-.1.28-.06.54-.16.77-.31.74-.47,1.01-1.86.76-2.96-.15-.64-.48-1.17-1.01-1.36-.18-.06-.38-.1-.59-.13.09-.49.1-.85.16-1.35.15-1.39.15-2.78,0-4.09-3.13-2.13-7.72-1.27-9.01-.11-.1.92-.13,1.89-.09,2.86.04.92-.01,1.82.15,2.73h-.03c-.23.02-.47.04-.68.14-.93.46-1.03,2.11-.88,2.99.1.55.41,1.09.91,1.34-.03.02-.03.07.02.09.26.11.53.19.81.25.8,4.39.42,8.88-.51,13.34-.92,4.41-2.39,8.8-3.82,13.04-1.65,4.92-3.25,10.11-3.88,15.26-.49,4.01-.39,8.01.73,11.85-.02,0-.04.03-.04.06.25,1.12.69,2.31,1.4,3.26.19.29.41.56.67.79.5.45,1.09.75,1.73.94.75.26,1.55.4,2.32.49,2.03.22,4.1.25,6.14.19,1.91-.06,3.98-.03,5.88-.39,1.24-.11,2.45-.41,3.35-1.23.58-.53.97-1.23,1.28-1.96.07-.18.14-.36.21-.54,2.05-5.47,1.84-11.31.68-17.09v.04Z"/>
            <path class="cls-8" d="M62.63,145.44c-.03-.09-.06-.18-.09-.27h0c0-.06-.02-.11-.06-.17-.41-.61-3.14-1.08-6.43-1.08s-6.02.47-6.44,1.08c-.04.05-.05.11-.05.16h0c-.03.09-.06.18-.09.28-.78,2.32-1.54,4.71-2.13,7.12-1.21,5.02-1.66,10.15.12,14.91.26.7.59,1.41,1.14,1.91.93.85,2.3.97,3.55.99,1.3.03,6.49.03,7.79,0,1.26-.03,2.62-.14,3.55-.99.56-.5.88-1.21,1.14-1.91.24-.65.45-1.31.61-1.97,1.61-6.52-.44-13.58-2.61-20.06h0Z"/>
            <path class="cls-4" d="M60.63,104.72c-3.13-2.13-7.94-1.17-9.23,0-.1.92-.13,1.89-.09,2.86.04.92.15,1.85.31,2.77,2.31-.17,4.65-.16,6.96-.08.54.02,1.22-.04,1.82.03.09-.49.16-.99.21-1.49.15-1.39.15-2.78,0-4.09h.02Z"/>
            <path class="cls-27" d="M58.59,110.27c.54.02,1.22-.04,1.82.03.09-.49.16-.99.21-1.49-1.54.48-3.18.59-4.79.45-1.63-.14-3.32-.6-4.51-1.67.04.92.15,1.85.31,2.77,2.31-.17,4.65-.16,6.96-.08h0Z"/>
            <path class="cls-12" d="M60.48,115.05h-.02c-1.53-.31-3.26-.05-4.81-.01-1.55.03-3.11.07-4.64-.22-.02,0-.04,0-.05.01-.03.02-.03.07.02.09.26.11.53.19.81.25.8,4.39.42,8.88-.51,13.34,1.98-3.58,4.47-6.87,7.39-9.73.42-.41.85-.81,1.3-1.19.07-.8.18-1.61.32-2.41.06,0,.11-.02.17-.03.05,0,.05-.07.02-.1h0Z"/>
            <path class="cls-17" d="M55.31,115.33c1.62-.03,3.38.12,4.98-.16.06,0,.11-.02.17-.03.05,0,.05-.07.02-.1h-.02c-1.53-.31-3.26-.05-4.81-.01-1.55.03-3.11.07-4.64-.22-.02,0-.04,0-.05.01-.03.02-.03.07.02.09.26.11.53.19.81.25,1.14.26,2.37.19,3.52.17Z"/>
            <path class="cls-12" d="M53.47,172.24c-2.66-.52-5.35-1.59-7.08-3.67-1.42-1.7-2.07-3.91-2.42-6.1-.3-1.87-.41-3.76-.39-5.66-.49,4.01-.39,8.01.73,11.85-.02,0-.04.03-.04.06.25,1.12.69,2.31,1.4,3.26.15.2.31.39.49.57.54.54,1.2.91,1.91,1.16.75.26,1.55.4,2.32.49,2.03.22,4.1.25,6.14.19,1.91-.06,3.98-.03,5.88-.39,1.24-.11,2.45-.41,3.35-1.23.58-.53.97-1.23,1.28-1.96-4.26,1.78-9.03,2.32-13.56,1.43h-.01Z"/>
            <path class="cls-17" d="M44.27,168.72c.25,1.12.69,2.31,1.4,3.26.15.2.31.39.49.57.54.54,1.2.91,1.91,1.16.75.26,1.55.4,2.32.49,2.03.22,4.1.25,6.14.19,1.91-.06,3.98-.03,5.88-.39.18-.03.36-.07.54-.12.09-.02.06-.14-.02-.15-1.84-.11-3.76.24-5.6.32-.36.02-.72.03-1.09.03-.82.02-1.65.02-2.47,0-.69-.02-1.37-.05-2.06-.09-1.72-.1-3.65-.26-5.04-1.38-1.26-1.01-1.62-2.56-2.31-3.94-.01-.02-.04-.03-.06-.02-.02,0-.04.03-.04.06h0Z"/>
            <path class="cls-21" d="M61.61,166.08c-3.63.18-7.45-.79-10.06-3.32-1.43-1.39-2.43-3.19-3.14-5.06-.62-1.63-1.01-3.39-1.08-5.14-1.21,5.02-1.66,10.15.12,14.91.26.7.59,1.41,1.14,1.91.93.85,2.3.97,3.55.99,1.3.03,6.49.03,7.79,0,1.26-.03,2.62-.14,3.55-.99.56-.5.88-1.21,1.14-1.91.24-.65.45-1.31.61-1.97-1.18.34-2.41.52-3.63.58h.01Z"/>
            <path class="cls-23" d="M53.8,166.91c2.5-.28,4.96-.29,7.46,0,.02,0,.02-.03,0-.03-2.45-.59-5.01-.62-7.48-.08-.07.01-.05.13.02.12h0Z"/>
            <path class="cls-23" d="M54.32,169.52c2.64.16,5.48-.04,8-.89.11-.04.07-.2-.05-.18-2.13.45-4.23.85-6.42.85-1.01,0-2.01-.05-3.01-.18-.77-.1-3.06-.35-3.16-1.39,0-.06-.09-.06-.09,0-.1,1.59,3.69,1.72,4.73,1.79Z"/>
            <path class="cls-20" d="M56.05,146.41c3.58,0,6.48-.55,6.49-1.24h0c0-.06-.02-.11-.06-.17-.41-.61-3.14-1.08-6.43-1.08s-6.02.47-6.44,1.08c-.04.05-.05.11-.05.16h0c0,.69,2.91,1.24,6.49,1.24h0Z"/>
            <path class="cls-6" d="M52.32,141.57c2.28-.75,3.2-5.12,3.59-7.29.26-1.43.44-3.07-.15-4.43-.07-.16-.15-.31-.24-.45.71-.21,1.23-.86,1.23-1.64,0-.94-.76-1.71-1.71-1.71s-1.71.76-1.71,1.71c0,.34.1.65.27.91-.17.1-.34.24-.51.43-.62.69-.52,1.5-.59,2.39-.12,1.47-.53,2.85-1.06,4.2-.54,1.38-1.23,2.82-1.01,4.3.15,1,.89,1.91,1.89,1.58h0Z"/>
            <path class="cls-22" d="M64.61,161.82c-.01-.65-.45-1.19-1.05-1.36.37-.57.48-1.35.54-1.98.3-3.21-.08-6.55-1.62-9.38-.48-.88-1.64-1.83-2.58-.96-.72.68-.82,1.88-.62,2.79.22.98.75,1.86,1.14,2.84.47,1.2.61,2.5.7,3.79.07,1.02.13,2.08.64,2.97.09.15.2.28.33.38-.22.26-.35.59-.34.96.01.79.67,1.42,1.46,1.41.79-.01,1.42-.67,1.41-1.46h-.01Z"/>
            <path class="cls-23" d="M51.53,150.09c.4.06.76-.2.86-.59.1-.37-.08-.79-.44-.95-.07-.03-.13.07-.06.11.28.13.43.45.37.75s-.33.41-.6.39c-.27-.02-.54-.21-.53-.51.01-.29.25-.56.55-.57.22,0,.22-.35,0-.34-.46.01-.86.39-.89.85-.03.44.32.79.74.85h0Z"/>
            <path class="cls-23" d="M58.27,162.69c.4.06.76-.2.86-.59.1-.37-.08-.79-.44-.95-.07-.03-.13.07-.06.11.28.13.43.45.37.75s-.33.41-.6.39c-.27-.02-.54-.21-.53-.51.01-.29.25-.56.55-.57.22,0,.22-.35,0-.34-.46.01-.86.39-.89.85-.03.44.32.79.74.85h0Z"/>
            <path class="cls-23" d="M49.03,163.41c.14.07.22.22.19.38-.03.15-.17.21-.3.2-.14,0-.27-.1-.27-.25s.13-.28.27-.28c.11,0,.11-.17,0-.17-.23,0-.43.19-.44.43-.01.22.16.4.37.43.2.03.38-.1.43-.29s-.04-.4-.22-.47c-.04-.02-.07.04-.03.05v-.03Z"/>
            <path class="cls-23" d="M64.7,158.66c.2.03.38-.1.43-.29s-.04-.4-.22-.47c-.04-.02-.07.04-.03.05.14.07.22.22.19.38-.03.15-.17.21-.3.2-.14,0-.27-.1-.27-.25s.13-.28.27-.28c.11,0,.11-.17,0-.17-.23,0-.43.19-.44.43-.01.22.16.4.37.43v-.03Z"/>
            <path class="cls-16" d="M57.89,105.02c-1.97.34-3.62.38-5.6.15-.03,0-.03.04,0,.04,1.75.54,3.9.52,5.64-.06.08-.03.05-.15-.04-.13h0Z"/>
          </g>
          <g>
            <path class="cls-26" d="M6.94,119.91h0c-4.4-.2-7.2-5-5.6-9.4l11.3-27.2c1.7-4.3,6.2-6.5,10.3-4.9h0c4.8,1.9,6.7,7.9,4.1,12.5l-14.3,25.6c-1.2,2.2-3.5,3.4-5.9,3.3h.1v.1h0Z"/>
            <path class="cls-5" d="M16.24,78.11c-3.8,3.1-8.6,9.4-12,23.1l15.3,7s10.7-18.8,9.4-26c-.9-5-8.5-7.3-12.7-4h0v-.1Z"/>
            <path class="cls-26" d="M6.54,110.11h0c1.7.3,3.1,1.3,3.9,3l15.9,30.7-7.7,3.2L.94,119.31c-2.7-4.2.8-10,5.6-9.2h0Z"/>
            <path class="cls-26" d="M32.3,148.45l-8.43-7.63-6.19,5.58s.16.16.29.22c-.56,10.7,4.64,15.22,4.64,15.22,4.89,4.53,6.54,3.2,6.98,1.45.29-1.27.05-2.56-.67-3.69-2.78-4.85-3.65-12.71-3.65-12.71,8,5.23,6.8,1.52,6.8,1.52l.19-.07.03.09v.02Z"/>
          </g>
          <g>
            <path class="cls-26" d="M81.04,119.81h0c4.4-.2,7.2-5,5.6-9.4l-11.3-27.2c-1.7-4.3-6.2-6.5-10.3-4.9h0c-4.8,1.9-6.7,7.9-4.1,12.5l14.3,25.6c1.2,2.2,3.5,3.4,5.9,3.3h-.1v.1h0Z"/>
            <path class="cls-5" d="M71.74,78.01c3.8,3.1,8.6,9.4,12,23.1l-15.3,7s-10.7-18.8-9.4-26c.9-5,8.5-7.3,12.7-4h0v-.1Z"/>
            <path class="cls-26" d="M80.94,109.21h0c-1.7.4-3,1.5-3.7,3.2l-13.8,31.7,7.9,2.7,15.8-28.8c2.4-4.4-1.4-9.9-6.1-8.8h-.1Z"/>
            <path class="cls-26" d="M56.91,148.62l8.53-7.44,6.08,5.72s-.17.14-.31.19c.41,10.73-4.89,15.13-4.89,15.13-4.98,4.44-6.59,3.16-6.98,1.34-.32-1.24.08-2.6.67-3.65,2.82-4.76,3.86-12.63,3.86-12.63-8.09,5.01-6.75,1.33-6.75,1.33l-.18-.08h0l-.04.09h0Z"/>
          </g>
        </g>
      </g>
    </g>
  </g>
</svg>