<?xml version="1.0" encoding="UTF-8"?>
<svg id="Layer_2" data-name="Layer 2" xmlns="http://www.w3.org/2000/svg" xmlns:xlink="http://www.w3.org/1999/xlink" viewBox="0 0 81.41 298.72">
  <defs>
    <style>
      .cls-1, .cls-2 {
        fill: none;
      }

      .cls-3 {
        fill: #ba652a;
      }

      .cls-3, .cls-4, .cls-5, .cls-6, .cls-7, .cls-8, .cls-9, .cls-10, .cls-11, .cls-12, .cls-13, .cls-14, .cls-15, .cls-16, .cls-17, .cls-18, .cls-19, .cls-20, .cls-21, .cls-22, .cls-23, .cls-24, .cls-25, .cls-26, .cls-27, .cls-28, .cls-29, .cls-30, .cls-31, .cls-32, .cls-33, .cls-34, .cls-35, .cls-36, .cls-37, .cls-38, .cls-39, .cls-40, .cls-41, .cls-42, .cls-43, .cls-44, .cls-45, .cls-46, .cls-47, .cls-48, .cls-49, .cls-50, .cls-51 {
        fill-rule: evenodd;
      }

      .cls-4 {
        fill: #de8947;
      }

      .cls-5 {
        fill: #dd330d;
      }

      .cls-6 {
        fill: #e42e0e;
      }

      .cls-7 {
        fill: #ffe05c;
      }

      .cls-8 {
        fill: #e39323;
      }

      .cls-52 {
        fill: #543a35;
      }

      .cls-9 {
        fill: #e5360d;
      }

      .cls-53, .cls-54 {
        fill: #603813;
      }

      .cls-10 {
        fill: #f8b153;
      }

      .cls-11 {
        fill: #f49f6c;
      }

      .cls-55 {
        fill: #ca8a8c;
      }

      .cls-56 {
        fill: #d9a2a0;
      }

      .cls-12 {
        fill: #eea54a;
      }

      .cls-13 {
        fill: #b56e00;
      }

      .cls-14 {
        fill: #d2773a;
      }

      .cls-57 {
        fill: #d9a8a7;
      }

      .cls-15 {
        fill: #c05602;
      }

      .cls-16 {
        fill: #819811;
      }

      .cls-17 {
        fill: #fbcc93;
      }

      .cls-18 {
        fill: #f9cfcb;
      }

      .cls-19 {
        fill: #facc00;
      }

      .cls-20 {
        fill: #8dc8eb;
      }

      .cls-21 {
        fill: #788c0f;
      }

      .cls-22 {
        fill: #65750c;
      }

      .cls-23 {
        fill: #ffdb37;
      }

      .cls-24 {
        fill: #ffeb95;
      }

      .cls-58, .cls-54 {
        isolation: isolate;
      }

      .cls-25 {
        fill: #e8904b;
      }

      .cls-26 {
        fill: #f39600;
      }

      .cls-27 {
        fill: #6f800e;
      }

      .cls-28 {
        fill: #f18c00;
      }

      .cls-29 {
        fill: #f29000;
      }

      .cls-59 {
        fill: #344260;
      }

      .cls-30 {
        fill: #d78343;
      }

      .cls-31 {
        fill: #195f80;
      }

      .cls-60 {
        fill: #faf0f5;
      }

      .cls-32 {
        fill: #f7b371;
      }

      .cls-33 {
        fill: #a34801;
      }

      .cls-34 {
        fill: #d4320d;
      }

      .cls-35 {
        fill: #ffd400;
      }

      .cls-36 {
        fill: #d05e04;
      }

      .cls-37 {
        fill: #90ab13;
      }

      .cls-38 {
        fill: #73aecf;
      }

      .cls-54 {
        opacity: .5;
      }

      .cls-39 {
        fill: #c0e5fa;
      }

      .cls-40 {
        fill: #70abcc;
      }

      .cls-41 {
        fill: #809711;
      }

      .cls-42 {
        fill: #b14f03;
      }

      .cls-61 {
        fill: #1d2d4e;
      }

      .cls-43 {
        fill: #e95441;
      }

      .cls-44 {
        fill: #f8b776;
      }

      .cls-45 {
        fill: #eec200;
      }

      .cls-46 {
        fill: #015272;
      }

      .cls-47 {
        fill: #fac47e;
      }

      .cls-62 {
        clip-path: url(#clippath);
      }

      .cls-48 {
        fill: #9bd3f2;
      }

      .cls-49 {
        fill: #c75b03;
      }

      .cls-50 {
        fill: #bf7500;
      }

      .cls-51 {
        fill: #f1a260;
      }

      .cls-2 {
        stroke: #630;
        stroke-linecap: round;
        stroke-miterlimit: 10;
      }
    </style>
    <clipPath id="clippath">
      <path class="cls-1" d="M22.86,73.01l.4,1.5c0,.1,0,.3-.2.3l-4.6,1.2c-.1,0-.3,0-.3-.2l-.4-1.4c-.1-.5.2-.9.6-1.1l3.4-.9c.4-.1.9.1,1,.6h.1Z"/>
    </clipPath>
  </defs>
  <g id="Ebene_1" data-name="Ebene 1">
    <g class="cls-58">
      <g id="Layer_1-2" data-name="Layer 1">
        <g id="german-woman-grocery">
          <g>
            <path class="cls-61" d="M50.46,216.81h0c-4.3,0-7.7-3.4-7.9-7.6l-1.8-64.4c0-6.9,5.7-12.6,12.6-12.6h0c6.9,0,12.6,5.7,12.6,12.6,2.2,21.6-1.1,46.3-8,66.7-1.1,3.2-4.1,5.3-7.5,5.3h0Z"/>
            <path class="cls-61" d="M48.36,286.61h-5.6v-74.9c0-4.5,3.2-8.1,7.2-8.1h0c3.6,0,6.6,2.9,7.1,6.8,3,21.9-.3,47.9-8.8,76.2h.1Z"/>
            <path class="cls-52" d="M48.36,286.51s22.4,10.1,17,12c-.6.2-20.1-2.7-20.6-3-1.1-.6-1.8-1.7-1.9-3v-5.9h5.5v-.1Z"/>
          </g>
          <g>
            <path class="cls-61" d="M29.46,217.01h0c4.3,0,7.7-3.4,7.9-7.6l1.8-64.4c0-6.9-5.7-12.6-12.6-12.6h0c-6.9,0-12.6,5.7-12.6,12.6-2.2,21.6,1.1,46.3,8,66.7,1.1,3.2,4.1,5.3,7.5,5.3h0Z"/>
            <path class="cls-61" d="M31.46,286.81h5.6v-74.9c0-4.5-3.2-8.1-7.2-8.1h0c-3.6,0-6.6,2.9-7.1,6.8-3,21.9.3,47.9,8.8,76.2h-.1Z"/>
            <path class="cls-52" d="M31.46,286.71s-22.4,10.1-17,12c.6.2,20.1-2.7,20.6-3,1.1-.6,1.8-1.7,1.9-3v-5.9h-5.5v-.1Z"/>
          </g>
          <path class="cls-52" d="M68.66,35.91c-2.7-5-6.9-8.9-9.7-13.8-1.2-2.1-1-19.5-14-21.8-2.7-.5-5.6-.3-8.3.2-2.6.5-5.2.8-7.4,2.3-2.1,1.4-3.8,3.4-4.9,5.6-1.4,2.9-1.6,6.2-2.8,9.2-3.4,8-9.9,14.3-12.6,22.5-.2.6-.4,1.3-.6,1.9-.9,3.6.2,7.6,2,10.8,1-2.3.6-4.9,1.9-7.3.7,6.1,1.6,11.9,5.5,16.9,3.7,4.8,8.4,7.2,13.5,10.2-.4-.9-.7-1.7-.6-2.7,2,1.9,6,3.9,8.7,3.2,4.1-1.2,7.6-3.7,11.1-5.7,0,1-1.4,2.6-2,3.4,4.8-2.4,10.6-6.4,13.2-11.2,2.5-4.6,3-10.2,3.5-15.2,1.7,2.2,2,5.4,2.9,7.9,2.6-4.7,3-11.8.5-16.6v.2h.1Z"/>
          <g>
            <path class="cls-61" d="M64.96,140.31l-24.1,14.8-26.8-11.9c1.8-11,7-22.6,10.6-29.8,2.3-4.5,4-7.3,4-7.3h22.8c1.3,2.1,2.7,4.6,3.9,7.3,5.5,11.9,9.6,26.9,9.6,26.9Z"/>
            <path class="cls-60" d="M64.66,59.41l-2.5,12.6c-.3,1.3-.6,2.7-.9,4.1-.3,1.5-.7,2.9-1.2,4.4l-6.2,21.5-.3.9-.9,3.2-.6,2.1h-22.7l-.6-2.1-.9-3.2-.6-2.2-5.6-19.5c-.5-1.7-.9-3.4-1.2-5.2-.3-1.7-.6-3.4-.8-5.1l-1.4-12.6,3.3-1.4,6.4-2.7,8.5-3.6h9.4l4.7,2.2,6.9,3.2,7.1,3.3h0l.1.1Z"/>
            <path class="cls-52" d="M28.76,106.11h0l-.9-3.2h26.3l-.9,3.2c1.4,2.1,2.8,4.6,4.2,7.3H24.56c2.4-4.5,4.3-7.3,4.3-7.3h-.1Z"/>
            <path class="cls-59" d="M30.86,52.81l4.5,32.7c2,14.7,2.1,29.6.3,44.3l-1.9,15.5c-1.4,11.2-11.6,19.7-23.7,19.7h-1.8c1.3-19.5,5.7-37.8,12.4-50.2,3.2-5.9,2.8-13.4,3.1-19.1l-7-37.1,14.3-5.7h-.2v-.1Z"/>
            <path class="cls-59" d="M49.86,52.11l-4.5,32.7c-2,14.7-2.1,29.6-.3,44.3l1.9,15.5c1.4,11.2,11.6,19.7,23.7,19.7h1.8c-1.3-19.5-5.7-37.8-12.4-50.2-3.2-5.9-2.9-12.7-3.1-19.1l8.3-35.5-15.5-7.3h0v-.1h.1Z"/>
          </g>
          <path class="cls-59" d="M3.96,96.8h0c3.06,1.72,6.76.76,7.95-2.33,5.35-10.56,9.84-20.91,12.54-30.56,1.24-2.99-.35-6.83-3.49-8.5h0c-7.65-3.48-16.81,20.38-20.54,32.8-1.24,2.99.35,6.83,3.49,8.5h0l.05.1Z"/>
          <path class="cls-59" d="M77.64,95.97h0c-3.04,1.43-6.85.28-8.19-2.71-5.9-10.34-10.92-20.42-14.08-29.73-1.39-2.91.06-6.44,3.19-7.82h0c7.65-2.81,17.99,20.37,22.33,32.36,1.39,2.91-.06,6.44-3.19,7.82h0l-.05.09Z"/>
          <g>
            <path class="cls-14" d="M23.36,87.41h0l1.9-2.4,1,.7,2-2.4,1,.7h0l1.9-1.5,2,1.4,2-1.2,2,1.4,2-1.2,1.9,1.4h.1l1.9-1.2,1.8,1.4h.2l1.8-1.2,1.8,1.3h.3l1.8-1.1,1.8,1.3h.3l1.8-1.1,1.9,1.4h0l1.9-1.2c.4.3,1.9,1.4,1.9,1.8,0,.2-.5.7-1.4,1.6l-.6.8h-.3c-3,2.7-7.9,6.7-7.9,6.7l-20.7,3.2-8.4-2.6-3.6-3.9h-.2l1.9-2.9,1,.7,2-2.4,1,.6.2-.1Z"/>
            <path class="cls-3" d="M23.36,87.41h0l1.9-2.4,1,.7,2-2.4,1,.7h0v10.2s-1.5,1.3-3.1,2.8l-5-1.6-3.6-3.9h-.2l1.9-2.9,1,.7,2-2.4,1,.6.1-.1Z"/>
            <g>
              <path class="cls-9" d="M38.86,73.21s-.3-.6-.8-1.3-.6-1.2-.6-1.6,4.9,0,7.6.3c2.7.2,7.6.1,7.9.2s2.3.3,2.3.8-.9,1.4-1.1,2.3-.2,1.6-.3,2.6c0,1,.6,6.1.2,11.7-.4,5.6-.3,15.1-.5,15.8-.2.7-3.1.7-6,1-3,.3-9.3,0-10.1-1-.8-1,.5-24.1.5-25.7s.4-2.5.6-3.4.2-1.6.2-1.6l.1-.1Z"/>
              <path class="cls-43" d="M42.46,100.91c-1.2-.6-.6-2-.8-9.3-.1-7.2,0-14.2,2-14.8,2-.5,5-.2,4.4.8s-2.4.9-2.9,8.1-.7,11.4,0,13.9c.6,2.5.5,2.7-2.7,1.3Z"/>
              <path class="cls-5" d="M43.96,105.01c-2.8,0-5.9-.5-6.4-1.1-.8-1,.5-24.1.5-25.7s.4-2.5.6-3.4c.1-.5.2-.9.2-1.2,2.7,0,8.2.9,9.3,1.4,1.3.5-5.8.3-7.6.9-1.8.6-1.3,12.8-.7,20.5.6,7.7,4.1,8.6,4.1,8.6h0Z"/>
              <path class="cls-5" d="M55.26,71.51c0,.4-.9,1.4-1.1,2.3s-.2,1.6-.3,2.6c0,1,.6,6.1.2,11.7-.4,5.6-.3,15.1-.5,15.8-.2.7-3.1.7-6,1h-.7c1.3-.2,3.8-1.1,4.3-6,.7-6.4,1.6-20,.8-21.4-.8-1.3.7-5.6,3.3-6.1v.1Z"/>
              <path class="cls-29" d="M54.06,78.51c.2,2.2.4,5.8.1,9.6-.1,1.8-.2,4.1-.2,6.3-4.1.4-11.7.4-16.5,0,.2-6.9.7-15.3.7-16.2v-.2c2.8,0,10.6,0,15.9.5Z"/>
              <path class="cls-26" d="M44.76,94.71h-3v-3c0-5.7,0-11.3,1-13.7,1.6,0,3.3,0,5.1.1-.8.7-2.1,1.5-2.6,7.7-.3,3.7-.4,6.6-.5,9v-.1Z"/>
              <path class="cls-28" d="M39.76,94.61c-.8,0-1.7,0-2.4-.2.2-6.9.7-15.3.7-16.2v-.2h1.6c-.6,3.5-.3,10.8,0,16.6h.1Z"/>
              <path class="cls-28" d="M54.06,78.51c.2,2.2.4,5.8.1,9.6-.1,1.8-.2,4.1-.2,6.3-.7,0-1.4.1-2.2.2.5-6,.9-13.8.5-16.2.6,0,1.2.1,1.8.2v-.1Z"/>
              <path class="cls-34" d="M37.66,71.31s.9,1,2.5,1.2c1.6.1,13.7.5,13.8.8.1.2-13-.2-14.1-.5-1.1-.2-2.2-1.5-2.2-1.5h0Z"/>
              <path class="cls-34" d="M40.96,73.21s12.9.3,13,.6-13.9-.1-13-.6Z"/>
              <path class="cls-6" d="M38.86,71.01c-.6-.2,1-.4,4.4-.1,3.4.2,5.3.4,7.6.4s3.7.4,3.2.8-1.5,0-5.3.1c-3.8,0-8.7-.4-9.9-1.2h0Z"/>
              <path class="cls-43" d="M42.16,71.31c0,.6,10.3,1.1,10.3.6s-9.5-.7-10.3-.6Z"/>
              <path class="cls-18" d="M43.26,78.91c.6-.6.8,2.4.4,4.7s-.3,15.3-.7,15.9c-.4.5-.7-19.4.3-20.5v-.1Z"/>
            </g>
            <g>
              <polygon class="cls-8" points="24.16 108.31 44.96 104.81 47.76 98.81 43.36 72.91 23.16 76.31 19.26 79.61 24.16 108.31"/>
              <polygon class="cls-47" points="43.36 72.91 23.16 76.31 19.26 79.61 19.26 79.71 40.36 76.01 43.36 72.91"/>
              <polygon class="cls-10" points="24.16 108.31 44.96 104.81 40.36 76.01 19.26 79.61 24.16 108.31"/>
              <path class="cls-12" d="M40.36,76.01l-21.2,3.6,4,22.9s-2.4-18,17.2-26.5Z"/>
              <path class="cls-13" d="M26.06,108.01l18.8-3.2-3.9-24.4c-17.9,4-15,27.5-15,27.5l.1.1Z"/>
              <polygon class="cls-17" points="23.26 76.31 20.66 78.41 41.46 74.91 43.36 72.91 23.26 76.31"/>
              <polygon class="cls-8" points="20.66 78.41 41.46 74.91 41.36 75.01 20.46 78.61 20.66 78.41"/>
              <path class="cls-50" d="M38.46,84.11c-1.7,1.8-12.3,21.1-8.2,19.4,4.2-1.6,6.6-9.8,6.9-6.9.3,2.9-.6,7.7.7,5,1.3-2.6,3.2-21.2.6-17.6v.1Z"/>
              <polygon class="cls-13" points="45.36 100.81 42.06 81.21 43.86 78.81 46.86 97.51 45.36 100.81"/>
            </g>
            <g>
              <path class="cls-20" d="M22.56,74.71l.5,1.5s2.1.6,3.6,1.8c1.4,1.2,2,2.3,2.1,4.1,0,1.9-.4,3.5,0,4.1s2.8,1.6,3.7,4.2c.9,2.6,4.8,18.5,4.8,18.5,0,0,.9,3.8-.6,4.7s-2.3-.2-3.2,0c-.9.3-1.2,2-2.1,2-.7.4-1.9-.9-2.8-.7-.9.2-1.1,1.5-2.9,1.5s-2.8-3.8-2.8-3.8c0,0-4.3-15.7-4.8-18.5s1.1-4.8,1.2-5.5c0-.7-1.2-1.9-2-3.6-.9-1.7-.9-2.9-.2-4.6.7-1.7,2.2-3.3,2.2-3.3l-.3-1.5,1.8-.7h0l1.9-.3-.1.1Z"/>
              <path class="cls-40" d="M23.16,76.21c.6.2,2.2.7,3.4,1.7,1.4,1.2,2,2.3,2.1,4.1,0,1.9-.4,3.5,0,4.1v.1c-.7.2-1.5.3-2.3.2,0,0,2.5-2.6,1.4-5.6-1-2.7-3.9-4-4.6-4.7v.1Z"/>
              <path class="cls-40" d="M19.16,88.81v-.1c0-.7-1.2-1.9-2-3.6-.9-1.7-.9-2.9-.2-4.6.6-1.6,2-3,2.2-3.3-.2.9-2.2,3.5-1.7,6.5.5,3.2,3.9,4.2,3.9,4.2-.7.5-1.5.8-2.2.9h0Z"/>
              <path class="cls-40" d="M28.46,80.71c0,.2,0,.4.1.6,0-.2,0-.4-.1-.6h0ZM28.56,83.51c0,1.3-.3,2.3,0,2.7.4.6,2.8,1.6,3.7,4.2.9,2.6,4.8,18.5,4.8,18.5,0,0,.9,3.8-.6,4.7-1.5.8-2.3-.2-3.2,0-.9.3-1.2,2-2.1,2h0s.7-.5.8-1.2c.1-.8.3-1.5,1.1-1.8.8-.3,2.4.2,2.9-1.4.4-1.2-1.8-11.2-3.6-17.1-2.7-8.9-4.6-6.4-9.1-5.8-1.4.2,4.3-1.3,5.2-4.9l.1.1Z"/>
              <path class="cls-40" d="M31.36,115.61h0c-.7.4-1.9-.9-2.8-.7-.9.2-1.1,1.5-2.9,1.5s-2.8-3.8-2.8-3.8c0,0-4.3-15.7-4.8-18.5s1.1-4.8,1.2-5.5c0-.5-.6-1.3-1.3-2.4,2.6,2.7,8.3,1.2,7,1.7-4.2,1.6-7.1.3-5.1,9.4,1.3,6,4.3,15.8,5.2,16.6,1.2,1.2,2.4,0,3.2-.2.9,0,1.4.5,1.8,1.1.5.6,1.2.7,1.3.7h0v.1ZM16.86,84.41c-.1-.3-.2-.5-.2-.7,0,.2.2.5.2.7Z"/>
              <path class="cls-38" d="M22.56,74.71l.4,1.2c-.7-.8-2-.5-2.9-.1s-.9,1.2-.9,1.2h0l-.3-1.4,1.8-.7h0l1.9-.3v.1Z"/>
              <path class="cls-46" d="M18.26,72.81l3.4-.9c.4-.1.9.1,1,.6l.5,2c0,.1,0,.3-.2.3l-4.6,1.2c-.1,0-.3,0-.3-.2l-.5-1.9c-.1-.5.2-.9.6-1.1h.1Z"/>
              <g>
                <path id="SVGID" class="cls-31" d="M22.86,73.01l.4,1.5c0,.1,0,.3-.2.3l-4.6,1.2c-.1,0-.3,0-.3-.2l-.4-1.4c-.1-.5.2-.9.6-1.1l3.4-.9c.4-.1.9.1,1,.6h.1Z"/>
                <g class="cls-62">
                  <g>
                    <path class="cls-46" d="M18.16,73.61h0s.2,0,.2.1l.7,2.5s0,.2-.1.2h0s-.2,0-.2-.1l-.7-2.5s0-.2.1-.2Z"/>
                    <g>
                      <path class="cls-46" d="M18.76,73.51h0s.2,0,.2.1c.2.8.4,1.7.7,2.5,0,0,0,.2-.1.2h0s-.2,0-.2-.1c-.2-.8-.4-1.7-.7-2.5,0,0,0-.2.1-.2Z"/>
                      <path class="cls-46" d="M19.36,73.31h0s.2,0,.2.1c.2.8.4,1.7.7,2.5,0,0,0,.2-.1.2h0s-.2,0-.2-.1c-.2-.8-.4-1.7-.7-2.5,0,0,0-.2.1-.2Z"/>
                      <path class="cls-46" d="M19.86,73.21h0s.2,0,.2.1c.2.8.4,1.7.7,2.5,0,0,0,.2-.1.2h0s-.2,0-.2-.1c-.2-.8-.4-1.7-.7-2.5,0,0,0-.2.1-.2Z"/>
                      <path class="cls-46" d="M20.46,73.01h0s.2,0,.2.1c.2.8.4,1.7.7,2.5,0,0,0,.2-.1.2h0s-.2,0-.2-.1c-.2-.8-.4-1.7-.7-2.5,0,0,0-.2.1-.2Z"/>
                      <path class="cls-46" d="M21.06,72.91h0s.2,0,.2.1c.2.8.4,1.7.7,2.5,0,0,0,.2-.1.2h0s-.2,0-.2-.1c-.2-.8-.4-1.7-.7-2.5,0,0,0-.2.1-.2Z"/>
                      <path class="cls-46" d="M21.56,72.71h0s.2,0,.2.1c.2.8.4,1.7.7,2.5,0,0,0,.2-.1.2h0s-.2,0-.2-.1c-.2-.8-.4-1.7-.7-2.5,0,0,0-.2.1-.2Z"/>
                    </g>
                    <path class="cls-46" d="M22.16,72.61h0s.2,0,.2.1l.7,2.5s0,.2-.1.2h0s-.2,0-.2-.1l-.7-2.5s0-.2.1-.2Z"/>
                  </g>
                </g>
              </g>
              <path class="cls-48" d="M24.56,78.51c.9.4-2.4,2-3.3,3.5-.8,1.5,1.8,4.5.7,4.8s-3.9-1.5-4-4c-.2-3.7,5-5.1,6.6-4.3h0Z"/>
              <path class="cls-39" d="M18.96,81.21c.8-.5,1.6-.1,1,.8s0,1.9-.3,2.3c-.4.3-2.3-1.7-.7-3.1Z"/>
              <path class="cls-48" d="M21.96,90.21c1.7-.6,2.9-.6,3.4,2.7.5,3.3,2.4,17.3,3.5,18.4,1.1,1.1.2,1.7-1.1,2.1-1.4.4-3-1.9-4.1-5.7-1.1-3.8-5.5-16.1-1.6-17.6l-.1.1Z"/>
              <path class="cls-39" d="M21.76,91.51c1-.2,1,.4,1.1,3.3,0,2.8.5,8.1,1.6,11.8,1.1,3.7-1.5-.5-2.4-5.1s-1.9-9.9-.3-9.9v-.1Z"/>
              <path class="cls-39" d="M31.26,110.61s2.3-.7.5-6.6c-1.8-5.9-4.3-13.8-3.3-14.2,1-.4,5.2,14.7,5.2,18.1s-2.4,2.7-2.4,2.7h0Z"/>
            </g>
            <g>
              <path class="cls-27" d="M39.36,92.31c-.2-.2.2-.4-.6-.8-.8-.4-1.1-.4-1.6,0s-1.7.1-2.7-.7c-1-.8-1.4-2.1-.7-2.9.6-.7,1.7-.6,1.4-1.1s-1.4-2.2.4-4.3c1.7-2.1,3.4-1.6,4.2-.7.9.8,1.5,1.3,1.9.9.4-.3-.4-1.9.6-2.9,1.1-1,1.9-.5,1.9-.5,0,0,2.2-1.8,4.1-.5,1.8,1.3,1.2,1.7,1.7,2.2s1.6.5,2.2,1.8-1.7,3.1-1.7,3.1c0,0,2.8,1.5,2.7,3.2,0,1.7-2.2,2.3-2.9,2.5s-.3,1,.4,1.2c.7.1.9,2.8-.8,4.9-1.7,2.1-4.6.8-5.6,0-.9-.9,0-2.4-.8-2.5s-1.2.7-2,.2c-.8-.6,1.1-4.2-2.1-3.2v.1Z"/>
              <path class="cls-22" d="M39.06,87.31s-.3,1.4.2,1.9.9-.4,1.7-.8,2.2,0,1.9.6c-.3.7,0,1.5-.8,2.1s-1.6,1.2-2.2.6-2.3-3.3-.8-4.4h0Z"/>
              <path class="cls-22" d="M52.46,87.71c.4.4.6,1,.6,1.5,0,1.7-2.2,2.3-2.9,2.5s-.3,1,.4,1.2c.7.1.9,2.8-.8,4.9-1.4,1.7-3.5,1.2-4.8.5,2.1.6,2.3-1.2,2.3-1.2,0,0-.9-1-.2-1.6s2.7-.7,2.7-.7c0,0-1.2,0-1.2-1,0-.9,1.3-.4.4-.9s-1.8-1.9-.9-2.4,1.9.8,3.6-.2c1.7-1,.8-2.6.8-2.6h0Z"/>
              <path class="cls-41" d="M39.16,92.01s-.5.7-.7,1,0,.5-.3.9c-.3.3-1.9,2.3-2.6,3.1-.6.9-2.1,2.9-2.4,3.6s-.2,1.2.6,1.2,1.6.4,2.4.8.9,1.1,1.2.2c.3-.9,1.8-3.5,2.2-5,.4-1.4.5-1.7,1-3.1.3-.7.6-1.3.7-1.9.8-.3,2,0,3.2.6,1.4.6,1.4,1.1,1.8.6s.4-1.3-.4-1.2c-.8,0-2,0-3.1-.9-.5-.4-.7-.8-.8-1.1.2-.6.4-1.5.1-1.8-.4-.5-1,0-1.4.5-.3.3-.4.7-.5,1.1,0,0-.2.2-.3.3-.3-.2-.7-1-1-1.6-.4-.9.5-2.2,0-2.1-.4,0-1.1-.2-1.4.3s-.2,1.1,0,1.9,1.3,1.2,1.5,2.4v.2h.2Z"/>
              <path class="cls-37" d="M39.16,92.01s-.5.7-.7,1,0,.5-.3.9c-.3.3-1.9,2.3-2.6,3.1-.6.9-2.1,2.9-2.4,3.6s-.2,1.2.6,1.2,1.6.4,2.4.8c.6.3.8.8,1,.6.5-1.1-2.4-2.3-2.3-3.2.1-.9.6-.8,1.7-1.9,1.1-1.1,1.4-1.5,1.8-2s-1,.4-.3-.6c.6-1,1.6-2.2,2-3s-.4-1.2-1.5-2.6c-1.2-1.4-.7-2.8-.7-2.8,0,0-.2.1-.2.2-.3.5-.2,1.1,0,1.9s1.3,1.2,1.5,2.4v.2h0v.2Z"/>
              <path class="cls-21" d="M43.26,81.21c.5-.6.7-.3,1.6-.3s.7-.7,1.6-.5c.8.2.7.7.9,1.4.2.7,1.4,1.3,1.1,2s-.9,0-1.7.5-.7,1.4-1.7,1.7-1.3.9-2.2.2-2.3-.6-2.9-1.3c-.6-.7-1.4-1.2-2.1-.9-.7.3-1.6,1.6-2,1.2s.9-3.7,2.1-3.3,2.7,2,3.5,1.9,1.3-.8,1.3-1.4c0-.5-.5-1.3.6-1.1l-.1-.1Z"/>
              <path class="cls-16" d="M44.46,81.41c.2.1.7.3.9.1.2-.2.7-.8,1.2-.4s0,1-.1,1.1c-.2.1.3,0,0,.6-.3.5-.5.8-.8.5s-.3-.9-.8-.7-.6.7-1.2.3-.8-1.1-.4-1.1.8-.9,1.1-.4h.1Z"/>
              <path class="cls-22" d="M44.46,89.11s0-2,1.4-2.5c1.3-.5,1.8,1.2,1.8,1.2,0,0,1.4-1.4,2.6-.2,1.2,1.2.6,2,.6,2,0,0-.9-1.6-2.3-1.2s-1.4,1.2-1.4,1.2c0,0-2-2.4-2.6-.5h-.1Z"/>
              <path class="cls-22" d="M44.16,79.41s1.5-1.8,3.6-1.2c2.1.7,2.1,2.8,2.1,2.8,0,0,2.7.6,2.8,2.4s-1.9,2.4-1.9,2.4c0,0,1.3-2.1,0-3-1.2-.9-2-.3-2-.3,0,0-.9-5.1-4.6-3.1Z"/>
            </g>
            <g>
              <g>
                <path class="cls-15" d="M57.36,74.51c1.7.7,2.7,2.6,2.2,4.4l-5.5,21.1c-.5,1.8-2.2,3-4,2.8,0,.1,0,.6.2,1s-.1.4-.7.6-1.2-.5-1.4-.9c-.2-.4.7-1,.7-.9l.1-.1c-1.6-.7-2.4-2.5-2-4.3l5.5-21.1c.5-1.7,2.1-2.9,3.8-2.8v-.2c0,.2-.5-.8-.1-1.1.3-.3,1.2-.6,1.7-.1s.7.6.4.9c-.3.3-.7.8-.7.8h0l-.2-.1Z"/>
                <path class="cls-42" d="M55.76,93.71l-1.6,6.3c-.5,1.8-2.2,3-4,2.8,0,.1,0,.6.2,1s-.1.4-.7.6-1.2-.5-1.4-.9c-.2-.4.7-1,.7-.9l.1-.1c-1.6-.7-2.4-2.5-2-4.3l3.8-14.7c1.4-2.8,2.5-4.9,2.5-4.9,0,0-3.8,13.9-3.6,17.1.3,3.2,4.4,3.6,6.1-2h-.1Z"/>
                <path class="cls-33" d="M48.56,104.01c-.2-.2-.3-.4-.4-.6-.2-.4.7-1,.7-.9l.1-.1c-1.6-.7-2.4-2.5-2-4.3l5.5-21.1c.5-1.7,2.1-2.9,3.8-2.8v-.2c0,.2-.5-.8-.1-1.1.2-.2.5-.3.8-.4,0,0-.8.3-.7.7,0,.4.8,1,.6,1.1-.2.1-2.6.3-3.3,3.3s-5.6,20-5.7,21.1c0,1.1.8,3,1.6,3.5.8.5-1.3.4-.7,1.6l-.2.2Z"/>
                <path class="cls-36" d="M59.26,77.41c.2.9-.9.9-1.9.7-5.6-1.4,1.1-4.1,1.9-.7Z"/>
                <path class="cls-49" d="M57.66,81.61c-.4,1.7-2.4,10-3.8,13.7-1.3,3.7-3.1,1.3-2.7-.2.3-1.2,2-8.6,3.3-12.9,1.7-5.6,3.7-2.5,3.2-.6Z"/>
              </g>
              <path class="cls-11" d="M52.56,76.11h.4v.6c0,.4-.1,1,0,1.7,0,.7.3,1.6.8,2.4.8,1.3,2.2,2.6,4.7,3.2.1,0,.2.2.2.3s-.2.2-.3.2c-2.7-.6-4.2-2-5.1-3.5-.5-.9-.8-1.8-.9-2.6-.1-.8,0-1.5,0-1.9,0-.3.2-.5.3-.6l-.1.2Z"/>
              <path class="cls-11" d="M50.86,82.71h.4v.6c0,.4-.1,1,0,1.7s.3,1.6.8,2.4c.8,1.3,2.2,2.6,4.7,3.2.1,0,.2.2.2.3s-.2.2-.3.2c-2.7-.6-4.2-2-5.1-3.5-.5-.9-.8-1.8-.9-2.6-.1-.8,0-1.5,0-1.9,0-.3.2-.5.3-.6l-.1.2Z"/>
              <path class="cls-11" d="M48.86,90.41h.4v.6c0,.4-.1,1,0,1.7s.3,1.6.8,2.4c.8,1.3,2.2,2.6,4.7,3.2.1,0,.2.2.2.3s-.2.2-.3.2c-2.7-.6-4.2-2-5.1-3.5-.5-.9-.8-1.8-.9-2.6-.1-.8,0-1.5,0-1.9,0-.3.2-.5.3-.6l-.1.2Z"/>
              <path class="cls-11" d="M59.46,80.21c0-.1-.2-.2-.4,0-.1,0-.2.2,0,.4v.2c0,.4-.4.9-.8,1.5s-1.1,1.2-1.9,1.7c-1.3.8-3.2,1.2-5.7.5-.1,0-.3,0-.3.2,0,.1,0,.3.2.3,2.6.7,4.7.3,6.1-.6.9-.5,1.5-1.2,2-1.8.5-.6.8-1.3.9-1.7v-.6l-.1-.1Z"/>
              <path class="cls-11" d="M57.76,86.71c0-.1-.2-.2-.4,0-.1,0-.2.2,0,.4v.2c0,.4-.4.9-.8,1.5s-1.1,1.2-1.9,1.7c-1.3.8-3.2,1.2-5.7.5-.1,0-.3,0-.3.2,0,.1,0,.3.2.3,2.6.7,4.7.3,6.1-.6.9-.5,1.5-1.2,2-1.8.5-.6.8-1.3.9-1.7v-.6l-.1-.1Z"/>
              <path class="cls-11" d="M55.76,94.51c0-.1-.2-.2-.4,0-.1,0-.2.2,0,.4v.2c0,.4-.4.9-.8,1.5s-1.1,1.2-1.9,1.7c-1.3.8-3.2,1.2-5.7.5-.1,0-.3,0-.3.2,0,.1,0,.3.2.3,2.6.7,4.7.3,6.1-.6.9-.5,1.5-1.2,2-1.8.5-.6.8-1.3.9-1.7v-.6l-.1-.1Z"/>
            </g>
            <path class="cls-25" d="M50.36,147.11c.3-.2,6.4-5.8,7.9-6.2s4.2-1,4.2-1.4.6-1.2.3-2.2c-.3-1.1-1.1-3.2-1.1-5.6s-.9-11.9-.6-13.9c.3-2-.8-14.1-.2-18.6.6-4.5.5-7.8.4-9.3,0-1.5-.7-4.3-.7-4.3h0l-.8-.6-1.6,2.4h0l-.8-.5-1.6,2.4h0l-.8-.6-1.7,2.4h0l-.8-.6-1.7,2.5s1.1,4.9,1.1,6.1.9,2,.6,3.3c-.2,1.3-.5,3.4-.7,4.8-.2,1.4-1.1,2.7-1.1,5.1s-2,10.6-1.1,13c.9,2.5.7,6.4.9,8.1.2,1.7.5,12.8.2,13.7h-.3Z"/>
            <path class="cls-30" d="M60.66,104.81c0-2.2,0-4.3.2-5.6.5-3.8.5-6.7.4-8.4,0,.1,0,4.8-2,8.1-2,3.3-4.8,9.8-4.8,9.8,0,0,3.9-2.1,6.1-3.8l.1-.1Z"/>
            <path class="cls-30" d="M52.16,145.61c2-1.8,5.1-4.4,6.1-4.7,1.5-.4,4.2-1,4.2-1.4l-7.2-21.7.6,22-3.8,5.8h.1Z"/>
            <g>
              <path class="cls-35" d="M28.26,92.81s-1.2-.5-1.2-1.2,1.3-.6,1.4-1.5,1-3.8,5.5-4.1c4.5-.3,5.9,2.9,6.6,3.4s1.3.7,1.1,1.3c-.2.5-.8.5-.9,1,0,.5-.7,3.4-4.7,4s-7.3-.9-7.8-2.9Z"/>
              <path class="cls-19" d="M28.26,92.81s-1.2-.5-1.2-1.2c0-.1,0-.3.1-.4,0,0,0,.5.7.6.8.1.9-1.8,1.5-1.5s0,2.3,2.5,3.5,5.7,1.1,8.3-.9c-.5,1-1.7,2.3-4.2,2.7-4,.6-7.3-.9-7.8-2.9l.1.1Z"/>
              <path class="cls-45" d="M28.26,92.81s-.5-.2-.8-.5c.2.1.6.2.9,0,.5-.2.5-.9.7-.8s-.3,3.9,5.4,4.3c-3.2,0-5.7-1.3-6.2-3.1v.1Z"/>
              <path class="cls-23" d="M35.36,86.71c2.7.3,4.5,2.7,3.6,4.3-.9,1.6-2.1.5-4.7,0-6.6-1.3-4.2-4.8,1.1-4.3Z"/>
              <path class="cls-7" d="M35.36,86.91c2,.2,3.3,1.6,2.7,2.5s-1.6.3-3.5,0c-4.8-.8-3-2.8.8-2.5Z"/>
              <path class="cls-24" d="M35.26,87.01c.9,0,1.4.7,1.1,1.1s-.7.1-1.5,0c-2.1-.3-1.3-1.2.3-1.1h.1Z"/>
              <path class="cls-24" d="M36.76,88.41c.4,0,.6.3.5.4s-.3,0-.6,0c-.9-.1-.5-.5.1-.4Z"/>
              <path class="cls-24" d="M27.96,91.01c-.3.2-.7.5-.3.6.4,0,1.4-1,.3-.6Z"/>
              <path class="cls-19" d="M40.06,89.51c0,.3.1,1,.3,1.2.2.2.4-.2.7-.2s.3-.3,0-.5c-.2-.2-1.1-.7-1.1-.6l.1.1Z"/>
            </g>
            <path class="cls-32" d="M50.46,93.01s1.1,4.9,1.1,6.1.9,2,.6,3.3c-.2,1.3-.5,3.4-.7,4.8-.2,1.4-1.1,2.7-1.1,5.1s-2,10.6-1.1,13c.9,2.5.7,6.4.9,8.1.2,1.7.5,12.8.2,13.7-.2.9-6-.1-9.2-1s-8.3-1.2-10.6-1.8c-2.3-.5-12.2-2.5-13.6-3.3s0-5.3,0-6.5-1.2-9.2-.8-10.5,2.3-2.3,2.5-4c.2-1.7-.1-3.2-.1-3.7s-.3-9.2-.4-11.2c0-2,.5-5.7-.2-7.2-.6-1.6,0-1.9-.3-3.2-.2-1.3-.3-3.3-.3-3.3l2.1-1.2,2.1,1.4h0l2.1-1.2,2.1,1.4h0l2.1-1.2,2.1,1.4h0l2.1-1.2,2.1,1.4h0l2.1-1.2,2.1,1.4h0l2.1-1.2,2.1,1.4,2.1-1.2,2.1,1.4,2.1-1.2,2.1,1.4h-.5Z"/>
            <path class="cls-51" d="M18.16,104.91c0-2.1.4-5.5-.2-7v-.2s.9.4,1.5.5c.6,0,4.1-.6,5.7-.8,1.7-.1,10.9-.7,10.9-.7,0,0-6.4,1.3-8.9,2.2s-4.5,2.4-5.3,3.3-3.8,2.7-3.8,2.7h.1Z"/>
            <path class="cls-51" d="M16.36,139.31c0-1.6.6-3.9.6-4.7v-1.4h0s.9,1.1,1.5,1.3,20.2,8.8,20.2,8.8c0,0-16.5-2.7-22.2-4h-.1Z"/>
            <path class="cls-44" d="M16.16,124.51v-.4c.5-1.2,2.3-2.3,2.5-4,.2-1.7-.1-3.2-.1-3.7v-1s1.3,4.1,1.8,5c.4.9,14.9,2,14.9,2,0,0-4.4,3.9-5.5,4-1.1.2-9.6.4-9.6.4l-4-2.4v.1Z"/>
            <path class="cls-51" d="M52.16,102.01v.4c-.2,1.3-.5,3.4-.7,4.8-.2,1.4-1.1,2.7-1.1,5.1s0,0,0,.1c0,0-.6-1.6-1-1.9s-3.4-1.3-4.4-1.5c-1-.3-4.3-2.1-5-2.7s-4.1-4.4-4.1-4.4c0,0,5,2.2,6.5,2.7s3.3.3,3.6,0c.4-.3,3.1-1.8,4.2-2.2.6-.2,1.4-.4,2-.5v.1Z"/>
            <path class="cls-4" d="M50.56,110.01c-.2.7-.3,1.4-.3,2.3,0,2.5-2,10.6-1.1,13,.9,2.5.7,6.4.9,8.1,0,.9.2,4.6.3,7.9,0,0,2.9-14.9,2.6-16.6-.2-1.8-2.6-3.8-3-5.5-.4-1.8.5-9.1.5-9.1l.1-.1Z"/>
            <path class="cls-44" d="M27.86,104.31s6.1,4,7.2,4.5,10.9,3.4,11.1,4.2-.6,2-.6,4.5.9,5.4,1,6.1c0,.8-7.7-5.3-9.6-6.1s-8.4-6.2-9.5-9.1-2.4-7.7.4-4.2v.1Z"/>
          </g>
          <g>
            <path class="cls-57" d="M17.16,134.01l12.62,4.84s2.07,3.04-6.75.5c0,0,2.63,6.67,6.45,10.18.88.84,1.44,1.84,1.36,3.04-.06,1.71-1.2,3.26-6.86.58,0,0-6.54-2.91-8.27-13.49l1.48-5.74h0s0,0,0,0h0l-.02.1Z"/>
            <path class="cls-59" d="M16.27,137.5l5.47-1.4-9.24-43.88c-.72-3.24-4.44-5.43-7.99-4.65h0c-3.36.81-5.24,3.86-4.09,6.97l15.85,42.96h0Z"/>
          </g>
          <g>
            <path class="cls-59" d="M62.01,136.33l-5.4-1.89,12.35-44.88c.86-3.35,4.83-5.3,8.3-4.26h0c3.27,1.07,4.95,4.47,3.54,7.49l-19,43.47h0v.1s.21-.03.21-.03Z"/>
            <path class="cls-57" d="M60.37,131.71l-11.57,6.93s-1.46,3.33,6.68-.61c0,0-1.46,7.06-4.64,11.13-.67,1-1.13,2.07-.87,3.25.33,1.67,1.72,2.99,6.88-.64,0,0,5.92-3.94,5.76-14.71l-2.44-5.32h0l.2-.03Z"/>
          </g>
          <path class="cls-55" d="M36.66,55.71h0c1.7,3.2,6.2,3.1,7.8,0h0c.3-.6.5-1.3.5-2.1v-12.2h-9v12.1c0,.8.2,1.5.6,2.2h.1Z"/>
          <path class="cls-57" d="M58.26,27.31c-.7,1.3-1.9,2.2-3,2.5h-1c-.3,3.5-1.4,6.6-3,9.2-3,5-7.6,8.1-11,7.9h-.8c-2.8,0-5.9-1.6-8.5-4.5h0c-.8-.8-1.5-1.8-2.1-2.8-1.6-2.5-2.8-5.6-3.3-9.1h-.3c-1.1,0-2.4-1-3.2-2.3,0-.2-.2-.5-.3-.7,0-.3-.2-.7-.3-1h0c-.3-1.3,0-2.4,1-2.9h0c.8-.4,1.9,0,2.8.6.6-8.4,4.4-16,9.7-18.8,1.4-.8,2.8-1.2,4.4-1.2,2.3,0,4.4.7,6.4,2,4.5,3,7.8,10.4,8.5,17.9.4-.5.9-.9,1.4-1.1.7-.3,1.4-.4,2,0,1.3.6,1.5,2.6.5,4.5h0v-.2h.1Z"/>
          <g>
            <path class="cls-53" d="M49.76,24.01c-.2,0-.3,0-.4-.2-1.5-2.7-3.9-1.6-4-1.6-.2,0-.5,0-.7-.2,0-.2,0-.5.2-.7,1.2-.5,3.8-.9,5.3,2,0,.2,0,.5-.2.7h-.2Z"/>
            <path class="cls-53" d="M29.96,24.01c.2,0,.3,0,.4-.2,1.5-2.7,3.9-1.6,4-1.6.2,0,.5,0,.7-.2,0-.2,0-.5-.2-.7-1.2-.5-3.8-.9-5.3,2,0,.2,0,.5.2.7h.2Z"/>
            <path class="cls-53" d="M32.96,25.91c0,.9.6,1.8,1.3,1.8s1.4-.9,1.4-1.8-.6-1.8-1.3-1.8-1.4.9-1.4,1.8Z"/>
            <path class="cls-53" d="M44.86,25.91c0,.9.6,1.8,1.3,1.8s1.4-.9,1.4-1.8-.6-1.8-1.3-1.8-1.4.9-1.4,1.8Z"/>
            <path class="cls-2" d="M36.16,37.91c.2.2,1.3,2.7,4.3,2.6,2.9,0,4.1-2.3,4.3-2.6"/>
            <path class="cls-54" d="M42.46,32.81c0,1.2-.9,2.1-2.1,2.1s-2.1-.9-2.1-2.1.9,1.2,2.1,1.2,2.1-2.4,2.1-1.2Z"/>
            <path class="cls-56" d="M49.96,28.51c1.7,0,3.1,1.3,3,2.7s-1.6,2.5-3.4,2.4-3.1-1.3-3-2.7,1.6-2.5,3.4-2.4Z"/>
            <path class="cls-56" d="M30.46,28.51c1.7,0,3.1,1.3,3,2.7s-1.6,2.5-3.4,2.4-3.1-1.3-3-2.7,1.6-2.5,3.4-2.4Z"/>
          </g>
          <path class="cls-52" d="M56.56,22.91c0,2.6-1.4,13.5-4.7,16,1.5-6.9,2.3-17.1-.4-20.6-.9-1.2-3.7-3.4-3.5-5.1-4.1,5.3-12.4,6.6-14,6.8-2,.5-4.8.9-6.3,1.4-.5,5.1.4,15,.9,18-1.7-2.5-2.9-5.6-3.4-9.1,0,0-.4-2.7-.3-3.8-1.2.3-2.4.7-3.6.8h-.7c0-.3.2-.7.4-1h0c.2-.4.4-.7.6-1,.2-.6.4-1.2.5-1.9v-.4c.3-1.5.3-2.9.4-4.4.2-3,.5-6,1.9-8.7C27.46,4.11,34.36-.29,41.36.01c2.5.1,5,.9,7.1,2.2,4.3,2.7,7.4,7.5,8,12.4v8.2h0l.1.1Z"/>
        </g>
      </g>
    </g>
  </g>
</svg>