<?xml version="1.0" encoding="UTF-8"?>
<svg id="Ebene_2" data-name="Ebene 2" xmlns="http://www.w3.org/2000/svg" viewBox="0 0 79.26 247.25">
  <defs>
    <style>
      .cls-1 {
        fill: #ffcde3;
      }

      .cls-1, .cls-2, .cls-3, .cls-4, .cls-5, .cls-6, .cls-7, .cls-8, .cls-9, .cls-10, .cls-11, .cls-12, .cls-13, .cls-14, .cls-15, .cls-16 {
        fill-rule: evenodd;
      }

      .cls-2 {
        fill: #8e5219;
      }

      .cls-3 {
        fill: #8c5018;
      }

      .cls-17 {
        fill: #d9b6b6;
      }

      .cls-4 {
        fill: #f5a6a9;
      }

      .cls-5 {
        fill: #fed0e1;
      }

      .cls-18 {
        fill: none;
        stroke: #630;
        stroke-linecap: round;
        stroke-miterlimit: 10;
      }

      .cls-6 {
        fill: #8d5219;
      }

      .cls-7 {
        fill: #f3b45c;
      }

      .cls-19 {
        fill: #d9a2a0;
      }

      .cls-8 {
        fill: #feb9bb;
      }

      .cls-9 {
        fill: #fec9ca;
      }

      .cls-20 {
        fill: #d9baba;
      }

      .cls-10 {
        fill: #e19539;
      }

      .cls-21, .cls-22 {
        fill: #603813;
      }

      .cls-11 {
        fill: #8c5118;
      }

      .cls-23 {
        fill: #8b2b0e;
      }

      .cls-12 {
        fill: #834b16;
      }

      .cls-24 {
        fill: #273758;
      }

      .cls-13 {
        fill: #854c16;
      }

      .cls-14 {
        fill: #8a4f17;
      }

      .cls-15 {
        fill: #844c16;
      }

      .cls-25 {
        fill: #c69696;
      }

      .cls-16 {
        fill: #8d5118;
      }

      .cls-22 {
        isolation: isolate;
        opacity: .5;
      }

      .cls-26 {
        fill: #e6e6e6;
      }

      .cls-27 {
        fill: #3f6138;
      }
    </style>
  </defs>
  <g id="Layer_1" data-name="Layer 1">
    <g id="german-girl-cookiebox">
      <g>
        <path class="cls-17" d="M38.9,167.93v1.2l-3.4,28.8-4.5,38.3h-5.8c-.6,0-1.9-19.6-1.9-38.3s.6-24.3,2.2-30c0-3.7,3-6.7,6.7-6.7s6,2.4,6.6,5.5v1.2h.1Z"/>
        <path class="cls-24" d="M32.3,242.33c0,1.2-.7,2.1-1.6,2.7s-22.7,2.4-23.3,2.2c-5-2.4,17.6-11.2,17.6-11.2l6.1.2s1.3,4.9,1.1,6.2h0l.1-.1Z"/>
        <path class="cls-17" d="M33.2,174.73h0c-3.8.4-7.2-2.2-8-5.9l-6.7-34.7c-.4-5.1,3.4-9.5,8.5-10h0c5.1-.4,9.5,3.4,10,8.5l2,34.2c.3,4-1.8,7.5-5.7,7.9h-.1Z"/>
      </g>
      <g>
        <path class="cls-17" d="M54.3,197.93c0,18.7-1.3,38.3-1.9,38.3h-5.8l-4.5-38.3-3.3-28.8v-2.4c.6-3.1,3.3-5.5,6.6-5.5s6.7,3,6.7,6.7c1.7,5.7,2.2,17.7,2.2,30h0Z"/>
        <path class="cls-24" d="M45.3,242.33c0,1.2.7,2.1,1.6,2.7s22.7,2.4,23.3,2.2c5-2.4-17.6-11.2-17.6-11.2l-6.1.2s-1.3,4.9-1.1,6.2h0v-.1h-.1Z"/>
        <path class="cls-17" d="M44.5,174.73h0c3.8.4,7.2-2.2,8-5.9l6.7-34.7c.4-5.1-3.4-9.5-8.5-10h0c-5.1-.4-9.5,3.4-10,8.5l-2,34.2c-.3,4,1.8,7.5,5.7,7.9h.1Z"/>
      </g>
      <path class="cls-17" d="M55.4,96.93c-1.5,5.7-1.2,11.7.7,17.3.7,2.1,1.4,4.7,1.8,7.8.5,3,1.2,7.7,1.2,11.5l-18.9,7.5h-2.8l-18.9-7.2c0-5.2.7-12.8,2.1-17.6.4-1.4.9-2.8,1.4-4,2.5-5.4,3.5-11.4,2.5-17.3l-3.9-22.6-1.2-6.7,1.2-.7,15.7-9.9h9.1l14.2,9.8,1.1.7-1.1,6.5-4.1,25h0l-.1-.1Z"/>
      <path class="cls-26" d="M55.4,96.93c-1.5,5.7-1.2,11.7.7,17.3.7,2.1,1.4,4.7,1.8,7.8H20.6v-5.8c.4-1.4.9-2.8,1.4-4,2.5-5.4,3.5-11.4,2.5-17.3l-3.9-22.6-1.1-6.7,12.7-8,4.1-2.6h9.1l3.5,2.4,11.8,8.1-1.1,6.5-4.1,25h0l-.1-.1Z"/>
      <path class="cls-27" d="M23.9,108.53s-11.6,30-11.1,58.1c0,1.5.9,2.7,2.1,3.1,7.9,2.1,36.8,8.9,50.7-1.7.9-.7,1.3-1.9,1.2-3.1-1.1-8.2-5.6-40.7-11.9-56.3-10.2,4.3-20.5,4.1-31.1,0h.1v-.1Z"/>
      <g>
        <path class="cls-23" d="M64.4,38.13c0-4.7-2.2-8.3-4-12.1-.8-1.7-1.6-4.7-2.8-6-1.6-1.7-5.4-.9-7.4-1-7.4-.3-14.8.2-22.2,1.1-2.3.3-3.7-.6-4.6,2.7-.6,2.1-1,2.9-1,2.9-2.3,4-6.1,6.4-7.5,11.5-1.1,4.1-.6,9.2,1.8,12.1,0-1.6.2-3.7.5-5.1,1.6,1.2,2.7,3.6,4.3,5s3.4,2.6,5.2,3.3c.2-1.4-.3-3.3,0-4.5,1.3,3.2,4.5,4.6,6.9,6,0-1.9-.5-4.3,1.1-3.2.4.3,1,1.6,1.5,2s1.1.8,1.7,1.1c1.8,1.1,2.6,1.4,4.3,0,1.2-1.1,2.7-2.6,3.7-4,.6,1.2.3,3.2.3,4.6,2,0,4.4-2.4,5.7-4.3.3,1.1,0,2.3.3,3.4,2.6-.3,7.2-5.1,8.4-8,1.2,1.1,2.2,3.6,1.9,5.5,2.1-3.5,2.1-8.8,2.1-13.1h-.2v.1Z"/>
        <path class="cls-25" d="M40.8,58.63h0c-2.5,0-4.5-2-4.5-4.5v-6.7h9.1v6.7c0,2.5-2,4.5-4.5,4.5h-.1Z"/>
        <path class="cls-20" d="M62.7,29.13c-.9,1.5-2.3,2.5-3.7,2.8h-1.2c-.4,3.9-1.8,7.5-3.8,10.4-3.8,5.7-9.5,9.1-13.7,8.9h-1c-4.5,0-9.7-3.1-13.3-8.3-2-2.9-3.5-6.4-4.1-10.3h-.3c-1.4,0-2.9-1.1-3.9-2.6-.2-.3-.3-.5-.4-.8-.2-.4-.3-.7-.4-1.1h0c-.3-1.5,0-2.7,1.2-3.2h0c1-.4,2.3,0,3.5.7.9-11.9,8.3-22.4,17.5-22.6,2.8,0,5.5.8,7.9,2.3,2.3,1.4,4.3,3.6,6,6.3h0c2.4,3.9,4.1,8.9,4.6,13.9h0c.5-.5,1.1-.9,1.7-1.1.8-.4,1.7-.4,2.4,0,1.6.7,1.9,2.9.6,5.1l.4-.3h0v-.1Z"/>
        <path class="cls-23" d="M60.2,32.53c-.3-3.2-.8-8.7-1.1-11.2,0-.9,0-1.7-.2-2.6-.3-6.5-2.4-13.6-7.2-17.2-3.4-2.6-6.5-.4-10.2-1.2-7.1-1.4-15.4,1.7-19.2,8.4-2.3,4-2.7,8.7-1.9,13.2,0,0,.5,8.5.3,10.5-.3,3.4-1.2,9.6.9,12.6,1,1.4,4.1,3.7,5.6,4.5.3-2.2-1.7-4.2-2.1-6.3-.5-2.3-.3-4.8-.3-7.2,0-4.3-.4-8.5-.2-12.8v-1.3c0-.2.2-.3.3-.5,1.1-1.8,2.4-3.4,3.9-4.8,1.6-1.5,3.5-2.3,5.2-3.7,1.6,1.4,3.1,2.9,4.9,4,2.2,1.3,5.2,2.4,7.7,2.6-.3-.6-1-1.2-1.5-1.8-.2-.3-.4-.8-.6-1.1,1.3,1.5,3.5,2.7,5.1,3.8,1.5,1.1,3.4,1.6,5.1,2.2,0-.6-1.5-3.3-1.9-4.1.6.8,1.5,1.3,2,2.1.6.8,1,1.7,1.4,2.5h0c.2,4.4-.2,8.6-.2,12.9s.2,4.9-.3,7.2c-.5,2.1-2.5,4.1-2.1,6.3,1.5-.8,4.6-3.1,5.6-4.5,2.1-2.9,1.2-9.2.9-12.6h0l.1.1Z"/>
        <g>
          <path class="cls-21" d="M28.1,23.93c.2,0,.4,0,.5-.3,1.7-3.2,4.6-1.9,4.7-1.8.3,0,.6,0,.8-.3,0-.3,0-.6-.3-.8-1.4-.6-4.5-1-6.2,2.3,0,.3,0,.6.2.8h.3v.1Z"/>
          <path class="cls-21" d="M45.5,21.33s.3.2.5,0c2.8-1.1,4,1.3,4,1.4,0,.2.4.3.6.2.2,0,.3-.4.2-.6-.5-1.2-2.3-3.1-5.2-1.9-.2,0-.4.4-.3.6v.2h.2v.1Z"/>
          <path class="cls-21" d="M31.6,26.23c0,1.1.7,2.1,1.5,2.1s1.6-1,1.6-2.1-.7-2.1-1.5-2.1-1.6,1-1.6,2.1Z"/>
          <path class="cls-21" d="M45.5,26.23c0,1.1.7,2.1,1.5,2.1s1.6-1,1.6-2.1-.7-2.1-1.5-2.1-1.6,1-1.6,2.1Z"/>
          <path class="cls-18" d="M35.4,40.23c.2.2,1.5,3.1,5,3,3.4,0,4.8-2.7,5-3"/>
          <path class="cls-22" d="M42.8,34.23c0,1.4-1.1,2.5-2.5,2.5s-2.5-1.1-2.5-2.5,1.1,1.4,2.5,1.4,2.5-2.8,2.5-1.4Z"/>
          <path class="cls-19" d="M51.6,29.23c2,0,3.6,1.5,3.5,3.2s-1.9,2.9-3.9,2.8-3.6-1.5-3.5-3.2,1.9-2.9,3.9-2.8Z"/>
          <path class="cls-19" d="M28.8,29.23c2,0,3.6,1.5,3.5,3.2s-1.9,2.9-3.9,2.8-3.6-1.5-3.5-3.2,1.9-2.9,3.9-2.8Z"/>
        </g>
      </g>
      <g id="s-falsebelief-uc-b-cb-closed">
        <path class="cls-9" d="M67.05,110.54c-.4,2.1-1.3,3.96-2.71,5.57-2.56,2.6-5.56,4.54-9,5.82-6.63,2.38-13.45,3.15-20.46,2.31-5.34-.54-10.3-2.18-14.89-4.92-2.05-1.26-3.75-2.88-5.1-4.88-.74-1.22-1.23-2.52-1.48-3.9-.12-2.28.47-4.35,1.77-6.22,1.6-2.15,3.56-3.87,5.89-5.17,5.07-2.66,10.47-4.13,16.19-4.41,6.89-.48,13.52.6,19.88,3.25,2.95,1.27,5.47,3.12,7.56,5.53,1.2,1.48,1.97,3.17,2.31,5.06.04.65.05,1.3.04,1.95Z"/>
        <path class="cls-1" d="M43.41,97.52c-1.09-.04-2.18.03-3.25.22-.05,0-.1,0-.14-.04.41-.1.82-.17,1.23-.22.92-.06,1.64-.05,2.17.04Z"/>
        <path class="cls-7" d="M43.41,97.52c2.85.18,5.32,1.24,7.41,3.18.83.9,1.32,1.97,1.48,3.18-.07,2.11-.94,3.81-2.6,5.1-2.25,1.71-4.76,2.25-7.52,1.63-.02-.07-.05-.14-.07-.22.42-1.23.36-2.43-.18-3.61-1.12-2.2-2.87-3.64-5.24-4.3,1.9.91,3.28,2.32,4.16,4.23.48,1.13.57,2.28.29,3.47-.08.32-.22.62-.4.9.04.03.06.06.07.11-1.68,2.24-3.92,3.58-6.72,4.01-2.71.39-5.27-.06-7.66-1.37-1.21-.73-2.11-1.73-2.71-3-.58-1.7-.36-3.29.65-4.77,1.38-1.92,3.23-3.18,5.53-3.8,1.35-.36,2.72-.53,4.12-.51,1.55-2.1,3.6-3.44,6.15-4.01,1.08-.18,2.16-.26,3.25-.22Z"/>
        <path class="cls-2" d="M45.65,100.42c.49-.05.94.03,1.37.25.4.3.51.67.33,1.12-.22.19-.48.25-.76.18-.39-.14-.76-.33-1.08-.58-.41-.39-.36-.71.14-.98Z"/>
        <path class="cls-16" d="M39.65,99.4c.96-.11,1.29.27.98,1.16-.56.52-1.16.57-1.81.14-.05-.17-.05-.34,0-.51.22-.33.5-.6.83-.8Z"/>
        <path class="cls-16" d="M29.67,103.53c.29-.01.58,0,.87.04.49.43.47.84-.07,1.23-.53.34-1.06.34-1.59,0-.33-.24-.36-.49-.07-.76.27-.21.56-.38.87-.51Z"/>
        <path class="cls-11" d="M41.45,103.67c.41-.01.82,0,1.23.04.19.05.31.17.36.36-.32.7-.83.9-1.52.58-.3-.17-.43-.43-.4-.76.1-.09.21-.16.33-.22Z"/>
        <path class="cls-2" d="M35.24,104.54c.68-.15,1.2.07,1.55.65.04.39-.14.62-.54.69-.52.08-1.03.03-1.52-.14-.14-.16-.18-.34-.11-.54.17-.25.38-.47.61-.65Z"/>
        <path class="cls-5" d="M58.08,109.17c.11-.99-.13-1.88-.72-2.68,0-.03,0-.06.04-.07.68.88.93,1.87.72,2.96-.03-.07-.05-.14-.04-.22Z"/>
        <path class="cls-11" d="M32.13,107.65c.39-.04.64.13.76.51.3.95-.02,1.28-.98.98-.36-.19-.44-.47-.25-.83.12-.24.28-.46.47-.65Z"/>
        <path class="cls-11" d="M27.07,107.86c.21-.02.42,0,.61.07.14.45.09.88-.14,1.3-.55.26-1.03.16-1.45-.29-.06-.32.05-.57.33-.76.22-.11.44-.22.65-.33Z"/>
        <path class="cls-6" d="M37.12,109.31c.73-.03,1.13.31,1.19,1.01-.14.35-.39.58-.76.69-.8.33-1.17.08-1.12-.76.16-.37.39-.68.69-.94Z"/>
        <path class="cls-10" d="M52.3,103.89c1.56.27,2.98.86,4.27,1.77.28.27.55.55.8.83.59.79.83,1.69.72,2.68-.34,1.49-1.16,2.66-2.46,3.51-2.1,1.3-4.39,1.85-6.87,1.66-2.12-.07-3.91-.86-5.39-2.35-.11-.16-.22-.31-.33-.47-.76-.06-1.5-.17-2.24-.33,0-.04-.03-.08-.07-.11.18-.28.31-.58.4-.9.29-1.19.19-2.34-.29-3.47-.88-1.91-2.26-3.32-4.16-4.23,2.37.66,4.12,2.1,5.24,4.3.54,1.18.6,2.39.18,3.61.02.07.05.14.07.22,2.76.62,5.26.08,7.52-1.63,1.66-1.29,2.53-2.99,2.6-5.1Z"/>
        <path class="cls-15" d="M54.76,108.8c.79-.04,1.14.32,1.05,1.08-.55.39-1.11.39-1.66,0-.05-.2-.03-.4.07-.58.17-.19.35-.35.54-.51Z"/>
        <path class="cls-2" d="M44.42,107.29c.94,0,1.26.44.98,1.3-.32.27-.7.35-1.12.25-.39-.11-.54-.37-.47-.76.14-.33.34-.59.61-.8Z"/>
        <path class="cls-12" d="M53.24,106.06c.38-.02.71.1.98.36.18.37.1.67-.25.9-.8.26-1.17-.02-1.12-.83.1-.18.23-.33.4-.43Z"/>
        <path class="cls-11" d="M47.74,104.39c.5.03.92.22,1.27.58.18.71-.1,1.07-.87,1.08-.21.01-.4-.04-.58-.14-.11-.4-.14-.81-.07-1.23.1-.09.18-.18.25-.29Z"/>
        <path class="cls-4" d="M13.4,110.54c.25,1.38.74,2.69,1.48,3.9,1.35,2,3.05,3.62,5.1,4.88,4.59,2.74,9.56,4.37,14.89,4.92,7.01.84,13.83.07,20.46-2.31,3.44-1.28,6.44-3.22,9-5.82,1.41-1.61,2.31-3.47,2.71-5.57.01,1.21,0,2.41-.04,3.61-.09.8-.3,1.57-.61,2.31-.9,1.88-2.18,3.48-3.83,4.81-3.04,2.31-6.41,3.98-10.12,4.99-8.04,2.23-16.09,2.25-24.15.07-3.76-1.04-7.18-2.72-10.27-5.06-1.58-1.25-2.85-2.75-3.8-4.52-.01,3.7-.05,7.39-.11,11.06-.06-3.85-.1-7.71-.11-11.57-.32-.79-.51-1.61-.58-2.46-.04-1.08-.05-2.17-.04-3.25Z"/>
        <path class="cls-13" d="M46.44,111.41c.31-.03.6.03.87.18.24.22.28.47.11.76-.54.32-1.05.27-1.52-.14-.05-.12-.05-.24,0-.36.15-.19.33-.33.54-.43Z"/>
        <path class="cls-15" d="M50.35,110.83c.36-.01.72,0,1.08.04.47.25.56.59.25,1.05-.6.27-1.1.15-1.52-.36-.08-.28-.02-.52.18-.72Z"/>
        <path class="cls-14" d="M27.57,111.84c.47-.08.87.04,1.19.36,0,.48-.23.72-.72.72-.43.01-.7-.18-.83-.58.09-.19.21-.36.36-.51Z"/>
        <path class="cls-3" d="M32.42,112.35c.62-.06,1.16.11,1.63.51.1.65-.19.94-.87.87-.55.02-.9-.23-1.05-.76.05-.23.15-.43.29-.61Z"/>
        <path class="cls-8" d="M66.4,116.47c.03,4.03,0,8.05-.11,12.07-.42,1.97-1.31,3.68-2.68,5.13-2.03,2.08-4.38,3.7-7.05,4.88-5.76,2.5-11.79,3.61-18.07,3.33-5.22-.21-10.21-1.4-14.97-3.54-2.87-1.29-5.31-3.14-7.34-5.53-1.12-1.48-1.81-3.14-2.06-4.99.06-3.68.1-7.36.11-11.06.95,1.77,2.21,3.27,3.8,4.52,3.08,2.34,6.51,4.02,10.27,5.06,8.06,2.18,16.11,2.16,24.15-.07,3.71-1.01,7.09-2.68,10.12-4.99,1.65-1.32,2.93-2.93,3.83-4.81Z"/>
      </g>
      <g>
        <path class="cls-17" d="M6.4,103.23h0c-4-.2-6.5-4.5-5.1-8.5l10.2-24.6c1.5-3.9,5.6-5.9,9.3-4.4h0c4.3,1.7,6.1,7.2,3.7,11.3l-12.9,23.2c-1.1,2-3.2,3.1-5.3,3h.1Z"/>
        <path class="cls-26" d="M14.8,65.33c-3.4,2.8-7.8,8.5-10.9,20.9l13.8,6.3s9.7-17,8.5-23.5c-.8-4.5-7.7-6.6-11.5-3.6h0l.1-.1Z"/>
        <path class="cls-17" d="M4.5,93.53h0c1.6,0,3,.5,4.1,1.9l20.3,23.9-6.1,4.4L1.6,102.93c-3.2-3.2-1.3-9,3.1-9.3h-.2v-.1Z"/>
        <path class="cls-17" d="M34.9,127.23l-6-8.4-6.5,3.8s0,.2.2.2c-2.5,9.4,1.2,14.4,1.2,14.4,3.5,4.9,5.2,4.1,5.9,2.6.5-1.1.5-2.3,0-3.4-1.5-4.8-.8-11.9-.8-11.9,6.1,6.2,5.7,2.6,5.7,2.6h.3v.1Z"/>
      </g>
      <g>
        <path class="cls-17" d="M73.4,103.13h0c4-.2,6.5-4.5,5.1-8.5l-10.2-24.6c-1.5-3.9-5.6-5.9-9.3-4.4h0c-4.3,1.7-6.1,7.2-3.7,11.3l12.9,23.2c1.1,2,3.2,3.1,5.3,3h-.1Z"/>
        <path class="cls-26" d="M65,65.23c3.4,2.8,7.8,8.5,10.9,20.9l-13.8,6.3s-9.7-17-8.5-23.5c.8-4.5,7.7-6.6,11.5-3.6h0l-.1-.1Z"/>
        <path class="cls-17" d="M74.1,92.53h0c-1.6,0-2.9.8-3.9,2.1l-18.3,25.4,6.5,3.9,19.5-22.4c3-3.4.7-9-3.7-9h-.1Z"/>
        <path class="cls-17" d="M46.1,125.13l7.6-6.9,5.6,5.1s-.2.1-.3.2c.6,9.7-4.1,13.8-4.1,13.8-4.4,4.1-5.9,3-6.3,1.3-.3-1.1,0-2.4.5-3.3,2.5-4.4,3.3-11.5,3.3-11.5-7.2,4.7-6.1,1.3-6.1,1.3h-.2Z"/>
      </g>
    </g>
  </g>
</svg>