<?xml version="1.0" encoding="UTF-8"?>
<svg id="Ebene_2" data-name="Ebene 2" xmlns="http://www.w3.org/2000/svg" xmlns:xlink="http://www.w3.org/1999/xlink" viewBox="0 0 97.23 298.72">
  <defs>
    <style>
      .cls-1 {
        fill: #65750c;
      }

      .cls-1, .cls-2, .cls-3, .cls-4, .cls-5, .cls-6, .cls-7, .cls-8, .cls-9, .cls-10, .cls-11, .cls-12, .cls-13, .cls-14, .cls-15, .cls-16, .cls-17, .cls-18, .cls-19, .cls-20, .cls-21, .cls-22, .cls-23, .cls-24, .cls-25, .cls-26, .cls-27, .cls-28, .cls-29, .cls-30, .cls-31, .cls-32, .cls-33, .cls-34, .cls-35, .cls-36, .cls-37, .cls-38, .cls-39, .cls-40, .cls-41, .cls-42, .cls-43, .cls-44, .cls-45, .cls-46, .cls-47, .cls-48, .cls-49 {
        fill-rule: evenodd;
      }

      .cls-50 {
        fill: #d9a8a7;
      }

      .cls-2 {
        fill: #c05602;
      }

      .cls-3 {
        fill: #facc00;
      }

      .cls-4 {
        fill: #ffdb37;
      }

      .cls-51 {
        fill: #1d2d4e;
      }

      .cls-5 {
        fill: #e42e0e;
      }

      .cls-6 {
        fill: #f8b153;
      }

      .cls-7 {
        fill: #ffeb95;
      }

      .cls-8 {
        fill: #f18c00;
      }

      .cls-9 {
        fill: #ffe05c;
      }

      .cls-10 {
        fill: #f8b776;
      }

      .cls-52 {
        stroke: #630;
        stroke-linecap: round;
        stroke-miterlimit: 10;
      }

      .cls-52, .cls-53 {
        fill: none;
      }

      .cls-11 {
        fill: #f29000;
      }

      .cls-12 {
        fill: #70abcc;
      }

      .cls-13 {
        fill: #fac47e;
      }

      .cls-14 {
        fill: #dd330d;
      }

      .cls-54 {
        fill: #344260;
      }

      .cls-15 {
        fill: #f39600;
      }

      .cls-55 {
        fill: #d9a2a0;
      }

      .cls-16 {
        fill: #819811;
      }

      .cls-17 {
        fill: #6f800e;
      }

      .cls-18 {
        fill: #ffd400;
      }

      .cls-19 {
        fill: #73aecf;
      }

      .cls-20 {
        fill: #d2773a;
      }

      .cls-21 {
        fill: #d4320d;
      }

      .cls-22 {
        fill: #e8904b;
      }

      .cls-23 {
        fill: #788c0f;
      }

      .cls-24 {
        fill: #809711;
      }

      .cls-25 {
        fill: #9bd3f2;
      }

      .cls-26 {
        fill: #a34801;
      }

      .cls-56 {
        fill: #ca8a8c;
      }

      .cls-27 {
        fill: #b14f03;
      }

      .cls-28 {
        fill: #d05e04;
      }

      .cls-29 {
        fill: #195f80;
      }

      .cls-30 {
        fill: #e95441;
      }

      .cls-31 {
        fill: #f9cfcb;
      }

      .cls-57, .cls-58 {
        fill: #603813;
      }

      .cls-32 {
        fill: #d78343;
      }

      .cls-59 {
        fill: #faf0f5;
      }

      .cls-33 {
        fill: #c75b03;
      }

      .cls-34 {
        fill: #f49f6c;
      }

      .cls-35 {
        fill: #f7b371;
      }

      .cls-36 {
        fill: #f1a260;
      }

      .cls-37 {
        fill: #bf7500;
      }

      .cls-38 {
        fill: #eea54a;
      }

      .cls-39 {
        fill: #e5360d;
      }

      .cls-40 {
        fill: #e39323;
      }

      .cls-41 {
        fill: #fbcc93;
      }

      .cls-60 {
        fill: #543a35;
      }

      .cls-42 {
        fill: #eec200;
      }

      .cls-43 {
        fill: #90ab13;
      }

      .cls-44 {
        fill: #c0e5fa;
      }

      .cls-45 {
        fill: #8dc8eb;
      }

      .cls-46 {
        fill: #015272;
      }

      .cls-47 {
        fill: #de8947;
      }

      .cls-58 {
        isolation: isolate;
        opacity: .5;
      }

      .cls-61 {
        clip-path: url(#clippath);
      }

      .cls-48 {
        fill: #b56e00;
      }

      .cls-49 {
        fill: #ba652a;
      }
    </style>
    <clipPath id="clippath">
      <path class="cls-53" d="M31.37,73.01l.38,1.47c.03.13-.04.26-.17.29l-4.59,1.19c-.13.03-.26-.04-.29-.17l-.37-1.41c-.12-.46.16-.94.63-1.07l3.41-.89c.43-.11.88.15.99.58Z"/>
    </clipPath>
  </defs>
  <g id="Ebene_1-2" data-name="Ebene 1">
    <g id="german-woman-grocery">
      <g>
        <path class="cls-51" d="M58.97,216.81h0c-4.3,0-7.7-3.4-7.9-7.6l-1.8-64.4c0-6.9,5.7-12.6,12.6-12.6h0c6.9,0,12.6,5.7,12.6,12.6,2.2,21.6-1.1,46.3-8,66.7-1.1,3.2-4.1,5.3-7.5,5.3h0Z"/>
        <path class="cls-51" d="M56.87,286.61h-5.6v-74.9c0-4.5,3.2-8.1,7.2-8.1h0c3.6,0,6.6,2.9,7.1,6.8,3,21.9-.3,47.9-8.8,76.2h.1Z"/>
        <path class="cls-60" d="M56.87,286.51s22.4,10.1,17,12c-.6.2-20.1-2.7-20.6-3-1.1-.6-1.8-1.7-1.9-3v-5.9h5.5v-.1Z"/>
      </g>
      <g>
        <path class="cls-51" d="M37.97,217.01h0c4.3,0,7.7-3.4,7.9-7.6l1.8-64.4c0-6.9-5.7-12.6-12.6-12.6h0c-6.9,0-12.6,5.7-12.6,12.6-2.2,21.6,1.1,46.3,8,66.7,1.1,3.2,4.1,5.3,7.5,5.3Z"/>
        <path class="cls-51" d="M39.97,286.81h5.6v-74.9c0-4.5-3.2-8.1-7.2-8.1h0c-3.6,0-6.6,2.9-7.1,6.8-3,21.9.3,47.9,8.8,76.2h-.1Z"/>
        <path class="cls-60" d="M39.97,286.71s-22.4,10.1-17,12c.6.2,20.1-2.7,20.6-3,1.1-.6,1.8-1.7,1.9-3v-5.9h-5.5v-.1Z"/>
      </g>
      <path class="cls-60" d="M77.17,35.91c-2.7-5-6.9-8.9-9.7-13.8-1.2-2.1-1-19.5-14-21.8-2.7-.5-5.6-.3-8.3.2-2.6.5-5.2.8-7.4,2.3-2.1,1.4-3.8,3.4-4.9,5.6-1.4,2.9-1.6,6.2-2.8,9.2-3.4,8-9.9,14.3-12.6,22.5-.2.6-.4,1.3-.6,1.9-.9,3.6.2,7.6,2,10.8,1-2.3.6-4.9,1.9-7.3.7,6.1,1.6,11.9,5.5,16.9,3.7,4.8,8.4,7.2,13.5,10.2-.4-.9-.7-1.7-.6-2.7,2,1.9,6,3.9,8.7,3.2,4.1-1.2,7.6-3.7,11.1-5.7,0,1-1.4,2.6-2,3.4,4.8-2.4,10.6-6.4,13.2-11.2,2.5-4.6,3-10.2,3.5-15.2,1.7,2.2,2,5.4,2.9,7.9,2.6-4.7,3-11.8.5-16.6v.2h.1Z"/>
      <g>
        <path class="cls-51" d="M73.47,140.31l-24.1,14.8-26.8-11.9c1.8-11,7-22.6,10.6-29.8,2.3-4.5,4-7.3,4-7.3h22.8c1.3,2.1,2.7,4.6,3.9,7.3,5.5,11.9,9.6,26.9,9.6,26.9Z"/>
        <path class="cls-59" d="M73.17,59.41l-2.5,12.6c-.3,1.3-.6,2.7-.9,4.1-.3,1.5-.7,2.9-1.2,4.4l-6.2,21.5-.3.9-.9,3.2-.6,2.1h-22.7l-.6-2.1-.9-3.2-.6-2.2-5.6-19.5c-.5-1.7-.9-3.4-1.2-5.2-.3-1.7-.6-3.4-.8-5.1l-1.4-12.6,3.3-1.4,6.4-2.7,8.5-3.6h9.4l4.7,2.2,6.9,3.2,7.1,3.3h0l.1.1Z"/>
        <path class="cls-60" d="M37.27,106.11h0l-.9-3.2h26.3l-.9,3.2c1.4,2.1,2.8,4.6,4.2,7.3h-32.9c2.4-4.5,4.3-7.3,4.3-7.3h-.1Z"/>
        <path class="cls-54" d="M39.37,52.81l4.5,32.7c2,14.7,2.1,29.6.3,44.3l-1.9,15.5c-1.4,11.2-11.6,19.7-23.7,19.7h-1.8c1.3-19.5,5.7-37.8,12.4-50.2,3.2-5.9,2.8-13.4,3.1-19.1l-7-37.1,14.3-5.7h-.2v-.1Z"/>
        <path class="cls-54" d="M58.37,52.11l-4.5,32.7c-2,14.7-2.1,29.6-.3,44.3l1.9,15.5c1.4,11.2,11.6,19.7,23.7,19.7h1.8c-1.3-19.5-5.7-37.8-12.4-50.2-3.2-5.9-2.9-12.7-3.1-19.1l8.3-35.5-15.5-7.3h0v-.1h.1Z"/>
      </g>
      <g>
        <path class="cls-20" d="M31.87,87.46l.09-.05,1.93-2.34,1.01.66,1.99-2.41,1.01.66h0s.01,0,.01-.01c0,0,.02-.01.06-.01l1.89-1.51,1.95,1.45,1.95-1.24,1.95,1.45,1.95-1.24,1.9,1.4h.11s1.89-1.2,1.89-1.2l1.84,1.36h.23s1.83-1.16,1.83-1.16l1.81,1.34h.29s1.81-1.13,1.81-1.13l1.82,1.35.27.02,1.82-1.16,1.9,1.41h.09s1.91-1.2,1.91-1.2c.39.3,1.89,1.45,1.9,1.79,0,.18-.54.74-1.4,1.56l-.65.85h-.28c-3.02,2.72-7.87,6.67-7.87,6.67l-20.73,3.21-8.35-2.63-3.64-3.9-.15-.04,1.92-2.82,1.01.66,1.99-2.41.98.64Z"/>
        <path class="cls-49" d="M31.87,87.46l.09-.05,1.93-2.34,1.01.66,1.99-2.41.99.65v.02s0,10.14,0,10.14c0,0-1.45,1.34-3.05,2.77l-5.05-1.59-3.64-3.9-.15-.04,1.92-2.82,1.01.66,1.99-2.41.98.64Z"/>
        <g>
          <path class="cls-39" d="M47.43,73.23s-.26-.64-.79-1.3-.6-1.17-.62-1.58c-.02-.41,4.95.1,7.63.28,2.68.18,7.58.13,7.9.16s2.32.33,2.28.76-.89,1.36-1.09,2.33-.23,1.62-.27,2.61c-.03.99.62,6.07.23,11.66-.39,5.59-.25,15.1-.5,15.84-.24.74-3.05.66-6.01.98-2.96.32-9.32-.02-10.11-1.03-.79-1.01.45-24.09.54-25.75s.37-2.52.57-3.41c.2-.89.23-1.56.23-1.56Z"/>
          <path class="cls-30" d="M51.05,100.97c-1.17-.58-.64-2.04-.76-9.28-.12-7.24-.06-14.25,1.99-14.77,2.04-.53,5.02-.17,4.44.82s-2.39.88-2.92,8.06c-.53,7.18-.7,11.45-.06,13.9.64,2.45.53,2.74-2.69,1.28Z"/>
          <path class="cls-14" d="M52.53,105.09c-2.85-.08-5.92-.45-6.45-1.13-.79-1.01.45-24.09.54-25.75s.37-2.52.57-3.41c.1-.47.16-.88.19-1.16,2.67.02,8.19.93,9.32,1.38,1.31.53-5.81.26-7.59.91-1.78.64-1.26,12.82-.67,20.53.58,7.7,4.08,8.64,4.09,8.64h0Z"/>
          <path class="cls-14" d="M63.83,71.55c-.04.44-.89,1.36-1.09,2.33s-.23,1.62-.27,2.61c-.03.99.62,6.07.23,11.66-.39,5.59-.25,15.1-.5,15.84-.24.74-3.05.66-6.01.98-.21.02-.44.04-.69.06,1.28-.16,3.75-1.06,4.3-6,.7-6.37,1.58-20.03.76-21.37-.82-1.34.74-5.59,3.26-6.12Z"/>
          <path class="cls-11" d="M62.59,78.52c.16,2.2.38,5.79.12,9.64-.13,1.82-.2,4.06-.24,6.28-4.09.37-11.74.44-16.53,0,.2-6.93.65-15.27.71-16.25,0-.06,0-.11.01-.17,2.8-.03,10.6-.07,15.95.48Z"/>
          <path class="cls-15" d="M53.32,94.75c-1.02,0-2.03-.02-3.02-.05,0-.87,0-1.87-.02-3.01-.09-5.74-.07-11.32.95-13.66,1.58.01,3.35.04,5.14.1-.76.72-2.14,1.55-2.58,7.66-.27,3.71-.45,6.65-.47,8.95Z"/>
          <path class="cls-8" d="M48.32,94.61c-.85-.04-1.65-.1-2.39-.17.2-6.93.65-15.27.71-16.25,0-.06,0-.11.01-.17.42,0,.96-.01,1.59-.01-.58,3.55-.3,10.85.09,16.59Z"/>
          <path class="cls-8" d="M62.59,78.52c.16,2.2.38,5.79.12,9.64-.13,1.82-.2,4.06-.24,6.28-.66.06-1.41.11-2.23.16.5-6.02.89-13.77.53-16.24.63.05,1.25.1,1.84.16Z"/>
          <path class="cls-21" d="M46.25,71.32s.87,1.03,2.5,1.17c1.64.15,13.71.51,13.81.76.1.25-13.04-.23-14.09-.48-1.05-.25-2.22-1.45-2.22-1.45Z"/>
          <path class="cls-21" d="M49.53,73.25s12.95.32,13.01.55-13.85-.1-13.01-.55Z"/>
          <path class="cls-5" d="M47.37,71.04c-.58-.23.96-.35,4.38-.12,3.42.23,5.34.44,7.59.44s3.71.38,3.18.76-1.46.09-5.28.15c-3.82.06-8.7-.38-9.87-1.23Z"/>
          <path class="cls-30" d="M50.67,71.31c-.08.6,10.28,1.08,10.34.61.05-.47-9.46-.73-10.34-.61Z"/>
          <path class="cls-31" d="M51.81,78.93c.64-.58.79,2.36.44,4.67s-.29,15.33-.73,15.85c-.44.53-.67-19.36.29-20.53Z"/>
        </g>
        <g>
          <polygon class="cls-40" points="32.75 108.33 53.48 104.84 56.26 98.86 51.9 72.95 31.74 76.34 27.77 79.63 32.75 108.33"/>
          <polygon class="cls-13" points="51.9 72.95 31.74 76.34 27.79 79.61 27.78 79.74 48.93 76.06 51.9 72.95"/>
          <polygon class="cls-6" points="32.75 108.33 53.48 104.84 48.93 76.06 27.77 79.63 32.75 108.33"/>
          <path class="cls-38" d="M48.93,76.06l-21.16,3.56,3.98,22.91s-2.4-18.01,17.19-26.47Z"/>
          <path class="cls-48" d="M34.65,108.01l18.83-3.17-3.85-24.37c-17.86,3.96-14.98,27.54-14.98,27.54Z"/>
          <polygon class="cls-41" points="31.82 76.33 29.21 78.44 50.05 74.89 51.9 72.95 31.82 76.33"/>
          <polygon class="cls-40" points="29.21 78.44 50.05 74.89 49.87 75.07 29.01 78.6 29.21 78.44"/>
          <path class="cls-37" d="M47.03,84.12c-1.72,1.77-12.32,21.08-8.16,19.44,4.16-1.65,6.64-9.82,6.89-6.9.25,2.92-.6,7.68.67,5.04,1.27-2.64,3.19-21.22.59-17.57Z"/>
          <polygon class="cls-48" points="53.88 100.85 50.58 81.27 52.42 78.83 55.45 97.51 53.88 100.85"/>
        </g>
        <g>
          <path class="cls-45" d="M31.08,74.75l.46,1.46s2.11.58,3.56,1.79c1.44,1.21,2.01,2.27,2.08,4.15.07,1.88-.39,3.54-.02,4.11s2.83,1.56,3.71,4.19c.88,2.64,4.81,18.48,4.81,18.48,0,0,.92,3.83-.59,4.68s-2.32-.2-3.22.08c-.9.28-1.23,2-2.08,1.98-.73.44-1.86-.9-2.78-.71-.92.2-1.13,1.5-2.85,1.5s-2.8-3.8-2.8-3.8c0,0-4.3-15.75-4.81-18.48s1.15-4.79,1.19-5.47c.05-.68-1.16-1.9-2.02-3.58-.85-1.68-.88-2.88-.21-4.64s2.23-3.3,2.23-3.3l-.31-1.5,1.76-.68h0s0,0,0,0h0s0,0,0,0l1.87-.26Z"/>
          <path class="cls-12" d="M31.74,76.28c.56.18,2.18.75,3.35,1.73,1.44,1.21,2.01,2.27,2.08,4.15.07,1.88-.39,3.54-.02,4.11.02.03.05.07.08.1-.7.23-1.47.3-2.31.22,0,0,2.54-2.55,1.4-5.58-1.03-2.73-3.88-4.02-4.59-4.73Z"/>
          <path class="cls-12" d="M27.72,88.84s.02-.09.02-.12c.05-.68-1.16-1.9-2.02-3.58-.85-1.68-.88-2.88-.21-4.64.61-1.61,1.97-3.04,2.2-3.26-.16.89-2.17,3.48-1.72,6.47.47,3.2,3.94,4.19,3.94,4.19-.73.49-1.46.82-2.21.94h0ZM27.72,77.07h0s0,0,0,0h0Z"/>
          <path class="cls-12" d="M36.99,80.73c.05.19.09.4.12.61-.05-.22-.09-.42-.12-.61h0ZM37.15,83.57c-.08,1.26-.26,2.28.01,2.69.37.57,2.83,1.56,3.71,4.19.88,2.64,4.81,18.48,4.81,18.48,0,0,.92,3.83-.59,4.68-1.51.84-2.32-.2-3.22.08-.9.28-1.23,2-2.08,1.98-.02.01-.04.02-.06.03.07-.05.66-.48.78-1.19.13-.76.3-1.5,1.09-1.84.79-.34,2.42.19,2.92-1.42.36-1.16-1.77-11.17-3.55-17.06-2.7-8.93-4.57-6.41-9.06-5.76-1.43.21,4.29-1.3,5.24-4.87Z"/>
          <path class="cls-12" d="M39.88,115.67s-.06,0-.09,0c-.73.44-1.86-.9-2.78-.71-.92.2-1.13,1.5-2.85,1.5s-2.8-3.8-2.8-3.8c0,0-4.3-15.75-4.81-18.48s1.15-4.79,1.19-5.47c.03-.51-.63-1.32-1.33-2.4,2.56,2.7,8.34,1.21,6.99,1.73-4.24,1.62-7.1.33-5.1,9.44,1.32,6.01,4.34,15.79,5.22,16.62,1.22,1.16,2.39-.09,3.24-.18.85-.09,1.36.48,1.85,1.07.48.58,1.24.66,1.27.66h0ZM25.42,84.47c-.1-.25-.18-.49-.24-.73.09.22.17.46.24.73Z"/>
          <path class="cls-19" d="M31.08,74.75l.4,1.25c-.66-.83-1.98-.51-2.9-.15s-.85,1.22-.85,1.22h0l-.28-1.37,1.76-.68h0s0,0,0,0h0s0,0,0,0l1.87-.26Z"/>
          <path class="cls-46" d="M26.84,72.81l3.41-.89c.43-.11.88.15.99.58l.52,1.98c.03.13-.04.26-.17.29l-4.59,1.19c-.13.03-.26-.04-.29-.17l-.5-1.92c-.12-.47.16-.95.63-1.07Z"/>
          <g>
            <path id="SVGID" class="cls-29" d="M31.37,73.01l.38,1.47c.03.13-.04.26-.17.29l-4.59,1.19c-.13.03-.26-.04-.29-.17l-.37-1.41c-.12-.46.16-.94.63-1.07l3.41-.89c.43-.11.88.15.99.58Z"/>
            <g class="cls-61">
              <g>
                <path class="cls-46" d="M26.72,73.67h0c.08-.02.16.03.18.1l.66,2.54c.02.08-.03.16-.1.18h0c-.08.02-.16-.03-.18-.1l-.66-2.54c-.02-.08.03-.16.1-.18Z"/>
                <g>
                  <path class="cls-46" d="M27.29,73.52h0c.08-.02.16.03.18.1.22.85.44,1.69.66,2.54.02.08-.03.16-.1.18h0c-.08.02-.16-.03-.18-.1-.22-.85-.44-1.69-.66-2.54-.02-.08.03-.16.1-.18Z"/>
                  <path class="cls-46" d="M27.87,73.37h0c.08-.02.16.03.18.1.22.85.44,1.69.66,2.54.02.08-.03.16-.1.18h0c-.08.02-.16-.03-.18-.1-.22-.85-.44-1.69-.66-2.54-.02-.08.03-.16.1-.18Z"/>
                  <path class="cls-46" d="M28.44,73.22h0c.08-.02.16.03.18.1.22.85.44,1.69.66,2.54.02.08-.03.16-.1.18h0c-.08.02-.16-.03-.18-.1-.22-.85-.44-1.69-.66-2.54-.02-.08.03-.16.1-.18Z"/>
                  <path class="cls-46" d="M29.01,73.07h0c.08-.02.16.03.18.1.22.85.44,1.69.66,2.54.02.08-.03.16-.1.18h0c-.08.02-.16-.03-.18-.1-.22-.85-.44-1.69-.66-2.54-.02-.08.03-.16.1-.18Z"/>
                  <path class="cls-46" d="M29.59,72.92h0c.08-.02.16.03.18.1.22.85.44,1.69.66,2.54.02.08-.03.16-.1.18h0c-.08.02-.16-.03-.18-.1-.22-.85-.44-1.69-.66-2.54-.02-.08.03-.16.1-.18Z"/>
                  <path class="cls-46" d="M30.16,72.77h0c.08-.02.16.03.18.1.22.85.44,1.69.66,2.54.02.08-.03.16-.1.18h0c-.08.02-.16-.03-.18-.1-.22-.85-.44-1.69-.66-2.54-.02-.08.03-.16.1-.18Z"/>
                </g>
                <path class="cls-46" d="M30.73,72.62h0c.08-.02.16.03.18.1l.66,2.54c.02.08-.03.16-.1.18h0c-.08.02-.16-.03-.18-.1l-.66-2.54c-.02-.08.03-.16.1-.17Z"/>
              </g>
            </g>
          </g>
          <path class="cls-25" d="M33.12,78.53c.91.41-2.41,2.05-3.25,3.55-.85,1.5,1.75,4.48.67,4.85s-3.91-1.53-4.04-4.05c-.19-3.72,5.03-5.07,6.62-4.35Z"/>
          <path class="cls-44" d="M27.54,81.26c.85-.46,1.55-.12.96.81s.09,1.92-.27,2.26c-.36.34-2.3-1.69-.69-3.06Z"/>
          <path class="cls-25" d="M30.49,90.26c1.67-.55,2.86-.59,3.35,2.69.49,3.28,2.39,17.3,3.48,18.44,1.08,1.14.24,1.72-1.14,2.11-1.38.39-3.05-1.86-4.1-5.66-1.05-3.8-5.46-16.14-1.59-17.57Z"/>
          <path class="cls-44" d="M30.34,91.53c.98-.19.98.41,1.06,3.25.08,2.85.54,8.1,1.6,11.8,1.06,3.71-1.46-.52-2.39-5.11-.92-4.59-1.91-9.88-.27-9.95Z"/>
          <path class="cls-44" d="M39.86,110.69s2.3-.66.52-6.59-4.31-13.78-3.33-14.16c.99-.38,5.22,14.69,5.25,18.06.03,3.37-2.44,2.69-2.44,2.69Z"/>
        </g>
        <g>
          <path class="cls-17" d="M47.87,92.31c-.23-.17.18-.42-.62-.82-.8-.41-1.08-.37-1.56-.05s-1.71.14-2.7-.68c-.99-.82-1.37-2.13-.75-2.86.62-.74,1.72-.57,1.39-1.06s-1.36-2.19.36-4.26c1.71-2.07,3.35-1.55,4.22-.72.87.83,1.48,1.28,1.9.94.42-.34-.43-1.95.62-2.9,1.05-.95,1.94-.47,1.94-.47,0,0,2.23-1.78,4.06-.47,1.83,1.3,1.2,1.73,1.67,2.22s1.58.5,2.17,1.83c.59,1.32-1.7,3.09-1.7,3.09,0,0,2.79,1.46,2.7,3.18-.09,1.71-2.23,2.3-2.86,2.54s-.34,1.04.41,1.18c.74.14.93,2.82-.78,4.89-1.71,2.07-4.64.83-5.58-.06-.93-.89.09-2.42-.81-2.5s-1.22.75-2,.17c-.77-.58,1.05-4.16-2.07-3.17Z"/>
          <path class="cls-1" d="M47.64,87.3s-.26,1.42.16,1.87.88-.44,1.65-.79,2.23-.08,1.93.64c-.29.72-.05,1.53-.75,2.08s-1.65,1.16-2.23.6c-.58-.56-2.26-3.28-.77-4.39Z"/>
          <path class="cls-1" d="M60.98,87.77c.36.45.61.96.59,1.5-.09,1.71-2.23,2.3-2.86,2.54s-.34,1.04.41,1.18c.74.14.93,2.82-.78,4.89-1.38,1.66-3.54,1.19-4.82.48,2.12.56,2.29-1.19,2.29-1.19,0,0-.91-1.02-.25-1.61s2.66-.72,2.66-.72c0,0-1.17-.03-1.21-.96-.05-.93,1.28-.44.43-.92s-1.78-1.89-.86-2.44c.91-.54,1.88.82,3.6-.17,1.71-.99.82-2.56.82-2.56h0Z"/>
          <path class="cls-24" d="M47.69,92.06s-.5.68-.69,1.02-.02.54-.33.89c-.31.35-1.94,2.26-2.59,3.13-.65.87-2.09,2.92-2.37,3.6-.27.68-.18,1.16.58,1.24.76.08,1.6.38,2.43.84s.92,1.14,1.23.19c.31-.95,1.79-3.53,2.19-4.97.39-1.44.48-1.74,1.03-3.09.29-.71.56-1.34.74-1.92.81-.29,2.04.09,3.15.57,1.36.59,1.43,1.06,1.79.6.36-.46.43-1.34-.39-1.24-.82.1-2.04-.01-3.1-.89-.49-.4-.67-.79-.79-1.09.24-.61.4-1.49.15-1.81-.39-.49-1.01-.09-1.44.46-.27.34-.43.72-.49,1.12-.1.08-.21.18-.32.31-.35-.24-.71-.95-1.02-1.65-.42-.93.54-2.18.09-2.09-.45.09-1.06-.21-1.36.26s-.23,1.09,0,1.87c.24.78,1.29,1.24,1.51,2.4.01.07.02.14.03.21l-.03.04Z"/>
          <path class="cls-43" d="M47.69,92.06s-.5.68-.69,1.02-.02.54-.33.89c-.31.35-1.94,2.26-2.59,3.13-.65.87-2.09,2.92-2.37,3.6-.27.68-.18,1.16.58,1.24.76.08,1.6.38,2.43.84.59.34.81.78,1,.64.52-1.06-2.41-2.3-2.28-3.17.13-.87.61-.82,1.73-1.91s1.41-1.45,1.8-2c.39-.54-.97.42-.33-.61.63-1.03,1.63-2.2,1.99-3.03.36-.83-.37-1.17-1.54-2.56-1.18-1.39-.67-2.81-.67-2.82-.09.04-.18.11-.25.21-.3.47-.23,1.09,0,1.87.24.78,1.29,1.24,1.51,2.4.01.07.02.14.03.21l-.03.04Z"/>
          <path class="cls-23" d="M51.82,81.21c.55-.65.67-.29,1.59-.31.91-.02.73-.69,1.56-.51.83.17.7.67.93,1.37.23.7,1.36,1.34,1.06,2s-.88-.02-1.74.45-.74,1.35-1.67,1.73-1.33.88-2.22.22-2.27-.57-2.89-1.29c-.62-.72-1.41-1.19-2.1-.88-.69.31-1.64,1.6-2.05,1.17-.4-.43.86-3.67,2.09-3.34s2.74,2.01,3.54,1.87,1.25-.83,1.3-1.36c.04-.52-.5-1.25.6-1.13Z"/>
          <path class="cls-16" d="M53,81.4c.22.14.69.3.9.11.21-.19.74-.81,1.19-.42.45.39.05.97-.14,1.08-.2.11.33.06.07.57-.26.52-.47.78-.78.52-.31-.27-.3-.89-.77-.67s-.63.71-1.15.28-.84-1.06-.44-1.11c.4-.06.76-.93,1.14-.36Z"/>
          <path class="cls-1" d="M52.97,89.15s.06-2,1.37-2.49c1.32-.49,1.85,1.24,1.85,1.24,0,0,1.42-1.41,2.55-.21s.61,2.01.61,2.01c0,0-.92-1.62-2.3-1.23-1.39.39-1.44,1.17-1.44,1.17,0,0-2.01-2.41-2.63-.48Z"/>
          <path class="cls-1" d="M52.67,79.43s1.48-1.83,3.55-1.15c2.07.67,2.11,2.82,2.11,2.82,0,0,2.74.61,2.77,2.35s-1.9,2.36-1.9,2.36c0,0,1.28-2.14.08-3.02-1.2-.88-1.96-.25-1.96-.25,0,0-.86-5.08-4.65-3.11Z"/>
        </g>
        <g>
          <g>
            <path class="cls-2" d="M65.94,74.56c1.69.69,2.67,2.55,2.2,4.37l-5.48,21.14c-.47,1.81-2.22,2.97-4.03,2.75.01.13.08.65.21,1.03.16.43-.13.39-.75.56-.62.17-1.23-.5-1.39-.93-.16-.43.73-1.04.65-.89.03-.04.07-.08.11-.1-1.57-.75-2.44-2.54-1.99-4.28l5.48-21.14c.45-1.75,2.1-2.89,3.84-2.77-.03-.05-.05-.11-.06-.17,0,.17-.49-.79-.14-1.09.35-.3,1.21-.59,1.67-.14.46.45.73.55.38.85-.35.3-.7.82-.7.82h0Z"/>
            <path class="cls-27" d="M64.29,93.77l-1.63,6.3c-.47,1.81-2.22,2.97-4.03,2.75.01.13.08.65.21,1.03.16.43-.13.39-.75.56-.62.17-1.23-.5-1.39-.93-.16-.43.73-1.04.65-.89.03-.04.07-.08.11-.1-1.57-.75-2.44-2.54-1.99-4.28l3.81-14.7c1.43-2.81,2.47-4.88,2.47-4.88,0,0-3.84,13.9-3.58,17.11.26,3.2,4.36,3.6,6.12-1.97Z"/>
            <path class="cls-26" d="M57.1,104.05c-.19-.18-.33-.4-.39-.58-.16-.43.73-1.04.65-.89.03-.04.07-.08.11-.1-1.57-.75-2.44-2.54-1.99-4.28l5.48-21.14c.45-1.75,2.1-2.89,3.84-2.77-.03-.05-.05-.11-.06-.17,0,.17-.49-.79-.14-1.09.18-.16.49-.31.82-.36-.01,0-.76.3-.67.71.09.42.81.96.56,1.1-.25.13-2.57.25-3.33,3.31s-5.63,20-5.72,21.09c-.09,1.09.76,2.98,1.57,3.53.82.55-1.31.41-.73,1.63Z"/>
            <path class="cls-28" d="M67.76,77.43c.22.9-.89.92-1.92.66-5.6-1.37,1.08-4.11,1.92-.66Z"/>
            <path class="cls-33" d="M66.21,81.67c-.43,1.67-2.42,9.96-3.78,13.74-1.33,3.71-3.14,1.31-2.75-.2.3-1.16,1.97-8.58,3.31-12.9,1.74-5.63,3.69-2.48,3.22-.65Z"/>
          </g>
          <path class="cls-34" d="M61.07,76.15c.13-.08.3-.03.38.1.08.13.03.3-.1.38,0,0-.02.07-.05.21-.09.36-.12.96-.03,1.68.1.72.34,1.55.82,2.36.79,1.34,2.21,2.6,4.71,3.21.15.04.24.18.2.33-.04.15-.18.24-.33.2-2.67-.64-4.21-2.01-5.06-3.46-.52-.88-.78-1.78-.89-2.57-.11-.79-.06-1.47.04-1.88.07-.28.18-.48.31-.55Z"/>
          <path class="cls-34" d="M59.37,82.71c.13-.08.3-.03.38.1.08.13.03.3-.1.38,0,0-.02.07-.05.21-.09.36-.12.96-.03,1.68.1.72.34,1.55.82,2.36.79,1.34,2.21,2.6,4.71,3.21.15.04.24.18.2.33-.04.15-.18.24-.33.2-2.67-.64-4.21-2.01-5.06-3.46-.52-.88-.78-1.78-.89-2.57-.11-.79-.06-1.47.04-1.88.07-.28.18-.48.31-.55Z"/>
          <path class="cls-34" d="M57.37,90.42c.13-.08.3-.03.38.1.08.13.03.3-.1.38,0,0-.02.07-.05.21-.09.36-.12.96-.03,1.68.1.72.34,1.55.82,2.36.79,1.34,2.21,2.6,4.71,3.21.15.04.24.18.2.33-.04.15-.18.24-.33.2-2.67-.64-4.21-2.01-5.06-3.46-.52-.88-.78-1.78-.89-2.57-.11-.79-.06-1.47.04-1.88.07-.28.18-.48.31-.55Z"/>
          <path class="cls-34" d="M68.02,80.23c-.08-.13-.25-.17-.38-.1-.13.08-.17.25-.1.38,0,0-.02.07-.06.21-.1.36-.36.9-.79,1.48-.44.58-1.05,1.19-1.86,1.67-1.34.79-3.2,1.2-5.68.52-.15-.04-.3.05-.34.19-.04.15.05.3.19.34,2.65.73,4.66.28,6.1-.57.88-.52,1.54-1.18,2.02-1.81.48-.64.77-1.25.88-1.66.08-.28.08-.51,0-.63Z"/>
          <path class="cls-34" d="M66.32,86.79c-.08-.13-.25-.17-.38-.1-.13.08-.17.25-.1.38,0,0-.02.07-.06.21-.1.36-.36.9-.79,1.48-.44.58-1.05,1.19-1.86,1.67-1.34.79-3.2,1.2-5.68.52-.15-.04-.3.05-.34.19-.04.15.05.3.19.34,2.65.73,4.66.28,6.1-.57.88-.52,1.54-1.18,2.02-1.81.48-.64.77-1.25.88-1.66.08-.28.08-.51,0-.63Z"/>
          <path class="cls-34" d="M64.32,94.5c-.08-.13-.25-.17-.38-.1-.13.08-.17.25-.1.38,0,0-.02.07-.06.21-.1.35-.36.9-.79,1.48-.44.58-1.05,1.19-1.86,1.67-1.34.79-3.2,1.2-5.68.52-.15-.04-.3.05-.34.19-.04.15.05.3.19.34,2.65.73,4.66.28,6.1-.57.88-.52,1.54-1.18,2.02-1.81.48-.64.77-1.25.88-1.66.08-.28.08-.51,0-.63Z"/>
        </g>
        <path class="cls-22" d="M58.92,147.15c.29-.2,6.42-5.81,7.88-6.19,1.46-.38,4.2-.99,4.23-1.4s.58-1.17.26-2.22c-.32-1.05-1.14-3.18-1.14-5.58s-.88-11.85-.58-13.9c.29-2.04-.82-14.13-.17-18.63.64-4.5.47-7.77.41-9.28-.06-1.52-.73-4.32-.73-4.32l-.03.02-.81-.6-1.61,2.37-.1.07-.82-.61-1.64,2.4-.06.05-.83-.62-1.66,2.43-.03.02-.84-.62-1.68,2.46s1.05,4.91,1.05,6.07.88,1.99.64,3.33c-.23,1.34-.53,3.39-.7,4.79-.18,1.4-1.11,2.69-1.11,5.14s-1.99,10.57-1.05,13.02c.93,2.45.7,6.36.88,8.06.17,1.69.47,12.84.23,13.72h0Z"/>
        <path class="cls-32" d="M69.21,104.84c-.04-2.23,0-4.26.19-5.6.54-3.78.5-6.69.44-8.42,0,.14.03,4.78-1.98,8.05-2.04,3.33-4.79,9.81-4.79,9.81,0,0,3.92-2.1,6.14-3.84Z"/>
        <path class="cls-32" d="M60.68,145.61c2.01-1.75,5.13-4.4,6.12-4.65,1.46-.38,4.2-.99,4.23-1.4l-7.18-21.71.64,21.96-3.82,5.81Z"/>
        <g>
          <path class="cls-18" d="M36.79,92.86s-1.17-.51-1.23-1.17c-.07-.66,1.35-.62,1.39-1.46s1.04-3.77,5.49-4.08c4.46-.31,5.93,2.87,6.55,3.35s1.26.73,1.08,1.26c-.18.53-.79.51-.86,1.01-.07.51-.66,3.42-4.65,4.01-3.99.6-7.26-.9-7.76-2.93Z"/>
          <path class="cls-3" d="M36.79,92.86s-1.17-.51-1.23-1.17c-.01-.15.04-.26.14-.35,0,.01-.07.5.74.63.82.13.95-1.76,1.52-1.54s-.07,2.34,2.47,3.53,5.74,1.11,8.34-.86c-.54,1.03-1.7,2.32-4.22,2.7-3.99.59-7.26-.9-7.76-2.93Z"/>
          <path class="cls-42" d="M36.79,92.86s-.46-.2-.82-.51c.22.1.57.22.87.06.47-.24.53-.92.71-.83s-.25,3.88,5.41,4.34c-3.24.04-5.73-1.31-6.17-3.06Z"/>
          <path class="cls-4" d="M43.92,86.72c2.71.26,4.54,2.71,3.64,4.35-.9,1.63-2.14.48-4.73-.03-6.6-1.32-4.18-4.83,1.09-4.31Z"/>
          <path class="cls-9" d="M43.9,86.89c1.98.15,3.32,1.56,2.66,2.5s-1.56.28-3.45-.02c-4.82-.76-3.05-2.78.8-2.48Z"/>
          <path class="cls-7" d="M43.78,87.04c.85.07,1.43.67,1.14,1.08-.28.4-.67.12-1.48,0-2.07-.33-1.31-1.2.34-1.07Z"/>
          <path class="cls-7" d="M45.31,88.45c.35.03.59.28.47.44s-.28.05-.61,0c-.85-.13-.54-.49.14-.44Z"/>
          <path class="cls-7" d="M36.53,91.02c-.28.15-.68.53-.26.58.42.05,1.35-1.04.26-.58Z"/>
          <path class="cls-3" d="M48.6,89.55c-.02.25.12,1.04.33,1.22.2.18.38-.19.71-.17.33.02.28-.29.06-.49-.22-.2-1.12-.74-1.09-.57Z"/>
        </g>
        <path class="cls-35" d="M58.97,93.02s1.05,4.91,1.05,6.07.88,1.99.64,3.33c-.23,1.34-.53,3.39-.7,4.79-.18,1.4-1.11,2.69-1.11,5.14s-1.99,10.57-1.05,13.02c.93,2.45.7,6.36.88,8.06.17,1.69.47,12.85.23,13.72-.23.88-5.96-.12-9.17-.99s-8.29-1.23-10.63-1.75c-2.34-.53-12.2-2.51-13.61-3.33-1.4-.82-.06-5.26,0-6.48.06-1.23-1.23-9.23-.76-10.45s2.34-2.34,2.45-4.03-.12-3.15-.12-3.74-.29-9.17-.35-11.21c-.06-2.04.47-5.66-.17-7.24-.64-1.58-.06-1.87-.29-3.21-.23-1.34-.29-3.33-.29-3.33l2.06-1.24,2.06,1.45h0l2.06-1.24,2.06,1.45h0l2.06-1.24,2.06,1.44h0l2.06-1.24,2.06,1.44h0l2.06-1.24,2.06,1.45h0l2.06-1.24,2.06,1.45,2.06-1.24,2.06,1.45,2.06-1.24,2.06,1.44Z"/>
        <path class="cls-36" d="M26.74,104.92c-.01-2.08.45-5.48-.17-6.99-.03-.07-.05-.13-.08-.2,0,0,.91.45,1.55.48.64.03,4.06-.64,5.72-.76,1.66-.12,10.95-.73,10.95-.73,0,0-6.39,1.31-8.91,2.19s-4.5,2.36-5.26,3.27c-.76.9-3.8,2.74-3.81,2.74Z"/>
        <path class="cls-36" d="M24.88,139.3c-.01-1.65.6-3.89.64-4.7.01-.24-.03-.75-.1-1.41h0s.9,1.07,1.48,1.31c.58.23,20.2,8.82,20.2,8.82,0,0-16.51-2.73-22.22-4.01Z"/>
        <path class="cls-10" d="M24.68,124.51c.02-.16.04-.28.08-.37.47-1.23,2.34-2.34,2.45-4.03s-.12-3.15-.12-3.74c0-.1,0-.45-.02-.97,0,0,1.35,4.08,1.76,5.02.41.93,14.89,2.04,14.89,2.04,0,0-4.38,3.85-5.49,4.03-1.11.17-9.58.41-9.58.41l-3.97-2.39Z"/>
        <path class="cls-36" d="M60.7,102.03c0,.13-.02.26-.04.39-.23,1.34-.53,3.39-.7,4.79-.18,1.4-1.11,2.69-1.11,5.14,0,.04,0,.08,0,.13,0-.01-.58-1.58-1.01-1.9-.44-.32-3.39-1.26-4.41-1.55-1.02-.29-4.26-2.07-4.96-2.66s-4.15-4.35-4.15-4.35c0,0,4.96,2.16,6.54,2.66s3.27.29,3.65,0c.38-.29,3.07-1.78,4.23-2.16.64-.21,1.4-.38,1.96-.49Z"/>
        <path class="cls-47" d="M59.16,110.03c-.17.66-.3,1.41-.3,2.32,0,2.45-1.99,10.57-1.05,13.02.93,2.45.7,6.36.88,8.06.09.92.22,4.6.29,7.93,0,0,2.88-14.89,2.64-16.64-.23-1.75-2.57-3.8-2.98-5.55-.41-1.75.52-9.13.52-9.14Z"/>
        <path class="cls-10" d="M36.39,104.36s6.13,4.03,7.18,4.5c1.05.47,10.92,3.39,11.1,4.2s-.58,2.04-.58,4.5.93,5.37.99,6.13c.06.76-7.71-5.26-9.58-6.07s-8.41-6.19-9.46-9.05c-1.05-2.86-2.39-7.65.35-4.2Z"/>
      </g>
      <g id="arm5">
        <path class="cls-50" d="M23.17,118.51l13.2,2.86s2.47,2.68-6.57,1.54c0,0,3.6,6.25,7.9,9.05.99.71,1.75,1.65,1.84,2.81.18,1.65-.66,3.36-6.7,1.59,0,0-6.89-1.86-10.19-12.09l.56-5.86h0q-.03.06,0,0l-.04.09Z"/>
        <path class="cls-54" d="M1.23,82.34h0c2.04,2.73,5.87,3.48,8.54,1.54,10.15-6.29,19.29-12.76,26.48-19.5,2.59-1.89,2.99-5.71.95-8.44h0c-5.36-6.07-25.51,9.44-34.95,17.91-2.59,1.89-2.99,5.71-.95,8.44h0s-.05.04,0,0l-.07.06Z"/>
        <path class="cls-54" d="M22.72,121.12l5.24-2.24-15.67-42c-1.15-3.13-5.19-4.72-8.6-3.41h0c-3.21,1.3-4.65,4.63-3.02,7.46l22.14,40.09v.09s-.09,0-.09,0Z"/>
      </g>
      <g id="arm5-2" data-name="arm5">
        <path class="cls-50" d="M70.79,117.82l-12.43,5.3s-1.92,3.09,6.74.28c0,0-2.36,6.82-6.05,10.38-.83.89-1.41,1.95-1.28,3.11.13,1.66,1.28,3.17,6.88.3,0,0,6.42-3.12,7.73-13.79l-1.66-5.65h0q.04.05,0,0l.06.08Z"/>
        <path class="cls-54" d="M95.27,82.94h0c-2.04,2.73-5.87,3.48-8.54,1.54-10.15-6.29-19.29-12.76-26.48-19.5-2.59-1.89-2.99-5.71-.95-8.44h0c5.36-6.07,25.51,9.44,34.95,17.91,2.59,1.89,2.99,5.71.95,8.44h0s.05.04,0,0l.07.06Z"/>
        <path class="cls-54" d="M71.8,122.65l-5.09-2.62,18.34-42.85c1.35-3.19,5.49-4.63,8.8-3.08h0c3.12,1.53,4.35,5.07,2.54,7.93l-24.68,40.51v.09s.09.01.09.01Z"/>
      </g>
      <path class="cls-56" d="M45.17,55.71h0c1.7,3.2,6.2,3.1,7.8,0h0c.3-.6.5-1.3.5-2.1v-12.2h-9v12.1c0,.8.2,1.5.6,2.2h.1Z"/>
      <path class="cls-50" d="M66.77,27.31c-.7,1.3-1.9,2.2-3,2.5h-1c-.3,3.5-1.4,6.6-3,9.2-3,5-7.6,8.1-11,7.9h-.8c-2.8,0-5.9-1.6-8.5-4.5h0c-.8-.8-1.5-1.8-2.1-2.8-1.6-2.5-2.8-5.6-3.3-9.1h-.3c-1.1,0-2.4-1-3.2-2.3,0-.2-.2-.5-.3-.7,0-.3-.2-.7-.3-1h0c-.3-1.3,0-2.4,1-2.9h0c.8-.4,1.9,0,2.8.6.6-8.4,4.4-16,9.7-18.8,1.4-.8,2.8-1.2,4.4-1.2,2.3,0,4.4.7,6.4,2,4.5,3,7.8,10.4,8.5,17.9.4-.5.9-.9,1.4-1.1.7-.3,1.4-.4,2,0,1.3.6,1.5,2.6.5,4.5h0v-.2h.1Z"/>
      <g>
        <path class="cls-57" d="M58.27,24.01c-.2,0-.3,0-.4-.2-1.5-2.7-3.9-1.6-4-1.6-.2,0-.5,0-.7-.2,0-.2,0-.5.2-.7,1.2-.5,3.8-.9,5.3,2,0,.2,0,.5-.2.7h-.2Z"/>
        <path class="cls-57" d="M38.47,24.01c.2,0,.3,0,.4-.2,1.5-2.7,3.9-1.6,4-1.6.2,0,.5,0,.7-.2,0-.2,0-.5-.2-.7-1.2-.5-3.8-.9-5.3,2,0,.2,0,.5.2.7h.2,0Z"/>
        <path class="cls-57" d="M41.47,25.91c0,.9.6,1.8,1.3,1.8s1.4-.9,1.4-1.8-.6-1.8-1.3-1.8-1.4.9-1.4,1.8Z"/>
        <path class="cls-57" d="M53.37,25.91c0,.9.6,1.8,1.3,1.8s1.4-.9,1.4-1.8-.6-1.8-1.3-1.8-1.4.9-1.4,1.8Z"/>
        <path class="cls-52" d="M44.67,37.91c.2.2,1.3,2.7,4.3,2.6,2.9,0,4.1-2.3,4.3-2.6"/>
        <path class="cls-58" d="M50.97,32.81c0,1.2-.9,2.1-2.1,2.1s-2.1-.9-2.1-2.1.9,1.2,2.1,1.2,2.1-2.4,2.1-1.2Z"/>
        <path class="cls-55" d="M58.47,28.51c1.7,0,3.1,1.3,3,2.7s-1.6,2.5-3.4,2.4-3.1-1.3-3-2.7,1.6-2.5,3.4-2.4Z"/>
        <path class="cls-55" d="M38.97,28.51c1.7,0,3.1,1.3,3,2.7s-1.6,2.5-3.4,2.4-3.1-1.3-3-2.7,1.6-2.5,3.4-2.4Z"/>
      </g>
      <path class="cls-60" d="M65.07,22.91c0,2.6-1.4,13.5-4.7,16,1.5-6.9,2.3-17.1-.4-20.6-.9-1.2-3.7-3.4-3.5-5.1-4.1,5.3-12.4,6.6-14,6.8-2,.5-4.8.9-6.3,1.4-.5,5.1.4,15,.9,18-1.7-2.5-2.9-5.6-3.4-9.1,0,0-.4-2.7-.3-3.8-1.2.3-2.4.7-3.6.8h-.7c0-.3.2-.7.4-1h0c.2-.4.4-.7.6-1,.2-.6.4-1.2.5-1.9v-.4c.3-1.5.3-2.9.4-4.4.2-3,.5-6,1.9-8.7C35.97,4.11,42.87-.29,49.87.01c2.5.1,5,.9,7.1,2.2,4.3,2.7,7.4,7.5,8,12.4v8.2h0l.1.1Z"/>
    </g>
  </g>
</svg>