<?xml version="1.0" encoding="UTF-8"?>
<svg id="Layer_2" data-name="Layer 2" xmlns="http://www.w3.org/2000/svg" viewBox="0 0 68.14 247.34">
  <defs>
    <style>
      .cls-1, .cls-2 {
        fill: #603813;
      }

      .cls-3 {
        fill: #273758;
      }

      .cls-4 {
        fill: #e6e6e6;
      }

      .cls-5 {
        fill: #c69696;
      }

      .cls-6 {
        fill: #d9a2a0;
      }

      .cls-7, .cls-2 {
        isolation: isolate;
        opacity: .5;
      }

      .cls-7, .cls-8 {
        fill: #d9baba;
      }

      .cls-9 {
        fill: #8b2b0e;
      }

      .cls-10 {
        fill: #3f6138;
      }

      .cls-11 {
        fill: #d9b6b6;
      }

      .cls-12 {
        fill: none;
        stroke: #630;
        stroke-linecap: round;
        stroke-miterlimit: 10;
      }
    </style>
  </defs>
  <g id="Layer_1-2" data-name="Layer 1">
    <g id="girl-turned">
      <g>
        <path class="cls-11" d="M49.86,91.44h0c-.9,1.3-1.4,2.9-1.2,4.5l4.3,32,6.5-2.4-1.6-30.9c-.2-4.7-5.3-6.7-8-3.2h0Z"/>
        <path class="cls-11" d="M52.06,99.94h0c3.4.5,6.2-3.4,5.7-7.5l-4.3-26.4c-.6-4.2-3.7-6.8-7-6h0c-3.8.9-6.3,6-5,10.6l7.1,24.7c.6,2.1,1.6,4.4,3.4,4.6h.1,0Z"/>
        <path class="cls-4" d="M51.36,61.34c3,3.3,6.6,9.9,8.2,23.3l-13.5,4.9-1.2-5.2c-3.3-8.2-5.8-15.7-4.6-20.7,1.2-4.7,7.8-6,11.1-2.3Z"/>
        <path class="cls-11" d="M54.26,137.84l-1.2-10.5,6.5-2.4v.4c7.3,4.6,8,11.1,8,11.1.8,6.2-.8,6.9-2.2,6.4-1-.3-1.8-1.2-2.1-2.2-1.9-4.6-6.8-8.9-6.8-8.9-.2,9-2.1,6.2-2.1,6.2h0l-.1-.1h0Z"/>
      </g>
      <path class="cls-4" d="M21.46,100.84l-5.3-29.7c-.6-3.3-.5-8.8,3-10.1l5.3-4,2.5-2.3,9.1.3s1.6,1.8,4.7,2.7c11.6,3.6,9,2.3,10.6,16.5l.4,9.2c.3,8.2.8,16.3,1.6,24.5-10.1,3.1-20.3,2.6-30.6-1.3l-1.2-5.8h-.2.1,0Z"/>
      <g>
        <path class="cls-9" d="M57.96,38.64c.2-4.7-1.9-8.4-3.6-12.2-.7-1.7-1.4-4.8-2.6-6.1-1.5-1.8-5.4-1.1-7.4-1.3-7.4-.6-14.8-.3-22.2.3-2.3.2-3.7-.7-4.7,2.5-.7,2.1-1.1,2.9-1.1,2.9-2.4,3.9-6.3,6.2-7.9,11.2-1.2,4.1-.9,9.2,1.4,12.2,0-1.6.3-3.7.7-5.1,1.6,1.3,2.6,3.7,4.1,5.1s3.3,2.7,5.1,3.5c.2-1.4-.2-3.3.2-4.5,1.2,3.2,4.3,4.8,6.7,6.2,0-1.9-.3-4.3,1.2-3.2.4.3.9,1.6,1.4,2.1s1.1.8,1.7,1.2c1.8,1.2,2.5,1.5,4.3.2,1.2-1.1,2.8-2.5,3.8-3.9.6,1.2.2,3.2.1,4.6,2,.2,4.5-2.2,5.8-4.1.3,1.1,0,2.3.2,3.4,2.6-.2,7.4-4.8,8.7-7.7,1.2,1.1,2.1,3.7,1.7,5.6,2.2-3.4,2.4-8.7,2.6-13h-.2v.1h0Z"/>
        <path class="cls-5" d="M32.56,58.24h0c-3.2-.1-5.6-2.8-5.5-5.9l.4-11.1,9.1.3-.5,13.5c0,1.8-1.6,3.2-3.4,3.2h-.1Z"/>
        <path class="cls-8" d="M53.06,32.34c-.4,1.8-.7,3.4-1.4,5-.2.6-.4,1.1-.7,1.7-3.2,7.3-8.9,12.1-15.4,12-3.1,0-6-1.3-8.5-3.4-.6-.4-1.1-.9-1.6-1.5-4.2-4.6-6.9-11.7-6.6-19.8.4-13.4,8.3-24,17.9-23.8,1.4,0,2.8.3,4.1.8,7.5,2.8,13.1,12.4,12.8,23.8"/>
        <g>
          <path class="cls-1" d="M30.56,26.94c.2,0,.4,0,.5-.3,1.7-3.2,4.6-1.9,4.7-1.8.3,0,.6,0,.8-.3,0-.3,0-.6-.3-.8-1.4-.6-4.5-1-6.2,2.3,0,.3,0,.6.2.8h.3v.1Z"/>
          <path class="cls-1" d="M47.96,24.34s.3.2.5,0c2.8-1.1,4,1.3,4,1.4,0,.2.4.3.6.2.2,0,.3-.4.2-.6-.5-1.2-2.3-3.1-5.2-1.9-.2,0-.4.4-.3.6v.2h.2v.1h0Z"/>
          <path class="cls-1" d="M34.06,29.24c0,1.1.7,2.1,1.5,2.1s1.6-1,1.6-2.1-.7-2.1-1.5-2.1-1.6,1-1.6,2.1Z"/>
          <path class="cls-1" d="M47.96,29.24c0,1.1.7,2.1,1.5,2.1s1.6-1,1.6-2.1-.7-2.1-1.5-2.1-1.6,1-1.6,2.1Z"/>
          <path class="cls-12" d="M36.16,41.34c0,.2.8,3.2,3.8,3.7,2.9.4,4.5-1,4.7-1.3"/>
          <path class="cls-2" d="M44.76,34.74c1,1,1,2.5,0,3.5s-2.5,1-3.5,0,1.8.2,2.8-.7c1-1-.2-3.7.8-2.8h-.1,0Z"/>
          <path class="cls-6" d="M52.86,32.34c-.4,1.8-.7,3.4-1.4,5-.2.6-.4,1.1-.7,1.7-1-.7-1.5-2-1.4-3.2,0-1.8,1.6-3.2,3.4-3.4h.1v-.1Z"/>
          <path class="cls-6" d="M31.26,32.14c2,0,3.6,1.5,3.5,3.2s-1.9,2.9-3.9,2.8-3.6-1.5-3.5-3.2,1.9-2.9,3.9-2.8Z"/>
        </g>
        <path class="cls-7" d="M27.36,47.54h-.2c-.6-.4-1.1-.9-1.6-1.5-4.2-4.6-6.9-11.7-6.6-19.7.4-13.4,8.3-24,17.9-23.8,1.4,0,2.8.3,4.1.8-7.6,5.6-21.1,20.7-13.6,44.3h0v-.1h0Z"/>
        <g>
          <path class="cls-8" d="M23.06,26.44c1,3,.3,5.9-1.6,6.5s-4.2-1.3-5.2-4.4-.3-5.9,1.6-6.5c1.8-.6,4.2,1.3,5.2,4.4Z"/>
          <path class="cls-7" d="M23.06,26.44c1,3,.3,5.9-1.6,6.5s-4.2-1.3-5.2-4.4-.3-5.9,1.6-6.5c1.8-.6,4.2,1.3,5.2,4.4Z"/>
        </g>
        <path class="cls-9" d="M52.76,24.44c.8,4.4,2.3,3.7-.2,12.7s-1,4.9-1.6,7.2c-.5,2.1-2.3,4-2.1,6.2,1.4-.8,4.2-3,5.2-4.3,2-2.8,1.4-9.2,1.2-12.6h.1c-.2-3.3-.4-8.8-.6-11.3v-2.6c0-6.5-1.6-13.7-5.8-17.4-3-2.7-5.8-.8-9.1-1.5C29.76-1.26,21.26.24,17.26,8.94c-9.7,21.3,1.5,33,3.2,36,.9,1.4,9.5,7.4,10.9,8.3-7.1-8.2-6.2-21.9-4.9-30,.6-4,2.9-7.6,6.2-10h0s2.7,3,4.3,4.2c2,1.4,4.6,2.6,6.8,2.8-.3-.6-.9-1.2-1.2-1.8-.2-.3-.4-.8-.6-1.1,1.1,1.5,3,2.8,4.4,4,1.4,1.1,2.9,1.7,4.5,2.4.1-.6-1.2-3.3-1.6-4.2.5.8,1.8,1.3,2.2,2.2"/>
      </g>
      <g>
        <path class="cls-11" d="M35.66,198.24c-1.2,18.7-3.7,38.1-4.3,38.1l-5.8-.4-2-38.5-1.5-28.9v-1.2c0-.4,0-.8.2-1.2.7-3.1,3.6-5.3,6.9-5.1,3.3.2,6,2.9,6.2,6.1,0,.9.2,1.7.3,2.6,1,6.2.7,17.2,0,28.5h0Z"/>
        <path class="cls-3" d="M24.46,243.34c0,.6.4,1.6.9,2.4.5,1,1.5,1.6,2.6,1.6h21.6c4.9-2.6-18.2-10.9-18.2-10.9h-5.7s-1.3,5.8-1.1,7h-.1v-.1Z"/>
        <path class="cls-11" d="M28.86,173.94h0c3.8-.4,6.6-3.6,6.5-7.5l-.8-35.3c-.7-5.1-5.3-8.6-10.4-7.9h0c-5.1.7-8.6,5.3-7.9,10.4l5.3,33.8c.5,3.9,3.4,6.9,7.3,6.5h0Z"/>
      </g>
      <g>
        <path class="cls-11" d="M53.46,198.24c-1.2,18.7-3.7,38.1-4.3,38.1l-5.8-.4-2-38.5-1.5-28.9v-1.2c0-.4,0-.8.2-1.2.7-3.1,3.6-5.3,6.9-5.1s6,2.9,6.2,6.1c0,.9.2,1.7.3,2.6,1,6.2.7,17.2,0,28.5h0Z"/>
        <path class="cls-3" d="M42.36,243.34c0,.6.4,1.6.9,2.4.5,1,1.5,1.6,2.6,1.6h21.6c4.9-2.6-18.2-10.9-18.2-10.9h-5.7s-1.3,5.8-1.1,7h0l-.1-.1h0Z"/>
        <path class="cls-11" d="M46.76,173.94h0c3.8-.4,6.6-3.6,6.5-7.5l-.8-35.3c-.7-5.1-5.3-8.6-10.4-7.9h0c-5.1.7-8.6,5.3-7.9,10.4l5.3,33.8c.5,3.9,3.4,6.9,7.3,6.5h0Z"/>
      </g>
      <g>
        <path class="cls-10" d="M54.66,140.74l-16,6.7-19-7.3h0s-1.5-5.3-.9-12c.3-2.6.9-5.2,1.6-7.6,1.4-4.2,1.9-8.5,1.9-12.9.3-.8.5-1.1.5-1.1,10.3,3.9,20.5,4.4,30.6,1.3,0,.5,0,.9.2,1.4.2,2.3.5,4.7.9,7,0,.6.2,1.1.2,1.6.2,1,.3,2,.4,3,.6,4.3.7,9.5-.2,19.8h-.2v.1Z"/>
        <path class="cls-10" d="M22.76,106.94s-12.6,29.6-13.1,57.7c0,1.5.8,2.7,2,3.2,7.8,2.4,36.5,10.2,50.7,0,.9-.7,1.5-1.8,1.3-3.1-.8-8.2-4.2-40.9-9.9-56.7-10.3,3.9-20.6,3.4-31.1-1.1h.1Z"/>
      </g>
      <g>
        <path class="cls-11" d="M15.76,94.14h0c1,1.1,1.5,2.9,1.3,4.4l-2.9,32.1-6.6-2.1.3-30.9c0-4.7,4.9-6.9,7.8-3.5h.1,0Z"/>
        <path class="cls-11" d="M13.96,102.74h0c-3.3.7-6.4-3-5.9-7.3l3-26.5c.3-4.2,3.3-7,6.7-6.4h0c3.9.7,6.5,5.7,5.4,10.4l-6.1,25c-.5,2.2-1.5,4.5-3.3,4.8h.2Z"/>
        <path class="cls-4" d="M12.86,64.04c-2.8,3.4-6.1,10.2-7.2,23.7l13.8,4.4,1-5.3c3-8.3,5.1-15.9,3.6-20.8-1.3-4.6-8-5.7-11.1-1.9h-.1v-.1h0Z"/>
        <path class="cls-11" d="M13.46,140.74l.8-10.6-6.6-2.1v.4C.46,133.34.06,139.84.06,139.84c-.4,6.3,1.2,6.8,2.5,6.3.9-.4,1.6-1.2,2.1-2.3,1.8-4.6,6.4-9.3,6.4-9.3.6,9,2.4,6.2,2.4,6.2h0Z"/>
      </g>
    </g>
  </g>
</svg>