<?xml version="1.0" encoding="UTF-8"?>
<svg id="Layer_2" xmlns="http://www.w3.org/2000/svg" version="1.1" viewBox="0 0 25.6 29.2">
  <!-- Generator: Adobe Illustrator 29.3.1, SVG Export Plug-In . SVG Version: 2.1.0 Build 151)  -->
  <defs>
    <style>
      .st0, .st1 {
        fill: #742128;
      }

      .st1 {
        fill-rule: evenodd;
      }
    </style>
  </defs>
  <g id="Layer_1-2">
    <g>
      <path class="st0" d="M12.3.9l12.8,7.3.5-.9L12.8,0l-.5.9Z"/>
      <path class="st1" d="M24.6,7.3h.9v14.6h-.9V7.3Z"/>
      <path class="st0" d="M12.8,0L0,7.3l.5.9L13.2.9l-.5-.9Z"/>
      <path class="st1" d="M.7,6.9l24.6,14.4-.5.8L.3,7.8l.5-.8Z"/>
      <path class="st0" d="M.9,22.1l-.5-.8L24.9,6.9l.5.8L.9,22.1Z"/>
      <path class="st1" d="M12.3.3h.9v28.5h-.9V.3Z"/>
      <path class="st0" d="M12.8,29.2L0,22l.5-.9,12.8,7.2-.5.9h0Z"/>
      <path class="st0" d="M12.8,29.2l-.5-.9,12.8-7.3.5.9-12.8,7.3h0Z"/>
      <path class="st1" d="M0,7.3h.9v14.6H0V7.3Z"/>
    </g>
  </g>
</svg>