<?xml version="1.0" encoding="UTF-8"?>
<svg id="leuphana-logo" xmlns="http://www.w3.org/2000/svg" xmlns:svg="http://www.w3.org/2000/svg" xmlns:sodipodi="http://sodipodi.sourceforge.net/DTD/sodipodi-0.dtd" xmlns:rdf="http://www.w3.org/1999/02/22-rdf-syntax-ns#" xmlns:inkscape="http://www.inkscape.org/namespaces/inkscape" xmlns:dc="http://purl.org/dc/elements/1.1/" xmlns:cc="http://creativecommons.org/ns#" version="1.1" viewBox="0 0 400 139.1">
  <!-- Generator: Adobe Illustrator 29.3.1, SVG Export Plug-In . SVG Version: 2.1.0 Build 151)  -->
  <defs>
    <style>
      .st0 {
        fill: #742128;
      }

      .st1, .st2 {
        fill: #1a171b;
      }

      .st2 {
        fill-rule: evenodd;
      }
    </style>
  </defs>
  <path id="leuphana" class="st0" d="M11.8,74.8H0v11.7s0,24.9,0,24.9h36.6v-5.9s-9.1,0-12.3,0h-12.5v-19M84.1,111.3v-5.9h-29.1s0-9.8,0-9.8h17.2v-5.9h-17.2v-9.1h29.1v-5.9h-40.9v36.5h40.9ZM173.2,85.9c0,1.6-.7,3.3-1.7,4.1-1,.8-2.7,1.2-5.4,1.2h-11.2v-10.5h11c1.1,0,2.6.1,3.4.2,1,.1,1.9.6,2.6,1.4.9.9,1.4,2.3,1.4,3.7M186.2,85.8c0-4.9-3-8.9-7.4-10.1-2-.5-4.2-.8-7.2-.8h-28.4v11.7s0,13.2,0,13.2v11.6s11.8,0,11.8,0v-14.3h14.5c5.9,0,9.4-.7,12.2-2.5,2.9-1.8,4.6-5.1,4.6-8.8M236,111.3v-36.5h-11.8v14.9h-20.3v-14.9h-11.8v36.5h11.8v-15.3h20.4v15.3h11.8ZM270.7,94.2h-13.5l6.8-12.5,6.6,12.5ZM293.8,111.3l-19.7-36.5h-12.8l-14.3,25.7c-.5.9-6,10.8-6,10.8h6.9l6.6-11.7h19.1l6.2,11.7M341.8,74.8h-6.1v11.7s0,13.1,0,13.1l-22.5-24.8h-13.4v36.5h6.1s0-8,0-8.9c0-.6,0-1.5,0-2.7v-13.6l23.1,25.3h12.9v-36.5ZM376.9,94.3h-13.5l6.8-12.5,6.7,12.5ZM400,111.4l-19.7-36.5h-12.8l-14.3,25.7c-.5.9-6,10.8-6,10.8h6.9l6.6-11.7h19.1l6.2,11.7M129.7,74.8h-5.2v11.7s0,10.2,0,10.2c0,1.5-.2,2.8-.5,3.9-.4,1.6-1.2,3-2.2,3.8-1.6,1.4-3.7,2.1-6.1,2.1-3.6-.1-6.5-1.2-8.5-3.1-.9-1-1.5-2.2-1.8-3.5-.3-1.5-.4-3-.4-5.6v-19.5h-12.5s0,7.8,0,11.7v10.9c0,4.7.9,7.4,3.4,10.1,2.5,2.6,5.7,4.1,10.7,4.7.2,0,.4,0,.6,0,1.8.3,3.7.4,5.6.4s.3,0,.5,0c.2,0,.3,0,.5,0,8.3,0,13.8-1.8,17-5.7,2.3-2.8,2.9-5.2,2.9-11.2v-9.3c0-3.9,0-11.7,0-11.7h-4Z"/>
  <g id="cube">
    <path id="path6" class="st1" d="M199.8,1.7l24.2,13.8.9-1.6L200.7,0l-.9,1.6Z"/>
    <path id="path8" class="st2" d="M223.1,13.9h1.8v27.6h-1.8V13.9Z"/>
    <path id="path10" class="st1" d="M200.6,0l-24.2,13.9.9,1.6,24.2-13.9-.9-1.6Z"/>
    <path id="path12" class="st2" d="M177.8,13.2l46.7,27.4-.9,1.5-46.7-27.4.9-1.5Z"/>
    <path id="path14" class="st1" d="M178,41.9l-.9-1.5,46.4-27.2.9,1.5-46.4,27.2Z"/>
    <path id="path16" class="st2" d="M199.8.6h1.8v53.9h-1.8V.6Z"/>
    <path id="path18" class="st1" d="M200.7,55.3l-24.2-13.7.9-1.6,24.2,13.7-.9,1.6Z"/>
    <path id="path20" class="st1" d="M200.7,55.4l-.9-1.6,24.2-13.8.9,1.6-24.2,13.8Z"/>
    <path id="path22" class="st2" d="M176.5,13.9h1.8v27.6h-1.8V13.9Z"/>
  </g>
  <path id="universitaet-lueneburg" class="st1" d="M65.8,132.9c0,5.1-4,6.2-7.3,6.2s-7.3-1.1-7.3-6.2v-8.3h1.7v8.3c0,3.3,2.1,4.8,5.6,4.8s5.6-1.5,5.6-4.8v-8.3h1.7v8.3ZM69.6,124.5h2.4l10.6,11.7v-11.7h1.7v14.2h-1.7l-11.4-12.7v12.7h-1.6v-14.2h0ZM88,124.5h1.7v14.2h-1.7v-14.2ZM93.4,124.5l6.3,12.3,6.3-12.3h1.9l-7.3,14.2h-1.7l-7.3-14.2h1.9ZM109.6,124.5h12.6v1.5h-10.9v4.5h9.1v1.5h-9.1v5.1h11.2v1.5h-12.9v-14.2h0ZM124.8,124.5h8.2c2.3,0,5.6.5,5.6,4s-2.7,3.8-4.5,3.9l4.7,6.3h-2.1l-4.6-6.3h-5.6v6.3h-1.7v-14.2ZM126.5,130.9h6.1c2.5,0,4.3-.4,4.3-2.4s-1.9-2.4-4.3-2.4h-6.1v4.9ZM142.3,134.7c.8,1.1,2.2,2.9,6.4,2.9s5.2-.6,5.2-2.8c0-4.3-12.4-.5-12.4-6.3s2.8-4.2,6.7-4.2,6,1.5,7,2.9l-1.2,1c-.6-.7-1.9-2.5-5.8-2.5s-4.9.7-4.9,2.5c0,4.3,12.4.2,12.4,6.5s-2.3,4.4-7.1,4.4-6.4-1.9-7.6-3.3l1.3-1.1ZM158.4,124.5h1.7v14.2h-1.7v-14.2ZM169.2,126.1h-6.8v-1.5h15.4v1.5h-6.8v12.7h-1.7v-12.7ZM183.3,124.5h2.1l7.3,14.2h-1.9l-1.8-3.7h-9.2l-1.9,3.7h-1.9l7.3-14.2ZM188.2,133.5l-3.8-7.6-3.8,7.6h7.6ZM181.7,121.1h1.8v2h-1.8v-2ZM185.3,121.1h1.8v2h-1.8v-2ZM197.9,126.1h-6.8v-1.5h15.4v1.5h-6.8v12.7h-1.7v-12.7ZM215.7,124.5h1.7v12.7h11.2v1.5h-12.9v-14.2h0ZM245.6,132.9c0,5.1-4,6.2-7.3,6.2s-7.3-1.1-7.3-6.2v-8.3h1.7v8.3c0,3.3,2.1,4.8,5.6,4.8s5.6-1.5,5.6-4.8v-8.3h1.7v8.3h0ZM235.6,121.1h1.8v2h-1.8v-2ZM239.2,121.1h1.8v2h-1.8v-2ZM249.3,124.5h2.4l10.6,11.7v-11.7h1.7v14.2h-1.7l-11.4-12.7v12.7h-1.6v-14.2ZM267.7,124.5h12.6v1.5h-10.9v4.5h9.1v1.5h-9.1v5.1h11.2v1.5h-12.9v-14.2ZM282.9,124.5h8.2c1.6,0,5.5,0,5.5,3.7s-1.3,2.6-2.2,3c.9.4,2.6,1.1,2.6,3.5,0,3.8-4,4-6.9,4h-7.3v-14.2h0ZM284.6,130.6h6c2,0,4.3-.3,4.3-2.3s-2.3-2.3-4.8-2.3h-5.4v4.6ZM284.6,137.2h6.6c2.1,0,4.1-.3,4.1-2.5s-1.6-2.7-3.9-2.7h-6.8v5.2ZM314.9,132.9c0,5.1-4,6.2-7.3,6.2s-7.3-1.1-7.3-6.2v-8.3h1.7v8.3c0,3.3,2.1,4.8,5.6,4.8s5.6-1.5,5.6-4.8v-8.3h1.7v8.3h0ZM318.7,124.5h8.2c2.3,0,5.6.5,5.6,4s-2.8,3.8-4.5,3.9l4.7,6.3h-2.1l-4.6-6.3h-5.6v6.3h-1.7v-14.2h0ZM320.4,130.9h6.1c2.5,0,4.3-.4,4.3-2.4s-1.9-2.4-4.3-2.4h-6.1v4.9ZM350.4,131.8v7h-1.5v-2.1c-1,1.1-2.5,2.3-5.7,2.3-5.5,0-8.1-3.3-8.1-7.4s3.3-7.5,8.1-7.5,6,1.5,7,3.9l-1.4.8c-1.1-2.5-3.7-3.2-5.6-3.2-4,0-6.3,2.2-6.3,6.2s2.2,5.7,6.4,5.7,5.3-1.2,5.6-4.2h-5.8v-1.5h7.3Z"/>
</svg>