<?xml version="1.0" encoding="UTF-8"?>
<svg id="Layer_2" xmlns="http://www.w3.org/2000/svg" version="1.1" viewBox="0 0 425.2 425.2">
  <!-- Generator: Adobe Illustrator 29.3.1, SVG Export Plug-In . SVG Version: 2.1.0 Build 151)  -->
  <defs>
    <style>
      .st0 {
        fill: #cee1e8;
      }

      .st1 {
        fill: #93445c;
      }

      .st2 {
        fill: #47484b;
      }

      .st3 {
        fill: #414347;
      }

      .st4 {
        fill: #e9a257;
      }

      .st5 {
        fill: #781633;
      }

      .st6 {
        fill: #e4e1e1;
      }
    </style>
  </defs>
  <g id="Layer_1-2">
    <g id="simplified">
      <circle class="st0" cx="212.6" cy="212.6" r="212.6"/>
      <g id="vogel">
        <path class="st1" d="M168.1,168.3c2.6,0,3.6-2.4,5.4-3.6,19.9-14.1,45.8-15.7,66.8-1.9,9.7,6.4,14.1,16.1,14.9,27.7,1.5,24.1-8.5,43.8-23.3,61.6-22.6,27.2-49.3,49.8-78.3,69.9-2,1.4-3.7,3-5.6,4.5-2.2-1-3.4.8-4.9,1.7-14.5,9-29,17.8-44.6,25.1-1.4-2.7.3-4.6.9-6.5,17.5-50.5,35-101,52.5-151.5,3.5-10.1,9.3-18.9,16.2-26.9h0Z"/>
        <path class="st5" d="M170.1,339.9c-8,4-16,7.9-24.8,12.2.9-9,1.7-17.4,2.6-25.7,1.9-1.5,3.6-3.1,5.6-4.5,29-20.1,55.7-42.7,78.3-69.9,14.8-17.8,24.8-37.5,23.3-61.6-.7-11.6-5.2-21.3-14.9-27.7-20.9-13.7-46.8-12.2-66.8,1.9-1.8,1.2-2.8,3.6-5.4,3.6,1.1-19,1.9-38.2,5.2-57,7.3-42.2,58-62.5,93-37.7,1.3.9,2.4,2.4,4.3,2.4,0,1.4.9,2.3,1.9,3.1,2.7,2.8,5.3,5.7,8,8.6.5.8.9,1.6,1.4,2.4,3,6,5.9,11.9,8.9,17.9,0,1.2-.3,2.4.8,3.3,1.8,17.9,7.2,35.1,8.5,53.1,2.2,30.6-7,58-23.4,83.4-12.6,19.5-27.6,37.1-44.9,52.7-1.1,1-1.9,2.2-2.9,3.3-2.1,1.1-4.3,2.2-5.4,4.6-1.7-.5-2.8.9-3.9,1.7-8.7,6.4-17.9,11.8-27.1,17.3-5.5,3.3-11.7,5.5-16.6,9.8-2.2.2-4.1.8-5.5,2.6h0ZM249.2,109.9c9,.1,13.4-4.4,13.5-13.7.1-9.1-6.3-16-15.1-16.1-9.5-.1-14.9,5.8-14.9,16.6,0,9,5.1,13.1,16.5,13.3Z"/>
        <path class="st2" d="M291.4,111.4c-1-.9-.7-2.2-.8-3.3,6.3-5.6,13.4-10.7,17-20.2-9.1,3.4-17.3,6.9-25.9,2.3-.5-.8-.9-1.6-1.4-2.4.7-4,3.8-6.6,5.7-9.9,3.7-6.4,7.6-12.7,11.5-19-10.6,4.5-18.5,11.8-25.1,20.3-1-.8-1.9-1.7-1.9-3.1,7.2-11,18.3-19.3,29.9-25.2,2.1-1.1,5.1-2,5,1.4,0,2.6-3.9,7.5-5.1,9.7-3.7,6.6-7.5,13.2-11.8,19.5-1.3,1.9-4.2,4.5-1.6,6.4,2,1.4,6.1.4,8.3,0,3.4-.7,15.6-7.9,17.6-4,1.9,3.6-4.7,12.5-6.7,15.2-3.9,5.2-9,9.4-14.7,12.5h0Z"/>
        <path class="st3" d="M172.5,393.9c-4.9-5.7-7.3-10.9-15.5-8.2-2.1.7-6.1,2-6.2-1.7,0-3,4.3-3.5,6.4-4.4,6.8-.3,9.2-4.1,9.6-10.6.6-9.7,2.2-19.4,3.3-29.1,1.4-1.8,3.4-2.4,5.5-2.6-.2,2.4-.2,4.8-.5,7.2-1.1,9.4-2.4,18.7-3.5,28-.2,1.9-1.1,4.4,2.1,4.7,12.7,1.4,25.4,2.5,38.2,1.5,3.8-.3,6-2.3,6.3-6.8,1.5-21.2,3.3-42.4,5.1-63.5,1.1-2.4,3.3-3.4,5.4-4.6-1.5,19.7-2.8,39.5-4.6,59.2-1.3,14.2-1.5,14.2,12.9,14.6,7.2.2,14.5.1,21.7.1,2.2,0,4.5-.1,6.3,1.5.4,6.2-11.9,5.2-15.8,6.9,2.9,1.7,5.9,3.1,3.3,6.5h-3.9c-3.8-2.5-8.4-2.7-12.6-4-4.8-1.4-4.8.9-3.8,4.4-2.1,2.4-4,1.5-5.9-.2-1.6-2.5-3.2-5.6-6.1-6-7.3-1.2-14.8-1.6-22.8-2.4,2.2,4.2,7.5,4.3,7.5,8.9-2.5,2.4-5.3.8-7.9.5-6.3-4.2-13.6-5.6-21.9-8.7,1.8,4,3,6.5,4.1,8.9-2.3,4.6-4.5,1.9-6.7,0h0Z"/>
        <path class="st6" d="M249.2,109.9c-11.4-.2-16.5-4.3-16.5-13.3,0-10.7,5.4-16.7,14.9-16.6,8.8.1,15.2,7,15.1,16.1-.1,9.3-4.5,13.8-13.5,13.7ZM238.2,94.7c0,6,4.8,12.8,11.2,13.2,5.9.4,11.2-5.9,11.4-11.5.6-14.1-22.7-16.6-22.6-1.7h0Z"/>
        <path class="st4" d="M272.4,79.2c6.7-8.6,14.5-15.8,25.1-20.3-3.8,6.3-7.7,12.6-11.5,19-1.9,3.3-5,5.9-5.7,9.9-2.7-2.8-5.3-5.7-8-8.6h0Z"/>
        <path class="st4" d="M281.8,90.2c8.6,4.7,16.8,1.1,25.9-2.3-3.6,9.5-10.7,14.6-17,20.2-3-6-5.9-11.9-8.9-17.9Z"/>
        <path class="st3" d="M238.2,94.7c-.1-14.9,23.3-12.4,22.6,1.7-.3,5.6-5.5,11.8-11.4,11.5-6.4-.4-11.2-7.2-11.2-13.2h0ZM248,95.3c1.5.4,4.6,1.3,5.9,1.3,1.2,0,1.9.1,1.6-1.7-.8-4.1-6.2-1.9-7.5.3h0Z"/>
        <path class="st6" d="M248,95.3c1.3-2.3,6.7-4.4,7.5-.3.4,1.8-.3,1.7-1.6,1.7-1.3,0-4.4-1-5.9-1.3h0Z"/>
      </g>
    </g>
  </g>
</svg>