<?xml version="1.0" encoding="UTF-8"?>
<svg id="Layer_2" xmlns="http://www.w3.org/2000/svg" version="1.1" viewBox="0 0 666.67 666.67">
  <!-- Generator: Adobe Illustrator 29.7.0, SVG Export Plug-In . SVG Version: 2.1.1 Build 138)  -->
  <path d="M666.67,333.33c0,184.09-149.24,333.33-333.33,333.33S0,517.43,0,333.33,149.24,0,333.33,0s333.33,149.24,333.33,333.33h.01Z" fill="#383838" isolation="isolate" opacity=".5"/>
  <g>
    <path d="M171.47,179.33c-3.14,8.37-3.14,18.97-3.14,40.19v227.64c0,21.21,0,31.82,3.14,40.19,4.19,11.15,12.22,20.02,22.32,24.64,7.58,3.46,17.19,3.46,36.41,3.46s28.83,0,36.41-3.46c10.11-4.62,18.14-13.49,22.32-24.64,3.14-8.37,3.14-18.98,3.14-40.19v-227.64c0-21.21,0-31.82-3.14-40.19-4.19-11.16-12.22-20.02-22.32-24.64-7.58-3.47-17.19-3.47-36.41-3.47s-28.83,0-36.41,3.47c-10.11,4.62-18.14,13.48-22.32,24.64h0Z" fill="#383838"/>
    <path d="M377.72,179.33c-3.14,8.37-3.14,18.97-3.14,40.19v227.64c0,21.21,0,31.82,3.14,40.19,4.19,11.15,12.22,20.02,22.32,24.64,7.58,3.46,17.19,3.46,36.41,3.46s28.83,0,36.41-3.46c10.11-4.62,18.14-13.49,22.32-24.64,3.14-8.37,3.14-18.98,3.14-40.19v-227.64c0-21.21,0-31.82-3.14-40.19-4.19-11.16-12.22-20.02-22.32-24.64-7.58-3.47-17.19-3.47-36.41-3.47s-28.83,0-36.41,3.47c-10.11,4.62-18.14,13.48-22.32,24.64h0Z" fill="#383838"/>
  </g>
</svg>