<?xml version="1.0" encoding="UTF-8"?>
<svg id="Ebene_2" data-name="Ebene 2" xmlns="http://www.w3.org/2000/svg" viewBox="0 0 80.65 247.57">
  <defs>
    <style>
      .cls-1 {
        fill: #e94850;
      }

      .cls-2 {
        fill: #593f34;
      }

      .cls-3 {
        fill: #020202;
      }

      .cls-4 {
        fill: #e29c73;
      }

      .cls-5 {
        fill: #5c5b5c;
      }

      .cls-6 {
        fill: #dfc944;
      }

      .cls-7 {
        fill: #824a2b;
      }

      .cls-8 {
        fill: none;
        stroke: #000;
        stroke-linecap: round;
        stroke-miterlimit: 10;
      }

      .cls-9 {
        fill: #fdbd54;
      }

      .cls-10 {
        fill: #0e466d;
      }

      .cls-11 {
        fill: #5b3216;
      }

      .cls-12 {
        fill: #3d2318;
        isolation: isolate;
      }
    </style>
  </defs>
  <g id="Ebene_1-2" data-name="Ebene 1">
    <g id="swahili-girl-ball-squeezed">
      <g>
        <path class="cls-7" d="M39.03,168.96v1.16l-3.38,28.48-4.44,37.85h-5.7c-.58,0-1.83-19.41-1.83-37.85s.58-24.04,2.22-29.64c0-3.67,2.99-6.66,6.66-6.66s5.89,2.41,6.57,5.41v1.16h.1-.19v.1Z"/>
        <path d="M32.47,242.63c0,1.16-.68,2.03-1.54,2.7s-22.4,2.41-22.98,2.22c-4.92-2.41,17.38-11.1,17.38-11.1l5.99.19s1.26,4.83,1.06,6.08h.1v-.1Z"/>
        <path class="cls-7" d="M33.43,175.81h0c-3.77.39-7.15-2.22-7.92-5.79l-6.66-34.28c-.39-5.02,3.38-9.37,8.4-9.85h0c5.02-.39,9.37,3.38,9.85,8.4l1.93,33.8c.29,3.96-1.74,7.44-5.6,7.82h-.1l.1-.1Z"/>
      </g>
      <g>
        <path class="cls-7" d="M54.29,198.6c0,18.44-1.26,37.85-1.83,37.85h-5.7l-4.44-37.85-3.28-28.48v-2.41c.58-3.09,3.28-5.41,6.57-5.41s6.66,2.99,6.66,6.66c1.64,5.6,2.22,17.48,2.22,29.64h-.19,0Z"/>
        <path d="M45.31,242.63c0,1.16.68,2.03,1.54,2.7s22.4,2.41,22.98,2.22c4.92-2.41-17.38-11.1-17.38-11.1l-5.99.19s-1.26,4.83-1.06,6.08h-.1v-.1Z"/>
        <path class="cls-7" d="M44.54,175.81h0c3.77.39,7.15-2.22,7.92-5.79l6.66-34.28c.39-5.02-3.38-9.37-8.4-9.85h0c-5.02-.39-9.37,3.38-9.85,8.4l-1.93,33.8c-.29,3.96,1.74,7.44,5.6,7.82h.1l-.1-.1Z"/>
      </g>
      <path class="cls-4" d="M55.35,98.95c-1.45,5.6-1.16,11.59.68,17.09.68,2.03,1.35,4.63,1.74,7.72.48,2.99,1.16,7.63,1.16,11.39l-18.64,7.44h-2.8l-18.64-7.15c0-5.12.68-12.65,2.03-17.38.39-1.35.87-2.8,1.35-3.96,2.51-5.31,3.48-11.3,2.51-17.09l-3.86-22.31-1.16-6.66,1.16-.68,15.55-9.75h8.98l14,9.66,1.06.68-1.06,6.47-4.06,24.72h-.1v-.19h.1Z"/>
      <path class="cls-6" d="M55.35,98.95c-1.45,5.6-1.16,11.59.68,17.09.68,2.03,1.35,4.63,1.74,7.72H20.88v-5.7c.39-1.35.87-2.8,1.35-3.96,2.51-5.31,3.48-11.3,2.51-17.09l-3.86-22.31-1.06-6.66,12.55-7.92,4.06-2.61h8.98l3.48,2.41,11.68,8.01-1.06,6.47-4.06,24.72h-.1v-.19h0Z"/>
      <path class="cls-5" d="M24.16,110.35s-11.49,29.64-11.01,57.45c0,1.45.87,2.7,2.03,3.09,7.82,2.03,36.4,8.79,50.11-1.64.87-.68,1.26-1.83,1.16-3.09-1.06-8.11-5.5-40.27-11.78-55.62-10.04,4.25-20.28,4.06-30.71,0h.1v-.19h.1Z"/>
      <g id="_Gruppe_" data-name="&amp;lt;Gruppe&amp;gt;">
        <path class="cls-11" d="M40.95,61.04h0c-2.41,0-4.41-1.9-4.41-4.41v-6.51h8.82v6.51c0,2.41-1.9,4.41-4.41,4.41h0Z"/>
        <path class="cls-7" d="M62.3,32.27c-.9,1.5-2.21,2.41-3.61,2.71h-1.2c-.4,3.81-1.7,7.32-3.71,10.12-3.71,5.51-9.22,8.82-13.33,8.62h-1c-4.41,0-9.42-3.01-12.93-8.12-1.9-2.81-3.41-6.21-4.01-10.02h-.3c-1.4,0-2.81-1.1-3.81-2.51-.2-.3-.3-.5-.4-.8-.2-.4-.3-.7-.4-1.1h0c-.3-1.5,0-2.61,1.2-3.11h0c1-.4,2.21,0,3.41.7.9-11.63,8.12-21.85,17.04-21.95,2.71,0,5.31.8,7.72,2.21,2.21,1.4,4.21,3.51,5.81,6.11h0c2.31,3.81,4.01,8.62,4.51,13.53h0c.5-.5,1.1-.9,1.6-1.1.8-.4,1.6-.4,2.31,0,1.6.7,1.8,2.81.6,5.01l.4-.3h.1,0Z"/>
        <path d="M29.33,27.56c.2,0,.4,0,.5-.3,1.6-3.11,4.51-1.8,4.61-1.7.3,0,.6,0,.8-.3,0-.3,0-.6-.3-.8-1.4-.6-4.41-1-6.01,2.21,0,.3,0,.6.2.8h.3l-.1.1Z"/>
        <path d="M46.27,25.06s.3.2.5,0c2.71-1.1,3.91,1.3,3.91,1.4,0,.2.4.3.6.2.2,0,.3-.4.2-.6-.5-1.2-2.21-3.01-5.11-1.8-.2,0-.4.4-.3.6v.2h.2,0Z"/>
        <path d="M32.73,29.87c0,1.1.7,2,1.5,2s1.6-1,1.6-2-.7-2-1.5-2-1.6,1-1.6,2h0Z"/>
        <path d="M46.27,29.87c0,1.1.7,2,1.5,2s1.6-1,1.6-2-.7-2-1.5-2-1.6,1-1.6,2Z"/>
        <path class="cls-8" d="M36.34,43.5c.2.2,1.5,3.01,4.91,2.91,3.31,0,4.71-2.61,4.91-2.91"/>
        <path class="cls-12" d="M43.66,37.59c0,1.4-1.1,2.41-2.41,2.41s-2.41-1.1-2.41-2.41,1.1,1.4,2.41,1.4,2.41-2.71,2.41-1.4Z"/>
        <path class="cls-2" d="M56.99,29.07h1.7c0-1.6.2-3.51.2-5.01,0-3.61-.5-4.31-1.4-7.42-.1-.4-.5-1.5-.6-1.9-.4-1.4-.3-.9-.8-2-.3-.7-1.7-2.91-2.21-3.41l-2.1-1.8c-.6-.4-3.31-1.6-4.01-1.9-3.11-1.4-6.72-1.6-9.82-1.6s-1.1,0-1.7,0h-.1c-10.12,1.1-16.24,10.72-16.04,24.05h0c.9.9,2.61,1.4,3.61.4,1.1-4.21,2.31-8.12,3.71-10.52.4-.7,1.3-1.7,2.71-2,10.92-2.51,8.62-2,15.94-.3,1,.2,5.11,1.7,5.71,2.71,1.9,3.21,3.71,6.51,4.91,10.52h0l.3.2h0Z"/>
        <g>
          <path class="cls-3" d="M39.55,13.73c-.4-.4-.4-1.3,0-1.6h0c0-.2-.1-.5-.1-.7v-1.1h0c-.1-.2-.2-.4-.2-.6v-.5c0-.2,0-.4.1-.6,0-.2.2-.3.4-.4h0c-.1,0-.2-.3-.3-.5v-.8c-.2-.3-.3-.8,0-1.2v-.2h.1c-.1-.2-.3-.6,0-.8-.3,0-.5,0-.6-.4v-.5h-.4c0-.2-.3-.3-.4-.3s-.4,0-.5.4c-.2.3-.5.3-.8,0-.2-.2-.4-.3-.6-.3s-.3,0-.3.3-.5.3-.7,0c-.2,0-.4-.2-.5-.2,0,0-.2,0-.2.2-.2.3-.6.2-.8,0-.2-.3-.5-.5-.7-.5-.3,0-.5.3-.6.8,0,.3-.4.5-.7.3-.2,0-.5-.2-.7,0-.3,0-.5.5-.6,1v.2c.2,0,.3,0,.4.3v.8c0,.2,0,.5-.2.7h.2v.2c.2,0,.3.2.3.4s0,.3-.2.4h0c.4,0,.5.6.4,1,.4,0,.4.7.2,1v.2h.6c.1,0,.2.2.2.3,0,.4-.2,1-.6,1.1h.3c.3,0,.6,0,.7.2.1.3,0,.6-.3.8.2,0,.3.4.3.7h.5c.1,0,.3.2.4.3.1,0,.2.2.3.3h.7c.4.3.3.6.5.8.3,0,.6-.5,1.1-.6.6,0,.7.5,1.6.9h1.3c-.4-.3-.4-.9-.2-1.3,0,0,.2-.2.3,0h0v-.4h.3v-.1Z"/>
          <path class="cls-3" d="M50.58,6.92s0-.2.1-.3c-.2,0-.4,0-.4-.3s-.2-.4-.4-.4h0c-.2,0-.4-.2-.4-.4,0-.5-.3-.9-.6-1h-.7c-.3,0-.6,0-.7-.3,0-.4-.3-.7-.6-.8-.2,0-.3,0-.5.2-.3.3-.8.4-1.1.2h-.3c-.4.2-.8,0-1-.2h-.6c-.4.2-.8.2-1.1,0,0,0-.2-.2-.4-.2h-.3c-.3.2-.8.2-1.1,0h-.2v.2s.1,0,.2.2h0c.1,0,.1.3,0,.4,0,0,0,.2-.1.2h-.3c.1,0,.3,0,.4.2.1,0,.1.2,0,.4.3,0,.5.5.3.9,0,.2-.3.2-.4,0h0c.1.2.2.3.1.5,0,0,0,.2-.1.2,0,.3,0,.6-.3.6.2,0,.3.4,0,.5h0c.3,0,.5.4.5.6s.1.3.1.4c0,.2-.2.3-.3.3.1,0,.2.4.3.5,0,.4-.1.8-.6.7h-.2v.3h.3c.3,0,.4.3.2.5-.1,0-.3.2-.4.3,0,0,0,.2.1.3h.4c.3.2.4.6.2,1h0v.3s0,.3-.1.3c0,0,0,.2.1.3h0c.2.4.4,1,.1,1.4h.6c.9,0,1-1,1.6-.9.6,0,.8.7,1.1.6.2,0,.2-.5.5-.8.3-.2.7-.3.7,0s-.3.4-.3.8.7.8,1.1.6.2-1,.8-1.2c.3-.2.8-.2.8,0s-.8.4-.8.8.3.6.6.6.3-.3.6-.4h0c-.1-.3-.1-.5,0-.7,0-.3,0-.6.3-.8h.2v-.3c-.2-.5-.1-1,0-1.4h0v-.5c0-.3.2-.9.4-1.3-.3-.7.4-1.7,1.1-1.9h.2s0-.3.1-.4c0-.2,0-.3.2-.5h.1s-.1-.2-.1-.3h0Z"/>
          <path class="cls-3" d="M32.73,15.03v-.2s-.1,0-.2-.2c-.2,0-.3-.2-.3-.2h.2v-.2c-.2-.2-.3-.5-.3-.7s-.1-.3-.2-.5c0,0-.1,0-.2-.2s-.2-.5-.2-.8c-.4-.3-.7-.8-.7-1.3s0-.3,0-.4c-.3-.2-.6-.7-.7-1v-.4c-.5-.3-.7-1-.6-1.5h0v-.7h0c-.3,0-.5-.2-.7,0-.4,0-.5.6-.6,1.1,0,.2-.2.3-.4.4-1.8.7-3.21,3.41-4.01,5.21.3,0,.7,0,.8.6v.2c.2.2.4.4.4.7h.3c.2,0,.2.2.2.4v.2h.3s0,.2.2.3c0,0,.3,0,.4.2,0,0,.2.3.2.4v.2h.2c.2,0,.3,0,.3.3h.5s.2.3.3.5c.3,0,.6.2.6.5v.2h0v.2h.2c.2,0,.2.3.2.5.2-.2.3-.5.4-.9,0-.6-.3-.9,0-1.3.2-.4.4-.4.6-.7.2-.5.4,0,.6-.4,0-.3,0-.4.2-.3.4.2-.5.4,0,.6.4.2.7-.6,1.2-.4.3,0,.3.4.5.4s.4-.2.5-.4c0,0-.1-.2-.1-.3h0v-.3.2h-.1,0Z"/>
          <path class="cls-3" d="M54.99,10.02c-.5-.5-1-1.1-1.7-1.7,0,0,0,.2-.1.3,0,0-.2.2-.3,0-.3,0-.6-.2-.8-.4v.2c0,.3-.3.5-.5.3,0,0-.1-.2-.2-.3h-.1c.2.3.3.6,0,1h-.3v.3h0c.1.3.1.5,0,.7,0,.2-.2.2-.4.2h0c0,.6-.2,1.1-.8,1.2h0v.4h0c.3.4.5,1,.4,1.5.2,0,.3.2.4.3.2.5-.5.9-.3,1.3,0,.4.5.3.7.7.2.5,0,.8,0,1.3,0,1,1.1,1.5,1.2,1.4s-.7-1.1-.4-1.4h.5s.3.6.7,1c.3.3.4.2,1,.5.2,0,1,.5.9.8,0,.2-.7,0-1,.3s-.2,1.1,0,1.2c.4.2.6-.5,1.1-.5h.1v-.6c-.1-.4,0-.9.4-1.1s.4,0,.6,0c.1-.4.4-.8.7-1.1,0,0,.2-.2.3-.2,0-.2.2-.4.3-.6l.3-.3h0c-.3-.3.1-.7.4-.5h.3v.2c-.6-2.51-1.6-5.01-3.51-7.02h0v.6h.1,0Z"/>
          <path class="cls-3" d="M56.99,29.97v.3c.2,0,.4,0,.6.2h.6v-.5c0-.4.2-1,.4-1.8,0,0-.1,0-.2.2v.2h0s0,.3-.2.4c-.2.2-.4.2-.6,0,0,0-.2,0-.2-.2h-.4c-.2,0-.3.3-.3.4,0,.3.4.3.5.6h-.2v.2h0Z"/>
          <path class="cls-3" d="M56.79,28.26c.2,0,.4-.2.6-.2h.3v-.2c0-.2.2-.2.4-.2h0c.4-2.41.6-5.81,0-9.32h-.3c.2.4.1.9-.3,1h0s-.2.2-.3.2c0,0,0,.2-.2.2h-.5c0,.2,0,.3-.2.5h0v.9c0,.4-.2,1-.7,1h-.2v.2c0,.6-.9.6-1.1,1.3v.8c.2.2.5,0,1,0s.7,0,.7.3-.4.2-.6.6c-.3.4-.3,1,0,1s.3-.3.7-.4c.6,0,1.1,1.1,1,1.2,0,0-.7-.7-1.1-.5-.3,0-.4.8,0,1.1.1.2.3.3.5.3h.3v.2h0Z"/>
          <path class="cls-3" d="M26.02,19.64c.6-.3.7-.2,1-.5l.2-.2c-.2,0-.5,0-.6-.2h-.4s-.3-.2-.4-.4h-.5c-.6,0-1-.8-1.1-1.4-.2,0-.3,0-.5-.2-.4-.2-.7-.7-.8-1.1,0-.2-.2-.5,0-.7v-.3c0,.3-.2.4-.2.4-1.6,4.11-1.7,7.82-1.5,10.42h.3c.5.3,1,.5,1.5.8.2-.2.3-.3.5-.3.3,0,.5.4.7.4s.2-.6,0-.9c-.3-.4-.6-.4-.6-.6s.4-.3.7-.3c.6,0,.9.2,1,0,.2-.2,0-.6,0-.7-.3-.7-1-.7-1.1-1.3,0-.5.4-1.2.9-1.3.6,0,.9.6,1.2.5.3,0,.5-.9,0-1.2-.3-.3-.9,0-1-.3,0-.2.8-.6.9-.7h-.2v.1Z"/>
          <path class="cls-3" d="M23.31,26.86h0v.2s-.3.2-.4,0h0s-.2.2-.4.2h0c-.2,0-.3,0-.5-.2h-.7c0,.9.3,1.5.4,2,.2.2.3.3.4.5.2,0,.3.2.5.4h.2c0-.2.5-.2.5-.5s-.7-.6-.7-.9.7,0,1-.5c.2-.4,0-1,0-1.1h-.3v-.1Z"/>
          <path class="cls-3" d="M24.22,22.05c0,.4.6.9,1,.9s.4-.3.3-.6c0-.3-.4-.7-.7-.8-.3,0-.5,0-.5.4h-.1v.1Z"/>
          <path class="cls-3" d="M24.72,25.46c0-.3-.5-.6-.7-.6s-.2.2-.2.4.3.5.5.5.4,0,.3-.3h.1Z"/>
          <path class="cls-3" d="M33.34,16.64c.2-.3,0-.9-.2-1.1-.2,0-.4,0-.4.2v.9c.2.2.4.2.5,0h.1Z"/>
          <path class="cls-3" d="M30.43,16.34s-.2-.3-.5-.3-.6.5-.8.9v.2c0,.2.2.3.4.3.3,0,.8,0,1-.4s0-.6-.2-.7h.1Z"/>
          <path class="cls-3" d="M31.83,16.84s.2-.3.2-.5c0-.4-.5-.5-.9-.6h0v.6c0,.2.2.2.4.4.2,0,.3.2.4,0h0l-.1.1Z"/>
          <path class="cls-3" d="M35.84,15.54s0,.4.2.5c.3.2.7,0,1,0h0c0-.2-.2-.4-.4-.5h-.5c-.2,0-.3,0-.4.2h0v-.2h.1Z"/>
          <path class="cls-3" d="M26.22,20.35c0,.2.3.2.6.2s.5-.6.7-1.1v-.2h-.7c-.2,0-.3.3-.4.5,0,.3-.2.4-.2.5h0v.1Z"/>
          <path class="cls-3" d="M54.89,25.46c0-.3.5-.6.7-.6s.2.2.2.4-.3.5-.5.5-.4,0-.3-.3h-.1Z"/>
          <path class="cls-3" d="M46.37,16.64c-.2-.3,0-.9.2-1.1.2,0,.4,0,.4.2v.9c-.2.2-.4.2-.5,0h-.1Z"/>
          <path class="cls-3" d="M49.97,16.14c0,.2,0,.4.1.5,0,.2,0,.3-.2.4-.1,0-.3,0-.4-.2,0-.2,0-.4-.1-.6h-.1s-.4.5-.2.8.7.4,1,.4.4,0,.4-.3v-.2c-.1-.3-.3-.7-.5-.8h0Z"/>
          <path class="cls-3" d="M44.56,16.44h.4c.2-.2,0-.7,0-1.1h0s-.3,0-.4.3v1h0v-.2Z"/>
          <path class="cls-3" d="M43.76,15.54s0,.4-.2.5c-.3.2-.7,0-1,0h0c0-.2.2-.4.4-.5h.5c.2,0,.3,0,.4.2h0v-.2h-.1Z"/>
          <path class="cls-3" d="M53.58,20.35c0,.2-.3.2-.6.2s-.5-.6-.7-1.1v-.2h.7c.2,0,.3.3.4.5,0,.3.2.4.2.5h0v.1Z"/>
          <path class="cls-3" d="M18.3,33.58v1.7h0v.4l.8-.3h0v-.2l-.7.5h.8s0-.2-.2-.3h0s0-.2,0,0v-.5h0v-.6h0c0-.3,0-.6-.3-.7-.2,0-.5,0-.6.3-.2.8,0,1.7.4,2.41,0,.2.3.3.5.2s.3-.2.3-.4c0-.4-.2-.7-.5-.9s-.8,0-.7.5c0,.3.2.5.4.7,0,0,.3.2.5,0,.2,0,.3-.2.3-.4,0-.4,0-.7-.2-1.1v-.2h0v-.2h0c0-.3,0-.6-.3-.7s-.5,0-.6.3h0v-.4h0l.1-.1Z"/>
          <path class="cls-3" d="M18.6,33.98c0,.4.2.9.3,1.3,0,.5.4,1,.9,1.3v-.8c-.3,0-.5.4-.4.8,0,.3.3.5.5.6h.5s.2-.3.2-.5c-.2-.5-.5-1-.8-1.5,0-.3-.2-.4-.3-.7v-.2h0v-.2c0-.2-.2-.4-.4-.4s-.4.2-.4.4c0,.6,0,1.2.4,1.8,0,.3.3.5.4.7,0,0,0,.2.2.4v.2h0l.7-.5h0v.2h0c.4,0,.4-.6,0-.8,0,0-.2,0,0,0h0s0-.2,0,0h0v-.2h0v-.3c0-.4,0-.8-.2-1.2,0-.2-.3-.4-.6-.3s-.4.3-.3.6h0l-.7-.6h0v-.1Z"/>
          <path class="cls-3" d="M17.9,33.48c0,.4.2.8.3,1.1,0,.2.3.4.5.3h.3v-1h0v-.3s-.2-.2-.3-.2h-.3s-.2.2-.2.3v.9h.9c0-.5-.2-.9-.3-1.3,0,0,0-.2-.2-.3h-.3s-.2,0-.3.2v.3h-.2.1Z"/>
          <path class="cls-3" d="M58.49,28.26h-.7s0,.2-.1.3c0,0-.1.3-.1.4s0,.3.1.4c0,0,.1.2.3.3h.5s.2-.2.2-.3v-.3s-.2-.2-.3-.2h.1-.4.3s.2-.2.2-.3v-.3s-.2-.2-.3-.2h.2v.2h0Z"/>
          <path class="cls-3" d="M60.2,10.12c.1.4.4.7.8.6.4,0,.5-.5.4-.9-.2-.4-.8-.2-.8.2s.3.7.6,1c.1,0,.2.2.3.3,0,0,0,.3-.1.5v.4c0,.3.2.5.3.7,0,.2,0,.5.1.7,0,.5,0,1.1.3,1.5v-.5s-.1.2-.3.2h.4c-.2,0-.3-.2-.3-.4s.2-.4.3-.6c.2-.5,0-.9-.2-1.2,0,0-.2-.3-.2-.4,0-.2.2-.4.3-.6.1-.5,0-1-.5-1.1h-.5c-.1,0-.3-.3-.4-.4-.3-.3-.6-.5-1.1-.6h-.7c-.2,0-.3-.3-.6-.3-.6,0-.8.8-.9,1.2l.3-.3c.1,0,.2,0,0,0h0s-.2-.2-.2-.3h-.6c-.3,0-.4.4-.4.6,0,0,0,.7-.2.7l.3.2h.1v-.2c.1,0,.2-.2.3-.3.1-.2.3-.4.4-.6.1,0,.3-.3.5-.3s.4.2.6.3c.5.2.8.2,1.3,0h1.1c.4.3.5.7.5,1.2s0,1,.1,1.6c.2,1.1.7,2.21,1.2,3.21.2.5,1,0,.8-.5-.5-1.3-1.1-2.61-1.2-3.91,0-.6,0-1.2-.4-1.8-.3-.4-.8-.8-1.3-.8h-.8c-.2,0-.5.2-.7.2s-.4-.3-.7-.4-.5,0-.8,0c-.6.2-.9.8-1.3,1.2-.3.4-1,1.1-.4,1.5s1.3-.3,1.4-.9v-.4h-.3c-.3.2.2,0,.2.2.2.2.4.3.7.2.2,0,.3-.2.3-.3s0-.3.2-.4v-.2c-.2,0-.3,0-.2,0,.1.2.5.3.7.3h.7c.2,0,.3.2.4.3.3.3.5.6.9.7h.3c.1,0,.2,0,0,0h0s-.1.2-.1.3-.1.2-.1.3c-.1.5.1.8.4,1.2.1.2.2.3,0,.4-.1.2-.2.4-.3.7,0,.5,0,1,.4,1.3.4.5,1,.2,1.4-.2.1,0,.2-.4,0-.5-.3-.4-.2-.9-.2-1.3s0-.5-.1-.7-.3-.5-.3-.7c0-.3.2-.5.1-.8,0-.2-.1-.4-.3-.5-.1,0-.6-.4-.6-.6l-.8.2h0v-.3c.4,0,.6,0,.5-.2-.2-.6-1-.3-.9.2h0l-.1.1Z"/>
          <path class="cls-3" d="M49.17,2.31c-1.5-.2-3.11.6-3.81,2h.8s-.1-.3-.2-.4l-.9.2c0,.2.1.4.2.5l.9-.2h0s0-.2,0,0,0,0,0,0h0v-.2h1.1s.2,0,0,0h.2c.1,0,0,0,0,0h0c.4.4,1-.2.6-.6-.5-.5-1.2-.6-1.9-.4-.6,0-1.3.5-1.6,1-.2.4-.2.8,0,1.1,0,.2.3.4.6.3.2,0,.4-.3.3-.6,0-.2-.1-.4-.2-.5,0-.2-.3-.4-.6-.3s-.4.3-.3.6.2.4.3.7.6.3.8,0,.3-.5.5-.7.4-.4.7-.5c.5-.3,1.1-.4,1.6-.3.2,0,.5,0,.6-.3,0-.2,0-.5-.3-.6h0l.6-.5v-.3h0Z"/>
          <path class="cls-3" d="M49.97,3.31c.3-.3.4-.7.1-1.1-.3-.4-1-.2-.8.3.1.4.4.7.7.9.2,0,.6,0,.7-.3v-1l-.7.5c1.1.8,2.1,1.7,2.51,2.91l.4-.6h-.2l-.2.9h.3c.6,0,.8-.7.2-.9h-.5l-.2.9h.2v.6c0,.4,0,.9.1,1.3l.9-.2c-.1-.4-.3-.6-.6-.8h-.5c-.2,0-.2.3-.2.5v.2c0,.4.8.4.9,0,.2-1.3-.7-2.41-1.6-3.21v.7c1.1-.6,0-1.9-.5-2.51-.2-.2-.6,0-.7,0,0,0-.1.3-.2.4-.2.6.7.8.9.2v-.2h-.7c.2.3.4.5.5.8,0,0,.1.2.2.4h0c-.2,0-.3.5,0,.7.7.5,1.6,1.3,1.4,2.31h.9v-.2l-.7.5s.2.2.2.3c.2.5,1,.3.9-.2v-1.4c0-.5-.4-1-1-1.1-.2,0-.5,0-.6.3,0,.2,0,.5.3.6h.5l.2-.9h-.3c-.6,0-.8.7-.2.9h.4c.3,0,.5-.3.4-.6-.6-1.5-1.7-2.61-2.91-3.51-.3-.2-.8.2-.7.5v.5l.7-.3c-.1,0-.2-.2-.3-.3l-.8.3h0c-.4.4.2,1.1.6.6h0v.3h0Z"/>
          <path class="cls-3" d="M47.37,3.51h0s.1,0,0,0h0c-.2,0-.4,0-.6-.2-.2,0-.4,0-.5.2-.1,0-.1.4,0,.5.2.3.4.5.8.6.3,0,.6,0,.8-.2s.3-.5.2-.8-.3-.5-.6-.6h-.5c-.1,0-.2.3-.2.5s.2.5.4.6c.2.2.5.3.8.3s.3,0,.4-.2v-.5c-.1-.3-.4-.6-.7-.7-.4,0-.8,0-1,.4-.2.3-.2.7,0,1,.1.3.4.5.7.6.3.2.6.3.9.3s.5-.3.4-.6c-.1-.5-.3-1-.7-1.4s-1.1-.6-1.5-.2c-.5.4,0,1.2.4,1.4.4,0,.9,0,1.2-.4.4-.4.5-1,.2-1.5l-.6.6c.3.2.7.3,1.1.2.2,0,.4-.3.3-.6-.1-.3-.3-.6-.7-.8h-.5c-.1,0-.2.4,0,.5.3.3.6.6,1,.7.2,0,.5,0,.6-.3s0-.5-.3-.6h-.3l-.6.6h.1c.1,0,0,0,0,0h0l.3-.6h-.7c-.1,0-.2.4,0,.5h0s0,.2,0,0,0,0,0,0h0s.1,0,0,0h0s.1,0,0,0h0s.1,0,0,0h0s-.1,0,0,0,0,0,0,0h0s-.1,0,0,0h0s.1,0,0,0h0s-.1,0,0,0h0s.1,0,0,0,0,0,0,0h.1s.1.3.1.4,0,0,0,0h0v.5l.4-.6s.1,0,0,0h-.5c0-.2,0,0,0,0h0l.4-.7c.2,0-.1,0-.1,0h0l-.7.5h.1s.1,0,0,0h-.1l-.5.7c.3,0,.5.2.8.2s.7-.2.9-.5c.1-.2,0-.5-.2-.6s-.5,0-.6.2h0l-.7.6h0Z"/>
          <path class="cls-3" d="M34.94,4.01c0-.4.3-.8.2-1.2,0-.3-.4-.6-.7-.5-.3,0-.5.5-.5.8s.2.7.5.9.7,0,.7-.4-.2-.8-.6-1.1c-.2,0-.5,0-.6.2-.2.4-.4,1-.2,1.5s.8.4,1.1,0c.5-.9-.5-1.8-1.2-2.31v.8c.3,0,.7-.5.7-1s-.3-.9-.8-1-.9.3-.8.8c0,.5.5.8,1,.8s.6-.4.4-.7c-.3-.5-1-1.1-1.6-.6-.5.3-.4,1.2.2,1.3.4,0,.7-.3.5-.7-.2-.5-.5-1.3-1.1-1.3s-.8.8-.7,1.3l.8-.4c-.3-.3-.8-.8-1.3-.8s-.6.8-.6,1.3l.6-.4c-.4,0-.8,0-1.1.2-.3.3-.4.7-.2,1,0,.2.5.3.7,0,.4-.5.3-1.2-.2-1.6-.3-.2-.6,0-.7.3,0,.2-.3.3-.5.4-.2,0-.4.3-.6.5-.3.4,0,1,.5.7s.4-.9,0-1-.7.4-.7.7v.3h0s0,0,0,0c0,0-.5.3-.5.4-.2.5.3,1,.6,1.3.2.3.8,0,.8-.3,0-.5,0-.9.2-1.4l-.9-.2c0,.4,0,.7.5.8s.8-.2,1-.4c.4-.4.9-1.7,1.6-1.5.5,0,.7-.4.4-.8,0,.2,0,.3,0,.2h.3c.2,0,.3,0,.5.2.3.2.3.6.6.8.1,0,.2,0,.4.3.1.2.2.4.4.6.1.2.3.4.4.6,0,0,.1.2.2.3h0s.03,0,.1,0l.5.7c.3-.5.2-1.2,0-1.7-.2-.2-.4-.5-.7-.6-.3,0-.7.2-.7.5s.2.6.5.6.7-.2.8-.6c.2-.6-.2-1.3-.9-1.4l.3.7c.3-.5,0-1.1-.6-1.3s-.8.7-.2.9h0c-.1.2,0,.6.3.7h.2c0,.2.2.4.4.4l-.3.2h-.3c.4.2.6.6.4,1s.1.7.5.7.6-.4.6-.7-.3-.8-.5-1.1c-.2-.4-.5-.8-.7-1.1-.1,0-.2-.3-.4-.4-.1,0-.2,0-.3-.3-.3-.6-1-.9-1.7-.9s-.7,0-.9.3c-.2.3-.2.7,0,1l.4-.8c-.6-.2-1.3,0-1.7.6-.2.2-.3.5-.5.7,0,0-.2.2-.3.4h0v.4h0c0-.6-.7-.8-.9-.2-.2.5-.2,1.1-.2,1.6l.8-.3s-.2-.2-.2-.3v-.2.3l.3-.3v-.7c0-.2,0,0,0,0h-.5l-.2-.2h0c0-.2,0-.3.2-.4h0l.5.7c.4-.5,1-.6,1.3-1.3l-.7.3h.7v.2h.2c.3,0,.6,0,.6-.4v-.6l-.3.2h0s.2,0,.2.2c0,0,.3.2.4.3.3.3.8,0,.8-.4h0c-.2-.3-.3-.3-.2-.2,0,0,.1.2.1.3,0,.2.2.4.3.6l.5-.7c.1,0,.2.2,0,.3h0s.2.2.2.3l.4-.7h-.2v.2h-.1c-.4.2-.4.7-.1.9s.6.4.8.7c.1.3,0,.3.3.3s.2,0,.3-.2c0,0,0-.2.1-.3l-.6.2c.1,0,.1.2.1.3l.7-.4h-.5c0-.2-.1-.2-.1,0v.2l-.2.4c-.1.6.7.8.9.2h0l.5.2-.2.3h0Z"/>
          <path class="cls-3" d="M46.37,2.71c0,.3.4.5.8.4.2,0,.4-.2.6-.4,0,0,.2,0,.3-.2h-.2c.1.2.3.4.5.5.1.2.4.2.5,0,.2,0,.3-.3.4-.5h-.4s.2.2.3.3c.3,0,.6-.2.7-.5,0-.2,0-.5-.3-.6s-.5,0-.6.3h.5v-.2c-.3-.2-.6-.2-.8,0-.2,0-.3.3-.4.5v.2h0s.1,0,0,0h.5c-.1,0-.3-.3-.4-.4-.2-.2-.4-.3-.7-.3s-.4.2-.5.3c0,0-.2,0-.2.2h-.1c.2,0,.3,0,.3.2,0-.2-.3-.4-.6-.3-.2,0-.4.3-.3.6h0l.1-.1Z"/>
          <path class="cls-3" d="M18.4,14.13c0,.2-.2.4-.3.6v.5h0v.6c0,.2.2.4.4.5,0,0,.4.2.5,0,.2,0,.3-.3.2-.5s0-.4-.2-.6h-.4c0-.2,0-.3,0,0s0,.3.3.4h.5c.2-.3.3-.6.2-.9,0-.3-.3-.5-.5-.8,0-.2-.5-.2-.6,0-.2.2-.2.4,0,.6h0v.2h0l.8.3c0-.3-.2-.5-.5-.6-.3,0-.6,0-.7.3-.2.4,0,.9,0,1.3l.8-.4h0v.2h0v-.6h0v-.6c-.2,0-.5-.2-.6,0h0v-.5h.1Z"/>
          <path class="cls-3" d="M27.72,3.71c-.3,0-.4.3-.5.5v.6c0,.2.3.3.6.4h.8v-.6s-.2-.3-.3-.4h-.6c-.2,0-.3.3-.3.5v.8h.6v-.6h-.3v-.5h.3-.6s.2,0,.3-.2v-.3s0-.2-.2-.3h-.3l.2.3s.3-.2.3-.2Z"/>
          <path class="cls-3" d="M62.3,15.94c-.1,0-.2.3-.3.5v.6c.1.2.4.3.7.2.2,0,.3-.2.4-.4.1-.3.1-.6,0-.9,0-.2-.3-.4-.4-.6h0s-.1-.2-.2-.3h-.3c-.1,0-.2,0-.3.2v.3c0,.2.1.4.2.5,0,0,.2.2.2.4h.4s.1-.2.1-.3,0-.2-.1-.3-.2,0-.3,0h-.3.2v.1Z"/>
          <path class="cls-3" d="M58.49,36.08l-.5.6h0v.5h0s.2.2.3.2h.3l.5-.6h0v-.5h0s-.2-.2-.3-.2h-.3Z"/>
          <path class="cls-3" d="M63.91,26.56v-.4s-.1,0-.2-.2h-.6s-.1,0-.2.2h0v.7s.1,0,.2.2h.6s.1,0,.2-.2h0v-.3h0Z"/>
          <path class="cls-3" d="M63.71,21.55c0-.3-.3-.6-.5-.8-.1,0-.3-.2-.4-.3h0s-.1-.2-.2-.2-.3-.2-.5-.3h-.9l.3.8c.4-.3.4-.9,0-1.2-.5-.3-1,.3-1,.8s.5.6.8.3c0,0,.1,0,.2-.2h0c.1,0,0,0,0,0h0c0,.2.3.4.6.3s.4-.3.3-.6c0-.4-.4-.6-.8-.6s-.7.2-.9.5l.8.3h-.3v-.2s-.2.4,0,.6.3.3.5.3h.5l.3.3c.2.2.4.3.6.4h.1c0,.3.3.5.6.4.3,0,.4-.3.3-.6h-.4Z"/>
          <path class="cls-3" d="M27.12,6.01h0v.7h0s0,.2.2.2h.4v-.4h0v-.2h0v-.2h-.5v.3h0v.3h0v-.6h0l-.1-.1Z"/>
          <path class="cls-3" d="M60.5,19.54c-.3,0-.5.2-.7.4,0,0-.1,0-.2.2v.5s.3.3.4.2h.2s.1,0,.2-.2v-.4l-.3-.3h-.4s-.3,0-.4.2h-.1c-.1.2,0,0,0,.2s-.1.3,0,.4v.2s.1,0,.2.2h.5c.3-.3.5-.6.8-.8,0,0,.1-.2.1-.3s0-.2-.1-.3-.2,0-.3,0h-.3c-.3.3-.5.6-.8.8l.8.3h.1-.1.1-.2l-.3-.7h.7-.1.2c.1,0,.2,0,.3-.2v-.3s-.1-.2-.2-.3h-.3l.2.3h0v-.1Z"/>
          <path class="cls-3" d="M61.4,11.73c.6,0,.6-.9,0-.9s-.6.9,0,.9h0Z"/>
          <path class="cls-3" d="M61.1,11.63c.6,0,.6-.9,0-.9s-.6.9,0,.9h0Z"/>
          <path class="cls-3" d="M62.5,17.84c.6,0,.6-.9,0-.9s-.6.9,0,.9h0Z"/>
          <path class="cls-3" d="M19,16.74c.6,0,.6-.9,0-.9s-.6.9,0,.9h0Z"/>
          <path class="cls-3" d="M19.91,12.33c.6,0,.6-.9,0-.9s-.6.9,0,.9h0Z"/>
          <path class="cls-3" d="M20.61,10.52c.6,0,.6-.9,0-.9s-.6.9,0,.9h0Z"/>
          <path class="cls-3" d="M52.28,6.82c.6,0,.6-.9,0-.9s-.6.9,0,.9h0Z"/>
          <path class="cls-3" d="M53.28,5.41c.6,0,.6-.9,0-.9s-.6.9,0,.9h0Z"/>
          <path class="cls-3" d="M52.98,4.81c.6,0,.6-.9,0-.9s-.6.9,0,.9h0Z"/>
          <path class="cls-3" d="M53.18,5.61c.6,0,.6-.9,0-.9s-.6.9,0,.9h0Z"/>
          <path class="cls-3" d="M56.89,9.92c.6,0,.6-.9,0-.9s-.6.9,0,.9h0Z"/>
          <path class="cls-3" d="M57.79,9.82c.6,0,.6-.9,0-.9s-.6.9,0,.9h0Z"/>
          <path class="cls-3" d="M58.79,9.82c.6,0,.6-.9,0-.9s-.6.9,0,.9h0Z"/>
          <path class="cls-3" d="M59.3,9.82c.6,0,.6-.9,0-.9s-.6.9,0,.9h0Z"/>
          <path class="cls-3" d="M60.3,9.82c.6,0,.6-.9,0-.9s-.6.9,0,.9h0Z"/>
          <path class="cls-3" d="M62.1,11.63c.6,0,.6-.9,0-.9s-.6.9,0,.9h0Z"/>
          <path class="cls-3" d="M62.1,12.43c.6,0,.6-.9,0-.9s-.6.9,0,.9h0Z"/>
          <path class="cls-3" d="M58.89,10.62c.6,0,.6-.9,0-.9s-.6.9,0,.9h0Z"/>
          <path class="cls-3" d="M56.19,10.72c.6,0,.6-.9,0-.9s-.6.9,0,.9h0Z"/>
          <path class="cls-3" d="M56.39,10.42c.6,0,.6-.9,0-.9s-.6.9,0,.9h0Z"/>
          <path class="cls-3" d="M62.7,18.54c.6,0,.6-.9,0-.9s-.6.9,0,.9h0Z"/>
          <path class="cls-3" d="M62.6,18.34c.6,0,.6-.9,0-.9s-.6.9,0,.9h0Z"/>
          <path class="cls-3" d="M14.79,27.46c.6,0,.6-.9,0-.9s-.6.9,0,.9h0Z"/>
          <path class="cls-3" d="M26.82,7.52c.6,0,.6-.9,0-.9s-.6.9,0,.9h0Z"/>
          <path class="cls-3" d="M23.91,12.73c0,.3-.2.7,0,1,.3.4.9.4,1.1,0s0-.9-.5-1-.9.2-1,.7v.4c.4.3.9.4,1.4,0l-.6-.2c0,.2.2.3.3.5,0,.2.2.3.3.4.3.3.9.2,1-.3h-.9c0,.5,0,1.1.6,1.5.2.2.5.3.8.4h.4c.3.5,1.1,0,.8-.5-.2-.3-.4-.4-.7-.5h-.5v-1c0-.3-.2-.4-.4-.4s-.4,0-.5.3c0,0,.2-.2.3-.2h.2v-.2c0-.2-.2-.3-.3-.5,0-.2-.4-.3-.6-.2h-.2c.2,0,0,0,0,0h0v.4h0v-.3h.4s0-.2,0,0c0-.2,0-.5-.2-.6s-.5,0-.6.2h-.6v.1Z"/>
          <path class="cls-3" d="M24.62,18.44h.9c-.2-.5-.6-.9-1.2-1.2l.3.7c.3-.6-.3-1.4-1-1.2l.5.7c0-.2.2-.4.2-.7s-.2-.6-.5-.6h-.7s-.2,0-.3.2h-.2c-.4.3-.2.9.2.9.6,0,1.1.3,1.3.7,0,.2.2.3.4.4h1.2c.2.3.5.3.6,0,.2-.2.2-.4,0-.6-.3-.3-.6-.5-1-.5h-.3s0-.2-.2-.2c-.5-.6-1.2-1-2-1l.2.8s.2,0,.3-.2h0v-.2h0c-.2.4,0,.8.5.7h0c0,.3,0,.6.3.7,0,0,.2,0,.3.2h0s0,.2,0,0c0,.2.2.3.4.3s.4,0,.4-.3c0-.5-.2-1.1-.7-1.2-.6,0-1.1.4-1.2.9,0,.2.2.4.4.4s.4-.2.4-.4h0l.5.3v.4h0Z"/>
          <path class="cls-3" d="M50.78,16.34h.1c.1,0,.2,0,.3-.2.2,0,.2-.4.2-.6,0-.3-.3-.6-.6-.6s-.5.2-.7.5c-.1.2-.3.4-.3.7s.1.6.4.7c.5.3,1.2,0,1.3-.7v-.8c-.1-.4-.6-.5-.9-.3-.2.2-.4.4-.4.7s0,.7.4.8h.5c.2,0,.3-.2.4-.4,0-.2,0-.4.1-.6,0-.3,0-.5-.2-.7s-.4-.3-.7-.3c-.5,0-1,.4-1.1.9s0,1,.4,1.3c.2,0,.5,0,.6-.2.4-.7.5-1.4.3-2.21,0-.3-.4-.4-.7-.3-.2,0-.3.3-.4.5v.3s.1.2.2.3c.2,0,.5,0,.6-.2h0l-.7-.3h0v.4h0c0,.2,0,0,0,0,0,0,0,.3-.1.4h0s0,.2,0,0v.2l.6-.2h0c0-.2,0,0,0,0h0s.1,0,0,0,0,0,0,0h0v.2h0v.2h0s.2-.2.3-.2h.1s-.1,0,0,0h-.3v-.2h0v.2h0s.1,0,0,0,0,0,0,0h0v-.2c.1,0,0,0,0,0,0,0,0-.2,0,0h0c-.1,0-.3,0-.4.3-.2.2-.2.5,0,.6.2.2.4.2.6,0h.2-.1,0Z"/>
          <path class="cls-3" d="M32.84,11.43v.5c0,.2.2.4.4.5h.5c.2,0,.3-.3.3-.5s-.1-.4-.2-.5c0,0-.1-.3-.2-.4-.1-.3-.3-.5-.4-.8-.2-.3-.6-.3-.8,0s-.2.7,0,1.1.5.5.9.6c.2,0,.5-.2.4-.4,0-.3-.2-.4-.4-.4h.1-.8c.1.2.3.5.4.7,0,0,.1.2.2.4v.2h.1v-.3h.3c0-.2,0-.5-.3-.6s-.5,0-.6.3h0v-.3h.1v-.1Z"/>
          <path class="cls-3" d="M49.97,15.33c.6,0,.6-.9,0-.9s-.6.9,0,.9h0Z"/>
          <path class="cls-3" d="M21.11,27.96c.6,0,.6-.9,0-.9s-.6.9,0,.9h0Z"/>
          <path class="cls-3" d="M21.21,28.46c.6,0,.6-.9,0-.9s-.6.9,0,.9h0Z"/>
          <path class="cls-3" d="M35.54,15.03c.6,0,.6-.9,0-.9s-.6.9,0,.9h0Z"/>
          <path class="cls-3" d="M34.74,15.03c.6,0,.6-.9,0-.9s-.6.9,0,.9h0Z"/>
          <path class="cls-3" d="M24.22,22.85c.6,0,.6-.9,0-.9s-.6.9,0,.9h0Z"/>
          <path class="cls-3" d="M24.12,23.25c.6,0,.6-.9,0-.9s-.6.9,0,.9h0Z"/>
          <path class="cls-3" d="M23.41,25.46c.6,0,.6-.9,0-.9s-.6.9,0,.9h0Z"/>
          <path class="cls-3" d="M23.91,25.56c.6,0,.6-.9,0-.9s-.6.9,0,.9h0Z"/>
          <path class="cls-3" d="M24.12,25.56c.6,0,.6-.9,0-.9s-.6.9,0,.9h0Z"/>
          <path class="cls-3" d="M24.52,23.05c.6,0,.6-.9,0-.9s-.6.9,0,.9h0Z"/>
          <path class="cls-3" d="M24.62,23.45c.6,0,.6-.9,0-.9s-.6.9,0,.9h0Z"/>
          <path class="cls-3" d="M26.32,19.95c.6,0,.6-.9,0-.9s-.6.9,0,.9h0Z"/>
          <path class="cls-3" d="M30.63,16.14c.6,0,.6-.9,0-.9s-.6.9,0,.9h0Z"/>
          <path class="cls-3" d="M31.93,15.84c.6,0,.6-.9,0-.9s-.6.9,0,.9h0Z"/>
          <path class="cls-3" d="M46.67,15.54c.6,0,.6-.9,0-.9s-.6.9,0,.9h0Z"/>
          <path class="cls-3" d="M44.76,15.33c.6,0,.6-.9,0-.9s-.6.9,0,.9h0Z"/>
          <path class="cls-3" d="M49.77,17.24c.6,0,.6-.9,0-.9s-.6.9,0,.9h0Z"/>
          <path class="cls-3" d="M50.27,16.74c.6,0,.6-.9,0-.9s-.6.9,0,.9h0Z"/>
          <path class="cls-3" d="M56.19,25.46c.6,0,.6-.9,0-.9s-.6.9,0,.9h0Z"/>
          <path class="cls-3" d="M52.28,18.44c.6,0,.6-.9,0-.9s-.6.9,0,.9h0Z"/>
          <path class="cls-3" d="M51.68,18.14c.6,0,.6-.9,0-.9s-.6.9,0,.9h0Z"/>
          <path class="cls-3" d="M55.79,25.86c.6,0,.6-.9,0-.9s-.6.9,0,.9h0Z"/>
          <path class="cls-3" d="M55.89,25.16c.6,0,.6-.9,0-.9s-.6.9,0,.9h0Z"/>
          <path class="cls-3" d="M57.29,27.36c.6,0,.6-.9,0-.9s-.6.9,0,.9h0Z"/>
          <path class="cls-3" d="M56.99,26.96c.6,0,.6-.9,0-.9s-.6.9,0,.9h0Z"/>
          <path class="cls-3" d="M56.89,26.86c.6,0,.6-.9,0-.9s-.6.9,0,.9h0Z"/>
          <path class="cls-3" d="M56.99,21.45c-.3,0-.5.2-.7.4s-.4.4-.4.7v.3s.2.2.3.2h.3c.1,0,.2-.2.2-.3h0l.2-.2h.5-.1.2c.1,0,.2,0,.3-.2s0-.2,0-.3-.1-.2-.2-.3-.2,0-.3,0h0l-.3-.2h0v-.1Z"/>
          <path class="cls-3" d="M49.37,2.21c.6,0,.6-.9,0-.9s-.6.9,0,.9h0Z"/>
          <path class="cls-3" d="M49.97,2.51c.6,0,.6-.9,0-.9s-.6.9,0,.9h0Z"/>
          <path class="cls-3" d="M48.97,2.41c.6,0,.6-.9,0-.9s-.6.9,0,.9h0Z"/>
          <path class="cls-3" d="M50.48,2.21h.4v-.3h0c0-.2,0-.3-.1-.3h-.6v.3h0c0,.2,0,.3.1.3h.2Z"/>
          <path class="cls-3" d="M51.08,2.91c.6,0,.6-.9,0-.9s-.6.9,0,.9h0Z"/>
          <path class="cls-3" d="M49.97,2.31c.6,0,.6-.9,0-.9s-.6.9,0,.9h0Z"/>
          <path class="cls-3" d="M48.77,2.41c.6,0,.6-.9,0-.9s-.6.9,0,.9h0Z"/>
          <path class="cls-3" d="M50.88,3.91c.6,0,.6-.9,0-.9s-.6.9,0,.9h0Z"/>
          <path class="cls-3" d="M49.67,3.61c.6,0,.6-.9,0-.9s-.6.9,0,.9h0Z"/>
          <path class="cls-3" d="M52.48,6.31c.6,0,.6-.9,0-.9s-.6.9,0,.9h0Z"/>
          <path class="cls-3" d="M52.08,6.21c.6,0,.6-.9,0-.9s-.6.9,0,.9h0Z"/>
          <path class="cls-3" d="M51.68,3.31c.6,0,.6-.9,0-.9s-.6.9,0,.9h0Z"/>
          <path class="cls-3" d="M52.28,3.61c.6,0,.6-.9,0-.9s-.6.9,0,.9h0Z"/>
          <path class="cls-3" d="M52.18,4.51c.6,0,.6-.9,0-.9s-.6.9,0,.9h0Z"/>
          <path class="cls-3" d="M27.12,6.72c.6,0,.6-.9,0-.9s-.6.9,0,.9h0Z"/>
          <path class="cls-3" d="M19,16.74c.6,0,.6-.9,0-.9s-.6.9,0,.9h0Z"/>
          <path class="cls-3" d="M20.81,11.13c.6,0,.6-.9,0-.9s-.6.9,0,.9h0Z"/>
          <path class="cls-3" d="M22.21,10.12c.6,0,.6-.9,0-.9s-.6.9,0,.9h0Z"/>
          <path class="cls-3" d="M22.31,8.52c.6,0,.6-.9,0-.9s-.6.9,0,.9h0Z"/>
          <path class="cls-3" d="M20.21,37.99c.6,0,.6-.9,0-.9s-.6.9,0,.9h0Z"/>
          <path class="cls-3" d="M23.61,8.32c.6,0,.6-.9,0-.9s-.6.9,0,.9h0Z"/>
          <path class="cls-3" d="M49.97,17.04c.6,0,.6-.9,0-.9s-.6.9,0,.9h0Z"/>
          <path class="cls-3" d="M50.78,16.94c.6,0,.6-.9,0-.9s-.6.9,0,.9h0Z"/>
          <path class="cls-3" d="M50.78,17.14c.6,0,.6-.9,0-.9s-.6.9,0,.9h0Z"/>
          <path class="cls-3" d="M47.17,15.03c.6,0,.6-.9,0-.9s-.6.9,0,.9h0Z"/>
          <path class="cls-3" d="M46.87,15.13c.6,0,.6-.9,0-.9s-.6.9,0,.9h0Z"/>
          <path class="cls-3" d="M45.36,14.93c.6,0,.6-.9,0-.9s-.6.9,0,.9h0Z"/>
          <path class="cls-3" d="M44.96,14.93c.6,0,.6-.9,0-.9s-.6.9,0,.9h0Z"/>
          <path class="cls-3" d="M44.56,14.73c.6,0,.6-.9,0-.9s-.6.9,0,.9h0Z"/>
          <path class="cls-3" d="M30.53,15.84c.6,0,.6-.9,0-.9s-.6.9,0,.9h0Z"/>
          <path class="cls-3" d="M29.83,16.34c.6,0,.6-.9,0-.9s-.6.9,0,.9h0Z"/>
          <path class="cls-3" d="M29.33,16.74c.6,0,.6-.9,0-.9s-.6.9,0,.9h0Z"/>
          <path class="cls-3" d="M31.33,15.94c.6,0,.6-.9,0-.9s-.6.9,0,.9h0Z"/>
          <path class="cls-3" d="M25.42,20.25c.6,0,.6-.9,0-.9s-.6.9,0,.9h0Z"/>
          <path class="cls-3" d="M25.92,20.25c.6,0,.6-.9,0-.9s-.6.9,0,.9h0Z"/>
          <path class="cls-3" d="M26.22,20.65c.6,0,.6-.9,0-.9s-.6.9,0,.9h0Z"/>
          <path class="cls-3" d="M25.82,20.75c.6,0,.6-.9,0-.9s-.6.9,0,.9h0Z"/>
          <path class="cls-3" d="M24.92,21.95c.6,0,.6-.9,0-.9s-.6.9,0,.9h0Z"/>
          <path class="cls-3" d="M24.32,22.15c.6,0,.6-.9,0-.9s-.6.9,0,.9h0Z"/>
          <path class="cls-3" d="M25.42,20.75c.6,0,.6-.9,0-.9s-.6.9,0,.9h0Z"/>
          <path class="cls-3" d="M58.49,21.45c0,.9.1,1.8,0,2.71,0,.4-.2.8-.2,1.2s.2.7,0,1c-.4.4.2,1.1.6.6.3-.3.4-.7.3-1.2v-.7c0-.3,0-.4.1-.7v-3.01c0-.6-1-.6-1,0h.2v.1Z"/>
          <path class="cls-3" d="M59.9,10.62v-.7l-.8.2s.1.3.2.4.2.2.3.3v-.8c-.2,0-.5.2-.8.3-.1,0-.2,0-.3.2s0,.2,0,.3.1.2.2.3c.1.1.2,0,.3,0,.3,0,.6-.2.9-.3h.1s.1-.3.1-.4v-.2h-.1s-.2,0-.2-.3h0s-.1,0-.2-.2h0s0-.2-.1-.2h-.5s-.1.2-.1.3v.7s0,.2.1.3h.6v-.3h.3v.1Z"/>
          <path class="cls-3" d="M58.79,10.62c0-.2-.1-.4-.2-.6h0v-.2h-.4v1s0,.2.2.2h.6s.1-.2.1-.3h0c0-.2,0-.3-.1-.3h-.8v.2h0v.4h.5c.1,0,.2,0,.3-.2h0v-.2h-.2Z"/>
          <path class="cls-3" d="M55.89,12.53c.1.2.3.4.6.4s.4,0,.5-.3c0,0,.1-.3.1-.5s0-.4-.2-.6c0,0-.3-.2-.4,0-.2,0-.3.2-.3.3h0v.5c0,.2.2.5.4.4.2,0,.5-.2.4-.4,0-.3-.1-.6-.4-.9-.2-.2-.6-.2-.7,0s-.2.5-.2.7c0,.3,0,.6.3.8.3.3.8.2,1-.2.1-.2.2-.5.1-.8s0-.5-.1-.7l-.6.6c.4,0,1.1.2,1.3-.3.2-.4-.2-.8-.5-.9-.4,0-.9,0-1,.6,0,.4.4.7.8.7s.5,0,.6-.3c.1-.2.1-.5,0-.8l-.7.5s.2,0,.3.2h.1s.2.2.3.2h.3c.1-.2.2-.5,0-.6-.2-.2-.4-.3-.6-.5h-.5c-.1,0-.2.3-.2.5h0s.1,0,0,0h0c-.1,0,.1,0,0,0h0s.2,0,0,0h0s.1,0,0,0h0c.1,0,0,0,0,0h0s0,.2,0,0h0s-.1,0,0,0h0c.1,0-.1,0,0,0h0s.1,0,0,0c0,0,.1,0,0,0h0s.1,0,0,0h-.2s.1,0,0,0h-.2c-.3,0-.7.2-.6.6v.4h0v.2h0s.1,0,0,0c0,0-.1,0,0,0h0s0-.2,0,0h0v-.2h-.7v.2h.9s0-.3.1-.4l-.8.2h0s.1,0,0,0h.2s-.1-.2-.3-.2h-.3c-.2,0-.3.4-.2.6h1.4Z"/>
          <path class="cls-3" d="M14.69,27.06c.6,0,.6-.9,0-.9s-.6.9,0,.9h0Z"/>
          <path class="cls-3" d="M58.09,37.79c.6,0,.6-.9,0-.9s-.6.9,0,.9h0Z"/>
          <path class="cls-3" d="M64.01,27.46c.6,0,.6-.9,0-.9s-.6.9,0,.9h0Z"/>
          <path class="cls-3" d="M20.11,13.33c.6,0,.6-.9,0-.9s-.6.9,0,.9h0Z"/>
          <path class="cls-3" d="M57.69,37.89c.6,0,.6-.9,0-.9s-.6.9,0,.9h0Z"/>
          <path class="cls-3" d="M22.61,9.62c.6,0,.6-.9,0-.9s-.6.9,0,.9h0Z"/>
          <path class="cls-3" d="M24.22,7.82c.6,0,.6-.9,0-.9s-.6.9,0,.9h0Z"/>
          <path class="cls-3" d="M31.73,2.21c.6,0,.6-.9,0-.9s-.6.9,0,.9h0Z"/>
          <path class="cls-3" d="M58.19,10.42h0c.1,0,0,0,0,0h-.3c-.3-.2-.6-.2-.9,0-.3,0-.4.4-.4.7s.1.5.3.7c.1.2.4.2.6,0s.2-.4.1-.6c-.1-.2-.3-.4-.6-.4s-.5.2-.6.5c-.1.3,0,.8,0,1.1l.8-.5c-.2-.2-.3-.5-.5-.7,0,0-.2-.2-.4-.2s-.3,0-.4.2c-.1.2-.2.4,0,.7s.3.4.5.4h.4c.1,0,.1-.3.1-.4h0v-.2h0c0-.2,0-.5-.3-.6-.2,0-.5,0-.6.3v.9l.6-.6h-.8c.2.2.3.5.5.7.1.2.4.3.6.2s.3-.4.2-.6h0v-.2h0s-.1,0,0,0c0,0-.1,0,0,0,0,0-.1,0,0,0h0l.7-.5h0s-.1,0,0,0c0,0-.1,0,0,0s0,0,0,0h.2c.2,0,.4.2.6.2s.5-.2.4-.4c0-.2-.2-.5-.4-.4h0l-.4-.2h0v-.1Z"/>
          <path class="cls-3" d="M25.42,9.52c.4-.6,0-1.4-.5-1.6-.2,0-.4,0-.5.2-.3.6,0,1.2.4,1.6v-.7c-.4.4-.3,1,.2,1.1.3,0,.8-.3.5-.7-.3-.4-.6-.7-1.1-.8-.3,0-.5,0-.6.4,0,.8,1.1.9,1.3.2s-.5-1.2-1.1-1.3h-.9c-.3,0-.4.4-.7.5-.3,0-.6.2-.8.5-.2.3-.2.6,0,.9l.5-.7c-.3,0-.7,0-.9.2,0,0-.2.3-.3.4,0,0-.2,0-.4.2-.3.2-.4.5-.5.8v1.3l.4-.4c-.8,0-2.1,1-1.1,1.7.4.3,1,0,.7-.5,0-.3-.3-.4-.6-.6s-.6,0-.7.3v1l.7-.5h-.7s-.3.2-.3.3v1c.2.3.5.5.8.4.7,0,.5-1.2,0-1.6v.4c.3-.5.4-1,.5-1.5l-.6.4c.2,0,.4.2.6,0,.2,0,.3-.2.4-.4v-.8c0-.2.3-.3.5-.4l.4-.4c.3-.3.7-.6.8-1,0,0,0-.2.2-.3h.5c.3,0,.6-.4.7-.7,0-.2,0,0,0,0h.7c.3,0,.7-.3.6-.7l-.3.4h.4c0,.6.2,1,.3,1.5v-.4h.6l.2.5h0c.2-.6-.7-.8-.9-.3h0c0,.2,0,.4.2.5h.5c.3-.3,0-.7,0-1s0-.8-.3-1.2c-.3-.5-1-.5-1.5-.3-.2,0-.4.2-.3.4,0-.2.2,0,0-.3h-.6c-.3,0-.5.2-.6.5v.3h-.4c-.3,0-.6.2-.7.5,0,0,0,.3-.2.4,0,0-.2.3-.4.4-.2.3-.5.5-.8.8s-.5.4-.6.8v.7h.4s-.2-.2-.3-.2c-.3,0-.5,0-.6.4,0,.4,0,.9-.3,1.3v.7l.4-.2h0v-.2l-.3.3h0c.3,0,.8,0,.7-.5v-.5l-.7.3s.2,0,.3.2l.7-.5-.2-.2v.5c0-.3.3-.5.7-.5s.4-.2.4-.4v-1.3h0c.2,0,.4-.3.5-.4,0,0,0-.2.2-.2h0c.4,0,.7-.4.5-.8h.3c.2,0,.3-.3.5-.4s.4,0,.5,0,.9.4.9.2l-.6.4c.2,0,.4.2.6.4l.5-.7v.4c.3-.2.2-.5,0-.7v-.4l-.5.2v.3c-.3.5.4.9.8.5h0l.6-.4h.3,0Z"/>
          <path class="cls-3" d="M60.5,34.08h-.2c-.3,0-.6.2-.8.5-.2.2-.2.5-.1.7l.4-.6c-.5,0-1,.4-1,1v.3s.1,0,.2.2c.2,0,.4,0,.5-.2,0,0,.1-.2.2-.3.1-.2,0-.5-.2-.6s-.5,0-.6.2c0,0-.1.2-.2.3l.8.2h0c.1,0,0,0,0,0h.1c.3,0,.5-.3.4-.6h0s-.1,0,0,0,0,0,0,0h.2c.3,0,.6-.2.8-.5.2-.2.3-.4.3-.7s-.2-.5-.4-.4c-.2,0-.5.2-.4.4h0v.2h0v-.1Z"/>
          <path class="cls-3" d="M13.99,24.96c-.2.4,0,.9,0,1.3.2.4.7.2.8,0v-.6.3c.2-.5.2-1,0-1.5l-.4.7c.8,0,1.4-.8,1.2-1.5l-.4.6c.6,0,1.2-.2,1.5-.7.2-.3.3-.6.2-.9s-.2-.5,0-.9h-.8c.2.3.7.4,1,.2.3-.3,0-.7.4-.9h-.6c.4.4,1.2.2,1.3-.4h-.8c0,.4.5.5.8.4.4,0,.5-.5.6-.8,0-.6-.8-.8-.9-.2v.2s.2-.2.3,0c0-.4-.8-.3-.8,0h.2c-.2-.2-.4-.2-.6,0-.2,0-.3.3-.4.5v.3h0c0,.2.1.2.4,0-.2-.3-.6-.3-.8,0-.3.5-.3.9,0,1.4,0,.4-.4.6-.8.6s-.5.3-.4.6c0,.2,0,.4-.3.4s-.5.4-.4.7v1.1h.8v-.7c.2-.5-.7-.8-.9-.2h-.2Z"/>
          <path class="cls-3" d="M21.61,19.54c.2-.5,0-1.1-.7-1.2-.2,0-.4,0-.5.2-.3.6-.5,1.5.3,1.9.3,0,.7,0,.7-.4s-.3-.8-.8-.8-.4.2-.4.3c-.3.7.5,1.3,1.2,1,.2,0,.3-.4.2-.6-.3-.4-.8-.7-1.2-.4-.4.2-.6.7-.4,1.1.6,1,2-.2,1.8-1.1,0-.5-.7-.7-1.1-.6s-1.1.3-1.1.8.6.8,1,.6.5-.7.4-1.1c0-.5-.7-.8-1.1-.6s-.6.8-.3,1.2,1,0,.7-.5c-.2-.4-.7-.8-1.2-.6s-.4,1-.2,1.4l.4-.6c-.4,0-1.1,0-1.2.5,0,.4.2.8.6.8s.8-.5.7-.9c0-.5-.7-.6-1.1-.5-.2,0-.3.2-.3.3,0,.4,0,.9.3,1.2l.4-.8c-.4-.2-.9,0-1.2.3-.4.4-.4.9-.4,1.4s.8.6.9,0c.2-.7-.5-1.4-1.2-1.2-.8.2-1,1-.8,1.8v-.4.2s-.2.3,0,.4v.4l.7-.5c-.3-.2-.7,0-1,.2-.2.3-.2.9-.3,1.3h-.3c-.2,0-.3,0-.5.2-.3.3-.2.7,0,.9.5.3.9-.5.5-.8h0l.2.2c-.2.2-.3.3,0,.3h.3c.2,0,.3-.2.4-.4v-1.2s0-.2-.2,0c.3.2.8,0,.7-.5v-.4.4-.2s.2-.3,0-.4v-.6h1.1c0-.2,0-1,.5-.8.4.2.7-.4.4-.8v-.3l-.3.3h0v-.3c0,.6.4.4.7.4s.5-.3.4-.6c0,0-.2-.5,0-.6l-.3.2c-.2,0,0,0,0,0v.2l.7-.5v.3h0c0,.4,0,.5.3.4h.3c.2,0,0,0,0,.2h0l.2.3c0,.2,0,0,0,0l.2-.6s0,.3,0,0l-.4.3h0l.7-.5c-.2,0,0-.4,0-.6l-.5.2h0c0,.2,0,.5.3.6.3,0,.5,0,.6-.3h0v.2l.2.3h0Z"/>
          <path class="cls-3" d="M58.49,21.75c0,.4,0,.7.2.9.1.2.5.2.6,0,.3-.3.3-.7.3-1.1s-1-.4-.9,0c0,.3,0,.7.3.9s.6,0,.8,0c.3-.4.3-1.1,0-1.5-.2-.2-.4-.2-.6,0-.5.4-.2,1.2.4,1.3.7,0,1.1-.6.9-1.2l-.6.6c.9.3,1.7-.5,1.4-1.4-.2-.5-.8-.4-.9,0,0,.2,0,.4.2.6.2.3.7.3.8,0v-.2h-.8c0,.3.3.6.6.6s.6-.3.7-.6h-.8c.3.5.6.9.9,1.3.3.4.5.7,1,.5l-.7-.3c.1.6.3,1.3.5,1.9v.7s0,.3.1.4c0,0,.2.2.2.3v-.2h0v-.2c-.1.3-.3.6-.2,1,0,.3.2.6.5.8.4.3.8-.2.6-.6-.1-.3-.4-.5-.6-.7-.2,0-.5,0-.6.2-.2.4,0,.8.4.9.5,0,.7-.4.7-.8s-.3-.9-.4-1.3c0-.2-.1-.4-.2-.6,0,0-.2-.5-.2-.7l-.6.2c.1,0,.2,0,.3.2.2,0,.5,0,.6-.2.2-.5,0-.9-.3-1.4s-.4-.9-.5-1.4c0-.2-.3-.4-.6-.3-.6.2-.6.8-.3,1.2.3.4.8.2.8-.2s-.1-1.1-.7-1.2-1,.5-.8,1c.1.4.7.4.9,0,.2-.5-.3-1.2-.9-1s-.7.8-.4,1.2c.2.3.8,0,.8-.3,0-.7-.8-1.1-1.4-.7-.1,0-.2.2-.3.3,0,0-.2.3,0,0,.2-.2,0,0,0,0-.4,0-.6.3-.7.6-.2.5.7.8.9.2h.2c.1,0,.3,0,.4-.2,0,0,.1-.2.1-.3h0l.8-.3s.1.3,0,.3h-.2c.2,0,0,0,0,0h.9c0-.2,0,0-.2,0h0v.3l.8-.2h0c0-.2-.1,0-.2,0l-.6-.3c0,.4.2.8.3,1.2,0,.2.2.4.3.5v.2c.1,0,.1.2.2.2l.6-.2c-.1,0-.2,0-.3-.2-.2,0-.5,0-.6.2-.3.6,0,1.1.2,1.7,0,.3.2.6.3.9,0,0,0,.3.1.4v.2h.6v.2h0l-.6.2c.2,0,.2.2.3.4l.6-.6c-.3-.2,0-.4.1-.6,0-.2,0-.4-.1-.6-.1,0-.2,0,0-.3.2-.5,0-.8-.2-1.3s-.3-.9-.3-1.4-.4-.4-.7-.3h.3s-.1-.2-.2-.3l-.2-.3c-.2-.2-.4-.5-.5-.7-.2-.3-.7-.3-.8,0h.2l.2.2c0-.5-.7-.6-.9,0v.2h.8v-.2h-.9c0,.4,0,.5-.3.4s-.7.2-.6.6h0s.3,0,.2.3h-.6v.3h.5-.9v.3h.6c.1-.6-.7-.8-.9-.2h0l-.2-.4h0Z"/>
          <path class="cls-3" d="M58.29,20.05h0v1c0,.2.2.5.4.4.3,0,.4-.2.4-.4v-1.3s-.1-.2-.2-.3h-.3c-.1,0-.2,0-.3.2h0v.3h0v.1Z"/>
        </g>
      </g>
      <g>
        <path class="cls-10" d="M51.59,128.02v2.12c-.19,2.51-.87,4.83-1.83,6.86-1.93,4.06-5.21,6.76-8.98,6.76s-5.41-1.54-7.34-4.15c-2.12-2.9-3.48-7.05-3.48-11.59s1.83-10.14,4.73-12.94c1.35-1.35,2.99-2.32,4.73-2.7.48,0,.97-.19,1.45-.19,5.21,0,9.66,5.41,10.62,12.55.19,1.06.19,2.12.19,3.28h-.1Z"/>
        <path class="cls-9" d="M51.59,128.02v2.12c-.19,2.51-.87,4.83-1.83,6.86-1.74,1.74-3.86,2.8-6.18,2.8-5.99,0-10.91-7.05-10.91-15.74s.68-6.47,1.93-8.98c1.35-1.35,2.99-2.32,4.73-2.7.48,0,.97-.19,1.45-.19,5.99,0,10.91,7.05,10.91,15.74h-.1v.1Z"/>
        <path class="cls-1" d="M51.59,128.02v2.12c-1.64,2.7-3.96,4.44-6.57,4.44-4.83,0-8.69-5.7-8.69-12.65s1.16-7.34,3.09-9.56c.48,0,.97-.19,1.45-.19,5.99,0,10.91,7.05,10.91,15.74h-.19v.1Z"/>
      </g>
      <g>
        <path class="cls-7" d="M75.82,104.36h0c3.86-.77,5.7-5.31,3.77-9.08l-13.52-22.5c-2.03-3.57-6.37-4.92-9.75-2.99h0c-3.96,2.32-4.92,7.92-2.03,11.49l15.84,20.76c1.35,1.83,3.57,2.61,5.6,2.12h0v.19h.1Z"/>
        <path class="cls-6" d="M62.11,68.73c3.77,2.22,8.88,7.15,13.61,18.73l-12.46,8.11s-11.97-15.06-11.68-21.63c.1-4.54,6.57-7.53,10.62-5.21h-.1Z"/>
        <path class="cls-7" d="M76.11,94.51h0c-1.54-.19-2.9.48-4.06,1.64l-20.47,22.98,5.99,4.54,21.34-19.89c3.28-2.99,1.64-8.79-2.7-9.27h-.1Z"/>
        <path class="cls-7" d="M45.31,123.58l8.21-5.99,5.02,5.6s-.19,0-.29.19c-.39,9.56-5.41,13.04-5.41,13.04-4.73,3.57-6.08,2.32-6.37.68-.19-1.16.29-2.32.87-3.19,2.9-4.06,4.44-10.91,4.44-10.91-7.53,3.86-6.08.68-6.08.68h-.39v-.1Z"/>
      </g>
      <g>
        <path class="cls-7" d="M4.66,104.65h0c-3.86-.68-5.79-5.21-3.96-8.98l13.13-22.69c1.93-3.67,6.28-5.12,9.66-3.09h0c3.96,2.22,5.02,7.82,2.22,11.49l-15.45,21.05c-1.35,1.83-3.57,2.61-5.6,2.22h0Z"/>
        <path class="cls-6" d="M17.6,68.73c-3.67,2.32-8.69,7.34-13.23,19.02l12.65,7.92s11.68-15.35,11.3-21.82c-.19-4.54-6.66-7.44-10.72-5.02h0v-.1Z"/>
        <path class="cls-7" d="M3.89,94.8h0c1.54-.19,2.99,0,4.25,1.35l22.79,20.86-5.41,5.02L2.24,104.36c-3.57-2.7-2.41-8.69,1.93-9.46h-.29v-.1Z"/>
        <path class="cls-7" d="M37.59,124.06l-6.95-7.53-5.89,4.54s0,.19.19.19c-1.26,9.56,2.9,13.9,2.9,13.9,4.06,4.35,5.6,3.38,6.08,1.83.39-1.16.19-2.32-.39-3.38-2.03-4.54-2.22-11.49-2.22-11.49,6.76,5.31,5.89,1.83,5.89,1.83h.39v.1Z"/>
      </g>
    </g>
  </g>
</svg>