<?xml version="1.0" encoding="UTF-8"?>
<svg id="Ebene_2" data-name="Ebene 2" xmlns="http://www.w3.org/2000/svg" viewBox="0 0 107.06 256.91">
  <defs>
    <style>
      .cls-1 {
        fill: #010101;
      }

      .cls-2 {
        fill: #3e2318;
        isolation: isolate;
      }

      .cls-3 {
        fill: #fff;
      }

      .cls-4 {
        fill: #113622;
      }

      .cls-5 {
        fill: #824a2b;
      }

      .cls-6 {
        fill: #5a4034;
      }

      .cls-7 {
        fill: #783640;
      }

      .cls-8 {
        fill: #4770a2;
      }

      .cls-9 {
        fill: #684127;
      }
    </style>
  </defs>
  <g id="Ebene_1-2" data-name="Ebene 1">
    <g id="swahili-boy-waving">
      <g>
        <path class="cls-5" d="M30.04,108.5h0c-3.5,0-6-4.2-5-8.4l7.4-26.8c1-4.3,4.6-6.6,8-5.5h0c3.9,1.4,5.8,6.9,4,11.6l-10.3,24.8c-.8,2.2-2.2,4.3-4.1,4.3h0Z"/>
        <path class="cls-8" d="M35.04,68.5c-3.4,3.1-7.9,9.6-11.2,23.2l13.4,6.6,1.9-5.4c4.3-8.1,7.7-15.6,6.9-20.8-.6-5-7.4-7.1-11.3-3.6h.3Z"/>
        <g>
          <path class="cls-5" d="M32.04,107h0c.6-1.5.6-3.3,0-4.8l-13.6-30.8-5.8,4.3,10.6,30.4c1.7,4.7,7.2,5.2,8.9.9h-.1Z"/>
          <path class="cls-5" d="M14.34,61.9l4.3,10.1-5.8,4.3v-.5c-8.8-2.5-11.4-8.7-11.4-8.7-2.5-6-1.3-7.1.3-7.1s2.1.7,2.8,1.6c3.3,4.1,9.3,7.1,9.3,7.1-2.5-9.1.3-6.8.3-6.8h.2Z"/>
        </g>
      </g>
      <g>
        <path class="cls-5" d="M83.34,100.6h0c-.8,1.4-1.1,3.1-.7,4.8l8,32.5,6.4-3.2-5.2-31.7c-.8-4.9-6.1-6.3-8.6-2.4h.1Z"/>
        <path class="cls-5" d="M86.54,109.1h0c3.5,0,6-4.2,5-8.4l-7.4-26.7c-1-4.3-4.6-6.6-8-5.5h0c-3.8,1.4-5.8,7-3.9,11.5l10.2,24.7c.8,2.2,2.2,4.3,4.1,4.4h.1-.1Z"/>
        <path class="cls-8" d="M81.44,69.2c3.4,3.1,7.8,9.6,11.1,23.2l-13.4,6.6-1.9-5.3c-4.4-8.1-7.7-15.6-7-20.8.6-5,7.4-7.1,11.2-3.6h-.1l.1-.1Z"/>
        <path class="cls-5" d="M92.94,147.9l-2.5-10.7,6.4-3.2v.4c8.1,3.9,9.6,10.5,9.6,10.5,1.5,6.3,0,7.2-1.6,6.9-1-.2-1.9-1-2.5-2.1-2.5-4.6-8-8.5-8-8.5.8,9.3-1.6,6.6-1.6,6.6h0s0,.1.1.1h.1Z"/>
      </g>
      <g>
        <path class="cls-5" d="M77.64,206.2c-1.4,19.4-4.1,39.6-4.7,39.6l-6-.4-1.9-40-1.5-30v-1.2c0-.4,0-.8.2-1.2.8-3.2,3.7-5.5,7.2-5.2,3.8.3,6.6,3.5,6.4,7.4,1.4,6,1,18.5.2,31.3h0v-.3h.1Z"/>
        <path d="M65.14,251.8c0,1.2.7,2.2,1.7,2.8.9.6,23.6,2.5,24.2,2.3,5.2-2.5-18.3-11.6-18.3-11.6l-6.3.2s-1.4,5.1-1.1,6.4h0c0-.1-.1-.1-.1-.1h-.1Z"/>
        <g>
          <path class="cls-5" d="M78.44,135.9l-.8,28.3-.2,8.5c0,3.9-3.2,7.2-7.2,7.4-4.2.2-6.9-3-7.2-7.2l-.9-8.7-2.8-26.7v-.8c0-5,3.8-9.1,8.8-9.6,5.3-.4,10,3.5,10.4,8.8h-.1,0Z"/>
          <path class="cls-4" d="M78.44,135.9l.4,27.2c0,.5-.4,1-1,1h-17.3c-.5,0-1-.4-1-1l-.2-25.7v-.8c0-5,3.8-9.1,8.8-9.6,5.3-.4,10,3.5,10.4,8.8h0l-.1.1Z"/>
        </g>
      </g>
      <g>
        <path class="cls-5" d="M37.54,206.2c1.4,19.4,4.1,39.6,4.7,39.6l6-.4,1.9-40,1.5-30v-1.2c0-.4,0-.8-.2-1.2-.8-3.2-3.7-5.5-7.2-5.2-3.8.3-6.8,3.5-6.4,7.4-1.4,6-1,18.5-.2,31.3h0v-.3h-.1Z"/>
        <path d="M49.64,251.8c0,1.2-.7,2.2-1.7,2.8s-23.6,2.5-24.2,2.3c-5.2-2.5,18.3-11.6,18.3-11.6l6.3.2s1.4,5.1,1.1,6.4h0c0-.1.1-.1.1-.1h.1Z"/>
        <g>
          <path class="cls-5" d="M55.74,136.7v.7l-2.5,26.8-.8,8.6c-.3,4.2-3,7.4-7.2,7.3-3.9-.2-7.1-3.3-7.3-7.3l-.3-8.5-1.1-28.1c.4-5.3,5-9.2,10.3-8.9,5.1.3,8.9,4.6,8.9,9.6h0v-.2h0Z"/>
          <path class="cls-4" d="M55.74,136.7v.7l-.8,25.9c0,.5-.4.9-.9.9h-16.9c-.5,0-.9-.4-.9-.9l.4-27.2c.4-5.3,5-9.2,10.3-8.9,5.1.3,8.9,4.6,8.9,9.6h-.1v-.1Z"/>
        </g>
      </g>
      <path class="cls-8" d="M79.94,68.1l-1.1,6.8-4.3,26c-1,4.1-1.2,8.2-.6,12.3h-32.6c1.6-4.7,2-9.6,1.1-14.4l-4.1-23.5-1.2-7,1.2-.7,16.3-10.3h9.5l14.7,10.2,1.1.7h-.1.1v-.1Z"/>
      <path class="cls-4" d="M78.34,138.7l-18.2,7.8h-5.4l-18.2-7.6c-.5-5.2.3-13.1,1.8-18.2.4-1.5.9-2.9,1.5-4.2.5-1.1,1-2.3,1.4-3.5h32.6c.3,1.9.7,3.8,1.4,5.6.7,2.2,1.5,4.9,1.9,8.1.5,3.1,1.7,7.9,1.1,11.9h.2l-.1.1Z"/>
      <path class="cls-8" d="M67.74,59.6h0c-2.5,8.3-14.1,8.6-17.1.5v-.3l4.3-2.7h9.5l3.6,2.5h-.3Z"/>
      <g>
        <path class="cls-9" d="M59.24,60.8h0c-2.6,0-4.7-2.1-4.7-4.7v-7h9.6v7c0,2.6-2.1,4.7-4.7,4.7h-.2Z"/>
        <path class="cls-5" d="M81.04,24.9c-.7-.4-1.6-.4-2.6,0-.6.2-1.2.6-1.7,1.1-.5-5.2-2.3-10.5-4.8-14.6-1.7-2.9-3.9-5.1-6.3-6.6-2.6-1.5-5.4-2.4-8.3-2.4-9.7.2-17.4,11.2-18.4,23.8-1.2-.7-2.6-1.1-3.7-.7-1.2.5-1.5,1.7-1.2,3.4.1.4.2.7.4,1.1.1.3.4.5.4.8,1.6,4.3,3.4,3.5,4.1,2.8h.3c.6,4.1,2.2,7.8,4.3,10.8,3.8,5.5,9.3,8.7,14,8.7h1c4.4.2,10.4-3.4,14.4-9.4,2.1-3.1,3.6-6.8,4-10.9l.4.6c.8.7,2.2.5,4.3-3.2,1.3-2.3,1-4.6-.6-5.4h0v.1Z"/>
        <g>
          <path d="M64.84,42.5s-.1,2.5-1.7,4.1c-.9.9-2.2,1.7-4.1,1.7,0,0-2.8.2-4.5-1.7-.8-.8-1.3-2.1-1.3-4.1h11.6Z"/>
          <path class="cls-7" d="M63.14,46.6c-.9.9-2.2,1.7-4.1,1.7,0,0-2.8.2-4.5-1.7,1.7-.8,5.1-1.7,8.6,0Z"/>
          <polygon class="cls-3" points="63.54 42.5 62.84 43.9 54.74 43.9 54.14 42.5 63.54 42.5"/>
        </g>
        <path class="cls-1" d="M46.14,25c.2,0,.4,0,.5-.3,1.7-3.4,4.8-2,4.9-1.9.3,0,.6,0,.8-.3,0-.3,0-.6-.3-.8-1.4-.6-4.7-1-6.5,2.4,0,.3,0,.6.2.8h.3l.1.1Z"/>
        <path class="cls-1" d="M64.44,22.3s.3.2.5,0c3-1.1,4.2,1.3,4.2,1.4,0,.2.4.3.6.2.2,0,.3-.4.2-.6-.5-1.2-2.4-3.3-5.5-2-.2,0-.4.4-.3.6v.2h.2l.1.2Z"/>
        <path class="cls-1" d="M49.84,27.5c0,1.1.7,2.2,1.5,2.2s1.6-1,1.6-2.2-.7-2.2-1.5-2.2-1.6,1-1.6,2.2Z"/>
        <path class="cls-1" d="M64.44,27.5c0,1.1.7,2.2,1.5,2.2s1.6-1,1.6-2.2-.7-2.2-1.5-2.2-1.6,1-1.6,2.2Z"/>
        <path class="cls-2" d="M61.64,35.8c0,1.4-1.1,2.6-2.6,2.6s-2.6-1.1-2.6-2.6,1.1,1.4,2.6,1.4,2.6-3,2.6-1.4Z"/>
        <path class="cls-6" d="M76.24,17.3c-.4-2.1-1-4-1.9-5.9-.1-.3-.3-.6-.4-.9-.3-.6-.6-1.1-1-1.6-.3-.5-.7-1-1.1-1.5s-.8-1-1.2-1.4c-.2-.2-.4-.4-.7-.6-.5-.4-.9-.8-1.4-1.2-.2-.2-.5-.4-.7-.5-.5-.3-1-.7-1.5-1-2.5-1.3-5.2-2.1-8.1-2.1s-1,0-1.5,0h-.1c-9.6.9-16.8,10.1-16.8,21.2v2.2c1.2-5.7,3.7-11.8,6.9-14.9,9-4,15.9-3,21.7-.6.8.3,1.3.2,1.9,1,2.5,3.8,5.9,10.3,6.5,15.7v-3.6c0-1.4,0-2.7-.1-4.1h-.2l-.3-.2Z"/>
        <g>
          <path class="cls-1" d="M52.24,4.6c.6,0,.6-.9,0-.9s-.6.9,0,.9h0Z"/>
          <path class="cls-1" d="M56.14,4c.6,0,.6-.9,0-.9s-.6.9,0,.9h0Z"/>
          <path class="cls-1" d="M54.44,5.3c.6,0,.6-.9,0-.9s-.6.9,0,.9h0Z"/>
          <path class="cls-1" d="M62.14,4c.6,0,.6-.9,0-.9s-.6.9,0,.9h0Z"/>
          <path class="cls-1" d="M59.14,3.8c.6,0,.6-.9,0-.9s-.6.9,0,.9h0Z"/>
          <path class="cls-1" d="M59.34,3.8c.6,0,.6-.9,0-.9s-.6.9,0,.9h0Z"/>
          <path class="cls-1" d="M61.84,4c.6,0,.6-.9,0-.9s-.6.9,0,.9h0Z"/>
          <path class="cls-1" d="M61.84,4c.6,0,.6-.9,0-.9s-.6.9,0,.9h0Z"/>
          <path class="cls-1" d="M61.84,4c.6,0,.6-.9,0-.9s-.6.9,0,.9h0Z"/>
          <path class="cls-1" d="M61.84,4c.6,0,.6-.9,0-.9s-.6.9,0,.9h0Z"/>
          <path class="cls-1" d="M64.34,6.8c.6,0,.6-.9,0-.9s-.6.9,0,.9h0Z"/>
          <path class="cls-1" d="M64.34,6.8c.6,0,.6-.9,0-.9s-.6.9,0,.9h0Z"/>
          <path class="cls-1" d="M65.24,5.3c.6,0,.6-.9,0-.9s-.6.9,0,.9h0Z"/>
          <path class="cls-1" d="M65.24,5.3c.6,0,.6-.9,0-.9s-.6.9,0,.9h0Z"/>
          <path class="cls-1" d="M61.84,4c.6,0,.6-.9,0-.9s-.6.9,0,.9h0Z"/>
          <path class="cls-1" d="M61.84,4c.6,0,.6-.9,0-.9s-.6.9,0,.9h0Z"/>
          <path class="cls-1" d="M61.34,5.3c.6,0,.6-.9,0-.9s-.6.9,0,.9h0Z"/>
          <path class="cls-1" d="M60.04,4.7v-.4s0-.2-.2-.3h-.7c-.1,0-.3.2-.3.4v.3s0,.2.1.3h.4c.2,0,.3-.2.4-.4v-.3s0-.2-.2-.3h-1.1v.5h0c0,.1,0,.2.2.3h.4-.3v-.2h.4-.4v.4h.6s0-.2.1-.3h.6Z"/>
          <path class="cls-1" d="M59.34,4.6c.6,0,.6-.9,0-.9s-.6.9,0,.9h0Z"/>
          <path class="cls-1" d="M58.54,3.7c.2,0,.3-.4.4-.6v-.8c-.1-.2-.4-.5-.7-.5s-.5.2-.5.4v.6h.7s.1,0,.1-.2,0-.4-.2-.5-.4,0-.5,0c-.2,0-.3.2-.3.4v.7s.1.2.2.2h.6v-.2c.1,0,.1-.4.1-.4-.1-.2-.3-.3-.5-.4h-.3c-.2,0-.3.2-.4.4v.4s.2.2.3.2h.4c.1,0,.2-.2.2-.3h-.4l.6-.6h-.4v-.2h0v-.2h.1c.2,0,.4.2.6.4v-.2h-.5s-.1.2-.1.3,0,.3.1.3h.6l-.2.8h0Z"/>
          <path class="cls-1" d="M56.64,2.4h.1-.5.1v.9h.3c.1,0,.3,0,.3-.2v-.5l-.3-.3h-.7c-.2,0-.3.2-.4.3s-.1.3,0,.5c0,0,0,.2.2.3h.7c.1,0,.2-.3.2-.5s-.1-.3-.2-.4h-.6s-.1.2-.1.3,0,.2.1.3h0l.7-.5h-.4.3v-.2h0l.2-.2h.1-.3c-.1,0-.2,0-.2.2,0,0-.1.2-.1.3v.2s.2.2.3.2h.8c.1,0,.2,0,.3-.2v-.4s-.1-.2-.2-.3h-.4l-.3.2h0Z"/>
          <path class="cls-1" d="M54.24,2.7c0,.2,0,.3.1.5l.9-.4-.3-.3c-.1-.1-.2-.2-.3-.2h-.7c-.1,0-.2.2-.2.3v.5l.8-.3h-.7c-.1,0-.2.2-.2.3,0,.2,0,.4.1.5h.6s.1-.2.1-.3,0-.2-.1-.3h0v.2h0v.2h0v.2h-.4.7s.1-.2.1-.3v-.3h0v.2h-.4,1.1s.2,0,.2-.2v-.4c0-.2-.1-.3-.1-.5s-.1-.2-.2-.3h-.4s-.2,0-.3.2h0v.4h0l-.4.2h0v.1Z"/>
          <path class="cls-1" d="M56.04,1.4v-.2h0v.3h-.2.6v-.3h0v-.3h0c0-.2-.1-.2-.2-.2h-.6s-.2,0-.2.2v.2h0v.6s0,.2.1.3h.9v-.5s-.1-.2-.2-.3h-.4.3-.3V.3h-.4c-.1,0-.2.2-.2.3v.4s0,.2.1.3h.6c.1,0,.1-.2.1-.3h0v.4h0Z"/>
          <path class="cls-1" d="M58.04,1.9h.4s.2,0,.2-.2c.1-.2,0-.4,0-.6-.2-.2-.4-.3-.7-.2-.2,0-.3.2-.4.3-.1.2-.1.4,0,.6,0,.2.1.3.2.4h.1c.1.2.1,0,.2.2h.5c.3,0,.7,0,.9-.4,0,0,.1-.2.1-.3s0-.3-.1-.3h-.8.1-.2.1-.1.1-.2.1-.6v-.2h.1-.3c-.1,0-.2,0-.3.2v.4s.1.2.2.3h.4v-.3h0v.1Z"/>
          <path class="cls-1" d="M61.84,2.5v-.3h0v-.5h-.9c-.1,0-.2,0-.3.2v.7h.7s.1,0,.2-.2v-.3h0v-.2s0-.2-.2-.3h-.6v.2c-.07,0-.1.07-.1.2v.5s.2.3.2.4h.7c.1,0,.2-.2.2-.3v-.4c-.1,0-.2-.3-.3-.4h-.4.4c0,.2,0,0,0,0h-.3.2-.1.1v.4s.2.2.3.2h.4c.1,0,.2-.2.2-.3h0l-.4.3h0v.1Z"/>
          <path class="cls-1" d="M58.04,4h-.5c-.4,0-.6.4-.4.7s.5.3.8.2c.1,0,.3-.2.4-.3.1-.2.2-.4.1-.6,0-.2-.2-.4-.5-.5s-.8,0-1,.3-.4.6-.3.9c0,0,0,.2.1.3,0,0,.1,0,.2.2h.4c.1,0,.2-.2.2-.3,0-.2,0-.4-.2-.5s-.3-.2-.6-.3c-.2,0-.5,0-.6.3s0,.5.3.6h.1-.1.2v-.3h0v-.2h.5c.1,0,.2.3.3.5h0v-.2h.2-.1.1-.1.1-.1.1-.1.4l-.4.7h.5c.2,0,.5-.2.5-.5s-.2-.5-.5-.5h0v-.5h0Z"/>
          <path class="cls-1" d="M52.64,2l-.3-.2h-.6c-.2,0-.5,0-.6.3-.1.2,0,.5.1.7.1,0,.3.2.5.2h.6c.1,0,.2,0,.3-.2v-.4s-.1-.3-.3-.3-.3,0-.4-.2h-.7c-.1,0-.3.2-.4.4-.2.2-.2.5,0,.7s.5.2.7,0l.3-.3h-.3.3-.1.2v-.3h0v-.2h.6c-.1,0-.3-.2-.4-.2h.1-.5c.2,0,.4,0,.5.2h.4c.1,0,.2,0,.3-.2v-.4s-.1-.2-.2-.3h0v.8h-.1v-.1Z"/>
          <path class="cls-1" d="M50.14,3.6h-.6l-.1.2c-.1,0,0,0,0,.2v.4c0,.1,0,.2.2.3h0v.2h.6v-.2h.1v-.3h0v-.2h-.9c-.1,0,0,0,0,0h0v.3h0s0,.2.1.2h.7v-.2h0s0-.3-.1-.4h-.9v.5h0c0,.1,0,.2.2.3h0v-.2h.4-.1v.2h-.4.2v-.2h.4-.1.2-.1.4v-.3s0-.2-.1-.3-.2,0-.3,0h0l.2-.5h0Z"/>
          <path class="cls-1" d="M48.44,4.7h-1.9c-.2,0-.4.2-.4.4-.1.4.1.7.4.9.4.3,1.3.5,1.5-.2,0-.3,0-.6-.2-.8s-.6-.4-.9,0c-.2,0-.2.3-.3.5v.4c0,.3.3.6.6.7l-.2-.8c-.2.3-.5.5-.5.9s0,.5.3.6.5,0,.6-.3c0,0,.1-.3.2-.4v-.4s-.2-.2-.3-.2c-.3,0-.5,0-.6.3,0,0-.1.3-.2.4l.9.3h0v-.3h.1c.1-.2.2-.4.1-.6,0-.2-.2-.3-.3-.3h0v-.2h0s-.1.2-.2.2h-.2s.1-.2.2-.2h.1-.2.1-.2v.2h-.2,1.1-.1.8s.2-.2.2-.3c0-.2,0-.5-.3-.6h-.1v-.2h.1Z"/>
          <path class="cls-1" d="M51.24,6l.3-.2h.2c.1,0,.2-.2.3-.4,0-.4-.3-.7-.6-.8h-.6c-.1,0-.3.2-.3.3s-.1.3-.1.4c0,.2,0,.4.2.5l.3.3h.5s.1,0,.2-.2v-.4s-.2-.3-.3-.3c-.2,0-.5,0-.6.2v.6c.1.2.3.3.6.4s.5,0,.7-.3c0,0,.1-.2.1-.4v-.2h-.4c.2,0,.5,0,.6-.2s0-.5-.2-.6-.5-.2-.8,0c-.1,0-.2.3-.2.5v.2h.4v.2h-.4c-.1,0-.2-.2-.3-.3h0v-.2h0v-.2h.5-.4.1-.2v-.3h-.5c-.1.2-.2.3-.2.4v.4s.2.2.3.2h.4s.4.4.4.4Z"/>
          <path class="cls-1" d="M55.34,4.3c-.2,0-.4,0-.5.3-.1.2-.1.5,0,.6.1.2.4.3.7.2.3,0,.5-.4.4-.7,0-.2-.2-.3-.3-.4-.2,0-.3-.2-.5-.2-.3,0-.6,0-.8.3l.7.5c0-.2.1-.5,0-.7,0,0-.1-.2-.2-.3-.1,0-.2,0-.4-.2h.1c.1-.3,0-.6-.2-.7s-.5,0-.6.2-.2.4-.2.7v.3s.1.2.2.3h.2-.1c0,.2,0,.4.2.5s.4,0,.5,0h.3-.1.2-.1.1-.1.1-.1.2v-.2h.4-.1.1c.1,0,.2,0,.3-.2v-.4s-.1-.2-.2-.3h-.4l.2.6v-.2h0Z"/>
          <path class="cls-1" d="M63.34,4.1s.1,0,.2.2h.7c.2,0,.3-.4.4-.6v-.5c0-.2-.2-.5-.5-.6-.2,0-.5,0-.6.2v.5c0,.2.2.4.4.5h.5c.2,0,.3-.2.4-.3.1-.2.1-.4,0-.6,0,0-.1-.2-.2-.3s-.2-.2-.3-.2h-.7c-.1,0-.2.2-.2.3v.4s.2.2.3.2h.4-.2.1-.2.4-.4.4-.7s-.2.2-.2.3v.4h0v.1Z"/>
          <path class="cls-1" d="M63.04,4.8h-.6v.2h0v.2h0s0,.2.1.2c0,0,.2,0,.3.2h.4s0-.2.1-.3c0-.2.1-.5.1-.7v-.2h-.6v.3h0s0,.3-.1.4l.6-.3h.1-.3.5v-.6h0c0-.2-.1-.2-.2-.2h0l-.4.9h0v-.1Z"/>
          <path class="cls-1" d="M68.54,4.8v-.5s-.1-.2-.2-.2h-.6c-.1,0-.3.3-.3.6v.3h.1s.1.2.2.2h.7c.1,0,.2,0,.2-.2h0v-1c-.1,0-.2-.2-.3-.2h-.9v.5s.1.2.2.3h.4-.3.4-.4v.2s.2.2.3.2h.4s.2-.2.2-.3h-.1v.1Z"/>
          <path class="cls-1" d="M65.64,3.6h-.1.3c.1,0,.2,0,.3-.2h0v-.9h-.6s-.1,0-.2.2h0v.4h.3-.5v.3h0c0,.2,0,.3.1.3h.2l.2-.2h0v.1Z"/>
          <path class="cls-1" d="M63.34,1.8l-.3-.6-.5.7h-.1.5v-.2h-.3.1-.2.3v.2h0v-.4h-.6s-.1.2-.1.3v.4s.1.2.2.3h.9c.1,0,.2,0,.3-.3h0c0-.2,0-.4,0-.2h0c0-.2-.1-.3-.2-.4h-.2c-.2,0-.3-.2-.5-.2h-.3s-.1,0-.1.2h0v.2h0v.3l.3.6h.7c.1,0,.2-.2.2-.3h0v-.4h0v-.2h-.1,0Z"/>
          <path class="cls-1" d="M53.84,2h.4s0-.2.1-.3,0,0,0-.2h0v-.4h-.6v.3h.2-.3v.3h0c0,.2,0,.3.1.3h.2-.1Z"/>
          <path class="cls-1" d="M49.24,7h0v-.2h0v-.2h0v-.2h0v-.2h-.4s-.1,0-.2.2,0,.2,0,.2v.2l.2.2.2.2h.7v-.5h0c0-.1,0-.2-.2-.3l-.2-.2v.8h-.4v.5h0c0,.2.2.2.2.2h.3l-.2-.6h0v-.1Z"/>
          <path class="cls-1" d="M49.04,3.7h.2v-.2h0v-.4h0v-.2h-.5v.3h0v.2h.6v-.6h0c0-.2-.1-.2-.2-.2h-.3.4v.2h0v.2h0v.2h-.4v-.3h0v-.3h0v-.3h.2-.3v.3h0c0,.2,0,.3.1.3h.2v.7h0v.1Z"/>
          <path class="cls-1" d="M52.74,4.7c.6,0,.6-.9,0-.9s-.6.9,0,.9h0Z"/>
          <path class="cls-1" d="M52.84,5.3c.6,0,.6-.9,0-.9s-.6.9,0,.9h0Z"/>
          <path class="cls-1" d="M67.64,5.5h-.2v.6h0v.2h.8s.1,0,.1-.2v-.4h-.8v.2h0v.4h0c0,.2.1.2.2.2h-.1v-.2h.4-.1.3v-.5h0c0-.1,0-.2-.2-.3h-.4,0Z"/>
          <path class="cls-1" d="M65.44,6.1c.6,0,.6-.9,0-.9s-.6.9,0,.9h0Z"/>
          <path class="cls-1" d="M65.84,5.4c.6,0,.6-.9,0-.9s-.6.9,0,.9h0Z"/>
          <path class="cls-1" d="M63.74,6.6c.6,0,.6-.9,0-.9s-.6.9,0,.9h0Z"/>
          <path class="cls-1" d="M65.34,7c.6,0,.6-.9,0-.9s-.6.9,0,.9h0Z"/>
          <path class="cls-1" d="M64.14,6.7c.6,0,.6-.9,0-.9s-.6.9,0,.9h0Z"/>
          <path class="cls-1" d="M64.64,6.8c.6,0,.6-.9,0-.9s-.6.9,0,.9h0Z"/>
          <path class="cls-1" d="M64.64,6.2c.6,0,.6-.9,0-.9s-.6.9,0,.9h0Z"/>
          <path class="cls-1" d="M61.14,6.1c.6,0,.6-.9,0-.9s-.6.9,0,.9h0Z"/>
          <path class="cls-1" d="M60.74,5.2c.6,0,.6-.9,0-.9s-.6.9,0,.9h0Z"/>
          <path class="cls-1" d="M60.24,2.9c.6,0,.6-.9,0-.9s-.6.9,0,.9h0Z"/>
          <path class="cls-1" d="M60.34,3.3c.6,0,.6-.9,0-.9s-.6.9,0,.9h0Z"/>
          <path class="cls-1" d="M60.44,1.4c.6,0,.6-.9,0-.9s-.6.9,0,.9h0Z"/>
          <path class="cls-1" d="M45.54,7.6c.6,0,.6-.9,0-.9s-.6.9,0,.9h0Z"/>
          <path class="cls-1" d="M44.64,8.1c.6,0,.6-.9,0-.9s-.6.9,0,.9h0Z"/>
          <path class="cls-1" d="M43.64,9.7c.6,0,.6-.9,0-.9s-.6.9,0,.9h0Z"/>
          <path class="cls-1" d="M44.04,10.1c.6,0,.6-.9,0-.9s-.6.9,0,.9h0Z"/>
          <path class="cls-1" d="M43.94,9.4c.6,0,.6-.9,0-.9s-.6.9,0,.9h0Z"/>
          <path class="cls-1" d="M45.14,8.2c.6,0,.6-.9,0-.9s-.6.9,0,.9h0Z"/>
          <path class="cls-1" d="M45.24,9.4c.6,0,.6-.9,0-.9s-.6.9,0,.9h0Z"/>
          <path class="cls-1" d="M45.24,8.3c.6,0,.6-.9,0-.9s-.6.9,0,.9h0Z"/>
          <path class="cls-1" d="M45.74,6.9c.6,0,.6-.9,0-.9s-.6.9,0,.9h0Z"/>
          <path class="cls-1" d="M47.44,8c.6,0,.6-.9,0-.9s-.6.9,0,.9h0Z"/>
          <path class="cls-1" d="M57.64,6.4c.6,0,.6-.9,0-.9s-.6.9,0,.9h0Z"/>
          <path class="cls-1" d="M53.64,6.4c.6,0,.6-.9,0-.9s-.6.9,0,.9h0Z"/>
          <path class="cls-1" d="M57.24,6.3c.6,0,.6-.9,0-.9s-.6.9,0,.9h0Z"/>
          <path class="cls-1" d="M58.14,6.3c.6,0,.6-.9,0-.9s-.6.9,0,.9h0Z"/>
          <path class="cls-1" d="M68.64,6.7c.6,0,.6-.9,0-.9s-.6.9,0,.9h0Z"/>
          <path class="cls-1" d="M70.04,8.6c.6,0,.6-.9,0-.9s-.6.9,0,.9h0Z"/>
          <path class="cls-1" d="M70.04,7.9c.6,0,.6-.9,0-.9s-.6.9,0,.9h0Z"/>
          <path class="cls-1" d="M70.34,7.4c.6,0,.6-.9,0-.9s-.6.9,0,.9h0Z"/>
          <path class="cls-1" d="M70.84,8.1c.6,0,.6-.9,0-.9s-.6.9,0,.9h0Z"/>
          <path class="cls-1" d="M67.64,8c.6,0,.6-.9,0-.9s-.6.9,0,.9h0Z"/>
          <path class="cls-1" d="M71.34,7.4c.6,0,.6-.9,0-.9s-.6.9,0,.9h0Z"/>
          <path class="cls-1" d="M69.74,5.9c.6,0,.6-.9,0-.9s-.6.9,0,.9h0Z"/>
          <path class="cls-1" d="M69.34,6.2c.6,0,.6-.9,0-.9s-.6.9,0,.9h0Z"/>
          <path class="cls-1" d="M66.64,6.4c.6,0,.6-.9,0-.9s-.6.9,0,.9h0Z"/>
          <path class="cls-1" d="M53.44,3.6c.6,0,.6-.9,0-.9s-.6.9,0,.9h0Z"/>
          <path class="cls-1" d="M61.24,4.1c.6,0,.6-.9,0-.9s-.6.9,0,.9h0Z"/>
          <path class="cls-1" d="M65.04,4.5c.6,0,.6-.9,0-.9s-.6.9,0,.9h0Z"/>
          <path class="cls-1" d="M71.84,10.6c.6,0,.6-.9,0-.9s-.6.9,0,.9h0Z"/>
          <path class="cls-1" d="M71.94,10.3c.6,0,.6-.9,0-.9s-.6.9,0,.9h0Z"/>
          <path class="cls-1" d="M72.04,10c.6,0,.6-.9,0-.9s-.6.9,0,.9h0Z"/>
          <path class="cls-1" d="M72.74,8.7c.6,0,.6-.9,0-.9s-.6.9,0,.9h0Z"/>
          <path class="cls-1" d="M73.04,9.6c.6,0,.6-.9,0-.9s-.6.9,0,.9h0Z"/>
          <path class="cls-1" d="M72.64,10.6c.6,0,.6-.9,0-.9s-.6.9,0,.9h0Z"/>
          <path class="cls-1" d="M71.04,10.3c.6,0,.6-.9,0-.9s-.6.9,0,.9h0Z"/>
          <path class="cls-1" d="M42.24,11.2c.6,0,.6-.9,0-.9s-.6.9,0,.9h0Z"/>
          <path class="cls-1" d="M42.54,11.1c.6,0,.6-.9,0-.9s-.6.9,0,.9h0Z"/>
          <path class="cls-1" d="M42.64,10.5c.6,0,.6-.9,0-.9s-.6.9,0,.9h0Z"/>
          <path class="cls-1" d="M42.64,11.7c.6,0,.6-.9,0-.9s-.6.9,0,.9h0Z"/>
          <path class="cls-1" d="M42.94,11.7c.6,0,.6-.9,0-.9s-.6.9,0,.9h0Z"/>
          <path class="cls-1" d="M50.24,6.7c.6,0,.6-.9,0-.9s-.6.9,0,.9h0Z"/>
          <path class="cls-1" d="M48.74,7.4c.6,0,.6-.9,0-.9s-.6.9,0,.9h0Z"/>
          <path class="cls-1" d="M51.64,3.8c.6,0,.6-.9,0-.9s-.6.9,0,.9h0Z"/>
          <path class="cls-1" d="M41.14,13.9c.6,0,.6-.9,0-.9s-.6.9,0,.9h0Z"/>
          <path class="cls-1" d="M41.64,13.8c.6,0,.6-.9,0-.9s-.6.9,0,.9h0Z"/>
          <path class="cls-1" d="M41.64,14.1c.6,0,.6-.9,0-.9s-.6.9,0,.9h0Z"/>
          <path class="cls-1" d="M41.94,13.2c.6,0,.6-.9,0-.9s-.6.9,0,.9h0Z"/>
          <path class="cls-1" d="M42.94,13.1c.6,0,.6-.9,0-.9s-.6.9,0,.9h0Z"/>
          <path class="cls-1" d="M44.94,10.2c.6,0,.6-.9,0-.9s-.6.9,0,.9h0Z"/>
          <path class="cls-1" d="M41.64,15.7c.6,0,.6-.9,0-.9s-.6.9,0,.9h0Z"/>
          <path class="cls-1" d="M40.94,15.4c.6,0,.6-.9,0-.9s-.6.9,0,.9h0Z"/>
          <path class="cls-1" d="M40.94,15.9c.6,0,.6-.9,0-.9s-.6.9,0,.9h0Z"/>
          <path class="cls-1" d="M40.64,17.6c.6,0,.6-.9,0-.9s-.6.9,0,.9h0Z"/>
          <path class="cls-1" d="M72.74,12.9c.6,0,.6-.9,0-.9s-.6.9,0,.9h0Z"/>
          <path class="cls-1" d="M73.14,11.9c.6,0,.6-.9,0-.9s-.6.9,0,.9h0Z"/>
          <path class="cls-1" d="M73.44,12.8c.6,0,.6-.9,0-.9s-.6.9,0,.9h0Z"/>
          <path class="cls-1" d="M74.64,12.2c.6,0,.6-.9,0-.9s-.6.9,0,.9h0Z"/>
          <path class="cls-1" d="M73.34,14.2c.6,0,.6-.9,0-.9s-.6.9,0,.9h0Z"/>
          <path class="cls-1" d="M74.04,11.6c.6,0,.6-.9,0-.9s-.6.9,0,.9h0Z"/>
          <path class="cls-1" d="M74.74,13.2c.6,0,.6-.9,0-.9s-.6.9,0,.9h0Z"/>
          <path class="cls-1" d="M74.54,15c.6,0,.6-.9,0-.9s-.6.9,0,.9h0Z"/>
          <path class="cls-1" d="M75.24,15.8c.6,0,.6-.9,0-.9s-.6.9,0,.9h0Z"/>
          <path class="cls-1" d="M75.04,15.4c.6,0,.6-.9,0-.9s-.6.9,0,.9h0Z"/>
          <path class="cls-1" d="M74.74,17.5c.6,0,.6-.9,0-.9s-.6.9,0,.9h0Z"/>
          <path class="cls-1" d="M75.44,17.7c.6,0,.6-.9,0-.9s-.6.9,0,.9h0Z"/>
          <path class="cls-1" d="M75.84,19.6c.6,0,.6-.9,0-.9s-.6.9,0,.9h0Z"/>
          <path class="cls-1" d="M39.74,19.6c.6,0,.6-.9,0-.9s-.6.9,0,.9h0Z"/>
          <path class="cls-1" d="M40.44,19c.6,0,.6-.9,0-.9s-.6.9,0,.9h0Z"/>
          <path class="cls-1" d="M40.34,17.3c.6,0,.6-.9,0-.9s-.6.9,0,.9h0Z"/>
          <path class="cls-1" d="M75.94,17.4c.6,0,.6-.9,0-.9s-.6.9,0,.9h0Z"/>
          <path class="cls-1" d="M49.44,7.3c.6,0,.6-.9,0-.9s-.6.9,0,.9h0Z"/>
          <path class="cls-1" d="M48.04,4.9c.6,0,.6-.9,0-.9s-.6.9,0,.9h0Z"/>
          <path class="cls-1" d="M50.94,3.5c.6,0,.6-.9,0-.9s-.6.9,0,.9h0Z"/>
          <path class="cls-1" d="M63.04,3.9c.6,0,.6-.9,0-.9s-.6.9,0,.9h0Z"/>
          <path class="cls-1" d="M66.94,4.8c.6,0,.6-.9,0-.9s-.6.9,0,.9h0Z"/>
          <path class="cls-1" d="M69.94,7.7c.6,0,.6-.9,0-.9s-.6.9,0,.9h0Z"/>
          <path class="cls-1" d="M69.74,8.2c.6,0,.6-.9,0-.9s-.6.9,0,.9h0Z"/>
          <path class="cls-1" d="M71.44,9.3c.6,0,.6-.9,0-.9s-.6.9,0,.9h0Z"/>
          <path class="cls-1" d="M67.94,8.1c.6,0,.6-.9,0-.9s-.6.9,0,.9h0Z"/>
          <path class="cls-1" d="M53.14,6.8c.6,0,.6-.9,0-.9s-.6.9,0,.9h0Z"/>
          <path class="cls-1" d="M46.84,8.2c.6,0,.6-.9,0-.9s-.6.9,0,.9h0Z"/>
          <path class="cls-1" d="M44.54,10.9c.6,0,.6-.9,0-.9s-.6.9,0,.9h0Z"/>
          <path class="cls-1" d="M42.74,13.7c.6,0,.6-.9,0-.9s-.6.9,0,.9h0Z"/>
          <path class="cls-1" d="M41.04,17.6c.6,0,.6-.9,0-.9s-.6.9,0,.9h0Z"/>
          <path class="cls-1" d="M73.24,14.8c.6,0,.6-.9,0-.9s-.6.9,0,.9h0Z"/>
          <path class="cls-1" d="M60.74,6.4c.6,0,.6-.9,0-.9s-.6.9,0,.9h0Z"/>
          <g>
            <path class="cls-1" d="M45.04,6.5c.6,0,.6-.9,0-.9s-.6.9,0,.9h0Z"/>
            <path class="cls-1" d="M51.44,2.4c.6,0,.6-.9,0-.9s-.6.9,0,.9h0Z"/>
            <path class="cls-1" d="M56.14,1.3c.6,0,.6-.9,0-.9s-.6.9,0,.9h0Z"/>
            <path class="cls-1" d="M56.64.9c.6,0,.6-.9,0-.9s-.6.9,0,.9h0Z"/>
            <path class="cls-1" d="M65.74,2.8c.6,0,.6-.9,0-.9s-.6.9,0,.9h0Z"/>
            <path class="cls-1" d="M66.04,3.1c.6,0,.6-.9,0-.9s-.6.9,0,.9h0Z"/>
            <path class="cls-1" d="M71.14,7.2c.6,0,.6-.9,0-.9s-.6.9,0,.9h0Z"/>
            <path class="cls-1" d="M69.34,5.4c.6,0,.6-.9,0-.9s-.6.9,0,.9h0Z"/>
            <path class="cls-1" d="M67.94,3.9c.6,0,.6-.9,0-.9s-.6.9,0,.9h0Z"/>
            <path class="cls-1" d="M48.24,3.7c.6,0,.6-.9,0-.9s-.6.9,0,.9h0Z"/>
            <path class="cls-1" d="M41.94,10.5c.6,0,.6-.9,0-.9s-.6.9,0,.9h0Z"/>
            <path class="cls-1" d="M40.64,13.5c.6,0,.6-.9,0-.9s-.6.9,0,.9h0Z"/>
            <path class="cls-1" d="M39.54,20.1c.6,0,.6-.9,0-.9s-.6.9,0,.9h0Z"/>
            <path class="cls-1" d="M76.34,19.2c.6,0,.6-.9,0-.9s-.6.9,0,.9h0Z"/>
            <path class="cls-1" d="M75.94,19.4c.6,0,.6-.9,0-.9s-.6.9,0,.9h0Z"/>
            <path class="cls-1" d="M75.64,19.2c.6,0,.6-.9,0-.9s-.6.9,0,.9h0Z"/>
            <path class="cls-1" d="M75.64,15.3c.6,0,.6-.9,0-.9s-.6.9,0,.9h0Z"/>
            <path class="cls-1" d="M70.94,6.3c.6,0,.6-.9,0-.9s-.6.9,0,.9h0Z"/>
            <path class="cls-1" d="M52.94,1.7c.6,0,.6-.9,0-.9s-.6.9,0,.9h0Z"/>
            <path class="cls-1" d="M58.84.9c.6,0,.6-.9,0-.9s-.6.9,0,.9h0Z"/>
            <path class="cls-1" d="M59.44,1.2c.6,0,.6-.9,0-.9s-.6.9,0,.9h0Z"/>
            <path class="cls-1" d="M56.04,6.1c.6,0,.6-.9,0-.9s-.6.9,0,.9h0Z"/>
            <path class="cls-1" d="M71.74,10.2c.6,0,.6-.9,0-.9s-.6.9,0,.9h0Z"/>
            <path class="cls-1" d="M73.74,10.7c.6,0,.6-.9,0-.9s-.6.9,0,.9h0Z"/>
            <path class="cls-1" d="M66.64,7.1c.6,0,.6-.9,0-.9s-.6.9,0,.9h0Z"/>
            <path class="cls-1" d="M40.04,16.9c.6,0,.6-.9,0-.9s-.6.9,0,.9h0Z"/>
            <path class="cls-1" d="M42.24,15.4c.6,0,.6-.9,0-.9s-.6.9,0,.9h0Z"/>
            <path class="cls-1" d="M70.04,9.4c.6,0,.6-.9,0-.9s-.6.9,0,.9h0Z"/>
            <path class="cls-1" d="M72.24,12.4c.6,0,.6-.9,0-.9s-.6.9,0,.9h0Z"/>
            <path class="cls-1" d="M74.84,17c.6,0,.6-.9,0-.9s-.6.9,0,.9h0Z"/>
            <path class="cls-1" d="M75.74,14.9c.6,0,.6-.9,0-.9s-.6.9,0,.9h0Z"/>
            <path class="cls-1" d="M74.94,12.9c.6,0,.6-.9,0-.9s-.6.9,0,.9h0Z"/>
          </g>
        </g>
      </g>
    </g>
  </g>
</svg>