<?xml version="1.0" encoding="UTF-8"?>
<svg id="boy" xmlns="http://www.w3.org/2000/svg" version="1.1" viewBox="0 0 93.45 248.64">
  <!-- Generator: Adobe Illustrator 29.3.1, SVG Export Plug-In . SVG Version: 2.1.0 Build 151)  -->
  <g>
    <path d="M22.88,98.13h0c.8,1.3,1.1,3,.7,4.6l-7.7,31.3-6.2-3.1,5-30.5c.8-4.7,5.9-6.1,8.3-2.3,0,0-.1,0-.1,0Z" fill="#b7815b"/>
    <path d="M19.78,106.33h0c-3.4.1-5.8-4-4.8-8.1l7.1-25.7c1-4.1,4.4-6.4,7.7-5.3h0c3.7,1.3,5.6,6.7,3.8,11.1l-9.8,23.8c-.8,2.1-2.1,4.1-3.9,4.2h-.1,0Z" fill="#b7815b"/>
    <path d="M24.68,67.93c-3.3,3-7.5,9.2-10.7,22.3l12.9,6.4,1.8-5.1c4.2-7.8,7.4-15,6.7-20-.6-4.8-7.1-6.8-10.8-3.5h0s0-.05,0,0c0,0,.1-.1.1-.1Z" fill="#e6e6e6"/>
    <path d="M13.58,143.73l2.4-10.3-6.2-3.1v.4c-7.8,3.8-9.2,10.1-9.2,10.1-1.4,6.1,0,6.9,1.5,6.6,1-.2,1.8-1,2.4-2,2.4-4.4,7.7-8.2,7.7-8.2-.8,9,1.5,6.4,1.5,6.4h0l-.1.1Z" fill="#b7815b"/>
  </g>
  <g>
    <path d="M70.58,98.13h0c-.8,1.3-1.1,3-.7,4.6l7.7,31.3,6.2-3.1-5-30.5c-.8-4.7-5.9-6.1-8.3-2.3,0,0,.1,0,.1,0Z" fill="#b7815b"/>
    <path d="M73.68,106.33h0c3.4.1,5.8-4,4.8-8.1l-7.1-25.7c-1-4.1-4.4-6.4-7.7-5.3h0c-3.7,1.3-5.6,6.7-3.8,11.1l9.8,23.8c.8,2.1,2.1,4.1,3.9,4.2h.1,0Z" fill="#b7815b"/>
    <path d="M68.78,67.93c3.3,3,7.5,9.2,10.7,22.3l-12.9,6.4-1.8-5.1c-4.2-7.8-7.4-15-6.7-20,.6-4.8,7.1-6.8,10.8-3.5h0s0-.05,0,0c0,0-.1-.1-.1-.1Z" fill="#e6e6e6"/>
    <path d="M79.88,143.73l-2.4-10.3,6.2-3.1v.4c7.8,3.8,9.2,10.1,9.2,10.1,1.4,6.1,0,6.9-1.5,6.6-1-.2-1.8-1-2.4-2-2.4-4.4-7.7-8.2-7.7-8.2.8,9-1.5,6.4-1.5,6.4h0v.1h.1Z" fill="#b7815b"/>
  </g>
  <g>
    <path d="M65.08,199.83c-1.3,18.7-3.9,38.1-4.5,38.1l-5.8-.4-1.8-38.5-1.4-28.9v-1.2c0-.4,0-.8.2-1.2.8-3.1,3.6-5.3,6.9-5,3.7.3,6.4,3.4,6.2,7.1,1.3,5.8,1,17.8.2,30.1h0v-.1h0Z" fill="#b7815b"/>
    <path d="M63.08,221.53c-1.1,9.5-2.1,16.4-2.5,16.4l-5.8-.4-.8-16h9.1Z" fill="#e6e6e6"/>
    <path d="M53.08,243.73c0,1.2.7,2.1,1.6,2.7.6.4,22.7,2.4,23.3,2.2,5-2.4-17.6-11.2-17.6-11.2l-6.1.2s-1.3,4.9-1.1,6.2h0v-.1h-.1Z" fill="#273758"/>
    <g>
      <path d="M65.88,132.13l-.8,27.2-.2,8.2c0,3.8-3.1,6.9-6.9,7.1-4,.2-6.6-2.9-6.9-6.9l-.9-8.4-2.7-25.7v-.8c0-4.8,3.7-8.8,8.5-9.2,5.1-.4,9.6,3.4,10,8.5h-.1Z" fill="#b7815b"/>
      <path d="M65.88,132.13l.4,26.2c0,.5-.4,1-1,1h-16.7c-.5,0-1-.4-1-1l-.2-24.7v-.8c0-4.8,3.7-8.8,8.5-9.2,5.1-.4,9.6,3.4,10,8.5Z" fill="#466e9f"/>
    </g>
  </g>
  <g>
    <path d="M26.48,199.83c1.3,18.7,3.9,38.1,4.5,38.1l5.8-.4,1.8-38.5,1.4-28.9v-1.2c0-.4,0-.8-.2-1.2-.8-3.1-3.6-5.3-6.9-5-3.7.3-6.5,3.4-6.2,7.1-1.3,5.8-1,17.8-.2,30.1h0v-.1h0Z" fill="#b7815b"/>
    <path d="M37.48,221.53l-.8,16-5.8.4c-.4,0-1.4-6.9-2.5-16.4,0,0,9.1,0,9.1,0Z" fill="#e6e6e6"/>
    <path d="M38.18,243.73c0,1.2-.7,2.1-1.6,2.7-.6.4-22.7,2.4-23.3,2.2-5-2.4,17.6-11.2,17.6-11.2l6.1.2s1.3,4.9,1.1,6.2h0v-.1h.1Z" fill="#273758"/>
    <g>
      <path d="M43.98,132.93v.7l-2.4,25.8-.8,8.3c-.3,4-2.9,7.1-6.9,7-3.8-.2-6.8-3.2-7-7l-.3-8.2-1.1-27.1c.4-5.1,4.8-8.9,9.9-8.6,4.9.3,8.6,4.4,8.6,9.2h0s0-.05,0,0c0,0,0-.1,0-.1Z" fill="#b7815b"/>
      <path d="M43.98,132.93v.7l-.8,24.9c0,.5-.4.9-.9.9h-16.3c-.5,0-.9-.4-.9-.9l.4-26.2c.4-5.1,4.8-8.9,9.9-8.6,4.9.3,8.6,4.4,8.6,9.2h0Z" fill="#466e9f"/>
    </g>
  </g>
  <path d="M67.28,66.83l-1.1,6.5-4.1,25c-1,3.9-1.2,7.9-.6,11.8h-31.4c1.5-4.5,1.9-9.2,1.1-13.9l-3.9-22.6-1.2-6.7,1.2-.7,15.7-9.9h9.1l14.2,9.8,1.1.7s-.1,0-.1,0Z" fill="#e6e6e6"/>
  <path d="M65.78,134.83l-17.5,7.5h-5.2l-17.5-7.3c-.5-5,.3-12.6,1.7-17.5.4-1.4.9-2.8,1.4-4,.5-1.1,1-2.2,1.3-3.4h31.4c.3,1.8.7,3.7,1.3,5.4.7,2.1,1.4,4.7,1.8,7.8.5,3,1.6,7.6,1.1,11.5h.2Z" fill="#466e9f"/>
  <path d="M55.58,58.73h0c-2.4,8-13.6,8.3-16.5.5v-.3l4.1-2.6h9.1l3.5,2.4s-.2,0-.2,0Z" fill="#466e9f"/>
  <g>
    <path d="M47.58,60.03h0c-2.5,0-4.5-2-4.5-4.5v-6.7h9.1v6.7c0,2.5-2,4.5-4.5,4.5h-.1Z" fill="#963"/>
    <path d="M69.07,30.93c-2,3.47-3.35,3.66-4.05,3.01l-.45-.61c-.4,3.9-1.8,7.5-3.8,10.4-3.8,5.7-9.5,9.1-13.7,8.9h-1c-4.5,0-9.7-3.1-13.3-8.3-2-2.9-3.5-6.4-4.1-10.3h-.3c-.74.7-2.29,1.5-3.9-2.6-.13-.34-.3-.5-.4-.8-.2-.4-.3-.7-.4-1.1h0c-.3-1.5,0-2.7,1.2-3.2h0c1-.4,2.3,0,3.5.7.9-11.9,8.3-22.4,17.5-22.6,2.8,0,5.5.8,7.9,2.3,2.3,1.4,4.3,3.6,6,6.3h0c2.4,3.9,4.1,8.9,4.6,13.9h0c.5-.5,1.1-.9,1.7-1.1.8-.4,1.7-.4,2.4,0,1.6.7,1.9,2.9.6,5.1" fill="#b7815b"/>
    <g>
      <path d="M35.18,25.93c.2,0,.4,0,.5-.3,1.7-3.2,4.6-1.9,4.7-1.8.3,0,.6,0,.8-.3,0-.3,0-.6-.3-.8-1.4-.6-4.5-1-6.2,2.3,0,.3,0,.6.2.8h.3s0,.1,0,.1Z" fill="#352300"/>
      <path d="M52.58,23.33s.3.2.5,0c2.8-1.1,4,1.3,4,1.4,0,.2.4.3.6.2.2,0,.3-.4.2-.6-.5-1.2-2.3-3.1-5.2-1.9-.2,0-.4.4-.3.6v.2h.2s0,.1,0,.1Z" fill="#352300"/>
      <path d="M38.68,28.23c0,1.1.7,2.1,1.5,2.1s1.6-1,1.6-2.1-.7-2.1-1.5-2.1-1.6,1-1.6,2.1Z" fill="#352300"/>
      <path d="M52.58,28.23c0,1.1.7,2.1,1.5,2.1s1.6-1,1.6-2.1-.7-2.1-1.5-2.1-1.6,1-1.6,2.1Z" fill="#352300"/>
      <path d="M42.38,42.23c.2.2,1.5,3.1,5,3,3.4,0,4.8-2.7,5-3" fill="none" stroke="#352300" stroke-linecap="round" stroke-miterlimit="10"/>
      <path d="M49.88,36.23c0,1.4-1.1,2.5-2.5,2.5s-2.5-1.1-2.5-2.5,1.1,1.4,2.5,1.4,2.5-2.8,2.5-1.4Z" fill="#963" isolation="isolate"/>
    </g>
    <path d="M39.2,2.33c.23-.16.16-.39.37-.51.28-.15.51.16.9.05.34-.1.33-.38.64-.46.36-.1.5.27,1.01.36.74.13,1.04-.53,1.92-.41.35.05.37.16.7.15.49-.02.61-.29,1.12-.41.32-.07.62,0,1.23.1.84.16.96.34,1.33.26.48-.11.46-.43.85-.46.55-.05.78.54,1.38.46.28-.04.26-.17.53-.21.59-.08.82.55,1.5.72.75.19.98-.45,1.76-.31.81.15.78.89,1.65,1.13.88.24,1.48-.35,1.86,0,.41.36-.01,1.17.37,1.38.28.15.58-.22,1.01-.05.31.12.25.36.58.62.52.4.94.05,1.43.41.47.34.31.8.75.97.42.17.7-.19,1.01,0,.33.19.09.61.48,1.13.31.42.62.36.75.72.12.39-.18.65,0,.87.19.24.59.02.8.26s-.14.54,0,1.08c.11.45.41.44.53.92.12.48-.14.59,0,.97.19.54.79.52.9,1.03.08.34-.18.42-.16.82.03.66.72.7.9,1.38.21.76-.5,1.25-.16,1.85.18.3.36.2.53.46.45.73-.94,1.67-.7,3.13.06.37.15.27.27.82.1.44.32,1.45-.16,2.31-.28.5-.47.36-.64.77-.37.89.41,1.81.05,2.1-.21.16-.53-.08-.7.1s.1.5.22,1.18c.06.38.16.96-.16,1.33-.24.28-.47.15-.75.41-.48.44-.09,1.12-.37,1.74-.36.83-1.49,1.3-1.81,1.08-.11-.08-.06-.19-.21-.87-.12-.57-.17-.52-.2-.8-.05-.45.04-.52.05-1.24.02-.72-.07-.71,0-1.04.12-.52.37-.51.53-1.04.16-.52-.07-.6.05-1.25.12-.67.38-.69.38-1.16-.01-.54-.34-.57-.4-1.18-.04-.58.25-.72.11-1.16-.12-.4-.37-.35-.58-.81-.19-.42,0-.53-.15-1.14-.15-.61-.35-.62-.42-1.13-.06-.55.16-.74-.01-.94-.26-.31-.85.1-1.29-.24-.38-.3-.2-.8-.59-1-.25-.12-.38.06-.79-.05-.44-.11-.44-.36-.77-.43-.52-.11-.75.46-1.24.38-.51-.09-.56-.75-1.02-.76-.38,0-.51.47-.91.45-.37-.02-.44-.44-.79-.48-.51-.05-.7.78-1.22.81-.71.04-1.12-1.51-1.73-1.43-.41.05-.41.78-.91.88-.49.1-.73-.51-1.26-.45-.6.07-.72.9-1.19.88s-.55-.87-1.13-.93c-.38-.04-.51.32-1.02.29-.42-.03-.48-.28-.81-.26-.5.03-.55.58-1.02.67-.61.12-.91-.76-1.63-.71-.59.04-.71.65-1.26.62-.57-.03-.69-.69-1.19-.69-.59,0-.73.94-1.33.98-.58.03-.76-.84-1.49-.86-.51,0-.65.41-1.16.33-.5-.08-.63-.54-.91-.48-.33.08-.19.71-.67,1.07-.44.33-.84,0-1.24.33-.42.35-.12.84-.54,1.17s-1.01.06-1.16.36c-.1.2.12.35.02.64-.1.31-.43.28-.5.52-.11.37.56.63.52,1.09-.04.39-.53.43-.57.86-.03.35.3.45.25.81-.05.33-.33.34-.4.67-.06.36.27.45.27.88.01.48-.42.58-.37,1.02.03.38.36.41.37.78.01.4-.36.5-.32.86s.45.39.47.74c.02.33-.34.41-.34.76,0,.37.41.47.4.86-.01.26-.19.27-.27.55-.18.59.52.97.45,1.62-.06.51-.54.82-.57.83-.95.59-2.8-.32-2.96-1.28-.09-.55.43-.68.37-1.33-.07-.86-1.02-.95-1.29-2-.15-.59.14-.63-.05-1.36-.2-.79-.6-.99-.5-1.45.12-.56.82-.82.74-.98-.07-.15-.64.14-.89-.1-.23-.22.11-.61-.12-1.05-.18-.32-.45-.24-.57-.52-.2-.44.38-.76.27-1.33-.1-.49-.59-.52-.61-.98-.02-.39.33-.47.34-.95.01-.41-.24-.46-.2-.81.05-.46.49-.49.57-.95s-.32-.58-.25-1.02c.08-.53.7-.59.72-1.07.01-.34-.3-.36-.34-.78-.04-.39.22-.44.4-1.17.1-.4.04-.48.18-.71.18-.31.33-.28.52-.59.23-.38.08-.56.3-.74.25-.22.51,0,.79-.19.34-.24.08-.65.47-1.05.23-.24.44-.2.59-.48.15-.25.02-.37.15-.52.26-.32.9,0,1.13-.29.14-.16-.04-.31,0-.67.06-.46.4-.56.81-1.19.44-.65.22-.74.54-1.05.55-.52,1.29-.37,1.41-.78.06-.2-.11-.26-.07-.45.12-.56,1.6-.29,2.4-1.21.25-.29.14-.36.42-.64.34-.35,1.01-.73,1.76-.71.46,0,.69.13.91-.03Z"/>
  </g>
</svg>