<?xml version="1.0" encoding="UTF-8"?>
<svg id="Layer_2" data-name="Layer 2" xmlns="http://www.w3.org/2000/svg" viewBox="0 0 81.73 290.59">
  <defs>
    <style>
      .cls-1 {
        fill: #c38350;
      }

      .cls-2 {
        fill: #273758;
      }

      .cls-3 {
        fill: #040405;
      }

      .cls-4 {
        fill: #e7e6e6;
      }

      .cls-5, .cls-6 {
        isolation: isolate;
        opacity: .5;
      }

      .cls-5, .cls-7 {
        fill: #e39d73;
      }

      .cls-6 {
        fill: #603914;
      }

      .cls-8 {
        fill: #332717;
      }

      .cls-9 {
        fill: #466fa0;
      }

      .cls-10 {
        fill: none;
        stroke: #332717;
        stroke-linecap: round;
        stroke-miterlimit: 10;
      }

      .cls-11 {
        fill: #010202;
      }
    </style>
  </defs>
  <g id="Ebene_1" data-name="Ebene 1">
    <g id="turkish-boy-slightleft-standing">
      <g>
        <path class="cls-7" d="M25.51,105.85h0c1.06,1.54,1.65,3.43,1.42,5.32l-5.08,37.82-7.68-2.84,1.89-36.52c.24-5.56,6.26-7.92,9.46-3.78h0Z"/>
        <path class="cls-7" d="M22.91,115.77h0c-4.02.59-7.33-4.02-6.74-8.86l5.08-31.2c.71-4.96,4.37-8.04,8.27-7.09h0c4.49,1.06,7.45,7.09,5.91,12.53l-8.39,29.19c-.71,2.48-1.89,5.2-4.02,5.44h-.12Z"/>
        <path class="cls-4" d="M23.74,70.15c-3.55,3.9-7.8,11.7-9.69,27.54l15.96,5.79,1.42-6.15c3.9-9.69,6.86-18.56,5.44-24.47-1.42-5.56-9.22-7.09-13.12-2.72h0Z"/>
        <path class="cls-7" d="M20.31,160.69l1.42-12.41-7.68-2.84v.47c-8.63,5.44-9.57,13.12-9.57,13.12-.95,7.33.95,8.16,2.6,7.56,1.18-.35,2.13-1.42,2.48-2.6,2.25-5.44,8.04-10.52,8.04-10.52.24,10.64,2.48,7.33,2.48,7.33h.24v-.12Z"/>
      </g>
      <path class="cls-4" d="M20.9,125.7c.95-9.57,1.54-19.27,2.01-28.84l.47-10.87c.35-7.45,2.01-19.62,11.82-18.91,2.95-1.42,6.26-3.9,6.26-3.9l10.76-.35,2.95,2.72,8.04,4.14c2.95,2.72,2.48,8.63,1.77,12.53l-6.26,35.1c-.35,2.13-.59,4.26-.71,6.5-.35,0-.71.24-.95.47-12.06,4.49-23.99,5.08-35.81,1.54h-.35v-.12Z"/>
      <g>
        <g>
          <path class="cls-7" d="M38.39,232.55c1.42,22.1,4.37,45.03,5.08,45.03l6.86-.47,2.36-45.51,1.77-34.16v-1.42c0-.47,0-.95-.24-1.42-.83-3.66-4.26-6.26-8.16-6.03-3.9.24-7.09,3.43-7.33,7.21,0,1.06-.24,2.01-.35,3.07-1.18,7.33-.83,20.33,0,33.69h0Z"/>
          <path class="cls-4" d="M40.52,256.9c1.3,11.94,2.6,20.8,3.07,20.8h6.74l1.06-20.8h-10.87Z"/>
        </g>
        <path class="cls-2" d="M51.63,285.86c0,.71-.47,1.89-1.06,2.84-.59,1.18-1.77,1.89-3.07,1.89h-25.53c-5.79-3.07,21.51-12.88,21.51-12.88h6.74s1.54,6.86,1.3,8.27h.12v-.12Z"/>
        <g>
          <path class="cls-7" d="M46.43,203.83h0c-4.49-.47-7.8-4.26-7.68-8.86l.95-41.72c.83-6.03,6.26-10.16,12.29-9.34h0c6.03.83,10.16,6.26,9.34,12.29l-6.26,39.95c-.59,4.61-4.02,8.16-8.63,7.68h0Z"/>
          <path class="cls-9" d="M37.8,191.42l22.69.59.95-37.82c.12-6.03-4.61-11.11-10.76-11.23h-.59c-6.03-.12-11.11,4.61-11.23,10.64l-.95,37.82h-.12,0Z"/>
        </g>
      </g>
      <g>
        <g>
          <path class="cls-7" d="M17.35,232.55c1.42,22.1,4.37,45.03,5.08,45.03l6.86-.47,2.36-45.51,1.77-34.16v-1.42c0-.47,0-.95-.24-1.42-.83-3.66-4.26-6.26-8.16-6.03-3.9.24-7.09,3.43-7.33,7.21,0,1.06-.24,2.01-.35,3.07-1.18,7.33-.83,20.33,0,33.69h0Z"/>
          <path class="cls-4" d="M19.36,256.9c1.3,11.94,2.6,20.8,2.95,20.8h6.74l1.06-20.8h-10.87.12Z"/>
        </g>
        <path class="cls-2" d="M30.47,285.86c0,.71-.47,1.89-1.06,2.84-.59,1.18-1.77,1.89-3.07,1.89H.81c-5.79-3.07,21.51-12.88,21.51-12.88h6.74s1.54,6.86,1.3,8.27h.12v-.12Z"/>
        <g>
          <path class="cls-7" d="M25.27,203.83h0c-4.49-.47-7.8-4.26-7.68-8.86l.95-41.72c.83-6.03,6.26-10.16,12.29-9.34h0c6.03.83,10.16,6.26,9.34,12.29l-6.26,39.95c-.59,4.61-4.02,8.16-8.63,7.68h0Z"/>
          <path class="cls-9" d="M12.63,187.99l22.34,3.07,5.2-37.23c.83-6.15-3.43-11.82-9.57-12.77h0c-6.15-.83-11.82,3.43-12.77,9.57l-5.2,37.23h0v.12Z"/>
        </g>
      </g>
      <path class="cls-9" d="M18.89,158.21v-4.85c-.12-.95,0,0-.12-.24v-11.7c.35-2.72.71-5.44,1.18-8.04.12-1.77.35-3.55.47-5.2,0-.71.24-1.42.24-2.13,11.94,3.66,24.82,2.72,36.88-1.89v1.77c-.24,5.2.47,10.4,2.01,15.37.95,2.84,1.54,6.03,1.89,8.98.71,8.04-1.06,14.07-1.06,14.07h0l-21.16,8.04-1.06.35h-.47c0,.12-18.91-7.8-18.91-7.8,0-1.77-.24-3.43-.35-5.08v-1.54h.83-.35v-.12Z"/>
      <g>
        <path class="cls-7" d="M63.1,107.15h0c-1.18,1.3-1.77,3.43-1.54,5.2l3.43,37.94,7.8-2.48-.35-36.52c0-5.56-5.79-8.16-9.22-4.14h-.12,0Z"/>
        <path class="cls-7" d="M65.22,117.19h0c3.9.83,7.56-3.55,6.97-8.63l-3.55-31.32c-.35-4.96-3.9-8.27-7.92-7.56h0c-4.61.83-7.68,6.74-6.38,12.29l7.21,29.55c.59,2.6,1.77,5.32,3.9,5.67h-.24Z"/>
        <path class="cls-4" d="M66.52,71.45c3.31,4.02,7.21,12.06,8.51,28.01l-16.31,5.2-1.18-6.26c-3.55-9.81-6.03-18.79-4.26-24.58,1.54-5.44,9.46-6.74,13.12-2.25h.12v-.12Z"/>
        <path class="cls-7" d="M65.81,162.11l-.95-12.53,7.8-2.48v.47c8.51,5.79,8.98,13.47,8.98,13.47.47,7.45-1.42,8.04-2.95,7.45-1.06-.47-1.89-1.42-2.48-2.72-2.13-5.44-7.56-10.99-7.56-10.99-.71,10.64-2.84,7.33-2.84,7.33h0Z"/>
      </g>
      <path class="cls-9" d="M36.97,69.09c0,4.73,5.08,7.92,9.46,5.79,4.37-2.01,7.21-6.15,8.75-9.46l-2.95-2.72-10.76.35s-1.89,1.3-4.37,3.19c-.24.95-.12,1.89-.24,2.72h.12v.12Z"/>
      <g>
        <path class="cls-1" d="M45.48,67.2h0c3.78,0,6.62-3.31,6.5-6.97l-.47-13.12-10.76.35.59,15.96c0,2.13,1.89,3.78,4.02,3.78h.12Z"/>
        <path class="cls-7" d="M20.66,30.44c0,1.3,0,2.6.24,3.78,0,.83.12,1.65.35,2.36.47,2.13.83,4.02,1.65,5.91.24.71.47,1.3.83,2.01,3.78,8.63,10.52,14.3,18.2,14.18,3.66,0,7.09-1.54,10.05-4.02.71-.47,1.3-1.06,1.89-1.77,4.96-5.44,8.16-13.83,7.8-23.4-.47-15.84-9.81-28.37-21.16-28.13-1.65,0-3.31.35-4.85.95-8.86,3.31-15.25,14.77-14.89,28.25h-.12v-.12Z"/>
        <g>
          <path class="cls-8" d="M47.61,30.2c-.24,0-.47,0-.59-.35-2.01-3.78-5.44-2.25-5.56-2.13-.35,0-.71,0-.95-.35,0-.35,0-.71.35-.95,1.65-.71,5.32-1.18,7.33,2.72,0,.35,0,.71-.24.95h-.35v.12Z"/>
          <path class="cls-8" d="M27.05,27.13s-.35.24-.59,0c-3.31-1.3-4.73,1.54-4.73,1.65,0,.24-.47.35-.71.24-.24,0-.35-.47-.24-.71.59-1.42,2.72-3.66,6.15-2.25.24,0,.47.47.35.71v.24h-.24v.12Z"/>
          <path class="cls-8" d="M43.48,32.92c0,1.3-.83,2.48-1.77,2.48s-1.89-1.18-1.89-2.48.83-2.48,1.77-2.48,1.89,1.18,1.89,2.48Z"/>
          <path class="cls-8" d="M27.05,32.92c0,1.3-.83,2.48-1.77,2.48s-1.89-1.18-1.89-2.48.83-2.48,1.77-2.48,1.89,1.18,1.89,2.48Z"/>
          <path class="cls-10" d="M40.99,47.34c0,.24-.95,3.78-4.49,4.37-3.43.47-5.32-1.18-5.56-1.54"/>
          <path class="cls-6" d="M30.83,39.54c-1.18,1.18-1.18,2.95,0,4.14s2.95,1.18,4.14,0-2.13.24-3.31-.83c-1.18-1.18.24-4.37-.95-3.31h.12Z"/>
        </g>
        <path class="cls-5" d="M51.51,54.55h.24c.71-.47,1.3-1.06,1.89-1.77,4.96-5.44,8.16-13.83,7.8-23.28-.47-15.84-9.81-28.37-21.16-28.13-1.65,0-3.31.35-4.85.95,8.98,6.62,24.94,24.47,16.07,52.36h0v-.12Z"/>
        <g>
          <g>
            <path class="cls-11" d="M56.12,12.23c1.42-3.66-.24-8.16-3.55-10.28-1.06-.71-2.36-1.3-3.66-1.54,1.18.59,2.13,1.42,3.07,2.25,2.84,2.48,4.14,6.03,4.14,9.57h0Z"/>
            <path class="cls-11" d="M66.64,11.88c-2.01-3.43-6.62-5.08-10.52-4.14-1.3.35-2.48.83-3.55,1.65,1.18-.35,2.48-.71,3.78-.83,3.78-.47,7.45.95,10.28,3.31h0Z"/>
            <path class="cls-11" d="M53.99,1.24c2.13,3.07,2.84,6.97,1.54,10.4-.35,1.18-.95,2.25-1.65,3.31.95-.83,1.65-1.89,2.25-3.07,1.65-3.43.83-7.92-2.13-10.64h0Z"/>
            <path class="cls-11" d="M64.87,8.22c-3.31-2.13-8.04-1.89-11.23.35-1.06.71-2.01,1.65-2.72,2.72.95-.95,1.89-1.65,2.95-2.25,3.31-2.01,7.33-2.13,10.87-.83,0,0,.12,0,.12,0Z"/>
            <path class="cls-3" d="M56.95,7.98c.95,0,5.08.35,8.27,3.43,2.13,2.13,2.84,4.37,3.07,5.44-.35-.59-.83-1.42-1.77-2.13-.47-.47-2.72-.83-3.07-1.18.95,1.3,2.25,1.3,3.31,4.02.59,1.77,1.65,5.08,1.65,9.46-.47,4.26-.59,4.73-2.36,8.39-1.06,2.72-6.62,8.86-7.09,9.93.47-3.19,2.6-13.24,2.36-15.13-2.13-5.91-2.13,2.95-2.48,2.13-1.77-2.72-5.56-14.66-6.86-15.84-6.26,1.77-8.75,4.49-16.67,5.56-3.07.47-6.62,0-9.46,0,.59-.59,2.01-.95,2.48-2.6.24-.95.24-1.89.24-2.48-3.55,2.36-5.2,4.96-5.91,6.38-1.77,3.31-1.77,6.86-1.77,8.04s.24,2.48.35,4.14-.12-.24.35,2.01c-.47-1.06-1.54-2.95-2.25-4.73-.35-1.65-.35-1.77-.71-3.66-.24-1.18-.47-2.6-.47-4.73-.24,1.06.47,2.72.12,3.66-2.36-6.15-.47-10.28,0-12.53C23.03,2.19,43.83-4.31,53.64,3.13c1.65,1.3,2.84,2.84,3.31,3.9h0v.83h0v.12Z"/>
          </g>
          <g>
            <path class="cls-7" d="M58.13,26.54c-1.18,3.55-.35,6.97,1.89,7.68s4.96-1.54,6.15-5.2.35-6.97-1.89-7.68c-2.13-.71-4.96,1.54-6.15,5.2Z"/>
            <path class="cls-5" d="M58.13,26.54c-1.18,3.55-.35,6.97,1.89,7.68s4.96-1.54,6.15-5.2.35-6.97-1.89-7.68c-2.13-.71-4.96,1.54-6.15,5.2Z"/>
          </g>
        </g>
      </g>
    </g>
  </g>
</svg>