<?xml version="1.0" encoding="UTF-8"?>
<svg id="Ebene_2" data-name="Ebene 2" xmlns="http://www.w3.org/2000/svg" viewBox="0 0 154.64 244.44">
  <defs>
    <style>
      .cls-1 {
        fill: #93a59e;
      }

      .cls-2 {
        fill: #738a83;
      }

      .cls-3 {
        fill: #392c1a;
      }

      .cls-4 {
        fill: #738a84;
      }

      .cls-5 {
        fill: #6c837f;
      }

      .cls-6 {
        fill: #778e87;
      }

      .cls-7 {
        fill: #e29725;
      }

      .cls-8 {
        fill: #809690;
      }

      .cls-9 {
        fill: #7e9791;
      }

      .cls-10 {
        fill: #6a827d;
      }

      .cls-11 {
        fill: #f5ad3e;
      }

      .cls-12 {
        fill: #f9b03b;
      }

      .cls-13 {
        fill: #f7f7ec;
      }

      .cls-14 {
        fill: none;
        stroke: #332717;
        stroke-linecap: round;
        stroke-miterlimit: 10;
      }

      .cls-15 {
        fill: #f4ab39;
      }

      .cls-16 {
        fill: #f6f5e9;
      }

      .cls-17 {
        fill: #f8ba58;
      }

      .cls-18 {
        fill: #fefded;
      }

      .cls-19 {
        fill: #738b85;
      }

      .cls-20 {
        fill: #8c9e98;
      }

      .cls-21 {
        fill: #708681;
      }

      .cls-22 {
        fill: #6c857f;
      }

      .cls-23 {
        fill: #879c95;
      }

      .cls-24 {
        fill: #e39623;
      }

      .cls-25 {
        fill: #f5f5ec;
      }

      .cls-26 {
        fill: #9aaba3;
      }

      .cls-27 {
        fill: #9baca4;
      }

      .cls-28 {
        fill: #fdfbf4;
      }

      .cls-29 {
        fill: #8c9f95;
      }

      .cls-30 {
        fill: #adbab0;
      }

      .cls-31 {
        fill: #6e857f;
      }

      .cls-32 {
        fill: #aebbb1;
      }

      .cls-33 {
        fill: #fdfdf7;
      }

      .cls-34 {
        fill: #e29c73;
      }

      .cls-35 {
        fill: #7c928d;
      }

      .cls-36 {
        fill: #798e89;
      }

      .cls-37 {
        fill: #9dada6;
      }

      .cls-38 {
        fill: #e19521;
      }

      .cls-39 {
        fill: #899d95;
      }

      .cls-40 {
        fill: #758b85;
      }

      .cls-41 {
        fill: #788e89;
      }

      .cls-42 {
        fill: #a9b7ae;
      }

      .cls-43 {
        fill: #7e938e;
      }

      .cls-44 {
        fill: #e39d73;
      }

      .cls-45 {
        fill: #a8b7ad;
      }

      .cls-46 {
        fill: #332717;
      }

      .cls-47 {
        fill: #f4aa37;
      }

      .cls-48 {
        fill: #f5a52c;
      }

      .cls-49 {
        fill: #798f89;
      }

      .cls-50 {
        fill: #9fafa6;
      }

      .cls-51 {
        fill: #9cada4;
      }

      .cls-52 {
        fill: #829991;
      }

      .cls-53 {
        fill: #6d8580;
      }

      .cls-54 {
        fill: #eb9a1c;
      }

      .cls-55 {
        fill: #909d90;
      }

      .cls-56 {
        fill: #fcfbee;
      }

      .cls-57 {
        fill: #7f938d;
      }

      .cls-58 {
        fill: #f9f9f5;
      }

      .cls-59 {
        fill: #603914;
      }

      .cls-59, .cls-60 {
        isolation: isolate;
        opacity: .5;
      }

      .cls-61 {
        fill: #7f968e;
      }

      .cls-62 {
        fill: #849892;
      }

      .cls-63 {
        fill: #68807c;
      }

      .cls-64 {
        fill: #9caca4;
      }

      .cls-65 {
        fill: #839890;
      }

      .cls-66 {
        fill: #92a49d;
      }

      .cls-67 {
        fill: #788e88;
      }

      .cls-68 {
        fill: #79959c;
      }

      .cls-69 {
        fill: #f8bb58;
      }

      .cls-70 {
        fill: #8b9f97;
      }

      .cls-71 {
        fill: #e79d2d;
      }

      .cls-72 {
        fill: #738c86;
      }

      .cls-73 {
        fill: #7f948e;
      }

      .cls-74 {
        fill: #f3a730;
      }

      .cls-75 {
        fill: #8a9e96;
      }

      .cls-76 {
        fill: #a2bebf;
      }

      .cls-77 {
        fill: #6e8580;
      }

      .cls-78 {
        fill: #778d87;
      }

      .cls-60, .cls-79 {
        fill: #d9baba;
      }

      .cls-80 {
        fill: #7c918b;
      }

      .cls-81 {
        fill: #778e88;
      }

      .cls-82 {
        fill: #819690;
      }

      .cls-83 {
        fill: #9aaea8;
      }

      .cls-84 {
        fill: #829790;
      }

      .cls-85 {
        fill: #f5b44f;
      }

      .cls-86 {
        fill: #6f8580;
      }

      .cls-87 {
        fill: #7e9694;
      }

      .cls-88 {
        fill: #80948e;
      }

      .cls-89 {
        fill: #9baba2;
      }

      .cls-90 {
        fill: #8aa6a9;
      }

      .cls-91 {
        fill: #7d928c;
      }

      .cls-92 {
        fill: #e69c2c;
      }

      .cls-93 {
        fill: #f5ae40;
      }

      .cls-94 {
        fill: #879b97;
      }

      .cls-95 {
        fill: #8ba098;
      }

      .cls-96 {
        fill: #9caca3;
      }

      .cls-97 {
        fill: #a2b1a8;
      }

      .cls-98 {
        fill: #fbfbf6;
      }

      .cls-99 {
        fill: #93a69e;
      }

      .cls-100 {
        fill: #f7ba57;
      }

      .cls-101 {
        fill: #e49724;
      }

      .cls-102 {
        fill: #aebab0;
      }

      .cls-103 {
        fill: #7496a1;
      }

      .cls-104 {
        fill: #9eaea5;
      }

      .cls-105 {
        fill: #a6b5ab;
      }

      .cls-106 {
        fill: #839990;
      }

      .cls-107 {
        fill: #f1af44;
      }

      .cls-108 {
        fill: #809790;
      }

      .cls-109 {
        fill: #eda026;
      }

      .cls-110 {
        fill: #273758;
      }

      .cls-111 {
        fill: #7d938b;
      }

      .cls-112 {
        fill: #f5b34c;
      }

      .cls-113 {
        fill: #869a94;
      }

      .cls-114 {
        fill: #889c95;
      }

      .cls-115 {
        fill: #6c837d;
      }

      .cls-116 {
        fill: #f2f2ec;
      }

      .cls-117 {
        fill: #c38350;
      }

      .cls-118 {
        fill: #90a198;
      }

      .cls-119 {
        fill: #a1b1a8;
      }

      .cls-120 {
        fill: #f5f5f0;
      }

      .cls-121 {
        fill: #809390;
      }

      .cls-122 {
        fill: #7a8f8a;
      }

      .cls-123 {
        fill: #778d88;
      }

      .cls-124 {
        fill: #afbbb1;
      }

      .cls-125 {
        fill: #819790;
      }

      .cls-126 {
        fill: #eba02f;
      }

      .cls-127 {
        fill: #98a9a1;
      }

      .cls-128 {
        fill: #8ba097;
      }

      .cls-129 {
        fill: #f5b44e;
      }

      .cls-130 {
        fill: #94a69e;
      }

      .cls-131 {
        fill: #809590;
      }

      .cls-132 {
        fill: #92a59d;
      }

      .cls-133 {
        fill: #879d95;
      }

      .cls-134 {
        fill: #eaede6;
      }

      .cls-135 {
        fill: #f4ae42;
      }

      .cls-136 {
        fill: #9baba3;
      }

      .cls-137 {
        fill: #88a6ab;
      }

      .cls-138 {
        fill: #859a92;
      }

      .cls-139 {
        fill: #7a938d;
      }

      .cls-140 {
        fill: #899f96;
      }

      .cls-141 {
        fill: #768c87;
      }

      .cls-142 {
        fill: #f4af43;
      }

      .cls-143 {
        fill: #f3ab39;
      }

      .cls-144 {
        fill: #829fa6;
      }

      .cls-145 {
        fill: #90a39c;
      }

      .cls-146 {
        fill: #ed9922;
      }

      .cls-147 {
        fill: #9cada5;
      }

      .cls-148 {
        fill: #f6f6f0;
      }

      .cls-149 {
        fill: #728883;
      }

      .cls-150 {
        fill: #e29829;
      }

      .cls-151 {
        fill: #e6e6e6;
      }

      .cls-152 {
        fill: #879b94;
      }

      .cls-153 {
        fill: #98a99e;
      }

      .cls-154 {
        fill: #3f6138;
      }
    </style>
  </defs>
  <g id="Ebene_1-2" data-name="Ebene 1">
    <g id="turkish-girl-springbike">
      <g id="german-girl-sitting11">
        <g>
          <path class="cls-34" d="M120.81,161.61c4.6,16,8.2,33,7.7,33.2l-5.6,1.6-13.7-31.4-10.3-23.6-.4-1.1c0-.4-.2-.7-.2-1-.3-2.8,1.8-5.6,5-6.5s6.5.4,7.7,3c.3.8.7,1.3,1.1,2.1,2.8,4.8,6,14.1,8.7,23.8h0v-.1Z"/>
          <path class="cls-110" d="M124.01,202.21c.5.9,1.5,1.4,2.5,1.5.7,0,21.4-7.9,21.8-8.4,3.6-4.1-20.2-1.3-20.2-1.3l-5.5,2.7s.8,4.6,1.4,5.5h0Z"/>
          <path class="cls-34" d="M111.41,140.91h0c0-3.8-3.1-7-6.9-7.2l-35.3-2.6c-5.1.2-9,4.5-8.8,9.6h0c.3,5.1,4.6,9.1,9.7,8.9l34.2-2c4,0,7.2-2.7,7.1-6.6h0v-.1h0Z"/>
        </g>
        <g>
          <path class="cls-126" d="M110.31,92.51c.5.3.9.6,1.2,1v.4h.5c2,0,4,.4,6,.7h.5c14.3,2.2,22.8,5,25.5,8.5.8,1.1,1,2,.9,3.4-.2.9-.5,1.7-.7,2.6v.4c-3.2,10.1-8.1,20.2-15.4,28.1-.4.4-.7.8-1,1.2-.9,1-1.8,1.9-2.7,2.8-.2.2-.3.3-.5.5-3.2,3.2-7.2,6.3-11.4,7.9-.7.3-1.1.7-1.6,1.3-2.1,2.1-4.7,3.6-7.3,5.1,0,0-.2,0-.3.2-.5.3-.9.5-1.2.5,1,1.9,2.1,3.7,3.2,5.6,0,.3.2.5.2.7h.4c0-.2,0-.3.2-.5,1.8-5,6.5-9,11.2-11.3,5.6-2.6,11.9-2.8,17.7-.8,7.1,2.6,12.8,7.9,16,14.7.9,1.9,1.6,3.8,2.1,5.7v.4c1.8,7,.6,14.5-3,20.8-3.3,5.3-8.6,9.2-14.7,10.6-3.5.8-7.3.7-10.8,0h-.4c-7.2-1.7-13.1-6.7-17-12.9-3.4-5.5-4.8-12.1-4-18.5,0-1.1,0-2.1-.2-3.1-.3-.4-.6-.8-1-1.2-.7-.8-1.3-1.8-1.9-2.7,0-.2-.2-.3-.3-.5-1.6-2.7-2.4-4.2-2.4-4.6h-.3c-2.1.8-4.1,1.5-6.2,2.1h-.5c-.7.2-1.3.3-2.1.3,0,0,.2.3.3.4,3.8,4.6,6.7,9.4,8.3,15.2v.5c1.1,3.9,1.2,8.3,0,12.1-.3,1.1-.4,2-.4,3.1s0,1.6-.8,2.4c-1,.9-1.6,1-2.9,1s-1.6-.5-2.2-1.2c-.7-1-.7-1.9-.6-3.1.3-.9.8-1.4,1.5-1.9.9-.7,1-1.8,1.2-2.9.6-7.4-2.3-14.3-7-19.9-.3-.3-.6-.7-.9-1,0,0-.2,0-.3.2-1.5,1.1-2.5,1.7-3,1.7v.4h.5c1.7.7,3,1.8,3.9,3.4.4,1.2.4,2.6,0,3.8-.5,1.2-1.4,2-2.3,2.9-.2.2-.4.4-.6.6h.4c1.2.6,2.2,1.9,2.7,3.2.4,1.8.3,3.7-.6,5.3-.7,1.1-1.5,1.9-2.5,2.7,0,0,.3.2.4.3,1.5,1.3,2.7,2.6,3,4.7,0,2.6-.6,4.3-2.4,6.2-.3.3-.5.5-.8.8,0,0,.2.2.3.3,1.5,1.2,2.5,2.7,2.7,4.5,0,1.1,0,2-.4,3.1.8.2,1.5.4,2.3.5h1.2c.8,0,1.3.2,1.8.8v6.2h.4c2.3.3,4.5.7,6.8,1.1h.6c1.5.3,3,.5,4.4.8h.6c1,.2,2,.4,3.1.6.3,0,.6,0,.9.2.4,0,.8.2,1.3.2h.7c.5,0,.9.2,1.4.5.5.9.4,2.1.2,3.1-.4.7-1,1.1-1.7,1.5-.2.2-.5.4-.7.5-.6.4-1.2.8-1.8,1.3-1,.7-2,1.5-3,2.2-2,1.5-4.1,3.1-6.1,4.6-1.8,1.3-3.5,2.6-5.2,3.9-1.3,1-2.7,2-4,3,0,0-.3.2-.4.3-1.8,1.3-3.2,2-5.4,1.8-1.1-.2-2.2-.4-3.3-.7-.3,0-.6,0-.8-.2-.6,0-1.2-.3-1.9-.4-4.9-1.1-9.9-2.2-14.8-3.2-1.3-.3-2.6-.6-3.9-.8h-.5c-2.3-.5-4.6-1-6.9-1.5-2-.4-3.9-.9-5.9-1.3-2.9-.6-5.9-1.3-8.8-1.9-.4,0-.8-.2-1.1-.2-.5,0-1.1-.2-1.6-.3h-.5c-.4,0-.9-.2-1.3-.3h-1.5c-.5-.2-.7-.5-1-1v-1.7c.5-1.7,3.1-2.6,4.5-3.4.3-.2.5-.3.8-.5.6-.3,1.1-.7,1.7-1,.7-.4,1.5-.9,2.2-1.3,1.9-1.1,3.8-2.3,5.7-3.4.4-.2.8-.5,1.2-.7,1-.6,2.1-1.2,3.2-1.7l.6-.3,1.2-.6c.6-.3,1-.6,1.4-1,.2-.7.2-1.2,0-1.9,0-.8.3-1,.8-1.6.3-.2.6-.4.9-.6.2,0,.4-.2.5-.3l.6-.3c.2,0,.4-.2.6-.4.4-.2.8-.5,1.1-.7.4-.3.8-.5,1.2-.8,1.3-.8,2.4-1.2,3.9-1.5h.6c3.7-.7,7.6-.4,11.3.4.8.2,1.6.3,2.4.5,1.2.2,2.4.5,3.6.7h.4c.6,0,1,.3,1.3.4v-2.7c0-.9-1.1-1.6-3-2.1-.3,0-.7.2-1,.3-5.9,1.9-13.3,2-19-.6-1-.5-1.6-1.1-2.1-2.2-.2-1-.3-1.6.2-2.5,1.8-2.2,4.5-2.6,7.2-2.9h4c4.1,0,8.1.6,11.9,2.2.3-.2.6-.5.8-.7.2,0,.3-.3.5-.4.6-.6.8-1,.9-1.7,0-.9-.5-1.5-1.2-2.1s-1.4-1-2.2-1.2c-.8.2-1.6.5-2.4.7-2.4.7-4.9.8-7.4.8h-.4c-3.5,0-8.3,0-11-2.7-.9-1-.9-1.9-.9-3.2s.3-1.1.9-1.6c2.8-2.1,6.3-2,9.7-2h.5c3.9,0,8,0,11.5,1.8.5.2.7,0,1.1,0,.3-.2.5-.4.8-.7,0,0,.3-.2.4-.4.4-.4.5-.7.6-1.3-.2-1.2-.9-1.8-1.8-2.6-.6-.4-1.1-.7-1.8-.6-.4,0-.7.2-1,.3-.6.2-1.3.4-2,.5h-.6c-4.9.9-12.1.9-16.4-1.8-1-.7-1.6-1.5-1.9-2.7,0-.8,0-1.2.3-2,1.5-1.8,3.6-2.2,5.8-2.5h4.4c3.6,0,6.8.3,10.3,1.4,1.1.4,2.3.5,3.5.4.3,0,.5-.4.8-.8,0-.8,0-1.2-.6-1.8-1.7-1.4-3.7-2.5-5.9-2.4-.5,0-1,0-1.5.2-3.1.4-6.2.3-9.3-.2h-.7c-2.1-.4-4.7-.9-6.2-2.6-.5-.9-1-2-.8-3.1.4-.8.9-1.4,1.7-1.9h.8v-.4h-.6c-1.1,0-2.2-.5-3.3-.8-.2,0-.4,0-.7-.2-3.2-1-6.1-2.4-9.1-3.9v.4c0,.2,0,.4.2.6,0,.2,0,.4.2.6,1.3,6.2-.3,13.1-3.7,18.4-.6.9-1.3,1.7-2.1,2.5-.3.3-.6.7-.9,1-2.2,2.6-5.7,4.3-8.9,5.2-.2,0-.4,0-.7.2-3.4.8-7.3.7-10.6-.2h-.6c-4.1-1.2-7.7-3.6-10.8-6.6,0,0-.2-.2-.4-.3C2.51,174.91.21,167.61.01,161.21c-.2-6.6,1.8-13,6.3-17.8,3.8-3.9,8.9-6.1,14.3-6.3,2.3,0,4.4.3,6.6.8v-.3c-.2-1-.2-2-.2-3.1v-.8c0-1.8,0-3.1,1.2-4.4,0,0,.2-.2.3-.3.2-.2.4-.4.7-.6h.4c-1.1-1.3-2.2-2.6-3.3-3.9-.5-.6-1-1.1-1.5-1.7-.5-.6-1.1-1.2-1.7-1.8-.3-.3-.5-.6-.7-.9-.7-.9-1.4-1.2-2.5-1.5-.9-.3-1.3-.9-1.8-1.7-.3-1-.4-1.8,0-2.8.6-1.1,1.3-1.7,2.5-2.1,1.2,0,2.1,0,3.1.8.8.8,1.2,1.3,1.2,2.4s.7,1.8,1.5,2.6c.3.3.5.5.8.8,0,0,.3.3.4.4.5.5.9,1,1.4,1.6.5.5.9,1,1.4,1.6.2.2.4.4.6.6,0,0,.2.2.3.3.7.7,1.3,1.5,2,2.2.3.3.5.6.8.8h1.1c3-.4,6.1.2,9.1.7.5,0,1,.2,1.5.2,1.5.2,2.9.5,4.4.7.4,0,.8,0,1.2.2,2.3.4,4.7.8,7,1.1,3.7.6,7.3,1.2,11,1.7,3.9.6,7.8,1.2,11.7,1.8,3.2.5,6.4,1,9.7,1.5,1.5.2,3.1.5,4.6.7,2.4.4,4.9.8,7.3,1.2,2.3.3,4.5.7,6.8,1.1.6,0,1.3.2,1.9.3.8,0,1.7.3,2.5.4h.9c.4,0,.8,0,1.2.2h.6c.5,0,.7.3,1.1.7.2.5.2.8.2,1.4v.9c1.5-1.2,2.9-2.5,4.3-3.9.2-.2.5-.5.7-.7h.4v-.3c.3-.5.6-.8,1-1.2,6.5-6.4,10.6-15.2,13.8-23.6,0,0-.3,0-.4.2-1.9.7-3.7,1-5.7,1.3h-.8c-4.3.6-8.7.8-13.1.8h-.8c-3.8,0-7.7,0-11.5-.4h-.7c-5.5-.5-11.2-1.1-16.6-2.4h-1.3c-.4.3-.8.6-1.2.9-1,.7-2.3.6-3.4.5-1.4-.4-2.3-1.5-3.1-2.7-.4-1.1-.3-2.5,0-3.6.5-1.2,1.5-1.9,2.6-2.6,1.8-.5,3-.2,4.6.6.3.2.6.5.8.8.6.7,1.2.7,2.1.8h.5c.5,0,1.1.2,1.6.2s.8,0,1.1.2c1.1.2,2.2.3,3.4.5h.5c1.9.3,3.8.5,5.7.7h1.2c4.6.5,9.2.5,13.8.5h1.4c6.6,0,12.9-.3,19.1-2.6v-.4c-6.7-3.1-14.5-4.1-21.7-5.4-.3,0-.7,0-1-.2-.5,0-.9-.2-1.4-.3h-.4c-.8,0-1.5-.2-2.3-.2-.3.3-.7.5-1,.8-1,.6-2.1.5-3.3.4-1.1-.4-1.9-1.2-2.5-2.1-.5-1.1-.5-2.1-.2-3.3,1.2-2.3,3.7-3.3,6.1-2.1h-.2l.3.4h0Z"/>
          <path class="cls-66" d="M88.91,162.41c4.2,3.6,7,10,8.4,15.2v.5c1.1,3.9,1.2,8.3,0,12.1-.3,1.1-.4,2-.4,3.1s0,1.6-.8,2.4c-1,.9-1.6,1-2.9,1s-1.6-.5-2.2-1.2c-.7-1-.7-1.9-.6-3.1.3-.9.8-1.4,1.5-1.9.9-.7,1-1.8,1.2-2.9.6-7.4-2.3-14.3-7-19.9-.3-.3-.6-.7-.9-1,0,0-.2,0-.3.2-1.5,1.1-2.5,1.7-3,1.7v.4h.5c1.7.7,3,1.8,3.9,3.4.4,1.2.4,2.6,0,3.8-.5,1.2-1.4,2-2.3,2.9-.2.2-.4.4-.6.6h.4c1.2.6,2.2,1.9,2.7,3.2.4,1.8.3,3.7-.6,5.3-.7,1.1-1.5,1.9-2.5,2.7,0,0,.3.2.4.3,1.5,1.3,2.7,2.6,3,4.7,0,2.6-.6,4.3-2.4,6.2-.3.3-.5.5-.8.8,0,0,.2.2.3.3,1.5,1.2,2.5,2.7,2.7,4.5,0,1.1,0,2-.4,3.1.8.2,1.5.4,2.3.5h1.2c.8,0,1.3.2,1.8.8v6.2h.4c2.3.3,4.5.7,6.8,1.1h.6c1.5.3,3,.5,4.4.8h.6c1,.2,2,.4,3.1.6.3,0,.6,0,.9.2.4,0,.8.2,1.3.2h.7c.5,0,.9.2,1.4.5.5.9.4,2.1.2,3.1-.4.7-1,1.1-1.7,1.5-.2.2-.5.4-.7.5-.6.4-1.2.8-1.8,1.3-1,.7-2,1.5-3,2.2-2,1.5-4.1,3.1-6.1,4.6-1.8,1.3-3.5,2.6-5.2,3.9-1.3,1-2.7,2-4,3,0,0-.3.2-.4.3-1.8,1.3-3.2,2-5.4,1.8-1.1-.2-2.2-.4-3.3-.7-.3,0-.6,0-.8-.2-.6,0-1.2-.3-1.9-.4-4.9-1.1-9.9-2.2-14.8-3.2-1.3-.3-2.6-.6-3.9-.8h-.5c-2.3-.5-4.6-1-6.9-1.5-2-.4-3.9-.9-5.9-1.3-2.9-.6-5.9-1.3-8.8-1.9-.4,0-.8-.2-1.1-.2-.5,0-1.1-.2-1.6-.3h-.5c-.4,0-.9-.2-1.3-.3h-1.5c-.5-.2-.7-.5-1-1v-1.7c.5-1.7,3.1-2.6,4.5-3.4.3-.2.5-.3.8-.5.6-.3,1.1-.7,1.7-1,.7-.4,1.5-.9,2.2-1.3,1.9-1.1,3.8-2.3,5.7-3.4.4-.2.8-.5,1.2-.7,1-.6,2.1-1.2,3.2-1.7l.6-.3,1.2-.6c.6-.3,1-.6,1.4-1,.2-.7.2-1.2,0-1.9,0-.8.3-1,.8-1.6.3-.2.6-.4.9-.6.2,0,.4-.2.5-.3l.6-.3c.2,0,.4-.2.6-.4.4-.2.8-.5,1.1-.7.4-.3.8-.5,1.2-.8,1.3-.8,2.4-1.2,3.9-1.5h.6c3.7-.7,7.6-.4,11.3.4.8.2,1.6.3,2.4.5,1.2.2,2.4.5,3.6.7h.4c.6,0,1,.3,1.3.4v-2.7c0-.9-1.1-1.6-3-2.1-.3,0-.7.2-1,.3-5.9,1.9-13.3,2-19-.6-1-.5-1.6-1.1-2.1-2.2-.2-1-.3-1.6.2-2.5,1.8-2.2,4.5-2.6,7.2-2.9h4c4.1,0,8.1.6,11.9,2.2.3-.2.6-.5.8-.7.2,0,.3-.3.5-.4.6-.6.8-1,.9-1.7,0-.9-.5-1.5-1.2-2.1s-1.4-1-2.2-1.2c-.8.2-1.6.5-2.4.7-2.4.7-4.9.8-7.4.8h-.4c-3.5,0-8.3,0-11-2.7-.9-1-.9-1.9-.9-3.2s.3-1.1.9-1.6c2.8-2.1,6.3-2,9.7-2h.5c3.9,0,8,0,11.5,1.8.5.2.7,0,1.1,0,.3-.2.5-.4.8-.7,0,0,.3-.2.4-.4.4-.4.5-.7.6-1.3-.2-1.2-.9-1.8-1.8-2.6-.6-.4-1.1-.7-1.8-.6-.4,0-.7.2-1,.3-.6.2-1.3.4-2,.5h-.6c-4.9.9-12.1.9-16.4-1.8-1-.7-1.6-1.5-1.9-2.7,0-.8,0-1.2.3-2,1.5-1.8,3.6-2.2,5.8-2.5h4.4c3.6,0,6.8.3,10.3,1.4,1.1.4,2.3.5,3.5.4.3,0,.5-.4.8-.8,0-.8,0-1.2-.6-1.8-1.7-1.4-3.7-2.5-5.9-2.4-.5,0-1,0-1.5.2-3.1.4-6.2.3-9.3-.2h-.7c-2.1-.4-4.7-.9-6.2-2.6-.5-.9-1-2-.8-3.1.4-.8.9-1.4,1.7-1.9.9-.2,1.6,0,2.6,0h.4c.4,0,.8.2,1.2.3.3,0,.6,0,.8.2.7,0,1.4.3,2.1.4-.4.4-.8.6-1.4.8-.4,0-.8.3-1.1.6.4,0,.8.2,1.2.3.2,0,.4,0,.7.2,1.6.3,3.1.4,4.7.4h1.3c2.3,0,4.5-.3,6.8-.9h.5c.9-.2,1.8-.5,2.6-.9,0,0,0-.3.2-.4l-.4-.2c.3-.3.8-.3,1.3-.4h1.4c.5,0,.9,0,1.4-.2h.7c.8,0,1.5-.3,2.3-.4h1.4v-.3h0v-.1Z"/>
          <path class="cls-18" d="M139.61,159.81c5,4,8.2,9.7,8.9,16.1.4,5.4-.8,11-4.3,15.3-3,3.6-7,6.2-11.8,6.5-2.8.2-5.4,0-8.1-1h-.4c-2.4-.9-4.4-2.3-6.3-3.9-.2,0-.3-.3-.5-.4-4.1-3.5-7-9-7.6-14.4v-2.5c.8.5,1.5,1,2.2,1.6,4.2,3.1,8.6,4.9,13.9,4.4,1-.2,1.9-.5,2.9-1,.6-.2.8-.2,1.4-.2s1.3,0,2.1-.6c.8-.8,1.2-1.5,1.2-2.7s-.3-1.8-1-2.7c-1-.7-1.9-.9-3.1-.8-.9.4-1.6.9-2.1,1.7v.5c0,.3-.4.6-.8.7-3.7.8-7.2-.5-10.3-2.5-1.9-1.3-4-2.9-5.2-4.8,0-1,.4-1.9.8-2.8,0,0,0-.3.2-.4,2-4.3,5.3-7.7,9.8-9.4,6.2-2.3,13.1-.6,18.2,3.4h0l-.1-.1Z"/>
          <path class="cls-18" d="M30.61,145.11c.9.7,1.5,1.6,2.2,2.5.8.9,1.6,1.8,2.5,2.6,2.6,2.5,4.1,5.2,4.8,8.7v.5c.3,1.4.3,2.8.3,4.2v.7c0,4.4-1.4,8.5-4.3,11.9,0,0-.2.3-.3.4-2.3,2.8-5.9,4.5-9.5,5-5.1.5-9.3-1.1-13.4-4.3-4.3-3.6-7-8.9-7.6-14.5-.3-5.5.6-10.8,4.2-15.1,5.3-5.9,14.2-7.1,20.9-2.6h.2Z"/>
          <path class="cls-105" d="M52.61,216.31c0,3.2,0,6.5.2,9.8,1.9.4,3.9.8,5.8,1.1,1,0,2,.3,3,.5h.7c.7,0,1.5.2,2.2.4h.8c2.6.4,5.2.9,7.8,1.4h.6c.9.2,1.8.3,2.7.5,2,.5,4,.5,5.9,0,.3-.2.6-.4,1-.7.4-.2.7-.5,1.1-.7.4-.3.8-.5,1.2-.8.3-.2.7-.5,1-.7.2-.2.5-.3.7-.5.6-.4,1.3-.8,1.9-1.3,0,0,.3-.2.4-.3.3-.2.5-.3.8-.5.6-.4,1-.7,1.3-1.4v-5c2.4.3,4.8.8,7.2,1.2h.6c1.5.3,3,.5,4.4.8h.6c1,.2,2,.4,3.1.6.3,0,.6,0,.9.2.4,0,.8.2,1.3.2h.7c.5,0,.9.2,1.4.5.5.9.4,2.1.2,3.1-.4.7-1,1.1-1.7,1.5-.2.2-.5.4-.7.5-.6.4-1.2.8-1.8,1.3-1,.7-2,1.5-3,2.2-2,1.5-4.1,3.1-6.1,4.6-1.8,1.3-3.5,2.6-5.2,3.9-1.3,1-2.7,2-4,3,0,0-.3.2-.4.3-1.8,1.3-3.2,2-5.4,1.8-1.1-.2-2.2-.4-3.3-.7-.3,0-.6,0-.8-.2-.6,0-1.2-.3-1.9-.4-4.9-1.1-9.9-2.2-14.8-3.2-1.3-.3-2.6-.6-3.9-.8h-.5c-2.3-.5-4.6-1-6.9-1.5-2-.4-3.9-.9-5.9-1.3-2.9-.6-5.9-1.3-8.8-1.9-.4,0-.8-.2-1.1-.2-.5,0-1.1-.2-1.6-.3h-.5c-.4,0-.9-.2-1.3-.3h-1.5c-.5-.2-.7-.5-1-1v-1.7c.5-1.7,3.1-2.6,4.5-3.4.3-.2.5-.3.8-.5.6-.3,1.1-.7,1.7-1,.7-.4,1.5-.9,2.2-1.3,2.3-1.4,4.6-2.7,6.9-4.1,1.1-.6,2.1-1.2,3.2-1.8.2,0,.4-.3.6-.4.4-.2.8-.5,1.2-.7.2,0,.4-.2.5-.3,0,0,.3-.2.5-.3s.4-.2.6-.2h-.1Z"/>
          <path class="cls-99" d="M143.51,155.31c5,4.2,8.4,9.6,10.1,15.9v.4c1.8,7,.6,14.5-3,20.8-3.3,5.3-8.6,9.2-14.7,10.6-3.5.8-7.3.7-10.8,0h-.4c-7.2-1.7-13.1-6.7-17-12.9-3.4-5.5-4.8-12.1-4-18.5,0-1.1,0-2.1-.2-3.1-.3-.4-.6-.8-1-1.2-.7-.8-1.3-1.8-1.9-2.7,0-.2-.2-.3-.3-.5-.3-.5-.6-1-.9-1.5,0,0-.2-.3-.3-.4-.9-1.4-1.3-2.3-1.3-2.8.6-.2,1.1-.5,1.7-.7.2,0,.3,0,.5-.2.8-.4,1.6-.7,2.5-1,0,0,0,.2.2.3.5.9,1,1.7,1.6,2.6.2.3.4.7.6,1,0,.2.2.3.3.5,0,.2.2.3.3.5,0,0,.2.3.3.4,0,.3.2.5.2.7h.4c0-.2,0-.3.2-.5,1.8-5,6.5-9,11.2-11.3,8.7-4.1,18.5-2,25.8,3.7h-.2.1v-.1ZM114.61,161.01c-1.7,2-3.5,4.7-4,7.3.2,1.9,2.5,3.4,3.8,4.6,2.6,2.1,6,3.7,9.4,3.7h.4c.9,0,1.7,0,2.5-.4.2-.2.3-.4.4-.7.3-.7.6-1.1,1.3-1.6,0,0,.2-.2.4-.2,1-.4,2-.2,2.9.2.8.4,1.2,1.1,1.5,1.9.2,1.4,0,2.4-.8,3.5-.5.5-.9.7-1.5,1h-.8c-1.1,0-2,.3-3,.8-2.8,1.1-6.7.6-9.4-.5-2.7-1.2-5.3-2.8-7.5-4.7-.2-.2-.4-.3-.6-.3-.3,5.2,1.9,10.5,5.2,14.4,0,0,.2.2.3.3,2.8,3.4,6.5,5.7,10.7,7,.2,0,.4,0,.5.2,1.4.4,2.7.5,4.2.5h.7c4.8,0,8.8-2.1,12.2-5.5,3.7-4,5.4-9.4,5.3-14.8-.2-6.1-3.1-12.1-7.4-16.3-4.1-3.8-9.3-5.8-14.9-5.7-4.5.2-8.6,2.4-11.7,5.6v-.3h-.1Z"/>
          <path class="cls-1" d="M110.31,92.51c.5.3.9.6,1.2,1v.4h.5c2,0,4,.4,6,.7h.5c14.3,2.2,22.8,5,25.5,8.5.8,1.1,1,2,.9,3.4-.2.9-.5,1.7-.7,2.6v.4c-3.2,10.1-8.1,20.2-15.4,28.1-.4.4-.7.8-1,1.2-.9,1-1.8,1.9-2.7,2.8-.2.2-.3.3-.5.5-2.8,2.8-8.1,7.8-12.4,7.9-.9,0-1.4-.2-2-.8-.6-.7-.7-1.4-.6-2.3,0-.7.4-1.1.8-1.6.5-.3,1-.4,1.6-.5,1.9-.4,3.3-1.7,4.8-3,.5-.4,1-.8,1.5-1.2,1.5-1.1,2.9-2.5,4.2-3.8.3-.3.6-.5.9-.5v-.3c.3-.5.6-.8,1-1.2,6.5-6.4,10.6-15.2,13.8-23.6,0,0-.3,0-.4.2-1.9.7-3.7,1-5.7,1.3h-.8c-4.3.6-8.7.8-13.1.8h-.8c-3.8,0-7.7,0-11.5-.4h-.7c-5.5-.5-11.2-1.1-16.6-2.4h-1.3c-.4.3-.8.6-1.2.9-1,.7-2.3.6-3.4.5-1.4-.4-2.3-1.5-3.1-2.7-.4-1.1-.3-2.5,0-3.6.5-1.2,1.5-1.9,2.6-2.6,1.8-.5,3-.2,4.6.6.3.2.6.5.8.8.6.7,1.2.7,2.1.8h.5c.5,0,1.1.2,1.6.2s.8,0,1.1.2c1.1.2,2.2.3,3.4.5h.5c1.9.3,3.8.5,5.7.7h1.2c4.6.5,9.2.5,13.8.5h1.4c6.6,0,12.9-.3,19.1-2.6v-.4c-6.7-3.1-14.5-4.1-21.7-5.4-.3,0-.7,0-1-.2-.5,0-.9-.2-1.4-.3h-.4c-.8,0-1.5-.2-2.3-.2-.3.3-.7.5-1,.8-1,.6-2.1.5-3.3.4-1.1-.4-1.9-1.2-2.5-2.1-.5-1.1-.5-2.1-.2-3.3,1.2-2.3,3.7-3.3,6.1-2.1h0v.4h0Z"/>
          <path class="cls-129" d="M22.91,112.21c.9.5,1.4,1.1,1.9,2v.9c0,1.2.7,1.8,1.5,2.6.3.3.5.5.8.8,0,0,.3.2.4.4.5.5.9,1,1.4,1.6.5.5.9,1,1.4,1.6.2.2.4.4.6.6,0,0,.2.2.3.3.7.7,1.3,1.5,2,2.2.3.3.5.6.8.8h1.1c3-.4,6.1.2,9.1.7.5,0,1,.2,1.5.2,1.5.2,2.9.5,4.4.7.4,0,.8,0,1.2.2,2.3.4,4.7.8,7,1.1,3.7.6,7.3,1.2,11,1.7,3.9.6,7.8,1.2,11.7,1.8,3.2.5,6.4,1,9.7,1.5,1.5.2,3.1.5,4.6.7,2.7.5,5.4.9,8.1,1.3.5,0,1,.2,1.6.2h.8c.6,0,1.3.2,1.9.3,1.2.2,2.4.4,3.7.6.6,0,1.1.2,1.7.3h.8c.4,0,.8,0,1.1.2h.7c.7,0,1,.4,1.5.9h-.4c-2.2.5-4.5,1-6.6,1.8-.2,0-.3,0-.5.2-.9.3-1.7.6-2.5,1.1l-1.2.6s-.3,0-.4.2c-.3,0-.6.3-.9.4,0,0-.3,0-.4.2,0,0-.3,0-.4.2s-.4.3-.9.6c-1.1,0-2.1,0-3.2-.3h-.5c-.6,0-1.2-.2-1.8-.3-.4,0-.8-.2-1.3-.2-1.1-.2-2.2-.4-3.3-.6-1.9-.4-3.9-.7-5.8-1.1h-.6c-5.6-1-11.2-2-16.8-2.9-.5,0-1-.2-1.6-.3-.3,0-.7,0-1-.2-1.9-.3-3.7-.6-5.6-1-1.8-.3-3.6-.6-5.3-.9-2-.3-3.9-.7-5.9-1-1.6-.3-3.1-.5-4.7-.7-1.8-.2-3.6-.6-5.4-.9-.5,0-1.1-.2-1.6-.3h-.4c-1.7-.3-3.5-.6-5.2-.9-1.7-.2-3.5-.6-5.2-1,.3-1.2.6-1.7,1.5-2.5h.4c-1.1-1.3-2.2-2.6-3.3-3.9-.5-.6-1-1.1-1.5-1.7-.5-.6-1.1-1.2-1.7-1.8-.3-.3-.5-.6-.7-.9-.7-.9-1.4-1.2-2.5-1.5-.9-.3-1.3-.9-1.8-1.7-.3-1-.4-1.8,0-2.8,1-1.8,2.9-2.6,4.9-1.8l-.2-.2h0v-.1Z"/>
          <path class="cls-85" d="M27.31,132.61c2,.3,4,.6,6,1,.5,0,1.1.2,1.6.3,1.5.3,3,.5,4.5.8,1.9.4,3.8.7,5.7,1,2.2.3,4.4.7,6.5,1.1.7,0,1.3.2,2,.3,1.4.2,2.7.4,4.1.7,2.1.4,4.3.8,6.4,1.2.4,0,.8,0,1.2.2,1.9.3,3.8.6,5.7,1,2.1.3,4.1.7,6.2,1.1,2,.4,4,.8,6.1,1.1,1.5.3,3.1.5,4.6.8,1.8.4,3.6.7,5.5,1,2.3.4,4.6.8,6.9,1.3.6,0,1.3.3,1.9.4-1.2,3.1-3,5.6-5.2,8.1,0,0-.2.2-.3.3-.2.2-.4.3-.7.3h-1.9c-.5,0-1-.2-1.5-.3h-.6c-.4,0-.8-.2-1.2-.2-.6,0-1.2-.2-1.8-.4-2.5-.5-4.9-1-7.4-1.5-4.2-.9-8.3-1.7-12.5-2.6-.7,0-1.4-.3-2.1-.4-3.8-.8-7.6-1.5-11.4-2.2-1.5-.3-2.9-.6-4.4-.9-1.5-.3-3-.6-4.5-.8-1.1-.2-2.2-.4-3.4-.6-2.3-.5-4.7-.9-7-1.3-1.7-.3-3.4-.6-5-.9-.9-.2-1.8-.3-2.7-.3-1.5-3.1-1.6-5.7-1.3-9v-.5h0v-.1Z"/>
          <path class="cls-132" d="M25.51,137.31h.5c.5,0,.9.2,1.3.4.3.4.5.8.6,1.3,0,.2,0,.3.2.5,0,.2,0,.3.2.5.5,1.4,1.2,2.6,2,3.8.3.4.5.9.8,1.3-.7-.3-1.3-.6-2-.9-.9-.5-1.9-.8-2.9-1.2h-.4c-3.8-1.2-8.1-.6-11.7,1.2s-1.8,1.2-2.7,2c0,0-.3.2-.4.3-1.9,1.7-3.1,4.1-4,6.4,0,0,0,.3-.2.4-1.9,5-1.4,11.2.8,16.1.9,1.9,1.9,3.6,3.2,5.2,0,.2.3.3.4.5,2.9,3.4,7.3,5.9,11.8,6.3,4.2.2,8.2-.7,11.4-3.5,0,0,.2-.2.3-.2,3.2-2.5,4.9-6.9,5.5-10.8.7-5.3-.6-9.7-2.8-14.4.6.3,1.1.6,1.7,1,1,.7,2,1.3,3,2,0,0,.3.2.5.3.6.4,1.2.7,1.8,1.1.7.4,1.1.6,1.4,1.4.2.6.3,1.2.4,1.8v.4c.8,6.4-.7,13.3-4.7,18.4-.4.5-.9,1-1.3,1.5-.3.3-.6.7-.9,1-2.2,2.6-5.7,4.3-8.9,5.2-.2,0-.4,0-.7.2-3.4.8-7.3.7-10.6-.2h-.6c-4.1-1.2-7.7-3.6-10.8-6.6,0,0-.2-.2-.4-.3C2.51,175.21.21,167.91.01,161.51c-.2-6.6,1.8-13,6.3-17.8,5-5.2,12.1-7.1,19.2-5.9v-.5h0Z"/>
          <path class="cls-81" d="M74.01,208.51c.8.2,1.6.3,2.4.5,1.7.3,3.3.7,4.9,1,0,.4,0,.7-.2.9-2,1.8-4.3,2.6-6.9,3.2h-.4c-1.5.3-3,.3-4.6.3h-1.3c-2.4,0-5.1,0-6.9-1.8-.3-.5-.4-.7-.3-1.2v-1.3c0-.3,0-.6.2-1-1.6,0-2.9.9-4,2.1-.5.8-.6,1.6-.4,2.5.5,1.4,1.5,2.4,2.8,3.2,1.1.5,2.2.7,3.4,1h.4c1.6.3,3.3.3,4.9.3h.5c2.3,0,4.6,0,6.9-.6h.4c2.7-.6,5.2-1.6,7.5-3.2,0,0,.2-.2.3-.2,1.1-.8,1.8-2,2.3-3.2,1.1,0,2.2,0,3.3.3h.4c.8,0,1.3.3,1.8.8v10.6c0,.9-.5,1.4-1.2,1.9-.2.2-.5.3-.7.5-.3.2-.5.3-.8.5,0,0-.3.2-.4.3-.6.4-1.3.8-1.9,1.2-.2.2-.5.3-.7.5-.4.3-.9.6-1.3.9-.4.3-.8.5-1.1.8-.3.2-.7.5-1,.7-1.6,1.1-3.2.9-5.1.6-.5,0-1-.2-1.5-.3s-1.1-.2-1.6-.3h-.4c-1.6-.3-3.1-.6-4.7-.8h-.9c-.4,0-.9,0-1.3-.2-2.5-.4-5.1-.9-7.6-1.3-.4,0-.8,0-1.2-.2-.7,0-1.5-.3-2.2-.4h-1.8c-.5,0-1-.3-1.5-.5-.3-.5-.2-.9-.2-1.5v-10.2c0-.9.6-1.3,1.3-1.9.2,0,.3-.2.5-.3s.4-.2.5-.3l.6-.3c.2,0,.4-.2.6-.4.4-.2.8-.5,1.1-.7.4-.3.8-.5,1.2-.8,1.3-.8,2.4-1.2,3.9-1.5h.6c3.7-.7,7.6-.4,11.3.4v-.6h.1Z"/>
          <path class="cls-85" d="M30.21,143.61c2.3.4,4.5.8,6.7,1.2h.7c2.7.5,5.3,1,7.9,1.5.6,0,1.1.2,1.7.3.8.2,1.7.3,2.5.5h.4c1.7.3,3.4.7,5.1,1,1,.2,1.9.4,2.9.5,1.8.3,3.6.7,5.4,1,.6,0,1.2.2,1.8.4.8.2,1.7.4,2.5.5,2,.4,4,.8,6,1.3.6,0,1.3.3,1.9.4,2.2.5,4.5.9,6.7,1.3,2.1.4,4.1.8,6.2,1.2.4,0,.8.2,1.2.3.6,0,1.2.2,1.8.4h1.5c.3,0,.6.2,1,.5-2.4,2-5.1,3.4-7.9,4.8l-.4.2c-1.5,0-3-.3-4.4-.6-.4,0-.8-.2-1.3-.3h-.7c-1.3-.3-2.6-.5-3.9-.8h-.4c-2.4-.5-4.9-1-7.3-1.4-2.3-.4-4.5-.9-6.8-1.3-.3,0-.5,0-.8-.2-1.3-.2-2.5-.5-3.8-.7-2.7-.5-5.3-1-8-1.5-1.3-.2-2.6-.5-4-.8-.9-.2-1.8-.3-2.7-.4-3.5-.3-5.6-1.2-7.9-3.9-.3-.4-.6-.7-.9-1.1,0-.2-.3-.3-.4-.5-1.7-2-2.5-3.4-2.5-4.1h.2v.3h0Z"/>
          <path class="cls-42" d="M144.01,108.11h.2c0,1.6-.6,3-1.1,4.5v.4c-3.2,8.9-7.8,17.6-14.2,24.6-.4.4-.7.8-1,1.2-.9,1-1.8,1.9-2.7,2.8-.2.2-.3.3-.5.5-2.8,2.8-8.1,7.8-12.4,7.9-.9,0-1.4-.2-2-.8-.6-.7-.7-1.4-.6-2.3,0-.7.4-1.1.8-1.6.5-.3,1-.4,1.6-.5,1.9-.4,3.3-1.7,4.8-3,.5-.4,1-.8,1.5-1.2,1.5-1.1,2.9-2.5,4.2-3.8.3-.3.6-.5.9-.5v-.3c.3-.5.6-.8,1-1.2,5.1-5,8.7-11.5,11.5-18,0-.2.2-.4.3-.6.3-.8.7-1.6.9-2.4.3-1,.5-1.8,1.4-2.3.7-.3,1.3-.6,2-.9,1.4-.6,2.7-1.3,3.7-2.5h-.3Z"/>
          <path class="cls-129" d="M22.91,112.21c.9.5,1.4,1.1,1.9,2v.9c0,1.2.7,1.8,1.5,2.6.3.3.5.5.8.8,0,0,.3.2.4.4.5.5.9,1,1.4,1.6.5.5.9,1,1.4,1.6.2.2.4.4.6.6,0,0,.2.2.3.3.7.7,1.3,1.5,2,2.2.3.3.5.6.8.8h1.1c3.2-.5,6.5.2,9.7.8.5,0,1,.2,1.5.2,1,.2,1.9.3,2.9.5.9.2,1.9.3,2.8.4h.7c.4,0,.8,0,1.3.2h1.1c.3,0,.6.2,1,.5-.2,0-.5,0-.7.2h-1.2c0,.2-.3.4-.4.6-.2,0-.4,0-.6-.2v-.4l-.4-.2s.3-.3.4-.4h-.6v.4l-.4.2s0,.3.2.4c0,.2-.3.4-.4.6,0,0,0,.3.2.4,0,.3-.3.5-.4.8l.4.2c-.3.3-.5.6-.8.8,0,0,0,.2-.2.3,0,.2,0,.4.2.6h-.6s-.2-.3-.4-.4c0,0-.3-.2-.4-.4-.3,0-.5,0-.8.2v1h.4c.3,0,.5.2.8.3v.4h-.5c-.4,0-.8,0-1.2.2h-2.3c-.5,0-1-.2-1.6-.3h-.4c-1.4-.2-2.9-.5-4.3-.8-.5,0-1.1-.2-1.6-.3h-.4c-1.7-.3-3.5-.6-5.2-.9-1.7-.2-3.5-.6-5.2-1,.3-1.2.6-1.7,1.5-2.5h.4c-1.1-1.3-2.2-2.6-3.3-3.9-.5-.6-1-1.1-1.5-1.7-.5-.6-1.1-1.2-1.7-1.8-.3-.3-.5-.6-.7-.9-.7-.9-1.4-1.2-2.5-1.5-.9-.3-1.3-.9-1.8-1.7-.3-1-.4-1.8,0-2.8,1-1.8,2.9-2.6,4.9-1.8v-.2h-.1v.1Z"/>
          <path class="cls-145" d="M111.71,222.41l.4.2c.2,1.5,0,2.6-.3,3.1-.5.4-.9.8-1.5,1.1-.2.2-.5.4-.7.5-.6.4-1.2.8-1.8,1.3-1,.7-2,1.5-3,2.2-2,1.5-4.1,3.1-6.1,4.6-1.8,1.3-3.5,2.6-5.2,3.9-1.3,1-2.7,2-4,3,0,0-.3.2-.4.3-1.8,1.3-3.2,2-5.4,1.8-1.1-.2-2.2-.4-3.3-.7-.3,0-.6,0-.8-.2-.6,0-1.2-.3-1.9-.4-4.9-1.1-9.9-2.2-14.8-3.2-1.3-.3-2.6-.6-3.9-.8h-.5c-2.3-.5-4.6-1-6.9-1.5-2-.4-3.9-.9-5.9-1.3-2.9-.6-5.9-1.3-8.8-1.9-.4,0-.8-.2-1.1-.2-.5,0-1.1-.2-1.6-.3h-.5c-.4,0-.9-.2-1.3-.3h-1.5c-.5-.2-.7-.5-1-1v-2.3s.3,0,.4-.2v.8h.3c1.4,0,2.7.4,4,.7.7.2,1.3.3,2,.5h.4c1.2.3,2.4.5,3.5.7,2.1.4,4.2.9,6.3,1.4,1.3.3,2.6.6,3.9.8.7,0,1.4.3,2.1.5,2.5.6,5.1,1.2,7.7,1.7,2.4.5,4.8,1,7.2,1.5h.5c1.6.4,3.3.7,4.9,1.1.4,0,.9.2,1.3.3h.6c1.3.3,2.7.6,4,.8.6,0,1.2.3,1.8.5,1.9.5,4.2,1,5.9,0,.3-.2.7-.5,1-.7.2-.2.5-.4.7-.6.6-.4,1.1-.9,1.7-1.3.8-.6,1.6-1.2,2.4-1.8,0,0,.3-.2.4-.3.3-.2.5-.4.8-.6.7-.5,1.3-1,2-1.5.3-.2.5-.4.8-.6.5-.3.9-.7,1.4-1,1.5-1.1,3-2.2,4.5-3.3.9-.7,1.9-1.4,2.8-2.1,1-.8,2.1-1.5,3.1-2.3.9-.7,1.8-1.3,2.7-2.1.2,0,.4-.2.7-.2v-.4h0v-.2h0Z"/>
          <path class="cls-42" d="M102.71,157.41c0,.2.3.4.4.7,0,0,.2.3.2.4,0,.2.2.3.2.5,1.2,2.3,2.6,4.4,4.1,6.5,0,.2.2.3.3.5.6.9,1.3,1.7,2,2.5.2.3.5.6.7.9,2.8,3.4,7,6.6,11.5,7.2h1.9c.9,0,1.7,0,2.5-.2v-.6c.3-1,1.1-1.6,2-2.1.8-.4,1.7-.2,2.5,0,.9.4,1.4,1,1.9,1.9.4.9.3,2,0,2.9-.5,1-1.3,1.7-2.4,2.1h-.8c-1.1,0-2,.3-3,.8-2.8,1.1-6.7.6-9.4-.5-.9-.4-1.8-.9-2.7-1.4,0,0-.3,0-.4-.2-3.7-2.1-6.8-5-9.4-8.4-.2-.3-.4-.5-.7-.8-.4-.4-.7-.9-1-1.4-.3-.4-.6-.8-.9-1.2-1.2-1.5-2.1-3.1-3.1-4.7,0,0,0-.2-.2-.3-.2-.3-.4-.7-.6-1,0-.2-.2-.4-.3-.6-.3-.5-.4-.9-.5-1.5h.3c.5-.2.9-.4,1.4-.6.2,0,.3,0,.5-.2.2,0,.3,0,.5-.2,0,0,.3,0,.4-.2l.8-.4h.9l.3-.3h0l.1-.1Z"/>
          <path class="cls-71" d="M27.71,129.91l.2.4s0,.3-.2.4h1.8c1.2,0,2.5.4,3.7.6,1.3.3,2.7.5,4,.7h.4c1.8.3,3.6.6,5.4.9.8,0,1.7.3,2.5.5.7,0,1.4.2,2.1.3,1.9.3,3.7.6,5.6,1,2.2.4,4.3.8,6.5,1.1,2.4.4,4.9.8,7.3,1.3,1.5.3,3,.5,4.6.8,2.4.4,4.7.8,7.1,1.2.4,0,.8.2,1.3.2,1.1.2,2.1.4,3.2.6.7,0,1.5.3,2.2.4.7,0,1.4.3,2.1.4.3,0,.7,0,1,.2,1.9.3,3.7.7,5.6,1,.9.2,1.7.3,2.6.5.4,0,.8.2,1.3.2s1.2.2,1.7.3h.5c1.1.2,2.2.4,3.3,0v.4h-.4v.5c0,.7-.4,1.2-.7,1.8h-1.2c-.5,0-1-.2-1.5-.3h-.6c-.5,0-1.1-.2-1.6-.3-2.7-.5-5.3-1-8-1.5-2.1-.4-4.2-.8-6.3-1.2-1.2-.2-2.4-.5-3.6-.6-1.6-.2-3.1-.5-4.7-.8-5.7-1.1-11.5-2.1-17.2-3-1.3-.2-2.7-.5-4-.7-2.2-.4-4.4-.8-6.6-1.1-.4,0-.9,0-1.3-.2-1.3-.2-2.6-.4-4-.7-1.8-.3-3.7-.6-5.5-1-2-.4-4.1-.7-6.1-1.1h-1.2c-.5,0-1-.2-1.6-.4v3.6h-.2v-4.8c0-.7.3-1,.6-1.6v.3-.3h-.1Z"/>
          <path class="cls-129" d="M41.71,154.91c1.8.2,3.5.5,5.2.9,2.8.6,5.7,1.2,8.5,1.7,1.9.3,3.7.7,5.6,1.1,2.6.5,5.2,1,7.8,1.5,3,.6,6,1.2,9,1.8.7,0,1.5.3,2.2.4.6,0,1.2.3,1.7.5-.6.2-1.1.2-1.7,0,.2.4.5.7.8,1s0,.5-.6.8c-1.2.5-2.4.8-3.7,1.2h-.4c-2,.4-4,.5-6,.5h-.4c-3.4,0-5.7-.3-6.9-1,.5-.4,1-.7,1.6-.9,0,0,.3,0,.4-.2h.3-.4c-5.4-1.1-10.7-2.4-15.7-4.7-.4-.2-.9-.4-1.3-.6-1.5-.7-2.9-1.4-4.3-2.3-.2,0-.3-.2-.5-.3,0,0-.3-.2-.4-.3,0,0-.2-.2-.4-.2s-.4-.4-.5-.8h.1v-.1Z"/>
          <path class="cls-113" d="M91.21,212.31l.4.2c0,2.9.2,5.8.2,8.8v.6c0,1.2-.2,2-.6,2.5-.4.3-.8.6-1.3.9-.3.2-.5.3-.8.5,0,0-.3.2-.4.3-.6.4-1.3.8-1.9,1.2-.2.2-.5.3-.7.5-.4.3-.9.6-1.3.9-.6.4-1.1.7-1.7,1.1-.2,0-.4.2-.5.4-.2,0-.3.2-.5.3s-.3.2-.4.3c-.5.2-.7,0-1.2,0v-10.7c0-.5.2-.8.4-1.3.3-.2.6-.4.9-.6.3-.2.5-.3.5-.3.5-.3,1-.5,1.5-.8,1.4-.8,2.8-1.6,4.2-2.5.5-.3,1-.6,1.5-.9,0,0,.3-.2.4-.3.3,0,.6-.3.9-.4,0-.2,0-.4.2-.6h.2v-.1Z"/>
          <path class="cls-152" d="M74.01,208.51c.8.2,1.6.3,2.4.5,1.7.3,3.3.7,4.9,1,0,.4,0,.7-.2.9-2,1.8-4.3,2.6-6.9,3.2h-.4c-1.5.3-3,.3-4.6.3h-1.3c-2.4,0-5.1,0-6.9-1.8-.3-.5-.4-.7-.3-1.2v-1.3c0-.3,0-.6.2-1h-1c0-.2,0-.4.2-.6.5,0,1-.2,1.5-.3h.4c.4,0,.8,0,1.2-.2h.6c3.3-.4,6.6,0,9.9.5h.3Z"/>
          <path class="cls-45" d="M22.91,112.21c.9.5,1.4,1.1,1.9,2v.9c0,1.2.7,1.8,1.5,2.6.3.3.5.5.8.8,0,0,.3.2.4.4.5.5.9,1,1.4,1.6.5.5.9,1,1.4,1.6.2.2.4.4.6.6.2.2.4.4.6.7.4.4.8.8,1.2,1.3.2.2.3.4.5.6.4.4.7.8,1,1.3h-.3c-.5.2-1,.4-1.4.5-.2,0-.3,0-.5.2-.8.3-1.6.6-2.3.9-1.6-1.7-2.7-2.9-3.3-3.7-.8-1-1.7-2-2.6-2.9s-.2-.2-.3-.3c0,0-.2-.2-.3-.3-.3-.3-.6-.7-.9-1.1-.5-.6-.9-.8-1.6-1-1.1-.4-1.7-.8-2.4-1.8-.3-1-.4-1.8,0-2.8,1-1.8,2.9-2.6,4.9-1.8l-.3-.4h0v.1Z"/>
          <path class="cls-92" d="M37.81,152.41c2.7.3,5.3.8,7.9,1.3,1.7.3,3.4.7,5.2,1,3.7.7,7.3,1.4,11,2.1h.4c1,.2,2,.4,3.1.6,2.7.5,5.4,1,8,1.6h.6c1.5.3,3.1.6,4.6.9.7,0,1.3.3,2,.4h.6c1.5.3,3.1.6,4.6.9-.5.5-1,.6-1.7.8v.6c-.7,0-1.3-.2-1.9-.4,0,0,0,.3-.2.4-2.7-.5-5.5-1-8.2-1.5-1-.2-1.9-.4-2.9-.6h-.6c-1.6-.3-3.3-.6-4.9-.9-2-.4-4-.8-6-1.2s-2-.4-3-.6c-2-.4-4-.8-6-1.2-.7,0-1.3-.3-2-.4-2.6-.5-4.5-.9-5.7-1.2s-1.6-.3-1.2-.2c-.6,0-.9-.2-1.4-.5,0,0-.2-.2-.3-.3,0,0-.2-.2-.3-.3,0,0-.2-.2-.4-.3-.5-.4-.9-.7-1.3-1.3v.2h0v.1Z"/>
          <path class="cls-78" d="M66.51,173.81h.5c4.3,0,8.9.3,12.8,2.4-2.4,1.6-5.4,2.1-8.3,1.7-1.1,0-2.3-.2-3.4-.3h-5.3v-.2h1.2s0-.3.2-.4c.2-.5.5-.9.8-1.3v.4h.4l-.2-.6h.4v-1.2c-.6,0-1.3,0-1.9-.2v.5c0,.2,0,.3-.2.5-.3.2-.7.3-1,.4v-.8c-.7-.2-1.2-.2-1.9,0h-1c1.3-1.3,5-.8,6.8-.8h0l.1-.1Z"/>
          <path class="cls-41" d="M75.51,209.01c2,0,4,.5,5.9,1,0,.4,0,.7-.2.9-2,1.8-4.3,2.6-6.9,3.2h-.4c-1.5.3-3,.3-4.6.3h-1.3c-2.1,0-4.3,0-6.2-1.2.7-.7,1.5-.8,2.5-.9h.5c2.6-.3,5.9-.4,8.3.8,0-.2,0-.4-.2-.6l.2-.4.6.2v.4c.4,0,.8,0,1.2.2v-.6s-.3,0-.4-.2h.6s0-.3.2-.4c0,0,.3.3.4.4.5-.8.6-1.4.6-2.3l.2-.2c-.3,0-.6-.3-1-.4v-.2h0Z"/>
          <path class="cls-112" d="M41.71,154.91c1.8.2,3.5.5,5.2.9,1.9.4,3.7.8,5.6,1.2h.6c.8.2,1.7.3,2.5.4h.6c.2,0,.3,0,.2.4,0,.3-.3.3-.6.2s-.5.2-.4,1c.2.5.4.9.6,1.3,0,.2-.3.4-.4.6.3,0,.6.3,1,.4v.4h.6c0-.2,0-.4.2-.6.3.5.4.8.4,1-1.3,0-2.4-.4-3.6-.8-.2,0-.4,0-.6-.2-4.1-1.4-8.5-3.2-11.9-5.9v-.4h0v.1Z"/>
          <path class="cls-56" d="M80.81,163.71c0,.4-.3.7-.6.8-1.2.5-2.4.8-3.7,1.2h-.4c-2,.4-4,.5-6,.5h-.4c-3.4,0-5.7-.3-6.9-1,1.4-1.1,2.6-1.4,4.4-1.3,3.9.3,7.8,0,11.6-.4h2.1v.2h-.1Z"/>
          <path class="cls-83" d="M131.31,173.51c.9.4,1.4,1,1.9,1.9.4.9.3,2,0,2.9-.5,1-1.3,1.7-2.4,2.1h-2.3l.2-.4c.2,0,.4,0,.6-.2.4,0,.7-.3,1-.6.4-.9.4-1.9,0-2.9,0-.3-.4-.5-.8-.8h-1.7c0,.3,0,.5-.2.8-.6,0-1.1,0-1.7.2l.8-.4c0-.2,0-.4.2-.6.3-1,1-1.6,2-2.1s1.7-.2,2.5,0h0l-.1.1Z"/>
          <path class="cls-4" d="M82.91,169.11c1.1.6,1.9,1.2,2.7,2.1l-.2.4c-.3,0-.5,0-.8-.2l-.2.4h-.4v-.5c0-.3,0-.6-.3-.9h-.4c0,.2,0,.4-.2.6-.3,0-.7.3-1,.4v-.6h-.8c0,.4,0,.7.2,1l-.8.4.4.8c-.5-.2-1-.5-1.4-.8-1.1-.7-2.2-1.2-3.4-1.7v-.2h.7c.3,0,.6,0,.9-.2h.4c.7-.2,1.4-.4,2.1-.6.9-.3,1.5-.4,2.4,0v-.3h.1v-.1Z"/>
          <path class="cls-82" d="M42.31,226.81h.8c.8,0,1.2.2,1.9.6,0,.4.2.8.2,1.2-1.1,1-2,1-3.4,1s-1.4-.4-2-1c0-.6,0-.8.3-1.3.7-.5,1.4-.5,2.3-.5h-.1Z"/>
          <path class="cls-8" d="M86.21,235.71c.3.4.4.7.3,1-.2.4-.4.7-.7,1-1.2.4-2.6.4-3.8,0-.3-.2-.5-.4-.8-.7,0-.6,0-.9.6-1.3,1.4-.8,3-.5,4.4,0h0Z"/>
          <path class="cls-131" d="M101.41,223.11c.6.2,1,.4,1.5.8,0,.4,0,.8-.2,1.2-.9.7-2,.7-3.1.6-.7,0-1.2-.2-1.7-.6-.2-.3-.3-.7-.4-1,1.2-1.2,2.2-1.5,3.9-1h0Z"/>
          <path class="cls-49" d="M83.61,179.51c.7.5,1.4,1.1,2,1.7l-.2.4c-.3-.2-.5-.4-.8-.6-.5.2-.9.5-1.3.8h-.8c-.3,0-.6.2-1,.4v-.4h-.4l.2.6-.4.2c.3.3.6.6,1,1l-.2.4s-.2-.2-.3-.3c-.8-.7-1.5-1.4-2.5-1.8.6-.5,1.2-.8,1.9-1,.7-.3,1.3-.5,1.8-1,.3-.2.6-.3.9-.2v-.2h.1Z"/>
          <path class="cls-123" d="M75.51,209.01c2,0,4,.5,5.9,1,0,.4,0,.7-.3.9-.8.7-1.6,1.3-2.6,1.8l-.6-.2v-1.5l-.4-.6h-.6c0-.3,0-.6-.2-1-.4,0-.9,0-1.3-.2v-.2h.1Z"/>
          <path class="cls-13" d="M67.01,201.11h.6c1.3,0,2.5,0,3.8.2h.5c.7,0,1.2.3,1.5.6-1.4.2-2.7.2-4.1.2h-1.3c-1.8,0-3.6,0-5.4-.4,0,0,0-.3.2-.4,1.4-.3,2.8-.2,4.2-.2h0Z"/>
          <path class="cls-116" d="M65.81,189.21h.5c1.4,0,2.9,0,4.3.2h1.7c.5,0,.8.2,1.2.5-1,0-2.1.2-3.1.2h-2.7c-2.2,0-3.8,0-4.7-.4,0,0-.3-.3-.4-.4,1.1-.2,2.1-.2,3.3-.2h-.1v.1Z"/>
          <path class="cls-10" d="M70.11,174.11h1.6c.5,0,.9,0,1.3.2v.6l.6.2c-.4,0-.8.3-1.2.4,0-.3,0-.5-.2-.8h-.4v1.2c-.2.6-.4,1-.8,1.5.3,0,.6,0,1,.2v.2c-3,0-6,0-9-.2v-.2c2.4-.2,4.7-.2,7.1-.2,0-.2,0-.4-.2-.6s.3-.6,1.2-1.3h-1.3c.2,0,.4-.3.6-.4l-.2-.8h-.1Z"/>
          <path class="cls-36" d="M73.01,174.31c.7.2,1.3.4,1.9.6-.2.2-.4.4-.6.6h-.4c0,.5,0,1-.2,1.5-.2,0-.4,0-.6-.2-.4,0-.7.3-.8.6.2,0,.4,0,.6.2-.2,0-.5.3-.8.4-.5-.2-.9-.3-1.3-.6l.4-.6c.4-.9.4-1.4.2-2.3h1.2c0,.3,0,.6-.2,1h.4c0-.2.2-.4.2-.6v-.6h0Z"/>
          <path class="cls-98" d="M63.01,177.51h3.7c2.1,0,4.2,0,6.3.4,0,0,.3.3.4.4h-4.4c-3,0-4.9,0-5.7-.4l-.2-.4h-.1Z"/>
          <path class="cls-94" d="M88.91,162.41l.2.4c-.4,0-.8.3-1.2.4,0,.3,0,.6.2,1-.3,0-.5-.3-.8-.4,0,0-.3.2-.4.4-.5.4-.7.5-1.3.6l.2-.6.4-.2h-.8c-.4,0-.8,0-1.2-.2l-.2.6-.2-.6h-.4v-.4l-.6.2v-.4c.8-.2,1.6-.3,2.4-.5h3.7v-.3h0Z"/>
          <path class="cls-135" d="M79.11,162.21c.9,0,1.8.3,2.7.6-.6.2-1.1.2-1.7,0,0,.2,0,.4.2.6-.3,0-.6,0-1,.2v.2c-2.1.4-4.2.4-6.3.4v-.2h.4c.7-.2.7-.5,1.1-1.1.3,0,.5-.2.8-.2.4.2.7.5,1,.8.3,0,.5,0,.8-.2,0-.2,0-.4.2-.6.3,0,.6,0,1-.2l-.6,1.2h1.2c0-.4.3-.9.4-1.3l-.2-.2Z"/>
          <path class="cls-127" d="M60.31,203.11v.4c0,.3.4.4.8.5h.5v.4c0,.3,0,.6.2.9v.7c-.4,0-.8-.2-1.1-.3-.2,0-.4,0-.6-.2-.3,0-.6-.2-.9-.3v-.4h-.4c0-.3,0-.5.2-.8h.6c0-.3,0-.5-.2-.8l.8-.4v.3h.1Z"/>
          <path class="cls-53" d="M89.81,211.51c.8,0,1.4.2,1.9.8v6.2h-.2c0-1.9,0-3.9-.2-5.9,0,.2-.3.4-.4.6-.9.5-1.7.6-2.7.6,0,0,.3,0,.4-.2-.2,0-.4,0-.6-.2,0-.2,0-.4.2-.6.3,0,.6-.3,1-.4,0,0,0-.3.2-.4h.4v-.4h0v-.1Z"/>
          <path class="cls-87" d="M60.71,163.01h.4c.3,0,.6,0,.9.2.6,0,1.2.2,1.8.3.6,0,1.2.2,1.7.3-.4.4-.8.6-1.3.8-.2,0-.4,0-.5.2h-1l.4-.4c-.4-.4-.7-.5-1.3-.7-.2,0-.3,0-.5-.2h-.4s0,.3-.2.4h-.4v-.4c-.2,0-.4,0-.6.2,0,0-.2,0-.4-.2h-.9l-.5.2-.4.2s-.2,0-.3.2c.9-1.4,1.9-1.4,3.4-1.1h.1Z"/>
          <path class="cls-142" d="M77.01,131.91c1.3,0,2.5,0,3.7.4h.6c.5,0,1,.2,1.4.3v.2c-1.2,0-2.3,0-3.5-.4v.8c.3,0,.5,0,.8.2,0,.3,0,.5-.2.8h-1.6c-.2,0-.4,0-.6-.2v-1.7l-.8-.4h.2Z"/>
          <path class="cls-28" d="M70.71,189.41c.5,0,1,0,1.5.2h1.4v.2c-1.4.2-2.8.2-4.2.2h-2.5c0-.2,0-.4-.2-.6h3.4c.3,0,.5,0,.6-.2h0v.2h0Z"/>
          <path class="cls-109" d="M37.81,152.41l1.2.6c.5.2.7,0,1.2,0s.9,0,1.3.2c0,.2,0,.4.2.6h-.4v.6h.4v.8c-.8-.3-1.4-.7-2.1-1.1-.2,0-.4-.3-.6-.4-.5-.4-.8-.7-1.1-1.2h0l-.1-.1Z"/>
          <path class="cls-107" d="M30.21,143.61c.6.3.7.8,1,1.3,0,0,.3,0,.4.2v.6h.4v-1.3h1.2v.8c0,.3,0,.5.2.8h-.8c0,.7,0,1.1.4,1.7-1.2-1.1-2.5-2.4-2.7-4h0l-.1-.1Z"/>
          <path class="cls-2" d="M83.81,203.01c1.4.7,2.3,2.2,2.8,3.7.4,1.5.2,2.8-.4,4.2l-.2-.4c0-.2,0-.4.2-.6.2-2.2,0-3.9-1.4-5.7-.5-.5-.6-.6-1.3-.8-.4,0-.8.2-1.1.5v-.6c.5-.4.8-.6,1.4-.4h0v.1Z"/>
          <path class="cls-33" d="M71.71,201.41h.7c.3,0,.6.2.9.5-1,.2-1.9.2-2.9.2h-3.9c-.8,0-1.5,0-2.2-.2v-.2c1.9,0,3.7,0,5.6.2v-.4c.7-.2,1.1-.2,1.8,0h0v-.1Z"/>
          <path class="cls-5" d="M60.71,209.01c-.2,0-.3.2-.5.3s-.5.3-.7.4c0,0-.2,0-.3.2-1,.6-1.9,1.2-2.3,2.3,0,.2-.2.4-.2.6v-.4c0-.3-.2-.5-.5-.8s-.6-.2-.8.2c.7-.8,1.6-1.3,2.5-1.9.2,0,.3-.2.5-.3,1.1-.7,1.9-.9,2.4-.7h0l-.1.1Z"/>
          <path class="cls-64" d="M67.01,190.61h4.4s0,.3-.2.4c-.3,0-.7,0-1-.2,0,.3,0,.5-.2.8h-.4s0,.3-.2.4c0-.4,0-.8-.2-1.2-.4.3-.8.6-1.2,1,0,0-.3.2-.4.3,0,0-.4,0-.8-.2v-1.3h.2,0Z"/>
          <path class="cls-63" d="M65.81,173.91h3v.2h-5c0,.3,0,.6-.2,1-.3.2-.7.3-1,.4v-.8c-.7-.2-1.2-.2-1.9,0h-1c1.3-1.3,4.4-.8,6.1-.8h0Z"/>
          <path class="cls-11" d="M50.31,127.61c1.9,0,3.7.4,5.6.8v.2c-.2,0-.5,0-.7.2h-1.2l-.4.6-.6-.2v-.4l-.4-.2c.2-.2.4-.4.6-.6h-1v.4c-.3,0-.5,0-.8.2,0-.3,0-.5-.2-.8-.3,0-.6,0-1-.2v-.2h0v.2h.1Z"/>
          <path class="cls-15" d="M35.91,125.71c2.3,0,4.3,0,6.5.6v.2h-2c-.5,0-.9,0-1.4.2-.5,0-.6.3-.4.6h-.8c-.3-.4-.5-.7-.6-1h.7c.4,0,.7,0,.9-.2h-2.9v-.4h0ZM37.31,127.21c.3,0,.5,0,.8.2l-.4.4c-.2,0-.4-.3-.6-.4l.2-.2Z"/>
          <path class="cls-26" d="M115.21,108.41h8.1v.2c-.6,0-1.2,0-1.7.2,0,.3,0,.5-.2.8-.3,0-.7.3-1,.4-.3,0-.3-.3,0-1.3h-5.2v-.2h0v-.1Z"/>
          <path class="cls-149" d="M74.71,198.31c1.8,0,3.3.7,5,1.3-.6.2-.9.2-1.5,0,0,.3,0,.5-.2.8l-.6-.2.2-.4-.4-.2-.2-.2c-.3,0-.6-.3-1-.4v-.4c-.4,0-.8,0-1.2.2,0-.2,0-.4-.2-.6h0l.1.1Z"/>
          <path class="cls-91" d="M82.71,191.41l.4.2c0,.2-.3.4-.4.6h-.4v.4h-.3c-.6.2-1.1.3-1.5.9v.4l.2.4c-.7-.3-1.4-.6-2.1-1v-.2h.6c1-.2,1.8-.7,2.7-1.2.3-.2.6-.3.9-.4h0l-.1-.1Z"/>
          <path class="cls-75" d="M104.61,94.01c.2.5.2.7,0,1.3v.9h.6c.3.6.4.8.4,1.5-.2,0-.4,0-.6.2,0,.3,0,.5.2.8-.8-.6-1-1.2-1.2-2.1,0-1,0-1.7.6-2.5h0v-.1Z"/>
          <path class="cls-130" d="M80.31,199.21c.3,0,.5,0,.8.2,0,0-.2.2-.3.3-.2.2-.4.5-.5.9-.2,0-.4.3-.6.4,0,0-.3.3-.4.4l-.4-.8-.6.2-.2.8c-.3,0-.5-.3-.8-.4v-.4c.2,0,.4-.2.6-.3.3,0,.5-.2.8-.4,0,0,.3,0,.4-.2.4-.2.8-.4,1.2-.7Z"/>
          <path class="cls-72" d="M63.41,200.21l.8.2c0,.2,0,.4-.2.6h5.9v.2c-2.4,0-4.8,0-7.3.2.3-.4.5-.8.8-1.2h0Z"/>
          <path class="cls-137" d="M28.41,141.51c.5.4.8.9,1.1,1.5,0,.2.2.3.3.5,0,0,0,.3.2.4l-.2.4c-.6,0-1.2-.3-1.7-.6v-.3c0-.6.2-1.2.3-1.8h0v-.1Z"/>
          <path class="cls-11" d="M83.11,132.81h1.9c.5,0,1.1,0,1.6.3v.2h-1.8l-.2-.2s0,.3-.2.4c-.3.2-.6.4-1,.6-.4.2-.7,0-.8-.4l-.2-.4c.2,0,.4-.3.6-.4v-.4.2h0l.1.1Z"/>
          <path class="cls-62" d="M77.91,199.41l1.2.2v.6c-.5.2-.9.4-1.4.6,0,0-.3,0-.4.2-.7.3-1.1.4-1.9.4,0-.3,0-.6-.2-1h1.7c.2,0,.5,0,.9-.2v-.8h.1Z"/>
          <path class="cls-70" d="M136.11,201.71l.8.8v-.6c.3,0,.5.3.8.4-.6.6-1.5.7-2.3.8h-.9s.3,0,.4-.2v-.8c.4,0,.8-.3,1.2-.4h0Z"/>
          <path class="cls-125" d="M106.21,112.11c.3,0,.7,0,1,.2,0,.2,0,.4.2.6h1.3v.2c-2.1,0-4.2,0-6.3-.4v-.2h3.6l.2-.4h0Z"/>
          <path class="cls-29" d="M37.51,152.41c.5.2.8.4.9.7.4.6.9.8,1.6,1.2,0,0-.3.2-.4.3s-.2.3-.4.4c0,.3,0,.7.2,1-.6-.7-.9-1.4-1.3-2.3,0,0,0-.3-.2-.4-.2-.3-.3-.7-.4-1h0v.1Z"/>
          <path class="cls-80" d="M81.81,203.81l.4.2c0,.3-.3.5-.4.8h-.4c0,.2,0,.4.2.6h-.4c0-.2-.3-.4-.4-.6h-.4c0,.2,0,.4.2.6l-.2.6s-.2,0-.3-.2c-.5-.2-.9-.4-1.4-.6.3-.3.6-.4.9-.5.7,0,1.2-.4,1.9-.7h.3v-.2h0Z"/>
          <path class="cls-50" d="M82.21,202.91l.8.4c-1.9,1.2-3.3,1.8-4,1.7l-.4.4-.6-.4h.4l.2-.4c.3,0,.7-.3,1-.4l.4.2c.4,0,.8-.3,1.2-.6l.6-.3c.2,0,.3-.2.5-.3v-.4h0l-.1.1Z"/>
          <path class="cls-67" d="M70.11,185.81h1.8c.7,0,1.2,0,1.9.4h-.5c-.4,0-.7.2-.9.7l-.6.2v-.4h-.4v-.4c-.2,0-.4,0-.6-.2-.3,0-.5-.3-.8-.4h0l.1.1Z"/>
          <path class="cls-104" d="M68.71,181.81v1.2c-.8.2-1.5.2-2.3.2,0-.2,0-.4-.2-.6.9-.6,1.4-.9,2.5-.8h0Z"/>
          <path class="cls-122" d="M78.91,169.81h.9s0,.3-.2.4c-.3,0-.5,0-.8.2v.8c-.7-.2-1.4-.5-2.1-.8.8-.5,1.3-.6,2.1-.6h.1Z"/>
          <path class="cls-90" d="M38.01,153.01c.7.3,1.3.6,1.9.9.2,0,.3.2.5.3,0,0,.2.2.3.3v.6c-.6.3-.8.4-1.5.4,0-.3,0-.5-.2-.8.2,0,.4,0,.6-.2-.2-.3-.5-.5-.8-.8h-.4l-.4-.8h0v.1Z"/>
          <path class="cls-43" d="M64.91,175.61l.2.4c.3,0,.6,0,1-.2,0,.6-.3,1-.4,1.3-.5,0-1,0-1.5.2.2-.6.5-1.2.8-1.7h-.1Z"/>
          <path class="cls-76" d="M101.01,157.81l.4.2c-.6.4-1,.7-1.3.8v.6c-.4,0-.9,0-1.3.2,0,.3,0,.5-.2.8,0-.3,0-.5-.2-.8h-.4v-.4c.5-.2,1-.5,1.5-.7,0,0,.3,0,.4-.2.4-.2.7-.3,1.1-.5h0Z"/>
          <path class="cls-124" d="M45.11,227.61c.2,0,.4.3.6.6s0,.5-.2.8c-.3.3-.7.4-1.2.4l-.2.4h-1.9c-.7,0-1.1,0-1.7-.4h.5c1.2,0,2.4,0,3.5-.4.5-.5.5-.7.6-1.3h0v-.1Z"/>
          <path class="cls-6" d="M58.81,186.71l.4.2c-.3.3-.6.6-1,1s-.3.3-.4.4c-.2.2-.4.4-.7.5s-.3.5,0,1v.9h-.2c0-1.2,0-2,.2-2.5.5-.6,1.1-1.2,1.9-1.5h-.2Z"/>
          <path class="cls-21" d="M81.81,172.21h.6c-.2,1.9-.6,3.1-1.2,3.6,0,0-.3,0-.4-.2,0,0,.3-.2.4-.3.3-.3.4-.7.3-1.2s-.2-.9-.3-1.2c.2,0,.4-.3.6-.4v-.4h0v.1Z"/>
          <path class="cls-133" d="M142.11,199.41c.2,0,.4.3.6.4,0,0,.3,0,.4.2-.4.2-.7.5-1.1.7s-.4.3-.6.4-.6,0-1.1,0-.4-.2.5-.2c.5-.3.7-.5.9-1.1h.6v-.4h-.2ZM142.41,199.41l.4.2-.4-.2Z"/>
          <path class="cls-108" d="M104.61,107.71c1.5,0,3.1,0,4.6.2v.2h-3.5c0,.3-.3.5-.4.8,0-.3,0-.6-.2-1-.2,0-.4,0-.6-.2h.1Z"/>
          <path class="cls-31" d="M83.11,179.51c1,.3,1.7,1,2.5,1.7l-.2.4s-.2-.2-.3-.3c-.5-.4-1-.4-1.6-.5,0-.3,0-.5.2-.8h-1c0-.2.3-.4.4-.6h0v.1Z"/>
          <path class="cls-9" d="M27.51,143.41h.4c.2,0,.3,0,.5.2.2,0,.3,0,.5.2.3,0,.7.2,1,.2s.6.2.8.7c0,.2.2.4.2.6-.8-.3-1.5-.7-2.3-1.1,0,0-.2,0-.3-.2-.3-.2-.6-.3-.8-.5v-.2h0v.1Z"/>
          <path class="cls-30" d="M53.61,226.51h1.6c.5,0,1,0,1.5.3v.2c-.9,0-1.6,0-2.1-.2,0,.2,0,.4-.2.6h-.8c0-.2,0-.4-.2-.6l.2-.4h0v.1Z"/>
          <path class="cls-148" d="M70.71,201.31h1.7c.3,0,.6.2.9.5-.9,0-1.8,0-2.7.2v-.8h0l.1.1Z"/>
          <path class="cls-95" d="M1.81,164.31c0,.3,0,.6.2,1,0,.4-.2.7-.8.8,0,.3-.3.5-.4.8,0-.6-.2-1.1-.2-1.7.3-.5.7-.8,1.2-.8h0v-.1Z"/>
          <path class="cls-77" d="M75.51,209.01c1.3,0,2.4.2,3.6.6v.2h-1.7c0,.2,0,.4-.2.6-.3-.4-.4-.7-.4-1-.4,0-.9,0-1.3-.2v-.2h0Z"/>
          <path class="cls-16" d="M67.41,177.51h1.9c.4,0,.8.2,1.2.6h-3.1v-.6h0Z"/>
          <path class="cls-38" d="M55.11,155.71c1.6,0,3.1.4,4.6.8v.2c-.9.2-1.4,0-2.3-.2-.8-.2-1.5-.4-2.3-.6v-.2h0Z"/>
          <path class="cls-150" d="M38.41,152.61c1,0,1.8,0,2.8.3.2,0,.5,0,.7.2h.5v.2c-1,0-1.9,0-2.9-.2h-.6l-.6-.6h0l.1.1Z"/>
          <path class="cls-32" d="M63.61,228.21c1.1,0,2.2,0,3.3.4v.2h-1.2v.8l-.6-.2c0-.2,0-.4-.2-.6-.5,0-.9-.3-1.3-.4v-.2h0Z"/>
          <path class="cls-136" d="M58.41,216.11s.3,0,.4.2c.4,0,.7.3,1.1.4,0-.2,0-.4.2-.6.3,0,.5.4.6.8,0,.2,0,.4.2.6-1,0-1.7-.5-2.5-1.2v-.2h0Z"/>
          <path class="cls-26" d="M61.81,213.41c.7,0,1.4.3,2.1.6-.6.3-1,.4-1.7.4,0,.2,0,.4-.2.6,0-.2-.3-.4-.4-.6h.4c0-.3,0-.6-.2-1h0Z"/>
          <path class="cls-74" d="M101.21,135.71h1.9c.5,0,1.1,0,1.6.3v.2c-.6,0-1.3,0-1.9-.2v.4c-.4,0-.9,0-1.3-.2,0-.2,0-.4-.2-.6h0l-.1.1Z"/>
          <path class="cls-51" d="M71.71,202.31h.9v.2c-.3,0-.6,0-1,.2,0,.3,0,.6-.2,1-.4,0-.7-.3-.8-.6,0,0,0-.3-.2-.4,0,0-.3,0-.4-.2.6-.2,1-.2,1.6-.2h.1Z"/>
          <path class="cls-57" d="M74.71,198.31h1.8s0,.3.2.4c.4,0,.8.3,1.2.4-.2,0-.4.3-.6.4-.5-.2-.9-.4-1.3-.6v-.4c-.4,0-.8,0-1.2.2,0-.2,0-.4-.2-.6v.2h.1Z"/>
          <path class="cls-89" d="M93.31,218.81c.6,0,1.3,0,1.9.2v.2h-1c0,.2,0,.4.2.6,0,.2-.3.4-.4.6s-.3,0-.5-.6-.2-.7,0-.4l.2-.2-.4-.4h0Z"/>
          <path class="cls-40" d="M80.61,194.21c.7.3,1.3.7,1.9,1.2,0,.6,0,1.3-.2,1.9h-.2v-.7c-.2-1-.8-1.6-1.4-2.4h-.1Z"/>
          <path class="cls-39" d="M105.01,178.51l.4.2c-.2.6-.5,1-.8,1.2s-.4.5-.2,1c-.5-.7-.4-1.1-.4-1.9.3,0,.7-.3,1-.4h0v-.1Z"/>
          <path class="cls-146" d="M105.21,155.51c-.4.5-.9.8-1.5,1.1-.2,0-.3.2-.5.3,0,0-.3,0-.4.2l-.4-.2h.5c.2,0,.3,0,.5-.2s.3-.3.2-.8c.5-.3,1-.2,1.5-.2h0v-.2h.1Z"/>
          <path class="cls-21" d="M83.11,191.01c1.2.8,2,1.4,2.5,1.9l-.2.4c-.2-.2-.3-.4-.5-.6-.6-.6-1-.7-1.8-.8v-1h0v.1Z"/>
          <path class="cls-58" d="M83.71,179.11c.2,0,.4,0,.6.2v.4c.4.4.8.7,1.2,1,.4.4.5.6.5,1.1,0,0-.3-.3-.4-.4-.6-.6-1.4-1.2-2.1-1.7,0-.2,0-.4.2-.6h0Z"/>
          <path class="cls-19" d="M86.61,184.11h.2c0,1.4,0,2.5-.6,3.8-.2-.7,0-1,0-1.7s0-.8.2-1.1c0-.3,0-.7.2-1h0Z"/>
          <path class="cls-119" d="M62.01,217.51c.3,0,.7,0,1.1.3.9.3,1.8.4,2.8.5v.2c-1.5,0-2.8-.2-4.2-.6l.4-.4h-.1Z"/>
          <path class="cls-25" d="M109.61,175.41l1.2.8-.4.4-.2-.2c0,.5-.3,1-.4,1.5h-.2v-2.5Z"/>
          <path class="cls-143" d="M98.91,135.31h1.1c.3,0,.6,0,1,.2.4,0,.5.4.2.8s-.6.4-1,0c0,0-.2,0-.3-.2v-.4c-.3,0-.6,0-1-.2v-.2h0Z"/>
          <path class="cls-77" d="M73.91,186.21c1.5,0,2.6.3,3.3.6,0,0,0,.3-.2.4h-.4v-.4h-.3c-.9,0-1.5,0-2.3-.4v-.2h-.1Z"/>
          <path class="cls-27" d="M69.51,178.71h2.5c0,.3,0,.5.2.8-.2,0-.4.3-.6.4,0-.3-.3-.6-.4-1h-1.7v-.2Z"/>
          <path class="cls-115" d="M78.41,175.51s.3,0,.5.2c.2,0,.3,0,.5.2.3,0,.5.3.6.6h-1.3c-.5,0-.7-.3-1-.7h.8v-.3h-.1ZM77.91,176.21c0,.2,0,.4.2.6h-.4c0-.2,0-.4.2-.6h0Z"/>
          <path class="cls-144" d="M62.21,163.51h2.2s0,.3.2.4c-.2,0-.5.3-.8.4-.2,0-.4,0-.6-.2,0,0,0-.3.2-.4-.4,0-.9,0-1.3-.2v-.2.2h.1Z"/>
          <path class="cls-69" d="M40.71,143.41h1.8c.8,0,1.4.2,2.1.5v.2c-1.3,0-2.6-.3-3.8-.6v-.2h0l-.1.1Z"/>
          <path class="cls-118" d="M65.41,207.81h1.4s0,.3.2.4c-.8,0-1.6.3-2.5.4,0-.6.3-.8.8-.8h.1Z"/>
          <path class="cls-106" d="M5.41,144.31v.6s.3.3.4.4c-.5.4-.9.6-1.3.6v.4s-.3,0-.4-.2c.4-.6.9-1.1,1.3-1.7h0v-.1Z"/>
          <path class="cls-48" d="M65.91,130.11c1.2,0,2.3,0,3.5.4v.2h-1.2s0,.3-.2.4c0-.2,0-.4-.2-.6-.6,0-1.3,0-1.9-.2v-.2h0Z"/>
          <path class="cls-97" d="M129.21,129.01l.4.2c0,.3-.3.5-.4.8,0,0,0,.3-.2.4,0,0-.2.2-.3.3h-.8c.3-.7.8-1.2,1.3-1.7Z"/>
          <path class="cls-26" d="M83.51,213.01c.4,0,.7.3.8.6,0-.2.3-.4.4-.6,0,0,.3,0,.4.2-.3.4-.6.8-1,1.2h-.4c0-.3-.3-.7-.4-1l.2-.4Z"/>
          <path class="cls-120" d="M63.01,177.51h1.9c0,.2,0,.4.2.6h-1.8l-.2-.4v-.2h-.1Z"/>
          <path class="cls-55" d="M83.51,163.31v.4c-.9.3-1.4.3-1.7.2,0,0-.2,0-.4-.2.7-.7,1.2-.6,2.1-.4Z"/>
          <path class="cls-23" d="M84.51,163.11h1.2c0,.3-.3.5-.4.8-.3,0-.6,0-1-.2,0,.2,0,.4-.2.6,0-.2,0-.4-.2-.6.2,0,.4,0,.6-.2v-.4h0Z"/>
          <path class="cls-124" d="M99.11,225.71h2.7c-.8.4-1.4.5-1.9.4h-.7v-.2h0v-.2h-.1ZM100.21,226.31h.4s0,.3-.2.4c0,0,0-.3-.2-.4h0Z"/>
          <path class="cls-37" d="M79.31,200.41h-.5c-.2,0-.4.3-.6.6v.4c-.3,0-.5-.3-.8-.4v-.4c.9-.4,1.5-.5,1.9-.4h0v.2h0Z"/>
          <path class="cls-78" d="M57.81,199.21l.4.2c0,.3-.2.5-.4.8-.3,0-.5,0-.8.2,0,.3-.3.5-.4.8,0-.9.5-1.3,1.2-1.9h0v-.1Z"/>
          <path class="cls-128" d="M148.21,183.71c.2,0,.4,0,.6.2,0,.3,0,.5-.2.8v-.4h-.4v-.6ZM147.81,183.91c0,.2.3.4.4.6-.2.3-.4.7-.6,1-.2-.7,0-.9.2-1.5h0v-.1Z"/>
          <path class="cls-88" d="M73.01,174.31c.7.2,1.3.4,1.9.6,0,.2-.3.4-.6.6s-.7,0-1.2-.2c0-.3,0-.6-.2-1h.1Z"/>
          <path class="cls-103" d="M81.11,163.31h1.7v.2c-.5,0-1,0-1.5.2,0,.2,0,.4-.2.6,0,0-.3,0-.4-.2,0,0,0-.3.2-.4l-.4-.2s.4-.2.7-.2h-.1Z"/>
          <path class="cls-68" d="M88.91,162.41l.2.4h-2.5c.7-.7,1.4-.7,2.3-.4Z"/>
          <path class="cls-140" d="M123.41,200.91l.4.2c0,.2,0,.4-.2.6,0,0-.3,0-.4-.2,0-.2,0-.4.2-.6ZM123.41,201.71v.4s.3,0,.4.2c-.4,0-.9,0-1.3-.2,0,0,0-.3-.2-.4.5-.2.7,0,1.2,0h-.1Z"/>
          <path class="cls-22" d="M77.41,186.91c.3,0,.6,0,.8.2h.5c.5.2.7.3,1,.7-.3,0-.6,0-1-.2v.4h-.4v-.8c-.3,0-.6,0-1-.2v-.2h0l.1.1Z"/>
          <path class="cls-134" d="M62.81,201.31h1.5v.6c-.6,0-1.1,0-1.7-.2l.2-.4h0Z"/>
          <path class="cls-35" d="M83.91,170.21c.6.3.8.4,1.2,1-.2.2-.4.4-.6.6h-.4l-.2-1.5h0v-.1Z"/>
          <path class="cls-47" d="M74.01,131.21c.6,0,.9,0,1.5.4h-1.9s0,.3-.2.4c0-.2,0-.4-.2-.6,0,0,.4-.2.8-.2h0Z"/>
          <path class="cls-61" d="M130.91,107.51c-.3.3-.6.5-1,.8l-.2-.2h-1.6v-.2c.9-.2,1.8-.2,2.7-.2h0v-.2h.1Z"/>
          <path class="cls-139" d="M107.51,99.01l.4.4-.2.4h1.3v.2h-1.6c-.3,0-.6,0-.9-.4,0,0,.2,0,.4-.2s.5-.3.6-.4h0Z"/>
          <path class="cls-153" d="M28.81,142.61c.3,0,.5.4.6.8,0,.2,0,.4.2.6,0,0-.3,0-.4.2-.3-.2-.5-.4-.8-.6h.4v-1h0Z"/>
          <path class="cls-93" d="M114.61,137.81h1v1.2c0,.3-.4.2-.8-.4-.4-.6-.5-.9-.2-.8Z"/>
          <path class="cls-102" d="M82.91,241.11l.4.2h.6c.6,0,1.1,0,1.7.2v.2h-2c-.2,0-.5,0-1-.4l.4-.2h-.1Z"/>
          <path class="cls-27" d="M66.01,202.31c.6,0,1.3,0,1.9.2-.3.3-.6.5-1,.8l-1-1h.1Z"/>
          <path class="cls-27" d="M64.11,191.71l.4.2v1.2l-1.2-.6c.3,0,.5-.3.8-.4v-.4h0Z"/>
          <path class="cls-89" d="M83.51,189.41h.4c0,.4,0,.8.2,1.2,0,0-.3,0-.4.2-.2,0-.4-.3-.6-.4,0-.3.3-.6.4-1Z"/>
          <path class="cls-125" d="M35.51,183.61h.4c-.5.5-.9.8-1.5,1.2,0,0-.3,0-.4-.2.5-.6,1-.9,1.5-1Z"/>
          <path class="cls-54" d="M28.81,141.51c.4,0,.9,0,1.3.2-.2,0-.4,0-.6.2v.8c-.2,0-.4,0-.6-.2,0-.3,0-.6-.2-1h.1Z"/>
          <path class="cls-17" d="M88.91,140.51l.4.2v.6h1.2v.2c-.9,0-1.6,0-2.1-.4l.6-.6h-.1Z"/>
          <path class="cls-65" d="M24.21,137.41c.9,0,1.5,0,1.9.4h-.8s0,.3-.2.4c0-.2,0-.4-.2-.6-.3,0-.5,0-.8-.2h.1ZM24.81,138.21s.3,0,.4.2c0,0-.3.3-.4.4v-.6h0Z"/>
          <path class="cls-141" d="M85.61,193.31c.6.5.7.8.8,1.5-.3,0-.6,0-1-.2v-.4h.4c0-.3,0-.6-.2-1h0v.1Z"/>
          <path class="cls-138" d="M33.31,179.11h.3c-.6.5-1.1.7-1.9.8.6-.7,1.1-1,1.6-.9h0v.1Z"/>
          <path class="cls-52" d="M6.41,167.21l.4.2c0,.3,0,.6.2.9v.9s0-.3-.2-.4c-.2,0-.4,0-.6-.2v-1.3h.2v-.1Z"/>
          <path class="cls-24" d="M51.71,134.91c.8,0,1.5,0,2.3.2v.2h-.5c-.3,0-.6,0-.9.3v-.4c-.3,0-.6,0-1-.2v-.2h0l.1.1Z"/>
          <path class="cls-12" d="M35.01,126.31h-.6c0,.3,0,.5-.2.8-.3,0-.7-.3-1-.4.6-.6,1-.6,1.7-.4h.1Z"/>
          <path class="cls-96" d="M97.91,106.91l.2.4c-.8.2-1.3.2-2.1-.2v-.2h1.9Z"/>
          <path class="cls-37" d="M81.81,215.01h1.2c-.5.5-.8.9-1.5,1,0-.3.3-.6.4-1h-.1Z"/>
          <path class="cls-51" d="M63.61,202.71l.2.4c.2,0,.4,0,.6.2-.6.6-1,1-1.3,1.2s-.2,0,.2-.4c.2-.4.3-.8.4-1.3h0l-.1-.1Z"/>
          <path class="cls-84" d="M115.61,190.81c.4.3.8.6,1.2,1l-.4.2c-.3,0-.7-.3-1-.4l.2-.8h0Z"/>
          <path class="cls-73" d="M81.81,172.21h.6c0,.7-.3,1.2-.6,1.5-.2-.6-.2-.9,0-1.5Z"/>
          <path class="cls-20" d="M58.21,163.31c.2,0,.4,0,.6.2,0,.2,0,.4.2.6-.3,0-.6,0-1,.2,0-.5,0-.9.2-1h0Z"/>
          <path class="cls-100" d="M75.81,152.61h1.3c.5,0,.8.2,1.2.5-1,.3-1.6,0-2.5-.4v-.2h0v.1Z"/>
          <path class="cls-121" d="M37.51,152.41c.3,0,.5,0,.8.4.2.5.3,1,.4,1.5-.6-.5-.9-1.2-1.2-1.9h0Z"/>
          <path class="cls-101" d="M57.21,148.61h1.4c.6,0,.8.2,1.3.6h-1.4c-.5,0-.8-.2-1.3-.5h0v-.1Z"/>
          <path class="cls-86" d="M87.21,211.11c.4,0,.9,0,1.3.2,0,0,0,.3-.2.4h-1.2v-.6h.1Z"/>
          <path class="cls-147" d="M81.01,210.71l.4.2c0,.3-.2.5-.4.8-.2.3-.5.3-.8.2,0,0-.3,0-.4-.2.4-.3.8-.6,1.2-1h0Z"/>
          <path class="cls-114" d="M69.31,197.71c-.2.5-.5.8-.8,1,0-.3,0-.5-.2-.8.3,0,.6-.2,1-.2ZM68.21,198.61l.4.2-.4-.2Z"/>
          <path class="cls-136" d="M59.51,192.91h.8c0,.2.3.4.4.6l-.8.4c-.2-.3-.4-.5-.6-.8l.2-.2Z"/>
          <path class="cls-65" d="M85.21,188.31h.6c-.2.7-.3.9-1,1.3,0-.4.3-.9.4-1.3Z"/>
          <path class="cls-111" d="M57.01,166.81l.8.2v.5c0,.3,0,.6.3.9.2.3,0,0-.8-.4-.7-.5-.9-.9-.4-1.2h.1Z"/>
          <path class="cls-7" d="M49.41,145.31c.9,0,1.5,0,1.9.4-.4,0-.9.3-1.3.4v-.6c-.2,0-.4,0-.6-.2h0Z"/>
        </g>
        <g>
          <path class="cls-34" d="M115.31,92.01c-.4.4-.8.7-1.3.8l-1.9.2c-2.6.3-5.1,1.2-7.4,2.5.4.3.9.5,1.3.7,4.4,2.6,2.2,3.1,2.2,3.1l-5.3-2.3c-.2,0-19.4,9.9-24.6,12.7-1.1.5-2.1,1.1-3.2,1.2s-3.1-.4-4.1-1.6c-.8-.9-1.2-2-1.6-3.1-1.7-5.9-8-28.3-9.2-33.8-.8-3.5-1.6-7.4-1.4-11,0-.5,0-1.1.3-1.6h1.5c4.2.6,7.9,3.1,9.6,7,0,.3.3.6.3.8s0,.5.2.7l6.5,32.2c9.7-4,23.3-7.8,23.3-7.8.3,0,2.8-3.1,4-3.8,1.1-.6,2.4-1.1,3.7-1.2s3.5,0,5.1.9c.7.3,1.6.8,2.1,1.6.4.7,0,1.2-.2,1.7h0v.2h0l.1-.1Z"/>
          <path class="cls-151" d="M56.81,64.61c-.3,3.6,0,10.1,3.7,19.2.4.9,1.4,1.3,2.3,1,2.4-1,7.2-2.7,10.8-1.7,1.1.3,2.1-.6,1.9-1.7-1.3-6.6-5.3-22-12.8-22.3-3.1,0-5.6,2.4-5.9,5.5Z"/>
        </g>
        <path class="cls-151" d="M75.71,128.31c-5.6,2.4-11.8,3.6-18,3.6s-8.8-.6-13-1.9l-5.6-1.6s-.6-9.5,1.6-16.3c1.8-5.6,1.8-11.4.4-17.1l-6.3-25.3c-.7-2.9.3-5.8,2.7-7.9l3.3-2.9h0l4-3.7h9.1s2.5,1.3,5.5,3.4c.7.5,1.4,1,2.1,1.5,3.9,3,8,7.1,8.4,11.1l.7,7.9c1,10.8,2.3,21.5,4.6,32.1.8,3.7,1,8.1.5,17h0v.1h0Z"/>
        <path class="cls-34" d="M85.81,103.91c-.4.4-.8.6-1.3.7-.6.2-1.3,0-1.9,0-2.7,0-5.2.6-7.6,1.6.4.3.8.5,1.2.9,4.1,3,1.9,3.4,1.9,3.4l-4.9-2.9c-.3,0-20.5,7.4-26,9.5-5.5,2-2.2.8-3.3.9-1.5,0-3.1-.8-3.9-2.1-.7-.9-1-2.2-1.2-3.3-1-6-4.5-29.1-4.9-34.7-.3-3.6.7-3.1,1.3-6.7,0-.6,1.1-1.3,1.4-1.7l4-1.6c4.1,1,2.7,1.7,3.8,5.7l.3.8c0,.2.2.5,0,.7l2.5,32.7c10.1-2.8,24.1-4.9,24.1-4.9.3,0,3.2-2.7,4.4-3.3,1.2-.4,2.4-.9,3.8-.7,1.7,0,3.5.5,5,1.5.7.5,1.5,1,1.8,1.8s0,1.3-.4,1.6h-.2v.2h0l.1-.1Z"/>
        <path class="cls-151" d="M31.91,66.01c-.6,3.8-.7,10.8,2.7,20.9.3.6,1,1.1,1.7.9,2.4-.8,8-2.2,11.8-.5.9.4,1.9-.3,1.8-1.4-.9-6.9-3.8-23.8-11.4-25-3.1-.5-5.8,1.8-6.4,5.1h-.2Z"/>
        <g>
          <path class="cls-34" d="M100.41,165.51c4.1,16.1,7.2,33.2,6.6,33.4l-5.6,1.4-12.7-31.8-9.6-23.9-.4-1.1c0-.4-.2-.7,0-1-.2-2.8,2-5.5,5.2-6.3s6.5.6,7.6,3.3c.3.8.7,1.4,1,2.1,2.7,4.9,5.6,14.3,7.9,24h0v-.1Z"/>
          <path class="cls-110" d="M102.31,206.51c.6.8,1.6,1.3,2.6,1.3s20.8-9.4,21.2-9.9c3.3-4.3-20.2,0-20.2,0l-5.3,3s1.1,4.6,1.8,5.4h0v.2h-.1Z"/>
          <path class="cls-34" d="M92.81,140.91h0c0-3.8-3.1-7-6.9-7.2l-35.3-2.6c-5.1.2-9,4.5-8.8,9.6h0c.3,5.1,4.6,9.1,9.7,8.9l34.2-2c4,0,7.2-2.7,7.1-6.6h0v-.1h0Z"/>
        </g>
        <path class="cls-154" d="M38.21,119.11s-5.3,27.8,9.8,30.5h26.1c-4.4-13.9,7.5-17.8,31.9-15.8l-31-16.1c-1.4,6-14.2,6.4-36.8,1.4h0Z"/>
        <g>
          <path class="cls-117" d="M49.42,58.72h0c-3.2-.1-5.6-2.8-5.5-5.9l.4-11.1,9.1.3-.5,13.5c0,1.8-1.6,3.2-3.4,3.2h-.1Z"/>
          <path class="cls-44" d="M69.92,32.82c-.4,1.8-.7,3.4-1.4,5-.2.6-.4,1.1-.7,1.7-3.2,7.3-8.9,12.1-15.4,12-3.1,0-6-1.3-8.5-3.4-.6-.4-1.1-.9-1.6-1.5-4.2-4.6-6.9-11.7-6.6-19.8.4-13.4,8.3-24,17.9-23.8,1.4,0,2.8.3,4.1.8,7.5,2.8,13.1,12.4,12.8,23.8"/>
          <g>
            <path class="cls-46" d="M47.42,27.42c.2,0,.4,0,.5-.3,1.7-3.2,4.6-1.9,4.7-1.8.3,0,.6,0,.8-.3,0-.3,0-.6-.3-.8-1.4-.6-4.5-1-6.2,2.3,0,.3,0,.6.2.8h.3v.1Z"/>
            <path class="cls-46" d="M64.82,24.82s.3.2.5,0c2.8-1.1,4,1.3,4,1.4,0,.2.4.3.6.2.2,0,.3-.4.2-.6-.5-1.2-2.3-3.1-5.2-1.9-.2,0-.4.4-.3.6v.2h.2v.1Z"/>
            <path class="cls-46" d="M50.92,29.72c0,1.1.7,2.1,1.5,2.1s1.6-1,1.6-2.1-.7-2.1-1.5-2.1-1.6,1-1.6,2.1Z"/>
            <path class="cls-46" d="M64.82,29.72c0,1.1.7,2.1,1.5,2.1s1.6-1,1.6-2.1-.7-2.1-1.5-2.1-1.6,1-1.6,2.1Z"/>
            <path class="cls-14" d="M53.02,41.82c0,.2.8,3.2,3.8,3.7,2.9.4,4.5-1,4.7-1.3"/>
            <path class="cls-59" d="M61.62,35.22c1,1,1,2.5,0,3.5s-2.5,1-3.5,0,1.8.2,2.8-.7c1-1-.2-3.7.8-2.8h-.1Z"/>
          </g>
          <g>
            <path class="cls-79" d="M39.92,26.92c1,3,.3,5.9-1.6,6.5s-4.2-1.3-5.2-4.4-.3-5.9,1.6-6.5c1.8-.6,4.2,1.3,5.2,4.4Z"/>
            <path class="cls-60" d="M39.92,26.92c1,3,.3,5.9-1.6,6.5s-4.2-1.3-5.2-4.4-.3-5.9,1.6-6.5c1.8-.6,4.2,1.3,5.2,4.4Z"/>
          </g>
          <path class="cls-3" d="M44.82,19.42c-.3-.5-1.3-1.8-2.8-.4s-.3.7-.4,1.6c0,.2.4.7-.8,1.1s-.3,1.1-.3,1.2c0,.5.7,1.9.4,2.5-1,2.4,0,2.9.8,6.4.3,1.4,0,3.7-.7,6.7s1.3,2.1,1.4,2.3c1.8,4.3.7,6.5,4,9.5,0,.6,1.7.4,1.6,1,0,.8-1.2,2-1.4,2.9-.5,0-1-.3-1.4-.5-.6-.3-.6-.5-.8-.5-1,0-1.5,2.9-2.2,2.9s-.7-2.4-1.9-2.9c-1.6-.8-3.3,3-5.7,2.4-.9-.3-1.7-1-2.1-2-.6-1.3-1.6-.9-2.2-1.4-.6-.6.1-1.2-1.1-1.7-1-.3-2.8-1-2.8-2.2s1.4-2.5,1.6-4.1c.2-2.3-3-3-3-5.4s2.5-3.2,1.9-4.6c-.4-.9-2.7-1.2-2.9-1.9-.4-1.3,4.3-3.2,4.1-5.2-.2-1.5-2.8-2.4-2.8-3.9s2.3-1.7,2.9-3.6c.4-1.6,1.3-1.4,1.5-3.9,0-.8.2-2.4,1.3-3.3.7-.6,1.2-.4,3.4-1.4.8-.3,1.1-.4,1.3-.6h0l-.6-.3c1.1-.9,1.5-2.6,1.7-3.8.2-.7.3-1.7,1.1-2.4h0c1.3-.8,2.7,1.2,4.2.6,1.1-.5.7-1.7,2.1-3.3,1.6-1.6,4.5.5,5,.6h.9c.6,0,3.1-1.6,4.7-1.8,2.2-.3,2.6,2.6,5.1,2.4,1.6-.2,2.2-1.5,3.8-1.2.9,0,1.6.6,1.9.9.4.3,1.2.8,1.7,1.7.9,1.7-.3,2.9.4,3.9.8,1.2,2.6,0,3.5,1.5.7,1,0,1.8.7,3.4.8,1.6,1.3,2.2,1.7,3.5.9,2-1.2,3.4-.7,5.8.3,1.3.9,2.1,1.5,2.8,1.4,1.7,1.4,4,0,5.7s-.4.5-.7.9-.6.5-.3,1c.6.9.4.9,1.3,2.2.3.7.9,1.6.8,2.6-.4,2.4-.5,1.3-1.2,3.5s-.4,1.1-.4,1.2c0,1.9,0,3.1.2,3.5l.2.3c.4.7.6,1.5.5,2.3s-.4.8-1.6.5,1.6,0,.9,0c-1.3,0-1.3,2.3-2.2,2.6s-2.1-1.5-3.7-1c-1.9.6-2,2.7-3.2,2.7s-2.9-1.4-4.2-1.6c-.7-.2-1.8.3-3.9,2.5s-.7.3-.9,0c-.5-.5-1.7-1.2-2.1-1.7s.4-.7.9-.7c4.4-.6,9-5.1,11.2-9.6s2.6-6,3.1-9.2.2-3.4.4-6.5c.3-.7-.2-2.6-.2-3.4s0-.5-.4-2.1,0-.9-.4-1.8c0-.2,0,.3,0,0-.3-.9-.5-1.1-1.2-1.1s-1.7,1-2.4.5c-1.3-.7,0-.5-.9-.5s-.5-.7-.8-.8c.9.5,1.3.3,1.1.5-.2,0-.5,1.9-1.8,1.8s0,0,0,0c0,0-1.6-2.5-2.1-2.5-.3-.2-.6-.7.7,0-.5-.7,1.5-.6,1.2-.3-.6-.4.2,1.3-1.2,1.2s-1.7.9-2.3,1.4-.8.2-1-.2-.3-.5-.7-.6c-.3,0-.5-.2-.7-.4s-.6-.2-.8,0-.6.7-1,.9c.7-.7-.2.3-.6,0-.6-.2-.7.2-1.2,0-.6-.2-1.3,1.5-2.8,2.2-.4.2-1.4-1.6-2.3-1.8-.9-.2,0,2-2.6.6"/>
        </g>
      </g>
    </g>
  </g>
</svg>