<?xml version="1.0" encoding="UTF-8"?>
<svg id="Layer_2" data-name="Layer 2" xmlns="http://www.w3.org/2000/svg" viewBox="0 0 483.51 358.96">
  <defs>
    <style>
      .cls-1 {
        fill: #ac6423;
      }

      .cls-2 {
        fill: #995726;
      }

      .cls-3 {
        fill: #ab5e2b;
      }

      .cls-4 {
        fill: #fab532;
      }

      .cls-5 {
        fill: #f96a11;
      }

      .cls-6 {
        fill: #de9a4f;
      }

      .cls-7 {
        fill: #5c3812;
      }

      .cls-8 {
        fill: #d04510;
      }

      .cls-9 {
        fill: #90561d;
      }
    </style>
  </defs>
  <g id="Layer_1-2" data-name="Layer 1">
    <g id="dog-right-running">
      <g>
        <path class="cls-6" d="M275.82,112.82c.32,2.76,2.22,5.37,3.65,7.71,16.31,26.69,45.07,44.24,75.06,51.6-.62.62-2.93,4.98-3.19,5.95-2.01,7.52,2.95,17.94,11.51,17.88-4.03,8.11-6.3,17.56-11.64,24.94-3.07,4.25-10.97,13-14.96,16.36-1.27,1.07-4.74,4.05-6.29,3.54-.78-.26-8.05-11.88-9.13-13.63-3.38-5.46-8.92-17.72-12.61-21.76-.46-.5-.54-.76-1.35-.58l.02,1.36c7.81,14.67,15.35,29.87,26.05,42.69,8.65,10.37,18.67,18.59,28.7,27.42.23.2,1.68,1.58,1.77.59,7.24,8.74,22.97,19.17,32.16,27.43,6.63,5.96,12.81,13.02,19.39,18.86,7.42,6.6,25.23,14.71,20.37,27.01-.98,2.49-2.08,2.2-3.18,3.2.79-6.42-3.09-13.32-8.13-17.09-.81-.6-4.32-3.15-5.17-2.31-1.3,1.27,3.64,3.58,4.38,4.2,3.37,2.82,6.49,8.33,6.66,12.78.07,1.74-1.07,3.2-.51,4.63-3.31,1.76-7.32,3.09-11.09,3.33,5.17-9.49-1.37-18.9-10.24-22.73l-.58,1.67c5.89,4.32,10.98,8.06,9.68,16.31-.55,3.5-2.03,3.38-4.95,4.19-17.62-3.33-31.45-22-45.51-32.92-28.07-21.8-73.92-42.95-95.28-69.62-2.7-3.37-5.86-8.23-8.33-11.9-1.97-2.94-3.57-7.2-6.35-9.17-.13,2.69,2.02,5.47,3.37,7.72,2.73,4.54,6.09,9.46,9.65,13.35-34.91-.01-58.15-14.26-88.69-27.16-.41-.17-1.01-.88-1.82-1.21-5.99-2.44-12.2-4.23-18.12-6.82,4.32-8.53,11.07-19.07,13.18-28.39.19-.83.45-1.48-.72-1.27-10.91,22.22-21.54,45.08-43.23,58.76-10.55,6.66-20.29,9.33-32.44,11.63-5.17.98-10.68,1.62-15.97,2.6-11.76,2.18-14.65.02-22.81,9.89-5.17,6.25-9.83,13.96-13.97,20.95-6.58,11.14-15.26,33.94-31.5,30.86,6.57-1.28,13.41-8.25,13.85-14.96-1.47-1.51-4.09,4.64-4.75,5.5-1.57,2.07-4.87,5.01-7.23,6.07-1.9.86-4.24.72-5.76,2.28-4.62-2.16-7.28-5.32-8.87-9.98,7.84,1.01,17.21-3.41,18.84-11.64-1.4-.28-1.39.19-2.13.92-5.82,5.76-6.35,7.56-15.36,7.95-1.07.05-2.22-.57-1.91,1.11-2.4-12.57,8.81-19.87,15.74-28.88,2.42-3.15,4.91-6.81,7-10.19,5.19-8.39,12.56-27.97,20.21-32.45,3.04-1.78,7.35-2.69,10.65-4.32,24.89-12.33,19.82-31.65,22.98-54.63,1.35-9.8,4.3-20.16,8.7-28.99.76-1.53,7.82-12.38,7.31-12.92-17.6-6.71-32.85-22.67-40.01-40.09C36.44,60.43,61.5,15.1,101.33,2.35c3.16-1.01,17.47-5.67,15.17,1.84-.85,2.78-9.88,8.24-12.54,10.78-30.27,29.02-31.91,76.93-.28,105.62,1.44,1.31,5.29,4.77,7.08,4.33.93-.23,5.66-3.45,7.43-4.26,18.84-8.61,41.46-6.88,61.31-3.26,31.98,5.83,66.49,13.79,96.31-4.57ZM107.31,127.24c-4.68,2.21-9.99,6.79-13.3,10.8-.51.62-1.35.89-1.11,1.94,1.12.24,1.48-.25,2.24-.8,3.27-2.4,6.61-7.27,9.59-10.09.81-.76,2.33-.85,2.58-1.85Z"/>
        <path class="cls-6" d="M97.89,261.37c12.15-2.3,21.89-4.97,32.44-11.63,21.69-13.68,32.32-36.54,43.23-58.76,1.17-.22.9.44.72,1.27-2.11,9.32-8.86,19.86-13.18,28.39,5.92,2.59,12.13,4.38,18.12,6.82.81.33,1.41,1.04,1.82,1.21-8.25,20.55-23.1,36.67-41.62,48.45-3.91,2.48-16.84,8.74-18.8,11.68-1.39,2.08-1.39,5.76-.97,8.19.85,4.97,11.82,25.74,15.39,29.5,3.68,3.87,10.34,2.36,15.14,4.82,7,3.58,17.41,17.39,5.74,21.61-9.11,3.3-28.72,2.31-37.13-2.96-9.89-6.19-26.34-38.62-31.34-50.14-1.7-3.91-3.9-8.26-3.35-12.62.48-3.85,6.27-10.66,8.37-14.35,2.07-3.62,3.76-7.65,5.43-11.47Z"/>
        <path class="cls-6" d="M351.21,220.91c3.44,3.73,7.17,7.03,11.14,10.2,27.12,21.65,59.92,30.92,88.25,50.88,6.86,4.83,24.34,17.57,25.75,25.8,2.47,14.51-14.12,14.93-24.26,12.62-16.85-3.83-24.49-19.6-40.26-26.81-11.07-5.06-23.78-8.57-35.26-12.97-4.44-1.7-9.76-4.6-14.01-5.95-.28-.09-.9-.15-.82.27.71.52,1.12,1.29,1.66,1.94-.09.99-1.54-.39-1.77-.59-10.03-8.83-20.05-17.04-28.7-27.42-10.7-12.83-18.23-28.02-26.05-42.69l-.02-1.36c.81-.18.9.08,1.35.58,3.69,4.04,9.23,16.29,12.61,21.76,1.08,1.75,8.35,13.38,9.13,13.63,1.55.51,5.02-2.47,6.29-3.54,3.99-3.36,11.89-12.11,14.96-16.36Z"/>
        <path class="cls-1" d="M418.28,358.93c-2.17.14-4-.16-6.1-.55,2.92-.81,4.4-.69,4.95-4.19,1.31-8.25-3.79-11.99-9.68-16.31l.58-1.67c8.87,3.83,15.42,13.24,10.24,22.73Z"/>
        <path class="cls-1" d="M.33,312.92c-.31-1.68.85-1.07,1.91-1.11,9.01-.39,9.54-2.19,15.36-7.95.74-.73.73-1.2,2.13-.92-1.63,8.22-11,12.65-18.84,11.64-.21-.6-.39-.83-.55-1.66Z"/>
        <path class="cls-1" d="M9.76,324.56c1.52-1.56,3.86-1.42,5.76-2.28,2.36-1.07,5.66-4,7.23-6.07.66-.87,3.27-7.01,4.75-5.5-.45,6.71-7.29,13.68-13.85,14.96-1.51-.29-2.45-.44-3.88-1.11Z"/>
        <path class="cls-1" d="M432.14,353.39c-1.16,1.06-.45.98-2.77,2.22-.56-1.43.58-2.88.51-4.63-.17-4.46-3.29-9.96-6.66-12.78-.74-.62-5.68-2.93-4.38-4.2.85-.84,4.36,1.71,5.17,2.31,5.04,3.77,8.93,10.67,8.13,17.09Z"/>
        <path class="cls-1" d="M271.39,255.83c-.55,0-1.11,0-1.66,0-3.57-3.89-6.92-8.81-9.65-13.35-1.35-2.25-3.49-5.03-3.37-7.72,2.79,1.96,4.38,6.23,6.35,9.17,2.47,3.68,5.63,8.53,8.33,11.9Z"/>
        <path class="cls-2" d="M103.11,259.78c29.55-12.66,52.81-34.69,67.63-63.32,1.47.06.83.95.54,1.98-1.84,6.48-7.81,14.02-11.41,19.72,6.41,2.08,12.45,4.98,18.42,8.06.65.34,1,1.15,1.1,1.2l-.13.49c-4.6-1.1-16.63-8.76-20.72-7.43-4.55,4.63-8.5,9.71-13.19,14.22-10.05,9.65-22.85,18.52-35.77,23.74-1.67.67-5.68,1.33-6.59,1.82l.13-.49Z"/>
        <path class="cls-3" d="M302.23,221.98c21.39,23.82,46.13,44.21,71,64.31"/>
        <path class="cls-1" d="M344.24,226.38c-.02.55-.04,1.11-.06,1.66-4.01,3.43-9.04,6.61-13.68,9.18-2.29,1.27-5.15,3.32-7.83,3.1,2.06-2.72,6.38-4.16,9.38-6.03,3.76-2.34,8.72-5.33,12.19-7.91Z"/>
        <path class="cls-1" d="M107.31,127.24c-.25,1-1.77,1.09-2.58,1.85-2.97,2.82-6.32,7.68-9.59,10.09-.76.56-1.12,1.04-2.24.8-.24-1.04.59-1.31,1.11-1.94,3.31-4.02,8.62-8.59,13.3-10.8Z"/>
      </g>
      <g>
        <path class="cls-6" d="M464.29,74.57c-9.77,7.7,1.53,28.76,13.3,23.84-.61,2.69-3.19,5.9-5.01,8.02-5.95,6.94-12.97,11.67-22.16,13.04-2.16-1.18-5.07-.34-7.47-.56-9.24-.88-22.44-5.52-30.78-9.68-3.9-1.95-17.08-11.3-19.68-11.41-4.58-.2-2.82,6.38-1.8,9.06,4.97,13.06,21.71,24.11,34.8,27.56,1.24,1.55,2.28,2.39,3.04,4.44.77,2.06.45,3.71.84,4.98-6.85.38-13.52-1.81-19.77-4.34-6.65-2.69-16.42-9.6-23.66-5.57-3.45,1.92-9.13,13.15-10.88,17.11-.78,1.76-.98,3.29-1.66,4.99-16.97-.85-33.74-7.02-47.96-16.06-15.28-9.72-29.83-23.87-37.4-40.48,3.89-5.15,7-11.2,9.42-17.18,19.54.24,32.36-10.29,42.36-26.1,7.21-11.4,19.84-37.59,3.65-46.51,15.71-.68,33.05-.38,48.22,4.16,14.96,4.47,25.13,14.89,30.5,29.37,3.65,9.84,3.02,21.14,14.4,24.96,7.83,2.63,19.29,4.44,27.72,6.37ZM391.52,44.21c-1.54.31-8.37,4.58-5.09,5.41,2.52-.44,5.16-2.17,7.76-2.23,2.16-.05,3.93,1.12,5.78,1.45.94.17,1.03.26,1.68-.61-.69-4.25-6.67-4.73-10.13-4.02ZM394.84,57.5c-6.89,1.54-5.62,15.99,1.02,17.04,7.18,1.14,8.28-6.97,6.74-12.29-1.13-3.89-3.57-5.7-7.76-4.76Z"/>
        <path class="cls-9" d="M343.45,9.72c16.19,8.93,3.56,35.12-3.65,46.51-9.99,15.81-22.82,26.34-42.36,26.1-19.03-.23-36.98-11.62-47.34-27.21-4.33-6.51-10.42-18.59-2.83-24.9,4.41-3.67,22.29-5.08,29.23-6.8,17.72-4.39,50.41-22.82,66.95-13.7Z"/>
        <path class="cls-4" d="M373.38,156.05c-1.96,4.86-3.68,9.82-5.52,14.73-1.11.78-2.43-.7-3.66-.85-2.94-.34-7.47,0-9.67,2.19-29.99-7.35-58.75-24.9-75.06-51.6-1.43-2.34-3.33-4.96-3.65-7.71,3.65-4.37,8.59-8.53,12.19-13.3,7.57,16.61,22.12,30.75,37.4,40.48,14.22,9.05,30.99,15.21,47.96,16.06Z"/>
        <path class="cls-7" d="M450.43,119.47c-3.3.49-6.23.75-9.72.58-1.96-.1-5.01-1.17-6.59-1.14-.35,0-.31,1.56-1.43,1.12-4.13-1.12-12.13-1.99-16.37-1.68-17.21,1.24.66,8.4,5.24,11.98,1.67,1.3,2.81,2.72,3.93,4.11-13.09-3.46-29.82-14.5-34.8-27.56-1.02-2.68-2.77-9.26,1.8-9.06,2.59.11,15.78,9.47,19.68,11.41,8.34,4.16,21.55,8.8,30.78,9.68,2.4.23,5.31-.62,7.47.56Z"/>
        <path class="cls-7" d="M477.59,98.41c-11.78,4.92-23.07-16.13-13.3-23.84,9.85,2.26,22.2.35,18.58,14.42-.56,2.2-3.18,8.53-5.28,9.41Z"/>
        <path class="cls-1" d="M370.61,173.24c-3.5-2.33-10.45-2.41-13.87.26-7.8,6.1-2.73,20.11,6.67,21.35-.18.37-.37.74-.55,1.11-8.56.05-13.52-10.36-11.51-17.88.26-.97,2.57-5.34,3.19-5.95,2.21-2.19,6.74-2.53,9.67-2.19,1.22.14,2.55,1.63,3.66.85,1.83-4.92,3.56-9.87,5.52-14.73.68-1.7.88-3.23,1.66-4.99.05,1.45,1.56,2.06,1.97,3.29,1.53,4.64-5.69,13.79-6.41,18.88Z"/>
        <path class="cls-4" d="M369.53,171.8c2.82,1.88,4.94,7.18,4.88,10.56-.12,6.26-5.96,13.88-12.72,12.98-10.24-1.36-15.75-16.61-7.26-23.25,3.72-2.91,11.29-2.83,15.11-.29Z"/>
        <path class="cls-7" d="M394.84,57.5c4.2-.94,6.63.86,7.76,4.76,1.54,5.32.45,13.42-6.74,12.29-6.64-1.05-7.91-15.5-1.02-17.04Z"/>
        <path class="cls-7" d="M391.52,44.21c3.46-.71,9.44-.22,10.13,4.02-.65.87-.74.78-1.68.61-1.85-.34-3.62-1.5-5.78-1.45-2.6.06-5.24,1.79-7.76,2.23-3.28-.83,3.55-5.1,5.09-5.41Z"/>
        <g>
          <path class="cls-5" d="M432.69,120.03c11.28,3.07,23.16,12.25,22.69,25.14-.23,6.43-5.44,14.01-12.44,13.7-8.34-.37-11.53-8.27-13.57-15-.39-1.27-.07-2.92-.84-4.98-.76-2.05-1.8-2.89-3.04-4.44-1.12-1.39-2.26-2.81-3.93-4.11-4.58-3.58-22.45-10.75-5.24-11.98,4.24-.31,12.24.56,16.37,1.68ZM424.93,121.14c-.78-.4-1.48.35-1.1.54.78.4,1.48-.35,1.1-.54ZM425.76,121.69v.55c.36-.18.36-.37,0-.55ZM426.87,122.24v.55c.36-.18.36-.37,0-.55ZM427.98,122.8v.55c.36-.18.36-.37,0-.55ZM444.32,142.75c-1.63-8.03-7.86-15.76-15.24-19.39l8.03,8.04,7.22,11.34Z"/>
          <path class="cls-8" d="M444.32,142.75l-7.22-11.34-8.03-8.04c7.39,3.63,13.61,11.36,15.24,19.39Z"/>
        </g>
      </g>
    </g>
  </g>
</svg>