<?xml version="1.0" encoding="UTF-8"?>
<svg id="Layer_2" data-name="Layer 2" xmlns="http://www.w3.org/2000/svg" viewBox="0 0 239.14 450.55">
  <defs>
    <style>
      .cls-1 {
        fill: #fdd71c;
      }

      .cls-2 {
        fill: #472814;
      }

      .cls-3 {
        fill: #de9a4f;
      }

      .cls-4 {
        fill: #f9b721;
      }

      .cls-5 {
        fill: #de4d00;
      }

      .cls-6 {
        fill: #90561d;
      }

      .cls-7 {
        fill: #f26112;
      }

      .cls-8 {
        fill: #8e5019;
      }
    </style>
  </defs>
  <g id="Layer_1-2" data-name="Layer 1">
    <g id="dog-sitting">
      <g>
        <g>
          <path class="cls-8" d="M25.29,425.03c-1.74.13-3.91.06-5.68,0l1.58-.33c-1.74-5.41-.61-11.57,3-15.85,1.09-1.3,2.66-3.13,4.43-1.98,1.47,1.41-1.39,3.91-2.11,5.4-1.88,3.85-2.41,8.62-1.21,12.77Z"/>
          <path class="cls-8" d="M4.77,421.06c.5-4.16.13-7.61,2.09-11.52.96-1.92,4.4-6.48,6.68-5.43s-1.64,4.64-2.39,5.95c-2.23,3.9-2.85,8.55-1.96,12.98-1.95-.68-2.58-.79-4.42-1.98Z"/>
        </g>
        <g>
          <path class="cls-3" d="M222.07,294.91c6.36,4.76,8.13,7.31,11.03,17.37,4.13,18.25.97,38.18-5.92,55.27-3.61,8.94-8.45,18.02-14.98,24.95,11.74,1.19,28.47,6.52,26.83,22.13-.32,3.04-1.99,4.56-4.11,6.11-.96.18-.61-.51-.63-1.14-.13-3.67-.07-6.62-1.84-9.98-.99-1.88-4.85-6.93-7.11-5.41-1.74,1.17,2.13,4.85,2.88,6.2,1.12,1.99,2.08,5.24,2.27,7.53.14,1.69-.15,3.45,0,5.11-4.5,1.68-7.51,2.02-12.31,1.98,1.36-5.43.89-10.87-2.53-15.35-.88-1.15-3.66-4.52-5.07-2.68-1.19,1.54,1.81,4.45,2.52,6.02,1.53,3.39,2.22,8.11.99,11.68-10.73-.94-17.13-5.2-25.89-11.23l-.58-.48c1.02-8.32,1.48-16.75,2.51-25.07,4.09-33.02,10.96-65.65,15.11-98.62l6.93.83"/>
          <path class="cls-8" d="M218.19,425.03c-1.44-.01-2.78-.21-4.1-.33,1.23-3.58.54-8.29-.99-11.68-.7-1.57-3.7-4.48-2.52-6.02,1.41-1.83,4.19,1.53,5.07,2.68,3.42,4.48,3.9,9.92,2.53,15.35Z"/>
          <path class="cls-8" d="M230.5,423.04c-.15-1.67.14-3.43,0-5.11-.19-2.29-1.15-5.54-2.27-7.53-.75-1.35-4.62-5.03-2.88-6.2,2.26-1.52,6.12,3.53,7.11,5.41,1.77,3.36,1.7,6.31,1.84,9.98.02.64-.32,1.33.63,1.14-1.81,1.33-2.37,1.55-4.42,2.31Z"/>
        </g>
        <g>
          <path class="cls-3" d="M205.24,289.29c-4.15,32.97-11.03,65.6-15.11,98.62-1.03,8.32-1.49,16.75-2.51,25.07l.58.48c-.95-.18-.61.51-.63,1.14-.21,7.28,4.73,9.24,6.9,14.92,2.42,6.32,1.01,12.92-4.37,16.96-1.16-.51-.07-2.36,0-3.47.15-2.72.13-5.71-.54-8.34-.48-1.89-3.62-8.8-5.78-8.2-3.01,1.44.68,4.69,1.51,7.04,1.88,5.32,1.02,10.49-.88,15.61-4.44,1.44-7.24,1.38-11.84,1.33-.53,0-1.4.21-1.73-.34.28-.02.66.11.88-.06,2.37-5.23,1.91-11.44-.2-16.68-.55-1.36-2.78-6.35-4.71-4.32-1.14,1.2.9,4.63,1.34,6.2,1.35,4.75,1.56,9.85-.16,14.53-19.58-3.27-15.93-27.18-15.15-42.27,2.28-44.17,6.36-88.44,7.91-132.58.06-1.59.46-4.13-1.27-4.66-2.37-.74-2.7,1.81-2.85,3.67-.73,9.41-1.03,18.96-1.6,28.38-2.09,34.99-3.75,70.07-5.96,105.06-.04.67-.05.81-.65,1.12-20.78,5.52-37.25,5.81-58.09,0-.36-.55-.31-1.17-.33-1.8-1.1-32.88-3.7-65.61-5.67-98.43-.66-10.99-.83-22.04-1.58-33.02-.06-.83-.22-3.36-.37-3.9-.14-.51-.96-1.08-1.44-1.17-3.59-.67-2.07,5.67-1.98,7.71,1.88,43.24,5.51,86.37,7.58,129.62.7,14.72,4.15,38.24-14.21,42.27-1.82-.69-2.14-4.54-2.22-6.43s.12-4,.47-5.81c.41-2.11,2.27-5.63,2.37-7.12.13-2.08-1.66-2.22-2.98-.8-4.21,4.52-4.78,15.11-2.68,20.81-5.05.27-7.96.01-12.63-1.65-1.66-5.05-2.55-9.45-.96-14.71.58-1.91,3.29-5.43,2.8-6.87-.84-2.49-3.82,1.1-4.51,2.11-3.48,5.11-3.44,11.2-2.39,17.15-4.49-3.09-6.23-7.37-5.68-13.04.75-7.75,9.11-11.6,7.89-19.98-5.25,2.17-9.64,6.56-14.84,8.74-3.25,1.36-8.2,2.55-11.68,2.81-1.2-4.15-.67-8.92,1.21-12.77.73-1.49,3.59-3.99,2.11-5.4-1.77-1.15-3.34.68-4.43,1.98-3.6,4.29-4.74,10.44-3,15.85l-1.58.33c-4.14-.15-6.55-.63-10.42-1.98-.89-4.43-.27-9.08,1.96-12.98.75-1.31,4.58-4.95,2.39-5.95s-5.72,3.51-6.68,5.43c-1.96,3.91-1.59,7.36-2.09,11.52-3.73-2.41-5.11-5.3-4.7-10.03,1.15-13.08,16.68-17.5,27.11-18.37-15.82-18.57-24.06-44.61-22.74-69.53.79-15.04,8.07-28.79,22.68-32.75,2.02-.55,4.74-.57,6.48-1.15.24-.08.41-.2.5-.46-3.29-24.25-3.63-49.08,1.13-73.14,3.38-17.1,9.98-31.85,14.38-48.2,6.11,12.62,19.09,20.9,31.41,25.77,11.12,4.39,22.99,6.78,34.89,6.93.12,1.16.3,1.63,1.25,2.25-6.93,1.3-11.75,7.92-11.13,15.25s6.51,12.95,13.54,12.93c7.04-.01,12.9-5.64,13.51-12.97.61-7.33-4.24-13.94-11.17-15.22,1.13-.59.86-1.14.93-2.24.21,0,.42,0,.63,0,12.86-.01,28.27-3.62,39.89-9.29,10.39-5.07,20.92-12.74,26.09-23.73,2.8,10.08,7.28,20.19,10.26,30.38,9.14,31.27,9.58,59.6,5.53,91.81Z"/>
          <g>
            <path class="cls-4" d="M115.9,183.94c.39,5.16-.52,11.13,0,16.18-11.9-.14-23.78-2.54-34.89-6.93-12.32-4.86-25.3-13.15-31.41-25.77,1.22-4.53,2.44-10.54,3.16-15.19,2.92,4.69,6.14,8.64,10.27,12.21,12.55,10.84,28.67,15.9,44.56,18.45l8.31,1.05Z"/>
            <path class="cls-4" d="M189.46,167.1c-5.17,10.99-15.7,18.66-26.09,23.73-11.63,5.67-27.04,9.28-39.89,9.29l-.32-15.85h-.32c-.04-.19.03-.45,0-.66,3.08.67,13.51-1.37,17.06-2.13,17.67-3.83,37.29-13.07,46.71-29.9.75,5.17,1.44,10.49,2.84,15.52Z"/>
          </g>
          <path class="cls-8" d="M152.84,407.52c-1.36.77-3.18.66-4.42.99.6-.31.61-.46.65-1.12,2.21-34.99,3.87-70.08,5.96-105.06.56-9.43.87-18.97,1.6-28.38.14-1.85.47-4.41,2.85-3.67,1.73.54,1.32,3.07,1.27,4.66-1.54,44.14-5.63,88.41-7.91,132.58Z"/>
          <path class="cls-8" d="M90.33,408.51c-1.25-.35-2.57-.5-3.79-.99-2.07-43.24-5.7-86.38-7.58-129.62-.09-2.04-1.61-8.38,1.98-7.71.48.09,1.29.66,1.44,1.17.15.54.32,3.07.37,3.9.75,10.98.93,22.03,1.58,33.02,1.97,32.82,4.57,65.55,5.67,98.43.02.63-.03,1.25.33,1.8Z"/>
          <path class="cls-8" d="M67.28,450.45c-2.1-5.7-1.53-16.28,2.68-20.81,1.33-1.43,3.12-1.29,2.98.8-.09,1.49-1.96,5-2.37,7.12-.35,1.82-.55,3.96-.47,5.81s.4,5.74,2.22,6.43c-1.64.36-3.37.57-5.05.66Z"/>
          <path class="cls-8" d="M184.41,449.13c1.9-5.12,2.76-10.3.88-15.61-.83-2.36-4.52-5.6-1.51-7.04,2.16-.6,5.3,6.31,5.78,8.2.67,2.63.68,5.62.54,8.34-.06,1.11-1.16,2.96,0,3.47-1.78,1.34-3.62,1.98-5.68,2.64Z"/>
          <path class="cls-8" d="M54.65,448.8c-2.1-.75-3.05-.93-5.05-2.31-1.05-5.95-1.09-12.04,2.39-17.15.69-1.02,3.67-4.61,4.51-2.11.48,1.44-2.22,4.96-2.8,6.87-1.59,5.26-.7,9.65.96,14.71Z"/>
          <path class="cls-8" d="M167.99,449.79c1.71-4.68,1.5-9.78.16-14.53-.45-1.57-2.48-5-1.34-6.2,1.93-2.03,4.17,2.96,4.71,4.32,2.11,5.24,2.57,11.45.2,16.68-.23.17-.61.04-.88.06-1.15.07-1.8-.16-2.84-.33Z"/>
          <ellipse class="cls-4" cx="119.55" cy="216.35" rx="13.58" ry="14.2"/>
          <path class="cls-8" d="M122.84,183.61c.03.21-.04.47,0,.66.04.16.17.28.32.33-.68,5.19.03,10.32-.32,15.52-.07,1.1.19,1.65-.93,2.24-1.57-.29-3.19-.29-4.76,0-.95-.62-1.13-1.08-1.25-2.25-.52-5.05.39-11.02,0-16.18,1.36-1.5,3.24-1.6,5.14-1.25.79.15,1.43.83,1.81.91Z"/>
          <path class="cls-1" d="M123.47,200.13c-.21,0-.42,0-.63,0,.34-5.2-.37-10.33.32-15.52v-.33l.32,15.85Z"/>
          <path class="cls-3" d="M123.16,184.61c-.15-.05-.28-.17-.32-.33h.32v.33Z"/>
        </g>
      </g>
      <g>
        <g>
          <path class="cls-6" d="M81.17,9.57c-11.4,5.93-16.12,23.51-21.94,34.68-4.4,8.46-10,17.02-16.9,23.44-9.17,8.54-19.03,12.16-24.32-2.47-3.61-9.99-7.39-32.82-4.71-42.91,1.73-6.52,6.09-7.2,11.65-8.62,8.7-2.21,16.45-2.98,24.94-6.61C54.79,5,63.52-.73,68.62.08c4.04.64,9.71,6.49,12.55,9.5Z"/>
          <path class="cls-6" d="M197.03,68.03c-7.94-7.72-14.41-18.46-19.3-28.52s-9.43-24.81-19.53-29.93c2.61-2.58,5.94-5.73,9.14-7.44,7.66-4.1,19.37,4.85,27.11,7.34,8.03,2.59,18.34,2.77,25.79,6.04,9.86,4.32,6.48,22.37,5.11,31.12-1.02,6.51-3.81,22.52-8.74,26.53-6.09,4.95-14.84-.51-19.58-5.13Z"/>
        </g>
        <g>
          <path class="cls-3" d="M158.2,9.57c10.09,5.13,14.74,20.1,19.53,29.93s11.37,20.8,19.3,28.52v24.29c-.79,15.88-4.07,31.4-12.22,44.94.59,4.77,1.11,9.57,1.8,14.32-9.42,16.83-29.04,26.07-46.71,29.9-3.55.77-13.98,2.8-17.06,2.13-.38-.08-1.02-.77-1.81-.91-1.9-.35-3.77-.26-5.14,1.25l-8.31-1.05c-15.89-2.55-32.01-7.61-44.56-18.45-4.13-3.57-7.35-7.52-10.27-12.21.37-2.38,1.86-13.71,1.51-15.29-.3-1.35-3.72-6.68-4.62-8.7-8.33-18.71-8.09-40.3-7.31-60.55,6.9-6.42,12.5-14.98,16.9-23.44,5.81-11.18,10.53-28.75,21.94-34.68,16.75-8.71,50.76-7.93,68.64-2.95,2.51.7,6.09,1.78,8.39,2.95ZM72.41,58.7c1.34,1.38,4.67-1.24,6.15-1.82,4.56-1.79,8.66-1.51,13.43-1.14,2.35-.7,2.49-3.79.45-4.95-3.94-2.24-11.84-.26-15.59,1.99-1.22.73-6.19,4.12-4.45,5.92ZM145.98,55.06c1.31,1.38,3.37.43,4.79.41,3.96-.07,6.86-.1,10.58,1.51,1.22.53,5.64,3.93,6.01.96.39-3.14-7.06-6.61-9.48-7.25-2.8-.74-10.39-1.79-12.13,1.18-.57.97-.59,2.34.22,3.18ZM83.92,70.74c-8.95,1.91-6.94,20.67,2.74,19.38,9.52-1.26,8.7-21.83-2.74-19.38ZM152.12,70.74c-7.68,1.64-8.32,17.09-.17,19.18,11.91,3.06,12.34-21.79.17-19.18ZM138.63,149.6c4.96-5.15,7.69-12.45,9.55-19.4,3.59-1.53,6.91-4.42,9.38-7.52,1.89-2.37,7.25-10.05,2.45-11.79-4.16-1.5-4.97,3.81-6.73,6.65-6.3,10.19-19.57,11.13-28.52,4.13-.45-.35-3.21-2.65-2.87-3.1,7.6-2.54,19.98-11.83,13.07-21.11-5.29-7.12-23.98-7.12-29.82-.87-8.25,8.83,4.47,19.72,12.33,21.98-7.58,9.4-22.44,10.62-30.15.66-1.89-2.44-2.57-5.27-4.27-7.75-2.87-1.92-5.67-.42-5.36,3.29.43,5.14,8.83,13.72,13.5,15.44,1.84,6.92,4.59,14.33,9.55,19.4-.03,1.09-.36,2.01-.34,3.14.46,23.33,38.88,26.29,38.22-3.14Z"/>
          <path class="cls-2" d="M83.92,70.74c11.44-2.45,12.26,18.12,2.74,19.38-9.68,1.29-11.69-17.47-2.74-19.38Z"/>
          <path class="cls-2" d="M152.12,70.74c12.17-2.6,11.74,22.24-.17,19.18-8.15-2.09-7.51-17.54.17-19.18Z"/>
          <path class="cls-8" d="M145.98,55.06c-.81-.85-.79-2.21-.22-3.18,1.74-2.98,9.33-1.92,12.13-1.18,2.41.64,9.87,4.11,9.48,7.25-.37,2.97-4.79-.44-6.01-.96-3.73-1.6-6.62-1.57-10.58-1.51-1.43.02-3.48.97-4.79-.41Z"/>
          <path class="cls-8" d="M72.41,58.7c-1.75-1.8,3.23-5.19,4.45-5.92,3.75-2.25,11.64-4.23,15.59-1.99,2.04,1.16,1.9,4.25-.45,4.95-4.77-.37-8.87-.65-13.43,1.14-1.48.58-4.81,3.2-6.15,1.82Z"/>
          <g>
            <path class="cls-2" d="M100.74,149.6c-4.96-5.07-7.71-12.49-9.55-19.4-4.67-1.72-13.07-10.3-13.5-15.44-.31-3.71,2.48-5.21,5.36-3.29,1.7,2.49,2.38,5.31,4.27,7.75,7.71,9.96,22.57,8.74,30.15-.66-7.85-2.26-20.58-13.15-12.33-21.98,5.84-6.25,24.53-6.25,29.82.87,6.9,9.28-5.48,18.57-13.07,21.11-.34.45,2.42,2.75,2.87,3.1,8.94,7,22.22,6.06,28.52-4.13,1.76-2.84,2.57-8.15,6.73-6.65,4.8,1.73-.56,9.42-2.45,11.79-2.47,3.1-5.79,6-9.38,7.52-1.86,6.95-4.59,14.25-9.55,19.4-.07-3.03-.37-6.68-.63-9.74-.23-2.68-.6-5.4-.98-8.06-5.86.33-10.44-1.95-15.44-4.66-.49-.27-1.49-1.31-2-1.27-.72.15-1.26.96-1.79,1.27-4.86,2.78-10.09,5.05-15.79,4.62-.56,5.94-1.08,11.87-1.26,17.84Z"/>
            <g>
              <path class="cls-7" d="M117.79,127.14v31.21c.14,2.73,3.67,2.84,3.79,0v-31.21c4.99,2.71,9.57,4.99,15.43,4.66.37,2.66.75,5.38.98,8.06.26,3.06.57,6.71.63,9.74.66,29.43-37.76,26.48-38.22,3.14-.02-1.13.3-2.06.34-3.14.19-5.96.71-11.89,1.26-17.84,5.7.43,10.93-1.84,15.79-4.62Z"/>
              <path class="cls-5" d="M121.58,127.14v31.21c-.12,2.84-3.65,2.73-3.79,0v-31.21c.54-.3,1.08-1.12,1.79-1.27.51-.05,1.51,1,2,1.27Z"/>
            </g>
          </g>
        </g>
      </g>
    </g>
  </g>
</svg>