<?xml version="1.0" encoding="UTF-8"?>
<svg id="Layer_2" data-name="Layer 2" xmlns="http://www.w3.org/2000/svg" viewBox="0 0 229.2 441.35">
  <defs>
    <style>
      .cls-1 {
        fill: #f45a00;
      }

      .cls-2 {
        fill: #de9a4f;
      }

      .cls-3 {
        fill: #90561d;
      }

      .cls-4 {
        fill: #a26420;
      }

      .cls-5 {
        fill: #623c16;
      }

      .cls-6 {
        fill: #fdbc24;
      }
    </style>
  </defs>
  <g id="Layer_1-2" data-name="Layer 1">
    <g id="dog_standing">
      <g>
        <path class="cls-2" d="M202.36,200.82c.21,3.73,1.14,7.37,1.59,11.06,4.36,35.82-3.44,69.81-4.93,105.34-1.04,24.91-2.71,52.86.55,77.44.45,3.36,1.02,9.34,3.44,11.69,4.65,4.54,8.77,4.19,11.24,12.1,3.56,11.42-.04,18.08-10.91,21.28.37-2.43,1.31-5.16,1.33-7.62.04-3.24-2.31-14.52-5.28-15.94-1.31-.62-2.6.58-2.51,1.99.07,1.17,1.91,4.99,2.36,6.66,1.53,5.67,1.57,10.49-.82,15.93-5.36.75-10.38.74-15.73.34,1-4.5,1.22-9.1.62-13.68-.29-2.18-1.71-10.36-4.38-10.35-3.53.76-.85,5.58-.32,8.11,1.08,5.2,1.15,10.42-.17,15.59-6.03-.97-11.46-2.94-14.81-8.58-4.32-7.29-1.93-15.07-1.9-22.94.02-5.11-1.13-9.8-1.63-14.74-.76-7.44-1.23-14.92-1.97-22.36-2.08-20.97-5.23-42.28-5.91-63.35-.03-.79-.13-3.47.16-3.92l2.82-1.21.57-19.21c-2.89-3.29-4.01-.1-4.21,2.96-.36,5.57.07,11.89.33,17.46-4.69,1.28-9.3,2.81-14.08,3.74-14.8,2.89-31.42,2.86-46.2,0-4.99-.97-9.87-2.28-14.74-3.73-.73,8.97-1.17,17.97-1.97,26.94-1.35,15.24-3.05,30.51-4.59,45.75-1.07,10.65-3,21.41-2.95,32.02.04,7.03,1.34,16-1.91,22.25s-8.81,7.95-15.13,8.92c-.87-5.25-1.09-10.77.1-16,.44-1.92,2.69-6.17.74-7.4-3.02-1.92-4.45,4.93-4.88,6.86-1.24,5.66-1.14,11.18-.22,16.88-6.08.46-9.73.23-15.73-.68-2.54-5.06-2.28-10.23-.82-15.59.48-1.76,3.92-8.33,1.3-8.82-2.33-.43-3.87,3.58-4.57,5.44-2.18,5.74-2.82,12.51-.5,18.29-4.69-1.24-10.02-3.56-11.71-8.73-2.08-6.39.28-15.41,5.15-19.9,2.21-2.04,6.78-3.87,8.05-6.25,1.45-2.73,2.13-11.01,2.44-14.42,3.97-43.77-1.17-85.74-4.91-129.11-2.72-31.47-.95-56.83,9.26-86.66,1.54-4.51,3.76-8.8,4.83-13.47,3.64,7.61,9.8,13.1,16.74,17.42,16.58,10.33,36.86,13.79,56,14.43.07.92.1,1.57.66,2.37-2.59-.35-6.9,3.4-8.33,5.45-8.35,12.06,5.36,26.63,17.28,19.22,8.98-5.58,7.76-18.5-1.11-23.47-.44-.25-3.39-1.55-3.58-1.55v-2.03c15.51-.39,31.14-2.47,45.54-8.65,8.56-3.68,18.22-9.23,23.92-16.95,1.49-2.02,2.47-4.25,3.95-6.25,1.39,5.46,4.62,10.97,5.94,16.56M77.19,304.51v-18.47c0-1.77-1.44-3.62-3.28-2.71s-.67,4.6-.64,6.08c.09,4.4.14,8.78.3,13.17l3.62,1.92Z"/>
        <g>
          <path class="cls-6" d="M111.92,176.42c-.18.6-.31,1.21-.34,1.85-.2,4.38-.3,10.44.01,14.76-19.14-.64-39.43-4.1-56-14.43-6.94-4.32-13.09-9.82-16.74-17.42.98-4.24,2.06-10.26,2.62-14.57,12.36,17.91,36.49,26.15,56.89,28.76,2.9.37,11.14,1.5,13.56,1.06Z"/>
          <path class="cls-6" d="M189.91,161.18c-1.47,2-2.45,4.23-3.95,6.25-5.7,7.71-15.36,13.27-23.92,16.95-14.39,6.18-30.02,8.26-45.54,8.65v-16.6c5.7.64,15.86-1.04,21.69-2.14,18.21-3.44,38.24-11.46,49.09-27.68.52,4.12,1.61,10.59,2.62,14.57Z"/>
        </g>
        <path class="cls-4" d="M203.34,439.72c-1.37.4-2.59.45-3.93.68l-.33.34c-.21.03-.45-.03-.66,0,2.39-5.44,2.35-10.26.82-15.93-.45-1.67-2.29-5.48-2.36-6.66-.08-1.41,1.2-2.61,2.51-1.99,2.97,1.41,5.31,12.69,5.28,15.94-.03,2.46-.96,5.19-1.33,7.62Z"/>
        <path class="cls-4" d="M30.34,440.4c-1.45-.22-2.98-.25-4.59-.68-2.32-5.78-1.68-12.55.5-18.29.7-1.86,2.24-5.87,4.57-5.44,2.62.49-.82,7.06-1.3,8.82-1.46,5.36-1.72,10.53.82,15.59Z"/>
        <path class="cls-4" d="M50.32,440.74c-1.49.23-2.8.23-4.26.34-.91-5.7-1.02-11.22.22-16.88.42-1.92,1.85-8.78,4.88-6.86,1.95,1.24-.31,5.48-.74,7.4-1.19,5.22-.96,10.74-.1,16Z"/>
        <path class="cls-4" d="M182.7,441.07c-1.46-.11-2.76-.1-4.26-.34,1.31-5.17,1.25-10.39.17-15.59-.53-2.53-3.2-7.35.32-8.11,2.68,0,4.1,8.17,4.38,10.35.6,4.58.38,9.18-.62,13.68Z"/>
        <path class="cls-2" d="M68.67,409.56c-.33,0-.66,0-.98,0,.05-.51.94-.51.98,0Z"/>
        <g>
          <path class="cls-6" d="M112.25,195.4c.55.07,1.03.75,2.12.7s1.82-1.03,2.14-1.04c.19,0,3.15,1.3,3.58,1.55,8.87,4.97,10.09,17.89,1.11,23.47-11.92,7.41-25.63-7.16-17.28-19.22,1.42-2.05,5.74-5.8,8.33-5.45Z"/>
          <path class="cls-4" d="M116.51,176.42v18.64c-.31.01-1.06,1-2.14,1.04s-1.57-.63-2.12-.7c-.56-.8-.59-1.45-.66-2.37-.31-4.32-.21-10.38-.01-14.76.03-.64.16-1.24.34-1.85,3.09-.56,1.82-.31,4.59,0Z"/>
        </g>
        <g>
          <path class="cls-2" d="M137.81,308.58c4.78-.93,9.39-2.46,14.08-3.74-.27-5.57-.69-11.88-.33-17.46.2-3.06,1.32-6.25,4.21-2.96l-.57,19.21-2.82,1.21c-.3.46-.19,3.14-.16,3.92.68,21.08,3.83,42.38,5.91,63.35.74,7.44,1.21,14.92,1.97,22.36.5,4.94,1.65,9.63,1.63,14.74-.3.05-.72-.07-.98,0l-.33.34c-2.77.33-8.67-.73-11.04-2.31-7.57-5.04-3.13-15.28-2.71-22.59,1.26-21.74-5.42-45.62-8.16-67.16-.38-2.96-.77-5.95-.7-8.93Z"/>
          <path class="cls-2" d="M91.61,308.58c-.35,2.8-.44,5.67-.81,8.46-2.85,21.84-9.64,44.75-8.38,66.95.36,6.39,3.73,14.79-.17,20.47-3.12,4.54-8.58,5.12-13.58,5.1-.05-.51-.94-.51-.98,0h-.33c-.06-10.62,1.87-21.38,2.95-32.02,1.54-15.24,3.23-30.5,4.59-45.75.8-8.97,1.24-17.97,1.97-26.94,4.87,1.45,9.75,2.76,14.74,3.73Z"/>
          <path class="cls-2" d="M160.42,409.56l.33-.34s-.08.31-.33.34Z"/>
          <path class="cls-2" d="M77.19,304.51l-3.62-1.92c-.16-4.39-.22-8.77-.3-13.17-.03-1.48-1.14-5.2.64-6.08s3.28.94,3.28,2.71v18.47Z"/>
        </g>
      </g>
      <g>
        <path class="cls-2" d="M164.35,11.06c19.53,13.94,15.46,44.34,33.09,59.3,1.41,16.42,1.33,33.3-5.29,48.58-2.25,5.19-6,9.64-5.85,15.63.09,3.47.54,8.56.98,12.03-10.85,16.22-30.88,24.24-49.09,27.68-5.82,1.1-15.99,2.78-21.69,2.14-2.77-.31-1.49-.56-4.59,0-2.42.44-10.65-.69-13.56-1.06-20.4-2.61-44.53-10.85-56.89-28.76.44-3.34.87-8.01.98-11.36.25-7.46-3.48-10.92-6.18-17.33-5.01-11.88-6-24.7-5.63-37.58l.67-9.98c16.03-13.1,14.04-39.41,28.01-54.56,1.08-1.17,4.1-4.29,5.08-5.08,5.1-4.07,19.24-7.93,25.82-9.05,19.32-3.3,57.53-2.46,74.12,9.39ZM73.84,42.33c-2.96.35-10.58,2.94-11.26,6.34-.26,1.31,1.02,2.36,2.25,1.98.37-.11,2.37-2.07,3.39-2.61,1.96-1.04,5.96-2.12,8.13-2.09,1.68.02,6.05,2.15,5.75-1.14-.27-2.95-6.18-2.73-8.26-2.48ZM149.85,42.32c-1.61.24-3.81,1.03-3.53,3.11.3,2.29,4.59.52,6.07.53,2.09,0,5.6,1.07,7.49,2.08,1.67.89,3.38,3.38,5.13,2.49,2.2-1.12-.27-3.52-1.31-4.41-3.38-2.9-9.54-4.45-13.84-3.8ZM75.47,63.67c-4.78.84-6.8,7.59-6.43,11.91.53,6.13,6.14,13.29,12.09,8.18,6.48-5.57,3.83-21.76-5.66-20.09ZM150.5,63.67c-9.32,1.62-9.24,23.27,2.52,21.57,9.42-1.36,8.67-23.52-2.52-21.57ZM137.48,135.76c1.83-1.92,3.48-3.99,4.99-6.19,2.7-3.95,4.75-9.11,7.32-12.76,1.17-1.66,3.88-3.49,5.39-5.27,1.31-1.53,5.96-7.59,2.3-8.84-3.15-1.07-5.44,4.26-7.38,6.3-8.06,8.47-23.37,11.14-32.29,2.7,6.62-1.51,21.13-12.39,14.91-20.34-5.31-6.79-29.29-6.6-35.53-1.15-8.58,7.49,6.69,20.18,13.74,21.5-9.26,8.88-25.34,5.47-33.26-3.73-1.06-1.23-2.74-4.39-3.97-5.04-.9-.48-3.05-.8-3.56.29-2.26,4.81,6.79,10.67,8.83,13.91.92,1.46,1.75,3.92,2.74,5.63,2.71,4.67,5.38,9.56,9.56,12.99,1.89,17.43,4.71,31.58,25.41,30.17,17.1-1.16,19.12-15.86,20.79-30.17Z"/>
        <g>
          <path class="cls-3" d="M197.44,70.36c-17.63-14.96-13.56-45.36-33.09-59.3.51-.65.94-1.41,1.47-2.04,9.38-11.04,15.65-5.1,26.68-1.91,8.71,2.52,18.08,3.14,26.5,5.54,12.17,3.48,10.73,16.14,9.19,26.64-1.29,8.76-6.01,27.79-13.04,33.28-4.56,3.56-13.56,1.3-17.71-2.22Z"/>
          <path class="cls-3" d="M64.41,10.72c-.99.79-4.01,3.91-5.08,5.08-13.98,15.15-11.98,41.47-28.01,54.56-3.96,3.23-13.17,6.24-17.38,2.55-5.89-5.15-11.32-22.78-12.67-30.62S-1.89,20.57,4.95,15.14c4.61-3.67,20.71-5.38,27.29-7.02,5.12-1.27,13.26-4.96,17.62-5.49,5.78-.71,11.73,2.94,14.55,8.1Z"/>
        </g>
        <path class="cls-5" d="M150.5,63.67c11.18-1.94,11.94,20.22,2.52,21.57-11.76,1.69-11.83-19.96-2.52-21.57Z"/>
        <path class="cls-5" d="M75.47,63.67c9.49-1.67,12.14,14.52,5.66,20.09-5.95,5.11-11.56-2.05-12.09-8.18-.37-4.32,1.65-11.07,6.43-11.91Z"/>
        <path class="cls-4" d="M149.85,42.32c4.31-.64,10.46.9,13.84,3.8,1.04.89,3.51,3.29,1.31,4.41-1.75.89-3.45-1.6-5.13-2.49-1.89-1.01-5.4-2.07-7.49-2.08-1.48,0-5.77,1.76-6.07-.53-.27-2.08,1.92-2.87,3.53-3.11Z"/>
        <path class="cls-4" d="M73.84,42.33c2.08-.25,7.99-.47,8.26,2.48.3,3.29-4.07,1.16-5.75,1.14-2.18-.03-6.17,1.05-8.13,2.09-1.02.54-3.02,2.5-3.39,2.61-1.23.38-2.51-.66-2.25-1.98.68-3.4,8.3-5.99,11.26-6.34Z"/>
        <g>
          <path class="cls-1" d="M112.58,118.48v33.89l.55,1.04c1.04.84,3.39.08,3.39-1.21v-33.38c7.24,3.44,14.78,4.07,22.61,2.71-1.15,4.64-1.09,9.5-1.64,14.23-1.67,14.31-3.69,29.01-20.79,30.17-20.7,1.41-23.52-12.74-25.41-30.17-.51-4.73-.9-9.49-1.31-14.23,7.67,1.83,15.57.34,22.61-3.05Z"/>
          <path class="cls-5" d="M91.28,135.76c-4.18-3.43-6.85-8.32-9.56-12.99-1-1.72-1.82-4.17-2.74-5.63-2.05-3.24-11.1-9.1-8.83-13.91.51-1.09,2.66-.77,3.56-.29,1.23.65,2.92,3.82,3.97,5.04,7.92,9.2,24,12.61,33.26,3.73-7.04-1.31-22.31-14.01-13.74-21.5,6.24-5.45,30.22-5.64,35.53,1.15,6.22,7.95-8.3,18.84-14.91,20.34,8.92,8.43,24.22,5.76,32.29-2.7,1.94-2.04,4.23-7.38,7.38-6.3,3.66,1.25-1,7.31-2.3,8.84-1.51,1.78-4.22,3.61-5.39,5.27-2.57,3.65-4.62,8.81-7.32,12.76-1.51,2.2-3.16,4.27-4.99,6.19.55-4.73.48-9.59,1.64-14.23-7.83,1.36-15.37.73-22.61-2.71v33.38c0,1.29-2.35,2.04-3.39,1.21l-.55-1.04v-33.89c-7.04,3.39-14.94,4.88-22.61,3.05.41,4.74.79,9.5,1.31,14.23Z"/>
        </g>
      </g>
    </g>
  </g>
</svg>