<?xml version="1.0" encoding="UTF-8"?>
<svg id="Layer_2" data-name="Layer 2" xmlns="http://www.w3.org/2000/svg" viewBox="0 0 320.14 449.78">
  <defs>
    <style>
      .cls-1 {
        fill: #fec030;
      }

      .cls-2 {
        fill: #fab532;
      }

      .cls-3 {
        fill: #f96a11;
      }

      .cls-4 {
        fill: #b46a2b;
      }

      .cls-5 {
        fill: #de9a4f;
      }

      .cls-6 {
        fill: #5c3812;
      }

      .cls-7 {
        fill: #90561d;
      }
    </style>
  </defs>
  <g id="Layer_1-2" data-name="Layer 1">
    <g id="dog-slightleft-standing">
      <g>
        <path class="cls-5" d="M290.57,187.85c-2.5-5.02-5.46-9.89-9.19-14.09-.93-1.05-5.38-5.65-6.35-5.8-.7-.11-.86-.03-1.29.53,3.21,3.84,6.64,7.48,9.54,11.58,2.11,2.98,4.19,6.31,6.11,9.35,8.94,14.21,12.92,39.35,14.48,56.16,1.91,20.57.74,44.55,5.67,64.37,2.59,10.42,9.34,16.87,10,27.57.97,15.68.58,35.85,0,51.69-.63,17.18-.79,30.6-21.15,31.88.38-2.62-.6-4.74-.34-7.58.1-1.14.56-3.05.94-4.15.53-1.54,3.25-5.18,2.75-6.26-1.62-2.23-3.99,2.06-4.72,3.5-2.31,4.55-2.9,9.69-.97,14.49-4.43.08-8.2-.17-12.52-1.17.9-1.25.05-2.51,0-3.72-.11-2.82.13-5.31.99-8,.53-1.66,5.19-8.29.85-6.99-1.31.39-3.46,4.88-3.91,6.28-1.3,4.06-1.22,7.54-.28,11.65-9.2-3.42-7.9-13.38-2.16-19.57,4.69-5.07,9.13-4.42,10.97-12.51,2.75-12.05,1.73-34.26-3.26-45.66-2.84-6.49-7.72-11.61-12.2-16.95-4.68-7.98-10.6-15.22-15.33-23.22-12.94-21.88-15.45-37.66-19.16-62.24-.26-1.71-.84-4.96-2.61-2.31-.4,7.66,1.37,15.22,2.24,22.78-13.11,3-24.24,10.92-35.97,17.06-4.04,2.11-13.55,7.49-17.47,8.36-.75.17-.48,0-.54-.54-.85-7.24,1.89-17.11,1.17-25.04-.11-1.2-.86-5.23-2.37-3.16-.78,1.06-.26,5.78-.35,7.48-.73,14.19-1.75,28.67-3.15,42.83-3.3,33.51-7.66,68.18-12.48,101.59-3.15,21.85-.85,38.86-27.43,41.64-1.01-4.59-.35-9.27,1.5-13.57.66-1.54,3.87-5.97,3.56-6.93-.68-2.13-3.44.96-4.05,1.74-3.85,5-5.7,12.68-3.75,18.75-5.98.27-8.32.39-14.09-1.96,1.45-1.22.64-4.15.83-6.01.29-2.87,1.37-6.08,2.77-8.58.73-1.32,4.75-5.4,2-6.1-1.76-.45-5.52,5.83-6.18,7.4-1.5,3.62-2.06,7.27-1.36,11.13.13.71.92,1.12-.41.99-.23-.13-.71-.08-1.05-.3-6.62-4.13-5.17-13.59-.89-19.06,3.92-5.02,10.67-6.91,12.47-13.36.57-2.06.43-4.37.82-6.16.31-1.4.25-1.61.38-3.6,2.09-32.01,4.07-73.23-1.16-104.66-1.36-8.2-5.31-20.37-9.31-27.67-1.23-2.24-3.14-1.78-2.66,1.06.57,3.37,3.89,9.27,5.23,12.8.54,1.41,4.07,10.98,3.61,11.45-25.41-.72-54.56-7.89-73.39-25.81-.95-.91-3.02-4.81-4.64-3.57-2.5,1.9,5.98,9.04,7.41,10.2,6.3,5.11,14.95,9.9,22.49,12.92-1.37,27.67-7.29,54.77-11.69,82.03-1.54,9.57-2.33,19.3-4.02,28.85-3.76,21.29-8.26,37.95-33.6,38.21-.33-5.3.39-10.02,3.28-14.53,1.26-1.97,6.05-5.62,3.17-7.02-1.51-.12-4.88,3.93-5.75,5.22-3.05,4.53-4.94,11.04-3.04,16.33-4.67-.21-7.89-.95-12.13-2.74.47-5.07.7-9.17,3.36-13.66.69-1.17,3.83-4.5,3.65-5.24-.65-2.56-3.43.21-4.27,1.09-3.91,4.09-6.32,11.06-5.08,16.64-.28-.16-.85-.14-1.31-.43-9.03-5.87-2.88-16.6,3.47-21.86,3.49-2.89,9.4-4.84,11.46-8.89,1.62-3.19,2.73-11.42,3.19-15.2.15-1.19-.24-2.83.01-3.84.08-.3.77-.25.79-.49,1.3-24.83,2.13-50.13,1.57-75.12-.13-5.85-.99-11.72-.8-17.59.09-2.69-.15-1.48-.39-2.42-.35-1.42-.5-7.13-.74-9.37-2.96-28.08-7.71-49.73-4.74-78.6,1.41-13.75,4.24-27.31,8.22-40.5,6.96,13.23,29.16,19.46,43.04,20.74.03.15.32.27.39.39,1.06,1.8,3.58,2.22,3.91,0,21.1,1.77,42.29-2.66,60.23-13.92,8.44-5.3,22.08-17.22,22.34-27.95,7.66,3.39,15.48,6.57,23.86,7.64,25.79,3.28,50.45-1.13,74.62,12.25,3.16,1.75,6.04,4.14,9.13,5.73,19.94-15.41,21.96-43.58,11.81-65.41-2.15-4.63-5.54-10.37-8.87-14.22-1.31-1.52-9.68-7.94-4.53-9.6,5.72-1.85,16.18,5.28,20.38,9.02,29.21,26.01,32.78,78.55-1.57,101.55Z"/>
        <path class="cls-5" d="M229.92,266.5c-3.48,17.46-7.17,36.05.45,52.97,3.9,8.64,5.35,8.66,4.13,19.11-1.82,15.51-7.17,35.69-11.9,50.7-4.43,14.08-9.36,18.8-24.76,19.66-1.27-6.2.53-11.42,4.32-16.25-1.47-2.74-4.18.66-5.17,2.28-2.29,3.73-3.63,9.94-1.49,13.97-4.5,0-6.8-.61-10.96-1.96-.15-3.8.46-7.85,2.28-11.22.62-1.15,4.34-4.83,1.78-5.58-1.96-.57-5.25,5.48-5.81,7.03-1.06,2.91-1.5,5.96-.98,9-9.38-4.15-3.87-14.95,1.95-19.77,3.88-3.21,8.63-3.94,11.94-8.01,5.54-6.79,7.98-28.29,7.18-36.93-.93-10.19-11.06-19.27-16.7-27.52-.95-1.39-2.76-3.7-3.2-5.21-.54-1.82.22-1.93.36-3.36l1.66-16.92c15.21-5.47,28.67-15.51,43.38-21.78.41-.17,1.31-1.01,1.56-.2Z"/>
        <path class="cls-4" d="M274.53,324.42c-3.11-3.7-6.54-7.15-9.55-11-11.64-14.92-20.01-32.36-24.3-50.84-.33-.54-.55-.16-.88-.12-1.54.16-4.25,1.12-5.77,1.69s-3.2.97-4.1,2.36c-.25-.81-1.15.03-1.56.2-14.71,6.27-28.17,16.31-43.38,21.78l-1.66,16.92c-.14,1.43-.9,1.53-.36,3.36l-1.96-2.35c1.39-14.16,2.41-28.65,3.15-42.83.09-1.7-.43-6.41.35-7.48,1.51-2.07,2.26,1.96,2.37,3.16.72,7.93-2.02,17.8-1.17,25.04.06.54-.21.7.54.54,3.92-.88,13.43-6.25,17.47-8.36,11.73-6.13,22.85-14.06,35.97-17.06-.87-7.56-2.64-15.12-2.24-22.78,1.77-2.65,2.35.6,2.61,2.31,3.7,24.58,6.21,40.36,19.16,62.24,4.73,8,10.64,15.24,15.33,23.22Z"/>
        <path class="cls-4" d="M81.22,290.77c-7.54-3.03-16.19-7.81-22.49-12.92-1.42-1.15-9.91-8.29-7.41-10.2,1.62-1.23,3.69,2.66,4.64,3.57,18.83,17.92,47.98,25.09,73.39,25.81.46-.47-3.08-10.04-3.61-11.45-1.34-3.53-4.66-9.43-5.23-12.8-.48-2.84,1.43-3.3,2.66-1.06,4.01,7.3,7.95,19.46,9.31,27.67-16.8,1.12-35.64-2.33-51.26-8.61Z"/>
        <path class="cls-4" d="M31.91,439.86c-.78,0-1.57.03-2.35,0-1.9-5.29,0-11.8,3.04-16.33.87-1.29,4.24-5.34,5.75-5.22,2.88,1.4-1.91,5.05-3.17,7.02-2.88,4.51-3.61,9.23-3.28,14.53Z"/>
        <path class="cls-4" d="M141.09,449.64c-.51.05-1.05-.04-1.57,0-.13,0-.26,0-.39,0-.26.02-.52-.01-.78,0-1.95-6.07-.1-13.75,3.75-18.75.6-.78,3.37-3.87,4.05-1.74.31.96-2.9,5.39-3.56,6.93-1.85,4.3-2.5,8.98-1.5,13.57Z"/>
        <path class="cls-4" d="M124.26,447.68c-1.07-.43-1.41-.66-2.35-1.17,1.33.12.54-.28.41-.99-.7-3.86-.14-7.51,1.36-11.13.65-1.58,4.42-7.85,6.18-7.4,2.75.7-1.26,4.78-2,6.1-1.39,2.51-2.47,5.72-2.77,8.58-.19,1.87.61,4.79-.83,6.01Z"/>
        <path class="cls-4" d="M17.43,437.12c-1.04-.44-1.39-.62-2.35-1.17-1.24-5.58,1.17-12.55,5.08-16.64.84-.88,3.63-3.65,4.27-1.09.19.74-2.95,4.07-3.65,5.24-2.66,4.49-2.89,8.59-3.36,13.66Z"/>
        <path class="cls-4" d="M283.53,419.9c-1.11-.26-1.4-.43-2.35-.78-.94-4.11-1.02-7.59.28-11.65.44-1.39,2.59-5.88,3.91-6.28,4.34-1.3-.32,5.33-.85,6.99-.86,2.69-1.1,5.18-.99,8,.05,1.21.9,2.47,0,3.72Z"/>
        <path class="cls-4" d="M298.4,421.07c-.77.05-1.57-.01-2.35,0-1.93-4.8-1.34-9.94.97-14.49.73-1.44,3.09-5.73,4.72-3.5.5,1.08-2.22,4.72-2.75,6.26-.38,1.1-.84,3.01-.94,4.15-.26,2.85.73,4.96.34,7.58Z"/>
        <path class="cls-4" d="M197.83,408.94c-.77.04-1.57,0-2.35,0-2.14-4.03-.8-10.24,1.49-13.97,1-1.62,3.71-5.02,5.17-2.28-3.79,4.84-5.59,10.05-4.32,16.25Z"/>
        <path class="cls-4" d="M184.53,406.99c-.9-.29-1.71-.33-2.74-.78-.51-3.03-.08-6.08.98-9,.56-1.54,3.85-7.6,5.81-7.03,2.56.74-1.16,4.43-1.78,5.58-1.82,3.38-2.42,7.42-2.28,11.22Z"/>
        <circle class="cls-2" cx="80.82" cy="194.36" r="11.76"/>
        <g>
          <path class="cls-4" d="M83.96,167.5c.04.78-.4,1.65-.41,2.53-.05,4.26-.25,8.48-.37,12.73-.33,2.22-2.86,1.8-3.91,0,.32-3.16-.44-7.13,0-10.17.19-.05.36-.21.39-.39.06-.34,0-.8,0-1.17.03-1.08-.17-2.56,0-3.52.54-3.11,4.18-2.83,4.3,0Z"/>
          <path class="cls-1" d="M79.26,172.59c.03-.18.2-.35.39-.39-.03.19-.2.34-.39.39Z"/>
        </g>
        <g>
          <path class="cls-2" d="M165.74,140.89c-.26,10.72-13.9,22.65-22.34,27.95-17.94,11.27-39.13,15.69-60.23,13.92.12-4.25.32-8.47.37-12.73.01-.88.44-1.75.41-2.53,30.59.89,63-11.83,78.65-39.13.87,3.79,3.24,8.05,3.13,12.52Z"/>
          <path class="cls-2" d="M79.65,167.5c-.17.96.03,2.45,0,3.52-1.18-.22-.76.6-.78,1.35-.08,2.36-.4,8.02,0,10-13.88-1.27-36.08-7.51-43.04-20.74-1.75-3.33-1.72-5.07-1.58-8.82.09-2.51.34-6.23,1.58-8.39.39,2.51,5.23,7.62,7.25,9.38,9.7,8.47,22.49,10.83,34.77,12.97.66.12,1.34.17,1.81.73Z"/>
          <path class="cls-2" d="M79.65,171.02c0,.38.06.83,0,1.17-.19.04-.36.21-.39.39-.44,3.04.32,7.02,0,10.17-.07-.12-.36-.25-.39-.39-.4-1.97-.08-7.64,0-10,.03-.75-.4-1.57.78-1.35Z"/>
        </g>
        <path class="cls-4" d="M290.57,187.85c-.27.18-.85,1.23-1.17,1.57-1.91-3.04-4-6.37-6.11-9.35-2.9-4.1-6.33-7.74-9.54-11.58.42-.56.59-.64,1.29-.53.97.15,5.41,4.75,6.35,5.8,3.73,4.2,6.69,9.08,9.19,14.09Z"/>
      </g>
      <g>
        <g>
          <path class="cls-7" d="M166.14,64.19c-15.54-6.52-22.57-34.61-28-48.9-2.54-2.86-6.07-4.8-9.57-6.28,2.86-5.04,6.65-8.58,12.72-8.99s14.61,4.41,20.85,6.14c6.97,1.94,20.36,2.62,25.49,6.6,8.32,6.47,3.89,19.86,1.32,28.25-1.65,5.37-6.32,19.9-10.7,22.95-3.15,2.19-8.7,1.65-12.11.22Z"/>
          <path class="cls-7" d="M62.04,8.63c-1.87.72-8.84,5.14-10.19,6.55-2.66,2.76-7.41,17.61-9.7,22.28-4.19,8.58-10.33,16.5-18.46,21.65-7.55,4.79-16.8,8.89-19.77-2.74C1.7,47.63-1.69,26.73.98,18.58c3.44-10.52,21.98-10.22,31.41-12.81C38.1,4.2,46.57-.66,51.96.12c4.9.71,7.3,5.03,10.08,8.51Z"/>
        </g>
        <g>
          <path class="cls-5" d="M128.57,9.02c3.5,1.48,7.03,3.42,9.57,6.28,5.43,14.29,12.46,42.37,28,48.9.02,6.23,1.04,12.79.8,19-.33,8.78-1.64,19.01-5.89,26.79-3.88,7.1-10,14.38-15.84,19.97-1.16,1.11-6.74,5.3-6.78,6.37,0,.17.29,1.08.53,1.07,6.55-3.19,12.19-8.5,16.81-14.1,2.1-2.54,3.66-5.54,6.06-7.83.3,3.47.11,9.97.78,12.91-15.65,27.3-48.06,40.03-78.65,39.13-.13-2.83-3.76-3.11-4.3,0-.47-.56-1.15-.62-1.81-.73-12.27-2.14-25.07-4.51-34.77-12.97-2.02-1.76-6.86-6.87-7.25-9.38-.83-5.33.23-13.75,0-19.57,1.15-.3.98.27,1.43.72,1.48,1.48,4.53,5.42,6.58,5.56,1.56.1-.27-2.14-.59-2.55-2.33-2.96-5.89-7.78-8.21-9.99-12.96-12.4-14.77-34.24-12.86-51.02.32-2.84.99-5.66,1.52-8.46,8.13-5.15,14.27-13.07,18.46-21.65,2.28-4.67,7.04-19.53,9.7-22.28,1.35-1.41,8.33-5.83,10.19-6.55,6.65-2.57,14.75-3.11,21.72-3.09,1.78,0,3.69-.76,5.46-.83,11.25-.48,29.02-.04,39.34,4.32ZM63.1,45.53c-.97-1.07-4.51-2.02-5.96-2.08-3.88-.17-12.02,2.76-11.47,7.58.14.47.46.63.93.67,1.19.1,4.74-2.99,6.57-3.62s4.03-.92,5.86-.61c1.27.22,2.76,1.52,3.83,1.31,1.53-.29,1.07-2.34.24-3.24ZM115.16,43.94c-1.61.25-5.09,1.96-4.54,3.93.68,2.42,4.05-.26,5.65-.47,2.37-.31,4.96.41,7.08,1.46,1.36.67,5.07,4.46,6.22,2.83,1.05-2.98-2.34-5.23-4.65-6.35-2.99-1.45-6.46-1.92-9.76-1.4ZM61.92,65.88c-1.07-1.46-4.03-2.65-5.9-2.44-2.92.33-5.93,4.07-6.1,6.87-.05.88.38,1.55.38,2.3,0,.89-.5,1.49-.32,2.63.46,2.96,3.68,6.15,6.77,6.2,1.58.03,3.6-.86,4.67-2.01,1.47-1.57,2.73-5.47,2.58-7.6-.07-.93-1.59-5.27-2.09-5.95ZM124.92,78.16c3.16-3.88,1.7-13.2-4.01-14.33-3.55-.7-5.83.16-7.43,3.48-.94,1.95-1.22,5.79-.87,7.94.62,3.8,5.48,7.67,9.27,5.54.18-.1,2.91-2.48,3.04-2.63ZM98.83,138.15c6.18-1.2,10.62-7.15,13.86-12.16,2.4-3.72,4.32-8.7,6.71-12.07,1.81-2.55,4.81-4.6,6.37-7.72.81-1.61,1.78-4.35-.34-5.44-1.88-.96-4.22,4.42-5.49,5.88-6.95,8.02-21.43,11.13-30.92,6.29-6.34-3.23-.79-4.36,2.09-6.16,4.76-2.96,13.55-10.01,9.45-16.34-1.22-1.88-3.39-2.4-5.34-3.19-.27-.11-.25-.57-.88-.77-5.39-1.76-19.02-1.53-23.67,1.82-8.56,6.16,1.6,15.23,7.29,18.88.75.48,3.62,1.61,3.85,2.01.07.12-.18,2.14-.28,2.3-.38.61-7.26,3.03-8.37,3.17-8.62,1.08-17.89-3.81-21.8-11.41-.84-1.62-.58-4.52-3.13-3.75-4.22,1.28,2.25,9.97,3.83,11.68,1.45,1.57,4.49,3.36,5.48,4.7,1.47,1.98,3.37,7.42,4.83,10.04.98,1.77,2.16,3.78,3.59,5.22-1.36,10.38-1.26,23.52,12.04,25.33,12.69,1.73,18.39-7.52,20.83-18.29Z"/>
          <path class="cls-4" d="M161.83,115.46c-2.4,2.29-3.96,5.29-6.06,7.83-4.62,5.6-10.25,10.9-16.81,14.1-.24.01-.54-.9-.53-1.07.04-1.06,5.62-5.26,6.78-6.37,5.84-5.59,11.96-12.86,15.84-19.97.48,1.51.63,3.74.78,5.48Z"/>
          <path class="cls-4" d="M35.04,118.59c2.31,2.21,5.88,7.03,8.21,9.99.32.41,2.15,2.65.59,2.55-2.05-.14-5.11-4.08-6.58-5.56-.45-.45-.27-1.02-1.43-.72-.08-1.97-.35-4.34-.78-6.26Z"/>
          <g>
            <path class="cls-6" d="M65.96,131.11c-1.43-1.44-2.6-3.45-3.59-5.22-1.46-2.62-3.36-8.06-4.83-10.04-.99-1.33-4.03-3.13-5.48-4.7-1.58-1.71-8.05-10.4-3.83-11.68,2.55-.77,2.3,2.12,3.13,3.75,3.91,7.61,13.18,12.5,21.8,11.41,1.11-.14,7.99-2.56,8.37-3.17.1-.15.35-2.18.28-2.3-.23-.4-3.1-1.53-3.85-2.01-5.7-3.65-15.85-12.72-7.29-18.88,4.65-3.35,18.28-3.57,23.67-1.82.64.21.61.66.88.77,1.95.79,4.12,1.31,5.34,3.19,4.11,6.33-4.69,13.38-9.45,16.34-2.89,1.8-8.43,2.92-2.09,6.16,9.49,4.84,23.97,1.73,30.92-6.29,1.26-1.46,3.6-6.84,5.49-5.88,2.12,1.08,1.14,3.83.34,5.44-1.56,3.11-4.56,5.17-6.37,7.72-2.39,3.37-4.31,8.35-6.71,12.07-3.24,5.02-7.68,10.96-13.86,12.16,1.37-6.04,1.93-12.31,3.13-18.39-5.59.16-11.6-.66-16.43-3.52l-4.49,27.02c-.18,1.31-1.17,2.32-2.13.92-1.11-1.61.48-9.66.87-11.97.91-5.41,2.36-10.73,3.37-16.11l1.2-.64c-1.38-.14-2.24,1.02-3.41,1.48-4.02,1.56-8.69,2.48-13,2.45-.4,3.93-1.46,7.82-1.98,11.72Z"/>
            <path class="cls-3" d="M65.96,131.11c.51-3.9,1.57-7.79,1.98-11.72,4.32.02,8.98-.9,13-2.45,1.17-.45,2.03-1.61,3.41-1.48l-1.2.64c-1.01,5.39-2.47,10.7-3.37,16.11-.39,2.31-1.98,10.36-.87,11.97.96,1.4,1.96.39,2.13-.92l4.49-27.02c4.83,2.87,10.84,3.69,16.43,3.52-1.2,6.08-1.76,12.35-3.13,18.39-2.45,10.77-8.15,20.02-20.83,18.29-13.3-1.82-13.39-14.96-12.04-25.33Z"/>
          </g>
          <path class="cls-6" d="M61.92,65.88c.5.68,2.02,5.03,2.09,5.95.15,2.13-1.11,6.03-2.58,7.6-1.08,1.15-3.1,2.04-4.67,2.01-3.09-.05-6.31-3.25-6.77-6.2-.18-1.15.33-1.75.32-2.63,0-.75-.44-1.43-.38-2.3.17-2.8,3.17-6.54,6.1-6.87,1.87-.21,4.83.98,5.9,2.44Z"/>
          <path class="cls-6" d="M124.92,78.16c-.13.16-2.86,2.53-3.04,2.63-3.78,2.13-8.64-1.74-9.27-5.54-.35-2.15-.07-5.99.87-7.94,1.6-3.32,3.88-4.18,7.43-3.48,5.71,1.13,7.17,10.45,4.01,14.33Z"/>
          <path class="cls-6" d="M115.16,43.94c3.3-.52,6.77-.04,9.76,1.4,2.31,1.12,5.7,3.37,4.65,6.35-1.14,1.63-4.86-2.16-6.22-2.83-2.12-1.05-4.71-1.77-7.08-1.46-1.61.21-4.98,2.88-5.65.47-.55-1.97,2.93-3.68,4.54-3.93Z"/>
          <path class="cls-6" d="M63.1,45.53c.82.91,1.29,2.95-.24,3.24-1.07.2-2.56-1.09-3.83-1.31-1.83-.31-4.11,0-5.86.61s-5.38,3.72-6.57,3.62c-.46-.04-.79-.19-.93-.67-.55-4.82,7.6-7.75,11.47-7.58,1.45.06,4.99,1.01,5.96,2.08Z"/>
        </g>
      </g>
    </g>
  </g>
</svg>