<?xml version="1.0" encoding="UTF-8"?>
<svg id="Layer_2" data-name="Layer 2" xmlns="http://www.w3.org/2000/svg" viewBox="0 0 308.58 475.12">
  <defs>
    <style>
      .cls-1 {
        fill: #ab5e2b;
      }

      .cls-2 {
        fill: #fab532;
      }

      .cls-3 {
        fill: #f96a11;
      }

      .cls-4 {
        fill: #de9a4f;
      }

      .cls-5 {
        fill: #4e2710;
      }

      .cls-6 {
        fill: #90561d;
      }
    </style>
  </defs>
  <g id="Layer_1-2" data-name="Layer 1">
    <g id="dog-slightleft-sitting">
      <g>
        <path class="cls-4" d="M177.56,166.93c17.74,30.85,38.22,60.2,53.44,92.47,10.32,21.89,19.14,45.23,24.81,68.8.41.45,2.26-1.64,2.6-1.99,27.74-29.09,37.76-79.59,18.23-115.64-1.43-2.65-5.39-7.55-6.15-9.82-1.03-3.1.59-4.68,3.7-4.11,7.69,1.42,18.67,15.71,22.41,22.31,23.01,40.58,11.52,98.01-22.42,129.01-3.43,3.14-9.15,6.46-11.98,9.38-.15-3.92-.68-7.84-1.26-11.71-.32-2.14-2.39-14.48-3.22-15.34-.52-.54-1.93-.79-2.24.17-.48,1.44,1.87,11.91,2.27,14.38.58,3.6.61,8.05,1.36,11.42.36,1.62,1.48,2.96,1.9,5.08,1.7,8.66-.3,27.74-2.18,36.74-6.4,30.67-19.6,38.91-45.45,53.15-6.04,3.32-12.39,6.98-19.43,7.52-.75-.38-.77-.55-.82-1.36-.21-3.4.95-8.13,2.48-11.16.75-1.48,3.13-3.64,1.77-4.68-1.97-1.51-3.44,1.09-4.29,2.56-2.45,4.24-3.37,9.79-3.13,14.64.66.03,1.34-.04,2,0-3.01.8-6.98.44-10.03-.17-.53-.11-.91-.56-1.15-.63-.77-.38-.76-.56-.83-1.36-.32-3.97.18-8.49,1.95-12.08.67-1.35,3.92-4.89,4-5.2.33-1.31-.88-2.38-2.21-1.82-4.72,1.98-7.95,14.1-6.91,18.87-3.15-1.8-4.84-3.33-5.21-7.37-.94-10.3,6.66-16.09,14.39-20.97.34,1.32,1.07,1.69,2.4,1.44,2.3-.43,7.65-3.72,10.38-4.82,1.78-.72,5.3-2.33,7.01-2.57,2.82-.4,14.16,1.42,15.36.59.84-.58.43-2.68-.7-2.94l-13.68-1.09c-18.02-13.91-31.07-37.29-28.31-60.61,2.36-19.96,15.14-39.81,34.99-45.64,1.38-.4,6.04-.83,6.42-1.97,1.29-3.94-6.08-1.27-7.92-.73-19.78,5.73-33.38,26.28-36.22,46.02-3.52,24.49,8.79,48.24,27.03,63.77.14.85-.14.47-.55.63-4.81,1.89-9.74,3.76-14.22,6.35l-25.95-1.6c6.96-48.23,14.33-96.52,18.74-145.08-.17-1.46-1.24-2.51-2.58-1.43-.94.95-.81,9.38-.99,11.38-4.42,48.85-14.2,97.78-19.95,146.51-.22,1.74-.14,4.69,2.39,3.39-2.71,18.66-2.24,34.53-26.35,35.53.63-4.95.19-9.33,2.57-13.99.5-.98,1.66-1.7,1.82-2.59.36-2.05-.87-2.87-2.62-1.81-3.2,1.95-6.36,15.06-3.36,18.39-4.61.02-7.24-.22-11.58-1.6-.83-4.53-.83-9.42,1.39-13.58,1.14-2.12,4.59-4.33,1.54-5.92-6.04,3.17-7.39,12.09-6.13,18.3-8.52-4.33-8.07-12.29-4.34-20.11,3.25-6.82,6.39-10.01,7.94-18.21,1.5,1.52,2.33,1.51,3.17-.62,6.23-43.9,6.76-88.27,5.19-132.49-.07-2.11.46-9.11-.41-10.36-.57-.82-1.44-.93-2.17-.24-1.43,1.44-.21,8.07-.17,10.17.77,42.33,1.15,84.79-4.81,126.76-11.82,2.56-22.95,8.72-34.43,12.08-2.75.8-6.25,1.67-9.09,1.89l-2.39-.59c.53-3.25,1.46-6.34,3.25-9.12.91-1.42,3.13-2.22,2.13-4.25-.83-1.69-2.47-.22-3.33.66-3,3.11-5.16,9.02-4.86,13.31-3.7-.05-5.22.14-8.78-1.2-.43-4.36,1.51-8.95,4.39-12.17.73-.81,4.53-2.74,1.99-4-3.04-1.5-7.13,5.63-8.05,7.91-.68,1.69-.89,2.69-1.14,4.46-.1.74.51,1.62-.78,1.4-4.47-5.6-1.5-12.55,3.38-16.78,6.71-5.81,15.95-6.32,23.76-9.78.09-.35-3.2-3.12-3.8-3.78-8.66-9.52-13.53-19.47-17.47-31.64-.4-1.24-.73-3.86-1.09-4.7l1.59-1.41,5.2-39.31c5.71,4.73,11.27,9.66,17.2,14.13,3.39,2.55,10.58,8.31,14.1,9.85,1.38.6,3.41.32,2.98-1.34-.26-1.02-7.43-5.31-8.86-6.34-18.1-12.99-35.87-28.6-46.39-48.62-.8-1.53-4.48-10.29-4.97-10.59-.58-.36-1.41-.29-2.03-.02-1.07.73.74,4.67,1.15,5.68,5.29,12.94,15.09,24.43,24.32,34.71-2.5,12.23-4.19,24.66-5.49,37.08-.18,1.74.15,3.64,0,5.39-1.49,16.57-6.4,37.91-10.1,54.37-3.94,17.51-7.11,34.19-28.22,36.65l-1.62-.62c.3-4.13.69-8.11,2.47-11.91.61-1.31,3.79-5.26,3.86-5.71.24-1.59-1.55-2.15-2.93-1.35-3.17,1.84-6.72,12.58-6.58,16.17.02.65.43,3.69,1.61,3.41-5.95.29-8.7.34-14.37-2,1.43-1.41.6-3.87.84-5.75.38-3.02,1.73-6.06,3.46-8.51,1.03-1.46,3.28-3.13,3.26-4.67-.04-3.91-4.55.67-5.56,1.97-3.31,4.26-4.97,10.41-4.8,15.76-8.26-5.15-5.19-15.06.01-21.35,2.83-3.42,6.87-5.74,9.58-8.79,4.43-4.98,6.35-23.27,7.17-30.35.35-3.04.21-8.54.81-11.11.07-.31.76-.25.75-.44-.22-5.1.23-8.98.46-13.98,1.05-22.59.95-45.28.37-67.86-.62-23.71-3.07-47.7-.33-71.42,2.21-19.1,8.95-37.36,16.32-54.94.59,1.19,3.07,4.59,4,5.78,9.74,12.49,25.61,19.21,40.71,22.56,0,.67,0,1.33.08,2.4-7.16,1.43-12.03,8.12-11.2,15.38s7.08,12.67,14.39,12.45c7.3-.22,13.21-6,13.6-13.3.39-7.29-4.88-13.67-12.11-14.67l1.23-.26c.03-.53-.03-1.07,0-1.6,29.07,3.9,61.5-7.88,80.23-30.55,2.35-2.85,4.3-5.95,6.4-8.97ZM99.25,414.49c-.24-.39-8.07-3.14-8.62-3.19-2.22-.24-2.24,2.37.02,3.61,1.86,1.02,10.45,4.39,8.59-.42Z"/>
        <g>
          <path class="cls-2" d="M177.56,166.93c-2.1,3.02-4.04,6.12-6.4,8.97-18.73,22.67-51.16,34.45-80.23,30.55.19-3.61-.05-7.75.44-11.33.31-2.26,2.45-4.96.76-6.63,6.03-.06,12.1.25,18.11-.45,22.47-2.61,47.15-16.68,60.29-35.11,1.22-1.71,1.84-3.77,3.43-5.15,1.31,6.25,4.03,12.39,3.59,19.16Z"/>
          <path class="cls-2" d="M88.14,187.69c-.86,1.11-1.78,2.25-2.12,3.67-.18.76-.67,3.52-.67,4.12v7.19c0,.7-.41,2.13-.4,3.39-15.1-3.35-30.97-10.08-40.71-22.56-.93-1.19-3.41-4.59-4-5.78-2.45-4.97.69-14.47,1.6-19.96,1.4,2.15,2.58,4.41,4.07,6.51,9.24,13.09,26.4,21.97,42.24,23.43Z"/>
        </g>
        <path class="cls-1" d="M187.94,426.41c4.48-2.59,9.41-4.46,14.22-6.35.41-.16.68.21.55-.63-18.24-15.52-30.55-39.28-27.03-63.77,2.83-19.74,16.44-40.28,36.22-46.02,1.84-.53,9.21-3.21,7.92.73-.37,1.15-5.04,1.57-6.42,1.97-19.85,5.84-32.63,25.68-34.99,45.64-2.76,23.32,10.29,46.71,28.31,60.61l13.68,1.09c1.13.26,1.54,2.36.7,2.94-1.2.84-12.54-.99-15.36-.59-1.7.24-5.23,1.85-7.01,2.57-2.73,1.1-8.08,4.39-10.38,4.82-1.33.25-2.07-.12-2.4-1.44.63-.4,1.38-1.24,2-1.6Z"/>
        <path class="cls-1" d="M161.99,424.81c-.71,4.91-1.68,9.86-2.4,14.77-2.53,1.3-2.61-1.65-2.39-3.39,5.75-48.73,15.53-97.66,19.95-146.51.18-2,.05-10.43.99-11.38,1.34-1.07,2.41-.02,2.58,1.43-4.41,48.56-11.78,96.84-18.74,145.08Z"/>
        <path class="cls-1" d="M120.47,433.99c.37-1.97.49-4.64.8-6.79,5.95-41.97,5.58-84.43,4.81-126.76-.04-2.1-1.25-8.73.17-10.17.73-.69,1.6-.58,2.17.24.88,1.26.34,8.25.41,10.36,1.56,44.22,1.04,88.59-5.19,132.49-.84,2.13-1.67,2.14-3.17.62Z"/>
        <path class="cls-1" d="M63.79,370.12c.16-1.75-.18-3.64,0-5.39,1.3-12.42,2.99-24.86,5.49-37.08-9.23-10.28-19.03-21.77-24.32-34.71-.41-1.01-2.23-4.95-1.15-5.68.61-.28,1.45-.34,2.03.02.5.31,4.17,9.07,4.97,10.59,10.52,20.01,28.29,35.63,46.39,48.62,1.43,1.03,8.6,5.32,8.86,6.34.43,1.67-1.6,1.95-2.98,1.34-3.52-1.54-10.71-7.3-14.1-9.85-5.93-4.47-11.5-9.4-17.2-14.13l-5.2,39.31-1.59,1.41c-.06-.14-.98-.56-1.2-.8Z"/>
        <path class="cls-1" d="M260.99,361.34c-.42-2.13-1.54-3.47-1.9-5.08-.75-3.37-.78-7.81-1.36-11.42-.4-2.47-2.74-12.93-2.27-14.38.32-.96,1.72-.7,2.24-.17.83.86,2.9,13.2,3.22,15.34.59,3.87,1.11,7.79,1.26,11.71-1.24,1.27-1.38,2.21-1.2,3.99Z"/>
        <path class="cls-1" d="M5.1,457.94c-.17-5.35,1.49-11.5,4.8-15.76,1.01-1.3,5.52-5.88,5.56-1.97.02,1.54-2.23,3.21-3.26,4.67-1.73,2.46-3.08,5.49-3.46,8.51-.24,1.88.59,4.33-.84,5.75-1.11-.46-1.51-.4-2.79-1.2Z"/>
        <path class="cls-1" d="M22.27,461.14c-1.18.28-1.59-2.77-1.61-3.41-.14-3.58,3.4-14.33,6.58-16.17,1.38-.8,3.17-.24,2.93,1.35-.07.44-3.24,4.4-3.86,5.71-1.78,3.8-2.16,7.78-2.47,11.91l1.62.62c-.99.12-2.16-.05-3.19,0Z"/>
        <path class="cls-1" d="M176.76,456.35c-1.04-4.77,2.19-16.89,6.91-18.87,1.34-.56,2.55.52,2.21,1.82-.08.32-3.34,3.85-4,5.2-1.77,3.6-2.28,8.12-1.95,12.08.07.8.06.98.83,1.36-.88-.24-1.71-.13-2.81-.6-.76-.32-.95-.87-1.18-1Z"/>
        <path class="cls-1" d="M120.07,473.51c-1.41-.45-1.78-.48-3.19-1.2-1.26-6.21.08-15.13,6.13-18.3,3.04,1.58-.41,3.79-1.54,5.92-2.22,4.16-2.22,9.05-1.39,13.58Z"/>
        <path class="cls-1" d="M133.25,475.11c-.53.02-1.07,0-1.6,0-3-3.33.16-16.44,3.36-18.39,1.75-1.07,2.98-.24,2.62,1.81-.16.89-1.32,1.61-1.82,2.59-2.38,4.66-1.94,9.04-2.57,13.99Z"/>
        <path class="cls-1" d="M191.93,458.74c-.66-.03-1.34.03-2,0-.24-4.85.68-10.4,3.13-14.64.85-1.47,2.32-4.07,4.29-2.56,1.36,1.04-1.02,3.2-1.77,4.68-1.53,3.03-2.69,7.76-2.48,11.16.05.81.07.98.82,1.36-.63.05-1.36.03-2,0Z"/>
        <path class="cls-1" d="M63.79,439.98c-2.16-.81-1.98-.37-3.59-2.4,1.29.22.68-.66.78-1.4.25-1.78.46-2.77,1.14-4.46.92-2.28,5.01-9.42,8.05-7.91,2.54,1.26-1.26,3.18-1.99,4-2.88,3.22-4.82,7.81-4.39,12.17Z"/>
        <path class="cls-1" d="M72.57,441.18c-.3-4.29,1.85-10.2,4.86-13.31.86-.89,2.49-2.35,3.33-.66,1,2.04-1.22,2.83-2.13,4.25-1.79,2.78-2.72,5.88-3.25,9.12l2.39.59c-1.62.13-3.53.02-5.19,0Z"/>
        <g>
          <circle class="cls-2" cx="87.78" cy="222.23" r="14.05"/>
          <path class="cls-1" d="M92.13,188.49c1.69,1.67-.44,4.37-.76,6.63-.5,3.58-.25,7.72-.44,11.33-.03.53.03,1.07,0,1.6l-1.23.26c-1.55-.21-3.13-.17-4.67.14-.08-1.07-.08-1.73-.08-2.4,0-1.26.4-2.69.4-3.39v-7.19c0-.6.49-3.36.67-4.12.35-1.42,1.26-2.55,2.12-3.67,1.47.14,2.77-.41,3.99.8Z"/>
        </g>
        <path class="cls-1" d="M99.25,414.49c1.86,4.81-6.74,1.43-8.59.42-2.26-1.24-2.24-3.85-.02-3.61.55.06,8.38,2.8,8.62,3.19Z"/>
      </g>
      <g>
        <g>
          <path class="cls-6" d="M140.43,9.65c.21-4.44,5.83-7.87,9.82-8.34,7.98-.93,21.81,6.45,30.41,8.63,16.1,4.08,29.72-.07,27.98,22.22-.72,9.26-7.65,32.98-13.36,40.14-2.33,2.93-4.92,4.04-8.72,3.59-2.06-.24-1.91-1.64-3.46.18-.21.25-.73.21-.76.26-5.05-1.68-9.02-6.27-12.14-10.41-6.73-8.93-11.88-20.44-15.81-30.9-2.5-6.64-3.73-14.28-8.37-19.58-1.73-1.98-4.25-3.74-5.6-5.78Z"/>
          <path class="cls-6" d="M29.06,71.52l-.59-2.39c-8.4,4.87-17.14,7.59-19.97-4.39-2.1-8.89-4.94-32.71-3.2-41.14,2.98-14.48,15.24-12.76,26.64-14.87,5.3-.98,10.58-2.6,15.69-4.27C53.35,2.6,58.42-.63,64.74.11c3.42.4,9.25,3.9,9.82,7.54.1.62.03,1.3-.38,1.81-2.87,2.85-6.1,5.34-8.81,8.36-5.78,6.42-7.85,14.09-11.9,21.64-5.81,10.84-13.76,23.57-23.93,30.57.02.6-.34,1.06-.49,1.49Z"/>
        </g>
        <g>
          <path class="cls-4" d="M140.43,9.65c1.35,2.03,3.87,3.8,5.6,5.78,4.64,5.29,5.87,12.93,8.37,19.58,3.93,10.46,9.07,21.97,15.81,30.9,3.13,4.14,7.09,8.73,12.14,10.41-.66.99.18,20.5.02,23.77-.44,8.92-2.22,17.74-5.53,26-.81,2.01-3.65,6.81-3.66,8.51-3.69,2.59-6.19,7.04-9.38,10.38-7.46,7.84-16.71,13.76-26.26,18.74-.98.89-.91,2.2.38,2.75,14.25-4.95,26.59-15.16,34.65-27.88l.2,1.99c.45.07.37-.4.4-.4.39,0,.54,6.36.8,7.58-1.59,1.38-2.21,3.45-3.43,5.15-13.15,18.44-37.82,32.5-60.29,35.11-6.01.7-12.08.39-18.11.45-1.22-1.21-2.52-.66-3.99-.8-15.84-1.46-33-10.33-42.24-23.43-1.49-2.11-2.67-4.36-4.07-6.51.78-4.69.6-11.48.4-16.37,2.94,4.71,6.03,9.45,9.77,13.58,1.03,1.14,6.76,7.39,8.19,5.98,0-.58.07-1.19-.02-1.77-.29-1.69-5.32-6.32-6.75-8.02-2.93-3.48-5.66-7.13-8.41-10.76l-3.18-3.01c-.62-2.33-2.86-4.62-4.16-6.82-4.21-7.16-8.24-15.18-9.7-23.44s-1.58-27.64,1.08-35.61c.15-.44.51-.89.49-1.49,10.17-7,18.12-19.73,23.93-30.57,4.04-7.55,6.12-15.22,11.9-21.64,2.71-3.01,5.94-5.51,8.81-8.36.41-.51.48-1.19.38-1.81.67-.46,1.42-.39,2.18-.42,21.24-.74,42.72-1.77,63.69,2.41ZM68.91,54.45c-3.59.08-7.4,1.28-10.43,3.18-1.47.92-6.22,4.47-4.9,6.34,1.4,1.96,6.17-2.79,7.68-3.55,1.85-.94,5.88-2.1,7.91-2.1,1.43,0,4.34,1.16,5.38.65,3.51-3.74-2.86-4.57-5.65-4.51ZM149.11,66.23c1.12-1.13-.85-3.77-1.69-4.7-2.73-3.02-9.11-6.04-13.17-6.39-2.13-.19-8.78-.64-7.73,2.92.58,1.97,3.88.75,5.25.83,3.52.2,6.22.82,9.26,2.63,1.8,1.07,6.42,6.35,8.07,4.7ZM64.08,75.6c-3.35.68-5.56,5.44-5.83,8.54-1.16,13.1,14.91,13.75,16.27,1.91.81-7.07-2.99-11.96-10.44-10.44ZM131.94,76.4c-7.73,1.43-8.29,17.14.08,18.89,12.72,2.66,14.21-21.53-.08-18.89ZM110.49,161.74c4.65-1.49,8.91-6.41,11.96-10.2,3.98-4.94,6.75-10.95,10.64-15.71,1.93-2.37,4.28-4.04,6.07-6.7,2.65-3.93,5.71-11.47-2.31-7.9-1.18,2.13-1.89,4.17-3.44,6.14-7.41,9.45-20.92,11-31.17,5.29-3.72-2.07-4.75-2.96-4.08-7.61,6.88-1.52,19.61-11.34,14.66-19.34-5.06-8.16-30.35-8.92-34.34.26-3.41,7.84,8.27,16.21,14.46,18.9.1,4.28.62,4.78-2.94,6.99-12.82,7.97-24.14,2.95-29.76-10.3-1-2.37-.54-6.07-4.23-5.33s.6,8.68,1.71,10.64c2.97,5.22,7.17,9.86,12.64,12.51,1.02,5.42,1.31,11.33,4.6,15.96-4.89,27.83,30.71,33.99,35.53,6.39Z"/>
          <path class="cls-1" d="M173.17,140.18s.06.47-.4.4l-.2-1.99c-8.06,12.72-20.41,22.93-34.65,27.88-1.29-.55-1.36-1.86-.38-2.75,9.55-4.98,18.79-10.9,26.26-18.74,3.19-3.35,5.68-7.79,9.38-10.38,0,.39.39.95.36,1.42-.07,1.35-.62,2.72-.36,4.17Z"/>
          <path class="cls-1" d="M41.83,137.39l3.18,3.01c2.74,3.63,5.48,7.27,8.41,10.76,1.43,1.7,6.46,6.33,6.75,8.02.1.58.02,1.19.02,1.77-1.43,1.41-7.16-4.84-8.19-5.98-3.74-4.12-6.84-8.87-9.77-13.58-.06-1.52.01-2.45-.4-3.99Z"/>
          <path class="cls-5" d="M64.08,75.6c7.45-1.51,11.26,3.38,10.44,10.44-1.37,11.85-17.43,11.2-16.27-1.91.27-3.1,2.48-7.86,5.83-8.54Z"/>
          <path class="cls-5" d="M131.94,76.4c14.29-2.64,12.81,21.55.08,18.89-8.37-1.75-7.82-17.46-.08-18.89Z"/>
          <path class="cls-1" d="M149.11,66.23c-1.65,1.65-6.28-3.63-8.07-4.7-3.04-1.81-5.74-2.43-9.26-2.63-1.37-.08-4.67,1.14-5.25-.83-1.05-3.56,5.6-3.11,7.73-2.92,4.06.36,10.44,3.37,13.17,6.39.84.93,2.81,3.57,1.69,4.7Z"/>
          <path class="cls-1" d="M68.91,54.45c2.79-.06,9.16.77,5.65,4.51-1.04.51-3.96-.65-5.38-.65-2.04,0-6.06,1.16-7.91,2.1-1.51.76-6.28,5.52-7.68,3.55-1.33-1.86,3.43-5.42,4.9-6.34,3.03-1.9,6.84-3.1,10.43-3.18Z"/>
          <g>
            <path class="cls-5" d="M74.96,155.35c-3.29-4.63-3.58-10.55-4.6-15.96-5.46-2.65-9.67-7.3-12.64-12.51-1.12-1.97-5.53-9.88-1.71-10.64s3.23,2.96,4.23,5.33c5.61,13.25,16.93,18.27,29.76,10.3,3.56-2.21,3.05-2.71,2.94-6.99-6.19-2.69-17.87-11.07-14.46-18.9,3.99-9.18,29.28-8.41,34.34-.26,4.96,8-7.78,17.82-14.66,19.34-.67,4.65.35,5.53,4.08,7.61,10.26,5.71,23.77,4.16,31.17-5.29,1.55-1.98,2.26-4.01,3.44-6.14,8.02-3.57,4.96,3.96,2.31,7.9-1.79,2.66-4.14,4.33-6.07,6.7-3.89,4.76-6.66,10.77-10.64,15.71-3.05,3.78-7.31,8.71-11.96,10.2l3.2-19.96c-5.55-.02-10.5-2.59-15.57-4.39-.92-.33-1.77-1.14-3.19-1.2-2.09-.09-3.72,1.49-5.6,2.19-2.95,1.1-5.93,1.83-8.98,2.6-1,2.21-2.05,4.42-2.89,6.69-.75,2.03-2.15,5.7-2.5,7.68Z"/>
            <path class="cls-3" d="M94.92,136.19c-.99,8.43-4.36,17.45-5.14,25.8-.27,2.9.46,5.9,2.64,2.24l5.7-26.84c5.07,1.8,10.02,4.37,15.57,4.39l-3.2,19.96c-4.81,27.6-40.42,21.45-35.53-6.39.35-1.99,1.74-5.65,2.5-7.68.84-2.27,1.89-4.49,2.89-6.69,3.05-.77,6.03-1.5,8.98-2.6,1.88-.7,3.5-2.28,5.6-2.19Z"/>
            <path class="cls-1" d="M98.12,137.39l-5.7,26.84c-2.18,3.66-2.91.66-2.64-2.24.78-8.34,4.15-17.37,5.14-25.8,1.42.06,2.27.87,3.19,1.2Z"/>
          </g>
        </g>
      </g>
    </g>
  </g>
</svg>