<?xml version="1.0" encoding="UTF-8"?>
<svg id="Layer_2" data-name="Layer 2" xmlns="http://www.w3.org/2000/svg" viewBox="0 0 494.17 414.55">
  <defs>
    <style>
      .cls-1 {
        fill: #d78c39;
      }

      .cls-2 {
        fill: #995726;
      }

      .cls-3 {
        fill: #fab532;
      }

      .cls-4 {
        fill: #f96a11;
      }

      .cls-5 {
        fill: #de9a4f;
      }

      .cls-6 {
        fill: #e1aa72;
      }

      .cls-7 {
        fill: #5c3812;
      }

      .cls-8 {
        fill: #fef8eb;
      }

      .cls-9 {
        fill: #90561d;
      }
    </style>
  </defs>
  <g id="Layer_1-2" data-name="Layer 1">
    <g id="dog-left-standing">
      <g>
        <path class="cls-5" d="M117.68,171.87c-.35.13-1.29,1.47-1.74,0h-1.16c1.2,2.16.96,2.77.58,5.21,8.09,2.82,9.75,17.25,3.47,22.57,5.58,18.56,11.73,38.98,26.05,52.67.88.85,2.31,2.19,3.47,3.19,6.22,5.4,12.91,10.45,20.84,13.02l-4.62-19.68c.14-.2.65.31.86.58,1.5,1.92,4.94,13.02,5.9,16.09,7.47,23.68,11.82,49.12,13.48,73.92.26,3.92.79,9.58.61,13.33-.04.86-.14,3.45-1.17,3.73-2.52-28.52-5.43-57.23-13.9-84.65-9.71-3.66-17.64-8.65-24.89-16.06,2.62,21.33,4.92,42.45,5.79,63.95.55,13.56,2.5,36.19-1.59,48.78-3.65,11.24-7.56,7.73-16.35,11.43-6.89,2.9-13.45,10.33-12.17,18.22l1.73,1.15c.45-3.54,1.73-6.99,3.59-10.01,1.1-1.79,2.67-4.64,5.09-4.45-.73,3.72-3.52,6.14-4.79,9.96-.6,1.79-1.03,3.93-1.21,5.81-.11,1.11-.62.8.79,1.59,1.35.47,1.65.87,3.47,1.16.91-.97,3.74-.96,4.63,0,.19.02.39-.02.58,0l-.59-4.33c-.1-3.47,5.92-13.52,9.55-13.03.87.12.8.69.3,1.45-.69,1.05-2.28,2.04-3.14,3.23-2.99,4.16-3.92,7.59-4.39,12.68l15.63.58c.46-.03,2.3.01,2.32-.58,0-.04-.68.08-.58-.57,1.29-.34,1.92.19,2.89.57.22.09.74-.2,1.06.08.19,3.06.54,4.91,2.99,6.87,1.26-.56.99-.92,1.18-1.99,1.08-6.15,2.9-13.71,9.52-15.95,2.39.46-1.96,4.48-2.61,5.49-2.74,4.31-4.19,9.1-4.62,14.19,8.53,3.47,25.15,3.12,33.87.01,19.24-6.86,22.21-36.17,24.01-53.55,2.59-24.96,4-50.19,4.61-75.27.06-2.3,1.28-6.13.6-8.37-1.25-4.17-.85-4.64-1.13-9-.45-6.81-1.14-13.94-.61-20.82.04-.52.38-2.6.88-2.6l2.6,32.42c38.37-.03,78.2-17.38,115.76-26.05.12-.03.74-.83,1.56-1.01,7.5-1.7,15.04-3.16,22.75-3.62-2.34-7.36-6.79-17.45-6.96-25.16-.03-1.23-.48-2.39,1.17-2.04,8.18,36.02,27.62,67.16,56.73,89.72,10.9,8.44,30.4,18.54,35.18,31.68,3.55,9.77,5.08,30.85,1.4,40.49-2.76,7.24-8.33,5.94-14.21,8.36-7.54,3.1-16.22,16.16-7.89,22.5.3-6.22,3.61-15.96,10.42-17.36.29,1.21-.32,1.55-.85,2.33-3.73,5.47-7.14,8.75-7.25,16.19,8.1,3.51,26.15,3.31,34.3-.14,19.02-8.04,18.79-43.53,19.5-60.95.35-8.46,1.82-21.84.46-29.94-.67-3.96-6.57-8.96-9.11-12.31-20.28-26.73-14.77-38.75-13.88-70,.69-24.38-3.01-51.69-16.23-72.66-.04-.07-1.08-.06-1.42-.59-4.98-7.71-10.39-15.37-17.1-21.41-.8-.72-10.07-5.15-11.77-5.89-30.96-13.5-76.73-7.88-110.05-7.4-22.13.32-81.8.91-98.13-14.5.09,1.79-1.26,3.12-2.3,4.35-14.7,17.47-45.98,37.21-67.44,44.85-8.52,3.03-18.17,4.49-26.34,7.52ZM184.82,357.67v17.07c0,.28-.79,3.65-.97,4.24-.79,2.57-2.42,5.59-5.39,5.89l3.19-10.99,3.18-16.21ZM169.2,388.34c2.19-2.28,6.32-2.47,9.26-2.88.14.83-1,.78-1.61.98-2.44.78-5.14,1.35-7.65,1.9ZM168.33,388.34v.58c-.38-.19-.38-.39,0-.58ZM167.17,388.92v.58c-.38-.19-.38-.39,0-.58ZM165.15,389.5c.82-.83,2.33.99-.3,1.72-.1-.31.24-1.66.3-1.72ZM163.7,391.24v.58c-.38-.19-.38-.39,0-.58ZM161.23,393.69c.06-.06,1.37-.72,1.58-.43l-2.32,2.85-2.87,6.7c-.04-1.62.48-3.48,1.12-4.95.19-.44,2.32-4,2.49-4.17ZM452.81,411.49c-.93.09-1.33.13-2.02-.58-3.5-3.58,4.46-18.94,10.7-17.36l-4.63,4.92c-2.55,3.95-4.67,8.15-4.05,13.02ZM178.45,412.07c-.95.06-1.34.2-2-.6-3.31-3.95,4.07-19.29,10.69-17.34-4.87,4.96-9.37,10.46-8.68,17.93Z"/>
        <path class="cls-3" d="M110.16,176.5c-7.07,1.01-10.11,10.5-8.3,16.69.54,1.83,3.58,5.73,5,6.86,3.16,2.54,8.97,2.15,11.98-.4,6.28-5.32,4.62-19.75-3.47-22.57-.76-.26-4.38-.7-5.21-.58Z"/>
        <path class="cls-2" d="M229.39,274.9l-2.6-32.42c-.5,0-.84,2.08-.88,2.6-.53,6.88.16,14.01.61,20.82.29,4.35-.12,4.83,1.13,9,.58,0,1.16,0,1.74,0Z"/>
        <path class="cls-2" d="M434.87,409.76c1.13.86,1.25.7,2.32,1.16.11-7.44,3.52-10.72,7.25-16.19.53-.78,1.14-1.11.85-2.33-6.81,1.4-10.12,11.14-10.42,17.36Z"/>
        <g>
          <path class="cls-2" d="M145.46,255.8c7.25,7.41,15.18,12.4,24.89,16.06,8.46,27.42,11.37,56.13,13.9,84.65,1.04-.29,1.13-2.87,1.17-3.73.19-3.75-.34-9.41-.61-13.33-1.66-24.8-6.01-50.24-13.48-73.92-.97-3.07-4.41-14.17-5.9-16.09-.21-.27-.72-.78-.86-.58l4.62,19.68c-7.93-2.57-14.62-7.61-20.84-13.02-1.16-1-2.58-2.34-3.47-3.19-.42,1.27.46,2.55.58,3.47Z"/>
          <path class="cls-2" d="M164.56,412.07c.43-5.1,1.87-9.89,4.62-14.19.64-1.01,4.99-5.02,2.61-5.49-6.62,2.24-8.44,9.8-9.52,15.95-.19,1.07.09,1.44-1.18,1.99,1.47,1.18,1.94,1.11,3.47,1.74Z"/>
          <path class="cls-8" d="M184.82,357.67l-3.18,16.21-3.19,10.99c2.98-.3,4.61-3.31,5.39-5.89.18-.59.97-3.95.97-4.24v-17.07Z"/>
          <path class="cls-2" d="M178.45,412.07c-.69-7.47,3.82-12.97,8.68-17.93-6.62-1.95-13.99,13.39-10.69,17.34.67.8,1.06.66,2,.6Z"/>
        </g>
        <path class="cls-2" d="M452.81,411.49c-.61-4.87,1.5-9.07,4.05-13.02l4.63-4.92c-6.24-1.57-14.2,13.78-10.7,17.36.69.7,1.09.67,2.02.58Z"/>
        <g>
          <path class="cls-2" d="M135.05,403.39c.94.1,2.01.47,3.47.58l1.16.58c.76.06,1.55-.02,2.32,0l.29-.57.29.57c3.3-.01,6.55-.38,9.84-.58l-15.63-.58c.47-5.08,1.4-8.52,4.39-12.68.86-1.19,2.45-2.18,3.14-3.23.5-.76.57-1.33-.3-1.45-3.63-.49-9.65,9.56-9.55,13.03l.59,4.33Z"/>
          <path class="cls-2" d="M126.36,402.23c-1.41-.79-.9-.48-.79-1.59.18-1.88.61-4.01,1.21-5.81,1.27-3.82,4.05-6.25,4.79-9.96-2.42-.19-3.99,2.67-5.09,4.45-1.86,3.02-3.14,6.48-3.59,10.01l-1.73-1.15c.19,1.16,1.6,2.91,2.59,3.5,1.24.75,1.97.32,2.62.55Z"/>
          <path class="cls-2" d="M129.84,403.39c.54.09,1.18-.06,1.74,0h1.74c.37.05.78-.04,1.16,0-.89-.96-3.72-.97-4.63,0Z"/>
          <path class="cls-2" d="M157.04,403.39c-.97-.38-1.61-.91-2.89-.57-.1.66.58.53.58.57h2.32Z"/>
          <path class="cls-1" d="M131.57,403.39c1,.1,1.63-.01,1.74,0h-1.74Z"/>
          <path class="cls-6" d="M138.52,403.97c.06,0,.13.5,1.16.58l-1.16-.58Z"/>
          <path class="cls-6" d="M141.99,404.55c.19,0,.39,0,.58,0l-.29-.57-.29.57Z"/>
          <path class="cls-2" d="M169.2,388.34c2.51-.55,5.2-1.12,7.65-1.9.61-.19,1.75-.15,1.61-.98-2.94.42-7.07.6-9.26,2.88Z"/>
          <path class="cls-2" d="M161.23,393.69c-.17.17-2.29,3.74-2.49,4.17-.64,1.47-1.17,3.32-1.12,4.95l2.87-6.7,2.32-2.85c-.22-.29-1.53.37-1.58.43Z"/>
          <path class="cls-2" d="M165.15,389.5c-.06.06-.4,1.41-.3,1.72,2.62-.73,1.12-2.55.3-1.72Z"/>
          <path class="cls-2" d="M168.33,388.34c-.38.19-.38.39,0,.58v-.58Z"/>
          <path class="cls-2" d="M167.17,388.92c-.38.19-.38.39,0,.58v-.58Z"/>
          <path class="cls-2" d="M163.7,391.24c-.38.19-.38.39,0,.58v-.58Z"/>
        </g>
        <g>
          <path class="cls-5" d="M345.15,249.43c3.04,16.58,10.65,32.12,20.86,45.41,7.28,9.48,24.69,25.07,26.84,36.13,1.73,8.95-2.69,28.95-6.69,37.32-5.64,11.81-12.25,6.06-20.72,12.27-4.87,3.57-10.63,13.57-5.82,18.78,1.76-5.62,3.72-14.25,10.42-15.62-1.14,3.35-4.12,5.73-5.63,9.12-1.09,2.44-2.06,5.56-1.89,8.24,3.68,1.77,6.56,2.57,10.72,2.89,30.97,2.33,34.73-9.97,43.7-35.58,3.49-9.96,12.46-34.86,10.72-44.32-.3-1.63-6.48-16.03-7.26-16.76-.87-.81-5.13-2.69-6.78-3.92-12.82-9.51-24.45-23.04-32.82-36.64-3.91-6.35-6.81-13.13-10.52-19.57-4.15-2.66-19.7,2.36-25.12,2.26ZM374.09,402.23c-.93.09-1.33.13-2.02-.58-3.56-3.65,4.61-18.59,10.7-17.36l-6.87,9.04c-1.26,2.88-2.17,5.7-1.81,8.9Z"/>
          <path class="cls-2" d="M420.4,306.73c-29.11-22.56-48.54-53.7-56.73-89.72-1.65-.35-1.2.81-1.17,2.04.17,7.71,4.62,17.8,6.96,25.16-7.71.46-15.24,1.92-22.75,3.62-.82.19-1.44.99-1.56,1.01v.58c5.42.1,20.97-4.92,25.12-2.26,3.71,6.44,6.62,13.22,10.52,19.57,8.36,13.6,19.99,27.13,32.82,36.64,1.66,1.23,5.91,3.11,6.78,3.92v-.58Z"/>
          <path class="cls-2" d="M359.62,399.34c1.78,1.93,1.33.98,2.89,1.74-.17-2.68.8-5.8,1.89-8.24,1.51-3.39,4.49-5.78,5.63-9.12-6.69,1.37-8.65,10-10.42,15.62Z"/>
          <path class="cls-2" d="M374.09,402.23c-.36-3.2.55-6.02,1.81-8.9l6.87-9.04c-6.1-1.22-14.27,13.72-10.7,17.36.69.71,1.09.67,2.02.58Z"/>
        </g>
        <g>
          <path class="cls-5" d="M435.45,142.35c.02,1.14.7,1.63,1.45,2.31,6.48,5.83,12.49,11.76,16.49,19.69,14.24-5.4,29.74-22.69,35.41-36.65,13.67-33.65.86-81.34-34.05-96.39-3.84-1.66-16.13-7.08-15.87.81.05,1.64,5.45,6.73,6.96,8.68,25.83,33.26,24.59,75.63-10.39,101.56Z"/>
          <path class="cls-2" d="M433.71,142.93c6.72,6.04,12.13,13.7,17.1,21.41.34.53,1.37.52,1.42.59.49.03.86-.46,1.16-.58-4-7.93-10.01-13.86-16.49-19.69-.75-.68-1.43-1.17-1.45-2.31-.27.2-1.32.19-1.74.58Z"/>
        </g>
        <g>
          <path class="cls-3" d="M109.58,154.5c.95,5.56,1.65,11.31,4.14,16.43.26.52.97.77,1.06.94h2.89c8.18-3.02,17.83-4.48,26.34-7.52,21.46-7.64,52.74-27.39,67.44-44.85,1.04-1.24,2.39-2.56,2.3-4.35-1.77-1.67-3.7-6.07-5.32-8.29-1.31-1.8-3.61-3.74-4.52-5.03-20.91,19.44-43.84,36.41-70.89,46.31-6.49,2.38-16.7,6.15-23.45,6.36Z"/>
          <path class="cls-2" d="M107.84,153.93c-1.58.08-2.57,1.42-2.6,2.95-.1,5.46,3.49,14.21,4.91,19.63.83-.12,4.45.31,5.21.58.38-2.44.62-3.05-.58-5.21-.09-.17-.81-.41-1.06-.94-2.5-5.11-3.19-10.86-4.14-16.43-.26,0-1.08-.61-1.74-.58Z"/>
          <path class="cls-2" d="M115.94,171.87c.44,1.47,1.39.13,1.74,0h-1.74Z"/>
        </g>
      </g>
      <g>
        <path class="cls-5" d="M18.13,71.16c6.8,8.9-4.08,20.07-10.42,26.05,8.55,10.69,18.45,14.4,32.41,14.47,10.9.06,23.29-4.38,32.59-9.95,2.36-1.41,9.79-7.59,11.24-7.9,2.91-.61,6.02,2.48,5.92,5.34-.22,6.31-10.67,13.77-15.65,16.8-8.05,4.91-16.98,8.1-26,10.75-.91,2.03-.75,3.58-1.16,4.63,7.87,3.96,18.05,3.18,26.52,1.34,5.27-1.14,15.48-5.75,20-5.37,8.99.76,11.16,19.89,14.25,26.6.65-.03,1.47.59,1.74.58,6.75-.2,16.96-3.98,23.45-6.36,27.06-9.9,49.98-26.87,70.89-46.31-3.49-4.93-6.85-14.28-9.11-20.12-4.6-11.88-7.97-24.26-12.88-36.03-2.17,5.83-6.82,14.89-10.17,20.21-6.01,9.55-15.79,20.96-28.25,15.02-15.8-7.54-23.44-34.69-25.73-50.67-1.41-9.84-4.74-26.6,8.01-29.71-29.21,1.86-58.08,3.97-68.71,36.34-2.17,6.61-2.84,17.88-7.38,22.72-5.65,6.03-23.27,9.45-31.57,11.55ZM66.75,41.63c-.22-1.14.53-1.38,1.33-1.85,4.43-2.6,13.32-.42,13.71,5.32-4.41-4.27-9.16-4.77-15.04-3.48ZM70.93,52.74c6.24,1.54,6.98,14.55.59,17.71-6.46,3.18-10.86-10.86-5.07-16.08,1.02-.92,3.11-1.96,4.48-1.63Z"/>
        <path class="cls-9" d="M125.78.54c-12.75,3.11-9.42,19.87-8.01,29.71,2.29,15.98,9.93,43.13,25.73,50.67,12.45,5.94,22.23-5.48,28.25-15.02,3.35-5.32,8.01-14.38,10.17-20.21,9.42-25.36,1.15-32.32-21.85-40.95C145.62-.69,140.76-.41,125.78.54Z"/>
        <path class="cls-7" d="M7.71,97.2c6.34-5.98,17.22-17.15,10.42-26.05-9.06,2.3-21.59,1.62-17.23,15.21,1.35,4.2,4.14,7.5,6.81,10.84Z"/>
        <path class="cls-7" d="M70.93,52.74c-1.38-.34-3.46.71-4.48,1.63-5.8,5.22-1.39,19.26,5.07,16.08,6.39-3.15,5.66-16.17-.59-17.71Z"/>
        <path class="cls-7" d="M66.75,41.63c5.88-1.29,10.63-.79,15.04,3.48-.39-5.74-9.29-7.92-13.71-5.32-.8.47-1.55.71-1.33,1.85Z"/>
        <g>
          <path class="cls-4" d="M40.12,112.25c-5.83.46-13.71,7.82-16.31,12.92-4.31,8.46-5.89,26.11,7.92,24.7,8.58-.87,12.67-11.62,15.34-18.52.4-1.05.24-2.6,1.16-4.63,3.81-8.46,13.72-10,20.26-15.62-7.91,1.76-15.29,2.62-23.43,2.3-1.37-.05-4.26-1.2-4.93-1.15ZM41.86,113.99l7.52.28-11.01,7.51-7.5,11.88c.87-4.83,3.72-9.37,6.93-13.03.96-1.1,4.43-3.58,4.58-3.84.42-.73-.62-1.98-.51-2.8Z"/>
          <path class="cls-7" d="M40.12,111.67v.58c.67-.05,3.56,1.09,4.93,1.15,8.14.32,15.52-.54,23.43-2.3-6.54,5.62-16.45,7.16-20.26,15.62,9.03-2.65,17.95-5.85,26-10.75,4.98-3.03,15.43-10.49,15.65-16.8.1-2.87-3.01-5.96-5.92-5.34-1.45.31-8.88,6.48-11.24,7.9-9.3,5.57-21.69,10.01-32.59,9.95Z"/>
          <path class="cls-1" d="M41.86,113.99c-.11.82.93,2.07.51,2.8-.15.26-3.61,2.73-4.58,3.84-3.2,3.66-6.05,8.2-6.93,13.03l7.5-11.88,11.01-7.51-7.52-.28Z"/>
        </g>
      </g>
    </g>
  </g>
</svg>