<?xml version="1.0" encoding="UTF-8"?>
<svg id="Layer_2" data-name="Layer 2" xmlns="http://www.w3.org/2000/svg" viewBox="0 0 447.9 298.34">
  <defs>
    <style>
      .cls-1 {
        fill: #fab532;
      }

      .cls-2 {
        fill: #f96a11;
      }

      .cls-3 {
        fill: #de9a4f;
      }

      .cls-4 {
        fill: #5c3812;
      }

      .cls-5 {
        fill: #90561d;
      }
    </style>
  </defs>
  <g id="Layer_1-2" data-name="Layer 1">
    <g id="dog-right-lying">
      <g>
        <path class="cls-3" d="M198.57,125.61c8.08-1.52,16.38.46,24.54.04,4.6-.24,19.09-1.46,22.65-3.19,12.34,39.04,54.16,65.7,94.3,66.6-.04.71.02,1.42.03,2.4-6.3.77-10.9,6.34-10.47,12.67s5.73,11.23,12.08,11.14c6.35-.08,11.52-5.11,11.79-11.45.26-6.34-4.47-11.78-10.79-12.4l1.09-.24c.05-.71-.05-1.43,0-2.13,5.72-.69,11.82-1.73,17.19-3.86,2.25-.89,6.91-2.77,7.32-5.2.93.53.89,1.49,1.09,2.38,1.69,7.58,1.48,20.4.37,28.11-.62,4.3-2.09,8.42-3.03,12.64,17.57,7.06,36.31,11.4,53.92,18.28,9.32,3.64,18.9,7.83,24.08,16.95,4.28,7.54,5.37,15.12-3.96,18.62-.32-2.85.82-5.08.53-8.25-.31-3.41-2.26-7.8-4.77-10.14-1.34-1.25-4.17-3.22-4.81-.52,6.31,5.11,8.45,12.19,5.86,19.99-20.26,4.91-33.05-3.83-51.03-8.91-6.32-1.78-13.25-3.04-19.73-4.24-1.02-.19-3.01-.86-3.83-.17-6.6-3.74-14.78-5.27-22.11-6.93-.82-.19-.93.36-.79-1.05,7.95-4.14,15.4-11.43,20.26-18.91,2.8-4.31,6.19-9.98,5.84-15.2-2.7,2.93-4.22,7.31-6.49,10.82-5.89,9.09-14.88,17.63-24.8,22.1l-55.02-11.08c-.76-.73,2.05-8.34,2.12-9.93.08-1.87-1.52-2.64-2.55-.9-1.22,2.08-1.65,7.31-2.48,9.8-.43,1.3-1.81.77-1.28,2.27l1.81,1.4c21.67,5,43.66,8.85,65.26,14.13,11.23,2.74,23.25,4.94,29.39,15.9,2.5,4.46,4.43,11.04,2.04,15.81-2.1,1.72-3.26,2.28-5.86,3.2,2.02-5.91,1.19-12.65-3.19-17.33-1.37-1.47-3.7-4.13-4.8-1.06,5.55,4.65,7.77,12.03,5.32,18.92-20.79,5.35-36.81-3.69-56.83-6.84-23.98-3.78-50.34-4.31-73.81-9.3-5.4-1.15-10.98-2.37-12.68-8.37-1.08-3.83-1.19-10.11-1.09-14.14l2.15-25.29c-.62.09-1.58-.2-2.05.08-.22.13-.34,1.02-.45,1.39-1.8,6.35-3.47,27.33-1.73,33.39.37,1.3,1.19,3.04,2.1,4.03l-74.59-10.66c-.62-4.12-1.21-5.83-3.99-9.06-9.68-11.27-27.79-10.91-41.29-9.59l12.26-8.78c20.87-17.98,25.3-58.06-3.38-70.69-2.31-1.02-10.19-4.24-9.95.08,13.83,3.31,24.4,13.11,26.58,27.5,3.99,26.33-20.22,52.63-46.01,54.04-7.71.42-15.56-.62-23.2,1.05-.31,2.31,1.62,2.52,3.44,2.68,8.11.71,18.01-1.61,26.14-2.15,19.54-1.3,59.21-6.62,57.75,23.12l-1.55,5.11c-1.36,1.18-2.61,1.95-4.26,2.66-2.75-.8-.72-1.4-.58-3.51.36-5.47-2.04-11.88-6.61-15.13-1.42-1.01-4.06-1.8-3.38.71.16.58,3.87,4.11,4.81,5.85,1.58,2.94,3.22,9.34,1.42,12.26-1.14,1.85-3.36-.2-3.11,1.95-1.39.23-2.86.41-4.26.53l-4.26-.53c1.25-5.62-.33-12.44-4.53-16.51-1-.97-6.49-4.78-7.18-2.4.34,2.26,3.3,3.05,5.06,5.05,3.4,3.87,4.65,9.46,3.46,14.39-29.79-3.04-61.78-4.3-91.29-9.13-5.69-.93-13.12-2.25-14.49-8.95-1.12-5.49,2.16-9.46,2.82-14.29.9-6.56-2.95-13.59-3.98-20.25-4.15-26.96,5.88-63.41,27.02-81.63,6.41-5.52,14.38-12.91,21.31-17.58,7.28-4.91,22.97-8.63,31.77-9.52,10.8-1.09,22.7-1.6,34.05-1.16M424.24,278.57c2.93.65,3.05-2.2,3.21-4.51.42-5.87-2.62-15.27-9.6-15.2-1.09,1.04,3.82,4.91,4.49,5.89,2.8,4.09,2.32,9.17,1.9,13.82ZM352.32,288.95c.38,2.66-.27,6.03,0,8.79,2.44.73,2.8-1.52,3.06-3.6.65-5.17-1.29-12.2-5.76-15.28-1.29-.89-3.79-2.46-4.25-.03,0,.79,3.65,3.31,4.52,4.55.78,1.12,2.25,4.3,2.43,5.56Z"/>
        <path class="cls-5" d="M143.47,274.3l1.55-5.11c1.45-29.74-38.22-24.43-57.75-23.12-8.13.54-18.02,2.86-26.14,2.15-1.81-.16-3.74-.37-3.44-2.68,7.63-1.67,15.48-.63,23.2-1.05,25.79-1.41,49.99-27.71,46.01-54.04-2.18-14.39-12.75-24.2-26.58-27.5-.24-4.32,7.64-1.1,9.95-.08,28.67,12.63,24.25,52.72,3.38,70.69l-12.26,8.78c13.5-1.33,31.62-1.68,41.29,9.59,2.78,3.24,3.37,4.95,3.99,9.06.83,5.53,1.38,9.34-3.2,13.32Z"/>
        <path class="cls-5" d="M374.16,292.95c2.39-4.77.46-11.34-2.04-15.81-6.14-10.96-18.16-13.16-29.39-15.9-21.6-5.27-43.59-9.13-65.26-14.13l-1.81-1.4c-.52-1.5.85-.97,1.28-2.27.82-2.49,1.26-7.71,2.48-9.8,1.02-1.75,2.62-.97,2.55.9-.07,1.59-2.88,9.2-2.12,9.93l55.02,11.08c9.92-4.48,18.91-13.01,24.8-22.1,2.27-3.51,3.78-7.89,6.49-10.82.35,5.21-3.04,10.89-5.84,15.2-4.86,7.48-12.31,14.77-20.26,18.91-.14,1.41-.03.86.79,1.05,7.33,1.67,15.52,3.19,22.11,6.93,7.24,4.1,14.63,13.31,14.35,22.03-.09,2.85-1.08,4.5-3.16,6.21Z"/>
        <path class="cls-5" d="M221.26,271.64c-.91-.98-1.73-2.72-2.1-4.03-1.74-6.06-.07-27.04,1.73-33.39.11-.38.23-1.26.45-1.39.47-.28,1.43,0,2.05-.08l-2.15,25.29c-.1,4.03,0,10.31,1.09,14.14-.54.05-.74-.18-1.07-.53Z"/>
        <path class="cls-5" d="M120.03,279.63c1.19-4.93-.05-10.52-3.46-14.39-1.76-2-4.72-2.79-5.06-5.05.69-2.38,6.18,1.42,7.18,2.4,4.2,4.07,5.78,10.89,4.53,16.51l4.26.53c-2.19.19-5.55.45-7.46,0Z"/>
        <path class="cls-5" d="M131.75,279.1c-.25-2.15,1.97-.1,3.11-1.95,1.8-2.93.16-9.33-1.42-12.26-.94-1.74-4.66-5.27-4.81-5.85-.68-2.5,1.96-1.72,3.38-.71,4.57,3.26,6.97,9.67,6.61,15.13-.14,2.11-2.16,2.71.58,3.51-2.34,1.01-4.95,1.71-7.46,2.13Z"/>
        <path class="cls-5" d="M440.76,276.97c-.86.32-2.36.86-3.2,1.07,2.59-7.8.45-14.88-5.86-19.99.64-2.7,3.47-.72,4.81.52,2.51,2.35,4.46,6.74,4.77,10.14.29,3.17-.85,5.41-.53,8.25Z"/>
        <path class="cls-5" d="M368.3,296.15c-1.14.4-1.81.31-2.66.53,2.44-6.89.22-14.27-5.32-18.92,1.11-3.07,3.43-.41,4.8,1.06,4.37,4.68,5.21,11.42,3.19,17.33Z"/>
        <circle class="cls-1" cx="341.55" cy="203.33" r="11.95"/>
        <path class="cls-5" d="M352.32,288.95c-.18-1.26-1.65-4.44-2.43-5.56-.87-1.25-4.51-3.76-4.52-4.55.46-2.44,2.96-.86,4.25.03,4.47,3.08,6.41,10.11,5.76,15.28-.26,2.08-.62,4.33-3.06,3.6-.27-2.76.38-6.13,0-8.79Z"/>
        <path class="cls-5" d="M424.24,278.57c.42-4.65.9-9.73-1.9-13.82-.67-.98-5.58-4.85-4.49-5.89,6.99-.07,10.02,9.34,9.6,15.2-.16,2.31-.29,5.16-3.21,4.51Z"/>
        <g>
          <path class="cls-1" d="M341.13,174.68c-.58,4.17-.85,10.07-1.07,14.38-40.14-.9-81.96-27.56-94.3-66.6,2.03-.99,9.16-9,10.66-11.19,13.2,34.75,47.4,60.82,84.71,63.4Z"/>
          <path class="cls-1" d="M363.51,170.95c.94,1.44,3.56,4.77,4.79,5.86-.11,1.01.16,2.24,0,3.2-.41,2.44-5.06,4.31-7.32,5.2-5.37,2.13-11.47,3.17-17.19,3.86.38-4.97.77-9.9.53-14.92,1.99.56,4.39.22,6.59-.07,4.31-.56,8.46-1.87,12.59-3.13Z"/>
          <path class="cls-4" d="M344.33,174.14c.24,5.01-.15,9.94-.53,14.92-.05.7.05,1.43,0,2.13l-1.09.24c-.87-.08-1.74-.07-2.61.03,0-.98-.07-1.7-.03-2.4.22-4.31.49-10.21,1.07-14.38.4-2.89,1.78-.93,3.2-.53Z"/>
        </g>
        <g>
          <path class="cls-3" d="M59.3,127.26c-1.08.15-9.29,6.02-10.66,7.19-3.41,2.91-6.86,6.85-9.58,10.4C10.63,127.81-3.55,99.09.76,65.79,4.3,38.38,28.33,11.8,54.21,3.1c4.1-1.38,20.21-6.16,22.02-.14,1.66,5.53-8.57,8.85-12.42,11.33C38.46,30.6,23.85,57.94,30.79,88.37c3.96,17.38,14.5,28.75,28.5,38.89Z"/>
          <path class="cls-3" d="M61.43,127.79c-6.93,4.67-14.9,12.06-21.31,17.58-.35-.19-.73-.33-1.07-.53,2.73-3.54,6.17-7.49,9.58-10.4,1.37-1.17,9.58-7.04,10.66-7.19.17-.02,1.51.81,2.13.53Z"/>
        </g>
      </g>
      <g>
        <path class="cls-3" d="M353.39,4.99c7.13.59,22.79,4.04,28.76,7.73,23.58,14.57,27.98,52.59,25.04,77.78-.12,1.05-.71,2.22-.29,3.18,10.75,8.64,13.61,20.53,8.38,33.41-1.95,4.8-3.47,6.05-7.55,8.69-1.4-.14-4.02,1.07-5.06,1.07h-9.59c-.34,0-3.45-1.5-3.45-1.86,3.35-3.26,4.77-7.95,5.36-12.48,7.63-.13,17.24-9.2,15.16-17.11-2.19-8.33-21.98-6.94-28.27-4.8-14.3,4.87.89,19.82,9.29,21.38.28,9.88-9.06,15.64-17.86,16.94-16.56,2.43-33.53-4.16-44.41-16.73-1.71-1.98-4.35-6.79-5.83-8.01-2.07-1.69-4.22-.08-4.35,2.16-.42,6.8,12.44,20.85,17.69,24.99,5.55,4.38,12.93,9.18,20.19,9.38,2.11,7.09,2.73,13.83,6.93,20.25-4.13,1.26-8.28,2.57-12.59,3.13-2.2.28-4.6.63-6.59.07-1.42-.4-2.8-2.35-3.2.53-37.31-2.58-71.51-28.65-84.71-63.4,1.47-2.14,2.53-4.63,3.73-6.93.83.19,2.22-.09,3.2,0,.12.01.61.53,1.3.56,8.82.41,13.65-12.97,15.89-19.87,6.69-20.6,10.82-44.1,16.37-65.14.23-2.17-.26-5.55-1.57-7.33-.49-.66-1.49-.94-2.15-1.46-.31-.25-.61-.85-1.07-1.07,4.38-.44,9.29-2.62,13.83-3.48,10.22-1.94,29.65-3.76,39.75-2.42M382.56,46.95c-1.96.24-5.24.95-5.25,3.32-.02,3.62,4.06,1.15,5.78.9,1.88-.27,4.97.72,6.69,1.59,2.12,1.08,6.2,6.7,8.11,3.64,1.6-2.57-4.06-6.32-5.98-7.36-2.94-1.59-5.99-2.5-9.35-2.1ZM331.46,52.59c.97-1.72.67-2.86-1.03-3.87-4.03-2.39-12.49.49-16.29,2.8-1.75,1.06-5.36,3.24-2.62,5.47,1.97,1.61,3.36-1,5.09-1.93,5.02-2.71,9.25-3.19,14.85-2.46ZM385.76,64.49c-7.99.92-8.7,19.09.92,19.09s7.93-20.11-.92-19.09ZM324.47,65.58c-7.52.65-8.73,16.84-1.07,18.41,12.16,2.49,11.15-19.28,1.07-18.41Z"/>
        <path class="cls-4" d="M356.58,150.7c-7.26-.2-14.64-5-20.19-9.38-5.25-4.14-18.1-18.19-17.69-24.99.14-2.24,2.28-3.86,4.35-2.16,1.49,1.22,4.12,6.03,5.83,8.01,10.88,12.57,27.85,19.16,44.41,16.73,8.8-1.29,18.14-7.06,17.86-16.94-8.4-1.56-23.6-16.51-9.29-21.38,6.29-2.14,26.08-3.53,28.27,4.8,2.08,7.91-7.53,16.97-15.16,17.11-.59,4.53-2,9.22-5.36,12.48,0,.36,3.11,1.86,3.45,1.86h9.59c1.04,0,3.66-1.21,5.06-1.07-1.16.75-1.71,1.53-3.37,2.23-4.01,1.68-8.94,2.14-13.15.97-.04-.05-.67.06-.87-.18-.65-.8-1.04-1.87-2.06-2.36-3.47,2.54-6.24,3.67-10.39,4.67-1.08.26-2.89.98-3.73,1.07-7.08.74-14.36-.58-21.31-1.59,1.53,3.29,2.69,6.64,3.73,10.12Z"/>
        <g>
          <path class="cls-5" d="M407.19,90.5c2.94-25.19-1.46-63.22-25.04-77.78,4.83-1.23,9.82-.08,14.5,1.22,9.37,2.59,32.53,13.9,37.62,22.05,5.43,8.67.24,24.41-2.31,33.74-1.57,5.75-5.67,22.24-8.15,26.48-4.41,7.54-12.78-2.1-16.63-5.7Z"/>
          <path class="cls-5" d="M296.11,10.05c.46.22.75.82,1.07,1.07l1.11,4c-4.99,25.69-12.25,51.19-19.66,76.28-2.52,5-5.47,11.33-11.28,12.96-.98-.09-2.36.19-3.2,0-10.87-2.53-26.41-30.73-30.23-40.89-8.73-23.18-1.72-30.73,18.85-40.55,14.02-6.7,27.92-11.32,43.35-12.86Z"/>
        </g>
        <path class="cls-4" d="M324.47,65.58c10.08-.88,11.09,20.89-1.07,18.41-7.66-1.57-6.45-17.75,1.07-18.41Z"/>
        <path class="cls-4" d="M385.76,64.49c8.85-1.02,10.99,19.09.92,19.09s-8.91-18.17-.92-19.09Z"/>
        <path class="cls-4" d="M382.56,46.95c3.36-.41,6.41.51,9.35,2.1,1.93,1.04,7.58,4.79,5.98,7.36-1.91,3.07-5.98-2.55-8.11-3.64-1.72-.88-4.81-1.86-6.69-1.59-1.72.25-5.8,2.72-5.78-.9.01-2.37,3.28-3.09,5.25-3.32Z"/>
        <path class="cls-4" d="M331.46,52.59c-5.6-.73-9.83-.25-14.85,2.46-1.73.93-3.12,3.54-5.09,1.93-2.74-2.23.88-4.41,2.62-5.47,3.8-2.31,12.26-5.19,16.29-2.8,1.69,1.01,2,2.15,1.03,3.87Z"/>
        <g>
          <path class="cls-2" d="M377.89,141.11c4.16-1,6.92-2.12,10.39-4.67,1.02.48,1.4,1.55,2.06,2.36.2.24.84.13.87.18,3.68,5.36,6.49,19.82,5.71,26.22-1.77,14.62-17.52,21.43-28.62,11.6-1.23-1.09-3.85-4.42-4.79-5.86-4.2-6.41-4.81-13.15-6.93-20.25-1.04-3.48-2.2-6.82-3.73-10.12,6.95,1.01,14.23,2.33,21.31,1.59l5.47,12.91,2.52,12.66c2.22-9.08.07-18.52-4.26-26.64Z"/>
          <path class="cls-5" d="M377.89,141.11c4.32,8.11,6.47,17.56,4.26,26.64l-2.52-12.66-5.47-12.91c.84-.09,2.65-.81,3.73-1.07Z"/>
        </g>
      </g>
    </g>
  </g>
</svg>