<?xml version="1.0" encoding="UTF-8"?>
<svg id="Layer_2" data-name="Layer 2" xmlns="http://www.w3.org/2000/svg" viewBox="0 0 242.47 325.15">
  <defs>
    <style>
      .cls-1 {
        fill: #c63500;
      }

      .cls-2 {
        fill: #7a3500;
      }

      .cls-3 {
        fill: #fcc20c;
      }

      .cls-4 {
        fill: #da8a20;
      }

      .cls-5 {
        fill: #f96a11;
      }

      .cls-6 {
        fill: #de9a4f;
      }

      .cls-7 {
        fill: #8b4f0b;
      }

      .cls-8 {
        fill: #90561d;
      }

      .cls-9 {
        fill: #512f10;
      }
    </style>
  </defs>
  <g id="Layer_1-2" data-name="Layer 1">
    <g id="dog_lying">
      <g>
        <path class="cls-7" d="M107.31,314.14c-.09-.02-1.36-.97-1.52-1.14-1.62-1.7-.3-4.14-.27-6.3.35-21.95-13.8-33.86-30.28-41.89-3.4-1.65-10.45-3.88-13.09-5.81-2.49-1.83-1.35-6.13,2.23-5.43,2.39.47,8.09,3.37,10.61,4.56,12.27,5.8,23.92,12.65,30.62,25.93,3.7,7.34,6.67,19.15,4.71,27.43-.04.18-.61,1.83-.67,1.91-.12.16-2.13.78-2.34.74Z"/>
        <path class="cls-7" d="M132,311.49c-1.94-8.2.82-20.03,4.47-27.37,8.58-17.26,25.38-23.34,40.94-30.48,3.14-.86,5.47,2.82,2.72,5.3-18.3,7.95-39.32,16.15-42.92,40.55-.63,4.26-.16,8.17-.16,12.42-.28,1.37-1.8,1.87-2.93,1.9-1.66.05-1.74-.74-2.11-2.32Z"/>
        <path class="cls-7" d="M158.51,324.73c-1.86-.13-2.71-.41-4.22-.66-2.25-5.67-3.76-11.79-3.32-18.06.08-1.07.75-5.71,1.09-6.42,1.19-2.48,4.8-1.99,5.24.82.22,1.41-.82,5.1-.89,6.93-.1,2.78.34,6.14.99,8.84.69,2.88,3.2,6.05,1.12,8.54Z"/>
        <path class="cls-7" d="M67.25,325.06c-1.7-.04-3.17-.19-4.82-.33.02-.91-.09-1.84.07-2.74.3-1.73,1.85-4.38,2.25-6.46.35-1.81.62-5.01.63-6.86.01-2.34-.9-6.55-.53-8.6s3.03-2.85,4.38-1.19c1.59,1.95,1.51,11,1.35,13.78-.1,1.74-.56,4.18-1,5.86-.59,2.25-1.79,4.29-2.33,6.54Z"/>
        <path class="cls-7" d="M88.03,324.07c-1.21.2-1.95.54-3.61.66-3.15-2.09-.24-5.96.52-8.87.86-3.3,1.24-7.07.98-10.5-.16-2.12-1.5-4.75-.16-6.48s3.82-.93,4.62.92c.4.93.91,4.99.98,6.2.2,3.27-.28,6.32-.7,9.52l-2.63,8.53Z"/>
        <path class="cls-7" d="M175.67,325.06c-3.68-5.85-4.34-13.05-3.93-20.04.12-2.13.42-6.67,2.88-6.79,2.87-.14,2.93,1.99,2.85,4.48-.14,4.47-.86,8.27.09,12.82.44,2.1,2.8,6.43,2.5,8.23-.07.44-.47.72-.78.97-1.2.1-2.28.29-3.61.33Z"/>
        <ellipse class="cls-3" cx="121.07" cy="209.19" rx="13.17" ry="14.48"/>
        <path class="cls-7" d="M123.27,177.4c-.14.83.71.74.99,1.39.59,1.41.22,12.02.22,14.5l.02,1.92c-2.18-.64-4.48-.66-6.67-.05l.03-1.87c0-2.78-.45-12.64.21-14.5.14-.4,1-.65,1-1.4,1.4.02,2.82.05,4.22,0Z"/>
        <path class="cls-6" d="M192.84,157.87c3.96,4.25,7.6,8.86,10.66,13.94,8.55,14.22,13.73,30.98,16.43,47.49.56,3.43.48,6.98.89,10.6.07.63.58.32.65.95.38,3.26-.11,7.51.25,10.64.07.63.58.32.65.95.32,2.77-.78,6.7.6,8.94-.33,11.05.67,22.1.29,33.15-.99,28.62-21.15,38.24-43.98,40.21.31-.24.71-.53.78-.97.29-1.79-2.07-6.13-2.5-8.23-.95-4.55-.22-8.36-.09-12.82.08-2.49.01-4.62-2.85-4.48-2.46.12-2.75,4.65-2.88,6.79-.41,6.99.25,14.2,3.93,20.04-5.69.18-11.5.07-17.17-.33,2.08-2.49-.42-5.66-1.12-8.54-.65-2.7-1.09-6.06-.99-8.84.07-1.83,1.11-5.52.89-6.93-.44-2.81-4.05-3.3-5.24-.82-.34.71-1.01,5.35-1.09,6.42-.44,6.27,1.08,12.38,3.32,18.06-3.19-.54-5.93-.02-9.11-1.07-3.57-1.18-6.72-3-9.12-6.2-.65-.87-.93-2.32-1.94-2.99,1.13-.04,2.65-.54,2.93-1.9,0-4.25-.47-8.16.16-12.42,3.6-24.4,24.62-32.6,42.92-40.55,2.76-2.48.42-6.16-2.72-5.3-15.56,7.14-32.36,13.22-40.94,30.48-3.65,7.34-6.41,19.17-4.47,27.37h-21.68c1.96-8.28-1.01-20.09-4.71-27.43-6.7-13.28-18.36-20.13-30.62-25.93-2.52-1.19-8.22-4.09-10.61-4.56-3.57-.7-4.72,3.6-2.23,5.43,2.63,1.93,9.69,4.16,13.09,5.81,16.48,8.03,30.64,19.95,30.28,41.89-.03,2.16-1.35,4.6.27,6.3.16.17,1.43,1.13,1.52,1.14.04.63-.71,1.9-1.03,2.33-2.68,3.59-7.31,6.4-11.48,7.25-2.06.42-4.83.02-6.76.35l2.63-8.53c.42-3.2.9-6.26.7-9.52-.07-1.21-.58-5.27-.98-6.2-.8-1.86-3.29-2.63-4.62-.92s0,4.36.16,6.48c.26,3.43-.12,7.2-.98,10.5-.76,2.91-3.67,6.78-.52,8.87-5.67.43-11.47.47-17.17.33.54-2.25,1.74-4.3,2.33-6.54.44-1.67.89-4.12,1-5.86.16-2.78.25-11.83-1.35-13.78-1.35-1.66-4.03-.79-4.38,1.19s.55,6.26.53,8.6c0,1.85-.28,5.05-.63,6.86-.4,2.08-1.95,4.73-2.25,6.46-.16.9-.04,1.83-.07,2.74-3.46-.29-6.01-.91-9.5-1.64-14.87-3.11-28.3-9.98-32.31-27.06-.32-1.35-.39-3.25-1.27-3.97-.53-27.73-.31-57.15,5.44-83.03,3.63-16.32,12.32-38.11,23.77-49.69.37-.38.62-.83,1.21-.82.75,1.58,4.3,6.09,5.57,7.62,15.28,18.54,40.26,26.75,62.5,27.14l-.03,1.87c-6.42,1.8-10.62,8.56-9.82,15.78s6.36,12.67,12.99,12.72c6.62.05,12.25-5.32,13.13-12.54.89-7.22-3.24-14.03-9.63-15.92l-.02-1.92c19.71-.44,40.27-6.11,55.72-20.03,2.12-1.91,12.71-13.09,12.64-15.4Z"/>
        <g>
          <path class="cls-3" d="M190.43,139.99l2.15,13.7c.13.45.78.41.86.77.52,2.16-.89,2.39-.94,2.64-.07.36.33.71.33.77.07,2.31-10.52,13.49-12.64,15.4-15.45,13.91-36.01,19.59-55.72,20.03,0-2.48.37-13.09-.22-14.5-.27-.65-1.12-.56-.99-1.39,27.63-1.03,50.83-12.7,67.16-37.41Z"/>
          <path class="cls-3" d="M119.05,177.4c0,.75-.86,1-1,1.4-.65,1.85-.21,11.71-.21,14.5-22.24-.39-47.22-8.6-62.5-27.14-1.26-1.53-4.82-6.04-5.57-7.62-.1-.21-.66-2.83-.63-3.15.08-.92.95-2.98,1.16-4.05.46-2.32.54-5.05.98-7.14.05-.25.54-.2.59-.45.13-.62.06-2.33,0-3.08,1.68-.13,1.98,1.67,2.89,2.94,16.15,22.57,38.09,33.43,64.27,33.81Z"/>
        </g>
      </g>
      <g>
        <g>
          <path class="cls-2" d="M.7,24.3c-.29,5.11.17,10.51,0,15.66-.02.6.31,1.24-.6,1.07-.12-.46.02-1.56,0-2.17.53-1.91.33-4.33.31-6.36,0-.52.19-1.38-.31-1.7.01-1.79-.22-4.22,0-5.89,0-.06.38-.36.3-.62h.3Z"/>
          <path class="cls-8" d="M165.13,11.28c-.05-.83.46-1.41.91-2.01,3.83-5.05,11.83-10.04,18.23-9.18.56.07.39.58.64.64,6.32,1.5,8.88,3.78,14.48,6.43,9.36,4.44,19.23,6.86,28.29,9.06,2.65.64,5.46-.11,8.24,1.08,2.56,1.1,4.42,2.8,5.54,5.46.92,2.18.34,3.12.57,4.73.43,3.03.63,10.28.23,13.4-.07.57-.56.41-.62.66-.25,1.08.17,2.82.02,3.99-.07.57-.56.41-.62.66-.23.97.3,2.01.2,2.68-.44,3.02-1.34,6.28-2.01,9.1-2.11,8.9-4.43,20.26-14.07,22.97-1.25.35-1.61.96-3.25.66-3.85-.71-6.71-2.25-9.99-4.42l-7.35-7.96c-1.76-3.34-4.62-5.95-6.76-9.01-10.7-15.3-16.73-38.65-32.7-48.94Z"/>
          <path class="cls-8" d="M.7,24.3c.17-2.96,1.25-5.08,4.17-6.1,2.73-.95,5.56-1.19,8.32-1.67s5.64-1.01,8.56-1.73c5.22-1.28,10.58-2.82,15.77-5.16C44.95,6.28,54.74-1.65,62.92.72c5.76,1.67,9.38,4.61,13.53,9.31.34.38.75.63.75,1.24-15.89,9.53-23.72,36.01-34.82,51.41-1.45,2.02-3.97,4.26-4.64,6.54l-7.82,7.92c-1.65.97-3.55,2.72-5.37,3.46-1.03.42-5.82,1.25-6.79,1.01-.22-.05-.17-.53-.42-.6-2.14-.61-3.38-.47-5.36-2.18C5.44,73.19,1.4,54.37.7,45.83c-.19-2.28-.02-2.64-.61-4.8.91.17.58-.47.6-1.07.17-5.16-.29-10.55,0-15.66Z"/>
        </g>
        <g>
          <path class="cls-4" d="M204.59,97.74c.16-8.71.37-18.31,0-26.96v26.96Z"/>
          <path class="cls-9" d="M100.08,148.57c-.97-.28-1.92-1.41-2.56-2.17-2.03-2.38-4.32-5.81-5.81-8.58-.84-1.56-2.65-6.56-3.46-7.44-.39-.43-1.32-.64-1.86-1.03-3.84-2.83-11.84-10.22-11.93-15.33-.03-2.07,1.4-3.68,3.44-3.54,2.92.2,2.88,2.68,4.12,4.77,6.64,11.14,21.13,15.29,31.45,6.67.45-.37,3.54-3.22,3.17-3.71-2.5-.9-5.35-2.31-7.51-3.9-8.96-6.61-9.14-16.88,2.1-20.73,7.08-2.42,15.91-2.47,22.58,1.22,13.24,7.33,1.96,20.74-8.14,23.41-.12.47.12.51.3.78,7.85,11.63,24.88,8.5,32.66-1.42,1.09-1.39,3.28-6.21,4.11-6.62,2.38-1.19,5.17.17,5.11,3.07-.08,3.71-5.48,9.99-8.14,12.42-1.46,1.33-4.55,3.1-5.55,4.21-1.77,1.98-4.55,9.14-6.74,12.28-1.38,1.98-3.07,4.5-5.19,5.66.04-1.87.22-14.24-.15-14.88-.56-.98-3.65-.51-4.78-.66-4.08-.51-10.65-3.37-13.74-6.16-.38-.34-1.1-2.35-2.31-2.44-.31-.03-1.74,1.18-2.08,1.49-.32.29-.38.91-.42.94-2.39,2.01-8.37,5.16-11.37,5.81-1.48.32-6.67.16-7.16,1-.37.64-.18,13-.15,14.88Z"/>
          <path class="cls-9" d="M156.62,71.79c11.21-1.96,11.62,19.06,2.61,20.35-10.69,1.53-11.02-18.88-2.61-20.35Z"/>
          <path class="cls-9" d="M82.83,71.79c3.34-.59,5.98,1.3,7.43,4.29,2.34,4.83,1.23,15.05-5.11,16.07-10.19,1.63-11.31-18.78-2.32-20.36Z"/>
          <path class="cls-6" d="M108.81,3.53c8.27-.15,16.73-.16,25,0,10,.19,22.67,2.17,31.32,7.75,15.97,10.3,21.99,33.65,32.7,48.94,2.14,3.06,5,5.67,6.76,9.01.02.52-.02,1.03,0,1.55.37,8.65.16,18.26,0,26.96-.13,6.97-1.17,13.62-3,19.75-.93,3.13-1.5,6.3-2.74,9.52-2.04,5.29-5.16,11.68-8.41,16.29-16.33,23.13-39.53,34.06-67.16,35.02-1.39.05-2.82.02-4.22,0-26.17-.36-48.12-10.52-64.27-31.64-.91-1.19-1.22-2.88-2.89-2.76-.13-1.88-1.21-3.12-2.17-4.74-2.71-4.58-5.3-9.81-7.15-14.71-3.82-10.1-5.49-24.47-5.76-35.86-.07-2.97.32-5.86.3-8.37-.04-3.4-.29-7.87.62-11.02.66-2.29,3.18-4.52,4.64-6.54,11.1-15.4,18.93-41.88,34.82-51.41,3.88-2.33,9.53-4.44,13.94-5.59.25-.06.2-.55.42-.6,4.7-1.11,12.39-1.47,17.26-1.56ZM82.55,50.11c-4.24.47-10.61,3.28-13.19,6.88-.96,1.35-1.59,2.52-.6,4.03,2.34,3.58,4.67-.23,6.53-1.65,1.66-1.28,4.58-2.7,6.6-3.12,2.61-.55,8.83.7,8.81-3.28s-5.65-3.13-8.15-2.85ZM167.74,60.35c1.16,1.02,1.33,2.39,3.55,2.05,3.16-.48,2.49-3.9.93-5.88-3.83-4.86-12.43-7.52-18.3-6.43-3,.56-3.13,4.74-.51,5.65,1.61.56,4.86.07,6.99.56,2.62.6,5.33,2.29,7.35,4.06ZM82.83,71.79c-8.99,1.58-7.87,21.98,2.32,20.36,6.35-1.01,7.45-11.23,5.11-16.07-1.45-2.99-4.09-4.88-7.43-4.29ZM156.62,71.79c-8.41,1.47-8.07,21.88,2.61,20.35,9.01-1.29,8.6-22.31-2.61-20.35ZM142.24,148.57c2.12-1.17,3.8-3.68,5.19-5.66,2.19-3.14,4.97-10.3,6.74-12.28.99-1.11,4.09-2.88,5.55-4.21,2.66-2.43,8.06-8.71,8.14-12.42.06-2.9-2.73-4.25-5.11-3.07-.83.41-3.02,5.23-4.11,6.62-7.78,9.92-24.8,13.06-32.66,1.42-.18-.26-.42-.31-.3-.78,10.09-2.67,21.38-16.08,8.14-23.41-6.68-3.69-15.5-3.65-22.58-1.22-11.24,3.85-11.06,14.12-2.1,20.73,2.15,1.59,5.01,2.99,7.51,3.9.37.49-2.72,3.33-3.17,3.71-10.32,8.62-24.81,4.48-31.45-6.67-1.25-2.09-1.2-4.57-4.12-4.77-2.04-.14-3.48,1.47-3.44,3.54.09,5.11,8.09,12.5,11.93,15.33.53.39,1.47.6,1.86,1.03.81.89,2.62,5.89,3.46,7.44,1.5,2.77,3.79,6.2,5.81,8.58.65.76,1.59,1.88,2.56,2.17.09,5.02-.19,7.93,2.07,12.6,6.71,13.91,25.04,16.19,34.96,4.51,4.55-5.35,4.99-10.32,5.14-17.11Z"/>
          <path class="cls-7" d="M167.74,60.35c-2.02-1.77-4.73-3.46-7.35-4.06-2.13-.49-5.38,0-6.99-.56-2.62-.91-2.49-5.09.51-5.65,5.88-1.09,14.48,1.57,18.3,6.43,1.56,1.98,2.23,5.4-.93,5.88-2.22.34-2.38-1.03-3.55-2.05Z"/>
          <path class="cls-7" d="M82.55,50.11c2.5-.28,8.14-.98,8.15,2.85s-6.2,2.73-8.81,3.28c-2.02.43-4.94,1.84-6.6,3.12-1.86,1.43-4.19,5.23-6.53,1.65-.99-1.51-.36-2.69.6-4.03,2.58-3.6,8.95-6.41,13.19-6.88Z"/>
          <g>
            <path class="cls-5" d="M118.75,126.88l.32,3.24c.42,8.2-.51,16.7-.28,24.82.07,2.63,4.13,3.09,4.48,0,.86-7.61-.09-18.34-.01-26.35,0-.52-.19-1.38.31-1.7,3.09,2.79,9.66,5.65,13.74,6.16,1.13.14,4.22-.32,4.78.66.37.64.19,13.01.15,14.88-.14,6.79-.59,11.76-5.14,17.11-9.93,11.68-28.25,9.4-34.96-4.51-2.25-4.67-1.97-7.57-2.07-12.6-.04-1.88-.22-14.24.15-14.88.48-.84,5.68-.68,7.16-1,3-.65,8.98-3.8,11.37-5.81Z"/>
            <path class="cls-1" d="M123.57,126.88c-.5.32-.3,1.18-.31,1.7-.08,8.02.87,18.75.01,26.35-.35,3.1-4.41,2.64-4.48,0-.23-8.12.7-16.62.28-24.82l-.32-3.24s.1-.65.42-.94c.35-.31,1.78-1.52,2.08-1.49,1.21.08,1.93,2.09,2.31,2.44Z"/>
          </g>
        </g>
      </g>
    </g>
  </g>
</svg>