<?xml version="1.0" encoding="UTF-8"?>
<svg id="Layer_2" data-name="Layer 2" xmlns="http://www.w3.org/2000/svg" viewBox="0 0 95.34 247.34">
  <defs>
    <style>
      .cls-1, .cls-2 {
        fill: #603813;
      }

      .cls-3 {
        fill: #273758;
      }

      .cls-4 {
        fill: #e6e6e6;
      }

      .cls-5 {
        fill: #c69696;
      }

      .cls-6 {
        fill: #feb828;
      }

      .cls-7 {
        fill: #d9a2a0;
      }

      .cls-8, .cls-2 {
        isolation: isolate;
        opacity: .5;
      }

      .cls-8, .cls-9 {
        fill: #d9baba;
      }

      .cls-10 {
        fill: #8b2b0e;
      }

      .cls-11 {
        fill: #f4e23c;
      }

      .cls-12 {
        fill: #2c3a58;
      }

      .cls-13 {
        fill: #ec5300;
      }

      .cls-14 {
        fill: #fff;
      }

      .cls-15 {
        fill: #502902;
      }

      .cls-16 {
        fill: #3f6138;
      }

      .cls-17 {
        fill: #f3fffd;
      }

      .cls-18 {
        fill: #e39d4d;
      }

      .cls-19 {
        fill: #d9b6b6;
      }

      .cls-20 {
        fill: #9c5014;
      }

      .cls-21 {
        fill: none;
        stroke: #630;
        stroke-linecap: round;
        stroke-miterlimit: 10;
      }
    </style>
  </defs>
  <g id="Layer_1-2" data-name="Layer 1">
    <g id="german-girl-watchingfilm">
      <path class="cls-4" d="M21.46,100.84l-5.3-29.7c-.6-3.3-.5-8.8,3-10.1l5.3-4,2.5-2.3,9.1.3s1.6,1.8,4.7,2.7c11.6,3.6,9,2.3,10.6,16.5l.4,9.2c.3,8.2.8,16.3,1.6,24.5-10.1,3.1-20.3,2.6-30.6-1.3l-1.2-5.8h-.2.1,0Z"/>
      <g>
        <path class="cls-10" d="M57.96,38.64c.2-4.7-1.9-8.4-3.6-12.2-.7-1.7-1.4-4.8-2.6-6.1-1.5-1.8-5.4-1.1-7.4-1.3-7.4-.6-14.8-.3-22.2.3-2.3.2-3.7-.7-4.7,2.5-.7,2.1-1.1,2.9-1.1,2.9-2.4,3.9-6.3,6.2-7.9,11.2-1.2,4.1-.9,9.2,1.4,12.2,0-1.6.3-3.7.7-5.1,1.6,1.3,2.6,3.7,4.1,5.1s3.3,2.7,5.1,3.5c.2-1.4-.2-3.3.2-4.5,1.2,3.2,4.3,4.8,6.7,6.2,0-1.9-.3-4.3,1.2-3.2.4.3.9,1.6,1.4,2.1s1.1.8,1.7,1.2c1.8,1.2,2.5,1.5,4.3.2,1.2-1.1,2.8-2.5,3.8-3.9.6,1.2.2,3.2.1,4.6,2,.2,4.5-2.2,5.8-4.1.3,1.1,0,2.3.2,3.4,2.6-.2,7.4-4.8,8.7-7.7,1.2,1.1,2.1,3.7,1.7,5.6,2.2-3.4,2.4-8.7,2.6-13h-.2v.1h0Z"/>
        <path class="cls-5" d="M32.56,58.24h0c-3.2-.1-5.6-2.8-5.5-5.9l.4-11.1,9.1.3-.5,13.5c0,1.8-1.6,3.2-3.4,3.2h-.1Z"/>
        <path class="cls-9" d="M53.06,32.34c-.4,1.8-.7,3.4-1.4,5-.2.6-.4,1.1-.7,1.7-3.2,7.3-8.9,12.1-15.4,12-3.1,0-6-1.3-8.5-3.4-.6-.4-1.1-.9-1.6-1.5-4.2-4.6-6.9-11.7-6.6-19.8.4-13.4,8.3-24,17.9-23.8,1.4,0,2.8.3,4.1.8,7.5,2.8,13.1,12.4,12.8,23.8"/>
        <g>
          <path class="cls-1" d="M30.56,26.94c.2,0,.4,0,.5-.3,1.7-3.2,4.6-1.9,4.7-1.8.3,0,.6,0,.8-.3,0-.3,0-.6-.3-.8-1.4-.6-4.5-1-6.2,2.3,0,.3,0,.6.2.8h.3v.1Z"/>
          <path class="cls-1" d="M47.96,24.34s.3.2.5,0c2.8-1.1,4,1.3,4,1.4,0,.2.4.3.6.2.2,0,.3-.4.2-.6-.5-1.2-2.3-3.1-5.2-1.9-.2,0-.4.4-.3.6v.2h.2v.1h0Z"/>
          <path class="cls-1" d="M34.06,29.24c0,1.1.7,2.1,1.5,2.1s1.6-1,1.6-2.1-.7-2.1-1.5-2.1-1.6,1-1.6,2.1Z"/>
          <path class="cls-1" d="M47.96,29.24c0,1.1.7,2.1,1.5,2.1s1.6-1,1.6-2.1-.7-2.1-1.5-2.1-1.6,1-1.6,2.1Z"/>
          <path class="cls-21" d="M36.16,41.34c0,.2.8,3.2,3.8,3.7,2.9.4,4.5-1,4.7-1.3"/>
          <path class="cls-2" d="M44.76,34.74c1,1,1,2.5,0,3.5s-2.5,1-3.5,0,1.8.2,2.8-.7c1-1-.2-3.7.8-2.8h-.1,0Z"/>
          <path class="cls-7" d="M52.86,32.34c-.4,1.8-.7,3.4-1.4,5-.2.6-.4,1.1-.7,1.7-1-.7-1.5-2-1.4-3.2,0-1.8,1.6-3.2,3.4-3.4h.1v-.1Z"/>
          <path class="cls-7" d="M31.26,32.14c2,0,3.6,1.5,3.5,3.2s-1.9,2.9-3.9,2.8-3.6-1.5-3.5-3.2,1.9-2.9,3.9-2.8Z"/>
        </g>
        <path class="cls-8" d="M27.36,47.54h-.2c-.6-.4-1.1-.9-1.6-1.5-4.2-4.6-6.9-11.7-6.6-19.7.4-13.4,8.3-24,17.9-23.8,1.4,0,2.8.3,4.1.8-7.6,5.6-21.1,20.7-13.6,44.3h0v-.1h0Z"/>
        <g>
          <path class="cls-9" d="M23.06,26.44c1,3,.3,5.9-1.6,6.5s-4.2-1.3-5.2-4.4-.3-5.9,1.6-6.5c1.8-.6,4.2,1.3,5.2,4.4Z"/>
          <path class="cls-8" d="M23.06,26.44c1,3,.3,5.9-1.6,6.5s-4.2-1.3-5.2-4.4-.3-5.9,1.6-6.5c1.8-.6,4.2,1.3,5.2,4.4Z"/>
        </g>
        <path class="cls-10" d="M52.76,24.44c.8,4.4,2.3,3.7-.2,12.7s-1,4.9-1.6,7.2c-.5,2.1-2.3,4-2.1,6.2,1.4-.8,4.2-3,5.2-4.3,2-2.8,1.4-9.2,1.2-12.6h.1c-.2-3.3-.4-8.8-.6-11.3v-2.6c0-6.5-1.6-13.7-5.8-17.4-3-2.7-5.8-.8-9.1-1.5C29.76-1.26,21.26.24,17.26,8.94c-9.7,21.3,1.5,33,3.2,36,.9,1.4,9.5,7.4,10.9,8.3-7.1-8.2-6.2-21.9-4.9-30,.6-4,2.9-7.6,6.2-10h0s2.7,3,4.3,4.2c2,1.4,4.6,2.6,6.8,2.8-.3-.6-.9-1.2-1.2-1.8-.2-.3-.4-.8-.6-1.1,1.1,1.5,3,2.8,4.4,4,1.4,1.1,2.9,1.7,4.5,2.4.1-.6-1.2-3.3-1.6-4.2.5.8,1.8,1.3,2.2,2.2"/>
      </g>
      <g>
        <path class="cls-19" d="M35.66,198.24c-1.2,18.7-3.7,38.1-4.3,38.1l-5.8-.4-2-38.5-1.5-28.9v-1.2c0-.4,0-.8.2-1.2.7-3.1,3.6-5.3,6.9-5.1,3.3.2,6,2.9,6.2,6.1,0,.9.2,1.7.3,2.6,1,6.2.7,17.2,0,28.5h0Z"/>
        <path class="cls-3" d="M24.46,243.34c0,.6.4,1.6.9,2.4.5,1,1.5,1.6,2.6,1.6h21.6c4.9-2.6-18.2-10.9-18.2-10.9h-5.7s-1.3,5.8-1.1,7h-.1v-.1Z"/>
        <path class="cls-19" d="M28.86,173.94h0c3.8-.4,6.6-3.6,6.5-7.5l-.8-35.3c-.7-5.1-5.3-8.6-10.4-7.9h0c-5.1.7-8.6,5.3-7.9,10.4l5.3,33.8c.5,3.9,3.4,6.9,7.3,6.5h0Z"/>
      </g>
      <g>
        <path class="cls-19" d="M53.46,198.24c-1.2,18.7-3.7,38.1-4.3,38.1l-5.8-.4-2-38.5-1.5-28.9v-1.2c0-.4,0-.8.2-1.2.7-3.1,3.6-5.3,6.9-5.1s6,2.9,6.2,6.1c0,.9.2,1.7.3,2.6,1,6.2.7,17.2,0,28.5h0Z"/>
        <path class="cls-3" d="M42.36,243.34c0,.6.4,1.6.9,2.4.5,1,1.5,1.6,2.6,1.6h21.6c4.9-2.6-18.2-10.9-18.2-10.9h-5.7s-1.3,5.8-1.1,7h-.1v-.1h0Z"/>
        <path class="cls-19" d="M46.76,173.94h0c3.8-.4,6.6-3.6,6.5-7.5l-.8-35.3c-.7-5.1-5.3-8.6-10.4-7.9h0c-5.1.7-8.6,5.3-7.9,10.4l5.3,33.8c.5,3.9,3.4,6.9,7.3,6.5h0Z"/>
      </g>
      <g>
        <path class="cls-16" d="M54.66,140.74l-16,6.7-19-7.3h0s-1.5-5.3-.9-12c.3-2.6.9-5.2,1.6-7.6,1.4-4.2,1.9-8.5,1.9-12.9.3-.8.5-1.1.5-1.1,10.3,3.9,20.5,4.4,30.6,1.3,0,.5,0,.9.2,1.4.2,2.3.5,4.7.9,7,0,.6.2,1.1.2,1.6.2,1,.3,2,.4,3,.6,4.3.7,9.5-.2,19.8h-.2v.1Z"/>
        <path class="cls-16" d="M22.76,106.94s-12.6,29.6-13.1,57.7c0,1.5.8,2.7,2,3.2,7.8,2.4,36.5,10.2,50.7,0,.9-.7,1.5-1.8,1.3-3.1-.8-8.2-4.2-40.9-9.9-56.7-10.3,3.9-20.6,3.4-31.1-1.1h.1Z"/>
      </g>
      <g>
        <path class="cls-19" d="M15.76,94.14h0c1,1.1,1.5,2.9,1.3,4.4l-2.9,32.1-6.6-2.1.3-30.9c0-4.7,4.9-6.9,7.8-3.5h.1,0Z"/>
        <path class="cls-19" d="M13.96,102.74h0c-3.3.7-6.4-3-5.9-7.3l3-26.5c.3-4.2,3.3-7,6.7-6.4h0c3.9.7,6.5,5.7,5.4,10.4l-6.1,25c-.5,2.2-1.5,4.5-3.3,4.8h.2Z"/>
        <path class="cls-4" d="M12.86,64.04c-2.8,3.4-6.1,10.2-7.2,23.7l13.8,4.4,1-5.3c3-8.3,5.1-15.9,3.6-20.8-1.3-4.6-8-5.7-11.1-1.9h-.1v-.1h0Z"/>
        <path class="cls-19" d="M13.46,140.74l.8-10.6-6.6-2.1v.4C.46,133.34.06,139.84.06,139.84c-.4,6.3,1.2,6.8,2.5,6.3.9-.4,1.6-1.2,2.1-2.3,1.8-4.6,6.4-9.3,6.4-9.3.6,9,2.4,6.2,2.4,6.2h0Z"/>
      </g>
      <g>
        <path class="cls-19" d="M55.45,95.11h0c-.39,1.45-.39,3,.29,4.36l13.65,27.21,5.03-4.16-10.94-27.01c-1.65-4.16-6.78-4.36-8.13-.39h.1Z"/>
        <path class="cls-19" d="M57.29,99.76h0c3.19.29,7.84-1.16,4.94-7.36l-5.62-24.59c-.77-3.87-3.87-6.2-6.97-5.23h0c-3.49,1.06-5.62,6-4.07,10.26l8.13,22.85c.68,1.94,1.74,4.07,3.49,4.16h.1v-.1h0Z"/>
        <path class="cls-4" d="M53.32,62.58c2.9,3,6.49,9.2,8.33,21.78l-12.59,4.94-1.26-4.84c-3.29-7.65-5.91-14.62-4.84-19.36.97-4.45,7.16-5.81,10.36-2.42h0v-.1Z"/>
        <g>
          <path class="cls-9" d="M69.55,121.8c-.53,1.03-.81,2.91-.49,4.04.38,1.54,1.68,3.11,5.39,2.87,1.41-.07,2.82-.47,4.07-1.1l3.57-1.66s1.37-.54,3.39.04c.76.21,1.52-.31,1.6-1.1.06-1.05-.27-2.85-5.24-2.58,0,0,3.74-1.1,5.86-.37.68.26,1.53.02,1.98-.63.47-.71.45-1.71-2.37-2.64,0,0-1.65-.78-5.04-.48,0,0,1-1.41,4.3-.93.77.14,1.54-.04,2.11-.6.65-.61,1.01-1.48-.44-2.28-.61-.31-1.24-.5-1.89-.55-2.3-.16-8.41-.24-11.46,2.85,0,0-4.08,2.23-5.37,4.86l-.05.26h.06s0,.01,0,.01Z"/>
          <g>
            <path class="cls-12" d="M84.9,137.86l-9.17-2.73c-1.39-.44-2.14-1.88-1.78-3.28l7.06-23.94c.44-1.39,1.88-2.14,3.28-1.78l9.17,2.73c1.39.44,2.14,1.88,1.78,3.28l-7.06,23.94c-.44,1.39-1.88,2.14-3.28,1.78Z"/>
            <rect class="cls-17" x="73.94" y="115.36" width="21.84" height="12.69" transform="translate(-55.94 168.49) rotate(-73.49)"/>
            <path class="cls-14" d="M93.64,111.38c-.07.36-.47.56-.83.49s-.56-.47-.49-.83.47-.56.83-.49.56.47.49.83Z"/>
            <path class="cls-17" d="M82.29,134.6c-.13.71-.95,1.11-1.75.96s-1.11-.95-.96-1.75.95-1.11,1.75-.96,1.11.95.96,1.75Z"/>
          </g>
          <g>
            <path class="cls-15" d="M82.9,113.74s-.04-.01-.04-.03c.03-.89.02-1.77,0-2.66,0-.05.04-.09.09-.11l.05.02s.03.15.03.2c-.01.63-.05,1.3-.08,1.93,0,.17,0,.43-.04.59,0,.01-.01.05-.02.05Z"/>
            <path class="cls-15" d="M82.63,114.31s-.04-.06-.05-.07c-.37-.72-.61-1.55-.95-2.28-.05-.12.07-.22.15-.08.08.15.16.48.22.65.2.55.46,1.13.63,1.68,0,.02.02.09,0,.1Z"/>
            <path class="cls-15" d="M81.96,115.54l-.04.04-2.18-.22c-.13,0-.16-.16-.02-.16.69.12,1.38.19,2.07.3.03,0,.16.02.17.04Z"/>
            <path class="cls-15" d="M82.02,114.8l-.06-.02-1.71-1.1c-.07-.05,0-.16.07-.11.4.28.8.56,1.2.84.14.1.32.2.45.3.03.02.07.05.05.09Z"/>
            <path class="cls-20" d="M84.57,113.95c-.09-.02-.21-.08-.28-.14.08.04.2.1.28.14Z"/>
            <g>
              <g>
                <path class="cls-18" d="M89.01,123.51c.41-.19.82-.37,1.15-.69.41-.41.65-.97.71-1.54.01-.13,0-.59.06-.67.02-.02.09.03.11.04.52.34.48,1.43.32,1.95-.24.78-1.02,1.67-1.88,1.75-.03,0-.11,0-.14,0-.05,0-.12-.02-.18-.01.04-.11-.07-.79-.15-.85Z"/>
                <path class="cls-20" d="M88.97,123.46s0,.04,0,.04c0,0,.04,0,.04,0,.08.06.19.74.15.85-.01.03-.03.06-.06.05,0,0-.03-.01-.04-.04-.02-.05-.01-.23-.03-.3-.02-.13-.06-.27-.08-.4,0-.07-.03-.14.02-.2Z"/>
                <path class="cls-6" d="M82.18,120.27s0,.06.02.07c.04.03.07-.01.08-.01.01,0,.08.08.09.1.3.54-.5,1.09-.84.58-.28-.42.2-.96.66-.75Z"/>
                <g>
                  <path class="cls-6" d="M85.76,119.9c.02.07,0,.16-.01.23,0,.03-.03.04,0,.06,0,.02-.01.05-.02.07l-.1.2s0,.03,0,.04c0,0,0,0,0,.01-.03.05-.2.13-.26.16-.95.43-2.22.21-3.08-.34.09-.16.27-.35.33-.52.79.51,1.86.59,2.73.27.14-.05.27-.13.41-.18Z"/>
                  <polygon class="cls-6" points="85.64 120.5 85.63 120.49 85.65 120.49 85.64 120.5"/>
                  <path class="cls-11" d="M85.63,120.51h-.01s0-.01,0-.02h.01s0,.02,0,.02Z"/>
                  <path class="cls-11" d="M85.69,120.4s-.05.05-.04.08h0s-.02.02-.02.02c0,0,0-.03,0-.04l.1-.2s-.02.09-.04.14Z"/>
                  <path class="cls-11" d="M85.75,120.19s-.01-.03,0-.06c.01-.07.03-.16.01-.23,0,0,.01,0,.02,0,0,.11,0,.17-.02.29Z"/>
                  <path class="cls-6" d="M85.65,120.47s.01-.07.04-.08c0,.02-.03.05-.04.08Z"/>
                  <path class="cls-6" d="M81.77,118.84c.13.37.43.69.76.9-.11.17-.22.32-.32.49,0,.02-.03.02-.03.02-.25-.18-.51-.41-.65-.69-.02-.04-.07-.15-.07-.18-.02-.14.11-.36.2-.46.04-.04.08-.06.11-.09Z"/>
                  <path class="cls-20" d="M82.62,119.8c-.07.17-.24.36-.33.52h0s-.04.05-.08.02c-.02-.01-.03-.05-.02-.07,0,0,0,0,0-.01,0,0,.02,0,.03-.02.09-.18.21-.33.32-.49h.09s0,.04,0,.06Z"/>
                </g>
              </g>
              <g>
                <path class="cls-18" d="M85.63,120.51c.05.22.18.42.34.58.09.09.19.18.27.23.05.03.1.1.12.11.05.04.23.12.31.16.48.25.95.46,1.4.78.29.21.84.72.91,1.09-.05.06-.03.13-.02.2.02.13.06.27.08.4.01.07,0,.25.03.3.01.03.04.04.04.04,0,.02-.03.35-.04.4-.1.66-.43,1.31-.7,1.92-.23.52-.53,1.04-.62,1.61-.04.27-.02.59-.13.85-.15.37-.48.88-.7,1.22-.35.53-.69,1.09-1.41.77v-.02s-.01,0-.01,0c-.02,0-.03-.02-.05-.03,0-.03-.05-.04-.07-.05-.12-.07-.18-.12-.27-.23l.07.05c.05-.11.1-.2.18-.29.05-.05.15-.12.18-.16.03-.05-.02-.07-.06-.06-.15.04-.34.32-.37.47-.13-.17-.13-.31,0-.49.14-.2.43-.21.62-.33.33-.22.62-.81.67-1.19s-.14-.87-.2-1.26c-.09-.59-.06-1.19.05-1.78,0,0,.04-.02.04-.03.03-.24.13-.49.17-.74,0-.06,0-.18-.07-.1-.08.09-.18.72-.22.73-.76-.2-1.55-.15-2.32-.13l.47-.87c-.07-.06-.09,0-.14.05-.2.26-.35.58-.51.86-.01.03,0,.05.04.06.75.02,1.49-.04,2.24.08-.04.07-.11.11-.16.17-.24.27-.56.74-.63,1.09-.06.32.03.41-.15.74-.25.44-.79.99-1.17,1.33s-.66.6-1.18.34c0-.14.13-.27.23-.35.05-.04.22-.11.22-.16,0-.1-.17-.02-.21,0-.15.08-.31.24-.35.41l.1.05h-.06c-.14-.11-.23-.17-.33-.31,0,0,.05.03.06.05.05-.11.12-.21.21-.29.04-.04.19-.13.21-.15.05-.07-.05-.07-.1-.05-.1.04-.44.34-.37.44-.06-.08-.09-.1-.08-.21.01-.29.25-.43.51-.47.07-.01.19,0,.25-.02.18-.05.57-.56.67-.73.29-.48.12-.64.05-1.13-.04-.26-.05-.52,0-.77-.04.02-.08.09-.11.13-.3.46-.58.97-.88,1.43-.35.54-.73,1.13-1.13,1.64s-.76.8-1.41.5c.04-.15.15-.29.28-.38.05-.03.21-.09.2-.15-.05-.08-.18,0-.24.04-.15.09-.29.25-.31.43-.02-.01-.04-.02-.06-.03-.13-.07-.19-.15-.27-.25.07.03.08-.08.11-.12.05-.07.1-.13.16-.19.04-.03.19-.12.2-.14.03-.12-.17,0-.21.02-.13.09-.24.25-.28.41,0,0-.02-.01-.03-.03-.1-.16-.07-.4.07-.53.23-.22.57-.16.82-.43.49-.53,1.04-1.6,1.34-2.27.08-.17.19-.56.27-.69.02-.02.05-.04.06-.06.1-.14.25-.82.24-1,0-.09-.07-.15-.11-.04-.04.09-.05.32-.07.44-.03.17-.08.33-.12.5-.35-.19-.67-.46-.94-.75-.35-.37-.65-.8-.84-1.27-.03-.06-.05-.21-.08-.26-.05-.08-.09-.03-.09.05,0,.16.27.67.37.82.08.14.17.28.27.41-.16.23-.3.47-.46.7-.24.36-.52.69-.77,1.04-.31.43-.61.89-.96,1.29-.41.46-.8.69-1.41.39-.03-.02-.08-.05-.09-.08.02,0,.04.02.06.03.07-.17.18-.31.33-.41.04-.03.34-.16.14-.17s-.51.35-.54.54c-.17-.07-.26-.16-.36-.31.08.03.12-.09.16-.15.07-.09.14-.15.23-.22.04-.03.21-.09.14-.15-.05-.05-.27.11-.32.16-.05.05-.11.12-.15.18-.03.05-.05.11-.08.16-.19-.35.08-.63.43-.71.11-.02.26-.01.36-.04.34-.11.7-.84.87-1.15.33-.58.66-1.18.93-1.79.41-.9.67-1.87,1.22-2.69.26-.39.57-.74.85-1.12.03,0,.05-.02.07-.04,0,.03.06.15.07.18.14.28.4.5.65.69,0,0,0,0,0,.01-.45-.21-.93.33-.66.75.34.51,1.14-.04.84-.58-.01-.02-.08-.1-.09-.1h0c.86.54,2.13.76,3.08.33.06-.03.23-.11.26-.16h.01ZM85.54,131.16c.04-.15.12-.26.24-.35.04-.03.25-.11.16-.18-.24,0-.47.24-.52.47l.11.06Z"/>
                <path class="cls-20" d="M86.23,125.8s-.07-.04-.1-.04c-.07-.02-.13-.02-.2-.03-.74-.12-1.49-.06-2.24-.08-.03-.01-.05-.03-.04-.06.16-.28.31-.61.51-.86.04-.06.07-.11.14-.05l-.47.87c.78-.03,1.56-.07,2.32.13.04-.01.13-.65.22-.73.07-.08.08.04.07.1-.04.24-.13.49-.17.74,0,.01-.04.03-.04.03Z"/>
                <path class="cls-20" d="M80.81,123.93c-.1-.13-.19-.27-.27-.41-.09-.15-.37-.66-.37-.82,0-.08.04-.13.09-.05.03.05.06.2.08.26.19.47.5.9.84,1.27.27.29.59.56.94.75.04-.17.08-.33.12-.5.02-.12.04-.35.07-.44.04-.11.11-.05.11.04,0,.18-.14.86-.24,1-.02.02-.04.03-.06.06-.51-.3-.95-.71-1.32-1.17Z"/>
                <path class="cls-20" d="M82.63,129.4s-.05-.04-.07-.05h.06s-.1-.04-.1-.04c.04-.18.2-.33.35-.41.04-.02.21-.11.21,0,0,.05-.17.12-.22.16-.11.08-.23.21-.23.35Z"/>
                <path class="cls-20" d="M80.1,129.42s-.12-.05-.15-.09c.02.01.04.02.06.03.02-.18.16-.34.31-.43.06-.04.2-.12.24-.04,0,.06-.15.12-.2.15-.12.09-.24.23-.28.38Z"/>
                <path class="cls-20" d="M77.11,127.27c.03-.19.34-.56.54-.54s-.1.15-.14.17c-.15.1-.26.24-.33.41-.02,0-.04-.03-.06-.03,0,0,0,0-.01,0Z"/>
                <path class="cls-20" d="M76.75,126.96s-.01-.01-.02-.03c.03-.05.05-.11.08-.16.04-.06.1-.13.15-.18.04-.04.26-.21.32-.16.07.06-.1.12-.14.15-.09.07-.15.13-.23.22-.04.05-.08.17-.16.15Z"/>
                <path class="cls-20" d="M79.68,129.08s-.01-.02-.02-.03c.04-.15.15-.31.28-.41.04-.03.24-.14.21-.02,0,.02-.16.11-.2.14-.06.05-.12.12-.16.19-.03.04-.05.15-.11.12Z"/>
                <path class="cls-20" d="M85.51,131.18s0,0-.01,0h.01s0,0,0,0Z"/>
                <path class="cls-20" d="M85.54,131.16l-.11-.06c.05-.23.28-.46.52-.47.08.06-.12.15-.16.18-.12.09-.21.21-.24.35Z"/>
                <path class="cls-20" d="M82.23,129.05c-.06-.1.27-.4.37-.44.05-.02.15-.02.1.05-.02.02-.17.11-.21.15-.09.08-.16.18-.21.29-.01-.01-.05-.04-.06-.05Z"/>
                <path class="cls-20" d="M85.11,130.86c.03-.15.22-.42.37-.47.05-.01.1.01.06.06-.03.04-.14.11-.18.16-.08.09-.13.18-.18.29l-.07-.05Z"/>
              </g>
              <g>
                <path class="cls-18" d="M84.62,114.73c.13.03.27-.11.31-.23.04.02.08.02.12.03.15.04.47.15.59.25.08.07.1.07.19.13.5.32.87.97,1.01,1.53-.07.22-.14.43-.26.63-.26.44-1.02,1.1-.93,1.64.04.27.19.4.46.44-.07.1-.13.21-.18.32-.04.09-.16.33-.16.41,0,0-.01,0-.02,0-.14.05-.27.13-.41.18-.88.32-1.94.24-2.73-.27,0-.02.02-.04,0-.06h-.09c-.33-.21-.63-.53-.76-.9.03-.03.03-.04.05-.07.03-.04.2-.35.21-.38l.51.13s.16.02.17.02c.03-.02.03-.06,0-.08-.04-.03-.32-.07-.39-.1-.09-.02-.19-.04-.27-.07-.22-.07-.56-.48-.61-.71-.15-.72.46-.99.87-1.41.07-.07.24-.25.28-.32.03-.07,0-.15-.02-.23-.08-.73.34-1.33,1.04-1.51.06-.02.12-.05.19-.05,0,0,0,.01,0,.02,0,0,0,.01,0,.01-.05.45.31.71.74.63,0,0,.02,0,.04,0,.01,0,.02-.01.03-.02ZM85.98,115.91s-.03,0-.04.02c-.03.06.15.23.17.29.03.06-.11.35.03.27.12-.07.13-.29.08-.4,0-.02-.03-.03-.04-.05s0-.02-.03-.05c-.05-.07-.07-.13-.18-.09ZM82.59,116.4s-.05,0-.05,0c-.15.15-.29.28-.44.42-.02.02-.04.04-.06.06-.14.14-.3.32-.26.54.02.08.07.18.12.24.03.08.11.16.18.21.02.02.05.03.08.04.24.14.43.15.7.13.36-.03.74-.14,1.07-.29.17-.08.33-.17.47-.29.04-.03.07-.06.11-.09.06,0,.24-.21.22-.24-.08-.02-.17,0-.24-.02-.49-.11-.88-.47-1.02-.95-.02-.06-.05-.31-.06-.32,0-.18,0-.35.05-.52.01-.06.05-.18.04-.22s-.07.04-.08.06c-.29.3-.42.66-.64,1.01-.05.08-.13.14-.18.23ZM85.43,116.22s-.01,0-.02,0c-.08.02-.13.07-.17.14-.04.1-.03.16.02.25,0,0,0,.03.01.04.17.21.52.04.48-.24-.02-.15-.19-.25-.32-.2Z"/>
                <path class="cls-20" d="M86.84,116.45c.13.02.25.04.35.14.14.13.14.45.19.64.15.59.74,1.22-.02,1.64-.27.15-.93.33-1.24.29-.27-.04-.42-.17-.46-.44-.09-.54.68-1.2.93-1.64.12-.21.19-.41.26-.63Z"/>
                <path class="cls-15" d="M83.79,114.08c.03-.33.2-.41.49-.28.07.07.19.13.29.15.15.09.43.35.37.55-.06.18-.15.21-.32.26,0,0-.02.02-.03.02-.02,0-.03,0-.04,0-.1,0-.29-.01-.38-.05-.28-.11-.39-.32-.36-.62"/>
                <path class="cls-20" d="M82.05,118.31c.08.02.19.04.27.07.08.02.35.06.39.1.03.02.03.06,0,.08,0,0-.14-.02-.17-.02l-.51-.13s-.03-.06.01-.09Z"/>
                <path class="cls-15" d="M82.54,116.4s.02,0,.02,0c.34-.36.39-.81.73-1.17.01-.01.22-.22.23-.15-.09.25-.1.48-.1.75,0,0,0,.03,0,.03.01,0,.04.26.06.32v.09c.18.4.48.71.91.84.1.03.22,0,.32.04.01.03-.07.15-.2.24-.04.03-.09.06-.13.09-.14.12-.26.2-.42.27-.01,0-.03.01-.05.02-.33.15-.7.26-1.07.29-.08,0-.13,0-.21,0-.12,0-.24-.02-.32-.06-.05-.02-.13-.05-.18-.07-.02-.01-.02,0-.04-.02-.04-.02-.06-.04-.08-.05-.05-.05-.1-.11-.14-.16-.05-.06-.11-.19-.12-.3v-.11c.01-.09.1-.22.16-.28l.1-.11s.04-.04.06-.06M82.75,116.59s-.05,0-.05,0c-.02,0-.03.01-.04.01,0,0-.07.02-.08.02,0,0-.02,0-.04.01-.03.01-.12.06-.15.08-.19.11-.38.27-.49.46-.01.02-.04.05,0,.06-.02.04-.04.13-.04.17,0,.04,0,.08.03.1,0,0,0,.01,0,.02.09.24.29.31.52.36,0,0,0-.02,0-.02,0-.01.05,0,.06,0,0,.03.04.03.06.03.12.02.23,0,.36,0,0-.01,0-.02,0-.02,0-.01.26-.04.31-.04.18-.03.4-.1.56-.18.14-.08.18-.11.11-.27-.03-.06-.07-.08-.11-.13-.01-.02,0-.02-.03-.07-.01-.01-.04-.05-.04-.05l-.03-.02s-.08-.06-.11-.07l-.33-.17c-.06-.03-.06-.03-.1-.09-.02-.03-.04-.08-.04-.08-.06-.1-.21-.15-.32-.12Z"/>
                <path class="cls-15" d="M86.16,116s.03.02.04.04c.07.1.07.25.02.37-.02.04-.14.15-.14.1,0-.18.05-.19.03-.27s-.16-.2-.17-.28c0-.03.01-.05.05-.04.13-.04.13.04.18.09Z"/>
                <path class="cls-13" d="M83.09,116.71s.02.04.04.07c.04.12.09.08.15.11l.23.12s.15.11.18.14c0,0,.03.04.04.05.06.06.11.12.14.2.07.16.03.19-.11.27-.16.09-.38.15-.56.18-.05,0-.28.06-.29.07-.14.02-.28,0-.41,0-.02,0-.07-.02-.1-.02-.21-.05-.45-.15-.49-.36,0,0,0-.02,0-.02-.02-.01-.05-.04-.03-.1,0-.05,0-.15.01-.19.09-.23.3-.38.52-.5.03-.02.12-.07.15-.08h.04s.07-.04.08-.04h.04s.05-.02.05-.02c.21-.04.27.05.34.12Z"/>
                <circle class="cls-15" cx="85.48" cy="116.48" r=".28"/>
              </g>
            </g>
          </g>
          <path class="cls-9" d="M70.99,119.81s5.76-5.85,8.05-5.29h0c.88.3.45,1.88-.62,2.61l-5.08,3.31-2.36-.57h0v-.06h.01Z"/>
        </g>
      </g>
    </g>
  </g>
</svg>