<?xml version="1.0" encoding="UTF-8"?>
<svg id="Layer_2" data-name="Layer 2" xmlns="http://www.w3.org/2000/svg" viewBox="0 0 131.48 298.72">
  <defs>
    <style>
      .cls-1 {
        fill: #543a35;
      }

      .cls-2, .cls-3 {
        fill: #603813;
      }

      .cls-4 {
        fill: #ca8a8c;
      }

      .cls-5 {
        fill: #d9a2a0;
      }

      .cls-6 {
        fill: #d9a8a7;
      }

      .cls-7 {
        fill: #344260;
      }

      .cls-8 {
        fill: #faf0f5;
      }

      .cls-3 {
        isolation: isolate;
        opacity: .5;
      }

      .cls-9 {
        fill: #1d2d4e;
      }

      .cls-10 {
        fill: none;
        stroke: #630;
        stroke-linecap: round;
        stroke-miterlimit: 10;
      }
    </style>
  </defs>
  <g id="Layer_1-2" data-name="Layer 1">
    <g id="german-woman-waving">
      <g>
        <path class="cls-9" d="M94.99,216.81h0c-4.3,0-7.7-3.4-7.9-7.6l-1.8-64.4c0-6.9,5.7-12.6,12.6-12.6h0c6.9,0,12.6,5.7,12.6,12.6,2.2,21.6-1.1,46.3-8,66.7-1.1,3.2-4.1,5.3-7.5,5.3h0Z"/>
        <path class="cls-9" d="M92.89,286.61h-5.6v-74.9c0-4.5,3.2-8.1,7.2-8.1h0c3.6,0,6.6,2.9,7.1,6.8,3,21.9-.3,47.9-8.8,76.2h.1Z"/>
        <path class="cls-1" d="M92.89,286.51s22.4,10.1,17,12c-.6.2-20.1-2.7-20.6-3-1.1-.6-1.8-1.7-1.9-3v-5.9h5.5v-.1Z"/>
      </g>
      <g>
        <path class="cls-9" d="M73.99,217.01h0c4.3,0,7.7-3.4,7.9-7.6l1.8-64.4c0-6.9-5.7-12.6-12.6-12.6h0c-6.9,0-12.6,5.7-12.6,12.6-2.2,21.6,1.1,46.3,8,66.7,1.1,3.2,4.1,5.3,7.5,5.3Z"/>
        <path class="cls-9" d="M75.99,286.81h5.6v-74.9c0-4.5-3.2-8.1-7.2-8.1h0c-3.6,0-6.6,2.9-7.1,6.8-3,21.9.3,47.9,8.8,76.2h-.1Z"/>
        <path class="cls-1" d="M75.99,286.71s-22.4,10.1-17,12c.6.2,20.1-2.7,20.6-3,1.1-.6,1.8-1.7,1.9-3v-5.9h-5.5v-.1Z"/>
      </g>
      <path class="cls-1" d="M113.19,35.91c-2.7-5-6.9-8.9-9.7-13.8-1.2-2.1-1-19.5-14-21.8-2.7-.5-5.6-.3-8.3.2-2.6.5-5.2.8-7.4,2.3-2.1,1.4-3.8,3.4-4.9,5.6-1.4,2.9-1.6,6.2-2.8,9.2-3.4,8-9.9,14.3-12.6,22.5-.2.6-.4,1.3-.6,1.9-.9,3.6.2,7.6,2,10.8,1-2.3.6-4.9,1.9-7.3.7,6.1,1.6,11.9,5.5,16.9,3.7,4.8,8.4,7.2,13.5,10.2-.4-.9-.7-1.7-.6-2.7,2,1.9,6,3.9,8.7,3.2,4.1-1.2,7.6-3.7,11.1-5.7,0,1-1.4,2.6-2,3.4,4.8-2.4,10.6-6.4,13.2-11.2,2.5-4.6,3-10.2,3.5-15.2,1.7,2.2,2,5.4,2.9,7.9,2.6-4.7,3-11.8.5-16.6v.2h.1Z"/>
      <g>
        <path class="cls-6" d="M123.69,143.11l-6.3,11.1s.4,3.5,5.3-3.4c0,0,2.2,6.9,1.6,11.8,0,1.1,0,2.3.8,3.3,1.1,1.3,2.9,1.9,5.5-3.5,0,0,3.1-6-2.3-15.5l-4.6-3.8h0Z"/>
        <path class="cls-7" d="M112.39,104.61h0c-3.5.3-6.6-2.2-6.9-5.5-2.1-12.1-3.3-23.4-3-33.5-.3-3.3,2.4-6.2,5.9-6.5h0c8.3,0,10,26,9.9,39,.3,3.3-2.4,6.2-5.9,6.5Z"/>
        <path class="cls-7" d="M127.69,145.91l-5.9,1-15.8-45.6c-1.2-3.4,1-7.1,4.8-7.8h0c3.5-.7,7,1.5,7.6,4.9l9.3,47.6h0v-.1Z"/>
      </g>
      <g>
        <path class="cls-6" d="M21.17,40.66l-5.52-12.33s-3.13-1.87-.16,6.75c0,0-6.86-2.24-10.48-5.87-.9-.82-1.97-1.37-3.13-1.23-1.66.16-3.15,1.34-.18,6.89,0,0,3.23,6.36,13.92,7.49l5.62-1.75h0l-.08.06Z"/>
        <path class="cls-7" d="M32.57,93.69h0c-2.52-2.72-2.57-6.98.06-9.46,8.79-9.69,17.56-18.27,26.24-24.7,2.55-2.42,5.11-2,7.63.72l2.09,3.43c5.45,6.92-15.7,22.02-26.69,30.54-2.55,2.42-6.73,2.12-9.26-.6h0l-.08.06Z"/>
        <path class="cls-7" d="M15.63,42.35l5.54-1.69,21.1,46.65c1.58,3.46-.12,7.6-3.61,8.83h0c-3.33,1.1-6.96-.75-7.96-4.29l-14.93-49.48-.06-.08-.08.06Z"/>
      </g>
      <g>
        <path class="cls-9" d="M109.49,140.31l-24.1,14.8-26.8-11.9c1.8-11,7-22.6,10.6-29.8,2.3-4.5,4-7.3,4-7.3h22.8c1.3,2.1,2.7,4.6,3.9,7.3,5.5,11.9,9.6,26.9,9.6,26.9Z"/>
        <path class="cls-8" d="M109.19,59.41l-2.5,12.6c-.3,1.3-.6,2.7-.9,4.1-.3,1.5-.7,2.9-1.2,4.4l-6.2,21.5-.3.9-.9,3.2-.6,2.1h-22.7l-.6-2.1-.9-3.2-.6-2.2-5.6-19.5c-.5-1.7-.9-3.4-1.2-5.2-.3-1.7-.6-3.4-.8-5.1l-1.4-12.6,3.3-1.4,6.4-2.7,8.5-3.6h9.4l4.7,2.2,6.9,3.2,7.1,3.3h0l.1.1Z"/>
        <path class="cls-1" d="M73.29,106.11h0l-.9-3.2h26.3l-.9,3.2c1.4,2.1,2.8,4.6,4.2,7.3h-32.9c2.4-4.5,4.3-7.3,4.3-7.3h-.1Z"/>
        <path class="cls-7" d="M75.39,52.81l4.5,32.7c2,14.7,2.1,29.6.3,44.3l-1.9,15.5c-1.4,11.2-11.6,19.7-23.7,19.7h-1.8c1.3-19.5,5.7-37.8,12.4-50.2,3.2-5.9,2.8-13.4,3.1-19.1l-7.01-37.11,14.31-5.69h-.2v-.1Z"/>
        <path class="cls-7" d="M94.39,52.11l-4.5,32.7c-2,14.7-2.1,29.6-.3,44.3l1.9,15.5c1.4,11.2,11.6,19.7,23.7,19.7h1.8c-1.3-19.5-5.7-37.8-12.4-50.2-3.2-5.9-2.9-12.7-3.1-19.1l8.3-35.5-15.5-7.3h0l.1-.1Z"/>
      </g>
      <path class="cls-4" d="M81.19,55.71h0c1.7,3.2,6.2,3.1,7.8,0h0c.3-.6.5-1.3.5-2.1v-12.2h-9v12.1c0,.8.2,1.5.6,2.2h.1Z"/>
      <path class="cls-6" d="M102.79,27.31c-.7,1.3-1.9,2.2-3,2.5h-1c-.3,3.5-1.4,6.6-3,9.2-3,5-7.6,8.1-11,7.9h-.8c-2.8,0-5.9-1.6-8.5-4.5h0c-.8-.8-1.5-1.8-2.1-2.8-1.6-2.5-2.8-5.6-3.3-9.1h-.3c-1.1,0-2.4-1-3.2-2.3,0-.2-.2-.5-.3-.7,0-.3-.2-.7-.3-1h0c-.3-1.3,0-2.4,1-2.9h0c.8-.4,1.9,0,2.8.6.6-8.4,4.4-16,9.7-18.8,1.4-.8,2.8-1.2,4.4-1.2,2.3,0,4.4.7,6.4,2,4.5,3,7.8,10.4,8.5,17.9.4-.5.9-.9,1.4-1.1.7-.3,1.4-.4,2,0,1.3.6,1.5,2.6.5,4.5h0l.1-.2Z"/>
      <g>
        <path class="cls-2" d="M94.29,24.01c-.2,0-.3,0-.4-.2-1.5-2.7-3.9-1.6-4-1.6-.2,0-.5,0-.7-.2,0-.2,0-.5.2-.7,1.2-.5,3.8-.9,5.3,2,0,.2,0,.5-.2.7h-.2Z"/>
        <path class="cls-2" d="M74.49,24.01c.2,0,.3,0,.4-.2,1.5-2.7,3.9-1.6,4-1.6.2,0,.5,0,.7-.2,0-.2,0-.5-.2-.7-1.2-.5-3.8-.9-5.3,2,0,.2,0,.5.2.7h.2,0Z"/>
        <path class="cls-2" d="M77.49,25.91c0,.9.6,1.8,1.3,1.8s1.4-.9,1.4-1.8-.6-1.8-1.3-1.8-1.4.9-1.4,1.8Z"/>
        <path class="cls-2" d="M89.39,25.91c0,.9.6,1.8,1.3,1.8s1.4-.9,1.4-1.8-.6-1.8-1.3-1.8-1.4.9-1.4,1.8Z"/>
        <path class="cls-10" d="M80.69,37.91c.2.2,1.3,2.7,4.3,2.6,2.9,0,4.1-2.3,4.3-2.6"/>
        <path class="cls-3" d="M86.99,32.81c0,1.2-.9,2.1-2.1,2.1s-2.1-.9-2.1-2.1.9,1.2,2.1,1.2,2.1-2.4,2.1-1.2Z"/>
        <path class="cls-5" d="M94.49,28.51c1.7,0,3.1,1.3,3,2.7s-1.6,2.5-3.4,2.4-3.1-1.3-3-2.7,1.6-2.5,3.4-2.4Z"/>
        <path class="cls-5" d="M74.99,28.51c1.7,0,3.1,1.3,3,2.7s-1.6,2.5-3.4,2.4-3.1-1.3-3-2.7,1.6-2.5,3.4-2.4Z"/>
      </g>
      <path class="cls-1" d="M101.09,22.91c0,2.6-1.4,13.5-4.7,16,1.5-6.9,2.3-17.1-.4-20.6-.9-1.2-3.7-3.4-3.5-5.1-4.1,5.3-12.4,6.6-14,6.8-2,.5-4.8.9-6.3,1.4-.5,5.1.4,15,.9,18-1.7-2.5-2.9-5.6-3.4-9.1,0,0-.4-2.7-.3-3.8-1.2.3-2.4.7-3.6.8h-.7c0-.3.2-.7.4-1h0c.2-.4.4-.7.6-1,.2-.6.4-1.2.5-1.9v-.4c.3-1.5.3-2.9.4-4.4.2-3,.5-6,1.9-8.7C71.99,4.11,78.89-.29,85.89.01c2.5.1,5,.9,7.1,2.2,4.3,2.7,7.4,7.5,8,12.4v8.2h0l.1.1Z"/>
    </g>
  </g>
</svg>