<?xml version="1.0" encoding="UTF-8"?>
<svg id="Ebene_2" data-name="Ebene 2" xmlns="http://www.w3.org/2000/svg" viewBox="0 0 74.24 247.8">
  <defs>
    <style>
      .cls-1 {
        fill: #7e3709;
      }

      .cls-2 {
        fill: #d9b6b6;
      }

      .cls-3 {
        fill: #7c3609;
      }

      .cls-4 {
        fill: #e97828;
      }

      .cls-5 {
        fill: none;
        stroke: #630;
        stroke-linecap: round;
        stroke-miterlimit: 10;
      }

      .cls-6 {
        fill: #e97928;
      }

      .cls-7 {
        fill: #d9a2a0;
      }

      .cls-8 {
        fill: #7a3509;
      }

      .cls-9 {
        fill: #7d3709;
      }

      .cls-10 {
        fill: #8b4514;
      }

      .cls-11 {
        fill: #7b3609;
      }

      .cls-12 {
        fill: #d9baba;
      }

      .cls-13 {
        fill: #7d370a;
      }

      .cls-14, .cls-15 {
        fill: #603813;
      }

      .cls-16 {
        fill: #904614;
      }

      .cls-17 {
        fill: #8b2b0e;
      }

      .cls-18 {
        fill: #273758;
      }

      .cls-19 {
        fill: #8e3c09;
      }

      .cls-20 {
        fill: #7c3709;
      }

      .cls-21 {
        fill: #7b370a;
      }

      .cls-22 {
        fill: #e26717;
      }

      .cls-23 {
        fill: #7c370a;
      }

      .cls-24 {
        fill: #c69696;
      }

      .cls-15 {
        isolation: isolate;
        opacity: .5;
      }

      .cls-25 {
        fill: #e6e6e6;
      }

      .cls-26 {
        fill: #3f6138;
      }
    </style>
  </defs>
  <g id="Layer_1" data-name="Layer 1">
    <g id="german-girl-cookies">
      <g>
        <path class="cls-2" d="M35.89,168.31v1.2l-3.41,28.86-4.51,38.39h-5.81c-.6,0-1.9-19.64-1.9-38.39s.6-24.35,2.2-30.07c0-3.71,3.01-6.72,6.72-6.72s6.01,2.41,6.61,5.51v1.2h.1Z"/>
        <path class="cls-18" d="M29.27,242.87c-.1,1.2-.7,2.1-1.6,2.71-.6.4-22.75,2.41-23.35,2.2-5.01-2.41,17.64-11.23,17.64-11.23l6.11.2s1.3,4.91,1.1,6.21l.1-.1Z"/>
        <path class="cls-2" d="M30.17,175.12h0c-3.81.4-7.22-2.2-8.02-5.91l-6.72-34.78c-.4-5.11,3.41-9.52,8.52-10.02h0c5.11-.4,9.52,3.41,10.02,8.52l2,34.28c.3,4.01-1.8,7.52-5.71,7.92h-.1Z"/>
      </g>
      <g>
        <path class="cls-2" d="M51.32,198.37c0,18.74-1.3,38.39-1.9,38.39h-5.81l-4.51-38.39-3.31-28.86v-.6c0-.2-.1-.4-.1-.6,0-.4,0-.8.1-1.2.6-3.11,3.31-5.51,6.61-5.51s6.72,3.01,6.72,6.72c1.7,5.71,2.2,17.74,2.2,30.07h0Z"/>
        <path class="cls-18" d="M42.3,242.87c.1,1.2.7,2.1,1.6,2.71.6.4,22.75,2.41,23.35,2.2,5.01-2.41-17.64-11.23-17.64-11.23l-6.11.2s-1.3,4.91-1.1,6.21l-.1-.1Z"/>
        <path class="cls-2" d="M41.5,175.12h0c3.81.4,7.22-2.2,8.02-5.91l6.72-34.78c.4-5.11-3.41-9.52-8.52-10.02h0c-5.11-.4-9.52,3.41-10.02,8.52l-2,34.28c-.3,4.01,1.8,7.52,5.71,7.92h.1Z"/>
      </g>
      <path class="cls-2" d="M52.42,97.15c-1.5,5.71-1.2,11.73.7,17.34.7,2.1,1.4,4.71,1.8,7.82.5,3.01,1.2,7.72,1.2,11.53l-18.94,7.52h-2.81l-18.94-7.22c.1-5.21.7-12.83,2.1-17.64.4-1.4.9-2.81,1.4-4.01,2.51-5.41,3.51-11.43,2.51-17.34l-3.91-22.65-1.2-6.72,1.2-.7,15.74-9.92h9.12l14.23,9.82,1.1.7-1.1,6.51-4.11,25.06-.1-.1Z"/>
      <path class="cls-25" d="M52.42,97.15c-1.5,5.71-1.2,11.73.7,17.34.7,2.1,1.4,4.71,1.8,7.82H17.54v-5.81c.4-1.4.9-2.81,1.4-4.01,2.51-5.41,3.51-11.43,2.51-17.34l-3.91-22.65-1.1-6.72,12.73-8.02,4.11-2.61h9.12l3.51,2.41,11.83,8.12-1.1,6.51-4.11,25.06-.1-.1Z"/>
      <path class="cls-26" d="M20.85,108.77s-11.63,30.07-11.12,58.23c0,1.5.9,2.71,2.1,3.11,7.92,2.1,36.88,8.92,50.81-1.7.9-.7,1.3-1.9,1.2-3.11-1.1-8.22-5.61-40.79-11.93-56.43-10.22,4.31-20.55,4.11-31.17,0l.1-.1Z"/>
      <g id="s-falsebeliefs-uc-a-cookies">
        <path class="cls-22" d="M42.46,118.83c.11,0,.23.01.35.02,2.69.26,5.24,1.63,7.01,3.66.88,1.09,1.57,2.28,2.02,3.6.02.07.05.13.07.2.62,1.94.61,4.26,0,6.19-.02.06-.04.13-.06.2-.94,2.85-2.82,4.92-5.46,6.3-1.57.79-3.2,1.11-4.95,1.05,0,.06-.02.13-.03.19-.51,2.09-2.54,3.93-4.29,5-2.48,1.48-5.51,1.85-8.31,1.14-.67-.19-1.29-.44-1.9-.77q-.13-.06-.26-.13c-2.54-1.29-4.19-3.57-5.15-6.2-.8-2.64-.59-5.52.68-7.98,1.42-2.64,3.69-4.51,6.54-5.4.37-.1.74-.19,1.12-.26.06-.01.13-.02.19-.04.32-.06.6-.08.92-.07.36.02.62.02.96-.11.3-.41.47-.84.66-1.31,1-2.21,3.31-3.76,5.46-4.66,1.43-.52,2.92-.73,4.43-.64Z"/>
        <path class="cls-6" d="M27.37,132.5q.06.16.13.33.11.35.39.42t.35.38c.14.8.12,1.54-.33,2.24-.22.29-.38.43-.74.48-.22-.02-.43-.06-.65-.1q-.21-.02-.36.13-.14.17-.22.44c-.79-.03-1.26-.27-1.85-.79-.44-.47-.58-1.03-.65-1.65.03-.59.22-1.11.62-1.55,1-.9,2.11-1.12,3.29-.34Z"/>
        <path class="cls-4" d="M38.52,123.68c.39.3.58.53.67,1.03,0,.08.02.16.03.24q.02.22.22.39c.08.57.05,1.11-.24,1.62-.25.33-.56.58-.89.84-.34-.12-.6-.27-.88-.49-.81-.58-1.76-.98-2.7-1.3-.07-.74.05-1.27.47-1.89.85-1.01,2.24-1.11,3.33-.43Z"/>
        <path class="cls-1" d="M29.63,126.94q.22.15.38.38c.06.35.05.5-.15.79-.29.2-.44.21-.79.15q-.22-.15-.38-.38c-.06-.35-.05-.5.15-.79.29-.2.44-.21.79-.15Z"/>
        <path class="cls-9" d="M35.95,138.92q.22.15.38.38t0,.57-.47.38c-.34,0-.5-.03-.74-.26-.13-.26-.16-.4-.11-.68.27-.38.49-.45.94-.38Z"/>
        <path class="cls-13" d="M26.9,136.18q.23.15.38.38c0,.33-.03.56-.21.84-.26.15-.44.14-.74.1q-.22-.15-.38-.38c-.06-.35-.05-.5.15-.79.29-.2.44-.21.79-.15Z"/>
        <path class="cls-9" d="M30.95,129.43q.28.05.51.25t.14.57-.37.55c-.34.05-.5.04-.79-.15-.2-.29-.21-.44-.15-.79.2-.29.31-.37.66-.43Z"/>
        <path class="cls-9" d="M43.5,122.99q.41.13.55.37c.05.34.04.5-.15.79-.29.2-.44.21-.79.15-.29-.2-.37-.31-.43-.66q.05-.28.25-.51t.57-.14Z"/>
        <path class="cls-9" d="M26.9,140.33q.22.15.38.38c.04.3.05.48-.09.74-.3.17-.6.17-.94.11q-.19-.15-.28-.38t.09-.66c.33-.22.46-.24.85-.19Z"/>
        <path class="cls-13" d="M37.08,133.26q.19.19.22.56c0,.27-.02.36-.18.58-.33.13-.55.08-.89,0-.23-.35-.23-.53-.19-.94.29-.38.61-.29,1.04-.19Z"/>
        <path class="cls-20" d="M32.31,135.49q.34.04.58.18t.14.57-.37.51q-.58.06-.85-.15c-.13-.33-.08-.55,0-.89q.19-.19.51-.22Z"/>
        <path class="cls-11" d="M27.97,132q.34.04.58.18t.14.57-.37.51q-.58.06-.85-.15c-.13-.33-.08-.55,0-.89q.19-.19.51-.22Z"/>
        <path class="cls-20" d="M35.06,129.5q.32.08.51.27.06.67-.15.95c-.33.13-.55.08-.89,0-.22-.33-.24-.46-.19-.85.22-.34.31-.38.72-.37Z"/>
        <path class="cls-20" d="M47.45,124.58q.18.1.28.28c.05.37.05.58-.15.9q-.23.14-.57.14t-.51-.37q-.05-.57.1-.84c.29-.16.52-.13.84-.1Z"/>
        <path class="cls-3" d="M43.21,120.06q.23.15.38.38c0,.36-.02.57-.25.85-.3.13-.47.1-.78,0-.21-.2-.27-.32-.32-.61.1-.55.47-.7.98-.61Z"/>
        <path class="cls-3" d="M31.42,140.96c.24,0,.36.02.57.14.14.27.14.45.09.74q-.15.22-.38.38c-.35.06-.5.04-.8-.15q-.15-.23-.14-.57c.12-.45.17-.5.64-.54Z"/>
        <path class="cls-23" d="M24.82,130.81q.22.15.38.38c.06.35.05.5-.15.79-.29.2-.45.2-.79.15q-.18-.09-.28-.28c-.04-.26-.05-.49,0-.75.24-.29.48-.35.85-.28Z"/>
        <path class="cls-23" d="M47.21,128.6q.34.04.58.18t.13.57-.27.51q-.67.06-.95-.15c-.13-.33-.07-.55,0-.89q.19-.19.51-.22Z"/>
        <path class="cls-3" d="M37.27,121.75q.22.15.38.38c.06.35.04.5-.15.8q-.23.15-.57.14t-.51-.27q-.05-.66.11-.94c.27-.14.45-.14.74-.09Z"/>
        <path class="cls-3" d="M42.74,129.11q.18.11.28.28c.05.34.04.5-.15.79-.29.2-.44.21-.79.15q-.23-.15-.38-.38,0-.34.09-.66c.35-.23.53-.23.94-.19Z"/>
        <path class="cls-8" d="M35.29,143.63q.18.1.28.28c.04.41.04.59-.19.94q-.64.06-.94-.1c-.15-.29-.13-.52-.09-.84.21-.38.55-.33.94-.28Z"/>
        <path class="cls-8" d="M44.44,133.54q.18.1.28.28c.03.32.06.55-.1.84-.29.16-.52.13-.84.1q-.18-.1-.28-.28c-.03-.32-.06-.55.1-.84.29-.16.52-.13.84-.1Z"/>
        <path class="cls-21" d="M40,124.21q.22.11.38.28c.05.31.03.5-.1.79q-.18.15-.51.19t-.51-.14c-.16-.29-.13-.52-.1-.84.2-.35.47-.33.85-.28Z"/>
        <path class="cls-10" d="M26.9,136.18q.16.19.28.38c-.15.05-.31.09-.46.14-.09.03-.17.05-.26.08q-.22.06-.41.06l-.09.28c-.03-.33-.04-.51.15-.79.29-.2.45-.21.79-.15Z"/>
        <path class="cls-19" d="M42.08,137.88l.19.09q-.03.32-.09.66c-.09.06-.19.12-.28.19.01-.14.03-.28.04-.42,0-.08.02-.16.02-.24q.03-.19.12-.29Z"/>
        <path class="cls-16" d="M27.37,132.41c.23.27.42.52.57.85q-.18-.03-.38-.09c-.2-.3-.21-.4-.19-.75Z"/>
      </g>
      <g id="arm5">
        <path class="cls-2" d="M68.73,103.94h0c3.8,0,6.43-3.95,5.19-7.75l-8.36-23.78c-1.24-3.8-5.03-5.81-8.6-4.65h0c-4.18,1.39-6.12,6.43-4.11,10.53l11,22.54c.93,1.94,2.79,3.1,4.88,3.1h0Z"/>
        <path class="cls-25" d="M62.69,67.77c3.1,2.79,6.89,8.44,9.14,20.29l-13.4,5.27s-8.29-16.57-6.82-22.69c1.01-4.26,7.59-5.81,11.08-2.79h0v-.08Z"/>
        <path class="cls-2" d="M69.51,93.8h0c-1.47,0-2.79.7-3.72,1.94l-17.74,23.7,6.04,3.8,18.82-20.91c2.87-3.18.77-8.52-3.41-8.52h0Z"/>
        <path class="cls-2" d="M42.48,126.79l5.96-7.67,6.04,3.8c-.08.08-.15.15-.23.23,2.09,8.91-1.63,13.55-1.63,13.55-3.49,4.57-5.03,3.72-5.65,2.25-.46-1.01-.39-2.17,0-3.18,1.63-4.49,1.16-11.23,1.16-11.23-5.96,5.58-5.5,2.25-5.5,2.25h-.15,0Z"/>
      </g>
      <g id="arm5-2" data-name="arm5">
        <path class="cls-2" d="M5.5,103.84h0c-3.8,0-6.43-3.95-5.19-7.75l8.36-23.78c1.24-3.8,5.03-5.81,8.6-4.65h0c4.18,1.39,6.12,6.43,4.11,10.53l-11,22.54c-.93,1.94-2.79,3.1-4.88,3.1h0Z"/>
        <path class="cls-25" d="M11.55,67.67c-3.1,2.79-6.89,8.44-9.14,20.29l13.4,5.27s8.29-16.57,6.82-22.69c-1.01-4.26-7.59-5.81-11.08-2.79h0v-.08Z"/>
        <path class="cls-2" d="M4.73,93.7h0c1.47,0,2.79.7,3.72,1.94l17.74,23.7-6.04,3.8L1.32,102.22c-2.87-3.18-.77-8.52,3.41-8.52h0Z"/>
        <path class="cls-2" d="M31.76,126.69l-5.96-7.67-6.04,3.8c.08.08.15.15.23.23-2.09,8.91,1.63,13.55,1.63,13.55,3.49,4.57,5.03,3.72,5.65,2.25.46-1.01.39-2.17,0-3.18-1.63-4.49-1.16-11.23-1.16-11.23,5.96,5.58,5.5,2.25,5.5,2.25h.15,0Z"/>
      </g>
      <g>
        <path class="cls-17" d="M61.44,38.22c0-4.71-2.2-8.32-4.01-12.13-.8-1.7-1.6-4.71-2.81-6.01-1.6-1.7-5.41-.9-7.42-1-7.42-.3-14.83.2-22.25,1.1-2.31.3-3.71-.6-4.61,2.71-.6,2.1-1,2.91-1,2.91-2.31,4.01-6.11,6.41-7.52,11.53-1.1,4.11-.6,9.22,1.8,12.13,0-1.6.2-3.71.5-5.11,1.6,1.2,2.71,3.61,4.31,5.01s3.41,2.61,5.21,3.31c.2-1.4-.3-3.31,0-4.51,1.3,3.21,4.51,4.61,6.92,6.01,0-1.9-.5-4.31,1.1-3.21.4.3,1,1.6,1.5,2s1.1.8,1.7,1.1c1.8,1.1,2.61,1.4,4.31,0,1.2-1.1,2.71-2.61,3.71-4.01.6,1.2.3,3.21.3,4.61,2,.1,4.41-2.41,5.71-4.31.3,1.1,0,2.31.3,3.41,2.61-.3,7.22-5.11,8.42-8.02,1.2,1.1,2.2,3.61,1.9,5.51,2.1-3.51,2.1-8.82,2.1-13.13l-.2.1Z"/>
        <path class="cls-24" d="M37.79,58.76h0c-2.51,0-4.51-2-4.51-4.51v-6.72h9.12v6.72c0,2.51-2,4.51-4.51,4.51h-.1Z"/>
        <path class="cls-12" d="M59.74,29.2c-.9,1.5-2.31,2.51-3.71,2.81h-1.2c-.4,3.91-1.8,7.52-3.81,10.42-3.81,5.71-9.52,9.12-13.73,8.92h-1c-4.51,0-9.72-3.11-13.33-8.32-2-2.91-3.51-6.41-4.11-10.32h-.3c-1.4-.1-2.91-1.1-3.91-2.61-.2-.3-.3-.5-.4-.8-.2-.4-.3-.7-.4-1.1h0c-.3-1.5,0-2.71,1.2-3.21h0c1-.4,2.31-.1,3.51.7.9-11.93,8.32-22.45,17.54-22.65,2.81,0,5.51.8,7.92,2.31,2.31,1.4,4.31,3.61,6.01,6.31h0c2.41,3.91,4.11,8.92,4.61,13.93h0c.5-.5,1.1-.9,1.7-1.1.8-.4,1.7-.4,2.41-.1,1.6.7,1.9,2.91.6,5.11l.4-.3Z"/>
        <g>
          <path class="cls-14" d="M24.94,23.84c.21,0,.42,0,.53-.32,1.81-3.4,4.89-2.02,4.99-1.91.32,0,.64,0,.85-.32,0-.32,0-.64-.32-.85-1.49-.64-4.78-1.06-6.59,2.44,0,.32,0,.64.21.85h.32v.11Z"/>
          <path class="cls-14" d="M43.42,21.07s.32.21.53,0c2.97-1.17,4.25,1.38,4.25,1.49,0,.21.42.32.64.21.21,0,.32-.42.21-.64-.53-1.27-2.44-3.29-5.52-2.02-.21,0-.42.42-.32.64v.21h.21v.11h0Z"/>
          <path class="cls-14" d="M28.66,26.28c0,1.17.74,2.23,1.59,2.23s1.7-1.06,1.7-2.23-.74-2.23-1.59-2.23-1.7,1.06-1.7,2.23Z"/>
          <path class="cls-14" d="M43.42,26.28c0,1.17.74,2.23,1.59,2.23s1.7-1.06,1.7-2.23-.74-2.23-1.59-2.23-1.7,1.06-1.7,2.23Z"/>
          <path class="cls-5" d="M32.59,41.05c.21.21,1.59,3.29,5.31,3.19,3.61,0,5.1-2.87,5.31-3.19"/>
          <path class="cls-15" d="M40.55,34.78c0,1.81-1.59,3.08-3.51,2.55-1.06-.32-1.81-1.38-1.81-2.55s1.17,1.49,2.66,1.49,2.66-2.97,2.66-1.49h0Z"/>
          <path class="cls-7" d="M49.9,29.36c2.12,0,3.82,1.59,3.72,3.4s-2.02,3.08-4.14,2.97-3.82-1.59-3.72-3.4,2.02-3.08,4.14-2.97Z"/>
          <path class="cls-7" d="M25.68,29.36c2.12,0,3.82,1.59,3.72,3.4s-2.02,3.08-4.14,2.97-3.82-1.59-3.72-3.4,2.02-3.08,4.14-2.97Z"/>
        </g>
        <path class="cls-17" d="M57.23,32.6c-.3-3.21-.8-8.72-1.1-11.23,0-.9-.1-1.7-.2-2.61-.3-6.51-2.41-13.63-7.22-17.24-3.41-2.61-6.51-.4-10.22-1.2-7.12-1.4-15.43,1.7-19.24,8.42-2.31,4.01-2.71,8.72-1.9,13.23,0,0,.5,8.52.3,10.52-.3,3.41-1.2,9.62.9,12.63,1,1.4,4.11,3.71,5.61,4.51.3-2.2-1.7-4.21-2.1-6.31-.5-2.31-.3-4.81-.3-7.22,0-4.31-.4-8.52-.2-12.83v-1.3c.1-.2.2-.3.3-.5,1.1-1.8,2.41-3.41,3.91-4.81,1.6-1.5,3.51-2.31,5.21-3.71,1.6,1.4,3.11,2.91,4.91,4.01,2.2,1.3,5.21,2.41,7.72,2.61-.3-.6-1-1.2-1.5-1.8-.2-.3-.4-.8-.6-1.1,1.3,1.5,3.51,2.71,5.11,3.81,1.5,1.1,3.41,1.6,5.11,2.2.1-.6-1.5-3.31-1.9-4.11.6.8,1.5,1.3,2,2.1.6.8,1,1.7,1.4,2.51h0v.1c.2,4.31-.2,8.52-.2,12.83s.2,4.91-.3,7.22c-.5,2.1-2.51,4.11-2.1,6.31,1.5-.8,4.61-3.11,5.61-4.51,2.1-2.91,1.2-9.22.9-12.63l.1.1Z"/>
      </g>
    </g>
  </g>
</svg>