<?xml version="1.0" encoding="UTF-8"?>
<svg id="Layer_2" data-name="Layer 2" xmlns="http://www.w3.org/2000/svg" viewBox="0 0 75.26 287.83">
  <defs>
    <style>
      .cls-1 {
        fill: #e0a587;
      }

      .cls-2, .cls-3 {
        fill: #603813;
      }

      .cls-4 {
        fill: #d9a2a0;
      }

      .cls-5 {
        fill: #70b5ff;
      }

      .cls-6 {
        fill: #6c3231;
      }

      .cls-7 {
        fill: #db9673;
      }

      .cls-8 {
        fill: #533d24;
      }

      .cls-3 {
        isolation: isolate;
        opacity: .5;
      }

      .cls-9 {
        fill: #98caff;
      }

      .cls-10 {
        fill: #39433e;
      }

      .cls-11 {
        fill: none;
        stroke: #630;
        stroke-linecap: round;
        stroke-miterlimit: 10;
      }
    </style>
  </defs>
  <g id="Layer_1-2" data-name="Layer 1">
    <g id="german-man-slightright-standing">
      <g>
        <path class="cls-6" d="M54.85,204.24h0c-3.83.3-7.24-2-7.88-5.3l-11.4-60.1c-1.07-5.5,3.41-10.6,9.8-11.2h0c6.18-.5,11.72,3.6,12.04,9l4.05,60.8c.21,3.4-2.66,6.4-6.6,6.7v.1Z"/>
        <path class="cls-8" d="M45.05,273.34l-.75,4.3c-.32,1.9.85,3.9,2.98,4.5h0c5.65,1.7,19.6,5.5,26.74,2.7,1.6-.6,1.7-2.6,0-3.3l-19.81-8.2h-9.27.11Z"/>
        <path class="cls-6" d="M54.53,274.14l-9.48-.4,1.7-75.4c.21-3.5,3.62-6.3,7.67-6.1h0c4.05.2,7.14,3.2,6.92,6.8l-6.92,75.1h.11Z"/>
      </g>
      <g>
        <path class="cls-6" d="M32.6,205.54h0c-4.1.1-7.6-2.4-8-5.7l-7.6-60.6c-.7-5.6,4.5-10.4,11.3-10.6h0c6.7-.2,12.2,4.2,12.1,9.7l-.3,60.9c0,3.4-3.3,6.2-7.5,6.3h0Z"/>
        <path class="cls-6" d="M26.8,275.34l-10-.9,7.6-75.1c.5-3.5,4.4-6.1,8.7-5.7h0c4.3.4,7.4,3.6,6.9,7.1l-13.1,74.6h-.1Z"/>
        <path class="cls-8" d="M16.8,274.04l-1.1,4.3c-.5,1.9.6,3.9,2.8,4.7h0c5.8,2,20.4,6.5,28.3,4.1,1.8-.5,2-2.5.3-3.3l-20.5-9.3-9.8-.6v.1Z"/>
      </g>
      <path class="cls-6" d="M58.9,136.74c-6.7,4.2-18.4,11.3-18.4,11.3l-23.5-6.2c-1.6-10-1.9-17.8-1.1-25.7h40c1.5,11.4,2.9,20.5,2.9,20.5l.1.1Z"/>
      <g>
        <rect class="cls-7" x="29.6" y="32.74" width="9" height="17.2"/>
        <g>
          <path class="cls-1" d="M51.2,26.04c-.8,1.3-2.1,2.2-3.2,2.2-1.1,8.8-6.4,15.5-13,16h-.8c-6.9,0-12.6-7-13.7-16.1-1.2.3-2.9-.6-3.8-2.1-1-1.7-.8-3.5.4-4.1,1-.4,2.3,0,3.3,1,.5-6.8,3.5-12.5,7.8-15.3,1.8-1.2,3.9-1.9,6.1-1.9,7.1,0,12.9,7.3,13.8,16.8.9-.7,2-.9,2.8-.6,1.2.6,1.4,2.4.4,4.1h-.1Z"/>
          <path class="cls-1" d="M51.2,26.04c-.8,1.3-2.1,2.2-3.2,2.2v-5.7c1-.7,2-.9,2.8-.6,1.2.6,1.4,2.4.4,4.1Z"/>
        </g>
        <g>
          <path class="cls-4" d="M47.7,29.54c-.4,1.7-.7,3.2-1.3,4.7-.2.6-.4,1-.7,1.6-.9-.7-1.4-1.9-1.3-3,0-1.7,1.5-3,3.2-3.2h.1v-.1Z"/>
          <path class="cls-4" d="M26,28.34c1.9,0,3.4,1.4,3.3,3s-1.8,2.7-3.7,2.6-3.4-1.4-3.3-3,1.8-2.7,3.7-2.6Z"/>
          <path class="cls-2" d="M26.3,20.44c.2,0,.4,0,.5-.3,1.6-3,4.3-1.8,4.4-1.7.3,0,.6,0,.7-.3,0-.3,0-.6-.3-.7-1.3-.6-4.2-.9-5.8,2.2,0,.3,0,.6.2.7h.3v.1Z"/>
          <path class="cls-2" d="M42.6,18.04s.3.2.5,0c2.6-1,3.7,1.2,3.7,1.3,0,.2.4.3.6.2.2,0,.3-.4.2-.6-.5-1.1-2.2-2.9-4.9-1.8-.2,0-.4.4-.3.6v.2h.2v.1Z"/>
          <path class="cls-2" d="M29.6,22.64c0,1,.7,2,1.4,2s1.5-.9,1.5-2-.7-2-1.4-2-1.5.9-1.5,2Z"/>
          <path class="cls-2" d="M42.6,22.64c0,1,.7,2,1.4,2s1.5-.9,1.5-2-.7-2-1.4-2-1.5.9-1.5,2Z"/>
          <path class="cls-11" d="M31.9,34.64c0,.2.7,3,3.6,3.5,2.7.4,4.2-.9,4.4-1.2"/>
          <path class="cls-6" d="M30.9,33.34c.7-1.1,2.2-1.7,3.8-1.8s3.2,0,4.7.3c1.3.3,2.6.9,3.6,1.5.3.2.5.4.6.6.1.5-.6.6-1.1.6-3.9.2-7.5,0-11.2-1.1"/>
          <path class="cls-3" d="M40.6,27.74c.9.9.9,2.3,0,3.3s-2.3.9-3.3,0,1.7.2,2.6-.7c.9-.9-.2-3.5.7-2.6h0Z"/>
        </g>
      </g>
      <path class="cls-6" d="M55.3,6.64c-.6-1.3-2.6-2-4-2.1.5,0,.8-.6.5-1-.2-.3-1.3-.3-1.6-.3-1.6,0-3.2.1-4.7.4.8-1,.2-1.8-1.1-2.1-1.5-.3-3.4.3-4.8.9.7-.9-.3-1.5-1.3-1.7-1.6-.2-2.8.3-4.2.7-.3-1-.6-1.4-1.9-1.3-1.5.1-2.6.7-3.9,1.3-.6-1-1-1.6-2.4-1.4-1.5.2-2.9,1-4,1.9-1.1-2.1-4.7,1.4-4.5,2.9-.7-1.3-1.8.6-1.9,1.2-.3,1,.3,1.9.2,2.8-1.6-.7-1.8,2-1.7,2.7,0,.6.5,1.2.6,1.8,0,.7-.2.7-.5,1.3-.5,1.3,0,2.3.9,3-1.4.6-1.6,2.3-.9,3.4,1,1.9,6.4,5.3,8.7,3.1.9-.8.3-1.4.5-2.3,1.1.6,1.6-1.2,1.7-1.8,0-1-.3-2-.9-2.8,1.5-.1,1.8-1.3,1.5-2.4-.2-.8-.9-1.3-1.5-1.8v-.5c5.2.4,10.4-.5,15.6-1.3,2-.3,3.5.3,4.6,1.8,2.7,3.8,3.7,10.1,3.7,10.1.9-1.8,1.1-4.4,2.6-5.7.7-.6,1.1-1.5,1-2.4,0-.6-.3-1.4.3-1.8.2-.1.4-.2.6-.3.7-.3,1.2-.9,1.3-1.6.1-.5-.2-1.5,0-1.8s.7-.3,1.1-.6c.7-.6.8-1.6.4-2.3h0Z"/>
      <g>
        <path class="cls-1" d="M63.4,146.04l5.7-.3-.6-39.8c-.1-2.4-2.5-4.3-5.3-4.2h0c-2.8.1-5,2.3-4.9,4.7l5,39.6h.1Z"/>
        <path class="cls-1" d="M63.58,158.11v4.1c-.1,2.3,3.3,3.1,4.7,1.2.5-.6.8-1.4,1.1-2.3q.2-.6,0,0c.7-2.5.6-6,0-10.5l-.2-2.2-.2-3.2h0l-5.7.3h0l.3,3.2v.3l-2.9,10.8s-.1,3.8,3.1-1.7h-.2Z"/>
        <path class="cls-9" d="M65.7,108.84h0c2.6-1.2,3.8-4.4,2.8-7l-9.8-40.4c-1-4.2-5.1-6.4-9-4.9h0c-3.8,1.5-5.9,6-4.5,10l14,39.7c1,2.7,4,3.9,6.5,2.6Z"/>
        <polygon class="cls-5" points="70.3 101.94 56.9 102.84 57.3 110.14 70.7 109.24 70.3 101.94"/>
      </g>
      <path class="cls-9" d="M53.6,60.14h0c2.6,0,1.9-2,1.8-3.2l-11-5c-2.8-.5-2.2-1.4-6.1-1.4h0c-3.8,0-5.9.5-4.6,1.3l13.5,7.4c1,.5,3.9.9,6.4.9h0Z"/>
      <path class="cls-10" d="M56,136.74c-8.5,3.4-28.5,1-37-2.3-1.3-.5-2.8-1-4.2-1.5-1.7-.6-2.7-2.4-2.4-4.2l5-24.5c.9-4.4.6-8.9-.7-13.2l-5.3-33.5,11.5-7.4c.5-.4,1-.7,1.5-.9.5-.2,1-.4,1.5-.6.9-.3,2.4-.4,3.3-.3l7.2.6c1.8.1,3.4.8,4.8,1.9l1.8,1.5,1.2,1,1.8,1.5c3.7,1.7,7.1,5.6,7.9,8.7,1.2,3.1,1.1,6.6,1.1,10.2v.3c0,3.7,0,7.4-.2,11.1-.5,14.6,3.3,37.9,4.2,46.5.2,2.2-1,4.3-3,5.1h0Z"/>
      <g>
        <path class="cls-5" d="M29.7,46.24s2.9,2.9,7,2.5c0,0-1,5-4.9,6.7,0,0-3.7-5.1-7-5.9,0,0,1.6-2,5-3.3h-.1Z"/>
        <path class="cls-5" d="M38.4,46.24s-.8,1.8-5.1,2.5c0,0,1.2,4.5,5,6.2,0,0,.6-3.3,3.9-4.1,0,0-1.5-2.5-3.9-4.5l.1-.1Z"/>
      </g>
      <g>
        <path class="cls-1" d="M10,152.24h-6c0,.1-2-41.6-2-41.6,0-2.6,2.3-4.7,5.2-4.8h0c2.9,0,5.4,2,5.4,4.5l-2.6,41.9h0Z"/>
        <path class="cls-1" d="M10.4,164.9l.4,4.3c.2,2.4-3.3,3.5-4.9,1.7-.5-.6-.9-1.4-1.3-2.3q-.27-.6,0,0c-.9-2.6-1.1-6.3-.6-11v-5.6h0l6-.2h0v3.6l3.7,11.1s.4,4-3.3-1.6h0Z"/>
        <path class="cls-9" d="M5.9,113.94h0c-2.8-.9-4.5-4-3.8-6.9l4.9-43.5c.5-4.5,4.5-7.4,8.8-6.4h0c4.2,1,6.9,5.4,6,9.7l-9.4,43.4c-.7,2.9-3.6,4.6-6.4,3.7h-.1Z"/>
        <polygon class="cls-5" points="0 106.54 14 106.44 14.1 114.14 0 114.34 0 106.54"/>
      </g>
    </g>
  </g>
</svg>