<?xml version="1.0" encoding="UTF-8"?>
<svg id="Layer_2" data-name="Layer 2" xmlns="http://www.w3.org/2000/svg" viewBox="0 0 93.62 227.37">
  <defs>
    <style>
      .cls-1, .cls-2 {
        fill: #603813;
      }

      .cls-3 {
        fill: #273758;
      }

      .cls-4 {
        fill: #e6e6e6;
      }

      .cls-5 {
        fill: #c69696;
      }

      .cls-6 {
        fill: #d9a2a0;
      }

      .cls-7 {
        fill: #783640;
      }

      .cls-8 {
        fill: #fff;
      }

      .cls-2 {
        isolation: isolate;
        opacity: .5;
      }

      .cls-9 {
        fill: #d9b6b6;
      }

      .cls-10 {
        fill: #466e9f;
      }

      .cls-11 {
        fill: #d9baba;
      }

      .cls-12 {
        fill: #d38a17;
      }
    </style>
  </defs>
  <g id="Layer_1-2" data-name="Layer 1">
    <g id="boy-waving">
      <g>
        <path class="cls-9" d="M26.25,97.23h0c-3.11.09-5.3-3.66-4.39-7.41l6.49-23.5c.91-3.75,4.02-5.85,7.04-4.85h0c3.38,1.19,5.12,6.13,3.47,10.15l-8.96,21.76c-.73,1.92-1.92,3.75-3.57,3.84h-.09Z"/>
        <path class="cls-4" d="M30.73,62.12c-3.02,2.74-6.86,8.41-9.78,20.39l11.8,5.85,1.65-4.66c3.84-7.13,6.77-13.72,6.13-18.29-.55-4.39-6.49-6.22-9.88-3.2l.09-.09Z"/>
        <g>
          <path class="cls-9" d="M28.12,95.97h0c.51-1.3.51-2.88-.1-4.25l-11.9-26.96-5.09,3.78,9.35,26.67c1.47,4.11,6.28,4.56,7.84.75l-.09.02Z"/>
          <path class="cls-9" d="M12.51,56.39l3.8,8.89-5.09,3.78-.06-.36c-7.63-2.18-9.89-7.63-9.89-7.63-2.23-5.27-1.1-6.21.3-6.18.93.02,1.78.61,2.48,1.42,2.86,3.58,8.24,6.16,8.24,6.16-2.15-7.98.33-6,.33-6l-.11-.07Z"/>
        </g>
      </g>
      <g>
        <path class="cls-9" d="M72.7,89.73h0c-.73,1.19-1.01,2.74-.64,4.21l7.04,28.62,5.67-2.83-4.57-27.89c-.73-4.3-5.4-5.58-7.59-2.1h.09Z"/>
        <path class="cls-9" d="M75.54,97.23h0c3.11.09,5.3-3.66,4.39-7.41l-6.49-23.5c-.91-3.75-4.02-5.85-7.04-4.85h0c-3.38,1.19-5.12,6.13-3.47,10.15l8.96,21.76c.73,1.92,1.92,3.75,3.57,3.84h.09Z"/>
        <path class="cls-4" d="M71.05,62.12c3.02,2.74,6.86,8.41,9.78,20.39l-11.8,5.85-1.65-4.66c-3.84-7.13-6.77-13.72-6.13-18.29.55-4.39,6.49-6.22,9.88-3.2l-.09-.09Z"/>
        <path class="cls-9" d="M81.21,131.43l-2.19-9.42,5.67-2.83v.37c7.13,3.47,8.41,9.24,8.41,9.24,1.28,5.58,0,6.31-1.37,6.04-.91-.18-1.65-.91-2.19-1.83-2.19-4.02-7.04-7.5-7.04-7.5.73,8.23-1.37,5.85-1.37,5.85l.09.09Z"/>
      </g>
      <g>
        <path class="cls-9" d="M67.67,182.73c-1.19,17.1-3.57,34.84-4.11,34.84l-5.3-.37-1.65-35.21-1.28-26.43v-1.1c0-.37,0-.73.18-1.1.73-2.83,3.29-4.85,6.31-4.57,3.38.27,5.85,3.11,5.67,6.49,1.19,5.3.91,16.28.18,27.52v-.09Z"/>
        <path class="cls-4" d="M65.84,202.58c-1.01,8.69-1.92,15-2.29,15l-5.3-.37-.73-14.63h8.32Z"/>
        <path class="cls-3" d="M56.7,222.88c.09,1.1.64,1.92,1.46,2.47.55.37,20.76,2.19,21.31,2.01,4.57-2.19-16.09-10.24-16.09-10.24l-5.58.18s-1.19,4.48-1.01,5.67l-.09-.09Z"/>
        <g>
          <path class="cls-9" d="M68.4,120.83l-.73,24.87-.18,7.5c-.09,3.47-2.83,6.31-6.31,6.49-3.66.18-6.04-2.65-6.31-6.31l-.82-7.68-2.47-23.5v-.73c0-4.39,3.38-8.05,7.77-8.41,4.66-.37,8.78,3.11,9.14,7.77h-.09Z"/>
          <path class="cls-10" d="M68.4,120.83l.37,23.96c0,.46-.37.91-.91.91h-15.27c-.46,0-.91-.37-.91-.91l-.18-22.59v-.73c0-4.39,3.38-8.05,7.77-8.41,4.66-.37,8.78,3.11,9.14,7.77Z"/>
        </g>
      </g>
      <g>
        <path class="cls-9" d="M32.37,182.73c1.19,17.1,3.57,34.84,4.11,34.84l5.3-.37,1.65-35.21,1.28-26.43v-1.1c0-.37,0-.73-.18-1.1-.73-2.83-3.29-4.85-6.31-4.57-3.38.27-5.94,3.11-5.67,6.49-1.19,5.3-.91,16.28-.18,27.52v-.09Z"/>
        <path class="cls-4" d="M42.43,202.58l-.73,14.63-5.3.37c-.37,0-1.28-6.31-2.29-15h8.32Z"/>
        <path class="cls-3" d="M43.07,222.88c-.09,1.1-.64,1.92-1.46,2.47-.55.37-20.76,2.19-21.31,2.01-4.57-2.19,16.09-10.24,16.09-10.24l5.58.18s1.19,4.48,1.01,5.67l.09-.09Z"/>
        <g>
          <path class="cls-9" d="M48.38,121.56v.64l-2.19,23.59-.73,7.59c-.27,3.66-2.65,6.49-6.31,6.4-3.47-.18-6.22-2.93-6.4-6.4l-.27-7.5-1.01-24.78c.37-4.66,4.39-8.14,9.05-7.86,4.48.27,7.86,4.02,7.86,8.41v-.09Z"/>
          <path class="cls-10" d="M48.38,121.56v.64l-.73,22.77c0,.46-.37.82-.82.82h-14.91c-.46,0-.82-.37-.82-.82l.37-23.96c.37-4.66,4.39-8.14,9.05-7.86,4.48.27,7.86,4.02,7.86,8.41h0Z"/>
        </g>
      </g>
      <path class="cls-4" d="M69.68,61.11l-1.01,5.94-3.75,22.86c-.91,3.57-1.1,7.22-.55,10.79h-28.71c1.37-4.11,1.74-8.41,1.01-12.71l-3.57-20.67-1.1-6.13,1.1-.64,14.36-9.05h8.32l12.98,8.96,1.01.64h-.09Z"/>
      <path class="cls-10" d="M68.31,123.29l-16,6.86h-4.76l-16-6.68c-.46-4.57.27-11.52,1.55-16,.37-1.28.82-2.56,1.28-3.66.46-1.01.91-2.01,1.19-3.11h28.71c.27,1.65.64,3.38,1.19,4.94.64,1.92,1.28,4.3,1.65,7.13.46,2.74,1.46,6.95,1.01,10.52h.18Z"/>
      <path class="cls-10" d="M58.98,53.71h0c-2.19,7.32-12.44,7.59-15.09.46,0,0,0-.18-.09-.27l3.75-2.38h8.32l3.2,2.19h-.09Z"/>
      <g>
        <path class="cls-5" d="M51.67,54.89h0c-2.29,0-4.11-1.83-4.11-4.11v-6.13h8.32v6.13c0,2.29-1.83,4.11-4.11,4.11h-.09Z"/>
        <path class="cls-11" d="M71.69,27.92c-.82,1.37-2.1,2.29-3.38,2.56h-1.1c-.37,3.57-1.65,6.86-3.47,9.51-3.47,5.21-8.69,8.32-12.53,8.14h-.91c-4.11,0-8.87-2.83-12.16-7.59-1.83-2.65-3.2-5.85-3.75-9.42h-.27c-1.28-.09-2.65-1.01-3.57-2.38-.18-.27-.27-.46-.37-.73-.18-.37-.27-.64-.37-1.01h0c-.27-1.37,0-2.47,1.1-2.93h0c.91-.37,2.1-.09,3.2.64.82-10.88,7.59-20.48,16-20.67,2.56,0,5.03.73,7.22,2.1,2.1,1.28,3.93,3.29,5.49,5.76h0c2.19,3.57,3.75,8.14,4.21,12.71h0c.46-.46,1.01-.82,1.55-1.01.73-.37,1.55-.37,2.19-.09,1.46.64,1.74,2.65.55,4.66l.37-.27Z"/>
        <g>
          <path class="cls-1" d="M40.04,22.56c.18,0,.36,0,.46-.27,1.55-2.92,4.19-1.73,4.28-1.64.27,0,.55,0,.73-.27,0-.27,0-.55-.27-.73-1.28-.55-4.1-.91-5.65,2.1,0,.27,0,.55.18.73h.27v.09Z"/>
          <path class="cls-1" d="M55.89,20.2s.27.18.46,0c2.55-1,3.64,1.18,3.64,1.28,0,.18.36.27.55.18.18,0,.27-.36.18-.55-.46-1.09-2.1-2.82-4.74-1.73-.18,0-.36.36-.27.55v.18h.18v.09h0Z"/>
          <path class="cls-1" d="M43.23,24.66c0,1,.64,1.91,1.37,1.91s1.46-.91,1.46-1.91-.64-1.91-1.37-1.91-1.46.91-1.46,1.91Z"/>
          <path class="cls-1" d="M55.89,24.66c0,1,.64,1.91,1.37,1.91s1.46-.91,1.46-1.91-.64-1.91-1.37-1.91-1.46.91-1.46,1.91Z"/>
          <g>
            <path class="cls-3" d="M56.08,37.23s-.09,2.28-1.55,3.74c-.82.82-2,1.55-3.74,1.55,0,0-2.55.18-4.1-1.55-.73-.73-1.18-1.91-1.18-3.74h10.57Z"/>
            <path class="cls-7" d="M54.53,40.97c-.82.82-2,1.55-3.74,1.55,0,0-2.55.18-4.1-1.55,1.55-.73,4.65-1.55,7.84,0Z"/>
            <polygon class="cls-8" points="54.89 37.23 54.25 38.51 46.87 38.51 46.33 37.23 54.89 37.23"/>
          </g>
          <path class="cls-2" d="M53.43,31.95c0,1.28-1,2.28-2.28,2.28s-2.28-1-2.28-2.28,1,1.28,2.28,1.28,2.28-2.55,2.28-1.28Z"/>
          <path class="cls-6" d="M61.45,27.39c1.82,0,3.28,1.37,3.19,2.92s-1.73,2.64-3.55,2.55-3.28-1.37-3.19-2.92,1.73-2.64,3.55-2.55Z"/>
          <path class="cls-6" d="M40.68,27.39c1.82,0,3.28,1.37,3.19,2.92s-1.73,2.64-3.55,2.55-3.28-1.37-3.19-2.92,1.73-2.64,3.55-2.55Z"/>
        </g>
        <path class="cls-12" d="M69.41,13.47c-1.46-4.94-4.39-9.24-9.24-11.61-3.93-1.92-17.01-5.03-24.23,6.77-2.93,4.76-3.57,10.79-3.57,16.28,0,4.76.82,9.42,3.75,13.17.46.55,1.01,1.1,1.55,1.55,0,0-.64-3.29-1.1-4.66-1.46-4.85-1.28-10.52.27-15.36.27-.73.55-1.37.82-2.1.09-.37,1.01-2.01.91-2.29,1.55,3.75,6.68,5.21,10.33,5.85-.64-1.01-1.65-1.55-2.29-2.65-.64-1.1-1.01-2.29-1.37-3.38,4.39,1.65,8.96,4.76,13.99,4.48-1.1-1.1-4.02-3.29-3.93-5.12,1.1,1.55,3.02,2.01,4.76,2.65,1.1.37,2.29.64,3.38,1.01.91.27.91.18,1.19,1.01,1.65,5.49,2.38,12.07,1.1,17.74.27-1.37,2.56-4.02,3.02-5.3.55-1.55,1.01-3.11,1.37-4.76.64-3.2.64-6.58.18-9.78-.18-1.19-.46-2.38-.73-3.47h-.18Z"/>
      </g>
    </g>
  </g>
</svg>