<?xml version="1.0" encoding="UTF-8"?>
<svg id="Layer_2" data-name="Layer 2" xmlns="http://www.w3.org/2000/svg" viewBox="0 0 88.8 162.94">
  <defs>
    <style>
      .cls-1, .cls-2, .cls-3 {
        fill: none;
      }

      .cls-2 {
        stroke: #282828;
        stroke-width: .75px;
      }

      .cls-2, .cls-3 {
        stroke-linecap: round;
        stroke-miterlimit: 10;
      }

      .cls-4 {
        fill: #e0a587;
      }

      .cls-5 {
        fill: #dbd4c6;
      }

      .cls-6, .cls-7 {
        fill: #603813;
      }

      .cls-8 {
        fill: #d9a2a0;
      }

      .cls-9 {
        fill: #5a4a30;
      }

      .cls-10 {
        fill: #929292;
      }

      .cls-11 {
        fill: #fff;
      }

      .cls-12 {
        fill: #6c3231;
      }

      .cls-13 {
        opacity: .69;
      }

      .cls-14 {
        opacity: .4;
      }

      .cls-15 {
        opacity: .37;
      }

      .cls-16 {
        fill: #db9673;
      }

      .cls-7 {
        isolation: isolate;
        opacity: .5;
      }

      .cls-17 {
        fill: #d3d3d3;
      }

      .cls-18 {
        fill: #f0eada;
      }

      .cls-3 {
        stroke: #630;
      }
    </style>
  </defs>
  <g id="Layer_1-2" data-name="Layer 1">
    <g id="german-man-cook-cut">
      <g>
        <rect class="cls-16" x="32.49" y="84.26" width="10.2" height="13.5"/>
        <path class="cls-4" d="M54.99,64.06c-.8-.4-1.9,0-2.9.6-.9-9.5-7-16.9-14.4-16.9s-13.7,7.6-14.5,17.4c-1.1-1-2.4-1.5-3.4-1-1.3.6-1.5,2.4-.4,4.1,1,1.6,2.7,2.5,4,2.1,1.1,9.2,7.1,16.2,14.4,16.2s13.2-7,14.4-16.2c1.2,0,2.5-.9,3.4-2.2,1.1-1.7.9-3.5-.4-4.1,0,0-.2,0-.2,0Z"/>
        <g>
          <path class="cls-6" d="M48.69,61.96c-.2,0-.3,0-.4-.2-1.6-2.8-4.1-1.7-4.2-1.7-.2,0-.5,0-.7-.2,0-.2,0-.5.2-.7,1.3-.5,4-.9,5.6,2.1,0,.2,0,.5-.2.7h-.3Z"/>
          <path class="cls-6" d="M27.79,61.96c.2,0,.3,0,.4-.2,1.6-2.8,4.1-1.7,4.2-1.7.2,0,.5,0,.7-.2,0-.2,0-.5-.2-.7-1.3-.5-4-.9-5.6,2.1,0,.2,0,.5.2.7,0,0,.3,0,.3,0Z"/>
          <path class="cls-6" d="M30.99,63.96c0,.9.6,1.9,1.4,1.9s1.5-.9,1.5-1.9-.6-1.9-1.4-1.9-1.5.9-1.5,1.9Z"/>
          <path class="cls-6" d="M43.49,63.96c0,.9.6,1.9,1.4,1.9s1.5-.9,1.5-1.9-.6-1.9-1.4-1.9-1.5.9-1.5,1.9Z"/>
          <path class="cls-3" d="M33.59,75.86c.2.2,1.4,2.8,4.5,2.7,3.1,0,4.3-2.4,4.5-2.7"/>
          <path class="cls-12" d="M29.49,74.96c.7-1.1,2.5-1.8,4.4-2.1s3.8-.4,5.7,0c1.5.2,3.2.7,4.4,1.2.3,0,.7.3.8.6.2.5-.6.6-1.2.7-4.6.5-8.9.7-13.5,0"/>
          <path class="cls-7" d="M40.19,69.76c0,1.3-.9,2.2-2.2,2.2s-2.2-.9-2.2-2.2.9,1.3,2.2,1.3,2.2-2.5,2.2-1.3Z"/>
          <path class="cls-8" d="M48.89,66.76c1.8,0,3.3,1.4,3.2,2.8s-1.7,2.6-3.6,2.5-3.3-1.4-3.2-2.8,1.7-2.6,3.6-2.5Z"/>
          <path class="cls-8" d="M28.29,66.76c1.8,0,3.3,1.4,3.2,2.8s-1.7,2.6-3.6,2.5-3.3-1.4-3.2-2.8,1.7-2.6,3.6-2.5Z"/>
        </g>
        <g>
          <line class="cls-2" x1="22.58" y1="62.66" x2="27.67" y2="70.16"/>
          <path class="cls-2" d="M24.26,72.02s1.81,5.06,2.88,7.67"/>
          <line class="cls-2" x1="53.76" y1="62.84" x2="48.61" y2="70.16"/>
          <path class="cls-2" d="M51.89,72.19s-1.68,4.89-2.75,7.5"/>
          <path class="cls-18" d="M38.14,85.71s4.93.03,11.19-6.02l-.27-8.88c-.02-.63-.45-1.16-1.05-1.29l-9.87-2.17-9.87,2.17c-.6.13-1.03.66-1.05,1.29l-.27,8.88c6.26,6.05,11.19,6.02,11.19,6.02Z"/>
        </g>
        <path class="cls-12" d="M54.69,47.46c.6-.3,2.5-.5,1.9-1.3-.9-1.2-4-.4-5.4-.3.6-.4,1.6-.7,1.1-1.4-1.1-1.6-4.6-.7-6.3-.5.7-.7.5-1.4-.6-1.6-2.1-.5-4.4.2-6.3.8-.4-1.4-1.5-1.6-3.3-1.2-.9.2-1.5.7-2.3.9-.7.2-.5.2-.8-.2-1-1.1-1.5-1.6-3.2-1.1-2.1.6-2.8,1.7-3.9,3-.6-.4-1.7-.9-2.3,0-.5.7.3,1.8.8,2.4-1,.3-1.8.3-1.8,1.5s1.4,2.5.5,3c-1.2.6-2.6,0-2.3,1.7.2,1.4,1.6,2.3,1.7,3.7-.6,0-1.8,0-2.3.4-1.1.6-.3,1.9.3,2.5s2,1.4,1.6,2c-.3.4-1.5,0-1.9.6s0,2,.3,2.5c.2.5,1.5,1.3,1.5,1.7s-.9.7-1,1.2c0,.6.2,1.1.6,1.6.5.5.2,2.7,3.2,2,.6,0,2.2-1.8,1.8-2.2s-.7-.4-.8-.5c-.3-.5,1.2-4.5-.7-4,1.7-.8,3.5-3.8,1-4.8.8-.6,1.7-1.1,1.9-2.1,0-.5,0-1.3-.3-1.7-.2-.4-.6-.5-.9-.9,1-.5,3.9-1.6,3.6-2.7,1.2,0,2.7-.5,3.7-.9,0,0,.7-.4,1.1-.7.4.5,1.3.7,1.9.8,1,.2,3.7.2,4.9-.5.3,0,.7.2.8.2.8.2,2.4.2,3.2,0,.4.6,1.5,1.7,1.8,2.1.3.4.6,1.2,1.1,1.6,0,1.4.5,2.9,1,4.2,0,.2.4.7.4.9,0,.3-.8.8-.9,1.2-.4,1.1.3,2.3.5,3.3,0,.7-.2,1.3,0,2,0,.8.7,3.8,2.1,3.4,1.7-.4,0-2,.3-2.7,0-.4.6-.7.8-1,.6-.6,1.1-1.3,1.4-2.1.5-1.1.6-2-.4-2.8.8-1.1,4.1-3.8.9-4.4,1.5-1.3.7-4.5-.9-5.6,1.1-.5,2.8-1,3.2-2.1.5-1.2-1.2-1.8-2.4-1.7v-.2s.1,0,.1,0Z"/>
      </g>
      <g>
        <g>
          <path class="cls-18" d="M63.27,144.78l15.61,6.43s-7.35-43.14-17.61-54.68c-.41-.47-.91-.84-1.45-1.12-5.2-2.65-14.37-5.66-17.1-6.53h-9.56c-3.32,1.18-17.34,6.4-19.3,10.9-2.22,5.1-9.74,35.59-9.74,35.59l14.83-2.07-3.06,28.94s31.2.56,48.56.71c-2.09-17.01-4.86-26.19-4.86-26.19l3.68,8.03Z"/>
          <path class="cls-5" d="M60.66,126.24s.06-.4.05-1.13c0-.72-.05-1.77-.14-3.06-.18-2.58-.59-6.13-1.36-9.99-.77-3.86-1.75-7.29-2.58-9.71-.41-1.22-.77-2.19-1.04-2.85-.27-.66-.44-1.02-.48-1-.09.04.4,1.54,1.12,4,.72,2.45,1.62,5.87,2.39,9.7.76,3.83,1.24,7.35,1.53,9.9.29,2.55.42,4.14.51,4.14Z"/>
          <ellipse class="cls-9" cx="32.02" cy="111.72" rx=".97" ry="1.82" transform="translate(-2.18 .65) rotate(-1.12)"/>
          <ellipse class="cls-9" cx="45.15" cy="111.72" rx=".97" ry="1.82" transform="translate(-2.17 .9) rotate(-1.12)"/>
          <ellipse class="cls-9" cx="32.02" cy="127.21" rx=".97" ry="1.82" transform="translate(-2.48 .65) rotate(-1.12)"/>
          <ellipse class="cls-9" cx="45.15" cy="127.21" rx=".97" ry="1.82" transform="translate(-2.48 .91) rotate(-1.12)"/>
          <g class="cls-13">
            <path class="cls-18" d="M41.03,146.19c-6.37-.2-12.74-.48-19.11-.3-1.47.04-2.93.09-4.4.18l-1.6,14.29c4.78,1.49,9.85,1.89,14.79,1.14,1.76-.27,3.53-.68,5.11-1.57s2.96-2.28,3.6-4.06c2.47.89,5.05,1.43,7.65,1.58.72.04,1.45.05,2.13-.21.67-.26,1.28-.84,1.41-1.6,4.18,1.15,8.6,1.24,12.81.27-.61-3.25-1.21-6.32-1.75-9-6.88-.24-13.76-.52-20.64-.74Z"/>
          </g>
          <polyline class="cls-18" points="63.27 144.86 70.8 161.81 80.54 161.67 75.5 134.72"/>
          <path class="cls-5" d="M36.44,88.89l-.11,6.92-9.36,2.81c-.19.06-.32.21-.31.38l3.82,63.46c.31.01.62.04.93.06l-3.8-63.27,9.34-2.8c.18-.05.3-.2.31-.36l.11-7.2s-.92,0-.92,0Z"/>
        </g>
        <g>
          <ellipse class="cls-10" cx="53.45" cy="149.78" rx="35.35" ry="4.11"/>
          <path class="cls-10" d="M55.6,113.99c0,2.36-.55,4.28-1.22,4.28s-1.22-1.91-1.22-4.28.55-2.79,1.22-2.79c.67,0,1.22.43,1.22,2.79Z"/>
          <path class="cls-17" d="M24.37,149.44s35.46,4.38,60.06-.09c-1.57-5.84-3.74-32.57-30.99-34.28-27.8,2.29-29.06,34.37-29.06,34.37Z"/>
        </g>
        <g>
          <path class="cls-18" d="M32.98,27.96l-10.3.57-3.47,24.69s21.3,3.82,37.66-.87c-.21-8.21-2.12-21.74-2.35-24.89l-21.54.5Z"/>
          <g class="cls-15">
            <path class="cls-5" d="M54.53,27.46l-21.54.5-10.3.57-1.66,11.8c1.94.42,3.96.41,5.89-.07,3.57-.89,6.77-3.38,8.67-6.74-.74,1.3,3.25,4.14,3.98,4.54,1.91,1.07,3.55,2.31,5.7,2.86,3.58.92,6.86,1.53,10.57.61.09-.02.17-.05.25-.07-.63-6.17-1.41-12.07-1.55-14.02Z"/>
          </g>
          <path class="cls-5" d="M38.04,49.52c-6.07.11-12.19.03-18.2-.79l-.63,4.48s21.3,3.82,37.66-.87c-.04-1.51-.14-3.19-.27-4.96-5.98,1.67-12.34,2.02-18.56,2.13Z"/>
          <path class="cls-18" d="M12.85,28.47c-3.36-5.77-1.32-14.13,4.95-16.16,2.38-.77,4.57-.33,6.97.07-.32-3.29,1.09-6.63,3.39-8.84C30.65,1.16,34.07.04,37.37,0c3.48-.04,5.96,1.33,7.87,4.53,1.48,2.49,1.4,4.78,1.88,7.59.8-.79,1.88-1.18,2.96-1.3,3.43-.38,7.02.43,9.92,2.45,4.65,3.24,7.04,11.19,4.02,16.5-.37.66-.83,1.25-1.29,1.85-1.95,2.52-4.41,3.93-7.44,4.58-3.73.81-7,.11-10.55-.91-2.14-.62-3.74-1.9-5.63-3.03-.72-.43-4.63-3.37-3.86-4.66-1.98,3.31-5.24,5.7-8.83,6.49-3.59.79-7.46-.04-10.5-2.24-1.27-.93-2.29-2.08-3.05-3.37Z"/>
        </g>
        <g>
          <path class="cls-18" d="M4.12,135.45L.1,154.42c-.5,2.35,1.01,4.65,3.24,4.93,6.78.87,21.02,1.59,35.88-4.46-.75-6.11-.75-8.62-.75-8.62,0,0-11.78-1.41-20.11-1.06l1.26-13.92-15.49,4.16Z"/>
          <path class="cls-5" d="M17.31,146.31s.19-.58.43-1.66c.24-1.08.55-2.64.9-4.59.7-3.89,1.5-9.3,2.08-15.32.57-6.02.81-11.49.86-15.45.03-1.98.02-3.58-.02-4.69-.03-1.11-.07-1.72-.11-1.72s-.08.61-.13,1.72c-.06,1.68-.12,3.24-.18,4.68-.16,3.95-.46,9.4-1.03,15.4-.57,6-1.31,11.4-1.9,15.3-.22,1.42-.46,2.96-.71,4.62-.17,1.09-.24,1.7-.2,1.71Z"/>
          <path class="cls-5" d="M29.53,146.04c0-.08-1.33-.29-3.51-.36-2.18-.08-5.21.03-8.51.54-3.3.52-6.23,1.36-8.29,2.11-2.07.75-3.29,1.36-3.27,1.43.03.09,1.31-.37,3.39-1,2.08-.63,4.99-1.39,8.26-1.9,3.27-.51,6.25-.69,8.42-.73,2.17-.04,3.51,0,3.52-.09Z"/>
          <g class="cls-14">
            <path class="cls-11" d="M42.85,125.24c1.41-1.96,2.93-3.79,4.55-5.47-8.85,4.91-16.62,13.04-19.18,23.37,1.8.26,3.6.43,5.41.55,1.1-6.83,5.4-13.13,9.22-18.44Z"/>
          </g>
          <g>
            <line class="cls-1" x1="36" y1="146.2" x2="36.7" y2="155.85"/>
            <polygon class="cls-10" points="35.72 146.19 36.37 146.13 37.07 155.79 36.43 155.84 35.72 146.19"/>
          </g>
        </g>
        <path class="cls-4" d="M52.43,146.84l4.3-.4c2.4-.2,3.5,3.3,1.7,4.9-.6.5-1.4.9-2.3,1.3s-.6.3,0,0c-2.6.9-6.3,1.1-11,.6h-5.6l-.2-6h3.6l11.1-3.7s4-.4-1.6,3.3Z"/>
      </g>
    </g>
  </g>
</svg>