<?xml version="1.0" encoding="UTF-8"?>
<svg id="Layer_2" data-name="Layer 2" xmlns="http://www.w3.org/2000/svg" viewBox="0 0 96.7 233.86">
  <defs>
    <style>
      .cls-1, .cls-2 {
        fill: #603813;
      }

      .cls-3 {
        fill: #273758;
      }

      .cls-4 {
        fill: #e6e6e6;
      }

      .cls-5 {
        fill: #c69696;
      }

      .cls-6 {
        fill: #d9a2a0;
      }

      .cls-7 {
        fill: #8b2b0e;
      }

      .cls-8 {
        fill: #783640;
      }

      .cls-9 {
        fill: #fff;
      }

      .cls-10 {
        fill: #3f6138;
      }

      .cls-2 {
        isolation: isolate;
        opacity: .5;
      }

      .cls-11 {
        fill: #d9b6b6;
      }

      .cls-12 {
        fill: #d9baba;
      }
    </style>
  </defs>
  <g id="Layer_1-2" data-name="Layer 1">
    <g id="s-names-girl-waving-german">
      <g>
        <path class="cls-11" d="M43.2,158.84v1.14l-3.22,27.24-4.26,36.23h-5.49c-.57,0-1.8-18.54-1.8-36.23s.57-22.98,2.08-28.38c0-3.5,2.84-6.34,6.34-6.34s5.68,2.27,6.24,5.2v1.14h.09Z"/>
        <path class="cls-3" d="M36.96,229.21c-.09,1.14-.66,1.99-1.51,2.55-.57.38-21.47,2.27-22.04,2.08-4.73-2.27,16.65-10.59,16.65-10.59l5.77.19s1.23,4.63,1.04,5.86l.09-.09Z"/>
        <path class="cls-11" d="M37.81,165.27h0c-3.59.38-6.81-2.08-7.57-5.58l-6.34-32.82c-.38-4.82,3.22-8.99,8.04-9.46h0c4.82-.38,8.99,3.22,9.46,8.04l1.89,32.35c.28,3.78-1.7,7.09-5.39,7.47h-.09Z"/>
      </g>
      <g>
        <path class="cls-11" d="M57.77,187.22c0,17.69-1.23,36.23-1.8,36.23h-5.49l-4.26-36.23-3.12-27.24v-.57c0-.19-.09-.38-.09-.57,0-.38,0-.76.09-1.14.57-2.93,3.12-5.2,6.24-5.2s6.34,2.84,6.34,6.34c1.61,5.39,2.08,16.74,2.08,28.38h0Z"/>
        <path class="cls-3" d="M49.26,229.21c.09,1.14.66,1.99,1.51,2.55.57.38,21.47,2.27,22.04,2.08,4.73-2.27-16.65-10.59-16.65-10.59l-5.77.19s-1.23,4.63-1.04,5.86l-.09-.09Z"/>
        <path class="cls-11" d="M48.5,165.27h0c3.59.38,6.81-2.08,7.57-5.58l6.34-32.82c.38-4.82-3.22-8.99-8.04-9.46h0c-4.82-.38-8.99,3.22-9.46,8.04l-1.89,32.35c-.28,3.78,1.7,7.09,5.39,7.47h.09Z"/>
      </g>
      <path class="cls-11" d="M58.81,91.68c-1.42,5.39-1.14,11.07.66,16.36.66,1.99,1.32,4.45,1.7,7.38.47,2.84,1.14,7.28,1.14,10.88l-17.88,7.09h-2.65l-17.88-6.81c.09-4.92.66-12.11,1.99-16.65.38-1.32.85-2.65,1.32-3.78,2.36-5.11,3.31-10.78,2.36-16.36l-3.69-21.38-1.14-6.34,1.14-.66,14.85-9.36h8.61l13.43,9.27,1.04.66-1.04,6.15-3.88,23.65-.09-.09Z"/>
      <path class="cls-4" d="M58.81,91.68c-1.42,5.39-1.14,11.07.66,16.36.66,1.99,1.32,4.45,1.7,7.38H25.9v-5.49c.38-1.32.85-2.65,1.32-3.78,2.36-5.11,3.31-10.78,2.36-16.36l-3.69-21.38-1.04-6.34,12.01-7.57,3.88-2.46h8.61l3.31,2.27,11.16,7.66-1.04,6.15-3.88,23.65-.09-.09Z"/>
      <path class="cls-10" d="M28.42,102.66s-11.13,28.38-10.65,54.95c0,1.42.86,2.55,2.02,2.93,7.58,1.99,35.32,8.42,48.66-1.61.86-.66,1.25-1.8,1.15-2.93-1.06-7.76-5.38-38.5-11.42-53.25-9.79,4.07-19.68,3.88-29.85,0l.1-.09Z"/>
      <g>
        <path class="cls-11" d="M21.64,91.49h0c.76,1.23,1.04,2.84.66,4.35l-7.28,29.61-5.86-2.93,4.73-28.85c.76-4.45,5.58-5.77,7.85-2.18h-.09Z"/>
        <path class="cls-11" d="M18.71,99.25h0c-3.22.09-5.49-3.78-4.54-7.66l6.72-24.31c.95-3.88,4.16-6.05,7.28-5.01h0c3.5,1.23,5.3,6.34,3.59,10.5l-9.27,22.51c-.76,1.99-1.99,3.88-3.69,3.97h-.09Z"/>
        <path class="cls-4" d="M23.34,62.93c-3.12,2.84-7.09,8.7-10.12,21.09l12.2,6.05,1.7-4.82c3.97-7.38,7-14.19,6.34-18.92-.57-4.54-6.72-6.43-10.22-3.31l.09-.09Z"/>
        <path class="cls-11" d="M12.84,134.63l2.27-9.74-5.86-2.93v.38c-7.38,3.59-8.7,9.55-8.7,9.55-1.32,5.77,0,6.53,1.42,6.24.95-.19,1.7-.95,2.27-1.89,2.27-4.16,7.28-7.76,7.28-7.76-.76,8.51,1.42,6.05,1.42,6.05l-.09.09Z"/>
      </g>
      <g>
        <path class="cls-11" d="M69.69,99.25h0c3.22.09,5.49-3.78,4.54-7.66l-6.72-24.31c-.95-3.88-4.16-6.05-7.28-5.01h0c-3.5,1.23-5.3,6.34-3.59,10.5l9.27,22.51c.76,1.99,1.99,3.88,3.69,3.97h.09Z"/>
        <path class="cls-4" d="M65.05,62.93c3.12,2.84,7.09,8.7,10.12,21.09l-12.2,6.05-1.7-4.82c-3.97-7.38-7-14.19-6.34-18.92.57-4.54,6.72-6.43,10.22-3.31l-.09-.09Z"/>
        <g>
          <path class="cls-11" d="M67.62,97.52h0c-.53-1.34-.53-2.98.1-4.4l12.31-27.89,5.27,3.91-9.67,27.59c-1.52,4.25-6.5,4.71-8.11.78l.09.02Z"/>
          <path class="cls-11" d="M83.77,56.57l-3.93,9.2,5.27,3.91.07-.37c7.89-2.26,10.23-7.9,10.23-7.9,2.31-5.45,1.13-6.43-.31-6.39-.96.02-1.84.64-2.56,1.47-2.96,3.7-8.52,6.37-8.52,6.37,2.22-8.25-.35-6.21-.35-6.21l.11-.08Z"/>
        </g>
      </g>
      <g>
        <path class="cls-7" d="M67.32,36.07c0-4.45-2.08-7.85-3.78-11.45-.76-1.61-1.51-4.45-2.65-5.68-1.51-1.61-5.11-.85-7-.95-7-.28-14,.19-21,1.04-2.18.28-3.5-.57-4.35,2.55-.57,1.99-.95,2.74-.95,2.74-2.18,3.78-5.77,6.05-7.09,10.88-1.04,3.88-.57,8.7,1.7,11.45,0-1.51.19-3.5.47-4.82,1.51,1.14,2.55,3.41,4.07,4.73s3.22,2.46,4.92,3.12c.19-1.32-.28-3.12,0-4.26,1.23,3.03,4.26,4.35,6.53,5.68,0-1.8-.47-4.07,1.04-3.03.38.28.95,1.51,1.42,1.89s1.04.76,1.61,1.04c1.7,1.04,2.46,1.32,4.07,0,1.14-1.04,2.55-2.46,3.5-3.78.57,1.14.28,3.03.28,4.35,1.89.09,4.16-2.27,5.39-4.07.28,1.04,0,2.18.28,3.22,2.46-.28,6.81-4.82,7.95-7.57,1.14,1.04,2.08,3.41,1.8,5.2,1.99-3.31,1.99-8.32,1.99-12.39l-.19.09Z"/>
        <path class="cls-5" d="M45,55.46h0c-2.36,0-4.26-1.89-4.26-4.26v-6.34h8.61v6.34c0,2.36-1.89,4.26-4.26,4.26h-.09Z"/>
        <path class="cls-12" d="M65.72,27.55c-.85,1.42-2.18,2.36-3.5,2.65h-1.14c-.38,3.69-1.7,7.09-3.59,9.84-3.59,5.39-8.99,8.61-12.96,8.42h-.95c-4.26,0-9.17-2.93-12.58-7.85-1.89-2.74-3.31-6.05-3.88-9.74h-.28c-1.32-.09-2.74-1.04-3.69-2.46-.19-.28-.28-.47-.38-.76-.19-.38-.28-.66-.38-1.04h0c-.28-1.42,0-2.55,1.14-3.03h0c.95-.38,2.18-.09,3.31.66.85-11.26,7.85-21.19,16.55-21.38,2.65,0,5.2.76,7.47,2.18,2.18,1.32,4.07,3.41,5.68,5.96h0c2.27,3.69,3.88,8.42,4.35,13.15h0c.47-.47,1.04-.85,1.61-1.04.76-.38,1.61-.38,2.27-.09,1.51.66,1.8,2.74.57,4.82l.38-.28Z"/>
        <path class="cls-7" d="M63.35,30.77c-.28-3.03-.76-8.23-1.04-10.59,0-.85-.09-1.61-.19-2.46-.28-6.15-2.27-12.86-6.81-16.27-3.22-2.46-6.15-.38-9.65-1.14-6.72-1.32-14.57,1.61-18.16,7.95-2.18,3.78-2.55,8.23-1.8,12.49,0,0,.47,8.04.28,9.93-.28,3.22-1.14,9.08.85,11.92.95,1.32,3.88,3.5,5.3,4.26.28-2.08-1.61-3.97-1.99-5.96-.47-2.18-.28-4.54-.28-6.81,0-4.07-.38-8.04-.19-12.11v-1.23c.09-.19.19-.28.28-.47,1.04-1.7,2.27-3.22,3.69-4.54,1.51-1.42,3.31-2.18,4.92-3.5,1.51,1.32,2.93,2.74,4.63,3.78,2.08,1.23,4.92,2.27,7.28,2.46-.28-.57-.95-1.14-1.42-1.7-.19-.28-.38-.76-.57-1.04,1.23,1.42,3.31,2.55,4.82,3.59,1.42,1.04,3.22,1.51,4.82,2.08.09-.57-1.42-3.12-1.8-3.88.57.76,1.42,1.23,1.89,1.99.57.76.95,1.61,1.32,2.36h0v.09c.19,4.07-.19,8.04-.19,12.11s.19,4.63-.28,6.81c-.47,1.99-2.36,3.88-1.99,5.96,1.42-.76,4.35-2.93,5.3-4.26,1.99-2.74,1.14-8.7.85-11.92l.09.09Z"/>
        <g>
          <path class="cls-1" d="M33.46,22.46c.19,0,.37,0,.47-.28,1.59-3,4.31-1.78,4.4-1.69.28,0,.56,0,.75-.28,0-.28,0-.56-.28-.75-1.31-.56-4.22-.94-5.81,2.16,0,.28,0,.56.19.75h.28v.09Z"/>
          <path class="cls-1" d="M49.76,20.02s.28.19.47,0c2.62-1.03,3.75,1.22,3.75,1.31,0,.19.37.28.56.19.19,0,.28-.37.19-.56-.47-1.12-2.16-2.91-4.87-1.78-.19,0-.37.37-.28.56v.19h.19v.09h0Z"/>
          <path class="cls-1" d="M36.74,24.61c0,1.03.66,1.97,1.41,1.97s1.5-.94,1.5-1.97-.66-1.97-1.41-1.97-1.5.94-1.5,1.97Z"/>
          <path class="cls-1" d="M49.76,24.61c0,1.03.66,1.97,1.41,1.97s1.5-.94,1.5-1.97-.66-1.97-1.41-1.97-1.5.94-1.5,1.97Z"/>
          <g>
            <path class="cls-3" d="M49.95,37.54s-.09,2.34-1.59,3.84c-.84.84-2.06,1.59-3.84,1.59,0,0-2.62.19-4.22-1.59-.75-.75-1.22-1.97-1.22-3.84h10.87Z"/>
            <path class="cls-8" d="M48.36,41.39c-.84.84-2.06,1.59-3.84,1.59,0,0-2.62.19-4.22-1.59,1.59-.75,4.78-1.59,8.06,0Z"/>
            <polygon class="cls-9" points="48.73 37.54 48.08 38.86 40.48 38.86 39.92 37.54 48.73 37.54"/>
          </g>
          <path class="cls-2" d="M47.23,32.11c0,1.31-1.03,2.34-2.34,2.34s-2.34-1.03-2.34-2.34,1.03,1.31,2.34,1.31,2.34-2.62,2.34-1.31Z"/>
          <path class="cls-6" d="M55.48,27.42c1.87,0,3.37,1.41,3.28,3s-1.78,2.72-3.65,2.62-3.37-1.41-3.28-3,1.78-2.72,3.65-2.62Z"/>
          <path class="cls-6" d="M34.11,27.42c1.87,0,3.37,1.41,3.28,3s-1.78,2.72-3.65,2.62-3.37-1.41-3.28-3,1.78-2.72,3.65-2.62Z"/>
        </g>
      </g>
    </g>
  </g>
</svg>