<?xml version="1.0" encoding="UTF-8"?>
<svg id="Layer_2" data-name="Layer 2" xmlns="http://www.w3.org/2000/svg" viewBox="0 0 93.27 285.32">
  <defs>
    <style>
      .cls-1 {
        fill: #e0a587;
      }

      .cls-2, .cls-3 {
        fill: #603813;
      }

      .cls-4 {
        fill: #fff;
      }

      .cls-4, .cls-5, .cls-6, .cls-7 {
        fill-rule: evenodd;
      }

      .cls-8 {
        fill: #d9a2a0;
      }

      .cls-5, .cls-9 {
        fill: #d1957c;
      }

      .cls-10 {
        fill: #70b5ff;
      }

      .cls-11 {
        fill: #6c3231;
      }

      .cls-6 {
        fill: #36313d;
      }

      .cls-12 {
        fill: #db9673;
      }

      .cls-7 {
        fill: #b56d4e;
      }

      .cls-13 {
        fill: #533d24;
      }

      .cls-3 {
        isolation: isolate;
        opacity: .5;
      }

      .cls-14 {
        fill: #98caff;
      }

      .cls-15 {
        fill: #39433e;
      }

      .cls-16 {
        fill: none;
        stroke: #630;
        stroke-linecap: round;
        stroke-miterlimit: 10;
      }
    </style>
  </defs>
  <g id="Layer_1-2" data-name="Layer 1">
    <g id="german-man-teddy">
      <path class="cls-11" d="M70.23,141.19l-19.8,5.4s-13-3.2-20.1-4.6l1.7-27.5,34.6.9c.8,9.7,2,19,3.6,25.7h0v.1Z"/>
      <g>
        <path class="cls-11" d="M59.43,203.49h0c3.8,0,7-2.5,7.3-5.7l4.7-58.8c.4-5.4-4.6-10-11-10h0c-6.3,0-11.3,4.4-11,9.7l2.8,58.9c.2,3.3,3.4,5.9,7.3,5.9h-.1Z"/>
        <path class="cls-11" d="M52.23,270.59l9.5.2,5-72.9c0-3.4-3.1-6.3-7.2-6.4h0c-4.1,0-7.5,2.6-7.6,6.1l.2,73h.1Z"/>
        <path class="cls-13" d="M52.03,268.39v3.2c0,1,.5,1.9,1.4,2.5,4.4,3,18.1,11.8,27.1,11.2,1.9-.1,2.7-2,1.4-3.1l-20.2-13.9h-9.8.1v.1Z"/>
      </g>
      <g>
        <path class="cls-11" d="M39.23,202.49h0c-3.8,0-7-2.5-7.3-5.7l-4.7-58.8c-.4-5.4,4.6-10,11-10h0c6.3,0,11.3,4.4,11,9.7l-2.8,58.9c-.2,3.3-3.4,5.9-7.3,5.9h.1Z"/>
        <path class="cls-11" d="M46.33,269.59l-9.5.2-5-72.9c0-3.4,3.1-6.3,7.2-6.4h0c4.1,0,7.5,2.6,7.6,6.1l-.2,73h-.1Z"/>
        <path class="cls-13" d="M46.63,267.39v3.2c0,1-.5,1.9-1.4,2.5-4.4,3-18.1,11.8-27.1,11.2-1.9-.1-2.7-2-1.4-3.1l20.2-13.9h9.8l-.1.1Z"/>
      </g>
      <g>
        <path class="cls-14" d="M88.46,111.58h0c2.9-1.5,4.2-5,2.8-7.6l-14.5-41.4c-1.5-4.2-6.5-6.2-11-4.2h0c-4.4,2-6.5,6.9-4.6,10.9l19.4,40.2c1.4,2.7,4.9,3.6,7.9,2.1h0Z"/>
        <path class="cls-14" d="M4.82,112.11h0c-2.9-1.5-4.2-5-2.8-7.6l14.5-41.4c1.5-4.2,6.5-6.2,11-4.2h0c4.4,2,6.5,6.9,4.6,10.9l-19.4,40.2c-1.4,2.7-4.9,3.6-7.9,2.1h0Z"/>
      </g>
      <g>
        <rect class="cls-12" x="40.23" y="42.89" width="10.2" height="13.5"/>
        <path class="cls-1" d="M62.73,22.69c-.8-.4-1.9,0-2.9.6-.9-9.5-7-16.9-14.4-16.9s-13.7,7.6-14.5,17.4c-1.1-1-2.4-1.5-3.4-1-1.3.6-1.5,2.4-.4,4.1,1,1.6,2.7,2.5,4,2.1,1.1,9.2,7.1,16.2,14.4,16.2s13.2-7,14.4-16.2c1.2,0,2.5-.9,3.4-2.2,1.1-1.7.9-3.5-.4-4.1,0,0-.2,0-.2,0Z"/>
        <g>
          <path class="cls-2" d="M56.43,20.59c-.2,0-.3,0-.4-.2-1.6-2.8-4.1-1.7-4.2-1.7-.2,0-.5,0-.7-.2,0-.2,0-.5.2-.7,1.3-.5,4-.9,5.6,2.1,0,.2,0,.5-.2.7h-.3Z"/>
          <path class="cls-2" d="M35.53,20.59c.2,0,.3,0,.4-.2,1.6-2.8,4.1-1.7,4.2-1.7.2,0,.5,0,.7-.2,0-.2,0-.5-.2-.7-1.3-.5-4-.9-5.6,2.1,0,.2,0,.5.2.7,0,0,.3,0,.3,0Z"/>
          <path class="cls-2" d="M38.73,22.59c0,.9.6,1.9,1.4,1.9s1.5-.9,1.5-1.9-.6-1.9-1.4-1.9-1.5.9-1.5,1.9Z"/>
          <path class="cls-2" d="M51.23,22.59c0,.9.6,1.9,1.4,1.9s1.5-.9,1.5-1.9-.6-1.9-1.4-1.9-1.5.9-1.5,1.9Z"/>
          <path class="cls-16" d="M41.33,34.49c.2.2,1.4,2.8,4.5,2.7,3.1,0,4.3-2.4,4.5-2.7"/>
          <path class="cls-11" d="M37.23,33.59c.7-1.1,2.5-1.8,4.4-2.1s3.8-.4,5.7,0c1.5.2,3.2.7,4.4,1.2.3,0,.7.3.8.6.2.5-.6.6-1.2.7-4.6.5-8.9.7-13.5,0"/>
          <path class="cls-3" d="M47.93,28.39c0,1.3-.9,2.2-2.2,2.2s-2.2-.9-2.2-2.2.9,1.3,2.2,1.3,2.2-2.5,2.2-1.3Z"/>
          <path class="cls-8" d="M56.63,25.39c1.8,0,3.3,1.4,3.2,2.8s-1.7,2.6-3.6,2.5-3.3-1.4-3.2-2.8,1.7-2.6,3.6-2.5Z"/>
          <path class="cls-8" d="M36.03,25.39c1.8,0,3.3,1.4,3.2,2.8s-1.7,2.6-3.6,2.5-3.3-1.4-3.2-2.8,1.7-2.6,3.6-2.5Z"/>
        </g>
        <path class="cls-11" d="M62.43,6.09c.6-.3,2.5-.5,1.9-1.3-.9-1.2-4-.4-5.4-.3.6-.4,1.6-.7,1.1-1.4-1.1-1.6-4.6-.7-6.3-.5.7-.7.5-1.4-.6-1.6-2.1-.5-4.4.2-6.3.8-.4-1.4-1.5-1.6-3.3-1.2-.9.2-1.5.7-2.3.9-.7.2-.5.2-.8-.2-1-1.1-1.5-1.6-3.2-1.1-2.1.6-2.8,1.7-3.9,3-.6-.4-1.7-.9-2.3,0-.5.7.3,1.8.8,2.4-1,.3-1.8.3-1.8,1.5s1.4,2.5.5,3c-1.2.6-2.6,0-2.3,1.7.2,1.4,1.6,2.3,1.7,3.7-.6,0-1.8,0-2.3.4-1.1.6-.3,1.9.3,2.5s2,1.4,1.6,2c-.3.4-1.5,0-1.9.6s0,2,.3,2.5c.2.5,1.5,1.3,1.5,1.7s-.9.7-1,1.2c0,.6.2,1.1.6,1.6.5.5.2,2.7,3.2,2,.6,0,2.2-1.8,1.8-2.2s-.7-.4-.8-.5c-.3-.5,1.2-4.5-.7-4,1.7-.8,3.5-3.8,1-4.8.8-.6,1.7-1.1,1.9-2.1,0-.5,0-1.3-.3-1.7-.2-.4-.6-.5-.9-.9,1-.5,3.9-1.6,3.6-2.7,1.2,0,2.7-.5,3.7-.9,0,0,.7-.4,1.1-.7.4.5,1.3.7,1.9.8,1,.2,3.7.2,4.9-.5.3,0,.7.2.8.2.8.2,2.4.2,3.2,0,.4.6,1.5,1.7,1.8,2.1.3.4.6,1.2,1.1,1.6,0,1.4.5,2.9,1,4.2,0,.2.4.7.4.9,0,.3-.8.8-.9,1.2-.4,1.1.3,2.3.5,3.3,0,.7-.2,1.3,0,2,0,.8.7,3.8,2.1,3.4,1.7-.4,0-2,.3-2.7,0-.4.6-.7.8-1,.6-.6,1.1-1.3,1.4-2.1.5-1.1.6-2-.4-2.8.8-1.1,4.1-3.8.9-4.4,1.5-1.3.7-4.5-.9-5.6,1.1-.5,2.8-1,3.2-2.1.5-1.2-1.2-1.8-2.4-1.7v-.2h.1Z"/>
      </g>
      <path class="cls-15" d="M71.83,132.89c.2,1.4-.9,2.7-2.7,3-14,2.2-25.2,3.1-37.9,1.2-.9-.1-2.2-.3-3.6-.4-1.8-.2-3.2-1.5-3.1-2.9.4-4.2,1.6-10,3-20.1.8-7.6.5-15.2-.7-22.8l-5.3-32.7s1.6-.7,3.9-1.7c1.5-.7,3.4-1.5,5.4-2.4,5.7-2.5,11.1-4.5,11.5-4.5l9.2-.3c.3,0,4.2,1.4,7.4,2.7,1.9.8,3.6,1.5,4.3,2l7.8,3.4-3.3,30.1v.3c-1.3,11.7,2.7,37.1,4.1,45.1Z"/>
      <g>
        <path class="cls-7" d="M59.98,153.67c-3.03,2.95-13.33,1.84-13.33,1.84,0,0-10.35-.67-12.82-4.12-4.61-6.41,1.31-17.44,5.85-23.95.69-.96,1.32-1.84,1.9-2.58l7.43,3.11,7.86-1.78c.42.8.9,1.73,1.37,2.75,3.38,7.21,7.38,19.19,1.69,24.75l.05-.02Z"/>
        <path class="cls-9" d="M60.41,147.64c-.22,2.54-.87,4.91-1.84,6.99-4.01,1.72-11.78.86-11.78.86,0,0-7.8-.52-11.46-2.88-.6-2.22-.83-4.68-.61-7.2.8-9.22,7.21-16.2,14.3-15.59s12.19,8.6,11.39,17.82Z"/>
        <path class="cls-7" d="M59.06,143.63c2.82.25,5.33-1.86,5.57-4.68s-1.86-5.33-4.68-5.57-5.33,1.86-5.57,4.68,1.86,5.33,4.68,5.57Z"/>
        <path class="cls-7" d="M37,141.71c2.82.25,5.33-1.86,5.57-4.68s-1.86-5.33-4.68-5.57-5.33,1.86-5.57,4.68,1.86,5.33,4.68,5.57Z"/>
        <path class="cls-7" d="M57.36,160.52c-3.75.51-7.31-2.71-7.92-7.16s1.95-8.51,5.7-9.02,7.31,2.71,7.92,7.16-1.95,8.51-5.7,9.02h0Z"/>
        <path class="cls-5" d="M57.02,157.95c-2.57.36-4.98-1.85-5.39-4.89s1.32-5.82,3.89-6.16c2.55-.36,4.98,1.85,5.39,4.89s-1.32,5.82-3.89,6.16Z"/>
        <path class="cls-7" d="M34.93,158.57c3.62,1.15,7.71-1.42,9.09-5.73,1.38-4.33-.45-8.79-4.07-9.94s-7.71,1.42-9.09,5.73c-1.38,4.33.45,8.79,4.07,9.94Z"/>
        <path class="cls-5" d="M35.72,156.08c2.47.8,5.25-.96,6.21-3.91.93-2.94-.29-5.98-2.79-6.78-2.47-.8-5.25.96-6.21,3.91-.93,2.94.29,5.98,2.79,6.78Z"/>
        <g>
          <path class="cls-7" d="M62,106.06c2.43.21,4.19,2.67,3.95,5.46s-2.41,4.91-4.83,4.7-4.19-2.67-3.95-5.46,2.41-4.91,4.83-4.7Z"/>
          <path class="cls-5" d="M61.9,107.26c1.85.16,3.2,2.02,3.01,4.17s-1.84,3.75-3.69,3.59-3.2-2.02-3.01-4.17,1.84-3.75,3.69-3.59Z"/>
          <path class="cls-7" d="M44.63,109.67c-.25,2.82-2.41,4.91-4.83,4.7s-4.17-2.64-3.92-5.46,2.41-4.91,4.83-4.7,4.19,2.65,3.95,5.46h-.02Z"/>
          <path class="cls-5" d="M43.61,109.58c-.19,2.15-1.84,3.75-3.69,3.59s-3.2-2.02-3.01-4.17,1.84-3.75,3.69-3.59,3.2,2.02,3.01,4.17Z"/>
          <path class="cls-7" d="M48.98,130.53c7.62.66,14.29-4.25,14.87-10.95s-5.16-12.72-12.76-13.38-14.31,4.27-14.9,10.97,5.16,12.69,12.76,13.35h.02Z"/>
          <path class="cls-6" d="M45.87,118.6c.74.06,1.39-.48,1.46-1.22s-.48-1.39-1.22-1.46-1.39.48-1.46,1.22.48,1.39,1.22,1.46Z"/>
          <path class="cls-6" d="M54.03,119.31c.74.06,1.39-.48,1.46-1.22s-.48-1.39-1.22-1.46-1.39.48-1.46,1.22.48,1.39,1.22,1.46Z"/>
          <path class="cls-4" d="M53.82,117.66c.18.02.36-.13.38-.32s-.13-.36-.32-.38-.36.13-.38.32.13.36.32.38Z"/>
          <path class="cls-4" d="M45.62,116.95c.18.02.36-.13.38-.32s-.13-.36-.32-.38-.36.13-.38.32.13.36.32.38Z"/>
          <path class="cls-5" d="M49.14,128.66c3.53.31,6.64-1.66,6.88-4.41s-2.46-5.22-6.01-5.53-6.64,1.66-6.88,4.41,2.46,5.22,6.01,5.53Z"/>
          <path class="cls-6" d="M49.74,123.41c1.22.11,2.29-.66,2.38-1.72s-.83-2-2.05-2.11-2.29.66-2.38,1.72.83,2,2.05,2.11Z"/>
          <path class="cls-6" d="M49.64,122.91c0-.07.08-.13.15-.13s.13.08.13.15l-.17,2.01c-.03.37.08.71.31.98.21.25.54.44.91.48l.85.07c.32.03.66-.06.91-.25s.43-.45.51-.77l.14-.59c0-.07.08-.11.17-.1.07,0,.11.08.1.17l-.14.59c-.1.39-.32.72-.62.95s-.68.34-1.07.3l-.85-.07c-.44-.04-.84-.26-1.09-.56-.13-.15-.23-.32-.3-.52-.09.18-.21.33-.37.46-.33.27-.73.4-1.17.36l-.85-.07c-.39-.03-.75-.2-1.01-.48s-.43-.62-.44-1.04l-.04-.61c0-.07.06-.13.13-.15.07,0,.13.06.15.13l.04.61c.02.33.15.64.37.85.21.23.5.37.85.4l.85.07c.37.03.71-.08.98-.31.25-.21.44-.54.48-.91l.17-2.01h-.07Z"/>
        </g>
      </g>
      <g>
        <path class="cls-1" d="M57.96,135.68l5.1,4.5,28.3-30.4c1.7-1.9,1-5.3-1.5-7.4h0c-2.5-2.2-5.9-2.4-7.6-.5l-24.4,33.8h.1Z"/>
        <path class="cls-1" d="M49.26,145.48l-3,3c-1.7,1.7.6,5.1,3.2,4.8.8,0,1.7-.4,2.6-.8q.4-.2,0,0c2.4-1.3,4.9-4,7.5-8l1.4-1.8,2.1-2.6h0l-5.1-4.5h0l-2.1,2.6h-.2c0,.1-10.3,6-10.3,6,0,0-2.9,2.7,3.9,1.2h0v.1Z"/>
        <rect class="cls-10" x="80.91" y="94.62" width="7.7" height="15.8" transform="translate(1.37 206.17) rotate(-101.6)"/>
      </g>
      <g>
        <path class="cls-1" d="M35.32,136.21l-5.1,4.5L1.92,110.31c-1.7-1.9-1-5.3,1.5-7.4h0c2.5-2.2,5.9-2.4,7.6-.5l24.4,33.8h-.1Z"/>
        <path class="cls-1" d="M44.02,146.01l3,3c1.7,1.7-.6,5.1-3.2,4.8-.8,0-1.7-.4-2.6-.8q-.4-.2,0,0c-2.4-1.3-4.9-4-7.5-8l-1.4-1.8-2.1-2.6h0l5.1-4.5h0l2.1,2.6h.2c0,.1,10.3,6,10.3,6,0,0,2.9,2.7-3.9,1.2h0v.1Z"/>
        <rect class="cls-10" x="4.66" y="95.15" width="7.7" height="15.8" transform="translate(-94.15 90.67) rotate(-78.4)"/>
      </g>
      <g>
        <path class="cls-10" d="M40.83,46.59s.5,2.3,5,3.2c0,0-1.3,6-5.3,8.3,0,0-1.5-5.5-4.9-6.6,0,0-.8-2,5.3-4.9h-.1Z"/>
        <path class="cls-10" d="M49.43,46.39s-.5,2.3-5,3.2c0,0,1.3,6,5.3,8.3,0,0,1.5-5.5,4.9-6.6,0,0,.8-2-5.3-4.9h.1Z"/>
      </g>
    </g>
  </g>
</svg>