<?xml version="1.0" encoding="UTF-8"?>
<svg id="Layer_2" data-name="Layer 2" xmlns="http://www.w3.org/2000/svg" viewBox="0 0 51.22 75.42">
  <defs>
    <style>
      .cls-1 {
        fill: #e0a587;
      }

      .cls-2, .cls-3 {
        fill: #603813;
      }

      .cls-4 {
        fill: #d9a2a0;
      }

      .cls-5 {
        fill: #6c3231;
      }

      .cls-6 {
        fill: #db9673;
      }

      .cls-3 {
        isolation: isolate;
        opacity: .5;
      }

      .cls-7 {
        fill: none;
        stroke: #630;
        stroke-linecap: round;
        stroke-miterlimit: 10;
      }
    </style>
  </defs>
  <g id="Layer_1-2" data-name="Layer 1">
    <g id="german-man-smiling">
      <rect class="cls-6" x="18.59" y="57.42" width="13.6" height="18"/>
      <path class="cls-1" d="M48.69,30.42c-1.1-.5-2.6-.1-3.9.8-1.2-12.8-9.4-22.6-19.3-22.6S7.09,18.82,6.09,31.82c-1.4-1.4-3.3-2-4.6-1.4-1.7.8-2,3.2-.6,5.5,1.3,2.1,3.6,3.3,5.3,2.9,1.5,12.3,9.5,21.7,19.2,21.7s17.7-9.4,19.2-21.6c1.6,0,3.4-1.2,4.5-2.9,1.4-2.3,1.2-4.7-.6-5.5l.2-.1Z"/>
      <g>
        <path class="cls-2" d="M40.29,27.62c-.3,0-.4,0-.6-.3-2.1-3.8-5.5-2.3-5.6-2.3-.3,0-.7,0-1-.3,0-.3,0-.7.3-1,1.7-.7,5.4-1.3,7.5,2.8,0,.3,0,.7-.3,1h-.3v.1Z"/>
        <path class="cls-2" d="M12.29,27.62c.3,0,.4,0,.6-.3,2.1-3.8,5.5-2.3,5.6-2.3.3,0,.7,0,1-.3,0-.3,0-.7-.3-1-1.7-.7-5.4-1.3-7.5,2.8,0,.3,0,.7.3,1h.3v.1Z"/>
        <path class="cls-2" d="M16.49,30.32c0,1.3.8,2.5,1.8,2.5s2-1.3,2-2.5-.8-2.5-1.8-2.5-2,1.3-2,2.5Z"/>
        <path class="cls-2" d="M33.29,30.32c0,1.3.8,2.5,1.8,2.5s2-1.3,2-2.5-.8-2.5-1.8-2.5-2,1.3-2,2.5Z"/>
        <path class="cls-7" d="M20.09,46.32c.3.3,1.8,3.8,6.1,3.7,4.1,0,5.8-3.2,6.1-3.7"/>
        <path class="cls-5" d="M14.59,45.02c.9-1.5,3.3-2.5,5.8-2.8s5-.5,7.6-.2c2,.2,4.2.9,5.9,1.6.4.2.9.4,1,.7.3.6-.9.9-1.6.9-6.2.7-11.9.9-18-.2"/>
        <path class="cls-3" d="M28.99,38.12c0,1.7-1.3,3-3,3s-3-1.3-3-3,1.3,1.7,3,1.7,3-3.4,3-1.7Z"/>
        <path class="cls-4" d="M40.49,34.02c2.4,0,4.4,1.8,4.2,3.8s-2.3,3.5-4.8,3.4-4.4-1.8-4.2-3.8,2.3-3.5,4.8-3.4Z"/>
        <path class="cls-4" d="M12.99,34.02c2.4,0,4.4,1.8,4.2,3.8s-2.3,3.5-4.8,3.4-4.4-1.8-4.2-3.8,2.3-3.5,4.8-3.4Z"/>
      </g>
      <path class="cls-5" d="M48.29,8.22c.8-.4,3.4-.7,2.5-1.8-1.3-1.6-5.4-.6-7.2-.4.8-.6,2.2-.9,1.5-1.8-1.5-2.1-6.2-.9-8.5-.7,1-1,.6-1.8-.8-2.2-2.8-.7-5.8.2-8.4,1.1-.5-1.9-1.9-2.2-4.4-1.6-1.2.3-2,.9-3.1,1.2-1,.3-.6.2-1.1-.3-1.3-1.4-2-2.1-4.3-1.5-2.8.7-3.7,2.3-5.3,4.1-.8-.5-2.3-1.2-3.1-.1-.7.9.5,2.4,1,3.2-1.3.4-2.4.3-2.4,2,0,1.2,1.9,3.4.6,4-1.6.8-3.4-.1-3.1,2.3.3,1.9,2.1,3.1,2.3,5-.8-.1-2.4.2-3.1.6-1.5.8-.4,2.5.4,3.4.4.4,2.7,1.9,2.2,2.7-.4.6-2,.1-2.5.8s0,2.6.3,3.3,2.1,1.7,2.1,2.3c0,.5-1.2.9-1.3,1.6-.2.8.3,1.5.8,2.1.7.7.2,3.6,4.2,2.7.8-.2,3-2.4,2.5-3-.2-.3-.9-.5-1-.7-.3-.7,1.7-6-1-5.3,2.2-1.1,4.7-5.1,1.4-6.4,1.1-.9,2.3-1.5,2.6-2.9.1-.6,0-1.7-.4-2.3-.3-.5-.9-.7-1.2-1.1,1.3-.6,5.3-2.1,4.9-3.6,1.6,0,3.6-.7,4.9-1.2.2,0,.9-.5,1.5-.9.5.7,1.7.9,2.5,1.1,1.3.2,5,.3,6.5-.7.4.1.9.2,1.1.3,1.1.2,3.2.3,4.3-.1.5.8,2.1,2.3,2.4,2.8.4.6.8,1.7,1.5,2.1,0,1.9.7,3.9,1.4,5.6.1.3.6.9.5,1.2,0,.4-1,1-1.2,1.6-.5,1.5.4,3,.6,4.5.2.9-.2,1.8-.1,2.7,0,1.1.9,5.1,2.8,4.6,2.2-.5.2-2.6.4-3.6,0-.5.8-.9,1.1-1.3.8-.9,1.4-1.8,1.9-2.8.7-1.5.8-2.7-.6-3.8,1.1-1.5,5.5-5,1.1-5.8,2-1.8.9-6-1.2-7.5,1.5-.7,3.7-1.3,4.3-2.9.7-1.6-1.6-2.4-3.2-2.3l.4-.3Z"/>
    </g>
  </g>
</svg>