<?xml version="1.0" encoding="UTF-8"?>
<svg id="Layer_2" data-name="Layer 2" xmlns="http://www.w3.org/2000/svg" viewBox="0 0 114.27 202.14">
  <defs>
    <style>
      .cls-1, .cls-2 {
        fill: #603813;
      }

      .cls-3 {
        fill: #b23946;
      }

      .cls-4 {
        fill: #273758;
      }

      .cls-5 {
        fill: #e6e6e6;
      }

      .cls-6 {
        fill: #c69696;
      }

      .cls-7 {
        fill: #d9a2a0;
      }

      .cls-8, .cls-2 {
        isolation: isolate;
        opacity: .5;
      }

      .cls-8, .cls-9 {
        fill: #d9baba;
      }

      .cls-10 {
        fill: #8b2b0e;
      }

      .cls-11 {
        fill: #46536d;
      }

      .cls-12 {
        fill: #2c3a58;
      }

      .cls-13 {
        fill: #783640;
      }

      .cls-14 {
        fill: #fff;
      }

      .cls-15 {
        fill: #3f6138;
      }

      .cls-16 {
        fill: #d9b6b6;
      }
    </style>
  </defs>
  <g id="Layer_1-2" data-name="Layer 1">
    <g id="german-girl-filming">
      <path class="cls-5" d="M36.46,106.46l-3.41-31.99c-.43-3.52.11-9.38,3.95-10.56l5.97-3.84,2.88-2.24,9.7,1.07s1.6,2.03,4.8,3.2c12.05,4.69,9.38,3.09,10.02,18.34l-.32,9.81c-.32,8.75-.43,17.38-.11,26.13-10.98,2.56-21.76,1.28-32.42-3.73l-.85-6.29h-.21.11-.11v.11h0Z"/>
      <g>
        <path class="cls-10" d="M79.97,43.11c.53-5.01-1.39-9.06-2.88-13.22-.64-1.92-1.07-5.23-2.35-6.72-1.49-2.03-5.65-1.6-7.79-1.92-7.79-1.17-15.68-1.39-23.68-1.39s-3.84-1.07-5.23,2.35c-.96,2.13-1.39,2.99-1.39,2.99-2.88,3.95-7.15,6.08-9.28,11.3-1.6,4.27-1.6,9.7.53,13.12.11-1.71.64-3.95,1.17-5.33,1.6,1.49,2.45,4.16,3.95,5.76s3.31,3.09,5.12,4.05c.32-1.49,0-3.52.53-4.8,1.07,3.52,4.27,5.44,6.61,7.15.11-2.03,0-4.59,1.49-3.31.43.32.85,1.81,1.28,2.35s1.07.96,1.71,1.39c1.81,1.39,2.56,1.81,4.59.53,1.39-1.07,3.2-2.45,4.37-3.84.53,1.28,0,3.41-.21,4.91,2.13.32,4.91-2.03,6.51-3.95.21,1.17-.21,2.45,0,3.63,2.77,0,8.21-4.59,9.81-7.57,1.17,1.28,1.92,4.05,1.39,6.08,2.56-3.41,3.2-9.06,3.73-13.65h-.21.21v.11h0Z"/>
        <path class="cls-6" d="M51.5,61.99h0c-3.41-.32-5.76-3.41-5.44-6.72l1.28-11.73,9.7,1.07-1.6,14.29c-.11,1.92-1.92,3.31-3.84,3.2h-.11v-.11h0Z"/>
        <path class="cls-9" d="M75.28,35.97c-.53,1.92-.96,3.52-1.92,5.23-.21.64-.53,1.17-.85,1.81-3.95,7.47-10.34,12.16-17.28,11.62-3.31-.21-6.29-1.81-8.75-4.27-.64-.43-1.07-1.07-1.6-1.71-4.16-5.23-6.4-13.01-5.55-21.54,1.49-14.18,10.66-24.85,20.8-24,1.49,0,2.99.53,4.27,1.17,7.79,3.52,13.01,14.18,11.84,26.34"/>
        <g>
          <path class="cls-1" d="M51.71,28.5c.21,0,.43,0,.53-.32,2.03-3.31,5.01-1.71,5.12-1.6.32,0,.64,0,.85-.21,0-.32,0-.64-.21-.85-1.49-.75-4.69-1.39-6.83,1.92,0,.32,0,.64.11.85h.32v.21h.11Z"/>
          <path class="cls-1" d="M70.37,27.12s.32.21.53,0c3.09-.96,4.16,1.71,4.16,1.81,0,.21.43.32.64.21.21,0,.32-.43.21-.64-.43-1.28-2.24-3.52-5.33-2.45-.21,0-.43.43-.32.64v.21h.21v.21h-.11Z"/>
          <path class="cls-1" d="M55.23,31.28c0,1.17.53,2.24,1.49,2.35s1.81-.96,1.92-2.13-.53-2.24-1.49-2.35-1.81.96-1.92,2.13Z"/>
          <path class="cls-1" d="M70.05,32.34c0,1.17.53,2.24,1.39,2.35s1.81-.96,1.92-2.13-.53-2.24-1.39-2.35-1.81.96-1.92,2.13Z"/>
          <path class="cls-2" d="M66.21,37.89c.96,1.17.85,2.77-.21,3.73s-2.77.85-3.73-.21,1.92.32,2.99-.53c1.17-.96,0-3.95,1.07-2.88h-.11v-.11h0Z"/>
          <path class="cls-7" d="M75.07,35.97c-.53,1.92-.96,3.52-1.92,5.23-.21.64-.53,1.17-.85,1.81-1.07-.85-1.39-2.24-1.28-3.52,0-1.92,1.92-3.31,3.84-3.41h.21v-.11h0Z"/>
          <path class="cls-7" d="M52.03,34.16c2.13,0,3.73,1.92,3.52,3.63s-2.24,2.99-4.37,2.67-3.73-1.92-3.52-3.63,2.24-2.99,4.37-2.67Z"/>
          <g>
            <path class="cls-4" d="M56.4,44.07s-.43,2.03.64,3.63c.53.85,1.49,1.81,2.99,2.13,0,0,2.24.64,3.95-.53.75-.75.96-1.28,1.81-3.09l-9.38-2.13h0Z"/>
            <path class="cls-13" d="M57.04,47.7c.53.85,1.49,1.81,2.99,2.13,0,0,1.81.53,3.95-.53-1.17-.96-3.73-2.35-6.93-1.6h0Z"/>
            <polygon class="cls-14" points="57.47 44.29 57.79 45.57 64.29 47.17 65.04 46.1 57.47 44.29"/>
          </g>
        </g>
        <path class="cls-8" d="M46.8,50.15h-.21c-.64-.53-1.07-1.07-1.6-1.71-4.16-5.23-6.4-13.01-5.55-21.44,1.49-14.18,10.66-24.85,20.8-24,1.49,0,2.99.53,4.27,1.17-8.53,5.33-24,20.37-17.81,46.07h.11v-.11h0Z"/>
        <g>
          <path class="cls-9" d="M43.82,27.44c.85,3.31-.11,6.29-2.24,6.83s-4.37-1.71-5.23-5.12.11-6.29,2.24-6.83c1.92-.53,4.37,1.71,5.23,5.12Z"/>
          <path class="cls-8" d="M43.82,27.44c.85,3.31-.11,6.29-2.24,6.83s-4.37-1.71-5.23-5.12.11-6.29,2.24-6.83c1.92-.53,4.37,1.71,5.23,5.12Z"/>
        </g>
        <path class="cls-10" d="M75.49,27.54c.53,4.8,2.13,4.05-1.17,13.54-3.31,9.49-1.39,5.12-2.24,7.57-.75,2.24-2.77,4.05-2.67,6.4,1.49-.75,4.69-2.88,5.87-4.16,2.35-2.88,2.13-9.7,2.24-13.33h0c0-3.52.21-9.38.21-12.05l.21-2.77c.53-6.93-.64-14.72-4.8-18.98-2.99-3.09-6.08-1.28-9.6-2.24-10.56-2.99-19.73-2.03-24.64,6.93-11.94,21.86-.96,35.19.64,38.5.85,1.6,9.6,8.64,10.98,9.7-6.93-9.28-4.91-23.78-2.99-32.31.96-4.27,3.63-7.89,7.36-10.13h0s2.67,3.41,4.27,4.8c2.03,1.6,4.69,3.09,7.04,3.52-.32-.64-.85-1.39-1.17-2.03-.21-.32-.32-.85-.53-1.17,1.07,1.71,2.99,3.2,4.37,4.59,1.39,1.28,2.99,2.03,4.59,2.88,0-.64-1.07-3.63-1.39-4.59.43.85,1.81,1.49,2.13,2.45"/>
      </g>
      <g>
        <path class="cls-16" d="M60.77,170.02c-7.89-13.65-17.17-27.41-17.6-26.98l-4.91,2.77,12.37,30.18,9.28,22.61.43.96c.11.21.32.64.64.75,1.71,2.03,5.12,2.45,7.89.85,2.77-1.6,4.16-4.8,3.09-7.36-.32-.64-.43-1.39-.64-2.03-1.39-5.12-5.65-13.44-10.45-21.65h-.11v-.11h0Z"/>
        <path class="cls-4" d="M45.52,140.8c0-.96-.53-1.92-1.39-2.45-.53-.43-21.86-3.41-22.4-3.2-4.91,1.6,16.42,10.45,16.42,10.45l5.87.32s1.49-4.16,1.39-5.33h0v.21h.11Z"/>
        <path class="cls-16" d="M65.47,200.42c3.84,0,7.15-1.92,7.15-5.76l-.21-14.93.85-19.62v-.32c0-4.91-3.95-8.75-8.75-9.06-5.01,0-9.06,3.73-9.17,8.75l1.71,20.37,1.17,13.86c.32,3.73,3.41,6.61,7.15,6.61h.21-.11v.11h0Z"/>
      </g>
      <g>
        <path class="cls-16" d="M39.87,170.02c-7.89-13.65-17.17-27.41-17.6-26.98l-4.91,2.77,12.37,30.18,9.28,22.61.43.96c.11.21.32.64.64.75,1.71,2.03,5.12,2.45,7.89.85s4.16-4.8,3.09-7.36c-.32-.64-.43-1.39-.64-2.03-1.39-5.12-5.65-13.44-10.45-21.65h-.11v-.11Z"/>
        <path class="cls-4" d="M24.52,140.8c0-.96-.53-1.92-1.39-2.45-.53-.43-21.86-3.41-22.4-3.2-4.91,1.6,16.42,10.45,16.42,10.45l5.87.32s1.49-4.16,1.39-5.33h0v.21h.11Z"/>
        <path class="cls-16" d="M44.88,199.88c3.84,0,6.83-1.17,6.83-5.01v-15.78l.96-19.62v-.32c0-4.91-3.95-8.75-8.75-9.06-5.01,0-9.06,3.73-9.17,8.75l1.71,20.37,1.28,15.25c.32,3.73,3.31,5.23,6.93,5.23h.21v.21Z"/>
      </g>
      <g>
        <path class="cls-15" d="M70.27,147.31l-16.1,6.72-19.09-7.36h0s-1.49-5.33-.96-12.05c.32-2.67.96-5.23,1.6-7.68,1.39-4.27,1.92-8.53,1.92-13.01.32-.85.53-1.07.53-1.07,10.34,3.95,20.69,4.48,30.82,1.28,0,.53,0,.85.21,1.39.21,2.35.53,4.69.96,7.04,0,.64.21,1.07.21,1.6.21.96.32,2.03.43,2.99.64,4.37.75,9.6-.21,19.94h-.21v.21h-.11,0Z"/>
        <path class="cls-15" d="M38.17,113.29s-12.69,29.86-13.22,58.12c0,1.49.85,2.67,2.03,3.2,7.89,2.45,36.79,10.24,51.08,0,.85-.75,1.49-1.81,1.28-3.09-.85-8.21-4.27-41.17-10.02-57.06-10.34,3.95-20.8,3.41-31.35-1.07h.21v-.11h0Z"/>
      </g>
      <g>
        <path class="cls-16" d="M30.91,98.89h0c.96,1.28,1.39,3.2,1.07,4.8l-5.55,33.91-6.83-2.77,2.67-32.85c.32-5.01,5.76-6.93,8.53-3.09h.11Z"/>
        <path class="cls-16" d="M28.25,107.96h0c-3.52.53-6.61-3.73-5.76-8.21l5.23-27.94c.64-4.48,4.05-7.25,7.57-6.29h0c4.05,1.07,6.51,6.61,4.91,11.52l-8.43,26.13c-.75,2.35-1.92,4.69-3.84,4.8h.32Z"/>
        <path class="cls-5" d="M30.06,66.68c-3.2,3.41-7.25,10.34-9.49,24.64l14.4,5.76,1.49-5.55c3.84-8.64,6.61-16.53,5.44-21.86-1.07-5.01-8.11-6.72-11.62-2.88h-.21v-.11Z"/>
        <path class="cls-16" d="M24.83,148.27l1.6-11.2-6.83-2.77v.43c-8.11,4.69-8.96,11.52-8.96,11.52-.96,6.72.75,7.36,2.13,6.93.96-.32,1.81-1.17,2.45-2.24,2.24-4.8,7.47-9.38,7.47-9.38,0,9.6,2.13,6.83,2.13,6.83h0v-.11h0Z"/>
      </g>
      <g>
        <path class="cls-16" d="M73.68,102.84h0c-.43,1.6-.43,3.31.32,4.8l15.04,29.97,5.55-4.59-12.05-29.75c-1.81-4.59-7.47-4.8-8.96-.43h.11Z"/>
        <path class="cls-16" d="M75.71,107.96h0c3.52.32,8.64-1.28,5.44-8.11l-6.19-27.09c-.85-4.27-4.27-6.83-7.68-5.76h0c-3.84,1.17-6.19,6.61-4.48,11.3l8.96,25.17c.75,2.13,1.92,4.48,3.84,4.59h.11v-.11h0Z"/>
        <path class="cls-5" d="M71.33,67c3.2,3.31,7.15,10.13,9.17,24l-13.86,5.44-1.39-5.33c-3.63-8.43-6.51-16.1-5.33-21.33,1.07-4.91,7.89-6.4,11.41-2.67h0v-.11Z"/>
        <g>
          <path class="cls-9" d="M89.21,132.24c-.58,1.14-.89,3.21-.54,4.45.42,1.69,1.85,3.43,5.94,3.17,1.55-.08,3.11-.52,4.48-1.21l3.94-1.83s1.51-.6,3.73.04c.84.23,1.68-.35,1.77-1.21.07-1.16-.29-3.14-5.78-2.84,0,0,4.12-1.21,6.46-.4.75.29,1.68.02,2.18-.69.51-.78.5-1.89-2.61-2.91,0,0-1.82-.85-5.55-.53,0,0,1.1-1.56,4.74-1.02.85.16,1.7-.05,2.33-.67.71-.67,1.11-1.63-.48-2.51-.67-.35-1.36-.55-2.09-.61-2.53-.18-9.27-.27-12.62,3.14,0,0-4.5,2.46-5.92,5.35l-.05.28h.07s0,.01,0,.01Z"/>
          <g>
            <path class="cls-12" d="M103.92,148.41l-9.03-2.69c-1.37-.44-2.11-1.85-1.75-3.23l6.95-23.57c.44-1.37,1.85-2.11,3.23-1.75l9.03,2.69c1.37.44,2.11,1.85,1.75,3.23l-6.95,23.57c-.44,1.37-1.85,2.11-3.23,1.75Z"/>
            <g>
              <path class="cls-11" d="M103.31,117.03l9.34,2.92c1.22.38,1.91,1.73,1.52,2.97l-4.39,14.04-13.8-4.32,4.39-14.04c.39-1.24,1.73-1.95,2.94-1.57h0Z"/>
              <path class="cls-12" d="M102.4,119.24l9.64,3.01c1.12.35,1.84,1.6,1.45,2.84l-3.75,11.98-13.8-4.32,3.75-11.98c.36-1.14,1.59-1.88,2.81-1.5l-.1-.03Z"/>
              <path class="cls-3" d="M104.29,124.94c-.26.83.23,1.77,1.04,2.03s1.75-.25,2.01-1.07-.23-1.77-1.04-2.03-1.75.25-2.01,1.07Z"/>
              <path class="cls-14" d="M104.6,125.03c-.19.62.12,1.4.83,1.62s1.38-.14,1.61-.86-.12-1.4-.83-1.62-1.38.14-1.61.86Z"/>
              <path class="cls-14" d="M102.11,120.85c-.1.31.04.58.35.68s.57-.05.67-.36-.04-.58-.35-.68-.57.05-.67.36Z"/>
              <path class="cls-14" d="M103.53,121.3c-.1.31.04.58.35.68s.57-.05.67-.36-.04-.58-.35-.68-.57.05-.67.36Z"/>
            </g>
          </g>
          <path class="cls-9" d="M90.79,130.04s6.34-6.44,8.87-5.82h0c.97.33.49,2.07-.69,2.88l-5.6,3.65-2.6-.63h0v-.07h.01Z"/>
        </g>
      </g>
    </g>
  </g>
</svg>