<?xml version="1.0" encoding="UTF-8"?>
<svg id="Layer_1" xmlns="http://www.w3.org/2000/svg" xmlns:xlink="http://www.w3.org/1999/xlink" version="1.1" viewBox="0 0 753.6 1390.1">
  <!-- Generator: Adobe Illustrator 29.3.1, SVG Export Plug-In . SVG Version: 2.1.0 Build 151)  -->
  <defs>
    <style>
      .st0 {
        fill: #e0a587;
      }

      .st1, .st2, .st3 {
        fill: #603813;
      }

      .st4 {
        fill: #273758;
      }

      .st5 {
        fill: #d9a2a0;
      }

      .st6, .st7 {
        fill: #48524d;
      }

      .st8 {
        fill: #e6e6e6;
      }

      .st8, .st2, .st7, .st3 {
        isolation: isolate;
      }

      .st8, .st3 {
        opacity: .5;
      }

      .st9 {
        fill: #9b482f;
      }

      .st10 {
        fill: #8b2b0e;
      }

      .st11 {
        fill: #70b5ff;
      }

      .st12 {
        fill: #e5fffb;
      }

      .st13 {
        fill: #926866;
      }

      .st14 {
        fill: #783640;
      }

      .st7 {
        opacity: .2;
      }

      .st15 {
        fill: #fff;
      }

      .st16 {
        fill: #cdcdcd;
      }

      .st17 {
        fill: #6c3231;
      }

      .st18 {
        fill: #db9673;
      }

      .st19 {
        fill: #533d24;
      }

      .st20 {
        fill: #98caff;
      }

      .st21 {
        fill: #39433e;
      }

      .st22 {
        fill: none;
        stroke: #630;
        stroke-linecap: round;
        stroke-miterlimit: 10;
      }
    </style>
  </defs>
  <g>
    <rect class="st19" x="459.1" y="292" width="93.8" height="58"/>
    <rect class="st6" x="462.5" y="295.3" width="87" height="51.3"/>
    <polygon class="st7" points="549.5 295.3 549.5 346.7 462.5 346.7 462.5 344.9 546.5 344.9 546.5 295.3 549.5 295.3"/>
    <path class="st19" d="M467.1,351.8"/>
  </g>
  <path class="st0" d="M305.7,385.7l1.5-7.3c.3-1.5,1.1-2.8,2.3-3.6,1.6-1.1,3.6-1.3,3.8,4.6l10.1-5.2s6.8-1.9,3.6,3.3c0,0,7.4-.5,3,4.4,0,0,6.6.3,0,5.5l-10,6.7c-2.3,1.5-5.1,2.3-7.8,2-2.7-.3-5.5-1.7-6.5-5.5-.4-1.5-.3-3.1,0-4.7v-.2Z"/>
  <g>
    <g>
      <path class="st9" d="M358.6,372.3h-9.2c-1.2,0-2.2,1-2.2,2.2v13.6h13.6v-13.6c0-1.2-1-2.2-2.2-2.2h0Z"/>
      <path class="st10" d="M358.8,374.5h-9.5c-1.1,0-2.1.9-2.1,2.1v11.6h13.6v-11.6c0-1.1-.9-2.1-2.1-2.1h.1Z"/>
      <path class="st9" d="M355.5,379c0,.8-.7,1.5-1.5,1.5s-1.5-.7-1.5-1.5.7-1.5,1.5-1.5,1.5.7,1.5,1.5Z"/>
      <path class="st15" d="M355.2,379c0,.6-.5,1.2-1.2,1.2s-1.2-.5-1.2-1.2.5-1.2,1.2-1.2,1.2.5,1.2,1.2Z"/>
      <path class="st15" d="M358.6,376c0,.3-.2.5-.5.5s-.5-.2-.5-.5.2-.5.5-.5.5.2.5.5Z"/>
      <path class="st15" d="M357.2,376c0,.3-.2.5-.5.5s-.5-.2-.5-.5.2-.5.5-.5.5.2.5.5Z"/>
    </g>
    <path class="st0" d="M364.4,375.9c-4,2-4.3,7.6-4.3,10h-13.5c-1.2,0-2.1.9-2.1,2.1s.9,2,2,2.1v5.9c0,2,1.5,3.7,3.4,3.9,15.2,2.2,14.8-2.6,14.8-2.6l1.5-16c.9-7.2-1.8-5.6-1.8-5.6v.2Z"/>
  </g>
  <path class="st0" d="M324.7,414.7c-4,0-12.5,1.2-19.3,8.7-1.1,1.2,0,3.2,1.7,2.9h0s-3.8,3.1-.9,6.4c0,0-2.2,7,3.3,5.3l12.6-8s-6.4,6.5-3.3,8.3c0,0,2.4,1.6,8.2-5,0,0,12.8-13.5,2.4-17.7-1.5-.6-3.1-.8-4.7-.8h0Z"/>
  <path class="st0" d="M351.4,428.1v-18.3c0-1.3,1-2.3,2.3-2.3h0c1.3,0,2.3,1,2.3,2.3v12.9s2.6-3.8,5.8-.2c0,0,4.9-4.2,6,2.2v12.2s.2,6.2-8.2,6.2h-4.7l-10.6-12.6s-2.7-3.6,0-5.2c0,0,1.8-2.8,7.1,2.8h0Z"/>
  <g>
    <path class="st18" d="M383.9,427.9s0,16.1,11.7,15.1c0,0,11.9,1.1,8.2-16.3l-19.9,1.2h0Z"/>
    <path class="st18" d="M397.7,431.8h0c-1.3,0-2.3-1-2.3-2.3v-17.1c0-1.3,1-2.3,2.3-2.3h0c1.3,0,2.3,1,2.3,2.3v17.1c0,1.3-1,2.3-2.3,2.3Z"/>
    <path class="st18" d="M396,431.2h0c-1.2.4-2.5-.2-2.9-1.4l-5.4-16.3c-.4-1.2.2-2.5,1.4-2.9h0c1.2-.4,2.5.2,2.9,1.4l5.4,16.3c.4,1.2-.2,2.5-1.4,2.9Z"/>
    <path class="st0" d="M389.3,434.3h0c-1.1.6-2.5.1-3.1-1l-3.5-6.7c-.6-1.1-.1-2.5,1-3.1h0c1.1-.6,2.5-.1,3.1,1l3.5,6.7c.6,1.1.1,2.5-1,3.1Z"/>
    <path class="st0" d="M398,434.5h0c1.6.8,3.5.2,4.3-1.4l2.6-5.1c.8-1.6.2-3.5-1.4-4.3h0c-1.6-.8-3.5-.2-4.3,1.4l-2.6,5.1c-.8,1.6-.2,3.5,1.4,4.3Z"/>
    <path class="st0" d="M393,432.1h0c-1.1.6-2.5.1-3.1-1l-3.5-6.7c-.6-1.1-.1-2.5,1-3.1h0c1.1-.6,2.5-.1,3.1,1l3.5,6.7c.6,1.1.1,2.5-1,3.1Z"/>
  </g>
  <g>
    <path class="st8" d="M576.7,346.1c12.6-.1,25.2-.2,37.8-.3,7.4-16.3-10.2-32.5-2.7-48.8-11.4,0-22.8.2-34.3.3-8.6,16.4,7.8,32.5-.8,48.9h0Z"/>
    <g>
      <path class="st16" d="M579.1,311.3v-1c8.7,0,17.4-.1,26-.2,0,.3,0,.7.2,1-8.7,0-17.4.1-26.1.2h-.1Z"/>
      <path class="st16" d="M605.9,314.7c-8.8,0-17.5.1-26.3.2,0-.3,0-.7-.2-1,8.7,0,17.5-.1,26.2-.2,0,.3.2.7.2,1h0Z"/>
      <path class="st16" d="M606.9,318.3c-8.8,0-17.7.1-26.5.2,0-.3-.2-.7-.2-1,8.8,0,17.6-.1,26.4-.2,0,.3.2.7.3,1Z"/>
      <path class="st16" d="M608,321.9c-8.9,0-17.8.2-26.7.2,0-.3-.2-.7-.3-1,8.9,0,17.7-.2,26.6-.2,0,.3.2.7.3,1h.1Z"/>
      <path class="st16" d="M609,325.5c-9,0-17.9.2-26.9.2,0-.3-.2-.7-.2-1,8.9,0,17.9-.2,26.8-.2,0,.3.2.7.3,1h0Z"/>
      <path class="st16" d="M609.9,329.2c-9,0-18,.2-27.1.2,0-.3,0-.7-.2-1,9,0,18-.2,27-.2,0,.3.2.7.2,1h0Z"/>
      <path class="st16" d="M610.5,331.8c0,.3,0,.7.2,1-9.1,0-18.2.2-27.3.2v-1c9.1,0,18.1-.2,27.2-.2h-.1Z"/>
      <path class="st16" d="M579.4,302.6c0-.4.2-.7.3-1.1h6.1c0,.4-.2.7-.3,1.1h-6.1Z"/>
      <path class="st16" d="M585.2,303.9c0,.4,0,.7,0,1.1h-6.1c0-.4,0-.7,0-1.1h6.1Z"/>
    </g>
  </g>
  <g>
    <path class="st13" d="M644.4,343.3h-6.5c-1.2,0-2.2-1-2.2-2.2v-43.5c0-1.2,1-2.2,2.2-2.2h6.5v47.9h0Z"/>
    <path class="st17" d="M644.4,343.3h25.8c1.2,0,2.2-1,2.2-2.2v-43.5c0-1.2-1-2.2-2.2-2.2h-25.8v47.9h0Z"/>
    <path class="st15" d="M664.4,313.7h-12.1c-1.2,0-2.2-1-2.2-2.2v-6.1c0-1.2,1-2.2,2.2-2.2h12.1c1.2,0,2.2,1,2.2,2.2v6.1c0,1.2-1,2.2-2.2,2.2Z"/>
  </g>
  <g>
    <path class="st0" d="M417.2,423.4v10.4s7.7,8.2,19.6,4.5c0,0,5.7-2,.9-4.5,0,0,4.7-.7,2.5-3.9,0,0,4.1-1.5,1.2-4.6,0,0,5.1-3.9-6.8-3.9h-1.4s1.9-1.9,2.8-4.1c1.2-3.1-3.3-5.2-4.9-2.3-.1.2-.2.4-.3.6-.9,2-2.1,3.8-3.9,5.1-1.6,1.2-6.8,2.3-9.6,2.6h-.1Z"/>
    <path class="st10" d="M428.4,430.5c.7.2,1.5,0,1.9-.5l29.6-37.4c.4-.5-.4-1.2-.8-.7l-31.4,35.9c-.8.9-.4,2.3.7,2.7h0Z"/>
    <g>
      <path class="st0" d="M437.3,424.9h-4.8c-1,0-1.7-.8-1.7-1.7h0c0-1,.8-1.7,1.7-1.7h4.8c1,0,1.7.8,1.7,1.7h0c0,1-.8,1.7-1.7,1.7Z"/>
      <path class="st0" d="M435.4,431.4h-4.8c-1,0-1.7-.8-1.7-1.7h0c0-1,.8-1.7,1.7-1.7h4.8c1,0,1.7.8,1.7,1.7h0c0,1-.8,1.7-1.7,1.7Z"/>
      <path class="st0" d="M436,428.1h-4.8c-1,0-1.7-.8-1.7-1.7h0c0-1,.8-1.7,1.7-1.7h4.8c1,0,1.7.8,1.7,1.7h0c0,1-.8,1.7-1.7,1.7Z"/>
    </g>
  </g>
  <g>
    <path class="st0" d="M414.8,387.1c-.5,1.7-.4,4.6.4,6.2,1,2.2,3.4,4.2,8.9,2.8,2.1-.5,4.1-1.5,5.8-2.8l4.9-3.5s1.9-1.2,5.1-.9c1.2.1,2.2-.9,2.1-2.1-.2-1.6-1.2-4.2-8.6-2.4,0,0,5.3-2.7,8.7-2.2,1.1.2,2.3-.4,2.8-1.5.5-1.2.2-2.7-4.3-3.3,0,0-2.7-.7-7.7.7,0,0,1.1-2.4,6.2-2.6,1.2,0,2.3-.5,3-1.5.8-1.1,1.1-2.5-1.3-3.3-1-.3-2-.4-3-.3-3.5.4-12.7,2-16.4,7.5,0,0-5.5,4.5-6.7,8.8v.4Z"/>
    <g>
      <path class="st10" d="M434.6,397.7l-10.5-1.1c-1.6-.2-2.7-1.6-2.6-3.2l2.8-27.4c.2-1.6,1.6-2.7,3.2-2.6l10.5,1.1c1.6.2,2.7,1.6,2.6,3.2l-2.8,27.4c-.2,1.6-1.6,2.7-3.2,2.6Z"/>
      <rect class="st12" x="419.1" y="373.2" width="24.1" height="14" transform="translate(8.7 770) rotate(-84.1)"/>
      <path class="st15" d="M438.7,367.2c0,.4-.4.7-.8.7s-.7-.4-.7-.8.4-.7.8-.7.7.4.7.8Z"/>
      <path class="st9" d="M431.1,394.7c0,.8-.8,1.4-1.7,1.4s-1.4-.8-1.4-1.7.8-1.4,1.7-1.4,1.4.8,1.4,1.7Z"/>
    </g>
    <path class="st0" d="M415.3,385.8s2.1-12.5,7.5-14h0c2.1-.4,3.8,1.8,2.7,3.7l-4.8,8.8-5.4,1.5h0Z"/>
  </g>
  <g>
    <path class="st18" d="M390.9,393.2v4.2h12.2v-19.5c0-3.5-1.7-6.9-4.7-8.7-2.1-1.3-4.8-1.8-7.9-.5-2.1.9-3.5,2.3-4.4,3.7-1.8,2.8.3,6.5,3.6,6.5h3.3l-2.2,14.4h.1Z"/>
    <path class="st17" d="M378.1,387.8s1.3-2.3,1.9-2.6l24.1-13.9c.5-.3,1.2-.1,1.5.4h0c.3.5.1,1.2-.4,1.5l-24.1,13.9c-.5.3-3,.6-3,.6h0Z"/>
    <path class="st0" d="M392.8,391.8h0c-1.6.5-3.4-.5-3.8-2.1l-2.2-7.8c-.5-1.6.5-3.4,2.1-3.8h0c1.6-.5,3.4.5,3.8,2.1l2.2,7.8c.5,1.6-.5,3.4-2.1,3.8Z"/>
  </g>
  <g>
    <path class="st20" d="M711.4,313.3l-1.1,8.6-1.3,10.1-1.2,9.1c0,.7-.7,1.2-1.4,1.2h-13.5c-.7,0-1.3-.5-1.4-1.2l-1.1-9.1-1.3-10.1-1.1-8.6h23.4,0Z"/>
    <polygon class="st21" points="710.3 321.9 709 331.9 690.4 331.9 689.1 321.9 710.3 321.9"/>
    <path class="st21" d="M712.3,315h-25.1c-.6,0-1.2-.5-1.2-1.2v-1.2c0-1.4,1.1-2.5,2.5-2.5h22.4c1.4,0,2.5,1.1,2.5,2.5v1.2c0,.6-.5,1.2-1.2,1.2h0Z"/>
  </g>
  <g id="arm5">
    <path class="st20" d="M280.1,419.3h0c-2.8,1.5-6.4.8-7.9-1.5l-27.2-30.3c-2.8-3.1-1.7-7.8,2.3-10.2h0c4-2.4,9.3-1.6,11.6,1.7l23.6,33.5c1.5,2.3.4,5.4-2.4,6.9h0Z"/>
    <polygon class="st11" points="266 414.5 276.9 404.4 282.5 409.1 271.5 419.2 266 414.5"/>
    <path class="st0" d="M288.6,378.9l6.5,1.7-11.3,37.3c-.8,2.3-4,3.4-7.1,2.6h0c-3.1-.8-5.1-3.4-4.3-5.6l16.3-36h-.1Z"/>
    <path class="st0" d="M292.4,367.2l1-3.9c.6-2.1,4.6-2.1,5.8,0,.4.7.6,1.5.6,2.4s0,.6,0,0c.1,2.5-.9,5.8-2.9,9.9l-.8,2-1.1,2.9h0l-6.5-1.7h0l1.2-2.9v-.3l-.3-10.9s.9-3.6,3,2.4h0Z"/>
  </g>
  <g id="arm4">
    <path class="st0" d="M236.6,407.9l-.5,6.8-45.6-2c-2.8-.2-4.9-3.1-4.6-6.4h0c.2-3.3,2.7-5.8,5.5-5.6l45.2,7.2h0Z"/>
    <path class="st20" d="M188.3,412.1h0c-2.9-1.5-4.2-5-2.8-7.6l14.5-41.4c1.5-4.2,6.5-6.2,11-4.2h0c4.4,2,6.5,6.9,4.6,10.9l-19.4,40.2c-1.4,2.7-4.9,3.6-7.9,2.1h0Z"/>
    <path class="st0" d="M250.9,408.8h4.7c2.6,0,3.5,4.1,1.3,5.7-.7.5-1.6.9-2.6,1.2q-.7.2,0,0c-2.9.8-6.9.6-12.1-.5l-2.5-.3-3.6-.4h0l.5-6.7h0l3.6.4h.3l12.5-3s4.3,0-2.1,3.6h0Z"/>
    <polygon class="st11" points="206.6 402.5 198.4 413 190.2 412.8 200.7 399.6 206.6 402.5"/>
  </g>
  <g id="arm3">
    <path class="st20" d="M141.1,412.1h0c-2.9-1.5-4.2-5-2.8-7.6l14.5-41.4c1.5-4.2,6.5-6.2,11-4.2h0c4.4,2,6.5,6.9,4.6,10.9l-19.4,40.2c-1.4,2.7-4.9,3.6-7.9,2.1h0Z"/>
    <path class="st0" d="M171.6,436.2l-5.1,4.5-28.3-30.4c-1.7-1.9-1-5.3,1.5-7.4h0c2.5-2.2,5.9-2.4,7.6-.5l24.4,33.8h0Z"/>
    <path class="st0" d="M180.3,446l3,3c1.7,1.7-.6,5.1-3.2,4.8-.8,0-1.7-.4-2.6-.8q-.6-.3,0,0c-2.4-1.3-4.9-4-7.5-8l-1.4-1.8-2.1-2.6h0l5.1-4.5h0l2.1,2.6h.2c0,.1,10.3,6,10.3,6,0,0,2.9,2.7-3.9,1.2h0Z"/>
    <rect class="st11" x="141" y="395.1" width="7.7" height="15.8" transform="translate(-279.1 463.9) rotate(-78.4)"/>
  </g>
  <g id="arm2">
    <path class="st20" d="M91.2,412.1h0c-2.9-1.5-4.2-5-2.8-7.6l14.5-41.4c1.5-4.2,6.5-6.2,11-4.2h0c4.4,2,6.5,6.9,4.6,10.9l-19.4,40.2c-1.4,2.7-4.9,3.6-7.9,2.1Z"/>
    <path class="st0" d="M110.2,447.2l-6.4,2.3-16-40.6c-.9-2.5.9-5.5,4-6.6h0c3.1-1.1,6.4,0,7.3,2.5l11.1,42.4h0Z"/>
    <path class="st0" d="M115,460.1l1.8,4.1c1,2.3-2.3,4.7-4.7,3.4-.8-.4-1.5-1-2.1-1.8q-.4-.5,0,0c-1.8-2.2-3.2-5.8-4.3-10.7l-.7-2.3-1.1-3.3h0l6.4-2.3h0l1,3.3.2.2,7.6,9.7s1.7,3.8-4.1-.4h0Z"/>
    <rect class="st11" x="91.2" y="397.5" width="7.7" height="15.8" transform="translate(-321.2 416.9) rotate(-78.4)"/>
  </g>
  <g id="arm1">
    <path class="st0" d="M61.4,448.9l-6.8.3-2.9-41.7c0-2.6,2.5-4.7,5.8-4.9h0c3.3-.1,6.1,1.9,6.2,4.4l-2.3,41.9h0Z"/>
    <path class="st0" d="M62,462l.5,4.3c.2,2.4-3.6,3.6-5.5,1.8-.6-.6-1.1-1.4-1.5-2.3q-.3-.6,0,0c-1.1-2.5-1.3-6.2-.9-11v-5.6h0l6.8-.3h0v3.6l4.4,11.1s.5,4-3.8-1.5h0Z"/>
    <path class="st20" d="M56.1,410.6h0c-3.2-.8-5.2-3.9-4.4-6.8l4.8-43.6c.5-4.5,5-7.5,9.8-6.6h0c4.8.9,7.9,5.3,6.9,9.6l-9.9,43.5c-.8,2.9-4,4.7-7.2,3.8h0Z"/>
    <rect class="st11" x="49.5" y="403.5" width="15.8" height="7.7" transform="translate(-9.9 1.5) rotate(-1.4)"/>
  </g>
  <g id="leg5">
    <path class="st17" d="M697.3,416.1c-3,.3-5.6-1.9-5.9-4.8l-4.2-42.2c-.6-6.1,4.5-11.3,10.6-10.6h0c5.3.6,9.2,5.3,8.6,10.6l-4.4,42.2c-.3,2.5-2.3,4.5-4.8,4.8h.1Z"/>
    <path class="st17" d="M699.7,467.2l-6.4.6c-3.1-19.9-3.8-39-1.6-57.3,0-2.6,2-4.9,4.8-5.1h0c3.2-.3,5.8,2.1,5.7,5.1l-2.5,56.7h0Z"/>
    <path class="st19" d="M692.3,467.3l-.6,3.6c-.8,2.8,1.5,4.5,4.2,4.7,2.2.2,8.2.3,11.5.4,1.6,0,3.2-.2,4.8-.7.2,0,.5-.1.7-.2,1-.3,1-1.7,0-2.1l-14.2-5.8h-6.5,0Z"/>
  </g>
  <g id="leg4">
    <path class="st17" d="M662.9,414.3c-2.7,1.2-5.9,0-7.1-2.6l-17.8-38.5c-2.6-5.6.6-12.1,6.6-13.5h0c5.2-1.2,10.4,2,11.6,7.2l9.7,41.3c.6,2.5-.7,5-3,6.1h0Z"/>
    <path class="st17" d="M658.5,468h-6.5c-1.2-20.5,0-40,3.7-58.3.2-2.7,2.5-4.8,5.3-4.8h0c3.2,0,5.6,2.7,5.2,5.7l-7.7,57.3h0Z"/>
    <path class="st19" d="M652,468l-.6,3.7c-.8,2.8,1.5,4.6,4.2,4.8,2.2.2,8.2.3,11.5.4,1.6,0,3.2-.2,4.8-.7.2,0,.5-.2.7-.2,1-.3,1-1.7,0-2.1l-14.2-5.9h-6.5,0Z"/>
  </g>
  <g id="leg3">
    <path class="st17" d="M624.2,417c-2.3,1.9-5.7,1.5-7.5-.8l-26.6-33c-3.9-4.8-2.4-11.9,3.1-14.7h0c4.8-2.5,10.6-.6,13.1,4.2l19.4,37.7c1.2,2.3.6,5-1.4,6.6h0Z"/>
    <path class="st17" d="M618.4,468.3h-6.5c-1.2-19.5,0-38.1,3.7-55.5.2-2.5,2.5-4.5,5.3-4.5h0c3.2,0,5.6,2.6,5.2,5.5l-7.7,54.6h0Z"/>
    <path class="st19" d="M611.9,468.3l-.6,3.5c-.8,2.7,1.5,4.4,4.2,4.6,2.2.2,8.2.3,11.5.4,1.6,0,3.2-.2,4.8-.6.2,0,.5-.1.7-.2,1-.3,1-1.6,0-2l-14.2-5.7h-6.5,0Z"/>
  </g>
  <g id="leg2">
    <path class="st17" d="M591.5,415.8c-1.3,2.7-4.5,3.8-7.2,2.5l-38.1-18.6c-5.5-2.7-7.2-9.8-3.4-14.6h0c3.3-4.2,9.4-5,13.6-1.7l33.5,26c2,1.6,2.7,4.3,1.5,6.6h0v-.2Z"/>
    <path class="st17" d="M584.3,468.3h-6.5c-1.2-19.2,0-37.5,3.7-54.6.2-2.5,2.5-4.5,5.3-4.5h0c3.2,0,5.6,2.5,5.2,5.4l-7.7,53.7Z"/>
    <path class="st19" d="M577.8,468.3l-.6,3.4c-.8,2.7,1.5,4.3,4.2,4.5,2.2.2,8.2.3,11.5.4,1.6,0,3.2-.2,4.8-.6.2,0,.5-.1.7-.2,1-.3,1-1.6,0-2l-14.2-5.6h-6.5,0Z"/>
  </g>
  <g id="leg1">
    <path class="st17" d="M549.6,413.8c0,3-2.5,5.3-5.4,5.3l-42.4-.5c-6.2,0-10.7-5.7-9.4-11.7h0c1.1-5.2,6.3-8.6,11.5-7.4l41.5,9c2.5.5,4.3,2.8,4.2,5.3h0Z"/>
    <path class="st17" d="M541.8,468.3h-6.5c-1.2-19.2,0-37.5,3.7-54.6.2-2.5,2.5-4.5,5.3-4.5h0c3.2,0,5.6,2.5,5.2,5.4l-7.7,53.7Z"/>
    <path class="st19" d="M535.3,468.3l-.6,3.4c-.8,2.7,1.5,4.3,4.2,4.5,2.2.2,8.2.3,11.5.4,1.6,0,3.2-.2,4.8-.6.2,0,.5-.1.7-.2,1-.3,1-1.6,0-2l-14.2-5.6h-6.5,0Z"/>
  </g>
  <g id="german-man-angry">
    <rect class="st18" x="574.3" y="257.4" width="13.6" height="18"/>
    <path class="st0" d="M604.3,230.3c-1.1-.5-2.6-.1-3.9.8-1.2-12.8-9.4-22.6-19.3-22.6s-18.4,10.2-19.4,23.2c-1.4-1.4-3.3-2-4.6-1.4-1.7.8-2,3.2-.6,5.5,1.3,2.1,3.6,3.3,5.3,2.9,1.5,12.3,9.5,21.7,19.2,21.7s17.7-9.4,19.2-21.6c1.6,0,3.4-1.2,4.5-2.9,1.4-2.3,1.2-4.7-.6-5.5h.2Z"/>
    <g>
      <path class="st22" d="M575.9,250.3c0-.3,1.8-3.7,5.7-3.5,3.8,0,5.4,3.2,5.7,3.5"/>
      <path class="st1" d="M572.2,230.3c0,1.3.8,2.5,1.8,2.5s2-1.3,2-2.5-.8-2.5-1.8-2.5-2,1.3-2,2.5Z"/>
      <path class="st1" d="M589,230.3c0,1.3.8,2.5,1.8,2.5s2-1.3,2-2.5-.8-2.5-1.8-2.5-2,1.3-2,2.5Z"/>
      <path class="st17" d="M570.3,244.9c.9-1.5,3.3-2.5,5.8-2.8s5-.5,7.6-.2c2,.2,4.2.9,5.9,1.6.4.2.9.4,1,.7.3.6-.9.9-1.6.9-6.2.7-11.9.9-18-.2"/>
      <path class="st1" d="M595.9,224.6c0-.3-.3-.4-.7-.3-4.7.7-5.6-3.2-5.7-3.5-.3-.4-.4-.6-.9-.6-.4.3-.6.4-.4,1,.4,1.9,2.6,5.4,7.4,4.6.4-.3.6-.4.6-.9h-.3v-.4h0,0Z"/>
      <path class="st1" d="M567.3,225.9c0-.3.3-.4.7-.3,4.7.7,5.6-3.2,5.7-3.5.3-.4.4-.6.9-.6.4.3.6.4.4,1-.4,1.9-2.6,5.4-7.4,4.6-.4-.3-.6-.4-.6-.9h.3v-.4h0,0Z"/>
      <path class="st3" d="M584.6,238c0,1.7-1.3,3-3,3s-3-1.3-3-3,1.3,1.7,3,1.7,3-3.4,3-1.7Z"/>
      <path class="st5" d="M596.2,233.9c2.4,0,4.4,1.8,4.2,3.8s-2.3,3.5-4.8,3.4-4.4-1.8-4.2-3.8,2.3-3.5,4.8-3.4Z"/>
      <path class="st5" d="M568.7,233.9c2.4,0,4.4,1.8,4.2,3.8s-2.3,3.5-4.8,3.4-4.4-1.8-4.2-3.8,2.3-3.5,4.8-3.4Z"/>
    </g>
    <path class="st17" d="M603.9,208.1c.8-.4,3.4-.7,2.5-1.8-1.3-1.6-5.4-.6-7.2-.4.8-.6,2.2-.9,1.5-1.8-1.5-2.1-6.2-.9-8.5-.7,1-1,.6-1.8-.8-2.2-2.8-.7-5.8.2-8.4,1.1-.5-1.9-1.9-2.2-4.4-1.6-1.2.3-2,.9-3.1,1.2-1,.3-.6.2-1.1-.3-1.3-1.4-2-2.1-4.3-1.5-2.8.7-3.7,2.3-5.3,4.1-.8-.5-2.3-1.2-3.1-.1-.7.9.5,2.4,1,3.2-1.3.4-2.4.3-2.4,2s1.9,3.4.6,4c-1.6.8-3.4-.1-3.1,2.3.3,1.9,2.1,3.1,2.3,5-.8-.1-2.4.2-3.1.6-1.5.8-.4,2.5.4,3.4.4.4,2.7,1.9,2.2,2.7-.4.6-2,.1-2.5.8s0,2.6.3,3.3,2.1,1.7,2.1,2.3-1.2.9-1.3,1.6c-.2.8.3,1.5.8,2.1.7.7.2,3.6,4.2,2.7.8-.2,3-2.4,2.5-3-.2-.3-.9-.5-1-.7-.3-.7,1.7-6-1-5.3,2.2-1.1,4.7-5.1,1.4-6.4,1.1-.9,2.3-1.5,2.6-2.9,0-.6,0-1.7-.4-2.3-.3-.5-.9-.7-1.2-1.1,1.3-.6,5.3-2.1,4.9-3.6,1.6,0,3.6-.7,4.9-1.2.2,0,.9-.5,1.5-.9.5.7,1.7.9,2.5,1.1,1.3.2,5,.3,6.5-.7.4.1.9.2,1.1.3,1.1.2,3.2.3,4.3-.1.5.8,2.1,2.3,2.4,2.8.4.6.8,1.7,1.5,2.1,0,1.9.7,3.9,1.4,5.6,0,.3.6.9.5,1.2,0,.4-1,1-1.2,1.6-.5,1.5.4,3,.6,4.5.2.9-.2,1.8,0,2.7,0,1.1.9,5.1,2.8,4.6,2.2-.5.2-2.6.4-3.6,0-.5.8-.9,1.1-1.3.8-.9,1.4-1.8,1.9-2.8.7-1.5.8-2.7-.6-3.8,1.1-1.5,5.5-5,1.1-5.8,2-1.8.9-6-1.2-7.5,1.5-.7,3.7-1.3,4.3-2.9.7-1.6-1.6-2.4-3.2-2.3l.4-.3Z"/>
  </g>
  <g id="german-man-smiling">
    <rect class="st18" x="489.9" y="260.5" width="13.6" height="18"/>
    <path class="st0" d="M520,233.5c-1.1-.5-2.6-.1-3.9.8-1.2-12.8-9.4-22.6-19.3-22.6s-18.4,10.2-19.4,23.2c-1.4-1.4-3.3-2-4.6-1.4-1.7.8-2,3.2-.6,5.5,1.3,2.1,3.6,3.3,5.3,2.9,1.5,12.3,9.5,21.7,19.2,21.7s17.7-9.4,19.2-21.6c1.6,0,3.4-1.2,4.5-2.9,1.4-2.3,1.2-4.7-.6-5.5h.2Z"/>
    <g>
      <path class="st1" d="M511.6,230.7c-.3,0-.4,0-.6-.3-2.1-3.8-5.5-2.3-5.6-2.3-.3,0-.7,0-1-.3,0-.3,0-.7.3-1,1.7-.7,5.4-1.3,7.5,2.8,0,.3,0,.7-.3,1h-.3,0Z"/>
      <path class="st1" d="M483.6,230.7c.3,0,.4,0,.6-.3,2.1-3.8,5.5-2.3,5.6-2.3.3,0,.7,0,1-.3,0-.3,0-.7-.3-1-1.7-.7-5.4-1.3-7.5,2.8,0,.3,0,.7.3,1h.3Z"/>
      <path class="st1" d="M487.8,233.4c0,1.3.8,2.5,1.8,2.5s2-1.3,2-2.5-.8-2.5-1.8-2.5-2,1.3-2,2.5Z"/>
      <path class="st1" d="M504.6,233.4c0,1.3.8,2.5,1.8,2.5s2-1.3,2-2.5-.8-2.5-1.8-2.5-2,1.3-2,2.5Z"/>
      <path class="st22" d="M491.4,249.4c.3.3,1.8,3.8,6.1,3.7,4.1,0,5.8-3.2,6.1-3.7"/>
      <path class="st17" d="M485.9,248.1c.9-1.5,3.3-2.5,5.8-2.8s5-.5,7.6-.2c2,.2,4.2.9,5.9,1.6.4.2.9.4,1,.7.3.6-.9.9-1.6.9-6.2.7-11.9.9-18-.2"/>
      <path class="st3" d="M500.3,241.2c0,1.7-1.3,3-3,3s-3-1.3-3-3,1.3,1.7,3,1.7,3-3.4,3-1.7Z"/>
      <path class="st5" d="M511.8,237.1c2.4,0,4.4,1.8,4.2,3.8s-2.3,3.5-4.8,3.4-4.4-1.8-4.2-3.8,2.3-3.5,4.8-3.4Z"/>
      <path class="st5" d="M484.3,237.1c2.4,0,4.4,1.8,4.2,3.8s-2.3,3.5-4.8,3.4-4.4-1.8-4.2-3.8,2.3-3.5,4.8-3.4Z"/>
    </g>
    <path class="st17" d="M519.6,211.3c.8-.4,3.4-.7,2.5-1.8-1.3-1.6-5.4-.6-7.2-.4.8-.6,2.2-.9,1.5-1.8-1.5-2.1-6.2-.9-8.5-.7,1-1,.6-1.8-.8-2.2-2.8-.7-5.8.2-8.4,1.1-.5-1.9-1.9-2.2-4.4-1.6-1.2.3-2,.9-3.1,1.2-1,.3-.6.2-1.1-.3-1.3-1.4-2-2.1-4.3-1.5-2.8.7-3.7,2.3-5.3,4.1-.8-.5-2.3-1.2-3.1-.1-.7.9.5,2.4,1,3.2-1.3.4-2.4.3-2.4,2s1.9,3.4.6,4c-1.6.8-3.4-.1-3.1,2.3.3,1.9,2.1,3.1,2.3,5-.8-.1-2.4.2-3.1.6-1.5.8-.4,2.5.4,3.4.4.4,2.7,1.9,2.2,2.7-.4.6-2,.1-2.5.8s0,2.6.3,3.3,2.1,1.7,2.1,2.3-1.2.9-1.3,1.6c-.2.8.3,1.5.8,2.1.7.7.2,3.6,4.2,2.7.8-.2,3-2.4,2.5-3-.2-.3-.9-.5-1-.7-.3-.7,1.7-6-1-5.3,2.2-1.1,4.7-5.1,1.4-6.4,1.1-.9,2.3-1.5,2.6-2.9.1-.6,0-1.7-.4-2.3-.3-.5-.9-.7-1.2-1.1,1.3-.6,5.3-2.1,4.9-3.6,1.6,0,3.6-.7,4.9-1.2.2,0,.9-.5,1.5-.9.5.7,1.7.9,2.5,1.1,1.3.2,5,.3,6.5-.7.4.1.9.2,1.1.3,1.1.2,3.2.3,4.3-.1.5.8,2.1,2.3,2.4,2.8.4.6.8,1.7,1.5,2.1,0,1.9.7,3.9,1.4,5.6,0,.3.6.9.5,1.2,0,.4-1,1-1.2,1.6-.5,1.5.4,3,.6,4.5.2.9-.2,1.8,0,2.7,0,1.1.9,5.1,2.8,4.6,2.2-.5.2-2.6.4-3.6,0-.5.8-.9,1.1-1.3.8-.9,1.4-1.8,1.9-2.8.7-1.5.8-2.7-.6-3.8,1.1-1.5,5.5-5,1.1-5.8,2-1.8.9-6-1.2-7.5,1.5-.7,3.7-1.3,4.3-2.9.7-1.6-1.6-2.4-3.2-2.3l.4-.3Z"/>
  </g>
  <g id="german-man-smiling-eyesclosed">
    <rect class="st18" x="576.2" y="170.6" width="13.6" height="18"/>
    <path class="st0" d="M606.2,143.6c-1.1-.5-2.6-.1-3.9.8-1.2-12.8-9.4-22.6-19.3-22.6s-18.4,10.2-19.4,23.2c-1.4-1.4-3.3-2-4.6-1.4-1.7.8-2,3.2-.6,5.5,1.3,2.1,3.6,3.3,5.3,2.9,1.5,12.3,9.5,21.7,19.2,21.7s17.7-9.4,19.2-21.6c1.6,0,3.4-1.2,4.5-2.9,1.4-2.3,1.2-4.7-.6-5.5h.2Z"/>
    <g>
      <path class="st1" d="M597.8,140.8c-.3,0-.4,0-.6-.3-2.1-3.8-5.5-2.3-5.6-2.3-.3,0-.7,0-1-.3,0-.3,0-.7.3-1,1.7-.7,5.4-1.3,7.5,2.8,0,.3,0,.7-.3,1h-.3Z"/>
      <path class="st1" d="M569.8,140.8c.3,0,.4,0,.6-.3,2.1-3.8,5.5-2.3,5.6-2.3.3,0,.7,0,1-.3,0-.3,0-.7-.3-1-1.7-.7-5.4-1.3-7.5,2.8,0,.3,0,.7.3,1h.3Z"/>
      <path class="st22" d="M577.6,159.5c.3.3,1.8,3.8,6.1,3.7,4.1,0,5.8-3.2,6.1-3.7"/>
      <path class="st17" d="M572.1,158.2c.9-1.5,3.3-2.5,5.8-2.8s5-.5,7.6-.2c2,.2,4.2.9,5.9,1.6.4.2.9.4,1,.7.3.6-.9.9-1.6.9-6.2.7-11.9.9-18-.2"/>
      <path class="st2" d="M596.2,146.1c0-2-1.4-3.6-3.3-3.6s-3.3,1.6-3.3,3.6,1.4-2,3.3-2,3.3,4.1,3.3,2Z"/>
      <path class="st2" d="M578.5,146.1c0-2-1.4-3.6-3.3-3.6s-3.3,1.6-3.3,3.6,1.4-2,3.3-2,3.3,4.1,3.3,2Z"/>
      <path class="st3" d="M586.5,151.3c0,1.7-1.3,3-3,3s-3-1.3-3-3,1.3,1.7,3,1.7,3-3.4,3-1.7Z"/>
      <path class="st5" d="M598.1,147.2c2.4,0,4.4,1.8,4.2,3.8s-2.3,3.5-4.8,3.4-4.4-1.8-4.2-3.8,2.3-3.5,4.8-3.4Z"/>
      <path class="st5" d="M570.5,147.2c2.4,0,4.4,1.8,4.2,3.8s-2.3,3.5-4.8,3.4-4.4-1.8-4.2-3.8,2.3-3.5,4.8-3.4Z"/>
    </g>
    <path class="st17" d="M605.8,121.4c.8-.4,3.4-.7,2.5-1.8-1.3-1.6-5.4-.6-7.2-.4.8-.6,2.2-.9,1.5-1.8-1.5-2.1-6.2-.9-8.5-.7,1-1,.6-1.8-.8-2.2-2.8-.7-5.8.2-8.4,1.1-.5-1.9-1.9-2.2-4.4-1.6-1.2.3-2,.9-3.1,1.2-1,.3-.6.2-1.1-.3-1.3-1.4-2-2.1-4.3-1.5-2.8.7-3.7,2.3-5.3,4.1-.8-.5-2.3-1.2-3.1,0-.7.9.5,2.4,1,3.2-1.3.4-2.4.3-2.4,2s1.9,3.4.6,4c-1.6.8-3.4,0-3.1,2.3.3,1.9,2.1,3.1,2.3,5-.8-.1-2.4.2-3.1.6-1.5.8-.4,2.5.4,3.4.4.4,2.7,1.9,2.2,2.7-.4.6-2,.1-2.5.8s0,2.6.3,3.3,2.1,1.7,2.1,2.3-1.2.9-1.3,1.6c-.2.8.3,1.5.8,2.1.7.7.2,3.6,4.2,2.7.8-.2,3-2.4,2.5-3-.2-.3-.9-.5-1-.7-.3-.7,1.7-6-1-5.3,2.2-1.1,4.7-5.1,1.4-6.4,1.1-.9,2.3-1.5,2.6-2.9,0-.6,0-1.7-.4-2.3-.3-.5-.9-.7-1.2-1.1,1.3-.6,5.3-2.1,4.9-3.6,1.6,0,3.6-.7,4.9-1.2.2,0,.9-.5,1.5-.9.5.7,1.7.9,2.5,1.1,1.3.2,5,.3,6.5-.7.4,0,.9.2,1.1.3,1.1.2,3.2.3,4.3,0,.5.8,2.1,2.3,2.4,2.8.4.6.8,1.7,1.5,2.1,0,1.9.7,3.9,1.4,5.6,0,.3.6.9.5,1.2,0,.4-1,1-1.2,1.6-.5,1.5.4,3,.6,4.5.2.9-.2,1.8,0,2.7,0,1.1.9,5.1,2.8,4.6,2.2-.5.2-2.6.4-3.6,0-.5.8-.9,1.1-1.3.8-.9,1.4-1.8,1.9-2.8.7-1.5.8-2.7-.6-3.8,1.1-1.5,5.5-5,1.1-5.8,2-1.8.9-6-1.2-7.5,1.5-.7,3.7-1.3,4.3-2.9.7-1.6-1.6-2.4-3.2-2.3l.4-.3Z"/>
  </g>
  <g id="german-man-worried">
    <rect class="st18" x="489.3" y="173.2" width="13.6" height="18"/>
    <path class="st0" d="M519.3,146.2c-1.1-.5-2.6-.1-3.9.8-1.2-12.8-9.4-22.6-19.3-22.6s-18.4,10.2-19.4,23.2c-1.4-1.4-3.3-2-4.6-1.4-1.7.8-2,3.2-.6,5.5,1.3,2.1,3.6,3.3,5.3,2.9,1.5,12.3,9.5,21.7,19.2,21.7s17.7-9.4,19.2-21.6c1.6,0,3.4-1.2,4.5-2.9,1.4-2.3,1.2-4.7-.6-5.5h.2Z"/>
    <path class="st17" d="M518.9,124c.8-.4,3.4-.7,2.5-1.8-1.3-1.6-5.4-.6-7.2-.4.8-.6,2.2-.9,1.5-1.8-1.5-2.1-6.2-.9-8.5-.7,1-1,.6-1.8-.8-2.2-2.8-.7-5.8.2-8.4,1.1-.5-1.9-1.9-2.2-4.4-1.6-1.2.3-2,.9-3.1,1.2-1,.3-.6.2-1.1-.3-1.3-1.4-2-2.1-4.3-1.5-2.8.7-3.7,2.3-5.3,4.1-.8-.5-2.3-1.2-3.1,0-.7.9.5,2.4,1,3.2-1.3.4-2.4.3-2.4,2s1.9,3.4.6,4c-1.6.8-3.4-.1-3.1,2.3.3,1.9,2.1,3.1,2.3,5-.8-.1-2.4.2-3.1.6-1.5.8-.4,2.5.4,3.4.4.4,2.7,1.9,2.2,2.7-.4.6-2,.1-2.5.8s0,2.6.3,3.3,2.1,1.7,2.1,2.3-1.2.9-1.3,1.6c-.2.8.3,1.5.8,2.1.7.7.2,3.6,4.2,2.7.8-.2,3-2.4,2.5-3-.2-.3-.9-.5-1-.7-.3-.7,1.7-6-1-5.3,2.2-1.1,4.7-5.1,1.4-6.4,1.1-.9,2.3-1.5,2.6-2.9.1-.6,0-1.7-.4-2.3-.3-.5-.9-.7-1.2-1.1,1.3-.6,5.3-2.1,4.9-3.6,1.6,0,3.6-.7,4.9-1.2.2,0,.9-.5,1.5-.9.5.7,1.7.9,2.5,1.1,1.3.2,5,.3,6.5-.7.4.1.9.2,1.1.3,1.1.2,3.2.3,4.3-.1.5.8,2.1,2.3,2.4,2.8.4.6.8,1.7,1.5,2.1,0,1.9.7,3.9,1.4,5.6,0,.3.6.9.5,1.2,0,.4-1,1-1.2,1.6-.5,1.5.4,3,.6,4.5.2.9-.2,1.8-.1,2.7,0,1.1.9,5.1,2.8,4.6,2.2-.5.2-2.6.4-3.6,0-.5.8-.9,1.1-1.3.8-.9,1.4-1.8,1.9-2.8.7-1.5.8-2.7-.6-3.8,1.1-1.5,5.5-5,1.1-5.8,2-1.8.9-6-1.2-7.5,1.5-.7,3.7-1.3,4.3-2.9.7-1.6-1.6-2.4-3.2-2.3l.4-.3Z"/>
    <g>
      <path class="st1" d="M510.2,138.2c-.1-.1-.3-.3-.6-.1-4.5,1.3-5.8-2.4-5.8-2.5-.3-.3-.6-.6-1-.4-.3.3-.6.6-.4,1,.6,1.8,3.1,4.9,7.6,3.6.3-.3.6-.6.6-.9l-.3-.3h0v-.3h-.1Z"/>
      <path class="st1" d="M481.2,139.5c.1-.1.3-.3.6-.1,4.5,1.3,5.8-2.4,5.8-2.5.3-.3.6-.6,1-.4.3.3.6.6.4,1-.6,1.8-3.1,4.9-7.6,3.6-.3-.3-.6-.6-.6-.9l.3-.3h0v-.3h.1Z"/>
      <path class="st1" d="M503,146.3c0,1.3.9,2.7,1.9,2.7s2.1-1.3,2.1-2.7-.9-2.7-1.9-2.7-2.1,1.3-2.1,2.7Z"/>
      <path class="st1" d="M485.3,146.3c0,1.3.9,2.7,1.9,2.7s2.1-1.3,2.1-2.7-.9-2.7-1.9-2.7-2.1,1.3-2.1,2.7Z"/>
      <path class="st3" d="M499.5,153.6c0,1.8-1.3,3.1-3.1,3.1s-3.1-1.3-3.1-3.1,1.3,1.8,3.1,1.8,3.1-3.6,3.1-1.8Z"/>
      <path class="st5" d="M510.6,150.2c2.5,0,4.6,1.9,4.5,4s-2.4,3.7-4.9,3.6-4.6-1.9-4.5-4,2.4-3.7,4.9-3.6h0Z"/>
      <path class="st5" d="M481.8,150.2c2.5,0,4.6,1.9,4.5,4s-2.4,3.7-4.9,3.6-4.6-1.9-4.5-4,2.4-3.7,4.9-3.6Z"/>
      <ellipse class="st1" cx="496" cy="165.3" rx="2.4" ry="4.2"/>
      <path class="st17" d="M486.2,160.8c.9-1.5,3.3-2.5,5.8-2.8s5-.5,7.6-.2c2,.2,4.2.9,5.9,1.6.4.2.9.4,1,.7.3.6-.9.9-1.6.9-6.2.7-11.9.9-18-.2"/>
    </g>
  </g>
  <g id="german-man-surprised">
    <rect class="st18" x="577.2" y="78.3" width="13.6" height="18"/>
    <path class="st0" d="M607.3,51.2c-1.1-.5-2.6,0-3.9.8-1.2-12.8-9.4-22.6-19.3-22.6s-18.4,10.2-19.4,23.2c-1.4-1.4-3.3-2-4.6-1.4-1.7.8-2,3.2-.6,5.5,1.3,2.1,3.6,3.3,5.3,2.9,1.5,12.3,9.5,21.7,19.2,21.7s17.7-9.4,19.2-21.6c1.6,0,3.4-1.2,4.5-2.9,1.4-2.3,1.2-4.7-.6-5.5h.2Z"/>
    <g>
      <path class="st1" d="M598.9,48.5c-.3,0-.4,0-.6-.3-2.1-3.8-5.5-2.3-5.6-2.3-.3,0-.7,0-1-.3,0-.3,0-.7.3-1,1.7-.7,5.4-1.3,7.5,2.8,0,.3,0,.7-.3,1h-.3Z"/>
      <path class="st1" d="M570.9,48.5c.3,0,.4,0,.6-.3,2.1-3.8,5.5-2.3,5.6-2.3.3,0,.7,0,1-.3,0-.3,0-.7-.3-1-1.7-.7-5.4-1.3-7.5,2.8,0,.3,0,.7.3,1h.3Z"/>
      <path class="st1" d="M575.1,51.2c0,1.3.8,2.5,1.8,2.5s2-1.3,2-2.5-.8-2.5-1.8-2.5-2,1.3-2,2.5Z"/>
      <path class="st1" d="M591.9,51.2c0,1.3.8,2.5,1.8,2.5s2-1.3,2-2.5-.8-2.5-1.8-2.5-2,1.3-2,2.5Z"/>
      <path class="st17" d="M573.2,65.8c.9-1.5,3.3-2.5,5.8-2.8s5-.5,7.6-.2c2,.2,4.2.9,5.9,1.6.4.2.9.4,1,.7.3.6-.9.9-1.6.9-6.2.7-11.9.9-18-.2"/>
      <path class="st3" d="M587.6,58.9c0,1.7-1.3,3-3,3s-3-1.3-3-3,1.3,1.7,3,1.7,3-3.4,3-1.7Z"/>
      <path class="st5" d="M599.1,54.8c2.4,0,4.4,1.8,4.2,3.8s-2.3,3.5-4.8,3.4-4.4-1.8-4.2-3.8,2.3-3.5,4.8-3.4Z"/>
      <path class="st5" d="M571.6,54.8c2.4,0,4.4,1.8,4.2,3.8s-2.3,3.5-4.8,3.4-4.4-1.8-4.2-3.8,2.3-3.5,4.8-3.4Z"/>
      <path class="st1" d="M588.7,70.1c0,2.4-1.9,4.3-4.3,4.3s-4.3-1.9-4.3-4.3,1.9-4.3,4.3-4.3,4.3,1.9,4.3,4.3Z"/>
    </g>
    <path class="st17" d="M606.9,29c.8-.4,3.4-.7,2.5-1.8-1.3-1.6-5.4-.6-7.2-.4.8-.6,2.2-.9,1.5-1.8-1.5-2.1-6.2-.9-8.5-.7,1-1,.6-1.8-.8-2.2-2.8-.7-5.8.2-8.4,1.1-.5-1.9-1.9-2.2-4.4-1.6-1.2.3-2,.9-3.1,1.2-1,.3-.6.2-1.1-.3-1.3-1.4-2-2.1-4.3-1.5-2.8.7-3.7,2.3-5.3,4.1-.8-.5-2.3-1.2-3.1-.1-.7.9.5,2.4,1,3.2-1.3.4-2.4.3-2.4,2s1.9,3.4.6,4c-1.6.8-3.4,0-3.1,2.3.3,1.9,2.1,3.1,2.3,5-.8,0-2.4.2-3.1.6-1.5.8-.4,2.5.4,3.4.4.4,2.7,1.9,2.2,2.7-.4.6-2,0-2.5.8s0,2.6.3,3.3,2.1,1.7,2.1,2.3-1.2.9-1.3,1.6c-.2.8.3,1.5.8,2.1.7.7.2,3.6,4.2,2.7.8-.2,3-2.4,2.5-3-.2-.3-.9-.5-1-.7-.3-.7,1.7-6-1-5.3,2.2-1.1,4.7-5.1,1.4-6.4,1.1-.9,2.3-1.5,2.6-2.9,0-.6,0-1.7-.4-2.3-.3-.5-.9-.7-1.2-1.1,1.3-.6,5.3-2.1,4.9-3.6,1.6,0,3.6-.7,4.9-1.2.2,0,.9-.5,1.5-.9.5.7,1.7.9,2.5,1.1,1.3.2,5,.3,6.5-.7.4,0,.9.2,1.1.3,1.1.2,3.2.3,4.3,0,.5.8,2.1,2.3,2.4,2.8.4.6.8,1.7,1.5,2.1,0,1.9.7,3.9,1.4,5.6,0,.3.6.9.5,1.2,0,.4-1,1-1.2,1.6-.5,1.5.4,3,.6,4.5.2.9-.2,1.8,0,2.7,0,1.1.9,5.1,2.8,4.6,2.2-.5.2-2.6.4-3.6,0-.5.8-.9,1.1-1.3.8-.9,1.4-1.8,1.9-2.8.7-1.5.8-2.7-.6-3.8,1.1-1.5,5.5-5,1.1-5.8,2-1.8.9-6-1.2-7.5,1.5-.7,3.7-1.3,4.3-2.9.7-1.6-1.6-2.4-3.2-2.3l.4-.3Z"/>
  </g>
  <g id="german-man-laughing">
    <rect class="st18" x="489.1" y="78.7" width="13.6" height="18"/>
    <path class="st0" d="M519.2,51.6c-1.1-.5-2.6,0-3.9.8-1.2-12.8-9.4-22.6-19.3-22.6s-18.4,10.2-19.4,23.2c-1.4-1.4-3.3-2-4.6-1.4-1.7.8-2,3.2-.6,5.5,1.3,2.1,3.6,3.3,5.3,2.9,1.5,12.3,9.5,21.7,19.2,21.7s17.7-9.4,19.2-21.6c1.6,0,3.4-1.2,4.5-2.9,1.4-2.3,1.2-4.7-.6-5.5h.2Z"/>
    <g>
      <path class="st1" d="M510.7,48.9c-.3,0-.4,0-.6-.3-2.1-3.8-5.5-2.3-5.6-2.3-.3,0-.7,0-1-.3,0-.3,0-.7.3-1,1.7-.7,5.4-1.3,7.5,2.8,0,.3,0,.7-.3,1h-.3Z"/>
      <path class="st1" d="M482.8,48.9c.3,0,.4,0,.6-.3,2.1-3.8,5.5-2.3,5.6-2.3.3,0,.7,0,1-.3,0-.3,0-.7-.3-1-1.7-.7-5.4-1.3-7.5,2.8,0,.3,0,.7.3,1h.3Z"/>
      <path class="st1" d="M487,51.6c0,1.3.8,2.5,1.8,2.5s2-1.3,2-2.5-.8-2.5-1.8-2.5-2,1.3-2,2.5Z"/>
      <path class="st1" d="M503.8,51.6c0,1.3.8,2.5,1.8,2.5s2-1.3,2-2.5-.8-2.5-1.8-2.5-2,1.3-2,2.5Z"/>
      <path class="st17" d="M485.1,66.3c.9-1.5,3.3-2.5,5.8-2.8s5-.5,7.6-.2c2,.2,4.2.9,5.9,1.6.4.2.9.4,1,.7.3.6-.9.9-1.6.9-6.2.7-11.9.9-18-.2"/>
      <path class="st3" d="M499.4,59.3c0,1.7-1.3,3-3,3s-3-1.3-3-3,1.3,1.7,3,1.7,3-3.4,3-1.7Z"/>
      <path class="st5" d="M511,55.3c2.4,0,4.4,1.8,4.2,3.8s-2.3,3.5-4.8,3.4-4.4-1.8-4.2-3.8,2.3-3.5,4.8-3.4Z"/>
      <path class="st5" d="M483.5,55.3c2.4,0,4.4,1.8,4.2,3.8s-2.3,3.5-4.8,3.4-4.4-1.8-4.2-3.8,2.3-3.5,4.8-3.4Z"/>
      <g>
        <path class="st4" d="M503.6,67.1s0,3.1-2,5c-1.1,1.1-2.7,2-5,2,0,0-3.4.3-5.5-2-1-1-1.5-2.6-1.5-5h14.2-.2Z"/>
        <path class="st14" d="M501.4,72.1c-1.1,1.1-2.7,2-5,2,0,0-3.4.3-5.5-2,2-1,6.3-2,10.5,0h0Z"/>
        <polygon class="st15" points="501.9 67.1 501.2 68.7 491.2 68.7 490.6 67.1 501.9 67.1"/>
      </g>
    </g>
    <path class="st17" d="M518.7,29.5c.8-.4,3.4-.7,2.5-1.8-1.3-1.6-5.4-.6-7.2-.4.8-.6,2.2-.9,1.5-1.8-1.5-2.1-6.2-.9-8.5-.7,1-1,.6-1.8-.8-2.2-2.8-.7-5.8.2-8.4,1.1-.5-1.9-1.9-2.2-4.4-1.6-1.2.3-2,.9-3.1,1.2-1,.3-.6.2-1.1-.3-1.3-1.4-2-2.1-4.3-1.5-2.8.7-3.7,2.3-5.3,4.1-.8-.5-2.3-1.2-3.1-.1-.7.9.5,2.4,1,3.2-1.3.4-2.4.3-2.4,2s1.9,3.4.6,4c-1.6.8-3.4,0-3.1,2.3.3,1.9,2.1,3.1,2.3,5-.8,0-2.4.2-3.1.6-1.5.8-.4,2.5.4,3.4.4.4,2.7,1.9,2.2,2.7-.4.6-2,0-2.5.8s0,2.6.3,3.3,2.1,1.7,2.1,2.3-1.2.9-1.3,1.6c-.2.8.3,1.5.8,2.1.7.7.2,3.6,4.2,2.7.8-.2,3-2.4,2.5-3-.2-.3-.9-.5-1-.7-.3-.7,1.7-6-1-5.3,2.2-1.1,4.7-5.1,1.4-6.4,1.1-.9,2.3-1.5,2.6-2.9.1-.6,0-1.7-.4-2.3-.3-.5-.9-.7-1.2-1.1,1.3-.6,5.3-2.1,4.9-3.6,1.6,0,3.6-.7,4.9-1.2.2,0,.9-.5,1.5-.9.5.7,1.7.9,2.5,1.1,1.3.2,5,.3,6.5-.7.4,0,.9.2,1.1.3,1.1.2,3.2.3,4.3,0,.5.8,2.1,2.3,2.4,2.8.4.6.8,1.7,1.5,2.1,0,1.9.7,3.9,1.4,5.6.1.3.6.9.5,1.2,0,.4-1,1-1.2,1.6-.5,1.5.4,3,.6,4.5.2.9-.2,1.8-.1,2.7,0,1.1.9,5.1,2.8,4.6,2.2-.5.2-2.6.4-3.6,0-.5.8-.9,1.1-1.3.8-.9,1.4-1.8,1.9-2.8.7-1.5.8-2.7-.6-3.8,1.1-1.5,5.5-5,1.1-5.8,2-1.8.9-6-1.2-7.5,1.5-.7,3.7-1.3,4.3-2.9.7-1.6-1.6-2.4-3.2-2.3l.4-.3Z"/>
  </g>
  <g id="german-man-slightright-back">
    <path class="st17" d="M398.9,184.2c-7.7,3.1-20.8,5.9-20.8,5.9,0,0-14.8-2.1-22-4.4-.7-8.5-.9-16.3.5-21.9h39.9s2.5,15.3,2.5,20.4h-.1Z"/>
    <g>
      <path class="st0" d="M410.5,110.5l5.2,4.4-32.2,31.8c-2,1.9-5.8,1.7-8.3-.4h0c-2.5-2.1-2.9-5.4-.9-7.3l36.1-28.4h0Z"/>
      <path class="st20" d="M381.7,148h0c-3.2,1.2-6.8,0-8.1-2.5l-24.1-35c-2.5-3.6-.7-8.4,3.9-10.5h0c4.6-2,10-.6,12,3.2l19.8,37.9c1.3,2.6-.3,5.7-3.5,6.9h0Z"/>
      <path class="st0" d="M420.3,101l3.2-3.4c1.8-1.9,5.6,0,5.5,2.4,0,.8-.3,1.7-.8,2.6q-.3.6,0,0c-1.3,2.5-4.2,5.3-8.4,8.5l-1.9,1.7-2.7,2.4h0l-5.2-4.4h0l2.8-2.4v-.3c.1,0,6.1-10.8,6.1-10.8,0,0,2.9-3.2,1.5,3.6h-.1Z"/>
      <polygon class="st11" points="386.1 129 389.1 141.2 383.4 147 379.8 131.5 386.1 129"/>
    </g>
    <rect class="st0" x="364.9" y="78.7" width="8.9" height="17.6"/>
    <g>
      <path class="st17" d="M374.5,76.6c.7-1.7,2.6-2.8,4.6-3.2s3.9-.6,5.9-.2c1.6.3,3.3,1,4.7,1.9.4.2.7.5.8.8.2.7-.7,1-1.3,1.1-4.8.8-9.3,1.1-14.1-.2"/>
      <path class="st0" d="M388.9,71.3c.2.6,0,1.3-.6,1.6-.6.4-1.4.7-1.9.7v.4h0c0,.7-.2,1.3-.3,1.9h0v.2c-1.7,8.2-7,14.2-13.3,14.2s-12.5-7.1-13.6-16.5v-5.3c.6-9.9,6.5-17.6,13.6-17.6s10.3,4.6,12.5,11.2h0s.5,1.7.5,1.8c1.4,2.2,2.7,5.6,3.3,7.2l-.2.2Z"/>
      <path class="st17" d="M356.2,54.6c0-2.4.8-4.4,2.7-6,1.7-1.5,5.4-3.1,5.3.2,2.2-1.3,9-4.4,8.8,0,1.6-.4,11.9-4.2,7.1.6,1.9-.8,4.8-2,6.7-1.3-.4.5-.5,1.2-1,1.6,1.3,0,3.6-.9,4.9-.7,1,.2,3,1.4,3.5,1.9,3.4,3.2,1.2,4.4-3.2,5.6-4.7,1.2-3.4,2-3.9,6-.2,2.2-2.8,7.6-5.6,7.7,0-1.8.4-3.3-1.5-4.4-1.8-1.1-3.7-.5-4.6,1.2-1.7,3.5,3.3,5.7,3.5,8.4.7,7.9-6.5,10.7-13.9,10.4-2.1,0-12.8-3.7-7.6-5.3-1.9-.4-3.9-1.5-3.4-3.4.5,0,.9-.3,1.4-.4-1-1.5-2.7-2.7-2.4-4.6.4,0,.9-.3,1.2-.3-1.2-1.9-2.1-3.5-2.3-5.6.6,0,1.5-.2,2,0-.5-1.7-2.2-6.9,1.4-6.2-.3-1.8-1.1-3.4-.9-5.3.6,0,1.1,0,1.6.3"/>
    </g>
    <g>
      <path class="st17" d="M373.4,318.3l-9.2-.6,4-72.9c.3-3.4,3.8-6,7.7-5.8h0c3.9.2,6.9,3.2,6.6,6.6l-9.1,72.6h0Z"/>
      <path class="st19" d="M364.2,317.6s-5.9,11,4.5,11.3c1.7,0,3.5-.3,5.1-.8l10.6-3.5c.5-.2.9-.5,1-.9.6-1.6-.3-3.5-12-5.5l-9.2-.7h0Z"/>
      <path class="st17" d="M376.2,250.6h0c-3.7.3-7.1-1.9-7.8-5.1l-12.1-58.1c-1.1-5.3,3.2-10.3,9.4-10.9h0c6.1-.5,11.5,3.4,11.9,8.7l4.9,58.8c.3,3.3-2.5,6.2-6.3,6.5h0Z"/>
    </g>
    <g>
      <path class="st17" d="M395.9,318.3l-9.2-.4,1.7-73c.2-3.4,3.6-6.1,7.5-5.9h0c4,.2,7,3.1,6.8,6.5l-6.8,72.8Z"/>
      <path class="st19" d="M386.8,317.6s-5.9,11,4.5,11.3c1.7,0,3.5-.3,5.1-.8l10.6-3.5c.5-.2.9-.5,1-.9.6-1.6-.3-3.5-12-5.5l-9.2-.7h0Z"/>
      <path class="st17" d="M396.3,250.6h0c-3.7.3-7.1-1.9-7.7-5.1l-11.1-58.2c-1-5.3,3.3-10.3,9.5-10.8h0c6.1-.5,11.4,3.5,11.8,8.8l3.9,58.9c.2,3.3-2.6,6.2-6.4,6.5h0Z"/>
    </g>
    <path class="st21" d="M394.9,177.7c-14,2.8-26.8,2.8-37.7-.8-1.9,0-3.4-1.7-3-3.4l2.3-10.6c1.4-10.7.6-21.5-2.2-32-2.9-10.7-6.7-12.2-5.8-24.9.2-3.3,2.6-6.1,5.1-8.3l8-7h13.6l4.3,2.7c7.1,4.4,11.9,11.3,13.2,19.1,2.8,16.1,4.6,44,5.3,62.3,0,1.6-1.4,3-3.2,2.9h.1Z"/>
    <path class="st11" d="M361.8,89.2v-2.5h6.8c1.1,0,2.2,0,3.2.3,3.8.7,6.5,2.6,7.4,4.9h0l.2.5s-2.7-.6-3.8-.5c-7.5.2-14.4,1.1-13.8-2.7h0Z"/>
    <g>
      <path class="st0" d="M436.4,109.7l5.2,4.4-32.2,31.8c-2,1.9-5.8,1.7-8.3-.4h0c-2.5-2.1-2.9-5.4-.9-7.3l36.1-28.4h0Z"/>
      <path class="st20" d="M407.6,147.2h0c-3.2,1.2-6.8,0-8.1-2.5l-24.1-35c-2.5-3.6-.7-8.4,3.9-10.5h0c4.6-2,10-.6,12,3.2l19.8,37.9c1.3,2.6-.3,5.7-3.5,6.9h0Z"/>
      <path class="st0" d="M446.7,99.9l3.2-3.4c1.8-1.9,5.6,0,5.5,2.4,0,.8-.3,1.7-.8,2.6q-.3.6,0,0c-1.3,2.5-4.2,5.3-8.4,8.5l-1.9,1.7-2.7,2.4h0l-5.2-4.4h0l2.8-2.4v-.3c.1,0,6.1-10.8,6.1-10.8,0,0,2.9-3.2,1.5,3.6h-.1Z"/>
      <polygon class="st11" points="412 128.3 415 140.4 409.3 146.3 405.6 130.8 412 128.3"/>
    </g>
  </g>
  <g id="german-man-right-standing">
    <g>
      <path class="st17" d="M291.5,255.5c-3.9.7-7.6-1.5-8.4-4.9l-11.2-48.9c-1.7-7.1,4.5-13.7,12.6-13.7h0c7.1,0,12.8,5.1,12.8,11.4l-.2,49.9c0,3-2.4,5.6-5.7,6.2h.1Z"/>
      <path class="st17" d="M287,320.4h-8.6c-1.6-25-.2-48.8,4.9-71.1.2-3.3,3.3-5.8,7-5.8h0c4.2,0,7.5,3.3,6.9,7l-10.2,69.9h0Z"/>
      <path class="st19" d="M278.4,320.4l-.8,4.5c-1,3.5,2,5.7,5.6,5.9,3,.2,10.9.4,15.2.5,2.2,0,4.3-.2,6.4-.8.3,0,.6-.2,1-.3,1.3-.4,1.4-2.1,0-2.6l-18.8-7.2h-8.6Z"/>
    </g>
    <path class="st17" d="M298.5,170.2v21.1h-.1c-.5,8.2-8.5,14.5-17.8,14h-.2c-6.7-.4-12.5-4.3-14.7-9.9-1.1-2.8-1.6-5.3-2-6.9-2.5-10.6,2.4-18.1,2.4-18.1h32.4v-.2Z"/>
    <rect class="st18" x="271" y="76" width="10.1" height="20.6"/>
    <g>
      <path class="st0" d="M296.7,70.4c-.6.5-1.5,1.1-2.2,1.2-.5,0-.9.5-.9.9-.1,1-.4,2-.7,3-1.3,4.5-3.8,8.1-6.9,10.2-1.8,1.2-3.9,1.9-6,1.9-6.1,0-11.3-5.6-13.2-13.3-.5-1.8-.6-3.7-.5-5.6v-2c0-2.4,0-4.8.8-7.2,2.2-7.1,7.1-12,12.9-12s4,.6,5.8,1.8c.7.5,1.5,1.2,2.2,2.1,2.9,3.4,4.5,7.5,5,11.7v.3l3.9,5.7c.2.4.2.8-.2,1.1v.2Z"/>
      <g>
        <path class="st22" d="M285.6,77.4c.2.2,1.1,3.3,4.6,3.6"/>
        <path class="st1" d="M285.4,63.7c.2,0,.3,0,.5-.2,1.8-2.5,4.1-1.1,4.2-1,.3,0,.5,0,.7-.2,0-.3,0-.5-.2-.7-1.1-.7-3.7-1.3-5.5,1.3v.7h.3Z"/>
        <path class="st1" d="M288.1,66c-.1.9.4,1.9,1.1,1.9s1.5-.7,1.6-1.6-.4-1.9-1.1-1.9-1.5.7-1.6,1.6Z"/>
        <path class="st5" d="M282.3,67.9c2,.2,3.4,1.9,3.1,3.6s-2.2,2.6-4.2,2.3-3.4-1.9-3.1-3.6,2.2-2.6,4.2-2.3Z"/>
      </g>
      <path class="st17" d="M297.1,50.8c-.6-1.2-2.4-1.9-3.7-2,.4,0,.7-.6.4-.9-.2-.3-1.2-.3-1.5-.3-1.5,0-3,0-4.4.4.8-.9.2-1.7-1-2-1.4-.3-3.2.3-4.4.8.6-.8-.3-1.5-1.2-1.6-1.5-.2-2.6.3-3.9.7-.3-1-.6-1.3-1.8-1.2-1.4,0-2.5.7-3.6,1.2-.5-.9-1-1.5-2.2-1.4-1.4.2-2.7.9-3.7,1.8-1-2-4.4,1.3-4.1,2.7-.6-1.2-1.7.6-1.8,1.1-.2.9.3,1.8.2,2.6-1.5-.7-1.7,1.9-1.6,2.6,0,.6.5,1.1.6,1.7,0,.7-.2.7-.4,1.3-.4,1.2,0,2.2.9,2.8-1.3.6-1.4,2.2-.9,3.2.2.3.5.7.9,1.1-.1,0,.3.3.3.3,0,0,.2.2.3.2-1.1.6-2,1.5-1.7,2.6.3,1.2,1.6,1.3,2.8,1.3,0,.2.2.4.3.6-1,1.7.4,3,2.3,3.5,1.2,1.3,2.7,2.2,4.5,2.7,2.9.7,5-1.5,6-2.6.5-.6,1-1.2,1.4-1.8-.2,0-.5-.2-.7-.3-1-.6-2-1.6-2.6-2.9-1.1-2.4-.5-4.9,1.4-5.5,1.6-.6,3.6.4,4.8,2.3,0,0,.2.2.2.4.2-.6.3-1.2.4-1.8h0c.2-.2.4-.4.7-.7.9-.8,1-1.6.9-2.7h-.7c.7-.8,2.3-5.3-.3-3.8h0c.3-.7.4-1.2.3-1.6.7,0,1.5-.2,2.2-.4,1.6-.3,13-1.4,13.2-1.7s.7-.3,1-.6c.7-.5.7-1.5.4-2.2h-.2Z"/>
      <path class="st17" d="M292.9,78c.3-.4,1.2-.9-.2-1.6s-1.7-1-3.3-1.2c-1.3-.2-2.7-.2-3.9,0-.3,0-.6,0-.8.3-.3.4.4.7.8.9,3.5,1.6,3.2,1.4,6.7,2.3"/>
    </g>
    <path class="st21" d="M303.2,185.5c-.3,3-3.2,5.2-6.6,5.2h-28.5c-4.8.1-8.5-3.6-7.9-7.7l2.9-19.3c-5.4-18.7-14.9-59.7,1.2-71.8,2.1-1.6,5.2-2,7.8-1.1l4.5,1.6,3.7,1.3c4.1,1.5,7.5,4.3,9.3,7.8,3.9,7.6,9.9,22.7,10.9,45.2l1.2,13.9s2.6,14,1.5,24.8h0Z"/>
    <path class="st11" d="M271.3,88.1s4.8,4.2,10.5,4c0,0,8.6,5.3,5.1,10.7,0,0-10.3-14-23.7-9.7,0,0,3.2-3.8,8.1-5Z"/>
    <g>
      <path class="st20" d="M258,152.4h0c-3.4-1-5.4-4.1-4.4-6.9l7.3-42.5c.7-4.4,5.7-7.1,10.8-5.9h0c5.1,1.1,8.2,5.6,7,9.8l-12.7,42.2c-1,2.8-4.5,4.4-7.9,3.4h0Z"/>
      <path class="st0" d="M274.7,187.7l-7,1.8-14.1-41c-.8-2.5,1.4-5.3,4.8-6.2h0c3.4-.9,6.8.5,7.6,3l8.8,42.3h0Z"/>
      <path class="st0" d="M278.9,200.7l1.6,4.2c.9,2.3-2.8,4.4-5.3,3-.8-.5-1.5-1.1-2.1-2q-.4-.6,0,0c-1.8-2.3-3-5.9-3.8-10.8l-.6-2.3-.9-3.3h0l7-1.8h0l.9,3.3.2.2,7.5,10.1s1.6,3.8-4.3-.7h-.2Z"/>
      <polygon class="st11" points="252.3 141.1 269.3 141.5 269.1 149.1 252.1 148.7 252.3 141.1"/>
    </g>
  </g>
  <g id="german-man-slightright-standing">
    <g>
      <path class="st17" d="M199,246.3h0c-3.8.3-7.2-2-7.9-5.3l-11.4-60.1c-1.1-5.5,3.4-10.6,9.8-11.2h0c6.2-.5,11.7,3.6,12,9l4,60.8c.2,3.4-2.7,6.4-6.6,6.7h0Z"/>
      <path class="st19" d="M189.2,315.4l-.7,4.3c-.3,1.9.9,3.9,3,4.5h0c5.6,1.7,19.6,5.5,26.7,2.7,1.6-.6,1.7-2.6,0-3.3l-19.8-8.2h-9.3.1Z"/>
      <path class="st17" d="M198.7,316.2l-9.5-.4,1.7-75.4c.2-3.5,3.6-6.3,7.7-6.1h0c4,.2,7.1,3.2,6.9,6.8l-6.9,75.1h.1Z"/>
    </g>
    <g>
      <path class="st17" d="M176.8,247.6h0c-4.1.1-7.6-2.4-8-5.7l-7.6-60.6c-.7-5.6,4.5-10.4,11.3-10.6h0c6.7-.2,12.2,4.2,12.1,9.7l-.3,60.9c0,3.4-3.3,6.2-7.5,6.3h0Z"/>
      <path class="st17" d="M171,317.4l-10-.9,7.6-75.1c.5-3.5,4.4-6.1,8.7-5.7h0c4.3.4,7.4,3.6,6.9,7.1l-13.1,74.6h0Z"/>
      <path class="st19" d="M161,316.1l-1.1,4.3c-.5,1.9.6,3.9,2.8,4.7h0c5.8,2,20.4,6.5,28.3,4.1,1.8-.5,2-2.5.3-3.3l-20.5-9.3-9.8-.6h0Z"/>
    </g>
    <path class="st17" d="M203.1,178.8c-6.7,4.2-18.4,11.3-18.4,11.3l-23.5-6.2c-1.6-10-1.9-17.8-1.1-25.7h40c1.5,11.4,2.9,20.5,2.9,20.5h.1Z"/>
    <g>
      <rect class="st18" x="173.8" y="74.8" width="9" height="17.2"/>
      <g>
        <path class="st0" d="M195.4,68.1c-.8,1.3-2.1,2.2-3.2,2.2-1.1,8.8-6.4,15.5-13,16h-.8c-6.9,0-12.6-7-13.7-16.1-1.2.3-2.9-.6-3.8-2.1-1-1.7-.8-3.5.4-4.1,1-.4,2.3,0,3.3,1,.5-6.8,3.5-12.5,7.8-15.3,1.8-1.2,3.9-1.9,6.1-1.9,7.1,0,12.9,7.3,13.8,16.8.9-.7,2-.9,2.8-.6,1.2.6,1.4,2.4.4,4.1h-.1Z"/>
        <path class="st0" d="M195.4,68.1c-.8,1.3-2.1,2.2-3.2,2.2v-5.7c1-.7,2-.9,2.8-.6,1.2.6,1.4,2.4.4,4.1Z"/>
      </g>
      <g>
        <path class="st5" d="M191.9,71.6c-.4,1.7-.7,3.2-1.3,4.7-.2.6-.4,1-.7,1.6-.9-.7-1.4-1.9-1.3-3,0-1.7,1.5-3,3.2-3.2h.1Z"/>
        <path class="st5" d="M170.2,70.4c1.9,0,3.4,1.4,3.3,3s-1.8,2.7-3.7,2.6-3.4-1.4-3.3-3,1.8-2.7,3.7-2.6Z"/>
        <path class="st1" d="M170.5,62.5c.2,0,.4,0,.5-.3,1.6-3,4.3-1.8,4.4-1.7.3,0,.6,0,.7-.3,0-.3,0-.6-.3-.7-1.3-.6-4.2-.9-5.8,2.2,0,.3,0,.6.2.7h.3Z"/>
        <path class="st1" d="M186.8,60.1s.3.2.5,0c2.6-1,3.7,1.2,3.7,1.3,0,.2.4.3.6.2.2,0,.3-.4.2-.6-.5-1.1-2.2-2.9-4.9-1.8-.2,0-.4.4-.3.6v.2h.2Z"/>
        <path class="st1" d="M173.8,64.7c0,1,.7,2,1.4,2s1.5-.9,1.5-2-.7-2-1.4-2-1.5.9-1.5,2Z"/>
        <path class="st1" d="M186.8,64.7c0,1,.7,2,1.4,2s1.5-.9,1.5-2-.7-2-1.4-2-1.5.9-1.5,2Z"/>
        <path class="st22" d="M176.1,76.7c0,.2.7,3,3.6,3.5,2.7.4,4.2-.9,4.4-1.2"/>
        <path class="st17" d="M175.1,75.4c.7-1.1,2.2-1.7,3.8-1.8s3.2,0,4.7.3c1.3.3,2.6.9,3.6,1.5.3.2.5.4.6.6.1.5-.6.6-1.1.6-3.9.2-7.5,0-11.2-1.1"/>
        <path class="st3" d="M184.8,69.8c.9.9.9,2.3,0,3.3s-2.3.9-3.3,0,1.7.2,2.6-.7c.9-.9-.2-3.5.7-2.6h0Z"/>
      </g>
    </g>
    <path class="st17" d="M199.5,48.7c-.6-1.3-2.6-2-4-2.1.5,0,.8-.6.5-1-.2-.3-1.3-.3-1.6-.3-1.6,0-3.2,0-4.7.4.8-1,.2-1.8-1.1-2.1-1.5-.3-3.4.3-4.8.9.7-.9-.3-1.5-1.3-1.7-1.6-.2-2.8.3-4.2.7-.3-1-.6-1.4-1.9-1.3-1.5,0-2.6.7-3.9,1.3-.6-1-1-1.6-2.4-1.4-1.5.2-2.9,1-4,1.9-1.1-2.1-4.7,1.4-4.5,2.9-.7-1.3-1.8.6-1.9,1.2-.3,1,.3,1.9.2,2.8-1.6-.7-1.8,2-1.7,2.7,0,.6.5,1.2.6,1.8,0,.7-.2.7-.5,1.3-.5,1.3,0,2.3.9,3-1.4.6-1.6,2.3-.9,3.4,1,1.9,6.4,5.3,8.7,3.1.9-.8.3-1.4.5-2.3,1.1.6,1.6-1.2,1.7-1.8,0-1-.3-2-.9-2.8,1.5,0,1.8-1.3,1.5-2.4-.2-.8-.9-1.3-1.5-1.8v-.5c5.2.4,10.4-.5,15.6-1.3,2-.3,3.5.3,4.6,1.8,2.7,3.8,3.7,10.1,3.7,10.1.9-1.8,1.1-4.4,2.6-5.7.7-.6,1.1-1.5,1-2.4,0-.6-.3-1.4.3-1.8.2,0,.4-.2.6-.3.7-.3,1.2-.9,1.3-1.6.1-.5-.2-1.5,0-1.8s.7-.3,1.1-.6c.7-.6.8-1.6.4-2.3h0Z"/>
    <g>
      <path class="st0" d="M207.6,188.1l5.7-.3-.6-39.8c-.1-2.4-2.5-4.3-5.3-4.2h0c-2.8.1-5,2.3-4.9,4.7l5,39.6h.1Z"/>
      <path class="st0" d="M207.8,200.2v4.1c-.1,2.3,3.3,3.1,4.7,1.2.5-.6.8-1.4,1.1-2.3q.2-.6,0,0c.7-2.5.6-6,0-10.5l-.2-2.2-.2-3.2h0l-5.7.3h0l.3,3.2v.3l-2.9,10.8s-.1,3.8,3.1-1.7h-.2Z"/>
      <path class="st20" d="M209.9,150.9h0c2.6-1.2,3.8-4.4,2.8-7l-9.8-40.4c-1-4.2-5.1-6.4-9-4.9h0c-3.8,1.5-5.9,6-4.5,10l14,39.7c1,2.7,4,3.9,6.5,2.6Z"/>
      <polygon class="st11" points="214.5 144 201.1 144.9 201.5 152.2 214.9 151.3 214.5 144"/>
    </g>
    <path class="st20" d="M197.8,102.2h0c2.6,0,1.9-2,1.8-3.2l-11-5c-2.8-.5-2.2-1.4-6.1-1.4h0c-3.8,0-5.9.5-4.6,1.3l13.5,7.4c1,.5,3.9.9,6.4.9h0Z"/>
    <path class="st21" d="M200.2,178.8c-8.5,3.4-28.5,1-37-2.3-1.3-.5-2.8-1-4.2-1.5-1.7-.6-2.7-2.4-2.4-4.2l5-24.5c.9-4.4.6-8.9-.7-13.2l-5.3-33.5,11.5-7.4c.5-.4,1-.7,1.5-.9.5-.2,1-.4,1.5-.6.9-.3,2.4-.4,3.3-.3l7.2.6c1.8,0,3.4.8,4.8,1.9l1.8,1.5,1.2,1,1.8,1.5c3.7,1.7,7.1,5.6,7.9,8.7,1.2,3.1,1.1,6.6,1.1,10.2v.3c0,3.7,0,7.4-.2,11.1-.5,14.6,3.3,37.9,4.2,46.5.2,2.2-1,4.3-3,5.1h0Z"/>
    <g>
      <path class="st11" d="M173.9,88.3s2.9,2.9,7,2.5c0,0-1,5-4.9,6.7,0,0-3.7-5.1-7-5.9,0,0,1.6-2,5-3.3h-.1Z"/>
      <path class="st11" d="M182.6,88.3s-.8,1.8-5.1,2.5c0,0,1.2,4.5,5,6.2,0,0,.6-3.3,3.9-4.1,0,0-1.5-2.5-3.9-4.5h.1Z"/>
    </g>
    <g>
      <path class="st0" d="M154.2,194.3h-6c0,.1-2-41.6-2-41.6,0-2.6,2.3-4.7,5.2-4.8h0c2.9,0,5.4,2,5.4,4.5l-2.6,41.9h0Z"/>
      <path class="st0" d="M154.6,207l.4,4.3c.2,2.4-3.3,3.5-4.9,1.7-.5-.6-.9-1.4-1.3-2.3q-.3-.6,0,0c-.9-2.6-1.1-6.3-.6-11v-5.6h0l6-.2h0v3.6l3.7,11.1s.4,4-3.3-1.6h0Z"/>
      <path class="st20" d="M150.1,156h0c-2.8-.9-4.5-4-3.8-6.9l4.9-43.5c.5-4.5,4.5-7.4,8.8-6.4h0c4.2,1,6.9,5.4,6,9.7l-9.4,43.4c-.7,2.9-3.6,4.6-6.4,3.7h-.1Z"/>
      <polygon class="st11" points="144.2 148.6 158.2 148.5 158.3 156.2 144.2 156.4 144.2 148.6"/>
    </g>
  </g>
  <g id="german-man-standing">
    <g>
      <path class="st0" d="M89.3,196.6l6-.3-.2-41.8c0-2.6-2.6-4.5-5.5-4.4h0c-2.9.1-5.3,2.3-5.2,4.9l4.8,41.7h0Z"/>
      <path class="st0" d="M89.7,209.8v4.3c-.2,2.4,3.3,3.3,4.9,1.3.5-.6.9-1.4,1.1-2.4q.1-.7,0,0c.8-2.6.7-6.3,0-11.1v-2.3c0,0-.4-3.3-.4-3.3h0l-6,.2h0l.3,3.3v.3l-3.1,11.4s-.2,4,3.2-1.8h0Z"/>
      <path class="st20" d="M91.4,158h0c2.8-1.1,4.3-4.3,3.5-7.1l-7.2-43.1c-.7-4.4-4.9-7.1-9.1-5.8h0c-4.2,1.3-6.6,5.9-5.5,10.1l11.7,42.7c.9,2.9,3.8,4.3,6.6,3.3h0Z"/>
      <polygon class="st11" points="97 150.3 82.9 151.1 83.3 158.8 97.3 158 97 150.3"/>
    </g>
    <g>
      <path class="st0" d="M32.8,198h-6c0,.1-2-41.6-2-41.6,0-2.6,2.3-4.7,5.2-4.8h0c2.9,0,5.4,2,5.4,4.5,0,0-2.6,41.9-2.6,41.9Z"/>
      <path class="st0" d="M33.2,210.2l.4,4.3c.2,2.4-3.3,3.5-4.9,1.7-.5-.6-.9-1.4-1.3-2.3s-.3-.6,0,0c-.9-2.6-1.1-6.3-.6-11v-5.6h0l6-.2h0v3.6l3.7,11.1s.4,4-3.3-1.6Z"/>
      <path class="st20" d="M28.6,159.7h0c-2.8-.9-4.5-4-3.8-6.9l4.9-43.5c.5-4.5,4.5-7.4,8.8-6.4h0c4.2,1,6.9,5.4,6,9.7l-9.4,43.4c-.7,2.9-3.6,4.6-6.4,3.7h0Z"/>
      <polygon class="st11" points="22.7 152.3 36.7 152.2 36.8 160 22.7 160.1 22.7 152.3"/>
    </g>
    <path class="st17" d="M83.4,186.3l-19.8,5.4s-13-3.2-20.1-4.6l1.7-27.5,34.6.9c.8,9.7,2,19,3.6,25.7h0Z"/>
    <g>
      <path class="st17" d="M72.6,248.6h0c3.8,0,7-2.5,7.3-5.7l4.7-58.8c.4-5.4-4.6-10-11-10h0c-6.3,0-11.3,4.4-11,9.7l2.8,58.9c.2,3.3,3.4,5.9,7.3,5.9h-.1Z"/>
      <path class="st17" d="M65.4,315.7l9.5.2,5-72.9c0-3.4-3.1-6.3-7.2-6.4h0c-4.1,0-7.5,2.6-7.6,6.1l.2,73h0Z"/>
      <path class="st19" d="M65.2,313.5v3.2c0,1,.5,1.9,1.4,2.5,4.4,3,18.1,11.8,27.1,11.2,1.9-.1,2.7-2,1.4-3.1l-20.2-13.9h-9.8.1Z"/>
    </g>
    <g>
      <path class="st17" d="M52.4,247.6h0c-3.8,0-7-2.5-7.3-5.7l-4.7-58.8c-.4-5.4,4.6-10,11-10h0c6.3,0,11.3,4.4,11,9.7l-2.8,58.9c-.2,3.3-3.4,5.9-7.3,5.9h0Z"/>
      <path class="st17" d="M59.5,314.7l-9.5.2-5-72.9c0-3.4,3.1-6.3,7.2-6.4h0c4.1,0,7.5,2.6,7.6,6.1l-.2,73h0Z"/>
      <path class="st19" d="M59.8,312.5v3.2c0,1-.5,1.9-1.4,2.5-4.4,3-18.1,11.8-27.1,11.2-1.9-.1-2.7-2-1.4-3.1l20.2-13.9h9.8,0Z"/>
    </g>
    <g>
      <rect class="st18" x="53.4" y="88" width="10.2" height="13.5"/>
      <path class="st0" d="M75.9,67.8c-.8-.4-1.9,0-2.9.6-.9-9.5-7-16.9-14.4-16.9s-13.7,7.6-14.5,17.4c-1.1-1-2.4-1.5-3.4-1-1.3.6-1.5,2.4-.4,4.1,1,1.6,2.7,2.5,4,2.1,1.1,9.2,7.1,16.2,14.4,16.2s13.2-7,14.4-16.2c1.2,0,2.5-.9,3.4-2.2,1.1-1.7.9-3.5-.4-4.1h-.2Z"/>
      <g>
        <path class="st1" d="M69.6,65.7c-.2,0-.3,0-.4-.2-1.6-2.8-4.1-1.7-4.2-1.7-.2,0-.5,0-.7-.2,0-.2,0-.5.2-.7,1.3-.5,4-.9,5.6,2.1,0,.2,0,.5-.2.7h-.3Z"/>
        <path class="st1" d="M48.7,65.7c.2,0,.3,0,.4-.2,1.6-2.8,4.1-1.7,4.2-1.7.2,0,.5,0,.7-.2,0-.2,0-.5-.2-.7-1.3-.5-4-.9-5.6,2.1,0,.2,0,.5.2.7h.3Z"/>
        <path class="st1" d="M51.9,67.7c0,.9.6,1.9,1.4,1.9s1.5-.9,1.5-1.9-.6-1.9-1.4-1.9-1.5.9-1.5,1.9Z"/>
        <path class="st1" d="M64.4,67.7c0,.9.6,1.9,1.4,1.9s1.5-.9,1.5-1.9-.6-1.9-1.4-1.9-1.5.9-1.5,1.9Z"/>
        <path class="st22" d="M54.5,79.6c.2.2,1.4,2.8,4.5,2.7,3.1,0,4.3-2.4,4.5-2.7"/>
        <path class="st17" d="M50.4,78.7c.7-1.1,2.5-1.8,4.4-2.1s3.8-.4,5.7,0c1.5.2,3.2.7,4.4,1.2.3,0,.7.3.8.6.2.5-.6.6-1.2.7-4.6.5-8.9.7-13.5,0"/>
        <path class="st3" d="M61.1,73.5c0,1.3-.9,2.2-2.2,2.2s-2.2-.9-2.2-2.2.9,1.3,2.2,1.3,2.2-2.5,2.2-1.3Z"/>
        <path class="st5" d="M69.8,70.5c1.8,0,3.3,1.4,3.2,2.8s-1.7,2.6-3.6,2.5-3.3-1.4-3.2-2.8,1.7-2.6,3.6-2.5Z"/>
        <path class="st5" d="M49.2,70.5c1.8,0,3.3,1.4,3.2,2.8s-1.7,2.6-3.6,2.5-3.3-1.4-3.2-2.8,1.7-2.6,3.6-2.5Z"/>
      </g>
      <path class="st17" d="M75.6,51.2c.6-.3,2.5-.5,1.9-1.3-.9-1.2-4-.4-5.4-.3.6-.4,1.6-.7,1.1-1.4-1.1-1.6-4.6-.7-6.3-.5.7-.7.5-1.4-.6-1.6-2.1-.5-4.4.2-6.3.8-.4-1.4-1.5-1.6-3.3-1.2-.9.2-1.5.7-2.3.9-.7.2-.5.2-.8-.2-1-1.1-1.5-1.6-3.2-1.1-2.1.6-2.8,1.7-3.9,3-.6-.4-1.7-.9-2.3,0-.5.7.3,1.8.8,2.4-1,.3-1.8.3-1.8,1.5s1.4,2.5.5,3c-1.2.6-2.6,0-2.3,1.7.2,1.4,1.6,2.3,1.7,3.7-.6,0-1.8,0-2.3.4-1.1.6-.3,1.9.3,2.5s2,1.4,1.6,2c-.3.4-1.5,0-1.9.6s0,2,.3,2.5c.2.5,1.5,1.3,1.5,1.7s-.9.7-1,1.2c0,.6.2,1.1.6,1.6.5.5.2,2.7,3.2,2,.6,0,2.2-1.8,1.8-2.2s-.7-.4-.8-.5c-.3-.5,1.2-4.5-.7-4,1.7-.8,3.5-3.8,1-4.8.8-.6,1.7-1.1,1.9-2.1,0-.5,0-1.3-.3-1.7-.2-.4-.6-.5-.9-.9,1-.5,3.9-1.6,3.6-2.7,1.2,0,2.7-.5,3.7-.9,0,0,.7-.4,1.1-.7.4.5,1.3.7,1.9.8,1,.2,3.7.2,4.9-.5.3,0,.7.2.8.2.8.2,2.4.2,3.2,0,.4.6,1.5,1.7,1.8,2.1.3.4.6,1.2,1.1,1.6,0,1.4.5,2.9,1,4.2,0,.2.4.7.4.9,0,.3-.8.8-.9,1.2-.4,1.1.3,2.3.5,3.3,0,.7-.2,1.3,0,2,0,.8.7,3.8,2.1,3.4,1.7-.4,0-2,.3-2.7,0-.4.6-.7.8-1,.6-.6,1.1-1.3,1.4-2.1.5-1.1.6-2-.4-2.8.8-1.1,4.1-3.8.9-4.4,1.5-1.3.7-4.5-.9-5.6,1.1-.5,2.8-1,3.2-2.1.5-1.2-1.2-1.8-2.4-1.7v-.2Z"/>
    </g>
    <path class="st21" d="M85,178c.2,1.4-.9,2.7-2.7,3-14,2.2-25.2,3.1-37.9,1.2-.9-.1-2.2-.3-3.6-.4-1.8-.2-3.2-1.5-3.1-2.9.4-4.2,1.6-10,3-20.1.8-7.6.5-15.2-.7-22.8l-5.3-32.7s1.6-.7,3.9-1.7c1.5-.7,3.4-1.5,5.4-2.4,5.7-2.5,11.1-4.5,11.5-4.5l9.2-.3c.3,0,4.2,1.4,7.4,2.7,1.9.8,3.6,1.5,4.3,2l7.8,3.4-3.3,30.1v.3c-1.3,11.7,2.7,37.1,4.1,45.1Z"/>
    <g>
      <path class="st11" d="M54,91.7s.5,2.3,5,3.2c0,0-1.3,6-5.3,8.3,0,0-1.5-5.5-4.9-6.6,0,0-.8-2,5.3-4.9h0Z"/>
      <path class="st11" d="M62.6,91.5s-.5,2.3-5,3.2c0,0,1.3,6,5.3,8.3,0,0,1.5-5.5,4.9-6.6,0,0,.8-2-5.3-4.9h.1Z"/>
    </g>
  </g>
  <g id="german-man-waving">
    <g>
      <path class="st0" d="M124.8,526.9l5.9,1.5-9,39.9c-.6,2.4-3.5,3.8-6.4,3h0c-2.9-.7-4.7-3.3-4.1-5.7l13.5-38.7h0Z"/>
      <path class="st20" d="M120.8,570.1h0c-1.8,2.3-5.1,2.9-7.1,1.3l-34.2-19.3c-3.5-2-4.4-6.7-2-10.4h0c2.5-3.6,7.1-4.6,10.3-2.3l32.3,23.5c2.2,1.7,2.4,4.9.6,7.3h0Z"/>
      <path class="st0" d="M127.8,514.4l.7-4.1c.4-2.3,4.2-2.4,5.2-.2.3.7.5,1.6.6,2.5q0,.6,0,0c.2,2.7-.6,6.2-2.4,10.6l-.7,2.2-.9,3.1h0l-5.8-1.5h0l.9-3.1v-.3s-.6-11.5-.6-11.5c0,0,.7-3.8,2.8,2.4h0Z"/>
      <polygon class="st11" points="115.3 552.5 123.2 561.4 121.7 568.6 111.8 557.2 115.3 552.5"/>
    </g>
    <g>
      <path class="st0" d="M40.4,636h-6c0,.1-2-41.6-2-41.6,0-2.6,2.3-4.7,5.2-4.8h0c2.9,0,5.4,2,5.4,4.5,0,0-2.6,41.9-2.6,41.9Z"/>
      <path class="st0" d="M40.7,648.2l.4,4.3c.2,2.4-3.3,3.5-4.9,1.7-.5-.6-.9-1.4-1.3-2.3s-.3-.6,0,0c-.9-2.6-1.1-6.3-.6-11v-5.6h0l6-.2h0v3.6l3.7,11.1s.4,4-3.3-1.6Z"/>
      <path class="st20" d="M36.2,597.7h0c-2.8-.9-4.5-4-3.8-6.9l4.9-43.5c.5-4.5,4.5-7.4,8.8-6.4h0c4.2,1,6.9,5.4,6,9.7l-9.4,43.4c-.7,2.9-3.6,4.6-6.4,3.7h0Z"/>
      <polygon class="st11" points="30.3 590.3 44.3 590.2 44.4 598 30.3 598.1 30.3 590.3"/>
    </g>
    <path class="st17" d="M91,624.3l-19.8,5.4s-13-3.2-20.1-4.6l1.7-27.5,34.6.9c.8,9.7,2,19,3.6,25.7h0Z"/>
    <g>
      <path class="st17" d="M80.2,686.6h0c3.8,0,7-2.5,7.3-5.7l4.7-58.8c.4-5.4-4.6-10-11-10h0c-6.3,0-11.3,4.4-11,9.7l2.8,58.9c.2,3.3,3.4,5.9,7.3,5.9h-.1Z"/>
      <path class="st17" d="M73,753.7l9.5.2,5-72.9c0-3.4-3.1-6.3-7.2-6.4h0c-4.1,0-7.5,2.6-7.6,6.1l.2,73h0Z"/>
      <path class="st19" d="M72.8,751.5v3.2c0,1,.5,1.9,1.4,2.5,4.4,3,18.1,11.8,27.1,11.2,1.9-.1,2.7-2,1.4-3.1l-20.2-13.9h-9.8.1Z"/>
    </g>
    <g>
      <path class="st17" d="M60,685.6h0c-3.8,0-7-2.5-7.3-5.7l-4.7-58.8c-.4-5.4,4.6-10,11-10h0c6.3,0,11.3,4.4,11,9.7l-2.8,58.9c-.2,3.3-3.4,5.9-7.3,5.9h0Z"/>
      <path class="st17" d="M67.1,752.7l-9.5.2-5-72.9c0-3.4,3.1-6.3,7.2-6.4h0c4.1,0,7.5,2.6,7.6,6.1l-.2,73h0Z"/>
      <path class="st19" d="M67.4,750.5v3.2c0,1-.5,1.9-1.4,2.5-4.4,3-18.1,11.8-27.1,11.2-1.9-.1-2.7-2-1.4-3.1l20.2-13.9h9.8,0Z"/>
    </g>
    <g>
      <rect class="st18" x="61" y="526" width="10.2" height="13.5"/>
      <path class="st0" d="M83.5,505.8c-.8-.4-1.9,0-2.9.6-.9-9.5-7-16.9-14.4-16.9s-13.7,7.6-14.5,17.4c-1.1-1-2.4-1.5-3.4-1-1.3.6-1.5,2.4-.4,4.1,1,1.6,2.7,2.5,4,2.1,1.1,9.2,7.1,16.2,14.4,16.2s13.2-7,14.4-16.2c1.2,0,2.5-.9,3.4-2.2,1.1-1.7.9-3.5-.4-4.1h-.2Z"/>
      <g>
        <path class="st1" d="M77.2,503.7c-.2,0-.3,0-.4-.2-1.6-2.8-4.1-1.7-4.2-1.7-.2,0-.5,0-.7-.2,0-.2,0-.5.2-.7,1.3-.5,4-.9,5.6,2.1,0,.2,0,.5-.2.7h-.3Z"/>
        <path class="st1" d="M56.3,503.7c.2,0,.3,0,.4-.2,1.6-2.8,4.1-1.7,4.2-1.7.2,0,.5,0,.7-.2,0-.2,0-.5-.2-.7-1.3-.5-4-.9-5.6,2.1,0,.2,0,.5.2.7h.3Z"/>
        <path class="st1" d="M59.5,505.7c0,.9.6,1.9,1.4,1.9s1.5-.9,1.5-1.9-.6-1.9-1.4-1.9-1.5.9-1.5,1.9Z"/>
        <path class="st1" d="M72,505.7c0,.9.6,1.9,1.4,1.9s1.5-.9,1.5-1.9-.6-1.9-1.4-1.9-1.5.9-1.5,1.9Z"/>
        <path class="st22" d="M62.1,517.6c.2.2,1.4,2.8,4.5,2.7,3.1,0,4.3-2.4,4.5-2.7"/>
        <path class="st17" d="M58,516.7c.7-1.1,2.5-1.8,4.4-2.1s3.8-.4,5.7,0c1.5.2,3.2.7,4.4,1.2.3,0,.7.3.8.6.2.5-.6.6-1.2.7-4.6.5-8.9.7-13.5,0"/>
        <path class="st3" d="M68.7,511.5c0,1.3-.9,2.2-2.2,2.2s-2.2-.9-2.2-2.2.9,1.3,2.2,1.3,2.2-2.5,2.2-1.3Z"/>
        <path class="st5" d="M77.4,508.5c1.8,0,3.3,1.4,3.2,2.8s-1.7,2.6-3.6,2.5-3.3-1.4-3.2-2.8,1.7-2.6,3.6-2.5Z"/>
        <path class="st5" d="M56.8,508.5c1.8,0,3.3,1.4,3.2,2.8s-1.7,2.6-3.6,2.5-3.3-1.4-3.2-2.8,1.7-2.6,3.6-2.5Z"/>
      </g>
      <path class="st17" d="M83.2,489.2c.6-.3,2.5-.5,1.9-1.3-.9-1.2-4-.4-5.4-.3.6-.4,1.6-.7,1.1-1.4-1.1-1.6-4.6-.7-6.3-.5.7-.7.5-1.4-.6-1.6-2.1-.5-4.4.2-6.3.8-.4-1.4-1.5-1.6-3.3-1.2-.9.2-1.5.7-2.3.9-.7.2-.5.2-.8-.2-1-1.1-1.5-1.6-3.2-1.1-2.1.6-2.8,1.7-3.9,3-.6-.4-1.7-.9-2.3,0-.5.7.3,1.8.8,2.4-1,.3-1.8.3-1.8,1.5s1.4,2.5.5,3c-1.2.6-2.6,0-2.3,1.7.2,1.4,1.6,2.3,1.7,3.7-.6,0-1.8,0-2.3.4-1.1.6-.3,1.9.3,2.5s2,1.4,1.6,2c-.3.4-1.5,0-1.9.6s0,2,.3,2.5c.2.5,1.5,1.3,1.5,1.7s-.9.7-1,1.2c0,.6.2,1.1.6,1.6.5.5.2,2.7,3.2,2,.6,0,2.2-1.8,1.8-2.2s-.7-.4-.8-.5c-.3-.5,1.2-4.5-.7-4,1.7-.8,3.5-3.8,1-4.8.8-.6,1.7-1.1,1.9-2.1,0-.5,0-1.3-.3-1.7-.2-.4-.6-.5-.9-.9,1-.5,3.9-1.6,3.6-2.7,1.2,0,2.7-.5,3.7-.9,0,0,.7-.4,1.1-.7.4.5,1.3.7,1.9.8,1,.2,3.7.2,4.9-.5.3,0,.7.2.8.2.8.2,2.4.2,3.2,0,.4.6,1.5,1.7,1.8,2.1.3.4.6,1.2,1.1,1.6,0,1.4.5,2.9,1,4.2,0,.2.4.7.4.9,0,.3-.8.8-.9,1.2-.4,1.1.3,2.3.5,3.3,0,.7-.2,1.3,0,2,0,.8.7,3.8,2.1,3.4,1.7-.4,0-2,.3-2.7,0-.4.6-.7.8-1,.6-.6,1.1-1.3,1.4-2.1.5-1.1.6-2-.4-2.8.8-1.1,4.1-3.8.9-4.4,1.5-1.3.7-4.5-.9-5.6,1.1-.5,2.8-1,3.2-2.1.5-1.2-1.2-1.8-2.4-1.7v-.2Z"/>
    </g>
    <path class="st21" d="M92.6,616c.2,1.4-.9,2.7-2.7,3-14,2.2-25.2,3.1-37.9,1.2-.9-.1-2.2-.3-3.6-.4-1.8-.2-3.2-1.5-3.1-2.9.4-4.2,1.6-10,3-20.1.8-7.6.5-15.2-.7-22.8l-5.3-32.7s1.6-.7,3.9-1.7c1.5-.7,3.4-1.5,5.4-2.4,5.7-2.5,11.1-4.5,11.5-4.5l9.2-.3c.3,0,4.2,1.4,7.4,2.7,1.9.8,3.6,1.5,4.3,2l7.8,3.4-3.3,30.1v.3c-1.3,11.7,2.7,37.1,4.1,45.1Z"/>
    <g>
      <path class="st11" d="M61.6,529.7s.5,2.3,5,3.2c0,0-1.3,6-5.3,8.3,0,0-1.5-5.5-4.9-6.6,0,0-.8-2,5.3-4.9h0Z"/>
      <path class="st11" d="M70.2,529.5s-.5,2.3-5,3.2c0,0,1.3,6,5.3,8.3,0,0,1.5-5.5,4.9-6.6,0,0,.8-2-5.3-4.9h.1Z"/>
    </g>
  </g>
</svg>