<?xml version="1.0" encoding="UTF-8"?>
<svg id="Layer_2" data-name="Layer 2" xmlns="http://www.w3.org/2000/svg" viewBox="0 0 74.51 247.34">
  <defs>
    <style>
      .cls-1, .cls-2 {
        fill: #603813;
      }

      .cls-3 {
        fill: #273758;
      }

      .cls-4 {
        fill: #e6e6e6;
      }

      .cls-5 {
        fill: #c69696;
      }

      .cls-6 {
        fill: #d9a2a0;
      }

      .cls-7, .cls-2 {
        isolation: isolate;
        opacity: .5;
      }

      .cls-7, .cls-8 {
        fill: #d9baba;
      }

      .cls-9 {
        fill: #8b2b0e;
      }

      .cls-10 {
        fill: #3f6138;
      }

      .cls-11 {
        fill: #d9b6b6;
      }

      .cls-12 {
        fill: none;
        stroke: #630;
        stroke-linecap: round;
        stroke-miterlimit: 10;
      }
    </style>
  </defs>
  <g id="Layer_1-2" data-name="Layer 1">
    <g id="girl-slightright-pointing">
      <g>
        <path class="cls-11" d="M42.48,91.44h0c-.9,1.3-1.4,2.9-1.2,4.5l4.28,32,6.5-2.4-1.58-30.9c-.2-4.7-5.3-6.7-8-3.2h0Z"/>
        <path class="cls-11" d="M44.68,99.94h0c3.4.5,6.2-3.4,5.7-7.5l-4.29-26.4c-.6-4.2-3.7-6.8-7-6h0c-3.8.9-6.3,6-5.01,10.6l7.09,24.7c.6,2.1,1.6,4.4,3.4,4.6h.1s0,0,0,0Z"/>
        <path class="cls-4" d="M43.99,61.34c3,3.3,6.59,9.9,8.19,23.3l-13.5,4.89-1.2-5.2c-3.3-8.2-5.79-15.7-4.59-20.7,1.2-4.7,7.8-6,11.1-2.29Z"/>
        <path class="cls-11" d="M40.73,132.83l4.8-9.41,6.74,1.59-.22.33c3.54,7.87.53,13.67.53,13.67-2.76,5.61-4.48,5.31-5.37,4.12-.67-.8-.84-2-.53-2.99.96-4.88-.75-11.18-.75-11.18-5.14,7.39-5.18,4.01-5.18,4.01h0l-.03-.14h0Z"/>
      </g>
      <g>
        <path class="cls-9" d="M50.57,38.64c.2-4.7-1.9-8.4-3.6-12.2-.7-1.7-1.4-4.8-2.6-6.1-1.5-1.8-5.4-1.1-7.4-1.3-7.4-.6-14.8-.3-22.2.3-2.3.2-3.7-.7-4.7,2.5-.7,2.1-1.1,2.9-1.1,2.9-2.4,3.9-6.3,6.2-7.9,11.2-1.2,4.1-.9,9.2,1.4,12.2,0-1.6.3-3.7.7-5.1,1.6,1.3,2.6,3.7,4.1,5.1s3.3,2.7,5.1,3.5c.2-1.4-.2-3.3.2-4.5,1.2,3.2,4.3,4.8,6.7,6.2,0-1.9-.3-4.3,1.2-3.2.4.3.9,1.6,1.4,2.1s1.1.8,1.7,1.2c1.8,1.2,2.5,1.5,4.3.2,1.2-1.1,2.8-2.5,3.8-3.9.6,1.2.2,3.2.1,4.6,2,.2,4.5-2.2,5.8-4.1.3,1.1,0,2.3.2,3.4,2.6-.2,7.4-4.8,8.7-7.7,1.2,1.1,2.1,3.7,1.7,5.6,2.2-3.4,2.4-8.7,2.6-13h-.2v.1h0Z"/>
        <path class="cls-5" d="M25.17,58.24h0c-3.2-.1-5.6-2.8-5.5-5.9l.4-11.1,9.1.3-.5,13.5c0,1.8-1.6,3.2-3.4,3.2h-.1Z"/>
        <path class="cls-8" d="M45.67,32.34c-.4,1.8-.7,3.4-1.4,5-.2.6-.4,1.1-.7,1.7-3.2,7.3-8.9,12.1-15.4,12-3.1,0-6-1.3-8.5-3.4-.6-.4-1.1-.9-1.6-1.5-4.2-4.6-6.9-11.7-6.6-19.8.4-13.4,8.3-24,17.9-23.8,1.4,0,2.8.3,4.1.8,7.5,2.8,13.1,12.4,12.8,23.8"/>
        <g>
          <path class="cls-1" d="M23.17,26.94c.2,0,.4,0,.5-.3,1.7-3.2,4.6-1.9,4.7-1.8.3,0,.6,0,.8-.3,0-.3,0-.6-.3-.8-1.4-.6-4.5-1-6.2,2.3,0,.3,0,.6.2.8h.3v.1Z"/>
          <path class="cls-1" d="M40.57,24.34s.3.2.5,0c2.8-1.1,4,1.3,4,1.4,0,.2.4.3.6.2.2,0,.3-.4.2-.6-.5-1.2-2.3-3.1-5.2-1.9-.2,0-.4.4-.3.6v.2h.2v.1h0Z"/>
          <path class="cls-1" d="M26.67,29.24c0,1.1.7,2.1,1.5,2.1s1.6-1,1.6-2.1-.7-2.1-1.5-2.1-1.6,1-1.6,2.1Z"/>
          <path class="cls-1" d="M40.57,29.24c0,1.1.7,2.1,1.5,2.1s1.6-1,1.6-2.1-.7-2.1-1.5-2.1-1.6,1-1.6,2.1Z"/>
          <path class="cls-12" d="M28.77,41.34c0,.2.8,3.2,3.8,3.7,2.9.4,4.5-1,4.7-1.3"/>
          <path class="cls-2" d="M37.37,34.74c1,1,1,2.5,0,3.5s-2.5,1-3.5,0,1.8.2,2.8-.7c1-1-.2-3.7.8-2.8h-.1,0Z"/>
          <path class="cls-6" d="M45.47,32.34c-.4,1.8-.7,3.4-1.4,5-.2.6-.4,1.1-.7,1.7-1-.7-1.5-2-1.4-3.2,0-1.8,1.6-3.2,3.4-3.4h.1v-.1Z"/>
          <path class="cls-6" d="M23.87,32.14c2,0,3.6,1.5,3.5,3.2s-1.9,2.9-3.9,2.8-3.6-1.5-3.5-3.2,1.9-2.9,3.9-2.8Z"/>
        </g>
        <path class="cls-7" d="M19.97,47.54h-.2c-.6-.4-1.1-.9-1.6-1.5-4.2-4.6-6.9-11.7-6.6-19.7.4-13.4,8.3-24,17.9-23.8,1.4,0,2.8.3,4.1.8-7.6,5.6-21.1,20.7-13.6,44.3h0v-.1h0Z"/>
        <g>
          <path class="cls-8" d="M15.67,26.44c1,3,.3,5.9-1.6,6.5s-4.2-1.3-5.2-4.4-.3-5.9,1.6-6.5c1.8-.6,4.2,1.3,5.2,4.4Z"/>
          <path class="cls-7" d="M15.67,26.44c1,3,.3,5.9-1.6,6.5s-4.2-1.3-5.2-4.4-.3-5.9,1.6-6.5c1.8-.6,4.2,1.3,5.2,4.4Z"/>
        </g>
        <path class="cls-9" d="M45.37,24.44c.8,4.4,2.3,3.7-.2,12.7s-1,4.9-1.6,7.2c-.5,2.1-2.3,4-2.1,6.2,1.4-.8,4.2-3,5.2-4.3,2-2.8,1.4-9.2,1.2-12.6h.1c-.2-3.3-.4-8.8-.6-11.3v-2.6c0-6.5-1.6-13.7-5.8-17.4-3-2.7-5.8-.8-9.1-1.5C22.37-1.26,13.87.24,9.87,8.94.17,30.24,11.37,41.94,13.07,44.94c.9,1.4,9.5,7.4,10.9,8.3-7.1-8.2-6.2-21.9-4.9-30,.6-4,2.9-7.6,6.2-10h0s2.7,3,4.3,4.2c2,1.4,4.6,2.6,6.8,2.8-.3-.6-.9-1.2-1.2-1.8-.2-.3-.4-.8-.6-1.1,1.1,1.5,3,2.8,4.4,4,1.4,1.1,2.9,1.7,4.5,2.4.1-.6-1.2-3.3-1.6-4.2.5.8,1.8,1.3,2.2,2.2"/>
      </g>
      <g>
        <path class="cls-11" d="M28.27,198.24c-1.2,18.7-3.7,38.1-4.3,38.1l-5.8-.4-2-38.5-1.5-28.9v-1.2c0-.4,0-.8.2-1.2.7-3.1,3.6-5.3,6.9-5.1,3.3.2,6,2.9,6.2,6.1,0,.9.2,1.7.3,2.6,1,6.2.7,17.2,0,28.5h0Z"/>
        <path class="cls-3" d="M17.07,243.34c0,.6.4,1.6.9,2.4.5,1,1.5,1.6,2.6,1.6h21.6c4.9-2.6-18.2-10.9-18.2-10.9h-5.7s-1.3,5.8-1.1,7h-.1v-.1Z"/>
        <path class="cls-11" d="M21.47,173.94h0c3.8-.4,6.6-3.6,6.5-7.5l-.8-35.3c-.7-5.1-5.3-8.6-10.4-7.9h0c-5.1.7-8.6,5.3-7.9,10.4l5.3,33.8c.5,3.9,3.4,6.9,7.3,6.5h0Z"/>
      </g>
      <g>
        <path class="cls-11" d="M46.07,198.24c-1.2,18.7-3.7,38.1-4.3,38.1l-5.8-.4-2-38.5-1.5-28.9v-1.2c0-.4,0-.8.2-1.2.7-3.1,3.6-5.3,6.9-5.1s6,2.9,6.2,6.1c0,.9.2,1.7.3,2.6,1,6.2.7,17.2,0,28.5h0Z"/>
        <path class="cls-3" d="M34.97,243.34c0,.6.4,1.6.9,2.4.5,1,1.5,1.6,2.6,1.6h21.6c4.9-2.6-18.2-10.9-18.2-10.9h-5.7s-1.3,5.8-1.1,7h0l-.1-.1h0Z"/>
        <path class="cls-11" d="M39.37,173.94h0c3.8-.4,6.6-3.6,6.5-7.5l-.8-35.3c-.7-5.1-5.3-8.6-10.4-7.9h0c-5.1.7-8.6,5.3-7.9,10.4l5.3,33.8c.5,3.9,3.4,6.9,7.3,6.5h0Z"/>
      </g>
      <path class="cls-4" d="M14.07,100.84l-5.3-29.7c-.6-3.3-.5-8.8,3-10.1l5.3-4,2.5-2.3,9.1.3s1.6,1.8,4.7,2.7c11.6,3.6,9,2.3,10.6,16.5l.4,9.2c.3,8.2.8,16.3,1.6,24.5-10.1,3.1-20.3,2.6-30.6-1.3l-1.2-5.8h-.2.1,0Z"/>
      <g>
        <path class="cls-10" d="M47.27,140.74l-16,6.7-19-7.3h0s-1.5-5.3-.9-12c.3-2.6.9-5.2,1.6-7.6,1.4-4.2,1.9-8.5,1.9-12.9.3-.8.5-1.1.5-1.1,10.3,3.9,20.5,4.4,30.6,1.3,0,.5,0,.9.2,1.4.2,2.3.5,4.7.9,7,0,.6.2,1.1.2,1.6.2,1,.3,2,.4,3,.6,4.3.7,9.5-.2,19.8h-.2v.1Z"/>
        <path class="cls-10" d="M15.37,106.94s-12.6,29.6-13.1,57.7c0,1.5.8,2.7,2,3.2,7.8,2.4,36.5,10.2,50.7,0,.9-.7,1.5-1.8,1.3-3.1-.8-8.2-4.2-40.9-9.9-56.7-10.3,3.9-20.6,3.4-31.1-1.1h.1Z"/>
      </g>
      <g>
        <path class="cls-11" d="M16.07,106.86h0c-3.38,1.88-7.84,4.93-8.9-5.63l-5.58-28.94c-1.08-4.53,1.27-8.52,5.19-9.07h0c4.5-.62,9.02,3.74,9.39,9.07l1.69,28.44c.19,2.49-.14,5.26-2.01,6.2l.22-.07h0Z"/>
        <path class="cls-4" d="M2.41,66.23c-2.13,4.36-3.76,12.26-.78,25.96l17.11-.66-.52-5.58c.82-9.26.83-17.51-2.41-21.8-2.92-4.06-10.9-2.72-13.25,2.15l-.11.04-.03-.1h0Z"/>
        <path id="hand6" class="cls-8" d="M60.92,113.36l12.56,6.46c.89.46,1.26,1.43.87,2.18h0c-.39.76-1.39,1.02-2.28.56l-8.86-4.55s1.8,2.92-1.7,3.64c0,0,1.33,4.5-3.38,2.86l-11.89-7.93,3.32-6.45s15.16-.97,15.42,1.24c0,0,1.44.74-4.06,1.99Z"/>
        <path class="cls-11" d="M10.72,101.13h0c1.47-.87,3.28-1.04,5.1-.62l33.95,9.42-3.57,6.75-33.25-6.5c-5.1-1.01-6.44-6.71-2.2-9.15l-.04.1h0Z"/>
      </g>
    </g>
  </g>
</svg>