<?xml version="1.0" encoding="UTF-8"?>
<svg id="Ebene_2" data-name="Ebene 2" xmlns="http://www.w3.org/2000/svg" viewBox="0 0 233.98 841.62">
  <defs>
    <style>
      .cls-1 {
        fill: #f8d440;
      }

      .cls-2 {
        fill: #d9b6b6;
      }

      .cls-3 {
        stroke: #630;
        stroke-miterlimit: 10;
      }

      .cls-3, .cls-4, .cls-5, .cls-6, .cls-7 {
        fill: none;
        stroke-linecap: round;
      }

      .cls-8 {
        fill: #5290c0;
      }

      .cls-9 {
        fill: #d9a2a0;
      }

      .cls-4 {
        stroke: #f9c438;
      }

      .cls-4, .cls-5, .cls-6 {
        opacity: .6;
        stroke-width: 5.19px;
      }

      .cls-4, .cls-5, .cls-6, .cls-7 {
        stroke-linejoin: round;
      }

      .cls-4, .cls-5, .cls-6, .cls-10 {
        isolation: isolate;
      }

      .cls-11 {
        fill: #35555e;
      }

      .cls-12 {
        fill: #274147;
      }

      .cls-13 {
        fill: #e0e0e0;
      }

      .cls-14 {
        fill: #c1616f;
      }

      .cls-15 {
        fill: #d38a17;
      }

      .cls-16 {
        fill: #d9baba;
      }

      .cls-17 {
        fill: #f9c438;
      }

      .cls-18 {
        fill: #e87480;
      }

      .cls-19 {
        fill: #f0a530;
      }

      .cls-5 {
        stroke: #f0a530;
      }

      .cls-20, .cls-10 {
        fill: #603813;
      }

      .cls-6 {
        stroke: #f8d440;
      }

      .cls-21 {
        fill: #d9d3b6;
      }

      .cls-22 {
        fill: #549e8e;
      }

      .cls-23 {
        fill: #273758;
      }

      .cls-24 {
        fill: #466e9f;
      }

      .cls-25 {
        fill: #dbb087;
      }

      .cls-26 {
        fill: #54828e;
      }

      .cls-27 {
        fill: #efa770;
      }

      .cls-28 {
        fill: #5eb2a1;
      }

      .cls-29 {
        fill: #c69696;
      }

      .cls-7 {
        stroke: #fafeff;
      }

      .cls-30 {
        fill: #fdfffe;
      }

      .cls-10 {
        opacity: .5;
      }

      .cls-31 {
        opacity: .8;
      }

      .cls-32 {
        fill: #a34634;
      }

      .cls-33 {
        fill: #dbe387;
      }

      .cls-34 {
        fill: #e6e6e6;
      }
    </style>
  </defs>
  <g id="svg">
    <g id="s-falsebelief-uc-b">
      <g id="german">
        <g id="german-boy-pencils-cf">
          <g>
            <path class="cls-2" d="M181.74,676.4c-4.4,63.3-13.2,128.96-15.23,128.96l-19.63-1.35-6.09-130.32-4.74-97.82v-4.06c0-1.35,0-2.71.68-4.06,2.71-10.49,12.19-17.94,23.36-16.92,12.52,1.02,21.66,11.51,20.99,24.03,4.4,19.63,3.38,60.25.68,101.88h0v-.34h0Z"/>
            <path class="cls-34" d="M174.97,749.85c-3.72,32.16-7.11,55.51-8.46,55.51l-19.63-1.35-2.71-54.16h30.8Z"/>
            <path class="cls-23" d="M141.12,824.99c0,4.06,2.37,7.11,5.42,9.14,2.03,1.35,76.84,8.12,78.87,7.45,16.92-8.12-59.57-37.91-59.57-37.91l-20.65.68s-4.4,16.59-3.72,20.99h0v-.34h-.34Z"/>
            <g>
              <path class="cls-2" d="M184.45,447.24l-2.71,92.07-.68,27.76c0,12.86-10.49,23.36-23.36,24.03-13.54.68-22.34-9.82-23.36-23.36l-3.05-28.43-9.14-86.99v-2.71c0-16.25,12.52-29.79,28.77-31.14,17.26-1.35,32.49,11.51,33.85,28.77h-.34Z"/>
              <path class="cls-24" d="M184.45,447.24l1.35,88.68c0,1.69-1.35,3.38-3.38,3.38h-56.53c-1.69,0-3.38-1.35-3.38-3.38l-.68-83.61v-2.71c0-16.25,12.52-29.79,28.77-31.14,17.26-1.35,32.49,11.51,33.85,28.77Z"/>
            </g>
          </g>
          <g>
            <path class="cls-2" d="M51.09,676.4c4.4,63.3,13.2,128.96,15.23,128.96l19.63-1.35,6.09-130.32,4.74-97.82v-4.06c0-1.35,0-2.71-.68-4.06-2.71-10.49-12.19-17.94-23.36-16.92-12.52,1.02-22,11.51-20.99,24.03-4.4,19.63-3.38,60.25-.68,101.88h0v-.34h0Z"/>
            <path class="cls-34" d="M88.32,749.85l-2.71,54.16-19.63,1.35c-1.35,0-4.74-23.36-8.46-55.51h30.8Z"/>
            <path class="cls-23" d="M90.69,824.99c0,4.06-2.37,7.11-5.42,9.14-2.03,1.35-76.84,8.12-78.87,7.45-16.92-8.12,59.57-37.91,59.57-37.91l20.65.68s4.4,16.59,3.72,20.99h0v-.34h.34Z"/>
            <g>
              <path class="cls-2" d="M110.32,449.95v2.37l-8.12,87.33-2.71,28.09c-1.02,13.54-9.82,24.03-23.36,23.69-12.86-.68-23.02-10.83-23.69-23.69l-1.02-27.76-3.72-91.73c1.35-17.26,16.25-30.13,33.51-29.11,16.59,1.02,29.11,14.89,29.11,31.14h0s0-.17,0,0v-.34h0Z"/>
              <path class="cls-24" d="M110.32,449.95v2.37l-2.71,84.28c0,1.69-1.35,3.05-3.05,3.05h-55.17c-1.69,0-3.05-1.35-3.05-3.05l1.35-88.68c1.35-17.26,16.25-30.13,33.51-29.11,16.59,1.02,29.11,14.89,29.11,31.14h0Z"/>
            </g>
          </g>
          <path class="cls-34" d="M189.19,226.21l-3.72,22-13.88,84.62c-3.38,13.2-4.06,26.74-2.03,39.94H63.27c5.08-15.23,6.43-31.14,3.72-47.05l-13.2-76.5-4.06-22.68,4.06-2.37,53.14-33.51h30.8l48.06,33.17,3.72,2.37s-.34,0-.34,0Z"/>
          <path class="cls-24" d="M184.11,456.38l-59.23,25.39h-17.6l-59.23-24.71c-1.69-16.92,1.02-42.65,5.75-59.23,1.35-4.74,3.05-9.48,4.74-13.54,1.69-3.72,3.38-7.45,4.4-11.51h106.28c1.02,6.09,2.37,12.52,4.4,18.28,2.37,7.11,4.74,15.91,6.09,26.4,1.69,10.15,5.42,25.72,3.72,38.93,0,0,.68,0,.68,0Z"/>
          <path class="cls-24" d="M149.59,198.79h0c-8.12,27.08-46.03,28.09-55.85,1.69v-1.02l13.88-8.8h30.8l11.85,8.12h-.68Z"/>
          <g id="s-falsebelief-uc-b-pencils">
            <g>
              <path class="cls-27" d="M59.53,342.66v91.37h-9.73v-91.37l3.91-14.17c.31-1.13,1.59-1.13,1.91,0l3.91,14.17Z"/>
              <path class="cls-21" d="M59.53,342.66c-3.64,1.44-4.75-2.92-4.75-2.92-.79,4.01-4.99,2.92-4.99,2.92l3.14-11.38.77-2.79c.31-1.13,1.59-1.13,1.91,0l.77,2.79,3.15,11.38Z"/>
              <path class="cls-27" d="M56.38,331.28h-3.44l.77-2.79c.31-1.13,1.59-1.13,1.91,0l.77,2.79Z"/>
              <path class="cls-26" d="M54.78,339.74s.02,1.47.05,4.05c.02,2.58.05,6.26.09,10.68.02,4.42.06,9.58.07,15.1.01,5.52.02,11.42.03,17.31-.01,5.89-.02,11.79-.03,17.31,0,5.53-.05,10.68-.07,15.1-.02,4.42-.07,8.1-.09,10.68-.03,2.58-.05,4.05-.05,4.05,0,0-.02-1.47-.05-4.05-.02-2.58-.07-6.26-.09-10.68-.02-4.42-.07-9.58-.07-15.1-.01-5.52-.02-11.42-.03-17.31.01-5.89.02-11.79.03-17.31,0-5.53.05-10.68.07-15.1.04-4.42.07-8.1.09-10.68.03-2.58.05-4.05.05-4.05h0Z"/>
              <line class="cls-7" x1="53.65" y1="330.17" x2="54.06" y2="328.66"/>
              <line class="cls-7" x1="50.75" y1="344.42" x2="50.75" y2="358.08"/>
            </g>
            <g>
              <path class="cls-8" d="M78.87,342.62v91.37h-9.73v-91.37l3.91-14.17c.31-1.13,1.59-1.13,1.91,0l3.91,14.17Z"/>
              <path class="cls-21" d="M78.87,342.62c-3.64,1.44-4.75-2.92-4.75-2.92-.79,4.01-4.99,2.92-4.99,2.92l3.14-11.38.77-2.79c.31-1.13,1.59-1.13,1.91,0l.77,2.79,3.15,11.38Z"/>
              <path class="cls-8" d="M75.72,331.24h-3.44l.77-2.79c.31-1.13,1.59-1.13,1.91,0l.77,2.79Z"/>
              <path class="cls-26" d="M74.12,339.7s.02,1.47.05,4.05c.02,2.58.05,6.26.09,10.68.02,4.42.06,9.58.07,15.1.01,5.52.02,11.42.03,17.31-.01,5.89-.02,11.79-.03,17.31,0,5.53-.05,10.68-.07,15.1-.02,4.42-.07,8.1-.09,10.68-.03,2.58-.05,4.05-.05,4.05,0,0-.02-1.47-.05-4.05-.02-2.58-.07-6.26-.09-10.68-.02-4.42-.07-9.58-.07-15.1-.01-5.52-.02-11.42-.03-17.31.01-5.89.02-11.79.03-17.31,0-5.53.05-10.68.07-15.1.04-4.42.07-8.1.09-10.68.03-2.58.05-4.05.05-4.05h0Z"/>
              <line class="cls-7" x1="72.99" y1="330.13" x2="73.4" y2="328.62"/>
              <line class="cls-7" x1="70.09" y1="344.38" x2="70.09" y2="358.04"/>
            </g>
            <g>
              <path class="cls-33" d="M88.77,342.66v91.37h-9.73v-91.37l3.91-14.17c.31-1.13,1.59-1.13,1.91,0l3.91,14.17Z"/>
              <path class="cls-21" d="M88.77,342.66c-3.64,1.44-4.75-2.92-4.75-2.92-.79,4.01-4.99,2.92-4.99,2.92l3.14-11.38.77-2.79c.31-1.13,1.59-1.13,1.91,0l.77,2.79,3.15,11.38Z"/>
              <path class="cls-33" d="M85.63,331.28h-3.44l.77-2.79c.31-1.13,1.59-1.13,1.91,0l.77,2.79Z"/>
              <path class="cls-25" d="M84.02,339.74s.03,5.89.07,14.73c.02,8.84.04,20.63.06,32.41-.02,11.79-.04,23.57-.06,32.41-.04,8.84-.07,14.73-.07,14.73,0,0-.03-5.89-.07-14.73-.02-8.84-.04-20.63-.06-32.41.02-11.79.04-23.57.06-32.41.04-8.84.07-14.73.07-14.73Z"/>
              <line class="cls-7" x1="82.89" y1="330.17" x2="83.3" y2="328.66"/>
              <line class="cls-7" x1="80" y1="344.42" x2="80" y2="358.08"/>
            </g>
            <g>
              <path class="cls-28" d="M98.51,342.66v91.37h-9.73v-91.37l3.91-14.17c.31-1.13,1.59-1.13,1.91,0l3.91,14.17Z"/>
              <path class="cls-21" d="M98.51,342.66c-3.64,1.44-4.75-2.92-4.75-2.92-.79,4.01-4.99,2.92-4.99,2.92l3.14-11.38.77-2.79c.31-1.13,1.59-1.13,1.91,0l.77,2.79,3.15,11.38Z"/>
              <path class="cls-28" d="M95.36,331.28h-3.44l.77-2.79c.31-1.13,1.59-1.13,1.91,0l.77,2.79Z"/>
              <path class="cls-22" d="M93.76,339.74s.02,1.47.05,4.05c.02,2.58.05,6.26.09,10.68.02,4.42.06,9.58.07,15.1.01,5.52.02,11.42.03,17.31-.01,5.89-.02,11.79-.03,17.31,0,5.53-.05,10.68-.07,15.1-.02,4.42-.07,8.1-.09,10.68-.03,2.58-.05,4.05-.05,4.05,0,0-.02-1.47-.05-4.05-.02-2.58-.07-6.26-.09-10.68-.02-4.42-.07-9.58-.07-15.1-.01-5.52-.02-11.42-.03-17.31.01-5.89.02-11.79.03-17.31,0-5.53.05-10.68.07-15.1.04-4.42.07-8.1.09-10.68.03-2.58.05-4.05.05-4.05h0Z"/>
              <line class="cls-7" x1="92.63" y1="330.17" x2="93.04" y2="328.66"/>
              <line class="cls-7" x1="89.73" y1="344.42" x2="89.73" y2="358.08"/>
            </g>
            <g>
              <path class="cls-30" d="M108.24,342.74v91.37h-9.73v-91.37l3.91-14.17c.31-1.13,1.59-1.13,1.91,0l3.91,14.17Z"/>
              <path class="cls-21" d="M108.24,342.74c-3.64,1.44-4.75-2.92-4.75-2.92-.79,4.01-4.99,2.92-4.99,2.92l3.14-11.38.77-2.79c.31-1.13,1.59-1.13,1.91,0l.77,2.79,3.15,11.38Z"/>
              <path class="cls-30" d="M105.09,331.35h-3.44l.77-2.79c.31-1.13,1.59-1.13,1.91,0l.77,2.79Z"/>
              <path class="cls-13" d="M103.49,339.82s.02,1.47.05,4.05c.02,2.58.05,6.26.09,10.68.02,4.42.06,9.58.07,15.1.01,5.52.02,11.42.03,17.31-.01,5.89-.02,11.79-.03,17.31,0,5.53-.05,10.68-.07,15.1-.02,4.42-.07,8.1-.09,10.68-.03,2.58-.05,4.05-.05,4.05,0,0-.02-1.47-.05-4.05-.02-2.58-.07-6.26-.09-10.68-.02-4.42-.07-9.58-.07-15.1-.01-5.52-.02-11.42-.03-17.31.01-5.89.02-11.79.03-17.31,0-5.53.05-10.68.07-15.1.04-4.42.07-8.1.09-10.68.03-2.58.05-4.05.05-4.05h0Z"/>
              <line class="cls-7" x1="102.36" y1="330.24" x2="102.77" y2="328.73"/>
              <line class="cls-7" x1="99.46" y1="344.49" x2="99.46" y2="358.15"/>
            </g>
            <g>
              <path class="cls-11" d="M117.98,342.71v91.37h-9.73v-91.37l3.91-14.17c.31-1.13,1.59-1.13,1.91,0l3.91,14.17Z"/>
              <path class="cls-21" d="M117.98,342.71c-3.64,1.44-4.75-2.92-4.75-2.92-.79,4.01-4.99,2.92-4.99,2.92l3.14-11.38.77-2.79c.31-1.13,1.59-1.13,1.91,0l.77,2.79,3.15,11.38Z"/>
              <path class="cls-11" d="M114.83,331.33h-3.44l.77-2.79c.31-1.13,1.59-1.13,1.91,0l.77,2.79Z"/>
              <path class="cls-12" d="M113.23,339.79s.03,5.89.07,14.73c.02,8.84.04,20.63.06,32.41-.02,11.79-.04,23.57-.06,32.41-.04,8.84-.07,14.73-.07,14.73,0,0-.03-5.89-.07-14.73-.02-8.84-.04-20.63-.06-32.41.02-11.79.04-23.57.06-32.41.04-8.84.07-14.73.07-14.73Z"/>
              <line class="cls-7" x1="112.1" y1="330.21" x2="112.51" y2="328.7"/>
              <line class="cls-7" x1="109.2" y1="344.47" x2="109.2" y2="358.13"/>
            </g>
            <g>
              <path class="cls-18" d="M69.46,342.83v91.37h-9.73v-91.37l3.91-14.17c.31-1.13,1.59-1.13,1.91,0l3.91,14.17Z"/>
              <path class="cls-21" d="M69.46,342.83c-3.64,1.44-4.75-2.92-4.75-2.92-.79,4.01-4.99,2.92-4.99,2.92l3.14-11.38.77-2.79c.31-1.13,1.59-1.13,1.91,0l.77,2.79,3.15,11.38Z"/>
              <path class="cls-18" d="M66.31,331.44h-3.44l.77-2.79c.31-1.13,1.59-1.13,1.91,0l.77,2.79Z"/>
              <path class="cls-14" d="M64.71,339.91s.03,5.89.07,14.73c.02,8.84.04,20.63.06,32.41-.02,11.79-.04,23.57-.06,32.41-.04,8.84-.07,14.73-.07,14.73,0,0-.03-5.89-.07-14.73-.02-8.84-.04-20.63-.06-32.41.02-11.79.04-23.57.06-32.41.04-8.84.07-14.73.07-14.73Z"/>
              <line class="cls-7" x1="63.58" y1="330.33" x2="63.99" y2="328.82"/>
            </g>
          </g>
          <g id="s-falsebelief-uc-b-cf">
            <g>
              <g>
                <path class="cls-19" d="M120.29,369.56c7.64,2.12,15.12-1.84,17.3-11.55,1.91-8.5-2.74-17.11-10.39-19.23-7.64-2.12-15.39,3.05-17.3,11.55-1.91,8.5,2.74,17.11,10.39,19.23Z"/>
                <g>
                  <path class="cls-32" d="M133.56,360.09c-.5-.14-.71-.76-.59-1.32.12-.55.54-.82,1.04-.68.5.14.8.7.68,1.25-.12.55-.63.89-1.13.75Z"/>
                  <path class="cls-32" d="M122.29,366.8c-.5-.14-.71-.76-.59-1.32.12-.55.54-.82,1.04-.68.5.14.8.7.68,1.25-.13.55-.63.89-1.13.75Z"/>
                  <path class="cls-32" d="M112.86,357.53c-.5-.14-.71-.76-.59-1.32.12-.55.54-.82,1.04-.68s.8.7.68,1.25c-.12.55-.63.89-1.13.75Z"/>
                  <path class="cls-32" d="M118.41,344.85c-.5-.14-.71-.76-.59-1.32.12-.55.54-.82,1.04-.68.5.14.8.7.68,1.25-.12.55-.63.89-1.13.75Z"/>
                  <path class="cls-32" d="M131,346.22c-.5-.14-.71-.76-.59-1.32.12-.55.54-.82,1.04-.68s.8.7.68,1.25c-.12.55-.63.89-1.13.75Z"/>
                  <path class="cls-32" d="M123.96,355.3c-.5-.14-.71-.76-.59-1.32.12-.55.54-.82,1.04-.68.5.14.8.7.68,1.25-.12.55-.63.89-1.13.75Z"/>
                </g>
              </g>
              <g class="cls-31">
                <path class="cls-19" d="M132.47,367.12c-3.94.35-20.68-4.3-18.97-23.96-1.69,1.94-2.96,4.37-3.59,7.17-1.91,8.5,2.74,17.11,10.39,19.23,4.46,1.24,8.85.39,12.18-2.45Z"/>
              </g>
              <path class="cls-5" d="M134.1,355.15s.05-10.28-10.51-12.05"/>
            </g>
            <g>
              <g>
                <path class="cls-19" d="M140.22,381.53c7.4,2.06,14.64-1.78,16.75-11.18,1.85-8.23-2.65-16.57-10.06-18.63-7.4-2.06-14.9,2.95-16.75,11.18-1.85,8.23,2.65,16.57,10.06,18.63Z"/>
                <g>
                  <path class="cls-32" d="M153.07,372.35c-.48-.13-.69-.74-.57-1.28.12-.54.52-.8,1-.66.48.13.77.68.65,1.21-.12.54-.61.86-1.09.73Z"/>
                  <path class="cls-32" d="M142.16,378.85c-.48-.13-.69-.74-.57-1.28.12-.54.52-.8,1-.66.48.13.77.68.65,1.21-.12.54-.61.86-1.09.73Z"/>
                  <path class="cls-32" d="M133.03,369.87c-.48-.13-.69-.74-.57-1.28.12-.54.52-.8,1-.66s.77.68.65,1.21c-.12.54-.61.86-1.09.73Z"/>
                  <path class="cls-32" d="M138.4,357.6c-.48-.13-.69-.74-.57-1.28.12-.54.52-.8,1-.66.48.13.77.68.65,1.21-.12.54-.61.86-1.09.73Z"/>
                  <path class="cls-32" d="M150.6,358.92c-.48-.13-.69-.74-.57-1.28.12-.54.52-.8,1-.66s.77.68.65,1.21c-.12.54-.61.86-1.09.73Z"/>
                  <path class="cls-32" d="M143.77,367.71c-.48-.13-.69-.74-.57-1.28.12-.54.52-.8,1-.66.48.13.77.68.65,1.21-.12.54-.61.86-1.09.73Z"/>
                </g>
              </g>
              <g class="cls-31">
                <path class="cls-19" d="M152.02,379.16c-3.81.34-20.03-4.16-18.37-23.2-1.63,1.88-2.87,4.23-3.48,6.95-1.85,8.23,2.65,16.57,10.06,18.63,4.32,1.2,8.57.38,11.79-2.37Z"/>
              </g>
              <path class="cls-5" d="M153.59,367.57s.05-9.96-10.18-11.67"/>
            </g>
            <g>
              <g>
                <path class="cls-17" d="M139.41,369.87c5.62,5.8,5.94,15.57.72,21.81-5.22,6.25-14,6.61-19.62.8-5.62-5.8-5.94-15.57-.72-21.81s14-6.61,19.62-.8Z"/>
                <g>
                  <path class="cls-32" d="M140.48,384.19c-.5,0-.83-.54-.83-1.09s.33-.92.83-.92.9.45.9,1-.4,1-.9,1Z"/>
                  <path class="cls-32" d="M131.27,393.47c-.5,0-.83-.54-.83-1.09s.33-.92.83-.92.9.45.9,1c0,.55-.4,1-.9,1Z"/>
                  <path class="cls-32" d="M120.4,387.19c-.5,0-.83-.54-.83-1.09s.33-.92.83-.92.9.45.9,1-.4,1-.9,1Z"/>
                  <path class="cls-32" d="M122.95,373.77c-.5,0-.83-.54-.83-1.09s.33-.92.83-.92.9.45.9,1-.4,1-.9,1Z"/>
                  <path class="cls-32" d="M135.13,371.76c-.5,0-.83-.54-.83-1.09s.33-.92.83-.92.9.45.9,1c0,.56-.4,1-.9,1Z"/>
                  <path class="cls-32" d="M130.4,382.18c-.5,0-.83-.54-.83-1.09s.33-.92.83-.92.9.45.9,1c0,.56-.4,1-.9,1Z"/>
                </g>
              </g>
              <g class="cls-31">
                <path class="cls-17" d="M140.94,391.11c-3.64,1.36-20.44,1.36-22.99-17.65-1.18,2.27-1.87,4.9-1.87,7.71,0,8.52,6.21,15.44,13.88,15.44,4.47,0,8.44-1.95,10.98-5.5Z"/>
              </g>
              <path class="cls-4" d="M139.94,379.38s-2.13-9.72-12.47-8.62"/>
            </g>
            <g>
              <g>
                <path class="cls-1" d="M177.33,367.71c5.29,5.89,5.29,15.43,0,21.32-5.29,5.89-13.88,5.89-19.17,0s-5.29-15.43,0-21.32,13.88-5.89,19.17,0Z"/>
                <g>
                  <path class="cls-32" d="M178.01,381.32c-.49,0-.81-.52-.81-1.07s.33-.9.81-.9.88.44.88.98-.39.98-.88.98Z"/>
                  <path class="cls-32" d="M169.02,390.39c-.49,0-.81-.52-.81-1.07s.33-.9.81-.9.88.44.88.98-.39.98-.88.98Z"/>
                  <path class="cls-32" d="M158.41,384.25c-.49,0-.81-.52-.81-1.06s.33-.9.81-.9.88.44.88.98c0,.54-.39.98-.88.98Z"/>
                  <path class="cls-32" d="M160.89,371.15c-.49,0-.81-.52-.81-1.06s.33-.9.81-.9.88.44.88.98-.39.98-.88.98Z"/>
                  <path class="cls-32" d="M172.79,369.19c-.49,0-.81-.52-.81-1.07s.33-.9.81-.9.88.44.88.98c0,.54-.39.98-.88.98Z"/>
                  <path class="cls-32" d="M168.17,379.36c-.49,0-.81-.52-.81-1.06s.33-.9.81-.9.88.44.88.98-.39.98-.88.98Z"/>
                </g>
              </g>
              <g class="cls-31">
                <path class="cls-1" d="M178.47,388.07c-3.56,1.33-19.95,1.33-22.45-17.23-1.15,2.22-1.83,4.79-1.83,7.53,0,8.32,6.07,15.07,13.55,15.07,4.37,0,8.24-1.91,10.72-5.37Z"/>
              </g>
              <path class="cls-6" d="M177.49,376.63s-2.08-9.49-12.18-8.42"/>
            </g>
            <g>
              <g>
                <path class="cls-19" d="M139.62,427c7.14,1.98,14.13-1.72,16.16-10.79,1.78-7.94-2.56-15.99-9.71-17.97-7.14-1.98-14.38,2.85-16.16,10.79-1.78,7.94,2.56,15.99,9.71,17.97Z"/>
                <g>
                  <path class="cls-32" d="M152.02,418.14c-.47-.13-.66-.71-.55-1.23.12-.52.5-.77.97-.64.46.13.75.65.63,1.17-.12.52-.59.83-1.05.7Z"/>
                  <path class="cls-32" d="M141.5,424.41c-.47-.13-.66-.71-.55-1.23.12-.52.5-.77.97-.64.47.13.75.65.63,1.17-.12.52-.59.83-1.05.7Z"/>
                  <path class="cls-32" d="M132.68,415.75c-.46-.13-.66-.71-.55-1.23.12-.52.5-.77.97-.64s.75.65.63,1.17c-.12.52-.59.83-1.05.7Z"/>
                  <path class="cls-32" d="M137.86,403.9c-.47-.13-.66-.71-.55-1.23.12-.52.5-.77.97-.64.47.13.75.65.63,1.17-.12.52-.59.83-1.05.7Z"/>
                  <path class="cls-32" d="M149.64,405.18c-.47-.13-.66-.71-.55-1.23.12-.52.5-.77.97-.64s.75.65.63,1.17c-.12.52-.59.83-1.05.7Z"/>
                  <path class="cls-32" d="M143.05,413.66c-.46-.13-.66-.71-.55-1.23.12-.52.5-.77.97-.64.47.13.75.65.63,1.17-.12.52-.59.83-1.05.7Z"/>
                </g>
              </g>
              <g class="cls-31">
                <path class="cls-19" d="M151.01,424.71c-3.68.33-19.33-4.02-17.73-22.39-1.58,1.81-2.77,4.08-3.36,6.7-1.78,7.94,2.56,15.99,9.71,17.97,4.17,1.16,8.27.36,11.38-2.29Z"/>
              </g>
              <path class="cls-5" d="M152.53,413.53s.05-9.61-9.82-11.26"/>
            </g>
            <g>
              <g>
                <path class="cls-1" d="M127.97,397.12c5.23,5.82,5.23,15.26,0,21.08-5.23,5.82-13.72,5.82-18.96,0-5.23-5.82-5.23-15.26,0-21.08,5.23-5.82,13.72-5.82,18.96,0Z"/>
                <g>
                  <path class="cls-32" d="M128.65,410.57c-.48,0-.81-.52-.81-1.05s.32-.89.81-.89.87.43.87.97-.39.97-.87.97Z"/>
                  <path class="cls-32" d="M119.75,419.54c-.48,0-.81-.52-.81-1.05s.32-.89.81-.89.87.43.87.97-.39.97-.87.97Z"/>
                  <path class="cls-32" d="M109.26,413.47c-.48,0-.81-.52-.81-1.05s.32-.89.81-.89.87.43.87.97c0,.54-.39.97-.87.97Z"/>
                  <path class="cls-32" d="M111.71,400.52c-.48,0-.81-.52-.81-1.05s.32-.89.81-.89.87.43.87.97-.39.97-.87.97Z"/>
                  <path class="cls-32" d="M123.48,398.58c-.48,0-.81-.52-.81-1.05s.32-.89.81-.89.87.43.87.97c0,.54-.39.97-.87.97Z"/>
                  <path class="cls-32" d="M118.91,408.63c-.48,0-.81-.52-.81-1.05s.32-.89.81-.89.87.43.87.97-.39.97-.87.97Z"/>
                </g>
              </g>
              <g class="cls-31">
                <path class="cls-1" d="M129.09,417.25c-3.52,1.32-19.73,1.32-22.2-17.04-1.14,2.19-1.81,4.73-1.81,7.45,0,8.23,6,14.91,13.4,14.91,4.32,0,8.15-1.89,10.6-5.31Z"/>
              </g>
              <path class="cls-6" d="M128.13,405.93s-2.06-9.39-12.05-8.33"/>
            </g>
            <g>
              <g>
                <path class="cls-1" d="M164.92,390.12c5.13,5.7,5.13,14.94,0,20.64-5.13,5.7-13.44,5.7-18.56,0-5.13-5.7-5.13-14.94,0-20.64,5.13-5.7,13.44-5.7,18.56,0Z"/>
                <g>
                  <path class="cls-32" d="M165.58,403.29c-.47,0-.79-.51-.79-1.03s.32-.87.79-.87.85.43.85.95-.38.95-.85.95Z"/>
                  <path class="cls-32" d="M156.87,412.07c-.47,0-.79-.51-.79-1.03s.32-.87.79-.87.85.43.85.95-.38.95-.85.95Z"/>
                  <path class="cls-32" d="M146.6,406.13c-.47,0-.79-.51-.79-1.03s.32-.87.79-.87.85.43.85.95c0,.52-.38.95-.85.95Z"/>
                  <path class="cls-32" d="M149,393.45c-.47,0-.79-.51-.79-1.03s.32-.87.79-.87.85.43.85.95-.38.95-.85.95Z"/>
                  <path class="cls-32" d="M160.52,391.55c-.47,0-.79-.51-.79-1.03s.32-.87.79-.87.85.43.85.95c0,.53-.38.95-.85.95Z"/>
                  <path class="cls-32" d="M156.05,401.39c-.47,0-.79-.51-.79-1.03s.32-.87.79-.87.85.43.85.95-.38.95-.85.95Z"/>
                </g>
              </g>
              <g class="cls-31">
                <path class="cls-1" d="M166.02,409.83c-3.44,1.29-19.32,1.29-21.74-16.68-1.12,2.15-1.77,4.63-1.77,7.29,0,8.06,5.88,14.59,13.12,14.59,4.23,0,7.98-1.85,10.38-5.2Z"/>
              </g>
              <path class="cls-6" d="M165.07,398.75s-2.02-9.19-11.79-8.15"/>
            </g>
            <g>
              <g>
                <path class="cls-1" d="M164.04,336.86c4.93,5.48,4.93,14.38,0,19.86s-12.93,5.48-17.86,0c-4.93-5.48-4.93-14.38,0-19.86,4.93-5.48,12.93-5.48,17.86,0Z"/>
                <g>
                  <path class="cls-32" d="M164.68,349.54c-.45,0-.76-.49-.76-.99s.3-.84.76-.84.82.41.82.91-.37.91-.82.91Z"/>
                  <path class="cls-32" d="M156.3,357.98c-.45,0-.76-.49-.76-.99s.3-.84.76-.84.82.41.82.91-.37.91-.82.91Z"/>
                  <path class="cls-32" d="M146.41,352.27c-.45,0-.76-.49-.76-.99s.3-.84.76-.84.82.41.82.91c0,.5-.37.91-.82.91Z"/>
                  <path class="cls-32" d="M148.73,340.06c-.45,0-.76-.49-.76-.99s.3-.84.76-.84.82.41.82.91-.37.91-.82.91Z"/>
                  <path class="cls-32" d="M159.81,338.23c-.45,0-.76-.49-.76-.99s.3-.84.76-.84.82.41.82.91c0,.51-.37.91-.82.91Z"/>
                  <path class="cls-32" d="M155.51,347.71c-.45,0-.76-.49-.76-.99s.3-.84.76-.84.82.41.82.91-.37.91-.82.91Z"/>
                </g>
              </g>
              <g class="cls-31">
                <path class="cls-1" d="M165.1,355.83c-3.31,1.24-18.59,1.24-20.92-16.05-1.08,2.07-1.7,4.46-1.7,7.02,0,7.76,5.65,14.04,12.63,14.04,4.07,0,7.68-1.78,9.99-5.01Z"/>
              </g>
              <path class="cls-6" d="M164.19,345.16s-1.94-8.84-11.35-7.84"/>
            </g>
          </g>
          <g id="arm5">
            <path class="cls-2" d="M20.63,357.22h0c-14.24,0-24.12-14.82-19.47-29.06l31.39-89.22c4.65-14.24,18.89-21.8,32.26-17.44h0c15.69,5.23,22.96,24.12,15.4,39.52l-41.27,84.57c-3.49,7.27-10.46,11.62-18.31,11.62h0Z"/>
            <path class="cls-34" d="M43.3,221.51c-11.62,10.46-25.86,31.68-34.29,76.14l50.28,19.76s31.1-62.19,25.57-85.15c-3.78-15.98-28.48-21.8-41.56-10.46h0v-.29Z"/>
            <path class="cls-2" d="M20.42,318.17h0c5.48.69,10.06,3.9,12.94,8.94l54.97,96.52-24.26,11.31L3.75,348.3c-9.19-13.16,1.09-32.08,16.67-30.13h0Z"/>
            <path class="cls-2" d="M105.7,415.78l-35.88-6.43-7.33,25.74c.41.02.82.04,1.23.07,16.51,30.1,38.54,33.74,38.54,33.74,21.19,4.01,23.37-2.26,21.41-7.92-1.23-3.98-4.36-7.02-7.97-8.86-15.81-8.45-31.42-28.42-31.42-28.42,30.63.6,20.98-7.53,20.98-7.53l.43-.39h0Z"/>
          </g>
          <g id="arm5-2" data-name="arm5">
            <path class="cls-2" d="M212.46,357.04h0c14.24,0,24.12-14.82,19.47-29.06l-31.39-89.22c-4.65-14.24-18.89-21.8-32.26-17.44h0c-15.69,5.23-22.96,24.12-15.4,39.52l41.27,84.57c3.49,7.27,10.46,11.62,18.31,11.62h0Z"/>
            <path class="cls-34" d="M189.79,221.33c11.62,10.46,25.86,31.68,34.29,76.14l-50.28,19.76s-31.1-62.19-25.57-85.15c3.78-15.98,28.48-21.8,41.56-10.46h0v-.29Z"/>
            <path class="cls-2" d="M213.18,319.08h0c-5.45.88-9.91,4.25-12.62,9.39l-51.56,98.38,24.64,10.45,57.24-88.7c8.72-13.47-2.21-32.02-17.71-29.53h0Z"/>
            <path class="cls-2" d="M133.39,420.17l33.25-5.99,6.82,23.86c-.38.02-.76.04-1.14.06-15.28,27.91-35.7,31.3-35.7,31.3-19.64,3.73-21.67-2.08-19.85-7.32,1.14-3.69,4.04-6.51,7.38-8.22,14.65-7.85,29.1-26.37,29.1-26.37-28.39.58-19.45-6.96-19.45-6.96l-.4-.36h0Z"/>
          </g>
          <g>
            <path class="cls-29" d="M122.51,203.2h0c-8.46,0-15.23-6.77-15.23-15.23v-22.68h30.8v22.68c0,8.46-6.77,15.23-15.23,15.23h-.34Z"/>
            <path class="cls-16" d="M196.63,103.34c-3.05,5.08-7.79,8.46-12.52,9.48h-4.06c-1.35,13.2-6.09,25.39-12.86,35.2-12.86,19.29-32.16,30.8-46.37,30.13h-3.38c-15.23,0-32.83-10.49-45.02-28.09-6.77-9.82-11.85-21.66-13.88-34.86h-1.02c-4.74,0-9.82-3.72-13.2-8.8-.68-1.02-1.02-1.69-1.35-2.71-.68-1.35-1.02-2.37-1.35-3.72h0c-1.02-5.08,0-9.14,4.06-10.83h0c3.38-1.35,7.79,0,11.85,2.37,3.05-40.28,28.09-75.82,59.23-76.5,9.48,0,18.62,2.71,26.74,7.79,7.79,4.74,14.55,12.19,20.31,21.32h0c8.12,13.2,13.88,30.13,15.57,47.05h0c1.69-1.69,3.72-3.05,5.75-3.72,2.71-1.35,5.75-1.35,8.12,0,5.42,2.37,6.43,9.82,2.03,17.26l1.35-1.02s0-.34,0-.34Z"/>
            <g>
              <path class="cls-20" d="M80.53,87.77c.68,0,1.35,0,1.69-1.02,5.75-10.83,15.57-6.43,15.91-6.09,1.02,0,2.03,0,2.71-1.02,0-1.02,0-2.03-1.02-2.71-4.74-2.03-15.23-3.38-20.99,7.79,0,1.02,0,2.03.68,2.71h1.02v.34Z"/>
              <path class="cls-20" d="M139.43,78.97s1.02.68,1.69,0c9.48-3.72,13.54,4.4,13.54,4.74,0,.68,1.35,1.02,2.03.68.68,0,1.02-1.35.68-2.03-1.69-4.06-7.79-10.49-17.6-6.43-.68,0-1.35,1.35-1.02,2.03v.68h.68s0,.34,0,.34Z"/>
              <path class="cls-20" d="M92.38,95.56c0,3.72,2.37,7.11,5.08,7.11s5.42-3.38,5.42-7.11-2.37-7.11-5.08-7.11-5.42,3.38-5.42,7.11Z"/>
              <path class="cls-20" d="M139.43,95.56c0,3.72,2.37,7.11,5.08,7.11s5.42-3.38,5.42-7.11-2.37-7.11-5.08-7.11-5.42,3.38-5.42,7.11Z"/>
              <path class="cls-3" d="M104.91,142.95c.68.68,5.08,10.49,16.92,10.15,11.51,0,16.25-9.14,16.92-10.15"/>
              <path class="cls-10" d="M130.29,122.64c0,4.74-3.72,8.46-8.46,8.46s-8.46-3.72-8.46-8.46,3.72,4.74,8.46,4.74,8.46-9.48,8.46-4.74Z"/>
              <path class="cls-9" d="M160.08,105.71c6.77,0,12.19,5.08,11.85,10.83-.34,5.75-6.43,9.82-13.2,9.48s-12.19-5.08-11.85-10.83c.34-5.75,6.43-9.82,13.2-9.48Z"/>
              <path class="cls-9" d="M82.9,105.71c6.77,0,12.19,5.08,11.85,10.83-.34,5.75-6.43,9.82-13.2,9.48s-12.19-5.08-11.85-10.83,6.43-9.82,13.2-9.48Z"/>
            </g>
            <path class="cls-15" d="M188.17,49.86c-5.42-18.28-16.25-34.19-34.19-42.99C139.43-.23,91.03-11.74,64.29,31.92c-10.83,17.6-13.2,39.94-13.2,60.25s3.05,34.86,13.88,48.74c1.69,2.03,3.72,4.06,5.75,5.75,0,0-2.37-12.19-4.06-17.26-5.42-17.94-4.74-38.93,1.02-56.87,1.02-2.71,2.03-5.08,3.05-7.79,0-1.35,3.72-7.45,3.38-8.46,5.75,13.88,24.71,19.29,38.25,21.66-2.37-3.72-6.09-5.75-8.46-9.82-2.37-4.06-3.72-8.46-5.08-12.52,16.25,6.09,33.17,17.6,51.79,16.59-4.06-4.06-14.89-12.19-14.55-18.96,4.06,5.75,11.17,7.45,17.6,9.82,4.06,1.35,8.46,2.37,12.52,3.72,3.38,1.02,3.38.68,4.4,3.72,6.09,20.31,8.8,44.68,4.06,65.67,1.02-5.08,9.48-14.89,11.17-19.63,2.03-5.75,3.72-11.51,5.08-17.6,2.37-11.85,2.37-24.37.68-36.22-.68-4.4-1.69-8.8-2.71-12.86,0,0-.68,0-.68,0Z"/>
          </g>
        </g>
      </g>
    </g>
  </g>
</svg>