<?xml version="1.0" encoding="UTF-8"?>
<svg id="Layer_2" data-name="Layer 2" xmlns="http://www.w3.org/2000/svg" viewBox="0 0 54.71 286.81">
  <defs>
    <style>
      .cls-1 {
        fill: #e0a587;
      }

      .cls-2 {
        fill: #603813;
      }

      .cls-3 {
        fill: #d9a2a0;
      }

      .cls-4 {
        fill: #70b5ff;
      }

      .cls-5 {
        fill: #6c3231;
      }

      .cls-6 {
        fill: #db9673;
      }

      .cls-7 {
        fill: #533d24;
      }

      .cls-8 {
        fill: #98caff;
      }

      .cls-9 {
        fill: #39433e;
      }

      .cls-10 {
        fill: none;
        stroke: #630;
        stroke-linecap: round;
        stroke-miterlimit: 10;
      }
    </style>
  </defs>
  <g id="Layer_1-2" data-name="Layer 1">
    <g id="german-man-right-standing">
      <g>
        <path class="cls-5" d="M39.4,211.01c-3.9.7-7.6-1.5-8.4-4.9l-11.2-48.9c-1.7-7.1,4.5-13.7,12.6-13.7h0c7.1,0,12.8,5.1,12.8,11.4l-.2,49.9c0,3-2.4,5.6-5.7,6.2h.1Z"/>
        <path class="cls-5" d="M34.9,275.91h-8.6c-1.6-25-.2-48.8,4.9-71.1.2-3.3,3.3-5.8,7-5.8h0c4.2,0,7.5,3.3,6.9,7l-10.2,69.9h0Z"/>
        <path class="cls-7" d="M26.3,275.91l-.8,4.5c-1,3.5,2,5.7,5.6,5.9,3,.2,10.9.4,15.2.5,2.2,0,4.3-.2,6.4-.8.3,0,.6-.2,1-.3,1.3-.4,1.4-2.1,0-2.6l-18.8-7.2h-8.6Z"/>
      </g>
      <path class="cls-5" d="M46.4,125.71v21.1h-.1c-.5,8.2-8.5,14.5-17.8,14h-.2c-6.7-.4-12.5-4.3-14.7-9.9-1.1-2.8-1.6-5.3-2-6.9-2.5-10.6,2.4-18.1,2.4-18.1h32.4v-.2Z"/>
      <rect class="cls-6" x="18.9" y="31.51" width="10.1" height="20.6"/>
      <g>
        <path class="cls-1" d="M44.6,25.91c-.6.5-1.5,1.1-2.2,1.2-.5,0-.9.5-.9.9-.1,1-.4,2-.7,3-1.3,4.5-3.8,8.1-6.9,10.2-1.8,1.2-3.9,1.9-6,1.9-6.1,0-11.3-5.6-13.2-13.3-.5-1.8-.6-3.7-.5-5.6v-2c0-2.4,0-4.8.8-7.2,2.2-7.1,7.1-12,12.9-12s4,.6,5.8,1.8c.7.5,1.5,1.2,2.2,2.1,2.9,3.4,4.5,7.5,5,11.7v.3l3.9,5.7c.2.4.2.8-.2,1.1v.2Z"/>
        <g>
          <path class="cls-10" d="M33.5,32.91c.2.2,1.1,3.3,4.6,3.6"/>
          <path class="cls-2" d="M33.3,19.21c.2,0,.3,0,.5-.2,1.8-2.5,4.1-1.1,4.2-1,.3,0,.5,0,.7-.2,0-.3,0-.5-.2-.7-1.1-.7-3.7-1.3-5.5,1.3v.7h.3v.1Z"/>
          <path class="cls-2" d="M36,21.51c-.1.9.4,1.9,1.1,1.9s1.5-.7,1.6-1.6-.4-1.9-1.1-1.9-1.5.7-1.6,1.6Z"/>
          <path class="cls-3" d="M30.2,23.41c2,.2,3.4,1.9,3.1,3.6s-2.2,2.6-4.2,2.3-3.4-1.9-3.1-3.6,2.2-2.6,4.2-2.3Z"/>
        </g>
        <path class="cls-5" d="M45,6.31c-.6-1.2-2.4-1.9-3.7-2,.4,0,.7-.6.4-.9-.2-.3-1.2-.3-1.5-.3-1.5,0-3,.1-4.4.4.8-.9.2-1.7-1-2-1.4-.3-3.2.3-4.4.8.6-.8-.3-1.5-1.2-1.6-1.5-.2-2.6.3-3.9.7-.3-1-.6-1.3-1.8-1.2-1.4.1-2.5.7-3.6,1.2-.5-.9-1-1.5-2.2-1.4-1.4.2-2.7.9-3.7,1.8-1-2-4.4,1.3-4.1,2.7-.6-1.2-1.7.6-1.8,1.1-.2.9.3,1.8.2,2.6-1.5-.7-1.7,1.9-1.6,2.6,0,.6.5,1.1.6,1.7,0,.7-.2.7-.4,1.3-.4,1.2,0,2.2.9,2.8-1.3.6-1.4,2.2-.9,3.2.2.3.5.7.9,1.1-.1.1.3.3.3.3,0,0,.2.2.3.2-1.1.6-2,1.5-1.7,2.6.3,1.2,1.6,1.3,2.8,1.3,0,.2.2.4.3.6-1,1.7.4,3,2.3,3.5,1.2,1.3,2.7,2.2,4.5,2.7,2.9.7,5-1.5,6-2.6.5-.6,1-1.2,1.4-1.8-.2,0-.5-.2-.7-.3-1-.6-2-1.6-2.6-2.9-1.1-2.4-.5-4.9,1.4-5.5,1.6-.6,3.6.4,4.8,2.3,0,.1.2.2.2.4.2-.6.3-1.2.4-1.8h0c.2-.2.4-.4.7-.7.9-.8,1-1.6.9-2.7h-.7c.7-.8,2.3-5.3-.3-3.8h0c.3-.7.4-1.2.3-1.6.7-.1,1.5-.2,2.2-.4,1.6-.3,13-1.4,13.2-1.7s.7-.3,1-.6c.7-.5.7-1.5.4-2.2l-.2.1Z"/>
        <path class="cls-5" d="M40.8,33.51c.3-.4,1.2-.9-.2-1.6s-1.7-1-3.3-1.2c-1.3-.2-2.7-.2-3.9,0-.3,0-.6.1-.8.3-.3.4.4.7.8.9,3.5,1.6,3.2,1.4,6.7,2.3"/>
      </g>
      <path class="cls-9" d="M51.1,141.01c-.3,3-3.2,5.2-6.6,5.2h-11.7l-16.8.1c-4.8,0-8.5-3.7-7.9-7.8l2.9-19.3c-5.4-18.7-14.9-59.7,1.2-71.8,2.1-1.6,5.2-2,7.8-1.1l4.5,1.6,3.7,1.3c4.1,1.5,7.5,4.3,9.3,7.8,3.9,7.6,9.9,22.7,10.9,45.2l1.2,13.9s2.6,14,1.5,24.8v.1Z"/>
      <path class="cls-4" d="M19.2,43.61s4.8,4.2,10.5,4c0,0,8.6,5.3,5.1,10.7,0,0-10.3-14-23.7-9.7,0,0,3.2-3.8,8.1-5Z"/>
      <g>
        <path class="cls-8" d="M5.9,107.91h0c-3.4-1-5.4-4.1-4.4-6.9l7.3-42.5c.7-4.4,5.7-7.1,10.8-5.9h0c5.1,1.1,8.2,5.6,7,9.8l-12.7,42.2c-1,2.8-4.5,4.4-7.9,3.4l-.1-.1Z"/>
        <path class="cls-1" d="M22.6,143.21l-7,1.8L1.5,104.01c-.8-2.5,1.4-5.3,4.8-6.2h0c3.4-.9,6.8.5,7.6,3l8.8,42.3-.1.1Z"/>
        <path class="cls-1" d="M26.8,156.21l1.6,4.2c.9,2.3-2.8,4.4-5.3,3-.8-.5-1.5-1.1-2.1-2q-.4-.6,0,0c-1.8-2.3-3-5.9-3.8-10.8l-.6-2.3-.9-3.3h0l7-1.8h0l.9,3.3.2.2,7.5,10.1s1.6,3.8-4.3-.7l-.2.1Z"/>
        <polygon class="cls-4" points=".2 96.61 17.2 97.01 17 104.61 0 104.21 .2 96.61"/>
      </g>
    </g>
  </g>
</svg>