<?xml version="1.0" encoding="UTF-8"?>
<svg id="Layer_2" data-name="Layer 2" xmlns="http://www.w3.org/2000/svg" viewBox="0 0 53.02 247.43">
  <defs>
    <style>
      .cls-1 {
        fill: #603813;
      }

      .cls-2 {
        fill: #273758;
      }

      .cls-3 {
        fill: #e6e6e6;
      }

      .cls-4 {
        fill: #c69696;
      }

      .cls-5 {
        fill: #d9a2a0;
      }

      .cls-6 {
        isolation: isolate;
        opacity: .5;
      }

      .cls-6, .cls-7 {
        fill: #d9baba;
      }

      .cls-8 {
        fill: #d9b6b6;
      }

      .cls-9 {
        fill: #466e9f;
      }

      .cls-10 {
        fill: none;
        stroke: #630;
        stroke-linecap: round;
        stroke-miterlimit: 10;
      }

      .cls-11 {
        fill: #d38a17;
      }
    </style>
  </defs>
  <g id="Layer_1-2" data-name="Layer 1">
    <g id="german-boy-left-standing">
      <path class="cls-3" d="M13.18,106.93c.4-20,5-33.2,8.7-40.6.5-.9.9-1.8,1.4-2.6,1.7-3,4.3-5.3,7.5-6.6l4.2-1.7.9-.4c10.2,13.4,4.3,45,2.9,51.9-.2.9-.3,1.3-.3,1.3.3.6.7,1.1,1,1.6H13.18v-3h0s0,.05,0,0v.1h0Z"/>
      <path class="cls-9" d="M39.48,109.93c11.4,20.1-1,32.8-1,32.8h0l-19.8,8.9h0c-3.9-16.2-5.4-30-5.4-41.7h26.3-.1Z"/>
      <g>
        <g>
          <path class="cls-8" d="M14.68,190.83c1.2,18.7,3.7,38.1,4.3,38.1l5.8-.4,2-38.5,1.5-28.9v-1.2c0-.4,0-.8-.2-1.2-.7-3.1-3.6-5.3-6.9-5.1-3.3.2-6,2.9-6.2,6.1,0,.9-.2,1.7-.3,2.6-1,6.2-.7,17.2,0,28.5h0Z"/>
          <path class="cls-3" d="M16.38,211.43c1.1,10.1,2.2,17.6,2.5,17.6h5.7l.9-17.6h-9.2.1Z"/>
        </g>
        <path class="cls-2" d="M25.78,235.93c0,.6-.4,1.6-.9,2.4-.5,1-1.5,1.6-2.6,1.6H.68c-4.9-2.6,18.2-10.9,18.2-10.9h5.7s1.3,5.8,1.1,7h.1v-.1Z"/>
        <g>
          <path class="cls-8" d="M21.38,166.53h0c-3.8-.4-6.6-3.6-6.5-7.5l.8-35.3c.7-5.1,5.3-8.6,10.4-7.9h0c5.1.7,8.6,5.3,7.9,10.4l-5.3,33.8c-.5,3.9-3.4,6.9-7.3,6.5h0Z"/>
          <path class="cls-9" d="M13.58,156.53h23.7v-29.9c0-6.6-5.3-11.9-11.9-11.9h0c-6.6,0-11.9,5.3-11.9,11.9v29.9h.1,0Z"/>
        </g>
      </g>
      <g>
        <g>
          <path class="cls-8" d="M20.78,198.33c1.2,18.7,3.7,38.1,4.3,38.1l5.8-.4,2-38.5,1.5-28.9v-1.2c0-.4,0-.8-.2-1.2-.7-3.1-3.6-5.3-6.9-5.1-3.3.2-6,2.9-6.2,6.1,0,.9-.2,1.7-.3,2.6-1,6.2-.7,17.2,0,28.5h0Z"/>
          <path class="cls-3" d="M22.48,218.93c1.1,10.1,2.2,17.6,2.5,17.6h5.7l.9-17.6h-9.2.1Z"/>
        </g>
        <path class="cls-2" d="M31.88,243.43c0,.6-.4,1.6-.9,2.4-.5,1-1.5,1.6-2.6,1.6H6.78c-4.9-2.6,18.2-10.9,18.2-10.9h5.7s1.3,5.8,1.1,7h.1v-.1Z"/>
        <g>
          <path class="cls-8" d="M27.48,174.03h0c-3.8-.4-6.6-3.6-6.5-7.5l.8-35.3c.7-5.1,5.3-8.6,10.4-7.9h0c5.1.7,8.6,5.3,7.9,10.4l-5.3,33.8c-.5,3.9-3.4,6.9-7.3,6.5h0Z"/>
          <path class="cls-9" d="M19.68,164.03h23.7v-29.9c0-6.6-5.3-11.9-11.9-11.9h0c-6.6,0-11.9,5.3-11.9,11.9v29.9h.1,0Z"/>
        </g>
      </g>
      <rect class="cls-4" x="24.11" y="50.73" width="14.9" height="8.6" transform="translate(-18.81 93.59) rotate(-97.6)"/>
      <path class="cls-7" d="M7.88,32.23c.2,0,.4,0,.6-.2.2,0,.3-.2.4-.3,0-.9-.1-1.9-.1-2.9,0-10.5,4.9-19.5,11.9-22.8,1.9-.9,3.8-1.4,5.9-1.4,9.8,0,17.8,10.8,17.8,24.2s-8,24.2-17.8,24.2-.5,0-.8,0c-6.3-.4-11.8-5.2-14.7-12.3-.2-.4-.3-.8-.5-1.2-.4-1-.7-2.1-1-3.2h-.8c-1.2,0-1.9-.9-2.1-1.8-.2-1,.3-2,1.3-2.4h-.1v.1h0Z"/>
      <path class="cls-6" d="M25.68,52.93h.8c9.8,0,17.8-10.8,17.8-24.2S36.28,4.53,26.48,4.53s-4.1.5-5.9,1.4c5.2,10,16.9,35,5.1,47h0Z"/>
      <g>
        <path class="cls-10" d="M18.58,41.43c-.2.2-1.5,3.1-5,3"/>
        <path class="cls-1" d="M19.68,26.93c-.2,0-.4,0-.5-.3-1.7-3.2-4.6-1.9-4.7-1.8-.3,0-.6,0-.8-.3,0-.3,0-.6.3-.8,1.4-.6,4.5-1,6.2,2.3,0,.3,0,.6-.2.8h-.3v.1Z"/>
        <path class="cls-1" d="M16.18,29.23c0,1.1-.7,2.1-1.5,2.1s-1.6-1-1.6-2.1.7-2.1,1.5-2.1,1.6,1,1.6,2.1Z"/>
        <path class="cls-5" d="M21.78,31.73c-2,0-3.6,1.5-3.5,3.2s1.9,2.9,3.9,2.8,3.6-1.5,3.5-3.2-1.9-2.9-3.9-2.8Z"/>
      </g>
      <path class="cls-11" d="M5.98,10.13c2-4.2,5.5-6.2,9.7-7.4C21.28,1.13,26.28-.47,32.18.13c9.5,1,16.9,8.6,19.1,16.2,5.7,19.8-4.3,26-5.7,27.6-.7.9-10.3,6-10.3,6,.3.6-.3-3.9-.2-4.6.3-2.5-.8-10.9-1.1-15.6,0-1.4-1.2-2.6-2.6-2.7-3.5,0-8.3-2.2-9.8-3.8.7,1.5,2.1,2.9,3.2,4.2-3.8-1.6-7-5.4-9.7-8.2.4,1.8-.2,3.7.6,5.4-2.4-2.3-3.1-5.5-4.4-8.3-.6,1.5-.8,3.3-1.2,4.9-.6,2.4-1.6,5.1-3.1,7.1-1.4-2.8-3.4-12.8-.8-18.1h-.2v-.1Z"/>
      <path class="cls-7" d="M31.78,31.63c-1.1,2.7-.3,5.7,1.9,6.6s4.9-.6,6-3.3.3-5.7-1.9-6.6-4.9.6-6,3.3Z"/>
      <path class="cls-6" d="M31.78,31.63c-1.1,2.7-.3,5.7,1.9,6.6s4.9-.6,6-3.3.3-5.7-1.9-6.6-4.9.6-6,3.3Z"/>
      <g>
        <path class="cls-8" d="M34.68,91.03h0c-1.2,1-1.9,2.5-2.1,4.2l-2.3,32.1,6.9-1,4.6-30.6c.7-4.7-3.8-7.6-7.2-4.7h.1Z"/>
        <path class="cls-8" d="M35.18,99.73h0c3.2,1.2,6.8-2,7.1-6.2l1.2-26.6c.3-4.2-2.2-7.5-5.7-7.4h0c-4,0-7.4,4.6-7.1,9.4l2,25.7c.1,2.2.7,4.6,2.5,5.2h0s0-.05,0,0v-.1h0Z"/>
        <path class="cls-3" d="M42.38,61.73c2.2,3.8,4.4,11,3.3,24.5l-14.3,2.1-.2-5.4c-1.6-8.7-2.4-16.6-.3-21.1,2.1-4.4,8.8-4.3,11.3,0h.2v-.1Z"/>
        <path class="cls-8" d="M29.58,137.33l.9-10.6,6.9-1v.4c6.3,6,5.7,12.5,5.7,12.5-.5,6.2-2.2,6.6-3.5,5.9-.9-.5-1.4-1.5-1.7-2.6-1-4.9-4.8-10.2-4.8-10.2-2,8.8-3.4,5.7-3.4,5.7h-.1s0-.05,0,0v-.1h0Z"/>
      </g>
      <path class="cls-9" d="M21.88,66.33c6.7-1.4,15.7-8.6,15.7-8.6-.6-1-1.1-1.9-1.7-2.7l-5.2,2.2c-3.2,1.3-5.8,3.6-7.5,6.6-.4.8-.9,1.6-1.4,2.6h.1v-.1h0Z"/>
    </g>
  </g>
</svg>