<?xml version="1.0" encoding="UTF-8"?>
<svg id="Layer_2" data-name="Layer 2" xmlns="http://www.w3.org/2000/svg" viewBox="0 0 88.33 298.7">
  <defs>
    <style>
      .cls-1 {
        fill: #543a35;
      }

      .cls-2, .cls-3 {
        fill: #603813;
      }

      .cls-4 {
        fill: #ca8a8c;
      }

      .cls-5 {
        fill: #d9a2a0;
      }

      .cls-6 {
        fill: #d9a8a7;
      }

      .cls-7 {
        fill: #344260;
      }

      .cls-8 {
        fill: #faf0f5;
      }

      .cls-3 {
        isolation: isolate;
        opacity: .5;
      }

      .cls-9 {
        fill: #1d2d4e;
      }

      .cls-10 {
        fill: none;
        stroke: #630;
        stroke-linecap: round;
        stroke-miterlimit: 10;
      }
    </style>
  </defs>
  <g id="Layer_1-2" data-name="Layer 1">
    <g id="german-woman-slightright-standing">
      <g>
        <path class="cls-9" d="M54,213.79h0c-4.3,0-7.9-3.5-8-7.9l-1.8-66.7c0-7.2,5.7-13,12.7-13h0c7,0,12.7,5.9,12.7,13,2.2,22.3-1.1,47.9-8.1,69.1-1.1,3.3-4.2,5.5-7.6,5.5h.1Z"/>
        <path class="cls-9" d="M52,286.09h-5.7v-77.6c0-4.6,3.3-8.4,7.3-8.4h0c3.6,0,6.7,3,7.2,7.1,3,22.7-.3,49.6-8.9,78.9h.1Z"/>
        <path class="cls-1" d="M52,286.09s22.7,10.5,17.3,12.4c-.6.2-20.4-2.8-21-3.1-1.1-.6-1.8-1.8-1.9-3.1v-6.1h5.6v-.1Z"/>
      </g>
      <g>
        <path class="cls-9" d="M35.8,212.89h0c4.3,0,7.9-3.6,8-8l1.8-67.6c0-7.3-5.7-13.2-12.7-13.2h0c-7,0-12.7,5.9-12.7,13.2-2.2,22.6,1.1,48.6,8.1,70,1.1,3.3,4.2,5.6,7.6,5.6h-.1Z"/>
        <path class="cls-9" d="M37.9,286.19h5.7v-78.7c0-4.7-3.3-8.5-7.3-8.5h0c-3.6,0-6.7,3-7.2,7.2-3,23,.3,50.3,8.9,80h-.1Z"/>
        <path class="cls-1" d="M37.9,286.09s-22.7,10.6-17.3,12.6c.6.2,20.4-2.9,21-3.2,1.1-.6,1.8-1.8,1.9-3.2v-6.2h-5.6,0Z"/>
      </g>
      <g>
        <path class="cls-6" d="M79.2,147.59l-5.8,11.9s.6,3.6,5.3-3.8c0,0,2.8,6.9,2.4,12,0,1.2.3,2.4,1.1,3.3,1.2,1.3,3.1,1.8,5.5-4,0,0,2.8-6.5-3.4-15.8l-5-3.6h-.1Z"/>
        <path class="cls-7" d="M68.1,108.19h0c-3.6.3-6.8-2.3-7.1-5.7-2.1-12.5-3.3-24.3-3.1-34.7-.3-3.4,2.4-6.4,6-6.7h0c8.5,0,10.3,26.9,10.2,40.4.3,3.4-2.4,6.4-6,6.7h0Z"/>
        <path class="cls-7" d="M83.8,150.99l-6,1-16.3-47.2c-1.2-3.6,1-7.3,4.9-8.1h0c3.6-.7,7.2,1.5,7.9,5l9.6,49.3h-.1Z"/>
      </g>
      <g>
        <path class="cls-6" d="M5.5,148.29l8.5,10.1s.3,3.7-6-2.5c0,0-1,7.4.6,12.3.4,1.1.3,2.4-.2,3.5-.8,1.5-2.6,2.5-6.3-2.5,0,0-4.3-5.6-.6-16.2l4-4.7h0Z"/>
        <path class="cls-7" d="M17.9,108.19h0c3.6.3,6.8-2.3,7.1-5.7,2.1-12.5,3.3-24.3,3.1-34.7.3-3.4-2.4-6.4-6-6.7h0c-8.5,0-10.3,26.9-10.2,40.4-.3,3.4,2.4,6.4,6,6.7h0Z"/>
        <path class="cls-7" d="M2.3,150.99l6,1,16.3-47.2c1.2-3.6-1-7.3-4.9-8.1h0c-3.6-.7-7.2,1.5-7.9,5l-9.6,49.3h.1Z"/>
      </g>
      <path class="cls-1" d="M70.9,35.89c-2.7-5-6.9-8.9-9.7-13.8-1.2-2.1-1-19.5-14-21.8-2.7-.5-5.6-.3-8.3.2-2.6.5-5.2.8-7.4,2.3-2.1,1.4-3.8,3.4-4.9,5.6-1.4,2.9-1.6,6.2-2.8,9.2-3.4,8-9.9,14.3-12.6,22.5-.2.6-.4,1.3-.6,1.9-.9,3.6.2,7.6,2,10.8,1-2.3.6-4.9,1.9-7.3.7,6.1,1.6,11.9,5.5,16.9,3.7,4.8,8.4,7.2,13.5,10.2-.4-.9-.7-1.7-.6-2.7,2,1.9,6,3.9,8.7,3.2,4.1-1.2,7.6-3.7,11.1-5.7,0,1-1.4,2.6-2,3.4,4.8-2.4,10.6-6.4,13.2-11.2,2.5-4.6,3-10.2,3.5-15.2,1.7,2.2,2,5.4,2.9,7.9,2.6-4.7,3-11.8.5-16.6v.2h.1Z"/>
      <g>
        <path class="cls-8" d="M60.3,92.79l-.8,9v1.1c-.3,1.6-.3,3.3-.2,4.9h-24.8v-.9c0-1.8-.6-3.5-1.5-5.1-.2-.4-.5-.8-.8-1.2-11.9-15.6-11.4-38.7-11.4-38.7l18.9-7.6h6.8l18,6.7c4.3,13.1,3.1,23.8-4.1,31.7h0l-.1.1Z"/>
        <path class="cls-9" d="M66.6,128.89c-3.2,10-21.4,26.2-21.4,26.2-7.4-15.8-24.1-25.8-24.1-25.8,2.2-4.5,7-10.3,10.3-13.9.2-.2.4-.5.6-.7,0,0,0-.1.1-.2.2-.2.4-.5.5-.8h0c.2-.2.3-.5.4-.8,0,0,0-.2.1-.3.1-.2.2-.4.3-.6v-.2c0-.2.2-.4.2-.6.1-.4.3-.9.4-1.4,0-.2,0-.4.1-.6,0-.5,0-1,.1-1.4h24.8c0,.4,0,.9.1,1.3,0,.4,0,.9.2,1.3,0,.4.1.8.2,1.2,0,.4.1.8.2,1.2.2.8.4,1.6.6,2.4,0,.3.2.6.3.9,0,.3.2.7.3,1,.1.4.3.8.5,1.2.2.5.5,1.1.7,1.6l4.2,8.8.3.2h0Z"/>
        <path class="cls-1" d="M34.1,110.49h25.4c-.1-.9-.2-1.8-.3-2.7v-6h-26.4l1.2,8.6h.1v.1Z"/>
        <path class="cls-7" d="M48.4,54.49s11.6,54.5,8.4,86.2c-.7,7,3.4,13.6,10.2,16.4l4.2,1.8c1,.4,2-.4,1.8-1.4.9-21-4.4-31.7-12-49.7l-.4-15s14-6.8,4.9-31.4l-17.1-6.9h0Z"/>
        <path class="cls-7" d="M37.8,54.99s14.3,48.1,10.5,85.9c-.6,5.9-5.1,10.9-11.1,12.7l-20.3,5.8c-.8.2-1.7-.4-1.6-1.2.4-16.8,5.4-32.5,15.9-47,.3-4.5,0-5.1-.7-9.2l-6.7-12.5c-1.7-10.7-3-20.5-3.4-27.9l17.5-6.6h-.1Z"/>
      </g>
      <g>
        <path class="cls-4" d="M43,58.89h.2c2.3,0,4.1-1.9,4.1-4.1v-10.5h-8.4v10.5c0,2.3,1.9,4.1,4.1,4.1h0Z"/>
        <path class="cls-6" d="M57.7,34.29c-1.2,4.6-3.7,9.8-7.9,12.6-2.6,1.8-5.9,2-8.9,1.2-1.9-.5-3.6-1.4-5.1-2.7-2-1.7-3.5-4-4.7-6.3-.3-.5-2.4-6.8-2.1-6.8-1.2,0-2.6-.9-3.5-2.3-1.1-1.8-1-3.8.3-4.4.8-.4,1.9-.2,3,.6.6-9.1,5.4-17.4,11.7-19.3.8-.3,1.7-.4,2.6-.4,2.3,0,4.5.7,6.5,2,3.5,2.3,5.4,6,6.8,9.8,2,5.1,2.6,10.7,1.2,16.1h0l.1-.1Z"/>
        <g>
          <path class="cls-2" d="M37.3,26.49c.2,0,.4,0,.5-.3,1.6-3,4.3-1.8,4.4-1.7.3,0,.6,0,.7-.3,0-.3,0-.6-.3-.7-1.3-.6-4.2-.9-5.8,2.2,0,.3,0,.6.2.7h.3v.1Z"/>
          <path class="cls-2" d="M53.6,24.09s.3.2.5,0c2.6-1,3.7,1.2,3.7,1.3,0,.2.4.3.6.2.2,0,.3-.4.2-.6-.5-1.1-2.2-2.9-4.9-1.8-.2,0-.4.4-.3.6v.2h.2v.1Z"/>
          <path class="cls-2" d="M40.6,28.69c0,1,.7,2,1.4,2s1.5-.9,1.5-2-.7-2-1.4-2-1.5.9-1.5,2Z"/>
          <path class="cls-2" d="M53.6,28.69c0,1,.7,2,1.4,2s1.5-.9,1.5-2-.7-2-1.4-2-1.5.9-1.5,2Z"/>
          <path class="cls-10" d="M42.5,39.99c0,.2.7,3,3.6,3.5,2.7.4,4.2-.9,4.4-1.2"/>
          <path class="cls-3" d="M50.6,33.79c.9.9.9,2.3,0,3.3s-2.3.9-3.3,0,1.7.2,2.6-.7c.9-.9-.2-3.5.7-2.6h0Z"/>
          <path class="cls-5" d="M58.2,31.59c-.4,1.7-.7,3.2-1.3,4.7-.2.6-.4,1-.7,1.6-.9-.7-1.4-1.9-1.3-3,0-1.7,1.5-3,3.2-3.2h.1v-.1Z"/>
          <path class="cls-5" d="M38,31.39c1.9,0,3.4,1.4,3.3,3s-1.8,2.7-3.7,2.6-3.4-1.4-3.3-3,1.8-2.7,3.7-2.6Z"/>
        </g>
        <path class="cls-1" d="M30.7,26.59c1.5-.4,3-.9,4.5-1.5,6.4-2.4,12-5.6,16.1-10.8,2.6,6.6,6.9,10.3,6.9,10.3,2.8.5,1.8-7.2,1.8-8.1v-.6c-.6-4.8-3.7-9.5-8.2-12.2-2.2-1.3-4.6-2.1-7.2-2.2-7.1-.4-14,4-17.2,9.7-1.4,2.6-1.7,5.6-1.9,8.5-.1,1.4-.2,2.9-.5,4.3v.4c-.1.6-.3,1.2-.5,1.8-.1.3-.4.7-.6,1h0c-.2.4-.4.7-.4,1h.8c1.2,0,2.5-.4,3.7-.8,0,1,.2,3.7.3,3.7.5,3.4,1.8,6.5,3.5,8.9-.5-3-1.3-8.5-.8-13.5h-.3v.1Z"/>
      </g>
    </g>
  </g>
</svg>