<?xml version="1.0" encoding="UTF-8"?>
<svg id="Layer_2" data-name="Layer 2" xmlns="http://www.w3.org/2000/svg" viewBox="0 0 99.37 189.63">
  <defs>
    <style>
      .cls-1, .cls-2 {
        fill: #603813;
      }

      .cls-3 {
        fill: #273758;
      }

      .cls-4 {
        fill: #e6e6e6;
      }

      .cls-5 {
        fill: #c69696;
      }

      .cls-6 {
        fill: #d9a2a0;
      }

      .cls-7, .cls-2 {
        isolation: isolate;
        opacity: .5;
      }

      .cls-7, .cls-8 {
        fill: #d9baba;
      }

      .cls-9 {
        fill: #8b2b0e;
      }

      .cls-10 {
        fill: #783640;
      }

      .cls-11 {
        fill: #fff;
      }

      .cls-12 {
        fill: #3f6138;
      }

      .cls-13 {
        fill: #d9b6b6;
      }
    </style>
  </defs>
  <g id="Layer_1-2" data-name="Layer 1">
    <g id="girl-kneeling-right">
      <path class="cls-4" d="M34.17,99.87l-3.17-30c-.36-3.33.13-8.81,3.71-9.86l5.57-3.61,2.66-2.12,9.06.95s1.47,1.91,4.5,3.03c11.31,4.42,8.81,2.94,9.4,17.21l-.26,9.21c-.29,8.2-.36,16.32-.15,24.55-10.3,2.37-20.43,1.15-30.43-3.48l-.78-5.87h-.2s.1,0,.1,0h0Z"/>
      <g>
        <path class="cls-9" d="M75.01,40.43c.53-4.67-1.3-8.51-2.72-12.43-.58-1.75-1.05-4.89-2.16-6.27-1.37-1.9-5.31-1.48-7.29-1.82-7.34-1.13-14.74-1.35-22.16-1.28-2.31.04-3.64-.96-4.87,2.16-.85,2.04-1.3,2.81-1.3,2.81-2.67,3.72-6.73,5.74-8.68,10.61-1.49,4-1.55,9.11.53,12.27.11-1.6.56-3.67,1.06-5.04,1.5,1.41,2.33,3.88,3.73,5.38s3.1,2.93,4.84,3.85c.3-1.38.04-3.31.52-4.47.97,3.28,3.95,5.09,6.24,6.66.14-1.9,0-4.31,1.43-3.11.38.33.78,1.66,1.25,2.19s1.04.88,1.61,1.32c1.71,1.33,2.39,1.67,4.27.51,1.28-1.01,2.97-2.29,4.07-3.62.51,1.24-.03,3.21-.23,4.6,1.98.34,4.65-1.87,6.08-3.68.22,1.12-.16,2.29-.04,3.41,2.61-.01,7.72-4.26,9.23-7.06,1.12,1.18,1.83,3.84,1.3,5.71,2.44-3.23,3.01-8.51,3.52-12.78h-.2s0,.09,0,.09h0Z"/>
        <path class="cls-5" d="M48.28,58.17h0c-3.18-.33-5.39-3.19-5.07-6.28l1.19-11.04,9.06.95-1.46,13.43c-.13,1.8-1.82,3.08-3.62,2.95h-.1Z"/>
        <path class="cls-8" d="M70.57,33.8c-.53,1.77-.94,3.34-1.75,4.89-.24.58-.48,1.07-.82,1.65-3.71,7.05-9.74,11.43-16.22,10.87-3.09-.22-5.89-1.72-8.24-4-.57-.44-1.03-.98-1.49-1.61-3.86-4.89-6.05-12.16-5.17-20.22,1.35-13.34,9.99-23.35,19.55-22.46,1.4.1,2.77.5,4.03,1.09,7.28,3.33,12.18,13.3,11.07,24.65"/>
        <g>
          <path class="cls-1" d="M48.52,26.81c.2.01.4.03.52-.26,1.92-3.07,4.72-1.57,4.82-1.46.3.02.6.04.82-.24.02-.3.04-.6-.24-.82-1.35-.7-4.42-1.32-6.35,1.85-.02.3-.04.6.14.81l.3.02v.1Z"/>
          <path class="cls-1" d="M66.06,25.46s.28.22.5.04c2.87-.9,3.9,1.58,3.89,1.68-.01.2.38.33.58.24.2.01.33-.38.24-.58-.41-1.23-2.07-3.26-5.05-2.27-.2-.01-.43.37-.34.58v.2s.19.01.19.01v.1h0Z"/>
          <path class="cls-1" d="M51.84,29.35c-.08,1.1.55,2.14,1.35,2.2s1.67-.88,1.75-1.98-.55-2.14-1.35-2.2-1.67.88-1.75,1.98Z"/>
          <path class="cls-1" d="M65.71,30.35c-.08,1.1.55,2.14,1.35,2.2s1.67-.88,1.75-1.98-.55-2.14-1.35-2.2-1.67.88-1.75,1.98Z"/>
          <path class="cls-2" d="M62.12,35.6c.93,1.07.82,2.56-.25,3.49s-2.56.82-3.49-.25,1.78.33,2.84-.5c1.07-.93.06-3.7,1-2.74h-.1Z"/>
          <path class="cls-6" d="M70.37,33.79c-.53,1.77-.94,3.34-1.75,4.89-.24.58-.48,1.07-.82,1.65-.95-.77-1.35-2.1-1.17-3.29.13-1.8,1.82-3.08,3.63-3.15h.1s0-.09,0-.09h0Z"/>
          <path class="cls-6" d="M48.84,32.05c1.99.14,3.48,1.75,3.26,3.44s-2.1,2.76-4.09,2.51-3.48-1.75-3.26-3.44,2.1-2.76,4.09-2.51Z"/>
          <g>
            <path class="cls-3" d="M52.91,41.41s-.37,1.91.57,3.4c.52.84,1.36,1.67,2.8,2.01,0,0,2.08.64,3.69-.5.67-.74.91-1.18,1.7-2.87l-8.77-2.04Z"/>
            <path class="cls-10" d="M53.47,44.81c.52.84,1.36,1.67,2.8,2.01,0,0,1.73.5,3.69-.5-1.15-.9-3.55-2.18-6.5-1.51Z"/>
            <polygon class="cls-11" points="53.88 41.64 54.17 42.81 60.29 44.24 60.99 43.29 53.88 41.64"/>
          </g>
        </g>
        <path class="cls-7" d="M43.86,47.13h-.2c-.57-.46-1.03-.99-1.49-1.62-3.86-4.89-6.05-12.16-5.18-20.12,1.35-13.34,9.99-23.35,19.55-22.46,1.4.1,2.77.5,4.03,1.09-7.98,5.04-22.52,19.14-16.72,43.22h0v-.1h0,0Z"/>
        <g>
          <path class="cls-8" d="M41.07,25.78c.78,3.06-.12,5.91-2.06,6.37s-4.1-1.6-4.87-4.76.12-5.91,2.06-6.37c1.84-.47,4.1,1.6,4.87,4.76Z"/>
          <path class="cls-7" d="M41.07,25.78c.78,3.06-.12,5.91-2.06,6.37s-4.1-1.6-4.87-4.76.12-5.91,2.06-6.37c1.84-.47,4.1,1.6,4.87,4.76Z"/>
        </g>
        <path class="cls-9" d="M70.84,25.9c.48,4.45,2.03,3.85-1.1,12.65s-1.35,4.82-2.11,7.07c-.65,2.06-2.58,3.83-2.54,6.03,1.45-.7,4.4-2.69,5.49-3.92,2.19-2.65,2.05-9.08,2.1-12.48h.1c.04-3.3.23-8.8.21-11.31l.19-2.59c.46-6.48-.62-13.78-4.54-17.77-2.8-2.91-5.73-1.21-8.97-2.14-9.92-2.81-18.51-1.92-23.12,6.47-11.19,20.55-.86,33.02.63,36.14.8,1.46,8.95,8.06,10.28,9.06-6.5-8.69-4.62-22.29-2.75-30.27.88-3.95,3.43-7.37,6.9-9.53h0s2.48,3.18,3.99,4.5c1.9,1.54,4.4,2.92,6.58,3.28-.26-.62-.81-1.26-1.07-1.88-.18-.31-.34-.83-.52-1.14.99,1.57,2.79,3.01,4.1,4.3,1.32,1.2,2.77,1.9,4.32,2.71.14-.59-.96-3.38-1.3-4.3.44.83,1.7,1.43,2.04,2.35"/>
      </g>
      <g>
        <path class="cls-13" d="M57.04,159.5c-7.39-12.75-16.08-25.67-16.53-25.35l-4.6,2.64,11.56,28.27,8.67,21.25.44.9c.12.25.28.57.56.74,1.61,1.86,4.75,2.26,7.38.79,2.63-1.48,3.89-4.52,2.94-6.9-.28-.57-.43-1.31-.63-1.93-1.33-4.83-5.27-12.56-9.82-20.29h0s-.02-.04,0,0l.04-.12h0Z"/>
        <path class="cls-3" d="M42.67,132.05c.05-.91-.53-1.77-1.32-2.27-.52-.4-20.48-3.15-21.04-3-4.65,1.55,15.44,9.8,15.44,9.8l5.53.33c0-.09,1.42-3.94,1.3-4.95h0s0,.05,0,0l.09.1h0Z"/>
        <path class="cls-13" d="M61.44,187.94c3.65-.05,6.66-1.85,6.7-5.41l-.23-14.03.82-18.36v-.27c-.07-4.56-3.69-8.25-8.25-8.46-4.66-.11-8.53,3.5-8.64,8.16l1.65,19.14,1.11,13.03c.33,3.46,3.19,6.16,6.66,6.2h.18s0,0,0,0Z"/>
      </g>
      <g>
        <path class="cls-13" d="M37.42,159.5c-7.39-12.75-16.08-25.67-16.53-25.35l-4.6,2.64,11.56,28.27,8.67,21.25.44.9c.12.25.28.57.56.74,1.61,1.86,4.75,2.26,7.38.79,2.63-1.48,3.89-4.52,2.94-6.9-.28-.57-.43-1.31-.63-1.93-1.33-4.83-5.27-12.56-9.82-20.29h0s-.02-.04,0,0l.04-.12h0Z"/>
        <path class="cls-3" d="M23.05,132.05c.05-.91-.53-1.77-1.32-2.27-.52-.4-20.48-3.15-21.04-3-4.65,1.55,15.44,9.8,15.44,9.8l5.53.33c0-.09,1.42-3.94,1.3-4.95h0s0,.05,0,0l.09.1h0Z"/>
        <path class="cls-13" d="M42.07,187.54c3.65-.05,6.36-1.11,6.4-4.67l.06-14.78.82-18.36v-.27c-.07-4.56-3.69-8.25-8.25-8.46-4.66-.11-8.53,3.5-8.64,8.16l1.65,19.14,1.22,14.31c.33,3.46,3.09,4.88,6.55,4.92h.18s0,0,0,0Z"/>
      </g>
      <g>
        <path class="cls-12" d="M65.9,138.18l-15.11,6.33-17.94-6.89h0s-1.42-5-.85-11.33c.28-2.46.85-4.91,1.51-7.18,1.32-3.97,1.79-8.03,1.79-12.18.28-.76.47-1.04.47-1.04,9.73,3.68,19.36,4.15,28.89,1.23,0,.47,0,.85.19,1.32.19,2.17.47,4.44.85,6.61,0,.57.19,1.04.19,1.51.19.94.28,1.89.38,2.83.57,4.06.66,8.97-.19,18.7h-.19v.09Z"/>
        <path class="cls-12" d="M35.78,106.26s-11.9,27.95-12.37,54.48c0,1.42.76,2.55,1.89,3.02,7.37,2.27,34.46,9.63,47.87,0,.85-.66,1.42-1.7,1.23-2.93-.76-7.74-3.97-38.62-9.35-53.54-9.73,3.68-19.45,3.21-29.37-1.04h.09Z"/>
      </g>
      <g>
        <path class="cls-13" d="M28.96,92.78h0c.92,1.17,1.29,3,.98,4.48l-5.18,31.81-6.43-2.57,2.5-30.8c.34-4.69,5.38-6.53,8.03-2.93h.1s0,0,0,0Z"/>
        <path class="cls-13" d="M26.55,101.23h0c-3.34.46-6.17-3.45-5.36-7.7l4.88-26.22c.6-4.17,3.79-6.75,7.14-5.91h0c3.84.98,6.08,6.15,4.64,10.76l-7.87,24.5c-.66,2.16-1.82,4.38-3.63,4.55h.2s0,.01,0,.01Z"/>
        <path class="cls-4" d="M28.22,62.55c-3.04,3.19-6.81,9.74-8.87,23.13l13.45,5.37,1.38-5.22c3.58-8.06,6.22-15.5,5.07-20.49-.97-4.68-7.57-6.26-10.94-2.69h-.1s0-.11,0-.11h0Z"/>
        <path class="cls-13" d="M23.35,139.1l1.55-10.52-6.43-2.57-.03.4c-7.53,4.37-8.39,10.83-8.39,10.83-.85,6.26.71,6.87,2.04,6.46.93-.33,1.68-1.08,2.26-2.14,2.12-4.46,7.05-8.82,7.05-8.82-.04,9.02,1.95,6.36,1.95,6.36h0Z"/>
      </g>
      <g>
        <path class="cls-13" d="M69.13,96.49h0c-.41,1.48-.37,3.11.33,4.53l14.12,28.09,5.22-4.27-11.28-27.94c-1.67-4.26-7-4.48-8.38-.41h0Z"/>
        <path class="cls-13" d="M71.02,101.34h0c3.33.28,8.06-1.22,5.09-7.63l-5.77-25.4c-.84-4.05-4.01-6.38-7.17-5.41h0c-3.64,1.1-5.76,6.21-4.22,10.6l8.39,23.58c.71,2,1.82,4.18,3.58,4.27h.1s0,0,0,0Z"/>
        <path class="cls-4" d="M66.94,62.89c3.01,3.13,6.69,9.45,8.62,22.45l-13.01,5.14-1.31-5.03c-3.44-7.89-6.07-15.13-5.04-20.02,1.04-4.61,7.43-6.05,10.74-2.54h0Z"/>
        <path class="cls-8" d="M87,124.64c2.34-.28,7.46-.12,11.96,3.79.66.57.2,1.64-.64,1.56h0s1.99.77.52,2.9c0,0,1.15,2.71-2,1.66l-7.29-1.98s1.7,1.34,2.67,2.47c.49.59-.07,1.43-.74,1.22-.8-.2-2.11-.76-4.09-2,0,0-8.58-5.8-2.73-8.98.84-.46,1.54-.54,2.48-.59h-.12s0-.02,0,.01v-.06h0,0Z"/>
      </g>
    </g>
  </g>
</svg>