<?xml version="1.0" encoding="UTF-8"?>
<svg id="Layer_1" xmlns="http://www.w3.org/2000/svg" xmlns:xlink="http://www.w3.org/1999/xlink" version="1.1" viewBox="0 0 750 1004.5">
  <!-- Generator: Adobe Illustrator 29.3.1, SVG Export Plug-In . SVG Version: 2.1.0 Build 151)  -->
  <defs>
    <style>
      .st0, .st1 {
        fill: #f5e7ae;
      }

      .st2, .st3 {
        fill: #543a35;
      }

      .st4, .st5, .st6, .st1, .st7 {
        isolation: isolate;
      }

      .st4, .st5, .st1, .st7 {
        opacity: .5;
      }

      .st4, .st8 {
        fill: #eececd;
      }

      .st9, .st6, .st7 {
        fill: #603813;
      }

      .st10 {
        fill: #273758;
      }

      .st11 {
        fill: #ca8a8c;
      }

      .st12 {
        fill: #d9a2a0;
      }

      .st13 {
        stroke: #344260;
        stroke-width: .2px;
      }

      .st13, .st14 {
        fill: #344260;
      }

      .st13, .st15 {
        stroke-miterlimit: 10;
      }

      .st16 {
        fill: #d9a8a7;
      }

      .st5 {
        fill: #e6e6e6;
      }

      .st17 {
        fill: #994931;
      }

      .st18 {
        fill: #783640;
      }

      .st19 {
        fill: #faf0f5;
      }

      .st20 {
        fill: #faae53;
      }

      .st21 {
        fill: #ecfffc;
      }

      .st22 {
        fill: #fff;
      }

      .st23 {
        fill: #8b3015;
      }

      .st24 {
        fill: #9b5f4d;
      }

      .st25 {
        fill: #cdcdcd;
      }

      .st26 {
        fill: #303e58;
      }

      .st27 {
        fill: #293958;
      }

      .st28 {
        fill: #e6c2c1;
      }

      .st29 {
        fill: #202c45;
      }

      .st3 {
        display: none;
      }

      .st30 {
        fill: #1d2d4e;
      }

      .st31 {
        fill: #eebf5e;
      }

      .st32 {
        fill: #8b4531;
      }

      .st15 {
        fill: none;
        stroke: #630;
        stroke-linecap: round;
      }
    </style>
  </defs>
  <path class="st16" d="M305.7,385.7l1.5-7.3c.3-1.5,1.9-5.3,3.2-6.1,1.6-1.1,1.2,2.2.1,9l9.7-5s6.8-1.9,3.6,3.3c0,0,7.4-.5,3,4.4,0,0,6.6.3,0,5.5l-6.7,4.5c-2.3,1.5-5.1,2.3-7.8,2-2.7-.3-5.5-1.7-6.5-5.5-.4-1.5-.3-3.1,0-4.7h-.1Z"/>
  <g>
    <g>
      <path class="st24" d="M358.6,372.3h-9.2c-1.2,0-2.2,1-2.2,2.2v13.6h13.6v-13.6c0-1.2-1-2.2-2.2-2.2h0Z"/>
      <path class="st32" d="M358.8,374.5h-9.5c-1.1,0-2.1.9-2.1,2.1v11.6h13.6v-11.6c0-1.1-.9-2.1-2.1-2.1h.1Z"/>
      <path class="st24" d="M355.5,379c0,.8-.7,1.5-1.5,1.5s-1.5-.7-1.5-1.5.7-1.5,1.5-1.5,1.5.7,1.5,1.5Z"/>
      <path class="st22" d="M355.2,379c0,.6-.5,1.2-1.2,1.2s-1.2-.5-1.2-1.2.5-1.2,1.2-1.2,1.2.5,1.2,1.2Z"/>
      <path class="st22" d="M358.6,376c0,.3-.2.5-.5.5s-.5-.2-.5-.5.2-.5.5-.5.5.2.5.5Z"/>
      <path class="st22" d="M357.2,376c0,.3-.2.5-.5.5s-.5-.2-.5-.5.2-.5.5-.5.5.2.5.5Z"/>
    </g>
    <path class="st16" d="M364.4,375.9c-4,2-4.3,7.6-4.3,10h-13.5c-1.2,0-2.1.9-2.1,2.1s.9,2,2,2.1v5.9c0,2,1.4,3.9,3.4,3.9,9.4.3,14.8,0,14.8,0l1.5-18.6c.9-7.2-1.8-5.6-1.8-5.6v.2Z"/>
  </g>
  <path class="st16" d="M325,415c-4,0-12.6,1.3-19.4,8.8-1,1.1,0,2.8,1.4,2.5h0s-3.2,1.7-.3,5c0,0-1.4,4.8,3.7,2.4l11.9-4.8s-2.6,2.6-4,4.7c-.7,1.1.4,2.4,1.5,1.9,1.3-.5,3.4-1.7,6.5-4.2,0,0,13.3-11.5,2.8-15.7-1.5-.6-2.7-.6-4.3-.5h.2,0Z"/>
  <path class="st16" d="M351.9,428.1v-18.3c0-1.3.9-2.3,2-2.3h0c1.1,0,2,1,2,2.3v12.9s2.3-3.8,5.2-.2c0,0,4.4-4.2,5.3,2.2l-2.1,18.4h-9.4s-10.1-16.9-7.7-18.5c0,0,0-2.1,4.7,3.5Z"/>
  <g>
    <path class="st16" d="M386.5,428s0,17.4,9.4,16.4c0,0,9.6,1.2,6.6-17.7l-16,1.3h0Z"/>
    <path class="st16" d="M397.7,431.8h0c-1.3,0-2.3-1-2.3-2.3v-17.1c0-1.3,1-2.3,2.3-2.3h0c1.3,0,2.3,1,2.3,2.3v17.1c0,1.3-1,2.3-2.3,2.3Z"/>
    <path class="st16" d="M396,431.2h0c-1.2.4-2.5-.2-2.9-1.4l-5.4-16.3c-.4-1.2.2-2.5,1.4-2.9h0c1.2-.4,2.5.2,2.9,1.4l5.4,16.3c.4,1.2-.2,2.5-1.4,2.9Z"/>
    <path class="st28" d="M389.3,434.3h0c-1.1.6-2.5.1-3.1-1l-3.5-6.7c-.6-1.1-.1-2.5,1-3.1h0c1.1-.6,2.5-.1,3.1,1l3.5,6.7c.6,1.1.1,2.5-1,3.1Z"/>
    <path class="st28" d="M398,434.5h0c1.1.6,2.7-.2,3.5-1.8l2.6-5.1c.8-1.6.6-3.3-.6-3.9h0c-1.1-.6-2.7.2-3.5,1.8l-2.6,5.1c-.8,1.6-.6,3.3.6,3.9Z"/>
    <path class="st28" d="M393,432.1h0c-1.1.6-2.5.1-3.1-1l-3.5-6.7c-.6-1.1-.1-2.5,1-3.1h0c1.1-.6,2.5-.1,3.1,1l3.5,6.7c.6,1.1.1,2.5-1,3.1Z"/>
  </g>
  <g>
    <path class="st16" d="M417.2,423.5v10.4s7.7,8.2,19.6,4.5c0,0,5.7-2,.9-4.5,0,0,4.7-.7,2.5-3.9,0,0,4.1-1.5,1.2-4.6,0,0,5.1-3.9-6.8-3.9h-1.4s1.9-1.9,2.8-4.1c1.2-3.1-3.3-5.2-4.9-2.3-.1.2-.2.4-.3.6-.9,2-2.1,3.8-3.9,5.1-1.6,1.2-6.8,2.3-9.6,2.6h-.1Z"/>
    <g>
      <path class="st20" d="M439.9,416.9l-.9,6.7-1.1,8-.5,4c-.1,1-1,1.8-2.1,1.8h-6.7c-1.1,0-2-.8-2.1-1.9l-.4-4-.8-8-.7-6.7h15.3Z"/>
      <path class="st32" d="M439.5,416.9h-14.8c-1,0-1.9-.8-1.9-1.9h0c0-1,.8-1.9,1.9-1.9h14.8c1,0,1.9.8,1.9,1.9h0c0,1-.8,1.9-1.9,1.9Z"/>
      <polygon class="st32" points="439 423.6 437.9 431.6 426.2 431.6 425.3 423.6 439 423.6"/>
    </g>
    <g>
      <path class="st16" d="M440.1,425.7h-6.1c-1.2,0-2.2-.9-2.2-2.1h0c0-1.1,1-2.1,2.2-2.1h6.1c1.2,0,2.2.9,2.2,2.1h0c0,1.1-1,2.1-2.2,2.1Z"/>
      <path class="st16" d="M438.2,433.8h-6.6c-1.3,0-2.4-.9-2.4-2.1h0c0-1.1,1.1-2.1,2.4-2.1h6.6c1.3,0,2.4.9,2.4,2.1h0c0,1.1-1.1,2.1-2.4,2.1Z"/>
      <path class="st16" d="M437.3,437.8h-6.6c-1.3,0-2.4-.9-2.4-2.1h0c0-1.1,1.1-2.1,2.4-2.1h6.6c1.3,0,2.4.9,2.4,2.1h0c0,1.1-1.1,2.1-2.4,2.1Z"/>
      <path class="st16" d="M439.3,429.9h-6.6c-1.3,0-2.4-.9-2.4-2.1h0c0-1.1,1.1-2.1,2.4-2.1h6.6c1.3,0,2.4.9,2.4,2.1h0c0,1.1-1.1,2.1-2.4,2.1Z"/>
    </g>
  </g>
  <g>
    <path class="st16" d="M414.8,387.1c-.5,1.7-.4,4.6.4,6.2,1,2.2,3.4,4.2,8.9,2.8,2.1-.5,4.1-1.5,5.8-2.8l4.9-3.5s1.9-1.2,5.1-.9c1.2.1,2.2-.9,2.1-2.1-.2-1.6-1.2-4.2-8.6-2.4,0,0,5.3-2.7,8.7-2.2,1.1.2,2.3-.4,2.8-1.5.5-1.2.2-2.7-4.3-3.3,0,0-2.7-.7-7.7.7,0,0,1.1-2.4,6.2-2.6,1.2,0,2.3-.5,3-1.5.8-1.1,1.1-2.5-1.3-3.3-1-.3-2-.4-3-.3-3.5.4-12.7,2-16.4,7.5,0,0-5.5,4.5-6.7,8.8v.4h.1Z"/>
    <g>
      <path class="st26" d="M434.6,397.7l-10.5-1.1c-1.6-.2-2.7-1.6-2.6-3.2l2.8-27.4c.2-1.6,1.6-2.7,3.2-2.6l10.5,1.1c1.6.2,2.7,1.6,2.6,3.2l-2.8,27.4c-.2,1.6-1.6,2.7-3.2,2.6Z"/>
      <rect class="st21" x="419.2" y="373.2" width="24.1" height="14" transform="translate(8.7 770.1) rotate(-84.1)"/>
      <path class="st22" d="M438.7,367.2c0,.4-.4.7-.8.7s-.7-.4-.7-.8.4-.7.8-.7.7.4.7.8Z"/>
      <path class="st21" d="M431.1,394.7c0,.8-.8,1.4-1.7,1.4s-1.4-.8-1.4-1.7.8-1.4,1.7-1.4,1.4.8,1.4,1.7Z"/>
    </g>
    <path class="st16" d="M416.4,383.7s7-10.4,10.6-10.2h0c1.4.2,1.2,2.7-.2,4.1l-6.7,6.4-3.7-.2h0Z"/>
  </g>
  <g>
    <path class="st16" d="M391.3,390.5l-.4,6.9h9.2v-19.5c0-1.2-.2-2.5-.5-3.9-1-4-5.8-5.8-9.1-3.4-2.2,1.6-4.5,3.3-4.9,3.9-1.8,2.8.9,4.3,4.2,4.3h3.3l-1.8,11.7h0Z"/>
    <path class="st32" d="M378.1,387.8s1.3-2.3,1.9-2.6l24.1-13.9c.5-.3,1.2-.1,1.5.4h0c.3.5.1,1.2-.4,1.5l-24.1,13.9c-.5.3-3,.6-3,.6h0Z"/>
    <path class="st16" d="M393.6,391.5h0c-1.2.3-2.5-.7-3-2.4l-2.2-7.8c-.5-1.6.1-3.3,1.3-3.6h0c1.2-.3,2.5.7,3,2.4l2.2,7.8c.5,1.6-.1,3.3-1.3,3.6Z"/>
  </g>
  <g>
    <rect class="st2" x="500.1" y="304.9" width="18.3" height="40.6"/>
    <path class="st2" d="M494.5,304.9v40.6h-11.1c-1.6,0-2.9-1.3-2.9-2.9v-34.8c0-1.6,1.3-2.9,2.9-2.9h11.1Z"/>
    <path class="st2" d="M536.8,307.8v34.8c0,1.6-1.3,2.9-2.9,2.9h-9.8v-40.6h9.8c1.6,0,2.9,1.3,2.9,2.9h0Z"/>
    <rect class="st31" x="494.5" y="304.9" width="5.6" height="40.6"/>
    <rect class="st31" x="518.4" y="304.9" width="5.6" height="40.6"/>
    <path class="st2" d="M520.8,302.9c0,.7,0,1.4-.2,2h-4.1c.2-.6.3-1.3.3-2,0-4.5-3.7-8.2-8.2-8.2s-8.1,3.7-8.1,8.2,0,1.4.3,2h-4.1c-.1-.7-.2-1.3-.2-2s0-1.1.1-1.6c.8-6,5.9-10.6,12-10.6s11.3,4.6,12.1,10.6v1.6h.1Z"/>
  </g>
  <g>
    <g>
      <g>
        <rect class="st0" x="637.3" y="295.9" width="14.6" height="14.6"/>
        <rect class="st1" x="637.3" y="295.9" width="14.6" height="2.2"/>
        <path class="st29" d="M643.9,296c0,.5.4.9.9.9s.9-.4.9-.9-.4-.9-.9-.9-.9.4-.9.9Z"/>
      </g>
      <g>
        <rect class="st8" x="647.2" y="305" width="14.6" height="14.6"/>
        <rect class="st4" x="647.2" y="305" width="14.6" height="2.1"/>
        <path class="st29" d="M653.9,305c0,.5.4.9.9.9s.9-.4.9-.9-.4-.9-.9-.9-.9.4-.9.9Z"/>
      </g>
    </g>
    <g>
      <g>
        <rect class="st0" x="631.3" y="321" width="14.6" height="14.6"/>
        <rect class="st1" x="631.3" y="321" width="14.6" height="2.2"/>
        <path class="st29" d="M638,321c0,.5.4.9.9.9s.9-.4.9-.9-.4-.9-.9-.9-.9.4-.9.9Z"/>
      </g>
      <g>
        <rect class="st8" x="641.2" y="330" width="14.6" height="14.6"/>
        <rect class="st4" x="641.2" y="330" width="14.6" height="2.1"/>
        <path class="st29" d="M647.9,330.1c0,.5.4.9.9.9s.9-.4.9-.9-.4-.9-.9-.9-.9.4-.9.9Z"/>
      </g>
    </g>
  </g>
  <g>
    <path class="st5" d="M569,346.1c12.6-.1,25.2-.2,37.8-.3,7.4-16.3-10.2-32.5-2.7-48.8-11.4,0-22.8.2-34.3.3-8.6,16.4,7.8,32.5-.8,48.9h0Z"/>
    <g>
      <path class="st25" d="M571.4,311.3v-1c8.7,0,17.4-.1,26-.2,0,.3,0,.7.2,1-8.7,0-17.4.1-26.1.2h-.1Z"/>
      <path class="st25" d="M598.2,314.7c-8.8,0-17.5.1-26.3.2,0-.3,0-.7-.2-1,8.7,0,17.5-.1,26.2-.2,0,.3.2.7.2,1h0Z"/>
      <path class="st25" d="M599.2,318.3c-8.8,0-17.7.1-26.5.2,0-.3-.2-.7-.2-1,8.8,0,17.6-.1,26.4-.2,0,.3.2.7.3,1Z"/>
      <path class="st25" d="M600.3,321.9c-8.9,0-17.8.2-26.7.2,0-.3-.2-.7-.3-1,8.9,0,17.7-.2,26.6-.2,0,.3.2.7.3,1h.1Z"/>
      <path class="st25" d="M601.3,325.5c-9,0-17.9.2-26.9.2,0-.3-.2-.7-.2-1,8.9,0,17.9-.2,26.8-.2,0,.3.2.7.3,1h0Z"/>
      <path class="st25" d="M602.3,329.2c-9,0-18,.2-27.1.2,0-.3,0-.7-.2-1,9,0,18-.2,27-.2,0,.3.2.7.2,1h0Z"/>
      <path class="st25" d="M602.8,331.8c0,.3,0,.7.2,1-9.1,0-18.2.2-27.3.2v-1c9.1,0,18.1-.2,27.2-.2h-.1Z"/>
      <path class="st25" d="M571.7,302.6c0-.4.2-.7.3-1.1h6.1c0,.4-.2.7-.3,1.1h-6.1Z"/>
      <path class="st25" d="M577.5,303.9v1.1h-6.1v-1.1h6.1Z"/>
    </g>
  </g>
  <g>
    <polygon class="st17" points="700.2 295.9 681.7 298.7 681.7 338.7 700.2 343.1 700.2 295.9"/>
    <g>
      <rect class="st23" x="700.2" y="295.9" width="12.3" height="47.3"/>
      <rect class="st22" x="702.3" y="298.7" width="8" height="41.5"/>
      <circle class="st2" cx="706.3" cy="302.8" r="2.2"/>
      <g>
        <path class="st2" d="M708.9,308.8h-5.2c-.3,0-.5-.2-.5-.5h0c0-.3.2-.5.5-.5h5.2c.3,0,.5.2.5.5h0c0,.3-.2.5-.5.5Z"/>
        <path class="st2" d="M708.9,310.6h-5.2c-.3,0-.5-.2-.5-.5h0c0-.3.2-.5.5-.5h5.2c.3,0,.5.2.5.5h0c0,.3-.2.5-.5.5Z"/>
        <path class="st2" d="M708.9,312.5h-5.2c-.3,0-.5-.2-.5-.5h0c0-.3.2-.5.5-.5h5.2c.3,0,.5.2.5.5h0c0,.3-.2.5-.5.5Z"/>
      </g>
    </g>
  </g>
  <g id="leg5">
    <path class="st2" d="M708.2,466.9s16.6,7.2,12.6,8.5c-.5.2-15-1.9-15.3-2.1-.8-.4-1.3-1.2-1.4-2.1v-4.2h4.1Z"/>
    <path class="st30" d="M703.9,417.3h0c-3.1.6-6.1-1.3-6.8-4.3l-10.1-45.3c-.9-4.9,2.4-9.7,7.5-10.7h0c5-1,9.9,2.2,10.9,7.1,4.5,15,5.5,32.9,3.2,48.3-.4,2.4-2.3,4.3-4.7,4.8h0Z"/>
    <path class="st30" d="M704,466.9h4.2v-54c0-3.2-2.4-5.8-5.4-5.8h0c-2.6,0-4.9,2.1-5.3,4.9-2.2,15.8.2,34.5,6.5,54.9Z"/>
  </g>
  <g id="leg4">
    <path class="st2" d="M670.5,466.9s16.6,7.2,12.6,8.5c-.5.2-15-1.9-15.3-2.1-.8-.4-1.3-1.2-1.4-2.1v-4.2h4.1Z"/>
    <path class="st30" d="M667,417h0c-2.9,1.4-6.2.3-7.6-2.4l-21.2-41.3c-2.1-4.5,0-10,4.5-12.2h0c4.6-2.2,10.2-.3,12.3,4.1,8.2,13.3,13.6,30.4,15.3,45.9.3,2.4-1.1,4.8-3.3,5.9Z"/>
    <path class="st30" d="M666.3,466.9h4.2v-54c0-3.2-2.4-5.8-5.4-5.8h0c-2.6,0-4.9,2.1-5.3,4.9-2.2,15.8.2,34.5,6.5,54.9Z"/>
  </g>
  <g id="leg3">
    <path class="st2" d="M632.8,466.9s16.6,7.2,12.6,8.5c-.5.2-15-1.9-15.3-2.1-.8-.4-1.3-1.2-1.4-2.1v-4.2h4.1Z"/>
    <path class="st30" d="M630.4,416.4h0c-2.5,1.9-6,1.6-8-.7l-29.6-35.7c-3.1-3.9-2.3-9.7,1.8-12.9h0c4-3.2,9.9-2.5,12.9,1.4,10.8,11.3,19.9,26.8,24.9,41.5.8,2.3,0,4.9-2,6.4h0Z"/>
    <path class="st30" d="M628.6,466.9h4.2v-54c0-3.2-2.4-5.8-5.4-5.8h0c-2.6,0-4.9,2.1-5.3,4.9-2.2,15.8.2,34.5,6.5,54.9Z"/>
  </g>
  <g id="leg2">
    <path class="st2" d="M591.5,466.9s16.6,7.2,12.6,8.5c-.5.2-15-1.9-15.3-2.1-.8-.4-1.3-1.2-1.4-2.1v-4.2h4.1Z"/>
    <path class="st30" d="M589.7,415.7h0c-1.9,2.5-5.4,3.1-7.9,1.3l-37.6-27.2c-3.9-3-4.6-8.8-1.5-12.9h0c3.1-4.1,8.9-4.9,12.9-1.9,13.3,8.2,26,20.9,34.5,33.9,1.3,2,1.2,4.7-.3,6.7h-.1Z"/>
    <path class="st30" d="M587.3,466.9h4.2v-54c0-3.2-2.4-5.8-5.4-5.8h0c-2.6,0-4.9,2.1-5.3,4.9-2.2,15.8.2,34.5,6.5,54.9Z"/>
  </g>
  <g id="leg1">
    <path class="st2" d="M536.9,466.9s16.6,7.2,12.6,8.5c-.5.2-15-1.9-15.3-2.1-.8-.4-1.3-1.2-1.4-2.1v-4.2h4.1Z"/>
    <path class="st30" d="M536.6,412.5h0c0,3.2-2.3,5.7-5.2,5.8l-42.8.6c-4.6,0-8.3-4.3-8.2-9.5h0c0-5.1,3.9-9.3,8.5-9.2,14.3-1.4,30.7,1.3,44.2,6.7,2.1.8,3.5,3.1,3.4,5.6h0Z"/>
    <path class="st30" d="M532.8,466.9h4.2v-54c0-3.2-2.4-5.8-5.4-5.8h0c-2.6,0-4.9,2.1-5.3,4.9-2.2,15.8.2,34.5,6.5,54.9Z"/>
  </g>
  <g id="arm5">
    <path class="st16" d="M244.3,392.6l13.1-3.3s3.4,1.3-5.2,4.3c0,0,6,4,11.1,4.6,1.2.2,2.3.7,2.9,1.7.9,1.4.9,3.3-5.3,4.4,0,0-7,1.4-14.5-6.3l-2.1-5.5h0Z"/>
    <path class="st14" d="M195.2,414.9h0c3.4.3,6.5-2.3,6.8-5.9,2-12.9,3.2-25.1,2.9-35.9.3-3.5-2.3-6.6-5.7-6.9h0c-8.1,0-9.8,27.8-9.7,41.7-.3,3.5,2.3,6.6,5.7,6.9h0Z"/>
    <path class="st14" d="M246.4,398l-2.1-5.4-49.7,12.3c-3.7.9-5.9,4.8-4.7,8.3h0c1.2,3.3,4.9,5,8.3,3.6l48.1-18.9h.1Z"/>
  </g>
  <g id="arm4">
    <path class="st16" d="M193.9,439l10,9.1s.8,3.5-6.4-1.9c0,0,0,7.2,2.3,11.8.5,1.1.7,2.3.2,3.4-.6,1.5-2.3,2.6-6.7-2,0,0-5.1-5.1-2.8-15.5l3.4-4.8h0Z"/>
    <path class="st14" d="M150.9,414.9h0c3.4.3,6.5-2.3,6.8-5.9,2-12.9,3.2-25.1,2.9-35.9.3-3.5-2.3-6.6-5.7-6.9h0c-8.1,0-9.8,27.8-9.7,41.7-.3,3.5,2.3,6.6,5.7,6.9h0Z"/>
    <path class="st14" d="M190.6,443.8l3.3-4.8-37.8-34.5c-2.9-2.6-7.3-2.3-9.6.7h0c-2.1,2.8-1.4,6.9,1.6,9l42.4,29.5h.1Z"/>
  </g>
  <g id="arm3">
    <path class="st16" d="M143.9,450.7l6.9,11.6s-.3,3.6-5.6-3.7c0,0-2,6.9-1.2,11.9.2,1.2,0,2.4-.7,3.3-1,1.3-2.9,1.8-5.8-3.8,0,0-3.4-6.3,1.8-15.7l4.6-3.6h0Z"/>
    <path class="st14" d="M111.6,414.9h0c3.4.3,6.5-2.3,6.8-5.9,2-12.9,3.2-25.1,2.9-35.9.3-3.5-2.3-6.6-5.7-6.9h0c-8.1,0-9.8,27.8-9.7,41.7-.3,3.5,2.3,6.6,5.7,6.9h0Z"/>
    <path class="st14" d="M139.3,454.3l4.6-3.6-26.2-44c-2-3.3-6.3-4.3-9.3-2.1h0c-2.9,2.1-3.3,6.2-1.1,9l32,40.6h0Z"/>
  </g>
  <g id="arm2">
    <path class="st16" d="M90.6,459.2l2.6,13.3s-1.4,3.3-4-5.4c0,0-4.2,5.8-5.2,10.8-.2,1.2-.8,2.2-1.8,2.8-1.4.9-3.3.7-4.2-5.6,0,0-1.1-7.1,7-14.2l5.6-1.9v.2h0Z"/>
    <path class="st14" d="M73.8,414.9h0c3.4.3,6.5-2.3,6.8-5.9,2-12.9,3.2-25.1,2.9-35.9.3-3.5-2.3-6.6-5.7-6.9h0c-8.1,0-9.8,27.8-9.7,41.7-.3,3.5,2.3,6.6,5.7,6.9h0Z"/>
    <path class="st14" d="M85,461l5.5-1.8-9.8-50.2c-.7-3.8-4.5-6.2-8.1-5.1h0c-3.4,1-5.2,4.7-4.1,8.1l16.5,49Z"/>
  </g>
  <g id="arm1">
    <path class="st16" d="M44.9,460.1l5.1,12.5s-.8,3.5-5-4.5c0,0-3.1,6.5-3,11.6,0,1.2-.4,2.3-1.2,3.1-1.2,1.1-3.2,1.3-5.1-4.7,0,0-2.4-6.8,4.2-15.2l5.1-2.9h0Z"/>
    <path class="st14" d="M41.9,414.9h0c3.4.3,6.5-2.3,6.8-5.9,2-12.9,3.2-25.1,2.9-35.9.3-3.5-2.3-6.6-5.7-6.9h0c-8.1,0-9.8,27.8-9.7,41.7-.3,3.5,2.3,6.6,5.7,6.9h0Z"/>
    <path class="st14" d="M40.2,462.1l5.8-.4,2.7-51.1c.2-3.9-2.9-7.1-6.6-6.9h0c-3.5.1-6.2,3.3-5.9,6.9l4,51.6h0Z"/>
  </g>
  <g id="german-woman-angry">
    <path class="st2" d="M621.4,238.4c-2.7-5-6.9-8.9-9.7-13.8-1.2-2.1-1-19.5-14-21.8-2.7-.5-5.6-.3-8.3.2-2.6.5-5.2.8-7.4,2.3-2.1,1.4-3.8,3.4-4.9,5.6-1.4,2.9-1.6,6.2-2.8,9.2-3.4,8-9.9,14.3-12.6,22.5-.2.6-.4,1.3-.6,1.9-.9,3.6.2,7.6,2,10.8,1-2.3.6-4.9,1.9-7.3.7,6.1,1.6,11.9,5.5,16.9,3.7,4.8,8.4,7.2,13.5,10.2-.4-.9-.7-1.7-.6-2.7,2,1.9,6,3.9,8.7,3.2,4.1-1.2,7.6-3.7,11.1-5.7,0,1-1.4,2.6-2,3.4,4.8-2.4,10.6-6.4,13.2-11.2,2.5-4.6,3-10.2,3.5-15.2,1.7,2.2,2,5.4,2.9,7.9,2.6-4.7,3-11.8.5-16.6v.2h0Z"/>
    <path class="st11" d="M589.4,258.2h0c1.7,3.2,6.2,3.1,7.8,0h0c.3-.6.5-1.3.5-2.1v-12.2h-9v12.1c0,.8.2,1.5.6,2.2h.1Z"/>
    <path class="st16" d="M611,229.8c-.7,1.3-1.9,2.2-3,2.5h-1c-.3,3.5-1.4,6.6-3,9.2-3,5-7.6,8.1-11,7.9h-.8c-2.8,0-5.9-1.6-8.5-4.5h0c-.8-.8-1.5-1.8-2.1-2.8-1.6-2.5-2.8-5.6-3.3-9.1h-.3c-1.1-.1-2.4-1-3.2-2.3,0-.2-.2-.5-.3-.7,0-.3-.2-.7-.3-1h0c-.3-1.3,0-2.4,1-2.9h0c.8-.4,1.9-.1,2.8.6.6-8.4,4.4-16,9.7-18.8,1.4-.8,2.8-1.2,4.4-1.2,2.3,0,4.4.7,6.4,2,4.5,3,7.8,10.4,8.5,17.9.4-.5.9-.9,1.4-1.1.7-.3,1.4-.4,2-.1,1.3.6,1.5,2.6.5,4.5h0Z"/>
    <g>
      <path class="st9" d="M602.4,224.4c0-.2-.2-.3-.5-.2-3.2.5-3.8-2.2-3.9-2.4-.2-.3-.3-.4-.6-.4-.3.2-.4.3-.3.7.3,1.3,1.8,3.7,5,3.1.3-.2.4-.3.4-.6h-.2v-.3h0Z"/>
      <path class="st9" d="M583,225.3c0-.2.2-.3.5-.2,3.2.5,3.8-2.2,3.9-2.4.2-.3.3-.4.6-.4.3.2.4.3.3.7-.3,1.3-1.8,3.7-5,3.1-.3-.2-.4-.3-.4-.6h.2v-.3h0Z"/>
      <path class="st9" d="M586.3,228.5c0,.8.6,1.5,1.3,1.5s1.4-.7,1.4-1.5-.6-1.5-1.3-1.5-1.4.7-1.4,1.5Z"/>
      <path class="st9" d="M597,228.5c0,.8.6,1.5,1.3,1.5s1.4-.7,1.4-1.5-.6-1.5-1.3-1.5-1.4.7-1.4,1.5Z"/>
      <path class="st15" d="M588.8,243.9c0-.2,1.2-2.5,3.9-2.4,2.6,0,3.7,2.2,3.9,2.4"/>
      <path class="st7" d="M595.4,235.2c0,1.2-1,2.2-2.2,2.2s-2.2-1-2.2-2.2,1,1.2,2.2,1.2,2.2-2.5,2.2-1.2Z"/>
      <path class="st12" d="M603.3,230.7c1.8,0,3.2,1.3,3.1,2.9s-1.7,2.6-3.5,2.5-3.2-1.3-3.1-2.9,1.7-2.6,3.5-2.5Z"/>
      <path class="st12" d="M583,230.7c1.8,0,3.2,1.3,3.1,2.9s-1.7,2.6-3.5,2.5-3.2-1.3-3.1-2.9,1.7-2.6,3.5-2.5Z"/>
    </g>
    <path class="st2" d="M609.3,225.5c0,2.6-1.4,13.5-4.7,16,1.5-6.9,2.3-17.1-.4-20.6-.9-1.2-3.7-3.4-3.5-5.1-4.1,5.3-12.4,6.6-14,6.8-2,.5-4.8.9-6.3,1.4-.5,5.1.4,15,.9,18-1.7-2.5-2.9-5.6-3.4-9.1,0,0-.4-2.7-.3-3.8-1.2.3-2.4.7-3.6.8h-.7c0-.3.2-.7.4-1h0c.2-.4.4-.7.6-1,.2-.6.4-1.2.5-1.9v-.4c.3-1.5.3-2.9.4-4.4.2-3,.5-6,1.9-8.7,3.1-5.8,10-10.2,17-9.9,2.5.1,5,.9,7.1,2.2,4.3,2.7,7.4,7.5,8,12.4v8.2h0Z"/>
  </g>
  <g id="german-woman-smiling">
    <path class="st2" d="M532.9,235.6c-2.7-5-6.9-8.9-9.7-13.8-1.2-2.1-1-19.5-14-21.8-2.7-.5-5.6-.3-8.3.2-2.6.5-5.2.8-7.4,2.3-2.1,1.4-3.8,3.4-4.9,5.6-1.4,2.9-1.6,6.2-2.8,9.2-3.4,8-9.9,14.3-12.6,22.5-.2.6-.4,1.3-.6,1.9-.9,3.6.2,7.6,2,10.8,1-2.3.6-4.9,1.9-7.3.7,6.1,1.6,11.9,5.5,16.9,3.7,4.8,8.4,7.2,13.5,10.2-.4-.9-.7-1.7-.6-2.7,2,1.9,6,3.9,8.7,3.2,4.1-1.2,7.6-3.7,11.1-5.7,0,1-1.4,2.6-2,3.4,4.8-2.4,10.6-6.4,13.2-11.2,2.5-4.6,3-10.2,3.5-15.2,1.7,2.2,2,5.4,2.9,7.9,2.6-4.7,3-11.8.5-16.6v.2h0Z"/>
    <path class="st11" d="M500.9,255.4h0c1.7,3.2,6.2,3.1,7.8,0h0c.3-.6.5-1.3.5-2.1v-12.2h-9v12.1c0,.8.2,1.5.6,2.2h.1Z"/>
    <path class="st16" d="M522.5,227c-.7,1.3-1.9,2.2-3,2.5h-1c-.3,3.5-1.4,6.6-3,9.2-3,5-7.6,8.1-11,7.9h-.8c-2.8,0-5.9-1.6-8.5-4.5h0c-.8-.8-1.5-1.8-2.1-2.8-1.6-2.5-2.8-5.6-3.3-9.1h-.3c-1.1-.1-2.4-1-3.2-2.3-.1-.2-.2-.5-.3-.7-.1-.3-.2-.7-.3-1h0c-.3-1.3,0-2.4,1-2.9h0c.8-.4,1.9-.1,2.8.6.6-8.4,4.4-16,9.7-18.8,1.4-.8,2.8-1.2,4.4-1.2,2.3,0,4.4.7,6.4,2,4.5,3,7.8,10.4,8.5,17.9.4-.5.9-.9,1.4-1.1.7-.3,1.4-.4,2-.1,1.3.6,1.5,2.6.5,4.5h0Z"/>
    <g>
      <path class="st9" d="M514,223.7c-.2,0-.3,0-.4-.2-1.5-2.7-3.9-1.6-4-1.6-.2,0-.5,0-.7-.2,0-.2,0-.5.2-.7,1.2-.5,3.8-.9,5.3,2,0,.2,0,.5-.2.7h-.2,0Z"/>
      <path class="st9" d="M494.2,223.7c.2,0,.3,0,.4-.2,1.5-2.7,3.9-1.6,4-1.6.2,0,.5,0,.7-.2,0-.2,0-.5-.2-.7-1.2-.5-3.8-.9-5.3,2,0,.2,0,.5.2.7h.2,0Z"/>
      <path class="st9" d="M497.1,225.6c0,.9.6,1.8,1.3,1.8s1.4-.9,1.4-1.8-.6-1.8-1.3-1.8-1.4.9-1.4,1.8Z"/>
      <path class="st9" d="M509,225.6c0,.9.6,1.8,1.3,1.8s1.4-.9,1.4-1.8-.6-1.8-1.3-1.8-1.4.9-1.4,1.8Z"/>
      <path class="st15" d="M500.4,237.6c.2.2,1.3,2.7,4.3,2.6,2.9,0,4.1-2.3,4.3-2.6"/>
      <path class="st7" d="M506.7,232.5c0,1.2-.9,2.1-2.1,2.1s-2.1-.9-2.1-2.1.9,1.2,2.1,1.2,2.1-2.4,2.1-1.2Z"/>
      <path class="st12" d="M514.2,228.2c1.7,0,3.1,1.3,3,2.7s-1.6,2.5-3.4,2.4-3.1-1.3-3-2.7,1.6-2.5,3.4-2.4Z"/>
      <path class="st12" d="M494.7,228.2c1.7,0,3.1,1.3,3,2.7s-1.6,2.5-3.4,2.4-3.1-1.3-3-2.7,1.6-2.5,3.4-2.4Z"/>
    </g>
    <path class="st2" d="M520.8,222.7c0,2.6-1.4,13.5-4.7,16,1.5-6.9,2.3-17.1-.4-20.6-.9-1.2-3.7-3.4-3.5-5.1-4.1,5.3-12.4,6.6-14,6.8-2,.5-4.8.9-6.3,1.4-.5,5.1.4,15,.9,18-1.7-2.5-2.9-5.6-3.4-9.1,0,0-.4-2.7-.3-3.8-1.2.3-2.4.7-3.6.8h-.7c0-.3.2-.7.4-1h0c.2-.4.4-.7.6-1,.2-.6.4-1.2.5-1.9v-.4c.3-1.5.3-2.9.4-4.4.2-3,.5-6,1.9-8.7,3.1-5.8,10-10.2,17-9.9,2.5.1,5,.9,7.1,2.2,4.3,2.7,7.4,7.5,8,12.4v8.2h.1Z"/>
  </g>
  <g id="german-woman-smiling-eyesclosed">
    <path class="st2" d="M621.4,145.2c-2.7-5-6.9-8.9-9.7-13.8-1.2-2.1-1-19.5-14-21.8-2.7-.5-5.6-.3-8.3.2-2.6.5-5.2.8-7.4,2.3-2.1,1.4-3.8,3.4-4.9,5.6-1.4,2.9-1.6,6.2-2.8,9.2-3.4,8-9.9,14.3-12.6,22.5-.2.6-.4,1.3-.6,1.9-.9,3.6.2,7.6,2,10.8,1-2.3.6-4.9,1.9-7.3.7,6.1,1.6,11.9,5.5,16.9,3.7,4.8,8.4,7.2,13.5,10.2-.4-.9-.7-1.7-.6-2.7,2,1.9,6,3.9,8.7,3.2,4.1-1.2,7.6-3.7,11.1-5.7,0,1-1.4,2.6-2,3.4,4.8-2.4,10.6-6.4,13.2-11.2,2.5-4.6,3-10.2,3.5-15.2,1.7,2.2,2,5.4,2.9,7.9,2.6-4.7,3-11.8.5-16.6v.2h0Z"/>
    <path class="st11" d="M589.4,165.1h0c1.7,3.2,6.2,3.1,7.8,0h0c.3-.6.5-1.3.5-2.1v-12.2h-9v12.1c0,.8.2,1.5.6,2.2h.1Z"/>
    <path class="st16" d="M611,136.7c-.7,1.3-1.9,2.2-3,2.5h-1c-.3,3.5-1.4,6.6-3,9.2-3,5-7.6,8.1-11,7.9h-.8c-2.8,0-5.9-1.6-8.5-4.5h0c-.8-.8-1.5-1.8-2.1-2.8-1.6-2.5-2.8-5.6-3.3-9.1h-.3c-1.1-.1-2.4-1-3.2-2.3,0-.2-.2-.5-.3-.7,0-.3-.2-.7-.3-1h0c-.3-1.3,0-2.4,1-2.9h0c.8-.4,1.9-.1,2.8.6.6-8.4,4.4-16,9.7-18.8,1.4-.8,2.8-1.2,4.4-1.2,2.3,0,4.4.7,6.4,2,4.5,3,7.8,10.4,8.5,17.9.4-.5.9-.9,1.4-1.1.7-.3,1.4-.4,2-.1,1.3.6,1.5,2.6.5,4.5h0Z"/>
    <g>
      <path class="st15" d="M588.4,147.6c.2.2,1.4,2.9,4.7,2.8,3.2,0,4.5-2.5,4.7-2.8"/>
      <path class="st7" d="M595.4,142c0,1.3-1,2.3-2.3,2.3s-2.3-1-2.3-2.3,1,1.3,2.3,1.3,2.3-2.6,2.3-1.3Z"/>
      <path class="st6" d="M600.6,136.6c0-1.3-.9-2.3-2.1-2.3s-2.1,1-2.1,2.3.9-1.3,2.1-1.3,2.1,2.6,2.1,1.3Z"/>
      <path class="st6" d="M589.3,136.6c0-1.3-.9-2.3-2.1-2.3s-2.1,1-2.1,2.3.9-1.3,2.1-1.3,2.1,2.6,2.1,1.3Z"/>
      <path class="st12" d="M603.6,137.4c1.9,0,3.4,1.4,3.3,3s-1.8,2.7-3.6,2.6-3.4-1.4-3.3-3,1.8-2.7,3.6-2.6Z"/>
      <path class="st12" d="M582.3,137.4c1.9,0,3.4,1.4,3.3,3s-1.8,2.7-3.6,2.6-3.4-1.4-3.3-3,1.8-2.7,3.6-2.6Z"/>
      <path class="st9" d="M602.5,133.3c-.2,0-.3,0-.4-.2-1.5-2.7-3.9-1.6-4-1.6-.2,0-.5,0-.7-.2,0-.2,0-.5.2-.7,1.2-.5,3.8-.9,5.3,2,0,.2,0,.5-.2.7h-.2,0Z"/>
      <path class="st9" d="M582.7,133.3c.2,0,.3,0,.4-.2,1.5-2.7,3.9-1.6,4-1.6.2,0,.5,0,.7-.2,0-.2,0-.5-.2-.7-1.2-.5-3.8-.9-5.3,2,0,.2,0,.5.2.7h.2,0Z"/>
    </g>
    <path class="st2" d="M609.3,132.3c0,2.6-1.4,13.5-4.7,16,1.5-6.9,2.3-17.1-.4-20.6-.9-1.2-3.7-3.4-3.5-5.1-4.1,5.3-12.4,6.6-14,6.8-2,.5-4.8.9-6.3,1.4-.5,5.1.4,15,.9,18-1.7-2.5-2.9-5.6-3.4-9.1,0,0-.4-2.7-.3-3.8-1.2.3-2.4.7-3.6.8h-.7c0-.3.2-.7.4-1h0c.2-.4.4-.7.6-1,.2-.6.4-1.2.5-1.9v-.4c.3-1.5.3-2.9.4-4.4.2-3,.5-6,1.9-8.7,3.1-5.8,10-10.2,17-9.9,2.5,0,5,.9,7.1,2.2,4.3,2.7,7.4,7.5,8,12.4v8.2h0Z"/>
  </g>
  <g id="german-woman-worried">
    <path class="st2" d="M532,147.1c-2.7-5-6.9-8.9-9.7-13.8-1.2-2.1-1-19.5-14-21.8-2.7-.5-5.6-.3-8.3.2-2.6.5-5.2.8-7.4,2.3-2.1,1.4-3.8,3.4-4.9,5.6-1.4,2.9-1.6,6.2-2.8,9.2-3.4,8-9.9,14.3-12.6,22.5-.2.6-.4,1.3-.6,1.9-.9,3.6.2,7.6,2,10.8,1-2.3.6-4.9,1.9-7.3.7,6.1,1.6,11.9,5.5,16.9,3.7,4.8,8.4,7.2,13.5,10.2-.4-.9-.7-1.7-.6-2.7,2,1.9,6,3.9,8.7,3.2,4.1-1.2,7.6-3.7,11.1-5.7,0,1-1.4,2.6-2,3.4,4.8-2.4,10.6-6.4,13.2-11.2,2.5-4.6,3-10.2,3.5-15.2,1.7,2.2,2,5.4,2.9,7.9,2.6-4.7,3-11.8.5-16.6v.2h0Z"/>
    <path class="st11" d="M499.9,166.9h0c1.7,3.2,6.2,3.1,7.8,0h0c.3-.6.5-1.3.5-2.1v-12.2h-9v12.1c0,.8.2,1.5.6,2.2h.1Z"/>
    <path class="st16" d="M521.6,138.5c-.7,1.3-1.9,2.2-3,2.5h-1c-.3,3.5-1.4,6.6-3,9.2-3,5-7.6,8.1-11,7.9h-.8c-2.8,0-5.9-1.6-8.5-4.5h0c-.8-.8-1.5-1.8-2.1-2.8-1.6-2.5-2.8-5.6-3.3-9.1h-.3c-1.1-.1-2.4-1-3.2-2.3-.1-.2-.2-.5-.3-.7-.1-.3-.2-.7-.3-1h0c-.3-1.3,0-2.4,1-2.9h0c.8-.4,1.9-.1,2.8.6.6-8.4,4.4-16,9.7-18.8,1.4-.8,2.8-1.2,4.4-1.2,2.3,0,4.4.7,6.4,2,4.5,3,7.8,10.4,8.5,17.9.4-.5.9-.9,1.4-1.1.7-.3,1.4-.4,2-.1,1.3.6,1.5,2.6.5,4.5h0Z"/>
    <g>
      <path class="st9" d="M513.2,131.5c0-.1-.2-.2-.4-.1-3,.9-3.9-1.6-3.9-1.7-.2-.2-.4-.4-.7-.3-.2.2-.4.4-.3.7.4,1.2,2.1,3.3,5.1,2.4.2-.2.4-.4.4-.6l-.2-.2h0v-.2h0Z"/>
      <path class="st9" d="M493.7,132.4c.1-.1.2-.2.4-.1,3,.9,3.9-1.6,3.9-1.7.2-.2.4-.4.7-.3.2.2.4.4.3.7-.4,1.2-2.1,3.3-5.1,2.4-.2-.2-.4-.4-.4-.6l.2-.2h0v-.2h0Z"/>
      <path class="st9" d="M508.4,137c0,.9.6,1.8,1.3,1.8s1.4-.9,1.4-1.8-.6-1.8-1.3-1.8-1.4.9-1.4,1.8Z"/>
      <path class="st9" d="M496.5,137c0,.9.6,1.8,1.3,1.8s1.4-.9,1.4-1.8-.6-1.8-1.3-1.8-1.4.9-1.4,1.8Z"/>
      <path class="st7" d="M506,143.9c0,1.2-.9,2.1-2.1,2.1s-2.1-.9-2.1-2.1.9,1.2,2.1,1.2,2.1-2.4,2.1-1.2Z"/>
      <path class="st12" d="M513.5,139.6c1.7,0,3.1,1.3,3,2.7s-1.6,2.5-3.3,2.4-3.1-1.3-3-2.7,1.6-2.5,3.3-2.4Z"/>
      <path class="st12" d="M494.1,139.6c1.7,0,3.1,1.3,3,2.7s-1.6,2.5-3.3,2.4-3.1-1.3-3-2.7,1.6-2.5,3.3-2.4Z"/>
      <ellipse class="st9" cx="503.7" cy="151.1" rx="1.6" ry="2.8"/>
    </g>
    <path class="st2" d="M519.9,134.1c0,2.6-1.4,13.5-4.7,16,1.5-6.9,2.3-17.1-.4-20.6-.9-1.2-3.7-3.4-3.5-5.1-4.1,5.3-12.4,6.6-14,6.8-2,.5-4.8.9-6.3,1.4-.5,5.1.4,15,.9,18-1.7-2.5-2.9-5.6-3.4-9.1,0,0-.4-2.7-.3-3.8-1.2.3-2.4.7-3.6.8h-.7c0-.3.2-.7.4-1h0c.2-.4.4-.7.6-1,.2-.6.4-1.2.5-1.9v-.4c.3-1.5.3-2.9.4-4.4.2-3,.5-6,1.9-8.7,3.1-5.8,10-10.2,17-9.9,2.5,0,5,.9,7.1,2.2,4.3,2.7,7.4,7.5,8,12.4v8.2h.1Z"/>
  </g>
  <g id="german-woman-surprised">
    <path class="st2" d="M622.1,52.6c-2.7-5-6.9-8.9-9.7-13.8-1.2-2.1-1-19.5-14-21.8-2.7-.5-5.6-.3-8.3.2-2.6.5-5.2.8-7.4,2.3-2.1,1.4-3.8,3.4-4.9,5.6-1.4,2.9-1.6,6.2-2.8,9.2-3.4,8-9.9,14.3-12.6,22.5-.2.6-.4,1.3-.6,1.9-.9,3.6.2,7.6,2,10.8,1-2.3.6-4.9,1.9-7.3.7,6.1,1.6,11.9,5.5,16.9,3.7,4.8,8.4,7.2,13.5,10.2-.4-.9-.7-1.7-.6-2.7,2,1.9,6,3.9,8.7,3.2,4.1-1.2,7.6-3.7,11.1-5.7,0,1-1.4,2.6-2,3.4,4.8-2.4,10.6-6.4,13.2-11.2,2.5-4.6,3-10.2,3.5-15.2,1.7,2.2,2,5.4,2.9,7.9,2.6-4.7,3-11.8.5-16.6v.2h0Z"/>
    <path class="st11" d="M590.1,72.4h0c1.7,3.2,6.2,3.1,7.8,0h0c.3-.6.5-1.3.5-2.1v-12.2h-9v12.1c0,.8.2,1.5.6,2.2h.1Z"/>
    <path class="st16" d="M611.8,44c-.7,1.3-1.9,2.2-3,2.5h-1c-.3,3.5-1.4,6.6-3,9.2-3,5-7.6,8.1-11,7.9h-.8c-2.8,0-5.9-1.6-8.5-4.5h0c-.8-.8-1.5-1.8-2.1-2.8-1.6-2.5-2.8-5.6-3.3-9.1h-.3c-1.1,0-2.4-1-3.2-2.3,0-.2-.2-.5-.3-.7,0-.3-.2-.7-.3-1h0c-.3-1.3,0-2.4,1-2.9h0c.8-.4,1.9,0,2.8.6.6-8.4,4.4-16,9.7-18.8,1.4-.8,2.8-1.2,4.4-1.2,2.3,0,4.4.7,6.4,2,4.5,3,7.8,10.4,8.5,17.9.4-.5.9-.9,1.4-1.1.7-.3,1.4-.4,2,0,1.3.6,1.5,2.6.5,4.5h0v-.2Z"/>
    <g>
      <path class="st9" d="M603.8,40.9c-.2,0-.4,0-.4-.3-1.5-2.8-4-1.7-4.1-1.6-.3,0-.5,0-.7-.3,0-.3,0-.5.3-.7,1.2-.5,4-.9,5.5,2,0,.3,0,.5-.2.7h-.3v.2h0Z"/>
      <path class="st9" d="M583.2,40.9c.2,0,.4,0,.4-.3,1.5-2.8,4-1.7,4.1-1.6.3,0,.5,0,.7-.3,0-.3,0-.5-.3-.7-1.2-.5-4-.9-5.5,2,0,.3,0,.5.2.7h.3v.2h0Z"/>
      <path class="st9" d="M586.3,42.9c0,1,.6,1.8,1.3,1.8s1.4-.9,1.4-1.8-.6-1.8-1.3-1.8-1.4.9-1.4,1.8Z"/>
      <path class="st9" d="M598.5,42.9c0,1,.6,1.8,1.3,1.8s1.4-.9,1.4-1.8-.6-1.8-1.3-1.8-1.4.9-1.4,1.8Z"/>
      <path class="st7" d="M596.1,49.9c0,1.2-1,2.2-2.2,2.2s-2.2-1-2.2-2.2,1,1.2,2.2,1.2,2.2-2.5,2.2-1.2Z"/>
      <path class="st12" d="M603.9,45.4c1.8,0,3.2,1.3,3.1,2.8s-1.7,2.5-3.4,2.5-3.2-1.3-3.1-2.8,1.7-2.5,3.4-2.5Z"/>
      <path class="st12" d="M583.8,45.4c1.8,0,3.2,1.3,3.1,2.8s-1.7,2.5-3.4,2.5-3.2-1.3-3.1-2.8,1.7-2.5,3.4-2.5Z"/>
      <path class="st9" d="M596.9,57.3c0,1.7-1.3,3-3,3s-3-1.3-3-3,1.3-3,3-3,3,1.3,3,3Z"/>
    </g>
    <path class="st2" d="M610,39.6c0,2.6-1.4,13.5-4.7,16,1.5-6.9,2.3-17.1-.4-20.6-.9-1.2-3.7-3.4-3.5-5.1-4.1,5.3-12.4,6.6-14,6.8-2,.5-4.8.9-6.3,1.4-.5,5.1.4,15,.9,18-1.7-2.5-2.9-5.6-3.4-9.1,0,0-.4-2.7-.3-3.8-1.2.3-2.4.7-3.6.8h-.7c0-.3.2-.7.4-1h0c.2-.4.4-.7.6-1,.2-.6.4-1.2.5-1.9v-.4c.3-1.5.3-2.9.4-4.4.2-3,.5-6,1.9-8.7,3.1-5.8,10-10.2,17-9.9,2.5.1,5,.9,7.1,2.2,4.3,2.7,7.4,7.5,8,12.4v8.2h0Z"/>
  </g>
  <g id="german-woman-laughing">
    <path class="st2" d="M529.4,52.5c-2.7-5.6-6.9-10-9.7-15.5-1.2-2.3-1-22-14-24.5-2.7-.5-5.5-.3-8.3.2-2.6.5-5.2,1-7.4,2.6-2.1,1.5-3.8,3.8-4.8,6.4-1.4,3.3-1.6,7-2.8,10.4-3.4,9-9.9,16.1-12.6,25.3-.2.7-.4,1.4-.6,2.2-.9,4.1.2,8.6,2,12.2,1-2.6.6-5.6,1.9-8.2.7,6.9,1.6,13.4,5.4,19,3.7,5.5,8.3,8.1,13.5,11.4-.4-1-.7-2-.6-3,2,2.2,6,4.4,8.7,3.6,4.1-1.3,7.5-4.2,11.1-6.4,0,1.1-1.4,2.9-2,3.9,4.7-2.7,10.6-7.2,13.2-12.6,2.4-5.1,3-11.5,3.5-17.1,1.7,2.5,2,6,2.9,8.9,2.6-5.3,3-13.3.5-18.7h0Z"/>
    <path class="st11" d="M496.9,76.3h0c1.9,3.4,6.7,3.3,8.4,0h0c.4-.7.5-1.4.5-2.2v-13.1h-9.6v13c0,.8.2,1.6.6,2.4h.1Z"/>
    <path class="st16" d="M520.4,44.8c-.8,1.4-2.1,2.4-3.3,2.6h-1.1c-.3,3.7-1.6,7.1-3.3,9.9-3.3,5.4-8.4,8.7-12.1,8.5h-.9c-4,0-8.6-3-11.8-7.9-1.8-2.7-3.1-6.1-3.6-9.8h-.3c-1.3,0-2.6-1.1-3.5-2.5-.1-.2-.3-.5-.4-.7-.2-.4-.3-.7-.3-1h0c-.3-1.4,0-2.6,1.1-3.1h0c.9-.4,2.1,0,3.1.7.8-11.3,7.3-21.3,15.6-21.5,2.5,0,4.9.7,7.1,2.1,5,3.3,8.6,11.2,9.4,19.2.5-.5,1-.9,1.6-1.2.8-.4,1.5-.4,2.2,0,1.5.6,1.7,2.8.6,4.8h-.1Z"/>
    <g>
      <path class="st9" d="M489.2,39.6c.2,0,.4,0,.5-.3,1.6-3.1,4.4-1.8,4.5-1.7.3,0,.6,0,.8-.3,0-.3,0-.6-.3-.8-1.3-.6-4.3-1-5.9,2.2,0,.3,0,.6.2.8h.3-.1Z"/>
      <path class="st9" d="M510.9,39c-.2,0-.4,0-.5-.3-1.6-3.1-4.4-1.8-4.5-1.7-.3,0-.6,0-.8-.3,0-.3,0-.6.3-.8,1.3-.6,4.3-1,5.9,2.2,0,.3,0,.6-.2.8h-.3.1Z"/>
      <path class="st9" d="M492.5,41.8c0,1.1.7,2,1.4,2s1.5-1,1.5-2-.7-2-1.4-2-1.5,1-1.5,2Z"/>
      <path class="st9" d="M505.8,41.8c0,1.1.7,2,1.4,2s1.5-1,1.5-2-.7-2-1.4-2-1.5,1-1.5,2Z"/>
      <g>
        <path class="st10" d="M506.4,55s0,2.4-1.6,3.9c-.9.9-2.1,1.6-3.9,1.6,0,0-2.7.2-4.3-1.6-.8-.8-1.2-2-1.2-3.9h11.1-.1Z"/>
        <path class="st18" d="M504.7,58.9c-.9.9-2.1,1.6-3.9,1.6,0,0-2.7.2-4.3-1.6,1.6-.8,4.9-1.6,8.2,0h0Z"/>
        <polygon class="st22" points="505.1 55 504.5 56.3 496.7 56.3 496.2 55 505.1 55"/>
      </g>
      <path class="st7" d="M503.2,49.4c0,1.3-1.1,2.4-2.4,2.4s-2.4-1.1-2.4-2.4,1.1,1.3,2.4,1.3,2.4-2.7,2.4-1.3Z"/>
      <path class="st12" d="M511.6,44.6c1.9,0,3.4,1.4,3.3,3.1s-1.8,2.8-3.7,2.7-3.4-1.4-3.3-3.1,1.8-2.8,3.7-2.7h0Z"/>
      <path class="st12" d="M489.8,44.6c1.9,0,3.4,1.4,3.3,3.1s-1.8,2.8-3.7,2.7-3.4-1.4-3.3-3.1,1.8-2.8,3.7-2.7Z"/>
    </g>
    <path class="st2" d="M518.5,37.9c0,2.9-1.5,15.2-5.3,18,1.7-7.8,2.5-19.3-.4-23.2-1-1.4-4.1-3.8-4-5.8-4.6,5.9-14,7.4-15.8,7.7-2.2.6-5.4,1.1-7.1,1.6-.5,5.8.4,16.9,1,20.3-1.9-2.9-3.3-6.3-3.8-10.3-.1,0-.4-3.1-.3-4.3-1.3.4-2.7.8-4.1.9h-.8c0-.3.2-.7.5-1.1h0c.2-.4.5-.8.6-1.2.3-.7.4-1.4.6-2.1v-.4c.3-1.6.4-3.3.5-4.9.3-3.3.5-6.8,2.1-9.8,3.5-6.5,11.3-11.5,19.1-11.1,2.9.1,5.6,1,8,2.5,4.9,3.1,8.3,8.4,9,14v9.1h.2,0Z"/>
    <path class="st3" d="M518.3,41.1c0,2.8-1.5,14.5-5,17.2,1.6-7.4,2.4-18.4-.4-22.1-1-1.3-3.9-3.6-3.8-5.5-4.4,5.7-10.3,9.2-17,11.8-1.6.6-3.1,1.1-4.7,1.6-.5,5.5.3,11.5.9,14.8-1.8-2.7-3.1-6.1-3.7-9.8-.1,0-.4-2.9-.3-4.1-1.3.4-2.6.7-3.9.8h-.8c0-.3.2-.7.5-1.1h0c.2-.4.5-.8.6-1.1.3-.6.4-1.3.6-2v-.4c.3-1.6.4-3.1.5-4.7.2-3.2.5-6.5,2-9.3,3.4-6.2,10.8-11,18.2-10.6,2.7.1,5.4,1,7.6,2.4,4.7,2.9,7.9,8,8.6,13.3v8.7h0Z"/>
  </g>
  <g id="german-woman-back-standing">
    <g>
      <path class="st30" d="M421.5,309.5h-5.6v-74.9c0-4.5,3.2-8.1,7.2-8.1h0c3.6,0,6.6,2.9,7.1,6.8,3,21.9-.3,47.9-8.8,76.2h0Z"/>
      <path class="st2" d="M423.7,310.5l3.7,9.5c.5,1.2-.4,2.5-1.6,2.5h-6.6c-2.2,0-4-1.9-3.9-4.2l.5-16.9,8,.5v8.6h-.1Z"/>
      <path class="st30" d="M423.5,239.7h0c-4.3,0-7.7-3.4-7.9-7.6l-1.8-64.4c0-6.9,5.7-12.6,12.6-12.6h0c6.9,0,12.6,5.7,12.6,12.6,2.2,21.6-1.1,46.3-8,66.7-1.1,3.2-4.1,5.3-7.5,5.3h0Z"/>
    </g>
    <g>
      <path class="st30" d="M402.5,239.9h0c4.3,0,7.7-3.4,7.9-7.6l1.8-64.4c0-6.9-5.7-12.6-12.6-12.6h0c-6.9,0-12.6,5.7-12.6,12.6-2.2,21.6,1.1,46.3,8,66.7,1.1,3.2,4.1,5.3,7.5,5.3h0Z"/>
      <g>
        <path class="st30" d="M404.6,309.7h5.6v-74.9c0-4.5-3.2-8.1-7.2-8.1h0c-3.6,0-6.6,2.9-7.1,6.8-3,21.9.3,47.9,8.8,76.2h0Z"/>
        <path class="st2" d="M402.4,310.4l-3.6,9.5c-.5,1.2.4,2.5,1.6,2.5h6.4c2.2,0,3.9-1.9,3.8-4.2l-.5-16.9-7.9.5v8.6h.2Z"/>
      </g>
    </g>
    <path class="st30" d="M438,166.2l-24.1,14.8-26.8-11.9c1.8-11,7-22.6,10.6-29.8,2.3-4.5,4-7.3,4-7.3h22.8c1.4,2.1,2.6,4.6,3.9,7.3,5.5,11.9,9.6,26.9,9.6,26.9Z"/>
    <path class="st14" d="M444.8,189.6c-1.3-19.5-5.8-37.8-12.5-50.2-2-6.1-2-10.2-2-17.7l7.7-36.7-19.7-8.9h-9.7l-18.8,7.6,5.6,36.6c.4,6.4-.6,11.7-3.1,19.1-6.6,12.2-11,30.2-12.4,49.3h0v.9h1.4c4.8,2.4,22.5,8.9,63.6,0h-.1Z"/>
    <g>
      <path class="st16" d="M450.5,167.5l-5.5,11.6s.7,3.3,5.2-4.1c0,0,3,6.2,2.8,11.1,0,1.1.3,2.2,1.2,3,1.2,1.1,3.2,1.4,5.4-4.2,0,0,2.6-6.3-3.9-14.5l-5.2-2.9h0Z"/>
      <path class="st14" d="M440.3,129.8h0c-3.6.3-6.7-2.2-7-5.5-2.1-12.1-3.3-23.4-3-33.5-.3-3.3,2.4-6.2,5.9-6.5h0c8.3,0,10.1,26,10,39,.3,3.3-2.4,6.2-5.9,6.5Z"/>
      <path class="st14" d="M455.7,171.1l-5.9,1-16-45.6c-1.2-3.4,1-7.1,4.8-7.8h0c3.6-.7,7,1.5,7.7,4.9l9.4,47.6h0Z"/>
    </g>
    <g>
      <path class="st16" d="M374.6,167.8l5.5,11.6s-.7,3.3-5.2-4c0,0-3,6.2-2.8,11.1,0,1.1-.3,2.2-1.2,3-1.2,1.1-3.2,1.4-5.4-4.2,0,0-2.6-6.3,3.9-14.5l5.2-2.9h0Z"/>
      <path class="st14" d="M385.8,129.2h0c3.6.3,6.7-2.2,7-5.5,2.1-12.1,3.3-23.4,3-33.5.3-3.3-2.4-6.2-5.9-6.5h0c-8.3,0-10.1,26-10,39-.3,3.3,2.4,6.2,5.9,6.5Z"/>
      <path class="st14" d="M370.5,170.5l5.9,1,16-45.6c1.2-3.4-1-7.1-4.8-7.8h0c-3.6-.7-7,1.5-7.7,4.9l-9.4,47.6h0Z"/>
    </g>
    <path class="st16" d="M431,48.1c-1-.5-2.4,0-3.4,1.2-.7-7.5-4-14.9-8.5-17.9-1.9-1.3-4.1-2-6.4-2-7.4.2-13.3,9.5-14,20-1-.7-2.1-1-2.9-.6-1.3.7-1.4,2.7-.3,4.5.9,1.4,2.2,2.3,3.4,2.4,1,7.7,5.7,13.6,10.4,15.6v8.7h9v-9.2c4.3-2.5,8.7-8.3,9.3-15.7,1.3.3,3-.7,3.9-2.4,1-1.9.8-3.9-.5-4.5h0Z"/>
    <path class="st2" d="M445.2,65.5c-2.8-5.3-6.9-9.6-9.4-15.2-2.7-6-3.5-11.9-4.8-18.2-1-5.2-3.6-10.4-8.2-13.3-2.1-1.3-4.6-2.1-7.1-2.2-5.8-.3-11.5,2.7-15.1,7.1-3.4,4.1-3.7,9.6-4.7,14.6-.7,3.6-2,7-3.6,10.3-4,7.9-9.9,14.9-12,23.7-.9,3.9.3,8.2,2.2,11.7,1.1-2.5.6-5.3,2.1-7.8.8,6.6,1.7,12.8,5.9,18.2,4,5.2,9,7.7,14.5,11-.4-.9-.7-1.9-.6-2.9,2.2,2.1,6.4,4.2,9.4,3.4,4.4-1.2,8.2-4,12-6.1,0,1-1.5,2.8-2.1,3.7,5.1-2.6,11.5-6.9,14.2-12.1,2.6-4.9,3.2-11,3.8-16.4,1.9,2.4,2.2,5.8,3.1,8.6,2.8-5,3.3-12.8.5-17.9v-.2h0Z"/>
  </g>
  <g id="german-woman-right-standing">
    <g>
      <path class="st2" d="M312.9,312.5s25.4,8.3,19.3,10.3c-.7.2-22.9-.3-23.4-.6-1.2-.7-2-1.9-2.1-3.3v-6.4h6.2Z"/>
      <path class="st30" d="M305.2,236.3h0c-4.8,0-8.7-3.7-8.9-8.3l-2-70.3c0-7.5,6.4-13.7,14.2-13.7h0c7.8,0,14.2,6.2,14.2,13.7,2.4,23.6-1.2,50.5-9,72.9-1.2,3.5-4.6,5.8-8.4,5.8h-.1Z"/>
      <path class="st30" d="M306.6,312.5h6.3v-81.9c0-4.9-3.6-8.8-8.1-8.8h0c-4,0-7.4,3.2-8,7.4-3.4,23.9.3,52.3,9.9,83.3h0Z"/>
    </g>
    <path class="st27" d="M322.4,138c.3,6.1.5,18.6-2.1,27.6l-25.5,6.5h0c-4-7.2-4.5-16-.9-23.4,1.5-3.1,3.7-6.3,6.9-9.4,2.2-2.2,3.6-5.1,3.8-8.1h18.2c-.5,2.2-.7,4.5-.5,6.7h.1Z"/>
    <path class="st2" d="M300.8,60.7c.5-7,1.1-14.6,1.5-21.4.6-10.2-14-13.7-18.3-4.3,0,0-.1.3-.2.4-.8,1.8-1.4,3.7-1.7,5.7h0c-.3.8-.7,1.6-1.1,2.4-4,7.6-12.3,12.6-13.9,21.2-.7,4-.6,8.6.8,12.4,1.1-2.5,1.5-4.7,3.1-6.9-.1,4.8-.2,9.2,2.3,13.5,2.2,3.7,4.4,8.7,7.8,11.6.1-2.6-.6-6.1.4-8.4,2.2,5.7,11.2,12.8,17.9,12.2,13.6-15.9.4-26.1,1.3-38.3h.1Z"/>
    <g>
      <path class="st16" d="M285.7,164.2l6.3,11.5s-.4,3.5-5.3-3.8c0,0-2.2,6.6-1.6,11.5.1,1.1-.1,2.3-.8,3.1-1,1.2-2.9,1.6-5.5-3.9,0,0-3.1-6.2,2.3-15.1l4.6-3.3Z"/>
      <path class="st14" d="M296.4,124.3h0c3.3.3,6.3-2.3,6.6-5.7,1.9-12.5,3.1-24.3,2.8-34.7.3-3.4-2.2-6.4-5.6-6.7h0c-7.8,0-9.5,26.9-9.4,40.4-.3,3.4,2.2,6.4,5.6,6.7Z"/>
      <path class="st14" d="M282,167.1l5.5,1,15-47.2c1.1-3.6-1-7.3-4.5-8.1h0c-3.3-.7-6.6,1.5-7.2,5l-8.8,49.3Z"/>
    </g>
    <rect class="st11" x="296.8" y="62.6" width="9.4" height="19.3"/>
    <g>
      <path class="st13" d="M326.9,115l-3.8,15.6c0,.2-.1.4-.1.7h-18.2c.1-1.5,0-3.1-.4-4.6l-8.1-28.1,1.2-21.9h1.1c4.7.5,9,2.6,12.1,6.1l4.8,5.4c3,3.3,6.5,6.1,10.5,8.1,4.3,2.1,8.9,7.2.9,18.8h0Z"/>
      <path class="st14" d="M324,158.6c-.3,2.6-2.2,4.9-4.9,6l-22.7,8.8-4.4,1.7c-1,.4-2.1-.3-2.2-1.4-.5-5.5-.7-21,9.5-36.4,3.8-5.6,4.8-12.3,2.8-18.5l-7.7-23.6,2.9-19.5h.8s1.7-.3,4.6.6c.9.2,1.8.6,2.8,1.1,6.3,2.9,10.5,8.3,11.7,14.5.4,2.1,6.6,1.5,7.2,4.4.8,4.2.9,50.8-.4,62.4h0Z"/>
    </g>
    <g>
      <path class="st16" d="M322.5,53.6c.1-2.8-.1-6.4-.8-9.2-.3-1.2-.7-2.5-1.1-3.7-1.5-4-3.4-7.9-7-10.4-.9-.6-1.8-1-2.7-1.4-1.3-.5-2.6-.7-4-.7-7.8.2-14,9.9-14.7,20.9,0,0-.2,3.3,0,5.3v.2c.1.7.3,1.3.5,2,.3,1,.6,2.3,1,3.5.3,1.2.7,2.2.9,2.8.1.3.3.7.4,1.1,1.6,5.1,6.4,8.6,11.8,8.4h.5c1.2,0,2.4-.2,3.6-.6,4.5-1.4,8.1-5,9.5-9.7.1-.3.2-.7.3-1,.1-.3.2-.6.3-.9q.3-.8.5-1.6s-.2.5,0,0c.5.3,4.1.4,3.7-.9-.3-.9-1.6-2.1-2.3-3.3l-.4-.9h0Z"/>
      <g>
        <path class="st15" d="M313.9,61.7c.2.2,1.1,3.3,4.6,3.6"/>
        <path class="st9" d="M314.6,48.6c.2,0,.3,0,.5-.2,1.8-2.5,4.1-1.1,4.2-1,.3,0,.5,0,.7-.2,0-.3,0-.5-.2-.7-1.1-.7-3.7-1.3-5.5,1.3v.7h.3Z"/>
        <path class="st9" d="M317.3,50.9c-.1.9.4,1.9,1.1,1.9s1.5-.7,1.6-1.6-.4-1.9-1.1-1.9-1.5.7-1.6,1.6Z"/>
        <path class="st12" d="M311.5,52.8c2,.2,3.4,1.9,3.1,3.6s-2.2,2.6-4.2,2.3-3.4-1.9-3.1-3.6,2.2-2.6,4.2-2.3Z"/>
      </g>
      <path class="st2" d="M326.1,41h0c.1,2.9-3,4.5-5.3,3.4-.6-.3-1.2-.7-1.6-1.4-.7-1.2-1.5-2.7-2.1-4.2-3.5,4.8-4.3,6.4-8,8.5-.5,2.8-3.6,12-1.9,17.1-2.5-2.1-1.8-9.1-1.6-11.9,0-1.4-1.2-2-2.6-1.8h0c-2.4,1.2-2.7,2.1-2.7,5.3s.1.8.3,1.6c.3,1,.9,2.5,3.2,1.6-3.9,12.7-7.3,10.2-8.1,9.8-6.1-2-4.5-.5-11.6-11-.3-.6-10-15.5,4.4-29.5,3.9-3.8,16.1-2.9,21.6-2.6,2.6.1,5.2.9,7.4,2.2,4.5,2.7,7.7,7.5,8.4,12.4v.7l.2-.2h0Z"/>
    </g>
  </g>
  <g id="german-woman-slightright-standing">
    <g>
      <path class="st30" d="M200.3,238.3h0c-4.3,0-7.9-3.5-8-7.9l-1.8-66.7c0-7.2,5.7-13,12.7-13h0c7,0,12.7,5.9,12.7,13,2.2,22.3-1.1,47.9-8.1,69.1-1.1,3.3-4.2,5.5-7.6,5.5h.1Z"/>
      <path class="st30" d="M198.3,310.6h-5.7v-77.6c0-4.6,3.3-8.4,7.3-8.4h0c3.6,0,6.7,3,7.2,7.1,3,22.7-.3,49.6-8.9,78.9h0Z"/>
      <path class="st2" d="M198.3,310.6s22.7,10.5,17.3,12.4c-.6.2-20.4-2.8-21-3.1-1.1-.6-1.8-1.8-1.9-3.1v-6.1h5.6,0Z"/>
    </g>
    <g>
      <path class="st30" d="M182.1,237.4h0c4.3,0,7.9-3.6,8-8l1.8-67.6c0-7.3-5.7-13.2-12.7-13.2h0c-7,0-12.7,5.9-12.7,13.2-2.2,22.6,1.1,48.6,8.1,70,1.1,3.3,4.2,5.6,7.6,5.6h-.1Z"/>
      <path class="st30" d="M184.2,310.7h5.7v-78.7c0-4.7-3.3-8.5-7.3-8.5h0c-3.6,0-6.7,3-7.2,7.2-3,23,.3,50.3,8.9,80h0Z"/>
      <path class="st2" d="M184.2,310.6s-22.7,10.6-17.3,12.6c.6.2,20.4-2.9,21-3.2,1.1-.6,1.8-1.8,1.9-3.2v-6.2h-5.6,0Z"/>
    </g>
    <g>
      <path class="st16" d="M225.5,172.1l-5.8,11.9s.6,3.6,5.3-3.8c0,0,2.8,6.9,2.4,12,0,1.2.3,2.4,1.1,3.3,1.2,1.3,3.1,1.8,5.5-4,0,0,2.8-6.5-3.4-15.8l-5-3.6h-.1Z"/>
      <path class="st14" d="M214.4,132.7h0c-3.6.3-6.8-2.3-7.1-5.7-2.1-12.5-3.3-24.3-3.1-34.7-.3-3.4,2.4-6.4,6-6.7h0c8.5,0,10.3,26.9,10.2,40.4.3,3.4-2.4,6.4-6,6.7h0Z"/>
      <path class="st14" d="M230.1,175.5l-6,1-16.3-47.2c-1.2-3.6,1-7.3,4.9-8.1h0c3.6-.7,7.2,1.5,7.9,5l9.6,49.3h0Z"/>
    </g>
    <g>
      <path class="st16" d="M151.8,172.8l8.5,10.1s.3,3.7-6-2.5c0,0-1,7.4.6,12.3.4,1.1.3,2.4-.2,3.5-.8,1.5-2.6,2.5-6.3-2.5,0,0-4.3-5.6-.6-16.2l4-4.7h0Z"/>
      <path class="st14" d="M164.2,132.7h0c3.6.3,6.8-2.3,7.1-5.7,2.1-12.5,3.3-24.3,3.1-34.7.3-3.4-2.4-6.4-6-6.7h0c-8.5,0-10.3,26.9-10.2,40.4-.3,3.4,2.4,6.4,6,6.7h0Z"/>
      <path class="st14" d="M148.6,175.5l6,1,16.3-47.2c1.2-3.6-1-7.3-4.9-8.1h0c-3.6-.7-7.2,1.5-7.9,5l-9.6,49.3h0Z"/>
    </g>
    <path class="st2" d="M217.2,60.4c-2.7-5-6.9-8.9-9.7-13.8-1.2-2.1-1-19.5-14-21.8-2.7-.5-5.6-.3-8.3.2-2.6.5-5.2.8-7.4,2.3-2.1,1.4-3.8,3.4-4.9,5.6-1.4,2.9-1.6,6.2-2.8,9.2-3.4,8-9.9,14.3-12.6,22.5-.2.6-.4,1.3-.6,1.9-.9,3.6.2,7.6,2,10.8,1-2.3.6-4.9,1.9-7.3.7,6.1,1.6,11.9,5.5,16.9,3.7,4.8,8.4,7.2,13.5,10.2-.4-.9-.7-1.7-.6-2.7,2,1.9,6,3.9,8.7,3.2,4.1-1.2,7.6-3.7,11.1-5.7,0,1-1.4,2.6-2,3.4,4.8-2.4,10.6-6.4,13.2-11.2,2.5-4.6,3-10.2,3.5-15.2,1.7,2.2,2,5.4,2.9,7.9,2.6-4.7,3-11.8.5-16.6v.2h.1Z"/>
    <g>
      <path class="st19" d="M206.6,117.3l-.8,9v1.1c-.3,1.6-.3,3.3-.2,4.9h-24.8v-.9c0-1.8-.6-3.5-1.5-5.1-.2-.4-.5-.8-.8-1.2-11.9-15.6-11.4-38.7-11.4-38.7l18.9-7.6h6.8l18,6.7c4.3,13.1,3.1,23.8-4.1,31.7h0Z"/>
      <path class="st30" d="M212.9,153.4c-3.2,10-21.4,26.2-21.4,26.2-7.4-15.8-24.1-25.8-24.1-25.8,2.2-4.5,7-10.3,10.3-13.9.2-.2.4-.5.6-.7,0,0,0-.1.1-.2.2-.2.4-.5.5-.8h0c.2-.2.3-.5.4-.8,0,0,0-.2.1-.3.1-.2.2-.4.3-.6v-.2c0-.2.2-.4.2-.6.1-.4.3-.9.4-1.4,0-.2,0-.4.1-.6,0-.5,0-1,.1-1.4h24.8c0,.4,0,.9.1,1.3,0,.4,0,.9.2,1.3,0,.4.1.8.2,1.2,0,.4.1.8.2,1.2.2.8.4,1.6.6,2.4,0,.3.2.6.3.9,0,.3.2.7.3,1,.1.4.3.8.5,1.2.2.5.5,1.1.7,1.6l4.2,8.8.3.2h0Z"/>
      <path class="st2" d="M180.4,135h25.4c-.1-.9-.2-1.8-.3-2.7v-6h-26.4l1.2,8.6h.1Z"/>
      <path class="st14" d="M194.7,79s11.6,54.5,8.4,86.2c-.7,7,3.4,13.6,10.2,16.4l4.2,1.8c1,.4,2-.4,1.8-1.4.9-21-4.4-31.7-12-49.7l-.4-15s14-6.8,4.9-31.4l-17.1-6.9h0Z"/>
      <path class="st14" d="M184.1,79.5s14.3,48.1,10.5,85.9c-.6,5.9-5.1,10.9-11.1,12.7l-20.3,5.8c-.8.2-1.7-.4-1.6-1.2.4-16.8,5.4-32.5,15.9-47,.3-4.5,0-5.1-.7-9.2l-6.7-12.5c-1.7-10.7-3-20.5-3.4-27.9l17.5-6.6h0Z"/>
    </g>
    <g>
      <path class="st11" d="M189.3,83.4h.2c2.3,0,4.1-1.9,4.1-4.1v-10.5h-8.4v10.5c0,2.3,1.9,4.1,4.1,4.1h0Z"/>
      <path class="st16" d="M204,58.8c-1.2,4.6-3.7,9.8-7.9,12.6-2.6,1.8-5.9,2-8.9,1.2-1.9-.5-3.6-1.4-5.1-2.7-2-1.7-3.5-4-4.7-6.3-.3-.5-2.4-6.8-2.1-6.8-1.2,0-2.6-.9-3.5-2.3-1.1-1.8-1-3.8.3-4.4.8-.4,1.9-.2,3,.6.6-9.1,5.4-17.4,11.7-19.3.8-.3,1.7-.4,2.6-.4,2.3,0,4.5.7,6.5,2,3.5,2.3,5.4,6,6.8,9.8,2,5.1,2.6,10.7,1.2,16.1h0Z"/>
      <g>
        <path class="st9" d="M183.6,51c.2,0,.4,0,.5-.3,1.6-3,4.3-1.8,4.4-1.7.3,0,.6,0,.7-.3,0-.3,0-.6-.3-.7-1.3-.6-4.2-.9-5.8,2.2,0,.3,0,.6.2.7h.3Z"/>
        <path class="st9" d="M199.9,48.6s.3.2.5,0c2.6-1,3.7,1.2,3.7,1.3,0,.2.4.3.6.2.2,0,.3-.4.2-.6-.5-1.1-2.2-2.9-4.9-1.8-.2,0-.4.4-.3.6v.2h.2Z"/>
        <path class="st9" d="M186.9,53.2c0,1,.7,2,1.4,2s1.5-.9,1.5-2-.7-2-1.4-2-1.5.9-1.5,2Z"/>
        <path class="st9" d="M199.9,53.2c0,1,.7,2,1.4,2s1.5-.9,1.5-2-.7-2-1.4-2-1.5.9-1.5,2Z"/>
        <path class="st15" d="M188.8,64.5c0,.2.7,3,3.6,3.5,2.7.4,4.2-.9,4.4-1.2"/>
        <path class="st7" d="M196.9,58.3c.9.9.9,2.3,0,3.3s-2.3.9-3.3,0,1.7.2,2.6-.7c.9-.9-.2-3.5.7-2.6h0Z"/>
        <path class="st12" d="M204.5,56.1c-.4,1.7-.7,3.2-1.3,4.7-.2.6-.4,1-.7,1.6-.9-.7-1.4-1.9-1.3-3,0-1.7,1.5-3,3.2-3.2h.1Z"/>
        <path class="st12" d="M184.3,55.9c1.9,0,3.4,1.4,3.3,3s-1.8,2.7-3.7,2.6-3.4-1.4-3.3-3,1.8-2.7,3.7-2.6Z"/>
      </g>
      <path class="st2" d="M177,51.1c1.5-.4,3-.9,4.5-1.5,6.4-2.4,12-5.6,16.1-10.8,2.6,6.6,6.9,10.3,6.9,10.3,2.8.5,1.8-7.2,1.8-8.1v-.6c-.6-4.8-3.7-9.5-8.2-12.2-2.2-1.3-4.6-2.1-7.2-2.2-7.1-.4-14,4-17.2,9.7-1.4,2.6-1.7,5.6-1.9,8.5-.1,1.4-.2,2.9-.5,4.3v.4c-.1.6-.3,1.2-.5,1.8-.1.3-.4.7-.6,1h0c-.2.4-.4.7-.4,1h.8c1.2,0,2.5-.4,3.7-.8,0,1,.2,3.7.3,3.7.5,3.4,1.8,6.5,3.5,8.9-.5-3-1.3-8.5-.8-13.5h-.3Z"/>
    </g>
  </g>
  <g id="german-woman-standing">
    <g>
      <path class="st30" d="M82.5,242.3h0c-4.3,0-7.7-3.4-7.9-7.6l-1.8-64.4c0-6.9,5.7-12.6,12.6-12.6h0c6.9,0,12.6,5.7,12.6,12.6,2.2,21.6-1.1,46.3-8,66.7-1.1,3.2-4.1,5.3-7.5,5.3h0Z"/>
      <path class="st30" d="M80.4,312.1h-5.6v-74.9c0-4.5,3.2-8.1,7.2-8.1h0c3.6,0,6.6,2.9,7.1,6.8,3,21.9-.3,47.9-8.8,76.2h.1Z"/>
      <path class="st2" d="M80.4,312s22.4,10.1,17,12c-.6.2-20.1-2.7-20.6-3-1.1-.6-1.8-1.7-1.9-3v-5.9h5.5Z"/>
    </g>
    <g>
      <path class="st30" d="M61.5,242.5h0c4.3,0,7.7-3.4,7.9-7.6l1.8-64.4c0-6.9-5.7-12.6-12.6-12.6h0c-6.9,0-12.6,5.7-12.6,12.6-2.2,21.6,1.1,46.3,8,66.7,1.1,3.2,4.1,5.3,7.5,5.3Z"/>
      <path class="st30" d="M63.5,312.3h5.6v-74.9c0-4.5-3.2-8.1-7.2-8.1h0c-3.6,0-6.6,2.9-7.1,6.8-3,21.9.3,47.9,8.8,76.2h0Z"/>
      <path class="st2" d="M63.5,312.2s-22.4,10.1-17,12c.6.2,20.1-2.7,20.6-3,1.1-.6,1.8-1.7,1.9-3v-5.9h-5.5Z"/>
    </g>
    <path class="st2" d="M100.7,61.4c-2.7-5-6.9-8.9-9.7-13.8-1.2-2.1-1-19.5-14-21.8-2.7-.5-5.6-.3-8.3.2-2.6.5-5.2.8-7.4,2.3-2.1,1.4-3.8,3.4-4.9,5.6-1.4,2.9-1.6,6.2-2.8,9.2-3.4,8-9.9,14.3-12.6,22.5-.2.6-.4,1.3-.6,1.9-.9,3.6.2,7.6,2,10.8,1-2.3.6-4.9,1.9-7.3.7,6.1,1.6,11.9,5.5,16.9,3.7,4.8,8.4,7.2,13.5,10.2-.4-.9-.7-1.7-.6-2.7,2,1.9,6,3.9,8.7,3.2,4.1-1.2,7.6-3.7,11.1-5.7,0,1-1.4,2.6-2,3.4,4.8-2.4,10.6-6.4,13.2-11.2,2.5-4.6,3-10.2,3.5-15.2,1.7,2.2,2,5.4,2.9,7.9,2.6-4.7,3-11.8.5-16.6v.2h.1Z"/>
    <g>
      <path class="st16" d="M111.2,168.6l-6.3,11.1s.4,3.5,5.3-3.4c0,0,2.2,6.9,1.6,11.8,0,1.1,0,2.3.8,3.3,1.1,1.3,2.9,1.9,5.5-3.5,0,0,3.1-6-2.3-15.5l-4.6-3.8h0Z"/>
      <path class="st14" d="M99.9,130.1h0c-3.5.3-6.6-2.2-6.9-5.5-2.1-12.1-3.3-23.4-3-33.5-.3-3.3,2.4-6.2,5.9-6.5h0c8.3,0,10,26,9.9,39,.3,3.3-2.4,6.2-5.9,6.5Z"/>
      <path class="st14" d="M115.2,171.4l-5.9,1-15.8-45.6c-1.2-3.4,1-7.1,4.8-7.8h0c3.5-.7,7,1.5,7.6,4.9l9.3,47.6h0Z"/>
    </g>
    <g>
      <path class="st16" d="M34.8,167.7l6.3,11.1s-.4,3.5-5.3-3.4c0,0-2.3,6.9-1.6,11.8,0,1.1,0,2.3-.9,3.3-1.1,1.3-2.9,1.9-5.5-3.5,0,0-3.1-6.1,2.3-15.5l4.7-3.8h0Z"/>
      <path class="st14" d="M46.5,129.1h0c3.5.3,6.6-2.2,6.9-5.5,2.1-12.1,3.3-23.4,3-33.5.3-3.3-2.4-6.2-5.9-6.5h0c-8.3,0-10,26-9.9,39-.3,3.3,2.4,6.2,5.9,6.5Z"/>
      <path class="st14" d="M31.3,170.4l5.9,1,15.8-45.6c1.2-3.4-1-7.1-4.8-7.8h0c-3.5-.7-7,1.5-7.6,4.9l-9.3,47.6h0Z"/>
    </g>
    <g>
      <path class="st30" d="M97,165.8l-24.1,14.8-26.8-11.9c1.8-11,7-22.6,10.6-29.8,2.3-4.5,4-7.3,4-7.3h22.8c1.3,2.1,2.7,4.6,3.9,7.3,5.5,11.9,9.6,26.9,9.6,26.9Z"/>
      <path class="st19" d="M96.7,84.9l-2.5,12.6c-.3,1.3-.6,2.7-.9,4.1-.3,1.5-.7,2.9-1.2,4.4l-6.2,21.5-.3.9-.9,3.2-.6,2.1h-22.7l-.6-2.1-.9-3.2-.6-2.2-5.6-19.5c-.5-1.7-.9-3.4-1.2-5.2-.3-1.7-.6-3.4-.8-5.1l-1.4-12.6,3.3-1.4,6.4-2.7,8.5-3.6h9.4l4.7,2.2,6.9,3.2,7.1,3.3h0Z"/>
      <path class="st2" d="M60.8,131.6h0l-.9-3.2h26.3l-.9,3.2c1.4,2.1,2.8,4.6,4.2,7.3h-32.9c2.4-4.5,4.3-7.3,4.3-7.3h0Z"/>
      <path class="st14" d="M62.9,78.3l4.5,32.7c2,14.7,2.1,29.6.3,44.3l-1.9,15.5c-1.4,11.2-11.6,19.7-23.7,19.7h-1.8c1.3-19.5,5.7-37.8,12.4-50.2,3.2-5.9,2.8-13.4,3.1-19.1l-7-37.1,14.3-5.7h-.2Z"/>
      <path class="st14" d="M81.9,77.6l-4.5,32.7c-2,14.7-2.1,29.6-.3,44.3l1.9,15.5c1.4,11.2,11.6,19.7,23.7,19.7h1.8c-1.3-19.5-5.7-37.8-12.4-50.2-3.2-5.9-2.9-12.7-3.1-19.1l8.3-35.5-15.5-7.3h0Z"/>
    </g>
    <path class="st11" d="M68.7,81.2h0c1.7,3.2,6.2,3.1,7.8,0h0c.3-.6.5-1.3.5-2.1v-12.2h-9v12.1c0,.8.2,1.5.6,2.2h0Z"/>
    <path class="st16" d="M90.3,52.8c-.7,1.3-1.9,2.2-3,2.5h-1c-.3,3.5-1.4,6.6-3,9.2-3,5-7.6,8.1-11,7.9h-.8c-2.8,0-5.9-1.6-8.5-4.5h0c-.8-.8-1.5-1.8-2.1-2.8-1.6-2.5-2.8-5.6-3.3-9.1h-.3c-1.1,0-2.4-1-3.2-2.3,0-.2-.2-.5-.3-.7,0-.3-.2-.7-.3-1h0c-.3-1.3,0-2.4,1-2.9h0c.8-.4,1.9,0,2.8.6.6-8.4,4.4-16,9.7-18.8,1.4-.8,2.8-1.2,4.4-1.2,2.3,0,4.4.7,6.4,2,4.5,3,7.8,10.4,8.5,17.9.4-.5.9-.9,1.4-1.1.7-.3,1.4-.4,2,0,1.3.6,1.5,2.6.5,4.5h0v-.2Z"/>
    <g>
      <path class="st9" d="M81.8,49.5c-.2,0-.3,0-.4-.2-1.5-2.7-3.9-1.6-4-1.6-.2,0-.5,0-.7-.2,0-.2,0-.5.2-.7,1.2-.5,3.8-.9,5.3,2,0,.2,0,.5-.2.7h-.2Z"/>
      <path class="st9" d="M62,49.5c.2,0,.3,0,.4-.2,1.5-2.7,3.9-1.6,4-1.6.2,0,.5,0,.7-.2,0-.2,0-.5-.2-.7-1.2-.5-3.8-.9-5.3,2,0,.2,0,.5.2.7h.2,0Z"/>
      <path class="st9" d="M65,51.4c0,.9.6,1.8,1.3,1.8s1.4-.9,1.4-1.8-.6-1.8-1.3-1.8-1.4.9-1.4,1.8Z"/>
      <path class="st9" d="M76.9,51.4c0,.9.6,1.8,1.3,1.8s1.4-.9,1.4-1.8-.6-1.8-1.3-1.8-1.4.9-1.4,1.8Z"/>
      <path class="st15" d="M68.2,63.4c.2.2,1.3,2.7,4.3,2.6,2.9,0,4.1-2.3,4.3-2.6"/>
      <path class="st7" d="M74.5,58.3c0,1.2-.9,2.1-2.1,2.1s-2.1-.9-2.1-2.1.9,1.2,2.1,1.2,2.1-2.4,2.1-1.2Z"/>
      <path class="st12" d="M82,54c1.7,0,3.1,1.3,3,2.7s-1.6,2.5-3.4,2.4-3.1-1.3-3-2.7,1.6-2.5,3.4-2.4Z"/>
      <path class="st12" d="M62.5,54c1.7,0,3.1,1.3,3,2.7s-1.6,2.5-3.4,2.4-3.1-1.3-3-2.7,1.6-2.5,3.4-2.4Z"/>
    </g>
    <path class="st2" d="M88.6,48.4c0,2.6-1.4,13.5-4.7,16,1.5-6.9,2.3-17.1-.4-20.6-.9-1.2-3.7-3.4-3.5-5.1-4.1,5.3-12.4,6.6-14,6.8-2,.5-4.8.9-6.3,1.4-.5,5.1.4,15,.9,18-1.7-2.5-2.9-5.6-3.4-9.1,0,0-.4-2.7-.3-3.8-1.2.3-2.4.7-3.6.8h-.7c0-.3.2-.7.4-1h0c.2-.4.4-.7.6-1,.2-.6.4-1.2.5-1.9v-.4c.3-1.5.3-2.9.4-4.4.2-3,.5-6,1.9-8.7,3.1-5.8,10-10.2,17-9.9,2.5.1,5,.9,7.1,2.2,4.3,2.7,7.4,7.5,8,12.4v8.2h0Z"/>
  </g>
  <g id="german-woman-waving">
    <g>
      <path class="st30" d="M96,720.3h0c-4.3,0-7.7-3.4-7.9-7.6l-1.8-64.4c0-6.9,5.7-12.6,12.6-12.6h0c6.9,0,12.6,5.7,12.6,12.6,2.2,21.6-1.1,46.3-8,66.7-1.1,3.2-4.1,5.3-7.5,5.3h0Z"/>
      <path class="st30" d="M93.9,790.1h-5.6v-74.9c0-4.5,3.2-8.1,7.2-8.1h0c3.6,0,6.6,2.9,7.1,6.8,3,21.9-.3,47.9-8.8,76.2h.1Z"/>
      <path class="st2" d="M93.9,790s22.4,10.1,17,12c-.6.2-20.1-2.7-20.6-3-1.1-.6-1.8-1.7-1.9-3v-5.9h5.5Z"/>
    </g>
    <g>
      <path class="st30" d="M75,720.5h0c4.3,0,7.7-3.4,7.9-7.6l1.8-64.4c0-6.9-5.7-12.6-12.6-12.6h0c-6.9,0-12.6,5.7-12.6,12.6-2.2,21.6,1.1,46.3,8,66.7,1.1,3.2,4.1,5.3,7.5,5.3Z"/>
      <path class="st30" d="M77,790.3h5.6v-74.9c0-4.5-3.2-8.1-7.2-8.1h0c-3.6,0-6.6,2.9-7.1,6.8-3,21.9.3,47.9,8.8,76.2h0Z"/>
      <path class="st2" d="M77,790.2s-22.4,10.1-17,12c.6.2,20.1-2.7,20.6-3,1.1-.6,1.8-1.7,1.9-3v-5.9h-5.5Z"/>
    </g>
    <path class="st2" d="M114.2,539.4c-2.7-5-6.9-8.9-9.7-13.8-1.2-2.1-1-19.5-14-21.8-2.7-.5-5.6-.3-8.3.2-2.6.5-5.2.8-7.4,2.3-2.1,1.4-3.8,3.4-4.9,5.6-1.4,2.9-1.6,6.2-2.8,9.2-3.4,8-9.9,14.3-12.6,22.5-.2.6-.4,1.3-.6,1.9-.9,3.6.2,7.6,2,10.8,1-2.3.6-4.9,1.9-7.3.7,6.1,1.6,11.9,5.5,16.9,3.7,4.8,8.4,7.2,13.5,10.2-.4-.9-.7-1.7-.6-2.7,2,1.9,6,3.9,8.7,3.2,4.1-1.2,7.6-3.7,11.1-5.7,0,1-1.4,2.6-2,3.4,4.8-2.4,10.6-6.4,13.2-11.2,2.5-4.6,3-10.2,3.5-15.2,1.7,2.2,2,5.4,2.9,7.9,2.6-4.7,3-11.8.5-16.6v.2h.1Z"/>
    <g>
      <path class="st16" d="M124.7,646.6l-6.3,11.1s.4,3.5,5.3-3.4c0,0,2.2,6.9,1.6,11.8,0,1.1,0,2.3.8,3.3,1.1,1.3,2.9,1.9,5.5-3.5,0,0,3.1-6-2.3-15.5l-4.6-3.8h0Z"/>
      <path class="st14" d="M113.4,608.1h0c-3.5.3-6.6-2.2-6.9-5.5-2.1-12.1-3.3-23.4-3-33.5-.3-3.3,2.4-6.2,5.9-6.5h0c8.3,0,10,26,9.9,39,.3,3.3-2.4,6.2-5.9,6.5Z"/>
      <path class="st14" d="M128.7,649.4l-5.9,1-15.8-45.6c-1.2-3.4,1-7.1,4.8-7.8h0c3.5-.7,7,1.5,7.6,4.9l9.3,47.6h0Z"/>
    </g>
    <g>
      <path class="st16" d="M22.2,544.2l-5.5-12.3s-3.1-1.9-.2,6.7c0,0-6.9-2.2-10.5-5.9-.9-.8-2-1.4-3.1-1.2-1.7.2-3.1,1.3-.2,6.9,0,0,3.2,6.4,13.9,7.5l5.6-1.8h0Z"/>
      <path class="st14" d="M33.6,597.2h0c-2.5-2.7-2.6-7,0-9.5,8.8-9.7,17.6-18.3,26.2-24.7,2.5-2.4,5.1-2,7.6.7l2.1,3.4c5.5,6.9-15.7,22-26.7,30.5-2.5,2.4-6.7,2.1-9.3-.6h0Z"/>
      <path class="st14" d="M16.6,545.9l5.5-1.7,21.1,46.6c1.6,3.5-.1,7.6-3.6,8.8h0c-3.3,1.1-7-.8-8-4.3l-14.9-49.5h0c0,0,0,0,0,0Z"/>
    </g>
    <g>
      <path class="st30" d="M110.5,643.8l-24.1,14.8-26.8-11.9c1.8-11,7-22.6,10.6-29.8,2.3-4.5,4-7.3,4-7.3h22.8c1.3,2.1,2.7,4.6,3.9,7.3,5.5,11.9,9.6,26.9,9.6,26.9Z"/>
      <path class="st19" d="M110.2,562.9l-2.5,12.6c-.3,1.3-.6,2.7-.9,4.1-.3,1.5-.7,2.9-1.2,4.4l-6.2,21.5-.3.9-.9,3.2-.6,2.1h-22.7l-.6-2.1-.9-3.2-.6-2.2-5.6-19.5c-.5-1.7-.9-3.4-1.2-5.2-.3-1.7-.6-3.4-.8-5.1l-1.4-12.6,3.3-1.4,6.4-2.7,8.5-3.6h9.4l4.7,2.2,6.9,3.2,7.1,3.3h0Z"/>
      <path class="st2" d="M74.3,609.6h0l-.9-3.2h26.3l-.9,3.2c1.4,2.1,2.8,4.6,4.2,7.3h-32.9c2.4-4.5,4.3-7.3,4.3-7.3h0Z"/>
      <path class="st14" d="M76.4,556.3l4.5,32.7c2,14.7,2.1,29.6.3,44.3l-1.9,15.5c-1.4,11.2-11.6,19.7-23.7,19.7h-1.8c1.3-19.5,5.7-37.8,12.4-50.2,3.2-5.9,2.8-13.4,3.1-19.1l-7-37.1,14.3-5.7h-.2Z"/>
      <path class="st14" d="M95.4,555.6l-4.5,32.7c-2,14.7-2.1,29.6-.3,44.3l1.9,15.5c1.4,11.2,11.6,19.7,23.7,19.7h1.8c-1.3-19.5-5.7-37.8-12.4-50.2-3.2-5.9-2.9-12.7-3.1-19.1l8.3-35.5-15.5-7.3h0Z"/>
    </g>
    <path class="st11" d="M82.2,559.2h0c1.7,3.2,6.2,3.1,7.8,0h0c.3-.6.5-1.3.5-2.1v-12.2h-9v12.1c0,.8.2,1.5.6,2.2h0Z"/>
    <path class="st16" d="M103.8,530.8c-.7,1.3-1.9,2.2-3,2.5h-1c-.3,3.5-1.4,6.6-3,9.2-3,5-7.6,8.1-11,7.9h-.8c-2.8,0-5.9-1.6-8.5-4.5h0c-.8-.8-1.5-1.8-2.1-2.8-1.6-2.5-2.8-5.6-3.3-9.1h-.3c-1.1,0-2.4-1-3.2-2.3,0-.2-.2-.5-.3-.7,0-.3-.2-.7-.3-1h0c-.3-1.3,0-2.4,1-2.9h0c.8-.4,1.9,0,2.8.6.6-8.4,4.4-16,9.7-18.8,1.4-.8,2.8-1.2,4.4-1.2,2.3,0,4.4.7,6.4,2,4.5,3,7.8,10.4,8.5,17.9.4-.5.9-.9,1.4-1.1.7-.3,1.4-.4,2,0,1.3.6,1.5,2.6.5,4.5h0v-.2Z"/>
    <g>
      <path class="st9" d="M95.3,527.5c-.2,0-.3,0-.4-.2-1.5-2.7-3.9-1.6-4-1.6-.2,0-.5,0-.7-.2,0-.2,0-.5.2-.7,1.2-.5,3.8-.9,5.3,2,0,.2,0,.5-.2.7h-.2Z"/>
      <path class="st9" d="M75.5,527.5c.2,0,.3,0,.4-.2,1.5-2.7,3.9-1.6,4-1.6.2,0,.5,0,.7-.2,0-.2,0-.5-.2-.7-1.2-.5-3.8-.9-5.3,2,0,.2,0,.5.2.7h.2,0Z"/>
      <path class="st9" d="M78.5,529.4c0,.9.6,1.8,1.3,1.8s1.4-.9,1.4-1.8-.6-1.8-1.3-1.8-1.4.9-1.4,1.8Z"/>
      <path class="st9" d="M90.4,529.4c0,.9.6,1.8,1.3,1.8s1.4-.9,1.4-1.8-.6-1.8-1.3-1.8-1.4.9-1.4,1.8Z"/>
      <path class="st15" d="M81.7,541.4c.2.2,1.3,2.7,4.3,2.6,2.9,0,4.1-2.3,4.3-2.6"/>
      <path class="st7" d="M88,536.3c0,1.2-.9,2.1-2.1,2.1s-2.1-.9-2.1-2.1.9,1.2,2.1,1.2,2.1-2.4,2.1-1.2Z"/>
      <path class="st12" d="M95.5,532c1.7,0,3.1,1.3,3,2.7s-1.6,2.5-3.4,2.4-3.1-1.3-3-2.7,1.6-2.5,3.4-2.4Z"/>
      <path class="st12" d="M76,532c1.7,0,3.1,1.3,3,2.7s-1.6,2.5-3.4,2.4-3.1-1.3-3-2.7,1.6-2.5,3.4-2.4Z"/>
    </g>
    <path class="st2" d="M102.1,526.4c0,2.6-1.4,13.5-4.7,16,1.5-6.9,2.3-17.1-.4-20.6-.9-1.2-3.7-3.4-3.5-5.1-4.1,5.3-12.4,6.6-14,6.8-2,.5-4.8.9-6.3,1.4-.5,5.1.4,15,.9,18-1.7-2.5-2.9-5.6-3.4-9.1,0,0-.4-2.7-.3-3.8-1.2.3-2.4.7-3.6.8h-.7c0-.3.2-.7.4-1h0c.2-.4.4-.7.6-1,.2-.6.4-1.2.5-1.9v-.4c.3-1.5.3-2.9.4-4.4.2-3,.5-6,1.9-8.7,3.1-5.8,10-10.2,17-9.9,2.5.1,5,.9,7.1,2.2,4.3,2.7,7.4,7.5,8,12.4v8.2h0Z"/>
  </g>
</svg>