<?xml version="1.0" encoding="UTF-8"?>
<svg id="Layer_2" data-name="Layer 2" xmlns="http://www.w3.org/2000/svg" viewBox="0 0 93.45 248.64">
  <defs>
    <style>
      .cls-1, .cls-2 {
        fill: #603813;
      }

      .cls-3 {
        fill: #273758;
      }

      .cls-4 {
        fill: #e6e6e6;
      }

      .cls-5 {
        fill: #c69696;
      }

      .cls-6 {
        fill: #d9a2a0;
      }

      .cls-2 {
        isolation: isolate;
        opacity: .5;
      }

      .cls-7 {
        fill: #d9b6b6;
      }

      .cls-8 {
        fill: #466e9f;
      }

      .cls-9 {
        fill: #d9baba;
      }

      .cls-10 {
        fill: none;
        stroke: #630;
        stroke-linecap: round;
        stroke-miterlimit: 10;
      }

      .cls-11 {
        fill: #d38a17;
      }
    </style>
  </defs>
  <g id="Layer_1-2" data-name="Layer 1">
    <g id="boy-front">
      <g>
        <path class="cls-7" d="M22.88,98.13h0c.8,1.3,1.1,3,.7,4.6l-7.7,31.3-6.2-3.1,5-30.5c.8-4.7,5.9-6.1,8.3-2.3h-.1Z"/>
        <path class="cls-7" d="M19.78,106.33h0c-3.4.1-5.8-4-4.8-8.1l7.1-25.7c1-4.1,4.4-6.4,7.7-5.3h0c3.7,1.3,5.6,6.7,3.8,11.1l-9.8,23.8c-.8,2.1-2.1,4.1-3.9,4.2h-.1Z"/>
        <path class="cls-4" d="M24.68,67.93c-3.3,3-7.5,9.2-10.7,22.3l12.9,6.4,1.8-5.1c4.2-7.8,7.4-15,6.7-20-.6-4.8-7.1-6.8-10.8-3.5h0q0-.07,0,0l.1-.1Z"/>
        <path class="cls-7" d="M13.58,143.73l2.4-10.3-6.2-3.1v.4c-7.8,3.8-9.2,10.1-9.2,10.1-1.4,6.1,0,6.9,1.5,6.6,1-.2,1.8-1,2.4-2,2.4-4.4,7.7-8.2,7.7-8.2-.8,9,1.5,6.4,1.5,6.4h0l-.1.1Z"/>
      </g>
      <g>
        <path class="cls-7" d="M70.58,98.13h0c-.8,1.3-1.1,3-.7,4.6l7.7,31.3,6.2-3.1-5-30.5c-.8-4.7-5.9-6.1-8.3-2.3h.1Z"/>
        <path class="cls-7" d="M73.68,106.33h0c3.4.1,5.8-4,4.8-8.1l-7.1-25.7c-1-4.1-4.4-6.4-7.7-5.3h0c-3.7,1.3-5.6,6.7-3.8,11.1l9.8,23.8c.8,2.1,2.1,4.1,3.9,4.2h.1Z"/>
        <path class="cls-4" d="M68.78,67.93c3.3,3,7.5,9.2,10.7,22.3l-12.9,6.4-1.8-5.1c-4.2-7.8-7.4-15-6.7-20,.6-4.8,7.1-6.8,10.8-3.5h0q0-.07,0,0l-.1-.1Z"/>
        <path class="cls-7" d="M79.88,143.73l-2.4-10.3,6.2-3.1v.4c7.8,3.8,9.2,10.1,9.2,10.1,1.4,6.1,0,6.9-1.5,6.6-1-.2-1.8-1-2.4-2-2.4-4.4-7.7-8.2-7.7-8.2.8,9-1.5,6.4-1.5,6.4h0v.1h.1Z"/>
      </g>
      <g>
        <path class="cls-7" d="M65.08,199.83c-1.3,18.7-3.9,38.1-4.5,38.1l-5.8-.4-1.8-38.5-1.4-28.9v-1.2c0-.4,0-.8.2-1.2.8-3.1,3.6-5.3,6.9-5,3.7.3,6.4,3.4,6.2,7.1,1.3,5.8,1,17.8.2,30.1h0v-.1h0Z"/>
        <path class="cls-4" d="M63.08,221.53c-1.1,9.5-2.1,16.4-2.5,16.4l-5.8-.4-.8-16h9.1Z"/>
        <path class="cls-3" d="M53.08,243.73c0,1.2.7,2.1,1.6,2.7.6.4,22.7,2.4,23.3,2.2,5-2.4-17.6-11.2-17.6-11.2l-6.1.2s-1.3,4.9-1.1,6.2h0v-.1h-.1Z"/>
        <g>
          <path class="cls-7" d="M65.88,132.13l-.8,27.2-.2,8.2c0,3.8-3.1,6.9-6.9,7.1-4,.2-6.6-2.9-6.9-6.9l-.9-8.4-2.7-25.7v-.8c0-4.8,3.7-8.8,8.5-9.2,5.1-.4,9.6,3.4,10,8.5h-.1Z"/>
          <path class="cls-8" d="M65.88,132.13l.4,26.2c0,.5-.4,1-1,1h-16.7c-.5,0-1-.4-1-1l-.2-24.7v-.8c0-4.8,3.7-8.8,8.5-9.2,5.1-.4,9.6,3.4,10,8.5Z"/>
        </g>
      </g>
      <g>
        <path class="cls-7" d="M26.48,199.83c1.3,18.7,3.9,38.1,4.5,38.1l5.8-.4,1.8-38.5,1.4-28.9v-1.2c0-.4,0-.8-.2-1.2-.8-3.1-3.6-5.3-6.9-5-3.7.3-6.5,3.4-6.2,7.1-1.3,5.8-1,17.8-.2,30.1h0v-.1h0Z"/>
        <path class="cls-4" d="M37.48,221.53l-.8,16-5.8.4c-.4,0-1.4-6.9-2.5-16.4h9.1Z"/>
        <path class="cls-3" d="M38.18,243.73c0,1.2-.7,2.1-1.6,2.7-.6.4-22.7,2.4-23.3,2.2-5-2.4,17.6-11.2,17.6-11.2l6.1.2s1.3,4.9,1.1,6.2h0c0-.07,0-.1,0-.1h.1Z"/>
        <g>
          <path class="cls-7" d="M43.98,132.93v.7l-2.4,25.8-.8,8.3c-.3,4-2.9,7.1-6.9,7-3.8-.2-6.8-3.2-7-7l-.3-8.2-1.1-27.1c.4-5.1,4.8-8.9,9.9-8.6,4.9.3,8.6,4.4,8.6,9.2h0q0-.07,0,0v-.1Z"/>
          <path class="cls-8" d="M43.98,132.93v.7l-.8,24.9c0,.5-.4.9-.9.9h-16.3c-.5,0-.9-.4-.9-.9l.4-26.2c.4-5.1,4.8-8.9,9.9-8.6,4.9.3,8.6,4.4,8.6,9.2h0Z"/>
        </g>
      </g>
      <path class="cls-4" d="M67.28,66.83l-1.1,6.5-4.1,25c-1,3.9-1.2,7.9-.6,11.8h-31.4c1.5-4.5,1.9-9.2,1.1-13.9l-3.9-22.6-1.2-6.7,1.2-.7,15.7-9.9h9.1l14.2,9.8,1.1.7h-.1Z"/>
      <path class="cls-8" d="M65.78,134.83l-17.5,7.5h-5.2l-17.5-7.3c-.5-5,.3-12.6,1.7-17.5.4-1.4.9-2.8,1.4-4,.5-1.1,1-2.2,1.3-3.4h31.4c.3,1.8.7,3.7,1.3,5.4.7,2.1,1.4,4.7,1.8,7.8.5,3,1.6,7.6,1.1,11.5,0,0,.2,0,.2,0Z"/>
      <path class="cls-8" d="M55.58,58.73h0c-2.4,8-13.6,8.3-16.5.5v-.3l4.1-2.6h9.1l3.5,2.4h-.2Z"/>
      <g>
        <path class="cls-5" d="M47.58,60.03h0c-2.5,0-4.5-2-4.5-4.5v-6.7h9.1v6.7c0,2.5-2,4.5-4.5,4.5h-.1Z"/>
        <path class="cls-9" d="M69.48,30.53c-.9,1.5-2.3,2.5-3.7,2.8h-1.2c-.4,3.9-1.8,7.5-3.8,10.4-3.8,5.7-9.5,9.1-13.7,8.9h-1c-4.5,0-9.7-3.1-13.3-8.3-2-2.9-3.5-6.4-4.1-10.3h-.3c-1.4,0-2.9-1.1-3.9-2.6-.2-.3-.3-.5-.4-.8-.2-.4-.3-.7-.4-1.1h0c-.3-1.5,0-2.7,1.2-3.2h0c1-.4,2.3,0,3.5.7.9-11.9,8.3-22.4,17.5-22.6,2.8,0,5.5.8,7.9,2.3,2.3,1.4,4.3,3.6,6,6.3h0c2.4,3.9,4.1,8.9,4.6,13.9h0c.5-.5,1.1-.9,1.7-1.1.8-.4,1.7-.4,2.4,0,1.6.7,1.9,2.9.6,5.1l.4-.3v-.1Z"/>
        <g>
          <path class="cls-1" d="M35.18,25.93c.2,0,.4,0,.5-.3,1.7-3.2,4.6-1.9,4.7-1.8.3,0,.6,0,.8-.3,0-.3,0-.6-.3-.8-1.4-.6-4.5-1-6.2,2.3,0,.3,0,.6.2.8h.3v.1Z"/>
          <path class="cls-1" d="M52.58,23.33s.3.2.5,0c2.8-1.1,4,1.3,4,1.4,0,.2.4.3.6.2.2,0,.3-.4.2-.6-.5-1.2-2.3-3.1-5.2-1.9-.2,0-.4.4-.3.6v.2h.2v.1Z"/>
          <path class="cls-1" d="M38.68,28.23c0,1.1.7,2.1,1.5,2.1s1.6-1,1.6-2.1-.7-2.1-1.5-2.1-1.6,1-1.6,2.1Z"/>
          <path class="cls-1" d="M52.58,28.23c0,1.1.7,2.1,1.5,2.1s1.6-1,1.6-2.1-.7-2.1-1.5-2.1-1.6,1-1.6,2.1Z"/>
          <path class="cls-10" d="M42.38,42.23c.2.2,1.5,3.1,5,3,3.4,0,4.8-2.7,5-3"/>
          <path class="cls-2" d="M49.88,36.23c0,1.4-1.1,2.5-2.5,2.5s-2.5-1.1-2.5-2.5,1.1,1.4,2.5,1.4,2.5-2.8,2.5-1.4Z"/>
          <path class="cls-6" d="M58.68,31.23c2,0,3.6,1.5,3.5,3.2s-1.9,2.9-3.9,2.8-3.6-1.5-3.5-3.2,1.9-2.9,3.9-2.8Z"/>
          <path class="cls-6" d="M35.88,31.23c2,0,3.6,1.5,3.5,3.2s-1.9,2.9-3.9,2.8-3.6-1.5-3.5-3.2,1.9-2.9,3.9-2.8Z"/>
        </g>
        <path class="cls-11" d="M66.98,14.73c-1.6-5.4-4.8-10.1-10.1-12.7C52.58-.07,38.28-3.47,30.38,9.43c-3.2,5.2-3.9,11.8-3.9,17.8s.9,10.3,4.1,14.4c.5.6,1.1,1.2,1.7,1.7,0,0-.7-3.6-1.2-5.1-1.6-5.3-1.4-11.5.3-16.8.3-.8.6-1.5.9-2.3,0-.4,1.1-2.2,1-2.5,1.7,4.1,7.3,5.7,11.3,6.4-.7-1.1-1.8-1.7-2.5-2.9-.7-1.2-1.1-2.5-1.5-3.7,4.8,1.8,9.8,5.2,15.3,4.9-1.2-1.2-4.4-3.6-4.3-5.6,1.2,1.7,3.3,2.2,5.2,2.9,1.2.4,2.5.7,3.7,1.1,1,.3,1,.2,1.3,1.1,1.8,6,2.6,13.2,1.2,19.4.3-1.5,2.8-4.4,3.3-5.8.6-1.7,1.1-3.4,1.5-5.2.7-3.5.7-7.2.2-10.7-.2-1.3-.5-2.6-.8-3.8,0,0-.2,0-.2,0Z"/>
      </g>
    </g>
  </g>
</svg>