<?xml version="1.0" encoding="UTF-8"?>
<svg id="Layer_2" data-name="Layer 2" xmlns="http://www.w3.org/2000/svg" viewBox="0 0 75.54 278.02">
  <defs>
    <style>
      .cls-1, .cls-2 {
        fill: #603813;
      }

      .cls-3 {
        fill: #273758;
      }

      .cls-4 {
        fill: #e6e6e6;
      }

      .cls-5 {
        fill: #c69696;
      }

      .cls-6 {
        fill: #d9a2a0;
      }

      .cls-7, .cls-2 {
        isolation: isolate;
        opacity: .5;
      }

      .cls-7, .cls-8 {
        fill: #d9baba;
      }

      .cls-9 {
        fill: #d9b6b6;
      }

      .cls-10 {
        fill: #466e9f;
      }

      .cls-11 {
        fill: none;
        stroke: #630;
        stroke-linecap: round;
        stroke-miterlimit: 10;
      }

      .cls-12 {
        fill: #d38a17;
      }
    </style>
  </defs>
  <g id="Layer_1-2" data-name="Layer 1">
    <g id="german-boy-right-pointing">
      <g>
        <path class="cls-9" d="M44.87,102.08h0c-1.01,1.46-1.58,3.26-1.35,5.07l4.84,36.02,7.32-2.7-1.8-34.78c-.23-5.29-5.97-7.54-9.01-3.6h0Z"/>
        <path class="cls-9" d="M47.35,111.53h0c3.83.56,6.98-3.83,6.42-8.44l-4.84-29.72c-.68-4.73-4.17-7.65-7.88-6.75h0c-4.28,1.01-7.09,6.75-5.63,11.93l7.99,27.81c.68,2.36,1.8,4.95,3.83,5.18h.11,0Z"/>
        <path class="cls-4" d="M46.56,68.08c3.38,3.71,7.43,11.14,9.23,26.23l-15.2,5.52-1.35-5.85c-3.71-9.23-6.53-17.67-5.18-23.3,1.35-5.29,8.78-6.75,12.5-2.59h0Z"/>
        <path class="cls-9" d="M49.82,154.31l-1.35-11.82,7.32-2.7v.45c8.22,5.18,9.12,12.5,9.12,12.5.9,6.98-.9,7.77-2.48,7.2-1.13-.34-2.03-1.35-2.36-2.48-2.14-5.18-7.65-10.02-7.65-10.02-.23,10.13-2.36,6.98-2.36,6.98h-.23v-.11h0Z"/>
      </g>
      <path class="cls-4" d="M49.26,120.99c-.9-9.12-1.46-18.35-1.91-27.47l-.45-10.36c-.34-7.09-1.91-18.69-11.26-18.01-2.81-1.35-5.97-3.71-5.97-3.71l-10.24-.34-2.81,2.59-7.65,3.94c-2.81,2.59-2.36,8.22-1.69,11.93l5.97,33.43c.34,2.03.56,4.05.68,6.19.34,0,.68.23.9.45,11.48,4.28,22.85,4.84,34.11,1.46h.34v-.11h0Z"/>
      <g>
        <g>
          <path class="cls-9" d="M32.6,222.75c-1.35,21.05-4.17,42.89-4.84,42.89l-6.53-.45-2.25-43.34-1.69-32.53v-1.35c0-.45,0-.9.23-1.35.79-3.49,4.05-5.97,7.77-5.74,3.71.23,6.75,3.26,6.98,6.87,0,1.01.23,1.91.34,2.93,1.13,6.98.79,19.36,0,32.08h0Z"/>
          <path class="cls-4" d="M30.57,245.94c-1.24,11.37-2.48,19.81-2.93,19.81h-6.42l-1.01-19.81h10.36Z"/>
        </g>
        <path class="cls-3" d="M19.99,273.52c0,.68.45,1.8,1.01,2.7.56,1.13,1.69,1.8,2.93,1.8h24.32c5.52-2.93-20.49-12.27-20.49-12.27h-6.42s-1.46,6.53-1.24,7.88h-.11v-.11h0Z"/>
        <g>
          <path class="cls-9" d="M24.95,195.4h0c4.28-.45,7.43-4.05,7.32-8.44l-.9-39.74c-.79-5.74-5.97-9.68-11.71-8.89h0c-5.74.79-9.68,5.97-8.89,11.71l5.97,38.05c.56,4.39,3.83,7.77,8.22,7.32h0Z"/>
          <path class="cls-10" d="M33.16,183.58l-21.61.56-.9-36.02c-.11-5.74,4.39-10.58,10.24-10.69h.56c5.74-.11,10.58,4.39,10.69,10.13l.9,36.02h.11,0Z"/>
        </g>
      </g>
      <g>
        <g>
          <path class="cls-9" d="M52.64,222.75c-1.35,21.05-4.17,42.89-4.84,42.89l-6.53-.45-2.25-43.34-1.69-32.53v-1.35c0-.45,0-.9.23-1.35.79-3.49,4.05-5.97,7.77-5.74s6.75,3.26,6.98,6.87c0,1.01.23,1.91.34,2.93,1.13,6.98.79,19.36,0,32.08h0Z"/>
          <path class="cls-4" d="M50.72,245.94c-1.24,11.37-2.48,19.81-2.81,19.81h-6.42l-1.01-19.81h10.36-.11Z"/>
        </g>
        <path class="cls-3" d="M40.14,273.52c0,.68.45,1.8,1.01,2.7.56,1.13,1.69,1.8,2.93,1.8h24.32c5.52-2.93-20.49-12.27-20.49-12.27h-6.42s-1.46,6.53-1.24,7.88h-.11v-.11h0Z"/>
        <g>
          <path class="cls-9" d="M45.1,195.4h0c4.28-.45,7.43-4.05,7.32-8.44l-.9-39.74c-.79-5.74-5.97-9.68-11.71-8.89h0c-5.74.79-9.68,5.97-8.89,11.71l5.97,38.05c.56,4.39,3.83,7.77,8.22,7.32h0Z"/>
          <path class="cls-10" d="M57.14,180.31l-21.28,2.93-4.95-35.46c-.79-5.85,3.26-11.26,9.12-12.16h0c5.85-.79,11.26,3.26,12.16,9.12l4.95,35.46h0q0,.08,0,0v.11Z"/>
        </g>
      </g>
      <path class="cls-10" d="M51.18,151.94v-4.62c.11-.9,0,0,.11-.23v-11.14c-.34-2.59-.68-5.18-1.13-7.65-.11-1.69-.34-3.38-.45-4.95,0-.68-.23-1.35-.23-2.03-11.37,3.49-23.64,2.59-35.12-1.8v1.69c.23,4.95-.45,9.91-1.91,14.63-.9,2.7-1.46,5.74-1.8,8.56-.68,7.65,1.01,13.4,1.01,13.4h0l20.15,7.65,1.01.34h.45c0,.11,18.01-7.43,18.01-7.43,0-1.69.23-3.26.34-4.84v-1.46h-.79.34q0-.08,0,0v-.11Z"/>
      <g>
        <path class="cls-9" d="M16.23,113.57h0c-3.44,1.92-7.9,4.96-9.02-5.67l-5.67-29.27c-1.11-4.56,1.32-8.61,5.27-9.22h0c4.56-.61,9.12,3.75,9.52,9.22l1.72,28.77c.2,2.53-.1,5.37-2.03,6.28h.2v-.1h0Z"/>
        <path class="cls-4" d="M2.45,72.45c-2.13,4.46-3.85,12.46-.81,26.34l17.32-.71-.51-5.67c.81-9.42.81-17.73-2.43-22.08-2.94-4.15-11.04-2.73-13.37,2.23h-.2v-.1h0Z"/>
        <path id="hand61" class="cls-8" d="M61.71,120.16l12.76,6.58c.91.51,1.32,1.42.91,2.23h0c-.41.81-1.42,1.01-2.33.61l-9.02-4.56s1.82,2.94-1.72,3.65c0,0,1.32,4.56-3.44,2.94l-12.05-8,3.34-6.58s15.4-1.01,15.6,1.22c0,0,1.42.71-4.15,2.03h.1v-.1Z"/>
        <path class="cls-9" d="M26.68,119.68l-13.59-2.66c-5.17-1.01-6.48-6.79-2.23-9.32h0v.1h0c1.52-.91,3.34-1.01,5.17-.61l34.34,9.52-3.65,6.89-20.04-3.92"/>
      </g>
      <path class="cls-10" d="M33.95,67.07c0,4.5-4.84,7.54-9.01,5.52-4.17-1.91-6.87-5.85-8.33-9.01l2.81-2.59,10.24.34s1.8,1.24,4.17,3.04c.23.9.11,1.8.23,2.59h-.11v.11Z"/>
      <g>
        <path class="cls-12" d="M35.87,8.64c-.9-2.48-2.36-4.84-4.17-6.53.23-.23.34-.56.56-.79-1.01-.45-2.36-.9-3.49-.9-5.97-.23-11.82,2.7-15.76,7.09-3.38,3.6-5.74,8.11-7.09,12.95-3.26,10.58-2.36,24.88,8.56,30.51,2.93,1.46,6.64,2.93,9.79,2.25,3.26-.68,5.74-3.26,7.32-6.3,2.93-5.63,4.73-12.61,5.74-18.8.9-6.42.9-13.28-1.46-19.47h0Z"/>
        <path class="cls-5" d="M25.85,65.26h0c-3.6-.11-6.3-3.15-6.19-6.64l.45-12.5,10.24.34-.56,15.2c0,2.03-1.8,3.6-3.83,3.6h-.11Z"/>
        <path class="cls-8" d="M49.49,30.25c0,1.24,0,2.48-.23,3.6,0,.79-.11,1.58-.34,2.25-.45,2.03-.79,3.83-1.58,5.63-.23.68-.45,1.24-.79,1.91-3.6,8.22-10.02,13.62-17.34,13.51-3.49,0-6.75-1.46-9.57-3.83-.68-.45-1.24-1.01-1.8-1.69-4.73-5.18-7.77-13.17-7.43-22.29.45-15.08,9.34-27.02,20.15-26.79,1.58,0,3.15.34,4.62.9,8.44,3.15,14.52,14.07,14.18,26.9h.11v-.11Z"/>
        <g>
          <path class="cls-1" d="M23.82,30.03c.23,0,.45,0,.56-.34,1.91-3.6,5.18-2.14,5.29-2.03.34,0,.68,0,.9-.34,0-.34,0-.68-.34-.9-1.58-.68-5.07-1.13-6.98,2.59,0,.34,0,.68.23.9h.34v.11Z"/>
          <path class="cls-1" d="M43.41,27.1s.34.23.56,0c3.15-1.24,4.5,1.46,4.5,1.58,0,.23.45.34.68.23.23,0,.34-.45.23-.68-.56-1.35-2.59-3.49-5.85-2.14-.23,0-.45.45-.34.68v.23h.23s0,.04,0,.11h0Z"/>
          <path class="cls-1" d="M27.76,32.62c0,1.24.79,2.36,1.69,2.36s1.8-1.13,1.8-2.36-.79-2.36-1.69-2.36-1.8,1.13-1.8,2.36Z"/>
          <path class="cls-1" d="M43.41,32.62c0,1.24.79,2.36,1.69,2.36s1.8-1.13,1.8-2.36-.79-2.36-1.69-2.36-1.8,1.13-1.8,2.36Z"/>
          <path class="cls-11" d="M30.12,46.35c0,.23.9,3.6,4.28,4.17,3.26.45,5.07-1.13,5.29-1.46"/>
          <path class="cls-2" d="M39.81,38.92c1.13,1.13,1.13,2.81,0,3.94s-2.81,1.13-3.94,0,2.03.23,3.15-.79c1.13-1.13-.23-4.17.9-3.15h-.11,0Z"/>
          <path class="cls-6" d="M48.92,36.22c-.45,2.03-.79,3.83-1.58,5.63-.23.68-.45,1.24-.79,1.91-1.13-.79-1.69-2.25-1.58-3.6,0-2.03,1.8-3.6,3.83-3.83h.11v-.11Z"/>
          <path class="cls-6" d="M24.61,36c2.25,0,4.05,1.69,3.94,3.6s-2.14,3.26-4.39,3.15-4.05-1.69-3.94-3.6,2.14-3.26,4.39-3.15Z"/>
        </g>
        <path class="cls-7" d="M20.11,53.22h-.23c-.68-.45-1.24-1.01-1.8-1.69-4.73-5.18-7.77-13.17-7.43-22.18.45-15.08,9.34-27.02,20.15-26.79,1.58,0,3.15.34,4.62.9-8.56,6.3-23.75,23.3-15.31,49.87h0v-.11h0Z"/>
        <g>
          <path class="cls-12" d="M12.11,31.49l-2.81-6.19-2.81,4.5,1.13,13.51,9.23,6.75c-5.07-10.24-4.28-15.76-4.5-18.01v-.68h-.23v.11Z"/>
          <path class="cls-12" d="M54.78,16.41c-1.01-3.26-3.15-6.08-5.63-8.44-1.69-1.46-3.49-2.7-5.4-3.83-1.01-.79-2.03-1.46-3.04-2.03C36.2-.03,22.58-3.63,13.91,9.65c-3.6,5.29-4.17,8.56-4.5,14.86,0,0,3.83-.23,4.62,2.48,1.46,4.5-3.71,5.63,2.36,17.11.45.68,1.13,1.24,1.69,1.91,0,0-.68-3.71-1.01-5.29-1.46-5.52-1.01-11.93.9-17.45.23-.79.56-1.58,1.01-2.36.11-.45,1.24-2.25,1.13-2.59,1.69,4.39,7.43,6.19,11.59,7.09-.79-1.13-1.8-1.91-2.48-3.15s-1.01-2.59-1.46-3.83c4.95,2.14,10.02,5.74,15.65,5.63-1.24-1.24-4.5-3.94-4.28-5.97,1.13,1.69,3.38,2.36,5.29,3.26,1.24.45,2.59.9,3.83,1.24,1.69,6.3,1.01,15.76-1.58,21.16,2.36-2.7,4.39-10.02,4.73-17.79.34-7.77,1.01-2.81,2.25-3.6h0c.9-.56,1.46-1.69,1.58-2.7,0-1.01,0-2.14-.45-3.15h0v-.11Z"/>
        </g>
        <g>
          <path class="cls-8" d="M13.8,26.54c1.13,3.38.34,6.64-1.8,7.32s-4.73-1.46-5.85-4.95-.34-6.64,1.8-7.32c2.03-.68,4.73,1.46,5.85,4.95Z"/>
          <path class="cls-7" d="M13.8,26.54c1.13,3.38.34,6.64-1.8,7.32s-4.73-1.46-5.85-4.95-.34-6.64,1.8-7.32c2.03-.68,4.73,1.46,5.85,4.95Z"/>
        </g>
      </g>
    </g>
  </g>
</svg>