<?xml version="1.0" encoding="UTF-8"?>
<svg id="Layer_2" data-name="Layer 2" xmlns="http://www.w3.org/2000/svg" viewBox="0 0 75.54 279.5">
  <defs>
    <style>
      .cls-1, .cls-2 {
        fill: #603813;
      }

      .cls-3 {
        fill: #273758;
      }

      .cls-4 {
        fill: #e6e6e6;
      }

      .cls-5 {
        fill: #c69696;
      }

      .cls-6 {
        fill: #d9a2a0;
      }

      .cls-7, .cls-2 {
        isolation: isolate;
        opacity: .5;
      }

      .cls-7, .cls-8 {
        fill: #d9baba;
      }

      .cls-9 {
        fill: #d9b6b6;
      }

      .cls-10 {
        fill: #466e9f;
      }

      .cls-11 {
        fill: none;
        stroke: #630;
        stroke-linecap: round;
        stroke-miterlimit: 10;
      }

      .cls-12 {
        fill: #d38a17;
      }
    </style>
  </defs>
  <g id="Layer_1-2" data-name="Layer 1">
    <g id="german-boy-left-pointing">
      <g>
        <path class="cls-9" d="M30.67,103.55h0c1.01,1.46,1.58,3.26,1.35,5.07l-4.84,36.02-7.32-2.7,1.8-34.78c.23-5.29,5.97-7.54,9.01-3.6h0Z"/>
        <path class="cls-9" d="M28.19,113.01h0c-3.83.56-6.98-3.83-6.42-8.44l4.84-29.72c.68-4.73,4.17-7.65,7.88-6.75h0c4.28,1.01,7.09,6.75,5.63,11.93l-7.99,27.81c-.68,2.36-1.8,4.95-3.83,5.18h-.11,0Z"/>
        <path class="cls-4" d="M28.98,69.56c-3.38,3.71-7.43,11.14-9.23,26.23l15.2,5.52,1.35-5.85c3.71-9.23,6.53-17.67,5.18-23.3-1.35-5.29-8.78-6.75-12.5-2.59h0Z"/>
        <path class="cls-9" d="M25.72,155.79l1.35-11.82-7.32-2.7v.45c-8.22,5.18-9.12,12.5-9.12,12.5-.9,6.98.9,7.77,2.48,7.2,1.13-.34,2.03-1.35,2.36-2.48,2.14-5.18,7.65-10.02,7.65-10.02.23,10.13,2.36,6.98,2.36,6.98h.23v-.11h0Z"/>
      </g>
      <path class="cls-4" d="M26.28,122.47c.9-9.12,1.46-18.35,1.91-27.47l.45-10.36c.34-7.09,1.91-18.69,11.26-18.01,2.81-1.35,5.97-3.71,5.97-3.71l10.24-.34,2.81,2.59,7.65,3.94c2.81,2.59,2.36,8.22,1.69,11.93l-5.97,33.43c-.34,2.03-.56,4.05-.68,6.19-.34,0-.68.23-.9.45-11.48,4.28-22.85,4.84-34.11,1.46h-.34v-.11h0Z"/>
      <g>
        <g>
          <path class="cls-9" d="M42.94,224.23c1.35,21.05,4.17,42.89,4.84,42.89l6.53-.45,2.25-43.34,1.69-32.53v-1.35c0-.45,0-.9-.23-1.35-.79-3.49-4.05-5.97-7.77-5.74-3.71.23-6.75,3.26-6.98,6.87,0,1.01-.23,1.91-.34,2.93-1.13,6.98-.79,19.36,0,32.08h0Z"/>
          <path class="cls-4" d="M44.96,247.42c1.24,11.37,2.48,19.81,2.93,19.81h6.42l1.01-19.81h-10.36Z"/>
        </g>
        <path class="cls-3" d="M55.55,275c0,.68-.45,1.8-1.01,2.7-.56,1.13-1.69,1.8-2.93,1.8h-24.32c-5.52-2.93,20.49-12.27,20.49-12.27h6.42s1.46,6.53,1.24,7.88h.11v-.11h0Z"/>
        <g>
          <path class="cls-9" d="M50.59,196.87h0c-4.28-.45-7.43-4.05-7.32-8.44l.9-39.74c.79-5.74,5.97-9.68,11.71-8.89h0c5.74.79,9.68,5.97,8.89,11.71l-5.97,38.05c-.56,4.39-3.83,7.77-8.22,7.32h0Z"/>
          <path class="cls-10" d="M42.38,185.06l21.61.56.9-36.02c.11-5.74-4.39-10.58-10.24-10.69h-.56c-5.74-.11-10.58,4.39-10.69,10.13l-.9,36.02h-.11,0Z"/>
        </g>
      </g>
      <g>
        <g>
          <path class="cls-9" d="M22.9,224.23c1.35,21.05,4.17,42.89,4.84,42.89l6.53-.45,2.25-43.34,1.69-32.53v-1.35c0-.45,0-.9-.23-1.35-.79-3.49-4.05-5.97-7.77-5.74s-6.75,3.26-6.98,6.87c0,1.01-.23,1.91-.34,2.93-1.13,6.98-.79,19.36,0,32.08h0Z"/>
          <path class="cls-4" d="M24.81,247.42c1.24,11.37,2.48,19.81,2.81,19.81h6.42l1.01-19.81h-10.36.11Z"/>
        </g>
        <path class="cls-3" d="M35.4,275c0,.68-.45,1.8-1.01,2.7-.56,1.13-1.69,1.8-2.93,1.8H7.14c-5.52-2.93,20.49-12.27,20.49-12.27h6.42s1.46,6.53,1.24,7.88h.11v-.11h0Z"/>
        <g>
          <path class="cls-9" d="M30.44,196.87h0c-4.28-.45-7.43-4.05-7.32-8.44l.9-39.74c.79-5.74,5.97-9.68,11.71-8.89h0c5.74.79,9.68,5.97,8.89,11.71l-5.97,38.05c-.56,4.39-3.83,7.77-8.22,7.32h0Z"/>
          <path class="cls-10" d="M18.4,181.79l21.28,2.93,4.95-35.46c.79-5.85-3.26-11.26-9.12-12.16h0c-5.85-.79-11.26,3.26-12.16,9.12l-4.95,35.46h0q0,.08,0,0v.11Z"/>
        </g>
      </g>
      <path class="cls-10" d="M24.36,153.42v-4.62c-.11-.9,0,0-.11-.23v-11.14c.34-2.59.68-5.18,1.13-7.65.11-1.69.34-3.38.45-4.95,0-.68.23-1.35.23-2.03,11.37,3.49,23.64,2.59,35.12-1.8v1.69c-.23,4.95.45,9.91,1.91,14.63.9,2.7,1.46,5.74,1.8,8.56.68,7.65-1.01,13.4-1.01,13.4h0l-20.15,7.65-1.01.34h-.45c0,.11-18.01-7.43-18.01-7.43,0-1.69-.23-3.26-.34-4.84v-1.46h.79-.34q0-.08,0,0v-.11Z"/>
      <g>
        <path class="cls-9" d="M59.31,115.05h0c3.44,1.92,7.9,4.96,9.02-5.67l5.67-29.27c1.11-4.56-1.32-8.61-5.27-9.22h0c-4.56-.61-9.12,3.75-9.52,9.22l-1.72,28.77c-.2,2.53.1,5.37,2.03,6.28h-.2v-.1h0Z"/>
        <path class="cls-4" d="M73.09,73.93c2.13,4.46,3.85,12.46.81,26.34l-17.32-.71.51-5.67c-.81-9.42-.81-17.73,2.43-22.08,2.94-4.15,11.04-2.73,13.37,2.23h.2v-.1h0Z"/>
        <path id="hand61" class="cls-8" d="M13.83,121.64l-12.76,6.58c-.91.51-1.32,1.42-.91,2.23H.16c.41.81,1.42,1.01,2.33.61l9.02-4.56s-1.82,2.94,1.72,3.65c0,0-1.32,4.56,3.44,2.94l12.05-8-3.34-6.58s-15.4-1.01-15.6,1.22c0,0-1.42.71,4.15,2.03h-.1v-.1Z"/>
        <path class="cls-9" d="M48.86,121.16l13.59-2.66c5.17-1.01,6.48-6.79,2.23-9.32h0v.1h0c-1.52-.91-3.34-1.01-5.17-.61l-34.34,9.52,3.65,6.89,20.04-3.92"/>
      </g>
      <path class="cls-10" d="M41.59,68.54c0,4.5,4.84,7.54,9.01,5.52,4.17-1.91,6.87-5.85,8.33-9.01l-2.81-2.59-10.24.34s-1.8,1.24-4.17,3.04c-.23.9-.11,1.8-.23,2.59h.11v.11Z"/>
      <g>
        <path class="cls-5" d="M49.6,66.71h0c3.74-.37,6.39-3.56,6.12-7.39l-1.1-12.51-10.32.91,1.37,15.61c.18,2.1,1.92,3.56,3.93,3.38h0Z"/>
        <path class="cls-12" d="M38.83,8.92c.82-2.65,2.1-5.02,3.83-6.94-.27-.18-.37-.55-.64-.73,1-.55,2.28-1,3.47-1.1,6.02-.55,12.05,2.19,16.43,6.3,3.65,3.47,6.21,8.03,7.94,12.78,3.93,10.59,3.74,25.29-6.85,31.68-2.83,1.64-6.57,3.38-9.86,2.83-3.38-.55-5.93-3.01-7.76-6.02-3.38-5.57-5.57-12.6-6.76-18.9-1.37-6.48-1.64-13.51.37-19.9h-.18Z"/>
        <path class="cls-8" d="M26.32,31.75c.09,1.28.18,2.56.46,3.65,0,.82.27,1.64.46,2.28.55,1.92,1.1,3.83,1.83,5.66.27.64.55,1.19.82,1.73,4.02,8.22,10.95,13.33,18.26,12.69,3.56-.27,6.66-1.83,9.49-4.38.64-.55,1.19-1.1,1.64-1.73,4.56-5.48,7.03-13.88,6.3-23.19-1.37-15.34-11.05-27.11-21.91-26.11-1.55.18-3.2.55-4.56,1.19-8.4,3.65-13.88,15.24-12.78,28.3h0v-.09Z"/>
        <g>
          <path class="cls-1" d="M52.61,30.47c-.18,0-.46,0-.55-.37-1.92-3.74-5.29-2.19-5.48-2.1-.37,0-.73,0-.91-.37,0-.37,0-.73.37-.91,1.64-.73,5.2-1.19,7.21,2.65,0,.37,0,.73-.18.91h-.37v.09l-.09.09Z"/>
          <path class="cls-1" d="M32.44,27.46s-.37.18-.55,0c-3.29-1.28-4.66,1.55-4.66,1.64,0,.18-.46.37-.73.18-.18,0-.37-.46-.18-.73.55-1.37,2.65-3.56,6.02-2.19.18,0,.46.46.37.73v.18h-.18v.09l-.09.09Z"/>
          <path class="cls-1" d="M48.59,33.12c0,1.28-.82,2.46-1.73,2.46s-1.83-1.19-1.83-2.46.82-2.46,1.73-2.46,1.83,1.19,1.83,2.46Z"/>
          <path class="cls-1" d="M32.44,33.12c0,1.28-.82,2.46-1.73,2.46s-1.83-1.19-1.83-2.46.82-2.46,1.73-2.46,1.83,1.19,1.83,2.46Z"/>
          <path class="cls-11" d="M46.13,47.27c0,.18-.91,3.74-4.38,4.29-3.38.46-5.2-1.19-5.48-1.55"/>
          <path class="cls-2" d="M36.18,39.6c-1.19,1.19-1.19,2.92,0,4.02s2.92,1.19,4.02,0-2.1.18-3.29-.82c-1.19-1.19.18-4.29-.91-3.2h.18Z"/>
          <path class="cls-6" d="M26.78,36.77c.46,2.1.82,3.93,1.64,5.75.18.73.46,1.28.82,2.01,1.19-.82,1.73-2.28,1.64-3.74,0-2.1-1.83-3.74-3.93-3.93h-.09v-.09h-.09Z"/>
          <path class="cls-6" d="M51.79,36.59c-2.28,0-4.2,1.73-4.02,3.74s2.19,3.38,4.47,3.2,4.2-1.73,4.02-3.74-2.19-3.38-4.47-3.2Z"/>
        </g>
        <path class="cls-7" d="M57.36,53.56h.18c.64-.55,1.19-1.19,1.64-1.83,4.56-5.48,7.03-13.88,6.3-23.19-1.37-15.34-11.05-27.11-21.91-26.11-1.55.18-3.2.55-4.56,1.19,8.95,6.02,25.38,22.37,18.26,50.03h0v-.09h.09Z"/>
        <path class="cls-12" d="M64.2,30.83l2.56-6.48,3.1,4.47-.27,13.88-8.95,7.49c4.47-10.68,3.47-16.34,3.65-18.71v-.64h-.09Z"/>
        <g>
          <path class="cls-8" d="M62.29,26c-.91,3.56.09,6.85,2.28,7.39s4.66-1.83,5.57-5.39-.09-6.85-2.28-7.39c-2.1-.64-4.66,1.83-5.57,5.39Z"/>
          <path class="cls-7" d="M62.29,26c-.91,3.56.09,6.85,2.28,7.39s4.66-1.83,5.57-5.39-.09-6.85-2.28-7.39c-2.1-.64-4.66,1.83-5.57,5.39Z"/>
        </g>
        <path class="cls-12" d="M25.59,36.95c-.18-5.75,1.64-11.5,3.93-12.14,1.64-.91,1.28,0,1.64-.91,0-.46,1-2.56.91-2.92,2.19,4.56,8.49,6.02,13.05,6.48-.91-1.19-2.19-1.83-3.01-3.2-.82-1.28-1.37-2.74-1.92-4.11,5.57,1.73,11.14,5.2,17.25,4.56-1.37-1.28-5.11-3.93-5.2-6.12,1.46,1.92,3.93,2.37,5.93,2.92,1.37.37,2.83.64,4.11.91,2.37,6.66,2.74,17.25.64,23.37,2.19-3.29,3.65-11.32,3.01-19.99-.09-1.73.73-3.2,2.01-4.29h0c.91-.73,1.28-2.01,1.37-3.1,0-1.1-.27-2.37-.73-3.47h.27c-1.46-3.38-3.93-6.21-6.85-8.49-1.92-1.37-4.02-2.56-6.12-3.56-1.1-.82-2.28-1.37-3.47-1.92-5.57-2.92-20.54.37-25.74,13.97-1.46,3.74-2.28,4.11-2.65,9.86,0,.46.09.82.18,1.19.27,1.19,0,2.28.55,4.66"/>
      </g>
    </g>
  </g>
</svg>