<?xml version="1.0" encoding="UTF-8"?>
<svg id="Layer_2" data-name="Layer 2" xmlns="http://www.w3.org/2000/svg" viewBox="0 0 123.31 250.53">
  <defs>
    <style>
      .cls-1, .cls-2 {
        fill: #603813;
      }

      .cls-3 {
        fill: #273758;
      }

      .cls-4 {
        fill: #e6e6e6;
      }

      .cls-5 {
        fill: #c69696;
      }

      .cls-6 {
        fill: #d9a2a0;
      }

      .cls-2 {
        isolation: isolate;
        opacity: .5;
      }

      .cls-7 {
        fill: #d9b6b6;
      }

      .cls-8 {
        fill: #466e9f;
      }

      .cls-9 {
        fill: #d9baba;
      }

      .cls-10 {
        fill: none;
        stroke: #630;
        stroke-linecap: round;
        stroke-miterlimit: 10;
      }

      .cls-11 {
        fill: #d38a17;
      }
    </style>
  </defs>
  <g id="Layer_1-2" data-name="Layer 1">
    <g id="boy-crosslegged">
      <g>
        <path class="cls-7" d="M30.19,129.48h0c1.06,1.72,1.45,3.96.92,6.07l-10.16,41.3-8.18-4.09,6.6-40.24c1.06-6.2,7.78-8.05,10.95-3.03h-.13Z"/>
        <path class="cls-7" d="M26.1,140.3h0c-4.49.13-7.65-5.28-6.33-10.69l9.37-33.91c1.32-5.41,5.81-8.44,10.16-6.99h0c4.88,1.72,7.39,8.84,5.01,14.65l-12.93,31.4c-1.06,2.77-2.77,5.41-5.15,5.54h-.13Z"/>
        <path class="cls-4" d="M32.56,89.63c-4.35,3.96-9.9,12.14-14.12,29.42l17.02,8.44,2.38-6.73c5.54-10.29,9.76-19.79,8.84-26.39-.79-6.33-9.37-8.97-14.25-4.62l.13-.13Z"/>
        <path class="cls-7" d="M17.91,189.65l3.17-13.59-8.18-4.09v.53c-10.29,5.01-12.14,13.33-12.14,13.33-1.85,8.05,0,9.1,1.98,8.71,1.32-.26,2.38-1.32,3.17-2.64,3.17-5.81,10.16-10.82,10.16-10.82-1.06,11.88,1.98,8.44,1.98,8.44l-.13.13Z"/>
      </g>
      <g>
        <path class="cls-7" d="M93.12,129.48h0c-1.06,1.72-1.45,3.96-.92,6.07l10.16,41.3,8.18-4.09-6.6-40.24c-1.06-6.2-7.78-8.05-10.95-3.03h.13Z"/>
        <path class="cls-7" d="M97.21,140.3h0c4.49.13,7.65-5.28,6.33-10.69l-9.37-33.91c-1.32-5.41-5.81-8.44-10.16-6.99h0c-4.88,1.72-7.39,8.84-5.01,14.65l12.93,31.4c1.06,2.77,2.77,5.41,5.15,5.54h.13Z"/>
        <path class="cls-4" d="M90.75,89.63c4.35,3.96,9.9,12.14,14.12,29.42l-17.02,8.44-2.38-6.73c-5.54-10.29-9.76-19.79-8.84-26.39.79-6.33,9.37-8.97,14.25-4.62l-.13-.13Z"/>
        <path class="cls-7" d="M105.39,189.65l-3.17-13.59,8.18-4.09v.53c10.29,5.01,12.14,13.33,12.14,13.33,1.85,8.05,0,9.1-1.98,8.71-1.32-.26-2.38-1.32-3.17-2.64-3.17-5.81-10.16-10.82-10.16-10.82,1.06,11.88-1.98,8.44-1.98,8.44l.13.13Z"/>
      </g>
      <g>
        <g>
          <path class="cls-7" d="M53.44,213.13c19.41,5.24,40.11,9.12,40.39,8.38l2.21-7.34-37.95-16.34-28.46-12.32-.6-.22-.6-.22c-.4-.15-.81-.29-1.3-.19-3.48-.14-6.96,2.52-8.15,6.72-1.37,4.7.49,9.3,4.35,10.29,5.25,3.74,17.47,7.76,30.21,11.28l-.1-.04Z"/>
          <path class="cls-4" d="M80.25,207.44l15.75,6.85-2.21,7.34c-.18.5-7.58-.79-17.64-2.91l4.06-11.16.05-.12Z"/>
          <path class="cls-3" d="M102.91,214.71c1.16.56,1.8,1.64,2,2.97.13.89-7.83,29.02-8.3,29.7-4.67,5.32-3.33-25.93-3.33-25.93l2.95-7.49s5.52.18,6.74.91l-.06-.16Z"/>
        </g>
        <g>
          <path class="cls-7" d="M58.63,155.25l-.39.84-17.26,29.51-5.58,9.48c-2.59,4.62-7.43,6.87-12.15,4.52-4.43-2.36-6.35-7.62-4.47-12.27l4.21-9.97,13.8-33.02c3.32-5.88,10.7-7.97,16.63-4.76,5.69,3.09,7.83,10.06,5.15,15.8l.06-.12Z"/>
          <path class="cls-8" d="M58.32,155.11c-.11.24-1.32,21.35-1.49,21.71l-13.73,8.46c-.28.6-.97.86-1.56.58l-19.23-8.97c-.59-.28-.84-.97-.56-1.57l15.08-31.11c3.32-5.88,2.14-5.44,7.99-2.28,5.61,3.05,16.18,7.43,13.5,13.17h0Z"/>
        </g>
      </g>
      <g>
        <g>
          <path class="cls-7" d="M67.53,215.67c-19.41,5.24-40.11,9.12-40.39,8.38l-2.21-7.34,37.95-16.34,28.46-12.32.6-.22.6-.22c.4-.15.81-.29,1.3-.19,3.48-.14,6.96,2.52,8.15,6.72,1.37,4.7-.49,9.3-4.35,10.29-5.25,3.74-17.47,7.76-30.21,11.28l.1-.04Z"/>
          <path class="cls-4" d="M40.72,209.99l-15.75,6.85,2.21,7.34c.18.5,7.58-.79,17.64-2.91l-4.06-11.16-.05-.12Z"/>
          <path class="cls-3" d="M18.05,217.25c-1.16.56-1.8,1.64-2,2.97-.13.89,7.83,29.02,8.3,29.7,4.67,5.32,3.33-25.93,3.33-25.93l-2.95-7.49s-5.52.18-6.74.91l.06-.16Z"/>
        </g>
        <g>
          <path class="cls-7" d="M62.34,157.8l.39.84,17.26,29.51,5.58,9.48c2.59,4.62,7.43,6.87,12.15,4.52,4.43-2.36,6.35-7.62,4.47-12.27l-4.21-9.97-13.8-33.02c-3.32-5.88-10.7-7.97-16.63-4.76-5.69,3.09-7.83,10.06-5.15,15.8l-.06-.12Z"/>
          <path class="cls-8" d="M62.64,157.65c.11.24.89,18.81,1.06,19.17l14.16,11.01c.28.6.97.86,1.56.58l19.23-8.97c.59-.28.84-.97.56-1.57l-16.39-33.8c-3.32-5.88-8.21,1.94-14.06,5.1-5.61,3.05-8.8,2.74-6.13,8.48h0Z"/>
        </g>
      </g>
      <path class="cls-4" d="M88.77,88.18l-1.45,8.58-5.41,32.99c0,5.36,1.72,9.28,1.92,14.33l-47.04.27c1.98-5.94,2.47-8.92,3.41-15.4l-4.2-31.79-1.58-8.84,1.58-.92,20.72-13.06h12.01l18.74,12.93,1.45.92h-.13Z"/>
      <path class="cls-8" d="M86.79,169.6l-23.09,7.71h-6.86l-23.09-7.51c-.66-5.14.4-12.96,2.24-17.99.53-1.44,1.19-2.88,1.85-4.11.66-1.13,1.32-2.26,1.72-3.5h41.43c.4,1.85.92,3.8,1.72,5.55.92,2.16,1.85,4.83,2.38,8.02.66,3.08,2.11,7.81,1.45,11.82h.26Z"/>
      <path class="cls-8" d="M73.33,77.49h0c-3.17,10.56-17.94,10.95-21.77.66,0,0,0-.26-.13-.4l5.41-3.43h12.01l4.62,3.17h-.13Z"/>
      <g>
        <path class="cls-5" d="M62.78,79.21h0c-3.3,0-5.94-2.64-5.94-5.94v-8.84h12.01v8.84c0,3.3-2.64,5.94-5.94,5.94h-.13Z"/>
        <path class="cls-9" d="M91.67,40.28c-1.19,1.98-3.03,3.3-4.88,3.69h-1.58c-.53,5.15-2.38,9.9-5.01,13.72-5.01,7.52-12.53,12.01-18.08,11.74h-1.32c-5.94,0-12.8-4.09-17.55-10.95-2.64-3.83-4.62-8.44-5.41-13.59h-.4c-1.85-.13-3.83-1.45-5.15-3.43-.26-.4-.4-.66-.53-1.06-.26-.53-.4-.92-.53-1.45h0c-.4-1.98,0-3.56,1.58-4.22h0c1.32-.53,3.03-.13,4.62.92,1.19-15.7,10.95-29.56,23.09-29.82,3.69,0,7.26,1.06,10.42,3.03,3.03,1.85,5.67,4.75,7.92,8.31h0c3.17,5.15,5.41,11.74,6.07,18.34h0c.66-.66,1.45-1.19,2.24-1.45,1.06-.53,2.24-.53,3.17-.13,2.11.92,2.51,3.83.79,6.73l.53-.4Z"/>
        <g>
          <path class="cls-1" d="M45.09,32.55c.29,0,.58,0,.73-.44,2.48-4.67,6.71-2.77,6.86-2.63.44,0,.88,0,1.17-.44,0-.44,0-.88-.44-1.17-2.04-.88-6.56-1.46-9.04,3.36,0,.44,0,.88.29,1.17h.44v.15Z"/>
          <path class="cls-1" d="M70.47,28.76s.44.29.73,0c4.08-1.6,5.83,1.9,5.83,2.04,0,.29.58.44.88.29.29,0,.44-.58.29-.88-.73-1.75-3.36-4.52-7.59-2.77-.29,0-.58.58-.44.88v.29h.29s0,.15,0,.15Z"/>
          <path class="cls-1" d="M50.19,35.9c0,1.6,1.02,3.06,2.19,3.06s2.33-1.46,2.33-3.06-1.02-3.06-2.19-3.06-2.33,1.46-2.33,3.06Z"/>
          <path class="cls-1" d="M70.47,35.9c0,1.6,1.02,3.06,2.19,3.06s2.33-1.46,2.33-3.06-1.02-3.06-2.19-3.06-2.33,1.46-2.33,3.06Z"/>
          <path class="cls-10" d="M55.59,56.33c.29.29,2.19,4.52,7.29,4.38,4.96,0,7-3.94,7.29-4.38"/>
          <path class="cls-2" d="M66.53,47.57c0,2.04-1.6,3.65-3.65,3.65s-3.65-1.6-3.65-3.65,1.6,2.04,3.65,2.04,3.65-4.08,3.65-2.04Z"/>
          <path class="cls-6" d="M79.37,40.28c2.92,0,5.25,2.19,5.11,4.67s-2.77,4.23-5.69,4.08-5.25-2.19-5.11-4.67,2.77-4.23,5.69-4.08Z"/>
          <path class="cls-6" d="M46.11,40.28c2.92,0,5.25,2.19,5.11,4.67s-2.77,4.23-5.69,4.08-5.25-2.19-5.11-4.67,2.77-4.23,5.69-4.08Z"/>
        </g>
        <path class="cls-11" d="M88.37,19.44c-2.11-7.13-6.33-13.33-13.33-16.76-5.67-2.77-24.54-7.26-34.97,9.76-4.22,6.86-5.15,15.57-5.15,23.49,0,6.86,1.19,13.59,5.41,19,.66.79,1.45,1.58,2.24,2.24,0,0-.92-4.75-1.58-6.73-2.11-6.99-1.85-15.17.4-22.17.4-1.06.79-1.98,1.19-3.03.13-.53,1.45-2.9,1.32-3.3,2.24,5.41,9.63,7.52,14.91,8.44-.92-1.45-2.38-2.24-3.3-3.83-.92-1.58-1.45-3.3-1.98-4.88,6.33,2.38,12.93,6.86,20.19,6.47-1.58-1.58-5.81-4.75-5.67-7.39,1.58,2.24,4.35,2.9,6.86,3.83,1.58.53,3.3.92,4.88,1.45,1.32.4,1.32.26,1.72,1.45,2.38,7.92,3.43,17.42,1.58,25.6.4-1.98,3.69-5.81,4.35-7.65.79-2.24,1.45-4.49,1.98-6.86.92-4.62.92-9.5.26-14.12-.26-1.72-.66-3.43-1.06-5.01h-.26Z"/>
      </g>
    </g>
  </g>
</svg>