<?xml version="1.0" encoding="UTF-8"?>
<svg id="Layer_2" data-name="Layer 2" xmlns="http://www.w3.org/2000/svg" viewBox="0 0 92.02 290.37">
  <defs>
    <style>
      .cls-1, .cls-2 {
        fill: #603813;
      }

      .cls-3 {
        fill: #273758;
      }

      .cls-4 {
        fill: #e6e6e6;
      }

      .cls-5 {
        fill: #c69696;
      }

      .cls-6 {
        fill: #d9a2a0;
      }

      .cls-7, .cls-2 {
        isolation: isolate;
        opacity: .5;
      }

      .cls-7, .cls-8 {
        fill: #d9baba;
      }

      .cls-9 {
        fill: #783640;
      }

      .cls-10 {
        fill: #fff;
      }

      .cls-11 {
        fill: #d9b6b6;
      }

      .cls-12 {
        fill: #466e9f;
      }

      .cls-13 {
        fill: #d38a17;
      }
    </style>
  </defs>
  <g id="Layer_1-2" data-name="Layer 1">
    <g id="boy-yay-right">
      <g>
        <path class="cls-8" d="M79.25,150.55l7.34,11.03c.52.78,1.6.93,2.44.38h0c.83-.55,1.11-1.61.59-2.39l-5.17-7.77s3.27,1.13,4.02-2.5c0,0,5.02.31,3.13-4l-8.97-10.03-7.12,4.74s-.88,15.28,1.58,15.03c0,0,.84,1.27,2.16-4.48Z"/>
        <path class="cls-11" d="M62.5,108.3h0c-.53,1.78-.51,3.75.3,5.47l16.45,34.21,6.39-5.05-13.03-33.97c-1.93-5.18-8.36-5.56-10.11-.67h0Z"/>
        <path class="cls-11" d="M66.28,115.68h0c4.04-.07,6.54-5.13,5.18-9.79l-10.03-29.81c-1.5-4.76-5.59-7.18-9.27-5.62h0c-4.24,1.77-6.16,8.16-3.78,13.25l12.95,27.3c1.1,2.32,2.7,4.8,4.82,4.69l.12-.02h0Z"/>
        <path class="cls-4" d="M56.69,69.99c4,3.39,9.19,10.54,13.09,25.92l-15,7.76-2.19-5.88c-5.09-9.06-9.14-17.43-8.5-23.44.69-5.66,8.19-8.18,12.59-4.36h0Z"/>
      </g>
      <path class="cls-4" d="M60.5,126.36c-.94-9.52-1.53-19.16-2-28.69l-.47-10.82c-.35-7.41,2.7-19.87-11.76-19.81-2.94-1.41-6.23-2.88-6.23-2.88l-10.7-.35-2.94,2.7-7.99,4.11c-2.94,2.7-2.47,8.58-1.76,12.46l6.23,34.92c.35,2.12.59,4.23.71,6.47.35,0,.71.24.94.47,11.99,4.47,23.87,5.06,35.62,1.53h.35v-.12h0Z"/>
      <g>
        <g>
          <path class="cls-11" d="M43.1,232.64c-1.41,21.99-4.35,44.79-5.06,44.79l-6.82-.47-2.35-45.26-1.76-33.98v-1.41c0-.47,0-.94.24-1.41.82-3.64,4.23-6.23,8.11-6,3.88.24,7.05,3.41,7.29,7.17,0,1.06.24,2,.35,3.06,1.18,7.29.82,20.22,0,33.51h0Z"/>
          <path class="cls-4" d="M40.99,256.86c-1.29,11.87-2.59,20.69-3.06,20.69h-6.7l-1.06-20.69h10.82Z"/>
        </g>
        <path class="cls-3" d="M29.94,285.67c0,.71.47,1.88,1.06,2.82.59,1.18,1.76,1.88,3.06,1.88h25.4c5.76-3.06-21.4-12.82-21.4-12.82h-6.7s-1.53,6.82-1.29,8.23h-.12v-.12h0Z"/>
        <g>
          <path class="cls-11" d="M35.11,204.07h0c4.47-.47,7.76-4.23,7.64-8.82l-.94-41.5c-.82-6-6.23-10.11-12.23-9.29h0c-6,.82-10.11,6.23-9.29,12.23l6.23,39.74c.59,4.59,4,8.11,8.58,7.64h0Z"/>
          <path class="cls-12" d="M43.69,191.73l-22.57.59-.94-37.62c-.12-6,4.59-11.05,10.7-11.17h.59c6-.12,11.05,4.59,11.17,10.58l.94,37.62h.12,0Z"/>
        </g>
      </g>
      <g>
        <g>
          <path class="cls-11" d="M64.03,232.64c-1.41,21.99-4.35,44.79-5.06,44.79l-6.82-.47-2.35-45.26-1.76-33.98v-1.41c0-.47,0-.94.24-1.41.82-3.64,4.23-6.23,8.11-6s7.05,3.41,7.29,7.17c0,1.06.24,2,.35,3.06,1.18,7.29.82,20.22,0,33.51h0Z"/>
          <path class="cls-4" d="M62.03,256.86c-1.29,11.87-2.59,20.69-2.94,20.69h-6.7l-1.06-20.69h10.82-.12Z"/>
        </g>
        <path class="cls-3" d="M50.98,285.67c0,.71.47,1.88,1.06,2.82.59,1.18,1.76,1.88,3.06,1.88h25.4c5.76-3.06-21.4-12.82-21.4-12.82h-6.7s-1.53,6.82-1.29,8.23h-.12v-.12h0Z"/>
        <g>
          <path class="cls-11" d="M56.15,204.07h0c4.47-.47,7.76-4.23,7.64-8.82l-.94-41.5c-.82-6-6.23-10.11-12.23-9.29h0c-6,.82-10.11,6.23-9.29,12.23l6.23,39.74c.59,4.59,4,8.11,8.58,7.64h0Z"/>
          <path class="cls-12" d="M68.73,188.32l-22.22,3.06-5.17-37.03c-.82-6.11,3.41-11.76,9.52-12.7h0c6.11-.82,11.76,3.41,12.7,9.52l5.17,37.03h0q0,.05,0,0v.12h0Z"/>
        </g>
      </g>
      <path class="cls-12" d="M62.5,158.69v-4.82c.12-.94,0,0,.12-.24v-11.64c-.35-2.7-.71-5.41-1.18-7.99-.12-1.76-.35-3.53-.47-5.17,0-.71-.24-1.41-.24-2.12-11.87,3.64-24.69,2.7-36.68-1.88v1.76c.24,5.17-.47,10.35-2,15.28-.94,2.82-1.53,6-1.88,8.94-.71,7.99,1.06,13.99,1.06,13.99h0l21.05,7.99,1.06.35h.47c0,.12,18.81-7.76,18.81-7.76,0-1.76.24-3.41.35-5.06v-1.53h-.82.35q0-.05,0,0v-.12h0Z"/>
      <g>
        <path class="cls-11" d="M18.53,107.9h0c1.18,1.29,1.76,3.41,1.53,5.17l-3.41,37.74-7.76-2.47.35-36.33c0-5.53,5.76-8.11,9.17-4.11h.12,0Z"/>
        <path class="cls-11" d="M16.42,117.89h0c-3.88.82-7.52-3.53-6.94-8.58l3.53-31.16c.35-4.94,3.88-8.23,7.88-7.52h0c4.59.82,7.64,6.7,6.35,12.23l-7.17,29.39c-.59,2.59-1.76,5.29-3.88,5.64h.24Z"/>
        <path class="cls-4" d="M15.12,72.4c-3.29,4-7.17,11.99-8.47,27.86l16.22,5.17,1.18-6.23c3.53-9.76,6-18.69,4.23-24.45-1.53-5.41-9.41-6.7-13.05-2.23h-.12q0-.05,0,0v-.12h0Z"/>
        <path class="cls-11" d="M15.83,162.57l.94-12.46-7.76-2.47v.47C.54,153.87.07,161.51.07,161.51c-.47,7.41,1.41,7.99,2.94,7.41,1.06-.47,1.88-1.41,2.47-2.7,2.12-5.41,7.52-10.93,7.52-10.93.71,10.58,2.82,7.29,2.82,7.29h0Z"/>
      </g>
      <path class="cls-12" d="M44.52,70.04c0,4.7-5.06,7.88-9.41,5.76-4.35-2-7.17-6.11-8.7-9.41l2.94-2.7,10.7.35s1.88,1.29,4.35,3.17c.24.94.12,1.88.24,2.7h-.12v.12Z"/>
      <g>
        <path class="cls-13" d="M46.51,9.02c-.94-2.59-2.47-5.06-4.35-6.82.24-.24.35-.59.59-.82-1.06-.47-2.47-.94-3.64-.94-6.23-.24-12.34,2.82-16.46,7.41-3.53,3.76-6,8.47-7.41,13.52-3.41,11.05-2.47,25.98,8.94,31.86,3.06,1.53,6.94,3.06,10.23,2.35,3.41-.71,6-3.41,7.64-6.58,3.06-5.88,4.94-13.17,6-19.63.94-6.7.94-13.87-1.53-20.34h0Z"/>
        <path class="cls-5" d="M36.05,68.16h0c-3.76-.12-6.58-3.29-6.47-6.94l.47-13.05,10.7.35-.59,15.87c0,2.12-1.88,3.76-4,3.76h-.12Z"/>
        <path class="cls-8" d="M60.74,31.6c0,1.29,0,2.59-.24,3.76,0,.82-.12,1.65-.35,2.35-.47,2.12-.82,4-1.65,5.88-.24.71-.47,1.29-.82,2-3.76,8.58-10.46,14.23-18.11,14.11-3.64,0-7.05-1.53-9.99-4-.71-.47-1.29-1.06-1.88-1.76-4.94-5.41-8.11-13.76-7.76-23.28.47-15.75,9.76-28.22,21.05-27.98,1.65,0,3.29.35,4.82.94,8.82,3.29,15.17,14.7,14.81,28.1h.12s0-.12,0-.12Z"/>
        <g>
          <path class="cls-1" d="M32.21,30.54c.25,0,.51,0,.63-.38,2.15-4.06,5.83-2.41,5.96-2.28.38,0,.76,0,1.01-.38,0-.38,0-.76-.38-1.01-1.77-.76-5.7-1.27-7.86,2.92,0,.38,0,.76.25,1.01h.38v.13Z"/>
          <path class="cls-1" d="M54.26,27.24s.38.25.63,0c3.55-1.39,5.07,1.65,5.07,1.77,0,.25.51.38.76.25.25,0,.38-.51.25-.76-.63-1.52-2.92-3.93-6.59-2.41-.25,0-.51.51-.38.76v.25h.25v.13h0Z"/>
          <path class="cls-1" d="M36.64,33.45c0,1.39.89,2.66,1.9,2.66s2.03-1.27,2.03-2.66-.89-2.66-1.9-2.66-2.03,1.27-2.03,2.66Z"/>
          <path class="cls-1" d="M54.26,33.45c0,1.39.89,2.66,1.9,2.66s2.03-1.27,2.03-2.66-.89-2.66-1.9-2.66-2.03,1.27-2.03,2.66Z"/>
          <g>
            <path class="cls-3" d="M38.79,47.43s-.29,2.48,1.04,4.32c.75,1.03,1.91,2.02,3.78,2.32,0,0,2.73.64,4.71-.98.8-1.02,1.06-1.6,1.93-3.85l-11.46-1.81Z"/>
            <path class="cls-9" d="M39.82,51.75c.75,1.03,1.91,2.02,3.78,2.32,0,0,2.27.49,4.71-.98-1.55-1.06-4.77-2.48-8.49-1.35Z"/>
            <polygon class="cls-10" points="40.07 47.64 40.54 49.13 48.54 50.4 49.35 49.11 40.07 47.64"/>
          </g>
          <path class="cls-2" d="M50.21,40.55c1.27,1.27,1.27,3.17,0,4.44s-3.17,1.27-4.44,0,2.28.25,3.55-.89c1.27-1.27-.25-4.69,1.01-3.55h-.13,0Z"/>
          <path class="cls-6" d="M60.47,37.51c-.51,2.28-.89,4.31-1.77,6.34-.25.76-.51,1.39-.89,2.15-1.27-.89-1.9-2.54-1.77-4.06,0-2.28,2.03-4.06,4.31-4.31h.13v-.13Z"/>
          <path class="cls-6" d="M33.09,37.25c2.54,0,4.56,1.9,4.44,4.06s-2.41,3.68-4.94,3.55-4.56-1.9-4.44-4.06,2.41-3.68,4.94-3.55Z"/>
        </g>
        <path class="cls-7" d="M30.05,55.58h-.24c-.71-.47-1.29-1.06-1.88-1.76-4.94-5.41-8.11-13.76-7.76-23.16.47-15.75,9.76-28.22,21.05-27.98,1.65,0,3.29.35,4.82.94-8.94,6.58-24.81,24.34-15.99,52.08h0v-.12h0Z"/>
        <g>
          <path class="cls-13" d="M21.71,32.89l-2.94-6.47-2.94,4.7,1.18,14.11,9.64,7.05c-5.29-10.7-4.47-16.46-4.7-18.81v-.71h-.24v.12Z"/>
          <path class="cls-13" d="M66.27,17.14c-1.06-3.41-3.29-6.35-5.88-8.82-1.76-1.53-3.64-2.82-5.64-4-1.06-.82-2.12-1.53-3.17-2.12C46.87-.03,32.64-3.79,23.59,10.08c-3.76,5.53-4.35,8.94-4.7,15.52,0,0,4-.24,4.82,2.59,1.53,4.7-3.88,5.88,2.47,17.87.47.71,1.18,1.29,1.76,2,0,0-.71-3.88-1.06-5.53-1.53-5.76-1.06-12.46.94-18.22.24-.82.59-1.65,1.06-2.47.12-.47,1.29-2.35,1.18-2.7,1.76,4.59,7.76,6.47,12.11,7.41-.82-1.18-1.88-2-2.59-3.29s-1.06-2.7-1.53-4c5.17,2.23,10.46,6,16.34,5.88-1.29-1.29-4.7-4.11-4.47-6.23,1.18,1.76,3.53,2.47,5.53,3.41,1.29.47,2.7.94,4,1.29,1.76,6.58,1.06,16.46-1.65,22.1,2.47-2.82,4.59-10.46,4.94-18.58s1.06-2.94,2.35-3.76h0c.94-.59,1.53-1.76,1.65-2.82,0-1.06,0-2.23-.47-3.29h0v-.12h0Z"/>
        </g>
        <g>
          <path class="cls-8" d="M23.47,27.72c1.18,3.53.35,6.94-1.88,7.64s-4.94-1.53-6.11-5.17-.35-6.94,1.88-7.64c2.12-.71,4.94,1.53,6.11,5.17Z"/>
          <path class="cls-7" d="M23.47,27.72c1.18,3.53.35,6.94-1.88,7.64s-4.94-1.53-6.11-5.17-.35-6.94,1.88-7.64c2.12-.71,4.94,1.53,6.11,5.17Z"/>
        </g>
      </g>
    </g>
  </g>
</svg>