<?xml version="1.0" encoding="UTF-8"?>
<svg id="Layer_2" data-name="Layer 2" xmlns="http://www.w3.org/2000/svg" viewBox="0 0 92.02 292.41">
  <defs>
    <style>
      .cls-1, .cls-2 {
        fill: #603813;
      }

      .cls-3 {
        fill: #273758;
      }

      .cls-4 {
        fill: #e6e6e6;
      }

      .cls-5 {
        fill: #c69696;
      }

      .cls-6 {
        fill: #d9a2a0;
      }

      .cls-7, .cls-2 {
        isolation: isolate;
        opacity: .5;
      }

      .cls-7, .cls-8 {
        fill: #d9baba;
      }

      .cls-9 {
        fill: #d9b6b6;
      }

      .cls-10 {
        fill: #466e9f;
      }

      .cls-11 {
        fill: #d38a17;
      }
    </style>
  </defs>
  <g id="Layer_1-2" data-name="Layer 1">
    <g id="boy-nay-left">
      <g>
        <path class="cls-8" d="M12.77,152.59l-7.34,11.03c-.52.78-1.6.93-2.44.38h0c-.83-.55-1.11-1.61-.59-2.39l5.17-7.77s-3.27,1.13-4.02-2.5c0,0-5.02.31-3.13-4l8.97-10.03,7.12,4.74s.88,15.28-1.58,15.03c0,0-.84,1.27-2.16-4.48Z"/>
        <path class="cls-9" d="M29.52,110.34h0c.53,1.78.51,3.75-.3,5.47l-16.45,34.21-6.39-5.05,13.03-33.97c1.93-5.18,8.36-5.56,10.11-.67h0Z"/>
        <path class="cls-9" d="M25.74,117.72h0c-4.04-.07-6.54-5.13-5.18-9.79l10.03-29.81c1.5-4.76,5.59-7.18,9.27-5.62h0c4.24,1.77,6.16,8.16,3.78,13.25l-12.95,27.3c-1.1,2.32-2.7,4.8-4.82,4.69l-.12-.02h0Z"/>
        <path class="cls-4" d="M35.33,72.03c-4,3.39-9.19,10.54-13.09,25.92l15,7.76,2.19-5.88c5.09-9.06,9.14-17.43,8.5-23.44-.69-5.66-8.19-8.18-12.59-4.36h0Z"/>
      </g>
      <path class="cls-4" d="M31.52,128.4c.94-9.52,1.53-19.16,2-28.69l.47-10.82c.35-7.41-2.7-19.87,11.76-19.81,2.94-1.41,6.23-2.88,6.23-2.88l10.7-.35,2.94,2.7,7.99,4.11c2.94,2.7,2.47,8.58,1.76,12.46l-6.23,34.92c-.35,2.12-.59,4.23-.71,6.47-.35,0-.71.24-.94.47-11.99,4.47-23.87,5.06-35.62,1.53h-.35v-.12h0Z"/>
      <g>
        <g>
          <path class="cls-9" d="M48.92,234.69c1.41,21.99,4.35,44.79,5.06,44.79l6.82-.47,2.35-45.26,1.76-33.98v-1.41c0-.47,0-.94-.24-1.41-.82-3.64-4.23-6.23-8.11-6-3.88.24-7.05,3.41-7.29,7.17,0,1.06-.24,2-.35,3.06-1.18,7.29-.82,20.22,0,33.51h0Z"/>
          <path class="cls-4" d="M51.04,258.91c1.29,11.87,2.59,20.69,3.06,20.69h6.7l1.06-20.69h-10.82Z"/>
        </g>
        <path class="cls-3" d="M62.09,287.71c0,.71-.47,1.88-1.06,2.82-.59,1.18-1.76,1.88-3.06,1.88h-25.4c-5.76-3.06,21.4-12.82,21.4-12.82h6.7s1.53,6.82,1.29,8.23h.12v-.12h0Z"/>
        <g>
          <path class="cls-9" d="M56.91,206.12h0c-4.47-.47-7.76-4.23-7.64-8.82l.94-41.5c.82-6,6.23-10.11,12.23-9.29h0c6,.82,10.11,6.23,9.29,12.23l-6.23,39.74c-.59,4.59-4,8.11-8.58,7.64h0Z"/>
          <path class="cls-10" d="M48.33,193.77l22.57.59.94-37.62c.12-6-4.59-11.05-10.7-11.17h-.59c-6-.12-11.05,4.59-11.17,10.58l-.94,37.62h-.12,0Z"/>
        </g>
      </g>
      <g>
        <g>
          <path class="cls-9" d="M27.99,234.69c1.41,21.99,4.35,44.79,5.06,44.79l6.82-.47,2.35-45.26,1.76-33.98v-1.41c0-.47,0-.94-.24-1.41-.82-3.64-4.23-6.23-8.11-6s-7.05,3.41-7.29,7.17c0,1.06-.24,2-.35,3.06-1.18,7.29-.82,20.22,0,33.51h0Z"/>
          <path class="cls-4" d="M29.99,258.91c1.29,11.87,2.59,20.69,2.94,20.69h6.7l1.06-20.69h-10.82.12Z"/>
        </g>
        <path class="cls-3" d="M41.04,287.71c0,.71-.47,1.88-1.06,2.82-.59,1.18-1.76,1.88-3.06,1.88H11.53c-5.76-3.06,21.4-12.82,21.4-12.82h6.7s1.53,6.82,1.29,8.23h.12v-.12h0Z"/>
        <g>
          <path class="cls-9" d="M35.87,206.12h0c-4.47-.47-7.76-4.23-7.64-8.82l.94-41.5c.82-6,6.23-10.11,12.23-9.29h0c6,.82,10.11,6.23,9.29,12.23l-6.23,39.74c-.59,4.59-4,8.11-8.58,7.64h0Z"/>
          <path class="cls-10" d="M23.29,190.36l22.22,3.06,5.17-37.03c.82-6.11-3.41-11.76-9.52-12.7h0c-6.11-.82-11.76,3.41-12.7,9.52l-5.17,37.03h0q0,.05,0,0v.12h0Z"/>
        </g>
      </g>
      <path class="cls-10" d="M29.52,160.74v-4.82c-.12-.94,0,0-.12-.24v-11.64c.35-2.7.71-5.41,1.18-7.99.12-1.76.35-3.53.47-5.17,0-.71.24-1.41.24-2.12,11.87,3.64,24.69,2.7,36.68-1.88v1.76c-.24,5.17.47,10.35,2,15.28.94,2.82,1.53,6,1.88,8.94.71,7.99-1.06,13.99-1.06,13.99h0l-21.05,7.99-1.06.35h-.47c0,.12-18.81-7.76-18.81-7.76,0-1.76-.24-3.41-.35-5.06v-1.53h.82-.35q0-.05,0,0v-.12h0Z"/>
      <g>
        <path class="cls-9" d="M73.49,109.95h0c-1.18,1.29-1.76,3.41-1.53,5.17l3.41,37.74,7.76-2.47-.35-36.33c0-5.53-5.76-8.11-9.17-4.11h-.12,0Z"/>
        <path class="cls-9" d="M75.61,119.94h0c3.88.82,7.52-3.53,6.94-8.58l-3.53-31.16c-.35-4.94-3.88-8.23-7.88-7.52h0c-4.59.82-7.64,6.7-6.35,12.23l7.17,29.39c.59,2.59,1.76,5.29,3.88,5.64h-.24Z"/>
        <path class="cls-4" d="M76.9,74.44c3.29,4,7.17,11.99,8.47,27.86l-16.22,5.17-1.18-6.23c-3.53-9.76-6-18.69-4.23-24.45,1.53-5.41,9.41-6.7,13.05-2.23h.12q0-.05,0,0v-.12h0Z"/>
        <path class="cls-9" d="M76.2,164.62l-.94-12.46,7.76-2.47v.47c8.47,5.76,8.94,13.4,8.94,13.4.47,7.41-1.41,7.99-2.94,7.41-1.06-.47-1.88-1.41-2.47-2.7-2.12-5.41-7.52-10.93-7.52-10.93-.71,10.58-2.82,7.29-2.82,7.29h0Z"/>
      </g>
      <path class="cls-10" d="M47.51,72.09c0,4.7,5.06,7.88,9.41,5.76,4.35-2,7.17-6.11,8.7-9.41l-2.94-2.7-10.7.35s-1.88,1.29-4.35,3.17c-.24.94-.12,1.88-.24,2.7h.12v.12Z"/>
      <g>
        <path class="cls-11" d="M46.41,10.49c.94-2.59,2.47-5.06,4.35-6.82-.24-.24-.35-.59-.59-.82,1.06-.47,2.47-.94,3.64-.94,6.23-.24,12.34,2.82,16.46,7.41,3.53,3.76,6,8.47,7.41,13.52,3.41,11.05,2.47,25.98-8.94,31.86-3.06,1.53-6.94,3.06-10.23,2.35-3.41-.71-6-3.41-7.64-6.58-3.06-5.88-4.94-13.17-6-19.63-.94-6.7-.94-13.87,1.53-20.34h0Z"/>
        <path class="cls-5" d="M55.97,70.21h0c3.76-.12,6.58-3.29,6.47-6.94l-.47-13.05-10.7.35.59,15.87c0,2.12,1.88,3.76,4,3.76h.12Z"/>
        <path class="cls-8" d="M31.28,33.64c0,1.29,0,2.59.24,3.76,0,.82.12,1.65.35,2.35.47,2.12.82,4,1.65,5.88.24.71.47,1.29.82,2,3.76,8.58,10.46,14.23,18.11,14.11,3.64,0,7.05-1.53,9.99-4,.71-.47,1.29-1.06,1.88-1.76,4.94-5.41,8.11-13.76,7.76-23.28-.47-15.75-9.76-28.22-21.05-27.98-1.65,0-3.29.35-4.82.94-8.82,3.29-15.17,14.7-14.81,28.1h-.12s0-.12,0-.12Z"/>
        <g>
          <path class="cls-1" d="M50.12,28.29c.22-.07.45-.15.67.15,3.08,2.94,5.84.42,5.91.27.33-.11.67-.22,1,.04.11.33.22.67-.04,1-1.34,1.19-4.65,2.78-7.77-.27-.11-.33-.22-.67-.07-.97l.33-.11-.04-.11Z"/>
          <path class="cls-1" d="M31.62,29.77s.35-.24.59,0c3.29,1.29,4.7-1.53,4.7-1.65,0-.24.47-.35.71-.24.24,0,.35.47.24.71-.59,1.41-2.7,3.64-6.11,2.23-.24,0-.47-.47-.35-.71v-.24h.24v-.12h0Z"/>
          <path class="cls-1" d="M53.97,36.11c0,1.29-.82,2.47-1.76,2.47s-1.88-1.18-1.88-2.47.82-2.47,1.76-2.47,1.88,1.18,1.88,2.47Z"/>
          <path class="cls-1" d="M37.63,36.11c0,1.29-.82,2.47-1.76,2.47s-1.88-1.18-1.88-2.47.82-2.47,1.76-2.47,1.88,1.18,1.88,2.47Z"/>
          <path class="cls-2" d="M41.39,42.7c-1.18,1.18-1.18,2.94,0,4.11s2.94,1.18,4.11,0-2.12.24-3.29-.82c-1.18-1.18.24-4.35-.94-3.29h.12,0Z"/>
          <path class="cls-6" d="M31.87,39.87c.47,2.12.82,4,1.65,5.88.24.71.47,1.29.82,2,1.18-.82,1.76-2.35,1.65-3.76,0-2.12-1.88-3.76-4-4h-.12v-.12Z"/>
          <path class="cls-6" d="M57.27,39.64c-2.35,0-4.23,1.76-4.11,3.76s2.23,3.41,4.59,3.29,4.23-1.76,4.11-3.76-2.23-3.41-4.59-3.29Z"/>
          <ellipse class="cls-1" cx="45.95" cy="53.75" rx="2.21" ry="3.83" transform="translate(-10.09 10.63) rotate(-11.9)"/>
        </g>
        <path class="cls-7" d="M61.97,57.63h.24c.71-.47,1.29-1.06,1.88-1.76,4.94-5.41,8.11-13.76,7.76-23.16-.47-15.75-9.76-28.22-21.05-27.98-1.65,0-3.29.35-4.82.94,8.94,6.58,24.81,24.34,15.99,52.08h0v-.12h0Z"/>
        <g>
          <path class="cls-8" d="M68.55,29.76c-1.18,3.53-.35,6.94,1.88,7.64s4.94-1.53,6.11-5.17.35-6.94-1.88-7.64c-2.12-.71-4.94,1.53-6.11,5.17Z"/>
          <path class="cls-7" d="M68.55,29.76c-1.18,3.53-.35,6.94,1.88,7.64s4.94-1.53,6.11-5.17.35-6.94-1.88-7.64c-2.12-.71-4.94,1.53-6.11,5.17Z"/>
        </g>
        <path class="cls-11" d="M31.87,41.74c-.6-6.04-.71-13.15.84-17.56.78-1.11.39-.5,1.28-1.37.72-.51,2.46-.96,2.31-1.33,2.29,4.7,8.68,6.18,13.4,6.62-.95-1.21-2.23-1.89-3.06-3.24-.83-1.35-1.43-2.84-2.01-4.21,5.67,1.78,11.47,5.35,17.71,4.66-1.45-1.31-5.2-3.99-5.36-6.28,1.49,1.94,3.99,2.41,6.13,3.03,1.39.42,2.88.7,4.26.99,2.44,6.86,2.8,17.7.63,23.99,2.24-3.35,3.78-11.64,3.06-20.53-.12-1.78.77-3.25,2.05-4.36h0c.94-.7,1.35-2.01,1.39-3.16-.08-1.15-.29-2.41-.73-3.53l.25.11c-1.48-3.61-4.02-6.5-7.01-8.85-1.95-1.4-4.13-2.66-6.29-3.66-1.17-.81-2.31-1.37-3.58-1.93-5.71-3.01-22.82-.38-28.23,13.55-1.55,3.81-3.08,7.53-1.85,8.9,3.23,3.59,4.73-3.7,3.23,3.59-.25,1.2-.38,1.69-.4,4.53"/>
      </g>
    </g>
  </g>
</svg>