<?xml version="1.0" encoding="UTF-8"?>
<svg id="Layer_2" data-name="Layer 2" xmlns="http://www.w3.org/2000/svg" viewBox="0 0 112.14 223.43">
  <defs>
    <style>
      .cls-1, .cls-2 {
        fill: #603813;
      }

      .cls-3 {
        fill: #273758;
      }

      .cls-4 {
        fill: #e6e6e6;
      }

      .cls-5 {
        fill: #c69696;
      }

      .cls-6 {
        fill: #d9a2a0;
      }

      .cls-7 {
        fill: #8b2b0e;
      }

      .cls-8 {
        fill: #3f6138;
      }

      .cls-2 {
        isolation: isolate;
        opacity: .5;
      }

      .cls-9 {
        fill: #d9b6b6;
      }

      .cls-10 {
        fill: #d9baba;
      }

      .cls-11 {
        fill: none;
        stroke: #630;
        stroke-linecap: round;
        stroke-miterlimit: 10;
      }
    </style>
  </defs>
  <g id="Layer_1-2" data-name="Layer 1">
    <g id="girl-handsup">
      <g>
        <path class="cls-9" d="M53.79,151.75v1.08l-3.07,26.03-4.07,34.61h-5.24c-.54,0-1.72-17.71-1.72-34.61s.54-21.96,1.99-27.11c0-3.34,2.71-6.05,6.05-6.05s5.42,2.17,5.96,4.97v1.08h.09Z"/>
        <path class="cls-3" d="M47.82,218.98c-.09,1.08-.63,1.9-1.45,2.44-.54.36-20.51,2.17-21.06,1.99-4.52-2.17,15.9-10.12,15.9-10.12l5.51.18s1.17,4.43.99,5.6l.09-.09Z"/>
        <path class="cls-9" d="M48.64,157.9h0c-3.43.36-6.51-1.99-7.23-5.33l-6.05-31.36c-.36-4.61,3.07-8.58,7.68-9.04h0c4.61-.36,8.58,3.07,9.04,7.68l1.81,30.91c.27,3.61-1.63,6.78-5.15,7.14h-.09Z"/>
      </g>
      <g>
        <path class="cls-9" d="M67.7,178.86c0,16.9-1.17,34.61-1.72,34.61h-5.24l-4.07-34.61-2.98-26.03v-.54c0-.18-.09-.36-.09-.54,0-.36,0-.72.09-1.08.54-2.8,2.98-4.97,5.96-4.97s6.05,2.71,6.05,6.05c1.54,5.15,1.99,15.99,1.99,27.11h0Z"/>
        <path class="cls-3" d="M59.57,218.98c.09,1.08.63,1.9,1.45,2.44.54.36,20.51,2.17,21.06,1.99,4.52-2.17-15.9-10.12-15.9-10.12l-5.51.18s-1.17,4.43-.99,5.6l-.09-.09Z"/>
        <path class="cls-9" d="M58.85,157.9h0c3.43.36,6.51-1.99,7.23-5.33l6.05-31.36c.36-4.61-3.07-8.58-7.68-9.04h0c-4.61-.36-8.58,3.07-9.04,7.68l-1.81,30.91c-.27,3.61,1.63,6.78,5.15,7.14h.09Z"/>
      </g>
      <path class="cls-9" d="M68.7,87.59c-1.36,5.15-1.08,10.57.63,15.63.63,1.9,1.27,4.25,1.63,7.05.45,2.71,1.08,6.96,1.08,10.39l-17.08,6.78h-2.53l-17.08-6.51c.09-4.7.63-11.57,1.9-15.9.36-1.27.81-2.53,1.27-3.61,2.26-4.88,3.16-10.3,2.26-15.63l-3.52-20.42-1.08-6.05,1.08-.63,14.19-8.95h8.22l12.83,8.86.99.63-.99,5.87-3.71,22.59-.09-.09Z"/>
      <path class="cls-4" d="M68.7,87.59c-1.36,5.15-1.08,10.57.63,15.63.63,1.9,1.27,4.25,1.63,7.05h-33.71v-5.24c.36-1.27.81-2.53,1.27-3.61,2.26-4.88,3.16-10.3,2.26-15.63l-3.52-20.42-.99-6.05,11.48-7.23,3.71-2.35h8.22l3.16,2.17,10.66,7.32-.99,5.87-3.71,22.59-.09-.09Z"/>
      <path class="cls-8" d="M40.23,98.07s-10.48,27.11-10.03,52.5c0,1.36.81,2.44,1.9,2.8,7.14,1.9,33.25,8.04,45.82-1.54.81-.63,1.17-1.72,1.08-2.8-.99-7.41-5.06-36.78-10.75-50.88-9.22,3.89-18.53,3.71-28.1,0l.09-.09Z"/>
      <g>
        <path class="cls-7" d="M76.83,34.46c0-4.25-1.99-7.5-3.61-10.93-.72-1.54-1.45-4.25-2.53-5.42-1.45-1.54-4.88-.81-6.69-.9-6.69-.27-13.37.18-20.06.99-2.08.27-3.34-.54-4.16,2.44-.54,1.9-.9,2.62-.9,2.62-2.08,3.61-5.51,5.78-6.78,10.39-.99,3.71-.54,8.31,1.63,10.93,0-1.45.18-3.34.45-4.61,1.45,1.08,2.44,3.25,3.89,4.52s3.07,2.35,4.7,2.98c.18-1.27-.27-2.98,0-4.07,1.17,2.89,4.07,4.16,6.24,5.42,0-1.72-.45-3.89.99-2.89.36.27.9,1.45,1.36,1.81s.99.72,1.54.99c1.63.99,2.35,1.27,3.89,0,1.08-.99,2.44-2.35,3.34-3.61.54,1.08.27,2.89.27,4.16,1.81.09,3.98-2.17,5.15-3.89.27.99,0,2.08.27,3.07,2.35-.27,6.51-4.61,7.59-7.23,1.08.99,1.99,3.25,1.72,4.97,1.9-3.16,1.9-7.95,1.9-11.84l-.18.09Z"/>
        <path class="cls-5" d="M55.51,52.98h0c-2.26,0-4.07-1.81-4.07-4.07v-6.05h8.22v6.05c0,2.26-1.81,4.07-4.07,4.07h-.09Z"/>
        <path class="cls-10" d="M75.3,26.32c-.81,1.36-2.08,2.26-3.34,2.53h-1.08c-.36,3.52-1.63,6.78-3.43,9.4-3.43,5.15-8.58,8.22-12.38,8.04h-.9c-4.07,0-8.77-2.8-12.02-7.5-1.81-2.62-3.16-5.78-3.71-9.31h-.27c-1.27-.09-2.62-.99-3.52-2.35-.18-.27-.27-.45-.36-.72-.18-.36-.27-.63-.36-.99h0c-.27-1.36,0-2.44,1.08-2.89h0c.9-.36,2.08-.09,3.16.63.81-10.75,7.5-20.24,15.81-20.42,2.53,0,4.97.72,7.14,2.08,2.08,1.27,3.89,3.25,5.42,5.69h0c2.17,3.52,3.71,8.04,4.16,12.56h0c.45-.45.99-.81,1.54-.99.72-.36,1.54-.36,2.17-.09,1.45.63,1.72,2.62.54,4.61l.36-.27Z"/>
        <g>
          <path class="cls-1" d="M43.74,22.3c.19,0,.37,0,.47-.28,1.59-2.98,4.29-1.77,4.38-1.68.28,0,.56,0,.75-.28,0-.28,0-.56-.28-.75-1.31-.56-4.2-.93-5.78,2.14,0,.28,0,.56.19.75h.28v.09Z"/>
          <path class="cls-1" d="M59.96,19.88s.28.19.47,0c2.61-1.03,3.73,1.21,3.73,1.31,0,.19.37.28.56.19.19,0,.28-.37.19-.56-.47-1.12-2.14-2.89-4.85-1.77-.19,0-.37.37-.28.56v.19h.19s0,.09,0,.09Z"/>
          <path class="cls-1" d="M47,24.45c0,1.03.65,1.96,1.4,1.96s1.49-.93,1.49-1.96-.65-1.96-1.4-1.96-1.49.93-1.49,1.96Z"/>
          <path class="cls-1" d="M59.96,24.45c0,1.03.65,1.96,1.4,1.96s1.49-.93,1.49-1.96-.65-1.96-1.4-1.96-1.49.93-1.49,1.96Z"/>
          <path class="cls-11" d="M50.54,37.5c.19.19,1.4,2.89,4.66,2.8,3.17,0,4.48-2.52,4.66-2.8"/>
          <path class="cls-2" d="M57.44,31.91c0,1.31-1.03,2.33-2.33,2.33s-2.33-1.03-2.33-2.33,1.03,1.31,2.33,1.31,2.33-2.61,2.33-1.31Z"/>
          <path class="cls-6" d="M65.65,27.24c1.86,0,3.36,1.4,3.26,2.98s-1.77,2.7-3.64,2.61-3.36-1.4-3.26-2.98,1.77-2.7,3.64-2.61Z"/>
          <path class="cls-6" d="M44.39,27.24c1.86,0,3.36,1.4,3.26,2.98s-1.77,2.7-3.64,2.61-3.36-1.4-3.26-2.98,1.77-2.7,3.64-2.61Z"/>
        </g>
        <path class="cls-7" d="M73.04,29.4c-.27-2.89-.72-7.86-.99-10.12,0-.81-.09-1.54-.18-2.35-.27-5.87-2.17-12.29-6.51-15.54-3.07-2.35-5.87-.36-9.22-1.08-6.42-1.27-13.92,1.54-17.35,7.59-2.08,3.61-2.44,7.86-1.72,11.93,0,0,.45,7.68.27,9.49-.27,3.07-1.08,8.68.81,11.39.9,1.27,3.71,3.34,5.06,4.07.27-1.99-1.54-3.8-1.9-5.69-.45-2.08-.27-4.34-.27-6.51,0-3.89-.36-7.68-.18-11.57v-1.17c.09-.18.18-.27.27-.45.99-1.63,2.17-3.07,3.52-4.34,1.45-1.36,3.16-2.08,4.7-3.34,1.45,1.27,2.8,2.62,4.43,3.61,1.99,1.17,4.7,2.17,6.96,2.35-.27-.54-.9-1.08-1.36-1.63-.18-.27-.36-.72-.54-.99,1.17,1.36,3.16,2.44,4.61,3.43,1.36.99,3.07,1.45,4.61,1.99.09-.54-1.36-2.98-1.72-3.71.54.72,1.36,1.17,1.81,1.9.54.72.9,1.54,1.27,2.26h0v.09c.18,3.89-.18,7.68-.18,11.57s.18,4.43-.27,6.51c-.45,1.9-2.26,3.71-1.9,5.69,1.36-.72,4.16-2.8,5.06-4.07,1.9-2.62,1.08-8.31.81-11.39l.09.09Z"/>
      </g>
      <g>
        <path class="cls-9" d="M104,51.62h0c2.01,3.01.23,7.25-3.63,8.34l-24.28,6.1c-3.79,1.06-7.62-.92-8.56-4.44h0c-1.12-4.09,2.06-8.34,6.51-8.88l24.69-3.33c2.11-.26,4.09.61,5.2,2.24l.07-.03Z"/>
        <path class="cls-4" d="M70.79,65.69c3.81,1.24,10.38,1.5,21.27-2.52l-2.3-13.69s-17.85,1.39-22.17,5.68c-2.96,2.98-1.08,9.19,3.17,10.47l.03.07Z"/>
        <path class="cls-9" d="M96.92,58.62h0c-1.08-.89-1.73-2.24-1.56-3.63l1.98-27.96,7.12.91.75,26.58c.12,4.07-5.03,6.61-8.22,4.08l-.07.03Z"/>
        <path class="cls-9" d="M97.84,18.36l-.51,9.17,7.12.91c-.03-.07-.03-.23,0-.33,7.44-5.2,7.65-10.83,7.65-10.83.31-5.43-1.49-5.74-2.84-5.09-1.01.48-1.69,1.3-2.15,2.26-1.68,4.27-6.45,8.85-6.45,8.85-.92-7.66-2.77-4.96-2.77-4.96l-.07.03Z"/>
      </g>
      <g>
        <path class="cls-9" d="M8.14,51.62h0c-2.01,3.01-.23,7.25,3.63,8.34l24.28,6.1c3.79,1.06,7.62-.92,8.56-4.44h0c1.12-4.09-2.06-8.34-6.51-8.88l-24.69-3.33c-2.11-.26-4.09.61-5.2,2.24l-.07-.03Z"/>
        <path class="cls-4" d="M41.35,65.69c-3.81,1.24-10.38,1.5-21.27-2.52l2.3-13.69s17.85,1.39,22.17,5.68c2.96,2.98,1.08,9.19-3.17,10.47l-.03.07Z"/>
        <path class="cls-9" d="M15.22,58.62h0c1.08-.89,1.73-2.24,1.56-3.63l-1.98-27.96-7.12.91-.75,26.58c-.12,4.07,5.03,6.61,8.22,4.08l.07.03Z"/>
        <path class="cls-9" d="M14.31,18.36l.51,9.17-7.12.91c.03-.07.03-.23,0-.33C.24,22.9.03,17.27.03,17.27c-.31-5.43,1.49-5.74,2.84-5.09,1.01.48,1.69,1.3,2.15,2.26,1.68,4.27,6.45,8.85,6.45,8.85.92-7.66,2.77-4.96,2.77-4.96l.07.03Z"/>
      </g>
    </g>
  </g>
</svg>