<?xml version="1.0" encoding="UTF-8"?>
<svg id="Layer_2" data-name="Layer 2" xmlns="http://www.w3.org/2000/svg" viewBox="0 0 87.8 293.51">
  <defs>
    <style>
      .cls-1, .cls-2 {
        fill: none;
      }

      .cls-3 {
        fill: #89c2c9;
      }

      .cls-4, .cls-5 {
        fill: #603813;
      }

      .cls-6 {
        fill: #273758;
      }

      .cls-7 {
        fill: #e6e6e6;
      }

      .cls-8 {
        fill: #cfb6d9;
      }

      .cls-9 {
        fill: #c69696;
      }

      .cls-10 {
        fill: #d9a2a0;
      }

      .cls-11 {
        fill: #ee7767;
      }

      .cls-12 {
        fill: #fdcf75;
      }

      .cls-5 {
        isolation: isolate;
        opacity: .5;
      }

      .cls-13 {
        fill: #d9b6b6;
      }

      .cls-14 {
        fill: #466e9f;
      }

      .cls-15 {
        fill: #d9baba;
      }

      .cls-2 {
        stroke: #630;
        stroke-linecap: round;
        stroke-miterlimit: 10;
      }

      .cls-16 {
        fill: #d38a17;
      }
    </style>
  </defs>
  <g id="Layer_1-2" data-name="Layer 1">
    <g id="boy-ball">
      <g>
        <path class="cls-13" d="M65.65,235.89c-1.53,22.07-4.6,44.98-5.31,44.98l-6.85-.47-2.12-45.45-1.65-34.12v-1.42c0-.47,0-.94.24-1.42.94-3.66,4.25-6.26,8.15-5.9,4.37.35,7.55,4.01,7.32,8.38,1.53,6.85,1.18,21.01.24,35.53v-.12Z"/>
        <path class="cls-7" d="M63.29,261.51c-1.3,11.21-2.48,19.36-2.95,19.36l-6.85-.47-.94-18.89h10.74Z"/>
        <path class="cls-6" d="M51.48,287.71c.12,1.42.83,2.48,1.89,3.19.71.47,26.8,2.83,27.5,2.6,5.9-2.83-20.78-13.22-20.78-13.22l-7.2.24s-1.53,5.78-1.3,7.32l-.12-.12Z"/>
        <g>
          <path class="cls-13" d="M66.59,155.97l-.94,32.11-.24,9.68c-.12,4.49-3.66,8.15-8.15,8.38-4.72.24-7.79-3.42-8.15-8.15l-1.06-9.92-3.19-30.34v-.94c0-5.67,4.37-10.39,10.03-10.86,6.02-.47,11.33,4.01,11.8,10.03h-.12Z"/>
          <path class="cls-14" d="M66.59,155.97l.47,30.93c0,.59-.47,1.18-1.18,1.18h-19.71c-.59,0-1.18-.47-1.18-1.18l-.24-29.16v-.94c0-5.67,4.37-10.39,10.03-10.86,6.02-.47,11.33,4.01,11.8,10.03Z"/>
        </g>
      </g>
      <g>
        <path class="cls-13" d="M20.08,235.89c1.53,22.07,4.6,44.98,5.31,44.98l6.85-.47,2.12-45.45,1.65-34.12v-1.42c0-.47,0-.94-.24-1.42-.94-3.66-4.25-6.26-8.15-5.9-4.37.35-7.67,4.01-7.32,8.38-1.53,6.85-1.18,21.01-.24,35.53v-.12Z"/>
        <path class="cls-7" d="M33.07,261.51l-.94,18.89-6.85.47c-.47,0-1.65-8.15-2.95-19.36h10.74Z"/>
        <path class="cls-6" d="M33.9,287.71c-.12,1.42-.83,2.48-1.89,3.19-.71.47-26.8,2.83-27.5,2.6-5.9-2.83,20.78-13.22,20.78-13.22l7.2.24s1.53,5.78,1.3,7.32l.12-.12Z"/>
        <g>
          <path class="cls-13" d="M40.74,156.92v.83l-2.83,30.46-.94,9.8c-.35,4.72-3.42,8.38-8.15,8.26-4.49-.24-8.03-3.78-8.26-8.26l-.35-9.68-1.3-31.99c.47-6.02,5.67-10.51,11.69-10.15,5.78.35,10.15,5.19,10.15,10.86v-.12Z"/>
          <path class="cls-14" d="M40.74,156.92v.83l-.94,29.39c0,.59-.47,1.06-1.06,1.06h-19.24c-.59,0-1.06-.47-1.06-1.06l.47-30.93c.47-6.02,5.67-10.51,11.69-10.15,5.78.35,10.15,5.19,10.15,10.86h0Z"/>
        </g>
      </g>
      <path class="cls-7" d="M68.25,78.89l-1.3,7.67-4.84,29.51c-1.18,4.6-1.42,9.33-.71,13.93H24.33c1.77-5.31,2.24-10.86,1.3-16.41l-4.6-26.68-1.42-7.91,1.42-.83,18.53-11.69h10.74l16.76,11.57,1.3.83h-.12Z"/>
      <path class="cls-14" d="M66.48,159.16l-20.66,8.85h-6.14l-20.66-8.62c-.59-5.9.35-14.87,2.01-20.66.47-1.65,1.06-3.31,1.65-4.72.59-1.3,1.18-2.6,1.53-4.01h37.07c.35,2.12.83,4.37,1.53,6.37.83,2.48,1.65,5.55,2.12,9.21.59,3.54,1.89,8.97,1.3,13.58h.24Z"/>
      <path class="cls-14" d="M54.44,69.33h0c-2.83,9.44-16.05,9.8-19.48.59,0,0,0-.24-.12-.35l4.84-3.07h10.74l4.13,2.83h-.12Z"/>
      <g>
        <path class="cls-9" d="M44.99,70.86h0c-2.95,0-5.31-2.36-5.31-5.31v-7.91h10.74v7.91c0,2.95-2.36,5.31-5.31,5.31h-.12Z"/>
        <path class="cls-15" d="M70.84,36.04c-1.06,1.77-2.72,2.95-4.37,3.31h-1.42c-.47,4.6-2.12,8.85-4.49,12.28-4.49,6.73-11.21,10.74-16.17,10.51h-1.18c-5.31,0-11.45-3.66-15.7-9.8-2.36-3.42-4.13-7.55-4.84-12.16h-.35c-1.65-.12-3.42-1.3-4.6-3.07-.24-.35-.35-.59-.47-.94-.24-.47-.35-.83-.47-1.3h0c-.35-1.77,0-3.19,1.42-3.78h0c1.18-.47,2.72-.12,4.13.83,1.06-14.05,9.8-26.44,20.66-26.68,3.31,0,6.49.94,9.33,2.72,2.72,1.65,5.08,4.25,7.08,7.44h0c2.83,4.6,4.84,10.51,5.43,16.41h0c.59-.59,1.3-1.06,2.01-1.3.94-.47,2.01-.47,2.83-.12,1.89.83,2.24,3.42.71,6.02l.47-.35Z"/>
        <g>
          <path class="cls-4" d="M30.78,31.01c.23,0,.45,0,.56-.34,1.92-3.61,5.19-2.14,5.3-2.03.34,0,.68,0,.9-.34,0-.34,0-.68-.34-.9-1.58-.68-5.07-1.13-6.99,2.59,0,.34,0,.68.23.9h.34v.11Z"/>
          <path class="cls-4" d="M50.39,28.07s.34.23.56,0c3.16-1.24,4.51,1.47,4.51,1.58,0,.23.45.34.68.23.23,0,.34-.45.23-.68-.56-1.35-2.59-3.49-5.86-2.14-.23,0-.45.45-.34.68v.23h.23v.11h0Z"/>
          <path class="cls-4" d="M34.73,33.6c0,1.24.79,2.37,1.69,2.37s1.8-1.13,1.8-2.37-.79-2.37-1.69-2.37-1.8,1.13-1.8,2.37Z"/>
          <path class="cls-4" d="M50.39,33.6c0,1.24.79,2.37,1.69,2.37s1.8-1.13,1.8-2.37-.79-2.37-1.69-2.37-1.8,1.13-1.8,2.37Z"/>
          <path class="cls-2" d="M38.9,49.38c.23.23,1.69,3.49,5.64,3.38,3.83,0,5.41-3.04,5.64-3.38"/>
          <path class="cls-5" d="M47.35,42.62c0,1.58-1.24,2.82-2.82,2.82s-2.82-1.24-2.82-2.82,1.24,1.58,2.82,1.58,2.82-3.16,2.82-1.58Z"/>
          <path class="cls-10" d="M57.27,36.98c2.25,0,4.06,1.69,3.95,3.61s-2.14,3.27-4.4,3.16-4.06-1.69-3.95-3.61,2.14-3.27,4.4-3.16Z"/>
          <path class="cls-10" d="M31.57,36.98c2.25,0,4.06,1.69,3.95,3.61s-2.14,3.27-4.4,3.16-4.06-1.69-3.95-3.61,2.14-3.27,4.4-3.16Z"/>
        </g>
        <path class="cls-16" d="M67.89,17.39c-1.89-6.37-5.67-11.92-11.92-14.99C50.89-.08,34.01-4.1,24.69,11.13c-3.78,6.14-4.6,13.93-4.6,21.01,0,6.14,1.06,12.16,4.84,17,.59.71,1.3,1.42,2.01,2.01,0,0-.83-4.25-1.42-6.02-1.89-6.26-1.65-13.58.35-19.83.35-.94.71-1.77,1.06-2.72.12-.47,1.3-2.6,1.18-2.95,2.01,4.84,8.62,6.73,13.34,7.55-.83-1.3-2.12-2.01-2.95-3.42-.83-1.42-1.3-2.95-1.77-4.37,5.67,2.12,11.57,6.14,18.06,5.78-1.42-1.42-5.19-4.25-5.08-6.61,1.42,2.01,3.9,2.6,6.14,3.42,1.42.47,2.95.83,4.37,1.3,1.18.35,1.18.24,1.53,1.3,2.12,7.08,3.07,15.58,1.42,22.9.35-1.77,3.31-5.19,3.9-6.85.71-2.01,1.3-4.01,1.77-6.14.83-4.13.83-8.5.24-12.63-.24-1.53-.59-3.07-.94-4.49h-.24Z"/>
      </g>
      <g>
        <path class="cls-1" d="M33.03,141.66c3.27-7.28,8.11-10.73,13.36-11.56-.77-.07-1.54-.1-2.32-.1-10.1,0-18.87,5.69-23.28,14.04,5.51-4.3,12.24-2.38,12.24-2.38h0Z"/>
        <path class="cls-8" d="M33.03,141.66c11.63-2.04,28.01,9.22,33.82,27.82,2.24-3.87,3.53-8.37,3.53-13.17,0-13.75-10.55-25.03-23.99-26.21-5.25.83-10.09,4.28-13.36,11.56h0Z"/>
        <path class="cls-3" d="M33.03,141.66s-6.73-1.92-12.24,2.38c-1.94,3.66-3.03,7.84-3.03,12.27,0,12.63,8.9,23.18,20.77,25.73-8.86-9.86-7.09-34.9-5.5-40.38h0Z"/>
        <path class="cls-12" d="M33.03,141.66c-1.97,2.62-3.78,31.21,5.5,40.38,1.79.38,3.64.59,5.54.59,9.73,0,18.23-5.28,22.78-13.14-4.7-17.15-20.46-29.87-33.82-27.82h0Z"/>
        <path class="cls-11" d="M33.03,141.66c3.27-7.28,8.11-10.73,13.36-11.56,3.36.29,6.53,1.22,9.41,2.65-3.53-1.76-7.52-2.76-11.73-2.76-10.1,0-18.87,5.69-23.28,14.04,5.51-4.3,12.24-2.38,12.24-2.38h0Z"/>
      </g>
      <g>
        <path class="cls-13" d="M6.9,119.86h0c-4.43-.24-7.25-5.02-5.56-9.36l11.27-27.2c1.69-4.35,6.24-6.46,10.32-4.87h0c4.79,1.89,6.73,7.89,4.12,12.55l-14.26,25.59c-1.21,2.2-3.45,3.44-5.89,3.3h0Z"/>
        <path class="cls-7" d="M16.24,78.06c-3.79,3.06-8.58,9.41-11.95,23.09l15.29,6.99s10.72-18.81,9.39-26.04c-.9-5.03-8.48-7.26-12.74-3.96v-.09Z"/>
        <path class="cls-13" d="M6.51,110.07h0c1.7.28,3.08,1.34,3.91,2.95l15.88,30.72-7.69,3.21L.94,119.23c-2.69-4.21.75-9.97,5.56-9.16h0Z"/>
        <path class="cls-13" d="M31.31,153.28l-5.4-9.98-7.69,3.21c.07.1.15.21.22.31-4.12,9.86-.73,15.93-.73,15.93,3.14,5.94,5.09,5.25,6.08,3.67.73-1.07.86-2.42.61-3.66-1.01-5.49.82-13.16.82-13.16,5.8,7.57,5.9,3.65,5.9,3.65l.18.03Z"/>
      </g>
      <g>
        <path class="cls-13" d="M81.02,119.76h0c4.43-.24,7.25-5.02,5.56-9.36l-11.27-27.2c-1.69-4.35-6.24-6.46-10.32-4.87h0c-4.79,1.89-6.73,7.89-4.12,12.55l14.26,25.59c1.21,2.2,3.45,3.44,5.89,3.3h0Z"/>
        <path class="cls-7" d="M71.68,77.96c3.79,3.06,8.58,9.41,11.95,23.09l-15.29,6.99s-10.72-18.81-9.39-26.04c.9-5.03,8.48-7.26,12.74-3.96v-.09Z"/>
        <path class="cls-13" d="M80.9,109.16h0c-1.67.39-2.98,1.54-3.71,3.2l-13.83,31.7,7.88,2.7,15.81-28.81c2.41-4.38-1.4-9.9-6.15-8.78h0Z"/>
        <path class="cls-13" d="M58.99,153.91l4.73-10.31,7.88,2.7c-.07.11-.13.22-.2.33,4.76,9.57,1.78,15.85,1.78,15.85-2.74,6.13-4.73,5.57-5.83,4.07-.8-1.02-1.02-2.36-.85-3.61.65-5.54-1.68-13.08-1.68-13.08-5.29,7.94-5.65,4.03-5.65,4.03l-.18.04Z"/>
      </g>
    </g>
  </g>
</svg>