<?xml version="1.0" encoding="UTF-8"?>
<svg id="Layer_2" data-name="Layer 2" xmlns="http://www.w3.org/2000/svg" viewBox="0 0 147.32 293.51">
  <defs>
    <style>
      .cls-1, .cls-2 {
        fill: #603813;
      }

      .cls-3 {
        fill: #273758;
      }

      .cls-4 {
        fill: #e6e6e6;
      }

      .cls-5 {
        fill: #c69696;
      }

      .cls-6 {
        fill: #d9a2a0;
      }

      .cls-2 {
        isolation: isolate;
        opacity: .5;
      }

      .cls-7 {
        fill: #d9b6b6;
      }

      .cls-8 {
        fill: #466e9f;
      }

      .cls-9 {
        fill: #d9baba;
      }

      .cls-10 {
        fill: none;
        stroke: #630;
        stroke-linecap: round;
        stroke-miterlimit: 10;
      }

      .cls-11 {
        fill: #d38a17;
      }
    </style>
  </defs>
  <g id="Layer_1-2" data-name="Layer 1">
    <g id="boy-handsup">
      <g>
        <path class="cls-7" d="M136.63,71.67h0c2.64,3.95.3,9.52-4.77,10.96l-31.9,8.02c-4.98,1.39-10.02-1.2-11.24-5.83h0c-1.47-5.38,2.71-10.95,8.56-11.67l32.44-4.37c2.77-.34,5.38.81,6.83,2.94l.09-.04Z"/>
        <path class="cls-4" d="M93,90.16c5.01,1.63,13.64,1.97,27.95-3.32l-3.03-17.99s-23.45,1.83-29.12,7.46c-3.89,3.91-1.42,12.07,4.16,13.76l.04.09Z"/>
        <path class="cls-7" d="M127.33,80.88h0c-1.42-1.17-2.27-2.94-2.06-4.77l2.6-36.73,9.36,1.19.99,34.92c.16,5.35-6.61,8.68-10.8,5.36l-.09.04Z"/>
        <path class="cls-7" d="M128.53,27.98l-.67,12.04,9.36,1.19c-.04-.09-.04-.31,0-.44,9.78-6.83,10.05-14.23,10.05-14.23.4-7.14-1.96-7.53-3.73-6.69-1.33.63-2.23,1.71-2.82,2.97-2.21,5.61-8.47,11.63-8.47,11.63-1.21-10.06-3.64-6.52-3.64-6.52l-.09.04Z"/>
      </g>
      <g>
        <path class="cls-7" d="M10.7,71.67h0c-2.64,3.95-.3,9.52,4.77,10.96l31.9,8.02c4.98,1.39,10.02-1.2,11.24-5.83h0c1.47-5.38-2.71-10.95-8.56-11.67l-32.44-4.37c-2.77-.34-5.38.81-6.83,2.94l-.09-.04Z"/>
        <path class="cls-4" d="M54.32,90.16c-5.01,1.63-13.64,1.97-27.95-3.32l3.03-17.99s23.45,1.83,29.12,7.46c3.89,3.91,1.42,12.07-4.16,13.76l-.04.09Z"/>
        <path class="cls-7" d="M19.99,80.88h0c1.42-1.17,2.27-2.94,2.06-4.77l-2.6-36.73-9.36,1.19-.99,34.92c-.16,5.35,6.61,8.68,10.8,5.36l.09.04Z"/>
        <path class="cls-7" d="M18.79,27.98l.67,12.04-9.36,1.19c.04-.09.04-.31,0-.44C.32,33.95.05,26.55.05,26.55c-.4-7.14,1.96-7.53,3.73-6.69,1.33.63,2.23,1.71,2.82,2.97,2.21,5.61,8.47,11.63,8.47,11.63,1.21-10.06,3.64-6.52,3.64-6.52l.09.04Z"/>
      </g>
      <g>
        <path class="cls-7" d="M94.47,235.89c-1.53,22.07-4.6,44.98-5.31,44.98l-6.85-.47-2.12-45.45-1.65-34.12v-1.42c0-.47,0-.94.24-1.42.94-3.66,4.25-6.26,8.15-5.9,4.37.35,7.55,4.01,7.32,8.38,1.53,6.85,1.18,21.01.24,35.53v-.12Z"/>
        <path class="cls-4" d="M92.11,261.51c-1.3,11.21-2.48,19.36-2.95,19.36l-6.85-.47-.94-18.89h10.74Z"/>
        <path class="cls-3" d="M80.3,287.71c.12,1.42.83,2.48,1.89,3.19.71.47,26.8,2.83,27.5,2.6,5.9-2.83-20.78-13.22-20.78-13.22l-7.2.24s-1.53,5.78-1.3,7.32l-.12-.12Z"/>
        <g>
          <path class="cls-7" d="M95.41,155.97l-.94,32.11-.24,9.68c-.12,4.49-3.66,8.15-8.15,8.38-4.72.24-7.79-3.42-8.15-8.15l-1.06-9.92-3.19-30.34v-.94c0-5.67,4.37-10.39,10.03-10.86,6.02-.47,11.33,4.01,11.8,10.03h-.12Z"/>
          <path class="cls-8" d="M95.41,155.97l.47,30.93c0,.59-.47,1.18-1.18,1.18h-19.71c-.59,0-1.18-.47-1.18-1.18l-.24-29.16v-.94c0-5.67,4.37-10.39,10.03-10.86,6.02-.47,11.33,4.01,11.8,10.03Z"/>
        </g>
      </g>
      <g>
        <path class="cls-7" d="M48.9,235.89c1.53,22.07,4.6,44.98,5.31,44.98l6.85-.47,2.12-45.45,1.65-34.12v-1.42c0-.47,0-.94-.24-1.42-.94-3.66-4.25-6.26-8.15-5.9-4.37.35-7.67,4.01-7.32,8.38-1.53,6.85-1.18,21.01-.24,35.53v-.12Z"/>
        <path class="cls-4" d="M61.89,261.51l-.94,18.89-6.85.47c-.47,0-1.65-8.15-2.95-19.36h10.74Z"/>
        <path class="cls-3" d="M62.71,287.71c-.12,1.42-.83,2.48-1.89,3.19-.71.47-26.8,2.83-27.5,2.6-5.9-2.83,20.78-13.22,20.78-13.22l7.2.24s1.53,5.78,1.3,7.32l.12-.12Z"/>
        <g>
          <path class="cls-7" d="M69.56,156.92v.83l-2.83,30.46-.94,9.8c-.35,4.72-3.42,8.38-8.15,8.26-4.49-.24-8.03-3.78-8.26-8.26l-.35-9.68-1.3-31.99c.47-6.02,5.67-10.51,11.69-10.15,5.78.35,10.15,5.19,10.15,10.86v-.12Z"/>
          <path class="cls-8" d="M69.56,156.92v.83l-.94,29.39c0,.59-.47,1.06-1.06,1.06h-19.24c-.59,0-1.06-.47-1.06-1.06l.47-30.93c.47-6.02,5.67-10.51,11.69-10.15,5.78.35,10.15,5.19,10.15,10.86h0Z"/>
        </g>
      </g>
      <path class="cls-4" d="M97.06,78.89l-1.3,7.67-4.84,29.51c-1.18,4.6-1.42,9.33-.71,13.93h-37.07c1.77-5.31,2.24-10.86,1.3-16.41l-4.6-26.68-1.42-7.91,1.42-.83,18.53-11.69h10.74l16.76,11.57,1.3.83h-.12Z"/>
      <path class="cls-8" d="M95.29,159.16l-20.66,8.85h-6.14l-20.66-8.62c-.59-5.9.35-14.87,2.01-20.66.47-1.65,1.06-3.31,1.65-4.72.59-1.3,1.18-2.6,1.53-4.01h37.07c.35,2.12.83,4.37,1.53,6.37.83,2.48,1.65,5.55,2.12,9.21.59,3.54,1.89,8.97,1.3,13.58h.24Z"/>
      <path class="cls-8" d="M83.25,69.33h0c-2.83,9.44-16.05,9.8-19.48.59,0,0,0-.24-.12-.35l4.84-3.07h10.74l4.13,2.83h-.12Z"/>
      <g>
        <path class="cls-5" d="M73.81,70.86h0c-2.95,0-5.31-2.36-5.31-5.31v-7.91h10.74v7.91c0,2.95-2.36,5.31-5.31,5.31h-.12Z"/>
        <path class="cls-9" d="M99.66,36.04c-1.06,1.77-2.72,2.95-4.37,3.31h-1.42c-.47,4.6-2.12,8.85-4.49,12.28-4.49,6.73-11.21,10.74-16.17,10.51h-1.18c-5.31,0-11.45-3.66-15.7-9.8-2.36-3.42-4.13-7.55-4.84-12.16h-.35c-1.65-.12-3.42-1.3-4.6-3.07-.24-.35-.35-.59-.47-.94-.24-.47-.35-.83-.47-1.3h0c-.35-1.77,0-3.19,1.42-3.78h0c1.18-.47,2.72-.12,4.13.83,1.06-14.05,9.8-26.44,20.66-26.68,3.31,0,6.49.94,9.33,2.72,2.72,1.65,5.08,4.25,7.08,7.44h0c2.83,4.6,4.84,10.51,5.43,16.41h0c.59-.59,1.3-1.06,2.01-1.3.94-.47,2.01-.47,2.83-.12,1.89.83,2.24,3.42.71,6.02l.47-.35Z"/>
        <g>
          <path class="cls-1" d="M59.09,31.2c.23,0,.46,0,.58-.35,1.96-3.69,5.3-2.19,5.42-2.07.35,0,.69,0,.92-.35,0-.35,0-.69-.35-.92-1.61-.69-5.19-1.15-7.14,2.65,0,.35,0,.69.23.92h.35v.12Z"/>
          <path class="cls-1" d="M79.14,28.21s.35.23.58,0c3.23-1.27,4.61,1.5,4.61,1.61,0,.23.46.35.69.23.23,0,.35-.46.23-.69-.58-1.38-2.65-3.57-5.99-2.19-.23,0-.46.46-.35.69v.23h.23v.12h0Z"/>
          <path class="cls-1" d="M63.13,33.85c0,1.27.81,2.42,1.73,2.42s1.84-1.15,1.84-2.42-.81-2.42-1.73-2.42-1.84,1.15-1.84,2.42Z"/>
          <path class="cls-1" d="M79.14,33.85c0,1.27.81,2.42,1.73,2.42s1.84-1.15,1.84-2.42-.81-2.42-1.73-2.42-1.84,1.15-1.84,2.42Z"/>
          <path class="cls-10" d="M67.39,49.99c.23.23,1.73,3.57,5.76,3.46,3.92,0,5.53-3.11,5.76-3.46"/>
          <path class="cls-2" d="M76.03,43.07c0,1.61-1.27,2.88-2.88,2.88s-2.88-1.27-2.88-2.88,1.27,1.61,2.88,1.61,2.88-3.23,2.88-1.61Z"/>
          <path class="cls-6" d="M86.17,37.31c2.3,0,4.15,1.73,4.03,3.69s-2.19,3.34-4.49,3.23-4.15-1.73-4.03-3.69,2.19-3.34,4.49-3.23Z"/>
          <path class="cls-6" d="M59.9,37.31c2.3,0,4.15,1.73,4.03,3.69s-2.19,3.34-4.49,3.23-4.15-1.73-4.03-3.69,2.19-3.34,4.49-3.23Z"/>
        </g>
        <path class="cls-11" d="M96.71,17.39c-1.89-6.37-5.67-11.92-11.92-14.99-5.08-2.48-21.96-6.49-31.28,8.74-3.78,6.14-4.6,13.93-4.6,21.01,0,6.14,1.06,12.16,4.84,17,.59.71,1.3,1.42,2.01,2.01,0,0-.83-4.25-1.42-6.02-1.89-6.26-1.65-13.58.35-19.83.35-.94.71-1.77,1.06-2.72.12-.47,1.3-2.6,1.18-2.95,2.01,4.84,8.62,6.73,13.34,7.55-.83-1.3-2.12-2.01-2.95-3.42-.83-1.42-1.3-2.95-1.77-4.37,5.67,2.12,11.57,6.14,18.06,5.78-1.42-1.42-5.19-4.25-5.08-6.61,1.42,2.01,3.9,2.6,6.14,3.42,1.42.47,2.95.83,4.37,1.3,1.18.35,1.18.24,1.53,1.3,2.12,7.08,3.07,15.58,1.42,22.9.35-1.77,3.31-5.19,3.9-6.85.71-2.01,1.3-4.01,1.77-6.14.83-4.13.83-8.5.24-12.63-.24-1.53-.59-3.07-.94-4.49h-.24Z"/>
      </g>
    </g>
  </g>
</svg>