<?xml version="1.0" encoding="UTF-8"?>
<svg id="Layer_2" data-name="Layer 2" xmlns="http://www.w3.org/2000/svg" viewBox="0 0 107.04 282.38">
  <defs>
    <style>
      .cls-1 {
        fill: #e0a587;
      }

      .cls-2 {
        fill: #70b5ff;
      }

      .cls-3 {
        fill: #6c3231;
      }

      .cls-4 {
        fill: #533d24;
      }

      .cls-5 {
        fill: #98caff;
      }

      .cls-6 {
        fill: #39433e;
      }
    </style>
  </defs>
  <g id="Layer_1-2" data-name="Layer 1">
    <g id="german-man-slightright-back">
      <path class="cls-3" d="M50.53,137.68c-7.7,3.1-20.8,5.9-20.8,5.9,0,0-14.8-2.1-22-4.4-.7-8.5-.9-16.3.5-21.9h39.9s2.5,15.3,2.5,20.4h-.1Z"/>
      <g>
        <path class="cls-1" d="M62.13,63.98l5.2,4.4-32.2,31.8c-2,1.9-5.8,1.7-8.3-.4h0c-2.5-2.1-2.9-5.4-.9-7.3l36.1-28.4.1-.1Z"/>
        <path class="cls-5" d="M33.33,101.48h0c-3.2,1.2-6.8,0-8.1-2.5L1.13,63.98c-2.5-3.6-.7-8.4,3.9-10.5h0c4.6-2,10-.6,12,3.2l19.8,37.9c1.3,2.6-.3,5.7-3.5,6.9h0Z"/>
        <path class="cls-1" d="M71.97,54.5l3.2-3.4c1.8-1.9,5.6-.1,5.5,2.4,0,.8-.3,1.7-.8,2.6q-.33.6,0,0c-1.3,2.5-4.2,5.3-8.4,8.5l-1.9,1.7-2.7,2.4h0l-5.2-4.4h0l2.8-2.4v-.3c.1,0,6.1-10.8,6.1-10.8,0,0,2.9-3.2,1.5,3.6l-.1.1Z"/>
        <polygon class="cls-2" points="37.73 82.48 40.73 94.68 35.03 100.48 31.43 84.98 37.73 82.48"/>
      </g>
      <rect class="cls-1" x="16.53" y="32.18" width="8.9" height="17.6"/>
      <g>
        <path class="cls-3" d="M26.13,30.08c.7-1.7,2.6-2.8,4.6-3.2s3.9-.6,5.9-.2c1.6.3,3.3,1,4.7,1.9.4.2.7.5.8.8.2.7-.7,1-1.3,1.1-4.8.8-9.3,1.1-14.1-.2"/>
        <path class="cls-1" d="M40.53,24.78c.2.6,0,1.3-.6,1.6-.6.4-1.4.7-1.9.7v.4h0c0,.7-.2,1.3-.3,1.9h0v.2c-1.7,8.2-7,14.2-13.3,14.2s-12.5-7.1-13.6-16.5v-5.3c.6-9.9,6.5-17.6,13.6-17.6s10.3,4.6,12.5,11.2h0s.5,1.7.5,1.8c1.4,2.2,2.7,5.6,3.3,7.2l-.2.2Z"/>
        <path class="cls-3" d="M7.83,8.08c0-2.4.8-4.4,2.7-6,1.7-1.5,5.4-3.1,5.3.2,2.2-1.3,9-4.4,8.8,0,1.6-.4,11.9-4.2,7.1.6,1.9-.8,4.8-2,6.7-1.3-.4.5-.5,1.2-1,1.6,1.3,0,3.6-.9,4.9-.7,1,.2,3,1.4,3.5,1.9,3.4,3.2,1.2,4.4-3.2,5.6-4.7,1.2-3.4,2-3.9,6-.2,2.2-2.8,7.6-5.6,7.7,0-1.8.4-3.3-1.5-4.4-1.8-1.1-3.7-.5-4.6,1.2-1.7,3.5,3.3,5.7,3.5,8.4.7,7.9-6.5,10.7-13.9,10.4-2.1,0-12.8-3.7-7.6-5.3-1.9-.4-3.9-1.5-3.4-3.4.5-.1.9-.3,1.4-.4-1-1.5-2.7-2.7-2.4-4.6.4,0,.9-.3,1.2-.3-1.2-1.9-2.1-3.5-2.3-5.6.6.1,1.5-.2,2,0-.5-1.7-2.2-6.9,1.4-6.2-.3-1.8-1.1-3.4-.9-5.3.6,0,1.1,0,1.6.3"/>
      </g>
      <g>
        <path class="cls-3" d="M25.03,271.78l-9.2-.6,4-72.9c.3-3.4,3.8-6,7.7-5.8h0c3.9.2,6.9,3.2,6.6,6.6l-9.1,72.6v.1Z"/>
        <path class="cls-4" d="M15.83,271.08s-5.9,11,4.5,11.3c1.7,0,3.5-.3,5.1-.8l10.6-3.5c.5-.2.9-.5,1-.9.6-1.6-.3-3.5-12-5.5l-9.2-.7v.1Z"/>
        <path class="cls-3" d="M27.83,204.08h0c-3.7.3-7.1-1.9-7.8-5.1l-12.1-58.1c-1.1-5.3,3.2-10.3,9.4-10.9h0c6.1-.5,11.5,3.4,11.9,8.7l4.9,58.8c.3,3.3-2.5,6.2-6.3,6.5v.1Z"/>
      </g>
      <g>
        <path class="cls-3" d="M47.53,271.78l-9.2-.4,1.7-73c.2-3.4,3.6-6.1,7.5-5.9h0c4,.2,7,3.1,6.8,6.5l-6.8,72.8Z"/>
        <path class="cls-4" d="M38.43,271.08s-5.9,11,4.5,11.3c1.7,0,3.5-.3,5.1-.8l10.6-3.5c.5-.2.9-.5,1-.9.6-1.6-.3-3.5-12-5.5l-9.2-.7v.1Z"/>
        <path class="cls-3" d="M47.93,204.08h0c-3.7.3-7.1-1.9-7.7-5.1l-11.1-58.2c-1-5.3,3.3-10.3,9.5-10.8h0c6.1-.5,11.4,3.5,11.8,8.8l3.9,58.9c.2,3.3-2.6,6.2-6.4,6.5v-.1Z"/>
      </g>
      <path class="cls-6" d="M46.53,131.18c-14,2.8-26.8,2.8-37.7-.8-1.9,0-3.4-1.7-3-3.4l2.3-10.6c1.4-10.7.6-21.5-2.2-32C3.03,73.68-.77,72.18.13,59.48c.2-3.3,2.6-6.1,5.1-8.3l8-7h13.6l4.3,2.7c7.1,4.4,11.9,11.3,13.2,19.1,2.8,16.1,4.6,44,5.3,62.3,0,1.6-1.4,3-3.2,2.9h.1Z"/>
      <path class="cls-2" d="M13.43,42.68v-2.5h6.8c1.1,0,2.2,0,3.2.3,3.8.7,6.5,2.6,7.4,4.9h0l.2.5s-2.7-.6-3.8-.5c-7.5.2-14.4,1.1-13.8-2.7h0Z"/>
      <g>
        <path class="cls-1" d="M88.03,63.18l5.2,4.4-32.2,31.8c-2,1.9-5.8,1.7-8.3-.4h0c-2.5-2.1-2.9-5.4-.9-7.3l36.1-28.4.1-.1Z"/>
        <path class="cls-5" d="M59.23,100.68h0c-3.2,1.2-6.8,0-8.1-2.5l-24.1-35c-2.5-3.6-.7-8.4,3.9-10.5h0c4.6-2,10-.6,12,3.2l19.8,37.9c1.3,2.6-.3,5.7-3.5,6.9h0Z"/>
        <path class="cls-1" d="M98.33,53.38l3.2-3.4c1.8-1.9,5.6-.1,5.5,2.4,0,.8-.3,1.7-.8,2.6q-.33.6,0,0c-1.3,2.5-4.2,5.3-8.4,8.5l-1.9,1.7-2.7,2.4h0l-5.2-4.4h0l2.8-2.4v-.3c.1,0,6.1-10.8,6.1-10.8,0,0,2.9-3.2,1.5,3.6l-.1.1Z"/>
        <polygon class="cls-2" points="63.63 81.78 66.63 93.88 60.93 99.78 57.23 84.28 63.63 81.78"/>
      </g>
    </g>
  </g>
</svg>