<?xml version="1.0" encoding="UTF-8"?>
<svg id="Layer_1" xmlns="http://www.w3.org/2000/svg" xmlns:xlink="http://www.w3.org/1999/xlink" version="1.1" viewBox="0 0 750 500">
  <!-- Generator: Adobe Illustrator 29.3.1, SVG Export Plug-In . SVG Version: 2.1.0 Build 151)  -->
  <defs>
    <style>
      .st0 {
        fill: #b23946;
      }

      .st1 {
        fill: #273758;
      }

      .st2 {
        fill: #a9a9a9;
      }

      .st3 {
        fill: #534945;
      }

      .st4 {
        fill: #d4afaf;
      }

      .st5 {
        fill: #1c9254;
      }

      .st6 {
        fill: #e6e6e6;
      }

      .st7 {
        fill: #c69696;
      }

      .st8 {
        fill: #d9a2a0;
      }

      .st9 {
        fill: #e6d0cf;
      }

      .st10 {
        fill: #6f261b;
      }

      .st11 {
        fill: #73b1a9;
      }

      .st12 {
        fill: #98685e;
      }

      .st13, .st14, .st15 {
        isolation: isolate;
        opacity: .5;
      }

      .st13, .st16 {
        fill: #d9baba;
      }

      .st17 {
        fill: #6a625d;
      }

      .st14, .st18 {
        fill: #b2c0e7;
      }

      .st19 {
        fill: #8b2b0e;
      }

      .st20 {
        fill: #46536d;
      }

      .st15, .st21 {
        fill: #b84965;
      }

      .st22 {
        fill: #2c3a58;
      }

      .st23 {
        fill: #783640;
      }

      .st24 {
        fill: #fff;
      }

      .st25 {
        fill: #d4abab;
      }

      .st26 {
        fill: #caa1a2;
      }

      .st27 {
        fill: #443934;
      }

      .st28 {
        fill: #3f6138;
      }

      .st29 {
        fill: #a2776e;
      }

      .st30 {
        fill: #b3b3b3;
      }

      .st31 {
        fill: #f3fffd;
      }

      .st32 {
        fill: #7c4033;
      }

      .st33 {
        fill: #97675d;
      }

      .st34 {
        fill: #4f739f;
      }

      .st35 {
        fill: #d9b6b6;
      }

      .st36 {
        fill: #627ece;
      }

      .st37 {
        display: none;
      }

      .st38 {
        fill: #466e9f;
      }
    </style>
  </defs>
  <g id="leg5">
    <path class="st35" d="M697.3,409.6c0,18.7-1.3,38.3-1.9,38.3h-5.8l-4.5-38.3-3.3-28.8v-.6c0-.2,0-.4,0-.6,0-.4,0-.8,0-1.2.5-3.1,3.3-5.5,6.6-5.5s6.1,2.5,6.6,5.7c0,.9.3,1.7.5,2.5,1.3,6.1,1.8,17.1,1.8,28.5h0Z"/>
    <path class="st1" d="M688.4,454c0,1.2.7,2.1,1.6,2.7.6.4,22.7,2.4,23.3,2.2,5-2.4-17.6-11.2-17.6-11.2l-6.1.2s-1.3,4.9-1.1,6.2h-.1Z"/>
    <path class="st35" d="M689,386.5h0c3.8-.4,6.6-3.6,6.5-7.5l-.8-35.4c-.7-5.1-5.3-8.6-10.4-7.9h0c-5.1.7-8.6,5.3-7.9,10.4l5.3,33.8c.5,3.9,3.4,6.9,7.3,6.5h0Z"/>
  </g>
  <g id="leg4">
    <path class="st35" d="M664.7,409.6c0,18.7-1.3,38.3-1.9,38.3h-5.8l-4.5-38.3-3.3-28.8v-.6c0-.2,0-.4,0-.6,0-.4,0-.8,0-1.2.5-3.1,3.3-5.5,6.6-5.5s6.1,2.5,6.6,5.7c0,.9.3,1.7.5,2.5,1.3,6.1,1.8,17.1,1.8,28.5h0Z"/>
    <path class="st1" d="M655.8,454c0,1.2.7,2.1,1.6,2.7.6.4,22.7,2.4,23.3,2.2,5-2.4-17.6-11.2-17.6-11.2l-6.1.2s-1.3,4.9-1.1,6.2h-.1Z"/>
    <path class="st35" d="M658.1,385.9h0c3.4-1.6,5-5.6,3.7-9.2l-12.5-33.1c-2.3-4.5-7.9-6.3-12.4-4h0c-4.5,2.3-6.3,7.9-4,12.4l16.3,30.1c1.8,3.5,5.5,5.4,9,3.7h0Z"/>
  </g>
  <g id="leg3">
    <path class="st35" d="M623.4,409.6c0,18.7-1.3,38.3-1.9,38.3h-5.8l-4.5-38.3-3.3-28.8v-.6c0-.2,0-.4,0-.6,0-.4,0-.8,0-1.2.5-3.1,3.3-5.5,6.6-5.5s6.1,2.5,6.6,5.7c0,.9.3,1.7.5,2.5,1.3,6.1,1.8,17.1,1.8,28.5h0Z"/>
    <path class="st1" d="M614.5,454c0,1.2.7,2.1,1.6,2.7.6.4,22.7,2.4,23.3,2.2,5-2.4-17.6-11.2-17.6-11.2l-6.1.2s-1.3,4.9-1.1,6.2h-.1Z"/>
    <path class="st35" d="M619.6,384.1h0c2.3-3,1.9-7.3-1-9.9l-26.4-23.6c-4.2-3-9.9-2-12.9,2.2h0c-3,4.2-2,9.9,2.2,12.9l28.3,19.2c3.2,2.3,7.4,2.3,9.7-.9h.1Z"/>
  </g>
  <g id="leg2">
    <path class="st35" d="M579.3,409.6c0,18.7-1.3,38.3-1.9,38.3h-5.8l-4.5-38.3-3.3-28.8v-.6c0-.2,0-.4,0-.6,0-.4,0-.8,0-1.2.5-3.1,3.3-5.5,6.6-5.5s6.1,2.5,6.6,5.7c0,.9.3,1.7.5,2.5,1.3,6.1,1.8,17.1,1.8,28.5h0Z"/>
    <path class="st1" d="M570.4,454c0,1.2.7,2.1,1.6,2.7.6.4,22.7,2.4,23.3,2.2,5-2.4-17.6-11.2-17.6-11.2l-6.1.2s-1.3,4.9-1.1,6.2h-.1Z"/>
    <path class="st35" d="M576.1,382.5h0c1.4-3.6-.2-7.6-3.6-9.2l-31.8-15.4c-4.8-1.7-10.1.8-11.8,5.6h0c-1.7,4.8.8,10.1,5.6,11.8l32.5,10.7c3.7,1.3,7.7.2,9.1-3.5Z"/>
  </g>
  <g id="leg1">
    <path class="st35" d="M528.8,416.8c-1.2,16.1-3.6,33-4.2,32.9l-5.8-.4-2.1-33.4-1.6-25.1v-1.1c0-.3,0-.7.2-1,.7-2.6,3.6-4.5,6.9-4.3,3.3.2,6,2.6,6.2,5.4,0,.7.2,1.5.3,2.2,1,5.4.8,14.9,0,24.7h0Z"/>
    <path class="st1" d="M517.9,454.7c0,1,.7,1.9,1.6,2.4.6.4,22.7,2.1,23.3,1.9,5-2-17.6-9.7-17.6-9.7h-6.1c0,.1-1.3,4.4-1.1,5.5h-.1Z"/>
    <path class="st35" d="M528.3,391h0c0-3.8-3.1-7-6.9-7.2l-35.3-2.6c-5.1.2-9,4.5-8.8,9.6h0c.3,5.1,4.6,9.1,9.7,8.9l34.2-2c4-.1,7.2-2.7,7.1-6.6h0Z"/>
  </g>
  <g id="hand8">
    <path class="st16" d="M417.2,413.5v10.4s7.7,8.2,19.6,4.5c0,0,5.7-2,.9-4.5,0,0,4.7-.7,2.5-3.9,0,0,4.1-1.5,1.2-4.6,0,0,5.1-3.9-6.8-3.9h-1.4s1.9-1.9,2.8-4.1c1.2-3.1-3.3-5.2-4.9-2.3-.1.2-.2.4-.3.6-.9,2-2.1,3.8-3.9,5.1-1.6,1.2-6.8,2.3-9.6,2.6h-.1Z"/>
    <g>
      <path class="st9" d="M441.1,415.7h-6.1c-1.2,0-2.2-.9-2.2-2.1h0c0-1.1,1-2.1,2.2-2.1h6.1c1.2,0,2.2.9,2.2,2.1h0c0,1.1-1,2.1-2.2,2.1Z"/>
      <path class="st9" d="M439.2,423.8h-6.6c-1.3,0-2.4-.9-2.4-2.1h0c0-1.1,1.1-2.1,2.4-2.1h6.6c1.3,0,2.4.9,2.4,2.1h0c0,1.1-1.1,2.1-2.4,2.1Z"/>
      <path class="st9" d="M438.3,427.8h-6.6c-1.3,0-2.4-.9-2.4-2.1h0c0-1.1,1.1-2.1,2.4-2.1h6.6c1.3,0,2.4.9,2.4,2.1h0c0,1.1-1.1,2.1-2.4,2.1Z"/>
      <path class="st9" d="M440.3,419.9h-6.6c-1.3,0-2.4-.9-2.4-2.1h0c0-1.1,1.1-2.1,2.4-2.1h6.6c1.3,0,2.4.9,2.4,2.1h0c0,1.1-1.1,2.1-2.4,2.1Z"/>
    </g>
  </g>
  <g id="hand7">
    <path class="st16" d="M386.5,418s0,17.4,9.4,16.4c0,0,9.6,1.2,6.6-17.7l-16,1.3h0Z"/>
    <path class="st16" d="M397.7,421.8h0c-1.3,0-2.3-1-2.3-2.3v-17.1c0-1.3,1-2.3,2.3-2.3h0c1.3,0,2.3,1,2.3,2.3v17.1c0,1.3-1,2.3-2.3,2.3Z"/>
    <path class="st16" d="M396,421.2h0c-1.2.4-2.5-.2-2.9-1.4l-5.4-16.3c-.4-1.2.2-2.5,1.4-2.9h0c1.2-.4,2.5.2,2.9,1.4l5.4,16.3c.4,1.2-.2,2.5-1.4,2.9Z"/>
    <path class="st9" d="M389.3,424.3h0c-1.1.6-2.5.1-3.1-1l-3.5-6.7c-.6-1.1-.1-2.5,1-3.1h0c1.1-.6,2.5-.1,3.1,1l3.5,6.7c.6,1.1.1,2.5-1,3.1Z"/>
    <path class="st9" d="M398,424.5h0c1.1.6,2.7-.2,3.5-1.8l2.6-5.1c.8-1.6.6-3.3-.6-3.9h0c-1.1-.6-2.7.2-3.5,1.8l-2.6,5.1c-.8,1.6-.6,3.3.6,3.9Z"/>
    <path class="st9" d="M393,422.1h0c-1.1.6-2.5.1-3.1-1l-3.5-6.7c-.6-1.1-.1-2.5,1-3.1h0c1.1-.6,2.5-.1,3.1,1l3.5,6.7c.6,1.1.1,2.5-1,3.1Z"/>
  </g>
  <path id="hand6" class="st16" d="M351.9,418.1v-18.3c0-1.3.9-2.3,2-2.3h0c1.1,0,2,1,2,2.3v12.9s2.3-3.8,5.2-.2c0,0,4.4-4.2,5.3,2.2l-2.1,18.4h-9.4s-10.1-16.9-7.7-18.5c0,0,0-2.1,4.7,3.5Z"/>
  <path id="hand5" class="st16" d="M325,405c-4,0-12.6,1.3-19.4,8.8-1,1.1,0,2.8,1.4,2.5h0s-3.2,1.7-.3,5c0,0-1.4,4.8,3.7,2.4l11.9-4.8s-2.6,2.6-4,4.7c-.7,1.1.4,2.4,1.5,1.9,1.3-.5,3.4-1.7,6.5-4.2,0,0,13.3-11.5,2.8-15.7-1.5-.6-2.7-.6-4.3-.5h.2Z"/>
  <g id="hand4">
    <path class="st16" d="M414.8,377.1c-.5,1.7-.4,4.6.4,6.2,1,2.2,3.4,4.2,8.9,2.8,2.1-.5,4.1-1.5,5.8-2.8l4.9-3.5s1.9-1.2,5.1-.9c1.2.1,2.2-.9,2.1-2.1-.2-1.6-1.2-4.2-8.6-2.4,0,0,5.3-2.7,8.7-2.2,1.1.2,2.3-.4,2.8-1.5.5-1.2.2-2.7-4.3-3.3,0,0-2.7-.7-7.7.7,0,0,1.1-2.4,6.2-2.6,1.2,0,2.3-.5,3-1.5.8-1.1,1.1-2.5-1.3-3.3-1-.3-2-.4-3-.3-3.5.4-12.7,2-16.4,7.5,0,0-5.5,4.5-6.7,8.8v.4Z"/>
    <g>
      <path class="st22" d="M434.6,387.7l-10.5-1.1c-1.6-.2-2.7-1.6-2.6-3.2l2.8-27.4c.2-1.6,1.6-2.7,3.2-2.6l10.5,1.1c1.6.2,2.7,1.6,2.6,3.2l-2.8,27.4c-.2,1.6-1.6,2.7-3.2,2.6Z"/>
      <rect class="st31" x="419.2" y="363.2" width="24.1" height="14" transform="translate(18.7 761.1) rotate(-84.1)"/>
      <path class="st24" d="M438.7,357.2c0,.4-.4.7-.8.7s-.7-.4-.7-.8.4-.7.8-.7.7.4.7.8Z"/>
      <path class="st31" d="M431.1,384.7c0,.8-.8,1.4-1.7,1.4s-1.4-.8-1.4-1.7.8-1.4,1.7-1.4,1.4.8,1.4,1.7Z"/>
    </g>
    <path class="st16" d="M416.4,373.7s7-10.4,10.6-10.2h0c1.4.2,1.2,2.7-.2,4.1l-6.7,6.4-3.7-.2h0Z"/>
  </g>
  <g id="hand3">
    <path class="st16" d="M391.3,380.5l-.4,6.9h9.2v-19.5c0-1.2-.2-2.5-.5-3.9-1-4-5.8-5.8-9.1-3.4-2.2,1.6-4.5,3.3-4.9,3.9-1.8,2.8.9,4.3,4.2,4.3h3.3l-1.8,11.7h0Z"/>
    <path class="st0" d="M378.1,377.8s1.3-2.3,1.9-2.6l24.1-13.9c.5-.3,1.2-.1,1.5.4h0c.3.5.1,1.2-.4,1.5l-24.1,13.9c-.5.3-3,.6-3,.6h0Z"/>
    <path class="st16" d="M393.6,381.5h0c-1.2.3-2.5-.7-3-2.4l-2.2-7.8c-.5-1.6.1-3.3,1.3-3.6h0c1.2-.3,2.5.7,3,2.4l2.2,7.8c.5,1.6-.1,3.3-1.3,3.6Z"/>
  </g>
  <g id="hand2">
    <g>
      <path class="st20" d="M358.6,362.3h-9.2c-1.2,0-2.2,1-2.2,2.2v13.6h13.6v-13.6c0-1.2-1-2.2-2.2-2.2h0Z"/>
      <path class="st22" d="M358.8,364.5h-9.5c-1.1,0-2.1.9-2.1,2.1v11.6h13.6v-11.6c0-1.1-.9-2.1-2.1-2.1h.1Z"/>
      <path class="st0" d="M355.5,369c0,.8-.7,1.5-1.5,1.5s-1.5-.7-1.5-1.5.7-1.5,1.5-1.5,1.5.7,1.5,1.5Z"/>
      <path class="st24" d="M355.2,369c0,.6-.5,1.2-1.2,1.2s-1.2-.5-1.2-1.2.5-1.2,1.2-1.2,1.2.5,1.2,1.2Z"/>
      <path class="st24" d="M358.6,366c0,.3-.2.5-.5.5s-.5-.2-.5-.5.2-.5.5-.5.5.2.5.5Z"/>
      <path class="st24" d="M357.2,366c0,.3-.2.5-.5.5s-.5-.2-.5-.5.2-.5.5-.5.5.2.5.5Z"/>
    </g>
    <path class="st16" d="M364.4,365.9c-4,2-4.3,7.6-4.3,10h-13.5c-1.2,0-2.1.9-2.1,2.1s.9,2,2,2.1v5.9c0,2,1.4,3.9,3.4,3.9,9.4.3,14.8,0,14.8,0l1.5-18.6c.9-7.2-1.8-5.6-1.8-5.6v.2Z"/>
  </g>
  <path id="hand1" class="st16" d="M305.7,375.7l1.5-7.3c.3-1.5,1.9-5.3,3.2-6.1,1.6-1.1,1.2,2.2.1,9l9.7-5s6.8-1.9,3.6,3.3c0,0,7.4-.5,3,4.4,0,0,6.6.3,0,5.5l-6.7,4.5c-2.3,1.5-5.1,2.3-7.8,2-2.7-.3-5.5-1.7-6.5-5.5-.4-1.5-.3-3.1,0-4.7h-.1Z"/>
  <g id="arm6">
    <path class="st35" d="M226.7,405.5h0c-4.8.7-8.9-3.9-8-9.2l6.6-32.9c.9-5.2,5.5-8.7,10.3-7.8h0c5.6,1,8.9,7.3,7,13l-10.2,31.8c-.9,2.7-3.1,4.6-5.7,5h0Z"/>
    <path class="st6" d="M228.8,357.2c-3.7,3.9-7.8,11.7-9.2,27.2l17.9,5.1s8.6-22.4,5.9-30.1c-1.9-5.3-10.5-6.6-14.5-2.2h0Z"/>
    <path class="st35" d="M222.3,392.9h0c1.7-.8,3.7-.8,5.3.2l32.7,18.5-5.2,8.1-32.6-14.4c-5-2.2-5.1-9.9-.2-12.3h0Z"/>
    <path class="st35" d="M270.5,417.2l-10.8-5.9-5.2,8.1c.1,0,.3.1.4.2,2,12,8.7,15.5,8.7,15.5,6.4,3.5,7.8,1.5,7.8-.5s-.6-2.8-1.5-3.9c-4.2-4.5-7-12.9-7-12.9,9.8,3.3,7.6-.5,7.6-.5h0Z"/>
  </g>
  <g id="arm5">
    <path class="st35" d="M179.7,402.6h0c-4.9,0-8.3-5.1-6.7-10l10.8-30.7c1.6-4.9,6.5-7.5,11.1-6h0c5.4,1.8,7.9,8.3,5.3,13.6l-14.2,29.1c-1.2,2.5-3.6,4-6.3,4h0Z"/>
    <path class="st6" d="M187.5,355.9c-4,3.6-8.9,10.9-11.8,26.2l17.3,6.8s10.7-21.4,8.8-29.3c-1.3-5.5-9.8-7.5-14.3-3.6h0Z"/>
    <path class="st35" d="M178.7,389.5h0c1.9,0,3.6.9,4.8,2.5l22.9,30.6-7.8,4.9-24.3-27c-3.7-4.1-1-11,4.4-11h0Z"/>
    <path class="st35" d="M213.6,432.1l-7.7-9.9-7.8,4.9c.1.1.2.2.3.3-2.7,11.5,2.1,17.5,2.1,17.5,4.5,5.9,6.5,4.8,7.3,2.9.6-1.3.5-2.8,0-4.1-2.1-5.8-1.5-14.5-1.5-14.5,7.7,7.2,7.1,2.9,7.1,2.9h.2Z"/>
  </g>
  <g id="arm4">
    <path class="st35" d="M153.5,405.3h0c-4.3,1.5-8.3-2.2-8.3-7.4l.2-33.2c0-5.2,3.5-9.3,8-9.2h0c5.2,0,9.3,5.7,8.5,11.6l-4,32.5c-.4,2.8-2,5-4.3,5.8h0Z"/>
    <path class="st6" d="M145.6,358.5c-2.5,4.8-4.5,13.4-1.7,28.7l18.6.2s2.4-23.8-2.2-30.5c-3.2-4.6-11.8-3.6-14.6,1.7h-.1Z"/>
    <path class="st35" d="M155.3,394.6h0c1.5,1.2,2.4,3.1,2.4,5.1l.9,39.8-9-1.1-4.1-37.7c-.6-5.8,5.5-9.5,9.7-6h.1Z"/>
    <path class="st35" d="M158.9,451.8l-.5-13-9-1.1v.5c-8.6,7.6-8.2,15.6-8.2,15.6.3,7.7,2.5,8.1,4.2,7.2,1.2-.7,2-1.9,2.4-3.3,1.6-6.1,7-12.8,7-12.8,2,10.8,4,6.9,4,6.9h.1Z"/>
  </g>
  <g id="arm3">
    <path class="st35" d="M115.2,405.2h0c-4.4,1.1-8.1-2.8-7.8-8.1l2.5-33.1c.3-5.2,4.2-9,8.6-8.5h0c5.2.5,8.9,6.4,7.7,12.2l-6.3,32c-.6,2.7-2.4,4.8-4.7,5.4h0Z"/>
    <path class="st6" d="M110.4,359.1c-3,4.5-5.9,12.8-4.8,28.3l18.4,2.2s5-23.4,1.1-30.6c-2.7-4.9-11.4-4.9-14.7.1Z"/>
    <path class="st35" d="M117.4,394.4h0c1.5,1.2,2.4,3.1,2.4,5.1l.9,39.8-9-1.1-4.1-37.7c-.6-5.8,5.5-9.5,9.7-6h0Z"/>
    <path class="st35" d="M121,451.6l-.5-13-9-1.1v.5c-8.6,7.6-8.2,15.6-8.2,15.6.3,7.7,2.5,8.1,4.2,7.2,1.2-.7,2-1.9,2.4-3.3,1.6-6.1,7-12.8,7-12.8,2,10.8,4,6.9,4,6.9h0Z"/>
  </g>
  <g id="arm2">
    <path class="st35" d="M77.1,404.8h0c-4.4.7-7.8-3.6-7-8.8l5.3-32.7c.8-5.1,4.9-8.5,9.3-7.6h0c5.1,1,8.3,7.3,6.6,12.9l-9,31.3c-.8,2.7-2.8,4.5-5.2,4.9h0Z"/>
    <path class="st6" d="M76.7,357.4c-3.3,4.2-6.8,12.4-6.8,27.9l18.2,3.5s6.6-23.1,3.2-30.5c-2.3-5.1-11-5.6-14.7-.9h.1Z"/>
    <path class="st35" d="M79.7,393.8h0c1.5,1.2,2.4,3.1,2.4,5.1l.9,39.8-9-1.1-4.1-37.7c-.6-5.8,5.5-9.5,9.7-6h0Z"/>
    <path class="st35" d="M83.4,451l-.5-13-9-1.1v.5c-8.6,7.6-8.2,15.6-8.2,15.6.3,7.7,2.5,8.1,4.2,7.2,1.2-.7,2-1.9,2.4-3.3,1.6-6.1,7-12.8,7-12.8,2,10.8,4,6.9,4,6.9h0Z"/>
  </g>
  <g id="arm1">
    <path class="st35" d="M49.3,394.5h0c1.5,1.2,2.4,3.1,2.4,5.1l.9,39.8-9-1.1-4.1-37.7c-.6-5.8,5.5-9.5,9.7-6h0Z"/>
    <path class="st35" d="M53,451.7l-.5-13-9-1.1v.5c-8.6,7.6-8.2,15.6-8.2,15.6.3,7.7,2.5,8.1,4.2,7.2,1.2-.7,2-1.9,2.4-3.3,1.6-6.1,7-12.7,7-12.7,2,10.8,4,6.9,4,6.9h0Z"/>
    <g>
      <path class="st35" d="M48.1,405.3h0c-4.2,1.5-8.8-2.3-8.8-7.5l.2-33c0-5.2,3.4-9.3,7.9-9.3h0c5.2,0,9.4,5.5,8.6,11.4l-4.3,31.8c-.3,2.8-1.3,5.7-3.6,6.5h0Z"/>
      <path class="st6" d="M40,357.6c-2.7,4.6-5.2,13.1-3.2,28.5l18.5,1.2s2.4-25.5-.6-30.6c-2.8-4.8-11.6-4.2-14.7.9Z"/>
    </g>
  </g>
  <g id="phone">
    <path class="st22" d="M719.9,324.6h-13.9c-2.1,0-3.8-1.7-3.8-3.8v-36.3c0-2.1,1.7-3.8,3.8-3.8h13.9c2.1,0,3.8,1.7,3.8,3.8v36.3c0,2.1-1.7,3.8-3.8,3.8Z"/>
    <rect class="st31" x="703.6" y="285.9" width="18.5" height="31.9"/>
    <path class="st24" d="M721.1,283.9c0,.5-.4,1-1,1s-1-.4-1-1,.4-1,1-1,1,.4,1,1Z"/>
    <path class="st31" d="M714.9,321.1c0,1.1-.9,2-2,2s-2-.9-2-2,.9-2,2-2,2,.9,2,2Z"/>
  </g>
  <g id="books">
    <g>
      <path class="st0" d="M690.7,278.1v49.1c0,.7.6,1.3,1.3,1.3h0c.7,0,1.3-.6,1.3-1.3v-49.1c0-.7-.6-1.3-1.3-1.3h0c-.7,0-1.3.6-1.3,1.3Z"/>
      <path class="st0" d="M683.6,278.1v49.1c0,.7.6,1.3,1.3,1.3h0c.7,0,1.3-.6,1.3-1.3v-49.1c0-.7-.6-1.3-1.3-1.3h0c-.7,0-1.3.6-1.3,1.3Z"/>
      <rect class="st6" x="686.2" y="278.1" width="4.5" height="49.1"/>
    </g>
    <g>
      <path class="st34" d="M681,278.1v49.1c0,.7.6,1.3,1.3,1.3h0c.7,0,1.3-.6,1.3-1.3v-49.1c0-.7-.6-1.3-1.3-1.3h0c-.7,0-1.3.6-1.3,1.3Z"/>
      <path class="st34" d="M674,278.1v49.1c0,.7.6,1.3,1.3,1.3h0c.7,0,1.3-.6,1.3-1.3v-49.1c0-.7-.6-1.3-1.3-1.3h0c-.7,0-1.3.6-1.3,1.3Z"/>
      <rect class="st6" x="676.5" y="278.1" width="4.5" height="49.1"/>
    </g>
    <g>
      <path class="st11" d="M671.4,278.1v49.1c0,.7.6,1.3,1.3,1.3h0c.7,0,1.3-.6,1.3-1.3v-49.1c0-.7-.6-1.3-1.3-1.3h0c-.7,0-1.3.6-1.3,1.3Z"/>
      <path class="st11" d="M664.3,278.1v49.1c0,.7.6,1.3,1.3,1.3h0c.7,0,1.3-.6,1.3-1.3v-49.1c0-.7-.6-1.3-1.3-1.3h0c-.7,0-1.3.6-1.3,1.3Z"/>
      <rect class="st6" x="666.9" y="278.1" width="4.5" height="49.1"/>
    </g>
  </g>
  <g id="computer">
    <path class="st2" d="M637.9,319.9h-49.2c-3.2,0-5.7,2.6-5.7,5.7h60.7c0-3.2-2.6-5.7-5.7-5.7h0Z"/>
    <path class="st30" d="M601.7,317.2l10.7-35.4c.4-1.4,1.7-2.3,3.1-2.3h37.7c2.2,0,3.8,2.2,3.1,4.2l-11.8,35.4c-.4,1.3-1.7,2.2-3.1,2.2h-36.5c-2.2,0-3.7-2.1-3.1-4.1h-.1Z"/>
    <path class="st24" d="M636,300.2c0,2.1-1.7,3.7-3.7,3.7s-3.7-1.7-3.7-3.7,1.7-3.7,3.7-3.7,3.7,1.7,3.7,3.7Z"/>
  </g>
  <g id="pen">
    <path class="st18" d="M592.5,302.6c0,.9-.3,1.6-.9,2.2-.6.6-1.3.9-2.2.9h-26.5v-6.2h26.5c1.7,0,3.1,1.4,3.1,3.1h0Z"/>
    <rect class="st21" x="585.7" y="299.5" width="2.9" height="6.2"/>
    <rect class="st21" x="581.1" y="299.5" width="2.9" height="6.2"/>
    <polygon class="st21" points="562.8 305.7 562.8 299.5 558.7 302.6 562.8 305.7"/>
  </g>
  <g id="pencils">
    <g>
      <path class="st0" d="M544.8,318.9l-2.2,2.9-1.3-3.4,5.6-39.3c0-1,1-1.6,2-1.5h0c1,.1,1.6,1,1.5,2l-5.6,39.3Z"/>
      <path class="st5" d="M539.4,280.5l2-3,1.4,3.3-3.8,39.5c0,1-.9,1.7-1.9,1.6h0c-1,0-1.7-.9-1.6-1.9l3.8-39.5h0Z"/>
      <path class="st18" d="M536.2,318.6l-1.5,3.3-2-3-3.4-39.6c0-1,.6-1.8,1.6-1.9h0c1,0,1.8.6,1.9,1.6l3.4,39.6Z"/>
      <path class="st22" d="M524.6,280.6l1.7-3.2,1.7,3.2v39.7c0,1-.8,1.7-1.7,1.7h0c-1,0-1.7-.8-1.7-1.7v-39.7Z"/>
    </g>
    <rect class="st21" x="522.5" y="298" width="27.1" height="29.8"/>
  </g>
  <g id="backpack">
    <path class="st18" d="M514.1,290.6v37.2c0,2.5-2,4.5-4.5,4.5h-34.5c-2.5,0-4.5-2-4.5-4.5v-37.2c0-2.8.8-5.5,2.1-7.8,2.3-4,6.3-6.9,11-7.7.9-.2,1.8-.2,2.7-.2h12c.7,0,1.5,0,2.2.2h0c5.1.7,9.4,3.8,11.7,8.2,1.2,2.2,1.9,4.7,1.9,7.4h-.1Z"/>
    <path class="st21" d="M509.6,332.2h-34.5c-2.5,0-4.5-2-4.5-4.5v-12.8c0-7,5.7-12.7,12.7-12.7h18.1c7,0,12.7,5.7,12.7,12.7v12.8c0,2.5-2,4.5-4.5,4.5h0Z"/>
    <path class="st21" d="M498.1,293.2h-11.7c-2.5,0-4.5-2-4.5-4.5v-2.2c0-2.5,2-4.5,4.5-4.5h11.7c2.5,0,4.5,2,4.5,4.5v2.2c0,2.5-2,4.5-4.5,4.5Z"/>
    <path class="st18" d="M493.9,311.8h-2c-1.2,0-2.1-1-2.1-2.1h0c0-1.2,1-2.1,2.1-2.1h2c1.2,0,2.1,1,2.1,2.1h0c0,1.2-1,2.1-2.1,2.1Z"/>
    <rect class="st1" x="470.6" y="315" width="43.5" height="1.1"/>
    <path class="st21" d="M512.2,283.2c-2.3-4.3-6.6-7.5-11.7-8.2,0,0,3-1.5,6.2-1.9,5.6-.8,9.2,5.8,5.5,10.1Z"/>
    <path class="st21" d="M483.8,275h-.1c-4.7.9-8.7,3.8-11,7.8l-.6.4c-3.7-4.3,0-10.9,5.5-10.1,3.3.4,6.2,1.9,6.2,1.9h0Z"/>
  </g>
  <g id="girl-angry">
    <path class="st19" d="M615.6,223.5c0-4.7-2.2-8.3-4-12.1-.8-1.7-1.6-4.7-2.8-6-1.6-1.7-5.4-.9-7.4-1-7.4-.3-14.8.2-22.2,1.1-2.3.3-3.7-.6-4.6,2.7-.6,2.1-1,2.9-1,2.9-2.3,4-6.1,6.4-7.5,11.5-1.1,4.1-.6,9.2,1.8,12.1,0-1.6.2-3.7.5-5.1,1.6,1.2,2.7,3.6,4.3,5s3.4,2.6,5.2,3.3c.2-1.4-.3-3.3,0-4.5,1.3,3.2,4.5,4.6,6.9,6,0-1.9-.5-4.3,1.1-3.2.4.3,1,1.6,1.5,2s1.1.8,1.7,1.1c1.8,1.1,2.6,1.4,4.3,0,1.2-1.1,2.7-2.6,3.7-4,.6,1.2.3,3.2.3,4.6,2,0,4.4-2.4,5.7-4.3.3,1.1,0,2.3.3,3.4,2.6-.3,7.2-5.1,8.4-8,1.2,1.1,2.2,3.6,1.9,5.5,2.1-3.5,2.1-8.8,2.1-13.1h-.2Z"/>
    <path class="st26" d="M586.8,242.3h0c1.9,3.4,6.7,3.3,8.4,0h0c.4-.7.5-1.4.5-2.2v-13.1h-9.6v13c0,.8.2,1.6.6,2.4h0Z"/>
    <path class="st16" d="M612.4,211.8c-.9,1.4-2.2,2.4-3.5,2.6h-1.1c-.4,3.7-1.7,7.1-3.6,9.9-3.6,5.4-9,8.7-13,8.5h-.9c-4.3,0-9.2-3-12.6-7.9-1.9-2.7-3.3-6.1-3.9-9.8h-.3c-1.3-.1-2.8-1.1-3.7-2.5-.2-.2-.3-.5-.4-.7-.2-.4-.3-.7-.4-1h0c-.3-1.4,0-2.6,1.1-3.1h0c1-.4,2.2-.1,3.3.7.8-11.3,7.9-21.3,16.6-21.5,2.7,0,5.2.7,7.5,2.1,5.3,3.3,9.2,11.2,10.1,19.2.5-.5,1.1-.9,1.7-1.2.8-.4,1.6-.4,2.3-.1,1.6.6,1.8,2.8.6,4.8h.2Z"/>
    <g>
      <path class="st1" d="M584,207.7c0,.9.7,1.6,1.5,1.6s1.5-.7,1.5-1.6-.7-1.6-1.5-1.6-1.5.7-1.5,1.6Z"/>
      <path class="st1" d="M595.4,207.7c0,.9.7,1.6,1.5,1.6s1.5-.7,1.5-1.6-.7-1.6-1.5-1.6-1.5.7-1.5,1.6Z"/>
      <path class="st1" d="M592.4,216.7h-.7c-.3,0-.5-.3-.5-.6s.3-.5.6-.5h.6c.6,0,.9-.4,1-.8,0-.4,0-.9-.6-1.1,0,0-.3-.1-.4-.1-.7-.2-1.2-.8-1.2-1.6v-1.2c0-.3.2-.5.5-.5s.5.2.5.5v1.2c0,.3.2.5.4.6.2,0,.4.1.6.2.9.4,1.4,1.3,1.2,2.3-.2.8-.9,1.6-2,1.6h0Z"/>
      <path class="st8" d="M603.1,211.2c1.9.1,3.4,1.8,3.3,3.7,0,1.9-1.8,3.4-3.7,3.3-1.9-.1-3.4-1.8-3.3-3.7s1.8-3.4,3.7-3.3Z"/>
      <circle class="st8" cx="579.2" cy="214.7" r="3.5"/>
      <path class="st1" d="M586,202c-.2,0-.4,0-.5.3-1.6,3-4.4,1.7-4.5,1.7-.3-.1-.6,0-.7.3,0,.3,0,.6.3.7,1.3.6,4.2,1,5.9-2.1,0-.3,0-.6-.2-.7h-.2v-.2Z"/>
      <path class="st1" d="M600.5,203.8c0-.1-.3-.2-.5-.1-2.7,1-3.7-1.3-3.8-1.4,0-.2-.4-.3-.6-.2-.2.1-.3.4-.2.6.5,1.1,2.2,3,4.9,1.9.2,0,.4-.3.3-.6,0,0,0-.1,0-.2h0Z"/>
      <path class="st1" d="M594.5,224.1h0c-.3.1-.6-.2-.6-.4l-.3-.8c-.3-.8-.9-1.3-1.6-1.6s-1.6-.3-2.3,0c-.6.2-1,.7-1.4,1.2-.1.3-.5.4-.7.2-.3-.1-.4-.5-.2-.7.5-.8,1.1-1.3,1.8-1.7,1-.4,2.1-.4,3.1,0,1,.4,1.8,1.2,2.2,2.1l.4,1.1c0,.2-.2.5-.3.5h0Z"/>
    </g>
    <path class="st19" d="M611.1,215.9c-.3-3.2-.8-8.7-1.1-11.2,0-.9,0-1.7-.2-2.6-.3-6.5-2.4-13.6-7.2-17.2-3.4-2.6-6.5-.4-10.2-1.2-7.1-1.4-15.4,1.7-19.2,8.4-2.3,4-2.7,8.7-1.9,13.2,0,0,.5,8.5.3,10.5-.3,3.4-1.2,9.6.9,12.6,1,1.4,4.1,3.7,5.6,4.5.3-2.2-1.7-4.2-2.1-6.3-.5-2.3-.3-4.8-.3-7.2,0-4.3-.4-8.5-.2-12.8v-1.3c0-.2.2-.4.3-.5,1.1-1.8,2.4-3.4,3.9-4.8,1.6-1.5,3.5-2.3,5.2-3.7,1.6,1.4,3.1,2.9,4.9,4,2.2,1.3,5.2,2.4,7.7,2.6-.3-.6-1-1.2-1.5-1.8-.2-.3-.4-.8-.6-1.1,1.3,1.5,3.5,2.7,5.1,3.8,1.5,1.1,3.4,1.6,5.1,2.2,0-.6-1.5-3.3-1.9-4.1.6.8,1.5,1.3,2,2.1.6.8,1,1.7,1.4,2.5h0c.2,4.4-.2,8.6-.2,12.9s.2,4.9-.3,7.2c-.5,2.1-2.5,4.1-2.1,6.3,1.5-.8,4.6-3.1,5.6-4.5,2.1-2.9,1.2-9.2.9-12.6h0Z"/>
  </g>
  <g id="girl-smiling">
    <path class="st19" d="M517.2,222.1c0-4.7-2.2-8.3-4-12.1-.8-1.7-1.6-4.7-2.8-6-1.6-1.7-5.4-.9-7.4-1-7.4-.3-14.8.2-22.2,1.1-2.3.3-3.7-.6-4.6,2.7-.6,2.1-1,2.9-1,2.9-2.3,4-6.1,6.4-7.5,11.5-1.1,4.1-.6,9.2,1.8,12.1,0-1.6.2-3.7.5-5.1,1.6,1.2,2.7,3.6,4.3,5s3.4,2.6,5.2,3.3c.2-1.4-.3-3.3,0-4.5,1.3,3.2,4.5,4.6,6.9,6,0-1.9-.5-4.3,1.1-3.2.4.3,1,1.6,1.5,2s1.1.8,1.7,1.1c1.8,1.1,2.6,1.4,4.3,0,1.2-1.1,2.7-2.6,3.7-4,.6,1.2.3,3.2.3,4.6,2,0,4.4-2.4,5.7-4.3.3,1.1,0,2.3.3,3.4,2.6-.3,7.2-5.1,8.4-8,1.2,1.1,2.2,3.6,1.9,5.5,2.1-3.5,2.1-8.8,2.1-13.1h-.2Z"/>
    <path class="st26" d="M488.7,242.3h0c1.9,3.4,6.7,3.3,8.4,0h0c.4-.7.5-1.4.5-2.2v-13.1h-9.6v13c0,.8.2,1.6.6,2.4h.1Z"/>
    <path class="st16" d="M514.3,211.8c-.9,1.4-2.2,2.4-3.5,2.6h-1.1c-.4,3.7-1.7,7.1-3.6,9.9-3.6,5.4-9,8.7-13,8.5h-.9c-4.3,0-9.2-3-12.6-7.9-1.9-2.7-3.3-6.1-3.9-9.8h-.3c-1.3-.1-2.8-1.1-3.7-2.5-.2-.2-.3-.5-.4-.7-.2-.4-.3-.7-.4-1h0c-.3-1.4,0-2.6,1.1-3.1h0c1-.4,2.2-.1,3.3.7.8-11.3,7.9-21.3,16.6-21.5,2.7,0,5.2.7,7.5,2.1,5.3,3.3,9.2,11.2,10.1,19.2.5-.5,1.1-.9,1.7-1.2s1.6-.4,2.3-.1c1.6.6,1.8,2.8.6,4.8h.2Z"/>
    <g>
      <path class="st1" d="M485.9,207.7c0,.9.7,1.6,1.5,1.6s1.5-.7,1.5-1.6-.7-1.6-1.5-1.6-1.5.7-1.5,1.6Z"/>
      <path class="st1" d="M497.3,207.7c0,.9.7,1.6,1.5,1.6s1.5-.7,1.5-1.6-.7-1.6-1.5-1.6-1.5.7-1.5,1.6Z"/>
      <path class="st1" d="M494.3,215.7h-.7c-.3,0-.5-.3-.5-.6s.3-.5.6-.5h.6c.6,0,.9-.4,1-.8,0-.4,0-.9-.6-1.1-.1,0-.3-.1-.4-.1-.7-.2-1.2-.8-1.2-1.6v-1.2c0-.3.2-.5.5-.5s.5.2.5.5v1.2c0,.3.2.5.4.6.2,0,.4.1.6.2.9.4,1.4,1.3,1.2,2.3-.2.8-.9,1.6-2,1.6h0Z"/>
      <circle class="st8" cx="504.8" cy="214.7" r="3.5"/>
      <path class="st8" d="M481.3,211.2c1.9.1,3.4,1.8,3.3,3.7s-1.8,3.4-3.7,3.3c-1.9-.1-3.4-1.8-3.3-3.7s1.8-3.4,3.7-3.3Z"/>
      <path class="st1" d="M495,223c-1,.4-2.1.4-3,.2-2.5-.6-3.5-3-3.7-3-.1-.3,0-.5.3-.7.3-.1.5,0,.7.3,0,0,.9,2,2.9,2.4,1.6.4,3.5-.4,5.5-2.2.2-.2.6-.2.8,0s.2.6,0,.8c-1.2,1.1-2.4,1.7-3.5,2.1h0Z"/>
      <path class="st1" d="M482.5,205.3c.2,0,.4,0,.5-.3,1.6-3,4.4-1.8,4.5-1.7.3.1.6,0,.7-.3s0-.6-.3-.7c-1.3-.6-4.3-.9-5.9,2.2-.1.3,0,.6.2.7h.3Z"/>
      <path class="st1" d="M497.1,202.8c.1.1.3.2.5,0,2.7-1,3.8,1.3,3.8,1.4.1.2.4.3.6.2s.3-.4.2-.6c-.5-1.1-2.2-2.9-5-1.8-.2,0-.3.4-.3.6,0,0,0,.1.1.2h0Z"/>
    </g>
    <path class="st19" d="M512.6,215.9c-.3-3.2-.8-8.7-1.1-11.2,0-.9-.1-1.7-.2-2.6-.3-6.5-2.4-13.6-7.2-17.2-3.4-2.6-6.5-.4-10.2-1.2-7.1-1.4-15.4,1.7-19.2,8.4-2.3,4-2.7,8.7-1.9,13.2,0,0,.5,8.5.3,10.5-.3,3.4-1.2,9.6.9,12.6,1,1.4,4.1,3.7,5.6,4.5.3-2.2-1.7-4.2-2.1-6.3-.5-2.3-.3-4.8-.3-7.2,0-4.3-.4-8.5-.2-12.8v-1.3c.1-.2.2-.4.3-.5,1.1-1.8,2.4-3.4,3.9-4.8,1.6-1.5,3.5-2.3,5.2-3.7,1.6,1.4,3.1,2.9,4.9,4,2.2,1.3,5.2,2.4,7.7,2.6-.3-.6-1-1.2-1.5-1.8-.2-.3-.4-.8-.6-1.1,1.3,1.5,3.5,2.7,5.1,3.8,1.5,1.1,3.4,1.6,5.1,2.2.1-.6-1.5-3.3-1.9-4.1.6.8,1.5,1.3,2,2.1.6.8,1,1.7,1.4,2.5h0c.2,4.4-.2,8.6-.2,12.9s.2,4.9-.3,7.2c-.5,2.1-2.5,4.1-2.1,6.3,1.5-.8,4.6-3.1,5.6-4.5,2.1-2.9,1.2-9.2.9-12.6h.1Z"/>
  </g>
  <g id="girl-smile-eyesclosed">
    <path class="st19" d="M615.5,145.3c0-4.7-2.2-8.3-4-12.1-.8-1.7-1.6-4.7-2.8-6-1.6-1.7-5.4-.9-7.4-1-7.4-.3-14.8.2-22.2,1.1-2.3.3-3.7-.6-4.6,2.7-.6,2.1-1,2.9-1,2.9-2.3,4-6.1,6.4-7.5,11.5-1.1,4.1-.6,9.2,1.8,12.1,0-1.6.2-3.7.5-5.1,1.6,1.2,2.7,3.6,4.3,5s3.4,2.6,5.2,3.3c.2-1.4-.3-3.3,0-4.5,1.3,3.2,4.5,4.6,6.9,6,0-1.9-.5-4.3,1.1-3.2.4.3,1,1.6,1.5,2s1.1.8,1.7,1.1c1.8,1.1,2.6,1.4,4.3,0,1.2-1.1,2.7-2.6,3.7-4,.6,1.2.3,3.2.3,4.6,2,0,4.4-2.4,5.7-4.3.3,1.1,0,2.3.3,3.4,2.6-.3,7.2-5.1,8.4-8,1.2,1.1,2.2,3.6,1.9,5.5,2.1-3.5,2.1-8.8,2.1-13.1h-.2Z"/>
    <path class="st26" d="M586.8,163.8h0c1.9,3.4,6.7,3.3,8.4,0h0c.4-.7.5-1.4.5-2.2v-13.1h-9.6v13c0,.8.2,1.6.6,2.4h0Z"/>
    <path class="st16" d="M612.4,133.3c-.9,1.4-2.2,2.4-3.5,2.6h-1.1c-.4,3.7-1.7,7.1-3.6,9.9-3.6,5.4-9,8.7-13,8.5h-.9c-4.3,0-9.2-3-12.6-7.9-1.9-2.7-3.3-6.1-3.9-9.8h-.3c-1.3-.1-2.8-1.1-3.7-2.5-.2-.2-.3-.5-.4-.7-.2-.4-.3-.7-.4-1h0c-.3-1.4,0-2.6,1.1-3.1h0c1-.4,2.2-.1,3.3.7.8-11.3,7.9-21.3,16.6-21.5,2.7,0,5.2.7,7.5,2.1,5.3,3.3,9.2,11.2,10.1,19.2.5-.5,1.1-.9,1.7-1.2.8-.4,1.6-.4,2.3-.1,1.6.6,1.8,2.8.6,4.8h.2Z"/>
    <g>
      <path class="st1" d="M591.2,145.5c-3,0-5.5-2-6.2-4.9,0-.3,0-.6.4-.6s.6.1.6.4c.6,2.4,2.7,4.1,5.2,4.1s4.5-1.6,5.2-4c0-.3.4-.4.6-.4s.4.4.4.6c-.7,2.8-3.3,4.7-6.2,4.7h0Z"/>
      <path class="st1" d="M580.6,127.3c.2,0,.4,0,.5-.3,1.6-3,4.4-1.8,4.5-1.7.3,0,.6,0,.7-.3,0-.3,0-.6-.3-.7-1.3-.6-4.3-.9-5.9,2.2,0,.3,0,.6.2.7h.3Z"/>
      <path class="st1" d="M595.2,124.8c0,0,.3.2.5,0,2.7-1,3.8,1.3,3.8,1.4,0,.2.4.3.6.2.2,0,.3-.4.2-.6-.5-1.1-2.2-2.9-5-1.8-.2,0-.3.4-.3.6,0,0,0,0,0,.2h.1Z"/>
      <path class="st1" d="M592.3,139h-.7c-.3,0-.5-.3-.5-.6s.3-.5.6-.5h.6c.6,0,.9-.4,1-.8,0-.4,0-.9-.6-1.1,0,0-.3-.1-.4-.1-.7-.2-1.2-.8-1.2-1.6v-1.2c0-.3.2-.5.5-.5s.5.2.5.5v1.2c0,.3.2.5.4.6.2,0,.4.1.6.2.9.4,1.4,1.3,1.2,2.3-.2.8-.9,1.6-2,1.6h0Z"/>
      <path class="st1" d="M586.7,132.2h-.2c-.3,0-.5-.4-.4-.7,0-.3,0-.6,0-.9-.3-.6-1.1-.8-1.7-.4-.5.3-.7.8-.6,1.4,0,.3,0,.6-.4.7-.3,0-.6-.1-.7-.4-.3-1,.2-2.1,1.1-2.7,1.1-.7,2.6-.3,3.2.9.3.6.4,1.2.2,1.8,0,.3-.3.4-.6.4h.2Z"/>
      <path class="st1" d="M598.8,132.2h-.2c-.3,0-.5-.4-.4-.7,0-.3,0-.6,0-.9-.3-.6-1.1-.8-1.7-.4-.5.3-.7.8-.6,1.4,0,.3,0,.6-.4.7-.3,0-.6-.1-.7-.4-.3-1,.2-2.1,1.1-2.7,1.1-.7,2.6-.3,3.2.9.3.6.4,1.2.2,1.8,0,.3-.3.4-.6.4h.2Z"/>
      <circle class="st8" cx="602.9" cy="136.2" r="3.5"/>
      <path class="st8" d="M579.4,132.7c1.9.1,3.4,1.8,3.3,3.7,0,1.9-1.8,3.4-3.7,3.3-1.9-.1-3.4-1.8-3.3-3.7,0-1.9,1.8-3.4,3.7-3.3Z"/>
    </g>
    <path class="st19" d="M611.1,136.4c-.3-3.2-.8-8.7-1.1-11.2,0-.9,0-1.7-.2-2.6-.3-6.5-2.4-13.6-7.2-17.2-3.4-2.6-6.5-.4-10.2-1.2-7.1-1.4-15.4,1.7-19.2,8.4-2.3,4-2.7,8.7-1.9,13.2,0,0,.5,8.5.3,10.5-.3,3.4-1.2,9.6.9,12.6,1,1.4,4.1,3.7,5.6,4.5.3-2.2-1.7-4.2-2.1-6.3-.5-2.3-.3-4.8-.3-7.2,0-4.3-.4-8.5-.2-12.8v-1.3c0-.2.2-.3.3-.5,1.1-1.8,2.4-3.4,3.9-4.8,1.6-1.5,3.5-2.3,5.2-3.7,1.6,1.4,3.1,2.9,4.9,4,2.2,1.3,5.2,2.4,7.7,2.6-.3-.6-1-1.2-1.5-1.8-.2-.3-.4-.8-.6-1.1,1.3,1.5,3.5,2.7,5.1,3.8,1.5,1.1,3.4,1.6,5.1,2.2,0-.6-1.5-3.3-1.9-4.1.6.8,1.5,1.3,2,2.1.6.8,1,1.7,1.4,2.5h0c.2,4.4-.2,8.6-.2,12.9s.2,4.9-.3,7.2c-.5,2.1-2.5,4.1-2.1,6.3,1.5-.8,4.6-3.1,5.6-4.5,2.1-2.9,1.2-9.2.9-12.6h0Z"/>
  </g>
  <g id="girl-worried">
    <path class="st19" d="M516.7,145.2c0-4.7-2.2-8.3-4-12.1-.8-1.7-1.6-4.7-2.8-6-1.6-1.7-5.4-.9-7.4-1-7.4-.3-14.8.2-22.2,1.1-2.3.3-3.7-.6-4.6,2.7-.6,2.1-1,2.9-1,2.9-2.3,4-6.1,6.4-7.5,11.5-1.1,4.1-.6,9.2,1.8,12.1,0-1.6.2-3.7.5-5.1,1.6,1.2,2.7,3.6,4.3,5s3.4,2.6,5.2,3.3c.2-1.4-.3-3.3,0-4.5,1.3,3.2,4.5,4.6,6.9,6,0-1.9-.5-4.3,1.1-3.2.4.3,1,1.6,1.5,2s1.1.8,1.7,1.1c1.8,1.1,2.6,1.4,4.3,0,1.2-1.1,2.7-2.6,3.7-4,.6,1.2.3,3.2.3,4.6,2,0,4.4-2.4,5.7-4.3.3,1.1,0,2.3.3,3.4,2.6-.3,7.2-5.1,8.4-8,1.2,1.1,2.2,3.6,1.9,5.5,2.1-3.5,2.1-8.8,2.1-13.1h-.2Z"/>
    <path class="st26" d="M488.6,163.8h0c1.9,3.4,6.7,3.3,8.4,0h0c.4-.7.5-1.4.5-2.2v-13.1h-9.6v13c0,.8.2,1.6.6,2.4h.1Z"/>
    <path class="st16" d="M514.2,133.3c-.9,1.4-2.2,2.4-3.5,2.6h-1.1c-.4,3.7-1.7,7.1-3.6,9.9-3.6,5.4-9,8.7-13,8.5h-.9c-4.3,0-9.2-3-12.6-7.9-1.9-2.7-3.3-6.1-3.9-9.8h-.3c-1.3-.1-2.8-1.1-3.7-2.5-.2-.2-.3-.5-.4-.7-.2-.4-.3-.7-.4-1h0c-.3-1.4,0-2.6,1.1-3.1h0c1-.4,2.2-.1,3.3.7.8-11.3,7.9-21.3,16.6-21.5,2.7,0,5.2.7,7.5,2.1,5.3,3.3,9.2,11.2,10.1,19.2.5-.5,1.1-.9,1.7-1.2s1.6-.4,2.3-.1c1.6.6,1.8,2.8.6,4.8h.2Z"/>
    <g>
      <path class="st1" d="M485.8,129.2c0,.9.7,1.6,1.5,1.6s1.5-.7,1.5-1.6-.7-1.6-1.5-1.6-1.5.7-1.5,1.6Z"/>
      <path class="st1" d="M497.2,129.2c0,.9.7,1.6,1.5,1.6s1.5-.7,1.5-1.6-.7-1.6-1.5-1.6-1.5.7-1.5,1.6Z"/>
      <path class="st1" d="M494.2,138.2h-.7c-.3,0-.5-.3-.5-.6s.3-.5.6-.5h.6c.6,0,.9-.4,1-.8,0-.4,0-.9-.6-1.1-.1,0-.3-.1-.4-.1-.7-.2-1.2-.8-1.2-1.6v-1.2c0-.3.2-.5.5-.5s.5.2.5.5v1.2c0,.3.2.5.4.6.2,0,.4.1.6.2.9.4,1.4,1.3,1.2,2.3-.2.8-.9,1.6-2,1.6h0Z"/>
      <circle class="st8" cx="504.7" cy="136.2" r="3.5"/>
      <path class="st8" d="M481.2,132.7c1.9.1,3.4,1.8,3.3,3.7s-1.8,3.4-3.7,3.3c-1.9-.1-3.4-1.8-3.3-3.7s1.8-3.4,3.7-3.3Z"/>
      <ellipse class="st1" cx="492.8" cy="144" rx="1.9" ry="3.3"/>
      <path class="st1" d="M487.8,122.4c-.2,0-.4,0-.5.3-1.6,3-4.4,1.8-4.5,1.7-.3,0-.6,0-.7.3s0,.6.3.7c1.3.6,4.3.9,5.9-2.2.1-.3,0-.6-.2-.7h-.3Z"/>
      <path class="st1" d="M502.3,124c-.1,0-.3-.2-.5,0-2.7,1-3.8-1.3-3.8-1.4-.1-.2-.4-.3-.6-.2-.2,0-.3.4-.2.6.5,1.1,2.2,2.9,5,1.8.2,0,.3-.4.3-.6,0,0,0,0-.1-.2h0Z"/>
    </g>
    <path class="st19" d="M512.6,136.4c-.3-3.2-.8-8.7-1.1-11.2,0-.9-.1-1.7-.2-2.6-.3-6.5-2.4-13.6-7.2-17.2-3.4-2.6-6.5-.4-10.2-1.2-7.1-1.4-15.4,1.7-19.2,8.4-2.3,4-2.7,8.7-1.9,13.2,0,0,.5,8.5.3,10.5-.3,3.4-1.2,9.6.9,12.6,1,1.4,4.1,3.7,5.6,4.5.3-2.2-1.7-4.2-2.1-6.3-.5-2.3-.3-4.8-.3-7.2,0-4.3-.4-8.5-.2-12.8v-1.3c.1-.2.2-.3.3-.5,1.1-1.8,2.4-3.4,3.9-4.8,1.6-1.5,3.5-2.3,5.2-3.7,1.6,1.4,3.1,2.9,4.9,4,2.2,1.3,5.2,2.4,7.7,2.6-.3-.6-1-1.2-1.5-1.8-.2-.3-.4-.8-.6-1.1,1.3,1.5,3.5,2.7,5.1,3.8,1.5,1.1,3.4,1.6,5.1,2.2.1-.6-1.5-3.3-1.9-4.1.6.8,1.5,1.3,2,2.1.6.8,1,1.7,1.4,2.5h0c.2,4.4-.2,8.6-.2,12.9s.2,4.9-.3,7.2c-.5,2.1-2.5,4.1-2.1,6.3,1.5-.8,4.6-3.1,5.6-4.5,2.1-2.9,1.2-9.2.9-12.6h.1Z"/>
  </g>
  <g id="girl-surprised">
    <path class="st19" d="M615.2,62.5c0-4.7-2.2-8.3-4-12.1-.8-1.7-1.6-4.7-2.8-6-1.6-1.7-5.4-.9-7.4-1-7.4-.3-14.8.2-22.2,1.1-2.3.3-3.7-.6-4.6,2.7-.6,2.1-1,2.9-1,2.9-2.3,4-6.1,6.4-7.5,11.5-1.1,4.1-.6,9.2,1.8,12.1,0-1.6.2-3.7.5-5.1,1.6,1.2,2.7,3.6,4.3,5s3.4,2.6,5.2,3.3c.2-1.4-.3-3.3,0-4.5,1.3,3.2,4.5,4.6,6.9,6,0-1.9-.5-4.3,1.1-3.2.4.3,1,1.6,1.5,2s1.1.8,1.7,1.1c1.8,1.1,2.6,1.4,4.3,0,1.2-1.1,2.7-2.6,3.7-4,.6,1.2.3,3.2.3,4.6,2,0,4.4-2.4,5.7-4.3.3,1.1,0,2.3.3,3.4,2.6-.3,7.2-5.1,8.4-8,1.2,1.1,2.2,3.6,1.9,5.5,2.1-3.5,2.1-8.8,2.1-13.1h-.2Z"/>
    <path class="st26" d="M586.9,82.3h0c1.9,3.4,6.7,3.3,8.4,0h0c.4-.7.5-1.4.5-2.2v-13.1h-9.6v13c0,.8.2,1.6.6,2.4h0Z"/>
    <path class="st16" d="M612.5,51.8c-.9,1.4-2.2,2.4-3.5,2.6h-1.1c-.4,3.7-1.7,7.1-3.6,9.9-3.6,5.4-9,8.7-13,8.5h-.9c-4.3,0-9.2-3-12.6-7.9-1.9-2.7-3.3-6.1-3.9-9.8h-.3c-1.3,0-2.8-1.1-3.7-2.5-.2-.2-.3-.5-.4-.7-.2-.4-.3-.7-.4-1h0c-.3-1.4,0-2.6,1.1-3.1h0c1-.4,2.2,0,3.3.7.8-11.3,7.9-21.3,16.6-21.5,2.7,0,5.2.7,7.5,2.1,5.3,3.3,9.2,11.2,10.1,19.2.5-.5,1.1-.9,1.7-1.2.8-.4,1.6-.4,2.3,0,1.6.6,1.8,2.8.6,4.8h.2Z"/>
    <g>
      <path class="st1" d="M580.8,44.6c.2,0,.4,0,.5-.3,1.6-3,4.4-1.8,4.5-1.7.3,0,.6,0,.7-.3,0-.3,0-.6-.3-.7-1.3-.6-4.3-.9-5.9,2.2,0,.3,0,.6.2.7h.3Z"/>
      <path class="st1" d="M595.4,42.1c0,0,.3.2.5,0,2.7-1,3.8,1.3,3.8,1.4,0,.2.4.3.6.2.2,0,.3-.4.2-.6-.5-1.1-2.2-2.9-5-1.8-.2,0-.3.4-.3.6,0,0,0,0,0,.2h.1Z"/>
      <path class="st1" d="M584.1,47.7c0,.9.7,1.6,1.5,1.6s1.5-.7,1.5-1.6-.7-1.6-1.5-1.6-1.5.7-1.5,1.6Z"/>
      <path class="st1" d="M595.5,47.7c0,.9.7,1.6,1.5,1.6s1.5-.7,1.5-1.6-.7-1.6-1.5-1.6-1.5.7-1.5,1.6Z"/>
      <path class="st1" d="M592.5,56.7h-.7c-.3,0-.5-.3-.5-.6s.3-.5.6-.5h.6c.6,0,.9-.4,1-.8,0-.4,0-.9-.6-1.1,0,0-.3,0-.4,0-.7-.2-1.2-.8-1.2-1.6v-1.2c0-.3.2-.5.5-.5s.5.2.5.5v1.2c0,.3.2.5.4.6.2,0,.4,0,.6.2.9.4,1.4,1.3,1.2,2.3-.2.8-.9,1.6-2,1.6h0Z"/>
      <path class="st8" d="M603.2,51.2c1.9,0,3.4,1.8,3.3,3.7s-1.8,3.4-3.7,3.3-3.4-1.8-3.3-3.7c0-1.9,1.8-3.4,3.7-3.3Z"/>
      <path class="st8" d="M579.5,51.2c1.9,0,3.4,1.8,3.3,3.7,0,1.9-1.8,3.4-3.7,3.3s-3.4-1.8-3.3-3.7c0-1.9,1.8-3.4,3.7-3.3Z"/>
      <path class="st1" d="M594.5,62.6c0,1.9-1.5,3.4-3.4,3.4s-3.4-1.5-3.4-3.4,1.5-3.4,3.4-3.4,3.4,1.5,3.4,3.4Z"/>
    </g>
    <path class="st19" d="M611.1,56c-.3-3.2-.8-8.7-1.1-11.2,0-.9,0-1.7-.2-2.6-.3-6.5-2.4-13.6-7.2-17.2-3.4-2.6-6.5-.4-10.2-1.2-7.1-1.4-15.4,1.7-19.2,8.4-2.3,4-2.7,8.7-1.9,13.2,0,0,.5,8.5.3,10.5-.3,3.4-1.2,9.6.9,12.6,1,1.4,4.1,3.7,5.6,4.5.3-2.2-1.7-4.2-2.1-6.3-.5-2.3-.3-4.8-.3-7.2,0-4.3-.4-8.5-.2-12.8v-1.3c0-.2.2-.3.3-.5,1.1-1.8,2.4-3.4,3.9-4.8,1.6-1.5,3.5-2.3,5.2-3.7,1.6,1.4,3.1,2.9,4.9,4,2.2,1.3,5.2,2.4,7.7,2.6-.3-.6-1-1.2-1.5-1.8-.2-.3-.4-.8-.6-1.1,1.3,1.5,3.5,2.7,5.1,3.8,1.5,1.1,3.4,1.6,5.1,2.2,0-.6-1.5-3.3-1.9-4.1.6.8,1.5,1.3,2,2.1.6.8,1,1.7,1.4,2.5h0c.2,4.4-.2,8.6-.2,12.9s.2,4.9-.3,7.2c-.5,2.1-2.5,4.1-2.1,6.3,1.5-.8,4.6-3.1,5.6-4.5,2.1-2.9,1.2-9.2.9-12.6h0Z"/>
  </g>
  <g id="girl-laughing">
    <path class="st19" d="M516.7,63.3c0-4.7-2.2-8.3-4-12.1-.8-1.7-1.6-4.7-2.8-6-1.6-1.7-5.4-.9-7.4-1-7.4-.3-14.8.2-22.2,1.1-2.3.3-3.7-.6-4.6,2.7-.6,2.1-1,2.9-1,2.9-2.3,4-6.1,6.4-7.5,11.5-1.1,4.1-.6,9.2,1.8,12.1,0-1.6.2-3.7.5-5.1,1.6,1.2,2.7,3.6,4.3,5s3.4,2.6,5.2,3.3c.2-1.4-.3-3.3,0-4.5,1.3,3.2,4.5,4.6,6.9,6,0-1.9-.5-4.3,1.1-3.2.4.3,1,1.6,1.5,2s1.1.8,1.7,1.1c1.8,1.1,2.6,1.4,4.3,0,1.2-1.1,2.7-2.6,3.7-4,.6,1.2.3,3.2.3,4.6,2,0,4.4-2.4,5.7-4.3.3,1.1,0,2.3.3,3.4,2.6-.3,7.2-5.1,8.4-8,1.2,1.1,2.2,3.6,1.9,5.5,2.1-3.5,2.1-8.8,2.1-13.1h-.2Z"/>
    <path class="st26" d="M488.6,82.3h0c1.9,3.4,6.7,3.3,8.4,0h0c.4-.7.5-1.4.5-2.2v-13.1h-9.6v13c0,.8.2,1.6.6,2.4h.1Z"/>
    <path class="st16" d="M514.2,51.8c-.9,1.4-2.2,2.4-3.5,2.6h-1.1c-.4,3.7-1.7,7.1-3.6,9.9-3.6,5.4-9,8.7-13,8.5h-.9c-4.3,0-9.2-3-12.6-7.9-1.9-2.7-3.3-6.1-3.9-9.8h-.3c-1.3,0-2.8-1.1-3.7-2.5-.2-.2-.3-.5-.4-.7-.2-.4-.3-.7-.4-1h0c-.3-1.4,0-2.6,1.1-3.1h0c1-.4,2.2,0,3.3.7.8-11.3,7.9-21.3,16.6-21.5,2.7,0,5.2.7,7.5,2.1,5.3,3.3,9.2,11.2,10.1,19.2.5-.5,1.1-.9,1.7-1.2.8-.4,1.6-.4,2.3,0,1.6.6,1.8,2.8.6,4.8h.2Z"/>
    <g>
      <path class="st1" d="M482.5,44.6c.2,0,.4,0,.5-.3,1.6-3,4.4-1.8,4.5-1.7.3,0,.6,0,.7-.3s0-.6-.3-.7c-1.3-.6-4.3-.9-5.9,2.2-.1.3,0,.6.2.7h.3Z"/>
      <path class="st1" d="M497.1,42.1c.1,0,.3.2.5,0,2.7-1,3.8,1.3,3.8,1.4.1.2.4.3.6.2s.3-.4.2-.6c-.5-1.1-2.2-2.9-5-1.8-.2,0-.3.4-.3.6,0,0,0,0,.1.2h0Z"/>
      <path class="st1" d="M485.7,47.7c0,.9.7,1.6,1.5,1.6s1.5-.7,1.5-1.6-.7-1.6-1.5-1.6-1.5.7-1.5,1.6Z"/>
      <path class="st1" d="M497.1,47.7c0,.9.7,1.6,1.5,1.6s1.5-.7,1.5-1.6-.7-1.6-1.5-1.6-1.5.7-1.5,1.6Z"/>
      <path class="st1" d="M494.1,56.7h-.7c-.3,0-.5-.3-.5-.6s.3-.5.6-.5h.6c.6,0,.9-.4,1-.8,0-.4,0-.9-.6-1.1-.1,0-.3,0-.4,0-.7-.2-1.2-.8-1.2-1.6v-1.2c0-.3.2-.5.5-.5s.5.2.5.5v1.2c0,.3.2.5.4.6.2,0,.4,0,.6.2.9.4,1.4,1.3,1.2,2.3-.2.8-.9,1.6-2,1.6Z"/>
      <g>
        <path class="st1" d="M498.9,60.1s-.1,3.3-1.7,5.5c-.9,1.2-2.2,2.2-4.1,2.2,0,0-2.8.2-4.5-2.2-.8-1.1-1.3-2.8-1.3-5.4h11.6Z"/>
        <path class="st23" d="M497.2,65.6c-.9,1.2-2.2,2.2-4.1,2.2,0,0-2.8.2-4.5-2.2,1.7-1,5.1-2.2,8.6,0Z"/>
        <polygon class="st24" points="497.6 60.1 496.9 62 488.8 62 488.2 60.1 497.6 60.1"/>
      </g>
      <path class="st8" d="M504.8,51.2c1.9,0,3.4,1.8,3.3,3.7s-1.8,3.4-3.7,3.3c-1.9,0-3.4-1.8-3.3-3.7s1.8-3.4,3.7-3.3Z"/>
      <path class="st8" d="M481.2,51.2c1.9,0,3.4,1.8,3.3,3.7s-1.8,3.4-3.7,3.3-3.4-1.8-3.3-3.7,1.8-3.4,3.7-3.3Z"/>
    </g>
    <path class="st19" d="M512.6,56c-.3-3.2-.8-8.7-1.1-11.2,0-.9-.1-1.7-.2-2.6-.3-6.5-2.4-13.6-7.2-17.2-3.4-2.6-6.5-.4-10.2-1.2-7.1-1.4-15.4,1.7-19.2,8.4-2.3,4-2.7,8.7-1.9,13.2,0,0,.5,8.5.3,10.5-.3,3.4-1.2,9.6.9,12.6,1,1.4,4.1,3.7,5.6,4.5.3-2.2-1.7-4.2-2.1-6.3-.5-2.3-.3-4.8-.3-7.2,0-4.3-.4-8.5-.2-12.8v-1.3c.1-.2.2-.3.3-.5,1.1-1.8,2.4-3.4,3.9-4.8,1.6-1.5,3.5-2.3,5.2-3.7,1.6,1.4,3.1,2.9,4.9,4,2.2,1.3,5.2,2.4,7.7,2.6-.3-.6-1-1.2-1.5-1.8-.2-.3-.4-.8-.6-1.1,1.3,1.5,3.5,2.7,5.1,3.8,1.5,1.1,3.4,1.6,5.1,2.2.1-.6-1.5-3.3-1.9-4.1.6.8,1.5,1.3,2,2.1.6.8,1,1.7,1.4,2.5h0c.2,4.4-.2,8.6-.2,12.9s.2,4.9-.3,7.2c-.5,2.1-2.5,4.1-2.1,6.3,1.5-.8,4.6-3.1,5.6-4.5,2.1-2.9,1.2-9.2.9-12.6h.1Z"/>
  </g>
  <g id="girl-sitting-desk">
    <g id="chair">
      <g>
        <polygon class="st27" points="302 318.3 298.9 318.3 310.9 261.2 313.9 262 302 318.3"/>
        <polygon class="st27" points="307.9 318.3 304.9 318.3 316.8 261.2 319.8 262 307.9 318.3"/>
        <polygon class="st27" points="363.8 318.3 366.8 318.3 354.9 261.2 351.9 262 363.8 318.3"/>
        <polygon class="st27" points="357.8 318.3 360.8 318.3 348.9 261.2 345.9 262 357.8 318.3"/>
      </g>
      <path class="st29" d="M355.4,241c0,15.7-7.9,15.5-28.1,15.5s-28.5.1-28.5-15.5-1.7-56.3,28.5-56.3,25.9,21.2,27.5,38.9c.2,2.3.3,4.5.4,6.6.2,4.2.2,8,.2,10.9h0Z"/>
      <path class="st33" d="M363,264h-54.6c-3.6,0-6.6-2.5-6.6-5.5h0c0-3,3-5.5,6.6-5.5h54.6c3.6,0,6.6,2.5,6.6,5.5h0c0,3-3,5.5-6.6,5.5Z"/>
    </g>
    <g id="girl-sitting">
      <path class="st19" d="M360.3,144.1c-.1-4.7-2.4-8.2-4.2-12-.8-1.7-1.7-4.6-2.9-5.9-1.6-1.7-5.5-.8-7.4-.9-7.4-.2-14.8.4-22.1,1.5-2.3.4-3.7-.6-4.6,2.8-.5,2.1-1,2.9-1,2.9-2.2,4.1-6,6.5-7.3,11.7-1,4.1-.4,9.2,2.1,12.1,0-1.6,0-3.7.4-5.1,1.6,1.2,2.7,3.6,4.4,4.9,1.6,1.3,3.4,2.5,5.2,3.2.1-1.4-.4-3.3,0-4.5,1.4,3.2,4.6,4.5,7,5.9,0-1.9-.6-4.3,1.1-3.2.4.3,1,1.6,1.5,2s1.1.8,1.7,1.1c1.8,1,2.6,1.3,4.3-.2,1.2-1.1,2.7-2.7,3.6-4.1.6,1.2.4,3.2.4,4.6,2,0,4.4-2.5,5.6-4.4.3,1,0,2.3.4,3.4,2.6-.3,7.1-5.2,8.2-8.2,1.2,1.1,2.3,3.5,2,5.5,2-3.5,2-8.9,1.9-13.1h-.3Z"/>
      <g>
        <path class="st4" d="M401.7,206.7c-.4.4-.9.6-1.4.7-.6.1-1.3.1-1.9.1-2.6,0-5.2.7-7.6,1.7.4.3.8.6,1.2.8,4.1,3,1.9,3.3,1.9,3.3l-5-2.8c-.2,0-20.3,7.8-25.8,10.1-1.1.4-2.2.9-3.3.9s-3-.7-3.9-2c-.7-1-1-2.1-1.3-3.3-1.1-6-5-29-5.6-34.6-.4-3.6-.8-7.5-.3-11.1,0-.5.2-1.1.5-1.6l1.5.3c4.1.9,7.5,3.8,8.8,7.8,0,.3.2.6.2.8s0,.5.1.7l3.1,32.7c10.1-3,24-5.3,24-5.3.3,0,3.1-2.8,4.4-3.4,1.2-.5,2.5-.8,3.8-.8s3.5.5,5,1.4c.7.4,1.5,1,1.9,1.8.3.7,0,1.2-.4,1.7h0Z"/>
        <path class="st6" d="M345,172.7c-.3,3.6,0,10.1,3.7,19.2.4.9,1.4,1.3,2.3,1,2.4-1,7.2-2.7,10.8-1.7,1.1.3,2.1-.6,1.9-1.7-1.3-6.6-5.3-22-12.8-22.3-3.1-.1-5.6,2.4-5.9,5.5Z"/>
      </g>
      <path class="st6" d="M364,233.8c-5.6,2.4-11.8,3.6-18,3.6s-8.8-.6-13-1.9l-5.6-1.6s-.6-9.5,1.6-16.3c1.8-5.6,1.8-11.4.4-17.1l-6.3-25.3c-.7-2.9.3-5.8,2.7-7.9l3.3-2.9h0l4-3.7h9.1s2.5,1.3,5.5,3.4c.7.5,1.4,1,2.1,1.5,3.9,3,8,7.1,8.4,11.1l.7,7.9c1,10.8,2.3,21.5,4.6,32.1.8,3.7,1,8.1.5,17h0Z"/>
      <path class="st16" d="M359.9,222.8c-.5.2-1,.3-1.5.2-.6-.1-1.2-.4-1.8-.6-2.5-.9-5.1-1.2-7.7-1.1.3.4.6.8.8,1.2,2.8,4.2.6,3.8.6,3.8l-3.6-4.4c-.2-.2-21.8,0-27.7.1-1.1,0-2.3,0-3.4-.3-1.4-.5-2.6-1.8-3-3.3-.3-1.1-.2-2.4,0-3.5,1.1-6,5.7-28.9,7.2-34.3,1-3.5,1.9-7.3,3.7-10.4.3-.5.6-1,1-1.3l1.3.9c3.5,2.3,5.7,6.2,5.4,10.4v.9c0,.2,0,.5-.1.7l-8.8,31.6c10.5.8,24.3,3.6,24.3,3.6.3,0,3.9-1.5,5.3-1.6,1.3,0,2.6.1,3.8.6,1.6.6,3.1,1.7,4.2,3.1.5.7,1.1,1.5,1.1,2.3s-.4,1.2-.9,1.4h-.2Z"/>
      <path class="st6" d="M320.2,171.3c-2,3.3-4.7,9.7-5.4,20.4,0,.7.5,1.4,1.2,1.5,2.5.2,8.2,1,11.1,4,.7.7,1.9.4,2.2-.6,1.8-6.7,5.4-23.5-1.2-27.5-2.7-1.6-6.1-.5-7.8,2.3h-.1Z"/>
      <g>
        <path class="st8" d="M339.2,166.6h0c-3.3,0-5.9-2.6-5.9-5.9v-10.9h9.1v13.6c0,1.8-1.4,3.2-3.2,3.2h0Z"/>
        <path class="st16" d="M357.4,132c0,1.1,0,2.2-.1,3.2,0,.7-.1,1.4-.2,2-.3,1.8-.6,3.4-1.2,5-.2.6-.4,1.1-.6,1.6-2.9,7.4-8.5,12.4-15,12.5-3.1,0-6-1.1-8.6-3.1-.6-.4-1.1-.9-1.6-1.4-4.4-4.4-7.3-11.5-7.3-19.6-.1-13.4,7.5-24.3,17.1-24.4,1.4,0,2.8.2,4.1.7,7.6,2.5,13.3,12,13.4,23.4h0Z"/>
        <g>
          <path class="st1" d="M334.7,130.6c.2,0,.4-.1.5-.3,1.7-3.2,4.6-1.9,4.7-1.9.3.1.6,0,.8-.3.1-.3,0-.6-.3-.8-1.4-.6-4.5-.9-6.2,2.4-.1.3,0,.6.2.8h.3Z"/>
          <path class="st1" d="M348.3,147.2c-.1-.2-.4-.2-.6-.1-3.4,1.2-4.6-1.8-4.7-1.9-.1-.3-.4-.4-.7-.3-.3.1-.4.4-.3.7.6,1.4,2.6,3.8,6.1,2.6.3-.1.5-.4.4-.7,0,0,0-.1-.1-.2h0Z"/>
          <path class="st1" d="M350,127.8c.1,0,.3.2.5,0,2.8-1.1,4,1.3,4,1.4.1.2.4.3.6.2s.3-.4.2-.6c-.5-1.2-2.3-3.1-5.2-1.9-.2,0-.4.4-.3.6,0,0,0,0,.1.2h0Z"/>
          <path class="st1" d="M339.7,133.8c0,.9.7,1.7,1.6,1.7s1.6-.8,1.6-1.7-.7-1.7-1.6-1.7-1.6.8-1.6,1.7Z"/>
          <path class="st1" d="M350.1,133.7c0,.9.7,1.7,1.6,1.7s1.6-.8,1.6-1.7-.7-1.7-1.6-1.7-1.6.8-1.6,1.7Z"/>
          <path class="st8" d="M357,137.3c-.3,1.8-.6,3.4-1.2,5-.2.6-.4,1.1-.6,1.6-1-.7-1.6-1.9-1.5-3.1,0-1.8,1.5-3.3,3.3-3.5h0Z"/>
          <path class="st8" d="M334.8,137.5c2,0,3.6,1.8,3.6,3.9s-1.8,3.6-3.9,3.6-3.6-1.8-3.6-3.9,1.8-3.6,3.9-3.6Z"/>
          <path class="st1" d="M347.4,142.9h-.7c-.3,0-.5-.3-.5-.6s.3-.5.6-.5h.6c.6,0,.9-.4,1-.8,0-.4,0-.9-.6-1.1,0,0-.3-.1-.4-.1-.7-.2-1.2-.8-1.2-1.6v-1.2c0-.3.2-.5.5-.5s.5.2.5.5v1.2c0,.3.2.5.4.6.2,0,.4.1.6.2.9.4,1.4,1.3,1.2,2.3-.2.8-.9,1.6-2,1.6h0Z"/>
        </g>
        <path class="st13" d="M332,153.4h-.2c-.6-.4-1.1-.9-1.6-1.4-4.4-4.4-7.3-11.5-7.3-19.6-.1-13.4,7.5-24.3,17.1-24.4,1.4,0,2.8.2,4.1.7-7.4,5.9-20.4,21.4-12,44.7h-.1Z"/>
        <g>
          <path class="st16" d="M326.9,132.4c1.1,3,.5,5.9-1.4,6.6s-4.2-1.2-5.3-4.2c-1.1-3-.5-5.9,1.4-6.6,1.8-.7,4.2,1.2,5.3,4.2Z"/>
          <path class="st13" d="M326.9,132.4c1.1,3,.5,5.9-1.4,6.6s-4.2-1.2-5.3-4.2c-1.1-3-.5-5.9,1.4-6.6,1.8-.7,4.2,1.2,5.3,4.2Z"/>
        </g>
        <path class="st19" d="M359.8,139.1c-.3-3.2-.7-8.7-1-11.2,0-.9-.1-1.7-.1-2.6-.3-6.5-2.1-13.6-6.4-17.2-3.1-2.6-5.8-.6-9.1-1.2-10.2-1.7-18.6,0-22.3,8.9-9,21.6,2.6,32.9,4.5,35.9.9,1.4,9.8,7.1,11.2,7.9-7.4-7.9-7-21.7-5.9-29.8.5-4,2.6-7.7,5.8-10.2h0s2.8,2.9,4.4,4c2,1.3,4.7,2.4,6.9,2.6-.3-.6-.9-1.2-1.3-1.8-.2-.3-.4-.8-.6-1.1,1.2,1.5,3.1,2.7,4.5,3.8s3,1.6,4.6,2.2c.1-.6-1.3-3.3-1.7-4.1.5.8,1.3,1.3,1.8,2.1.5.8.9,1.7,1.3,2.5h0c.2,4.4-.2,8.6-.2,12.9s.1,4.9-.3,7.2c-.4,2.1-2.2,4.1-1.9,6.3,1.4-.8,4.1-3.1,5-4.5,1.9-2.9,1.1-9.2.8-12.6h0Z"/>
      </g>
      <g>
        <path class="st25" d="M401.3,274c-1.2,16.6-3.6,33.8-4.2,33.8l-5.8-.4-2.1-34.2-1.6-25.7v-1.2c0-.4,0-.7.2-1,.7-2.7,3.6-4.6,6.9-4.4,3.3.2,6,2.6,6.2,5.5,0,.8.2,1.5.3,2.3,1,5.5.8,15.3,0,25.3h.1Z"/>
        <path class="st1" d="M390.3,312.9c.1,1,.7,1.9,1.6,2.4.6.4,22.7,2.2,23.3,1.9,5-2.1-17.6-10-17.6-10h-6.1c0,.1-1.3,4.5-1.1,5.6h0Z"/>
        <path class="st25" d="M400.8,247.4h0c0-3.8-3.1-7-6.9-7.2l-35.3-2.6c-5.1.2-9,4.5-8.8,9.6h0c.3,5.1,4.6,9.1,9.7,8.9l34.2-2c4-.1,7.2-2.7,7.1-6.6h0Z"/>
      </g>
      <g>
        <path class="st35" d="M382.7,274c-1.2,16.6-3.6,33.8-4.2,33.8l-5.8-.4-2.1-34.2-1.6-25.7v-1.2c0-.4,0-.7.2-1,.7-2.7,3.6-4.6,6.9-4.4,3.3.2,6,2.6,6.2,5.5,0,.8.2,1.5.3,2.3,1,5.5.8,15.3,0,25.3h.1Z"/>
        <path class="st1" d="M371.7,312.9c.1,1,.7,1.9,1.6,2.4.6.4,22.7,2.2,23.3,1.9,5-2.1-17.6-10-17.6-10h-6.1c0,.1-1.3,4.5-1.1,5.6h0Z"/>
        <path class="st35" d="M382.2,247.4h0c0-3.8-3.1-7-6.9-7.2l-35.3-2.6c-5.1.2-9,4.5-8.8,9.6h0c.3,5.1,4.6,9.1,9.7,8.9l34.2-2c4-.1,7.2-2.7,7.1-6.6h0Z"/>
      </g>
      <path class="st28" d="M327.5,225.6s-5.3,27.8,9.8,30.5h26.1c-4.4-13.9,7.5-17.8,31.9-15.8l-31-16.1c-1.4,6-14.2,6.4-36.8,1.4h0Z"/>
    </g>
    <g id="desk">
      <g>
        <g>
          <polygon class="st3" points="415.4 229.1 415.4 237.5 323.1 237.5 323.1 229.1 318.6 229.1 318.6 318.3 323.1 318.3 323.1 239.1 415.4 239.1 415.4 318.3 419.9 318.3 419.9 229.1 415.4 229.1"/>
          <polygon class="st17" points="437.6 229.1 437.6 237.5 336.3 237.5 336.3 229.1 331.4 229.1 331.4 318.3 336.3 318.3 336.3 239.1 437.6 239.1 437.6 318.3 442.5 318.3 442.5 229.1 437.6 229.1"/>
        </g>
        <g>
          <rect class="st12" x="327.4" y="225.6" width="117.6" height="5.5"/>
          <rect class="st32" x="316.7" y="225.6" width="10.7" height="5.5"/>
        </g>
      </g>
      <g>
        <path class="st21" d="M339,243.8c0,6.4-2.8,11.6-6.2,11.6s-6.1-5.2-6.1-11.6,2.8-11.6,6.2-11.6,6.1,5.2,6.1,11.6Z"/>
        <path class="st21" d="M322.8,242.2c0,6.4-2.8,11.6-6.2,11.6s-6.1-5.2-6.1-11.6,2.8-11.6,6.2-11.6,6.1,5.2,6.1,11.6Z"/>
        <path class="st18" d="M305.3,260.4c.3-1.6.9-3.1,1.7-4.5l.3-.5c3-4.3,20.6,1,20.6,1,2.8,1,4.1,4.5,4.6,8.5h0c.8,6.3-.3,13.7-.3,13.7-.3.2-.5.3-.8.4.3,0,.7-.2,1-.3,3.8-1.5,6.6-5.4,6.4-10l-.8-18.4c.4-14.3-6.8-15.3-6.8-15.3l-19.5-1.7h-.7c-1.1,0-2,.2-2.7.5,0,0-.2,0-.2.1h0c-1.8.9-2.5,2.6-2.7,3.9-.2,1-.1,1.7-.1,1.7v2.4h0v18.5c.1,0,0,0,0,0Z"/>
        <path class="st21" d="M305.1,263.1c0-.9,0-1.8.2-2.7h0c.3-1.6.9-3.1,1.7-4.5l.3-.5c3-4.3,20.6,1,20.6,1,4.8,1.7,5.1,10.8,4.8,16.8v.9c-.2,2.7-.5,4.5-.5,4.5-.3.2-.5.3-.8.4-6.9,3.4-16.6-.4-21.9-3.1-2.4-1.2-4-3.7-4.1-6.4v-1.2h0l-.2-5.2h-.1Z"/>
        <path class="st15" d="M307,255.9c6.2-.2,15.7,2.7,15.7,2.7,4.8,1.7,5.1,10.8,4.8,16.8v.9c-.1,1.9-.3,3.3-.4,4.1,1.5-.2,3-.6,4.3-1.2.3-.1.6-.3.8-.4,0,0,.3-1.9.5-4.5v-.9c.3-6,0-15.1-4.8-16.8,0,0-17.6-5.3-20.6-1l-.3.5v-.2Z"/>
        <path class="st1" d="M305.3,268.2v.8c5.9,2.6,20.3,8.4,27.4,5.1v-.9c-3.3,1-10.8,1.2-27.4-5.6v.6Z"/>
        <path class="st21" d="M313.6,248.1l6.7.7c1.4.1,2.6-1.1,2.4-2.5l-.2-1.7c-.1-1-.9-1.8-1.9-1.9l-6.7-.7c-1.4-.1-2.6,1.1-2.4,2.5l.2,1.7c.1,1,.9,1.8,1.9,1.9Z"/>
        <path class="st18" d="M314.1,264.4l3.9.6c.8.1,1.5-.6,1.4-1.4v-1c-.1-.6-.6-1.1-1.2-1.1l-3.9-.6c-.8-.1-1.5.6-1.4,1.4v1c.1.6.6,1.1,1.2,1.1Z"/>
        <path class="st14" d="M305.1,241.8c.2-3.7,2.7-3.8,3.3-3.8l17.9,2c2.9.3,5.1,2.6,5.5,5.5.6,5,.7,12.7.7,19.4h0c0,7.5-.3,13.7-.3,13.7h.1c3.8-1.5,6.6-5.3,6.4-9.9l-.8-18.4c.4-14.3-6.8-15.3-6.8-15.3l-19.5-1.7h-.7c-1.1,0-2,.2-2.7.5,0,0-.2,0-.2.1h0c-1.8.9-2.5,2.6-2.7,3.9-.2,1-.1,1.7-.1,1.7v2.4h0Z"/>
      </g>
      <g>
        <path class="st30" d="M411.7,220.9h-41c-2.6,0-4.8,2.1-4.8,4.8h50.5c0-2.6-2.1-4.8-4.8-4.8h0Z"/>
        <path class="st30" d="M381.6,218.6l8.9-29.5c.3-1.1,1.4-1.9,2.6-1.9h31.4c1.8,0,3.1,1.8,2.5,3.5l-9.8,29.5c-.4,1.1-1.4,1.8-2.5,1.8h-30.4c-1.8,0-3.1-1.7-2.6-3.5h-.1Z"/>
        <path class="st24" d="M410.2,204.4c0,1.7-1.4,3.1-3.1,3.1s-3.1-1.4-3.1-3.1,1.4-3.1,3.1-3.1,3.1,1.4,3.1,3.1Z"/>
      </g>
      <g>
        <g>
          <path class="st0" d="M441.3,221.4l-1,1.4-.6-1.6,2.7-18.7c0-.5.5-.8.9-.7h0c.5,0,.8.5.7.9l-2.7,18.7h0Z"/>
          <path class="st5" d="M438.7,203.1l1-1.4.7,1.6-1.8,18.8c0,.5-.4.8-.9.7h0c-.5,0-.8-.4-.7-.9l1.8-18.8h-.1Z"/>
          <path class="st18" d="M437.2,221.3l-.7,1.6-1-1.4-1.6-18.8c0-.5.3-.9.8-.9h0c.5,0,.9.3.9.8l1.6,18.8h0Z"/>
          <path class="st22" d="M431.6,203.1l.8-1.5.8,1.5v18.9c0,.5-.4.8-.8.8h0c-.5,0-.8-.4-.8-.8v-18.9Z"/>
        </g>
        <rect class="st21" x="430.6" y="211.4" width="12.9" height="14.2"/>
      </g>
      <g>
        <g>
          <path class="st0" d="M373.5,235.8h-30.7c-.4,0-.8.4-.8.8h0c0,.4.4.8.8.8h30.7c.4,0,.8-.4.8-.8h0c0-.4-.4-.8-.8-.8Z"/>
          <path class="st0" d="M373.5,231.4h-30.7c-.4,0-.8.4-.8.8h0c0,.4.4.8.8.8h30.7c.4,0,.8-.4.8-.8h0c0-.4-.4-.8-.8-.8Z"/>
          <rect class="st6" x="342.8" y="233" width="30.7" height="2.8"/>
        </g>
        <g>
          <path class="st34" d="M406.6,235.8h-30.7c-.4,0-.8.4-.8.8h0c0,.4.4.8.8.8h30.7c.4,0,.8-.4.8-.8h0c0-.4-.4-.8-.8-.8Z"/>
          <path class="st34" d="M406.6,231.4h-30.7c-.4,0-.8.4-.8.8h0c0,.4.4.8.8.8h30.7c.4,0,.8-.4.8-.8h0c0-.4-.4-.8-.8-.8Z"/>
          <rect class="st6" x="375.9" y="233" width="30.7" height="2.8"/>
        </g>
        <g>
          <path class="st11" d="M359.5,224.2h-30.7c-.4,0-.8.4-.8.8h0c0,.4.4.8.8.8h30.7c.4,0,.8-.4.8-.8h0c0-.4-.4-.8-.8-.8Z"/>
          <path class="st11" d="M359.5,219.8h-30.7c-.4,0-.8.4-.8.8h0c0,.4.4.8.8.8h30.7c.4,0,.8-.4.8-.8h0c0-.4-.4-.8-.8-.8Z"/>
          <rect class="st6" x="328.8" y="221.4" width="30.7" height="2.8"/>
        </g>
      </g>
    </g>
  </g>
  <g id="girl-turned-packpack" class="st37">
    <g>
      <path class="st35" d="M262.4,162.2h0c-.9,1.3-1.3,2.9-1,4.5l5.4,31.8,6.4-2.6-2.7-30.8c-.4-4.7-5.5-6.5-8.1-2.9h0Z"/>
      <path class="st35" d="M264.9,170.6h0c3.4.4,6.1-3.6,5.4-7.7l-5.2-26.2c-.7-4.2-3.9-6.7-7.2-5.8h0c-3.8,1-6.1,6.2-4.6,10.8l8,24.4c.7,2.1,1.8,4.3,3.6,4.5h0Z"/>
      <path class="st6" d="M262.8,132c3.1,3.2,6.9,9.7,9,23l-13.3,5.4-1.4-5.2c-3.6-8.1-6.3-15.5-5.3-20.5,1-4.7,7.6-6.3,11-2.7Z"/>
      <path class="st35" d="M268.4,208.4l-1.6-10.5,6.4-2.6v.4c7.5,4.3,8.4,10.8,8.4,10.8,1,6.2-.6,6.9-2,6.5-1-.3-1.8-1.1-2.2-2.1-2.1-4.5-7.1-8.7-7.1-8.7.1,9-1.9,6.3-1.9,6.3h0Z"/>
    </g>
    <g>
      <path class="st18" d="M217.5,156.2l2.6,22.9c4.3,1.5,16.9,5.5,23.3,2l9.8-47.5c.9-4.3-2.4-8.3-6.8-8.3-10.1,0-25.8,1.3-27.6,7.2-.2.6-.3,1.2-.3,1.9l-.9,21.8h-.1Z"/>
      <path class="st21" d="M218.6,178.5s.5.2,1.5.5l-2.6-22.9h0v1.5c-1.4.3-3.6,3.9-3.6,3.9,0,0,.9,13.8,4.7,16.9h0Z"/>
    </g>
    <path class="st21" d="M246.5,125.6s16.7,24.5,16,30.1c0,0,2.6-9.4,0-18.2-.6-2-2.4-6-5-8.4-1.4-1.2-8.4-5.7-11-3.5Z"/>
    <path class="st6" d="M234.3,172.5l-6.3-29.5c-.7-3.3.3-6.8,2.7-9.2l5.1-5.2,2.4-2.4h9.1s1.6,1,3.8,2.6c4.6,3.5,11.7,9.8,12.2,16.1l.7,9.2c.6,8.2,1.4,16.3,2.5,24.4-10,3.5-20.2,3.3-30.6-.2l-1.4-5.8h-.2Z"/>
    <path class="st21" d="M232.3,163.2c-.3.9,25.9-16,2-36.8h0c-2.5-1.8-5.8-1.6-8.1.5l-1,.9s15.8,8.8,7,35.4h.1Z"/>
    <path class="st38" d="M251.2,131c.1,4-4.1,6.8-7.8,5.2-3.8-1.6-6.3-5-7.7-7.7l2.4-2.4h9.1s1.6,1,3.8,2.6c.2.8.2,1.6.3,2.3h-.1Z"/>
    <g>
      <path class="st19" d="M268.6,109.1c0-4.7-2.2-8.3-4-12.1-.8-1.7-1.6-4.7-2.8-6-1.6-1.7-5.4-.9-7.4-1-7.4-.3-14.8.2-22.2,1.1-2.3.3-3.7-.6-4.6,2.7-.6,2.1-1,2.9-1,2.9-2.3,4-6.1,6.4-7.5,11.5-1.1,4.1-.6,9.2,1.8,12.1,0-1.6.2-3.7.5-5.1,1.6,1.2,2.7,3.6,4.3,5s3.4,2.6,5.2,3.3c.2-1.4-.3-3.3,0-4.5,1.3,3.2,4.5,4.6,6.9,6,0-1.9-.5-4.3,1.1-3.2.4.3,1,1.6,1.5,2s1.1.8,1.7,1.1c1.8,1.1,2.6,1.4,4.3,0,1.2-1.1,2.7-2.6,3.7-4,.6,1.2.3,3.2.3,4.6,2,0,4.4-2.4,5.7-4.3.3,1.1,0,2.3.3,3.4,2.6-.3,7.2-5.1,8.4-8,1.2,1.1,2.2,3.6,1.9,5.5,2.1-3.5,2.1-8.8,2.1-13.1h-.2Z"/>
      <path class="st7" d="M243.9,129.6h0c-3.2,0-5.7-2.6-5.7-5.7v-11.1h9.1v13.5c0,1.8-1.5,3.3-3.3,3.3h-.1Z"/>
      <path class="st16" d="M263.8,97.8c0,1.1,0,2.2-.1,3.2,0,.7-.1,1.4-.2,2-.3,1.8-.6,3.4-1.2,5-.2.6-.4,1.1-.6,1.7-2.9,7.4-8.5,12.4-15,12.5-3.1,0-6-1.1-8.6-3.1-.6-.4-1.1-.9-1.6-1.4-4.4-4.4-7.3-11.5-7.3-19.6-.1-13.4,7.5-24.3,17.1-24.4,1.4,0,2.8.2,4.1.7,7.6,2.5,13.3,12,13.4,23.4h0Z"/>
      <g>
        <path class="st1" d="M241.1,96.3c.2,0,.4,0,.5-.3,1.7-3.2,4.6-1.9,4.7-1.9.3,0,.6,0,.8-.3.1-.3,0-.6-.3-.8-1.4-.6-4.5-.9-6.2,2.4-.1.3,0,.6.2.8h.3Z"/>
        <path class="st1" d="M254.7,111.9c-.1-.2-.4-.2-.6,0-3.4,1.2-4.6-1.8-4.7-1.9-.1-.3-.4-.4-.7-.3s-.4.4-.3.7c.6,1.4,2.6,3.8,6.1,2.6.3,0,.5-.4.4-.7,0,0,0,0-.1-.2h0Z"/>
        <path class="st1" d="M256.4,93.6c.1,0,.3.2.5,0,2.8-1.1,4,1.3,4,1.4.1.2.4.3.6.2.2,0,.3-.4.2-.6-.5-1.2-2.3-3.1-5.2-1.9-.2,0-.4.4-.3.6,0,0,0,0,.1.2h0Z"/>
        <path class="st1" d="M246.1,99.6c0,.9.7,1.7,1.6,1.7s1.6-.8,1.6-1.7-.7-1.7-1.6-1.7-1.6.8-1.6,1.7Z"/>
        <path class="st1" d="M256.6,99.5c0,.9.7,1.7,1.6,1.7s1.6-.8,1.6-1.7-.7-1.7-1.6-1.7-1.6.8-1.6,1.7Z"/>
        <path class="st8" d="M263.5,103.1c-.3,1.8-.6,3.4-1.2,5-.2.6-.4,1.1-.6,1.7-1-.7-1.6-1.9-1.5-3.1,0-1.8,1.5-3.3,3.3-3.5h0Z"/>
        <path class="st8" d="M241.3,103.3c2,0,3.6,1.8,3.6,3.9s-1.8,3.6-3.9,3.6-3.6-1.8-3.6-3.9,1.8-3.6,3.9-3.6Z"/>
        <path class="st1" d="M253.9,108h-.7c-.3,0-.5-.3-.5-.6s.3-.5.6-.5h.6c.6,0,.9-.4,1-.8,0-.4,0-.9-.6-1.1,0,0-.3-.1-.4-.1-.7-.2-1.2-.8-1.2-1.6v-1.2c0-.3.2-.5.5-.5s.5.2.5.5v1.2c0,.3.2.5.4.6.2,0,.4.1.6.2.9.4,1.4,1.3,1.2,2.3-.2.8-.9,1.6-2,1.6h0Z"/>
      </g>
      <path class="st13" d="M238.4,119.1h-.2c-.6-.4-1.1-.9-1.6-1.4-4.4-4.4-7.3-11.5-7.3-19.5-.1-13.4,7.5-24.3,17.1-24.4,1.4,0,2.8.2,4.1.7-7.4,5.9-20.4,21.4-12,44.7h-.1Z"/>
      <g>
        <path class="st16" d="M233.3,98.1c1.1,3,.5,5.9-1.4,6.6s-4.2-1.2-5.3-4.2-.5-5.9,1.4-6.6c1.8-.7,4.2,1.2,5.3,4.2Z"/>
        <path class="st13" d="M233.3,98.1c1.1,3,.5,5.9-1.4,6.6s-4.2-1.2-5.3-4.2-.5-5.9,1.4-6.6c1.8-.7,4.2,1.2,5.3,4.2Z"/>
      </g>
      <path class="st19" d="M265.9,104.1c-.3-3.2-.7-8.7-1-11.2,0-.9-.1-1.7-.1-2.6-.3-6.5-2.1-13.6-6.4-17.2-3.1-2.6-5.8-.6-9.1-1.2-10.2-1.7-18.6,0-22.3,8.9-9,21.6,2.6,32.9,4.5,35.9.9,1.4,9.8,7.1,11.2,7.9-7.4-7.9-7-21.7-5.9-29.8.5-4,2.6-7.7,5.8-10.2h0s2.8,2.9,4.4,4c2,1.3,4.7,2.4,6.9,2.6-.3-.6-.9-1.2-1.3-1.8-.2-.3-.4-.8-.6-1.1,1.2,1.5,3.1,2.7,4.5,3.8,1.4,1.1,3,1.6,4.6,2.2.1-.6-1.3-3.3-1.7-4.1.5.8,1.3,1.3,1.8,2.1.5.8.9,1.7,1.3,2.5h0c.2,4.4-.2,8.6-.2,12.9s.1,4.9-.3,7.2c-.4,2.1-2.2,4.1-1.9,6.3,1.4-.8,4.1-3.1,5-4.5,1.9-2.9,1.1-9.2.8-12.6h0Z"/>
    </g>
    <g>
      <g>
        <path class="st35" d="M252,268.6c-1.2,18.7-3.7,38.1-4.3,38.1l-5.8-.4-2-38.5-1.5-28.9v-1.2c0-.4,0-.8.2-1.2.7-3.1,3.6-5.3,6.9-5.1,3.3.2,6,2.9,6.2,6.1,0,.9.2,1.7.3,2.6,1,6.2.7,17.2,0,28.5h0Z"/>
        <path class="st6" d="M252,268.6c-1.2,18.7-3.7,38.1-4.3,38.1h-5.7l-2-38.9,12.1.8h-.1Z"/>
      </g>
      <path class="st1" d="M240.8,313.7c0,.6.4,1.6.9,2.4.5,1,1.5,1.6,2.6,1.6h21.6c4.9-2.6-18.2-10.9-18.2-10.9h-5.7s-1.3,5.8-1.1,7h0Z"/>
      <path class="st35" d="M245.2,244.3h0c3.8-.4,6.6-3.6,6.5-7.5l-.8-35.3c-.7-5.1-5.3-8.6-10.4-7.9h0c-5.1.7-8.6,5.3-7.9,10.4l5.3,33.8c.5,3.9,3.4,6.9,7.3,6.5h0Z"/>
    </g>
    <g>
      <g>
        <path class="st35" d="M269.8,268.6c-1.2,18.7-3.7,38.1-4.3,38.1l-5.8-.4-2-38.5-1.5-28.9v-1.2c0-.4,0-.8.2-1.2.7-3.1,3.6-5.3,6.9-5.1s6,2.9,6.2,6.1c0,.9.2,1.7.3,2.6,1,6.2.7,17.2,0,28.5h0Z"/>
        <path class="st6" d="M269.8,268.6c-1.2,18.7-3.7,38.1-4.3,38.1h-5.7l-2-38.9,12.1.8h-.1Z"/>
      </g>
      <path class="st1" d="M258.7,313.7c0,.6.4,1.6.9,2.4.5,1,1.5,1.6,2.6,1.6h21.6c4.9-2.6-18.2-10.9-18.2-10.9h-5.7s-1.3,5.8-1.1,7h0Z"/>
      <path class="st35" d="M263.1,244.3h0c3.8-.4,6.6-3.6,6.5-7.5l-.8-35.3c-.7-5.1-5.3-8.6-10.4-7.9h0c-5.1.7-8.6,5.3-7.9,10.4l5.3,33.8c.5,3.9,3.4,6.9,7.3,6.5h0Z"/>
    </g>
    <g>
      <path class="st38" d="M268.9,211.3l-15.8,7.3-19.2-6.6h0s-1.7-5.2-1.3-12c.2-2.6.7-5.2,1.3-7.6,1.3-4.2,1.6-8.6,1.4-13,.3-.8.5-1.1.5-1.1,10.4,3.5,20.6,3.7,30.6.2,0,.5.1.9.2,1.4.3,2.3.7,4.7,1.1,7,0,.6.2,1.1.3,1.6.2,1,.4,2,.5,3,.8,4.3,1,9.5.5,19.8h-.1Z"/>
      <path class="st38" d="M235.8,178.6s-11.6,30-11.1,58.1c0,1.5.9,2.7,2.1,3.1,7.9,2.1,36.8,8.9,50.7-1.7.9-.7,1.4-1.9,1.2-3.1-1.1-8.2-5.6-40.7-11.9-56.3-10.2,4.3-20.5,4.1-31.1,0h0Z"/>
    </g>
    <g>
      <path class="st35" d="M228.4,166.1h0c1,1.1,1.6,2.8,1.5,4.4l-1.8,32.2-6.7-1.9-.8-30.9c-.1-4.7,4.7-7.1,7.7-3.8h.1Z"/>
      <path class="st35" d="M226.9,174.7h0c-3.3.8-6.5-2.8-6.2-7.1l2.1-26.6c.2-4.2,3.1-7.1,6.5-6.6h0c3.9.6,6.7,5.5,5.8,10.2l-5.2,25.2c-.4,2.2-1.3,4.5-3.1,4.9h0Z"/>
      <path class="st6" d="M224.5,136.1c-2.7,3.5-5.7,10.4-6.4,23.9l13.9,3.9.8-5.3c2.7-8.4,4.5-16.1,2.9-20.9-1.5-4.6-8.2-5.4-11.2-1.5h0Z"/>
      <path class="st35" d="M227.7,212.7l.4-10.6-6.7-1.9v.4c-7,5.1-7.2,11.7-7.2,11.7-.2,6.3,1.4,6.8,2.7,6.2.9-.4,1.6-1.3,2-2.4,1.6-4.7,6.1-9.5,6.1-9.5.9,9,2.6,6.1,2.6,6.1h0Z"/>
    </g>
  </g>
  <g id="girl-side-backpack" class="st37">
    <g>
      <path class="st21" d="M134.1,147l-3.9,1.3c-2.7.9-4.5,3.3-4.5,6.1v11.6c0,2.3,1.3,4.5,3.3,5.6,1.3.7,3,1.5,5.1,2v-26.6h0Z"/>
      <path class="st18" d="M152.2,124v49c-2.1,1.5-4.7,2.1-7.2,2.2-6.2.3-12.3-2.2-12.3-2.2v-25.6l1.6-18.4c.9-2.3,6-3.6,10.6-4.3.4,0,.9,0,1.3-.2,3.3-.4,6.1-.6,6.1-.6h-.1Z"/>
      <path class="st14" d="M146.1,124.6l-1.1,50.6c-6.2.3-12.3-2.2-12.3-2.2v-9.2l12.1-39.1c.4,0,.8,0,1.3-.2h0Z"/>
    </g>
    <g>
      <path class="st19" d="M164.8,110.3c1.3-2.3,3.6-2.6,5.5-1.8.1-.3.2-.6.4-.8,2.7-5.6,0-11.2.5-17.1.1-1.4.7-2.4,1.6-3.1-1.9-.6-4.5,0-6.1-.2-7.4-.3-14.8.2-22.2,1.1-2.3.3-3.7-.6-4.6,2.7-.6,2.1-1,2.9-1,2.9-2.3,4-6.1,6.4-7.5,11.5-1.1,4.1-.6,9.2,1.8,12.1,0-1.6.2-3.7.5-5.1,1.6,1.2,2.7,3.6,4.3,5s3.4,2.6,5.2,3.3c.2-1.4-.3-3.3,0-4.5,1.3,3.2,4.5,4.6,6.9,6,0-1.9-.5-4.3,1.1-3.2.4.3,1,1.6,1.5,2s1.1.8,1.7,1.1c1.8,1.1,2.6,1.4,4.3,0,1-.9,2.1-2,3-3.2.8-3,1.6-6,3.2-8.7h0Z"/>
      <rect class="st7" x="149" y="118" width="14.9" height="8.6" transform="translate(14.5 261.2) rotate(-82.4)"/>
      <path class="st16" d="M180.1,99.5c-.2,0-.4,0-.6-.2-.2,0-.3-.2-.4-.3,0-.9.1-1.9.1-2.9,0-10.5-4.9-19.5-11.9-22.8-1.9-.9-3.8-1.4-5.9-1.4-9.8,0-17.8,10.8-17.8,24.2s8,24.2,17.8,24.2.5,0,.8,0c6.3-.4,11.8-5.2,14.7-12.3.2-.4.3-.8.5-1.2.4-1,.7-2.1,1-3.2h.8c1.2,0,1.9-.9,2.1-1.8.2-1-.3-2-1.3-2.4h0Z"/>
      <path class="st13" d="M162.3,120.2h-.8c-9.8,0-17.8-10.8-17.8-24.2s8-24.2,17.8-24.2,4.1.5,5.9,1.4c-5.2,10-16.9,35-5.1,47h0Z"/>
      <g>
        <path class="st1" d="M168.9,93.1c.2,0,.4,0,.5-.3,1.7-3.2,4.6-1.9,4.7-1.9.3,0,.6,0,.8-.3.1-.3,0-.6-.3-.8-1.4-.6-4.5-.9-6.2,2.4-.1.3,0,.6.2.8h.3Z"/>
        <path class="st1" d="M176.4,109.8c-.1.4-.3.8-.5,1.2-2.5,0-4-1.7-4.5-2.9-.1-.3,0-.6.3-.7s.6,0,.7.3c0,0,1.1,2.6,3.9,2.1h.1Z"/>
        <path class="st1" d="M172.4,96.4c0,.9.7,1.7,1.6,1.7s1.6-.8,1.6-1.7-.7-1.7-1.6-1.7-1.6.8-1.6,1.7Z"/>
        <path class="st8" d="M167.1,98.3c2,0,3.6,1.8,3.6,3.9s-1.8,3.6-3.9,3.6-3.6-1.8-3.6-3.9,1.8-3.6,3.9-3.6Z"/>
      </g>
      <path class="st19" d="M182,77.4c-2-4.2-5.5-6.2-9.7-7.4-5.6-1.6-10.6-3.2-16.5-2.6-9.5,1-16.9,8.6-19.1,16.2-5.7,19.8,4.3,26,5.7,27.6.7.9,10.3,6,10.3,6-.3.6.3-3.9.2-4.6-.3-2.5.8-10.9,1.1-15.6,0-1.4,1.2-2.6,2.6-2.7,3.5,0,8.3-2.2,9.8-3.8-.7,1.5-2.1,2.9-3.2,4.2,3.8-1.6,7-5.4,9.7-8.2-.4,1.8.2,3.7-.6,5.4,2.4-2.3,3.1-5.5,4.4-8.3.6,1.5.8,3.3,1.2,4.9.6,2.4,1.6,5.1,3.1,7.1,1.4-2.8,3.4-12.8.8-18.1h.2Z"/>
      <path class="st16" d="M156.2,98.9c1.1,2.7.3,5.7-1.9,6.6s-4.9-.6-6-3.3-.3-5.7,1.9-6.6,4.9.6,6,3.3Z"/>
      <path class="st13" d="M156.2,98.9c1.1,2.7.3,5.7-1.9,6.6s-4.9-.6-6-3.3-.3-5.7,1.9-6.6,4.9.6,6,3.3Z"/>
    </g>
    <g>
      <g>
        <path class="st35" d="M174.2,268.6c-1.2,18.7-3.7,38.1-4.3,38.1l-5.8-.4-2-38.5-1.5-28.9v-1.2c0-.4,0-.8.2-1.2.7-3.1,3.6-5.3,6.9-5.1,3.3.2,6,2.9,6.2,6.1,0,.9.2,1.7.3,2.6,1,6.2.7,17.2,0,28.5h0Z"/>
        <path class="st6" d="M174.2,268.6c-1.2,18.7-3.7,38.1-4.3,38.1h-5.7l-2-38.9,12.1.8h-.1Z"/>
      </g>
      <path class="st1" d="M163.1,313.7c0,.6.4,1.6.9,2.4.5,1,1.5,1.6,2.6,1.6h21.6c4.9-2.6-18.2-10.9-18.2-10.9h-5.7s-1.3,5.8-1.1,7h-.1Z"/>
      <path class="st35" d="M167.5,244.3h0c3.8-.4,6.6-3.6,6.5-7.5l-.8-35.3c-.7-5.1-5.3-8.6-10.4-7.9h0c-5.1.7-8.6,5.3-7.9,10.4l5.3,33.8c.5,3.9,3.4,6.9,7.3,6.5h0Z"/>
    </g>
    <g>
      <g>
        <path class="st35" d="M162.9,269.5c-1.2,18.7-3.7,38.1-4.3,38.1l-5.8-.4-2-38.5-1.5-28.9v-1.2c0-.4,0-.8.2-1.2.7-3.1,3.6-5.3,6.9-5.1,3.3.2,6,2.9,6.2,6.1,0,.9.2,1.7.3,2.6,1,6.2.7,17.2,0,28.5h0Z"/>
        <path class="st6" d="M162.9,269.5c-1.2,18.7-3.7,38.1-4.3,38.1h-5.7l-2-38.9,12.1.8h-.1Z"/>
      </g>
      <path class="st1" d="M151.8,314.6c0,.6.4,1.6.9,2.4.5,1,1.5,1.6,2.6,1.6h21.6c4.9-2.6-18.2-10.9-18.2-10.9h-5.7s-1.3,5.8-1.1,7h-.1Z"/>
      <path class="st35" d="M156.2,245.2h0c3.8-.4,6.6-3.6,6.5-7.5l-.8-35.3c-.7-5.1-5.3-8.6-10.4-7.9h0c-5.1.7-8.6,5.3-7.9,10.4l5.3,33.8c.5,3.9,3.4,6.9,7.3,6.5h0Z"/>
    </g>
    <g>
      <path class="st6" d="M174.8,175.2c-.2-20.5-4.9-34.1-8.7-41.6-.5-.9-.9-1.8-1.4-2.6-1.7-3-4.3-5.3-7.5-6.6l-4.2-1.7-.9-.4c-11,14.4-3.3,49.8-2.6,53,8.3,2.7,17.3,2.8,25.4,0h-.1Z"/>
      <path class="st38" d="M166.1,133.6c-6.7-1.4-15.7-8.6-15.7-8.6.6-1,1.1-1.9,1.7-2.7l5.2,2.2c3.2,1.3,5.8,3.6,7.5,6.6.4.8.9,1.6,1.4,2.6h0Z"/>
      <path class="st35" d="M174.8,175.2c-8,2.8-17.1,2.8-25.4,0v.3c-1.2,2.7-2.7,5.1-3.7,7.9-1,2.9-1.8,6-1.9,9.1-.5,8,2.9,16.6,11,19.2,6.5,2.1,13.3-.3,17.1-5.4,2.1-11.8,2.9-22.1,2.8-31.1h0Z"/>
      <path class="st6" d="M149.5,175.5v-.3.3Z"/>
      <path class="st10" d="M149.4,175.3h0Z"/>
      <path class="st38" d="M148.4,174s-10,29.2-9.8,57c0,2.1,1.3,4,3.1,4.5,7.8,2.3,29.2,7.3,41.5-.4,2.2-1.4,3.4-4.2,3-7.1-1.3-10.8-6.2-39.4-11.3-53.9-9,4.3-17.1,4-26.4-.2h-.1Z"/>
    </g>
    <path class="st21" d="M145.5,124.8s23.7-9.4,22.5,21.4c0,0-.2,28.2-21.3,28.7l-2.2.6v-4.4s14.7,1.8,15.4-20c0,0,2.6-27.8-14.7-23.2l.3-3h0Z"/>
    <g>
      <path class="st35" d="M155.3,160.3h0c1.2,1,1.9,2.5,2.1,4.2l2.3,32.1-6.9-1-4.6-30.6c-.7-4.7,3.8-7.6,7.2-4.7h-.1Z"/>
      <path class="st35" d="M154.8,169h0c-3.2,1.2-6.8-2-7.1-6.2l-1.2-26.6c-.3-4.2,2.2-7.5,5.7-7.4h0c4,.1,7.4,4.6,7.1,9.4l-2,25.7c-.1,2.2-.7,4.6-2.5,5.2h0Z"/>
      <path class="st6" d="M147.6,131c-2.2,3.8-4.4,11-3.3,24.5l14.3,2.1.2-5.4c1.6-8.7,2.4-16.6.3-21.1-2.1-4.4-8.8-4.3-11.3,0h-.2Z"/>
      <path class="st35" d="M160.4,206.6l-.9-10.6-6.9-1v.4c-6.3,6-5.7,12.5-5.7,12.5.5,6.2,2.2,6.6,3.5,5.9.9-.5,1.4-1.5,1.7-2.6,1-4.9,4.8-10.2,4.8-10.2,2,8.8,3.4,5.7,3.4,5.7h0Z"/>
    </g>
  </g>
  <g id="girl-front-backpack" class="st37">
    <g>
      <path class="st35" d="M69.2,237v1.2l-3.4,28.8-4.5,38.3h-5.8c-.6,0-1.9-19.6-1.9-38.3s.6-24.3,2.2-30c0-3.7,3-6.7,6.7-6.7s6,2.4,6.6,5.5v1.2h0Z"/>
      <path class="st6" d="M53.7,267h12.1l-4.5,38.3h-5.8c-.6,0-1.9-19.6-1.9-38.3h0Z"/>
      <path class="st1" d="M62.6,311.4c0,1.2-.7,2.1-1.6,2.7-.6.4-22.7,2.4-23.3,2.2-5-2.4,17.6-11.2,17.6-11.2l6.1.2s1.3,4.9,1.1,6.2h0Z"/>
      <path class="st35" d="M63.5,243.8h0c-3.8.4-7.2-2.2-8-5.9l-6.7-34.7c-.4-5.1,3.4-9.5,8.5-10h0c5.1-.4,9.5,3.4,10,8.5l2,34.2c.3,4-1.8,7.5-5.7,7.9h-.1Z"/>
    </g>
    <g>
      <path class="st35" d="M84.6,267c0,18.7-1.3,38.3-1.9,38.3h-5.8l-4.5-38.3-3.3-28.8v-.6c0-.2,0-.4,0-.6,0-.4,0-.8,0-1.2.6-3.1,3.3-5.5,6.6-5.5s6.7,3,6.7,6.7c1.7,5.7,2.2,17.7,2.2,30h0Z"/>
      <path class="st6" d="M84.6,267c0,18.7-1.3,38.3-1.9,38.3h-5.8l-4.5-38.3h12.2Z"/>
      <path class="st1" d="M75.6,311.4c0,1.2.7,2.1,1.6,2.7.6.4,22.7,2.4,23.3,2.2,5-2.4-17.6-11.2-17.6-11.2l-6.1.2s-1.3,4.9-1.1,6.2h-.1Z"/>
      <path class="st35" d="M74.8,243.8h0c3.8.4,7.2-2.2,8-5.9l6.7-34.7c.4-5.1-3.4-9.5-8.5-10h0c-5.1-.4-9.5,3.4-10,8.5l-2,34.2c-.3,4,1.8,7.5,5.7,7.9h.1Z"/>
    </g>
    <path class="st35" d="M85.7,166c-1.5,5.7-1.2,11.7.7,17.3.7,2.1,1.4,4.7,1.8,7.8.5,3,1.2,7.7,1.2,11.5l-18.9,7.5h-2.8l-18.9-7.2c0-5.2.7-12.8,2.1-17.6.4-1.4.9-2.8,1.4-4,2.5-5.4,3.5-11.4,2.5-17.3l-3.9-22.6-1.2-6.7,1.2-.7,15.7-9.9h9.1l14.2,9.8,1.1.7-1.1,6.5-4.1,25h0Z"/>
    <g>
      <path class="st18" d="M86.8,177.8h-31.9c-2.3,0-4.1-1.8-4.1-4.1v-11.8c0-6.4,5.3-11.7,11.7-11.7h16.7c6.4,0,11.7,5.3,11.7,11.7v11.8c0,2.3-1.8,4.1-4.1,4.1Z"/>
      <path class="st36" d="M90.1,139.4v32.8c0,2.2-1.8,3.9-3.9,3.9h-30.5c-2.2,0-3.9-1.8-3.9-3.9v-32.8c0-2.5.7-4.9,1.9-6.9,2-3.5,5.6-6.1,9.7-6.8.8,0,1.6-.2,2.4-.2h10.6c.7,0,1.3,0,1.9,0h0c4.5.6,8.3,3.4,10.3,7.2,1.1,2,1.6,4.2,1.6,6.6h0Z"/>
      <path class="st21" d="M88.4,132.8c-2.1-3.8-5.9-6.6-10.3-7.2,0,0,2.6-1.3,5.4-1.7,5-.7,8.1,5.1,4.9,8.9Z"/>
      <path class="st21" d="M63.4,125.6h0c-4.1.8-7.7,3.3-9.7,6.9l-.5.4c-3.3-3.8,0-9.6,4.9-8.9,2.9.4,5.5,1.7,5.5,1.7h-.2Z"/>
    </g>
    <path class="st6" d="M85.7,166c-1.5,5.7-1.2,11.7.7,17.3.7,2.1,1.4,4.7,1.8,7.8h-37.3v-5.8c.4-1.4.9-2.8,1.4-4,2.5-5.4,3.5-11.4,2.5-17.3l-3.9-22.6-1.1-6.7,12.7-8,4.1-2.6h9.1l3.5,2.4,11.8,8.1-1.1,6.5-4.1,25h-.1Z"/>
    <path class="st38" d="M54.2,177.6s-11.6,30-11.1,58.1c0,1.5.9,2.7,2.1,3.1,7.9,2.1,36.8,8.9,50.7-1.7.9-.7,1.3-1.9,1.2-3.1-1.1-8.2-5.6-40.7-11.9-56.3-10.2,4.3-20.5,4.1-31.1,0h.1Z"/>
    <path class="st38" d="M79.1,126.4h0c-2.4,8-13.6,8.3-16.5.5,0,0,0-.2,0-.3l4.1-2.6h9.1l3.5,2.4h0Z"/>
    <g>
      <path class="st35" d="M46.4,165.8h0c.8,1.3,1.1,3,.7,4.6l-7.7,31.3-6.2-3.1,5-30.5c.8-4.7,5.9-6.1,8.3-2.3h0Z"/>
      <path class="st35" d="M43.3,174h0c-3.4.1-5.8-4-4.8-8.1l7.1-25.7c1-4.1,4.4-6.4,7.7-5.3h0c3.7,1.3,5.6,6.7,3.8,11.1l-9.8,23.8c-.8,2.1-2.1,4.1-3.9,4.2h0Z"/>
      <path class="st6" d="M48.2,135.6c-3.3,3-7.5,9.2-10.7,22.3l12.9,6.4,1.8-5.1c4.2-7.8,7.4-15,6.7-20-.6-4.8-7.1-6.8-10.8-3.5h0Z"/>
      <path class="st35" d="M37.1,211.4l2.4-10.3-6.2-3.1v.4c-7.8,3.8-9.2,10.1-9.2,10.1-1.4,6.1,0,6.9,1.5,6.6,1-.2,1.8-1,2.4-2,2.4-4.4,7.7-8.2,7.7-8.2-.8,9,1.5,6.4,1.5,6.4h0Z"/>
    </g>
    <g>
      <path class="st35" d="M94.1,165.8h0c-.8,1.3-1.1,3-.7,4.6l7.7,31.3,6.2-3.1-5-30.5c-.8-4.7-5.9-6.1-8.3-2.3h.1Z"/>
      <path class="st35" d="M97.2,174h0c3.4.1,5.8-4,4.8-8.1l-7.1-25.7c-1-4.1-4.4-6.4-7.7-5.3h0c-3.7,1.3-5.6,6.7-3.8,11.1l9.8,23.8c.8,2.1,2.1,4.1,3.9,4.2h0Z"/>
      <path class="st6" d="M92.3,135.6c3.3,3,7.5,9.2,10.7,22.3l-12.9,6.4-1.8-5.1c-4.2-7.8-7.4-15-6.7-20,.6-4.8,7.1-6.8,10.8-3.5h0Z"/>
      <path class="st35" d="M103.4,211.4l-2.4-10.3,6.2-3.1v.4c7.8,3.8,9.2,10.1,9.2,10.1,1.4,6.1,0,6.9-1.5,6.6-1-.2-1.8-1-2.4-2-2.4-4.4-7.7-8.2-7.7-8.2.8,9-1.5,6.4-1.5,6.4h.1Z"/>
    </g>
    <g>
      <path class="st21" d="M51.5,129.4c-.5,8.9.5,22.9,1.8,37.5.2,2,2,2.5,2.5.6h0c1.9-7.2,2.4-26.7,2.1-43.6,0,0-6.2-1.3-6.4,5.5Z"/>
      <path class="st21" d="M90,130c.6,8.9-.6,22.9-1.9,37.5-.2,2-2.1,2.5-2.7.6h0c-2-7.2-2.4-25.4-2-42.3,0,0,6.2-3.9,6.6,4.2Z"/>
    </g>
    <g>
      <path class="st19" d="M94.7,107.2c0-4.7-2.2-8.3-4-12.1-.8-1.7-1.6-4.7-2.8-6-1.6-1.7-5.4-.9-7.4-1-7.4-.3-14.8.2-22.2,1.1-2.3.3-3.7-.6-4.6,2.7-.6,2.1-1,2.9-1,2.9-2.3,4-6.1,6.4-7.5,11.5-1.1,4.1-.6,9.2,1.8,12.1,0-1.6.2-3.7.5-5.1,1.6,1.2,2.7,3.6,4.3,5s3.4,2.6,5.2,3.3c.2-1.4-.3-3.3,0-4.5,1.3,3.2,4.5,4.6,6.9,6,0-1.9-.5-4.3,1.1-3.2.4.3,1,1.6,1.5,2s1.1.8,1.7,1.1c1.8,1.1,2.6,1.4,4.3,0,1.2-1.1,2.7-2.6,3.7-4,.6,1.2.3,3.2.3,4.6,2,0,4.4-2.4,5.7-4.3.3,1.1,0,2.3.3,3.4,2.6-.3,7.2-5.1,8.4-8,1.2,1.1,2.2,3.6,1.9,5.5,2.1-3.5,2.1-8.8,2.1-13.1h-.2Z"/>
      <path class="st7" d="M71.1,127.7h0c-2.5,0-4.5-2-4.5-4.5v-6.7h9.1v6.7c0,2.5-2,4.5-4.5,4.5h0Z"/>
      <path class="st16" d="M93,98.2c-.9,1.5-2.3,2.5-3.7,2.8h-1.2c-.4,3.9-1.8,7.5-3.8,10.4-3.8,5.7-9.5,9.1-13.7,8.9h-1c-4.5,0-9.7-3.1-13.3-8.3-2-2.9-3.5-6.4-4.1-10.3h-.3c-1.4,0-2.9-1.1-3.9-2.6-.2-.3-.3-.5-.4-.8-.2-.4-.3-.7-.4-1.1h0c-.3-1.5,0-2.7,1.2-3.2h0c1-.4,2.3,0,3.5.7.9-11.9,8.3-22.4,17.5-22.6,2.8,0,5.5.8,7.9,2.3,2.3,1.4,4.3,3.6,6,6.3h0c2.4,3.9,4.1,8.9,4.6,13.9h0c.5-.5,1.1-.9,1.7-1.1.8-.4,1.7-.4,2.4,0,1.6.7,1.9,2.9.6,5.1l.4-.3Z"/>
      <path class="st19" d="M90.5,101.6c-.3-3.2-.8-8.7-1.1-11.2,0-.9,0-1.7-.2-2.6-.3-6.5-2.4-13.6-7.2-17.2-3.4-2.6-6.5-.4-10.2-1.2-7.1-1.4-15.4,1.7-19.2,8.4-2.3,4-2.7,8.7-1.9,13.2,0,0,.5,8.5.3,10.5-.3,3.4-1.2,9.6.9,12.6,1,1.4,4.1,3.7,5.6,4.5.3-2.2-1.7-4.2-2.1-6.3-.5-2.3-.3-4.8-.3-7.2,0-4.3-.4-8.5-.2-12.8v-1.3c0-.2.2-.3.3-.5,1.1-1.8,2.4-3.4,3.9-4.8,1.6-1.5,3.5-2.3,5.2-3.7,1.6,1.4,3.1,2.9,4.9,4,2.2,1.3,5.2,2.4,7.7,2.6-.3-.6-1-1.2-1.5-1.8-.2-.3-.4-.8-.6-1.1,1.3,1.5,3.5,2.7,5.1,3.8,1.5,1.1,3.4,1.6,5.1,2.2,0-.6-1.5-3.3-1.9-4.1.6.8,1.5,1.3,2,2.1.6.8,1,1.7,1.4,2.5h0c.2,4.4-.2,8.6-.2,12.9s.2,4.9-.3,7.2c-.5,2.1-2.5,4.1-2.1,6.3,1.5-.8,4.6-3.1,5.6-4.5,2.1-2.9,1.2-9.2.9-12.6h0Z"/>
      <g>
        <path class="st1" d="M59.7,90.6c.2,0,.4,0,.5-.3,1.7-3.2,4.6-1.9,4.7-1.8.3,0,.6,0,.8-.3,0-.3,0-.6-.3-.8-1.4-.6-4.5-1-6.2,2.3,0,.3,0,.6.2.8h.3Z"/>
        <path class="st1" d="M75.1,88c0,0,.3.2.5,0,2.8-1.1,4,1.3,4,1.4,0,.2.4.3.6.2.2,0,.3-.4.2-.6-.5-1.2-2.3-3.1-5.2-1.9-.2,0-.4.4-.3.6,0,0,0,0,0,.2h.1Z"/>
        <path class="st1" d="M63.2,93.9c0,.9.7,1.7,1.5,1.7s1.6-.8,1.6-1.7-.7-1.7-1.5-1.7-1.6.8-1.6,1.7Z"/>
        <path class="st1" d="M75.1,93.9c0,.9.7,1.7,1.5,1.7s1.6-.8,1.6-1.7-.7-1.7-1.5-1.7-1.6.8-1.6,1.7Z"/>
        <path class="st1" d="M72,103.3h-.8c-.3,0-.5-.3-.5-.6s.3-.5.6-.5h.7c.6,0,.9-.4,1-.8,0-.4,0-.9-.6-1.1-.2,0-.3,0-.4-.2-.8-.2-1.3-.9-1.3-1.7v-1.3c0-.3.3-.6.6-.6s.6.3.6.6v1.3c0,.3.2.5.4.6.2,0,.4,0,.6.2,1,.4,1.5,1.4,1.2,2.4-.2.9-.9,1.7-2.1,1.7h0Z"/>
        <g>
          <path class="st1" d="M77,105s0,3.7-1.8,6.3c-.9,1.4-2.3,2.4-4.3,2.4,0,0-3,.3-4.7-2.6-.8-1.3-1.4-3.3-1.3-6.2h12.2,0Z"/>
          <path class="st23" d="M75.2,111.3c-.9,1.4-2.3,2.4-4.3,2.4,0,0-3,.3-4.7-2.6,1.8-1.1,5.3-2.6,9,.2Z"/>
          <polygon class="st24" points="75.7 105 74.9 107.3 66.4 107.3 65.8 105 75.7 105"/>
        </g>
        <path class="st8" d="M82.2,97.5c2,0,3.6,1.9,3.5,3.9s-1.9,3.6-3.9,3.5-3.6-1.9-3.5-3.9,1.9-3.6,3.9-3.5Z"/>
        <path class="st8" d="M59.4,97.5c2,0,3.6,1.9,3.5,3.9s-1.9,3.6-3.9,3.5-3.6-1.9-3.5-3.9,1.9-3.6,3.9-3.5Z"/>
      </g>
    </g>
  </g>
  <g id="girl-turned">
    <g>
      <path class="st35" d="M266.3,161.4h0c-.9,1.3-1.4,2.9-1.2,4.5l4.3,32,6.5-2.4-1.6-30.9c-.2-4.7-5.3-6.7-8-3.2h0Z"/>
      <path class="st35" d="M268.5,169.9h0c3.4.5,6.2-3.4,5.7-7.5l-4.3-26.4c-.6-4.2-3.7-6.8-7-6h0c-3.8.9-6.3,6-5,10.6l7.1,24.7c.6,2.1,1.6,4.4,3.4,4.6h0Z"/>
      <path class="st6" d="M267.8,131.3c3,3.3,6.6,9.9,8.2,23.3l-13.5,4.9-1.2-5.2c-3.3-8.2-5.8-15.7-4.6-20.7,1.2-4.7,7.8-6,11.1-2.3Z"/>
      <path class="st35" d="M270.7,207.8l-1.2-10.5,6.5-2.4v.4c7.3,4.6,8,11.1,8,11.1.8,6.2-.8,6.9-2.2,6.4-1-.3-1.8-1.2-2.1-2.2-1.9-4.6-6.8-8.9-6.8-8.9-.2,9-2.1,6.2-2.1,6.2h0Z"/>
    </g>
    <path class="st6" d="M237.9,170.8l-5.3-29.7c-.6-3.3-.5-8.8,3-10.1l5.3-4,2.5-2.3,9.1.3s1.6,1.8,4.7,2.7c11.6,3.6,9,2.3,10.6,16.5l.4,9.2c.3,8.2.8,16.3,1.6,24.5-10.1,3.1-20.3,2.6-30.6-1.3l-1.2-5.8h-.2Z"/>
    <g>
      <path class="st19" d="M274.4,108.6c.2-4.7-1.9-8.4-3.6-12.2-.7-1.7-1.4-4.8-2.6-6.1-1.5-1.8-5.4-1.1-7.4-1.3-7.4-.6-14.8-.3-22.2.3-2.3.2-3.7-.7-4.7,2.5-.7,2.1-1.1,2.9-1.1,2.9-2.4,3.9-6.3,6.2-7.9,11.2-1.2,4.1-.9,9.2,1.4,12.2,0-1.6.3-3.7.7-5.1,1.6,1.3,2.6,3.7,4.1,5.1s3.3,2.7,5.1,3.5c.2-1.4-.2-3.3.2-4.5,1.2,3.2,4.3,4.8,6.7,6.2,0-1.9-.3-4.3,1.2-3.2.4.3.9,1.6,1.4,2.1s1.1.8,1.7,1.2c1.8,1.2,2.5,1.5,4.3.2,1.2-1.1,2.8-2.5,3.8-3.9.6,1.2.2,3.2.1,4.6,2,.2,4.5-2.2,5.8-4.1.3,1.1,0,2.3.2,3.4,2.6-.2,7.4-4.8,8.7-7.7,1.2,1.1,2.1,3.7,1.7,5.6,2.2-3.4,2.4-8.7,2.6-13h-.2Z"/>
      <path class="st7" d="M249,128.2h0c-3.2-.1-5.6-2.8-5.5-5.9l.4-11.1,9.1.3-.5,13.5c0,1.8-1.6,3.2-3.4,3.2h0Z"/>
      <path class="st16" d="M270,97.1c0,1.1,0,2.2-.2,3.2,0,.7-.1,1.4-.3,2-.4,1.8-.7,3.4-1.4,5-.2.6-.4,1.1-.7,1.7-3.2,7.3-8.9,12.1-15.4,12-3.1-.1-6-1.3-8.5-3.4-.6-.4-1.1-.9-1.6-1.5-4.2-4.6-6.9-11.7-6.6-19.8.4-13.4,8.3-24,17.9-23.8,1.4,0,2.8.3,4.1.8,7.5,2.8,12.9,12.5,12.6,23.9h0Z"/>
      <g>
        <path class="st1" d="M247.3,94.8c.2,0,.4,0,.5-.3,1.8-3.1,4.7-1.7,4.8-1.7.3.1.6,0,.8-.3.1-.3,0-.6-.3-.8-1.4-.6-4.5-1.1-6.3,2.2-.1.3,0,.6.2.8h.2s0,.1,0,.1Z"/>
        <path class="st1" d="M260.4,111.9c0-.2-.4-.2-.6-.1-3.4,1.1-4.5-2-4.6-2.1,0-.3-.4-.4-.7-.3s-.4.4-.3.7c.6,1.4,2.5,3.9,6,2.8.3,0,.5-.4.4-.7,0,0,0,0,0-.2h0Z"/>
        <path class="st1" d="M262.7,92.7c0,.1.3.2.5,0,2.8-1,4,1.4,3.9,1.5,0,.2.4.3.6.2.2,0,.3-.4.2-.6-.5-1.2-2.2-3.2-5.1-2.1-.2,0-.4.4-.3.6,0,0,0,0,0,.2h0Z"/>
        <path class="st1" d="M252.2,98.3c0,.9.6,1.7,1.5,1.8s1.6-.7,1.7-1.6-.6-1.7-1.5-1.8-1.6.7-1.7,1.6Z"/>
        <path class="st1" d="M262.7,98.6c0,.9.6,1.7,1.5,1.8s1.6-.7,1.7-1.6-.6-1.7-1.5-1.8-1.6.7-1.7,1.6Z"/>
        <path class="st8" d="M269.5,102.4c-.4,1.8-.7,3.4-1.4,5-.2.6-.4,1.1-.7,1.7-1-.7-1.5-2-1.4-3.2,0-1.8,1.6-3.2,3.4-3.4h0Z"/>
        <path class="st8" d="M247.3,101.8c2,0,3.5,1.9,3.5,4s-1.9,3.5-4,3.5-3.5-1.9-3.5-4,1.9-3.5,4-3.5Z"/>
        <path class="st1" d="M259.7,107h-.7c-.3,0-.5-.3-.5-.6s.3-.5.6-.5h.6c.6,0,.9-.3,1-.7,0-.4,0-.9-.6-1.1,0,0-.3-.1-.4-.1-.7-.2-1.2-.8-1.1-1.6v-1.2c0-.3.3-.5.6-.5s.5.2.5.5v1.2c0,.3.1.5.3.6.2,0,.4.1.6.2.9.4,1.4,1.3,1.1,2.3-.2.8-1,1.6-2.1,1.5h0Z"/>
      </g>
      <path class="st13" d="M243.8,117.5h-.2c-.6-.4-1.1-.9-1.6-1.5-4.2-4.6-6.9-11.7-6.6-19.7.4-13.4,8.3-24,17.9-23.8,1.4,0,2.8.3,4.1.8-7.6,5.6-21.1,20.7-13.6,44.3h0Z"/>
      <g>
        <path class="st16" d="M239.5,96.4c1,3,.3,5.9-1.6,6.5s-4.2-1.3-5.2-4.4-.3-5.9,1.6-6.5c1.8-.6,4.2,1.3,5.2,4.4Z"/>
        <path class="st13" d="M239.5,96.4c1,3,.3,5.9-1.6,6.5s-4.2-1.3-5.2-4.4-.3-5.9,1.6-6.5c1.8-.6,4.2,1.3,5.2,4.4Z"/>
      </g>
      <path class="st19" d="M271.8,103.5c-.2-3.2-.4-8.7-.6-11.2,0-.9,0-1.7,0-2.6,0-6.5-1.6-13.7-5.8-17.4-3-2.7-5.8-.8-9.1-1.5-10.1-2.1-18.6-.6-22.6,8.1-9.7,21.3,1.5,33,3.2,36,.9,1.4,9.5,7.4,10.9,8.3-7.1-8.2-6.2-21.9-4.9-30,.6-4,2.9-7.6,6.2-10h0s2.7,3,4.3,4.2c2,1.4,4.6,2.6,6.8,2.8-.3-.6-.9-1.2-1.2-1.8-.2-.3-.4-.8-.6-1.1,1.1,1.5,3,2.8,4.4,4,1.4,1.1,2.9,1.7,4.5,2.4.1-.6-1.2-3.3-1.6-4.2.5.8,1.3,1.3,1.7,2.2.5.8.8,1.7,1.2,2.5h0c0,4.4-.5,8.6-.6,12.9s0,4.9-.6,7.2c-.5,2.1-2.3,4-2.1,6.2,1.4-.8,4.2-3,5.2-4.3,2-2.8,1.4-9.2,1.2-12.6h0Z"/>
    </g>
    <g>
      <path class="st35" d="M252.1,268.2c-1.2,18.7-3.7,38.1-4.3,38.1l-5.8-.4-2-38.5-1.5-28.9v-1.2c0-.4,0-.8.2-1.2.7-3.1,3.6-5.3,6.9-5.1,3.3.2,6,2.9,6.2,6.1,0,.9.2,1.7.3,2.6,1,6.2.7,17.2,0,28.5h0Z"/>
      <path class="st1" d="M240.9,313.3c0,.6.4,1.6.9,2.4.5,1,1.5,1.6,2.6,1.6h21.6c4.9-2.6-18.2-10.9-18.2-10.9h-5.7s-1.3,5.8-1.1,7h0Z"/>
      <path class="st35" d="M245.3,243.9h0c3.8-.4,6.6-3.6,6.5-7.5l-.8-35.3c-.7-5.1-5.3-8.6-10.4-7.9h0c-5.1.7-8.6,5.3-7.9,10.4l5.3,33.8c.5,3.9,3.4,6.9,7.3,6.5h0Z"/>
    </g>
    <g>
      <path class="st35" d="M269.9,268.2c-1.2,18.7-3.7,38.1-4.3,38.1l-5.8-.4-2-38.5-1.5-28.9v-1.2c0-.4,0-.8.2-1.2.7-3.1,3.6-5.3,6.9-5.1s6,2.9,6.2,6.1c0,.9.2,1.7.3,2.6,1,6.2.7,17.2,0,28.5h0Z"/>
      <path class="st1" d="M258.8,313.3c0,.6.4,1.6.9,2.4.5,1,1.5,1.6,2.6,1.6h21.6c4.9-2.6-18.2-10.9-18.2-10.9h-5.7s-1.3,5.8-1.1,7h0Z"/>
      <path class="st35" d="M263.2,243.9h0c3.8-.4,6.6-3.6,6.5-7.5l-.8-35.3c-.7-5.1-5.3-8.6-10.4-7.9h0c-5.1.7-8.6,5.3-7.9,10.4l5.3,33.8c.5,3.9,3.4,6.9,7.3,6.5h0Z"/>
    </g>
    <g>
      <path class="st28" d="M271.1,210.7l-16,6.7-19-7.3h0s-1.5-5.3-.9-12c.3-2.6.9-5.2,1.6-7.6,1.4-4.2,1.9-8.5,1.9-12.9.3-.8.5-1.1.5-1.1,10.3,3.9,20.5,4.4,30.6,1.3,0,.5,0,.9.2,1.4.2,2.3.5,4.7.9,7,0,.6.2,1.1.2,1.6.2,1,.3,2,.4,3,.6,4.3.7,9.5-.2,19.8h0Z"/>
      <path class="st28" d="M239.2,176.9s-12.6,29.6-13.1,57.7c0,1.5.8,2.7,2,3.2,7.8,2.4,36.5,10.2,50.7,0,.9-.7,1.5-1.8,1.3-3.1-.8-8.2-4.2-40.9-9.9-56.7-10.3,3.9-20.6,3.4-31.1-1.1h.1Z"/>
    </g>
    <g>
      <path class="st35" d="M232.2,164.1h0c1,1.1,1.5,2.9,1.3,4.4l-2.9,32.1-6.6-2.1.3-30.9c0-4.7,4.9-6.9,7.8-3.5h0Z"/>
      <path class="st35" d="M230.4,172.7h0c-3.3.7-6.4-3-5.9-7.3l3-26.5c.3-4.2,3.3-7,6.7-6.4h0c3.9.7,6.5,5.7,5.4,10.4l-6.1,25c-.5,2.2-1.5,4.5-3.3,4.8h0Z"/>
      <path class="st6" d="M229.3,134c-2.8,3.4-6.1,10.2-7.2,23.7l13.8,4.4,1-5.3c3-8.3,5.1-15.9,3.6-20.8-1.3-4.6-8-5.7-11.1-1.9h0Z"/>
      <path class="st35" d="M229.9,210.7l.8-10.6-6.6-2.1v.4c-7.2,4.9-7.6,11.4-7.6,11.4-.4,6.3,1.2,6.8,2.5,6.3.9-.4,1.6-1.2,2.1-2.3,1.8-4.6,6.4-9.3,6.4-9.3.6,9,2.4,6.2,2.4,6.2h0Z"/>
    </g>
  </g>
  <g id="girl-side">
    <g>
      <path class="st19" d="M164.5,110.6c1.3-2.3,3.6-2.6,5.5-1.8.1-.3.2-.6.4-.8,2.7-5.6,0-11.2.5-17.1.1-1.4.7-2.4,1.6-3.1-1.9-.6-4.5,0-6.1-.2-7.4-.3-14.8.2-22.2,1.1-2.3.3-3.7-.6-4.6,2.7-.6,2.1-1,2.9-1,2.9-2.3,4-6.1,6.4-7.5,11.5-1.1,4.1-.6,9.2,1.8,12.1,0-1.6.2-3.7.5-5.1,1.6,1.2,2.7,3.6,4.3,5s3.4,2.6,5.2,3.3c.2-1.4-.3-3.3,0-4.5,1.3,3.2,4.5,4.6,6.9,6,0-1.9-.5-4.3,1.1-3.2.4.3,1,1.6,1.5,2s1.1.8,1.7,1.1c1.8,1.1,2.6,1.4,4.3,0,1-.9,2.1-2,3-3.2.8-3,1.6-6,3.2-8.7h0Z"/>
      <rect class="st7" x="148.6" y="118.3" width="14.9" height="8.6" transform="translate(13.9 261.1) rotate(-82.4)"/>
      <path class="st16" d="M179.8,99.8c-.2,0-.4,0-.6-.2-.2,0-.3-.2-.4-.3,0-.9.1-1.9.1-2.9,0-10.5-4.9-19.5-11.9-22.8-1.9-.9-3.8-1.4-5.9-1.4-9.8,0-17.8,10.8-17.8,24.2s8,24.2,17.8,24.2.5,0,.8,0c6.3-.4,11.8-5.2,14.7-12.3.2-.4.3-.8.5-1.2.4-1,.7-2.1,1-3.2h.8c1.2,0,1.9-.9,2.1-1.8.2-1-.3-2-1.3-2.4h0Z"/>
      <path class="st13" d="M162,120.5h-.8c-9.8,0-17.8-10.8-17.8-24.2s8-24.2,17.8-24.2,4.1.5,5.9,1.4c-5.2,10-16.9,35-5.1,47h0Z"/>
      <g>
        <path class="st1" d="M168.6,93.4c.2,0,.4,0,.5-.3,1.7-3.2,4.6-1.9,4.7-1.9.3,0,.6,0,.8-.3.1-.3,0-.6-.3-.8-1.4-.6-4.5-.9-6.2,2.4-.1.3,0,.6.2.8h.3Z"/>
        <path class="st1" d="M176.1,110.1c-.1.4-.3.8-.5,1.2-2.5,0-4-1.7-4.5-2.9-.1-.3,0-.6.3-.7s.6,0,.7.3c0,0,1.1,2.6,3.9,2.1h.1Z"/>
        <path class="st1" d="M172.1,96.7c0,.9.7,1.7,1.6,1.7s1.6-.8,1.6-1.7-.7-1.7-1.6-1.7-1.6.8-1.6,1.7Z"/>
        <path class="st8" d="M166.8,98.6c2,0,3.6,1.8,3.6,3.9s-1.8,3.6-3.9,3.6-3.6-1.8-3.6-3.9,1.8-3.6,3.9-3.6Z"/>
      </g>
      <path class="st19" d="M181.7,77.7c-2-4.2-5.5-6.2-9.7-7.4-5.6-1.6-10.6-3.2-16.5-2.6-9.5,1-16.9,8.6-19.1,16.2-5.7,19.8,4.3,26,5.7,27.6.7.9,10.3,6,10.3,6-.3.6.3-3.9.2-4.6-.3-2.5.8-10.9,1.1-15.6,0-1.4,1.2-2.6,2.6-2.7,3.5,0,8.3-2.2,9.8-3.8-.7,1.5-2.1,2.9-3.2,4.2,3.8-1.6,7-5.4,9.7-8.2-.4,1.8.2,3.7-.6,5.4,2.4-2.3,3.1-5.5,4.4-8.3.6,1.5.8,3.3,1.2,4.9.6,2.4,1.6,5.1,3.1,7.1,1.4-2.8,3.4-12.8.8-18.1h.2Z"/>
      <path class="st16" d="M155.9,99.2c1.1,2.7.3,5.7-1.9,6.6s-4.9-.6-6-3.3-.3-5.7,1.9-6.6,4.9.6,6,3.3Z"/>
      <path class="st13" d="M155.9,99.2c1.1,2.7.3,5.7-1.9,6.6s-4.9-.6-6-3.3-.3-5.7,1.9-6.6,4.9.6,6,3.3Z"/>
    </g>
    <g>
      <path class="st35" d="M173.9,268.9c-1.2,18.7-3.7,38.1-4.3,38.1l-5.8-.4-2-38.5-1.5-28.9v-1.2c0-.4,0-.8.2-1.2.7-3.1,3.6-5.3,6.9-5.1,3.3.2,6,2.9,6.2,6.1,0,.9.2,1.7.3,2.6,1,6.2.7,17.2,0,28.5h0Z"/>
      <path class="st1" d="M162.8,314c0,.6.4,1.6.9,2.4.5,1,1.5,1.6,2.6,1.6h21.6c4.9-2.6-18.2-10.9-18.2-10.9h-5.7s-1.3,5.8-1.1,7h-.1Z"/>
      <path class="st35" d="M167.2,244.6h0c3.8-.4,6.6-3.6,6.5-7.5l-.8-35.3c-.7-5.1-5.3-8.6-10.4-7.9h0c-5.1.7-8.6,5.3-7.9,10.4l5.3,33.8c.5,3.9,3.4,6.9,7.3,6.5h0Z"/>
    </g>
    <g>
      <path class="st35" d="M162.6,269.8c-1.2,18.7-3.7,38.1-4.3,38.1l-5.8-.4-2-38.5-1.5-28.9v-1.2c0-.4,0-.8.2-1.2.7-3.1,3.6-5.3,6.9-5.1,3.3.2,6,2.9,6.2,6.1,0,.9.2,1.7.3,2.6,1,6.2.7,17.2,0,28.5h0Z"/>
      <path class="st1" d="M151.5,314.9c0,.6.4,1.6.9,2.4.5,1,1.5,1.6,2.6,1.6h21.6c4.9-2.6-18.2-10.9-18.2-10.9h-5.7s-1.3,5.8-1.1,7h-.1Z"/>
      <path class="st35" d="M155.9,245.5h0c3.8-.4,6.6-3.6,6.5-7.5l-.8-35.3c-.7-5.1-5.3-8.6-10.4-7.9h0c-5.1.7-8.6,5.3-7.9,10.4l5.3,33.8c.5,3.9,3.4,6.9,7.3,6.5h0Z"/>
    </g>
    <path class="st28" d="M148.1,174.3s-10,29.2-9.8,57c0,2.1,1.3,4,3.1,4.5,7.8,2.3,29.2,7.3,41.5-.4,2.2-1.4,3.4-4.2,3-7.1-1.3-10.8-6.2-39.4-11.3-53.9-9,4.3-17.1,4-26.4-.2h-.1Z"/>
    <path class="st6" d="M174.5,175.5c-.2-20.5-4.9-34.1-8.7-41.6-.5-.9-.9-1.8-1.4-2.6-1.7-3-4.3-5.3-7.5-6.6l-4.2-1.7-.9-.4c-11,14.4-3.3,49.8-2.6,53,8.3,2.7,17.3,2.8,25.4,0h-.1Z"/>
    <g>
      <path class="st35" d="M155,160.6h0c1.2,1,1.9,2.5,2.1,4.2l2.3,32.1-6.9-1-4.6-30.6c-.7-4.7,3.8-7.6,7.2-4.7h-.1Z"/>
      <path class="st35" d="M154.5,169.3h0c-3.2,1.2-6.8-2-7.1-6.2l-1.2-26.6c-.3-4.2,2.2-7.5,5.7-7.4h0c4,.1,7.4,4.6,7.1,9.4l-2,25.7c-.1,2.2-.7,4.6-2.5,5.2h0Z"/>
      <path class="st6" d="M147.3,131.3c-2.2,3.8-4.4,11-3.3,24.5l14.3,2.1.2-5.4c1.6-8.7,2.4-16.6.3-21.1-2.1-4.4-8.8-4.3-11.3,0h-.2Z"/>
      <path class="st35" d="M160.1,206.9l-.9-10.6-6.9-1v.4c-6.3,6-5.7,12.5-5.7,12.5.5,6.2,2.2,6.6,3.5,5.9.9-.5,1.4-1.5,1.7-2.6,1-4.9,4.8-10.2,4.8-10.2,2,8.8,3.4,5.7,3.4,5.7h0Z"/>
    </g>
  </g>
  <g id="girl-front">
    <g>
      <path class="st35" d="M68.3,237v1.2l-3.4,28.8-4.5,38.3h-5.8c-.6,0-1.9-19.6-1.9-38.3s.6-24.3,2.2-30c0-3.7,3-6.7,6.7-6.7s6,2.4,6.6,5.5v1.2h0Z"/>
      <path class="st1" d="M61.7,311.4c0,1.2-.7,2.1-1.6,2.7-.6.4-22.7,2.4-23.3,2.2-5-2.4,17.6-11.2,17.6-11.2l6.1.2s1.3,4.9,1.1,6.2h0Z"/>
      <path class="st35" d="M62.6,243.8h0c-3.8.4-7.2-2.2-8-5.9l-6.7-34.7c-.4-5.1,3.4-9.5,8.5-10h0c5.1-.4,9.5,3.4,10,8.5l2,34.2c.3,4-1.8,7.5-5.7,7.9h-.1Z"/>
    </g>
    <g>
      <path class="st35" d="M83.7,267c0,18.7-1.3,38.3-1.9,38.3h-5.8l-4.5-38.3-3.3-28.8v-.6c0-.2,0-.4,0-.6,0-.4,0-.8,0-1.2.6-3.1,3.3-5.5,6.6-5.5s6.7,3,6.7,6.7c1.7,5.7,2.2,17.7,2.2,30h0Z"/>
      <path class="st1" d="M74.7,311.4c0,1.2.7,2.1,1.6,2.7.6.4,22.7,2.4,23.3,2.2,5-2.4-17.6-11.2-17.6-11.2l-6.1.2s-1.3,4.9-1.1,6.2h-.1Z"/>
      <path class="st35" d="M73.9,243.8h0c3.8.4,7.2-2.2,8-5.9l6.7-34.7c.4-5.1-3.4-9.5-8.5-10h0c-5.1-.4-9.5,3.4-10,8.5l-2,34.2c-.3,4,1.8,7.5,5.7,7.9h.1Z"/>
    </g>
    <path class="st35" d="M84.8,166c-1.5,5.7-1.2,11.7.7,17.3.7,2.1,1.4,4.7,1.8,7.8.5,3,1.2,7.7,1.2,11.5l-18.9,7.5h-2.8l-18.9-7.2c0-5.2.7-12.8,2.1-17.6.4-1.4.9-2.8,1.4-4,2.5-5.4,3.5-11.4,2.5-17.3l-3.9-22.6-1.2-6.7,1.2-.7,15.7-9.9h9.1l14.2,9.8,1.1.7-1.1,6.5-4.1,25h0Z"/>
    <path class="st6" d="M84.8,166c-1.5,5.7-1.2,11.7.7,17.3.7,2.1,1.4,4.7,1.8,7.8h-37.3v-5.8c.4-1.4.9-2.8,1.4-4,2.5-5.4,3.5-11.4,2.5-17.3l-3.9-22.6-1.1-6.7,12.7-8,4.1-2.6h9.1l3.5,2.4,11.8,8.1-1.1,6.5-4.1,25h-.1Z"/>
    <path class="st28" d="M53.3,177.6s-11.6,30-11.1,58.1c0,1.5.9,2.7,2.1,3.1,7.9,2.1,36.8,8.9,50.7-1.7.9-.7,1.3-1.9,1.2-3.1-1.1-8.2-5.6-40.7-11.9-56.3-10.2,4.3-20.5,4.1-31.1,0h.1Z"/>
    <g>
      <path class="st35" d="M45.5,165.8h0c.8,1.3,1.1,3,.7,4.6l-7.7,31.3-6.2-3.1,5-30.5c.8-4.7,5.9-6.1,8.3-2.3h0Z"/>
      <path class="st35" d="M42.4,174h0c-3.4.1-5.8-4-4.8-8.1l7.1-25.7c1-4.1,4.4-6.4,7.7-5.3h0c3.7,1.3,5.6,6.7,3.8,11.1l-9.8,23.8c-.8,2.1-2.1,4.1-3.9,4.2h0Z"/>
      <path class="st6" d="M47.3,135.6c-3.3,3-7.5,9.2-10.7,22.3l12.9,6.4,1.8-5.1c4.2-7.8,7.4-15,6.7-20-.6-4.8-7.1-6.8-10.8-3.5h0Z"/>
      <path class="st35" d="M36.2,211.4l2.4-10.3-6.2-3.1v.4c-7.8,3.8-9.2,10.1-9.2,10.1-1.4,6.1,0,6.9,1.5,6.6,1-.2,1.8-1,2.4-2,2.4-4.4,7.7-8.2,7.7-8.2-.8,9,1.5,6.4,1.5,6.4h0Z"/>
    </g>
    <g>
      <path class="st35" d="M93.2,165.8h0c-.8,1.3-1.1,3-.7,4.6l7.7,31.3,6.2-3.1-5-30.5c-.8-4.7-5.9-6.1-8.3-2.3h.1Z"/>
      <path class="st35" d="M96.3,174h0c3.4.1,5.8-4,4.8-8.1l-7.1-25.7c-1-4.1-4.4-6.4-7.7-5.3h0c-3.7,1.3-5.6,6.7-3.8,11.1l9.8,23.8c.8,2.1,2.1,4.1,3.9,4.2h0Z"/>
      <path class="st6" d="M91.4,135.6c3.3,3,7.5,9.2,10.7,22.3l-12.9,6.4-1.8-5.1c-4.2-7.8-7.4-15-6.7-20,.6-4.8,7.1-6.8,10.8-3.5h0Z"/>
      <path class="st35" d="M102.5,211.4l-2.4-10.3,6.2-3.1v.4c7.8,3.8,9.2,10.1,9.2,10.1,1.4,6.1,0,6.9-1.5,6.6-1-.2-1.8-1-2.4-2-2.4-4.4-7.7-8.2-7.7-8.2.8,9-1.5,6.4-1.5,6.4h.1Z"/>
    </g>
    <g>
      <path class="st19" d="M93.8,107.2c0-4.7-2.2-8.3-4-12.1-.8-1.7-1.6-4.7-2.8-6-1.6-1.7-5.4-.9-7.4-1-7.4-.3-14.8.2-22.2,1.1-2.3.3-3.7-.6-4.6,2.7-.6,2.1-1,2.9-1,2.9-2.3,4-6.1,6.4-7.5,11.5-1.1,4.1-.6,9.2,1.8,12.1,0-1.6.2-3.7.5-5.1,1.6,1.2,2.7,3.6,4.3,5s3.4,2.6,5.2,3.3c.2-1.4-.3-3.3,0-4.5,1.3,3.2,4.5,4.6,6.9,6,0-1.9-.5-4.3,1.1-3.2.4.3,1,1.6,1.5,2s1.1.8,1.7,1.1c1.8,1.1,2.6,1.4,4.3,0,1.2-1.1,2.7-2.6,3.7-4,.6,1.2.3,3.2.3,4.6,2,0,4.4-2.4,5.7-4.3.3,1.1,0,2.3.3,3.4,2.6-.3,7.2-5.1,8.4-8,1.2,1.1,2.2,3.6,1.9,5.5,2.1-3.5,2.1-8.8,2.1-13.1h-.2Z"/>
      <path class="st7" d="M70.2,127.7h0c-2.5,0-4.5-2-4.5-4.5v-6.7h9.1v6.7c0,2.5-2,4.5-4.5,4.5h0Z"/>
      <path class="st16" d="M92.1,98.2c-.9,1.5-2.3,2.5-3.7,2.8h-1.2c-.4,3.9-1.8,7.5-3.8,10.4-3.8,5.7-9.5,9.1-13.7,8.9h-1c-4.5,0-9.7-3.1-13.3-8.3-2-2.9-3.5-6.4-4.1-10.3h-.3c-1.4,0-2.9-1.1-3.9-2.6-.2-.3-.3-.5-.4-.8-.2-.4-.3-.7-.4-1.1h0c-.3-1.5,0-2.7,1.2-3.2h0c1-.4,2.3,0,3.5.7.9-11.9,8.3-22.4,17.5-22.6,2.8,0,5.5.8,7.9,2.3,2.3,1.4,4.3,3.6,6,6.3h0c2.4,3.9,4.1,8.9,4.6,13.9h0c.5-.5,1.1-.9,1.7-1.1.8-.4,1.7-.4,2.4,0,1.6.7,1.9,2.9.6,5.1l.4-.3Z"/>
      <path class="st19" d="M89.6,101.6c-.3-3.2-.8-8.7-1.1-11.2,0-.9,0-1.7-.2-2.6-.3-6.5-2.4-13.6-7.2-17.2-3.4-2.6-6.5-.4-10.2-1.2-7.1-1.4-15.4,1.7-19.2,8.4-2.3,4-2.7,8.7-1.9,13.2,0,0,.5,8.5.3,10.5-.3,3.4-1.2,9.6.9,12.6,1,1.4,4.1,3.7,5.6,4.5.3-2.2-1.7-4.2-2.1-6.3-.5-2.3-.3-4.8-.3-7.2,0-4.3-.4-8.5-.2-12.8v-1.3c0-.2.2-.3.3-.5,1.1-1.8,2.4-3.4,3.9-4.8,1.6-1.5,3.5-2.3,5.2-3.7,1.6,1.4,3.1,2.9,4.9,4,2.2,1.3,5.2,2.4,7.7,2.6-.3-.6-1-1.2-1.5-1.8-.2-.3-.4-.8-.6-1.1,1.3,1.5,3.5,2.7,5.1,3.8,1.5,1.1,3.4,1.6,5.1,2.2,0-.6-1.5-3.3-1.9-4.1.6.8,1.5,1.3,2,2.1.6.8,1,1.7,1.4,2.5h0c.2,4.4-.2,8.6-.2,12.9s.2,4.9-.3,7.2c-.5,2.1-2.5,4.1-2.1,6.3,1.5-.8,4.6-3.1,5.6-4.5,2.1-2.9,1.2-9.2.9-12.6h0Z"/>
      <g>
        <path class="st1" d="M58.8,91.6c.2,0,.4,0,.5-.3,1.7-3.2,4.6-1.9,4.7-1.8.3,0,.6,0,.8-.3,0-.3,0-.6-.3-.8-1.4-.6-4.5-1-6.2,2.3,0,.3,0,.6.2.8h.3Z"/>
        <path class="st1" d="M74.2,89c0,0,.3.2.5,0,2.8-1.1,4,1.3,4,1.4,0,.2.4.3.6.2.2,0,.3-.4.2-.6-.5-1.2-2.3-3.1-5.2-1.9-.2,0-.4.4-.3.6,0,0,0,0,0,.2h.1Z"/>
        <path class="st1" d="M71.8,111.4c-1,.4-2.1.4-3,.2-2.5-.6-3.5-3-3.7-3-.1-.3,0-.5.3-.7.3-.1.5,0,.7.3,0,0,.9,2,2.9,2.4,1.6.4,3.5-.4,5.5-2.2.2-.2.6-.2.8,0s.2.6,0,.8c-1.2,1.1-2.4,1.7-3.5,2.1h0Z"/>
        <path class="st1" d="M62.3,94.9c0,.9.7,1.7,1.5,1.7s1.6-.8,1.6-1.7-.7-1.7-1.5-1.7-1.6.8-1.6,1.7Z"/>
        <path class="st1" d="M74.2,94.9c0,.9.7,1.7,1.5,1.7s1.6-.8,1.6-1.7-.7-1.7-1.5-1.7-1.6.8-1.6,1.7Z"/>
        <path class="st1" d="M71.1,104.3h-.8c-.3,0-.5-.3-.5-.6s.3-.5.6-.5h.7c.6,0,.9-.4,1-.8,0-.4,0-.9-.6-1.1-.2,0-.3,0-.4-.2-.8-.2-1.3-.9-1.3-1.7v-1.3c0-.3.3-.6.6-.6s.6.3.6.6v1.3c0,.3.2.5.4.6.2,0,.4,0,.6.2,1,.4,1.5,1.4,1.2,2.4-.2.9-.9,1.7-2.1,1.7h0Z"/>
        <path class="st8" d="M81.3,97.5c2,0,3.6,1.9,3.5,3.9s-1.9,3.6-3.9,3.5-3.6-1.9-3.5-3.9,1.9-3.6,3.9-3.5Z"/>
        <path class="st8" d="M58.5,97.5c2,0,3.6,1.9,3.5,3.9s-1.9,3.6-3.9,3.5-3.6-1.9-3.5-3.9,1.9-3.6,3.9-3.5Z"/>
      </g>
    </g>
  </g>
</svg>