<?xml version="1.0" encoding="UTF-8"?>
<svg xmlns="http://www.w3.org/2000/svg" version="1.1" viewBox="0 0 80 80">
  <!-- Generator: Adobe Illustrator 29.3.1, SVG Export Plug-In . SVG Version: 2.1.0 Build 151)  -->
  <circle cx="40" cy="40" r="40" fill="#ededed"/>
  <path d="M63.74,56.32c0,1.57-.63,3.08-1.74,4.2-1.11,1.11-2.62,1.74-4.2,1.74h-2.97c-1.57,0-3.08-.63-4.2-1.74-1.11-1.11-1.74-2.62-1.74-4.2v-7.42c0-1.57.63-3.08,1.74-4.2,1.11-1.11,2.62-1.74,4.2-1.74h2.97v-1.48c0-4.72-1.88-9.25-5.22-12.59s-7.87-5.22-12.59-5.22-9.25,1.88-12.59,5.22-5.22,7.87-5.22,12.59v1.48h2.97c1.57,0,3.08.63,4.2,1.74,1.11,1.11,1.74,2.62,1.74,4.2v7.42c0,1.57-.63,3.08-1.74,4.2-1.11,1.11-2.62,1.74-4.2,1.74h-2.97c-1.57,0-3.08-.63-4.2-1.74-1.11-1.11-1.74-2.62-1.74-4.2v-14.84c0-6.3,2.5-12.34,6.95-16.79,4.45-4.45,10.49-6.95,16.79-6.95s12.34,2.5,16.79,6.95,6.95,10.49,6.95,16.79v14.84h.02Z" fill="#383838"/>
</svg>