<?xml version="1.0" encoding="UTF-8"?>
<svg id="girl" xmlns="http://www.w3.org/2000/svg" version="1.1" viewBox="0 0 93.45 256.85">
  <!-- Generator: Adobe Illustrator 29.3.1, SVG Export Plug-In . SVG Version: 2.1.0 Build 151)  -->
  <g>
    <path d="M45.68,177.54v1.2l-3.4,28.8-4.5,38.3h-5.8c-.6,0-1.9-19.6-1.9-38.3s.6-24.3,2.2-30c0-3.7,3-6.7,6.7-6.7s6,2.4,6.6,5.5v1.2h.1Z" fill="#b7815b"/>
    <path d="M39.08,251.94c0,1.2-.7,2.1-1.6,2.7-.6.4-22.7,2.4-23.3,2.2-5-2.4,17.6-11.2,17.6-11.2l6.1.2s1.3,4.9,1.1,6.2h.1v-.1h0Z" fill="#273758"/>
    <path d="M39.98,184.34h0c-3.8.4-7.2-2.2-8-5.9l-6.7-34.7c-.4-5.1,3.4-9.5,8.5-10h0c5.1-.4,9.5,3.4,10,8.5l2,34.2c.3,4-1.8,7.5-5.7,7.9h-.1Z" fill="#b7815b"/>
  </g>
  <g>
    <path d="M61.08,207.54c0,18.7-1.3,38.3-1.9,38.3h-5.8l-4.5-38.3-3.3-28.8v-2.4c.6-3.1,3.3-5.5,6.6-5.5s6.7,3,6.7,6.7c1.7,5.7,2.2,17.7,2.2,30h0Z" fill="#b7815b"/>
    <path d="M52.08,251.94c0,1.2.7,2.1,1.6,2.7.6.4,22.7,2.4,23.3,2.2,5-2.4-17.6-11.2-17.6-11.2l-6.1.2s-1.3,4.9-1.1,6.2h0l-.1-.1h0Z" fill="#273758"/>
    <path d="M51.28,184.34h0c3.8.4,7.2-2.2,8-5.9l6.7-34.7c.4-5.1-3.4-9.5-8.5-10h0c-5.1-.4-9.5,3.4-10,8.5l-2,34.2c-.3,4,1.8,7.5,5.7,7.9h.1Z" fill="#b7815b"/>
  </g>
  <path d="M62.18,106.54c-1.5,5.7-1.2,11.7.7,17.3.7,2.1,1.4,4.7,1.8,7.8.5,3,1.2,7.7,1.2,11.5l-18.9,7.5h-2.8l-18.9-7.2c0-5.2.7-12.8,2.1-17.6.4-1.4.9-2.8,1.4-4,2.5-5.4,3.5-11.4,2.5-17.3l-3.9-22.6-1.2-6.7,1.2-.7,15.7-9.9h9.1l14.2,9.8,1.1.7-1.1,6.5-4.1,25h0l-.1-.1h0Z" fill="#b7815b"/>
  <path d="M62.18,106.54c-1.5,5.7-1.2,11.7.7,17.3.7,2.1,1.4,4.7,1.8,7.8H27.38v-5.8c.4-1.4.9-2.8,1.4-4,2.5-5.4,3.5-11.4,2.5-17.3l-3.9-22.6-1.1-6.7,12.7-8,4.1-2.6h9.1l3.5,2.4,11.8,8.1-1.1,6.5-4.1,25h-.1s0-.1,0-.1Z" fill="#e6e6e6"/>
  <path d="M30.68,118.14s-11.6,30-11.1,58.1c0,1.5.9,2.7,2.1,3.1,7.9,2.1,36.8,8.9,50.7-1.7.9-.7,1.3-1.9,1.2-3.1-1.1-8.2-5.6-40.7-11.9-56.3-10.2,4.3-20.5,4.1-31.1,0h.1v-.1Z" fill="#3f6138"/>
  <g>
    <path d="M22.88,106.34h0c.8,1.3,1.1,3,.7,4.6l-7.7,31.3-6.2-3.1,5-30.5c.8-4.7,5.9-6.1,8.3-2.3,0,0-.1,0-.1,0Z" fill="#b7815b"/>
    <path d="M19.78,114.54h0c-3.4.1-5.8-4-4.8-8.1l7.1-25.7c1-4.1,4.4-6.4,7.7-5.3h0c3.7,1.3,5.6,6.7,3.8,11.1l-9.8,23.8c-.8,2.1-2.1,4.1-3.9,4.2,0,0-.1,0-.1,0Z" fill="#b7815b"/>
    <path d="M24.68,76.14c-3.3,3-7.5,9.2-10.7,22.3l12.9,6.4,1.8-5.1c4.2-7.8,7.4-15,6.7-20-.6-4.8-7.1-6.8-10.8-3.5h0s.1-.1.1-.1Z" fill="#e6e6e6"/>
    <path d="M13.58,151.94l2.4-10.3-6.2-3.1v.4c-7.8,3.8-9.2,10.1-9.2,10.1-1.4,6.1,0,6.9,1.5,6.6,1-.2,1.8-1,2.4-2,2.4-4.4,7.7-8.2,7.7-8.2-.8,9,1.5,6.4,1.5,6.4h0l-.1.1Z" fill="#b7815b"/>
  </g>
  <g>
    <path d="M70.58,106.34h0c-.8,1.3-1.1,3-.7,4.6l7.7,31.3,6.2-3.1-5-30.5c-.8-4.7-5.9-6.1-8.3-2.3,0,0,.1,0,.1,0Z" fill="#b7815b"/>
    <path d="M73.68,114.54h0c3.4.1,5.8-4,4.8-8.1l-7.1-25.7c-1-4.1-4.4-6.4-7.7-5.3h0c-3.7,1.3-5.6,6.7-3.8,11.1l9.8,23.8c.8,2.1,2.1,4.1,3.9,4.2,0,0,.1,0,.1,0Z" fill="#b7815b"/>
    <path d="M68.78,76.14c3.3,3,7.5,9.2,10.7,22.3l-12.9,6.4-1.8-5.1c-4.2-7.8-7.4-15-6.7-20,.6-4.8,7.1-6.8,10.8-3.5h0s-.1-.1-.1-.1Z" fill="#e6e6e6"/>
    <path d="M79.88,151.94l-2.4-10.3,6.2-3.1v.4c7.8,3.8,9.2,10.1,9.2,10.1,1.4,6.1,0,6.9-1.5,6.6-1-.2-1.8-1-2.4-2-2.4-4.4-7.7-8.2-7.7-8.2.8,9-1.5,6.4-1.5,6.4h.1s0,.1,0,.1Z" fill="#b7815b"/>
  </g>
  <g>
    <path d="M47.58,68.24h0c-2.5,0-4.5-2-4.5-4.5v-6.7h9.1v6.7c0,2.5-2,4.5-4.5,4.5h-.1Z" fill="#963"/>
    <path d="M69.48,38.74c-.9,1.5-2.3,2.5-3.7,2.8h-1.2c-.4,3.9-1.8,7.5-3.8,10.4-3.8,5.7-9.5,9.1-13.7,8.9h-1c-4.5,0-9.7-3.1-13.3-8.3-2-2.9-3.5-6.4-4.1-10.3h-.3c-1.4,0-2.9-1.1-3.9-2.6-.2-.3-.3-.5-.4-.8-.2-.4-.3-.7-.4-1.1h0c-.3-1.5,0-2.7,1.2-3.2h0c1-.4,2.3,0,3.5.7.9-11.9,8.3-22.4,17.5-22.6,2.8,0,5.5.8,7.9,2.3,2.3,1.4,4.3,3.6,6,6.3h0c2.4,3.9,4.1,8.9,4.6,13.9h0c.5-.5,1.1-.9,1.7-1.1.8-.4,1.7-.4,2.4,0,1.6.7,1.9,2.9.6,5.1l.4-.3h0s0-.1,0-.1Z" fill="#b7815b"/>
    <g>
      <path d="M35.6,33.93c.2,0,.4,0,.5-.3,1.7-3.2,4.6-1.9,4.7-1.8.3,0,.6,0,.8-.3,0-.3,0-.6-.3-.8-1.4-.6-4.5-1-6.2,2.3,0,.3,0,.6.2.8h.3s0,.1,0,.1Z" fill="#352300"/>
      <path d="M53,31.33s.3.2.5,0c2.8-1.1,4,1.3,4,1.4,0,.2.4.3.6.2.2,0,.3-.4.2-.6-.5-1.2-2.3-3.1-5.2-1.9-.2,0-.4.4-.3.6v.2h.2s0,.1,0,.1Z" fill="#352300"/>
      <path d="M39.1,36.23c0,1.1.7,2.1,1.5,2.1s1.6-1,1.6-2.1-.7-2.1-1.5-2.1-1.6,1-1.6,2.1Z" fill="#352300"/>
      <path d="M53,36.23c0,1.1.7,2.1,1.5,2.1s1.6-1,1.6-2.1-.7-2.1-1.5-2.1-1.6,1-1.6,2.1Z" fill="#352300"/>
      <path d="M42.8,50.23c.2.2,1.5,3.1,5,3,3.4,0,4.8-2.7,5-3" fill="none" stroke="#352300" stroke-linecap="round" stroke-miterlimit="10"/>
      <path d="M50.3,44.23c0,1.4-1.1,2.5-2.5,2.5s-2.5-1.1-2.5-2.5,1.1,1.4,2.5,1.4,2.5-2.8,2.5-1.4Z" fill="#963" isolation="isolate"/>
    </g>
    <g>
      <g>
        <path d="M27.48,38.97s.25.25.2.56c-.07.51,0,.98.19,1.25.08,1.07.58,1.89,1.11,1.85.11-.01.21-.05.31-.12.44-1,.37-1.64.23-2.05-.21-.56-.69-.97-.53-1.4.12-.32.46-.33.49-.6.02-.39-.73-.64-.68-.89.05-.25.69-.1.97-.5.25-.36.14-1-.14-1.15-.38-.2-.98.61-1.1.5-.14-.13.41-1.37,1.02-1.35.34.01.52.43.68.36.17-.09.17-.65-.09-1.05-.26-.39-.65-.43-.63-.6s.41-.27.68-.29c.58-.06.86.21,1.05.05.19-.16.13-.59.05-.85-.26-.81-1.03-.8-1.15-1.4-.11-.54.37-1.26.86-1.35.58-.1.94.71,1.29.55.33-.15.45-.96.14-1.3-.3-.34-.91-.11-.97-.29-.06-.22.76-.66.91-.75.63-.34.72-.23,1.02-.5.41-.38.68-1,.68-1,.2-.05.39-.05.49.06.28.33-.57,1.42-.44,1.53.12.1,1.16-.55,1.29-1.51.07-.59-.26-.91-.02-1.4.2-.42.53-.36.65-.72.17-.54-.47-.94-.28-1.4.11-.27.46-.47.68-.38.43.17.08,1.41.52,1.61.36.16.81-.59,1.34-.4.3.1.33.37.59.38.3,0,.63-.32.63-.61-.01-.44-.81-.67-.76-.83.04-.12.51-.18.85.05.53.36.32,1.12.76,1.31.39.18,1.04-.2,1.1-.59.06-.34-.36-.61-.26-.75.08-.12.46-.07.72.13.36.28.27.65.52.75.32.13.56-.49,1.1-.56.58-.09.69.54,1.67.86.39.12.69-.01,1.09-.05.07-.04.15-.07.25-.11.82-.29,1.23.27,2,.15.89-.13,1.02-.96,1.67-.86.56.07.79.7,1.1.56.25-.1.15-.48.52-.75.27-.21.65-.26.72-.13.09.15-.32.42-.26.75.06.39.73.77,1.1.59.43-.2.21-.96.76-1.31.34-.23.82-.17.85-.05.06.16-.75.39-.76.83-.01.29.33.62.63.61.26,0,.3-.28.59-.38.54-.18,1,.56,1.34.4.43-.2.09-1.43.52-1.61.21-.09.57.11.68.38.19.45-.45.86-.28,1.4.11.37.45.31.65.72.24.48-.09.81-.02,1.4.12.96,1.16,1.61,1.29,1.51.13-.11-.72-1.2-.44-1.53.09-.11.28-.11.49-.06,0,0,.26.62.68,1,.3.27.39.16,1.02.5.17.09.98.53.91.75-.05.18-.66-.04-.97.29-.31.34-.18,1.15.14,1.3.37.16.73-.65,1.29-.55.5.09.98.81.86,1.35-.12.6-.9.59-1.15,1.4-.08.27-.14.7.05.85.2.16.47-.11,1.05-.05.26.02.65.13.68.29.02.17-.37.21-.63.6-.26.39-.26.97-.09,1.05.15.09.33-.34.68-.36.59-.02,1.15,1.21,1.02,1.35-.13.11-.72-.69-1.1-.5-.28.13-.39.8-.14,1.15.28.4.91.26.97.5.06.27-.7.5-.68.89.02.27.37.28.49.6.15.43-.32.83-.53,1.4-.15.4-.21,1.04.21,2.02.09.07.21.12.33.13.54.04,1.03-.78,1.11-1.85.23-.34.27-.98.11-1.65.66-2.97,2.76-13.92-3.34-20.74-.58-.64-1.24-1.27-2.03-1.86-.04-.04-.08-.09-.15-.13-.07-.05-.13-.07-.18-.1-.02-.01-.05-.01-.08-.02-.19-.05-.33-.2-.37-.4-.09-.54-.34-.94-.72-1.09-.25-.1-.52-.07-.81.06-.24.11-.5-.01-.62-.26-.09-.21-.24-.36-.41-.43l-.14-.04c-.21-.02-.39-.18-.41-.4-.06-.51-.26-.88-.58-1-.2-.07-.44-.05-.69.09-.27.15-.59-.02-.68-.32-.13-.44-.33-.74-.58-.76-.15-.02-.32.05-.47.21-.31.31-.77.4-1.13.2-.04-.01-.07-.04-.09-.04-.11-.02-.23-.01-.34.05-.36.18-.77.06-1.03-.23-.06-.06-.13-.11-.21-.12-.13-.04-.26,0-.4.09-.36.22-.82.16-1.11-.13-.11-.11-.23-.17-.36-.17-.09,0-.18.04-.27.1-.33.25-.78.22-1.11-.01-.24-.16-.38-.25-.52-.17-.12.06-.13.21-.24.22-.12.01-.15-.17-.31-.22-.23-.07-.47.06-.77.38-.2.21-.53.18-.71-.04-.13-.16-.27-.26-.43-.26-.19,0-.37.13-.52.39-.17.27-.52.31-.75.09-.21-.21-.43-.31-.62-.26-.14.04-.26.15-.34.33-.14.28-.49.34-.72.15-.18-.15-.36-.22-.52-.17-.09.02-.18.09-.25.17-.21.26-.59.23-.77-.05-.21-.33-.46-.51-.7-.49-.26.04-.46.32-.58.76-.08.29-.41.47-.68.32-.24-.13-.47-.17-.69-.09-.32.12-.51.49-.58,1-.02.22-.2.38-.41.4-.05.01-.09.01-.14.04-.18.07-.32.22-.41.43-.12.23-.38.37-.62.26-.28-.12-.56-.16-.81-.06-.38.15-.63.55-.72,1.09-.04.2-.18.34-.37.4h-.01s-.04.01-.06.02c-3.03,1.1-5.22,7.07-5.22,7.07-3.09,8.47-.91,15.18-.72,15.63Z" fill="#020202"/>
        <path d="M30.56,30.84c.02.39.64.93.97.94.26.01.36-.29.27-.56-.08-.28-.38-.7-.72-.77-.32-.07-.53.15-.52.39Z" fill="#020202"/>
        <path d="M31.18,34.39c-.04-.26-.49-.6-.72-.61-.19-.01-.23.2-.17.38.07.18.3.45.54.5.21.04.36-.11.34-.27Z" fill="#020202"/>
        <path d="M40.08,25.12c.17-.26.01-.93-.19-1.12-.17-.15-.37.01-.44.22-.08.22-.07.65.11.88.18.2.43.17.52.01Z" fill="#020202"/>
        <path d="M37.07,24.82c-.05-.06-.21-.28-.46-.29-.38-.01-.62.49-.79.92-.01.04-.04.1-.02.17.02.17.23.29.44.32.28.02.79-.12,1.01-.44.18-.29-.13-.64-.17-.67Z" fill="#020202"/>
        <path d="M38.55,25.48c.14-.06.2-.29.18-.47-.05-.36-.51-.49-.9-.6-.04-.01-.09-.04-.14,0-.11.07-.09.37.01.56.09.17.23.25.43.37.2.11.32.18.43.13Z" fill="#020202"/>
        <path d="M42,24.91c-.11.09-.28,0-.39-.12-.2-.25-.07-.72.04-1.1.01-.04.02-.1.07-.12.09-.05.27.13.36.36.07.17.06.33.04.56-.01.23-.02.37-.11.43Z" fill="#020202"/>
        <path d="M42.8,24.06c-.07.15.02.36.15.48.26.25.7.02,1.05-.15.04-.01.09-.04.11-.1.04-.12-.15-.34-.37-.43-.18-.07-.33-.04-.54.01-.21.05-.34.07-.4.18Z" fill="#020202"/>
        <path d="M32.64,29.06c.07.17.34.25.56.22.41-.06.54-.64.66-1.12.01-.05.04-.12,0-.18-.08-.13-.43-.11-.66.02-.19.11-.28.28-.4.53-.14.26-.21.39-.15.53Z" fill="#020202"/>
        <path d="M63.21,30.84c-.02.39-.64.93-.97.94-.26.01-.36-.29-.27-.56.08-.28.38-.7.72-.77.31-.07.53.15.52.39Z" fill="#020202"/>
        <path d="M62.58,34.39c.04-.26.49-.6.72-.61.19-.01.23.2.17.38-.07.18-.3.45-.54.5-.21.04-.36-.11-.34-.27Z" fill="#020202"/>
        <path d="M53.69,25.12c-.17-.26-.01-.93.19-1.12.17-.15.37.01.44.22.08.22.07.65-.11.88-.18.2-.41.17-.52.01Z" fill="#020202"/>
        <path d="M56.7,24.82c.05-.06.21-.28.46-.29.38-.01.62.49.79.92.01.04.04.1.02.17-.02.17-.23.29-.44.32-.28.02-.79-.12-1.01-.44-.18-.29.14-.64.17-.67Z" fill="#020202"/>
        <path d="M55.23,25.48c-.14-.06-.2-.29-.18-.47.05-.36.51-.49.9-.6.04-.01.09-.04.14,0,.11.07.09.37-.01.56-.09.17-.23.25-.43.37-.21.11-.32.18-.43.13Z" fill="#020202"/>
        <path d="M51.77,24.91c.11.09.28,0,.39-.12.2-.25.07-.72-.04-1.1-.01-.04-.02-.1-.07-.12-.09-.05-.27.13-.36.36-.07.17-.06.33-.04.56.01.23.02.37.11.43Z" fill="#020202"/>
        <path d="M50.97,24.06c.07.15-.02.36-.15.48-.26.25-.7.02-1.05-.15-.04-.01-.09-.04-.11-.1-.04-.12.15-.34.37-.43.18-.07.33-.04.54.01.21.05.34.07.4.18Z" fill="#020202"/>
        <path d="M61.14,29.06c-.07.17-.34.25-.56.22-.41-.06-.54-.64-.66-1.12-.01-.05-.04-.12,0-.18.08-.13.43-.11.66.02.19.11.28.28.4.53.14.26.21.39.15.53Z" fill="#020202"/>
      </g>
      <path d="M38.38,21.97c-.08.11-.73.99-1.05.83-.31-.16-.02-1.1-.43-1.44-.46-.37-1.39.37-1.5.15-.08-.15.43-.5.38-.99-.04-.42-.47-.69-.64-.8-.66-.42-1.28-.2-1.33-.38-.05-.24,1.18-.77,1.15-.92-.04-.12-.9.19-1.03-.08-.09-.19.3-.47.21-.77-.11-.37-.79-.27-.88-.57-.08-.35.75-.68.73-1.22-.01-.53-.81-.62-.84-1.12-.05-.68,1.35-1.14,1.26-1.67-.06-.38-.82-.34-.88-.79-.04-.27.2-.6.45-.72.32-.15.57.08.66-.04.19-.24-.71-1.26-.5-1.64.18-.3.89.15,1.14-.2,0,0,.12-.16-.19-1.52,0-.7.11-1.42.47-1.61.5-.27,1.17.5,1.41.27.28-.31-.66-1.73-.33-2.13.26-.31.98.35,1.4-.01.44-.39.01-1.49.41-1.75.31-.2.75.33.97.08.14-.15.21-.6.09-.88-.01-.03-.02-.07-.01-.09.04-.14.38-.01.77-.12.34-.09.31-.26.54-.3.49-.08.76.56,1.04.42.27-.12.13-.76.44-.92.3-.16.57.34.95.22.46-.15.43-1.02.78-1.08.38-.07.59.83,1.08.8.36-.01.43-.51.81-.5.37,0,.5.46.79.38.25-.05.24-.39.46-.46.39-.11.71.81,1.1.73.34-.07.34-.79.66-.84.39-.07.65.96,1.05.92.41-.04.44-1.11.86-1.19.44-.08.6.98,1.39,1.21.68.2,1.16-.41,1.5-.08.31.3.08.95.38,1.12.27.16.63-.31.83-.14s-.09.75.13,1c.24.26.75-.2,1.01.04.33.31-.27,1.27.07,1.76.37.51,1.45,0,1.6.39.13.31-.51.8-.37,1.17.14.35.81.16.94.51.13.37-.46.81-.33,1.11.15.35,1.14.01,1.27.37.08.22-.26.47-.18.73.11.33.73.23.77.43.04.22-.65.43-.64.75.01.28.57.37.57.64s-.53.39-.52.6c.02.22.59.14.72.43.2.45-.83,1.15-.68,1.8.13.54.96.6.96,1,0,.35-.63.41-.71.89-.08.5.49.87.34,1.22-.11.26-.44.15-.57.42-.2.42.52,1.06.36,1.41-.18.37-1.09-.05-1.33.37-.19.35.26,1,.09,1.14-.09.08-.34-.05-.45-.14-.14-.09-.18-.18-.23-.16-.14.04-.05.6-.23.68s-.44-.43-.64-.35c-.19.08-.07.58-.31.73-.31.2-.86-.45-1.05-.27-.13.12.08.47.02.66-.3,1.38-15.01-2.4-17.21.51Z" fill="#020202"/>
    </g>
  </g>
</svg>