<?xml version="1.0" encoding="UTF-8"?>
<svg id="layer" xmlns="http://www.w3.org/2000/svg" version="1.1" viewBox="0 0 90 90">
  <!-- Generator: Adobe Illustrator 29.3.1, SVG Export Plug-In . SVG Version: 2.1.0 Build 151)  -->
  <path id="no" d="M45,0C20.14,0,0,20.14,0,45s20.14,45,45,45,45-20.14,45-45S69.86,0,45,0ZM66.19,59.78c1.75,1.75,1.75,4.61,0,6.36s-3.93,2.43-6.36,0l-14.83-14.81-14.81,14.81c-2.06,2.06-5.03,1.33-6.36,0-1.75-1.75-1.75-4.61,0-6.36l14.81-14.81-14.81-14.81c-1.75-1.75-1.75-4.61,0-6.36s4.61-1.75,6.36,0l14.81,14.81,14.81-14.81c1.75-1.75,4.61-1.75,6.36,0s1.75,4.61,0,6.36l-14.81,14.81s14.83,14.81,14.83,14.81Z" fill="#29485d"/>
</svg>