<?xml version="1.0" encoding="UTF-8"?>
<svg id="Layer_1" xmlns="http://www.w3.org/2000/svg" xmlns:xlink="http://www.w3.org/1999/xlink" version="1.1" viewBox="0 0 858.3 858.3">
  <!-- Generator: Adobe Illustrator 29.3.1, SVG Export Plug-In . SVG Version: 2.1.0 Build 151)  -->
  <defs>
    <style>
      .st0 {
        fill: #383838;
        opacity: .6;
      }

      .st1 {
        fill: #ededed;
      }
    </style>
  </defs>
  <circle class="st1" cx="429.2" cy="429.2" r="429.2"/>
  <path class="st0" d="M790.3,446.1l-101.7-135.2c-4.9-6.5-14.7-6.6-19.7-.2l-105.2,135.2c-6.3,8.2-.5,20.1,9.8,20.1h68c-17.6,105.2-109.3,185.7-219.5,185.7s-222.6-99.8-222.6-222.6,99.8-222.6,222.6-222.6,130,29.8,172.5,81.9c12.7,15.6,35.7,17.9,51.2,5.2,15.6-12.7,17.9-35.7,5.2-51.2-56.4-69-139.8-108.6-228.9-108.6-162.9,0-295.4,132.5-295.4,295.4s132.5,295.4,295.4,295.4,274.8-113,293-258.6h65.4c10.2,0,16.1-11.7,9.9-19.9h0Z"/>
</svg>