<?xml version="1.0" encoding="UTF-8"?>
<svg id="girl" xmlns="http://www.w3.org/2000/svg" version="1.1" viewBox="0 0 93.45 246.54">
  <!-- Generator: Adobe Illustrator 29.3.1, SVG Export Plug-In . SVG Version: 2.1.0 Build 151)  -->
  <g>
    <path d="M45.68,167.23v1.2l-3.4,28.8-4.5,38.3h-5.8c-.6,0-1.9-19.6-1.9-38.3s.6-24.3,2.2-30c0-3.7,3-6.7,6.7-6.7s6,2.4,6.6,5.5v1.2h.1Z" fill="#e29a73"/>
    <path d="M39.08,241.63c0,1.2-.7,2.1-1.6,2.7-.6.4-22.7,2.4-23.3,2.2-5-2.4,17.6-11.2,17.6-11.2l6.1.2s1.3,4.9,1.1,6.2h.1v-.1h0Z" fill="#273758"/>
    <path d="M39.98,174.03h0c-3.8.4-7.2-2.2-8-5.9l-6.7-34.7c-.4-5.1,3.4-9.5,8.5-10h0c5.1-.4,9.5,3.4,10,8.5l2,34.2c.3,4-1.8,7.5-5.7,7.9h-.1Z" fill="#e29a73"/>
  </g>
  <g>
    <path d="M61.08,197.23c0,18.7-1.3,38.3-1.9,38.3h-5.8l-4.5-38.3-3.3-28.8v-2.4c.6-3.1,3.3-5.5,6.6-5.5s6.7,3,6.7,6.7c1.7,5.7,2.2,17.7,2.2,30h0Z" fill="#e29a73"/>
    <path d="M52.08,241.63c0,1.2.7,2.1,1.6,2.7.6.4,22.7,2.4,23.3,2.2,5-2.4-17.6-11.2-17.6-11.2l-6.1.2s-1.3,4.9-1.1,6.2h0l-.1-.1h0Z" fill="#273758"/>
    <path d="M51.28,174.03h0c3.8.4,7.2-2.2,8-5.9l6.7-34.7c.4-5.1-3.4-9.5-8.5-10h0c-5.1-.4-9.5,3.4-10,8.5l-2,34.2c-.3,4,1.8,7.5,5.7,7.9h.1Z" fill="#e29a73"/>
  </g>
  <path d="M62.18,96.23c-1.5,5.7-1.2,11.7.7,17.3.7,2.1,1.4,4.7,1.8,7.8.5,3,1.2,7.7,1.2,11.5l-18.9,7.5h-2.8l-18.9-7.2c0-5.2.7-12.8,2.1-17.6.4-1.4.9-2.8,1.4-4,2.5-5.4,3.5-11.4,2.5-17.3l-3.9-22.6-1.2-6.7,1.2-.7,15.7-9.9h9.1l14.2,9.8,1.1.7-1.1,6.5-4.1,25h0l-.1-.1h0Z" fill="#e29a73"/>
  <path d="M62.18,96.23c-1.5,5.7-1.2,11.7.7,17.3.7,2.1,1.4,4.7,1.8,7.8H27.38v-5.8c.4-1.4.9-2.8,1.4-4,2.5-5.4,3.5-11.4,2.5-17.3l-3.9-22.6-1.1-6.7,12.7-8,4.1-2.6h9.1l3.5,2.4,11.8,8.1-1.1,6.5-4.1,25h-.1s0-.1,0-.1Z" fill="#e6e6e6"/>
  <path d="M30.68,107.83s-11.6,30-11.1,58.1c0,1.5.9,2.7,2.1,3.1,7.9,2.1,36.8,8.9,50.7-1.7.9-.7,1.3-1.9,1.2-3.1-1.1-8.2-5.6-40.7-11.9-56.3-10.2,4.3-20.5,4.1-31.1,0h.1s0-.1,0-.1Z" fill="#3f6138"/>
  <g>
    <path d="M22.88,96.03h0c.8,1.3,1.1,3,.7,4.6l-7.7,31.3-6.2-3.1,5-30.5c.8-4.7,5.9-6.1,8.3-2.3h-.1Z" fill="#e29a73"/>
    <path d="M19.78,104.23h0c-3.4.1-5.8-4-4.8-8.1l7.1-25.7c1-4.1,4.4-6.4,7.7-5.3h0c3.7,1.3,5.6,6.7,3.8,11.1l-9.8,23.8c-.8,2.1-2.1,4.1-3.9,4.2,0,0-.1,0-.1,0Z" fill="#e29a73"/>
    <path d="M24.68,65.83c-3.3,3-7.5,9.2-10.7,22.3l12.9,6.4,1.8-5.1c4.2-7.8,7.4-15,6.7-20-.6-4.8-7.1-6.8-10.8-3.5h0s.1-.1.1-.1Z" fill="#e6e6e6"/>
    <path d="M13.58,141.63l2.4-10.3-6.2-3.1v.4c-7.8,3.8-9.2,10.1-9.2,10.1-1.4,6.1,0,6.9,1.5,6.6,1-.2,1.8-1,2.4-2,2.4-4.4,7.7-8.2,7.7-8.2-.8,9,1.5,6.4,1.5,6.4h0l-.1.1Z" fill="#e29a73"/>
  </g>
  <g>
    <path d="M70.58,96.03h0c-.8,1.3-1.1,3-.7,4.6l7.7,31.3,6.2-3.1-5-30.5c-.8-4.7-5.9-6.1-8.3-2.3h.1Z" fill="#e29a73"/>
    <path d="M73.68,104.23h0c3.4.1,5.8-4,4.8-8.1l-7.1-25.7c-1-4.1-4.4-6.4-7.7-5.3h0c-3.7,1.3-5.6,6.7-3.8,11.1l9.8,23.8c.8,2.1,2.1,4.1,3.9,4.2,0,0,.1,0,.1,0Z" fill="#e29a73"/>
    <path d="M68.78,65.83c3.3,3,7.5,9.2,10.7,22.3l-12.9,6.4-1.8-5.1c-4.2-7.8-7.4-15-6.7-20,.6-4.8,7.1-6.8,10.8-3.5h0s-.1-.1-.1-.1Z" fill="#e6e6e6"/>
    <path d="M79.88,141.63l-2.4-10.3,6.2-3.1v.4c7.8,3.8,9.2,10.1,9.2,10.1,1.4,6.1,0,6.9-1.5,6.6-1-.2-1.8-1-2.4-2-2.4-4.4-7.7-8.2-7.7-8.2.8,9-1.5,6.4-1.5,6.4h.1s0,.1,0,.1Z" fill="#e29a73"/>
  </g>
  <g>
    <path d="M47.58,57.93h0c-2.5,0-4.5-2-4.5-4.5v-6.7h9.1v6.7c0,2.5-2,4.5-4.5,4.5h-.1Z" fill="#c38353"/>
    <path d="M69.48,28.43c-.9,1.5-2.3,2.5-3.7,2.8h-1.2c-.4,3.9-1.8,7.5-3.8,10.4-3.8,5.7-9.5,9.1-13.7,8.9h-1c-4.5,0-9.7-3.1-13.3-8.3-2-2.9-3.5-6.4-4.1-10.3h-.3c-1.4,0-2.9-1.1-3.9-2.6-.2-.3-.3-.5-.4-.8-.2-.4-.3-.7-.4-1.1h0c-.3-1.5,0-2.7,1.2-3.2h0c1-.4,2.3,0,3.5.7.9-11.9,8.3-22.4,17.5-22.6,2.8,0,5.5.8,7.9,2.3,2.3,1.4,4.3,3.6,6,6.3h0c2.4,3.9,4.1,8.9,4.6,13.9h0c.5-.5,1.1-.9,1.7-1.1.8-.4,1.7-.4,2.4,0,1.6.7,1.9,2.9.6,5.1l.4-.3h0s0-.1,0-.1Z" fill="#e29a73"/>
    <path d="M28.28,9.74c1.11-.89,1.46-2.51,1.72-3.67.16-.74.33-1.72,1.1-2.34.03-.02.07-.05.1-.07,1.32-.81,2.81,1.23,4.31.56,1.09-.49.7-1.73,2.11-3.18,1.57-1.61,4.62.47,5.08.6h0c.29.07.59.12.88.14.56.04,3.22-1.58,4.77-1.75,2.26-.26,2.74,2.49,5.15,2.26,1.64-.16,2.21-1.53,3.92-1.24.86.15,1.59.64,1.92.87.43.29,1.21.83,1.68,1.7.87,1.65-.32,2.8.43,3.85.84,1.17,2.71.14,3.6,1.45.66.98-.01,1.81.66,3.26.75,1.61,3.55,1.46,4.14,2.76.86,1.89-1.3,3.5-.78,5.95.57,2.66,3.52,2.71,3.65,4.91.11,1.86-1.96,2.34-2.1,4.84-.07,1.38.52,1.84.82,2.95.09.4.14.81.15,1.2.12,2.27-.75,3.19-.23,4.76.08.23.18.46.31.68,1.43,2.92.98,7.71-.22,8-.78.19-1.63-1.59-2.21-1.32-.43.21.17,1.56-.45,2.21-.67.71-3.45-.54-4.98-.08-1.86.56-2.01,2.7-3.23,2.68-1.18-.02-1.44-2.01-2.72-2.25-.79-.15-1.96.37-3.74,3.09-.36-1.33-.57-2.71-.6-4.09,3.44-3.13,6.29-6.89,8.43-11.09.03-8.95.48-12.41.96-13.64.31-.71.43-1.5.36-2.27-.06-.5-.14-1.39-.77-2.06-.79-.82-1.69-.57-2.28-1.5-.14-.25-.25-.5-.33-.77-.34-.87-.32-1.1-.54-1.39s-.36-.23-1.11-.62c-1.32-.68-1.52-1.18-2.26-1.17-.4.01-.45.16-.82.11-.67-.11-1-.66-1.2-.54-.23.14.02.89-.11.94-.08.02-.16-.21-.39-.41-.28-.25-.78-.14-1.74-.34-.67-.14-.83-.18-1.03-.32-.56-.37-.68-.91-.82-.89-.25.04-.03,1.82-.45,1.97-.33.11-.62-.99-1.52-1.16-.52-.09-1.04.16-1.38.33-.43.21-.41.32-.9.6-.56.33-1.11.66-1.59.49-.64-.21-.5-1.1-1.01-1.25-.64-.19-1.05,1.16-2.59,1.86-.42.2-1.28.58-2.23.35-.93-.23-1.21-.9-2.21-.96-.42-.02-.73.06-1.17.22-.74.26-1.43.8-2.8,1.88-1.58,1.25-1.55,1.65-1.55,1.8,0,.78.9,1.05.81,1.92-.02.22-.09.23-.53,1.25,0,0-.12.29-.41.95-.99,2.34,1.16,4.73,1.92,8.13.32,1.44.52,3.63-.28,6.6,1.88,4.27,4.68,8.04,8.2,11.01-.01.57-.06,1.15-.12,1.72-.1.77-.25,1.54-.45,2.29-.5-.09-.99-.26-1.44-.49-.58-.29-.62-.46-.85-.47-.99-.04-1.45,2.83-2.28,2.84-.75,0-.7-2.27-1.86-2.84-1.62-.8-3.37,2.91-5.81,2.28-.94-.28-1.74-.96-2.15-1.87-.6-1.33.01-2.48-.6-3.04-.64-.58-1.47.49-2.76.07-1.03-.34-2.01-1.53-2.04-2.7-.05-1.58,1.69-1.87,1.86-3.46.23-2.2-2.93-3.11-2.94-5.53,0-2.4,3.19-3.85,2.63-5.12-.36-.85-1.92-.53-2.13-1.23-.39-1.29,4.53-3.13,4.29-5.08-.18-1.46-3.18-1.65-3.23-3.11-.05-1.22,1.94-1.43,2.45-3.32.43-1.58-.77-2.15-.56-4.46.07-.77.23-2.35,1.32-3.25.7-.57,1.21-.39,3.53-1.38.75-.29,1.09-.43,1.27-.58Z" fill="#382a17"/>
    <g>
      <path d="M35.6,23.62c.2,0,.4,0,.5-.3,1.7-3.2,4.6-1.9,4.7-1.8.3,0,.6,0,.8-.3,0-.3,0-.6-.3-.8-1.4-.6-4.5-1-6.2,2.3,0,.3,0,.6.2.8h.3v.1Z" fill="#352300"/>
      <path d="M53,21.02s.3.2.5,0c2.8-1.1,4,1.3,4,1.4,0,.2.4.3.6.2.2,0,.3-.4.2-.6-.5-1.2-2.3-3.1-5.2-1.9-.2,0-.4.4-.3.6v.2h.2s0,.1,0,.1Z" fill="#352300"/>
      <path d="M39.1,25.92c0,1.1.7,2.1,1.5,2.1s1.6-1,1.6-2.1-.7-2.1-1.5-2.1-1.6,1-1.6,2.1Z" fill="#352300"/>
      <path d="M53,25.92c0,1.1.7,2.1,1.5,2.1s1.6-1,1.6-2.1-.7-2.1-1.5-2.1-1.6,1-1.6,2.1Z" fill="#352300"/>
      <path d="M42.8,39.92c.2.2,1.5,3.1,5,3,3.4,0,4.8-2.7,5-3" fill="none" stroke="#352300" stroke-linecap="round" stroke-miterlimit="10"/>
      <path d="M50.3,33.92c0,1.4-1.1,2.5-2.5,2.5s-2.5-1.1-2.5-2.5,1.1,1.4,2.5,1.4,2.5-2.8,2.5-1.4Z" fill="#963" isolation="isolate"/>
    </g>
  </g>
</svg>