<?xml version="1.0" encoding="UTF-8"?>
<svg id="boy" xmlns="http://www.w3.org/2000/svg" version="1.1" viewBox="0 0 93.45 248.64">
  <!-- Generator: Adobe Illustrator 29.3.1, SVG Export Plug-In . SVG Version: 2.1.0 Build 151)  -->
  <g>
    <path d="M22.88,98.13h0c.8,1.3,1.1,3,.7,4.6l-7.7,31.3-6.2-3.1,5-30.5c.8-4.7,5.9-6.1,8.3-2.3,0,0-.1,0-.1,0Z" fill="#e29a73"/>
    <path d="M19.78,106.33h0c-3.4.1-5.8-4-4.8-8.1l7.1-25.7c1-4.1,4.4-6.4,7.7-5.3h0c3.7,1.3,5.6,6.7,3.8,11.1l-9.8,23.8c-.8,2.1-2.1,4.1-3.9,4.2h-.1,0Z" fill="#e29a73"/>
    <path d="M24.68,67.93c-3.3,3-7.5,9.2-10.7,22.3l12.9,6.4,1.8-5.1c4.2-7.8,7.4-15,6.7-20-.6-4.8-7.1-6.8-10.8-3.5h0s0-.05,0,0c0,0,.1-.1.1-.1Z" fill="#e6e6e6"/>
    <path d="M13.58,143.73l2.4-10.3-6.2-3.1v.4c-7.8,3.8-9.2,10.1-9.2,10.1-1.4,6.1,0,6.9,1.5,6.6,1-.2,1.8-1,2.4-2,2.4-4.4,7.7-8.2,7.7-8.2-.8,9,1.5,6.4,1.5,6.4h0l-.1.1Z" fill="#e29a73"/>
  </g>
  <g>
    <path d="M70.58,98.13h0c-.8,1.3-1.1,3-.7,4.6l7.7,31.3,6.2-3.1-5-30.5c-.8-4.7-5.9-6.1-8.3-2.3,0,0,.1,0,.1,0Z" fill="#e29a73"/>
    <path d="M73.68,106.33h0c3.4.1,5.8-4,4.8-8.1l-7.1-25.7c-1-4.1-4.4-6.4-7.7-5.3h0c-3.7,1.3-5.6,6.7-3.8,11.1l9.8,23.8c.8,2.1,2.1,4.1,3.9,4.2h.1,0Z" fill="#e29a73"/>
    <path d="M68.78,67.93c3.3,3,7.5,9.2,10.7,22.3l-12.9,6.4-1.8-5.1c-4.2-7.8-7.4-15-6.7-20,.6-4.8,7.1-6.8,10.8-3.5h0s0-.05,0,0c0,0-.1-.1-.1-.1Z" fill="#e6e6e6"/>
    <path d="M79.88,143.73l-2.4-10.3,6.2-3.1v.4c7.8,3.8,9.2,10.1,9.2,10.1,1.4,6.1,0,6.9-1.5,6.6-1-.2-1.8-1-2.4-2-2.4-4.4-7.7-8.2-7.7-8.2.8,9-1.5,6.4-1.5,6.4h0v.1h.1Z" fill="#e29a73"/>
  </g>
  <g>
    <path d="M65.08,199.83c-1.3,18.7-3.9,38.1-4.5,38.1l-5.8-.4-1.8-38.5-1.4-28.9v-1.2c0-.4,0-.8.2-1.2.8-3.1,3.6-5.3,6.9-5,3.7.3,6.4,3.4,6.2,7.1,1.3,5.8,1,17.8.2,30.1h0v-.1h0Z" fill="#e29a73"/>
    <path d="M63.08,221.53c-1.1,9.5-2.1,16.4-2.5,16.4l-5.8-.4-.8-16h9.1Z" fill="#e6e6e6"/>
    <path d="M53.08,243.73c0,1.2.7,2.1,1.6,2.7.6.4,22.7,2.4,23.3,2.2,5-2.4-17.6-11.2-17.6-11.2l-6.1.2s-1.3,4.9-1.1,6.2h0v-.1h-.1Z" fill="#273758"/>
    <g>
      <path d="M65.88,132.13l-.8,27.2-.2,8.2c0,3.8-3.1,6.9-6.9,7.1-4,.2-6.6-2.9-6.9-6.9l-.9-8.4-2.7-25.7v-.8c0-4.8,3.7-8.8,8.5-9.2,5.1-.4,9.6,3.4,10,8.5h-.1Z" fill="#e29a73"/>
      <path d="M65.88,132.13l.4,26.2c0,.5-.4,1-1,1h-16.7c-.5,0-1-.4-1-1l-.2-24.7v-.8c0-4.8,3.7-8.8,8.5-9.2,5.1-.4,9.6,3.4,10,8.5Z" fill="#466e9f"/>
    </g>
  </g>
  <g>
    <path d="M26.48,199.83c1.3,18.7,3.9,38.1,4.5,38.1l5.8-.4,1.8-38.5,1.4-28.9v-1.2c0-.4,0-.8-.2-1.2-.8-3.1-3.6-5.3-6.9-5-3.7.3-6.5,3.4-6.2,7.1-1.3,5.8-1,17.8-.2,30.1h0v-.1h0Z" fill="#e29a73"/>
    <path d="M37.48,221.53l-.8,16-5.8.4c-.4,0-1.4-6.9-2.5-16.4,0,0,9.1,0,9.1,0Z" fill="#e6e6e6"/>
    <path d="M38.18,243.73c0,1.2-.7,2.1-1.6,2.7-.6.4-22.7,2.4-23.3,2.2-5-2.4,17.6-11.2,17.6-11.2l6.1.2s1.3,4.9,1.1,6.2h0v-.1h.1Z" fill="#273758"/>
    <g>
      <path d="M43.98,132.93v.7l-2.4,25.8-.8,8.3c-.3,4-2.9,7.1-6.9,7-3.8-.2-6.8-3.2-7-7l-.3-8.2-1.1-27.1c.4-5.1,4.8-8.9,9.9-8.6,4.9.3,8.6,4.4,8.6,9.2h0s0-.05,0,0c0,0,0-.1,0-.1Z" fill="#e29a73"/>
      <path d="M43.98,132.93v.7l-.8,24.9c0,.5-.4.9-.9.9h-16.3c-.5,0-.9-.4-.9-.9l.4-26.2c.4-5.1,4.8-8.9,9.9-8.6,4.9.3,8.6,4.4,8.6,9.2h0Z" fill="#466e9f"/>
    </g>
  </g>
  <path d="M67.28,66.83l-1.1,6.5-4.1,25c-1,3.9-1.2,7.9-.6,11.8h-31.4c1.5-4.5,1.9-9.2,1.1-13.9l-3.9-22.6-1.2-6.7,1.2-.7,15.7-9.9h9.1l14.2,9.8,1.1.7s-.1,0-.1,0Z" fill="#e6e6e6"/>
  <path d="M65.78,134.83l-17.5,7.5h-5.2l-17.5-7.3c-.5-5,.3-12.6,1.7-17.5.4-1.4.9-2.8,1.4-4,.5-1.1,1-2.2,1.3-3.4h31.4c.3,1.8.7,3.7,1.3,5.4.7,2.1,1.4,4.7,1.8,7.8.5,3,1.6,7.6,1.1,11.5h.2Z" fill="#466e9f"/>
  <path d="M55.58,58.73h0c-2.4,8-13.6,8.3-16.5.5v-.3l4.1-2.6h9.1l3.5,2.4s-.2,0-.2,0Z" fill="#466e9f"/>
  <g>
    <path d="M47.58,60.03h0c-2.5,0-4.5-2-4.5-4.5v-6.7h9.1v6.7c0,2.5-2,4.5-4.5,4.5h-.1Z" fill="#c38353"/>
    <path d="M69.07,30.93c-2,3.47-3.35,3.66-4.05,3.01l-.45-.61c-.4,3.9-1.8,7.5-3.8,10.4-3.8,5.7-9.5,9.1-13.7,8.9h-1c-4.5,0-9.7-3.1-13.3-8.3-2-2.9-3.5-6.4-4.1-10.3h-.3c-.74.7-2.29,1.5-3.9-2.6-.13-.34-.3-.5-.4-.8-.2-.4-.3-.7-.4-1.1h0c-.3-1.5,0-2.7,1.2-3.2h0c1-.4,2.3,0,3.5.7.9-11.9,8.3-22.4,17.5-22.6,2.8,0,5.5.8,7.9,2.3,2.3,1.4,4.3,3.6,6,6.3h0c2.4,3.9,4.1,8.9,4.6,13.9h0c.5-.5,1.1-.9,1.7-1.1.8-.4,1.7-.4,2.4,0,1.6.7,1.9,2.9.6,5.1" fill="#e29a73"/>
    <g>
      <path d="M35.18,25.93c.2,0,.4,0,.5-.3,1.7-3.2,4.6-1.9,4.7-1.8.3,0,.6,0,.8-.3,0-.3,0-.6-.3-.8-1.4-.6-4.5-1-6.2,2.3,0,.3,0,.6.2.8h.3s0,.1,0,.1Z" fill="#352300"/>
      <path d="M52.58,23.33s.3.2.5,0c2.8-1.1,4,1.3,4,1.4,0,.2.4.3.6.2.2,0,.3-.4.2-.6-.5-1.2-2.3-3.1-5.2-1.9-.2,0-.4.4-.3.6v.2h.2s0,.1,0,.1Z" fill="#352300"/>
      <path d="M38.68,28.23c0,1.1.7,2.1,1.5,2.1s1.6-1,1.6-2.1-.7-2.1-1.5-2.1-1.6,1-1.6,2.1Z" fill="#352300"/>
      <path d="M52.58,28.23c0,1.1.7,2.1,1.5,2.1s1.6-1,1.6-2.1-.7-2.1-1.5-2.1-1.6,1-1.6,2.1Z" fill="#352300"/>
      <path d="M42.38,42.23c.2.2,1.5,3.1,5,3,3.4,0,4.8-2.7,5-3" fill="none" stroke="#352300" stroke-linecap="round" stroke-miterlimit="10"/>
      <path d="M49.88,36.23c0,1.4-1.1,2.5-2.5,2.5s-2.5-1.1-2.5-2.5,1.1,1.4,2.5,1.4,2.5-2.8,2.5-1.4Z" fill="#963" isolation="isolate"/>
    </g>
    <g>
      <path d="M33.92,7.42c-.81.04-4.16.29-6.79,2.9-1.76,1.76-2.34,3.73-2.54,4.64.29-.51.74-1.19,1.46-1.84.4-.36.79-.64,1.14-.85-.77,1.11-1.78,2.87-2.42,5.19-.35,1.25-.84,3.11-.55,5.37.26,1.99.98,2.76,3.05,6.94.93,1.87,1.62,3.4,2.04,4.34.07-2.63.24-4.82.4-6.44.46-4.94.97-6.28,1.26-6.97.97-2.25,2.35-3.81,3.33-4.75,5.18,1.49,11.02,2.8,17.46,3.7,2.53.36,4.98.62,7.34.81-.47-.5-1.23-1.46-1.6-2.87-.22-.83-.25-1.56-.22-2.09,2.88,1.99,4.26,4.2,4.91,5.43,1.47,2.82,1.67,5.62,1.74,6.61.06.77.11,2.38.14,3.86.01.92.01,1.69.01,2.21.43-.88,1-2.11,1.6-3.59.57-1.44.94-2.36,1.24-3.59.24-.99.5-2.42.51-4.2.22.85.45,1.7.67,2.55,1.93-5.21,1.1-8.83.51-10.57-3.95-11.33-23.93-16.35-31.96-10.08-1.41,1.11-2.26,2.4-2.73,3.31Z" fill="#020106"/>
      <g>
        <path d="M33.68,11.03c-1.19-3.11.2-6.87,3-8.74.93-.63,1.97-1.1,3.07-1.27-.95.55-1.81,1.15-2.58,1.86-2.37,2.08-3.49,5.07-3.49,8.15h0Z"/>
        <path d="M24.86,10.69c1.69-2.89,5.56-4.32,8.86-3.49,1.1.26,2.14.73,3.01,1.42-1.05-.33-2.09-.57-3.15-.68-3.19-.38-6.28.75-8.72,2.75h0Z"/>
        <path d="M35.51,1.71c-1.78,2.59-2.37,5.86-1.29,8.81.35.98.83,1.9,1.43,2.79-.81-.73-1.44-1.63-1.88-2.62-1.38-2.95-.68-6.72,1.75-8.97h0Z"/>
        <path d="M26.34,7.56c2.81-1.8,6.79-1.63,9.49.31.9.63,1.69,1.42,2.26,2.33-.77-.76-1.61-1.42-2.52-1.94-2.76-1.65-6.21-1.81-9.23-.7h0Z"/>
      </g>
    </g>
  </g>
</svg>