<?xml version="1.0" encoding="UTF-8"?>
<svg id="layer" xmlns="http://www.w3.org/2000/svg" version="1.1" viewBox="0 0 90 90">
  <!-- Generator: Adobe Illustrator 29.3.1, SVG Export Plug-In . SVG Version: 2.1.0 Build 151)  -->
  <path id="yes" d="M38.72,65c.21-.11.41-.25.59-.43l31.82-31.82c.9-.9.9-2.36,0-3.26l-1.64-1.64c-1.17-1.17-3.09-1.17-4.26,0l-27.56,27.56-11.64-11.64c-.91-.91-3.36-.9-4.26,0l-1.64,1.64c-.9.9-.9,2.36,0,3.26l15.9,15.9c.73.73,1.81.87,2.68.43h0ZM0,45C0,20.15,20.14,0,45,0s45,20.14,45,45-20.14,45-45,45S0,69.86,0,45h0Z" fill="#29485d" fill-rule="evenodd"/>
</svg>